G04 #@! TF.GenerationSoftware,KiCad,Pcbnew,5.1.4*
G04 #@! TF.CreationDate,2019-10-28T13:13:04-05:00*
G04 #@! TF.ProjectId,rf,72662e6b-6963-4616-945f-706362585858,rev?*
G04 #@! TF.SameCoordinates,PX8120a40PY669d880*
G04 #@! TF.FileFunction,Soldermask,Bot*
G04 #@! TF.FilePolarity,Negative*
%FSLAX46Y46*%
G04 Gerber Fmt 4.6, Leading zero omitted, Abs format (unit mm)*
G04 Created by KiCad (PCBNEW 5.1.4) date 2019-10-28 13:13:04*
%MOMM*%
%LPD*%
G04 APERTURE LIST*
%ADD10C,0.100000*%
G04 APERTURE END LIST*
D10*
G36*
X31246000Y-541900D02*
G01*
X30186000Y-541900D01*
X30186000Y518100D01*
X31246000Y518100D01*
X31246000Y-541900D01*
X31246000Y-541900D01*
G37*
G36*
X21086000Y-541900D02*
G01*
X20026000Y-541900D01*
X20026000Y518100D01*
X21086000Y518100D01*
X21086000Y-541900D01*
X21086000Y-541900D01*
G37*
G36*
X12196000Y-541900D02*
G01*
X11136000Y-541900D01*
X11136000Y518100D01*
X12196000Y518100D01*
X12196000Y-541900D01*
X12196000Y-541900D01*
G37*
G36*
X13466000Y-541900D02*
G01*
X12406000Y-541900D01*
X12406000Y518100D01*
X13466000Y518100D01*
X13466000Y-541900D01*
X13466000Y-541900D01*
G37*
G36*
X14736000Y-541900D02*
G01*
X13676000Y-541900D01*
X13676000Y518100D01*
X14736000Y518100D01*
X14736000Y-541900D01*
X14736000Y-541900D01*
G37*
G36*
X16006000Y-541900D02*
G01*
X14946000Y-541900D01*
X14946000Y518100D01*
X16006000Y518100D01*
X16006000Y-541900D01*
X16006000Y-541900D01*
G37*
G36*
X17276000Y-541900D02*
G01*
X16216000Y-541900D01*
X16216000Y518100D01*
X17276000Y518100D01*
X17276000Y-541900D01*
X17276000Y-541900D01*
G37*
G36*
X18546000Y-541900D02*
G01*
X17486000Y-541900D01*
X17486000Y518100D01*
X18546000Y518100D01*
X18546000Y-541900D01*
X18546000Y-541900D01*
G37*
G36*
X19816000Y-541900D02*
G01*
X18756000Y-541900D01*
X18756000Y518100D01*
X19816000Y518100D01*
X19816000Y-541900D01*
X19816000Y-541900D01*
G37*
G36*
X23626000Y-541900D02*
G01*
X22566000Y-541900D01*
X22566000Y518100D01*
X23626000Y518100D01*
X23626000Y-541900D01*
X23626000Y-541900D01*
G37*
G36*
X24896000Y-541900D02*
G01*
X23836000Y-541900D01*
X23836000Y518100D01*
X24896000Y518100D01*
X24896000Y-541900D01*
X24896000Y-541900D01*
G37*
G36*
X26166000Y-541900D02*
G01*
X25106000Y-541900D01*
X25106000Y518100D01*
X26166000Y518100D01*
X26166000Y-541900D01*
X26166000Y-541900D01*
G37*
G36*
X27436000Y-541900D02*
G01*
X26376000Y-541900D01*
X26376000Y518100D01*
X27436000Y518100D01*
X27436000Y-541900D01*
X27436000Y-541900D01*
G37*
G36*
X28424504Y1837028D02*
G01*
X28462758Y1829419D01*
X28522814Y1804542D01*
X28576863Y1768428D01*
X28622828Y1722463D01*
X28658942Y1668414D01*
X28683819Y1608358D01*
X28688644Y1584100D01*
X28696500Y1544604D01*
X28696500Y1479596D01*
X28691428Y1454096D01*
X28683819Y1415842D01*
X28658942Y1355786D01*
X28622828Y1301737D01*
X28576863Y1255772D01*
X28547854Y1236389D01*
X28528864Y1223700D01*
X28523561Y1219348D01*
X28519208Y1214044D01*
X28515974Y1207993D01*
X28513982Y1201428D01*
X28513310Y1194600D01*
X28513983Y1187772D01*
X28515974Y1181206D01*
X28519209Y1175155D01*
X28523561Y1169852D01*
X28528864Y1165500D01*
X28547854Y1152811D01*
X28576863Y1133428D01*
X28622828Y1087463D01*
X28658942Y1033414D01*
X28683819Y973358D01*
X28686146Y961658D01*
X28693617Y924100D01*
X28696500Y909602D01*
X28696500Y844598D01*
X28683819Y780842D01*
X28658942Y720786D01*
X28622828Y666737D01*
X28576863Y620772D01*
X28551485Y603815D01*
X28521130Y583532D01*
X28518637Y582200D01*
X28513334Y577848D01*
X28508981Y572544D01*
X28505746Y566493D01*
X28503755Y559928D01*
X28503082Y553100D01*
X28503754Y546272D01*
X28505746Y539706D01*
X28508980Y533655D01*
X28513332Y528352D01*
X28518636Y523999D01*
X28524687Y520764D01*
X28531252Y518773D01*
X28538081Y518100D01*
X28706000Y518100D01*
X28706000Y-541900D01*
X27646000Y-541900D01*
X27646000Y518100D01*
X28194919Y518100D01*
X28201747Y518772D01*
X28208313Y520764D01*
X28214363Y523998D01*
X28219667Y528351D01*
X28224020Y533655D01*
X28227254Y539705D01*
X28229246Y546271D01*
X28229918Y553099D01*
X28229246Y559927D01*
X28227254Y566493D01*
X28224020Y572543D01*
X28219667Y577847D01*
X28214363Y582200D01*
X28211870Y583532D01*
X28181515Y603815D01*
X28156137Y620772D01*
X28110172Y666737D01*
X28074058Y720786D01*
X28049181Y780842D01*
X28036500Y844598D01*
X28036500Y909602D01*
X28039384Y924100D01*
X28046854Y961658D01*
X28049181Y973358D01*
X28074058Y1033414D01*
X28110172Y1087463D01*
X28156137Y1133428D01*
X28185146Y1152811D01*
X28204136Y1165500D01*
X28209439Y1169852D01*
X28213792Y1175156D01*
X28217026Y1181207D01*
X28219018Y1187772D01*
X28219690Y1194600D01*
X28219017Y1201428D01*
X28217026Y1207994D01*
X28213791Y1214045D01*
X28209439Y1219348D01*
X28204136Y1223700D01*
X28185146Y1236389D01*
X28156137Y1255772D01*
X28110172Y1301737D01*
X28074058Y1355786D01*
X28049181Y1415842D01*
X28041572Y1454096D01*
X28036500Y1479596D01*
X28036500Y1544604D01*
X28044356Y1584100D01*
X28049181Y1608358D01*
X28074058Y1668414D01*
X28110172Y1722463D01*
X28156137Y1768428D01*
X28210186Y1804542D01*
X28270242Y1829419D01*
X28308496Y1837028D01*
X28333996Y1842100D01*
X28399004Y1842100D01*
X28424504Y1837028D01*
X28424504Y1837028D01*
G37*
G36*
X29976000Y-541900D02*
G01*
X28916000Y-541900D01*
X28916000Y518100D01*
X29976000Y518100D01*
X29976000Y-541900D01*
X29976000Y-541900D01*
G37*
G36*
X22356000Y-541900D02*
G01*
X21296000Y-541900D01*
X21296000Y518100D01*
X22356000Y518100D01*
X22356000Y-541900D01*
X22356000Y-541900D01*
G37*
G36*
X4736164Y1579028D02*
G01*
X4774418Y1571419D01*
X4834474Y1546542D01*
X4888523Y1510428D01*
X4934488Y1464463D01*
X4970602Y1410414D01*
X4995479Y1350358D01*
X5003088Y1312104D01*
X5008160Y1286604D01*
X5008160Y1221596D01*
X5004148Y1201428D01*
X4995479Y1157842D01*
X4970602Y1097786D01*
X4934488Y1043737D01*
X4888523Y997772D01*
X4834474Y961658D01*
X4774418Y936781D01*
X4736164Y929172D01*
X4710664Y924100D01*
X4645656Y924100D01*
X4620156Y929172D01*
X4581902Y936781D01*
X4521846Y961658D01*
X4467797Y997772D01*
X4421832Y1043737D01*
X4385718Y1097786D01*
X4360841Y1157842D01*
X4352172Y1201428D01*
X4348160Y1221596D01*
X4348160Y1286604D01*
X4353232Y1312104D01*
X4360841Y1350358D01*
X4385718Y1410414D01*
X4421832Y1464463D01*
X4467797Y1510428D01*
X4521846Y1546542D01*
X4581902Y1571419D01*
X4620156Y1579028D01*
X4645656Y1584100D01*
X4710664Y1584100D01*
X4736164Y1579028D01*
X4736164Y1579028D01*
G37*
G36*
X2486164Y1579028D02*
G01*
X2524418Y1571419D01*
X2584474Y1546542D01*
X2638523Y1510428D01*
X2684488Y1464463D01*
X2720602Y1410414D01*
X2745479Y1350358D01*
X2753088Y1312104D01*
X2758160Y1286604D01*
X2758160Y1221596D01*
X2754148Y1201428D01*
X2745479Y1157842D01*
X2720602Y1097786D01*
X2684488Y1043737D01*
X2638523Y997772D01*
X2584474Y961658D01*
X2524418Y936781D01*
X2486164Y929172D01*
X2460664Y924100D01*
X2395656Y924100D01*
X2370156Y929172D01*
X2331902Y936781D01*
X2271846Y961658D01*
X2217797Y997772D01*
X2171832Y1043737D01*
X2135718Y1097786D01*
X2110841Y1157842D01*
X2102172Y1201428D01*
X2098160Y1221596D01*
X2098160Y1286604D01*
X2103232Y1312104D01*
X2110841Y1350358D01*
X2135718Y1410414D01*
X2171832Y1464463D01*
X2217797Y1510428D01*
X2271846Y1546542D01*
X2331902Y1571419D01*
X2370156Y1579028D01*
X2395656Y1584100D01*
X2460664Y1584100D01*
X2486164Y1579028D01*
X2486164Y1579028D01*
G37*
G36*
X13064221Y2540358D02*
G01*
X13102904Y2532664D01*
X13162960Y2507787D01*
X13217009Y2471673D01*
X13262974Y2425708D01*
X13299088Y2371659D01*
X13323965Y2311603D01*
X13328702Y2287786D01*
X13335911Y2251545D01*
X13336646Y2247847D01*
X13336646Y2182843D01*
X13323965Y2119087D01*
X13299088Y2059031D01*
X13262974Y2004982D01*
X13217009Y1959017D01*
X13162960Y1922903D01*
X13102904Y1898026D01*
X13066574Y1890800D01*
X13039150Y1885345D01*
X12974142Y1885345D01*
X12946718Y1890800D01*
X12910388Y1898026D01*
X12850332Y1922903D01*
X12796283Y1959017D01*
X12750318Y2004982D01*
X12714204Y2059031D01*
X12689327Y2119087D01*
X12676646Y2182843D01*
X12676646Y2247847D01*
X12677382Y2251545D01*
X12684590Y2287786D01*
X12689327Y2311603D01*
X12714204Y2371659D01*
X12750318Y2425708D01*
X12796283Y2471673D01*
X12850332Y2507787D01*
X12910388Y2532664D01*
X12949071Y2540358D01*
X12974142Y2545345D01*
X13039150Y2545345D01*
X13064221Y2540358D01*
X13064221Y2540358D01*
G37*
G36*
X11102221Y2540358D02*
G01*
X11140904Y2532664D01*
X11200960Y2507787D01*
X11255009Y2471673D01*
X11300974Y2425708D01*
X11337088Y2371659D01*
X11361965Y2311603D01*
X11366702Y2287786D01*
X11373911Y2251545D01*
X11374646Y2247847D01*
X11374646Y2182843D01*
X11361965Y2119087D01*
X11337088Y2059031D01*
X11300974Y2004982D01*
X11255009Y1959017D01*
X11200960Y1922903D01*
X11140904Y1898026D01*
X11104574Y1890800D01*
X11077150Y1885345D01*
X11012142Y1885345D01*
X10984718Y1890800D01*
X10948388Y1898026D01*
X10888332Y1922903D01*
X10834283Y1959017D01*
X10788318Y2004982D01*
X10752204Y2059031D01*
X10727327Y2119087D01*
X10714646Y2182843D01*
X10714646Y2247847D01*
X10715382Y2251545D01*
X10722590Y2287786D01*
X10727327Y2311603D01*
X10752204Y2371659D01*
X10788318Y2425708D01*
X10834283Y2471673D01*
X10888332Y2507787D01*
X10948388Y2532664D01*
X10987071Y2540358D01*
X11012142Y2545345D01*
X11077150Y2545345D01*
X11102221Y2540358D01*
X11102221Y2540358D01*
G37*
G36*
X9140221Y2540358D02*
G01*
X9178904Y2532664D01*
X9238960Y2507787D01*
X9293009Y2471673D01*
X9338974Y2425708D01*
X9375088Y2371659D01*
X9399965Y2311603D01*
X9404702Y2287786D01*
X9411911Y2251545D01*
X9412646Y2247847D01*
X9412646Y2182843D01*
X9399965Y2119087D01*
X9375088Y2059031D01*
X9338974Y2004982D01*
X9293009Y1959017D01*
X9238960Y1922903D01*
X9178904Y1898026D01*
X9142574Y1890800D01*
X9115150Y1885345D01*
X9050142Y1885345D01*
X9022718Y1890800D01*
X8986388Y1898026D01*
X8926332Y1922903D01*
X8872283Y1959017D01*
X8826318Y2004982D01*
X8790204Y2059031D01*
X8765327Y2119087D01*
X8752646Y2182843D01*
X8752646Y2247847D01*
X8753382Y2251545D01*
X8760590Y2287786D01*
X8765327Y2311603D01*
X8790204Y2371659D01*
X8826318Y2425708D01*
X8872283Y2471673D01*
X8926332Y2507787D01*
X8986388Y2532664D01*
X9025071Y2540358D01*
X9050142Y2545345D01*
X9115150Y2545345D01*
X9140221Y2540358D01*
X9140221Y2540358D01*
G37*
G36*
X7178221Y2540358D02*
G01*
X7216904Y2532664D01*
X7276960Y2507787D01*
X7331009Y2471673D01*
X7376974Y2425708D01*
X7413088Y2371659D01*
X7437965Y2311603D01*
X7442702Y2287786D01*
X7449911Y2251545D01*
X7450646Y2247847D01*
X7450646Y2182843D01*
X7437965Y2119087D01*
X7413088Y2059031D01*
X7376974Y2004982D01*
X7331009Y1959017D01*
X7276960Y1922903D01*
X7216904Y1898026D01*
X7180574Y1890800D01*
X7153150Y1885345D01*
X7088142Y1885345D01*
X7060718Y1890800D01*
X7024388Y1898026D01*
X6964332Y1922903D01*
X6910283Y1959017D01*
X6864318Y2004982D01*
X6828204Y2059031D01*
X6803327Y2119087D01*
X6790646Y2182843D01*
X6790646Y2247847D01*
X6791382Y2251545D01*
X6798590Y2287786D01*
X6803327Y2311603D01*
X6828204Y2371659D01*
X6864318Y2425708D01*
X6910283Y2471673D01*
X6964332Y2507787D01*
X7024388Y2532664D01*
X7063071Y2540358D01*
X7088142Y2545345D01*
X7153150Y2545345D01*
X7178221Y2540358D01*
X7178221Y2540358D01*
G37*
G36*
X15026204Y2545728D02*
G01*
X15064458Y2538119D01*
X15124514Y2513242D01*
X15178563Y2477128D01*
X15224528Y2431163D01*
X15260642Y2377114D01*
X15285519Y2317058D01*
X15291341Y2287786D01*
X15298200Y2253304D01*
X15298200Y2188296D01*
X15297115Y2182843D01*
X15285519Y2124542D01*
X15260642Y2064486D01*
X15224528Y2010437D01*
X15178563Y1964472D01*
X15124514Y1928358D01*
X15064458Y1903481D01*
X15027369Y1896104D01*
X15000704Y1890800D01*
X14935696Y1890800D01*
X14909031Y1896104D01*
X14871942Y1903481D01*
X14811886Y1928358D01*
X14757837Y1964472D01*
X14711872Y2010437D01*
X14675758Y2064486D01*
X14650881Y2124542D01*
X14639285Y2182843D01*
X14638200Y2188296D01*
X14638200Y2253304D01*
X14645059Y2287786D01*
X14650881Y2317058D01*
X14675758Y2377114D01*
X14711872Y2431163D01*
X14757837Y2477128D01*
X14811886Y2513242D01*
X14871942Y2538119D01*
X14910196Y2545728D01*
X14935696Y2550800D01*
X15000704Y2550800D01*
X15026204Y2545728D01*
X15026204Y2545728D01*
G37*
G36*
X20915431Y2551032D02*
G01*
X20953685Y2543423D01*
X21013741Y2518546D01*
X21067790Y2482432D01*
X21113755Y2436467D01*
X21149869Y2382418D01*
X21174746Y2322362D01*
X21181623Y2287786D01*
X21187427Y2258608D01*
X21187427Y2193600D01*
X21185287Y2182843D01*
X21174746Y2129846D01*
X21149869Y2069790D01*
X21113755Y2015741D01*
X21067790Y1969776D01*
X21013741Y1933662D01*
X20953685Y1908785D01*
X20915431Y1901176D01*
X20889931Y1896104D01*
X20824923Y1896104D01*
X20799423Y1901176D01*
X20761169Y1908785D01*
X20701113Y1933662D01*
X20647064Y1969776D01*
X20601099Y2015741D01*
X20564985Y2069790D01*
X20540108Y2129846D01*
X20529567Y2182843D01*
X20527427Y2193600D01*
X20527427Y2258608D01*
X20533231Y2287786D01*
X20540108Y2322362D01*
X20564985Y2382418D01*
X20601099Y2436467D01*
X20647064Y2482432D01*
X20701113Y2518546D01*
X20761169Y2543423D01*
X20799423Y2551032D01*
X20824923Y2556104D01*
X20889931Y2556104D01*
X20915431Y2551032D01*
X20915431Y2551032D01*
G37*
G36*
X16991431Y2551032D02*
G01*
X17029685Y2543423D01*
X17089741Y2518546D01*
X17143790Y2482432D01*
X17189755Y2436467D01*
X17225869Y2382418D01*
X17250746Y2322362D01*
X17257623Y2287786D01*
X17263427Y2258608D01*
X17263427Y2193600D01*
X17261287Y2182843D01*
X17250746Y2129846D01*
X17225869Y2069790D01*
X17189755Y2015741D01*
X17143790Y1969776D01*
X17089741Y1933662D01*
X17029685Y1908785D01*
X16991431Y1901176D01*
X16965931Y1896104D01*
X16900923Y1896104D01*
X16875423Y1901176D01*
X16837169Y1908785D01*
X16777113Y1933662D01*
X16723064Y1969776D01*
X16677099Y2015741D01*
X16640985Y2069790D01*
X16616108Y2129846D01*
X16605567Y2182843D01*
X16603427Y2193600D01*
X16603427Y2258608D01*
X16609231Y2287786D01*
X16616108Y2322362D01*
X16640985Y2382418D01*
X16677099Y2436467D01*
X16723064Y2482432D01*
X16777113Y2518546D01*
X16837169Y2543423D01*
X16875423Y2551032D01*
X16900923Y2556104D01*
X16965931Y2556104D01*
X16991431Y2551032D01*
X16991431Y2551032D01*
G37*
G36*
X18953431Y2551032D02*
G01*
X18991685Y2543423D01*
X19051741Y2518546D01*
X19105790Y2482432D01*
X19151755Y2436467D01*
X19187869Y2382418D01*
X19212746Y2322362D01*
X19219623Y2287786D01*
X19225427Y2258608D01*
X19225427Y2193600D01*
X19223287Y2182843D01*
X19212746Y2129846D01*
X19187869Y2069790D01*
X19151755Y2015741D01*
X19105790Y1969776D01*
X19051741Y1933662D01*
X18991685Y1908785D01*
X18953431Y1901176D01*
X18927931Y1896104D01*
X18862923Y1896104D01*
X18837423Y1901176D01*
X18799169Y1908785D01*
X18739113Y1933662D01*
X18685064Y1969776D01*
X18639099Y2015741D01*
X18602985Y2069790D01*
X18578108Y2129846D01*
X18567567Y2182843D01*
X18565427Y2193600D01*
X18565427Y2258608D01*
X18571231Y2287786D01*
X18578108Y2322362D01*
X18602985Y2382418D01*
X18639099Y2436467D01*
X18685064Y2482432D01*
X18739113Y2518546D01*
X18799169Y2543423D01*
X18837423Y2551032D01*
X18862923Y2556104D01*
X18927931Y2556104D01*
X18953431Y2551032D01*
X18953431Y2551032D01*
G37*
G36*
X5906164Y2569028D02*
G01*
X5944418Y2561419D01*
X6004474Y2536542D01*
X6058523Y2500428D01*
X6104488Y2454463D01*
X6140602Y2400414D01*
X6165479Y2340358D01*
X6178160Y2276602D01*
X6178160Y2211598D01*
X6165479Y2147842D01*
X6140602Y2087786D01*
X6104488Y2033737D01*
X6058523Y1987772D01*
X6004474Y1951658D01*
X5944418Y1926781D01*
X5906164Y1919172D01*
X5880664Y1914100D01*
X5815656Y1914100D01*
X5790156Y1919172D01*
X5751902Y1926781D01*
X5691846Y1951658D01*
X5637797Y1987772D01*
X5591832Y2033737D01*
X5555718Y2087786D01*
X5530841Y2147842D01*
X5518160Y2211598D01*
X5518160Y2276602D01*
X5530841Y2340358D01*
X5555718Y2400414D01*
X5591832Y2454463D01*
X5637797Y2500428D01*
X5691846Y2536542D01*
X5751902Y2561419D01*
X5790156Y2569028D01*
X5815656Y2574100D01*
X5880664Y2574100D01*
X5906164Y2569028D01*
X5906164Y2569028D01*
G37*
G36*
X22928016Y2672728D02*
G01*
X22966270Y2665119D01*
X23026326Y2640242D01*
X23080375Y2604128D01*
X23126340Y2558163D01*
X23162454Y2504114D01*
X23187331Y2444058D01*
X23190981Y2425707D01*
X23200012Y2380304D01*
X23200012Y2315296D01*
X23194940Y2289796D01*
X23187331Y2251542D01*
X23162454Y2191486D01*
X23126340Y2137437D01*
X23080375Y2091472D01*
X23026326Y2055358D01*
X22966270Y2030481D01*
X22928016Y2022872D01*
X22902516Y2017800D01*
X22837508Y2017800D01*
X22812008Y2022872D01*
X22773754Y2030481D01*
X22713698Y2055358D01*
X22659649Y2091472D01*
X22613684Y2137437D01*
X22577570Y2191486D01*
X22552693Y2251542D01*
X22545084Y2289796D01*
X22540012Y2315296D01*
X22540012Y2380304D01*
X22549043Y2425707D01*
X22552693Y2444058D01*
X22577570Y2504114D01*
X22613684Y2558163D01*
X22659649Y2604128D01*
X22713698Y2640242D01*
X22773754Y2665119D01*
X22812008Y2672728D01*
X22837508Y2677800D01*
X22902516Y2677800D01*
X22928016Y2672728D01*
X22928016Y2672728D01*
G37*
G36*
X1306164Y2769028D02*
G01*
X1344418Y2761419D01*
X1404474Y2736542D01*
X1458523Y2700428D01*
X1504488Y2654463D01*
X1540602Y2600414D01*
X1565479Y2540358D01*
X1567009Y2532664D01*
X1578056Y2477128D01*
X1578160Y2476602D01*
X1578160Y2411598D01*
X1565479Y2347842D01*
X1540602Y2287786D01*
X1504488Y2233737D01*
X1458523Y2187772D01*
X1404474Y2151658D01*
X1344418Y2126781D01*
X1306164Y2119172D01*
X1280664Y2114100D01*
X1215656Y2114100D01*
X1190156Y2119172D01*
X1151902Y2126781D01*
X1091846Y2151658D01*
X1037797Y2187772D01*
X991832Y2233737D01*
X955718Y2287786D01*
X930841Y2347842D01*
X918160Y2411598D01*
X918160Y2476602D01*
X918265Y2477128D01*
X929311Y2532664D01*
X930841Y2540358D01*
X955718Y2600414D01*
X991832Y2654463D01*
X1037797Y2700428D01*
X1091846Y2736542D01*
X1151902Y2761419D01*
X1190156Y2769028D01*
X1215656Y2774100D01*
X1280664Y2774100D01*
X1306164Y2769028D01*
X1306164Y2769028D01*
G37*
G36*
X24897710Y3325464D02*
G01*
X24937916Y3317467D01*
X24997972Y3292590D01*
X25052021Y3256476D01*
X25097986Y3210511D01*
X25134100Y3156462D01*
X25158977Y3096406D01*
X25171658Y3032650D01*
X25171658Y2967646D01*
X25158977Y2903890D01*
X25134100Y2843834D01*
X25097986Y2789785D01*
X25052021Y2743820D01*
X24997972Y2707706D01*
X24937916Y2682829D01*
X24899662Y2675220D01*
X24874162Y2670148D01*
X24809154Y2670148D01*
X24783654Y2675220D01*
X24745400Y2682829D01*
X24685344Y2707706D01*
X24631295Y2743820D01*
X24585330Y2789785D01*
X24549216Y2843834D01*
X24524339Y2903890D01*
X24511658Y2967646D01*
X24511658Y3032650D01*
X24524339Y3096406D01*
X24549216Y3156462D01*
X24585330Y3210511D01*
X24631295Y3256476D01*
X24685344Y3292590D01*
X24745400Y3317467D01*
X24785606Y3325464D01*
X24809154Y3330148D01*
X24874162Y3330148D01*
X24897710Y3325464D01*
X24897710Y3325464D01*
G37*
G36*
X30456504Y3488028D02*
G01*
X30494758Y3480419D01*
X30554814Y3455542D01*
X30608863Y3419428D01*
X30654828Y3373463D01*
X30674211Y3344454D01*
X30686900Y3325464D01*
X30691252Y3320161D01*
X30696556Y3315808D01*
X30702607Y3312574D01*
X30709172Y3310582D01*
X30716000Y3309910D01*
X30722828Y3310583D01*
X30729394Y3312574D01*
X30735445Y3315809D01*
X30740748Y3320161D01*
X30745100Y3325464D01*
X30757789Y3344454D01*
X30777172Y3373463D01*
X30823137Y3419428D01*
X30877186Y3455542D01*
X30937242Y3480419D01*
X30975496Y3488028D01*
X31000996Y3493100D01*
X31066004Y3493100D01*
X31091504Y3488028D01*
X31129758Y3480419D01*
X31189814Y3455542D01*
X31243863Y3419428D01*
X31289828Y3373463D01*
X31325942Y3319414D01*
X31350819Y3259358D01*
X31363500Y3195602D01*
X31363500Y3130598D01*
X31350819Y3066842D01*
X31325942Y3006786D01*
X31289828Y2952737D01*
X31243863Y2906772D01*
X31189814Y2870658D01*
X31129758Y2845781D01*
X31091504Y2838172D01*
X31066004Y2833100D01*
X31000996Y2833100D01*
X30975496Y2838172D01*
X30937242Y2845781D01*
X30877186Y2870658D01*
X30823137Y2906772D01*
X30777172Y2952737D01*
X30745100Y3000736D01*
X30740748Y3006039D01*
X30735444Y3010392D01*
X30729393Y3013626D01*
X30722828Y3015618D01*
X30716000Y3016290D01*
X30709172Y3015617D01*
X30702606Y3013626D01*
X30696555Y3010391D01*
X30691252Y3006039D01*
X30686900Y3000736D01*
X30654828Y2952737D01*
X30608863Y2906772D01*
X30554814Y2870658D01*
X30494758Y2845781D01*
X30456504Y2838172D01*
X30431004Y2833100D01*
X30365996Y2833100D01*
X30340496Y2838172D01*
X30302242Y2845781D01*
X30242186Y2870658D01*
X30188137Y2906772D01*
X30142172Y2952737D01*
X30106058Y3006786D01*
X30081181Y3066842D01*
X30068500Y3130598D01*
X30068500Y3195602D01*
X30081181Y3259358D01*
X30106058Y3319414D01*
X30142172Y3373463D01*
X30188137Y3419428D01*
X30242186Y3455542D01*
X30302242Y3480419D01*
X30340496Y3488028D01*
X30365996Y3493100D01*
X30431004Y3493100D01*
X30456504Y3488028D01*
X30456504Y3488028D01*
G37*
G36*
X28996004Y3869028D02*
G01*
X29034258Y3861419D01*
X29094314Y3836542D01*
X29148363Y3800428D01*
X29194328Y3754463D01*
X29213711Y3725454D01*
X29226400Y3706464D01*
X29230752Y3701161D01*
X29236056Y3696808D01*
X29242107Y3693574D01*
X29248672Y3691582D01*
X29255500Y3690910D01*
X29262328Y3691583D01*
X29268894Y3693574D01*
X29274945Y3696809D01*
X29280248Y3701161D01*
X29284600Y3706464D01*
X29297289Y3725454D01*
X29316672Y3754463D01*
X29362637Y3800428D01*
X29416686Y3836542D01*
X29476742Y3861419D01*
X29514996Y3869028D01*
X29540496Y3874100D01*
X29605504Y3874100D01*
X29631004Y3869028D01*
X29669258Y3861419D01*
X29729314Y3836542D01*
X29783363Y3800428D01*
X29829328Y3754463D01*
X29865442Y3700414D01*
X29890319Y3640358D01*
X29903000Y3576602D01*
X29903000Y3511598D01*
X29890319Y3447842D01*
X29865442Y3387786D01*
X29829328Y3333737D01*
X29783363Y3287772D01*
X29729314Y3251658D01*
X29669258Y3226781D01*
X29631004Y3219172D01*
X29605504Y3214100D01*
X29540496Y3214100D01*
X29514996Y3219172D01*
X29476742Y3226781D01*
X29416686Y3251658D01*
X29362637Y3287772D01*
X29316672Y3333737D01*
X29284600Y3381736D01*
X29280248Y3387039D01*
X29274944Y3391392D01*
X29268893Y3394626D01*
X29262328Y3396618D01*
X29255500Y3397290D01*
X29248672Y3396617D01*
X29242106Y3394626D01*
X29236055Y3391391D01*
X29230752Y3387039D01*
X29226400Y3381736D01*
X29194328Y3333737D01*
X29148363Y3287772D01*
X29094314Y3251658D01*
X29034258Y3226781D01*
X28996004Y3219172D01*
X28970504Y3214100D01*
X28905496Y3214100D01*
X28879996Y3219172D01*
X28841742Y3226781D01*
X28781686Y3251658D01*
X28727637Y3287772D01*
X28681672Y3333737D01*
X28645558Y3387786D01*
X28620681Y3447842D01*
X28608000Y3511598D01*
X28608000Y3576602D01*
X28620681Y3640358D01*
X28645558Y3700414D01*
X28681672Y3754463D01*
X28727637Y3800428D01*
X28781686Y3836542D01*
X28841742Y3861419D01*
X28879996Y3869028D01*
X28905496Y3874100D01*
X28970504Y3874100D01*
X28996004Y3869028D01*
X28996004Y3869028D01*
G37*
G36*
X26629874Y4472538D02*
G01*
X26668128Y4464929D01*
X26728184Y4440052D01*
X26782233Y4403938D01*
X26828198Y4357973D01*
X26864312Y4303924D01*
X26889189Y4243868D01*
X26901870Y4180112D01*
X26901870Y4115108D01*
X26889189Y4051352D01*
X26864312Y3991296D01*
X26828198Y3937247D01*
X26782233Y3891282D01*
X26728184Y3855168D01*
X26668128Y3830291D01*
X26629874Y3822682D01*
X26604374Y3817610D01*
X26539366Y3817610D01*
X26513866Y3822682D01*
X26475612Y3830291D01*
X26415556Y3855168D01*
X26361507Y3891282D01*
X26315542Y3937247D01*
X26279428Y3991296D01*
X26254551Y4051352D01*
X26241870Y4115108D01*
X26241870Y4180112D01*
X26254551Y4243868D01*
X26279428Y4303924D01*
X26315542Y4357973D01*
X26361507Y4403938D01*
X26415556Y4440052D01*
X26475612Y4464929D01*
X26513866Y4472538D01*
X26539366Y4477610D01*
X26604374Y4477610D01*
X26629874Y4472538D01*
X26629874Y4472538D01*
G37*
G36*
X1306012Y4969058D02*
G01*
X1344418Y4961419D01*
X1404474Y4936542D01*
X1458523Y4900428D01*
X1504488Y4854463D01*
X1540602Y4800414D01*
X1565479Y4740358D01*
X1578160Y4676602D01*
X1578160Y4611598D01*
X1565479Y4547842D01*
X1540602Y4487786D01*
X1504488Y4433737D01*
X1458523Y4387772D01*
X1404474Y4351658D01*
X1344418Y4326781D01*
X1306164Y4319172D01*
X1280664Y4314100D01*
X1215656Y4314100D01*
X1190156Y4319172D01*
X1151902Y4326781D01*
X1091846Y4351658D01*
X1037797Y4387772D01*
X991832Y4433737D01*
X955718Y4487786D01*
X930841Y4547842D01*
X918160Y4611598D01*
X918160Y4676602D01*
X930841Y4740358D01*
X955718Y4800414D01*
X991832Y4854463D01*
X1037797Y4900428D01*
X1091846Y4936542D01*
X1151902Y4961419D01*
X1190308Y4969058D01*
X1215656Y4974100D01*
X1280664Y4974100D01*
X1306012Y4969058D01*
X1306012Y4969058D01*
G37*
G36*
X5906164Y5169028D02*
G01*
X5944418Y5161419D01*
X6004474Y5136542D01*
X6058523Y5100428D01*
X6104488Y5054463D01*
X6140602Y5000414D01*
X6165479Y4940358D01*
X6178160Y4876602D01*
X6178160Y4811598D01*
X6165479Y4747842D01*
X6140602Y4687786D01*
X6104488Y4633737D01*
X6058523Y4587772D01*
X6004474Y4551658D01*
X5944418Y4526781D01*
X5906164Y4519172D01*
X5880664Y4514100D01*
X5815656Y4514100D01*
X5790156Y4519172D01*
X5751902Y4526781D01*
X5691846Y4551658D01*
X5637797Y4587772D01*
X5591832Y4633737D01*
X5555718Y4687786D01*
X5530841Y4747842D01*
X5518160Y4811598D01*
X5518160Y4876602D01*
X5530841Y4940358D01*
X5555718Y5000414D01*
X5591832Y5054463D01*
X5637797Y5100428D01*
X5691846Y5136542D01*
X5751902Y5161419D01*
X5790156Y5169028D01*
X5815656Y5174100D01*
X5880664Y5174100D01*
X5906164Y5169028D01*
X5906164Y5169028D01*
G37*
G36*
X14968985Y5191469D02*
G01*
X15007239Y5183860D01*
X15067295Y5158983D01*
X15121344Y5122869D01*
X15167309Y5076904D01*
X15203423Y5022855D01*
X15228300Y4962799D01*
X15240981Y4899043D01*
X15240981Y4834039D01*
X15228300Y4770283D01*
X15203423Y4710227D01*
X15167309Y4656178D01*
X15121344Y4610213D01*
X15067295Y4574099D01*
X15007239Y4549222D01*
X14974951Y4542800D01*
X14943485Y4536541D01*
X14878477Y4536541D01*
X14847011Y4542800D01*
X14814723Y4549222D01*
X14754667Y4574099D01*
X14700618Y4610213D01*
X14654653Y4656178D01*
X14618539Y4710227D01*
X14593662Y4770283D01*
X14580981Y4834039D01*
X14580981Y4899043D01*
X14593662Y4962799D01*
X14618539Y5022855D01*
X14654653Y5076904D01*
X14700618Y5122869D01*
X14754667Y5158983D01*
X14814723Y5183860D01*
X14852977Y5191469D01*
X14878477Y5196541D01*
X14943485Y5196541D01*
X14968985Y5191469D01*
X14968985Y5191469D01*
G37*
G36*
X9080204Y5197728D02*
G01*
X9118458Y5190119D01*
X9178514Y5165242D01*
X9232563Y5129128D01*
X9278528Y5083163D01*
X9314642Y5029114D01*
X9339519Y4969058D01*
X9352200Y4905302D01*
X9352200Y4840298D01*
X9339519Y4776542D01*
X9314642Y4716486D01*
X9278528Y4662437D01*
X9232563Y4616472D01*
X9178514Y4580358D01*
X9118458Y4555481D01*
X9080204Y4547872D01*
X9054704Y4542800D01*
X8989696Y4542800D01*
X8964196Y4547872D01*
X8925942Y4555481D01*
X8865886Y4580358D01*
X8811837Y4616472D01*
X8765872Y4662437D01*
X8729758Y4716486D01*
X8704881Y4776542D01*
X8692200Y4840298D01*
X8692200Y4905302D01*
X8704881Y4969058D01*
X8729758Y5029114D01*
X8765872Y5083163D01*
X8811837Y5129128D01*
X8865886Y5165242D01*
X8925942Y5190119D01*
X8964196Y5197728D01*
X8989696Y5202800D01*
X9054704Y5202800D01*
X9080204Y5197728D01*
X9080204Y5197728D01*
G37*
G36*
X7118204Y5197728D02*
G01*
X7156458Y5190119D01*
X7216514Y5165242D01*
X7270563Y5129128D01*
X7316528Y5083163D01*
X7352642Y5029114D01*
X7377519Y4969058D01*
X7390200Y4905302D01*
X7390200Y4840298D01*
X7377519Y4776542D01*
X7352642Y4716486D01*
X7316528Y4662437D01*
X7270563Y4616472D01*
X7216514Y4580358D01*
X7156458Y4555481D01*
X7118204Y4547872D01*
X7092704Y4542800D01*
X7027696Y4542800D01*
X7002196Y4547872D01*
X6963942Y4555481D01*
X6903886Y4580358D01*
X6849837Y4616472D01*
X6803872Y4662437D01*
X6767758Y4716486D01*
X6742881Y4776542D01*
X6730200Y4840298D01*
X6730200Y4905302D01*
X6742881Y4969058D01*
X6767758Y5029114D01*
X6803872Y5083163D01*
X6849837Y5129128D01*
X6903886Y5165242D01*
X6963942Y5190119D01*
X7002196Y5197728D01*
X7027696Y5202800D01*
X7092704Y5202800D01*
X7118204Y5197728D01*
X7118204Y5197728D01*
G37*
G36*
X13004204Y5197728D02*
G01*
X13042458Y5190119D01*
X13102514Y5165242D01*
X13156563Y5129128D01*
X13202528Y5083163D01*
X13238642Y5029114D01*
X13263519Y4969058D01*
X13276200Y4905302D01*
X13276200Y4840298D01*
X13263519Y4776542D01*
X13238642Y4716486D01*
X13202528Y4662437D01*
X13156563Y4616472D01*
X13102514Y4580358D01*
X13042458Y4555481D01*
X13004204Y4547872D01*
X12978704Y4542800D01*
X12913696Y4542800D01*
X12888196Y4547872D01*
X12849942Y4555481D01*
X12789886Y4580358D01*
X12735837Y4616472D01*
X12689872Y4662437D01*
X12653758Y4716486D01*
X12628881Y4776542D01*
X12616200Y4840298D01*
X12616200Y4905302D01*
X12628881Y4969058D01*
X12653758Y5029114D01*
X12689872Y5083163D01*
X12735837Y5129128D01*
X12789886Y5165242D01*
X12849942Y5190119D01*
X12888196Y5197728D01*
X12913696Y5202800D01*
X12978704Y5202800D01*
X13004204Y5197728D01*
X13004204Y5197728D01*
G37*
G36*
X11042204Y5197728D02*
G01*
X11080458Y5190119D01*
X11140514Y5165242D01*
X11194563Y5129128D01*
X11240528Y5083163D01*
X11276642Y5029114D01*
X11301519Y4969058D01*
X11314200Y4905302D01*
X11314200Y4840298D01*
X11301519Y4776542D01*
X11276642Y4716486D01*
X11240528Y4662437D01*
X11194563Y4616472D01*
X11140514Y4580358D01*
X11080458Y4555481D01*
X11042204Y4547872D01*
X11016704Y4542800D01*
X10951696Y4542800D01*
X10926196Y4547872D01*
X10887942Y4555481D01*
X10827886Y4580358D01*
X10773837Y4616472D01*
X10727872Y4662437D01*
X10691758Y4716486D01*
X10666881Y4776542D01*
X10654200Y4840298D01*
X10654200Y4905302D01*
X10666881Y4969058D01*
X10691758Y5029114D01*
X10727872Y5083163D01*
X10773837Y5129128D01*
X10827886Y5165242D01*
X10887942Y5190119D01*
X10926196Y5197728D01*
X10951696Y5202800D01*
X11016704Y5202800D01*
X11042204Y5197728D01*
X11042204Y5197728D01*
G37*
G36*
X21835985Y5208487D02*
G01*
X21874239Y5200878D01*
X21934295Y5176001D01*
X21988344Y5139887D01*
X22034309Y5093922D01*
X22070423Y5039873D01*
X22095300Y4979817D01*
X22107981Y4916061D01*
X22107981Y4851057D01*
X22095300Y4787301D01*
X22070423Y4727245D01*
X22034309Y4673196D01*
X21988344Y4627231D01*
X21934295Y4591117D01*
X21874239Y4566240D01*
X21835985Y4558631D01*
X21810485Y4553559D01*
X21745477Y4553559D01*
X21719977Y4558631D01*
X21681723Y4566240D01*
X21621667Y4591117D01*
X21567618Y4627231D01*
X21521653Y4673196D01*
X21485539Y4727245D01*
X21460662Y4787301D01*
X21447981Y4851057D01*
X21447981Y4916061D01*
X21460662Y4979817D01*
X21485539Y5039873D01*
X21521653Y5093922D01*
X21567618Y5139887D01*
X21621667Y5176001D01*
X21681723Y5200878D01*
X21719977Y5208487D01*
X21745477Y5213559D01*
X21810485Y5213559D01*
X21835985Y5208487D01*
X21835985Y5208487D01*
G37*
G36*
X22922873Y5400502D02*
G01*
X22961127Y5392893D01*
X23021183Y5368016D01*
X23075232Y5331902D01*
X23121197Y5285937D01*
X23157311Y5231888D01*
X23182188Y5171832D01*
X23194869Y5108076D01*
X23194869Y5043072D01*
X23182188Y4979316D01*
X23157311Y4919260D01*
X23121197Y4865211D01*
X23075232Y4819246D01*
X23021183Y4783132D01*
X22961127Y4758255D01*
X22922873Y4750646D01*
X22897373Y4745574D01*
X22832365Y4745574D01*
X22806865Y4750646D01*
X22768611Y4758255D01*
X22708555Y4783132D01*
X22654506Y4819246D01*
X22608541Y4865211D01*
X22572427Y4919260D01*
X22547550Y4979316D01*
X22534869Y5043072D01*
X22534869Y5108076D01*
X22547550Y5171832D01*
X22572427Y5231888D01*
X22608541Y5285937D01*
X22654506Y5331902D01*
X22708555Y5368016D01*
X22768611Y5392893D01*
X22806865Y5400502D01*
X22832365Y5405574D01*
X22897373Y5405574D01*
X22922873Y5400502D01*
X22922873Y5400502D01*
G37*
G36*
X15499985Y6013667D02*
G01*
X15538239Y6006058D01*
X15598295Y5981181D01*
X15652344Y5945067D01*
X15698309Y5899102D01*
X15734423Y5845053D01*
X15759300Y5784997D01*
X15759656Y5783206D01*
X15771788Y5722215D01*
X15771981Y5721241D01*
X15771981Y5656237D01*
X15759300Y5592481D01*
X15734423Y5532425D01*
X15698309Y5478376D01*
X15652344Y5432411D01*
X15598295Y5396297D01*
X15538239Y5371420D01*
X15499985Y5363811D01*
X15474485Y5358739D01*
X15409477Y5358739D01*
X15383977Y5363811D01*
X15345723Y5371420D01*
X15285667Y5396297D01*
X15231618Y5432411D01*
X15185653Y5478376D01*
X15149539Y5532425D01*
X15124662Y5592481D01*
X15111981Y5656237D01*
X15111981Y5721241D01*
X15112175Y5722215D01*
X15124306Y5783206D01*
X15124662Y5784997D01*
X15149539Y5845053D01*
X15185653Y5899102D01*
X15231618Y5945067D01*
X15285667Y5981181D01*
X15345723Y6006058D01*
X15383977Y6013667D01*
X15409477Y6018739D01*
X15474485Y6018739D01*
X15499985Y6013667D01*
X15499985Y6013667D01*
G37*
G36*
X17461985Y6013667D02*
G01*
X17500239Y6006058D01*
X17560295Y5981181D01*
X17614344Y5945067D01*
X17660309Y5899102D01*
X17696423Y5845053D01*
X17721300Y5784997D01*
X17721656Y5783206D01*
X17733788Y5722215D01*
X17733981Y5721241D01*
X17733981Y5656237D01*
X17721300Y5592481D01*
X17696423Y5532425D01*
X17660309Y5478376D01*
X17614344Y5432411D01*
X17560295Y5396297D01*
X17500239Y5371420D01*
X17461985Y5363811D01*
X17436485Y5358739D01*
X17371477Y5358739D01*
X17345977Y5363811D01*
X17307723Y5371420D01*
X17247667Y5396297D01*
X17193618Y5432411D01*
X17147653Y5478376D01*
X17111539Y5532425D01*
X17086662Y5592481D01*
X17073981Y5656237D01*
X17073981Y5721241D01*
X17074175Y5722215D01*
X17086306Y5783206D01*
X17086662Y5784997D01*
X17111539Y5845053D01*
X17147653Y5899102D01*
X17193618Y5945067D01*
X17247667Y5981181D01*
X17307723Y6006058D01*
X17345977Y6013667D01*
X17371477Y6018739D01*
X17436485Y6018739D01*
X17461985Y6013667D01*
X17461985Y6013667D01*
G37*
G36*
X19423985Y6013667D02*
G01*
X19462239Y6006058D01*
X19522295Y5981181D01*
X19576344Y5945067D01*
X19622309Y5899102D01*
X19658423Y5845053D01*
X19683300Y5784997D01*
X19683656Y5783206D01*
X19695788Y5722215D01*
X19695981Y5721241D01*
X19695981Y5656237D01*
X19683300Y5592481D01*
X19658423Y5532425D01*
X19622309Y5478376D01*
X19576344Y5432411D01*
X19522295Y5396297D01*
X19462239Y5371420D01*
X19423985Y5363811D01*
X19398485Y5358739D01*
X19333477Y5358739D01*
X19307977Y5363811D01*
X19269723Y5371420D01*
X19209667Y5396297D01*
X19155618Y5432411D01*
X19109653Y5478376D01*
X19073539Y5532425D01*
X19048662Y5592481D01*
X19035981Y5656237D01*
X19035981Y5721241D01*
X19036175Y5722215D01*
X19048306Y5783206D01*
X19048662Y5784997D01*
X19073539Y5845053D01*
X19109653Y5899102D01*
X19155618Y5945067D01*
X19209667Y5981181D01*
X19269723Y6006058D01*
X19307977Y6013667D01*
X19333477Y6018739D01*
X19398485Y6018739D01*
X19423985Y6013667D01*
X19423985Y6013667D01*
G37*
G36*
X21385985Y6013667D02*
G01*
X21424239Y6006058D01*
X21484295Y5981181D01*
X21538344Y5945067D01*
X21584309Y5899102D01*
X21620423Y5845053D01*
X21645300Y5784997D01*
X21645656Y5783206D01*
X21657788Y5722215D01*
X21657981Y5721241D01*
X21657981Y5656237D01*
X21645300Y5592481D01*
X21620423Y5532425D01*
X21584309Y5478376D01*
X21538344Y5432411D01*
X21484295Y5396297D01*
X21424239Y5371420D01*
X21385985Y5363811D01*
X21360485Y5358739D01*
X21295477Y5358739D01*
X21269977Y5363811D01*
X21231723Y5371420D01*
X21171667Y5396297D01*
X21117618Y5432411D01*
X21071653Y5478376D01*
X21035539Y5532425D01*
X21010662Y5592481D01*
X20997981Y5656237D01*
X20997981Y5721241D01*
X20998175Y5722215D01*
X21010306Y5783206D01*
X21010662Y5784997D01*
X21035539Y5845053D01*
X21071653Y5899102D01*
X21117618Y5945067D01*
X21171667Y5981181D01*
X21231723Y6006058D01*
X21269977Y6013667D01*
X21295477Y6018739D01*
X21360485Y6018739D01*
X21385985Y6013667D01*
X21385985Y6013667D01*
G37*
G36*
X27998134Y6035379D02*
G01*
X28036388Y6027770D01*
X28096444Y6002893D01*
X28150493Y5966779D01*
X28196458Y5920814D01*
X28232572Y5866765D01*
X28257449Y5806709D01*
X28270130Y5742953D01*
X28270130Y5677949D01*
X28257449Y5614193D01*
X28232572Y5554137D01*
X28196458Y5500088D01*
X28150493Y5454123D01*
X28096444Y5418009D01*
X28036388Y5393132D01*
X27998134Y5385523D01*
X27972634Y5380451D01*
X27907626Y5380451D01*
X27882126Y5385523D01*
X27843872Y5393132D01*
X27783816Y5418009D01*
X27729767Y5454123D01*
X27683802Y5500088D01*
X27647688Y5554137D01*
X27622811Y5614193D01*
X27610130Y5677949D01*
X27610130Y5742953D01*
X27622811Y5806709D01*
X27647688Y5866765D01*
X27683802Y5920814D01*
X27729767Y5966779D01*
X27783816Y6002893D01*
X27843872Y6027770D01*
X27882126Y6035379D01*
X27907626Y6040451D01*
X27972634Y6040451D01*
X27998134Y6035379D01*
X27998134Y6035379D01*
G37*
G36*
X2516164Y6169028D02*
G01*
X2554418Y6161419D01*
X2614474Y6136542D01*
X2668523Y6100428D01*
X2714488Y6054463D01*
X2750602Y6000414D01*
X2775479Y5940358D01*
X2788160Y5876602D01*
X2788160Y5811598D01*
X2775479Y5747842D01*
X2750602Y5687786D01*
X2714488Y5633737D01*
X2668523Y5587772D01*
X2614474Y5551658D01*
X2554418Y5526781D01*
X2516164Y5519172D01*
X2490664Y5514100D01*
X2425656Y5514100D01*
X2400156Y5519172D01*
X2361902Y5526781D01*
X2301846Y5551658D01*
X2247797Y5587772D01*
X2201832Y5633737D01*
X2165718Y5687786D01*
X2140841Y5747842D01*
X2128160Y5811598D01*
X2128160Y5876602D01*
X2140841Y5940358D01*
X2165718Y6000414D01*
X2201832Y6054463D01*
X2247797Y6100428D01*
X2301846Y6136542D01*
X2361902Y6161419D01*
X2400156Y6169028D01*
X2425656Y6174100D01*
X2490664Y6174100D01*
X2516164Y6169028D01*
X2516164Y6169028D01*
G37*
G36*
X4686164Y6169028D02*
G01*
X4724418Y6161419D01*
X4784474Y6136542D01*
X4838523Y6100428D01*
X4884488Y6054463D01*
X4920602Y6000414D01*
X4945479Y5940358D01*
X4958160Y5876602D01*
X4958160Y5811598D01*
X4945479Y5747842D01*
X4920602Y5687786D01*
X4884488Y5633737D01*
X4838523Y5587772D01*
X4784474Y5551658D01*
X4724418Y5526781D01*
X4686164Y5519172D01*
X4660664Y5514100D01*
X4595656Y5514100D01*
X4570156Y5519172D01*
X4531902Y5526781D01*
X4471846Y5551658D01*
X4417797Y5587772D01*
X4371832Y5633737D01*
X4335718Y5687786D01*
X4310841Y5747842D01*
X4298160Y5811598D01*
X4298160Y5876602D01*
X4310841Y5940358D01*
X4335718Y6000414D01*
X4371832Y6054463D01*
X4417797Y6100428D01*
X4471846Y6136542D01*
X4531902Y6161419D01*
X4570156Y6169028D01*
X4595656Y6174100D01*
X4660664Y6174100D01*
X4686164Y6169028D01*
X4686164Y6169028D01*
G37*
G36*
X24760228Y6364462D02*
G01*
X24798482Y6356853D01*
X24858538Y6331976D01*
X24912587Y6295862D01*
X24958552Y6249897D01*
X24994666Y6195848D01*
X25019543Y6135792D01*
X25026577Y6100428D01*
X25032224Y6072038D01*
X25032224Y6007030D01*
X25031401Y6002893D01*
X25019543Y5943276D01*
X24994666Y5883220D01*
X24958552Y5829171D01*
X24912587Y5783206D01*
X24858538Y5747092D01*
X24798482Y5722215D01*
X24760228Y5714606D01*
X24734728Y5709534D01*
X24669720Y5709534D01*
X24644220Y5714606D01*
X24605966Y5722215D01*
X24545910Y5747092D01*
X24491861Y5783206D01*
X24445896Y5829171D01*
X24409782Y5883220D01*
X24384905Y5943276D01*
X24373047Y6002893D01*
X24372224Y6007030D01*
X24372224Y6072038D01*
X24377871Y6100428D01*
X24384905Y6135792D01*
X24409782Y6195848D01*
X24445896Y6249897D01*
X24491861Y6295862D01*
X24545910Y6331976D01*
X24605966Y6356853D01*
X24644220Y6364462D01*
X24669720Y6369534D01*
X24734728Y6369534D01*
X24760228Y6364462D01*
X24760228Y6364462D01*
G37*
G36*
X4736164Y7675028D02*
G01*
X4774418Y7667419D01*
X4834474Y7642542D01*
X4888523Y7606428D01*
X4934488Y7560463D01*
X4970602Y7506414D01*
X4995479Y7446358D01*
X5003088Y7408104D01*
X5008160Y7382604D01*
X5008160Y7317596D01*
X5005356Y7303500D01*
X4995479Y7253842D01*
X4970602Y7193786D01*
X4934488Y7139737D01*
X4888523Y7093772D01*
X4834474Y7057658D01*
X4774418Y7032781D01*
X4736164Y7025172D01*
X4710664Y7020100D01*
X4645656Y7020100D01*
X4620156Y7025172D01*
X4581902Y7032781D01*
X4521846Y7057658D01*
X4467797Y7093772D01*
X4421832Y7139737D01*
X4385718Y7193786D01*
X4360841Y7253842D01*
X4350964Y7303500D01*
X4348160Y7317596D01*
X4348160Y7382604D01*
X4353232Y7408104D01*
X4360841Y7446358D01*
X4385718Y7506414D01*
X4421832Y7560463D01*
X4467797Y7606428D01*
X4521846Y7642542D01*
X4581902Y7667419D01*
X4620156Y7675028D01*
X4645656Y7680100D01*
X4710664Y7680100D01*
X4736164Y7675028D01*
X4736164Y7675028D01*
G37*
G36*
X2486164Y7675028D02*
G01*
X2524418Y7667419D01*
X2584474Y7642542D01*
X2638523Y7606428D01*
X2684488Y7560463D01*
X2720602Y7506414D01*
X2745479Y7446358D01*
X2753088Y7408104D01*
X2758160Y7382604D01*
X2758160Y7317596D01*
X2755356Y7303500D01*
X2745479Y7253842D01*
X2720602Y7193786D01*
X2684488Y7139737D01*
X2638523Y7093772D01*
X2584474Y7057658D01*
X2524418Y7032781D01*
X2486164Y7025172D01*
X2460664Y7020100D01*
X2395656Y7020100D01*
X2370156Y7025172D01*
X2331902Y7032781D01*
X2271846Y7057658D01*
X2217797Y7093772D01*
X2171832Y7139737D01*
X2135718Y7193786D01*
X2110841Y7253842D01*
X2100964Y7303500D01*
X2098160Y7317596D01*
X2098160Y7382604D01*
X2103232Y7408104D01*
X2110841Y7446358D01*
X2135718Y7506414D01*
X2171832Y7560463D01*
X2217797Y7606428D01*
X2271846Y7642542D01*
X2331902Y7667419D01*
X2370156Y7675028D01*
X2395656Y7680100D01*
X2460664Y7680100D01*
X2486164Y7675028D01*
X2486164Y7675028D01*
G37*
G36*
X28894649Y7909549D02*
G01*
X28932903Y7901940D01*
X28992959Y7877063D01*
X29047008Y7840949D01*
X29092973Y7794984D01*
X29129087Y7740935D01*
X29153964Y7680879D01*
X29166645Y7617123D01*
X29166645Y7552119D01*
X29153964Y7488363D01*
X29129087Y7428307D01*
X29092973Y7374258D01*
X29047008Y7328293D01*
X28992959Y7292179D01*
X28932903Y7267302D01*
X28894649Y7259693D01*
X28869149Y7254621D01*
X28804141Y7254621D01*
X28778641Y7259693D01*
X28740387Y7267302D01*
X28680331Y7292179D01*
X28626282Y7328293D01*
X28580317Y7374258D01*
X28544203Y7428307D01*
X28519326Y7488363D01*
X28506645Y7552119D01*
X28506645Y7617123D01*
X28519326Y7680879D01*
X28544203Y7740935D01*
X28580317Y7794984D01*
X28626282Y7840949D01*
X28680331Y7877063D01*
X28740387Y7901940D01*
X28778641Y7909549D01*
X28804141Y7914621D01*
X28869149Y7914621D01*
X28894649Y7909549D01*
X28894649Y7909549D01*
G37*
G36*
X20360004Y7958428D02*
G01*
X20398258Y7950819D01*
X20458314Y7925942D01*
X20512363Y7889828D01*
X20558328Y7843863D01*
X20594442Y7789814D01*
X20619319Y7729758D01*
X20626894Y7691673D01*
X20631719Y7667419D01*
X20632000Y7666002D01*
X20632000Y7600998D01*
X20619319Y7537242D01*
X20594442Y7477186D01*
X20558328Y7423137D01*
X20512363Y7377172D01*
X20458314Y7341058D01*
X20398258Y7316181D01*
X20360004Y7308572D01*
X20334504Y7303500D01*
X20269496Y7303500D01*
X20243996Y7308572D01*
X20205742Y7316181D01*
X20145686Y7341058D01*
X20091637Y7377172D01*
X20045672Y7423137D01*
X20009558Y7477186D01*
X19984681Y7537242D01*
X19972000Y7600998D01*
X19972000Y7666002D01*
X19972282Y7667419D01*
X19977106Y7691673D01*
X19984681Y7729758D01*
X20009558Y7789814D01*
X20045672Y7843863D01*
X20091637Y7889828D01*
X20145686Y7925942D01*
X20205742Y7950819D01*
X20243996Y7958428D01*
X20269496Y7963500D01*
X20334504Y7963500D01*
X20360004Y7958428D01*
X20360004Y7958428D01*
G37*
G36*
X26056923Y7984097D02*
G01*
X26095177Y7976488D01*
X26155233Y7951611D01*
X26209282Y7915497D01*
X26255247Y7869532D01*
X26291361Y7815483D01*
X26316238Y7755427D01*
X26321344Y7729755D01*
X26328919Y7691673D01*
X26328919Y7626665D01*
X26323847Y7601165D01*
X26316238Y7562911D01*
X26291361Y7502855D01*
X26255247Y7448806D01*
X26209282Y7402841D01*
X26155233Y7366727D01*
X26095177Y7341850D01*
X26056923Y7334241D01*
X26031423Y7329169D01*
X25966415Y7329169D01*
X25940915Y7334241D01*
X25902661Y7341850D01*
X25842605Y7366727D01*
X25788556Y7402841D01*
X25742591Y7448806D01*
X25706477Y7502855D01*
X25681600Y7562911D01*
X25673991Y7601165D01*
X25668919Y7626665D01*
X25668919Y7691673D01*
X25676494Y7729755D01*
X25681600Y7755427D01*
X25706477Y7815483D01*
X25742591Y7869532D01*
X25788556Y7915497D01*
X25842605Y7951611D01*
X25902661Y7976488D01*
X25940915Y7984097D01*
X25966415Y7989169D01*
X26031423Y7989169D01*
X26056923Y7984097D01*
X26056923Y7984097D01*
G37*
G36*
X6927231Y8636358D02*
G01*
X6965637Y8628719D01*
X7025693Y8603842D01*
X7079742Y8567728D01*
X7125707Y8521763D01*
X7161821Y8467714D01*
X7186698Y8407658D01*
X7189097Y8395596D01*
X7199379Y8343904D01*
X7199379Y8278896D01*
X7194307Y8253396D01*
X7186698Y8215142D01*
X7161821Y8155086D01*
X7125707Y8101037D01*
X7079742Y8055072D01*
X7025693Y8018958D01*
X6965637Y7994081D01*
X6927383Y7986472D01*
X6901883Y7981400D01*
X6836875Y7981400D01*
X6811375Y7986472D01*
X6773121Y7994081D01*
X6713065Y8018958D01*
X6659016Y8055072D01*
X6613051Y8101037D01*
X6576937Y8155086D01*
X6552060Y8215142D01*
X6544451Y8253396D01*
X6539379Y8278896D01*
X6539379Y8343904D01*
X6549661Y8395596D01*
X6552060Y8407658D01*
X6576937Y8467714D01*
X6613051Y8521763D01*
X6659016Y8567728D01*
X6713065Y8603842D01*
X6773121Y8628719D01*
X6811527Y8636358D01*
X6836875Y8641400D01*
X6901883Y8641400D01*
X6927231Y8636358D01*
X6927231Y8636358D01*
G37*
G36*
X5906164Y8665028D02*
G01*
X5944418Y8657419D01*
X6004474Y8632542D01*
X6058523Y8596428D01*
X6104488Y8550463D01*
X6140602Y8496414D01*
X6165479Y8436358D01*
X6178160Y8372602D01*
X6178160Y8307598D01*
X6165479Y8243842D01*
X6140602Y8183786D01*
X6104488Y8129737D01*
X6058523Y8083772D01*
X6004474Y8047658D01*
X5944418Y8022781D01*
X5906164Y8015172D01*
X5880664Y8010100D01*
X5815656Y8010100D01*
X5790156Y8015172D01*
X5751902Y8022781D01*
X5691846Y8047658D01*
X5637797Y8083772D01*
X5591832Y8129737D01*
X5555718Y8183786D01*
X5530841Y8243842D01*
X5518160Y8307598D01*
X5518160Y8372602D01*
X5530841Y8436358D01*
X5555718Y8496414D01*
X5591832Y8550463D01*
X5637797Y8596428D01*
X5691846Y8632542D01*
X5751902Y8657419D01*
X5790156Y8665028D01*
X5815656Y8670100D01*
X5880664Y8670100D01*
X5906164Y8665028D01*
X5906164Y8665028D01*
G37*
G36*
X8889383Y8727442D02*
G01*
X8927637Y8719833D01*
X8987693Y8694956D01*
X9041742Y8658842D01*
X9087707Y8612877D01*
X9123821Y8558828D01*
X9148698Y8498772D01*
X9161379Y8435016D01*
X9161379Y8370012D01*
X9148698Y8306256D01*
X9123821Y8246200D01*
X9087707Y8192151D01*
X9041742Y8146186D01*
X8987693Y8110072D01*
X8927637Y8085195D01*
X8889383Y8077586D01*
X8863883Y8072514D01*
X8798875Y8072514D01*
X8773375Y8077586D01*
X8735121Y8085195D01*
X8675065Y8110072D01*
X8621016Y8146186D01*
X8575051Y8192151D01*
X8538937Y8246200D01*
X8514060Y8306256D01*
X8501379Y8370012D01*
X8501379Y8435016D01*
X8514060Y8498772D01*
X8538937Y8558828D01*
X8575051Y8612877D01*
X8621016Y8658842D01*
X8675065Y8694956D01*
X8735121Y8719833D01*
X8773375Y8727442D01*
X8798875Y8732514D01*
X8863883Y8732514D01*
X8889383Y8727442D01*
X8889383Y8727442D01*
G37*
G36*
X19711004Y8753028D02*
G01*
X19749258Y8745419D01*
X19809314Y8720542D01*
X19863363Y8684428D01*
X19909328Y8638463D01*
X19945442Y8584414D01*
X19970319Y8524358D01*
X19975877Y8496414D01*
X19981586Y8467714D01*
X19983000Y8460602D01*
X19983000Y8395598D01*
X19970319Y8331842D01*
X19945442Y8271786D01*
X19909328Y8217737D01*
X19863363Y8171772D01*
X19809314Y8135658D01*
X19749258Y8110781D01*
X19711004Y8103172D01*
X19685504Y8098100D01*
X19620496Y8098100D01*
X19594996Y8103172D01*
X19556742Y8110781D01*
X19496686Y8135658D01*
X19442637Y8171772D01*
X19396672Y8217737D01*
X19360558Y8271786D01*
X19335681Y8331842D01*
X19323000Y8395598D01*
X19323000Y8460602D01*
X19324415Y8467714D01*
X19330123Y8496414D01*
X19335681Y8524358D01*
X19360558Y8584414D01*
X19396672Y8638463D01*
X19442637Y8684428D01*
X19496686Y8720542D01*
X19556742Y8745419D01*
X19594996Y8753028D01*
X19620496Y8758100D01*
X19685504Y8758100D01*
X19711004Y8753028D01*
X19711004Y8753028D01*
G37*
G36*
X18933204Y8753028D02*
G01*
X18971458Y8745419D01*
X19031514Y8720542D01*
X19085563Y8684428D01*
X19131528Y8638463D01*
X19167642Y8584414D01*
X19192519Y8524358D01*
X19198077Y8496414D01*
X19203786Y8467714D01*
X19205200Y8460602D01*
X19205200Y8395598D01*
X19192519Y8331842D01*
X19167642Y8271786D01*
X19131528Y8217737D01*
X19085563Y8171772D01*
X19031514Y8135658D01*
X18971458Y8110781D01*
X18933204Y8103172D01*
X18907704Y8098100D01*
X18842696Y8098100D01*
X18817196Y8103172D01*
X18778942Y8110781D01*
X18718886Y8135658D01*
X18664837Y8171772D01*
X18618872Y8217737D01*
X18582758Y8271786D01*
X18557881Y8331842D01*
X18545200Y8395598D01*
X18545200Y8460602D01*
X18546615Y8467714D01*
X18552323Y8496414D01*
X18557881Y8524358D01*
X18582758Y8584414D01*
X18618872Y8638463D01*
X18664837Y8684428D01*
X18718886Y8720542D01*
X18778942Y8745419D01*
X18817196Y8753028D01*
X18842696Y8758100D01*
X18907704Y8758100D01*
X18933204Y8753028D01*
X18933204Y8753028D01*
G37*
G36*
X1306164Y8865028D02*
G01*
X1344418Y8857419D01*
X1404474Y8832542D01*
X1458523Y8796428D01*
X1504488Y8750463D01*
X1540602Y8696414D01*
X1565479Y8636358D01*
X1571946Y8603842D01*
X1577139Y8577738D01*
X1578160Y8572602D01*
X1578160Y8507598D01*
X1565479Y8443842D01*
X1540602Y8383786D01*
X1504488Y8329737D01*
X1458523Y8283772D01*
X1404474Y8247658D01*
X1344418Y8222781D01*
X1306164Y8215172D01*
X1280664Y8210100D01*
X1215656Y8210100D01*
X1190156Y8215172D01*
X1151902Y8222781D01*
X1091846Y8247658D01*
X1037797Y8283772D01*
X991832Y8329737D01*
X955718Y8383786D01*
X930841Y8443842D01*
X918160Y8507598D01*
X918160Y8572602D01*
X919182Y8577738D01*
X924374Y8603842D01*
X930841Y8636358D01*
X955718Y8696414D01*
X991832Y8750463D01*
X1037797Y8796428D01*
X1091846Y8832542D01*
X1151902Y8857419D01*
X1190156Y8865028D01*
X1215656Y8870100D01*
X1280664Y8870100D01*
X1306164Y8865028D01*
X1306164Y8865028D01*
G37*
G36*
X17408204Y9113028D02*
G01*
X17446458Y9105419D01*
X17506514Y9080542D01*
X17560563Y9044428D01*
X17606528Y8998463D01*
X17642642Y8944414D01*
X17667519Y8884358D01*
X17670355Y8870100D01*
X17680200Y8820604D01*
X17680200Y8755596D01*
X17676819Y8738600D01*
X17667519Y8691842D01*
X17642642Y8631786D01*
X17606528Y8577737D01*
X17560563Y8531772D01*
X17506514Y8495658D01*
X17446458Y8470781D01*
X17408204Y8463172D01*
X17382704Y8458100D01*
X17317696Y8458100D01*
X17292196Y8463172D01*
X17253942Y8470781D01*
X17193886Y8495658D01*
X17139837Y8531772D01*
X17093872Y8577737D01*
X17057758Y8631786D01*
X17032881Y8691842D01*
X17023581Y8738600D01*
X17020200Y8755596D01*
X17020200Y8820604D01*
X17030045Y8870100D01*
X17032881Y8884358D01*
X17057758Y8944414D01*
X17093872Y8998463D01*
X17139837Y9044428D01*
X17193886Y9080542D01*
X17253942Y9105419D01*
X17292196Y9113028D01*
X17317696Y9118100D01*
X17382704Y9118100D01*
X17408204Y9113028D01*
X17408204Y9113028D01*
G37*
G36*
X18186004Y9113028D02*
G01*
X18224258Y9105419D01*
X18284314Y9080542D01*
X18338363Y9044428D01*
X18384328Y8998463D01*
X18420442Y8944414D01*
X18445319Y8884358D01*
X18448155Y8870100D01*
X18458000Y8820604D01*
X18458000Y8755596D01*
X18454619Y8738600D01*
X18445319Y8691842D01*
X18420442Y8631786D01*
X18384328Y8577737D01*
X18338363Y8531772D01*
X18284314Y8495658D01*
X18224258Y8470781D01*
X18186004Y8463172D01*
X18160504Y8458100D01*
X18095496Y8458100D01*
X18069996Y8463172D01*
X18031742Y8470781D01*
X17971686Y8495658D01*
X17917637Y8531772D01*
X17871672Y8577737D01*
X17835558Y8631786D01*
X17810681Y8691842D01*
X17801381Y8738600D01*
X17798000Y8755596D01*
X17798000Y8820604D01*
X17807845Y8870100D01*
X17810681Y8884358D01*
X17835558Y8944414D01*
X17871672Y8998463D01*
X17917637Y9044428D01*
X17971686Y9080542D01*
X18031742Y9105419D01*
X18069996Y9113028D01*
X18095496Y9118100D01*
X18160504Y9118100D01*
X18186004Y9113028D01*
X18186004Y9113028D01*
G37*
G36*
X10937800Y9237518D02*
G01*
X10976054Y9229909D01*
X11036110Y9205032D01*
X11090159Y9168918D01*
X11136124Y9122953D01*
X11172238Y9068904D01*
X11197115Y9008848D01*
X11204375Y8972345D01*
X11209796Y8945094D01*
X11209796Y8880086D01*
X11205450Y8858238D01*
X11197115Y8816332D01*
X11172238Y8756276D01*
X11136124Y8702227D01*
X11090159Y8656262D01*
X11036110Y8620148D01*
X10976054Y8595271D01*
X10937800Y8587662D01*
X10912300Y8582590D01*
X10847292Y8582590D01*
X10821792Y8587662D01*
X10783538Y8595271D01*
X10723482Y8620148D01*
X10669433Y8656262D01*
X10623468Y8702227D01*
X10587354Y8756276D01*
X10562477Y8816332D01*
X10554142Y8858238D01*
X10549796Y8880086D01*
X10549796Y8945094D01*
X10555217Y8972345D01*
X10562477Y9008848D01*
X10587354Y9068904D01*
X10623468Y9122953D01*
X10669433Y9168918D01*
X10723482Y9205032D01*
X10783538Y9229909D01*
X10821792Y9237518D01*
X10847292Y9242590D01*
X10912300Y9242590D01*
X10937800Y9237518D01*
X10937800Y9237518D01*
G37*
G36*
X22117684Y9393528D02*
G01*
X22155938Y9385919D01*
X22215994Y9361042D01*
X22270043Y9324928D01*
X22316008Y9278963D01*
X22352122Y9224914D01*
X22376999Y9164858D01*
X22383704Y9131149D01*
X22388822Y9105419D01*
X22389680Y9101102D01*
X22389680Y9036098D01*
X22376999Y8972342D01*
X22352122Y8912286D01*
X22316008Y8858237D01*
X22270043Y8812272D01*
X22215994Y8776158D01*
X22155938Y8751281D01*
X22117684Y8743672D01*
X22092184Y8738600D01*
X22027176Y8738600D01*
X22001676Y8743672D01*
X21963422Y8751281D01*
X21903366Y8776158D01*
X21849317Y8812272D01*
X21803352Y8858237D01*
X21767238Y8912286D01*
X21742361Y8972342D01*
X21729680Y9036098D01*
X21729680Y9101102D01*
X21730539Y9105419D01*
X21735656Y9131149D01*
X21742361Y9164858D01*
X21767238Y9224914D01*
X21803352Y9278963D01*
X21849317Y9324928D01*
X21903366Y9361042D01*
X21963422Y9385919D01*
X22001676Y9393528D01*
X22027176Y9398600D01*
X22092184Y9398600D01*
X22117684Y9393528D01*
X22117684Y9393528D01*
G37*
G36*
X14947987Y9748519D02*
G01*
X14986241Y9740910D01*
X15046297Y9716033D01*
X15100346Y9679919D01*
X15146311Y9633954D01*
X15182425Y9579905D01*
X15207302Y9519849D01*
X15214911Y9481595D01*
X15219983Y9456095D01*
X15219983Y9391087D01*
X15215294Y9367516D01*
X15207302Y9327333D01*
X15182425Y9267277D01*
X15146311Y9213228D01*
X15100346Y9167263D01*
X15046297Y9131149D01*
X14986241Y9106272D01*
X14947987Y9098663D01*
X14922487Y9093591D01*
X14857479Y9093591D01*
X14831979Y9098663D01*
X14793725Y9106272D01*
X14733669Y9131149D01*
X14679620Y9167263D01*
X14633655Y9213228D01*
X14597541Y9267277D01*
X14572664Y9327333D01*
X14564672Y9367516D01*
X14559983Y9391087D01*
X14559983Y9456095D01*
X14565055Y9481595D01*
X14572664Y9519849D01*
X14597541Y9579905D01*
X14633655Y9633954D01*
X14679620Y9679919D01*
X14733669Y9716033D01*
X14793725Y9740910D01*
X14831979Y9748519D01*
X14857479Y9753591D01*
X14922487Y9753591D01*
X14947987Y9748519D01*
X14947987Y9748519D01*
G37*
G36*
X12985987Y9748519D02*
G01*
X13024241Y9740910D01*
X13084297Y9716033D01*
X13138346Y9679919D01*
X13184311Y9633954D01*
X13220425Y9579905D01*
X13245302Y9519849D01*
X13252911Y9481595D01*
X13257983Y9456095D01*
X13257983Y9391087D01*
X13253294Y9367516D01*
X13245302Y9327333D01*
X13220425Y9267277D01*
X13184311Y9213228D01*
X13138346Y9167263D01*
X13084297Y9131149D01*
X13024241Y9106272D01*
X12985987Y9098663D01*
X12960487Y9093591D01*
X12895479Y9093591D01*
X12869979Y9098663D01*
X12831725Y9106272D01*
X12771669Y9131149D01*
X12717620Y9167263D01*
X12671655Y9213228D01*
X12635541Y9267277D01*
X12610664Y9327333D01*
X12602672Y9367516D01*
X12597983Y9391087D01*
X12597983Y9456095D01*
X12603055Y9481595D01*
X12610664Y9519849D01*
X12635541Y9579905D01*
X12671655Y9633954D01*
X12717620Y9679919D01*
X12771669Y9716033D01*
X12831725Y9740910D01*
X12869979Y9748519D01*
X12895479Y9753591D01*
X12960487Y9753591D01*
X12985987Y9748519D01*
X12985987Y9748519D01*
G37*
G36*
X16291170Y9914208D02*
G01*
X16335358Y9905419D01*
X16395414Y9880542D01*
X16449463Y9844428D01*
X16495428Y9798463D01*
X16531542Y9744414D01*
X16556419Y9684358D01*
X16561071Y9660969D01*
X16568151Y9625376D01*
X16569100Y9620602D01*
X16569100Y9555598D01*
X16556419Y9491842D01*
X16531542Y9431786D01*
X16495428Y9377737D01*
X16449463Y9331772D01*
X16395414Y9295658D01*
X16335358Y9270781D01*
X16297104Y9263172D01*
X16271604Y9258100D01*
X16206596Y9258100D01*
X16181096Y9263172D01*
X16142842Y9270781D01*
X16082786Y9295658D01*
X16028737Y9331772D01*
X15982772Y9377737D01*
X15946658Y9431786D01*
X15921781Y9491842D01*
X15909100Y9555598D01*
X15909100Y9620602D01*
X15910050Y9625376D01*
X15917129Y9660969D01*
X15921781Y9684358D01*
X15946658Y9744414D01*
X15982772Y9798463D01*
X16028737Y9844428D01*
X16082786Y9880542D01*
X16142842Y9905419D01*
X16187030Y9914208D01*
X16206596Y9918100D01*
X16271604Y9918100D01*
X16291170Y9914208D01*
X16291170Y9914208D01*
G37*
G36*
X29261360Y9953393D02*
G01*
X29299614Y9945784D01*
X29359670Y9920907D01*
X29413719Y9884793D01*
X29459684Y9838828D01*
X29495798Y9784779D01*
X29520675Y9724723D01*
X29522403Y9716033D01*
X29529587Y9679919D01*
X29533356Y9660967D01*
X29533356Y9595963D01*
X29520675Y9532207D01*
X29495798Y9472151D01*
X29459684Y9418102D01*
X29413719Y9372137D01*
X29359670Y9336023D01*
X29299614Y9311146D01*
X29261360Y9303537D01*
X29235860Y9298465D01*
X29170852Y9298465D01*
X29145352Y9303537D01*
X29107098Y9311146D01*
X29047042Y9336023D01*
X28992993Y9372137D01*
X28947028Y9418102D01*
X28910914Y9472151D01*
X28886037Y9532207D01*
X28873356Y9595963D01*
X28873356Y9660967D01*
X28877126Y9679919D01*
X28884309Y9716033D01*
X28886037Y9724723D01*
X28910914Y9784779D01*
X28947028Y9838828D01*
X28992993Y9884793D01*
X29047042Y9920907D01*
X29107098Y9945784D01*
X29145352Y9953393D01*
X29170852Y9958465D01*
X29235860Y9958465D01*
X29261360Y9953393D01*
X29261360Y9953393D01*
G37*
G36*
X21617304Y9982808D02*
G01*
X21655558Y9975199D01*
X21715614Y9950322D01*
X21769663Y9914208D01*
X21815628Y9868243D01*
X21851742Y9814194D01*
X21876619Y9754138D01*
X21882470Y9724720D01*
X21889300Y9690384D01*
X21889300Y9625376D01*
X21888350Y9620602D01*
X21876619Y9561622D01*
X21851742Y9501566D01*
X21815628Y9447517D01*
X21769663Y9401552D01*
X21715614Y9365438D01*
X21655558Y9340561D01*
X21617304Y9332952D01*
X21591804Y9327880D01*
X21526796Y9327880D01*
X21501296Y9332952D01*
X21463042Y9340561D01*
X21402986Y9365438D01*
X21348937Y9401552D01*
X21302972Y9447517D01*
X21266858Y9501566D01*
X21241981Y9561622D01*
X21230250Y9620602D01*
X21229300Y9625376D01*
X21229300Y9690384D01*
X21236130Y9724720D01*
X21241981Y9754138D01*
X21266858Y9814194D01*
X21302972Y9868243D01*
X21348937Y9914208D01*
X21402986Y9950322D01*
X21463042Y9975199D01*
X21501296Y9982808D01*
X21526796Y9987880D01*
X21591804Y9987880D01*
X21617304Y9982808D01*
X21617304Y9982808D01*
G37*
G36*
X26602303Y9984886D02*
G01*
X26640557Y9977277D01*
X26700613Y9952400D01*
X26754662Y9916286D01*
X26800627Y9870321D01*
X26836741Y9816272D01*
X26861618Y9756216D01*
X26869227Y9717962D01*
X26874299Y9692462D01*
X26874299Y9627454D01*
X26872936Y9620604D01*
X26861618Y9563700D01*
X26836741Y9503644D01*
X26800627Y9449595D01*
X26754662Y9403630D01*
X26700613Y9367516D01*
X26640557Y9342639D01*
X26602303Y9335030D01*
X26576803Y9329958D01*
X26511795Y9329958D01*
X26486295Y9335030D01*
X26448041Y9342639D01*
X26387985Y9367516D01*
X26333936Y9403630D01*
X26287971Y9449595D01*
X26251857Y9503644D01*
X26226980Y9563700D01*
X26215662Y9620604D01*
X26214299Y9627454D01*
X26214299Y9692462D01*
X26219371Y9717962D01*
X26226980Y9756216D01*
X26251857Y9816272D01*
X26287971Y9870321D01*
X26333936Y9916286D01*
X26387985Y9952400D01*
X26448041Y9977277D01*
X26486295Y9984886D01*
X26511795Y9989958D01*
X26576803Y9989958D01*
X26602303Y9984886D01*
X26602303Y9984886D01*
G37*
G36*
X1306164Y11065028D02*
G01*
X1344418Y11057419D01*
X1404474Y11032542D01*
X1458523Y10996428D01*
X1504488Y10950463D01*
X1540602Y10896414D01*
X1565479Y10836358D01*
X1573088Y10798104D01*
X1576720Y10779845D01*
X1578160Y10772602D01*
X1578160Y10707598D01*
X1565479Y10643842D01*
X1540602Y10583786D01*
X1504488Y10529737D01*
X1458523Y10483772D01*
X1404474Y10447658D01*
X1344418Y10422781D01*
X1306164Y10415172D01*
X1280664Y10410100D01*
X1215656Y10410100D01*
X1190156Y10415172D01*
X1151902Y10422781D01*
X1091846Y10447658D01*
X1037797Y10483772D01*
X991832Y10529737D01*
X955718Y10583786D01*
X930841Y10643842D01*
X918160Y10707598D01*
X918160Y10772602D01*
X919601Y10779845D01*
X923232Y10798104D01*
X930841Y10836358D01*
X955718Y10896414D01*
X991832Y10950463D01*
X1037797Y10996428D01*
X1091846Y11032542D01*
X1151902Y11057419D01*
X1190156Y11065028D01*
X1215656Y11070100D01*
X1280664Y11070100D01*
X1306164Y11065028D01*
X1306164Y11065028D01*
G37*
G36*
X25638456Y11201028D02*
G01*
X25676710Y11193419D01*
X25736766Y11168542D01*
X25790815Y11132428D01*
X25836780Y11086463D01*
X25872894Y11032414D01*
X25897771Y10972358D01*
X25905380Y10934104D01*
X25910452Y10908604D01*
X25910452Y10843596D01*
X25905380Y10818096D01*
X25897771Y10779842D01*
X25872894Y10719786D01*
X25836780Y10665737D01*
X25790815Y10619772D01*
X25736766Y10583658D01*
X25676710Y10558781D01*
X25638456Y10551172D01*
X25612956Y10546100D01*
X25547948Y10546100D01*
X25522448Y10551172D01*
X25484194Y10558781D01*
X25424138Y10583658D01*
X25370089Y10619772D01*
X25324124Y10665737D01*
X25288010Y10719786D01*
X25263133Y10779842D01*
X25255524Y10818096D01*
X25250452Y10843596D01*
X25250452Y10908604D01*
X25255524Y10934104D01*
X25263133Y10972358D01*
X25288010Y11032414D01*
X25324124Y11086463D01*
X25370089Y11132428D01*
X25424138Y11168542D01*
X25484194Y11193419D01*
X25522448Y11201028D01*
X25547948Y11206100D01*
X25612956Y11206100D01*
X25638456Y11201028D01*
X25638456Y11201028D01*
G37*
G36*
X23676456Y11201028D02*
G01*
X23714710Y11193419D01*
X23774766Y11168542D01*
X23828815Y11132428D01*
X23874780Y11086463D01*
X23910894Y11032414D01*
X23935771Y10972358D01*
X23943380Y10934104D01*
X23948452Y10908604D01*
X23948452Y10843596D01*
X23943380Y10818096D01*
X23935771Y10779842D01*
X23910894Y10719786D01*
X23874780Y10665737D01*
X23828815Y10619772D01*
X23774766Y10583658D01*
X23714710Y10558781D01*
X23676456Y10551172D01*
X23650956Y10546100D01*
X23585948Y10546100D01*
X23560448Y10551172D01*
X23522194Y10558781D01*
X23462138Y10583658D01*
X23408089Y10619772D01*
X23362124Y10665737D01*
X23326010Y10719786D01*
X23301133Y10779842D01*
X23293524Y10818096D01*
X23288452Y10843596D01*
X23288452Y10908604D01*
X23293524Y10934104D01*
X23301133Y10972358D01*
X23326010Y11032414D01*
X23362124Y11086463D01*
X23408089Y11132428D01*
X23462138Y11168542D01*
X23522194Y11193419D01*
X23560448Y11201028D01*
X23585948Y11206100D01*
X23650956Y11206100D01*
X23676456Y11201028D01*
X23676456Y11201028D01*
G37*
G36*
X5906164Y11265028D02*
G01*
X5944418Y11257419D01*
X6004474Y11232542D01*
X6058523Y11196428D01*
X6104488Y11150463D01*
X6140602Y11096414D01*
X6165479Y11036358D01*
X6178160Y10972602D01*
X6178160Y10907598D01*
X6165479Y10843842D01*
X6140602Y10783786D01*
X6104488Y10729737D01*
X6058523Y10683772D01*
X6004474Y10647658D01*
X5944418Y10622781D01*
X5906164Y10615172D01*
X5880664Y10610100D01*
X5815656Y10610100D01*
X5790156Y10615172D01*
X5751902Y10622781D01*
X5691846Y10647658D01*
X5637797Y10683772D01*
X5591832Y10729737D01*
X5555718Y10783786D01*
X5530841Y10843842D01*
X5518160Y10907598D01*
X5518160Y10972602D01*
X5530841Y11036358D01*
X5555718Y11096414D01*
X5591832Y11150463D01*
X5637797Y11196428D01*
X5691846Y11232542D01*
X5751902Y11257419D01*
X5790156Y11265028D01*
X5815656Y11270100D01*
X5880664Y11270100D01*
X5906164Y11265028D01*
X5906164Y11265028D01*
G37*
G36*
X7268416Y11306632D02*
G01*
X7306670Y11299023D01*
X7366726Y11274146D01*
X7420775Y11238032D01*
X7466740Y11192067D01*
X7502854Y11138018D01*
X7527731Y11077962D01*
X7535340Y11039708D01*
X7538124Y11025712D01*
X7540412Y11014206D01*
X7540412Y10949202D01*
X7527731Y10885446D01*
X7502854Y10825390D01*
X7466740Y10771341D01*
X7420775Y10725376D01*
X7366726Y10689262D01*
X7306670Y10664385D01*
X7268416Y10656776D01*
X7242916Y10651704D01*
X7177908Y10651704D01*
X7152408Y10656776D01*
X7114154Y10664385D01*
X7054098Y10689262D01*
X7000049Y10725376D01*
X6954084Y10771341D01*
X6917970Y10825390D01*
X6893093Y10885446D01*
X6880412Y10949202D01*
X6880412Y11014206D01*
X6882701Y11025712D01*
X6885484Y11039708D01*
X6893093Y11077962D01*
X6917970Y11138018D01*
X6954084Y11192067D01*
X7000049Y11238032D01*
X7054098Y11274146D01*
X7114154Y11299023D01*
X7152408Y11306632D01*
X7177908Y11311704D01*
X7242916Y11311704D01*
X7268416Y11306632D01*
X7268416Y11306632D01*
G37*
G36*
X17197104Y12113028D02*
G01*
X17235358Y12105419D01*
X17295414Y12080542D01*
X17349463Y12044428D01*
X17395428Y11998463D01*
X17431542Y11944414D01*
X17456419Y11884358D01*
X17459650Y11868112D01*
X17467602Y11828137D01*
X17469100Y11820602D01*
X17469100Y11755598D01*
X17456419Y11691842D01*
X17431542Y11631786D01*
X17395428Y11577737D01*
X17349463Y11531772D01*
X17295414Y11495658D01*
X17235358Y11470781D01*
X17235353Y11470780D01*
X17234520Y11470435D01*
X17228469Y11467201D01*
X17223165Y11462848D01*
X17218812Y11457545D01*
X17215578Y11451494D01*
X17213587Y11444928D01*
X17212914Y11438100D01*
X17213586Y11431272D01*
X17215578Y11424707D01*
X17218812Y11418656D01*
X17223165Y11413352D01*
X17228468Y11408999D01*
X17234520Y11405765D01*
X17235353Y11405420D01*
X17235358Y11405419D01*
X17295414Y11380542D01*
X17349463Y11344428D01*
X17395428Y11298463D01*
X17431542Y11244414D01*
X17456419Y11184358D01*
X17469100Y11120602D01*
X17469100Y11055598D01*
X17456419Y10991842D01*
X17431542Y10931786D01*
X17395428Y10877737D01*
X17349463Y10831772D01*
X17295414Y10795658D01*
X17235358Y10770781D01*
X17197104Y10763172D01*
X17171604Y10758100D01*
X17106596Y10758100D01*
X17081096Y10763172D01*
X17042842Y10770781D01*
X16982786Y10795658D01*
X16928737Y10831772D01*
X16882772Y10877737D01*
X16846658Y10931786D01*
X16821781Y10991842D01*
X16809100Y11055598D01*
X16809100Y11120602D01*
X16821781Y11184358D01*
X16846658Y11244414D01*
X16882772Y11298463D01*
X16928737Y11344428D01*
X16982786Y11380542D01*
X17042842Y11405419D01*
X17042847Y11405420D01*
X17043680Y11405765D01*
X17049731Y11408999D01*
X17055035Y11413352D01*
X17059388Y11418655D01*
X17062622Y11424706D01*
X17064613Y11431272D01*
X17065286Y11438100D01*
X17064614Y11444928D01*
X17062622Y11451493D01*
X17059388Y11457544D01*
X17055035Y11462848D01*
X17049732Y11467201D01*
X17043680Y11470435D01*
X17042847Y11470780D01*
X17042842Y11470781D01*
X16982786Y11495658D01*
X16928737Y11531772D01*
X16882772Y11577737D01*
X16846658Y11631786D01*
X16821781Y11691842D01*
X16809100Y11755598D01*
X16809100Y11820602D01*
X16810599Y11828137D01*
X16818550Y11868112D01*
X16821781Y11884358D01*
X16846658Y11944414D01*
X16882772Y11998463D01*
X16928737Y12044428D01*
X16982786Y12080542D01*
X17042842Y12105419D01*
X17081096Y12113028D01*
X17106596Y12118100D01*
X17171604Y12118100D01*
X17197104Y12113028D01*
X17197104Y12113028D01*
G37*
G36*
X19397104Y11413028D02*
G01*
X19435358Y11405419D01*
X19495414Y11380542D01*
X19549463Y11344428D01*
X19595428Y11298463D01*
X19631542Y11244414D01*
X19656419Y11184358D01*
X19669100Y11120602D01*
X19669100Y11055598D01*
X19656419Y10991842D01*
X19631542Y10931786D01*
X19595428Y10877737D01*
X19549463Y10831772D01*
X19495414Y10795658D01*
X19435358Y10770781D01*
X19397104Y10763172D01*
X19371604Y10758100D01*
X19306596Y10758100D01*
X19281096Y10763172D01*
X19242842Y10770781D01*
X19182786Y10795658D01*
X19128737Y10831772D01*
X19082772Y10877737D01*
X19046658Y10931786D01*
X19021781Y10991842D01*
X19009100Y11055598D01*
X19009100Y11120602D01*
X19021781Y11184358D01*
X19046658Y11244414D01*
X19082772Y11298463D01*
X19128737Y11344428D01*
X19182786Y11380542D01*
X19242842Y11405419D01*
X19281096Y11413028D01*
X19306596Y11418100D01*
X19371604Y11418100D01*
X19397104Y11413028D01*
X19397104Y11413028D01*
G37*
G36*
X9272912Y11561002D02*
G01*
X9311166Y11553393D01*
X9371222Y11528516D01*
X9425271Y11492402D01*
X9471236Y11446437D01*
X9507350Y11392388D01*
X9532227Y11332332D01*
X9538964Y11298462D01*
X9544908Y11268578D01*
X9544908Y11203570D01*
X9541086Y11184358D01*
X9532227Y11139816D01*
X9507350Y11079760D01*
X9471236Y11025711D01*
X9425271Y10979746D01*
X9371222Y10943632D01*
X9311166Y10918755D01*
X9272912Y10911146D01*
X9247412Y10906074D01*
X9182404Y10906074D01*
X9156904Y10911146D01*
X9118650Y10918755D01*
X9058594Y10943632D01*
X9004545Y10979746D01*
X8958580Y11025711D01*
X8922466Y11079760D01*
X8897589Y11139816D01*
X8888730Y11184358D01*
X8884908Y11203570D01*
X8884908Y11268578D01*
X8890852Y11298462D01*
X8897589Y11332332D01*
X8922466Y11392388D01*
X8958580Y11446437D01*
X9004545Y11492402D01*
X9058594Y11528516D01*
X9118650Y11553393D01*
X9156904Y11561002D01*
X9182404Y11566074D01*
X9247412Y11566074D01*
X9272912Y11561002D01*
X9272912Y11561002D01*
G37*
G36*
X29264894Y12039105D02*
G01*
X29315110Y12029117D01*
X29375166Y12004240D01*
X29429215Y11968126D01*
X29475180Y11922161D01*
X29511294Y11868112D01*
X29536171Y11808056D01*
X29540998Y11783786D01*
X29548503Y11746058D01*
X29548852Y11744300D01*
X29548852Y11679296D01*
X29536171Y11615540D01*
X29511294Y11555484D01*
X29475180Y11501435D01*
X29429215Y11455470D01*
X29375166Y11419356D01*
X29315110Y11394479D01*
X29276856Y11386870D01*
X29251356Y11381798D01*
X29186348Y11381798D01*
X29160848Y11386870D01*
X29122594Y11394479D01*
X29062538Y11419356D01*
X29008489Y11455470D01*
X28962524Y11501435D01*
X28926410Y11555484D01*
X28901533Y11615540D01*
X28888852Y11679296D01*
X28888852Y11744300D01*
X28889202Y11746058D01*
X28896706Y11783786D01*
X28901533Y11808056D01*
X28926410Y11868112D01*
X28962524Y11922161D01*
X29008489Y11968126D01*
X29062538Y12004240D01*
X29122594Y12029117D01*
X29172810Y12039105D01*
X29186348Y12041798D01*
X29251356Y12041798D01*
X29264894Y12039105D01*
X29264894Y12039105D01*
G37*
G36*
X11319445Y12071591D02*
G01*
X11357699Y12063982D01*
X11417755Y12039105D01*
X11471804Y12002991D01*
X11517769Y11957026D01*
X11553883Y11902977D01*
X11578760Y11842921D01*
X11591441Y11779165D01*
X11591441Y11714161D01*
X11578760Y11650405D01*
X11553883Y11590349D01*
X11517769Y11536300D01*
X11471804Y11490335D01*
X11417755Y11454221D01*
X11357699Y11429344D01*
X11319445Y11421735D01*
X11293945Y11416663D01*
X11228937Y11416663D01*
X11203437Y11421735D01*
X11165183Y11429344D01*
X11105127Y11454221D01*
X11051078Y11490335D01*
X11005113Y11536300D01*
X10968999Y11590349D01*
X10944122Y11650405D01*
X10931441Y11714161D01*
X10931441Y11779165D01*
X10944122Y11842921D01*
X10968999Y11902977D01*
X11005113Y11957026D01*
X11051078Y12002991D01*
X11105127Y12039105D01*
X11165183Y12063982D01*
X11203437Y12071591D01*
X11228937Y12076663D01*
X11293945Y12076663D01*
X11319445Y12071591D01*
X11319445Y12071591D01*
G37*
G36*
X2516164Y12265028D02*
G01*
X2554418Y12257419D01*
X2614474Y12232542D01*
X2668523Y12196428D01*
X2714488Y12150463D01*
X2750602Y12096414D01*
X2775479Y12036358D01*
X2788160Y11972602D01*
X2788160Y11907598D01*
X2775479Y11843842D01*
X2750602Y11783786D01*
X2714488Y11729737D01*
X2668523Y11683772D01*
X2614474Y11647658D01*
X2554418Y11622781D01*
X2516164Y11615172D01*
X2490664Y11610100D01*
X2425656Y11610100D01*
X2400156Y11615172D01*
X2361902Y11622781D01*
X2301846Y11647658D01*
X2247797Y11683772D01*
X2201832Y11729737D01*
X2165718Y11783786D01*
X2140841Y11843842D01*
X2128160Y11907598D01*
X2128160Y11972602D01*
X2140841Y12036358D01*
X2165718Y12096414D01*
X2201832Y12150463D01*
X2247797Y12196428D01*
X2301846Y12232542D01*
X2361902Y12257419D01*
X2400156Y12265028D01*
X2425656Y12270100D01*
X2490664Y12270100D01*
X2516164Y12265028D01*
X2516164Y12265028D01*
G37*
G36*
X4686164Y12265028D02*
G01*
X4724418Y12257419D01*
X4784474Y12232542D01*
X4838523Y12196428D01*
X4884488Y12150463D01*
X4920602Y12096414D01*
X4945479Y12036358D01*
X4958160Y11972602D01*
X4958160Y11907598D01*
X4945479Y11843842D01*
X4920602Y11783786D01*
X4884488Y11729737D01*
X4838523Y11683772D01*
X4784474Y11647658D01*
X4724418Y11622781D01*
X4686164Y11615172D01*
X4660664Y11610100D01*
X4595656Y11610100D01*
X4570156Y11615172D01*
X4531902Y11622781D01*
X4471846Y11647658D01*
X4417797Y11683772D01*
X4371832Y11729737D01*
X4335718Y11783786D01*
X4310841Y11843842D01*
X4298160Y11907598D01*
X4298160Y11972602D01*
X4310841Y12036358D01*
X4335718Y12096414D01*
X4371832Y12150463D01*
X4417797Y12196428D01*
X4471846Y12232542D01*
X4531902Y12257419D01*
X4570156Y12265028D01*
X4595656Y12270100D01*
X4660664Y12270100D01*
X4686164Y12265028D01*
X4686164Y12265028D01*
G37*
G36*
X13020422Y12363428D02*
G01*
X13058676Y12355819D01*
X13118732Y12330942D01*
X13172781Y12294828D01*
X13218746Y12248863D01*
X13254860Y12194814D01*
X13279737Y12134758D01*
X13286504Y12100737D01*
X13292418Y12071004D01*
X13292418Y12005996D01*
X13290919Y11998462D01*
X13279737Y11942242D01*
X13254860Y11882186D01*
X13218746Y11828137D01*
X13172781Y11782172D01*
X13118732Y11746058D01*
X13058676Y11721181D01*
X13020422Y11713572D01*
X12994922Y11708500D01*
X12929914Y11708500D01*
X12904414Y11713572D01*
X12866160Y11721181D01*
X12806104Y11746058D01*
X12752055Y11782172D01*
X12706090Y11828137D01*
X12669976Y11882186D01*
X12645099Y11942242D01*
X12633917Y11998462D01*
X12632418Y12005996D01*
X12632418Y12071004D01*
X12638332Y12100737D01*
X12645099Y12134758D01*
X12669976Y12194814D01*
X12706090Y12248863D01*
X12752055Y12294828D01*
X12806104Y12330942D01*
X12866160Y12355819D01*
X12904414Y12363428D01*
X12929914Y12368500D01*
X12994922Y12368500D01*
X13020422Y12363428D01*
X13020422Y12363428D01*
G37*
G36*
X15053704Y13347228D02*
G01*
X15091958Y13339619D01*
X15152014Y13314742D01*
X15206063Y13278628D01*
X15252028Y13232663D01*
X15288142Y13178614D01*
X15313019Y13118558D01*
X15325700Y13054802D01*
X15325700Y12989798D01*
X15313019Y12926042D01*
X15288142Y12865986D01*
X15252028Y12811937D01*
X15206063Y12765972D01*
X15152014Y12729858D01*
X15091958Y12704981D01*
X15072069Y12701025D01*
X15065506Y12699035D01*
X15059455Y12695801D01*
X15054152Y12691448D01*
X15049799Y12686144D01*
X15046565Y12680093D01*
X15044573Y12673528D01*
X15043901Y12666700D01*
X15044574Y12659872D01*
X15046565Y12653306D01*
X15049799Y12647255D01*
X15054152Y12641952D01*
X15059456Y12637599D01*
X15065507Y12634365D01*
X15072069Y12632375D01*
X15091958Y12628419D01*
X15152014Y12603542D01*
X15206063Y12567428D01*
X15252028Y12521463D01*
X15288142Y12467414D01*
X15313019Y12407358D01*
X15315346Y12395658D01*
X15322817Y12358100D01*
X15325700Y12343602D01*
X15325700Y12278598D01*
X15313019Y12214842D01*
X15288142Y12154786D01*
X15252028Y12100737D01*
X15206063Y12054772D01*
X15152014Y12018658D01*
X15091958Y11993781D01*
X15053704Y11986172D01*
X15028204Y11981100D01*
X14963196Y11981100D01*
X14937696Y11986172D01*
X14899442Y11993781D01*
X14839386Y12018658D01*
X14785337Y12054772D01*
X14739372Y12100737D01*
X14703258Y12154786D01*
X14678381Y12214842D01*
X14665700Y12278598D01*
X14665700Y12343602D01*
X14668584Y12358100D01*
X14676054Y12395658D01*
X14678381Y12407358D01*
X14703258Y12467414D01*
X14739372Y12521463D01*
X14785337Y12567428D01*
X14839386Y12603542D01*
X14899442Y12628419D01*
X14919331Y12632375D01*
X14925894Y12634365D01*
X14931945Y12637599D01*
X14937248Y12641952D01*
X14941601Y12647256D01*
X14944835Y12653307D01*
X14946827Y12659872D01*
X14947499Y12666700D01*
X14946826Y12673528D01*
X14944835Y12680094D01*
X14941601Y12686145D01*
X14937248Y12691448D01*
X14931944Y12695801D01*
X14925893Y12699035D01*
X14919331Y12701025D01*
X14899442Y12704981D01*
X14839386Y12729858D01*
X14785337Y12765972D01*
X14739372Y12811937D01*
X14703258Y12865986D01*
X14678381Y12926042D01*
X14665700Y12989798D01*
X14665700Y13054802D01*
X14678381Y13118558D01*
X14703258Y13178614D01*
X14739372Y13232663D01*
X14785337Y13278628D01*
X14839386Y13314742D01*
X14899442Y13339619D01*
X14937696Y13347228D01*
X14963196Y13352300D01*
X15028204Y13352300D01*
X15053704Y13347228D01*
X15053704Y13347228D01*
G37*
G36*
X19397104Y13013028D02*
G01*
X19435358Y13005419D01*
X19495414Y12980542D01*
X19549463Y12944428D01*
X19595428Y12898463D01*
X19631542Y12844414D01*
X19656419Y12784358D01*
X19660076Y12765972D01*
X19669100Y12720604D01*
X19669100Y12655596D01*
X19665520Y12637599D01*
X19656419Y12591842D01*
X19631542Y12531786D01*
X19595428Y12477737D01*
X19549463Y12431772D01*
X19495414Y12395658D01*
X19435358Y12370781D01*
X19397104Y12363172D01*
X19371604Y12358100D01*
X19306596Y12358100D01*
X19281096Y12363172D01*
X19242842Y12370781D01*
X19182786Y12395658D01*
X19128737Y12431772D01*
X19082772Y12477737D01*
X19046658Y12531786D01*
X19021781Y12591842D01*
X19012680Y12637599D01*
X19009100Y12655596D01*
X19009100Y12720604D01*
X19018124Y12765972D01*
X19021781Y12784358D01*
X19046658Y12844414D01*
X19082772Y12898463D01*
X19128737Y12944428D01*
X19182786Y12980542D01*
X19242842Y13005419D01*
X19281096Y13013028D01*
X19306596Y13018100D01*
X19371604Y13018100D01*
X19397104Y13013028D01*
X19397104Y13013028D01*
G37*
G36*
X13020422Y13658828D02*
G01*
X13058676Y13651219D01*
X13118732Y13626342D01*
X13172781Y13590228D01*
X13218746Y13544263D01*
X13254860Y13490214D01*
X13279737Y13430158D01*
X13284811Y13404648D01*
X13292418Y13366404D01*
X13292418Y13301396D01*
X13287889Y13278628D01*
X13279737Y13237642D01*
X13254860Y13177586D01*
X13218746Y13123537D01*
X13172781Y13077572D01*
X13118732Y13041458D01*
X13058676Y13016581D01*
X13020422Y13008972D01*
X12994922Y13003900D01*
X12929914Y13003900D01*
X12904414Y13008972D01*
X12866160Y13016581D01*
X12806104Y13041458D01*
X12752055Y13077572D01*
X12706090Y13123537D01*
X12669976Y13177586D01*
X12645099Y13237642D01*
X12636947Y13278628D01*
X12632418Y13301396D01*
X12632418Y13366404D01*
X12640025Y13404648D01*
X12645099Y13430158D01*
X12669976Y13490214D01*
X12706090Y13544263D01*
X12752055Y13590228D01*
X12806104Y13626342D01*
X12866160Y13651219D01*
X12904414Y13658828D01*
X12929914Y13663900D01*
X12994922Y13663900D01*
X13020422Y13658828D01*
X13020422Y13658828D01*
G37*
G36*
X4736164Y13771028D02*
G01*
X4774418Y13763419D01*
X4834474Y13738542D01*
X4888523Y13702428D01*
X4934488Y13656463D01*
X4970602Y13602414D01*
X4995479Y13542358D01*
X5003088Y13504104D01*
X5008160Y13478604D01*
X5008160Y13413596D01*
X5007814Y13411859D01*
X4995479Y13349842D01*
X4970602Y13289786D01*
X4934488Y13235737D01*
X4888523Y13189772D01*
X4834474Y13153658D01*
X4774418Y13128781D01*
X4736164Y13121172D01*
X4710664Y13116100D01*
X4645656Y13116100D01*
X4620156Y13121172D01*
X4581902Y13128781D01*
X4521846Y13153658D01*
X4467797Y13189772D01*
X4421832Y13235737D01*
X4385718Y13289786D01*
X4360841Y13349842D01*
X4348506Y13411859D01*
X4348160Y13413596D01*
X4348160Y13478604D01*
X4353232Y13504104D01*
X4360841Y13542358D01*
X4385718Y13602414D01*
X4421832Y13656463D01*
X4467797Y13702428D01*
X4521846Y13738542D01*
X4581902Y13763419D01*
X4620156Y13771028D01*
X4645656Y13776100D01*
X4710664Y13776100D01*
X4736164Y13771028D01*
X4736164Y13771028D01*
G37*
G36*
X2486164Y13771028D02*
G01*
X2524418Y13763419D01*
X2584474Y13738542D01*
X2638523Y13702428D01*
X2684488Y13656463D01*
X2720602Y13602414D01*
X2745479Y13542358D01*
X2753088Y13504104D01*
X2758160Y13478604D01*
X2758160Y13413596D01*
X2757814Y13411859D01*
X2745479Y13349842D01*
X2720602Y13289786D01*
X2684488Y13235737D01*
X2638523Y13189772D01*
X2584474Y13153658D01*
X2524418Y13128781D01*
X2486164Y13121172D01*
X2460664Y13116100D01*
X2395656Y13116100D01*
X2370156Y13121172D01*
X2331902Y13128781D01*
X2271846Y13153658D01*
X2217797Y13189772D01*
X2171832Y13235737D01*
X2135718Y13289786D01*
X2110841Y13349842D01*
X2098506Y13411859D01*
X2098160Y13413596D01*
X2098160Y13478604D01*
X2103232Y13504104D01*
X2110841Y13542358D01*
X2135718Y13602414D01*
X2171832Y13656463D01*
X2217797Y13702428D01*
X2271846Y13738542D01*
X2331902Y13763419D01*
X2370156Y13771028D01*
X2395656Y13776100D01*
X2460664Y13776100D01*
X2486164Y13771028D01*
X2486164Y13771028D01*
G37*
G36*
X17197104Y14613028D02*
G01*
X17235358Y14605419D01*
X17295414Y14580542D01*
X17349463Y14544428D01*
X17395428Y14498463D01*
X17431542Y14444414D01*
X17456419Y14384358D01*
X17469100Y14320602D01*
X17469100Y14255598D01*
X17456419Y14191842D01*
X17431542Y14131786D01*
X17395428Y14077737D01*
X17349463Y14031772D01*
X17295414Y13995658D01*
X17235358Y13970781D01*
X17235353Y13970780D01*
X17234520Y13970435D01*
X17228469Y13967201D01*
X17223165Y13962848D01*
X17218812Y13957545D01*
X17215578Y13951494D01*
X17213587Y13944928D01*
X17212914Y13938100D01*
X17213586Y13931272D01*
X17215578Y13924707D01*
X17218812Y13918656D01*
X17223165Y13913352D01*
X17228468Y13908999D01*
X17234520Y13905765D01*
X17235353Y13905420D01*
X17235358Y13905419D01*
X17295414Y13880542D01*
X17349463Y13844428D01*
X17395428Y13798463D01*
X17431542Y13744414D01*
X17456419Y13684358D01*
X17460488Y13663900D01*
X17469100Y13620604D01*
X17469100Y13555596D01*
X17466467Y13542358D01*
X17456419Y13491842D01*
X17431542Y13431786D01*
X17395428Y13377737D01*
X17349463Y13331772D01*
X17295414Y13295658D01*
X17235358Y13270781D01*
X17197104Y13263172D01*
X17171604Y13258100D01*
X17106596Y13258100D01*
X17081096Y13263172D01*
X17042842Y13270781D01*
X16982786Y13295658D01*
X16928737Y13331772D01*
X16882772Y13377737D01*
X16846658Y13431786D01*
X16821781Y13491842D01*
X16811733Y13542358D01*
X16809100Y13555596D01*
X16809100Y13620604D01*
X16817712Y13663900D01*
X16821781Y13684358D01*
X16846658Y13744414D01*
X16882772Y13798463D01*
X16928737Y13844428D01*
X16982786Y13880542D01*
X17042842Y13905419D01*
X17042847Y13905420D01*
X17043680Y13905765D01*
X17049731Y13908999D01*
X17055035Y13913352D01*
X17059388Y13918655D01*
X17062622Y13924706D01*
X17064613Y13931272D01*
X17065286Y13938100D01*
X17064614Y13944928D01*
X17062622Y13951493D01*
X17059388Y13957544D01*
X17055035Y13962848D01*
X17049732Y13967201D01*
X17043680Y13970435D01*
X17042847Y13970780D01*
X17042842Y13970781D01*
X16982786Y13995658D01*
X16928737Y14031772D01*
X16882772Y14077737D01*
X16846658Y14131786D01*
X16821781Y14191842D01*
X16809100Y14255598D01*
X16809100Y14320602D01*
X16821781Y14384358D01*
X16846658Y14444414D01*
X16882772Y14498463D01*
X16928737Y14544428D01*
X16982786Y14580542D01*
X17042842Y14605419D01*
X17081096Y14613028D01*
X17106596Y14618100D01*
X17171604Y14618100D01*
X17197104Y14613028D01*
X17197104Y14613028D01*
G37*
G36*
X11344479Y13947150D02*
G01*
X11382733Y13939541D01*
X11442789Y13914664D01*
X11496838Y13878550D01*
X11542803Y13832585D01*
X11578917Y13778536D01*
X11603794Y13718480D01*
X11607043Y13702144D01*
X11616475Y13654726D01*
X11616475Y13589718D01*
X11611403Y13564218D01*
X11603794Y13525964D01*
X11578917Y13465908D01*
X11542803Y13411859D01*
X11496838Y13365894D01*
X11442789Y13329780D01*
X11382733Y13304903D01*
X11344479Y13297294D01*
X11318979Y13292222D01*
X11253971Y13292222D01*
X11228471Y13297294D01*
X11190217Y13304903D01*
X11130161Y13329780D01*
X11076112Y13365894D01*
X11030147Y13411859D01*
X10994033Y13465908D01*
X10969156Y13525964D01*
X10961547Y13564218D01*
X10956475Y13589718D01*
X10956475Y13654726D01*
X10965907Y13702144D01*
X10969156Y13718480D01*
X10994033Y13778536D01*
X11030147Y13832585D01*
X11076112Y13878550D01*
X11130161Y13914664D01*
X11190217Y13939541D01*
X11228471Y13947150D01*
X11253971Y13952222D01*
X11318979Y13952222D01*
X11344479Y13947150D01*
X11344479Y13947150D01*
G37*
G36*
X29276856Y14059576D02*
G01*
X29315110Y14051967D01*
X29375166Y14027090D01*
X29429215Y13990976D01*
X29475180Y13945011D01*
X29511294Y13890962D01*
X29536171Y13830906D01*
X29538228Y13820563D01*
X29548852Y13767152D01*
X29548852Y13702144D01*
X29543780Y13676644D01*
X29536171Y13638390D01*
X29511294Y13578334D01*
X29475180Y13524285D01*
X29429215Y13478320D01*
X29375166Y13442206D01*
X29315110Y13417329D01*
X29276856Y13409720D01*
X29251356Y13404648D01*
X29186348Y13404648D01*
X29160848Y13409720D01*
X29122594Y13417329D01*
X29062538Y13442206D01*
X29008489Y13478320D01*
X28962524Y13524285D01*
X28926410Y13578334D01*
X28901533Y13638390D01*
X28893924Y13676644D01*
X28888852Y13702144D01*
X28888852Y13767152D01*
X28899476Y13820563D01*
X28901533Y13830906D01*
X28926410Y13890962D01*
X28962524Y13945011D01*
X29008489Y13990976D01*
X29062538Y14027090D01*
X29122594Y14051967D01*
X29160848Y14059576D01*
X29186348Y14064648D01*
X29251356Y14064648D01*
X29276856Y14059576D01*
X29276856Y14059576D01*
G37*
G36*
X9281307Y14462810D02*
G01*
X9319561Y14455201D01*
X9379617Y14430324D01*
X9433666Y14394210D01*
X9479631Y14348245D01*
X9515745Y14294196D01*
X9540622Y14234140D01*
X9542293Y14225738D01*
X9553303Y14170386D01*
X9553303Y14105378D01*
X9548231Y14079878D01*
X9540622Y14041624D01*
X9515745Y13981568D01*
X9479631Y13927519D01*
X9433666Y13881554D01*
X9379617Y13845440D01*
X9319561Y13820563D01*
X9281307Y13812954D01*
X9255807Y13807882D01*
X9190799Y13807882D01*
X9165299Y13812954D01*
X9127045Y13820563D01*
X9066989Y13845440D01*
X9012940Y13881554D01*
X8966975Y13927519D01*
X8930861Y13981568D01*
X8905984Y14041624D01*
X8898375Y14079878D01*
X8893303Y14105378D01*
X8893303Y14170386D01*
X8904313Y14225738D01*
X8905984Y14234140D01*
X8930861Y14294196D01*
X8966975Y14348245D01*
X9012940Y14394210D01*
X9066989Y14430324D01*
X9127045Y14455201D01*
X9165299Y14462810D01*
X9190799Y14467882D01*
X9255807Y14467882D01*
X9281307Y14462810D01*
X9281307Y14462810D01*
G37*
G36*
X19397104Y14613028D02*
G01*
X19435358Y14605419D01*
X19495414Y14580542D01*
X19549463Y14544428D01*
X19595428Y14498463D01*
X19631542Y14444414D01*
X19656419Y14384358D01*
X19669100Y14320602D01*
X19669100Y14255598D01*
X19656419Y14191842D01*
X19631542Y14131786D01*
X19595428Y14077737D01*
X19549463Y14031772D01*
X19495414Y13995658D01*
X19435358Y13970781D01*
X19397104Y13963172D01*
X19371604Y13958100D01*
X19306596Y13958100D01*
X19281096Y13963172D01*
X19242842Y13970781D01*
X19182786Y13995658D01*
X19128737Y14031772D01*
X19082772Y14077737D01*
X19046658Y14131786D01*
X19021781Y14191842D01*
X19009100Y14255598D01*
X19009100Y14320602D01*
X19021781Y14384358D01*
X19046658Y14444414D01*
X19082772Y14498463D01*
X19128737Y14544428D01*
X19182786Y14580542D01*
X19242842Y14605419D01*
X19281096Y14613028D01*
X19306596Y14618100D01*
X19371604Y14618100D01*
X19397104Y14613028D01*
X19397104Y14613028D01*
G37*
G36*
X7268415Y14719413D02*
G01*
X7306669Y14711804D01*
X7366725Y14686927D01*
X7420774Y14650813D01*
X7466739Y14604848D01*
X7502853Y14550799D01*
X7527730Y14490743D01*
X7529909Y14479786D01*
X7540411Y14426989D01*
X7540411Y14361981D01*
X7536766Y14343658D01*
X7527730Y14298227D01*
X7502853Y14238171D01*
X7466739Y14184122D01*
X7420774Y14138157D01*
X7366725Y14102043D01*
X7306669Y14077166D01*
X7268415Y14069557D01*
X7242915Y14064485D01*
X7177907Y14064485D01*
X7152407Y14069557D01*
X7114153Y14077166D01*
X7054097Y14102043D01*
X7000048Y14138157D01*
X6954083Y14184122D01*
X6917969Y14238171D01*
X6893092Y14298227D01*
X6884056Y14343658D01*
X6880411Y14361981D01*
X6880411Y14426989D01*
X6890913Y14479786D01*
X6893092Y14490743D01*
X6917969Y14550799D01*
X6954083Y14604848D01*
X7000048Y14650813D01*
X7054097Y14686927D01*
X7114153Y14711804D01*
X7152407Y14719413D01*
X7177907Y14724485D01*
X7242915Y14724485D01*
X7268415Y14719413D01*
X7268415Y14719413D01*
G37*
G36*
X5906164Y14761028D02*
G01*
X5944418Y14753419D01*
X6004474Y14728542D01*
X6058523Y14692428D01*
X6104488Y14646463D01*
X6140602Y14592414D01*
X6165479Y14532358D01*
X6178160Y14468602D01*
X6178160Y14403598D01*
X6165479Y14339842D01*
X6140602Y14279786D01*
X6104488Y14225737D01*
X6058523Y14179772D01*
X6004474Y14143658D01*
X5944418Y14118781D01*
X5906164Y14111172D01*
X5880664Y14106100D01*
X5815656Y14106100D01*
X5790156Y14111172D01*
X5751902Y14118781D01*
X5691846Y14143658D01*
X5637797Y14179772D01*
X5591832Y14225737D01*
X5555718Y14279786D01*
X5530841Y14339842D01*
X5518160Y14403598D01*
X5518160Y14468602D01*
X5530841Y14532358D01*
X5555718Y14592414D01*
X5591832Y14646463D01*
X5637797Y14692428D01*
X5691846Y14728542D01*
X5751902Y14753419D01*
X5790156Y14761028D01*
X5815656Y14766100D01*
X5880664Y14766100D01*
X5906164Y14761028D01*
X5906164Y14761028D01*
G37*
G36*
X1306164Y14961028D02*
G01*
X1344418Y14953419D01*
X1404474Y14928542D01*
X1458523Y14892428D01*
X1504488Y14846463D01*
X1540602Y14792414D01*
X1565479Y14732358D01*
X1578160Y14668602D01*
X1578160Y14603598D01*
X1565479Y14539842D01*
X1540602Y14479786D01*
X1504488Y14425737D01*
X1458523Y14379772D01*
X1404474Y14343658D01*
X1344418Y14318781D01*
X1306164Y14311172D01*
X1280664Y14306100D01*
X1215656Y14306100D01*
X1190156Y14311172D01*
X1151902Y14318781D01*
X1091846Y14343658D01*
X1037797Y14379772D01*
X991832Y14425737D01*
X955718Y14479786D01*
X930841Y14539842D01*
X918160Y14603598D01*
X918160Y14668602D01*
X930841Y14732358D01*
X955718Y14792414D01*
X991832Y14846463D01*
X1037797Y14892428D01*
X1091846Y14928542D01*
X1151902Y14953419D01*
X1190156Y14961028D01*
X1215656Y14966100D01*
X1280664Y14966100D01*
X1306164Y14961028D01*
X1306164Y14961028D01*
G37*
G36*
X27600456Y15825028D02*
G01*
X27638710Y15817419D01*
X27698766Y15792542D01*
X27752815Y15756428D01*
X27798780Y15710463D01*
X27834894Y15656414D01*
X27859771Y15596358D01*
X27867380Y15558104D01*
X27868766Y15551137D01*
X27872452Y15532602D01*
X27872452Y15467598D01*
X27859771Y15403842D01*
X27834894Y15343786D01*
X27798780Y15289737D01*
X27752815Y15243772D01*
X27698766Y15207658D01*
X27638710Y15182781D01*
X27600456Y15175172D01*
X27574956Y15170100D01*
X27509948Y15170100D01*
X27484448Y15175172D01*
X27446194Y15182781D01*
X27386138Y15207658D01*
X27332089Y15243772D01*
X27286124Y15289737D01*
X27250010Y15343786D01*
X27225133Y15403842D01*
X27212452Y15467598D01*
X27212452Y15532602D01*
X27216139Y15551137D01*
X27217524Y15558104D01*
X27225133Y15596358D01*
X27250010Y15656414D01*
X27286124Y15710463D01*
X27332089Y15756428D01*
X27386138Y15792542D01*
X27446194Y15817419D01*
X27484448Y15825028D01*
X27509948Y15830100D01*
X27574956Y15830100D01*
X27600456Y15825028D01*
X27600456Y15825028D01*
G37*
G36*
X23676456Y15825028D02*
G01*
X23714710Y15817419D01*
X23774766Y15792542D01*
X23828815Y15756428D01*
X23874780Y15710463D01*
X23910894Y15656414D01*
X23935771Y15596358D01*
X23943380Y15558104D01*
X23944766Y15551137D01*
X23948452Y15532602D01*
X23948452Y15467598D01*
X23935771Y15403842D01*
X23910894Y15343786D01*
X23874780Y15289737D01*
X23828815Y15243772D01*
X23774766Y15207658D01*
X23714710Y15182781D01*
X23676456Y15175172D01*
X23650956Y15170100D01*
X23585948Y15170100D01*
X23560448Y15175172D01*
X23522194Y15182781D01*
X23462138Y15207658D01*
X23408089Y15243772D01*
X23362124Y15289737D01*
X23326010Y15343786D01*
X23301133Y15403842D01*
X23288452Y15467598D01*
X23288452Y15532602D01*
X23292139Y15551137D01*
X23293524Y15558104D01*
X23301133Y15596358D01*
X23326010Y15656414D01*
X23362124Y15710463D01*
X23408089Y15756428D01*
X23462138Y15792542D01*
X23522194Y15817419D01*
X23560448Y15825028D01*
X23585948Y15830100D01*
X23650956Y15830100D01*
X23676456Y15825028D01*
X23676456Y15825028D01*
G37*
G36*
X25638456Y15825028D02*
G01*
X25676710Y15817419D01*
X25736766Y15792542D01*
X25790815Y15756428D01*
X25836780Y15710463D01*
X25872894Y15656414D01*
X25897771Y15596358D01*
X25905380Y15558104D01*
X25906766Y15551137D01*
X25910452Y15532602D01*
X25910452Y15467598D01*
X25897771Y15403842D01*
X25872894Y15343786D01*
X25836780Y15289737D01*
X25790815Y15243772D01*
X25736766Y15207658D01*
X25676710Y15182781D01*
X25638456Y15175172D01*
X25612956Y15170100D01*
X25547948Y15170100D01*
X25522448Y15175172D01*
X25484194Y15182781D01*
X25424138Y15207658D01*
X25370089Y15243772D01*
X25324124Y15289737D01*
X25288010Y15343786D01*
X25263133Y15403842D01*
X25250452Y15467598D01*
X25250452Y15532602D01*
X25254139Y15551137D01*
X25255524Y15558104D01*
X25263133Y15596358D01*
X25288010Y15656414D01*
X25324124Y15710463D01*
X25370089Y15756428D01*
X25424138Y15792542D01*
X25484194Y15817419D01*
X25522448Y15825028D01*
X25547948Y15830100D01*
X25612956Y15830100D01*
X25638456Y15825028D01*
X25638456Y15825028D01*
G37*
G36*
X28894404Y16086428D02*
G01*
X28932658Y16078819D01*
X28992714Y16053942D01*
X29046763Y16017828D01*
X29092728Y15971863D01*
X29128842Y15917814D01*
X29153719Y15857758D01*
X29156607Y15843238D01*
X29166400Y15794004D01*
X29166400Y15728996D01*
X29162713Y15710462D01*
X29153719Y15665242D01*
X29128842Y15605186D01*
X29092728Y15551137D01*
X29046763Y15505172D01*
X28992714Y15469058D01*
X28932658Y15444181D01*
X28894404Y15436572D01*
X28868904Y15431500D01*
X28803896Y15431500D01*
X28778396Y15436572D01*
X28740142Y15444181D01*
X28680086Y15469058D01*
X28626037Y15505172D01*
X28580072Y15551137D01*
X28543958Y15605186D01*
X28519081Y15665242D01*
X28510087Y15710462D01*
X28506400Y15728996D01*
X28506400Y15794004D01*
X28516193Y15843238D01*
X28519081Y15857758D01*
X28543958Y15917814D01*
X28580072Y15971863D01*
X28626037Y16017828D01*
X28680086Y16053942D01*
X28740142Y16078819D01*
X28778396Y16086428D01*
X28803896Y16091500D01*
X28868904Y16091500D01*
X28894404Y16086428D01*
X28894404Y16086428D01*
G37*
G36*
X16294104Y16088028D02*
G01*
X16332358Y16080419D01*
X16392414Y16055542D01*
X16446463Y16019428D01*
X16492428Y15973463D01*
X16528542Y15919414D01*
X16553419Y15859358D01*
X16554516Y15853842D01*
X16566100Y15795604D01*
X16566100Y15730596D01*
X16564708Y15723600D01*
X16553419Y15666842D01*
X16528542Y15606786D01*
X16492428Y15552737D01*
X16446463Y15506772D01*
X16392414Y15470658D01*
X16332358Y15445781D01*
X16294104Y15438172D01*
X16268604Y15433100D01*
X16203596Y15433100D01*
X16178096Y15438172D01*
X16139842Y15445781D01*
X16079786Y15470658D01*
X16025737Y15506772D01*
X15979772Y15552737D01*
X15943658Y15606786D01*
X15918781Y15666842D01*
X15907492Y15723600D01*
X15906100Y15730596D01*
X15906100Y15795604D01*
X15917684Y15853842D01*
X15918781Y15859358D01*
X15943658Y15919414D01*
X15979772Y15973463D01*
X16025737Y16019428D01*
X16079786Y16055542D01*
X16139842Y16080419D01*
X16178096Y16088028D01*
X16203596Y16093100D01*
X16268604Y16093100D01*
X16294104Y16088028D01*
X16294104Y16088028D01*
G37*
G36*
X13020422Y16275028D02*
G01*
X13058676Y16267419D01*
X13118732Y16242542D01*
X13172781Y16206428D01*
X13218746Y16160463D01*
X13254860Y16106414D01*
X13279737Y16046358D01*
X13292418Y15982602D01*
X13292418Y15917598D01*
X13279737Y15853842D01*
X13254860Y15793786D01*
X13218746Y15739737D01*
X13172781Y15693772D01*
X13118732Y15657658D01*
X13058676Y15632781D01*
X13020422Y15625172D01*
X12994922Y15620100D01*
X12929914Y15620100D01*
X12904414Y15625172D01*
X12866160Y15632781D01*
X12806104Y15657658D01*
X12752055Y15693772D01*
X12706090Y15739737D01*
X12669976Y15793786D01*
X12645099Y15853842D01*
X12632418Y15917598D01*
X12632418Y15982602D01*
X12645099Y16046358D01*
X12669976Y16106414D01*
X12706090Y16160463D01*
X12752055Y16206428D01*
X12806104Y16242542D01*
X12866160Y16267419D01*
X12904414Y16275028D01*
X12929914Y16280100D01*
X12994922Y16280100D01*
X13020422Y16275028D01*
X13020422Y16275028D01*
G37*
G36*
X14982422Y16275028D02*
G01*
X15020676Y16267419D01*
X15080732Y16242542D01*
X15134781Y16206428D01*
X15180746Y16160463D01*
X15216860Y16106414D01*
X15241737Y16046358D01*
X15254418Y15982602D01*
X15254418Y15917598D01*
X15241737Y15853842D01*
X15216860Y15793786D01*
X15180746Y15739737D01*
X15134781Y15693772D01*
X15080732Y15657658D01*
X15020676Y15632781D01*
X14982422Y15625172D01*
X14956922Y15620100D01*
X14891914Y15620100D01*
X14866414Y15625172D01*
X14828160Y15632781D01*
X14768104Y15657658D01*
X14714055Y15693772D01*
X14668090Y15739737D01*
X14631976Y15793786D01*
X14607099Y15853842D01*
X14594418Y15917598D01*
X14594418Y15982602D01*
X14607099Y16046358D01*
X14631976Y16106414D01*
X14668090Y16160463D01*
X14714055Y16206428D01*
X14768104Y16242542D01*
X14828160Y16267419D01*
X14866414Y16275028D01*
X14891914Y16280100D01*
X14956922Y16280100D01*
X14982422Y16275028D01*
X14982422Y16275028D01*
G37*
G36*
X21947504Y16378528D02*
G01*
X21985758Y16370919D01*
X22045814Y16346042D01*
X22099863Y16309928D01*
X22145828Y16263963D01*
X22181942Y16209914D01*
X22206819Y16149858D01*
X22211028Y16128696D01*
X22218427Y16091500D01*
X22219500Y16086102D01*
X22219500Y16021098D01*
X22206819Y15957342D01*
X22181942Y15897286D01*
X22145828Y15843237D01*
X22099863Y15797272D01*
X22045814Y15761158D01*
X21985758Y15736281D01*
X21949141Y15728998D01*
X21922004Y15723600D01*
X21856996Y15723600D01*
X21829859Y15728998D01*
X21793242Y15736281D01*
X21733186Y15761158D01*
X21679137Y15797272D01*
X21633172Y15843237D01*
X21597058Y15897286D01*
X21572181Y15957342D01*
X21559500Y16021098D01*
X21559500Y16086102D01*
X21560574Y16091500D01*
X21567972Y16128696D01*
X21572181Y16149858D01*
X21597058Y16209914D01*
X21633172Y16263963D01*
X21679137Y16309928D01*
X21733186Y16346042D01*
X21793242Y16370919D01*
X21831496Y16378528D01*
X21856996Y16383600D01*
X21922004Y16383600D01*
X21947504Y16378528D01*
X21947504Y16378528D01*
G37*
G36*
X10955055Y16783624D02*
G01*
X10993309Y16776015D01*
X11053365Y16751138D01*
X11107414Y16715024D01*
X11153379Y16669059D01*
X11189493Y16615010D01*
X11214370Y16554954D01*
X11221565Y16518781D01*
X11227051Y16491200D01*
X11227051Y16426192D01*
X11224772Y16414737D01*
X11214370Y16362438D01*
X11189493Y16302382D01*
X11153379Y16248333D01*
X11107414Y16202368D01*
X11053365Y16166254D01*
X10993309Y16141377D01*
X10955055Y16133768D01*
X10929555Y16128696D01*
X10864547Y16128696D01*
X10839047Y16133768D01*
X10800793Y16141377D01*
X10740737Y16166254D01*
X10686688Y16202368D01*
X10640723Y16248333D01*
X10604609Y16302382D01*
X10579732Y16362438D01*
X10569330Y16414737D01*
X10567051Y16426192D01*
X10567051Y16491200D01*
X10572537Y16518781D01*
X10579732Y16554954D01*
X10604609Y16615010D01*
X10640723Y16669059D01*
X10686688Y16715024D01*
X10740737Y16751138D01*
X10800793Y16776015D01*
X10839047Y16783624D01*
X10864547Y16788696D01*
X10929555Y16788696D01*
X10955055Y16783624D01*
X10955055Y16783624D01*
G37*
G36*
X19902804Y16950028D02*
G01*
X19941058Y16942419D01*
X20001114Y16917542D01*
X20055163Y16881428D01*
X20101128Y16835463D01*
X20137242Y16781414D01*
X20162119Y16721358D01*
X20169728Y16683104D01*
X20172522Y16669058D01*
X20174800Y16657602D01*
X20174800Y16592598D01*
X20162119Y16528842D01*
X20137242Y16468786D01*
X20101128Y16414737D01*
X20055163Y16368772D01*
X20001114Y16332658D01*
X19941058Y16307781D01*
X19902804Y16300172D01*
X19877304Y16295100D01*
X19812296Y16295100D01*
X19786796Y16300172D01*
X19748542Y16307781D01*
X19688486Y16332658D01*
X19634437Y16368772D01*
X19588472Y16414737D01*
X19552358Y16468786D01*
X19527481Y16528842D01*
X19514800Y16592598D01*
X19514800Y16657602D01*
X19517079Y16669058D01*
X19519872Y16683104D01*
X19527481Y16721358D01*
X19552358Y16781414D01*
X19588472Y16835463D01*
X19634437Y16881428D01*
X19688486Y16917542D01*
X19748542Y16942419D01*
X19786796Y16950028D01*
X19812296Y16955100D01*
X19877304Y16955100D01*
X19902804Y16950028D01*
X19902804Y16950028D01*
G37*
G36*
X1306012Y17161058D02*
G01*
X1344418Y17153419D01*
X1404474Y17128542D01*
X1458523Y17092428D01*
X1504488Y17046463D01*
X1540602Y16992414D01*
X1565479Y16932358D01*
X1568426Y16917542D01*
X1578160Y16868604D01*
X1578160Y16803596D01*
X1575196Y16788696D01*
X1565479Y16739842D01*
X1540602Y16679786D01*
X1504488Y16625737D01*
X1458523Y16579772D01*
X1404474Y16543658D01*
X1344418Y16518781D01*
X1306164Y16511172D01*
X1280664Y16506100D01*
X1215656Y16506100D01*
X1190156Y16511172D01*
X1151902Y16518781D01*
X1091846Y16543658D01*
X1037797Y16579772D01*
X991832Y16625737D01*
X955718Y16679786D01*
X930841Y16739842D01*
X921124Y16788696D01*
X918160Y16803596D01*
X918160Y16868604D01*
X927894Y16917542D01*
X930841Y16932358D01*
X955718Y16992414D01*
X991832Y17046463D01*
X1037797Y17092428D01*
X1091846Y17128542D01*
X1151902Y17153419D01*
X1190308Y17161058D01*
X1215656Y17166100D01*
X1280664Y17166100D01*
X1306012Y17161058D01*
X1306012Y17161058D01*
G37*
G36*
X8889383Y17298603D02*
G01*
X8927637Y17290994D01*
X8987693Y17266117D01*
X9041742Y17230003D01*
X9087707Y17184038D01*
X9123821Y17129989D01*
X9148698Y17069933D01*
X9153366Y17046463D01*
X9161379Y17006179D01*
X9161379Y16941171D01*
X9159626Y16932358D01*
X9148698Y16877417D01*
X9123821Y16817361D01*
X9087707Y16763312D01*
X9041742Y16717347D01*
X8987693Y16681233D01*
X8927637Y16656356D01*
X8889383Y16648747D01*
X8863883Y16643675D01*
X8798875Y16643675D01*
X8773375Y16648747D01*
X8735121Y16656356D01*
X8675065Y16681233D01*
X8621016Y16717347D01*
X8575051Y16763312D01*
X8538937Y16817361D01*
X8514060Y16877417D01*
X8503132Y16932358D01*
X8501379Y16941171D01*
X8501379Y17006179D01*
X8509392Y17046463D01*
X8514060Y17069933D01*
X8538937Y17129989D01*
X8575051Y17184038D01*
X8621016Y17230003D01*
X8675065Y17266117D01*
X8735121Y17290994D01*
X8773375Y17298603D01*
X8798875Y17303675D01*
X8863883Y17303675D01*
X8889383Y17298603D01*
X8889383Y17298603D01*
G37*
G36*
X17408204Y17331028D02*
G01*
X17446458Y17323419D01*
X17506514Y17298542D01*
X17560563Y17262428D01*
X17606528Y17216463D01*
X17642642Y17162414D01*
X17667519Y17102358D01*
X17669494Y17092428D01*
X17680200Y17038604D01*
X17680200Y16973596D01*
X17676521Y16955100D01*
X17667519Y16909842D01*
X17642642Y16849786D01*
X17606528Y16795737D01*
X17560563Y16749772D01*
X17506514Y16713658D01*
X17446458Y16688781D01*
X17408509Y16681233D01*
X17382704Y16676100D01*
X17317696Y16676100D01*
X17291891Y16681233D01*
X17253942Y16688781D01*
X17193886Y16713658D01*
X17139837Y16749772D01*
X17093872Y16795737D01*
X17057758Y16849786D01*
X17032881Y16909842D01*
X17023879Y16955100D01*
X17020200Y16973596D01*
X17020200Y17038604D01*
X17030906Y17092428D01*
X17032881Y17102358D01*
X17057758Y17162414D01*
X17093872Y17216463D01*
X17139837Y17262428D01*
X17193886Y17298542D01*
X17253942Y17323419D01*
X17292196Y17331028D01*
X17317696Y17336100D01*
X17382704Y17336100D01*
X17408204Y17331028D01*
X17408204Y17331028D01*
G37*
G36*
X18186004Y17331028D02*
G01*
X18224258Y17323419D01*
X18284314Y17298542D01*
X18338363Y17262428D01*
X18384328Y17216463D01*
X18420442Y17162414D01*
X18445319Y17102358D01*
X18447294Y17092428D01*
X18458000Y17038604D01*
X18458000Y16973596D01*
X18454321Y16955100D01*
X18445319Y16909842D01*
X18420442Y16849786D01*
X18384328Y16795737D01*
X18338363Y16749772D01*
X18284314Y16713658D01*
X18224258Y16688781D01*
X18186309Y16681233D01*
X18160504Y16676100D01*
X18095496Y16676100D01*
X18069691Y16681233D01*
X18031742Y16688781D01*
X17971686Y16713658D01*
X17917637Y16749772D01*
X17871672Y16795737D01*
X17835558Y16849786D01*
X17810681Y16909842D01*
X17801679Y16955100D01*
X17798000Y16973596D01*
X17798000Y17038604D01*
X17808706Y17092428D01*
X17810681Y17102358D01*
X17835558Y17162414D01*
X17871672Y17216463D01*
X17917637Y17262428D01*
X17971686Y17298542D01*
X18031742Y17323419D01*
X18069996Y17331028D01*
X18095496Y17336100D01*
X18160504Y17336100D01*
X18186004Y17331028D01*
X18186004Y17331028D01*
G37*
G36*
X5906164Y17361028D02*
G01*
X5944418Y17353419D01*
X6004474Y17328542D01*
X6058523Y17292428D01*
X6104488Y17246463D01*
X6140602Y17192414D01*
X6165479Y17132358D01*
X6172451Y17097304D01*
X6177896Y17069933D01*
X6178160Y17068602D01*
X6178160Y17003598D01*
X6165479Y16939842D01*
X6140602Y16879786D01*
X6104488Y16825737D01*
X6058523Y16779772D01*
X6004474Y16743658D01*
X5944418Y16718781D01*
X5906164Y16711172D01*
X5880664Y16706100D01*
X5815656Y16706100D01*
X5790156Y16711172D01*
X5751902Y16718781D01*
X5691846Y16743658D01*
X5637797Y16779772D01*
X5591832Y16825737D01*
X5555718Y16879786D01*
X5530841Y16939842D01*
X5518160Y17003598D01*
X5518160Y17068602D01*
X5518425Y17069933D01*
X5523869Y17097304D01*
X5530841Y17132358D01*
X5555718Y17192414D01*
X5591832Y17246463D01*
X5637797Y17292428D01*
X5691846Y17328542D01*
X5751902Y17353419D01*
X5790156Y17361028D01*
X5815656Y17366100D01*
X5880664Y17366100D01*
X5906164Y17361028D01*
X5906164Y17361028D01*
G37*
G36*
X6927383Y17389728D02*
G01*
X6965637Y17382119D01*
X7025693Y17357242D01*
X7079742Y17321128D01*
X7125707Y17275163D01*
X7161821Y17221114D01*
X7186698Y17161058D01*
X7193165Y17128542D01*
X7198374Y17102358D01*
X7199379Y17097302D01*
X7199379Y17032298D01*
X7186698Y16968542D01*
X7161821Y16908486D01*
X7125707Y16854437D01*
X7079742Y16808472D01*
X7025693Y16772358D01*
X6965637Y16747481D01*
X6927383Y16739872D01*
X6901883Y16734800D01*
X6836875Y16734800D01*
X6811375Y16739872D01*
X6773121Y16747481D01*
X6713065Y16772358D01*
X6659016Y16808472D01*
X6613051Y16854437D01*
X6576937Y16908486D01*
X6552060Y16968542D01*
X6539379Y17032298D01*
X6539379Y17097302D01*
X6540385Y17102358D01*
X6545593Y17128542D01*
X6552060Y17161058D01*
X6576937Y17221114D01*
X6613051Y17275163D01*
X6659016Y17321128D01*
X6713065Y17357242D01*
X6773121Y17382119D01*
X6811375Y17389728D01*
X6836875Y17394800D01*
X6901883Y17394800D01*
X6927383Y17389728D01*
X6927383Y17389728D01*
G37*
G36*
X26252804Y17389728D02*
G01*
X26291058Y17382119D01*
X26351114Y17357242D01*
X26405163Y17321128D01*
X26451128Y17275163D01*
X26487242Y17221114D01*
X26512119Y17161058D01*
X26518586Y17128542D01*
X26523795Y17102358D01*
X26524800Y17097302D01*
X26524800Y17032298D01*
X26512119Y16968542D01*
X26487242Y16908486D01*
X26451128Y16854437D01*
X26405163Y16808472D01*
X26351114Y16772358D01*
X26291058Y16747481D01*
X26252804Y16739872D01*
X26227304Y16734800D01*
X26162296Y16734800D01*
X26136796Y16739872D01*
X26098542Y16747481D01*
X26038486Y16772358D01*
X25984437Y16808472D01*
X25938472Y16854437D01*
X25902358Y16908486D01*
X25877481Y16968542D01*
X25864800Y17032298D01*
X25864800Y17097302D01*
X25865806Y17102358D01*
X25871014Y17128542D01*
X25877481Y17161058D01*
X25902358Y17221114D01*
X25938472Y17275163D01*
X25984437Y17321128D01*
X26038486Y17357242D01*
X26098542Y17382119D01*
X26136796Y17389728D01*
X26162296Y17394800D01*
X26227304Y17394800D01*
X26252804Y17389728D01*
X26252804Y17389728D01*
G37*
G36*
X28043504Y17839028D02*
G01*
X28081758Y17831419D01*
X28141814Y17806542D01*
X28195863Y17770428D01*
X28241828Y17724463D01*
X28277942Y17670414D01*
X28302819Y17610358D01*
X28315500Y17546602D01*
X28315500Y17481598D01*
X28302819Y17417842D01*
X28277942Y17357786D01*
X28241828Y17303737D01*
X28195863Y17257772D01*
X28141814Y17221658D01*
X28081758Y17196781D01*
X28043504Y17189172D01*
X28018004Y17184100D01*
X27952996Y17184100D01*
X27927496Y17189172D01*
X27889242Y17196781D01*
X27829186Y17221658D01*
X27775137Y17257772D01*
X27729172Y17303737D01*
X27693058Y17357786D01*
X27668181Y17417842D01*
X27655500Y17481598D01*
X27655500Y17546602D01*
X27668181Y17610358D01*
X27693058Y17670414D01*
X27729172Y17724463D01*
X27775137Y17770428D01*
X27829186Y17806542D01*
X27889242Y17831419D01*
X27927496Y17839028D01*
X27952996Y17844100D01*
X28018004Y17844100D01*
X28043504Y17839028D01*
X28043504Y17839028D01*
G37*
G36*
X19616064Y17839028D02*
G01*
X19654318Y17831419D01*
X19714374Y17806542D01*
X19768423Y17770428D01*
X19814388Y17724463D01*
X19850502Y17670414D01*
X19875379Y17610358D01*
X19888060Y17546602D01*
X19888060Y17481598D01*
X19875379Y17417842D01*
X19850502Y17357786D01*
X19814388Y17303737D01*
X19768423Y17257772D01*
X19714374Y17221658D01*
X19654318Y17196781D01*
X19616064Y17189172D01*
X19590564Y17184100D01*
X19525556Y17184100D01*
X19500056Y17189172D01*
X19461802Y17196781D01*
X19401746Y17221658D01*
X19347697Y17257772D01*
X19301732Y17303737D01*
X19265618Y17357786D01*
X19240741Y17417842D01*
X19228060Y17481598D01*
X19228060Y17546602D01*
X19240741Y17610358D01*
X19265618Y17670414D01*
X19301732Y17724463D01*
X19347697Y17770428D01*
X19401746Y17806542D01*
X19461802Y17831419D01*
X19500056Y17839028D01*
X19525556Y17844100D01*
X19590564Y17844100D01*
X19616064Y17839028D01*
X19616064Y17839028D01*
G37*
G36*
X18838264Y17839028D02*
G01*
X18876518Y17831419D01*
X18936574Y17806542D01*
X18990623Y17770428D01*
X19036588Y17724463D01*
X19072702Y17670414D01*
X19097579Y17610358D01*
X19110260Y17546602D01*
X19110260Y17481598D01*
X19097579Y17417842D01*
X19072702Y17357786D01*
X19036588Y17303737D01*
X18990623Y17257772D01*
X18936574Y17221658D01*
X18876518Y17196781D01*
X18838264Y17189172D01*
X18812764Y17184100D01*
X18747756Y17184100D01*
X18722256Y17189172D01*
X18684002Y17196781D01*
X18623946Y17221658D01*
X18569897Y17257772D01*
X18523932Y17303737D01*
X18487818Y17357786D01*
X18462941Y17417842D01*
X18450260Y17481598D01*
X18450260Y17546602D01*
X18462941Y17610358D01*
X18487818Y17670414D01*
X18523932Y17724463D01*
X18569897Y17770428D01*
X18623946Y17806542D01*
X18684002Y17831419D01*
X18722256Y17839028D01*
X18747756Y17844100D01*
X18812764Y17844100D01*
X18838264Y17839028D01*
X18838264Y17839028D01*
G37*
G36*
X30774004Y18829628D02*
G01*
X30812258Y18822019D01*
X30872314Y18797142D01*
X30926363Y18761028D01*
X30972328Y18715063D01*
X31008442Y18661014D01*
X31033319Y18600958D01*
X31040928Y18562704D01*
X31045357Y18540438D01*
X31046000Y18537202D01*
X31046000Y18472198D01*
X31033319Y18408442D01*
X31008442Y18348386D01*
X30972328Y18294337D01*
X30926363Y18248372D01*
X30897362Y18228994D01*
X30892067Y18224648D01*
X30887714Y18219344D01*
X30884480Y18213293D01*
X30882488Y18206728D01*
X30881816Y18199900D01*
X30882489Y18193072D01*
X30884480Y18186506D01*
X30887714Y18180455D01*
X30892067Y18175152D01*
X30897362Y18170806D01*
X30926363Y18151428D01*
X30972328Y18105463D01*
X31008442Y18051414D01*
X31033319Y17991358D01*
X31040928Y17953104D01*
X31043566Y17939842D01*
X31046000Y17927602D01*
X31046000Y17862598D01*
X31033319Y17798842D01*
X31008442Y17738786D01*
X30972328Y17684737D01*
X30926363Y17638772D01*
X30872314Y17602658D01*
X30812258Y17577781D01*
X30774004Y17570172D01*
X30748504Y17565100D01*
X30683496Y17565100D01*
X30657996Y17570172D01*
X30619742Y17577781D01*
X30559686Y17602658D01*
X30505637Y17638772D01*
X30459672Y17684737D01*
X30423558Y17738786D01*
X30398681Y17798842D01*
X30386000Y17862598D01*
X30386000Y17927602D01*
X30388435Y17939842D01*
X30391072Y17953104D01*
X30398681Y17991358D01*
X30423558Y18051414D01*
X30459672Y18105463D01*
X30505637Y18151428D01*
X30534638Y18170806D01*
X30539933Y18175152D01*
X30544286Y18180456D01*
X30547520Y18186507D01*
X30549512Y18193072D01*
X30550184Y18199900D01*
X30549511Y18206728D01*
X30547520Y18213294D01*
X30544286Y18219345D01*
X30539933Y18224648D01*
X30534638Y18228994D01*
X30505637Y18248372D01*
X30459672Y18294337D01*
X30423558Y18348386D01*
X30398681Y18408442D01*
X30386000Y18472198D01*
X30386000Y18537202D01*
X30386644Y18540438D01*
X30391072Y18562704D01*
X30398681Y18600958D01*
X30423558Y18661014D01*
X30459672Y18715063D01*
X30505637Y18761028D01*
X30559686Y18797142D01*
X30619742Y18822019D01*
X30657996Y18829628D01*
X30683496Y18834700D01*
X30748504Y18834700D01*
X30774004Y18829628D01*
X30774004Y18829628D01*
G37*
G36*
X2516164Y18361028D02*
G01*
X2554418Y18353419D01*
X2614474Y18328542D01*
X2668523Y18292428D01*
X2714488Y18246463D01*
X2750602Y18192414D01*
X2775479Y18132358D01*
X2783088Y18094104D01*
X2788160Y18068604D01*
X2788160Y18003596D01*
X2785725Y17991355D01*
X2775479Y17939842D01*
X2750602Y17879786D01*
X2714488Y17825737D01*
X2668523Y17779772D01*
X2614474Y17743658D01*
X2554418Y17718781D01*
X2516164Y17711172D01*
X2490664Y17706100D01*
X2425656Y17706100D01*
X2400156Y17711172D01*
X2361902Y17718781D01*
X2301846Y17743658D01*
X2247797Y17779772D01*
X2201832Y17825737D01*
X2165718Y17879786D01*
X2140841Y17939842D01*
X2130595Y17991355D01*
X2128160Y18003596D01*
X2128160Y18068604D01*
X2133232Y18094104D01*
X2140841Y18132358D01*
X2165718Y18192414D01*
X2201832Y18246463D01*
X2247797Y18292428D01*
X2301846Y18328542D01*
X2361902Y18353419D01*
X2400156Y18361028D01*
X2425656Y18366100D01*
X2490664Y18366100D01*
X2516164Y18361028D01*
X2516164Y18361028D01*
G37*
G36*
X4686164Y18361028D02*
G01*
X4724418Y18353419D01*
X4784474Y18328542D01*
X4838523Y18292428D01*
X4884488Y18246463D01*
X4920602Y18192414D01*
X4945479Y18132358D01*
X4953088Y18094104D01*
X4958160Y18068604D01*
X4958160Y18003596D01*
X4955725Y17991355D01*
X4945479Y17939842D01*
X4920602Y17879786D01*
X4884488Y17825737D01*
X4838523Y17779772D01*
X4784474Y17743658D01*
X4724418Y17718781D01*
X4686164Y17711172D01*
X4660664Y17706100D01*
X4595656Y17706100D01*
X4570156Y17711172D01*
X4531902Y17718781D01*
X4471846Y17743658D01*
X4417797Y17779772D01*
X4371832Y17825737D01*
X4335718Y17879786D01*
X4310841Y17939842D01*
X4300595Y17991355D01*
X4298160Y18003596D01*
X4298160Y18068604D01*
X4303232Y18094104D01*
X4310841Y18132358D01*
X4335718Y18192414D01*
X4371832Y18246463D01*
X4417797Y18292428D01*
X4471846Y18328542D01*
X4531902Y18353419D01*
X4570156Y18361028D01*
X4595656Y18366100D01*
X4660664Y18366100D01*
X4686164Y18361028D01*
X4686164Y18361028D01*
G37*
G36*
X24783804Y19698028D02*
G01*
X24822058Y19690419D01*
X24882114Y19665542D01*
X24936163Y19629428D01*
X24982128Y19583463D01*
X25018242Y19529414D01*
X25043119Y19469358D01*
X25055800Y19405602D01*
X25055800Y19340598D01*
X25043119Y19276842D01*
X25018242Y19216786D01*
X24982128Y19162737D01*
X24936163Y19116772D01*
X24916940Y19103928D01*
X24897667Y19091050D01*
X24892364Y19086698D01*
X24888011Y19081394D01*
X24884777Y19075343D01*
X24882785Y19068778D01*
X24882113Y19061950D01*
X24882786Y19055122D01*
X24884777Y19048556D01*
X24888012Y19042505D01*
X24892364Y19037202D01*
X24897667Y19032850D01*
X24936163Y19007128D01*
X24982128Y18961163D01*
X25018242Y18907114D01*
X25043119Y18847058D01*
X25045577Y18834700D01*
X25055800Y18783304D01*
X25055800Y18718296D01*
X25050728Y18692796D01*
X25043119Y18654542D01*
X25018242Y18594486D01*
X24982128Y18540437D01*
X24936163Y18494472D01*
X24882114Y18458358D01*
X24822058Y18433481D01*
X24783804Y18425872D01*
X24758304Y18420800D01*
X24693296Y18420800D01*
X24667796Y18425872D01*
X24629542Y18433481D01*
X24569486Y18458358D01*
X24515437Y18494472D01*
X24469472Y18540437D01*
X24433358Y18594486D01*
X24408481Y18654542D01*
X24400872Y18692796D01*
X24395800Y18718296D01*
X24395800Y18783304D01*
X24406023Y18834700D01*
X24408481Y18847058D01*
X24433358Y18907114D01*
X24469472Y18961163D01*
X24515437Y19007128D01*
X24553933Y19032850D01*
X24559236Y19037202D01*
X24563589Y19042506D01*
X24566823Y19048557D01*
X24568815Y19055122D01*
X24569487Y19061950D01*
X24568814Y19068778D01*
X24566823Y19075344D01*
X24563588Y19081395D01*
X24559236Y19086698D01*
X24553933Y19091050D01*
X24534660Y19103928D01*
X24515437Y19116772D01*
X24469472Y19162737D01*
X24433358Y19216786D01*
X24408481Y19276842D01*
X24395800Y19340598D01*
X24395800Y19405602D01*
X24408481Y19469358D01*
X24433358Y19529414D01*
X24469472Y19583463D01*
X24515437Y19629428D01*
X24569486Y19665542D01*
X24629542Y19690419D01*
X24667796Y19698028D01*
X24693296Y19703100D01*
X24758304Y19703100D01*
X24783804Y19698028D01*
X24783804Y19698028D01*
G37*
G36*
X16169004Y19172528D02*
G01*
X16207258Y19164919D01*
X16267314Y19140042D01*
X16321363Y19103928D01*
X16367328Y19057963D01*
X16403442Y19003914D01*
X16428319Y18943858D01*
X16441000Y18880102D01*
X16441000Y18815098D01*
X16428319Y18751342D01*
X16403442Y18691286D01*
X16367328Y18637237D01*
X16321363Y18591272D01*
X16267314Y18555158D01*
X16207258Y18530281D01*
X16169004Y18522672D01*
X16143504Y18517600D01*
X16078496Y18517600D01*
X16052996Y18522672D01*
X16014742Y18530281D01*
X15954686Y18555158D01*
X15900637Y18591272D01*
X15854672Y18637237D01*
X15818558Y18691286D01*
X15793681Y18751342D01*
X15781000Y18815098D01*
X15781000Y18880102D01*
X15793681Y18943858D01*
X15818558Y19003914D01*
X15854672Y19057963D01*
X15900637Y19103928D01*
X15954686Y19140042D01*
X16014742Y19164919D01*
X16052996Y19172528D01*
X16078496Y19177600D01*
X16143504Y19177600D01*
X16169004Y19172528D01*
X16169004Y19172528D01*
G37*
G36*
X26815804Y20040928D02*
G01*
X26854058Y20033319D01*
X26914114Y20008442D01*
X26968163Y19972328D01*
X27014128Y19926363D01*
X27050242Y19872314D01*
X27075119Y19812258D01*
X27087800Y19748502D01*
X27087800Y19683498D01*
X27075119Y19619742D01*
X27050242Y19559686D01*
X27014128Y19505637D01*
X26968163Y19459672D01*
X26914114Y19423558D01*
X26854058Y19398681D01*
X26815804Y19391072D01*
X26790304Y19386000D01*
X26725296Y19386000D01*
X26699796Y19391072D01*
X26661542Y19398681D01*
X26601486Y19423558D01*
X26547437Y19459672D01*
X26501472Y19505637D01*
X26465358Y19559686D01*
X26440481Y19619742D01*
X26427800Y19683498D01*
X26427800Y19748502D01*
X26440481Y19812258D01*
X26465358Y19872314D01*
X26501472Y19926363D01*
X26547437Y19972328D01*
X26601486Y20008442D01*
X26661542Y20033319D01*
X26699796Y20040928D01*
X26725296Y20046000D01*
X26790304Y20046000D01*
X26815804Y20040928D01*
X26815804Y20040928D01*
G37*
G36*
X19181404Y20701328D02*
G01*
X19219658Y20693719D01*
X19279714Y20668842D01*
X19333763Y20632728D01*
X19379728Y20586763D01*
X19415842Y20532714D01*
X19440719Y20472658D01*
X19453400Y20408902D01*
X19453400Y20343898D01*
X19440719Y20280142D01*
X19415842Y20220086D01*
X19379728Y20166037D01*
X19333763Y20120072D01*
X19279714Y20083958D01*
X19219658Y20059081D01*
X19181404Y20051472D01*
X19155904Y20046400D01*
X19090896Y20046400D01*
X19065396Y20051472D01*
X19027142Y20059081D01*
X18967086Y20083958D01*
X18913037Y20120072D01*
X18867072Y20166037D01*
X18830958Y20220086D01*
X18806081Y20280142D01*
X18793400Y20343898D01*
X18793400Y20408902D01*
X18806081Y20472658D01*
X18830958Y20532714D01*
X18867072Y20586763D01*
X18913037Y20632728D01*
X18967086Y20668842D01*
X19027142Y20693719D01*
X19065396Y20701328D01*
X19090896Y20706400D01*
X19155904Y20706400D01*
X19181404Y20701328D01*
X19181404Y20701328D01*
G37*
G36*
X30625804Y20955328D02*
G01*
X30664058Y20947719D01*
X30724114Y20922842D01*
X30778163Y20886728D01*
X30824128Y20840763D01*
X30860242Y20786714D01*
X30885119Y20726658D01*
X30897800Y20662902D01*
X30897800Y20597898D01*
X30885119Y20534142D01*
X30860242Y20474086D01*
X30824128Y20420037D01*
X30778163Y20374072D01*
X30724114Y20337958D01*
X30664058Y20313081D01*
X30625804Y20305472D01*
X30600304Y20300400D01*
X30535296Y20300400D01*
X30509796Y20305472D01*
X30471542Y20313081D01*
X30411486Y20337958D01*
X30357437Y20374072D01*
X30311472Y20420037D01*
X30275358Y20474086D01*
X30250481Y20534142D01*
X30237800Y20597898D01*
X30237800Y20662902D01*
X30250481Y20726658D01*
X30275358Y20786714D01*
X30311472Y20840763D01*
X30357437Y20886728D01*
X30411486Y20922842D01*
X30471542Y20947719D01*
X30509796Y20955328D01*
X30535296Y20960400D01*
X30600304Y20960400D01*
X30625804Y20955328D01*
X30625804Y20955328D01*
G37*
G36*
X19242404Y22199928D02*
G01*
X19280658Y22192319D01*
X19340714Y22167442D01*
X19394763Y22131328D01*
X19440728Y22085363D01*
X19476842Y22031314D01*
X19501719Y21971258D01*
X19514400Y21907502D01*
X19514400Y21842498D01*
X19501719Y21778742D01*
X19476842Y21718686D01*
X19440728Y21664637D01*
X19394763Y21618672D01*
X19340714Y21582558D01*
X19280658Y21557681D01*
X19255793Y21552735D01*
X19221049Y21545824D01*
X19214483Y21543833D01*
X19208432Y21540598D01*
X19203129Y21536246D01*
X19198776Y21530942D01*
X19195542Y21524891D01*
X19193550Y21518326D01*
X19192878Y21511498D01*
X19193551Y21504670D01*
X19195542Y21498104D01*
X19198777Y21492053D01*
X19203129Y21486750D01*
X19208433Y21482397D01*
X19214484Y21479163D01*
X19221038Y21477174D01*
X19280658Y21465316D01*
X19340714Y21440439D01*
X19394763Y21404325D01*
X19440728Y21358360D01*
X19476842Y21304311D01*
X19501719Y21244255D01*
X19514400Y21180499D01*
X19514400Y21115495D01*
X19501719Y21051739D01*
X19476842Y20991683D01*
X19440728Y20937634D01*
X19394763Y20891669D01*
X19340714Y20855555D01*
X19280658Y20830678D01*
X19242404Y20823069D01*
X19216904Y20817997D01*
X19151896Y20817997D01*
X19126396Y20823069D01*
X19088142Y20830678D01*
X19028086Y20855555D01*
X18974037Y20891669D01*
X18928072Y20937634D01*
X18891958Y20991683D01*
X18867081Y21051739D01*
X18854400Y21115495D01*
X18854400Y21180499D01*
X18867081Y21244255D01*
X18891958Y21304311D01*
X18928072Y21358360D01*
X18974037Y21404325D01*
X19028086Y21440439D01*
X19088142Y21465316D01*
X19147762Y21477174D01*
X19154316Y21479163D01*
X19160367Y21482397D01*
X19165671Y21486750D01*
X19170024Y21492053D01*
X19173258Y21498104D01*
X19175249Y21504670D01*
X19175922Y21511498D01*
X19175250Y21518326D01*
X19173258Y21524891D01*
X19170024Y21530942D01*
X19165671Y21536246D01*
X19160368Y21540599D01*
X19154317Y21543833D01*
X19147751Y21545824D01*
X19113007Y21552735D01*
X19088142Y21557681D01*
X19028086Y21582558D01*
X18974037Y21618672D01*
X18928072Y21664637D01*
X18891958Y21718686D01*
X18867081Y21778742D01*
X18854400Y21842498D01*
X18854400Y21907502D01*
X18867081Y21971258D01*
X18891958Y22031314D01*
X18928072Y22085363D01*
X18974037Y22131328D01*
X19028086Y22167442D01*
X19088142Y22192319D01*
X19126396Y22199928D01*
X19151896Y22205000D01*
X19216904Y22205000D01*
X19242404Y22199928D01*
X19242404Y22199928D01*
G37*
G36*
X16042004Y22093528D02*
G01*
X16080258Y22085919D01*
X16140314Y22061042D01*
X16194363Y22024928D01*
X16240328Y21978963D01*
X16276442Y21924914D01*
X16301319Y21864858D01*
X16314000Y21801102D01*
X16314000Y21736098D01*
X16301319Y21672342D01*
X16276442Y21612286D01*
X16240328Y21558237D01*
X16194363Y21512272D01*
X16140314Y21476158D01*
X16080258Y21451281D01*
X16042004Y21443672D01*
X16016504Y21438600D01*
X15951496Y21438600D01*
X15925996Y21443672D01*
X15887742Y21451281D01*
X15827686Y21476158D01*
X15773637Y21512272D01*
X15727672Y21558237D01*
X15691558Y21612286D01*
X15666681Y21672342D01*
X15654000Y21736098D01*
X15654000Y21801102D01*
X15666681Y21864858D01*
X15691558Y21924914D01*
X15727672Y21978963D01*
X15773637Y22024928D01*
X15827686Y22061042D01*
X15887742Y22085919D01*
X15925996Y22093528D01*
X15951496Y22098600D01*
X16016504Y22098600D01*
X16042004Y22093528D01*
X16042004Y22093528D01*
G37*
G36*
X25342604Y22885728D02*
G01*
X25380858Y22878119D01*
X25440914Y22853242D01*
X25494963Y22817128D01*
X25540928Y22771163D01*
X25577042Y22717114D01*
X25601919Y22657058D01*
X25614600Y22593302D01*
X25614600Y22528298D01*
X25601919Y22464542D01*
X25577042Y22404486D01*
X25540928Y22350437D01*
X25494963Y22304472D01*
X25440914Y22268358D01*
X25380858Y22243481D01*
X25342604Y22235872D01*
X25317104Y22230800D01*
X25252096Y22230800D01*
X25226596Y22235872D01*
X25188342Y22243481D01*
X25128286Y22268358D01*
X25074237Y22304472D01*
X25028272Y22350437D01*
X24992158Y22404486D01*
X24967281Y22464542D01*
X24954600Y22528298D01*
X24954600Y22593302D01*
X24967281Y22657058D01*
X24992158Y22717114D01*
X25028272Y22771163D01*
X25074237Y22817128D01*
X25128286Y22853242D01*
X25188342Y22878119D01*
X25226596Y22885728D01*
X25252096Y22890800D01*
X25317104Y22890800D01*
X25342604Y22885728D01*
X25342604Y22885728D01*
G37*
G36*
X19805404Y23647728D02*
G01*
X19843658Y23640119D01*
X19903714Y23615242D01*
X19957763Y23579128D01*
X20003728Y23533163D01*
X20039842Y23479114D01*
X20064719Y23419058D01*
X20077400Y23355302D01*
X20077400Y23290298D01*
X20064719Y23226542D01*
X20039842Y23166486D01*
X20003728Y23112437D01*
X19957763Y23066472D01*
X19903714Y23030358D01*
X19843658Y23005481D01*
X19805404Y22997872D01*
X19779904Y22992800D01*
X19714896Y22992800D01*
X19689396Y22997872D01*
X19651142Y23005481D01*
X19591086Y23030358D01*
X19537037Y23066472D01*
X19491072Y23112437D01*
X19454958Y23166486D01*
X19430081Y23226542D01*
X19417400Y23290298D01*
X19417400Y23355302D01*
X19430081Y23419058D01*
X19454958Y23479114D01*
X19491072Y23533163D01*
X19537037Y23579128D01*
X19591086Y23615242D01*
X19651142Y23640119D01*
X19689396Y23647728D01*
X19714896Y23652800D01*
X19779904Y23652800D01*
X19805404Y23647728D01*
X19805404Y23647728D01*
G37*
G36*
X27425404Y23749328D02*
G01*
X27463658Y23741719D01*
X27523714Y23716842D01*
X27577763Y23680728D01*
X27623728Y23634763D01*
X27659842Y23580714D01*
X27684719Y23520658D01*
X27697400Y23456902D01*
X27697400Y23391898D01*
X27684719Y23328142D01*
X27659842Y23268086D01*
X27623728Y23214037D01*
X27577763Y23168072D01*
X27523714Y23131958D01*
X27463658Y23107081D01*
X27425404Y23099472D01*
X27399904Y23094400D01*
X27334896Y23094400D01*
X27309396Y23099472D01*
X27271142Y23107081D01*
X27211086Y23131958D01*
X27157037Y23168072D01*
X27111072Y23214037D01*
X27074958Y23268086D01*
X27050081Y23328142D01*
X27037400Y23391898D01*
X27037400Y23456902D01*
X27050081Y23520658D01*
X27074958Y23580714D01*
X27111072Y23634763D01*
X27157037Y23680728D01*
X27211086Y23716842D01*
X27271142Y23741719D01*
X27309396Y23749328D01*
X27334896Y23754400D01*
X27399904Y23754400D01*
X27425404Y23749328D01*
X27425404Y23749328D01*
G37*
G36*
X21934804Y24570028D02*
G01*
X21973058Y24562419D01*
X22033114Y24537542D01*
X22087163Y24501428D01*
X22133128Y24455463D01*
X22169242Y24401414D01*
X22194119Y24341358D01*
X22201728Y24303104D01*
X22204709Y24288118D01*
X22206800Y24277602D01*
X22206800Y24212598D01*
X22194119Y24148842D01*
X22169242Y24088786D01*
X22133128Y24034737D01*
X22087163Y23988772D01*
X22033114Y23952658D01*
X21973058Y23927781D01*
X21934804Y23920172D01*
X21909304Y23915100D01*
X21844296Y23915100D01*
X21818796Y23920172D01*
X21780542Y23927781D01*
X21720486Y23952658D01*
X21666437Y23988772D01*
X21620472Y24034737D01*
X21584358Y24088786D01*
X21559481Y24148842D01*
X21546800Y24212598D01*
X21546800Y24277602D01*
X21548892Y24288118D01*
X21551872Y24303104D01*
X21559481Y24341358D01*
X21584358Y24401414D01*
X21620472Y24455463D01*
X21666437Y24501428D01*
X21720486Y24537542D01*
X21780542Y24562419D01*
X21818796Y24570028D01*
X21844296Y24575100D01*
X21909304Y24575100D01*
X21934804Y24570028D01*
X21934804Y24570028D01*
G37*
G36*
X11406504Y24760528D02*
G01*
X11444758Y24752919D01*
X11504814Y24728042D01*
X11558863Y24691928D01*
X11604828Y24645963D01*
X11624211Y24616954D01*
X11636900Y24597964D01*
X11641252Y24592661D01*
X11646556Y24588308D01*
X11652607Y24585074D01*
X11659172Y24583082D01*
X11666000Y24582410D01*
X11672828Y24583083D01*
X11679394Y24585074D01*
X11685445Y24588309D01*
X11690748Y24592661D01*
X11695100Y24597964D01*
X11707789Y24616954D01*
X11727172Y24645963D01*
X11773137Y24691928D01*
X11827186Y24728042D01*
X11887242Y24752919D01*
X11925496Y24760528D01*
X11950996Y24765600D01*
X12016004Y24765600D01*
X12041504Y24760528D01*
X12079758Y24752919D01*
X12139814Y24728042D01*
X12193863Y24691928D01*
X12239828Y24645963D01*
X12275942Y24591914D01*
X12300819Y24531858D01*
X12313500Y24468102D01*
X12313500Y24403098D01*
X12300819Y24339342D01*
X12275942Y24279286D01*
X12239828Y24225237D01*
X12193863Y24179272D01*
X12139814Y24143158D01*
X12079758Y24118281D01*
X12041504Y24110672D01*
X12016004Y24105600D01*
X11950996Y24105600D01*
X11925496Y24110672D01*
X11887242Y24118281D01*
X11827186Y24143158D01*
X11773137Y24179272D01*
X11727172Y24225237D01*
X11695100Y24273236D01*
X11690748Y24278539D01*
X11685444Y24282892D01*
X11679393Y24286126D01*
X11672828Y24288118D01*
X11666000Y24288790D01*
X11659172Y24288117D01*
X11652606Y24286126D01*
X11646555Y24282891D01*
X11641252Y24278539D01*
X11636900Y24273236D01*
X11604828Y24225237D01*
X11558863Y24179272D01*
X11504814Y24143158D01*
X11444758Y24118281D01*
X11406504Y24110672D01*
X11381004Y24105600D01*
X11315996Y24105600D01*
X11290496Y24110672D01*
X11252242Y24118281D01*
X11192186Y24143158D01*
X11138137Y24179272D01*
X11092172Y24225237D01*
X11056058Y24279286D01*
X11031181Y24339342D01*
X11018500Y24403098D01*
X11018500Y24468102D01*
X11031181Y24531858D01*
X11056058Y24591914D01*
X11092172Y24645963D01*
X11138137Y24691928D01*
X11192186Y24728042D01*
X11252242Y24752919D01*
X11290496Y24760528D01*
X11315996Y24765600D01*
X11381004Y24765600D01*
X11406504Y24760528D01*
X11406504Y24760528D01*
G37*
G36*
X27436000Y24858100D02*
G01*
X26376000Y24858100D01*
X26376000Y25918100D01*
X27436000Y25918100D01*
X27436000Y24858100D01*
X27436000Y24858100D01*
G37*
G36*
X12196000Y24858100D02*
G01*
X11136000Y24858100D01*
X11136000Y25918100D01*
X12196000Y25918100D01*
X12196000Y24858100D01*
X12196000Y24858100D01*
G37*
G36*
X13466000Y24858100D02*
G01*
X12406000Y24858100D01*
X12406000Y25918100D01*
X13466000Y25918100D01*
X13466000Y24858100D01*
X13466000Y24858100D01*
G37*
G36*
X14736000Y24858100D02*
G01*
X13676000Y24858100D01*
X13676000Y25918100D01*
X14736000Y25918100D01*
X14736000Y24858100D01*
X14736000Y24858100D01*
G37*
G36*
X18546000Y24858100D02*
G01*
X17486000Y24858100D01*
X17486000Y25918100D01*
X18546000Y25918100D01*
X18546000Y24858100D01*
X18546000Y24858100D01*
G37*
G36*
X17276000Y24858100D02*
G01*
X16216000Y24858100D01*
X16216000Y25918100D01*
X17276000Y25918100D01*
X17276000Y24858100D01*
X17276000Y24858100D01*
G37*
G36*
X31246000Y24858100D02*
G01*
X30186000Y24858100D01*
X30186000Y25918100D01*
X31246000Y25918100D01*
X31246000Y24858100D01*
X31246000Y24858100D01*
G37*
G36*
X29976000Y24858100D02*
G01*
X28916000Y24858100D01*
X28916000Y25918100D01*
X29976000Y25918100D01*
X29976000Y24858100D01*
X29976000Y24858100D01*
G37*
G36*
X28706000Y24858100D02*
G01*
X27646000Y24858100D01*
X27646000Y25918100D01*
X28706000Y25918100D01*
X28706000Y24858100D01*
X28706000Y24858100D01*
G37*
G36*
X26166000Y24858100D02*
G01*
X25106000Y24858100D01*
X25106000Y25918100D01*
X26166000Y25918100D01*
X26166000Y24858100D01*
X26166000Y24858100D01*
G37*
G36*
X24896000Y24858100D02*
G01*
X23836000Y24858100D01*
X23836000Y25918100D01*
X24896000Y25918100D01*
X24896000Y24858100D01*
X24896000Y24858100D01*
G37*
G36*
X19816000Y24858100D02*
G01*
X18756000Y24858100D01*
X18756000Y25918100D01*
X19816000Y25918100D01*
X19816000Y24858100D01*
X19816000Y24858100D01*
G37*
G36*
X23626000Y24858100D02*
G01*
X22566000Y24858100D01*
X22566000Y25918100D01*
X23626000Y25918100D01*
X23626000Y24858100D01*
X23626000Y24858100D01*
G37*
G36*
X22356000Y24858100D02*
G01*
X21296000Y24858100D01*
X21296000Y25918100D01*
X22356000Y25918100D01*
X22356000Y24858100D01*
X22356000Y24858100D01*
G37*
G36*
X21086000Y24858100D02*
G01*
X20026000Y24858100D01*
X20026000Y25918100D01*
X21086000Y25918100D01*
X21086000Y24858100D01*
X21086000Y24858100D01*
G37*
G36*
X16006000Y24858100D02*
G01*
X14946000Y24858100D01*
X14946000Y25918100D01*
X16006000Y25918100D01*
X16006000Y24858100D01*
X16006000Y24858100D01*
G37*
M02*
