G04 #@! TF.GenerationSoftware,KiCad,Pcbnew,5.1.4*
G04 #@! TF.CreationDate,2019-11-01T01:00:52-05:00*
G04 #@! TF.ProjectId,rf,72662e6b-6963-4616-945f-706362585858,A*
G04 #@! TF.SameCoordinates,PX811c3f0PY66a06fc*
G04 #@! TF.FileFunction,Soldermask,Bot*
G04 #@! TF.FilePolarity,Negative*
%FSLAX46Y46*%
G04 Gerber Fmt 4.6, Leading zero omitted, Abs format (unit mm)*
G04 Created by KiCad (PCBNEW 5.1.4) date 2019-11-01 01:00:52*
%MOMM*%
%LPD*%
G04 APERTURE LIST*
%ADD10C,0.100000*%
G04 APERTURE END LIST*
D10*
G36*
X31264000Y-530000D02*
G01*
X30204000Y-530000D01*
X30204000Y530000D01*
X31264000Y530000D01*
X31264000Y-530000D01*
X31264000Y-530000D01*
G37*
G36*
X21104000Y-530000D02*
G01*
X20044000Y-530000D01*
X20044000Y530000D01*
X21104000Y530000D01*
X21104000Y-530000D01*
X21104000Y-530000D01*
G37*
G36*
X12214000Y-530000D02*
G01*
X11154000Y-530000D01*
X11154000Y530000D01*
X12214000Y530000D01*
X12214000Y-530000D01*
X12214000Y-530000D01*
G37*
G36*
X13484000Y-530000D02*
G01*
X12424000Y-530000D01*
X12424000Y530000D01*
X13484000Y530000D01*
X13484000Y-530000D01*
X13484000Y-530000D01*
G37*
G36*
X14754000Y-530000D02*
G01*
X13694000Y-530000D01*
X13694000Y530000D01*
X14754000Y530000D01*
X14754000Y-530000D01*
X14754000Y-530000D01*
G37*
G36*
X16024000Y-530000D02*
G01*
X14964000Y-530000D01*
X14964000Y530000D01*
X16024000Y530000D01*
X16024000Y-530000D01*
X16024000Y-530000D01*
G37*
G36*
X17294000Y-530000D02*
G01*
X16234000Y-530000D01*
X16234000Y530000D01*
X17294000Y530000D01*
X17294000Y-530000D01*
X17294000Y-530000D01*
G37*
G36*
X18564000Y-530000D02*
G01*
X17504000Y-530000D01*
X17504000Y530000D01*
X18564000Y530000D01*
X18564000Y-530000D01*
X18564000Y-530000D01*
G37*
G36*
X19834000Y-530000D02*
G01*
X18774000Y-530000D01*
X18774000Y530000D01*
X19834000Y530000D01*
X19834000Y-530000D01*
X19834000Y-530000D01*
G37*
G36*
X23644000Y-530000D02*
G01*
X22584000Y-530000D01*
X22584000Y530000D01*
X23644000Y530000D01*
X23644000Y-530000D01*
X23644000Y-530000D01*
G37*
G36*
X22374000Y-530000D02*
G01*
X21314000Y-530000D01*
X21314000Y530000D01*
X22374000Y530000D01*
X22374000Y-530000D01*
X22374000Y-530000D01*
G37*
G36*
X29994000Y-530000D02*
G01*
X28934000Y-530000D01*
X28934000Y530000D01*
X29994000Y530000D01*
X29994000Y-530000D01*
X29994000Y-530000D01*
G37*
G36*
X28442504Y1848928D02*
G01*
X28480758Y1841319D01*
X28540814Y1816442D01*
X28594863Y1780328D01*
X28640828Y1734363D01*
X28676942Y1680314D01*
X28701819Y1620258D01*
X28706644Y1596000D01*
X28714500Y1556504D01*
X28714500Y1491496D01*
X28709428Y1465996D01*
X28701819Y1427742D01*
X28676942Y1367686D01*
X28640828Y1313637D01*
X28594863Y1267672D01*
X28565854Y1248289D01*
X28546864Y1235600D01*
X28541561Y1231248D01*
X28537208Y1225944D01*
X28533974Y1219893D01*
X28531982Y1213328D01*
X28531310Y1206500D01*
X28531983Y1199672D01*
X28533974Y1193106D01*
X28537209Y1187055D01*
X28541561Y1181752D01*
X28546864Y1177400D01*
X28565854Y1164711D01*
X28594863Y1145328D01*
X28640828Y1099363D01*
X28676942Y1045314D01*
X28701819Y985258D01*
X28704146Y973558D01*
X28711617Y936000D01*
X28714500Y921502D01*
X28714500Y856498D01*
X28701819Y792742D01*
X28676942Y732686D01*
X28640828Y678637D01*
X28594863Y632672D01*
X28569485Y615715D01*
X28539130Y595432D01*
X28536637Y594100D01*
X28531334Y589748D01*
X28526981Y584444D01*
X28523746Y578393D01*
X28521755Y571828D01*
X28521082Y565000D01*
X28521754Y558172D01*
X28523746Y551606D01*
X28526980Y545555D01*
X28531332Y540252D01*
X28536636Y535899D01*
X28542687Y532664D01*
X28549252Y530673D01*
X28556081Y530000D01*
X28724000Y530000D01*
X28724000Y-530000D01*
X27664000Y-530000D01*
X27664000Y530000D01*
X28212919Y530000D01*
X28219747Y530672D01*
X28226313Y532664D01*
X28232363Y535898D01*
X28237667Y540251D01*
X28242020Y545555D01*
X28245254Y551605D01*
X28247246Y558171D01*
X28247918Y564999D01*
X28247246Y571827D01*
X28245254Y578393D01*
X28242020Y584443D01*
X28237667Y589747D01*
X28232363Y594100D01*
X28229870Y595432D01*
X28199515Y615715D01*
X28174137Y632672D01*
X28128172Y678637D01*
X28092058Y732686D01*
X28067181Y792742D01*
X28054500Y856498D01*
X28054500Y921502D01*
X28057384Y936000D01*
X28064854Y973558D01*
X28067181Y985258D01*
X28092058Y1045314D01*
X28128172Y1099363D01*
X28174137Y1145328D01*
X28203146Y1164711D01*
X28222136Y1177400D01*
X28227439Y1181752D01*
X28231792Y1187056D01*
X28235026Y1193107D01*
X28237018Y1199672D01*
X28237690Y1206500D01*
X28237017Y1213328D01*
X28235026Y1219894D01*
X28231791Y1225945D01*
X28227439Y1231248D01*
X28222136Y1235600D01*
X28203146Y1248289D01*
X28174137Y1267672D01*
X28128172Y1313637D01*
X28092058Y1367686D01*
X28067181Y1427742D01*
X28059572Y1465996D01*
X28054500Y1491496D01*
X28054500Y1556504D01*
X28062356Y1596000D01*
X28067181Y1620258D01*
X28092058Y1680314D01*
X28128172Y1734363D01*
X28174137Y1780328D01*
X28228186Y1816442D01*
X28288242Y1841319D01*
X28326496Y1848928D01*
X28351996Y1854000D01*
X28417004Y1854000D01*
X28442504Y1848928D01*
X28442504Y1848928D01*
G37*
G36*
X26184000Y-530000D02*
G01*
X25124000Y-530000D01*
X25124000Y530000D01*
X26184000Y530000D01*
X26184000Y-530000D01*
X26184000Y-530000D01*
G37*
G36*
X27454000Y-530000D02*
G01*
X26394000Y-530000D01*
X26394000Y530000D01*
X27454000Y530000D01*
X27454000Y-530000D01*
X27454000Y-530000D01*
G37*
G36*
X24914000Y-530000D02*
G01*
X23854000Y-530000D01*
X23854000Y530000D01*
X24914000Y530000D01*
X24914000Y-530000D01*
X24914000Y-530000D01*
G37*
G36*
X4754164Y1590928D02*
G01*
X4792418Y1583319D01*
X4852474Y1558442D01*
X4906523Y1522328D01*
X4952488Y1476363D01*
X4988602Y1422314D01*
X5013479Y1362258D01*
X5021088Y1324004D01*
X5026160Y1298504D01*
X5026160Y1233496D01*
X5022148Y1213328D01*
X5013479Y1169742D01*
X4988602Y1109686D01*
X4952488Y1055637D01*
X4906523Y1009672D01*
X4852474Y973558D01*
X4792418Y948681D01*
X4754164Y941072D01*
X4728664Y936000D01*
X4663656Y936000D01*
X4638156Y941072D01*
X4599902Y948681D01*
X4539846Y973558D01*
X4485797Y1009672D01*
X4439832Y1055637D01*
X4403718Y1109686D01*
X4378841Y1169742D01*
X4370172Y1213328D01*
X4366160Y1233496D01*
X4366160Y1298504D01*
X4371232Y1324004D01*
X4378841Y1362258D01*
X4403718Y1422314D01*
X4439832Y1476363D01*
X4485797Y1522328D01*
X4539846Y1558442D01*
X4599902Y1583319D01*
X4638156Y1590928D01*
X4663656Y1596000D01*
X4728664Y1596000D01*
X4754164Y1590928D01*
X4754164Y1590928D01*
G37*
G36*
X2504164Y1590928D02*
G01*
X2542418Y1583319D01*
X2602474Y1558442D01*
X2656523Y1522328D01*
X2702488Y1476363D01*
X2738602Y1422314D01*
X2763479Y1362258D01*
X2771088Y1324004D01*
X2776160Y1298504D01*
X2776160Y1233496D01*
X2772148Y1213328D01*
X2763479Y1169742D01*
X2738602Y1109686D01*
X2702488Y1055637D01*
X2656523Y1009672D01*
X2602474Y973558D01*
X2542418Y948681D01*
X2504164Y941072D01*
X2478664Y936000D01*
X2413656Y936000D01*
X2388156Y941072D01*
X2349902Y948681D01*
X2289846Y973558D01*
X2235797Y1009672D01*
X2189832Y1055637D01*
X2153718Y1109686D01*
X2128841Y1169742D01*
X2120172Y1213328D01*
X2116160Y1233496D01*
X2116160Y1298504D01*
X2121232Y1324004D01*
X2128841Y1362258D01*
X2153718Y1422314D01*
X2189832Y1476363D01*
X2235797Y1522328D01*
X2289846Y1558442D01*
X2349902Y1583319D01*
X2388156Y1590928D01*
X2413656Y1596000D01*
X2478664Y1596000D01*
X2504164Y1590928D01*
X2504164Y1590928D01*
G37*
G36*
X13082221Y2552258D02*
G01*
X13120904Y2544564D01*
X13180960Y2519687D01*
X13235009Y2483573D01*
X13280974Y2437608D01*
X13317088Y2383559D01*
X13341965Y2323503D01*
X13346702Y2299686D01*
X13353911Y2263445D01*
X13354646Y2259747D01*
X13354646Y2194743D01*
X13341965Y2130987D01*
X13317088Y2070931D01*
X13280974Y2016882D01*
X13235009Y1970917D01*
X13180960Y1934803D01*
X13120904Y1909926D01*
X13084574Y1902700D01*
X13057150Y1897245D01*
X12992142Y1897245D01*
X12964718Y1902700D01*
X12928388Y1909926D01*
X12868332Y1934803D01*
X12814283Y1970917D01*
X12768318Y2016882D01*
X12732204Y2070931D01*
X12707327Y2130987D01*
X12694646Y2194743D01*
X12694646Y2259747D01*
X12695382Y2263445D01*
X12702590Y2299686D01*
X12707327Y2323503D01*
X12732204Y2383559D01*
X12768318Y2437608D01*
X12814283Y2483573D01*
X12868332Y2519687D01*
X12928388Y2544564D01*
X12967071Y2552258D01*
X12992142Y2557245D01*
X13057150Y2557245D01*
X13082221Y2552258D01*
X13082221Y2552258D01*
G37*
G36*
X11120221Y2552258D02*
G01*
X11158904Y2544564D01*
X11218960Y2519687D01*
X11273009Y2483573D01*
X11318974Y2437608D01*
X11355088Y2383559D01*
X11379965Y2323503D01*
X11384702Y2299686D01*
X11391911Y2263445D01*
X11392646Y2259747D01*
X11392646Y2194743D01*
X11379965Y2130987D01*
X11355088Y2070931D01*
X11318974Y2016882D01*
X11273009Y1970917D01*
X11218960Y1934803D01*
X11158904Y1909926D01*
X11122574Y1902700D01*
X11095150Y1897245D01*
X11030142Y1897245D01*
X11002718Y1902700D01*
X10966388Y1909926D01*
X10906332Y1934803D01*
X10852283Y1970917D01*
X10806318Y2016882D01*
X10770204Y2070931D01*
X10745327Y2130987D01*
X10732646Y2194743D01*
X10732646Y2259747D01*
X10733382Y2263445D01*
X10740590Y2299686D01*
X10745327Y2323503D01*
X10770204Y2383559D01*
X10806318Y2437608D01*
X10852283Y2483573D01*
X10906332Y2519687D01*
X10966388Y2544564D01*
X11005071Y2552258D01*
X11030142Y2557245D01*
X11095150Y2557245D01*
X11120221Y2552258D01*
X11120221Y2552258D01*
G37*
G36*
X9158221Y2552258D02*
G01*
X9196904Y2544564D01*
X9256960Y2519687D01*
X9311009Y2483573D01*
X9356974Y2437608D01*
X9393088Y2383559D01*
X9417965Y2323503D01*
X9422702Y2299686D01*
X9429911Y2263445D01*
X9430646Y2259747D01*
X9430646Y2194743D01*
X9417965Y2130987D01*
X9393088Y2070931D01*
X9356974Y2016882D01*
X9311009Y1970917D01*
X9256960Y1934803D01*
X9196904Y1909926D01*
X9160574Y1902700D01*
X9133150Y1897245D01*
X9068142Y1897245D01*
X9040718Y1902700D01*
X9004388Y1909926D01*
X8944332Y1934803D01*
X8890283Y1970917D01*
X8844318Y2016882D01*
X8808204Y2070931D01*
X8783327Y2130987D01*
X8770646Y2194743D01*
X8770646Y2259747D01*
X8771382Y2263445D01*
X8778590Y2299686D01*
X8783327Y2323503D01*
X8808204Y2383559D01*
X8844318Y2437608D01*
X8890283Y2483573D01*
X8944332Y2519687D01*
X9004388Y2544564D01*
X9043071Y2552258D01*
X9068142Y2557245D01*
X9133150Y2557245D01*
X9158221Y2552258D01*
X9158221Y2552258D01*
G37*
G36*
X7196221Y2552258D02*
G01*
X7234904Y2544564D01*
X7294960Y2519687D01*
X7349009Y2483573D01*
X7394974Y2437608D01*
X7431088Y2383559D01*
X7455965Y2323503D01*
X7460702Y2299686D01*
X7467911Y2263445D01*
X7468646Y2259747D01*
X7468646Y2194743D01*
X7455965Y2130987D01*
X7431088Y2070931D01*
X7394974Y2016882D01*
X7349009Y1970917D01*
X7294960Y1934803D01*
X7234904Y1909926D01*
X7198574Y1902700D01*
X7171150Y1897245D01*
X7106142Y1897245D01*
X7078718Y1902700D01*
X7042388Y1909926D01*
X6982332Y1934803D01*
X6928283Y1970917D01*
X6882318Y2016882D01*
X6846204Y2070931D01*
X6821327Y2130987D01*
X6808646Y2194743D01*
X6808646Y2259747D01*
X6809382Y2263445D01*
X6816590Y2299686D01*
X6821327Y2323503D01*
X6846204Y2383559D01*
X6882318Y2437608D01*
X6928283Y2483573D01*
X6982332Y2519687D01*
X7042388Y2544564D01*
X7081071Y2552258D01*
X7106142Y2557245D01*
X7171150Y2557245D01*
X7196221Y2552258D01*
X7196221Y2552258D01*
G37*
G36*
X15044204Y2557628D02*
G01*
X15082458Y2550019D01*
X15142514Y2525142D01*
X15196563Y2489028D01*
X15242528Y2443063D01*
X15278642Y2389014D01*
X15303519Y2328958D01*
X15309341Y2299686D01*
X15316200Y2265204D01*
X15316200Y2200196D01*
X15315115Y2194743D01*
X15303519Y2136442D01*
X15278642Y2076386D01*
X15242528Y2022337D01*
X15196563Y1976372D01*
X15142514Y1940258D01*
X15082458Y1915381D01*
X15045369Y1908004D01*
X15018704Y1902700D01*
X14953696Y1902700D01*
X14927031Y1908004D01*
X14889942Y1915381D01*
X14829886Y1940258D01*
X14775837Y1976372D01*
X14729872Y2022337D01*
X14693758Y2076386D01*
X14668881Y2136442D01*
X14657285Y2194743D01*
X14656200Y2200196D01*
X14656200Y2265204D01*
X14663059Y2299686D01*
X14668881Y2328958D01*
X14693758Y2389014D01*
X14729872Y2443063D01*
X14775837Y2489028D01*
X14829886Y2525142D01*
X14889942Y2550019D01*
X14928196Y2557628D01*
X14953696Y2562700D01*
X15018704Y2562700D01*
X15044204Y2557628D01*
X15044204Y2557628D01*
G37*
G36*
X20933431Y2562932D02*
G01*
X20971685Y2555323D01*
X21031741Y2530446D01*
X21085790Y2494332D01*
X21131755Y2448367D01*
X21167869Y2394318D01*
X21192746Y2334262D01*
X21199623Y2299686D01*
X21205427Y2270508D01*
X21205427Y2205500D01*
X21203287Y2194743D01*
X21192746Y2141746D01*
X21167869Y2081690D01*
X21131755Y2027641D01*
X21085790Y1981676D01*
X21031741Y1945562D01*
X20971685Y1920685D01*
X20933431Y1913076D01*
X20907931Y1908004D01*
X20842923Y1908004D01*
X20817423Y1913076D01*
X20779169Y1920685D01*
X20719113Y1945562D01*
X20665064Y1981676D01*
X20619099Y2027641D01*
X20582985Y2081690D01*
X20558108Y2141746D01*
X20547567Y2194743D01*
X20545427Y2205500D01*
X20545427Y2270508D01*
X20551231Y2299686D01*
X20558108Y2334262D01*
X20582985Y2394318D01*
X20619099Y2448367D01*
X20665064Y2494332D01*
X20719113Y2530446D01*
X20779169Y2555323D01*
X20817423Y2562932D01*
X20842923Y2568004D01*
X20907931Y2568004D01*
X20933431Y2562932D01*
X20933431Y2562932D01*
G37*
G36*
X17009431Y2562932D02*
G01*
X17047685Y2555323D01*
X17107741Y2530446D01*
X17161790Y2494332D01*
X17207755Y2448367D01*
X17243869Y2394318D01*
X17268746Y2334262D01*
X17275623Y2299686D01*
X17281427Y2270508D01*
X17281427Y2205500D01*
X17279287Y2194743D01*
X17268746Y2141746D01*
X17243869Y2081690D01*
X17207755Y2027641D01*
X17161790Y1981676D01*
X17107741Y1945562D01*
X17047685Y1920685D01*
X17009431Y1913076D01*
X16983931Y1908004D01*
X16918923Y1908004D01*
X16893423Y1913076D01*
X16855169Y1920685D01*
X16795113Y1945562D01*
X16741064Y1981676D01*
X16695099Y2027641D01*
X16658985Y2081690D01*
X16634108Y2141746D01*
X16623567Y2194743D01*
X16621427Y2205500D01*
X16621427Y2270508D01*
X16627231Y2299686D01*
X16634108Y2334262D01*
X16658985Y2394318D01*
X16695099Y2448367D01*
X16741064Y2494332D01*
X16795113Y2530446D01*
X16855169Y2555323D01*
X16893423Y2562932D01*
X16918923Y2568004D01*
X16983931Y2568004D01*
X17009431Y2562932D01*
X17009431Y2562932D01*
G37*
G36*
X18971431Y2562932D02*
G01*
X19009685Y2555323D01*
X19069741Y2530446D01*
X19123790Y2494332D01*
X19169755Y2448367D01*
X19205869Y2394318D01*
X19230746Y2334262D01*
X19237623Y2299686D01*
X19243427Y2270508D01*
X19243427Y2205500D01*
X19241287Y2194743D01*
X19230746Y2141746D01*
X19205869Y2081690D01*
X19169755Y2027641D01*
X19123790Y1981676D01*
X19069741Y1945562D01*
X19009685Y1920685D01*
X18971431Y1913076D01*
X18945931Y1908004D01*
X18880923Y1908004D01*
X18855423Y1913076D01*
X18817169Y1920685D01*
X18757113Y1945562D01*
X18703064Y1981676D01*
X18657099Y2027641D01*
X18620985Y2081690D01*
X18596108Y2141746D01*
X18585567Y2194743D01*
X18583427Y2205500D01*
X18583427Y2270508D01*
X18589231Y2299686D01*
X18596108Y2334262D01*
X18620985Y2394318D01*
X18657099Y2448367D01*
X18703064Y2494332D01*
X18757113Y2530446D01*
X18817169Y2555323D01*
X18855423Y2562932D01*
X18880923Y2568004D01*
X18945931Y2568004D01*
X18971431Y2562932D01*
X18971431Y2562932D01*
G37*
G36*
X5924164Y2580928D02*
G01*
X5962418Y2573319D01*
X6022474Y2548442D01*
X6076523Y2512328D01*
X6122488Y2466363D01*
X6158602Y2412314D01*
X6183479Y2352258D01*
X6196160Y2288502D01*
X6196160Y2223498D01*
X6183479Y2159742D01*
X6158602Y2099686D01*
X6122488Y2045637D01*
X6076523Y1999672D01*
X6022474Y1963558D01*
X5962418Y1938681D01*
X5924164Y1931072D01*
X5898664Y1926000D01*
X5833656Y1926000D01*
X5808156Y1931072D01*
X5769902Y1938681D01*
X5709846Y1963558D01*
X5655797Y1999672D01*
X5609832Y2045637D01*
X5573718Y2099686D01*
X5548841Y2159742D01*
X5536160Y2223498D01*
X5536160Y2288502D01*
X5548841Y2352258D01*
X5573718Y2412314D01*
X5609832Y2466363D01*
X5655797Y2512328D01*
X5709846Y2548442D01*
X5769902Y2573319D01*
X5808156Y2580928D01*
X5833656Y2586000D01*
X5898664Y2586000D01*
X5924164Y2580928D01*
X5924164Y2580928D01*
G37*
G36*
X22946016Y2684628D02*
G01*
X22984270Y2677019D01*
X23044326Y2652142D01*
X23098375Y2616028D01*
X23144340Y2570063D01*
X23180454Y2516014D01*
X23205331Y2455958D01*
X23208981Y2437607D01*
X23218012Y2392204D01*
X23218012Y2327196D01*
X23212940Y2301696D01*
X23205331Y2263442D01*
X23180454Y2203386D01*
X23144340Y2149337D01*
X23098375Y2103372D01*
X23044326Y2067258D01*
X22984270Y2042381D01*
X22946016Y2034772D01*
X22920516Y2029700D01*
X22855508Y2029700D01*
X22830008Y2034772D01*
X22791754Y2042381D01*
X22731698Y2067258D01*
X22677649Y2103372D01*
X22631684Y2149337D01*
X22595570Y2203386D01*
X22570693Y2263442D01*
X22563084Y2301696D01*
X22558012Y2327196D01*
X22558012Y2392204D01*
X22567043Y2437607D01*
X22570693Y2455958D01*
X22595570Y2516014D01*
X22631684Y2570063D01*
X22677649Y2616028D01*
X22731698Y2652142D01*
X22791754Y2677019D01*
X22830008Y2684628D01*
X22855508Y2689700D01*
X22920516Y2689700D01*
X22946016Y2684628D01*
X22946016Y2684628D01*
G37*
G36*
X1324164Y2780928D02*
G01*
X1362418Y2773319D01*
X1422474Y2748442D01*
X1476523Y2712328D01*
X1522488Y2666363D01*
X1558602Y2612314D01*
X1583479Y2552258D01*
X1585009Y2544564D01*
X1596056Y2489028D01*
X1596160Y2488502D01*
X1596160Y2423498D01*
X1583479Y2359742D01*
X1558602Y2299686D01*
X1522488Y2245637D01*
X1476523Y2199672D01*
X1422474Y2163558D01*
X1362418Y2138681D01*
X1324164Y2131072D01*
X1298664Y2126000D01*
X1233656Y2126000D01*
X1208156Y2131072D01*
X1169902Y2138681D01*
X1109846Y2163558D01*
X1055797Y2199672D01*
X1009832Y2245637D01*
X973718Y2299686D01*
X948841Y2359742D01*
X936160Y2423498D01*
X936160Y2488502D01*
X936265Y2489028D01*
X947311Y2544564D01*
X948841Y2552258D01*
X973718Y2612314D01*
X1009832Y2666363D01*
X1055797Y2712328D01*
X1109846Y2748442D01*
X1169902Y2773319D01*
X1208156Y2780928D01*
X1233656Y2786000D01*
X1298664Y2786000D01*
X1324164Y2780928D01*
X1324164Y2780928D01*
G37*
G36*
X24915710Y3337364D02*
G01*
X24955916Y3329367D01*
X25015972Y3304490D01*
X25070021Y3268376D01*
X25115986Y3222411D01*
X25152100Y3168362D01*
X25176977Y3108306D01*
X25189658Y3044550D01*
X25189658Y2979546D01*
X25176977Y2915790D01*
X25152100Y2855734D01*
X25115986Y2801685D01*
X25070021Y2755720D01*
X25015972Y2719606D01*
X24955916Y2694729D01*
X24917662Y2687120D01*
X24892162Y2682048D01*
X24827154Y2682048D01*
X24801654Y2687120D01*
X24763400Y2694729D01*
X24703344Y2719606D01*
X24649295Y2755720D01*
X24603330Y2801685D01*
X24567216Y2855734D01*
X24542339Y2915790D01*
X24529658Y2979546D01*
X24529658Y3044550D01*
X24542339Y3108306D01*
X24567216Y3168362D01*
X24603330Y3222411D01*
X24649295Y3268376D01*
X24703344Y3304490D01*
X24763400Y3329367D01*
X24803606Y3337364D01*
X24827154Y3342048D01*
X24892162Y3342048D01*
X24915710Y3337364D01*
X24915710Y3337364D01*
G37*
G36*
X30474504Y3499928D02*
G01*
X30512758Y3492319D01*
X30572814Y3467442D01*
X30626863Y3431328D01*
X30672828Y3385363D01*
X30692211Y3356354D01*
X30704900Y3337364D01*
X30709252Y3332061D01*
X30714556Y3327708D01*
X30720607Y3324474D01*
X30727172Y3322482D01*
X30734000Y3321810D01*
X30740828Y3322483D01*
X30747394Y3324474D01*
X30753445Y3327709D01*
X30758748Y3332061D01*
X30763100Y3337364D01*
X30775789Y3356354D01*
X30795172Y3385363D01*
X30841137Y3431328D01*
X30895186Y3467442D01*
X30955242Y3492319D01*
X30993496Y3499928D01*
X31018996Y3505000D01*
X31084004Y3505000D01*
X31109504Y3499928D01*
X31147758Y3492319D01*
X31207814Y3467442D01*
X31261863Y3431328D01*
X31307828Y3385363D01*
X31343942Y3331314D01*
X31368819Y3271258D01*
X31381500Y3207502D01*
X31381500Y3142498D01*
X31368819Y3078742D01*
X31343942Y3018686D01*
X31307828Y2964637D01*
X31261863Y2918672D01*
X31207814Y2882558D01*
X31147758Y2857681D01*
X31109504Y2850072D01*
X31084004Y2845000D01*
X31018996Y2845000D01*
X30993496Y2850072D01*
X30955242Y2857681D01*
X30895186Y2882558D01*
X30841137Y2918672D01*
X30795172Y2964637D01*
X30763100Y3012636D01*
X30758748Y3017939D01*
X30753444Y3022292D01*
X30747393Y3025526D01*
X30740828Y3027518D01*
X30734000Y3028190D01*
X30727172Y3027517D01*
X30720606Y3025526D01*
X30714555Y3022291D01*
X30709252Y3017939D01*
X30704900Y3012636D01*
X30672828Y2964637D01*
X30626863Y2918672D01*
X30572814Y2882558D01*
X30512758Y2857681D01*
X30474504Y2850072D01*
X30449004Y2845000D01*
X30383996Y2845000D01*
X30358496Y2850072D01*
X30320242Y2857681D01*
X30260186Y2882558D01*
X30206137Y2918672D01*
X30160172Y2964637D01*
X30124058Y3018686D01*
X30099181Y3078742D01*
X30086500Y3142498D01*
X30086500Y3207502D01*
X30099181Y3271258D01*
X30124058Y3331314D01*
X30160172Y3385363D01*
X30206137Y3431328D01*
X30260186Y3467442D01*
X30320242Y3492319D01*
X30358496Y3499928D01*
X30383996Y3505000D01*
X30449004Y3505000D01*
X30474504Y3499928D01*
X30474504Y3499928D01*
G37*
G36*
X29014004Y3880928D02*
G01*
X29052258Y3873319D01*
X29112314Y3848442D01*
X29166363Y3812328D01*
X29212328Y3766363D01*
X29231711Y3737354D01*
X29244400Y3718364D01*
X29248752Y3713061D01*
X29254056Y3708708D01*
X29260107Y3705474D01*
X29266672Y3703482D01*
X29273500Y3702810D01*
X29280328Y3703483D01*
X29286894Y3705474D01*
X29292945Y3708709D01*
X29298248Y3713061D01*
X29302600Y3718364D01*
X29315289Y3737354D01*
X29334672Y3766363D01*
X29380637Y3812328D01*
X29434686Y3848442D01*
X29494742Y3873319D01*
X29532996Y3880928D01*
X29558496Y3886000D01*
X29623504Y3886000D01*
X29649004Y3880928D01*
X29687258Y3873319D01*
X29747314Y3848442D01*
X29801363Y3812328D01*
X29847328Y3766363D01*
X29883442Y3712314D01*
X29908319Y3652258D01*
X29921000Y3588502D01*
X29921000Y3523498D01*
X29908319Y3459742D01*
X29883442Y3399686D01*
X29847328Y3345637D01*
X29801363Y3299672D01*
X29747314Y3263558D01*
X29687258Y3238681D01*
X29649004Y3231072D01*
X29623504Y3226000D01*
X29558496Y3226000D01*
X29532996Y3231072D01*
X29494742Y3238681D01*
X29434686Y3263558D01*
X29380637Y3299672D01*
X29334672Y3345637D01*
X29302600Y3393636D01*
X29298248Y3398939D01*
X29292944Y3403292D01*
X29286893Y3406526D01*
X29280328Y3408518D01*
X29273500Y3409190D01*
X29266672Y3408517D01*
X29260106Y3406526D01*
X29254055Y3403291D01*
X29248752Y3398939D01*
X29244400Y3393636D01*
X29212328Y3345637D01*
X29166363Y3299672D01*
X29112314Y3263558D01*
X29052258Y3238681D01*
X29014004Y3231072D01*
X28988504Y3226000D01*
X28923496Y3226000D01*
X28897996Y3231072D01*
X28859742Y3238681D01*
X28799686Y3263558D01*
X28745637Y3299672D01*
X28699672Y3345637D01*
X28663558Y3399686D01*
X28638681Y3459742D01*
X28626000Y3523498D01*
X28626000Y3588502D01*
X28638681Y3652258D01*
X28663558Y3712314D01*
X28699672Y3766363D01*
X28745637Y3812328D01*
X28799686Y3848442D01*
X28859742Y3873319D01*
X28897996Y3880928D01*
X28923496Y3886000D01*
X28988504Y3886000D01*
X29014004Y3880928D01*
X29014004Y3880928D01*
G37*
G36*
X26647874Y4484438D02*
G01*
X26686128Y4476829D01*
X26746184Y4451952D01*
X26800233Y4415838D01*
X26846198Y4369873D01*
X26882312Y4315824D01*
X26907189Y4255768D01*
X26919870Y4192012D01*
X26919870Y4127008D01*
X26907189Y4063252D01*
X26882312Y4003196D01*
X26846198Y3949147D01*
X26800233Y3903182D01*
X26746184Y3867068D01*
X26686128Y3842191D01*
X26647874Y3834582D01*
X26622374Y3829510D01*
X26557366Y3829510D01*
X26531866Y3834582D01*
X26493612Y3842191D01*
X26433556Y3867068D01*
X26379507Y3903182D01*
X26333542Y3949147D01*
X26297428Y4003196D01*
X26272551Y4063252D01*
X26259870Y4127008D01*
X26259870Y4192012D01*
X26272551Y4255768D01*
X26297428Y4315824D01*
X26333542Y4369873D01*
X26379507Y4415838D01*
X26433556Y4451952D01*
X26493612Y4476829D01*
X26531866Y4484438D01*
X26557366Y4489510D01*
X26622374Y4489510D01*
X26647874Y4484438D01*
X26647874Y4484438D01*
G37*
G36*
X1324012Y4980958D02*
G01*
X1362418Y4973319D01*
X1422474Y4948442D01*
X1476523Y4912328D01*
X1522488Y4866363D01*
X1558602Y4812314D01*
X1583479Y4752258D01*
X1596160Y4688502D01*
X1596160Y4623498D01*
X1583479Y4559742D01*
X1558602Y4499686D01*
X1522488Y4445637D01*
X1476523Y4399672D01*
X1422474Y4363558D01*
X1362418Y4338681D01*
X1324164Y4331072D01*
X1298664Y4326000D01*
X1233656Y4326000D01*
X1208156Y4331072D01*
X1169902Y4338681D01*
X1109846Y4363558D01*
X1055797Y4399672D01*
X1009832Y4445637D01*
X973718Y4499686D01*
X948841Y4559742D01*
X936160Y4623498D01*
X936160Y4688502D01*
X948841Y4752258D01*
X973718Y4812314D01*
X1009832Y4866363D01*
X1055797Y4912328D01*
X1109846Y4948442D01*
X1169902Y4973319D01*
X1208308Y4980958D01*
X1233656Y4986000D01*
X1298664Y4986000D01*
X1324012Y4980958D01*
X1324012Y4980958D01*
G37*
G36*
X30058004Y5074928D02*
G01*
X30096258Y5067319D01*
X30156314Y5042442D01*
X30210363Y5006328D01*
X30256328Y4960363D01*
X30292442Y4906314D01*
X30317319Y4846258D01*
X30330000Y4782502D01*
X30330000Y4717498D01*
X30317319Y4653742D01*
X30292442Y4593686D01*
X30256328Y4539637D01*
X30210363Y4493672D01*
X30156314Y4457558D01*
X30096258Y4432681D01*
X30058004Y4425072D01*
X30032504Y4420000D01*
X29967496Y4420000D01*
X29941996Y4425072D01*
X29903742Y4432681D01*
X29843686Y4457558D01*
X29789637Y4493672D01*
X29743672Y4539637D01*
X29707558Y4593686D01*
X29682681Y4653742D01*
X29670000Y4717498D01*
X29670000Y4782502D01*
X29682681Y4846258D01*
X29707558Y4906314D01*
X29743672Y4960363D01*
X29789637Y5006328D01*
X29843686Y5042442D01*
X29903742Y5067319D01*
X29941996Y5074928D01*
X29967496Y5080000D01*
X30032504Y5080000D01*
X30058004Y5074928D01*
X30058004Y5074928D01*
G37*
G36*
X5924164Y5180928D02*
G01*
X5962418Y5173319D01*
X6022474Y5148442D01*
X6076523Y5112328D01*
X6122488Y5066363D01*
X6158602Y5012314D01*
X6183479Y4952258D01*
X6196160Y4888502D01*
X6196160Y4823498D01*
X6183479Y4759742D01*
X6158602Y4699686D01*
X6122488Y4645637D01*
X6076523Y4599672D01*
X6022474Y4563558D01*
X5962418Y4538681D01*
X5924164Y4531072D01*
X5898664Y4526000D01*
X5833656Y4526000D01*
X5808156Y4531072D01*
X5769902Y4538681D01*
X5709846Y4563558D01*
X5655797Y4599672D01*
X5609832Y4645637D01*
X5573718Y4699686D01*
X5548841Y4759742D01*
X5536160Y4823498D01*
X5536160Y4888502D01*
X5548841Y4952258D01*
X5573718Y5012314D01*
X5609832Y5066363D01*
X5655797Y5112328D01*
X5709846Y5148442D01*
X5769902Y5173319D01*
X5808156Y5180928D01*
X5833656Y5186000D01*
X5898664Y5186000D01*
X5924164Y5180928D01*
X5924164Y5180928D01*
G37*
G36*
X14986985Y5203369D02*
G01*
X15025239Y5195760D01*
X15085295Y5170883D01*
X15139344Y5134769D01*
X15185309Y5088804D01*
X15221423Y5034755D01*
X15246300Y4974699D01*
X15258981Y4910943D01*
X15258981Y4845939D01*
X15246300Y4782183D01*
X15221423Y4722127D01*
X15185309Y4668078D01*
X15139344Y4622113D01*
X15085295Y4585999D01*
X15025239Y4561122D01*
X14992951Y4554700D01*
X14961485Y4548441D01*
X14896477Y4548441D01*
X14865011Y4554700D01*
X14832723Y4561122D01*
X14772667Y4585999D01*
X14718618Y4622113D01*
X14672653Y4668078D01*
X14636539Y4722127D01*
X14611662Y4782183D01*
X14598981Y4845939D01*
X14598981Y4910943D01*
X14611662Y4974699D01*
X14636539Y5034755D01*
X14672653Y5088804D01*
X14718618Y5134769D01*
X14772667Y5170883D01*
X14832723Y5195760D01*
X14870977Y5203369D01*
X14896477Y5208441D01*
X14961485Y5208441D01*
X14986985Y5203369D01*
X14986985Y5203369D01*
G37*
G36*
X9098204Y5209628D02*
G01*
X9136458Y5202019D01*
X9196514Y5177142D01*
X9250563Y5141028D01*
X9296528Y5095063D01*
X9332642Y5041014D01*
X9357519Y4980958D01*
X9370200Y4917202D01*
X9370200Y4852198D01*
X9357519Y4788442D01*
X9332642Y4728386D01*
X9296528Y4674337D01*
X9250563Y4628372D01*
X9196514Y4592258D01*
X9136458Y4567381D01*
X9098204Y4559772D01*
X9072704Y4554700D01*
X9007696Y4554700D01*
X8982196Y4559772D01*
X8943942Y4567381D01*
X8883886Y4592258D01*
X8829837Y4628372D01*
X8783872Y4674337D01*
X8747758Y4728386D01*
X8722881Y4788442D01*
X8710200Y4852198D01*
X8710200Y4917202D01*
X8722881Y4980958D01*
X8747758Y5041014D01*
X8783872Y5095063D01*
X8829837Y5141028D01*
X8883886Y5177142D01*
X8943942Y5202019D01*
X8982196Y5209628D01*
X9007696Y5214700D01*
X9072704Y5214700D01*
X9098204Y5209628D01*
X9098204Y5209628D01*
G37*
G36*
X13022204Y5209628D02*
G01*
X13060458Y5202019D01*
X13120514Y5177142D01*
X13174563Y5141028D01*
X13220528Y5095063D01*
X13256642Y5041014D01*
X13281519Y4980958D01*
X13294200Y4917202D01*
X13294200Y4852198D01*
X13281519Y4788442D01*
X13256642Y4728386D01*
X13220528Y4674337D01*
X13174563Y4628372D01*
X13120514Y4592258D01*
X13060458Y4567381D01*
X13022204Y4559772D01*
X12996704Y4554700D01*
X12931696Y4554700D01*
X12906196Y4559772D01*
X12867942Y4567381D01*
X12807886Y4592258D01*
X12753837Y4628372D01*
X12707872Y4674337D01*
X12671758Y4728386D01*
X12646881Y4788442D01*
X12634200Y4852198D01*
X12634200Y4917202D01*
X12646881Y4980958D01*
X12671758Y5041014D01*
X12707872Y5095063D01*
X12753837Y5141028D01*
X12807886Y5177142D01*
X12867942Y5202019D01*
X12906196Y5209628D01*
X12931696Y5214700D01*
X12996704Y5214700D01*
X13022204Y5209628D01*
X13022204Y5209628D01*
G37*
G36*
X11060204Y5209628D02*
G01*
X11098458Y5202019D01*
X11158514Y5177142D01*
X11212563Y5141028D01*
X11258528Y5095063D01*
X11294642Y5041014D01*
X11319519Y4980958D01*
X11332200Y4917202D01*
X11332200Y4852198D01*
X11319519Y4788442D01*
X11294642Y4728386D01*
X11258528Y4674337D01*
X11212563Y4628372D01*
X11158514Y4592258D01*
X11098458Y4567381D01*
X11060204Y4559772D01*
X11034704Y4554700D01*
X10969696Y4554700D01*
X10944196Y4559772D01*
X10905942Y4567381D01*
X10845886Y4592258D01*
X10791837Y4628372D01*
X10745872Y4674337D01*
X10709758Y4728386D01*
X10684881Y4788442D01*
X10672200Y4852198D01*
X10672200Y4917202D01*
X10684881Y4980958D01*
X10709758Y5041014D01*
X10745872Y5095063D01*
X10791837Y5141028D01*
X10845886Y5177142D01*
X10905942Y5202019D01*
X10944196Y5209628D01*
X10969696Y5214700D01*
X11034704Y5214700D01*
X11060204Y5209628D01*
X11060204Y5209628D01*
G37*
G36*
X7136204Y5209628D02*
G01*
X7174458Y5202019D01*
X7234514Y5177142D01*
X7288563Y5141028D01*
X7334528Y5095063D01*
X7370642Y5041014D01*
X7395519Y4980958D01*
X7408200Y4917202D01*
X7408200Y4852198D01*
X7395519Y4788442D01*
X7370642Y4728386D01*
X7334528Y4674337D01*
X7288563Y4628372D01*
X7234514Y4592258D01*
X7174458Y4567381D01*
X7136204Y4559772D01*
X7110704Y4554700D01*
X7045696Y4554700D01*
X7020196Y4559772D01*
X6981942Y4567381D01*
X6921886Y4592258D01*
X6867837Y4628372D01*
X6821872Y4674337D01*
X6785758Y4728386D01*
X6760881Y4788442D01*
X6748200Y4852198D01*
X6748200Y4917202D01*
X6760881Y4980958D01*
X6785758Y5041014D01*
X6821872Y5095063D01*
X6867837Y5141028D01*
X6921886Y5177142D01*
X6981942Y5202019D01*
X7020196Y5209628D01*
X7045696Y5214700D01*
X7110704Y5214700D01*
X7136204Y5209628D01*
X7136204Y5209628D01*
G37*
G36*
X21853985Y5220387D02*
G01*
X21892239Y5212778D01*
X21952295Y5187901D01*
X22006344Y5151787D01*
X22052309Y5105822D01*
X22088423Y5051773D01*
X22113300Y4991717D01*
X22125981Y4927961D01*
X22125981Y4862957D01*
X22113300Y4799201D01*
X22088423Y4739145D01*
X22052309Y4685096D01*
X22006344Y4639131D01*
X21952295Y4603017D01*
X21892239Y4578140D01*
X21853985Y4570531D01*
X21828485Y4565459D01*
X21763477Y4565459D01*
X21737977Y4570531D01*
X21699723Y4578140D01*
X21639667Y4603017D01*
X21585618Y4639131D01*
X21539653Y4685096D01*
X21503539Y4739145D01*
X21478662Y4799201D01*
X21465981Y4862957D01*
X21465981Y4927961D01*
X21478662Y4991717D01*
X21503539Y5051773D01*
X21539653Y5105822D01*
X21585618Y5151787D01*
X21639667Y5187901D01*
X21699723Y5212778D01*
X21737977Y5220387D01*
X21763477Y5225459D01*
X21828485Y5225459D01*
X21853985Y5220387D01*
X21853985Y5220387D01*
G37*
G36*
X22940873Y5412402D02*
G01*
X22979127Y5404793D01*
X23039183Y5379916D01*
X23093232Y5343802D01*
X23139197Y5297837D01*
X23175311Y5243788D01*
X23200188Y5183732D01*
X23212869Y5119976D01*
X23212869Y5054972D01*
X23200188Y4991216D01*
X23175311Y4931160D01*
X23139197Y4877111D01*
X23093232Y4831146D01*
X23039183Y4795032D01*
X22979127Y4770155D01*
X22940873Y4762546D01*
X22915373Y4757474D01*
X22850365Y4757474D01*
X22824865Y4762546D01*
X22786611Y4770155D01*
X22726555Y4795032D01*
X22672506Y4831146D01*
X22626541Y4877111D01*
X22590427Y4931160D01*
X22565550Y4991216D01*
X22552869Y5054972D01*
X22552869Y5119976D01*
X22565550Y5183732D01*
X22590427Y5243788D01*
X22626541Y5297837D01*
X22672506Y5343802D01*
X22726555Y5379916D01*
X22786611Y5404793D01*
X22824865Y5412402D01*
X22850365Y5417474D01*
X22915373Y5417474D01*
X22940873Y5412402D01*
X22940873Y5412402D01*
G37*
G36*
X17479985Y6025567D02*
G01*
X17518239Y6017958D01*
X17578295Y5993081D01*
X17632344Y5956967D01*
X17678309Y5911002D01*
X17714423Y5856953D01*
X17739300Y5796897D01*
X17739656Y5795106D01*
X17751788Y5734115D01*
X17751981Y5733141D01*
X17751981Y5668137D01*
X17739300Y5604381D01*
X17714423Y5544325D01*
X17678309Y5490276D01*
X17632344Y5444311D01*
X17578295Y5408197D01*
X17518239Y5383320D01*
X17479985Y5375711D01*
X17454485Y5370639D01*
X17389477Y5370639D01*
X17363977Y5375711D01*
X17325723Y5383320D01*
X17265667Y5408197D01*
X17211618Y5444311D01*
X17165653Y5490276D01*
X17129539Y5544325D01*
X17104662Y5604381D01*
X17091981Y5668137D01*
X17091981Y5733141D01*
X17092175Y5734115D01*
X17104306Y5795106D01*
X17104662Y5796897D01*
X17129539Y5856953D01*
X17165653Y5911002D01*
X17211618Y5956967D01*
X17265667Y5993081D01*
X17325723Y6017958D01*
X17363977Y6025567D01*
X17389477Y6030639D01*
X17454485Y6030639D01*
X17479985Y6025567D01*
X17479985Y6025567D01*
G37*
G36*
X15517985Y6025567D02*
G01*
X15556239Y6017958D01*
X15616295Y5993081D01*
X15670344Y5956967D01*
X15716309Y5911002D01*
X15752423Y5856953D01*
X15777300Y5796897D01*
X15777656Y5795106D01*
X15789788Y5734115D01*
X15789981Y5733141D01*
X15789981Y5668137D01*
X15777300Y5604381D01*
X15752423Y5544325D01*
X15716309Y5490276D01*
X15670344Y5444311D01*
X15616295Y5408197D01*
X15556239Y5383320D01*
X15517985Y5375711D01*
X15492485Y5370639D01*
X15427477Y5370639D01*
X15401977Y5375711D01*
X15363723Y5383320D01*
X15303667Y5408197D01*
X15249618Y5444311D01*
X15203653Y5490276D01*
X15167539Y5544325D01*
X15142662Y5604381D01*
X15129981Y5668137D01*
X15129981Y5733141D01*
X15130175Y5734115D01*
X15142306Y5795106D01*
X15142662Y5796897D01*
X15167539Y5856953D01*
X15203653Y5911002D01*
X15249618Y5956967D01*
X15303667Y5993081D01*
X15363723Y6017958D01*
X15401977Y6025567D01*
X15427477Y6030639D01*
X15492485Y6030639D01*
X15517985Y6025567D01*
X15517985Y6025567D01*
G37*
G36*
X19441985Y6025567D02*
G01*
X19480239Y6017958D01*
X19540295Y5993081D01*
X19594344Y5956967D01*
X19640309Y5911002D01*
X19676423Y5856953D01*
X19701300Y5796897D01*
X19701656Y5795106D01*
X19713788Y5734115D01*
X19713981Y5733141D01*
X19713981Y5668137D01*
X19701300Y5604381D01*
X19676423Y5544325D01*
X19640309Y5490276D01*
X19594344Y5444311D01*
X19540295Y5408197D01*
X19480239Y5383320D01*
X19441985Y5375711D01*
X19416485Y5370639D01*
X19351477Y5370639D01*
X19325977Y5375711D01*
X19287723Y5383320D01*
X19227667Y5408197D01*
X19173618Y5444311D01*
X19127653Y5490276D01*
X19091539Y5544325D01*
X19066662Y5604381D01*
X19053981Y5668137D01*
X19053981Y5733141D01*
X19054175Y5734115D01*
X19066306Y5795106D01*
X19066662Y5796897D01*
X19091539Y5856953D01*
X19127653Y5911002D01*
X19173618Y5956967D01*
X19227667Y5993081D01*
X19287723Y6017958D01*
X19325977Y6025567D01*
X19351477Y6030639D01*
X19416485Y6030639D01*
X19441985Y6025567D01*
X19441985Y6025567D01*
G37*
G36*
X21403985Y6025567D02*
G01*
X21442239Y6017958D01*
X21502295Y5993081D01*
X21556344Y5956967D01*
X21602309Y5911002D01*
X21638423Y5856953D01*
X21663300Y5796897D01*
X21663656Y5795106D01*
X21675788Y5734115D01*
X21675981Y5733141D01*
X21675981Y5668137D01*
X21663300Y5604381D01*
X21638423Y5544325D01*
X21602309Y5490276D01*
X21556344Y5444311D01*
X21502295Y5408197D01*
X21442239Y5383320D01*
X21403985Y5375711D01*
X21378485Y5370639D01*
X21313477Y5370639D01*
X21287977Y5375711D01*
X21249723Y5383320D01*
X21189667Y5408197D01*
X21135618Y5444311D01*
X21089653Y5490276D01*
X21053539Y5544325D01*
X21028662Y5604381D01*
X21015981Y5668137D01*
X21015981Y5733141D01*
X21016175Y5734115D01*
X21028306Y5795106D01*
X21028662Y5796897D01*
X21053539Y5856953D01*
X21089653Y5911002D01*
X21135618Y5956967D01*
X21189667Y5993081D01*
X21249723Y6017958D01*
X21287977Y6025567D01*
X21313477Y6030639D01*
X21378485Y6030639D01*
X21403985Y6025567D01*
X21403985Y6025567D01*
G37*
G36*
X28016134Y6047279D02*
G01*
X28054388Y6039670D01*
X28114444Y6014793D01*
X28168493Y5978679D01*
X28214458Y5932714D01*
X28250572Y5878665D01*
X28275449Y5818609D01*
X28288130Y5754853D01*
X28288130Y5689849D01*
X28275449Y5626093D01*
X28250572Y5566037D01*
X28214458Y5511988D01*
X28168493Y5466023D01*
X28114444Y5429909D01*
X28054388Y5405032D01*
X28016134Y5397423D01*
X27990634Y5392351D01*
X27925626Y5392351D01*
X27900126Y5397423D01*
X27861872Y5405032D01*
X27801816Y5429909D01*
X27747767Y5466023D01*
X27701802Y5511988D01*
X27665688Y5566037D01*
X27640811Y5626093D01*
X27628130Y5689849D01*
X27628130Y5754853D01*
X27640811Y5818609D01*
X27665688Y5878665D01*
X27701802Y5932714D01*
X27747767Y5978679D01*
X27801816Y6014793D01*
X27861872Y6039670D01*
X27900126Y6047279D01*
X27925626Y6052351D01*
X27990634Y6052351D01*
X28016134Y6047279D01*
X28016134Y6047279D01*
G37*
G36*
X4704164Y6180928D02*
G01*
X4742418Y6173319D01*
X4802474Y6148442D01*
X4856523Y6112328D01*
X4902488Y6066363D01*
X4938602Y6012314D01*
X4963479Y5952258D01*
X4976160Y5888502D01*
X4976160Y5823498D01*
X4963479Y5759742D01*
X4938602Y5699686D01*
X4902488Y5645637D01*
X4856523Y5599672D01*
X4802474Y5563558D01*
X4742418Y5538681D01*
X4704164Y5531072D01*
X4678664Y5526000D01*
X4613656Y5526000D01*
X4588156Y5531072D01*
X4549902Y5538681D01*
X4489846Y5563558D01*
X4435797Y5599672D01*
X4389832Y5645637D01*
X4353718Y5699686D01*
X4328841Y5759742D01*
X4316160Y5823498D01*
X4316160Y5888502D01*
X4328841Y5952258D01*
X4353718Y6012314D01*
X4389832Y6066363D01*
X4435797Y6112328D01*
X4489846Y6148442D01*
X4549902Y6173319D01*
X4588156Y6180928D01*
X4613656Y6186000D01*
X4678664Y6186000D01*
X4704164Y6180928D01*
X4704164Y6180928D01*
G37*
G36*
X2534164Y6180928D02*
G01*
X2572418Y6173319D01*
X2632474Y6148442D01*
X2686523Y6112328D01*
X2732488Y6066363D01*
X2768602Y6012314D01*
X2793479Y5952258D01*
X2806160Y5888502D01*
X2806160Y5823498D01*
X2793479Y5759742D01*
X2768602Y5699686D01*
X2732488Y5645637D01*
X2686523Y5599672D01*
X2632474Y5563558D01*
X2572418Y5538681D01*
X2534164Y5531072D01*
X2508664Y5526000D01*
X2443656Y5526000D01*
X2418156Y5531072D01*
X2379902Y5538681D01*
X2319846Y5563558D01*
X2265797Y5599672D01*
X2219832Y5645637D01*
X2183718Y5699686D01*
X2158841Y5759742D01*
X2146160Y5823498D01*
X2146160Y5888502D01*
X2158841Y5952258D01*
X2183718Y6012314D01*
X2219832Y6066363D01*
X2265797Y6112328D01*
X2319846Y6148442D01*
X2379902Y6173319D01*
X2418156Y6180928D01*
X2443656Y6186000D01*
X2508664Y6186000D01*
X2534164Y6180928D01*
X2534164Y6180928D01*
G37*
G36*
X24778228Y6376362D02*
G01*
X24816482Y6368753D01*
X24876538Y6343876D01*
X24930587Y6307762D01*
X24976552Y6261797D01*
X25012666Y6207748D01*
X25037543Y6147692D01*
X25044577Y6112328D01*
X25050224Y6083938D01*
X25050224Y6018930D01*
X25049401Y6014793D01*
X25037543Y5955176D01*
X25012666Y5895120D01*
X24976552Y5841071D01*
X24930587Y5795106D01*
X24876538Y5758992D01*
X24816482Y5734115D01*
X24778228Y5726506D01*
X24752728Y5721434D01*
X24687720Y5721434D01*
X24662220Y5726506D01*
X24623966Y5734115D01*
X24563910Y5758992D01*
X24509861Y5795106D01*
X24463896Y5841071D01*
X24427782Y5895120D01*
X24402905Y5955176D01*
X24391047Y6014793D01*
X24390224Y6018930D01*
X24390224Y6083938D01*
X24395871Y6112328D01*
X24402905Y6147692D01*
X24427782Y6207748D01*
X24463896Y6261797D01*
X24509861Y6307762D01*
X24563910Y6343876D01*
X24623966Y6368753D01*
X24662220Y6376362D01*
X24687720Y6381434D01*
X24752728Y6381434D01*
X24778228Y6376362D01*
X24778228Y6376362D01*
G37*
G36*
X4754164Y7686928D02*
G01*
X4792418Y7679319D01*
X4852474Y7654442D01*
X4906523Y7618328D01*
X4952488Y7572363D01*
X4988602Y7518314D01*
X5013479Y7458258D01*
X5021088Y7420004D01*
X5026160Y7394504D01*
X5026160Y7329496D01*
X5023356Y7315400D01*
X5013479Y7265742D01*
X4988602Y7205686D01*
X4952488Y7151637D01*
X4906523Y7105672D01*
X4852474Y7069558D01*
X4792418Y7044681D01*
X4754164Y7037072D01*
X4728664Y7032000D01*
X4663656Y7032000D01*
X4638156Y7037072D01*
X4599902Y7044681D01*
X4539846Y7069558D01*
X4485797Y7105672D01*
X4439832Y7151637D01*
X4403718Y7205686D01*
X4378841Y7265742D01*
X4368964Y7315400D01*
X4366160Y7329496D01*
X4366160Y7394504D01*
X4371232Y7420004D01*
X4378841Y7458258D01*
X4403718Y7518314D01*
X4439832Y7572363D01*
X4485797Y7618328D01*
X4539846Y7654442D01*
X4599902Y7679319D01*
X4638156Y7686928D01*
X4663656Y7692000D01*
X4728664Y7692000D01*
X4754164Y7686928D01*
X4754164Y7686928D01*
G37*
G36*
X2504164Y7686928D02*
G01*
X2542418Y7679319D01*
X2602474Y7654442D01*
X2656523Y7618328D01*
X2702488Y7572363D01*
X2738602Y7518314D01*
X2763479Y7458258D01*
X2771088Y7420004D01*
X2776160Y7394504D01*
X2776160Y7329496D01*
X2773356Y7315400D01*
X2763479Y7265742D01*
X2738602Y7205686D01*
X2702488Y7151637D01*
X2656523Y7105672D01*
X2602474Y7069558D01*
X2542418Y7044681D01*
X2504164Y7037072D01*
X2478664Y7032000D01*
X2413656Y7032000D01*
X2388156Y7037072D01*
X2349902Y7044681D01*
X2289846Y7069558D01*
X2235797Y7105672D01*
X2189832Y7151637D01*
X2153718Y7205686D01*
X2128841Y7265742D01*
X2118964Y7315400D01*
X2116160Y7329496D01*
X2116160Y7394504D01*
X2121232Y7420004D01*
X2128841Y7458258D01*
X2153718Y7518314D01*
X2189832Y7572363D01*
X2235797Y7618328D01*
X2289846Y7654442D01*
X2349902Y7679319D01*
X2388156Y7686928D01*
X2413656Y7692000D01*
X2478664Y7692000D01*
X2504164Y7686928D01*
X2504164Y7686928D01*
G37*
G36*
X28912649Y7921449D02*
G01*
X28950903Y7913840D01*
X29010959Y7888963D01*
X29065008Y7852849D01*
X29110973Y7806884D01*
X29147087Y7752835D01*
X29171964Y7692779D01*
X29184645Y7629023D01*
X29184645Y7564019D01*
X29171964Y7500263D01*
X29147087Y7440207D01*
X29110973Y7386158D01*
X29065008Y7340193D01*
X29010959Y7304079D01*
X28950903Y7279202D01*
X28912649Y7271593D01*
X28887149Y7266521D01*
X28822141Y7266521D01*
X28796641Y7271593D01*
X28758387Y7279202D01*
X28698331Y7304079D01*
X28644282Y7340193D01*
X28598317Y7386158D01*
X28562203Y7440207D01*
X28537326Y7500263D01*
X28524645Y7564019D01*
X28524645Y7629023D01*
X28537326Y7692779D01*
X28562203Y7752835D01*
X28598317Y7806884D01*
X28644282Y7852849D01*
X28698331Y7888963D01*
X28758387Y7913840D01*
X28796641Y7921449D01*
X28822141Y7926521D01*
X28887149Y7926521D01*
X28912649Y7921449D01*
X28912649Y7921449D01*
G37*
G36*
X20378004Y7970328D02*
G01*
X20416258Y7962719D01*
X20476314Y7937842D01*
X20530363Y7901728D01*
X20576328Y7855763D01*
X20612442Y7801714D01*
X20637319Y7741658D01*
X20644894Y7703573D01*
X20649719Y7679319D01*
X20650000Y7677902D01*
X20650000Y7612898D01*
X20637319Y7549142D01*
X20612442Y7489086D01*
X20576328Y7435037D01*
X20530363Y7389072D01*
X20476314Y7352958D01*
X20416258Y7328081D01*
X20378004Y7320472D01*
X20352504Y7315400D01*
X20287496Y7315400D01*
X20261996Y7320472D01*
X20223742Y7328081D01*
X20163686Y7352958D01*
X20109637Y7389072D01*
X20063672Y7435037D01*
X20027558Y7489086D01*
X20002681Y7549142D01*
X19990000Y7612898D01*
X19990000Y7677902D01*
X19990282Y7679319D01*
X19995106Y7703573D01*
X20002681Y7741658D01*
X20027558Y7801714D01*
X20063672Y7855763D01*
X20109637Y7901728D01*
X20163686Y7937842D01*
X20223742Y7962719D01*
X20261996Y7970328D01*
X20287496Y7975400D01*
X20352504Y7975400D01*
X20378004Y7970328D01*
X20378004Y7970328D01*
G37*
G36*
X26074923Y7995997D02*
G01*
X26113177Y7988388D01*
X26173233Y7963511D01*
X26227282Y7927397D01*
X26273247Y7881432D01*
X26309361Y7827383D01*
X26334238Y7767327D01*
X26339344Y7741655D01*
X26346919Y7703573D01*
X26346919Y7638565D01*
X26341847Y7613065D01*
X26334238Y7574811D01*
X26309361Y7514755D01*
X26273247Y7460706D01*
X26227282Y7414741D01*
X26173233Y7378627D01*
X26113177Y7353750D01*
X26074923Y7346141D01*
X26049423Y7341069D01*
X25984415Y7341069D01*
X25958915Y7346141D01*
X25920661Y7353750D01*
X25860605Y7378627D01*
X25806556Y7414741D01*
X25760591Y7460706D01*
X25724477Y7514755D01*
X25699600Y7574811D01*
X25691991Y7613065D01*
X25686919Y7638565D01*
X25686919Y7703573D01*
X25694494Y7741655D01*
X25699600Y7767327D01*
X25724477Y7827383D01*
X25760591Y7881432D01*
X25806556Y7927397D01*
X25860605Y7963511D01*
X25920661Y7988388D01*
X25958915Y7995997D01*
X25984415Y8001069D01*
X26049423Y8001069D01*
X26074923Y7995997D01*
X26074923Y7995997D01*
G37*
G36*
X6945231Y8648258D02*
G01*
X6983637Y8640619D01*
X7043693Y8615742D01*
X7097742Y8579628D01*
X7143707Y8533663D01*
X7179821Y8479614D01*
X7204698Y8419558D01*
X7207097Y8407496D01*
X7217379Y8355804D01*
X7217379Y8290796D01*
X7212307Y8265296D01*
X7204698Y8227042D01*
X7179821Y8166986D01*
X7143707Y8112937D01*
X7097742Y8066972D01*
X7043693Y8030858D01*
X6983637Y8005981D01*
X6945383Y7998372D01*
X6919883Y7993300D01*
X6854875Y7993300D01*
X6829375Y7998372D01*
X6791121Y8005981D01*
X6731065Y8030858D01*
X6677016Y8066972D01*
X6631051Y8112937D01*
X6594937Y8166986D01*
X6570060Y8227042D01*
X6562451Y8265296D01*
X6557379Y8290796D01*
X6557379Y8355804D01*
X6567661Y8407496D01*
X6570060Y8419558D01*
X6594937Y8479614D01*
X6631051Y8533663D01*
X6677016Y8579628D01*
X6731065Y8615742D01*
X6791121Y8640619D01*
X6829527Y8648258D01*
X6854875Y8653300D01*
X6919883Y8653300D01*
X6945231Y8648258D01*
X6945231Y8648258D01*
G37*
G36*
X5924164Y8676928D02*
G01*
X5962418Y8669319D01*
X6022474Y8644442D01*
X6076523Y8608328D01*
X6122488Y8562363D01*
X6158602Y8508314D01*
X6183479Y8448258D01*
X6196160Y8384502D01*
X6196160Y8319498D01*
X6183479Y8255742D01*
X6158602Y8195686D01*
X6122488Y8141637D01*
X6076523Y8095672D01*
X6022474Y8059558D01*
X5962418Y8034681D01*
X5924164Y8027072D01*
X5898664Y8022000D01*
X5833656Y8022000D01*
X5808156Y8027072D01*
X5769902Y8034681D01*
X5709846Y8059558D01*
X5655797Y8095672D01*
X5609832Y8141637D01*
X5573718Y8195686D01*
X5548841Y8255742D01*
X5536160Y8319498D01*
X5536160Y8384502D01*
X5548841Y8448258D01*
X5573718Y8508314D01*
X5609832Y8562363D01*
X5655797Y8608328D01*
X5709846Y8644442D01*
X5769902Y8669319D01*
X5808156Y8676928D01*
X5833656Y8682000D01*
X5898664Y8682000D01*
X5924164Y8676928D01*
X5924164Y8676928D01*
G37*
G36*
X8907383Y8739342D02*
G01*
X8945637Y8731733D01*
X9005693Y8706856D01*
X9059742Y8670742D01*
X9105707Y8624777D01*
X9141821Y8570728D01*
X9166698Y8510672D01*
X9179379Y8446916D01*
X9179379Y8381912D01*
X9166698Y8318156D01*
X9141821Y8258100D01*
X9105707Y8204051D01*
X9059742Y8158086D01*
X9005693Y8121972D01*
X8945637Y8097095D01*
X8907383Y8089486D01*
X8881883Y8084414D01*
X8816875Y8084414D01*
X8791375Y8089486D01*
X8753121Y8097095D01*
X8693065Y8121972D01*
X8639016Y8158086D01*
X8593051Y8204051D01*
X8556937Y8258100D01*
X8532060Y8318156D01*
X8519379Y8381912D01*
X8519379Y8446916D01*
X8532060Y8510672D01*
X8556937Y8570728D01*
X8593051Y8624777D01*
X8639016Y8670742D01*
X8693065Y8706856D01*
X8753121Y8731733D01*
X8791375Y8739342D01*
X8816875Y8744414D01*
X8881883Y8744414D01*
X8907383Y8739342D01*
X8907383Y8739342D01*
G37*
G36*
X19729004Y8764928D02*
G01*
X19767258Y8757319D01*
X19827314Y8732442D01*
X19881363Y8696328D01*
X19927328Y8650363D01*
X19963442Y8596314D01*
X19988319Y8536258D01*
X19993877Y8508314D01*
X19999586Y8479614D01*
X20001000Y8472502D01*
X20001000Y8407498D01*
X19988319Y8343742D01*
X19963442Y8283686D01*
X19927328Y8229637D01*
X19881363Y8183672D01*
X19827314Y8147558D01*
X19767258Y8122681D01*
X19729004Y8115072D01*
X19703504Y8110000D01*
X19638496Y8110000D01*
X19612996Y8115072D01*
X19574742Y8122681D01*
X19514686Y8147558D01*
X19460637Y8183672D01*
X19414672Y8229637D01*
X19378558Y8283686D01*
X19353681Y8343742D01*
X19341000Y8407498D01*
X19341000Y8472502D01*
X19342415Y8479614D01*
X19348123Y8508314D01*
X19353681Y8536258D01*
X19378558Y8596314D01*
X19414672Y8650363D01*
X19460637Y8696328D01*
X19514686Y8732442D01*
X19574742Y8757319D01*
X19612996Y8764928D01*
X19638496Y8770000D01*
X19703504Y8770000D01*
X19729004Y8764928D01*
X19729004Y8764928D01*
G37*
G36*
X18951204Y8764928D02*
G01*
X18989458Y8757319D01*
X19049514Y8732442D01*
X19103563Y8696328D01*
X19149528Y8650363D01*
X19185642Y8596314D01*
X19210519Y8536258D01*
X19216077Y8508314D01*
X19221786Y8479614D01*
X19223200Y8472502D01*
X19223200Y8407498D01*
X19210519Y8343742D01*
X19185642Y8283686D01*
X19149528Y8229637D01*
X19103563Y8183672D01*
X19049514Y8147558D01*
X18989458Y8122681D01*
X18951204Y8115072D01*
X18925704Y8110000D01*
X18860696Y8110000D01*
X18835196Y8115072D01*
X18796942Y8122681D01*
X18736886Y8147558D01*
X18682837Y8183672D01*
X18636872Y8229637D01*
X18600758Y8283686D01*
X18575881Y8343742D01*
X18563200Y8407498D01*
X18563200Y8472502D01*
X18564615Y8479614D01*
X18570323Y8508314D01*
X18575881Y8536258D01*
X18600758Y8596314D01*
X18636872Y8650363D01*
X18682837Y8696328D01*
X18736886Y8732442D01*
X18796942Y8757319D01*
X18835196Y8764928D01*
X18860696Y8770000D01*
X18925704Y8770000D01*
X18951204Y8764928D01*
X18951204Y8764928D01*
G37*
G36*
X1324164Y8876928D02*
G01*
X1362418Y8869319D01*
X1422474Y8844442D01*
X1476523Y8808328D01*
X1522488Y8762363D01*
X1558602Y8708314D01*
X1583479Y8648258D01*
X1589946Y8615742D01*
X1595139Y8589638D01*
X1596160Y8584502D01*
X1596160Y8519498D01*
X1583479Y8455742D01*
X1558602Y8395686D01*
X1522488Y8341637D01*
X1476523Y8295672D01*
X1422474Y8259558D01*
X1362418Y8234681D01*
X1324164Y8227072D01*
X1298664Y8222000D01*
X1233656Y8222000D01*
X1208156Y8227072D01*
X1169902Y8234681D01*
X1109846Y8259558D01*
X1055797Y8295672D01*
X1009832Y8341637D01*
X973718Y8395686D01*
X948841Y8455742D01*
X936160Y8519498D01*
X936160Y8584502D01*
X937182Y8589638D01*
X942374Y8615742D01*
X948841Y8648258D01*
X973718Y8708314D01*
X1009832Y8762363D01*
X1055797Y8808328D01*
X1109846Y8844442D01*
X1169902Y8869319D01*
X1208156Y8876928D01*
X1233656Y8882000D01*
X1298664Y8882000D01*
X1324164Y8876928D01*
X1324164Y8876928D01*
G37*
G36*
X18204004Y9124928D02*
G01*
X18242258Y9117319D01*
X18302314Y9092442D01*
X18356363Y9056328D01*
X18402328Y9010363D01*
X18438442Y8956314D01*
X18463319Y8896258D01*
X18466155Y8882000D01*
X18476000Y8832504D01*
X18476000Y8767496D01*
X18472619Y8750500D01*
X18463319Y8703742D01*
X18438442Y8643686D01*
X18402328Y8589637D01*
X18356363Y8543672D01*
X18302314Y8507558D01*
X18242258Y8482681D01*
X18204004Y8475072D01*
X18178504Y8470000D01*
X18113496Y8470000D01*
X18087996Y8475072D01*
X18049742Y8482681D01*
X17989686Y8507558D01*
X17935637Y8543672D01*
X17889672Y8589637D01*
X17853558Y8643686D01*
X17828681Y8703742D01*
X17819381Y8750500D01*
X17816000Y8767496D01*
X17816000Y8832504D01*
X17825845Y8882000D01*
X17828681Y8896258D01*
X17853558Y8956314D01*
X17889672Y9010363D01*
X17935637Y9056328D01*
X17989686Y9092442D01*
X18049742Y9117319D01*
X18087996Y9124928D01*
X18113496Y9130000D01*
X18178504Y9130000D01*
X18204004Y9124928D01*
X18204004Y9124928D01*
G37*
G36*
X17426204Y9124928D02*
G01*
X17464458Y9117319D01*
X17524514Y9092442D01*
X17578563Y9056328D01*
X17624528Y9010363D01*
X17660642Y8956314D01*
X17685519Y8896258D01*
X17688355Y8882000D01*
X17698200Y8832504D01*
X17698200Y8767496D01*
X17694819Y8750500D01*
X17685519Y8703742D01*
X17660642Y8643686D01*
X17624528Y8589637D01*
X17578563Y8543672D01*
X17524514Y8507558D01*
X17464458Y8482681D01*
X17426204Y8475072D01*
X17400704Y8470000D01*
X17335696Y8470000D01*
X17310196Y8475072D01*
X17271942Y8482681D01*
X17211886Y8507558D01*
X17157837Y8543672D01*
X17111872Y8589637D01*
X17075758Y8643686D01*
X17050881Y8703742D01*
X17041581Y8750500D01*
X17038200Y8767496D01*
X17038200Y8832504D01*
X17048045Y8882000D01*
X17050881Y8896258D01*
X17075758Y8956314D01*
X17111872Y9010363D01*
X17157837Y9056328D01*
X17211886Y9092442D01*
X17271942Y9117319D01*
X17310196Y9124928D01*
X17335696Y9130000D01*
X17400704Y9130000D01*
X17426204Y9124928D01*
X17426204Y9124928D01*
G37*
G36*
X10955800Y9249418D02*
G01*
X10994054Y9241809D01*
X11054110Y9216932D01*
X11108159Y9180818D01*
X11154124Y9134853D01*
X11190238Y9080804D01*
X11215115Y9020748D01*
X11222375Y8984245D01*
X11227796Y8956994D01*
X11227796Y8891986D01*
X11223450Y8870138D01*
X11215115Y8828232D01*
X11190238Y8768176D01*
X11154124Y8714127D01*
X11108159Y8668162D01*
X11054110Y8632048D01*
X10994054Y8607171D01*
X10955800Y8599562D01*
X10930300Y8594490D01*
X10865292Y8594490D01*
X10839792Y8599562D01*
X10801538Y8607171D01*
X10741482Y8632048D01*
X10687433Y8668162D01*
X10641468Y8714127D01*
X10605354Y8768176D01*
X10580477Y8828232D01*
X10572142Y8870138D01*
X10567796Y8891986D01*
X10567796Y8956994D01*
X10573217Y8984245D01*
X10580477Y9020748D01*
X10605354Y9080804D01*
X10641468Y9134853D01*
X10687433Y9180818D01*
X10741482Y9216932D01*
X10801538Y9241809D01*
X10839792Y9249418D01*
X10865292Y9254490D01*
X10930300Y9254490D01*
X10955800Y9249418D01*
X10955800Y9249418D01*
G37*
G36*
X22135684Y9405428D02*
G01*
X22173938Y9397819D01*
X22233994Y9372942D01*
X22288043Y9336828D01*
X22334008Y9290863D01*
X22370122Y9236814D01*
X22394999Y9176758D01*
X22401704Y9143049D01*
X22406822Y9117319D01*
X22407680Y9113002D01*
X22407680Y9047998D01*
X22394999Y8984242D01*
X22370122Y8924186D01*
X22334008Y8870137D01*
X22288043Y8824172D01*
X22233994Y8788058D01*
X22173938Y8763181D01*
X22135684Y8755572D01*
X22110184Y8750500D01*
X22045176Y8750500D01*
X22019676Y8755572D01*
X21981422Y8763181D01*
X21921366Y8788058D01*
X21867317Y8824172D01*
X21821352Y8870137D01*
X21785238Y8924186D01*
X21760361Y8984242D01*
X21747680Y9047998D01*
X21747680Y9113002D01*
X21748539Y9117319D01*
X21753656Y9143049D01*
X21760361Y9176758D01*
X21785238Y9236814D01*
X21821352Y9290863D01*
X21867317Y9336828D01*
X21921366Y9372942D01*
X21981422Y9397819D01*
X22019676Y9405428D01*
X22045176Y9410500D01*
X22110184Y9410500D01*
X22135684Y9405428D01*
X22135684Y9405428D01*
G37*
G36*
X13003987Y9760419D02*
G01*
X13042241Y9752810D01*
X13102297Y9727933D01*
X13156346Y9691819D01*
X13202311Y9645854D01*
X13238425Y9591805D01*
X13263302Y9531749D01*
X13270911Y9493495D01*
X13275983Y9467995D01*
X13275983Y9402987D01*
X13271294Y9379416D01*
X13263302Y9339233D01*
X13238425Y9279177D01*
X13202311Y9225128D01*
X13156346Y9179163D01*
X13102297Y9143049D01*
X13042241Y9118172D01*
X13003987Y9110563D01*
X12978487Y9105491D01*
X12913479Y9105491D01*
X12887979Y9110563D01*
X12849725Y9118172D01*
X12789669Y9143049D01*
X12735620Y9179163D01*
X12689655Y9225128D01*
X12653541Y9279177D01*
X12628664Y9339233D01*
X12620672Y9379416D01*
X12615983Y9402987D01*
X12615983Y9467995D01*
X12621055Y9493495D01*
X12628664Y9531749D01*
X12653541Y9591805D01*
X12689655Y9645854D01*
X12735620Y9691819D01*
X12789669Y9727933D01*
X12849725Y9752810D01*
X12887979Y9760419D01*
X12913479Y9765491D01*
X12978487Y9765491D01*
X13003987Y9760419D01*
X13003987Y9760419D01*
G37*
G36*
X14965987Y9760419D02*
G01*
X15004241Y9752810D01*
X15064297Y9727933D01*
X15118346Y9691819D01*
X15164311Y9645854D01*
X15200425Y9591805D01*
X15225302Y9531749D01*
X15232911Y9493495D01*
X15237983Y9467995D01*
X15237983Y9402987D01*
X15233294Y9379416D01*
X15225302Y9339233D01*
X15200425Y9279177D01*
X15164311Y9225128D01*
X15118346Y9179163D01*
X15064297Y9143049D01*
X15004241Y9118172D01*
X14965987Y9110563D01*
X14940487Y9105491D01*
X14875479Y9105491D01*
X14849979Y9110563D01*
X14811725Y9118172D01*
X14751669Y9143049D01*
X14697620Y9179163D01*
X14651655Y9225128D01*
X14615541Y9279177D01*
X14590664Y9339233D01*
X14582672Y9379416D01*
X14577983Y9402987D01*
X14577983Y9467995D01*
X14583055Y9493495D01*
X14590664Y9531749D01*
X14615541Y9591805D01*
X14651655Y9645854D01*
X14697620Y9691819D01*
X14751669Y9727933D01*
X14811725Y9752810D01*
X14849979Y9760419D01*
X14875479Y9765491D01*
X14940487Y9765491D01*
X14965987Y9760419D01*
X14965987Y9760419D01*
G37*
G36*
X16309170Y9926108D02*
G01*
X16353358Y9917319D01*
X16413414Y9892442D01*
X16467463Y9856328D01*
X16513428Y9810363D01*
X16549542Y9756314D01*
X16574419Y9696258D01*
X16579071Y9672869D01*
X16586151Y9637276D01*
X16587100Y9632502D01*
X16587100Y9567498D01*
X16574419Y9503742D01*
X16549542Y9443686D01*
X16513428Y9389637D01*
X16467463Y9343672D01*
X16413414Y9307558D01*
X16353358Y9282681D01*
X16315104Y9275072D01*
X16289604Y9270000D01*
X16224596Y9270000D01*
X16199096Y9275072D01*
X16160842Y9282681D01*
X16100786Y9307558D01*
X16046737Y9343672D01*
X16000772Y9389637D01*
X15964658Y9443686D01*
X15939781Y9503742D01*
X15927100Y9567498D01*
X15927100Y9632502D01*
X15928050Y9637276D01*
X15935129Y9672869D01*
X15939781Y9696258D01*
X15964658Y9756314D01*
X16000772Y9810363D01*
X16046737Y9856328D01*
X16100786Y9892442D01*
X16160842Y9917319D01*
X16205030Y9926108D01*
X16224596Y9930000D01*
X16289604Y9930000D01*
X16309170Y9926108D01*
X16309170Y9926108D01*
G37*
G36*
X29279360Y9965293D02*
G01*
X29317614Y9957684D01*
X29377670Y9932807D01*
X29431719Y9896693D01*
X29477684Y9850728D01*
X29513798Y9796679D01*
X29538675Y9736623D01*
X29540403Y9727933D01*
X29547587Y9691819D01*
X29551356Y9672867D01*
X29551356Y9607863D01*
X29538675Y9544107D01*
X29513798Y9484051D01*
X29477684Y9430002D01*
X29431719Y9384037D01*
X29377670Y9347923D01*
X29317614Y9323046D01*
X29279360Y9315437D01*
X29253860Y9310365D01*
X29188852Y9310365D01*
X29163352Y9315437D01*
X29125098Y9323046D01*
X29065042Y9347923D01*
X29010993Y9384037D01*
X28965028Y9430002D01*
X28928914Y9484051D01*
X28904037Y9544107D01*
X28891356Y9607863D01*
X28891356Y9672867D01*
X28895126Y9691819D01*
X28902309Y9727933D01*
X28904037Y9736623D01*
X28928914Y9796679D01*
X28965028Y9850728D01*
X29010993Y9896693D01*
X29065042Y9932807D01*
X29125098Y9957684D01*
X29163352Y9965293D01*
X29188852Y9970365D01*
X29253860Y9970365D01*
X29279360Y9965293D01*
X29279360Y9965293D01*
G37*
G36*
X21635304Y9994708D02*
G01*
X21673558Y9987099D01*
X21733614Y9962222D01*
X21787663Y9926108D01*
X21833628Y9880143D01*
X21869742Y9826094D01*
X21894619Y9766038D01*
X21900470Y9736620D01*
X21907300Y9702284D01*
X21907300Y9637276D01*
X21906350Y9632502D01*
X21894619Y9573522D01*
X21869742Y9513466D01*
X21833628Y9459417D01*
X21787663Y9413452D01*
X21733614Y9377338D01*
X21673558Y9352461D01*
X21635304Y9344852D01*
X21609804Y9339780D01*
X21544796Y9339780D01*
X21519296Y9344852D01*
X21481042Y9352461D01*
X21420986Y9377338D01*
X21366937Y9413452D01*
X21320972Y9459417D01*
X21284858Y9513466D01*
X21259981Y9573522D01*
X21248250Y9632502D01*
X21247300Y9637276D01*
X21247300Y9702284D01*
X21254130Y9736620D01*
X21259981Y9766038D01*
X21284858Y9826094D01*
X21320972Y9880143D01*
X21366937Y9926108D01*
X21420986Y9962222D01*
X21481042Y9987099D01*
X21519296Y9994708D01*
X21544796Y9999780D01*
X21609804Y9999780D01*
X21635304Y9994708D01*
X21635304Y9994708D01*
G37*
G36*
X26620303Y9996786D02*
G01*
X26658557Y9989177D01*
X26718613Y9964300D01*
X26772662Y9928186D01*
X26818627Y9882221D01*
X26854741Y9828172D01*
X26879618Y9768116D01*
X26887227Y9729862D01*
X26892299Y9704362D01*
X26892299Y9639354D01*
X26890936Y9632504D01*
X26879618Y9575600D01*
X26854741Y9515544D01*
X26818627Y9461495D01*
X26772662Y9415530D01*
X26718613Y9379416D01*
X26658557Y9354539D01*
X26620303Y9346930D01*
X26594803Y9341858D01*
X26529795Y9341858D01*
X26504295Y9346930D01*
X26466041Y9354539D01*
X26405985Y9379416D01*
X26351936Y9415530D01*
X26305971Y9461495D01*
X26269857Y9515544D01*
X26244980Y9575600D01*
X26233662Y9632504D01*
X26232299Y9639354D01*
X26232299Y9704362D01*
X26237371Y9729862D01*
X26244980Y9768116D01*
X26269857Y9828172D01*
X26305971Y9882221D01*
X26351936Y9928186D01*
X26405985Y9964300D01*
X26466041Y9989177D01*
X26504295Y9996786D01*
X26529795Y10001858D01*
X26594803Y10001858D01*
X26620303Y9996786D01*
X26620303Y9996786D01*
G37*
G36*
X1324164Y11076928D02*
G01*
X1362418Y11069319D01*
X1422474Y11044442D01*
X1476523Y11008328D01*
X1522488Y10962363D01*
X1558602Y10908314D01*
X1583479Y10848258D01*
X1591088Y10810004D01*
X1594720Y10791745D01*
X1596160Y10784502D01*
X1596160Y10719498D01*
X1583479Y10655742D01*
X1558602Y10595686D01*
X1522488Y10541637D01*
X1476523Y10495672D01*
X1422474Y10459558D01*
X1362418Y10434681D01*
X1324164Y10427072D01*
X1298664Y10422000D01*
X1233656Y10422000D01*
X1208156Y10427072D01*
X1169902Y10434681D01*
X1109846Y10459558D01*
X1055797Y10495672D01*
X1009832Y10541637D01*
X973718Y10595686D01*
X948841Y10655742D01*
X936160Y10719498D01*
X936160Y10784502D01*
X937601Y10791745D01*
X941232Y10810004D01*
X948841Y10848258D01*
X973718Y10908314D01*
X1009832Y10962363D01*
X1055797Y11008328D01*
X1109846Y11044442D01*
X1169902Y11069319D01*
X1208156Y11076928D01*
X1233656Y11082000D01*
X1298664Y11082000D01*
X1324164Y11076928D01*
X1324164Y11076928D01*
G37*
G36*
X25656456Y11212928D02*
G01*
X25694710Y11205319D01*
X25754766Y11180442D01*
X25808815Y11144328D01*
X25854780Y11098363D01*
X25890894Y11044314D01*
X25915771Y10984258D01*
X25923380Y10946004D01*
X25928452Y10920504D01*
X25928452Y10855496D01*
X25923380Y10829996D01*
X25915771Y10791742D01*
X25890894Y10731686D01*
X25854780Y10677637D01*
X25808815Y10631672D01*
X25754766Y10595558D01*
X25694710Y10570681D01*
X25656456Y10563072D01*
X25630956Y10558000D01*
X25565948Y10558000D01*
X25540448Y10563072D01*
X25502194Y10570681D01*
X25442138Y10595558D01*
X25388089Y10631672D01*
X25342124Y10677637D01*
X25306010Y10731686D01*
X25281133Y10791742D01*
X25273524Y10829996D01*
X25268452Y10855496D01*
X25268452Y10920504D01*
X25273524Y10946004D01*
X25281133Y10984258D01*
X25306010Y11044314D01*
X25342124Y11098363D01*
X25388089Y11144328D01*
X25442138Y11180442D01*
X25502194Y11205319D01*
X25540448Y11212928D01*
X25565948Y11218000D01*
X25630956Y11218000D01*
X25656456Y11212928D01*
X25656456Y11212928D01*
G37*
G36*
X23694456Y11212928D02*
G01*
X23732710Y11205319D01*
X23792766Y11180442D01*
X23846815Y11144328D01*
X23892780Y11098363D01*
X23928894Y11044314D01*
X23953771Y10984258D01*
X23961380Y10946004D01*
X23966452Y10920504D01*
X23966452Y10855496D01*
X23961380Y10829996D01*
X23953771Y10791742D01*
X23928894Y10731686D01*
X23892780Y10677637D01*
X23846815Y10631672D01*
X23792766Y10595558D01*
X23732710Y10570681D01*
X23694456Y10563072D01*
X23668956Y10558000D01*
X23603948Y10558000D01*
X23578448Y10563072D01*
X23540194Y10570681D01*
X23480138Y10595558D01*
X23426089Y10631672D01*
X23380124Y10677637D01*
X23344010Y10731686D01*
X23319133Y10791742D01*
X23311524Y10829996D01*
X23306452Y10855496D01*
X23306452Y10920504D01*
X23311524Y10946004D01*
X23319133Y10984258D01*
X23344010Y11044314D01*
X23380124Y11098363D01*
X23426089Y11144328D01*
X23480138Y11180442D01*
X23540194Y11205319D01*
X23578448Y11212928D01*
X23603948Y11218000D01*
X23668956Y11218000D01*
X23694456Y11212928D01*
X23694456Y11212928D01*
G37*
G36*
X5924164Y11276928D02*
G01*
X5962418Y11269319D01*
X6022474Y11244442D01*
X6076523Y11208328D01*
X6122488Y11162363D01*
X6158602Y11108314D01*
X6183479Y11048258D01*
X6196160Y10984502D01*
X6196160Y10919498D01*
X6183479Y10855742D01*
X6158602Y10795686D01*
X6122488Y10741637D01*
X6076523Y10695672D01*
X6022474Y10659558D01*
X5962418Y10634681D01*
X5924164Y10627072D01*
X5898664Y10622000D01*
X5833656Y10622000D01*
X5808156Y10627072D01*
X5769902Y10634681D01*
X5709846Y10659558D01*
X5655797Y10695672D01*
X5609832Y10741637D01*
X5573718Y10795686D01*
X5548841Y10855742D01*
X5536160Y10919498D01*
X5536160Y10984502D01*
X5548841Y11048258D01*
X5573718Y11108314D01*
X5609832Y11162363D01*
X5655797Y11208328D01*
X5709846Y11244442D01*
X5769902Y11269319D01*
X5808156Y11276928D01*
X5833656Y11282000D01*
X5898664Y11282000D01*
X5924164Y11276928D01*
X5924164Y11276928D01*
G37*
G36*
X7286416Y11318532D02*
G01*
X7324670Y11310923D01*
X7384726Y11286046D01*
X7438775Y11249932D01*
X7484740Y11203967D01*
X7520854Y11149918D01*
X7545731Y11089862D01*
X7553340Y11051608D01*
X7556124Y11037612D01*
X7558412Y11026106D01*
X7558412Y10961102D01*
X7545731Y10897346D01*
X7520854Y10837290D01*
X7484740Y10783241D01*
X7438775Y10737276D01*
X7384726Y10701162D01*
X7324670Y10676285D01*
X7286416Y10668676D01*
X7260916Y10663604D01*
X7195908Y10663604D01*
X7170408Y10668676D01*
X7132154Y10676285D01*
X7072098Y10701162D01*
X7018049Y10737276D01*
X6972084Y10783241D01*
X6935970Y10837290D01*
X6911093Y10897346D01*
X6898412Y10961102D01*
X6898412Y11026106D01*
X6900701Y11037612D01*
X6903484Y11051608D01*
X6911093Y11089862D01*
X6935970Y11149918D01*
X6972084Y11203967D01*
X7018049Y11249932D01*
X7072098Y11286046D01*
X7132154Y11310923D01*
X7170408Y11318532D01*
X7195908Y11323604D01*
X7260916Y11323604D01*
X7286416Y11318532D01*
X7286416Y11318532D01*
G37*
G36*
X19415104Y11424928D02*
G01*
X19453358Y11417319D01*
X19513414Y11392442D01*
X19567463Y11356328D01*
X19613428Y11310363D01*
X19649542Y11256314D01*
X19674419Y11196258D01*
X19687100Y11132502D01*
X19687100Y11067498D01*
X19674419Y11003742D01*
X19649542Y10943686D01*
X19613428Y10889637D01*
X19567463Y10843672D01*
X19513414Y10807558D01*
X19453358Y10782681D01*
X19415104Y10775072D01*
X19389604Y10770000D01*
X19324596Y10770000D01*
X19299096Y10775072D01*
X19260842Y10782681D01*
X19200786Y10807558D01*
X19146737Y10843672D01*
X19100772Y10889637D01*
X19064658Y10943686D01*
X19039781Y11003742D01*
X19027100Y11067498D01*
X19027100Y11132502D01*
X19039781Y11196258D01*
X19064658Y11256314D01*
X19100772Y11310363D01*
X19146737Y11356328D01*
X19200786Y11392442D01*
X19260842Y11417319D01*
X19299096Y11424928D01*
X19324596Y11430000D01*
X19389604Y11430000D01*
X19415104Y11424928D01*
X19415104Y11424928D01*
G37*
G36*
X17215104Y12124928D02*
G01*
X17253358Y12117319D01*
X17313414Y12092442D01*
X17367463Y12056328D01*
X17413428Y12010363D01*
X17449542Y11956314D01*
X17474419Y11896258D01*
X17477650Y11880012D01*
X17485602Y11840037D01*
X17487100Y11832502D01*
X17487100Y11767498D01*
X17474419Y11703742D01*
X17449542Y11643686D01*
X17413428Y11589637D01*
X17367463Y11543672D01*
X17313414Y11507558D01*
X17253358Y11482681D01*
X17253353Y11482680D01*
X17252520Y11482335D01*
X17246469Y11479101D01*
X17241165Y11474748D01*
X17236812Y11469445D01*
X17233578Y11463394D01*
X17231587Y11456828D01*
X17230914Y11450000D01*
X17231586Y11443172D01*
X17233578Y11436607D01*
X17236812Y11430556D01*
X17241165Y11425252D01*
X17246468Y11420899D01*
X17252520Y11417665D01*
X17253353Y11417320D01*
X17253358Y11417319D01*
X17313414Y11392442D01*
X17367463Y11356328D01*
X17413428Y11310363D01*
X17449542Y11256314D01*
X17474419Y11196258D01*
X17487100Y11132502D01*
X17487100Y11067498D01*
X17474419Y11003742D01*
X17449542Y10943686D01*
X17413428Y10889637D01*
X17367463Y10843672D01*
X17313414Y10807558D01*
X17253358Y10782681D01*
X17215104Y10775072D01*
X17189604Y10770000D01*
X17124596Y10770000D01*
X17099096Y10775072D01*
X17060842Y10782681D01*
X17000786Y10807558D01*
X16946737Y10843672D01*
X16900772Y10889637D01*
X16864658Y10943686D01*
X16839781Y11003742D01*
X16827100Y11067498D01*
X16827100Y11132502D01*
X16839781Y11196258D01*
X16864658Y11256314D01*
X16900772Y11310363D01*
X16946737Y11356328D01*
X17000786Y11392442D01*
X17060842Y11417319D01*
X17060847Y11417320D01*
X17061680Y11417665D01*
X17067731Y11420899D01*
X17073035Y11425252D01*
X17077388Y11430555D01*
X17080622Y11436606D01*
X17082613Y11443172D01*
X17083286Y11450000D01*
X17082614Y11456828D01*
X17080622Y11463393D01*
X17077388Y11469444D01*
X17073035Y11474748D01*
X17067732Y11479101D01*
X17061680Y11482335D01*
X17060847Y11482680D01*
X17060842Y11482681D01*
X17000786Y11507558D01*
X16946737Y11543672D01*
X16900772Y11589637D01*
X16864658Y11643686D01*
X16839781Y11703742D01*
X16827100Y11767498D01*
X16827100Y11832502D01*
X16828599Y11840037D01*
X16836550Y11880012D01*
X16839781Y11896258D01*
X16864658Y11956314D01*
X16900772Y12010363D01*
X16946737Y12056328D01*
X17000786Y12092442D01*
X17060842Y12117319D01*
X17099096Y12124928D01*
X17124596Y12130000D01*
X17189604Y12130000D01*
X17215104Y12124928D01*
X17215104Y12124928D01*
G37*
G36*
X9290912Y11572902D02*
G01*
X9329166Y11565293D01*
X9389222Y11540416D01*
X9443271Y11504302D01*
X9489236Y11458337D01*
X9525350Y11404288D01*
X9550227Y11344232D01*
X9556964Y11310362D01*
X9562908Y11280478D01*
X9562908Y11215470D01*
X9559086Y11196258D01*
X9550227Y11151716D01*
X9525350Y11091660D01*
X9489236Y11037611D01*
X9443271Y10991646D01*
X9389222Y10955532D01*
X9329166Y10930655D01*
X9290912Y10923046D01*
X9265412Y10917974D01*
X9200404Y10917974D01*
X9174904Y10923046D01*
X9136650Y10930655D01*
X9076594Y10955532D01*
X9022545Y10991646D01*
X8976580Y11037611D01*
X8940466Y11091660D01*
X8915589Y11151716D01*
X8906730Y11196258D01*
X8902908Y11215470D01*
X8902908Y11280478D01*
X8908852Y11310362D01*
X8915589Y11344232D01*
X8940466Y11404288D01*
X8976580Y11458337D01*
X9022545Y11504302D01*
X9076594Y11540416D01*
X9136650Y11565293D01*
X9174904Y11572902D01*
X9200404Y11577974D01*
X9265412Y11577974D01*
X9290912Y11572902D01*
X9290912Y11572902D01*
G37*
G36*
X29282894Y12051005D02*
G01*
X29333110Y12041017D01*
X29393166Y12016140D01*
X29447215Y11980026D01*
X29493180Y11934061D01*
X29529294Y11880012D01*
X29554171Y11819956D01*
X29558998Y11795686D01*
X29566503Y11757958D01*
X29566852Y11756200D01*
X29566852Y11691196D01*
X29554171Y11627440D01*
X29529294Y11567384D01*
X29493180Y11513335D01*
X29447215Y11467370D01*
X29393166Y11431256D01*
X29333110Y11406379D01*
X29294856Y11398770D01*
X29269356Y11393698D01*
X29204348Y11393698D01*
X29178848Y11398770D01*
X29140594Y11406379D01*
X29080538Y11431256D01*
X29026489Y11467370D01*
X28980524Y11513335D01*
X28944410Y11567384D01*
X28919533Y11627440D01*
X28906852Y11691196D01*
X28906852Y11756200D01*
X28907202Y11757958D01*
X28914706Y11795686D01*
X28919533Y11819956D01*
X28944410Y11880012D01*
X28980524Y11934061D01*
X29026489Y11980026D01*
X29080538Y12016140D01*
X29140594Y12041017D01*
X29190810Y12051005D01*
X29204348Y12053698D01*
X29269356Y12053698D01*
X29282894Y12051005D01*
X29282894Y12051005D01*
G37*
G36*
X11337445Y12083491D02*
G01*
X11375699Y12075882D01*
X11435755Y12051005D01*
X11489804Y12014891D01*
X11535769Y11968926D01*
X11571883Y11914877D01*
X11596760Y11854821D01*
X11609441Y11791065D01*
X11609441Y11726061D01*
X11596760Y11662305D01*
X11571883Y11602249D01*
X11535769Y11548200D01*
X11489804Y11502235D01*
X11435755Y11466121D01*
X11375699Y11441244D01*
X11337445Y11433635D01*
X11311945Y11428563D01*
X11246937Y11428563D01*
X11221437Y11433635D01*
X11183183Y11441244D01*
X11123127Y11466121D01*
X11069078Y11502235D01*
X11023113Y11548200D01*
X10986999Y11602249D01*
X10962122Y11662305D01*
X10949441Y11726061D01*
X10949441Y11791065D01*
X10962122Y11854821D01*
X10986999Y11914877D01*
X11023113Y11968926D01*
X11069078Y12014891D01*
X11123127Y12051005D01*
X11183183Y12075882D01*
X11221437Y12083491D01*
X11246937Y12088563D01*
X11311945Y12088563D01*
X11337445Y12083491D01*
X11337445Y12083491D01*
G37*
G36*
X4704164Y12276928D02*
G01*
X4742418Y12269319D01*
X4802474Y12244442D01*
X4856523Y12208328D01*
X4902488Y12162363D01*
X4938602Y12108314D01*
X4963479Y12048258D01*
X4976160Y11984502D01*
X4976160Y11919498D01*
X4963479Y11855742D01*
X4938602Y11795686D01*
X4902488Y11741637D01*
X4856523Y11695672D01*
X4802474Y11659558D01*
X4742418Y11634681D01*
X4704164Y11627072D01*
X4678664Y11622000D01*
X4613656Y11622000D01*
X4588156Y11627072D01*
X4549902Y11634681D01*
X4489846Y11659558D01*
X4435797Y11695672D01*
X4389832Y11741637D01*
X4353718Y11795686D01*
X4328841Y11855742D01*
X4316160Y11919498D01*
X4316160Y11984502D01*
X4328841Y12048258D01*
X4353718Y12108314D01*
X4389832Y12162363D01*
X4435797Y12208328D01*
X4489846Y12244442D01*
X4549902Y12269319D01*
X4588156Y12276928D01*
X4613656Y12282000D01*
X4678664Y12282000D01*
X4704164Y12276928D01*
X4704164Y12276928D01*
G37*
G36*
X2534164Y12276928D02*
G01*
X2572418Y12269319D01*
X2632474Y12244442D01*
X2686523Y12208328D01*
X2732488Y12162363D01*
X2768602Y12108314D01*
X2793479Y12048258D01*
X2806160Y11984502D01*
X2806160Y11919498D01*
X2793479Y11855742D01*
X2768602Y11795686D01*
X2732488Y11741637D01*
X2686523Y11695672D01*
X2632474Y11659558D01*
X2572418Y11634681D01*
X2534164Y11627072D01*
X2508664Y11622000D01*
X2443656Y11622000D01*
X2418156Y11627072D01*
X2379902Y11634681D01*
X2319846Y11659558D01*
X2265797Y11695672D01*
X2219832Y11741637D01*
X2183718Y11795686D01*
X2158841Y11855742D01*
X2146160Y11919498D01*
X2146160Y11984502D01*
X2158841Y12048258D01*
X2183718Y12108314D01*
X2219832Y12162363D01*
X2265797Y12208328D01*
X2319846Y12244442D01*
X2379902Y12269319D01*
X2418156Y12276928D01*
X2443656Y12282000D01*
X2508664Y12282000D01*
X2534164Y12276928D01*
X2534164Y12276928D01*
G37*
G36*
X13038422Y12375328D02*
G01*
X13076676Y12367719D01*
X13136732Y12342842D01*
X13190781Y12306728D01*
X13236746Y12260763D01*
X13272860Y12206714D01*
X13297737Y12146658D01*
X13304504Y12112637D01*
X13310418Y12082904D01*
X13310418Y12017896D01*
X13308919Y12010362D01*
X13297737Y11954142D01*
X13272860Y11894086D01*
X13236746Y11840037D01*
X13190781Y11794072D01*
X13136732Y11757958D01*
X13076676Y11733081D01*
X13038422Y11725472D01*
X13012922Y11720400D01*
X12947914Y11720400D01*
X12922414Y11725472D01*
X12884160Y11733081D01*
X12824104Y11757958D01*
X12770055Y11794072D01*
X12724090Y11840037D01*
X12687976Y11894086D01*
X12663099Y11954142D01*
X12651917Y12010362D01*
X12650418Y12017896D01*
X12650418Y12082904D01*
X12656332Y12112637D01*
X12663099Y12146658D01*
X12687976Y12206714D01*
X12724090Y12260763D01*
X12770055Y12306728D01*
X12824104Y12342842D01*
X12884160Y12367719D01*
X12922414Y12375328D01*
X12947914Y12380400D01*
X13012922Y12380400D01*
X13038422Y12375328D01*
X13038422Y12375328D01*
G37*
G36*
X15071704Y13359128D02*
G01*
X15109958Y13351519D01*
X15170014Y13326642D01*
X15224063Y13290528D01*
X15270028Y13244563D01*
X15306142Y13190514D01*
X15331019Y13130458D01*
X15343700Y13066702D01*
X15343700Y13001698D01*
X15331019Y12937942D01*
X15306142Y12877886D01*
X15270028Y12823837D01*
X15224063Y12777872D01*
X15170014Y12741758D01*
X15109958Y12716881D01*
X15090069Y12712925D01*
X15083506Y12710935D01*
X15077455Y12707701D01*
X15072152Y12703348D01*
X15067799Y12698044D01*
X15064565Y12691993D01*
X15062573Y12685428D01*
X15061901Y12678600D01*
X15062574Y12671772D01*
X15064565Y12665206D01*
X15067799Y12659155D01*
X15072152Y12653852D01*
X15077456Y12649499D01*
X15083507Y12646265D01*
X15090069Y12644275D01*
X15109958Y12640319D01*
X15170014Y12615442D01*
X15224063Y12579328D01*
X15270028Y12533363D01*
X15306142Y12479314D01*
X15331019Y12419258D01*
X15333346Y12407558D01*
X15340817Y12370000D01*
X15343700Y12355502D01*
X15343700Y12290498D01*
X15331019Y12226742D01*
X15306142Y12166686D01*
X15270028Y12112637D01*
X15224063Y12066672D01*
X15170014Y12030558D01*
X15109958Y12005681D01*
X15071704Y11998072D01*
X15046204Y11993000D01*
X14981196Y11993000D01*
X14955696Y11998072D01*
X14917442Y12005681D01*
X14857386Y12030558D01*
X14803337Y12066672D01*
X14757372Y12112637D01*
X14721258Y12166686D01*
X14696381Y12226742D01*
X14683700Y12290498D01*
X14683700Y12355502D01*
X14686584Y12370000D01*
X14694054Y12407558D01*
X14696381Y12419258D01*
X14721258Y12479314D01*
X14757372Y12533363D01*
X14803337Y12579328D01*
X14857386Y12615442D01*
X14917442Y12640319D01*
X14937331Y12644275D01*
X14943894Y12646265D01*
X14949945Y12649499D01*
X14955248Y12653852D01*
X14959601Y12659156D01*
X14962835Y12665207D01*
X14964827Y12671772D01*
X14965499Y12678600D01*
X14964826Y12685428D01*
X14962835Y12691994D01*
X14959601Y12698045D01*
X14955248Y12703348D01*
X14949944Y12707701D01*
X14943893Y12710935D01*
X14937331Y12712925D01*
X14917442Y12716881D01*
X14857386Y12741758D01*
X14803337Y12777872D01*
X14757372Y12823837D01*
X14721258Y12877886D01*
X14696381Y12937942D01*
X14683700Y13001698D01*
X14683700Y13066702D01*
X14696381Y13130458D01*
X14721258Y13190514D01*
X14757372Y13244563D01*
X14803337Y13290528D01*
X14857386Y13326642D01*
X14917442Y13351519D01*
X14955696Y13359128D01*
X14981196Y13364200D01*
X15046204Y13364200D01*
X15071704Y13359128D01*
X15071704Y13359128D01*
G37*
G36*
X19415104Y13024928D02*
G01*
X19453358Y13017319D01*
X19513414Y12992442D01*
X19567463Y12956328D01*
X19613428Y12910363D01*
X19649542Y12856314D01*
X19674419Y12796258D01*
X19678076Y12777872D01*
X19687100Y12732504D01*
X19687100Y12667496D01*
X19683520Y12649499D01*
X19674419Y12603742D01*
X19649542Y12543686D01*
X19613428Y12489637D01*
X19567463Y12443672D01*
X19513414Y12407558D01*
X19453358Y12382681D01*
X19415104Y12375072D01*
X19389604Y12370000D01*
X19324596Y12370000D01*
X19299096Y12375072D01*
X19260842Y12382681D01*
X19200786Y12407558D01*
X19146737Y12443672D01*
X19100772Y12489637D01*
X19064658Y12543686D01*
X19039781Y12603742D01*
X19030680Y12649499D01*
X19027100Y12667496D01*
X19027100Y12732504D01*
X19036124Y12777872D01*
X19039781Y12796258D01*
X19064658Y12856314D01*
X19100772Y12910363D01*
X19146737Y12956328D01*
X19200786Y12992442D01*
X19260842Y13017319D01*
X19299096Y13024928D01*
X19324596Y13030000D01*
X19389604Y13030000D01*
X19415104Y13024928D01*
X19415104Y13024928D01*
G37*
G36*
X13038422Y13670728D02*
G01*
X13076676Y13663119D01*
X13136732Y13638242D01*
X13190781Y13602128D01*
X13236746Y13556163D01*
X13272860Y13502114D01*
X13297737Y13442058D01*
X13302811Y13416548D01*
X13310418Y13378304D01*
X13310418Y13313296D01*
X13305889Y13290528D01*
X13297737Y13249542D01*
X13272860Y13189486D01*
X13236746Y13135437D01*
X13190781Y13089472D01*
X13136732Y13053358D01*
X13076676Y13028481D01*
X13038422Y13020872D01*
X13012922Y13015800D01*
X12947914Y13015800D01*
X12922414Y13020872D01*
X12884160Y13028481D01*
X12824104Y13053358D01*
X12770055Y13089472D01*
X12724090Y13135437D01*
X12687976Y13189486D01*
X12663099Y13249542D01*
X12654947Y13290528D01*
X12650418Y13313296D01*
X12650418Y13378304D01*
X12658025Y13416548D01*
X12663099Y13442058D01*
X12687976Y13502114D01*
X12724090Y13556163D01*
X12770055Y13602128D01*
X12824104Y13638242D01*
X12884160Y13663119D01*
X12922414Y13670728D01*
X12947914Y13675800D01*
X13012922Y13675800D01*
X13038422Y13670728D01*
X13038422Y13670728D01*
G37*
G36*
X4754164Y13782928D02*
G01*
X4792418Y13775319D01*
X4852474Y13750442D01*
X4906523Y13714328D01*
X4952488Y13668363D01*
X4988602Y13614314D01*
X5013479Y13554258D01*
X5021088Y13516004D01*
X5026160Y13490504D01*
X5026160Y13425496D01*
X5025814Y13423759D01*
X5013479Y13361742D01*
X4988602Y13301686D01*
X4952488Y13247637D01*
X4906523Y13201672D01*
X4852474Y13165558D01*
X4792418Y13140681D01*
X4754164Y13133072D01*
X4728664Y13128000D01*
X4663656Y13128000D01*
X4638156Y13133072D01*
X4599902Y13140681D01*
X4539846Y13165558D01*
X4485797Y13201672D01*
X4439832Y13247637D01*
X4403718Y13301686D01*
X4378841Y13361742D01*
X4366506Y13423759D01*
X4366160Y13425496D01*
X4366160Y13490504D01*
X4371232Y13516004D01*
X4378841Y13554258D01*
X4403718Y13614314D01*
X4439832Y13668363D01*
X4485797Y13714328D01*
X4539846Y13750442D01*
X4599902Y13775319D01*
X4638156Y13782928D01*
X4663656Y13788000D01*
X4728664Y13788000D01*
X4754164Y13782928D01*
X4754164Y13782928D01*
G37*
G36*
X2504164Y13782928D02*
G01*
X2542418Y13775319D01*
X2602474Y13750442D01*
X2656523Y13714328D01*
X2702488Y13668363D01*
X2738602Y13614314D01*
X2763479Y13554258D01*
X2771088Y13516004D01*
X2776160Y13490504D01*
X2776160Y13425496D01*
X2775814Y13423759D01*
X2763479Y13361742D01*
X2738602Y13301686D01*
X2702488Y13247637D01*
X2656523Y13201672D01*
X2602474Y13165558D01*
X2542418Y13140681D01*
X2504164Y13133072D01*
X2478664Y13128000D01*
X2413656Y13128000D01*
X2388156Y13133072D01*
X2349902Y13140681D01*
X2289846Y13165558D01*
X2235797Y13201672D01*
X2189832Y13247637D01*
X2153718Y13301686D01*
X2128841Y13361742D01*
X2116506Y13423759D01*
X2116160Y13425496D01*
X2116160Y13490504D01*
X2121232Y13516004D01*
X2128841Y13554258D01*
X2153718Y13614314D01*
X2189832Y13668363D01*
X2235797Y13714328D01*
X2289846Y13750442D01*
X2349902Y13775319D01*
X2388156Y13782928D01*
X2413656Y13788000D01*
X2478664Y13788000D01*
X2504164Y13782928D01*
X2504164Y13782928D01*
G37*
G36*
X17215104Y14624928D02*
G01*
X17253358Y14617319D01*
X17313414Y14592442D01*
X17367463Y14556328D01*
X17413428Y14510363D01*
X17449542Y14456314D01*
X17474419Y14396258D01*
X17487100Y14332502D01*
X17487100Y14267498D01*
X17474419Y14203742D01*
X17449542Y14143686D01*
X17413428Y14089637D01*
X17367463Y14043672D01*
X17313414Y14007558D01*
X17253358Y13982681D01*
X17253353Y13982680D01*
X17252520Y13982335D01*
X17246469Y13979101D01*
X17241165Y13974748D01*
X17236812Y13969445D01*
X17233578Y13963394D01*
X17231587Y13956828D01*
X17230914Y13950000D01*
X17231586Y13943172D01*
X17233578Y13936607D01*
X17236812Y13930556D01*
X17241165Y13925252D01*
X17246468Y13920899D01*
X17252520Y13917665D01*
X17253353Y13917320D01*
X17253358Y13917319D01*
X17313414Y13892442D01*
X17367463Y13856328D01*
X17413428Y13810363D01*
X17449542Y13756314D01*
X17474419Y13696258D01*
X17478488Y13675800D01*
X17487100Y13632504D01*
X17487100Y13567496D01*
X17484467Y13554258D01*
X17474419Y13503742D01*
X17449542Y13443686D01*
X17413428Y13389637D01*
X17367463Y13343672D01*
X17313414Y13307558D01*
X17253358Y13282681D01*
X17215104Y13275072D01*
X17189604Y13270000D01*
X17124596Y13270000D01*
X17099096Y13275072D01*
X17060842Y13282681D01*
X17000786Y13307558D01*
X16946737Y13343672D01*
X16900772Y13389637D01*
X16864658Y13443686D01*
X16839781Y13503742D01*
X16829733Y13554258D01*
X16827100Y13567496D01*
X16827100Y13632504D01*
X16835712Y13675800D01*
X16839781Y13696258D01*
X16864658Y13756314D01*
X16900772Y13810363D01*
X16946737Y13856328D01*
X17000786Y13892442D01*
X17060842Y13917319D01*
X17060847Y13917320D01*
X17061680Y13917665D01*
X17067731Y13920899D01*
X17073035Y13925252D01*
X17077388Y13930555D01*
X17080622Y13936606D01*
X17082613Y13943172D01*
X17083286Y13950000D01*
X17082614Y13956828D01*
X17080622Y13963393D01*
X17077388Y13969444D01*
X17073035Y13974748D01*
X17067732Y13979101D01*
X17061680Y13982335D01*
X17060847Y13982680D01*
X17060842Y13982681D01*
X17000786Y14007558D01*
X16946737Y14043672D01*
X16900772Y14089637D01*
X16864658Y14143686D01*
X16839781Y14203742D01*
X16827100Y14267498D01*
X16827100Y14332502D01*
X16839781Y14396258D01*
X16864658Y14456314D01*
X16900772Y14510363D01*
X16946737Y14556328D01*
X17000786Y14592442D01*
X17060842Y14617319D01*
X17099096Y14624928D01*
X17124596Y14630000D01*
X17189604Y14630000D01*
X17215104Y14624928D01*
X17215104Y14624928D01*
G37*
G36*
X11362479Y13959050D02*
G01*
X11400733Y13951441D01*
X11460789Y13926564D01*
X11514838Y13890450D01*
X11560803Y13844485D01*
X11596917Y13790436D01*
X11621794Y13730380D01*
X11625043Y13714044D01*
X11634475Y13666626D01*
X11634475Y13601618D01*
X11629403Y13576118D01*
X11621794Y13537864D01*
X11596917Y13477808D01*
X11560803Y13423759D01*
X11514838Y13377794D01*
X11460789Y13341680D01*
X11400733Y13316803D01*
X11362479Y13309194D01*
X11336979Y13304122D01*
X11271971Y13304122D01*
X11246471Y13309194D01*
X11208217Y13316803D01*
X11148161Y13341680D01*
X11094112Y13377794D01*
X11048147Y13423759D01*
X11012033Y13477808D01*
X10987156Y13537864D01*
X10979547Y13576118D01*
X10974475Y13601618D01*
X10974475Y13666626D01*
X10983907Y13714044D01*
X10987156Y13730380D01*
X11012033Y13790436D01*
X11048147Y13844485D01*
X11094112Y13890450D01*
X11148161Y13926564D01*
X11208217Y13951441D01*
X11246471Y13959050D01*
X11271971Y13964122D01*
X11336979Y13964122D01*
X11362479Y13959050D01*
X11362479Y13959050D01*
G37*
G36*
X29294856Y14071476D02*
G01*
X29333110Y14063867D01*
X29393166Y14038990D01*
X29447215Y14002876D01*
X29493180Y13956911D01*
X29529294Y13902862D01*
X29554171Y13842806D01*
X29556228Y13832463D01*
X29566852Y13779052D01*
X29566852Y13714044D01*
X29561780Y13688544D01*
X29554171Y13650290D01*
X29529294Y13590234D01*
X29493180Y13536185D01*
X29447215Y13490220D01*
X29393166Y13454106D01*
X29333110Y13429229D01*
X29294856Y13421620D01*
X29269356Y13416548D01*
X29204348Y13416548D01*
X29178848Y13421620D01*
X29140594Y13429229D01*
X29080538Y13454106D01*
X29026489Y13490220D01*
X28980524Y13536185D01*
X28944410Y13590234D01*
X28919533Y13650290D01*
X28911924Y13688544D01*
X28906852Y13714044D01*
X28906852Y13779052D01*
X28917476Y13832463D01*
X28919533Y13842806D01*
X28944410Y13902862D01*
X28980524Y13956911D01*
X29026489Y14002876D01*
X29080538Y14038990D01*
X29140594Y14063867D01*
X29178848Y14071476D01*
X29204348Y14076548D01*
X29269356Y14076548D01*
X29294856Y14071476D01*
X29294856Y14071476D01*
G37*
G36*
X9299307Y14474710D02*
G01*
X9337561Y14467101D01*
X9397617Y14442224D01*
X9451666Y14406110D01*
X9497631Y14360145D01*
X9533745Y14306096D01*
X9558622Y14246040D01*
X9560293Y14237638D01*
X9571303Y14182286D01*
X9571303Y14117278D01*
X9566231Y14091778D01*
X9558622Y14053524D01*
X9533745Y13993468D01*
X9497631Y13939419D01*
X9451666Y13893454D01*
X9397617Y13857340D01*
X9337561Y13832463D01*
X9299307Y13824854D01*
X9273807Y13819782D01*
X9208799Y13819782D01*
X9183299Y13824854D01*
X9145045Y13832463D01*
X9084989Y13857340D01*
X9030940Y13893454D01*
X8984975Y13939419D01*
X8948861Y13993468D01*
X8923984Y14053524D01*
X8916375Y14091778D01*
X8911303Y14117278D01*
X8911303Y14182286D01*
X8922313Y14237638D01*
X8923984Y14246040D01*
X8948861Y14306096D01*
X8984975Y14360145D01*
X9030940Y14406110D01*
X9084989Y14442224D01*
X9145045Y14467101D01*
X9183299Y14474710D01*
X9208799Y14479782D01*
X9273807Y14479782D01*
X9299307Y14474710D01*
X9299307Y14474710D01*
G37*
G36*
X19415104Y14624928D02*
G01*
X19453358Y14617319D01*
X19513414Y14592442D01*
X19567463Y14556328D01*
X19613428Y14510363D01*
X19649542Y14456314D01*
X19674419Y14396258D01*
X19687100Y14332502D01*
X19687100Y14267498D01*
X19674419Y14203742D01*
X19649542Y14143686D01*
X19613428Y14089637D01*
X19567463Y14043672D01*
X19513414Y14007558D01*
X19453358Y13982681D01*
X19415104Y13975072D01*
X19389604Y13970000D01*
X19324596Y13970000D01*
X19299096Y13975072D01*
X19260842Y13982681D01*
X19200786Y14007558D01*
X19146737Y14043672D01*
X19100772Y14089637D01*
X19064658Y14143686D01*
X19039781Y14203742D01*
X19027100Y14267498D01*
X19027100Y14332502D01*
X19039781Y14396258D01*
X19064658Y14456314D01*
X19100772Y14510363D01*
X19146737Y14556328D01*
X19200786Y14592442D01*
X19260842Y14617319D01*
X19299096Y14624928D01*
X19324596Y14630000D01*
X19389604Y14630000D01*
X19415104Y14624928D01*
X19415104Y14624928D01*
G37*
G36*
X7286415Y14731313D02*
G01*
X7324669Y14723704D01*
X7384725Y14698827D01*
X7438774Y14662713D01*
X7484739Y14616748D01*
X7520853Y14562699D01*
X7545730Y14502643D01*
X7547909Y14491686D01*
X7558411Y14438889D01*
X7558411Y14373881D01*
X7554766Y14355558D01*
X7545730Y14310127D01*
X7520853Y14250071D01*
X7484739Y14196022D01*
X7438774Y14150057D01*
X7384725Y14113943D01*
X7324669Y14089066D01*
X7286415Y14081457D01*
X7260915Y14076385D01*
X7195907Y14076385D01*
X7170407Y14081457D01*
X7132153Y14089066D01*
X7072097Y14113943D01*
X7018048Y14150057D01*
X6972083Y14196022D01*
X6935969Y14250071D01*
X6911092Y14310127D01*
X6902056Y14355558D01*
X6898411Y14373881D01*
X6898411Y14438889D01*
X6908913Y14491686D01*
X6911092Y14502643D01*
X6935969Y14562699D01*
X6972083Y14616748D01*
X7018048Y14662713D01*
X7072097Y14698827D01*
X7132153Y14723704D01*
X7170407Y14731313D01*
X7195907Y14736385D01*
X7260915Y14736385D01*
X7286415Y14731313D01*
X7286415Y14731313D01*
G37*
G36*
X5924164Y14772928D02*
G01*
X5962418Y14765319D01*
X6022474Y14740442D01*
X6076523Y14704328D01*
X6122488Y14658363D01*
X6158602Y14604314D01*
X6183479Y14544258D01*
X6196160Y14480502D01*
X6196160Y14415498D01*
X6183479Y14351742D01*
X6158602Y14291686D01*
X6122488Y14237637D01*
X6076523Y14191672D01*
X6022474Y14155558D01*
X5962418Y14130681D01*
X5924164Y14123072D01*
X5898664Y14118000D01*
X5833656Y14118000D01*
X5808156Y14123072D01*
X5769902Y14130681D01*
X5709846Y14155558D01*
X5655797Y14191672D01*
X5609832Y14237637D01*
X5573718Y14291686D01*
X5548841Y14351742D01*
X5536160Y14415498D01*
X5536160Y14480502D01*
X5548841Y14544258D01*
X5573718Y14604314D01*
X5609832Y14658363D01*
X5655797Y14704328D01*
X5709846Y14740442D01*
X5769902Y14765319D01*
X5808156Y14772928D01*
X5833656Y14778000D01*
X5898664Y14778000D01*
X5924164Y14772928D01*
X5924164Y14772928D01*
G37*
G36*
X1324164Y14972928D02*
G01*
X1362418Y14965319D01*
X1422474Y14940442D01*
X1476523Y14904328D01*
X1522488Y14858363D01*
X1558602Y14804314D01*
X1583479Y14744258D01*
X1596160Y14680502D01*
X1596160Y14615498D01*
X1583479Y14551742D01*
X1558602Y14491686D01*
X1522488Y14437637D01*
X1476523Y14391672D01*
X1422474Y14355558D01*
X1362418Y14330681D01*
X1324164Y14323072D01*
X1298664Y14318000D01*
X1233656Y14318000D01*
X1208156Y14323072D01*
X1169902Y14330681D01*
X1109846Y14355558D01*
X1055797Y14391672D01*
X1009832Y14437637D01*
X973718Y14491686D01*
X948841Y14551742D01*
X936160Y14615498D01*
X936160Y14680502D01*
X948841Y14744258D01*
X973718Y14804314D01*
X1009832Y14858363D01*
X1055797Y14904328D01*
X1109846Y14940442D01*
X1169902Y14965319D01*
X1208156Y14972928D01*
X1233656Y14978000D01*
X1298664Y14978000D01*
X1324164Y14972928D01*
X1324164Y14972928D01*
G37*
G36*
X27618456Y15836928D02*
G01*
X27656710Y15829319D01*
X27716766Y15804442D01*
X27770815Y15768328D01*
X27816780Y15722363D01*
X27852894Y15668314D01*
X27877771Y15608258D01*
X27885380Y15570004D01*
X27886766Y15563037D01*
X27890452Y15544502D01*
X27890452Y15479498D01*
X27877771Y15415742D01*
X27852894Y15355686D01*
X27816780Y15301637D01*
X27770815Y15255672D01*
X27716766Y15219558D01*
X27656710Y15194681D01*
X27618456Y15187072D01*
X27592956Y15182000D01*
X27527948Y15182000D01*
X27502448Y15187072D01*
X27464194Y15194681D01*
X27404138Y15219558D01*
X27350089Y15255672D01*
X27304124Y15301637D01*
X27268010Y15355686D01*
X27243133Y15415742D01*
X27230452Y15479498D01*
X27230452Y15544502D01*
X27234139Y15563037D01*
X27235524Y15570004D01*
X27243133Y15608258D01*
X27268010Y15668314D01*
X27304124Y15722363D01*
X27350089Y15768328D01*
X27404138Y15804442D01*
X27464194Y15829319D01*
X27502448Y15836928D01*
X27527948Y15842000D01*
X27592956Y15842000D01*
X27618456Y15836928D01*
X27618456Y15836928D01*
G37*
G36*
X25656456Y15836928D02*
G01*
X25694710Y15829319D01*
X25754766Y15804442D01*
X25808815Y15768328D01*
X25854780Y15722363D01*
X25890894Y15668314D01*
X25915771Y15608258D01*
X25923380Y15570004D01*
X25924766Y15563037D01*
X25928452Y15544502D01*
X25928452Y15479498D01*
X25915771Y15415742D01*
X25890894Y15355686D01*
X25854780Y15301637D01*
X25808815Y15255672D01*
X25754766Y15219558D01*
X25694710Y15194681D01*
X25656456Y15187072D01*
X25630956Y15182000D01*
X25565948Y15182000D01*
X25540448Y15187072D01*
X25502194Y15194681D01*
X25442138Y15219558D01*
X25388089Y15255672D01*
X25342124Y15301637D01*
X25306010Y15355686D01*
X25281133Y15415742D01*
X25268452Y15479498D01*
X25268452Y15544502D01*
X25272139Y15563037D01*
X25273524Y15570004D01*
X25281133Y15608258D01*
X25306010Y15668314D01*
X25342124Y15722363D01*
X25388089Y15768328D01*
X25442138Y15804442D01*
X25502194Y15829319D01*
X25540448Y15836928D01*
X25565948Y15842000D01*
X25630956Y15842000D01*
X25656456Y15836928D01*
X25656456Y15836928D01*
G37*
G36*
X23694456Y15836928D02*
G01*
X23732710Y15829319D01*
X23792766Y15804442D01*
X23846815Y15768328D01*
X23892780Y15722363D01*
X23928894Y15668314D01*
X23953771Y15608258D01*
X23961380Y15570004D01*
X23962766Y15563037D01*
X23966452Y15544502D01*
X23966452Y15479498D01*
X23953771Y15415742D01*
X23928894Y15355686D01*
X23892780Y15301637D01*
X23846815Y15255672D01*
X23792766Y15219558D01*
X23732710Y15194681D01*
X23694456Y15187072D01*
X23668956Y15182000D01*
X23603948Y15182000D01*
X23578448Y15187072D01*
X23540194Y15194681D01*
X23480138Y15219558D01*
X23426089Y15255672D01*
X23380124Y15301637D01*
X23344010Y15355686D01*
X23319133Y15415742D01*
X23306452Y15479498D01*
X23306452Y15544502D01*
X23310139Y15563037D01*
X23311524Y15570004D01*
X23319133Y15608258D01*
X23344010Y15668314D01*
X23380124Y15722363D01*
X23426089Y15768328D01*
X23480138Y15804442D01*
X23540194Y15829319D01*
X23578448Y15836928D01*
X23603948Y15842000D01*
X23668956Y15842000D01*
X23694456Y15836928D01*
X23694456Y15836928D01*
G37*
G36*
X28912404Y16098328D02*
G01*
X28950658Y16090719D01*
X29010714Y16065842D01*
X29064763Y16029728D01*
X29110728Y15983763D01*
X29146842Y15929714D01*
X29171719Y15869658D01*
X29174607Y15855138D01*
X29184400Y15805904D01*
X29184400Y15740896D01*
X29180713Y15722362D01*
X29171719Y15677142D01*
X29146842Y15617086D01*
X29110728Y15563037D01*
X29064763Y15517072D01*
X29010714Y15480958D01*
X28950658Y15456081D01*
X28912404Y15448472D01*
X28886904Y15443400D01*
X28821896Y15443400D01*
X28796396Y15448472D01*
X28758142Y15456081D01*
X28698086Y15480958D01*
X28644037Y15517072D01*
X28598072Y15563037D01*
X28561958Y15617086D01*
X28537081Y15677142D01*
X28528087Y15722362D01*
X28524400Y15740896D01*
X28524400Y15805904D01*
X28534193Y15855138D01*
X28537081Y15869658D01*
X28561958Y15929714D01*
X28598072Y15983763D01*
X28644037Y16029728D01*
X28698086Y16065842D01*
X28758142Y16090719D01*
X28796396Y16098328D01*
X28821896Y16103400D01*
X28886904Y16103400D01*
X28912404Y16098328D01*
X28912404Y16098328D01*
G37*
G36*
X16312104Y16099928D02*
G01*
X16350358Y16092319D01*
X16410414Y16067442D01*
X16464463Y16031328D01*
X16510428Y15985363D01*
X16546542Y15931314D01*
X16571419Y15871258D01*
X16572516Y15865742D01*
X16584100Y15807504D01*
X16584100Y15742496D01*
X16582708Y15735500D01*
X16571419Y15678742D01*
X16546542Y15618686D01*
X16510428Y15564637D01*
X16464463Y15518672D01*
X16410414Y15482558D01*
X16350358Y15457681D01*
X16312104Y15450072D01*
X16286604Y15445000D01*
X16221596Y15445000D01*
X16196096Y15450072D01*
X16157842Y15457681D01*
X16097786Y15482558D01*
X16043737Y15518672D01*
X15997772Y15564637D01*
X15961658Y15618686D01*
X15936781Y15678742D01*
X15925492Y15735500D01*
X15924100Y15742496D01*
X15924100Y15807504D01*
X15935684Y15865742D01*
X15936781Y15871258D01*
X15961658Y15931314D01*
X15997772Y15985363D01*
X16043737Y16031328D01*
X16097786Y16067442D01*
X16157842Y16092319D01*
X16196096Y16099928D01*
X16221596Y16105000D01*
X16286604Y16105000D01*
X16312104Y16099928D01*
X16312104Y16099928D01*
G37*
G36*
X15000422Y16286928D02*
G01*
X15038676Y16279319D01*
X15098732Y16254442D01*
X15152781Y16218328D01*
X15198746Y16172363D01*
X15234860Y16118314D01*
X15259737Y16058258D01*
X15272418Y15994502D01*
X15272418Y15929498D01*
X15259737Y15865742D01*
X15234860Y15805686D01*
X15198746Y15751637D01*
X15152781Y15705672D01*
X15098732Y15669558D01*
X15038676Y15644681D01*
X15000422Y15637072D01*
X14974922Y15632000D01*
X14909914Y15632000D01*
X14884414Y15637072D01*
X14846160Y15644681D01*
X14786104Y15669558D01*
X14732055Y15705672D01*
X14686090Y15751637D01*
X14649976Y15805686D01*
X14625099Y15865742D01*
X14612418Y15929498D01*
X14612418Y15994502D01*
X14625099Y16058258D01*
X14649976Y16118314D01*
X14686090Y16172363D01*
X14732055Y16218328D01*
X14786104Y16254442D01*
X14846160Y16279319D01*
X14884414Y16286928D01*
X14909914Y16292000D01*
X14974922Y16292000D01*
X15000422Y16286928D01*
X15000422Y16286928D01*
G37*
G36*
X13038422Y16286928D02*
G01*
X13076676Y16279319D01*
X13136732Y16254442D01*
X13190781Y16218328D01*
X13236746Y16172363D01*
X13272860Y16118314D01*
X13297737Y16058258D01*
X13310418Y15994502D01*
X13310418Y15929498D01*
X13297737Y15865742D01*
X13272860Y15805686D01*
X13236746Y15751637D01*
X13190781Y15705672D01*
X13136732Y15669558D01*
X13076676Y15644681D01*
X13038422Y15637072D01*
X13012922Y15632000D01*
X12947914Y15632000D01*
X12922414Y15637072D01*
X12884160Y15644681D01*
X12824104Y15669558D01*
X12770055Y15705672D01*
X12724090Y15751637D01*
X12687976Y15805686D01*
X12663099Y15865742D01*
X12650418Y15929498D01*
X12650418Y15994502D01*
X12663099Y16058258D01*
X12687976Y16118314D01*
X12724090Y16172363D01*
X12770055Y16218328D01*
X12824104Y16254442D01*
X12884160Y16279319D01*
X12922414Y16286928D01*
X12947914Y16292000D01*
X13012922Y16292000D01*
X13038422Y16286928D01*
X13038422Y16286928D01*
G37*
G36*
X21965504Y16390428D02*
G01*
X22003758Y16382819D01*
X22063814Y16357942D01*
X22117863Y16321828D01*
X22163828Y16275863D01*
X22199942Y16221814D01*
X22224819Y16161758D01*
X22229028Y16140596D01*
X22236427Y16103400D01*
X22237500Y16098002D01*
X22237500Y16032998D01*
X22224819Y15969242D01*
X22199942Y15909186D01*
X22163828Y15855137D01*
X22117863Y15809172D01*
X22063814Y15773058D01*
X22003758Y15748181D01*
X21967141Y15740898D01*
X21940004Y15735500D01*
X21874996Y15735500D01*
X21847859Y15740898D01*
X21811242Y15748181D01*
X21751186Y15773058D01*
X21697137Y15809172D01*
X21651172Y15855137D01*
X21615058Y15909186D01*
X21590181Y15969242D01*
X21577500Y16032998D01*
X21577500Y16098002D01*
X21578574Y16103400D01*
X21585972Y16140596D01*
X21590181Y16161758D01*
X21615058Y16221814D01*
X21651172Y16275863D01*
X21697137Y16321828D01*
X21751186Y16357942D01*
X21811242Y16382819D01*
X21849496Y16390428D01*
X21874996Y16395500D01*
X21940004Y16395500D01*
X21965504Y16390428D01*
X21965504Y16390428D01*
G37*
G36*
X10973055Y16795524D02*
G01*
X11011309Y16787915D01*
X11071365Y16763038D01*
X11125414Y16726924D01*
X11171379Y16680959D01*
X11207493Y16626910D01*
X11232370Y16566854D01*
X11239565Y16530681D01*
X11245051Y16503100D01*
X11245051Y16438092D01*
X11242772Y16426637D01*
X11232370Y16374338D01*
X11207493Y16314282D01*
X11171379Y16260233D01*
X11125414Y16214268D01*
X11071365Y16178154D01*
X11011309Y16153277D01*
X10973055Y16145668D01*
X10947555Y16140596D01*
X10882547Y16140596D01*
X10857047Y16145668D01*
X10818793Y16153277D01*
X10758737Y16178154D01*
X10704688Y16214268D01*
X10658723Y16260233D01*
X10622609Y16314282D01*
X10597732Y16374338D01*
X10587330Y16426637D01*
X10585051Y16438092D01*
X10585051Y16503100D01*
X10590537Y16530681D01*
X10597732Y16566854D01*
X10622609Y16626910D01*
X10658723Y16680959D01*
X10704688Y16726924D01*
X10758737Y16763038D01*
X10818793Y16787915D01*
X10857047Y16795524D01*
X10882547Y16800596D01*
X10947555Y16800596D01*
X10973055Y16795524D01*
X10973055Y16795524D01*
G37*
G36*
X19920804Y16961928D02*
G01*
X19959058Y16954319D01*
X20019114Y16929442D01*
X20073163Y16893328D01*
X20119128Y16847363D01*
X20155242Y16793314D01*
X20180119Y16733258D01*
X20187728Y16695004D01*
X20190522Y16680958D01*
X20192800Y16669502D01*
X20192800Y16604498D01*
X20180119Y16540742D01*
X20155242Y16480686D01*
X20119128Y16426637D01*
X20073163Y16380672D01*
X20019114Y16344558D01*
X19959058Y16319681D01*
X19920804Y16312072D01*
X19895304Y16307000D01*
X19830296Y16307000D01*
X19804796Y16312072D01*
X19766542Y16319681D01*
X19706486Y16344558D01*
X19652437Y16380672D01*
X19606472Y16426637D01*
X19570358Y16480686D01*
X19545481Y16540742D01*
X19532800Y16604498D01*
X19532800Y16669502D01*
X19535079Y16680958D01*
X19537872Y16695004D01*
X19545481Y16733258D01*
X19570358Y16793314D01*
X19606472Y16847363D01*
X19652437Y16893328D01*
X19706486Y16929442D01*
X19766542Y16954319D01*
X19804796Y16961928D01*
X19830296Y16967000D01*
X19895304Y16967000D01*
X19920804Y16961928D01*
X19920804Y16961928D01*
G37*
G36*
X1324012Y17172958D02*
G01*
X1362418Y17165319D01*
X1422474Y17140442D01*
X1476523Y17104328D01*
X1522488Y17058363D01*
X1558602Y17004314D01*
X1583479Y16944258D01*
X1586426Y16929442D01*
X1596160Y16880504D01*
X1596160Y16815496D01*
X1593196Y16800596D01*
X1583479Y16751742D01*
X1558602Y16691686D01*
X1522488Y16637637D01*
X1476523Y16591672D01*
X1422474Y16555558D01*
X1362418Y16530681D01*
X1324164Y16523072D01*
X1298664Y16518000D01*
X1233656Y16518000D01*
X1208156Y16523072D01*
X1169902Y16530681D01*
X1109846Y16555558D01*
X1055797Y16591672D01*
X1009832Y16637637D01*
X973718Y16691686D01*
X948841Y16751742D01*
X939124Y16800596D01*
X936160Y16815496D01*
X936160Y16880504D01*
X945894Y16929442D01*
X948841Y16944258D01*
X973718Y17004314D01*
X1009832Y17058363D01*
X1055797Y17104328D01*
X1109846Y17140442D01*
X1169902Y17165319D01*
X1208308Y17172958D01*
X1233656Y17178000D01*
X1298664Y17178000D01*
X1324012Y17172958D01*
X1324012Y17172958D01*
G37*
G36*
X8907383Y17310503D02*
G01*
X8945637Y17302894D01*
X9005693Y17278017D01*
X9059742Y17241903D01*
X9105707Y17195938D01*
X9141821Y17141889D01*
X9166698Y17081833D01*
X9171366Y17058363D01*
X9179379Y17018079D01*
X9179379Y16953071D01*
X9177626Y16944258D01*
X9166698Y16889317D01*
X9141821Y16829261D01*
X9105707Y16775212D01*
X9059742Y16729247D01*
X9005693Y16693133D01*
X8945637Y16668256D01*
X8907383Y16660647D01*
X8881883Y16655575D01*
X8816875Y16655575D01*
X8791375Y16660647D01*
X8753121Y16668256D01*
X8693065Y16693133D01*
X8639016Y16729247D01*
X8593051Y16775212D01*
X8556937Y16829261D01*
X8532060Y16889317D01*
X8521132Y16944258D01*
X8519379Y16953071D01*
X8519379Y17018079D01*
X8527392Y17058363D01*
X8532060Y17081833D01*
X8556937Y17141889D01*
X8593051Y17195938D01*
X8639016Y17241903D01*
X8693065Y17278017D01*
X8753121Y17302894D01*
X8791375Y17310503D01*
X8816875Y17315575D01*
X8881883Y17315575D01*
X8907383Y17310503D01*
X8907383Y17310503D01*
G37*
G36*
X18204004Y17342928D02*
G01*
X18242258Y17335319D01*
X18302314Y17310442D01*
X18356363Y17274328D01*
X18402328Y17228363D01*
X18438442Y17174314D01*
X18463319Y17114258D01*
X18465294Y17104328D01*
X18476000Y17050504D01*
X18476000Y16985496D01*
X18472321Y16967000D01*
X18463319Y16921742D01*
X18438442Y16861686D01*
X18402328Y16807637D01*
X18356363Y16761672D01*
X18302314Y16725558D01*
X18242258Y16700681D01*
X18204309Y16693133D01*
X18178504Y16688000D01*
X18113496Y16688000D01*
X18087691Y16693133D01*
X18049742Y16700681D01*
X17989686Y16725558D01*
X17935637Y16761672D01*
X17889672Y16807637D01*
X17853558Y16861686D01*
X17828681Y16921742D01*
X17819679Y16967000D01*
X17816000Y16985496D01*
X17816000Y17050504D01*
X17826706Y17104328D01*
X17828681Y17114258D01*
X17853558Y17174314D01*
X17889672Y17228363D01*
X17935637Y17274328D01*
X17989686Y17310442D01*
X18049742Y17335319D01*
X18087996Y17342928D01*
X18113496Y17348000D01*
X18178504Y17348000D01*
X18204004Y17342928D01*
X18204004Y17342928D01*
G37*
G36*
X17426204Y17342928D02*
G01*
X17464458Y17335319D01*
X17524514Y17310442D01*
X17578563Y17274328D01*
X17624528Y17228363D01*
X17660642Y17174314D01*
X17685519Y17114258D01*
X17687494Y17104328D01*
X17698200Y17050504D01*
X17698200Y16985496D01*
X17694521Y16967000D01*
X17685519Y16921742D01*
X17660642Y16861686D01*
X17624528Y16807637D01*
X17578563Y16761672D01*
X17524514Y16725558D01*
X17464458Y16700681D01*
X17426509Y16693133D01*
X17400704Y16688000D01*
X17335696Y16688000D01*
X17309891Y16693133D01*
X17271942Y16700681D01*
X17211886Y16725558D01*
X17157837Y16761672D01*
X17111872Y16807637D01*
X17075758Y16861686D01*
X17050881Y16921742D01*
X17041879Y16967000D01*
X17038200Y16985496D01*
X17038200Y17050504D01*
X17048906Y17104328D01*
X17050881Y17114258D01*
X17075758Y17174314D01*
X17111872Y17228363D01*
X17157837Y17274328D01*
X17211886Y17310442D01*
X17271942Y17335319D01*
X17310196Y17342928D01*
X17335696Y17348000D01*
X17400704Y17348000D01*
X17426204Y17342928D01*
X17426204Y17342928D01*
G37*
G36*
X5924164Y17372928D02*
G01*
X5962418Y17365319D01*
X6022474Y17340442D01*
X6076523Y17304328D01*
X6122488Y17258363D01*
X6158602Y17204314D01*
X6183479Y17144258D01*
X6190451Y17109204D01*
X6195896Y17081833D01*
X6196160Y17080502D01*
X6196160Y17015498D01*
X6183479Y16951742D01*
X6158602Y16891686D01*
X6122488Y16837637D01*
X6076523Y16791672D01*
X6022474Y16755558D01*
X5962418Y16730681D01*
X5924164Y16723072D01*
X5898664Y16718000D01*
X5833656Y16718000D01*
X5808156Y16723072D01*
X5769902Y16730681D01*
X5709846Y16755558D01*
X5655797Y16791672D01*
X5609832Y16837637D01*
X5573718Y16891686D01*
X5548841Y16951742D01*
X5536160Y17015498D01*
X5536160Y17080502D01*
X5536425Y17081833D01*
X5541869Y17109204D01*
X5548841Y17144258D01*
X5573718Y17204314D01*
X5609832Y17258363D01*
X5655797Y17304328D01*
X5709846Y17340442D01*
X5769902Y17365319D01*
X5808156Y17372928D01*
X5833656Y17378000D01*
X5898664Y17378000D01*
X5924164Y17372928D01*
X5924164Y17372928D01*
G37*
G36*
X26270804Y17401628D02*
G01*
X26309058Y17394019D01*
X26369114Y17369142D01*
X26423163Y17333028D01*
X26469128Y17287063D01*
X26505242Y17233014D01*
X26530119Y17172958D01*
X26536586Y17140442D01*
X26541795Y17114258D01*
X26542800Y17109202D01*
X26542800Y17044198D01*
X26530119Y16980442D01*
X26505242Y16920386D01*
X26469128Y16866337D01*
X26423163Y16820372D01*
X26369114Y16784258D01*
X26309058Y16759381D01*
X26270804Y16751772D01*
X26245304Y16746700D01*
X26180296Y16746700D01*
X26154796Y16751772D01*
X26116542Y16759381D01*
X26056486Y16784258D01*
X26002437Y16820372D01*
X25956472Y16866337D01*
X25920358Y16920386D01*
X25895481Y16980442D01*
X25882800Y17044198D01*
X25882800Y17109202D01*
X25883806Y17114258D01*
X25889014Y17140442D01*
X25895481Y17172958D01*
X25920358Y17233014D01*
X25956472Y17287063D01*
X26002437Y17333028D01*
X26056486Y17369142D01*
X26116542Y17394019D01*
X26154796Y17401628D01*
X26180296Y17406700D01*
X26245304Y17406700D01*
X26270804Y17401628D01*
X26270804Y17401628D01*
G37*
G36*
X6945383Y17401628D02*
G01*
X6983637Y17394019D01*
X7043693Y17369142D01*
X7097742Y17333028D01*
X7143707Y17287063D01*
X7179821Y17233014D01*
X7204698Y17172958D01*
X7211165Y17140442D01*
X7216374Y17114258D01*
X7217379Y17109202D01*
X7217379Y17044198D01*
X7204698Y16980442D01*
X7179821Y16920386D01*
X7143707Y16866337D01*
X7097742Y16820372D01*
X7043693Y16784258D01*
X6983637Y16759381D01*
X6945383Y16751772D01*
X6919883Y16746700D01*
X6854875Y16746700D01*
X6829375Y16751772D01*
X6791121Y16759381D01*
X6731065Y16784258D01*
X6677016Y16820372D01*
X6631051Y16866337D01*
X6594937Y16920386D01*
X6570060Y16980442D01*
X6557379Y17044198D01*
X6557379Y17109202D01*
X6558385Y17114258D01*
X6563593Y17140442D01*
X6570060Y17172958D01*
X6594937Y17233014D01*
X6631051Y17287063D01*
X6677016Y17333028D01*
X6731065Y17369142D01*
X6791121Y17394019D01*
X6829375Y17401628D01*
X6854875Y17406700D01*
X6919883Y17406700D01*
X6945383Y17401628D01*
X6945383Y17401628D01*
G37*
G36*
X19634064Y17850928D02*
G01*
X19672318Y17843319D01*
X19732374Y17818442D01*
X19786423Y17782328D01*
X19832388Y17736363D01*
X19868502Y17682314D01*
X19893379Y17622258D01*
X19906060Y17558502D01*
X19906060Y17493498D01*
X19893379Y17429742D01*
X19868502Y17369686D01*
X19832388Y17315637D01*
X19786423Y17269672D01*
X19732374Y17233558D01*
X19672318Y17208681D01*
X19634064Y17201072D01*
X19608564Y17196000D01*
X19543556Y17196000D01*
X19518056Y17201072D01*
X19479802Y17208681D01*
X19419746Y17233558D01*
X19365697Y17269672D01*
X19319732Y17315637D01*
X19283618Y17369686D01*
X19258741Y17429742D01*
X19246060Y17493498D01*
X19246060Y17558502D01*
X19258741Y17622258D01*
X19283618Y17682314D01*
X19319732Y17736363D01*
X19365697Y17782328D01*
X19419746Y17818442D01*
X19479802Y17843319D01*
X19518056Y17850928D01*
X19543556Y17856000D01*
X19608564Y17856000D01*
X19634064Y17850928D01*
X19634064Y17850928D01*
G37*
G36*
X18856264Y17850928D02*
G01*
X18894518Y17843319D01*
X18954574Y17818442D01*
X19008623Y17782328D01*
X19054588Y17736363D01*
X19090702Y17682314D01*
X19115579Y17622258D01*
X19128260Y17558502D01*
X19128260Y17493498D01*
X19115579Y17429742D01*
X19090702Y17369686D01*
X19054588Y17315637D01*
X19008623Y17269672D01*
X18954574Y17233558D01*
X18894518Y17208681D01*
X18856264Y17201072D01*
X18830764Y17196000D01*
X18765756Y17196000D01*
X18740256Y17201072D01*
X18702002Y17208681D01*
X18641946Y17233558D01*
X18587897Y17269672D01*
X18541932Y17315637D01*
X18505818Y17369686D01*
X18480941Y17429742D01*
X18468260Y17493498D01*
X18468260Y17558502D01*
X18480941Y17622258D01*
X18505818Y17682314D01*
X18541932Y17736363D01*
X18587897Y17782328D01*
X18641946Y17818442D01*
X18702002Y17843319D01*
X18740256Y17850928D01*
X18765756Y17856000D01*
X18830764Y17856000D01*
X18856264Y17850928D01*
X18856264Y17850928D01*
G37*
G36*
X28061504Y17850928D02*
G01*
X28099758Y17843319D01*
X28159814Y17818442D01*
X28213863Y17782328D01*
X28259828Y17736363D01*
X28295942Y17682314D01*
X28320819Y17622258D01*
X28333500Y17558502D01*
X28333500Y17493498D01*
X28320819Y17429742D01*
X28295942Y17369686D01*
X28259828Y17315637D01*
X28213863Y17269672D01*
X28159814Y17233558D01*
X28099758Y17208681D01*
X28061504Y17201072D01*
X28036004Y17196000D01*
X27970996Y17196000D01*
X27945496Y17201072D01*
X27907242Y17208681D01*
X27847186Y17233558D01*
X27793137Y17269672D01*
X27747172Y17315637D01*
X27711058Y17369686D01*
X27686181Y17429742D01*
X27673500Y17493498D01*
X27673500Y17558502D01*
X27686181Y17622258D01*
X27711058Y17682314D01*
X27747172Y17736363D01*
X27793137Y17782328D01*
X27847186Y17818442D01*
X27907242Y17843319D01*
X27945496Y17850928D01*
X27970996Y17856000D01*
X28036004Y17856000D01*
X28061504Y17850928D01*
X28061504Y17850928D01*
G37*
G36*
X30792004Y18841528D02*
G01*
X30830258Y18833919D01*
X30890314Y18809042D01*
X30944363Y18772928D01*
X30990328Y18726963D01*
X31026442Y18672914D01*
X31051319Y18612858D01*
X31058928Y18574604D01*
X31063357Y18552338D01*
X31064000Y18549102D01*
X31064000Y18484098D01*
X31051319Y18420342D01*
X31026442Y18360286D01*
X30990328Y18306237D01*
X30944363Y18260272D01*
X30915362Y18240894D01*
X30910067Y18236548D01*
X30905714Y18231244D01*
X30902480Y18225193D01*
X30900488Y18218628D01*
X30899816Y18211800D01*
X30900489Y18204972D01*
X30902480Y18198406D01*
X30905714Y18192355D01*
X30910067Y18187052D01*
X30915362Y18182706D01*
X30944363Y18163328D01*
X30990328Y18117363D01*
X31026442Y18063314D01*
X31051319Y18003258D01*
X31058928Y17965004D01*
X31061566Y17951742D01*
X31064000Y17939502D01*
X31064000Y17874498D01*
X31051319Y17810742D01*
X31026442Y17750686D01*
X30990328Y17696637D01*
X30944363Y17650672D01*
X30890314Y17614558D01*
X30830258Y17589681D01*
X30792004Y17582072D01*
X30766504Y17577000D01*
X30701496Y17577000D01*
X30675996Y17582072D01*
X30637742Y17589681D01*
X30577686Y17614558D01*
X30523637Y17650672D01*
X30477672Y17696637D01*
X30441558Y17750686D01*
X30416681Y17810742D01*
X30404000Y17874498D01*
X30404000Y17939502D01*
X30406435Y17951742D01*
X30409072Y17965004D01*
X30416681Y18003258D01*
X30441558Y18063314D01*
X30477672Y18117363D01*
X30523637Y18163328D01*
X30552638Y18182706D01*
X30557933Y18187052D01*
X30562286Y18192356D01*
X30565520Y18198407D01*
X30567512Y18204972D01*
X30568184Y18211800D01*
X30567511Y18218628D01*
X30565520Y18225194D01*
X30562286Y18231245D01*
X30557933Y18236548D01*
X30552638Y18240894D01*
X30523637Y18260272D01*
X30477672Y18306237D01*
X30441558Y18360286D01*
X30416681Y18420342D01*
X30404000Y18484098D01*
X30404000Y18549102D01*
X30404644Y18552338D01*
X30409072Y18574604D01*
X30416681Y18612858D01*
X30441558Y18672914D01*
X30477672Y18726963D01*
X30523637Y18772928D01*
X30577686Y18809042D01*
X30637742Y18833919D01*
X30675996Y18841528D01*
X30701496Y18846600D01*
X30766504Y18846600D01*
X30792004Y18841528D01*
X30792004Y18841528D01*
G37*
G36*
X2534164Y18372928D02*
G01*
X2572418Y18365319D01*
X2632474Y18340442D01*
X2686523Y18304328D01*
X2732488Y18258363D01*
X2768602Y18204314D01*
X2793479Y18144258D01*
X2801088Y18106004D01*
X2806160Y18080504D01*
X2806160Y18015496D01*
X2803725Y18003255D01*
X2793479Y17951742D01*
X2768602Y17891686D01*
X2732488Y17837637D01*
X2686523Y17791672D01*
X2632474Y17755558D01*
X2572418Y17730681D01*
X2534164Y17723072D01*
X2508664Y17718000D01*
X2443656Y17718000D01*
X2418156Y17723072D01*
X2379902Y17730681D01*
X2319846Y17755558D01*
X2265797Y17791672D01*
X2219832Y17837637D01*
X2183718Y17891686D01*
X2158841Y17951742D01*
X2148595Y18003255D01*
X2146160Y18015496D01*
X2146160Y18080504D01*
X2151232Y18106004D01*
X2158841Y18144258D01*
X2183718Y18204314D01*
X2219832Y18258363D01*
X2265797Y18304328D01*
X2319846Y18340442D01*
X2379902Y18365319D01*
X2418156Y18372928D01*
X2443656Y18378000D01*
X2508664Y18378000D01*
X2534164Y18372928D01*
X2534164Y18372928D01*
G37*
G36*
X4704164Y18372928D02*
G01*
X4742418Y18365319D01*
X4802474Y18340442D01*
X4856523Y18304328D01*
X4902488Y18258363D01*
X4938602Y18204314D01*
X4963479Y18144258D01*
X4971088Y18106004D01*
X4976160Y18080504D01*
X4976160Y18015496D01*
X4973725Y18003255D01*
X4963479Y17951742D01*
X4938602Y17891686D01*
X4902488Y17837637D01*
X4856523Y17791672D01*
X4802474Y17755558D01*
X4742418Y17730681D01*
X4704164Y17723072D01*
X4678664Y17718000D01*
X4613656Y17718000D01*
X4588156Y17723072D01*
X4549902Y17730681D01*
X4489846Y17755558D01*
X4435797Y17791672D01*
X4389832Y17837637D01*
X4353718Y17891686D01*
X4328841Y17951742D01*
X4318595Y18003255D01*
X4316160Y18015496D01*
X4316160Y18080504D01*
X4321232Y18106004D01*
X4328841Y18144258D01*
X4353718Y18204314D01*
X4389832Y18258363D01*
X4435797Y18304328D01*
X4489846Y18340442D01*
X4549902Y18365319D01*
X4588156Y18372928D01*
X4613656Y18378000D01*
X4678664Y18378000D01*
X4704164Y18372928D01*
X4704164Y18372928D01*
G37*
G36*
X24801804Y19709928D02*
G01*
X24840058Y19702319D01*
X24900114Y19677442D01*
X24954163Y19641328D01*
X25000128Y19595363D01*
X25036242Y19541314D01*
X25061119Y19481258D01*
X25073800Y19417502D01*
X25073800Y19352498D01*
X25061119Y19288742D01*
X25036242Y19228686D01*
X25000128Y19174637D01*
X24954163Y19128672D01*
X24934940Y19115828D01*
X24915667Y19102950D01*
X24910364Y19098598D01*
X24906011Y19093294D01*
X24902777Y19087243D01*
X24900785Y19080678D01*
X24900113Y19073850D01*
X24900786Y19067022D01*
X24902777Y19060456D01*
X24906012Y19054405D01*
X24910364Y19049102D01*
X24915667Y19044750D01*
X24954163Y19019028D01*
X25000128Y18973063D01*
X25036242Y18919014D01*
X25061119Y18858958D01*
X25063577Y18846600D01*
X25073800Y18795204D01*
X25073800Y18730196D01*
X25068728Y18704696D01*
X25061119Y18666442D01*
X25036242Y18606386D01*
X25000128Y18552337D01*
X24954163Y18506372D01*
X24900114Y18470258D01*
X24840058Y18445381D01*
X24801804Y18437772D01*
X24776304Y18432700D01*
X24711296Y18432700D01*
X24685796Y18437772D01*
X24647542Y18445381D01*
X24587486Y18470258D01*
X24533437Y18506372D01*
X24487472Y18552337D01*
X24451358Y18606386D01*
X24426481Y18666442D01*
X24418872Y18704696D01*
X24413800Y18730196D01*
X24413800Y18795204D01*
X24424023Y18846600D01*
X24426481Y18858958D01*
X24451358Y18919014D01*
X24487472Y18973063D01*
X24533437Y19019028D01*
X24571933Y19044750D01*
X24577236Y19049102D01*
X24581589Y19054406D01*
X24584823Y19060457D01*
X24586815Y19067022D01*
X24587487Y19073850D01*
X24586814Y19080678D01*
X24584823Y19087244D01*
X24581588Y19093295D01*
X24577236Y19098598D01*
X24571933Y19102950D01*
X24552660Y19115828D01*
X24533437Y19128672D01*
X24487472Y19174637D01*
X24451358Y19228686D01*
X24426481Y19288742D01*
X24413800Y19352498D01*
X24413800Y19417502D01*
X24426481Y19481258D01*
X24451358Y19541314D01*
X24487472Y19595363D01*
X24533437Y19641328D01*
X24587486Y19677442D01*
X24647542Y19702319D01*
X24685796Y19709928D01*
X24711296Y19715000D01*
X24776304Y19715000D01*
X24801804Y19709928D01*
X24801804Y19709928D01*
G37*
G36*
X16187004Y19184428D02*
G01*
X16225258Y19176819D01*
X16285314Y19151942D01*
X16339363Y19115828D01*
X16385328Y19069863D01*
X16421442Y19015814D01*
X16446319Y18955758D01*
X16459000Y18892002D01*
X16459000Y18826998D01*
X16446319Y18763242D01*
X16421442Y18703186D01*
X16385328Y18649137D01*
X16339363Y18603172D01*
X16285314Y18567058D01*
X16225258Y18542181D01*
X16187004Y18534572D01*
X16161504Y18529500D01*
X16096496Y18529500D01*
X16070996Y18534572D01*
X16032742Y18542181D01*
X15972686Y18567058D01*
X15918637Y18603172D01*
X15872672Y18649137D01*
X15836558Y18703186D01*
X15811681Y18763242D01*
X15799000Y18826998D01*
X15799000Y18892002D01*
X15811681Y18955758D01*
X15836558Y19015814D01*
X15872672Y19069863D01*
X15918637Y19115828D01*
X15972686Y19151942D01*
X16032742Y19176819D01*
X16070996Y19184428D01*
X16096496Y19189500D01*
X16161504Y19189500D01*
X16187004Y19184428D01*
X16187004Y19184428D01*
G37*
G36*
X26833804Y20052828D02*
G01*
X26872058Y20045219D01*
X26932114Y20020342D01*
X26986163Y19984228D01*
X27032128Y19938263D01*
X27068242Y19884214D01*
X27093119Y19824158D01*
X27105800Y19760402D01*
X27105800Y19695398D01*
X27093119Y19631642D01*
X27068242Y19571586D01*
X27032128Y19517537D01*
X26986163Y19471572D01*
X26932114Y19435458D01*
X26872058Y19410581D01*
X26833804Y19402972D01*
X26808304Y19397900D01*
X26743296Y19397900D01*
X26717796Y19402972D01*
X26679542Y19410581D01*
X26619486Y19435458D01*
X26565437Y19471572D01*
X26519472Y19517537D01*
X26483358Y19571586D01*
X26458481Y19631642D01*
X26445800Y19695398D01*
X26445800Y19760402D01*
X26458481Y19824158D01*
X26483358Y19884214D01*
X26519472Y19938263D01*
X26565437Y19984228D01*
X26619486Y20020342D01*
X26679542Y20045219D01*
X26717796Y20052828D01*
X26743296Y20057900D01*
X26808304Y20057900D01*
X26833804Y20052828D01*
X26833804Y20052828D01*
G37*
G36*
X14807736Y20324981D02*
G01*
X14846258Y20317319D01*
X14906314Y20292442D01*
X14960363Y20256328D01*
X15006328Y20210363D01*
X15042442Y20156314D01*
X15067319Y20096258D01*
X15074869Y20058300D01*
X15078999Y20037538D01*
X15080000Y20032502D01*
X15080000Y19967498D01*
X15067319Y19903742D01*
X15042442Y19843686D01*
X15006328Y19789637D01*
X14960363Y19743672D01*
X14906314Y19707558D01*
X14846258Y19682681D01*
X14808004Y19675072D01*
X14782504Y19670000D01*
X14717496Y19670000D01*
X14691996Y19675072D01*
X14653742Y19682681D01*
X14593686Y19707558D01*
X14539637Y19743672D01*
X14493672Y19789637D01*
X14457558Y19843686D01*
X14432681Y19903742D01*
X14420000Y19967498D01*
X14420000Y20032502D01*
X14421002Y20037538D01*
X14425131Y20058300D01*
X14432681Y20096258D01*
X14457558Y20156314D01*
X14493672Y20210363D01*
X14539637Y20256328D01*
X14593686Y20292442D01*
X14653742Y20317319D01*
X14692264Y20324981D01*
X14717496Y20330000D01*
X14782504Y20330000D01*
X14807736Y20324981D01*
X14807736Y20324981D01*
G37*
G36*
X23033004Y20572828D02*
G01*
X23071258Y20565219D01*
X23131314Y20540342D01*
X23185363Y20504228D01*
X23231328Y20458263D01*
X23267442Y20404214D01*
X23292319Y20344158D01*
X23299928Y20305904D01*
X23305000Y20280404D01*
X23305000Y20215396D01*
X23299928Y20189896D01*
X23292319Y20151642D01*
X23267442Y20091586D01*
X23231328Y20037537D01*
X23185363Y19991572D01*
X23131314Y19955458D01*
X23071258Y19930581D01*
X23033004Y19922972D01*
X23007504Y19917900D01*
X22942496Y19917900D01*
X22916996Y19922972D01*
X22878742Y19930581D01*
X22818686Y19955458D01*
X22764637Y19991572D01*
X22718672Y20037537D01*
X22682558Y20091586D01*
X22657681Y20151642D01*
X22650072Y20189896D01*
X22645000Y20215396D01*
X22645000Y20280404D01*
X22650072Y20305904D01*
X22657681Y20344158D01*
X22682558Y20404214D01*
X22718672Y20458263D01*
X22764637Y20504228D01*
X22818686Y20540342D01*
X22878742Y20565219D01*
X22916996Y20572828D01*
X22942496Y20577900D01*
X23007504Y20577900D01*
X23033004Y20572828D01*
X23033004Y20572828D01*
G37*
G36*
X21533004Y20572828D02*
G01*
X21571258Y20565219D01*
X21631314Y20540342D01*
X21685363Y20504228D01*
X21731328Y20458263D01*
X21767442Y20404214D01*
X21792319Y20344158D01*
X21799928Y20305904D01*
X21805000Y20280404D01*
X21805000Y20215396D01*
X21799928Y20189896D01*
X21792319Y20151642D01*
X21767442Y20091586D01*
X21731328Y20037537D01*
X21685363Y19991572D01*
X21631314Y19955458D01*
X21571258Y19930581D01*
X21533004Y19922972D01*
X21507504Y19917900D01*
X21442496Y19917900D01*
X21416996Y19922972D01*
X21378742Y19930581D01*
X21318686Y19955458D01*
X21264637Y19991572D01*
X21218672Y20037537D01*
X21182558Y20091586D01*
X21157681Y20151642D01*
X21150072Y20189896D01*
X21145000Y20215396D01*
X21145000Y20280404D01*
X21150072Y20305904D01*
X21157681Y20344158D01*
X21182558Y20404214D01*
X21218672Y20458263D01*
X21264637Y20504228D01*
X21318686Y20540342D01*
X21378742Y20565219D01*
X21416996Y20572828D01*
X21442496Y20577900D01*
X21507504Y20577900D01*
X21533004Y20572828D01*
X21533004Y20572828D01*
G37*
G36*
X19199404Y20713228D02*
G01*
X19237658Y20705619D01*
X19297714Y20680742D01*
X19351763Y20644628D01*
X19397728Y20598663D01*
X19433842Y20544614D01*
X19458719Y20484558D01*
X19471400Y20420802D01*
X19471400Y20355798D01*
X19458719Y20292042D01*
X19433842Y20231986D01*
X19397728Y20177937D01*
X19351763Y20131972D01*
X19297714Y20095858D01*
X19237658Y20070981D01*
X19199404Y20063372D01*
X19173904Y20058300D01*
X19108896Y20058300D01*
X19083396Y20063372D01*
X19045142Y20070981D01*
X18985086Y20095858D01*
X18931037Y20131972D01*
X18885072Y20177937D01*
X18848958Y20231986D01*
X18824081Y20292042D01*
X18811400Y20355798D01*
X18811400Y20420802D01*
X18824081Y20484558D01*
X18848958Y20544614D01*
X18885072Y20598663D01*
X18931037Y20644628D01*
X18985086Y20680742D01*
X19045142Y20705619D01*
X19083396Y20713228D01*
X19108896Y20718300D01*
X19173904Y20718300D01*
X19199404Y20713228D01*
X19199404Y20713228D01*
G37*
G36*
X30643804Y20967228D02*
G01*
X30682058Y20959619D01*
X30742114Y20934742D01*
X30796163Y20898628D01*
X30842128Y20852663D01*
X30878242Y20798614D01*
X30903119Y20738558D01*
X30915800Y20674802D01*
X30915800Y20609798D01*
X30903119Y20546042D01*
X30878242Y20485986D01*
X30842128Y20431937D01*
X30796163Y20385972D01*
X30742114Y20349858D01*
X30682058Y20324981D01*
X30643804Y20317372D01*
X30618304Y20312300D01*
X30553296Y20312300D01*
X30527796Y20317372D01*
X30489542Y20324981D01*
X30429486Y20349858D01*
X30375437Y20385972D01*
X30329472Y20431937D01*
X30293358Y20485986D01*
X30268481Y20546042D01*
X30255800Y20609798D01*
X30255800Y20674802D01*
X30268481Y20738558D01*
X30293358Y20798614D01*
X30329472Y20852663D01*
X30375437Y20898628D01*
X30429486Y20934742D01*
X30489542Y20959619D01*
X30527796Y20967228D01*
X30553296Y20972300D01*
X30618304Y20972300D01*
X30643804Y20967228D01*
X30643804Y20967228D01*
G37*
G36*
X19260404Y22211828D02*
G01*
X19298658Y22204219D01*
X19358714Y22179342D01*
X19412763Y22143228D01*
X19458728Y22097263D01*
X19494842Y22043214D01*
X19519719Y21983158D01*
X19522834Y21967496D01*
X19532400Y21919404D01*
X19532400Y21854396D01*
X19527328Y21828896D01*
X19519719Y21790642D01*
X19494842Y21730586D01*
X19458728Y21676537D01*
X19412763Y21630572D01*
X19358714Y21594458D01*
X19298658Y21569581D01*
X19273793Y21564635D01*
X19239049Y21557724D01*
X19232483Y21555733D01*
X19226432Y21552498D01*
X19221129Y21548146D01*
X19216776Y21542842D01*
X19213542Y21536791D01*
X19211550Y21530226D01*
X19210878Y21523398D01*
X19211551Y21516570D01*
X19213542Y21510004D01*
X19216777Y21503953D01*
X19221129Y21498650D01*
X19226433Y21494297D01*
X19232484Y21491063D01*
X19239038Y21489074D01*
X19298658Y21477216D01*
X19358714Y21452339D01*
X19412763Y21416225D01*
X19458728Y21370260D01*
X19494842Y21316211D01*
X19519719Y21256155D01*
X19532400Y21192399D01*
X19532400Y21127395D01*
X19519719Y21063639D01*
X19494842Y21003583D01*
X19458728Y20949534D01*
X19412763Y20903569D01*
X19358714Y20867455D01*
X19298658Y20842578D01*
X19260404Y20834969D01*
X19234904Y20829897D01*
X19169896Y20829897D01*
X19144396Y20834969D01*
X19106142Y20842578D01*
X19046086Y20867455D01*
X18992037Y20903569D01*
X18946072Y20949534D01*
X18909958Y21003583D01*
X18885081Y21063639D01*
X18872400Y21127395D01*
X18872400Y21192399D01*
X18885081Y21256155D01*
X18909958Y21316211D01*
X18946072Y21370260D01*
X18992037Y21416225D01*
X19046086Y21452339D01*
X19106142Y21477216D01*
X19165762Y21489074D01*
X19172316Y21491063D01*
X19178367Y21494297D01*
X19183671Y21498650D01*
X19188024Y21503953D01*
X19191258Y21510004D01*
X19193249Y21516570D01*
X19193922Y21523398D01*
X19193250Y21530226D01*
X19191258Y21536791D01*
X19188024Y21542842D01*
X19183671Y21548146D01*
X19178368Y21552499D01*
X19172317Y21555733D01*
X19165751Y21557724D01*
X19131007Y21564635D01*
X19106142Y21569581D01*
X19046086Y21594458D01*
X18992037Y21630572D01*
X18946072Y21676537D01*
X18909958Y21730586D01*
X18885081Y21790642D01*
X18877472Y21828896D01*
X18872400Y21854396D01*
X18872400Y21919404D01*
X18881966Y21967496D01*
X18885081Y21983158D01*
X18909958Y22043214D01*
X18946072Y22097263D01*
X18992037Y22143228D01*
X19046086Y22179342D01*
X19106142Y22204219D01*
X19144396Y22211828D01*
X19169896Y22216900D01*
X19234904Y22216900D01*
X19260404Y22211828D01*
X19260404Y22211828D01*
G37*
G36*
X21533004Y22104928D02*
G01*
X21571258Y22097319D01*
X21631314Y22072442D01*
X21685363Y22036328D01*
X21731328Y21990363D01*
X21767442Y21936314D01*
X21792319Y21876258D01*
X21799928Y21838004D01*
X21804901Y21813004D01*
X21805000Y21812502D01*
X21805000Y21747498D01*
X21792319Y21683742D01*
X21767442Y21623686D01*
X21731328Y21569637D01*
X21685363Y21523672D01*
X21631314Y21487558D01*
X21571258Y21462681D01*
X21533004Y21455072D01*
X21507504Y21450000D01*
X21442496Y21450000D01*
X21416996Y21455072D01*
X21378742Y21462681D01*
X21318686Y21487558D01*
X21264637Y21523672D01*
X21218672Y21569637D01*
X21182558Y21623686D01*
X21157681Y21683742D01*
X21145000Y21747498D01*
X21145000Y21812502D01*
X21145100Y21813004D01*
X21150072Y21838004D01*
X21157681Y21876258D01*
X21182558Y21936314D01*
X21218672Y21990363D01*
X21264637Y22036328D01*
X21318686Y22072442D01*
X21378742Y22097319D01*
X21416996Y22104928D01*
X21442496Y22110000D01*
X21507504Y22110000D01*
X21533004Y22104928D01*
X21533004Y22104928D01*
G37*
G36*
X23033004Y22104928D02*
G01*
X23071258Y22097319D01*
X23131314Y22072442D01*
X23185363Y22036328D01*
X23231328Y21990363D01*
X23267442Y21936314D01*
X23292319Y21876258D01*
X23299928Y21838004D01*
X23304901Y21813004D01*
X23305000Y21812502D01*
X23305000Y21747498D01*
X23292319Y21683742D01*
X23267442Y21623686D01*
X23231328Y21569637D01*
X23185363Y21523672D01*
X23131314Y21487558D01*
X23071258Y21462681D01*
X23033004Y21455072D01*
X23007504Y21450000D01*
X22942496Y21450000D01*
X22916996Y21455072D01*
X22878742Y21462681D01*
X22818686Y21487558D01*
X22764637Y21523672D01*
X22718672Y21569637D01*
X22682558Y21623686D01*
X22657681Y21683742D01*
X22645000Y21747498D01*
X22645000Y21812502D01*
X22645100Y21813004D01*
X22650072Y21838004D01*
X22657681Y21876258D01*
X22682558Y21936314D01*
X22718672Y21990363D01*
X22764637Y22036328D01*
X22818686Y22072442D01*
X22878742Y22097319D01*
X22916996Y22104928D01*
X22942496Y22110000D01*
X23007504Y22110000D01*
X23033004Y22104928D01*
X23033004Y22104928D01*
G37*
G36*
X16060004Y22105428D02*
G01*
X16098258Y22097819D01*
X16158314Y22072942D01*
X16212363Y22036828D01*
X16258328Y21990863D01*
X16294442Y21936814D01*
X16319319Y21876758D01*
X16323766Y21854398D01*
X16332000Y21813004D01*
X16332000Y21747996D01*
X16331140Y21743672D01*
X16319319Y21684242D01*
X16294442Y21624186D01*
X16258328Y21570137D01*
X16212363Y21524172D01*
X16158314Y21488058D01*
X16098258Y21463181D01*
X16060004Y21455572D01*
X16034504Y21450500D01*
X15969496Y21450500D01*
X15943996Y21455572D01*
X15905742Y21463181D01*
X15845686Y21488058D01*
X15791637Y21524172D01*
X15745672Y21570137D01*
X15709558Y21624186D01*
X15684681Y21684242D01*
X15672860Y21743672D01*
X15672000Y21747996D01*
X15672000Y21813004D01*
X15680234Y21854398D01*
X15684681Y21876758D01*
X15709558Y21936814D01*
X15745672Y21990863D01*
X15791637Y22036828D01*
X15845686Y22072942D01*
X15905742Y22097819D01*
X15943996Y22105428D01*
X15969496Y22110500D01*
X16034504Y22110500D01*
X16060004Y22105428D01*
X16060004Y22105428D01*
G37*
G36*
X14808004Y22324928D02*
G01*
X14846258Y22317319D01*
X14906314Y22292442D01*
X14960363Y22256328D01*
X15006328Y22210363D01*
X15042442Y22156314D01*
X15067319Y22096258D01*
X15072056Y22072442D01*
X15077870Y22043214D01*
X15080000Y22032502D01*
X15080000Y21967498D01*
X15067319Y21903742D01*
X15042442Y21843686D01*
X15006328Y21789637D01*
X14960363Y21743672D01*
X14906314Y21707558D01*
X14846258Y21682681D01*
X14808004Y21675072D01*
X14782504Y21670000D01*
X14717496Y21670000D01*
X14691996Y21675072D01*
X14653742Y21682681D01*
X14593686Y21707558D01*
X14539637Y21743672D01*
X14493672Y21789637D01*
X14457558Y21843686D01*
X14432681Y21903742D01*
X14420000Y21967498D01*
X14420000Y22032502D01*
X14422131Y22043214D01*
X14427944Y22072442D01*
X14432681Y22096258D01*
X14457558Y22156314D01*
X14493672Y22210363D01*
X14539637Y22256328D01*
X14593686Y22292442D01*
X14653742Y22317319D01*
X14691996Y22324928D01*
X14717496Y22330000D01*
X14782504Y22330000D01*
X14808004Y22324928D01*
X14808004Y22324928D01*
G37*
G36*
X30808004Y22574928D02*
G01*
X30846258Y22567319D01*
X30906314Y22542442D01*
X30960363Y22506328D01*
X31006328Y22460363D01*
X31042442Y22406314D01*
X31067319Y22346258D01*
X31080000Y22282502D01*
X31080000Y22217498D01*
X31067319Y22153742D01*
X31042442Y22093686D01*
X31006328Y22039637D01*
X30960363Y21993672D01*
X30906314Y21957558D01*
X30846258Y21932681D01*
X30808004Y21925072D01*
X30782504Y21920000D01*
X30717496Y21920000D01*
X30691996Y21925072D01*
X30653742Y21932681D01*
X30593686Y21957558D01*
X30539637Y21993672D01*
X30493672Y22039637D01*
X30457558Y22093686D01*
X30432681Y22153742D01*
X30420000Y22217498D01*
X30420000Y22282502D01*
X30432681Y22346258D01*
X30457558Y22406314D01*
X30493672Y22460363D01*
X30539637Y22506328D01*
X30593686Y22542442D01*
X30653742Y22567319D01*
X30691996Y22574928D01*
X30717496Y22580000D01*
X30782504Y22580000D01*
X30808004Y22574928D01*
X30808004Y22574928D01*
G37*
G36*
X29058004Y22574928D02*
G01*
X29096258Y22567319D01*
X29156314Y22542442D01*
X29210363Y22506328D01*
X29256328Y22460363D01*
X29292442Y22406314D01*
X29317319Y22346258D01*
X29330000Y22282502D01*
X29330000Y22217498D01*
X29317319Y22153742D01*
X29292442Y22093686D01*
X29256328Y22039637D01*
X29210363Y21993672D01*
X29156314Y21957558D01*
X29096258Y21932681D01*
X29058004Y21925072D01*
X29032504Y21920000D01*
X28967496Y21920000D01*
X28941996Y21925072D01*
X28903742Y21932681D01*
X28843686Y21957558D01*
X28789637Y21993672D01*
X28743672Y22039637D01*
X28707558Y22093686D01*
X28682681Y22153742D01*
X28670000Y22217498D01*
X28670000Y22282502D01*
X28682681Y22346258D01*
X28707558Y22406314D01*
X28743672Y22460363D01*
X28789637Y22506328D01*
X28843686Y22542442D01*
X28903742Y22567319D01*
X28941996Y22574928D01*
X28967496Y22580000D01*
X29032504Y22580000D01*
X29058004Y22574928D01*
X29058004Y22574928D01*
G37*
G36*
X25360604Y22897628D02*
G01*
X25398858Y22890019D01*
X25458914Y22865142D01*
X25512963Y22829028D01*
X25558928Y22783063D01*
X25595042Y22729014D01*
X25619919Y22668958D01*
X25632600Y22605202D01*
X25632600Y22540198D01*
X25619919Y22476442D01*
X25595042Y22416386D01*
X25558928Y22362337D01*
X25512963Y22316372D01*
X25458914Y22280258D01*
X25398858Y22255381D01*
X25360604Y22247772D01*
X25335104Y22242700D01*
X25270096Y22242700D01*
X25244596Y22247772D01*
X25206342Y22255381D01*
X25146286Y22280258D01*
X25092237Y22316372D01*
X25046272Y22362337D01*
X25010158Y22416386D01*
X24985281Y22476442D01*
X24972600Y22540198D01*
X24972600Y22605202D01*
X24985281Y22668958D01*
X25010158Y22729014D01*
X25046272Y22783063D01*
X25092237Y22829028D01*
X25146286Y22865142D01*
X25206342Y22890019D01*
X25244596Y22897628D01*
X25270096Y22902700D01*
X25335104Y22902700D01*
X25360604Y22897628D01*
X25360604Y22897628D01*
G37*
G36*
X19823404Y23659628D02*
G01*
X19861658Y23652019D01*
X19921714Y23627142D01*
X19975763Y23591028D01*
X20021728Y23545063D01*
X20057842Y23491014D01*
X20082719Y23430958D01*
X20095400Y23367202D01*
X20095400Y23302198D01*
X20082719Y23238442D01*
X20057842Y23178386D01*
X20021728Y23124337D01*
X19975763Y23078372D01*
X19921714Y23042258D01*
X19861658Y23017381D01*
X19823404Y23009772D01*
X19797904Y23004700D01*
X19732896Y23004700D01*
X19707396Y23009772D01*
X19669142Y23017381D01*
X19609086Y23042258D01*
X19555037Y23078372D01*
X19509072Y23124337D01*
X19472958Y23178386D01*
X19448081Y23238442D01*
X19435400Y23302198D01*
X19435400Y23367202D01*
X19448081Y23430958D01*
X19472958Y23491014D01*
X19509072Y23545063D01*
X19555037Y23591028D01*
X19609086Y23627142D01*
X19669142Y23652019D01*
X19707396Y23659628D01*
X19732896Y23664700D01*
X19797904Y23664700D01*
X19823404Y23659628D01*
X19823404Y23659628D01*
G37*
G36*
X27443404Y23761228D02*
G01*
X27481658Y23753619D01*
X27541714Y23728742D01*
X27595763Y23692628D01*
X27641728Y23646663D01*
X27677842Y23592614D01*
X27702719Y23532558D01*
X27715400Y23468802D01*
X27715400Y23403798D01*
X27702719Y23340042D01*
X27677842Y23279986D01*
X27641728Y23225937D01*
X27595763Y23179972D01*
X27541714Y23143858D01*
X27481658Y23118981D01*
X27443404Y23111372D01*
X27417904Y23106300D01*
X27352896Y23106300D01*
X27327396Y23111372D01*
X27289142Y23118981D01*
X27229086Y23143858D01*
X27175037Y23179972D01*
X27129072Y23225937D01*
X27092958Y23279986D01*
X27068081Y23340042D01*
X27055400Y23403798D01*
X27055400Y23468802D01*
X27068081Y23532558D01*
X27092958Y23592614D01*
X27129072Y23646663D01*
X27175037Y23692628D01*
X27229086Y23728742D01*
X27289142Y23753619D01*
X27327396Y23761228D01*
X27352896Y23766300D01*
X27417904Y23766300D01*
X27443404Y23761228D01*
X27443404Y23761228D01*
G37*
G36*
X29058004Y24324928D02*
G01*
X29096258Y24317319D01*
X29156314Y24292442D01*
X29210363Y24256328D01*
X29256328Y24210363D01*
X29292442Y24156314D01*
X29317319Y24096258D01*
X29324928Y24058004D01*
X29330000Y24032504D01*
X29330000Y23967496D01*
X29324928Y23941996D01*
X29317319Y23903742D01*
X29292442Y23843686D01*
X29256328Y23789637D01*
X29210363Y23743672D01*
X29156314Y23707558D01*
X29096258Y23682681D01*
X29058004Y23675072D01*
X29032504Y23670000D01*
X28967496Y23670000D01*
X28941996Y23675072D01*
X28903742Y23682681D01*
X28843686Y23707558D01*
X28789637Y23743672D01*
X28743672Y23789637D01*
X28707558Y23843686D01*
X28682681Y23903742D01*
X28675072Y23941996D01*
X28670000Y23967496D01*
X28670000Y24032504D01*
X28675072Y24058004D01*
X28682681Y24096258D01*
X28707558Y24156314D01*
X28743672Y24210363D01*
X28789637Y24256328D01*
X28843686Y24292442D01*
X28903742Y24317319D01*
X28941996Y24324928D01*
X28967496Y24330000D01*
X29032504Y24330000D01*
X29058004Y24324928D01*
X29058004Y24324928D01*
G37*
G36*
X14808004Y24324928D02*
G01*
X14846258Y24317319D01*
X14906314Y24292442D01*
X14960363Y24256328D01*
X15006328Y24210363D01*
X15042442Y24156314D01*
X15067319Y24096258D01*
X15074928Y24058004D01*
X15080000Y24032504D01*
X15080000Y23967496D01*
X15074928Y23941996D01*
X15067319Y23903742D01*
X15042442Y23843686D01*
X15006328Y23789637D01*
X14960363Y23743672D01*
X14906314Y23707558D01*
X14846258Y23682681D01*
X14808004Y23675072D01*
X14782504Y23670000D01*
X14717496Y23670000D01*
X14691996Y23675072D01*
X14653742Y23682681D01*
X14593686Y23707558D01*
X14539637Y23743672D01*
X14493672Y23789637D01*
X14457558Y23843686D01*
X14432681Y23903742D01*
X14425072Y23941996D01*
X14420000Y23967496D01*
X14420000Y24032504D01*
X14425072Y24058004D01*
X14432681Y24096258D01*
X14457558Y24156314D01*
X14493672Y24210363D01*
X14539637Y24256328D01*
X14593686Y24292442D01*
X14653742Y24317319D01*
X14691996Y24324928D01*
X14717496Y24330000D01*
X14782504Y24330000D01*
X14808004Y24324928D01*
X14808004Y24324928D01*
G37*
G36*
X21952804Y24581928D02*
G01*
X21991058Y24574319D01*
X22051114Y24549442D01*
X22105163Y24513328D01*
X22151128Y24467363D01*
X22187242Y24413314D01*
X22212119Y24353258D01*
X22216745Y24330000D01*
X22224800Y24289504D01*
X22224800Y24224496D01*
X22219728Y24198996D01*
X22212119Y24160742D01*
X22187242Y24100686D01*
X22151128Y24046637D01*
X22105163Y24000672D01*
X22051114Y23964558D01*
X21991058Y23939681D01*
X21952804Y23932072D01*
X21927304Y23927000D01*
X21862296Y23927000D01*
X21836796Y23932072D01*
X21798542Y23939681D01*
X21738486Y23964558D01*
X21684437Y24000672D01*
X21638472Y24046637D01*
X21602358Y24100686D01*
X21577481Y24160742D01*
X21569872Y24198996D01*
X21564800Y24224496D01*
X21564800Y24289504D01*
X21572855Y24330000D01*
X21577481Y24353258D01*
X21602358Y24413314D01*
X21638472Y24467363D01*
X21684437Y24513328D01*
X21738486Y24549442D01*
X21798542Y24574319D01*
X21836796Y24581928D01*
X21862296Y24587000D01*
X21927304Y24587000D01*
X21952804Y24581928D01*
X21952804Y24581928D01*
G37*
G36*
X11424504Y24772428D02*
G01*
X11462758Y24764819D01*
X11522814Y24739942D01*
X11576863Y24703828D01*
X11622828Y24657863D01*
X11642211Y24628854D01*
X11654900Y24609864D01*
X11659252Y24604561D01*
X11664556Y24600208D01*
X11670607Y24596974D01*
X11677172Y24594982D01*
X11684000Y24594310D01*
X11690828Y24594983D01*
X11697394Y24596974D01*
X11703445Y24600209D01*
X11708748Y24604561D01*
X11713100Y24609864D01*
X11725789Y24628854D01*
X11745172Y24657863D01*
X11791137Y24703828D01*
X11845186Y24739942D01*
X11905242Y24764819D01*
X11943496Y24772428D01*
X11968996Y24777500D01*
X12034004Y24777500D01*
X12059504Y24772428D01*
X12097758Y24764819D01*
X12157814Y24739942D01*
X12211863Y24703828D01*
X12257828Y24657863D01*
X12293942Y24603814D01*
X12318819Y24543758D01*
X12331500Y24480002D01*
X12331500Y24414998D01*
X12318819Y24351242D01*
X12293942Y24291186D01*
X12257828Y24237137D01*
X12211863Y24191172D01*
X12157814Y24155058D01*
X12097758Y24130181D01*
X12059504Y24122572D01*
X12034004Y24117500D01*
X11968996Y24117500D01*
X11943496Y24122572D01*
X11905242Y24130181D01*
X11845186Y24155058D01*
X11791137Y24191172D01*
X11745172Y24237137D01*
X11713100Y24285136D01*
X11708748Y24290439D01*
X11703444Y24294792D01*
X11697393Y24298026D01*
X11690828Y24300018D01*
X11684000Y24300690D01*
X11677172Y24300017D01*
X11670606Y24298026D01*
X11664555Y24294791D01*
X11659252Y24290439D01*
X11654900Y24285136D01*
X11622828Y24237137D01*
X11576863Y24191172D01*
X11522814Y24155058D01*
X11462758Y24130181D01*
X11424504Y24122572D01*
X11399004Y24117500D01*
X11333996Y24117500D01*
X11308496Y24122572D01*
X11270242Y24130181D01*
X11210186Y24155058D01*
X11156137Y24191172D01*
X11110172Y24237137D01*
X11074058Y24291186D01*
X11049181Y24351242D01*
X11036500Y24414998D01*
X11036500Y24480002D01*
X11049181Y24543758D01*
X11074058Y24603814D01*
X11110172Y24657863D01*
X11156137Y24703828D01*
X11210186Y24739942D01*
X11270242Y24764819D01*
X11308496Y24772428D01*
X11333996Y24777500D01*
X11399004Y24777500D01*
X11424504Y24772428D01*
X11424504Y24772428D01*
G37*
G36*
X12214000Y24870000D02*
G01*
X11154000Y24870000D01*
X11154000Y25930000D01*
X12214000Y25930000D01*
X12214000Y24870000D01*
X12214000Y24870000D01*
G37*
G36*
X13484000Y24870000D02*
G01*
X12424000Y24870000D01*
X12424000Y25930000D01*
X13484000Y25930000D01*
X13484000Y24870000D01*
X13484000Y24870000D01*
G37*
G36*
X14754000Y24870000D02*
G01*
X13694000Y24870000D01*
X13694000Y25930000D01*
X14754000Y25930000D01*
X14754000Y24870000D01*
X14754000Y24870000D01*
G37*
G36*
X17294000Y24870000D02*
G01*
X16234000Y24870000D01*
X16234000Y25930000D01*
X17294000Y25930000D01*
X17294000Y24870000D01*
X17294000Y24870000D01*
G37*
G36*
X18564000Y24870000D02*
G01*
X17504000Y24870000D01*
X17504000Y25930000D01*
X18564000Y25930000D01*
X18564000Y24870000D01*
X18564000Y24870000D01*
G37*
G36*
X19834000Y24870000D02*
G01*
X18774000Y24870000D01*
X18774000Y25930000D01*
X19834000Y25930000D01*
X19834000Y24870000D01*
X19834000Y24870000D01*
G37*
G36*
X21104000Y24870000D02*
G01*
X20044000Y24870000D01*
X20044000Y25930000D01*
X21104000Y25930000D01*
X21104000Y24870000D01*
X21104000Y24870000D01*
G37*
G36*
X22374000Y24870000D02*
G01*
X21314000Y24870000D01*
X21314000Y25930000D01*
X22374000Y25930000D01*
X22374000Y24870000D01*
X22374000Y24870000D01*
G37*
G36*
X16024000Y24870000D02*
G01*
X14964000Y24870000D01*
X14964000Y25930000D01*
X16024000Y25930000D01*
X16024000Y24870000D01*
X16024000Y24870000D01*
G37*
G36*
X29994000Y24870000D02*
G01*
X28934000Y24870000D01*
X28934000Y25930000D01*
X29994000Y25930000D01*
X29994000Y24870000D01*
X29994000Y24870000D01*
G37*
G36*
X28724000Y24870000D02*
G01*
X27664000Y24870000D01*
X27664000Y25930000D01*
X28724000Y25930000D01*
X28724000Y24870000D01*
X28724000Y24870000D01*
G37*
G36*
X27454000Y24870000D02*
G01*
X26394000Y24870000D01*
X26394000Y25930000D01*
X27454000Y25930000D01*
X27454000Y24870000D01*
X27454000Y24870000D01*
G37*
G36*
X26184000Y24870000D02*
G01*
X25124000Y24870000D01*
X25124000Y25930000D01*
X26184000Y25930000D01*
X26184000Y24870000D01*
X26184000Y24870000D01*
G37*
G36*
X24914000Y24870000D02*
G01*
X23854000Y24870000D01*
X23854000Y25930000D01*
X24914000Y25930000D01*
X24914000Y24870000D01*
X24914000Y24870000D01*
G37*
G36*
X23644000Y24870000D02*
G01*
X22584000Y24870000D01*
X22584000Y25930000D01*
X23644000Y25930000D01*
X23644000Y24870000D01*
X23644000Y24870000D01*
G37*
G36*
X31264000Y24870000D02*
G01*
X30204000Y24870000D01*
X30204000Y25930000D01*
X31264000Y25930000D01*
X31264000Y24870000D01*
X31264000Y24870000D01*
G37*
M02*
