G04 #@! TF.GenerationSoftware,KiCad,Pcbnew,5.1.4-e60b266~84~ubuntu18.04.1*
G04 #@! TF.CreationDate,2019-11-20T19:52:41-06:00*
G04 #@! TF.ProjectId,rf,72662e6b-6963-4616-945f-706362585858,A*
G04 #@! TF.SameCoordinates,PX811c3f0PY66a06fc*
G04 #@! TF.FileFunction,Legend,Top*
G04 #@! TF.FilePolarity,Positive*
%FSLAX46Y46*%
G04 Gerber Fmt 4.6, Leading zero omitted, Abs format (unit mm)*
G04 Created by KiCad (PCBNEW 5.1.4-e60b266~84~ubuntu18.04.1) date 2019-11-20 19:52:41*
%MOMM*%
%LPD*%
G04 APERTURE LIST*
%ADD10C,0.500000*%
%ADD11C,0.150000*%
%ADD12C,0.076200*%
%ADD13C,0.120000*%
%ADD14C,0.010000*%
G04 APERTURE END LIST*
D10*
X30734000Y24205000D02*
G75*
G03X30734000Y24205000I0J0D01*
G01*
D11*
X6977142Y6786620D02*
X6643809Y7262810D01*
X6405714Y6786620D02*
X6405714Y7786620D01*
X6786666Y7786620D01*
X6881904Y7739000D01*
X6929523Y7691381D01*
X6977142Y7596143D01*
X6977142Y7453286D01*
X6929523Y7358048D01*
X6881904Y7310429D01*
X6786666Y7262810D01*
X6405714Y7262810D01*
X7310476Y7786620D02*
X7977142Y6786620D01*
X7977142Y7786620D02*
X7310476Y6786620D01*
X8310476Y7691381D02*
X8358095Y7739000D01*
X8453333Y7786620D01*
X8691428Y7786620D01*
X8786666Y7739000D01*
X8834285Y7691381D01*
X8881904Y7596143D01*
X8881904Y7500905D01*
X8834285Y7358048D01*
X8262857Y6786620D01*
X8881904Y6786620D01*
X6977142Y12882620D02*
X6643809Y13358810D01*
X6405714Y12882620D02*
X6405714Y13882620D01*
X6786666Y13882620D01*
X6881904Y13835000D01*
X6929523Y13787381D01*
X6977142Y13692143D01*
X6977142Y13549286D01*
X6929523Y13454048D01*
X6881904Y13406429D01*
X6786666Y13358810D01*
X6405714Y13358810D01*
X7310476Y13882620D02*
X7977142Y12882620D01*
X7977142Y13882620D02*
X7310476Y12882620D01*
X8881904Y12882620D02*
X8310476Y12882620D01*
X8596190Y12882620D02*
X8596190Y13882620D01*
X8500952Y13739762D01*
X8405714Y13644524D01*
X8310476Y13596905D01*
X6477095Y1563620D02*
X7048523Y1563620D01*
X6762809Y563620D02*
X6762809Y1563620D01*
X7286619Y1563620D02*
X7953285Y563620D01*
X7953285Y1563620D02*
X7286619Y563620D01*
D12*
X10620768Y17804191D02*
X10451434Y18046096D01*
X10330482Y17804191D02*
X10330482Y18312191D01*
X10524006Y18312191D01*
X10572387Y18288000D01*
X10596577Y18263810D01*
X10620768Y18215429D01*
X10620768Y18142858D01*
X10596577Y18094477D01*
X10572387Y18070286D01*
X10524006Y18046096D01*
X10330482Y18046096D01*
X11032006Y17828381D02*
X10983625Y17804191D01*
X10886863Y17804191D01*
X10838482Y17828381D01*
X10814291Y17876762D01*
X10814291Y18070286D01*
X10838482Y18118667D01*
X10886863Y18142858D01*
X10983625Y18142858D01*
X11032006Y18118667D01*
X11056196Y18070286D01*
X11056196Y18021905D01*
X10814291Y17973524D01*
X11225530Y18142858D02*
X11346482Y17804191D01*
X11467434Y18142858D01*
X12023815Y17949334D02*
X12265720Y17949334D01*
X11975434Y17804191D02*
X12144768Y18312191D01*
X12314101Y17804191D01*
X10499815Y18959286D02*
X10572387Y18935096D01*
X10596577Y18910905D01*
X10620768Y18862524D01*
X10620768Y18789953D01*
X10596577Y18741572D01*
X10572387Y18717381D01*
X10524006Y18693191D01*
X10330482Y18693191D01*
X10330482Y19201191D01*
X10499815Y19201191D01*
X10548196Y19177000D01*
X10572387Y19152810D01*
X10596577Y19104429D01*
X10596577Y19056048D01*
X10572387Y19007667D01*
X10548196Y18983477D01*
X10499815Y18959286D01*
X10330482Y18959286D01*
X11104577Y19177000D02*
X11056196Y19201191D01*
X10983625Y19201191D01*
X10911053Y19177000D01*
X10862672Y19128620D01*
X10838482Y19080239D01*
X10814291Y18983477D01*
X10814291Y18910905D01*
X10838482Y18814143D01*
X10862672Y18765762D01*
X10911053Y18717381D01*
X10983625Y18693191D01*
X11032006Y18693191D01*
X11104577Y18717381D01*
X11128768Y18741572D01*
X11128768Y18910905D01*
X11032006Y18910905D01*
X11273910Y19201191D02*
X11564196Y19201191D01*
X11419053Y18693191D02*
X11419053Y19201191D01*
X11709339Y19152810D02*
X11733530Y19177000D01*
X11781910Y19201191D01*
X11902863Y19201191D01*
X11951244Y19177000D01*
X11975434Y19152810D01*
X11999625Y19104429D01*
X11999625Y19056048D01*
X11975434Y18983477D01*
X11685149Y18693191D01*
X11999625Y18693191D01*
X12435053Y19031858D02*
X12435053Y18693191D01*
X12314101Y19225381D02*
X12193149Y18862524D01*
X12507625Y18862524D01*
X13088196Y18693191D02*
X13088196Y19201191D01*
X13257530Y18838334D01*
X13426863Y19201191D01*
X13426863Y18693191D01*
X13741339Y18693191D02*
X13692958Y18717381D01*
X13668768Y18741572D01*
X13644577Y18789953D01*
X13644577Y18935096D01*
X13668768Y18983477D01*
X13692958Y19007667D01*
X13741339Y19031858D01*
X13813910Y19031858D01*
X13862291Y19007667D01*
X13886482Y18983477D01*
X13910672Y18935096D01*
X13910672Y18789953D01*
X13886482Y18741572D01*
X13862291Y18717381D01*
X13813910Y18693191D01*
X13741339Y18693191D01*
X14346101Y18693191D02*
X14346101Y19201191D01*
X14346101Y18717381D02*
X14297720Y18693191D01*
X14200958Y18693191D01*
X14152577Y18717381D01*
X14128387Y18741572D01*
X14104196Y18789953D01*
X14104196Y18935096D01*
X14128387Y18983477D01*
X14152577Y19007667D01*
X14200958Y19031858D01*
X14297720Y19031858D01*
X14346101Y19007667D01*
X14805720Y19031858D02*
X14805720Y18693191D01*
X14588006Y19031858D02*
X14588006Y18765762D01*
X14612196Y18717381D01*
X14660577Y18693191D01*
X14733149Y18693191D01*
X14781530Y18717381D01*
X14805720Y18741572D01*
X15120196Y18693191D02*
X15071815Y18717381D01*
X15047625Y18765762D01*
X15047625Y19201191D01*
X15507244Y18717381D02*
X15458863Y18693191D01*
X15362101Y18693191D01*
X15313720Y18717381D01*
X15289530Y18765762D01*
X15289530Y18959286D01*
X15313720Y19007667D01*
X15362101Y19031858D01*
X15458863Y19031858D01*
X15507244Y19007667D01*
X15531434Y18959286D01*
X15531434Y18910905D01*
X15289530Y18862524D01*
D13*
X20115000Y19362900D02*
X20115000Y18887900D01*
X24335000Y23107900D02*
X23860000Y23107900D01*
X24335000Y22632900D02*
X24335000Y23107900D01*
X24335000Y18887900D02*
X23860000Y18887900D01*
X24335000Y19362900D02*
X24335000Y18887900D01*
X20115000Y23107900D02*
X20590000Y23107900D01*
X20115000Y22632900D02*
X20115000Y23107900D01*
D14*
G36*
X10704438Y22864195D02*
G01*
X10723555Y22864135D01*
X10740205Y22864005D01*
X10754846Y22863783D01*
X10767937Y22863448D01*
X10779938Y22862981D01*
X10791307Y22862360D01*
X10802505Y22861563D01*
X10813991Y22860571D01*
X10826223Y22859362D01*
X10839661Y22857915D01*
X10852573Y22856461D01*
X10911025Y22848361D01*
X10967366Y22837645D01*
X11021588Y22824320D01*
X11073682Y22808388D01*
X11123638Y22789855D01*
X11171448Y22768724D01*
X11217104Y22745002D01*
X11260595Y22718691D01*
X11301914Y22689797D01*
X11341050Y22658323D01*
X11377997Y22624276D01*
X11412744Y22587658D01*
X11437870Y22557870D01*
X11467938Y22517756D01*
X11496009Y22474958D01*
X11522046Y22429556D01*
X11546011Y22381629D01*
X11567867Y22331256D01*
X11587577Y22278516D01*
X11605104Y22223487D01*
X11618027Y22175894D01*
X11627380Y22136364D01*
X11635701Y22096253D01*
X11643049Y22055139D01*
X11649486Y22012600D01*
X11655073Y21968211D01*
X11659872Y21921552D01*
X11663943Y21872199D01*
X11665714Y21846540D01*
X11666343Y21834422D01*
X11666866Y21819368D01*
X11667285Y21801825D01*
X11667602Y21782241D01*
X11667818Y21761067D01*
X11667934Y21738748D01*
X11667951Y21715735D01*
X11667872Y21692475D01*
X11667697Y21669417D01*
X11667428Y21647008D01*
X11667066Y21625698D01*
X11666613Y21605934D01*
X11666070Y21588166D01*
X11665438Y21572840D01*
X11664832Y21562060D01*
X11660867Y21509283D01*
X11656130Y21459432D01*
X11650573Y21412126D01*
X11644148Y21366983D01*
X11636806Y21323620D01*
X11630655Y21291974D01*
X11616965Y21231616D01*
X11601230Y21173943D01*
X11583437Y21118929D01*
X11563568Y21066544D01*
X11541608Y21016764D01*
X11517542Y20969559D01*
X11491352Y20924902D01*
X11463025Y20882767D01*
X11432542Y20843125D01*
X11399890Y20805950D01*
X11365051Y20771215D01*
X11328011Y20738891D01*
X11295701Y20713959D01*
X11256702Y20687545D01*
X11215163Y20663325D01*
X11171145Y20641326D01*
X11124709Y20621572D01*
X11075915Y20604089D01*
X11024825Y20588904D01*
X10971500Y20576042D01*
X10966026Y20574880D01*
X10922124Y20566625D01*
X10876185Y20559852D01*
X10828139Y20554565D01*
X10777915Y20550766D01*
X10725442Y20548457D01*
X10670651Y20547642D01*
X10613469Y20548323D01*
X10553826Y20550503D01*
X10491652Y20554183D01*
X10426876Y20559367D01*
X10359426Y20566057D01*
X10289232Y20574256D01*
X10216224Y20583967D01*
X10140331Y20595191D01*
X10061526Y20607925D01*
X10051865Y20609539D01*
X10043390Y20610938D01*
X10036654Y20612031D01*
X10032208Y20612730D01*
X10030623Y20612947D01*
X10030536Y20611277D01*
X10030452Y20606358D01*
X10030369Y20598330D01*
X10030289Y20587331D01*
X10030212Y20573499D01*
X10030138Y20556973D01*
X10030068Y20537890D01*
X10030002Y20516391D01*
X10029940Y20492613D01*
X10029882Y20466694D01*
X10029829Y20438774D01*
X10029781Y20408990D01*
X10029738Y20377481D01*
X10029701Y20344386D01*
X10029670Y20309843D01*
X10029646Y20273991D01*
X10029628Y20236968D01*
X10029617Y20198912D01*
X10029613Y20159962D01*
X10029613Y19705320D01*
X9762064Y19705320D01*
X9762489Y21205972D01*
X9762626Y21692797D01*
X10029613Y21692797D01*
X10029613Y20852406D01*
X10072370Y20845179D01*
X10130824Y20835504D01*
X10186292Y20826753D01*
X10239036Y20818889D01*
X10289317Y20811879D01*
X10337397Y20805688D01*
X10383539Y20800280D01*
X10428004Y20795621D01*
X10471054Y20791676D01*
X10480886Y20790858D01*
X10492421Y20789938D01*
X10503603Y20789099D01*
X10514910Y20788312D01*
X10526820Y20787548D01*
X10539811Y20786779D01*
X10554361Y20785976D01*
X10570947Y20785112D01*
X10590047Y20784156D01*
X10607886Y20783287D01*
X10614835Y20783074D01*
X10624580Y20782949D01*
X10636624Y20782907D01*
X10650465Y20782939D01*
X10665605Y20783039D01*
X10681543Y20783201D01*
X10697780Y20783417D01*
X10713816Y20783679D01*
X10729151Y20783983D01*
X10743287Y20784319D01*
X10755722Y20784683D01*
X10765958Y20785065D01*
X10773495Y20785461D01*
X10775526Y20785611D01*
X10824961Y20790874D01*
X10871750Y20798177D01*
X10915985Y20807567D01*
X10957757Y20819090D01*
X10997156Y20832792D01*
X11034274Y20848718D01*
X11069202Y20866915D01*
X11102031Y20887429D01*
X11132853Y20910305D01*
X11161758Y20935589D01*
X11188838Y20963328D01*
X11214184Y20993568D01*
X11229860Y21014712D01*
X11252657Y21049656D01*
X11273680Y21087481D01*
X11292927Y21128178D01*
X11310397Y21171740D01*
X11326087Y21218160D01*
X11339994Y21267431D01*
X11352118Y21319547D01*
X11362456Y21374500D01*
X11371005Y21432283D01*
X11377764Y21492889D01*
X11379975Y21518034D01*
X11383497Y21569346D01*
X11385891Y21622420D01*
X11387162Y21676552D01*
X11387316Y21731038D01*
X11386358Y21785175D01*
X11384295Y21838259D01*
X11381131Y21889587D01*
X11376873Y21938454D01*
X11376575Y21941367D01*
X11369817Y21997528D01*
X11361370Y22051470D01*
X11351279Y22102951D01*
X11339589Y22151729D01*
X11335959Y22165142D01*
X11321167Y22213567D01*
X11304464Y22259203D01*
X11285828Y22302071D01*
X11265235Y22342195D01*
X11242660Y22379597D01*
X11218081Y22414300D01*
X11191474Y22446327D01*
X11162814Y22475701D01*
X11132080Y22502445D01*
X11099246Y22526580D01*
X11064290Y22548131D01*
X11027187Y22567119D01*
X10987914Y22583567D01*
X10946448Y22597499D01*
X10902765Y22608936D01*
X10867813Y22616020D01*
X10840389Y22620500D01*
X10813054Y22624079D01*
X10785158Y22626809D01*
X10756052Y22628738D01*
X10725087Y22629919D01*
X10691613Y22630400D01*
X10682393Y22630417D01*
X10663484Y22630355D01*
X10646593Y22630166D01*
X10631029Y22629817D01*
X10616102Y22629272D01*
X10601121Y22628496D01*
X10585396Y22627456D01*
X10568236Y22626116D01*
X10548950Y22624441D01*
X10531686Y22622853D01*
X10494184Y22619007D01*
X10454741Y22614338D01*
X10413836Y22608930D01*
X10371950Y22602866D01*
X10329562Y22596230D01*
X10287153Y22589106D01*
X10245201Y22581577D01*
X10204189Y22573726D01*
X10164594Y22565638D01*
X10126898Y22557396D01*
X10091580Y22549084D01*
X10059121Y22540785D01*
X10056126Y22539980D01*
X10047414Y22537637D01*
X10039921Y22535643D01*
X10034225Y22534152D01*
X10030905Y22533314D01*
X10030303Y22533187D01*
X10030259Y22531511D01*
X10030216Y22526550D01*
X10030174Y22518405D01*
X10030133Y22507179D01*
X10030092Y22492974D01*
X10030053Y22475891D01*
X10030015Y22456031D01*
X10029978Y22433498D01*
X10029942Y22408391D01*
X10029908Y22380814D01*
X10029875Y22350868D01*
X10029844Y22318655D01*
X10029814Y22284276D01*
X10029786Y22247834D01*
X10029760Y22209429D01*
X10029735Y22169164D01*
X10029713Y22127141D01*
X10029692Y22083461D01*
X10029674Y22038226D01*
X10029658Y21991538D01*
X10029644Y21943499D01*
X10029633Y21894210D01*
X10029624Y21843773D01*
X10029618Y21792290D01*
X10029614Y21739863D01*
X10029613Y21692797D01*
X9762626Y21692797D01*
X9762913Y22706623D01*
X9776460Y22710557D01*
X9835899Y22727363D01*
X9896345Y22743565D01*
X9957387Y22759074D01*
X10018618Y22773803D01*
X10079627Y22787665D01*
X10140006Y22800572D01*
X10199346Y22812436D01*
X10257239Y22823169D01*
X10313275Y22832684D01*
X10367046Y22840894D01*
X10414000Y22847198D01*
X10444214Y22850872D01*
X10471712Y22854001D01*
X10497115Y22856627D01*
X10521044Y22858787D01*
X10544118Y22860522D01*
X10566958Y22861870D01*
X10590184Y22862870D01*
X10614417Y22863563D01*
X10640278Y22863987D01*
X10668386Y22864182D01*
X10682393Y22864206D01*
X10704438Y22864195D01*
X10704438Y22864195D01*
G37*
X10704438Y22864195D02*
X10723555Y22864135D01*
X10740205Y22864005D01*
X10754846Y22863783D01*
X10767937Y22863448D01*
X10779938Y22862981D01*
X10791307Y22862360D01*
X10802505Y22861563D01*
X10813991Y22860571D01*
X10826223Y22859362D01*
X10839661Y22857915D01*
X10852573Y22856461D01*
X10911025Y22848361D01*
X10967366Y22837645D01*
X11021588Y22824320D01*
X11073682Y22808388D01*
X11123638Y22789855D01*
X11171448Y22768724D01*
X11217104Y22745002D01*
X11260595Y22718691D01*
X11301914Y22689797D01*
X11341050Y22658323D01*
X11377997Y22624276D01*
X11412744Y22587658D01*
X11437870Y22557870D01*
X11467938Y22517756D01*
X11496009Y22474958D01*
X11522046Y22429556D01*
X11546011Y22381629D01*
X11567867Y22331256D01*
X11587577Y22278516D01*
X11605104Y22223487D01*
X11618027Y22175894D01*
X11627380Y22136364D01*
X11635701Y22096253D01*
X11643049Y22055139D01*
X11649486Y22012600D01*
X11655073Y21968211D01*
X11659872Y21921552D01*
X11663943Y21872199D01*
X11665714Y21846540D01*
X11666343Y21834422D01*
X11666866Y21819368D01*
X11667285Y21801825D01*
X11667602Y21782241D01*
X11667818Y21761067D01*
X11667934Y21738748D01*
X11667951Y21715735D01*
X11667872Y21692475D01*
X11667697Y21669417D01*
X11667428Y21647008D01*
X11667066Y21625698D01*
X11666613Y21605934D01*
X11666070Y21588166D01*
X11665438Y21572840D01*
X11664832Y21562060D01*
X11660867Y21509283D01*
X11656130Y21459432D01*
X11650573Y21412126D01*
X11644148Y21366983D01*
X11636806Y21323620D01*
X11630655Y21291974D01*
X11616965Y21231616D01*
X11601230Y21173943D01*
X11583437Y21118929D01*
X11563568Y21066544D01*
X11541608Y21016764D01*
X11517542Y20969559D01*
X11491352Y20924902D01*
X11463025Y20882767D01*
X11432542Y20843125D01*
X11399890Y20805950D01*
X11365051Y20771215D01*
X11328011Y20738891D01*
X11295701Y20713959D01*
X11256702Y20687545D01*
X11215163Y20663325D01*
X11171145Y20641326D01*
X11124709Y20621572D01*
X11075915Y20604089D01*
X11024825Y20588904D01*
X10971500Y20576042D01*
X10966026Y20574880D01*
X10922124Y20566625D01*
X10876185Y20559852D01*
X10828139Y20554565D01*
X10777915Y20550766D01*
X10725442Y20548457D01*
X10670651Y20547642D01*
X10613469Y20548323D01*
X10553826Y20550503D01*
X10491652Y20554183D01*
X10426876Y20559367D01*
X10359426Y20566057D01*
X10289232Y20574256D01*
X10216224Y20583967D01*
X10140331Y20595191D01*
X10061526Y20607925D01*
X10051865Y20609539D01*
X10043390Y20610938D01*
X10036654Y20612031D01*
X10032208Y20612730D01*
X10030623Y20612947D01*
X10030536Y20611277D01*
X10030452Y20606358D01*
X10030369Y20598330D01*
X10030289Y20587331D01*
X10030212Y20573499D01*
X10030138Y20556973D01*
X10030068Y20537890D01*
X10030002Y20516391D01*
X10029940Y20492613D01*
X10029882Y20466694D01*
X10029829Y20438774D01*
X10029781Y20408990D01*
X10029738Y20377481D01*
X10029701Y20344386D01*
X10029670Y20309843D01*
X10029646Y20273991D01*
X10029628Y20236968D01*
X10029617Y20198912D01*
X10029613Y20159962D01*
X10029613Y19705320D01*
X9762064Y19705320D01*
X9762489Y21205972D01*
X9762626Y21692797D01*
X10029613Y21692797D01*
X10029613Y20852406D01*
X10072370Y20845179D01*
X10130824Y20835504D01*
X10186292Y20826753D01*
X10239036Y20818889D01*
X10289317Y20811879D01*
X10337397Y20805688D01*
X10383539Y20800280D01*
X10428004Y20795621D01*
X10471054Y20791676D01*
X10480886Y20790858D01*
X10492421Y20789938D01*
X10503603Y20789099D01*
X10514910Y20788312D01*
X10526820Y20787548D01*
X10539811Y20786779D01*
X10554361Y20785976D01*
X10570947Y20785112D01*
X10590047Y20784156D01*
X10607886Y20783287D01*
X10614835Y20783074D01*
X10624580Y20782949D01*
X10636624Y20782907D01*
X10650465Y20782939D01*
X10665605Y20783039D01*
X10681543Y20783201D01*
X10697780Y20783417D01*
X10713816Y20783679D01*
X10729151Y20783983D01*
X10743287Y20784319D01*
X10755722Y20784683D01*
X10765958Y20785065D01*
X10773495Y20785461D01*
X10775526Y20785611D01*
X10824961Y20790874D01*
X10871750Y20798177D01*
X10915985Y20807567D01*
X10957757Y20819090D01*
X10997156Y20832792D01*
X11034274Y20848718D01*
X11069202Y20866915D01*
X11102031Y20887429D01*
X11132853Y20910305D01*
X11161758Y20935589D01*
X11188838Y20963328D01*
X11214184Y20993568D01*
X11229860Y21014712D01*
X11252657Y21049656D01*
X11273680Y21087481D01*
X11292927Y21128178D01*
X11310397Y21171740D01*
X11326087Y21218160D01*
X11339994Y21267431D01*
X11352118Y21319547D01*
X11362456Y21374500D01*
X11371005Y21432283D01*
X11377764Y21492889D01*
X11379975Y21518034D01*
X11383497Y21569346D01*
X11385891Y21622420D01*
X11387162Y21676552D01*
X11387316Y21731038D01*
X11386358Y21785175D01*
X11384295Y21838259D01*
X11381131Y21889587D01*
X11376873Y21938454D01*
X11376575Y21941367D01*
X11369817Y21997528D01*
X11361370Y22051470D01*
X11351279Y22102951D01*
X11339589Y22151729D01*
X11335959Y22165142D01*
X11321167Y22213567D01*
X11304464Y22259203D01*
X11285828Y22302071D01*
X11265235Y22342195D01*
X11242660Y22379597D01*
X11218081Y22414300D01*
X11191474Y22446327D01*
X11162814Y22475701D01*
X11132080Y22502445D01*
X11099246Y22526580D01*
X11064290Y22548131D01*
X11027187Y22567119D01*
X10987914Y22583567D01*
X10946448Y22597499D01*
X10902765Y22608936D01*
X10867813Y22616020D01*
X10840389Y22620500D01*
X10813054Y22624079D01*
X10785158Y22626809D01*
X10756052Y22628738D01*
X10725087Y22629919D01*
X10691613Y22630400D01*
X10682393Y22630417D01*
X10663484Y22630355D01*
X10646593Y22630166D01*
X10631029Y22629817D01*
X10616102Y22629272D01*
X10601121Y22628496D01*
X10585396Y22627456D01*
X10568236Y22626116D01*
X10548950Y22624441D01*
X10531686Y22622853D01*
X10494184Y22619007D01*
X10454741Y22614338D01*
X10413836Y22608930D01*
X10371950Y22602866D01*
X10329562Y22596230D01*
X10287153Y22589106D01*
X10245201Y22581577D01*
X10204189Y22573726D01*
X10164594Y22565638D01*
X10126898Y22557396D01*
X10091580Y22549084D01*
X10059121Y22540785D01*
X10056126Y22539980D01*
X10047414Y22537637D01*
X10039921Y22535643D01*
X10034225Y22534152D01*
X10030905Y22533314D01*
X10030303Y22533187D01*
X10030259Y22531511D01*
X10030216Y22526550D01*
X10030174Y22518405D01*
X10030133Y22507179D01*
X10030092Y22492974D01*
X10030053Y22475891D01*
X10030015Y22456031D01*
X10029978Y22433498D01*
X10029942Y22408391D01*
X10029908Y22380814D01*
X10029875Y22350868D01*
X10029844Y22318655D01*
X10029814Y22284276D01*
X10029786Y22247834D01*
X10029760Y22209429D01*
X10029735Y22169164D01*
X10029713Y22127141D01*
X10029692Y22083461D01*
X10029674Y22038226D01*
X10029658Y21991538D01*
X10029644Y21943499D01*
X10029633Y21894210D01*
X10029624Y21843773D01*
X10029618Y21792290D01*
X10029614Y21739863D01*
X10029613Y21692797D01*
X9762626Y21692797D01*
X9762913Y22706623D01*
X9776460Y22710557D01*
X9835899Y22727363D01*
X9896345Y22743565D01*
X9957387Y22759074D01*
X10018618Y22773803D01*
X10079627Y22787665D01*
X10140006Y22800572D01*
X10199346Y22812436D01*
X10257239Y22823169D01*
X10313275Y22832684D01*
X10367046Y22840894D01*
X10414000Y22847198D01*
X10444214Y22850872D01*
X10471712Y22854001D01*
X10497115Y22856627D01*
X10521044Y22858787D01*
X10544118Y22860522D01*
X10566958Y22861870D01*
X10590184Y22862870D01*
X10614417Y22863563D01*
X10640278Y22863987D01*
X10668386Y22864182D01*
X10682393Y22864206D01*
X10704438Y22864195D01*
G36*
X1044786Y22772325D02*
G01*
X1067223Y22777970D01*
X1152878Y22798257D01*
X1238046Y22815861D01*
X1323331Y22830879D01*
X1409342Y22843407D01*
X1496682Y22853544D01*
X1585959Y22861385D01*
X1591733Y22861809D01*
X1601927Y22862408D01*
X1614909Y22862948D01*
X1630194Y22863425D01*
X1647293Y22863834D01*
X1665719Y22864173D01*
X1684986Y22864436D01*
X1704605Y22864621D01*
X1724090Y22864722D01*
X1742953Y22864737D01*
X1760707Y22864662D01*
X1776865Y22864492D01*
X1790940Y22864223D01*
X1802444Y22863852D01*
X1808480Y22863544D01*
X1858377Y22859584D01*
X1905710Y22854087D01*
X1950974Y22846961D01*
X1994667Y22838114D01*
X2037288Y22827454D01*
X2079332Y22814890D01*
X2088726Y22811803D01*
X2138305Y22793577D01*
X2185750Y22772725D01*
X2231055Y22749250D01*
X2274216Y22723158D01*
X2315227Y22694451D01*
X2354082Y22663134D01*
X2390776Y22629212D01*
X2425303Y22592688D01*
X2457658Y22553567D01*
X2487835Y22511852D01*
X2491695Y22506094D01*
X2502655Y22489378D01*
X2512108Y22474428D01*
X2520594Y22460314D01*
X2528654Y22446104D01*
X2536828Y22430869D01*
X2545658Y22413677D01*
X2547300Y22410420D01*
X2569956Y22362143D01*
X2590526Y22311533D01*
X2609021Y22258542D01*
X2625452Y22203121D01*
X2639833Y22145221D01*
X2652173Y22084793D01*
X2662485Y22021788D01*
X2670782Y21956157D01*
X2677074Y21887851D01*
X2678848Y21862627D01*
X2680286Y21836376D01*
X2681399Y21807418D01*
X2682190Y21776416D01*
X2682657Y21744033D01*
X2682800Y21710934D01*
X2682621Y21677781D01*
X2682118Y21645239D01*
X2681292Y21613971D01*
X2680143Y21584641D01*
X2678814Y21560144D01*
X2673251Y21489325D01*
X2665645Y21421194D01*
X2655988Y21355735D01*
X2644274Y21292930D01*
X2630494Y21232762D01*
X2614641Y21175214D01*
X2596709Y21120268D01*
X2576691Y21067908D01*
X2554578Y21018117D01*
X2530365Y20970876D01*
X2504043Y20926169D01*
X2475605Y20883978D01*
X2445045Y20844286D01*
X2412354Y20807076D01*
X2377527Y20772332D01*
X2340555Y20740034D01*
X2334092Y20734814D01*
X2305948Y20713357D01*
X2277479Y20693764D01*
X2247818Y20675489D01*
X2216102Y20657983D01*
X2197918Y20648708D01*
X2155620Y20629054D01*
X2112031Y20611537D01*
X2066947Y20596107D01*
X2020159Y20582716D01*
X1971463Y20571314D01*
X1920652Y20561851D01*
X1867519Y20554279D01*
X1811859Y20548547D01*
X1765535Y20545264D01*
X1758060Y20544943D01*
X1747739Y20544659D01*
X1735068Y20544414D01*
X1720545Y20544210D01*
X1704666Y20544049D01*
X1687929Y20543932D01*
X1670830Y20543861D01*
X1653866Y20543837D01*
X1637535Y20543863D01*
X1622333Y20543939D01*
X1608757Y20544069D01*
X1597305Y20544253D01*
X1588472Y20544492D01*
X1584960Y20544646D01*
X1549118Y20546752D01*
X1513636Y20549220D01*
X1478292Y20552087D01*
X1442864Y20555385D01*
X1407130Y20559149D01*
X1370867Y20563413D01*
X1333854Y20568211D01*
X1295869Y20573578D01*
X1256689Y20579548D01*
X1216093Y20586155D01*
X1173858Y20593432D01*
X1129764Y20601415D01*
X1083586Y20610137D01*
X1035104Y20619633D01*
X984096Y20629936D01*
X930339Y20641082D01*
X873612Y20653104D01*
X855980Y20656886D01*
X840821Y20660149D01*
X826590Y20663215D01*
X813649Y20666006D01*
X802362Y20668444D01*
X793092Y20670450D01*
X786200Y20671946D01*
X782049Y20672854D01*
X781050Y20673078D01*
X777240Y20673972D01*
X777240Y22532903D01*
X1044786Y22532903D01*
X1044786Y20852218D01*
X1065530Y20848565D01*
X1073704Y20847121D01*
X1084317Y20845243D01*
X1096471Y20843088D01*
X1109272Y20840815D01*
X1121822Y20838583D01*
X1123526Y20838280D01*
X1167321Y20830738D01*
X1212213Y20823492D01*
X1257459Y20816647D01*
X1302314Y20810309D01*
X1346032Y20804583D01*
X1387871Y20799577D01*
X1421553Y20795949D01*
X1440115Y20794103D01*
X1457420Y20792473D01*
X1474022Y20791017D01*
X1490476Y20789698D01*
X1507339Y20788475D01*
X1525165Y20787308D01*
X1544511Y20786159D01*
X1565931Y20784987D01*
X1589981Y20783754D01*
X1599353Y20783288D01*
X1607870Y20783011D01*
X1619224Y20782853D01*
X1632890Y20782807D01*
X1648346Y20782864D01*
X1665068Y20783014D01*
X1682533Y20783248D01*
X1700219Y20783558D01*
X1717601Y20783934D01*
X1734157Y20784367D01*
X1749363Y20784849D01*
X1762697Y20785369D01*
X1773634Y20785920D01*
X1780955Y20786430D01*
X1825575Y20791024D01*
X1867363Y20796957D01*
X1906626Y20804306D01*
X1943675Y20813149D01*
X1978820Y20823563D01*
X2012370Y20835624D01*
X2044634Y20849410D01*
X2056553Y20855083D01*
X2091257Y20873750D01*
X2124031Y20894847D01*
X2154893Y20918406D01*
X2183857Y20944457D01*
X2210939Y20973034D01*
X2236155Y21004166D01*
X2259521Y21037887D01*
X2281052Y21074227D01*
X2300764Y21113219D01*
X2318672Y21154893D01*
X2334793Y21199282D01*
X2349141Y21246418D01*
X2361733Y21296331D01*
X2372585Y21349054D01*
X2381712Y21404618D01*
X2389129Y21463055D01*
X2394853Y21524396D01*
X2396011Y21540047D01*
X2397514Y21564670D01*
X2398776Y21591985D01*
X2399790Y21621307D01*
X2400547Y21651949D01*
X2401038Y21683226D01*
X2401256Y21714451D01*
X2401192Y21744939D01*
X2400838Y21774003D01*
X2400185Y21800958D01*
X2399415Y21821140D01*
X2395672Y21883420D01*
X2390279Y21942859D01*
X2383210Y21999589D01*
X2374440Y22053741D01*
X2363946Y22105445D01*
X2351704Y22154831D01*
X2337687Y22202030D01*
X2321873Y22247172D01*
X2317688Y22258020D01*
X2309242Y22278123D01*
X2299201Y22299712D01*
X2287995Y22321985D01*
X2276057Y22344140D01*
X2263816Y22365374D01*
X2251704Y22384885D01*
X2241231Y22400362D01*
X2218291Y22430203D01*
X2193018Y22458664D01*
X2165919Y22485251D01*
X2137500Y22509467D01*
X2108267Y22530818D01*
X2107526Y22531313D01*
X2073019Y22552417D01*
X2036549Y22570981D01*
X1998050Y22587025D01*
X1957454Y22600572D01*
X1914697Y22611642D01*
X1869710Y22620256D01*
X1822429Y22626436D01*
X1805940Y22627976D01*
X1775774Y22629912D01*
X1742720Y22630903D01*
X1707137Y22630970D01*
X1669383Y22630134D01*
X1629816Y22628416D01*
X1588795Y22625834D01*
X1546679Y22622410D01*
X1503826Y22618164D01*
X1460595Y22613116D01*
X1417343Y22607286D01*
X1402601Y22605116D01*
X1357770Y22597991D01*
X1310483Y22589763D01*
X1261435Y22580571D01*
X1211323Y22570553D01*
X1160840Y22559846D01*
X1110683Y22548588D01*
X1073996Y22539939D01*
X1044786Y22532903D01*
X777240Y22532903D01*
X777240Y24003000D01*
X1044786Y24003000D01*
X1044786Y22772325D01*
X1044786Y22772325D01*
G37*
X1044786Y22772325D02*
X1067223Y22777970D01*
X1152878Y22798257D01*
X1238046Y22815861D01*
X1323331Y22830879D01*
X1409342Y22843407D01*
X1496682Y22853544D01*
X1585959Y22861385D01*
X1591733Y22861809D01*
X1601927Y22862408D01*
X1614909Y22862948D01*
X1630194Y22863425D01*
X1647293Y22863834D01*
X1665719Y22864173D01*
X1684986Y22864436D01*
X1704605Y22864621D01*
X1724090Y22864722D01*
X1742953Y22864737D01*
X1760707Y22864662D01*
X1776865Y22864492D01*
X1790940Y22864223D01*
X1802444Y22863852D01*
X1808480Y22863544D01*
X1858377Y22859584D01*
X1905710Y22854087D01*
X1950974Y22846961D01*
X1994667Y22838114D01*
X2037288Y22827454D01*
X2079332Y22814890D01*
X2088726Y22811803D01*
X2138305Y22793577D01*
X2185750Y22772725D01*
X2231055Y22749250D01*
X2274216Y22723158D01*
X2315227Y22694451D01*
X2354082Y22663134D01*
X2390776Y22629212D01*
X2425303Y22592688D01*
X2457658Y22553567D01*
X2487835Y22511852D01*
X2491695Y22506094D01*
X2502655Y22489378D01*
X2512108Y22474428D01*
X2520594Y22460314D01*
X2528654Y22446104D01*
X2536828Y22430869D01*
X2545658Y22413677D01*
X2547300Y22410420D01*
X2569956Y22362143D01*
X2590526Y22311533D01*
X2609021Y22258542D01*
X2625452Y22203121D01*
X2639833Y22145221D01*
X2652173Y22084793D01*
X2662485Y22021788D01*
X2670782Y21956157D01*
X2677074Y21887851D01*
X2678848Y21862627D01*
X2680286Y21836376D01*
X2681399Y21807418D01*
X2682190Y21776416D01*
X2682657Y21744033D01*
X2682800Y21710934D01*
X2682621Y21677781D01*
X2682118Y21645239D01*
X2681292Y21613971D01*
X2680143Y21584641D01*
X2678814Y21560144D01*
X2673251Y21489325D01*
X2665645Y21421194D01*
X2655988Y21355735D01*
X2644274Y21292930D01*
X2630494Y21232762D01*
X2614641Y21175214D01*
X2596709Y21120268D01*
X2576691Y21067908D01*
X2554578Y21018117D01*
X2530365Y20970876D01*
X2504043Y20926169D01*
X2475605Y20883978D01*
X2445045Y20844286D01*
X2412354Y20807076D01*
X2377527Y20772332D01*
X2340555Y20740034D01*
X2334092Y20734814D01*
X2305948Y20713357D01*
X2277479Y20693764D01*
X2247818Y20675489D01*
X2216102Y20657983D01*
X2197918Y20648708D01*
X2155620Y20629054D01*
X2112031Y20611537D01*
X2066947Y20596107D01*
X2020159Y20582716D01*
X1971463Y20571314D01*
X1920652Y20561851D01*
X1867519Y20554279D01*
X1811859Y20548547D01*
X1765535Y20545264D01*
X1758060Y20544943D01*
X1747739Y20544659D01*
X1735068Y20544414D01*
X1720545Y20544210D01*
X1704666Y20544049D01*
X1687929Y20543932D01*
X1670830Y20543861D01*
X1653866Y20543837D01*
X1637535Y20543863D01*
X1622333Y20543939D01*
X1608757Y20544069D01*
X1597305Y20544253D01*
X1588472Y20544492D01*
X1584960Y20544646D01*
X1549118Y20546752D01*
X1513636Y20549220D01*
X1478292Y20552087D01*
X1442864Y20555385D01*
X1407130Y20559149D01*
X1370867Y20563413D01*
X1333854Y20568211D01*
X1295869Y20573578D01*
X1256689Y20579548D01*
X1216093Y20586155D01*
X1173858Y20593432D01*
X1129764Y20601415D01*
X1083586Y20610137D01*
X1035104Y20619633D01*
X984096Y20629936D01*
X930339Y20641082D01*
X873612Y20653104D01*
X855980Y20656886D01*
X840821Y20660149D01*
X826590Y20663215D01*
X813649Y20666006D01*
X802362Y20668444D01*
X793092Y20670450D01*
X786200Y20671946D01*
X782049Y20672854D01*
X781050Y20673078D01*
X777240Y20673972D01*
X777240Y22532903D01*
X1044786Y22532903D01*
X1044786Y20852218D01*
X1065530Y20848565D01*
X1073704Y20847121D01*
X1084317Y20845243D01*
X1096471Y20843088D01*
X1109272Y20840815D01*
X1121822Y20838583D01*
X1123526Y20838280D01*
X1167321Y20830738D01*
X1212213Y20823492D01*
X1257459Y20816647D01*
X1302314Y20810309D01*
X1346032Y20804583D01*
X1387871Y20799577D01*
X1421553Y20795949D01*
X1440115Y20794103D01*
X1457420Y20792473D01*
X1474022Y20791017D01*
X1490476Y20789698D01*
X1507339Y20788475D01*
X1525165Y20787308D01*
X1544511Y20786159D01*
X1565931Y20784987D01*
X1589981Y20783754D01*
X1599353Y20783288D01*
X1607870Y20783011D01*
X1619224Y20782853D01*
X1632890Y20782807D01*
X1648346Y20782864D01*
X1665068Y20783014D01*
X1682533Y20783248D01*
X1700219Y20783558D01*
X1717601Y20783934D01*
X1734157Y20784367D01*
X1749363Y20784849D01*
X1762697Y20785369D01*
X1773634Y20785920D01*
X1780955Y20786430D01*
X1825575Y20791024D01*
X1867363Y20796957D01*
X1906626Y20804306D01*
X1943675Y20813149D01*
X1978820Y20823563D01*
X2012370Y20835624D01*
X2044634Y20849410D01*
X2056553Y20855083D01*
X2091257Y20873750D01*
X2124031Y20894847D01*
X2154893Y20918406D01*
X2183857Y20944457D01*
X2210939Y20973034D01*
X2236155Y21004166D01*
X2259521Y21037887D01*
X2281052Y21074227D01*
X2300764Y21113219D01*
X2318672Y21154893D01*
X2334793Y21199282D01*
X2349141Y21246418D01*
X2361733Y21296331D01*
X2372585Y21349054D01*
X2381712Y21404618D01*
X2389129Y21463055D01*
X2394853Y21524396D01*
X2396011Y21540047D01*
X2397514Y21564670D01*
X2398776Y21591985D01*
X2399790Y21621307D01*
X2400547Y21651949D01*
X2401038Y21683226D01*
X2401256Y21714451D01*
X2401192Y21744939D01*
X2400838Y21774003D01*
X2400185Y21800958D01*
X2399415Y21821140D01*
X2395672Y21883420D01*
X2390279Y21942859D01*
X2383210Y21999589D01*
X2374440Y22053741D01*
X2363946Y22105445D01*
X2351704Y22154831D01*
X2337687Y22202030D01*
X2321873Y22247172D01*
X2317688Y22258020D01*
X2309242Y22278123D01*
X2299201Y22299712D01*
X2287995Y22321985D01*
X2276057Y22344140D01*
X2263816Y22365374D01*
X2251704Y22384885D01*
X2241231Y22400362D01*
X2218291Y22430203D01*
X2193018Y22458664D01*
X2165919Y22485251D01*
X2137500Y22509467D01*
X2108267Y22530818D01*
X2107526Y22531313D01*
X2073019Y22552417D01*
X2036549Y22570981D01*
X1998050Y22587025D01*
X1957454Y22600572D01*
X1914697Y22611642D01*
X1869710Y22620256D01*
X1822429Y22626436D01*
X1805940Y22627976D01*
X1775774Y22629912D01*
X1742720Y22630903D01*
X1707137Y22630970D01*
X1669383Y22630134D01*
X1629816Y22628416D01*
X1588795Y22625834D01*
X1546679Y22622410D01*
X1503826Y22618164D01*
X1460595Y22613116D01*
X1417343Y22607286D01*
X1402601Y22605116D01*
X1357770Y22597991D01*
X1310483Y22589763D01*
X1261435Y22580571D01*
X1211323Y22570553D01*
X1160840Y22559846D01*
X1110683Y22548588D01*
X1073996Y22539939D01*
X1044786Y22532903D01*
X777240Y22532903D01*
X777240Y24003000D01*
X1044786Y24003000D01*
X1044786Y22772325D01*
G36*
X5465005Y22864597D02*
G01*
X5488700Y22864264D01*
X5509595Y22863835D01*
X5528280Y22863276D01*
X5545341Y22862552D01*
X5561364Y22861630D01*
X5576939Y22860473D01*
X5592652Y22859047D01*
X5609090Y22857318D01*
X5626841Y22855251D01*
X5630244Y22854838D01*
X5689270Y22846241D01*
X5746010Y22835148D01*
X5800474Y22821554D01*
X5852670Y22805454D01*
X5902609Y22786842D01*
X5950299Y22765713D01*
X5995749Y22742062D01*
X6038969Y22715884D01*
X6079968Y22687173D01*
X6118754Y22655925D01*
X6155338Y22622134D01*
X6189728Y22585794D01*
X6221934Y22546901D01*
X6251964Y22505450D01*
X6256076Y22499320D01*
X6283369Y22455401D01*
X6308517Y22409020D01*
X6331525Y22360159D01*
X6352395Y22308805D01*
X6371131Y22254941D01*
X6387738Y22198550D01*
X6402219Y22139618D01*
X6414578Y22078128D01*
X6424818Y22014065D01*
X6432944Y21947412D01*
X6438958Y21878155D01*
X6442866Y21806276D01*
X6444670Y21731761D01*
X6444805Y21704300D01*
X6443739Y21628588D01*
X6440544Y21555504D01*
X6435216Y21485041D01*
X6427753Y21417193D01*
X6418151Y21351953D01*
X6406408Y21289313D01*
X6392521Y21229267D01*
X6376486Y21171807D01*
X6358301Y21116927D01*
X6337963Y21064619D01*
X6315469Y21014877D01*
X6290816Y20967694D01*
X6264001Y20923061D01*
X6235021Y20880974D01*
X6203873Y20841423D01*
X6170555Y20804403D01*
X6135062Y20769907D01*
X6097393Y20737926D01*
X6057545Y20708455D01*
X6016413Y20682024D01*
X5972657Y20657752D01*
X5926532Y20635862D01*
X5878087Y20616365D01*
X5827372Y20599269D01*
X5774435Y20584586D01*
X5719324Y20572326D01*
X5662089Y20562498D01*
X5602779Y20555113D01*
X5541442Y20550182D01*
X5478127Y20547713D01*
X5412884Y20547719D01*
X5376333Y20548774D01*
X5313454Y20552488D01*
X5252705Y20558664D01*
X5194113Y20567291D01*
X5137707Y20578363D01*
X5083515Y20591869D01*
X5031566Y20607801D01*
X4981889Y20626149D01*
X4934511Y20646906D01*
X4889462Y20670063D01*
X4846769Y20695609D01*
X4806461Y20723537D01*
X4800662Y20727901D01*
X4767204Y20755069D01*
X4734498Y20785005D01*
X4703156Y20817093D01*
X4673791Y20850718D01*
X4655441Y20873913D01*
X4626734Y20914448D01*
X4600037Y20957679D01*
X4575363Y21003564D01*
X4552726Y21052064D01*
X4532139Y21103140D01*
X4513614Y21156750D01*
X4497164Y21212856D01*
X4482802Y21271417D01*
X4470542Y21332394D01*
X4460396Y21395745D01*
X4452377Y21461433D01*
X4447644Y21513800D01*
X4446020Y21535668D01*
X4444670Y21555877D01*
X4443570Y21575056D01*
X4442699Y21593833D01*
X4442035Y21612838D01*
X4441557Y21632700D01*
X4441241Y21654047D01*
X4441067Y21677508D01*
X4441013Y21703712D01*
X4441013Y21704300D01*
X4441062Y21715575D01*
X4722760Y21715575D01*
X4722760Y21694037D01*
X4722838Y21672750D01*
X4722993Y21652231D01*
X4723226Y21632997D01*
X4723537Y21615563D01*
X4723925Y21600448D01*
X4724390Y21588167D01*
X4724424Y21587460D01*
X4728142Y21526896D01*
X4733272Y21469310D01*
X4739838Y21414593D01*
X4747862Y21362634D01*
X4757368Y21313324D01*
X4768380Y21266552D01*
X4780920Y21222208D01*
X4795012Y21180182D01*
X4810680Y21140364D01*
X4826860Y21104860D01*
X4847405Y21065995D01*
X4869833Y21029766D01*
X4894193Y20996143D01*
X4920531Y20965099D01*
X4948897Y20936603D01*
X4979337Y20910626D01*
X5011899Y20887140D01*
X5046632Y20866115D01*
X5083583Y20847521D01*
X5122800Y20831331D01*
X5164330Y20817514D01*
X5208222Y20806042D01*
X5254522Y20796886D01*
X5303280Y20790015D01*
X5350086Y20785707D01*
X5375772Y20784211D01*
X5403304Y20783171D01*
X5431689Y20782597D01*
X5459939Y20782498D01*
X5487062Y20782885D01*
X5512069Y20783766D01*
X5517726Y20784057D01*
X5567006Y20787759D01*
X5613586Y20793324D01*
X5657625Y20800799D01*
X5699281Y20810231D01*
X5738712Y20821666D01*
X5776078Y20835151D01*
X5811536Y20850734D01*
X5845246Y20868461D01*
X5877365Y20888379D01*
X5882640Y20891959D01*
X5910393Y20912770D01*
X5937468Y20936467D01*
X5963378Y20962553D01*
X5987638Y20990533D01*
X6009763Y21019912D01*
X6014035Y21026128D01*
X6035938Y21061100D01*
X6056066Y21098605D01*
X6074430Y21138688D01*
X6091043Y21181391D01*
X6105917Y21226760D01*
X6119064Y21274836D01*
X6130497Y21325664D01*
X6140228Y21379287D01*
X6148270Y21435749D01*
X6154633Y21495094D01*
X6157797Y21534120D01*
X6160492Y21579506D01*
X6162274Y21626959D01*
X6163155Y21675777D01*
X6163144Y21725258D01*
X6162252Y21774698D01*
X6160489Y21823397D01*
X6157866Y21870651D01*
X6154392Y21915758D01*
X6151829Y21942214D01*
X6144617Y22000758D01*
X6135587Y22056687D01*
X6124751Y22109954D01*
X6112121Y22160514D01*
X6097709Y22208320D01*
X6081526Y22253326D01*
X6063584Y22295486D01*
X6058786Y22305657D01*
X6038193Y22345126D01*
X6015702Y22381895D01*
X5991267Y22415997D01*
X5964843Y22447463D01*
X5936383Y22476324D01*
X5905841Y22502611D01*
X5873171Y22526356D01*
X5838327Y22547589D01*
X5801264Y22566342D01*
X5761934Y22582646D01*
X5720292Y22596533D01*
X5676292Y22608034D01*
X5629888Y22617179D01*
X5591386Y22622773D01*
X5574524Y22624774D01*
X5558936Y22626410D01*
X5543995Y22627712D01*
X5529078Y22628715D01*
X5513559Y22629450D01*
X5496814Y22629952D01*
X5478218Y22630251D01*
X5457145Y22630383D01*
X5446606Y22630396D01*
X5424475Y22630331D01*
X5405078Y22630117D01*
X5387768Y22629722D01*
X5371893Y22629114D01*
X5356806Y22628261D01*
X5341856Y22627133D01*
X5326394Y22625698D01*
X5309770Y22623923D01*
X5307119Y22623624D01*
X5258372Y22616818D01*
X5212102Y22607738D01*
X5168247Y22596355D01*
X5126746Y22582637D01*
X5087540Y22566555D01*
X5050566Y22548078D01*
X5015764Y22527176D01*
X4983072Y22503819D01*
X4952431Y22477975D01*
X4923779Y22449615D01*
X4897723Y22419542D01*
X4892105Y22412277D01*
X4885381Y22403156D01*
X4878271Y22393176D01*
X4871492Y22383334D01*
X4869221Y22379940D01*
X4847771Y22345115D01*
X4828060Y22307922D01*
X4810073Y22268301D01*
X4793794Y22226192D01*
X4779207Y22181537D01*
X4766298Y22134274D01*
X4755050Y22084346D01*
X4745449Y22031691D01*
X4737478Y21976251D01*
X4731123Y21917966D01*
X4726367Y21856777D01*
X4724393Y21821140D01*
X4723926Y21808946D01*
X4723537Y21793903D01*
X4723226Y21776528D01*
X4722993Y21757337D01*
X4722837Y21736847D01*
X4722760Y21715575D01*
X4441062Y21715575D01*
X4441177Y21741551D01*
X4441690Y21776059D01*
X4442584Y21808454D01*
X4443892Y21839365D01*
X4445645Y21869421D01*
X4447876Y21899252D01*
X4450618Y21929487D01*
X4453901Y21960754D01*
X4454306Y21964369D01*
X4463065Y22031100D01*
X4473995Y22095234D01*
X4487099Y22156774D01*
X4502378Y22215722D01*
X4519834Y22272081D01*
X4539468Y22325855D01*
X4561283Y22377045D01*
X4585279Y22425655D01*
X4611459Y22471687D01*
X4639823Y22515144D01*
X4670374Y22556029D01*
X4703114Y22594345D01*
X4738043Y22630094D01*
X4775164Y22663280D01*
X4814479Y22693904D01*
X4855987Y22721970D01*
X4899693Y22747481D01*
X4922097Y22759142D01*
X4964791Y22779134D01*
X5008543Y22796848D01*
X5053687Y22812384D01*
X5100559Y22825843D01*
X5149495Y22837326D01*
X5200829Y22846933D01*
X5229986Y22851421D01*
X5256054Y22854945D01*
X5281055Y22857875D01*
X5305562Y22860244D01*
X5330149Y22862084D01*
X5355390Y22863428D01*
X5381858Y22864306D01*
X5410129Y22864752D01*
X5440775Y22864798D01*
X5465005Y22864597D01*
X5465005Y22864597D01*
G37*
X5465005Y22864597D02*
X5488700Y22864264D01*
X5509595Y22863835D01*
X5528280Y22863276D01*
X5545341Y22862552D01*
X5561364Y22861630D01*
X5576939Y22860473D01*
X5592652Y22859047D01*
X5609090Y22857318D01*
X5626841Y22855251D01*
X5630244Y22854838D01*
X5689270Y22846241D01*
X5746010Y22835148D01*
X5800474Y22821554D01*
X5852670Y22805454D01*
X5902609Y22786842D01*
X5950299Y22765713D01*
X5995749Y22742062D01*
X6038969Y22715884D01*
X6079968Y22687173D01*
X6118754Y22655925D01*
X6155338Y22622134D01*
X6189728Y22585794D01*
X6221934Y22546901D01*
X6251964Y22505450D01*
X6256076Y22499320D01*
X6283369Y22455401D01*
X6308517Y22409020D01*
X6331525Y22360159D01*
X6352395Y22308805D01*
X6371131Y22254941D01*
X6387738Y22198550D01*
X6402219Y22139618D01*
X6414578Y22078128D01*
X6424818Y22014065D01*
X6432944Y21947412D01*
X6438958Y21878155D01*
X6442866Y21806276D01*
X6444670Y21731761D01*
X6444805Y21704300D01*
X6443739Y21628588D01*
X6440544Y21555504D01*
X6435216Y21485041D01*
X6427753Y21417193D01*
X6418151Y21351953D01*
X6406408Y21289313D01*
X6392521Y21229267D01*
X6376486Y21171807D01*
X6358301Y21116927D01*
X6337963Y21064619D01*
X6315469Y21014877D01*
X6290816Y20967694D01*
X6264001Y20923061D01*
X6235021Y20880974D01*
X6203873Y20841423D01*
X6170555Y20804403D01*
X6135062Y20769907D01*
X6097393Y20737926D01*
X6057545Y20708455D01*
X6016413Y20682024D01*
X5972657Y20657752D01*
X5926532Y20635862D01*
X5878087Y20616365D01*
X5827372Y20599269D01*
X5774435Y20584586D01*
X5719324Y20572326D01*
X5662089Y20562498D01*
X5602779Y20555113D01*
X5541442Y20550182D01*
X5478127Y20547713D01*
X5412884Y20547719D01*
X5376333Y20548774D01*
X5313454Y20552488D01*
X5252705Y20558664D01*
X5194113Y20567291D01*
X5137707Y20578363D01*
X5083515Y20591869D01*
X5031566Y20607801D01*
X4981889Y20626149D01*
X4934511Y20646906D01*
X4889462Y20670063D01*
X4846769Y20695609D01*
X4806461Y20723537D01*
X4800662Y20727901D01*
X4767204Y20755069D01*
X4734498Y20785005D01*
X4703156Y20817093D01*
X4673791Y20850718D01*
X4655441Y20873913D01*
X4626734Y20914448D01*
X4600037Y20957679D01*
X4575363Y21003564D01*
X4552726Y21052064D01*
X4532139Y21103140D01*
X4513614Y21156750D01*
X4497164Y21212856D01*
X4482802Y21271417D01*
X4470542Y21332394D01*
X4460396Y21395745D01*
X4452377Y21461433D01*
X4447644Y21513800D01*
X4446020Y21535668D01*
X4444670Y21555877D01*
X4443570Y21575056D01*
X4442699Y21593833D01*
X4442035Y21612838D01*
X4441557Y21632700D01*
X4441241Y21654047D01*
X4441067Y21677508D01*
X4441013Y21703712D01*
X4441013Y21704300D01*
X4441062Y21715575D01*
X4722760Y21715575D01*
X4722760Y21694037D01*
X4722838Y21672750D01*
X4722993Y21652231D01*
X4723226Y21632997D01*
X4723537Y21615563D01*
X4723925Y21600448D01*
X4724390Y21588167D01*
X4724424Y21587460D01*
X4728142Y21526896D01*
X4733272Y21469310D01*
X4739838Y21414593D01*
X4747862Y21362634D01*
X4757368Y21313324D01*
X4768380Y21266552D01*
X4780920Y21222208D01*
X4795012Y21180182D01*
X4810680Y21140364D01*
X4826860Y21104860D01*
X4847405Y21065995D01*
X4869833Y21029766D01*
X4894193Y20996143D01*
X4920531Y20965099D01*
X4948897Y20936603D01*
X4979337Y20910626D01*
X5011899Y20887140D01*
X5046632Y20866115D01*
X5083583Y20847521D01*
X5122800Y20831331D01*
X5164330Y20817514D01*
X5208222Y20806042D01*
X5254522Y20796886D01*
X5303280Y20790015D01*
X5350086Y20785707D01*
X5375772Y20784211D01*
X5403304Y20783171D01*
X5431689Y20782597D01*
X5459939Y20782498D01*
X5487062Y20782885D01*
X5512069Y20783766D01*
X5517726Y20784057D01*
X5567006Y20787759D01*
X5613586Y20793324D01*
X5657625Y20800799D01*
X5699281Y20810231D01*
X5738712Y20821666D01*
X5776078Y20835151D01*
X5811536Y20850734D01*
X5845246Y20868461D01*
X5877365Y20888379D01*
X5882640Y20891959D01*
X5910393Y20912770D01*
X5937468Y20936467D01*
X5963378Y20962553D01*
X5987638Y20990533D01*
X6009763Y21019912D01*
X6014035Y21026128D01*
X6035938Y21061100D01*
X6056066Y21098605D01*
X6074430Y21138688D01*
X6091043Y21181391D01*
X6105917Y21226760D01*
X6119064Y21274836D01*
X6130497Y21325664D01*
X6140228Y21379287D01*
X6148270Y21435749D01*
X6154633Y21495094D01*
X6157797Y21534120D01*
X6160492Y21579506D01*
X6162274Y21626959D01*
X6163155Y21675777D01*
X6163144Y21725258D01*
X6162252Y21774698D01*
X6160489Y21823397D01*
X6157866Y21870651D01*
X6154392Y21915758D01*
X6151829Y21942214D01*
X6144617Y22000758D01*
X6135587Y22056687D01*
X6124751Y22109954D01*
X6112121Y22160514D01*
X6097709Y22208320D01*
X6081526Y22253326D01*
X6063584Y22295486D01*
X6058786Y22305657D01*
X6038193Y22345126D01*
X6015702Y22381895D01*
X5991267Y22415997D01*
X5964843Y22447463D01*
X5936383Y22476324D01*
X5905841Y22502611D01*
X5873171Y22526356D01*
X5838327Y22547589D01*
X5801264Y22566342D01*
X5761934Y22582646D01*
X5720292Y22596533D01*
X5676292Y22608034D01*
X5629888Y22617179D01*
X5591386Y22622773D01*
X5574524Y22624774D01*
X5558936Y22626410D01*
X5543995Y22627712D01*
X5529078Y22628715D01*
X5513559Y22629450D01*
X5496814Y22629952D01*
X5478218Y22630251D01*
X5457145Y22630383D01*
X5446606Y22630396D01*
X5424475Y22630331D01*
X5405078Y22630117D01*
X5387768Y22629722D01*
X5371893Y22629114D01*
X5356806Y22628261D01*
X5341856Y22627133D01*
X5326394Y22625698D01*
X5309770Y22623923D01*
X5307119Y22623624D01*
X5258372Y22616818D01*
X5212102Y22607738D01*
X5168247Y22596355D01*
X5126746Y22582637D01*
X5087540Y22566555D01*
X5050566Y22548078D01*
X5015764Y22527176D01*
X4983072Y22503819D01*
X4952431Y22477975D01*
X4923779Y22449615D01*
X4897723Y22419542D01*
X4892105Y22412277D01*
X4885381Y22403156D01*
X4878271Y22393176D01*
X4871492Y22383334D01*
X4869221Y22379940D01*
X4847771Y22345115D01*
X4828060Y22307922D01*
X4810073Y22268301D01*
X4793794Y22226192D01*
X4779207Y22181537D01*
X4766298Y22134274D01*
X4755050Y22084346D01*
X4745449Y22031691D01*
X4737478Y21976251D01*
X4731123Y21917966D01*
X4726367Y21856777D01*
X4724393Y21821140D01*
X4723926Y21808946D01*
X4723537Y21793903D01*
X4723226Y21776528D01*
X4722993Y21757337D01*
X4722837Y21736847D01*
X4722760Y21715575D01*
X4441062Y21715575D01*
X4441177Y21741551D01*
X4441690Y21776059D01*
X4442584Y21808454D01*
X4443892Y21839365D01*
X4445645Y21869421D01*
X4447876Y21899252D01*
X4450618Y21929487D01*
X4453901Y21960754D01*
X4454306Y21964369D01*
X4463065Y22031100D01*
X4473995Y22095234D01*
X4487099Y22156774D01*
X4502378Y22215722D01*
X4519834Y22272081D01*
X4539468Y22325855D01*
X4561283Y22377045D01*
X4585279Y22425655D01*
X4611459Y22471687D01*
X4639823Y22515144D01*
X4670374Y22556029D01*
X4703114Y22594345D01*
X4738043Y22630094D01*
X4775164Y22663280D01*
X4814479Y22693904D01*
X4855987Y22721970D01*
X4899693Y22747481D01*
X4922097Y22759142D01*
X4964791Y22779134D01*
X5008543Y22796848D01*
X5053687Y22812384D01*
X5100559Y22825843D01*
X5149495Y22837326D01*
X5200829Y22846933D01*
X5229986Y22851421D01*
X5256054Y22854945D01*
X5281055Y22857875D01*
X5305562Y22860244D01*
X5330149Y22862084D01*
X5355390Y22863428D01*
X5381858Y22864306D01*
X5410129Y22864752D01*
X5440775Y22864798D01*
X5465005Y22864597D01*
G36*
X8038263Y22864165D02*
G01*
X8059911Y22864029D01*
X8079117Y22863777D01*
X8096352Y22863387D01*
X8112088Y22862835D01*
X8126797Y22862096D01*
X8140949Y22861146D01*
X8155017Y22859963D01*
X8169472Y22858523D01*
X8184787Y22856801D01*
X8201432Y22854774D01*
X8201660Y22854745D01*
X8260808Y22845946D01*
X8317672Y22834654D01*
X8372257Y22820864D01*
X8424569Y22804570D01*
X8474614Y22785767D01*
X8522399Y22764448D01*
X8567930Y22740608D01*
X8611214Y22714241D01*
X8652256Y22685341D01*
X8691062Y22653902D01*
X8727640Y22619919D01*
X8761995Y22583385D01*
X8794134Y22544295D01*
X8824062Y22502644D01*
X8851787Y22458425D01*
X8877314Y22411632D01*
X8900649Y22362260D01*
X8921800Y22310302D01*
X8940771Y22255754D01*
X8957570Y22198609D01*
X8971875Y22140334D01*
X8982695Y22086957D01*
X8991981Y22030954D01*
X8999718Y21972726D01*
X9005892Y21912673D01*
X9010489Y21851195D01*
X9013494Y21788693D01*
X9014895Y21725567D01*
X9014675Y21662218D01*
X9012822Y21599045D01*
X9009321Y21536449D01*
X9004159Y21474831D01*
X8997448Y21415587D01*
X8987750Y21350100D01*
X8975847Y21287172D01*
X8961739Y21226803D01*
X8945427Y21168996D01*
X8926912Y21113752D01*
X8906195Y21061074D01*
X8883276Y21010964D01*
X8858157Y20963422D01*
X8830837Y20918452D01*
X8801317Y20876055D01*
X8773375Y20840700D01*
X8757395Y20822544D01*
X8739186Y20803415D01*
X8719472Y20783999D01*
X8698977Y20764982D01*
X8678424Y20747052D01*
X8658538Y20730894D01*
X8653780Y20727231D01*
X8614396Y20699364D01*
X8572567Y20673796D01*
X8528344Y20650540D01*
X8481781Y20629610D01*
X8432932Y20611019D01*
X8381848Y20594781D01*
X8328584Y20580908D01*
X8273192Y20569415D01*
X8215726Y20560315D01*
X8156238Y20553620D01*
X8094781Y20549346D01*
X8031409Y20547504D01*
X7966175Y20548109D01*
X7947591Y20548719D01*
X7883952Y20552408D01*
X7822617Y20558576D01*
X7763578Y20567227D01*
X7706829Y20578362D01*
X7652362Y20591986D01*
X7600168Y20608102D01*
X7550242Y20626713D01*
X7502576Y20647823D01*
X7457162Y20671435D01*
X7413993Y20697551D01*
X7373061Y20726176D01*
X7334359Y20757313D01*
X7297881Y20790965D01*
X7263618Y20827136D01*
X7231562Y20865828D01*
X7226809Y20872027D01*
X7197606Y20913162D01*
X7170537Y20956793D01*
X7145595Y21002938D01*
X7122775Y21051614D01*
X7102072Y21102838D01*
X7083479Y21156627D01*
X7066991Y21212998D01*
X7052603Y21271969D01*
X7040309Y21333555D01*
X7030102Y21397774D01*
X7021979Y21464644D01*
X7018091Y21506180D01*
X7014848Y21551828D01*
X7012501Y21599935D01*
X7011054Y21649692D01*
X7010511Y21700292D01*
X7010659Y21720941D01*
X7291681Y21720941D01*
X7291918Y21664160D01*
X7293435Y21607756D01*
X7296236Y21552233D01*
X7300325Y21498094D01*
X7305707Y21445842D01*
X7311983Y21398654D01*
X7321410Y21342879D01*
X7332633Y21289973D01*
X7345653Y21239929D01*
X7360471Y21192743D01*
X7377089Y21148410D01*
X7395509Y21106926D01*
X7415732Y21068285D01*
X7417571Y21065067D01*
X7439641Y21029548D01*
X7463536Y20996554D01*
X7489318Y20966053D01*
X7517049Y20938013D01*
X7546792Y20912401D01*
X7578606Y20889184D01*
X7612555Y20868331D01*
X7648699Y20849809D01*
X7687101Y20833585D01*
X7727823Y20819627D01*
X7770925Y20807902D01*
X7816469Y20798379D01*
X7864518Y20791025D01*
X7915132Y20785807D01*
X7953586Y20783335D01*
X7962644Y20783037D01*
X7974451Y20782872D01*
X7988458Y20782830D01*
X8004118Y20782901D01*
X8020884Y20783075D01*
X8038207Y20783342D01*
X8055539Y20783691D01*
X8072333Y20784114D01*
X8088040Y20784599D01*
X8102113Y20785138D01*
X8114005Y20785719D01*
X8123166Y20786333D01*
X8124613Y20786458D01*
X8172700Y20791862D01*
X8218067Y20799117D01*
X8260869Y20808281D01*
X8301258Y20819411D01*
X8339388Y20832565D01*
X8375411Y20847799D01*
X8409480Y20865171D01*
X8441750Y20884738D01*
X8472372Y20906556D01*
X8494606Y20924653D01*
X8523567Y20951775D01*
X8550651Y20981716D01*
X8575858Y21014476D01*
X8599187Y21050054D01*
X8620639Y21088451D01*
X8640214Y21129666D01*
X8657912Y21173700D01*
X8673732Y21220552D01*
X8687675Y21270222D01*
X8699741Y21322710D01*
X8709928Y21378016D01*
X8718239Y21436140D01*
X8720601Y21456227D01*
X8723596Y21484896D01*
X8726108Y21513067D01*
X8728163Y21541291D01*
X8729788Y21570115D01*
X8731009Y21600089D01*
X8731853Y21631763D01*
X8732346Y21665685D01*
X8732514Y21702404D01*
X8732514Y21704300D01*
X8732449Y21732469D01*
X8732238Y21757843D01*
X8731865Y21781011D01*
X8731309Y21802562D01*
X8730551Y21823085D01*
X8729573Y21843170D01*
X8728355Y21863406D01*
X8726878Y21884382D01*
X8726538Y21888874D01*
X8720795Y21950642D01*
X8713234Y22009565D01*
X8703847Y22065658D01*
X8692629Y22118937D01*
X8679573Y22169418D01*
X8664674Y22217117D01*
X8647923Y22262049D01*
X8629316Y22304231D01*
X8608845Y22343677D01*
X8586505Y22380403D01*
X8562289Y22414426D01*
X8536190Y22445761D01*
X8508202Y22474423D01*
X8478520Y22500269D01*
X8453524Y22519059D01*
X8427561Y22536032D01*
X8399671Y22551791D01*
X8384540Y22559486D01*
X8349013Y22575630D01*
X8312735Y22589425D01*
X8275179Y22601030D01*
X8235821Y22610605D01*
X8194134Y22618309D01*
X8187266Y22619371D01*
X8147086Y22624483D01*
X8104582Y22628130D01*
X8060485Y22630310D01*
X8015527Y22631018D01*
X7970439Y22630250D01*
X7925954Y22628002D01*
X7882803Y22624270D01*
X7856925Y22621194D01*
X7810264Y22613679D01*
X7765510Y22603762D01*
X7722778Y22591483D01*
X7682181Y22576886D01*
X7643835Y22560014D01*
X7607853Y22540907D01*
X7574349Y22519610D01*
X7564120Y22512302D01*
X7532998Y22487476D01*
X7503862Y22460184D01*
X7476692Y22430387D01*
X7451466Y22398047D01*
X7428164Y22363126D01*
X7406767Y22325584D01*
X7387254Y22285382D01*
X7369604Y22242483D01*
X7353797Y22196847D01*
X7339814Y22148436D01*
X7327633Y22097211D01*
X7317234Y22043134D01*
X7316932Y22041362D01*
X7309568Y21992888D01*
X7303461Y21941771D01*
X7298615Y21888515D01*
X7295034Y21833622D01*
X7292721Y21777596D01*
X7291681Y21720941D01*
X7010659Y21720941D01*
X7010875Y21750927D01*
X7012150Y21800788D01*
X7014339Y21849067D01*
X7016401Y21881254D01*
X7022610Y21950938D01*
X7030949Y22017996D01*
X7041425Y22082436D01*
X7054042Y22144269D01*
X7068804Y22203504D01*
X7085718Y22260150D01*
X7104788Y22314217D01*
X7126019Y22365715D01*
X7149415Y22414653D01*
X7174983Y22461040D01*
X7202726Y22504886D01*
X7232651Y22546201D01*
X7264761Y22584994D01*
X7299061Y22621274D01*
X7335558Y22655052D01*
X7374255Y22686336D01*
X7415158Y22715136D01*
X7458272Y22741461D01*
X7469305Y22747607D01*
X7512541Y22769477D01*
X7558287Y22789200D01*
X7606402Y22806735D01*
X7656743Y22822039D01*
X7709168Y22835072D01*
X7763534Y22845790D01*
X7819699Y22854152D01*
X7839286Y22856462D01*
X7854739Y22858135D01*
X7868611Y22859552D01*
X7881371Y22860734D01*
X7893485Y22861701D01*
X7905423Y22862474D01*
X7917653Y22863074D01*
X7930643Y22863521D01*
X7944860Y22863838D01*
X7960774Y22864043D01*
X7978852Y22864159D01*
X7999563Y22864206D01*
X8013700Y22864209D01*
X8038263Y22864165D01*
X8038263Y22864165D01*
G37*
X8038263Y22864165D02*
X8059911Y22864029D01*
X8079117Y22863777D01*
X8096352Y22863387D01*
X8112088Y22862835D01*
X8126797Y22862096D01*
X8140949Y22861146D01*
X8155017Y22859963D01*
X8169472Y22858523D01*
X8184787Y22856801D01*
X8201432Y22854774D01*
X8201660Y22854745D01*
X8260808Y22845946D01*
X8317672Y22834654D01*
X8372257Y22820864D01*
X8424569Y22804570D01*
X8474614Y22785767D01*
X8522399Y22764448D01*
X8567930Y22740608D01*
X8611214Y22714241D01*
X8652256Y22685341D01*
X8691062Y22653902D01*
X8727640Y22619919D01*
X8761995Y22583385D01*
X8794134Y22544295D01*
X8824062Y22502644D01*
X8851787Y22458425D01*
X8877314Y22411632D01*
X8900649Y22362260D01*
X8921800Y22310302D01*
X8940771Y22255754D01*
X8957570Y22198609D01*
X8971875Y22140334D01*
X8982695Y22086957D01*
X8991981Y22030954D01*
X8999718Y21972726D01*
X9005892Y21912673D01*
X9010489Y21851195D01*
X9013494Y21788693D01*
X9014895Y21725567D01*
X9014675Y21662218D01*
X9012822Y21599045D01*
X9009321Y21536449D01*
X9004159Y21474831D01*
X8997448Y21415587D01*
X8987750Y21350100D01*
X8975847Y21287172D01*
X8961739Y21226803D01*
X8945427Y21168996D01*
X8926912Y21113752D01*
X8906195Y21061074D01*
X8883276Y21010964D01*
X8858157Y20963422D01*
X8830837Y20918452D01*
X8801317Y20876055D01*
X8773375Y20840700D01*
X8757395Y20822544D01*
X8739186Y20803415D01*
X8719472Y20783999D01*
X8698977Y20764982D01*
X8678424Y20747052D01*
X8658538Y20730894D01*
X8653780Y20727231D01*
X8614396Y20699364D01*
X8572567Y20673796D01*
X8528344Y20650540D01*
X8481781Y20629610D01*
X8432932Y20611019D01*
X8381848Y20594781D01*
X8328584Y20580908D01*
X8273192Y20569415D01*
X8215726Y20560315D01*
X8156238Y20553620D01*
X8094781Y20549346D01*
X8031409Y20547504D01*
X7966175Y20548109D01*
X7947591Y20548719D01*
X7883952Y20552408D01*
X7822617Y20558576D01*
X7763578Y20567227D01*
X7706829Y20578362D01*
X7652362Y20591986D01*
X7600168Y20608102D01*
X7550242Y20626713D01*
X7502576Y20647823D01*
X7457162Y20671435D01*
X7413993Y20697551D01*
X7373061Y20726176D01*
X7334359Y20757313D01*
X7297881Y20790965D01*
X7263618Y20827136D01*
X7231562Y20865828D01*
X7226809Y20872027D01*
X7197606Y20913162D01*
X7170537Y20956793D01*
X7145595Y21002938D01*
X7122775Y21051614D01*
X7102072Y21102838D01*
X7083479Y21156627D01*
X7066991Y21212998D01*
X7052603Y21271969D01*
X7040309Y21333555D01*
X7030102Y21397774D01*
X7021979Y21464644D01*
X7018091Y21506180D01*
X7014848Y21551828D01*
X7012501Y21599935D01*
X7011054Y21649692D01*
X7010511Y21700292D01*
X7010659Y21720941D01*
X7291681Y21720941D01*
X7291918Y21664160D01*
X7293435Y21607756D01*
X7296236Y21552233D01*
X7300325Y21498094D01*
X7305707Y21445842D01*
X7311983Y21398654D01*
X7321410Y21342879D01*
X7332633Y21289973D01*
X7345653Y21239929D01*
X7360471Y21192743D01*
X7377089Y21148410D01*
X7395509Y21106926D01*
X7415732Y21068285D01*
X7417571Y21065067D01*
X7439641Y21029548D01*
X7463536Y20996554D01*
X7489318Y20966053D01*
X7517049Y20938013D01*
X7546792Y20912401D01*
X7578606Y20889184D01*
X7612555Y20868331D01*
X7648699Y20849809D01*
X7687101Y20833585D01*
X7727823Y20819627D01*
X7770925Y20807902D01*
X7816469Y20798379D01*
X7864518Y20791025D01*
X7915132Y20785807D01*
X7953586Y20783335D01*
X7962644Y20783037D01*
X7974451Y20782872D01*
X7988458Y20782830D01*
X8004118Y20782901D01*
X8020884Y20783075D01*
X8038207Y20783342D01*
X8055539Y20783691D01*
X8072333Y20784114D01*
X8088040Y20784599D01*
X8102113Y20785138D01*
X8114005Y20785719D01*
X8123166Y20786333D01*
X8124613Y20786458D01*
X8172700Y20791862D01*
X8218067Y20799117D01*
X8260869Y20808281D01*
X8301258Y20819411D01*
X8339388Y20832565D01*
X8375411Y20847799D01*
X8409480Y20865171D01*
X8441750Y20884738D01*
X8472372Y20906556D01*
X8494606Y20924653D01*
X8523567Y20951775D01*
X8550651Y20981716D01*
X8575858Y21014476D01*
X8599187Y21050054D01*
X8620639Y21088451D01*
X8640214Y21129666D01*
X8657912Y21173700D01*
X8673732Y21220552D01*
X8687675Y21270222D01*
X8699741Y21322710D01*
X8709928Y21378016D01*
X8718239Y21436140D01*
X8720601Y21456227D01*
X8723596Y21484896D01*
X8726108Y21513067D01*
X8728163Y21541291D01*
X8729788Y21570115D01*
X8731009Y21600089D01*
X8731853Y21631763D01*
X8732346Y21665685D01*
X8732514Y21702404D01*
X8732514Y21704300D01*
X8732449Y21732469D01*
X8732238Y21757843D01*
X8731865Y21781011D01*
X8731309Y21802562D01*
X8730551Y21823085D01*
X8729573Y21843170D01*
X8728355Y21863406D01*
X8726878Y21884382D01*
X8726538Y21888874D01*
X8720795Y21950642D01*
X8713234Y22009565D01*
X8703847Y22065658D01*
X8692629Y22118937D01*
X8679573Y22169418D01*
X8664674Y22217117D01*
X8647923Y22262049D01*
X8629316Y22304231D01*
X8608845Y22343677D01*
X8586505Y22380403D01*
X8562289Y22414426D01*
X8536190Y22445761D01*
X8508202Y22474423D01*
X8478520Y22500269D01*
X8453524Y22519059D01*
X8427561Y22536032D01*
X8399671Y22551791D01*
X8384540Y22559486D01*
X8349013Y22575630D01*
X8312735Y22589425D01*
X8275179Y22601030D01*
X8235821Y22610605D01*
X8194134Y22618309D01*
X8187266Y22619371D01*
X8147086Y22624483D01*
X8104582Y22628130D01*
X8060485Y22630310D01*
X8015527Y22631018D01*
X7970439Y22630250D01*
X7925954Y22628002D01*
X7882803Y22624270D01*
X7856925Y22621194D01*
X7810264Y22613679D01*
X7765510Y22603762D01*
X7722778Y22591483D01*
X7682181Y22576886D01*
X7643835Y22560014D01*
X7607853Y22540907D01*
X7574349Y22519610D01*
X7564120Y22512302D01*
X7532998Y22487476D01*
X7503862Y22460184D01*
X7476692Y22430387D01*
X7451466Y22398047D01*
X7428164Y22363126D01*
X7406767Y22325584D01*
X7387254Y22285382D01*
X7369604Y22242483D01*
X7353797Y22196847D01*
X7339814Y22148436D01*
X7327633Y22097211D01*
X7317234Y22043134D01*
X7316932Y22041362D01*
X7309568Y21992888D01*
X7303461Y21941771D01*
X7298615Y21888515D01*
X7295034Y21833622D01*
X7292721Y21777596D01*
X7291681Y21720941D01*
X7010659Y21720941D01*
X7010875Y21750927D01*
X7012150Y21800788D01*
X7014339Y21849067D01*
X7016401Y21881254D01*
X7022610Y21950938D01*
X7030949Y22017996D01*
X7041425Y22082436D01*
X7054042Y22144269D01*
X7068804Y22203504D01*
X7085718Y22260150D01*
X7104788Y22314217D01*
X7126019Y22365715D01*
X7149415Y22414653D01*
X7174983Y22461040D01*
X7202726Y22504886D01*
X7232651Y22546201D01*
X7264761Y22584994D01*
X7299061Y22621274D01*
X7335558Y22655052D01*
X7374255Y22686336D01*
X7415158Y22715136D01*
X7458272Y22741461D01*
X7469305Y22747607D01*
X7512541Y22769477D01*
X7558287Y22789200D01*
X7606402Y22806735D01*
X7656743Y22822039D01*
X7709168Y22835072D01*
X7763534Y22845790D01*
X7819699Y22854152D01*
X7839286Y22856462D01*
X7854739Y22858135D01*
X7868611Y22859552D01*
X7881371Y22860734D01*
X7893485Y22861701D01*
X7905423Y22862474D01*
X7917653Y22863074D01*
X7930643Y22863521D01*
X7944860Y22863838D01*
X7960774Y22864043D01*
X7978852Y22864159D01*
X7999563Y22864206D01*
X8013700Y22864209D01*
X8038263Y22864165D01*
G36*
X3692737Y22294004D02*
G01*
X3692313Y20585007D01*
X3558963Y20584574D01*
X3425613Y20584140D01*
X3425613Y24003000D01*
X3693161Y24003000D01*
X3692737Y22294004D01*
X3692737Y22294004D01*
G37*
X3692737Y22294004D02*
X3692313Y20585007D01*
X3558963Y20584574D01*
X3425613Y20584140D01*
X3425613Y24003000D01*
X3693161Y24003000D01*
X3692737Y22294004D01*
D11*
X20557100Y15500000D02*
X20557100Y15300000D01*
X20557100Y15500000D02*
X19857100Y15500000D01*
X16157100Y15500000D02*
X15957100Y15500000D01*
X15957100Y15500000D02*
X15957100Y15300000D01*
X20557100Y10100000D02*
X20557100Y9900000D01*
X20557100Y9900000D02*
X19857100Y9900000D01*
X16657100Y9900000D02*
X15957100Y9900000D01*
X15957100Y9900000D02*
X15957100Y10100000D01*
D13*
X30074140Y17968560D02*
X30074140Y21268560D01*
X27274140Y17968560D02*
X30074140Y17968560D01*
X27569279Y3027000D02*
X27243721Y3027000D01*
X27569279Y2007000D02*
X27243721Y2007000D01*
X29982279Y17528000D02*
X29656721Y17528000D01*
X29982279Y16508000D02*
X29656721Y16508000D01*
D11*
M02*
