G04 #@! TF.GenerationSoftware,KiCad,Pcbnew,5.1.4*
G04 #@! TF.CreationDate,2019-10-28T13:13:04-05:00*
G04 #@! TF.ProjectId,rf,72662e6b-6963-4616-945f-706362585858,rev?*
G04 #@! TF.SameCoordinates,PX8120a40PY669d880*
G04 #@! TF.FileFunction,Legend,Top*
G04 #@! TF.FilePolarity,Positive*
%FSLAX46Y46*%
G04 Gerber Fmt 4.6, Leading zero omitted, Abs format (unit mm)*
G04 Created by KiCad (PCBNEW 5.1.4) date 2019-10-28 13:13:04*
%MOMM*%
%LPD*%
G04 APERTURE LIST*
%ADD10C,0.076200*%
%ADD11C,0.150000*%
%ADD12C,0.010000*%
%ADD13C,0.120000*%
G04 APERTURE END LIST*
D10*
X30486190Y24226958D02*
X30486190Y24517243D01*
X30486190Y24372100D02*
X30994190Y24372100D01*
X30921619Y24420481D01*
X30873238Y24468862D01*
X30849047Y24517243D01*
D11*
X6959142Y6774720D02*
X6625809Y7250910D01*
X6387714Y6774720D02*
X6387714Y7774720D01*
X6768666Y7774720D01*
X6863904Y7727100D01*
X6911523Y7679481D01*
X6959142Y7584243D01*
X6959142Y7441386D01*
X6911523Y7346148D01*
X6863904Y7298529D01*
X6768666Y7250910D01*
X6387714Y7250910D01*
X7292476Y7774720D02*
X7959142Y6774720D01*
X7959142Y7774720D02*
X7292476Y6774720D01*
X8292476Y7679481D02*
X8340095Y7727100D01*
X8435333Y7774720D01*
X8673428Y7774720D01*
X8768666Y7727100D01*
X8816285Y7679481D01*
X8863904Y7584243D01*
X8863904Y7489005D01*
X8816285Y7346148D01*
X8244857Y6774720D01*
X8863904Y6774720D01*
X6959142Y12870720D02*
X6625809Y13346910D01*
X6387714Y12870720D02*
X6387714Y13870720D01*
X6768666Y13870720D01*
X6863904Y13823100D01*
X6911523Y13775481D01*
X6959142Y13680243D01*
X6959142Y13537386D01*
X6911523Y13442148D01*
X6863904Y13394529D01*
X6768666Y13346910D01*
X6387714Y13346910D01*
X7292476Y13870720D02*
X7959142Y12870720D01*
X7959142Y13870720D02*
X7292476Y12870720D01*
X8863904Y12870720D02*
X8292476Y12870720D01*
X8578190Y12870720D02*
X8578190Y13870720D01*
X8482952Y13727862D01*
X8387714Y13632624D01*
X8292476Y13585005D01*
X6459095Y1551720D02*
X7030523Y1551720D01*
X6744809Y551720D02*
X6744809Y1551720D01*
X7268619Y1551720D02*
X7935285Y551720D01*
X7935285Y1551720D02*
X7268619Y551720D01*
D10*
X10602768Y17792291D02*
X10433434Y18034196D01*
X10312482Y17792291D02*
X10312482Y18300291D01*
X10506006Y18300291D01*
X10554387Y18276100D01*
X10578577Y18251910D01*
X10602768Y18203529D01*
X10602768Y18130958D01*
X10578577Y18082577D01*
X10554387Y18058386D01*
X10506006Y18034196D01*
X10312482Y18034196D01*
X11014006Y17816481D02*
X10965625Y17792291D01*
X10868863Y17792291D01*
X10820482Y17816481D01*
X10796291Y17864862D01*
X10796291Y18058386D01*
X10820482Y18106767D01*
X10868863Y18130958D01*
X10965625Y18130958D01*
X11014006Y18106767D01*
X11038196Y18058386D01*
X11038196Y18010005D01*
X10796291Y17961624D01*
X11207530Y18130958D02*
X11328482Y17792291D01*
X11449434Y18130958D01*
X11618768Y17937434D02*
X11860672Y17937434D01*
X11570387Y17792291D02*
X11739720Y18300291D01*
X11909053Y17792291D01*
X10481815Y18947386D02*
X10554387Y18923196D01*
X10578577Y18899005D01*
X10602768Y18850624D01*
X10602768Y18778053D01*
X10578577Y18729672D01*
X10554387Y18705481D01*
X10506006Y18681291D01*
X10312482Y18681291D01*
X10312482Y19189291D01*
X10481815Y19189291D01*
X10530196Y19165100D01*
X10554387Y19140910D01*
X10578577Y19092529D01*
X10578577Y19044148D01*
X10554387Y18995767D01*
X10530196Y18971577D01*
X10481815Y18947386D01*
X10312482Y18947386D01*
X11086577Y19165100D02*
X11038196Y19189291D01*
X10965625Y19189291D01*
X10893053Y19165100D01*
X10844672Y19116720D01*
X10820482Y19068339D01*
X10796291Y18971577D01*
X10796291Y18899005D01*
X10820482Y18802243D01*
X10844672Y18753862D01*
X10893053Y18705481D01*
X10965625Y18681291D01*
X11014006Y18681291D01*
X11086577Y18705481D01*
X11110768Y18729672D01*
X11110768Y18899005D01*
X11014006Y18899005D01*
X11255910Y19189291D02*
X11546196Y19189291D01*
X11401053Y18681291D02*
X11401053Y19189291D01*
X11691339Y19140910D02*
X11715530Y19165100D01*
X11763910Y19189291D01*
X11884863Y19189291D01*
X11933244Y19165100D01*
X11957434Y19140910D01*
X11981625Y19092529D01*
X11981625Y19044148D01*
X11957434Y18971577D01*
X11667149Y18681291D01*
X11981625Y18681291D01*
X12417053Y19019958D02*
X12417053Y18681291D01*
X12296101Y19213481D02*
X12175149Y18850624D01*
X12489625Y18850624D01*
X13070196Y18681291D02*
X13070196Y19189291D01*
X13239530Y18826434D01*
X13408863Y19189291D01*
X13408863Y18681291D01*
X13723339Y18681291D02*
X13674958Y18705481D01*
X13650768Y18729672D01*
X13626577Y18778053D01*
X13626577Y18923196D01*
X13650768Y18971577D01*
X13674958Y18995767D01*
X13723339Y19019958D01*
X13795910Y19019958D01*
X13844291Y18995767D01*
X13868482Y18971577D01*
X13892672Y18923196D01*
X13892672Y18778053D01*
X13868482Y18729672D01*
X13844291Y18705481D01*
X13795910Y18681291D01*
X13723339Y18681291D01*
X14328101Y18681291D02*
X14328101Y19189291D01*
X14328101Y18705481D02*
X14279720Y18681291D01*
X14182958Y18681291D01*
X14134577Y18705481D01*
X14110387Y18729672D01*
X14086196Y18778053D01*
X14086196Y18923196D01*
X14110387Y18971577D01*
X14134577Y18995767D01*
X14182958Y19019958D01*
X14279720Y19019958D01*
X14328101Y18995767D01*
X14787720Y19019958D02*
X14787720Y18681291D01*
X14570006Y19019958D02*
X14570006Y18753862D01*
X14594196Y18705481D01*
X14642577Y18681291D01*
X14715149Y18681291D01*
X14763530Y18705481D01*
X14787720Y18729672D01*
X15102196Y18681291D02*
X15053815Y18705481D01*
X15029625Y18753862D01*
X15029625Y19189291D01*
X15489244Y18705481D02*
X15440863Y18681291D01*
X15344101Y18681291D01*
X15295720Y18705481D01*
X15271530Y18753862D01*
X15271530Y18947386D01*
X15295720Y18995767D01*
X15344101Y19019958D01*
X15440863Y19019958D01*
X15489244Y18995767D01*
X15513434Y18947386D01*
X15513434Y18899005D01*
X15271530Y18850624D01*
D12*
G36*
X10686438Y22852295D02*
G01*
X10705555Y22852235D01*
X10722205Y22852105D01*
X10736846Y22851883D01*
X10749937Y22851548D01*
X10761938Y22851081D01*
X10773307Y22850460D01*
X10784505Y22849663D01*
X10795991Y22848671D01*
X10808223Y22847462D01*
X10821661Y22846015D01*
X10834573Y22844561D01*
X10893025Y22836461D01*
X10949366Y22825745D01*
X11003588Y22812420D01*
X11055682Y22796488D01*
X11105638Y22777955D01*
X11153448Y22756824D01*
X11199104Y22733102D01*
X11242595Y22706791D01*
X11283914Y22677897D01*
X11323050Y22646423D01*
X11359997Y22612376D01*
X11394744Y22575758D01*
X11419870Y22545970D01*
X11449938Y22505856D01*
X11478009Y22463058D01*
X11504046Y22417656D01*
X11528011Y22369729D01*
X11549867Y22319356D01*
X11569577Y22266616D01*
X11587104Y22211587D01*
X11600027Y22163994D01*
X11609380Y22124464D01*
X11617701Y22084353D01*
X11625049Y22043239D01*
X11631486Y22000700D01*
X11637073Y21956311D01*
X11641872Y21909652D01*
X11645943Y21860299D01*
X11647714Y21834640D01*
X11648343Y21822522D01*
X11648866Y21807468D01*
X11649285Y21789925D01*
X11649602Y21770341D01*
X11649818Y21749167D01*
X11649934Y21726848D01*
X11649951Y21703835D01*
X11649872Y21680575D01*
X11649697Y21657517D01*
X11649428Y21635108D01*
X11649066Y21613798D01*
X11648613Y21594034D01*
X11648070Y21576266D01*
X11647438Y21560940D01*
X11646832Y21550160D01*
X11642867Y21497383D01*
X11638130Y21447532D01*
X11632573Y21400226D01*
X11626148Y21355083D01*
X11618806Y21311720D01*
X11612655Y21280074D01*
X11598965Y21219716D01*
X11583230Y21162043D01*
X11565437Y21107029D01*
X11545568Y21054644D01*
X11523608Y21004864D01*
X11499542Y20957659D01*
X11473352Y20913002D01*
X11445025Y20870867D01*
X11414542Y20831225D01*
X11381890Y20794050D01*
X11347051Y20759315D01*
X11310011Y20726991D01*
X11277701Y20702059D01*
X11238702Y20675645D01*
X11197163Y20651425D01*
X11153145Y20629426D01*
X11106709Y20609672D01*
X11057915Y20592189D01*
X11006825Y20577004D01*
X10953500Y20564142D01*
X10948026Y20562980D01*
X10904124Y20554725D01*
X10858185Y20547952D01*
X10810139Y20542665D01*
X10759915Y20538866D01*
X10707442Y20536557D01*
X10652651Y20535742D01*
X10595469Y20536423D01*
X10535826Y20538603D01*
X10473652Y20542283D01*
X10408876Y20547467D01*
X10341426Y20554157D01*
X10271232Y20562356D01*
X10198224Y20572067D01*
X10122331Y20583291D01*
X10043526Y20596025D01*
X10033865Y20597639D01*
X10025390Y20599038D01*
X10018654Y20600131D01*
X10014208Y20600830D01*
X10012623Y20601047D01*
X10012536Y20599377D01*
X10012452Y20594458D01*
X10012369Y20586430D01*
X10012289Y20575431D01*
X10012212Y20561599D01*
X10012138Y20545073D01*
X10012068Y20525990D01*
X10012002Y20504491D01*
X10011940Y20480713D01*
X10011882Y20454794D01*
X10011829Y20426874D01*
X10011781Y20397090D01*
X10011738Y20365581D01*
X10011701Y20332486D01*
X10011670Y20297943D01*
X10011646Y20262091D01*
X10011628Y20225068D01*
X10011617Y20187012D01*
X10011613Y20148062D01*
X10011613Y19693420D01*
X9744064Y19693420D01*
X9744489Y21194072D01*
X9744626Y21680897D01*
X10011613Y21680897D01*
X10011613Y20840506D01*
X10054370Y20833279D01*
X10112824Y20823604D01*
X10168292Y20814853D01*
X10221036Y20806989D01*
X10271317Y20799979D01*
X10319397Y20793788D01*
X10365539Y20788380D01*
X10410004Y20783721D01*
X10453054Y20779776D01*
X10462886Y20778958D01*
X10474421Y20778038D01*
X10485603Y20777199D01*
X10496910Y20776412D01*
X10508820Y20775648D01*
X10521811Y20774879D01*
X10536361Y20774076D01*
X10552947Y20773212D01*
X10572047Y20772256D01*
X10589886Y20771387D01*
X10596835Y20771174D01*
X10606580Y20771049D01*
X10618624Y20771007D01*
X10632465Y20771039D01*
X10647605Y20771139D01*
X10663543Y20771301D01*
X10679780Y20771517D01*
X10695816Y20771779D01*
X10711151Y20772083D01*
X10725287Y20772419D01*
X10737722Y20772783D01*
X10747958Y20773165D01*
X10755495Y20773561D01*
X10757526Y20773711D01*
X10806961Y20778974D01*
X10853750Y20786277D01*
X10897985Y20795667D01*
X10939757Y20807190D01*
X10979156Y20820892D01*
X11016274Y20836818D01*
X11051202Y20855015D01*
X11084031Y20875529D01*
X11114853Y20898405D01*
X11143758Y20923689D01*
X11170838Y20951428D01*
X11196184Y20981668D01*
X11211860Y21002812D01*
X11234657Y21037756D01*
X11255680Y21075581D01*
X11274927Y21116278D01*
X11292397Y21159840D01*
X11308087Y21206260D01*
X11321994Y21255531D01*
X11334118Y21307647D01*
X11344456Y21362600D01*
X11353005Y21420383D01*
X11359764Y21480989D01*
X11361975Y21506134D01*
X11365497Y21557446D01*
X11367891Y21610520D01*
X11369162Y21664652D01*
X11369316Y21719138D01*
X11368358Y21773275D01*
X11366295Y21826359D01*
X11363131Y21877687D01*
X11358873Y21926554D01*
X11358575Y21929467D01*
X11351817Y21985628D01*
X11343370Y22039570D01*
X11333279Y22091051D01*
X11321589Y22139829D01*
X11317959Y22153242D01*
X11303167Y22201667D01*
X11286464Y22247303D01*
X11267828Y22290171D01*
X11247235Y22330295D01*
X11224660Y22367697D01*
X11200081Y22402400D01*
X11173474Y22434427D01*
X11144814Y22463801D01*
X11114080Y22490545D01*
X11081246Y22514680D01*
X11046290Y22536231D01*
X11009187Y22555219D01*
X10969914Y22571667D01*
X10928448Y22585599D01*
X10884765Y22597036D01*
X10849813Y22604120D01*
X10822389Y22608600D01*
X10795054Y22612179D01*
X10767158Y22614909D01*
X10738052Y22616838D01*
X10707087Y22618019D01*
X10673613Y22618500D01*
X10664393Y22618517D01*
X10645484Y22618455D01*
X10628593Y22618266D01*
X10613029Y22617917D01*
X10598102Y22617372D01*
X10583121Y22616596D01*
X10567396Y22615556D01*
X10550236Y22614216D01*
X10530950Y22612541D01*
X10513686Y22610953D01*
X10476184Y22607107D01*
X10436741Y22602438D01*
X10395836Y22597030D01*
X10353950Y22590966D01*
X10311562Y22584330D01*
X10269153Y22577206D01*
X10227201Y22569677D01*
X10186189Y22561826D01*
X10146594Y22553738D01*
X10108898Y22545496D01*
X10073580Y22537184D01*
X10041121Y22528885D01*
X10038126Y22528080D01*
X10029414Y22525737D01*
X10021921Y22523743D01*
X10016225Y22522252D01*
X10012905Y22521414D01*
X10012303Y22521287D01*
X10012259Y22519611D01*
X10012216Y22514650D01*
X10012174Y22506505D01*
X10012133Y22495279D01*
X10012092Y22481074D01*
X10012053Y22463991D01*
X10012015Y22444131D01*
X10011978Y22421598D01*
X10011942Y22396491D01*
X10011908Y22368914D01*
X10011875Y22338968D01*
X10011844Y22306755D01*
X10011814Y22272376D01*
X10011786Y22235934D01*
X10011760Y22197529D01*
X10011735Y22157264D01*
X10011713Y22115241D01*
X10011692Y22071561D01*
X10011674Y22026326D01*
X10011658Y21979638D01*
X10011644Y21931599D01*
X10011633Y21882310D01*
X10011624Y21831873D01*
X10011618Y21780390D01*
X10011614Y21727963D01*
X10011613Y21680897D01*
X9744626Y21680897D01*
X9744913Y22694723D01*
X9758460Y22698657D01*
X9817899Y22715463D01*
X9878345Y22731665D01*
X9939387Y22747174D01*
X10000618Y22761903D01*
X10061627Y22775765D01*
X10122006Y22788672D01*
X10181346Y22800536D01*
X10239239Y22811269D01*
X10295275Y22820784D01*
X10349046Y22828994D01*
X10396000Y22835298D01*
X10426214Y22838972D01*
X10453712Y22842101D01*
X10479115Y22844727D01*
X10503044Y22846887D01*
X10526118Y22848622D01*
X10548958Y22849970D01*
X10572184Y22850970D01*
X10596417Y22851663D01*
X10622278Y22852087D01*
X10650386Y22852282D01*
X10664393Y22852306D01*
X10686438Y22852295D01*
X10686438Y22852295D01*
G37*
X10686438Y22852295D02*
X10705555Y22852235D01*
X10722205Y22852105D01*
X10736846Y22851883D01*
X10749937Y22851548D01*
X10761938Y22851081D01*
X10773307Y22850460D01*
X10784505Y22849663D01*
X10795991Y22848671D01*
X10808223Y22847462D01*
X10821661Y22846015D01*
X10834573Y22844561D01*
X10893025Y22836461D01*
X10949366Y22825745D01*
X11003588Y22812420D01*
X11055682Y22796488D01*
X11105638Y22777955D01*
X11153448Y22756824D01*
X11199104Y22733102D01*
X11242595Y22706791D01*
X11283914Y22677897D01*
X11323050Y22646423D01*
X11359997Y22612376D01*
X11394744Y22575758D01*
X11419870Y22545970D01*
X11449938Y22505856D01*
X11478009Y22463058D01*
X11504046Y22417656D01*
X11528011Y22369729D01*
X11549867Y22319356D01*
X11569577Y22266616D01*
X11587104Y22211587D01*
X11600027Y22163994D01*
X11609380Y22124464D01*
X11617701Y22084353D01*
X11625049Y22043239D01*
X11631486Y22000700D01*
X11637073Y21956311D01*
X11641872Y21909652D01*
X11645943Y21860299D01*
X11647714Y21834640D01*
X11648343Y21822522D01*
X11648866Y21807468D01*
X11649285Y21789925D01*
X11649602Y21770341D01*
X11649818Y21749167D01*
X11649934Y21726848D01*
X11649951Y21703835D01*
X11649872Y21680575D01*
X11649697Y21657517D01*
X11649428Y21635108D01*
X11649066Y21613798D01*
X11648613Y21594034D01*
X11648070Y21576266D01*
X11647438Y21560940D01*
X11646832Y21550160D01*
X11642867Y21497383D01*
X11638130Y21447532D01*
X11632573Y21400226D01*
X11626148Y21355083D01*
X11618806Y21311720D01*
X11612655Y21280074D01*
X11598965Y21219716D01*
X11583230Y21162043D01*
X11565437Y21107029D01*
X11545568Y21054644D01*
X11523608Y21004864D01*
X11499542Y20957659D01*
X11473352Y20913002D01*
X11445025Y20870867D01*
X11414542Y20831225D01*
X11381890Y20794050D01*
X11347051Y20759315D01*
X11310011Y20726991D01*
X11277701Y20702059D01*
X11238702Y20675645D01*
X11197163Y20651425D01*
X11153145Y20629426D01*
X11106709Y20609672D01*
X11057915Y20592189D01*
X11006825Y20577004D01*
X10953500Y20564142D01*
X10948026Y20562980D01*
X10904124Y20554725D01*
X10858185Y20547952D01*
X10810139Y20542665D01*
X10759915Y20538866D01*
X10707442Y20536557D01*
X10652651Y20535742D01*
X10595469Y20536423D01*
X10535826Y20538603D01*
X10473652Y20542283D01*
X10408876Y20547467D01*
X10341426Y20554157D01*
X10271232Y20562356D01*
X10198224Y20572067D01*
X10122331Y20583291D01*
X10043526Y20596025D01*
X10033865Y20597639D01*
X10025390Y20599038D01*
X10018654Y20600131D01*
X10014208Y20600830D01*
X10012623Y20601047D01*
X10012536Y20599377D01*
X10012452Y20594458D01*
X10012369Y20586430D01*
X10012289Y20575431D01*
X10012212Y20561599D01*
X10012138Y20545073D01*
X10012068Y20525990D01*
X10012002Y20504491D01*
X10011940Y20480713D01*
X10011882Y20454794D01*
X10011829Y20426874D01*
X10011781Y20397090D01*
X10011738Y20365581D01*
X10011701Y20332486D01*
X10011670Y20297943D01*
X10011646Y20262091D01*
X10011628Y20225068D01*
X10011617Y20187012D01*
X10011613Y20148062D01*
X10011613Y19693420D01*
X9744064Y19693420D01*
X9744489Y21194072D01*
X9744626Y21680897D01*
X10011613Y21680897D01*
X10011613Y20840506D01*
X10054370Y20833279D01*
X10112824Y20823604D01*
X10168292Y20814853D01*
X10221036Y20806989D01*
X10271317Y20799979D01*
X10319397Y20793788D01*
X10365539Y20788380D01*
X10410004Y20783721D01*
X10453054Y20779776D01*
X10462886Y20778958D01*
X10474421Y20778038D01*
X10485603Y20777199D01*
X10496910Y20776412D01*
X10508820Y20775648D01*
X10521811Y20774879D01*
X10536361Y20774076D01*
X10552947Y20773212D01*
X10572047Y20772256D01*
X10589886Y20771387D01*
X10596835Y20771174D01*
X10606580Y20771049D01*
X10618624Y20771007D01*
X10632465Y20771039D01*
X10647605Y20771139D01*
X10663543Y20771301D01*
X10679780Y20771517D01*
X10695816Y20771779D01*
X10711151Y20772083D01*
X10725287Y20772419D01*
X10737722Y20772783D01*
X10747958Y20773165D01*
X10755495Y20773561D01*
X10757526Y20773711D01*
X10806961Y20778974D01*
X10853750Y20786277D01*
X10897985Y20795667D01*
X10939757Y20807190D01*
X10979156Y20820892D01*
X11016274Y20836818D01*
X11051202Y20855015D01*
X11084031Y20875529D01*
X11114853Y20898405D01*
X11143758Y20923689D01*
X11170838Y20951428D01*
X11196184Y20981668D01*
X11211860Y21002812D01*
X11234657Y21037756D01*
X11255680Y21075581D01*
X11274927Y21116278D01*
X11292397Y21159840D01*
X11308087Y21206260D01*
X11321994Y21255531D01*
X11334118Y21307647D01*
X11344456Y21362600D01*
X11353005Y21420383D01*
X11359764Y21480989D01*
X11361975Y21506134D01*
X11365497Y21557446D01*
X11367891Y21610520D01*
X11369162Y21664652D01*
X11369316Y21719138D01*
X11368358Y21773275D01*
X11366295Y21826359D01*
X11363131Y21877687D01*
X11358873Y21926554D01*
X11358575Y21929467D01*
X11351817Y21985628D01*
X11343370Y22039570D01*
X11333279Y22091051D01*
X11321589Y22139829D01*
X11317959Y22153242D01*
X11303167Y22201667D01*
X11286464Y22247303D01*
X11267828Y22290171D01*
X11247235Y22330295D01*
X11224660Y22367697D01*
X11200081Y22402400D01*
X11173474Y22434427D01*
X11144814Y22463801D01*
X11114080Y22490545D01*
X11081246Y22514680D01*
X11046290Y22536231D01*
X11009187Y22555219D01*
X10969914Y22571667D01*
X10928448Y22585599D01*
X10884765Y22597036D01*
X10849813Y22604120D01*
X10822389Y22608600D01*
X10795054Y22612179D01*
X10767158Y22614909D01*
X10738052Y22616838D01*
X10707087Y22618019D01*
X10673613Y22618500D01*
X10664393Y22618517D01*
X10645484Y22618455D01*
X10628593Y22618266D01*
X10613029Y22617917D01*
X10598102Y22617372D01*
X10583121Y22616596D01*
X10567396Y22615556D01*
X10550236Y22614216D01*
X10530950Y22612541D01*
X10513686Y22610953D01*
X10476184Y22607107D01*
X10436741Y22602438D01*
X10395836Y22597030D01*
X10353950Y22590966D01*
X10311562Y22584330D01*
X10269153Y22577206D01*
X10227201Y22569677D01*
X10186189Y22561826D01*
X10146594Y22553738D01*
X10108898Y22545496D01*
X10073580Y22537184D01*
X10041121Y22528885D01*
X10038126Y22528080D01*
X10029414Y22525737D01*
X10021921Y22523743D01*
X10016225Y22522252D01*
X10012905Y22521414D01*
X10012303Y22521287D01*
X10012259Y22519611D01*
X10012216Y22514650D01*
X10012174Y22506505D01*
X10012133Y22495279D01*
X10012092Y22481074D01*
X10012053Y22463991D01*
X10012015Y22444131D01*
X10011978Y22421598D01*
X10011942Y22396491D01*
X10011908Y22368914D01*
X10011875Y22338968D01*
X10011844Y22306755D01*
X10011814Y22272376D01*
X10011786Y22235934D01*
X10011760Y22197529D01*
X10011735Y22157264D01*
X10011713Y22115241D01*
X10011692Y22071561D01*
X10011674Y22026326D01*
X10011658Y21979638D01*
X10011644Y21931599D01*
X10011633Y21882310D01*
X10011624Y21831873D01*
X10011618Y21780390D01*
X10011614Y21727963D01*
X10011613Y21680897D01*
X9744626Y21680897D01*
X9744913Y22694723D01*
X9758460Y22698657D01*
X9817899Y22715463D01*
X9878345Y22731665D01*
X9939387Y22747174D01*
X10000618Y22761903D01*
X10061627Y22775765D01*
X10122006Y22788672D01*
X10181346Y22800536D01*
X10239239Y22811269D01*
X10295275Y22820784D01*
X10349046Y22828994D01*
X10396000Y22835298D01*
X10426214Y22838972D01*
X10453712Y22842101D01*
X10479115Y22844727D01*
X10503044Y22846887D01*
X10526118Y22848622D01*
X10548958Y22849970D01*
X10572184Y22850970D01*
X10596417Y22851663D01*
X10622278Y22852087D01*
X10650386Y22852282D01*
X10664393Y22852306D01*
X10686438Y22852295D01*
G36*
X1026786Y22760425D02*
G01*
X1049223Y22766070D01*
X1134878Y22786357D01*
X1220046Y22803961D01*
X1305331Y22818979D01*
X1391342Y22831507D01*
X1478682Y22841644D01*
X1567959Y22849485D01*
X1573733Y22849909D01*
X1583927Y22850508D01*
X1596909Y22851048D01*
X1612194Y22851525D01*
X1629293Y22851934D01*
X1647719Y22852273D01*
X1666986Y22852536D01*
X1686605Y22852721D01*
X1706090Y22852822D01*
X1724953Y22852837D01*
X1742707Y22852762D01*
X1758865Y22852592D01*
X1772940Y22852323D01*
X1784444Y22851952D01*
X1790480Y22851644D01*
X1840377Y22847684D01*
X1887710Y22842187D01*
X1932974Y22835061D01*
X1976667Y22826214D01*
X2019288Y22815554D01*
X2061332Y22802990D01*
X2070726Y22799903D01*
X2120305Y22781677D01*
X2167750Y22760825D01*
X2213055Y22737350D01*
X2256216Y22711258D01*
X2297227Y22682551D01*
X2336082Y22651234D01*
X2372776Y22617312D01*
X2407303Y22580788D01*
X2439658Y22541667D01*
X2469835Y22499952D01*
X2473695Y22494194D01*
X2484655Y22477478D01*
X2494108Y22462528D01*
X2502594Y22448414D01*
X2510654Y22434204D01*
X2518828Y22418969D01*
X2527658Y22401777D01*
X2529300Y22398520D01*
X2551956Y22350243D01*
X2572526Y22299633D01*
X2591021Y22246642D01*
X2607452Y22191221D01*
X2621833Y22133321D01*
X2634173Y22072893D01*
X2644485Y22009888D01*
X2652782Y21944257D01*
X2659074Y21875951D01*
X2660848Y21850727D01*
X2662286Y21824476D01*
X2663399Y21795518D01*
X2664190Y21764516D01*
X2664657Y21732133D01*
X2664800Y21699034D01*
X2664621Y21665881D01*
X2664118Y21633339D01*
X2663292Y21602071D01*
X2662143Y21572741D01*
X2660814Y21548244D01*
X2655251Y21477425D01*
X2647645Y21409294D01*
X2637988Y21343835D01*
X2626274Y21281030D01*
X2612494Y21220862D01*
X2596641Y21163314D01*
X2578709Y21108368D01*
X2558691Y21056008D01*
X2536578Y21006217D01*
X2512365Y20958976D01*
X2486043Y20914269D01*
X2457605Y20872078D01*
X2427045Y20832386D01*
X2394354Y20795176D01*
X2359527Y20760432D01*
X2322555Y20728134D01*
X2316092Y20722914D01*
X2287948Y20701457D01*
X2259479Y20681864D01*
X2229818Y20663589D01*
X2198102Y20646083D01*
X2179918Y20636808D01*
X2137620Y20617154D01*
X2094031Y20599637D01*
X2048947Y20584207D01*
X2002159Y20570816D01*
X1953463Y20559414D01*
X1902652Y20549951D01*
X1849519Y20542379D01*
X1793859Y20536647D01*
X1747535Y20533364D01*
X1740060Y20533043D01*
X1729739Y20532759D01*
X1717068Y20532514D01*
X1702545Y20532310D01*
X1686666Y20532149D01*
X1669929Y20532032D01*
X1652830Y20531961D01*
X1635866Y20531937D01*
X1619535Y20531963D01*
X1604333Y20532039D01*
X1590757Y20532169D01*
X1579305Y20532353D01*
X1570472Y20532592D01*
X1566960Y20532746D01*
X1531118Y20534852D01*
X1495636Y20537320D01*
X1460292Y20540187D01*
X1424864Y20543485D01*
X1389130Y20547249D01*
X1352867Y20551513D01*
X1315854Y20556311D01*
X1277869Y20561678D01*
X1238689Y20567648D01*
X1198093Y20574255D01*
X1155858Y20581532D01*
X1111764Y20589515D01*
X1065586Y20598237D01*
X1017104Y20607733D01*
X966096Y20618036D01*
X912339Y20629182D01*
X855612Y20641204D01*
X837980Y20644986D01*
X822821Y20648249D01*
X808590Y20651315D01*
X795649Y20654106D01*
X784362Y20656544D01*
X775092Y20658550D01*
X768200Y20660046D01*
X764049Y20660954D01*
X763050Y20661178D01*
X759240Y20662072D01*
X759240Y22521003D01*
X1026786Y22521003D01*
X1026786Y20840318D01*
X1047530Y20836665D01*
X1055704Y20835221D01*
X1066317Y20833343D01*
X1078471Y20831188D01*
X1091272Y20828915D01*
X1103822Y20826683D01*
X1105526Y20826380D01*
X1149321Y20818838D01*
X1194213Y20811592D01*
X1239459Y20804747D01*
X1284314Y20798409D01*
X1328032Y20792683D01*
X1369871Y20787677D01*
X1403553Y20784049D01*
X1422115Y20782203D01*
X1439420Y20780573D01*
X1456022Y20779117D01*
X1472476Y20777798D01*
X1489339Y20776575D01*
X1507165Y20775408D01*
X1526511Y20774259D01*
X1547931Y20773087D01*
X1571981Y20771854D01*
X1581353Y20771388D01*
X1589870Y20771111D01*
X1601224Y20770953D01*
X1614890Y20770907D01*
X1630346Y20770964D01*
X1647068Y20771114D01*
X1664533Y20771348D01*
X1682219Y20771658D01*
X1699601Y20772034D01*
X1716157Y20772467D01*
X1731363Y20772949D01*
X1744697Y20773469D01*
X1755634Y20774020D01*
X1762955Y20774530D01*
X1807575Y20779124D01*
X1849363Y20785057D01*
X1888626Y20792406D01*
X1925675Y20801249D01*
X1960820Y20811663D01*
X1994370Y20823724D01*
X2026634Y20837510D01*
X2038553Y20843183D01*
X2073257Y20861850D01*
X2106031Y20882947D01*
X2136893Y20906506D01*
X2165857Y20932557D01*
X2192939Y20961134D01*
X2218155Y20992266D01*
X2241521Y21025987D01*
X2263052Y21062327D01*
X2282764Y21101319D01*
X2300672Y21142993D01*
X2316793Y21187382D01*
X2331141Y21234518D01*
X2343733Y21284431D01*
X2354585Y21337154D01*
X2363712Y21392718D01*
X2371129Y21451155D01*
X2376853Y21512496D01*
X2378011Y21528147D01*
X2379514Y21552770D01*
X2380776Y21580085D01*
X2381790Y21609407D01*
X2382547Y21640049D01*
X2383038Y21671326D01*
X2383256Y21702551D01*
X2383192Y21733039D01*
X2382838Y21762103D01*
X2382185Y21789058D01*
X2381415Y21809240D01*
X2377672Y21871520D01*
X2372279Y21930959D01*
X2365210Y21987689D01*
X2356440Y22041841D01*
X2345946Y22093545D01*
X2333704Y22142931D01*
X2319687Y22190130D01*
X2303873Y22235272D01*
X2299688Y22246120D01*
X2291242Y22266223D01*
X2281201Y22287812D01*
X2269995Y22310085D01*
X2258057Y22332240D01*
X2245816Y22353474D01*
X2233704Y22372985D01*
X2223231Y22388462D01*
X2200291Y22418303D01*
X2175018Y22446764D01*
X2147919Y22473351D01*
X2119500Y22497567D01*
X2090267Y22518918D01*
X2089526Y22519413D01*
X2055019Y22540517D01*
X2018549Y22559081D01*
X1980050Y22575125D01*
X1939454Y22588672D01*
X1896697Y22599742D01*
X1851710Y22608356D01*
X1804429Y22614536D01*
X1787940Y22616076D01*
X1757774Y22618012D01*
X1724720Y22619003D01*
X1689137Y22619070D01*
X1651383Y22618234D01*
X1611816Y22616516D01*
X1570795Y22613934D01*
X1528679Y22610510D01*
X1485826Y22606264D01*
X1442595Y22601216D01*
X1399343Y22595386D01*
X1384601Y22593216D01*
X1339770Y22586091D01*
X1292483Y22577863D01*
X1243435Y22568671D01*
X1193323Y22558653D01*
X1142840Y22547946D01*
X1092683Y22536688D01*
X1055996Y22528039D01*
X1026786Y22521003D01*
X759240Y22521003D01*
X759240Y23991100D01*
X1026786Y23991100D01*
X1026786Y22760425D01*
X1026786Y22760425D01*
G37*
X1026786Y22760425D02*
X1049223Y22766070D01*
X1134878Y22786357D01*
X1220046Y22803961D01*
X1305331Y22818979D01*
X1391342Y22831507D01*
X1478682Y22841644D01*
X1567959Y22849485D01*
X1573733Y22849909D01*
X1583927Y22850508D01*
X1596909Y22851048D01*
X1612194Y22851525D01*
X1629293Y22851934D01*
X1647719Y22852273D01*
X1666986Y22852536D01*
X1686605Y22852721D01*
X1706090Y22852822D01*
X1724953Y22852837D01*
X1742707Y22852762D01*
X1758865Y22852592D01*
X1772940Y22852323D01*
X1784444Y22851952D01*
X1790480Y22851644D01*
X1840377Y22847684D01*
X1887710Y22842187D01*
X1932974Y22835061D01*
X1976667Y22826214D01*
X2019288Y22815554D01*
X2061332Y22802990D01*
X2070726Y22799903D01*
X2120305Y22781677D01*
X2167750Y22760825D01*
X2213055Y22737350D01*
X2256216Y22711258D01*
X2297227Y22682551D01*
X2336082Y22651234D01*
X2372776Y22617312D01*
X2407303Y22580788D01*
X2439658Y22541667D01*
X2469835Y22499952D01*
X2473695Y22494194D01*
X2484655Y22477478D01*
X2494108Y22462528D01*
X2502594Y22448414D01*
X2510654Y22434204D01*
X2518828Y22418969D01*
X2527658Y22401777D01*
X2529300Y22398520D01*
X2551956Y22350243D01*
X2572526Y22299633D01*
X2591021Y22246642D01*
X2607452Y22191221D01*
X2621833Y22133321D01*
X2634173Y22072893D01*
X2644485Y22009888D01*
X2652782Y21944257D01*
X2659074Y21875951D01*
X2660848Y21850727D01*
X2662286Y21824476D01*
X2663399Y21795518D01*
X2664190Y21764516D01*
X2664657Y21732133D01*
X2664800Y21699034D01*
X2664621Y21665881D01*
X2664118Y21633339D01*
X2663292Y21602071D01*
X2662143Y21572741D01*
X2660814Y21548244D01*
X2655251Y21477425D01*
X2647645Y21409294D01*
X2637988Y21343835D01*
X2626274Y21281030D01*
X2612494Y21220862D01*
X2596641Y21163314D01*
X2578709Y21108368D01*
X2558691Y21056008D01*
X2536578Y21006217D01*
X2512365Y20958976D01*
X2486043Y20914269D01*
X2457605Y20872078D01*
X2427045Y20832386D01*
X2394354Y20795176D01*
X2359527Y20760432D01*
X2322555Y20728134D01*
X2316092Y20722914D01*
X2287948Y20701457D01*
X2259479Y20681864D01*
X2229818Y20663589D01*
X2198102Y20646083D01*
X2179918Y20636808D01*
X2137620Y20617154D01*
X2094031Y20599637D01*
X2048947Y20584207D01*
X2002159Y20570816D01*
X1953463Y20559414D01*
X1902652Y20549951D01*
X1849519Y20542379D01*
X1793859Y20536647D01*
X1747535Y20533364D01*
X1740060Y20533043D01*
X1729739Y20532759D01*
X1717068Y20532514D01*
X1702545Y20532310D01*
X1686666Y20532149D01*
X1669929Y20532032D01*
X1652830Y20531961D01*
X1635866Y20531937D01*
X1619535Y20531963D01*
X1604333Y20532039D01*
X1590757Y20532169D01*
X1579305Y20532353D01*
X1570472Y20532592D01*
X1566960Y20532746D01*
X1531118Y20534852D01*
X1495636Y20537320D01*
X1460292Y20540187D01*
X1424864Y20543485D01*
X1389130Y20547249D01*
X1352867Y20551513D01*
X1315854Y20556311D01*
X1277869Y20561678D01*
X1238689Y20567648D01*
X1198093Y20574255D01*
X1155858Y20581532D01*
X1111764Y20589515D01*
X1065586Y20598237D01*
X1017104Y20607733D01*
X966096Y20618036D01*
X912339Y20629182D01*
X855612Y20641204D01*
X837980Y20644986D01*
X822821Y20648249D01*
X808590Y20651315D01*
X795649Y20654106D01*
X784362Y20656544D01*
X775092Y20658550D01*
X768200Y20660046D01*
X764049Y20660954D01*
X763050Y20661178D01*
X759240Y20662072D01*
X759240Y22521003D01*
X1026786Y22521003D01*
X1026786Y20840318D01*
X1047530Y20836665D01*
X1055704Y20835221D01*
X1066317Y20833343D01*
X1078471Y20831188D01*
X1091272Y20828915D01*
X1103822Y20826683D01*
X1105526Y20826380D01*
X1149321Y20818838D01*
X1194213Y20811592D01*
X1239459Y20804747D01*
X1284314Y20798409D01*
X1328032Y20792683D01*
X1369871Y20787677D01*
X1403553Y20784049D01*
X1422115Y20782203D01*
X1439420Y20780573D01*
X1456022Y20779117D01*
X1472476Y20777798D01*
X1489339Y20776575D01*
X1507165Y20775408D01*
X1526511Y20774259D01*
X1547931Y20773087D01*
X1571981Y20771854D01*
X1581353Y20771388D01*
X1589870Y20771111D01*
X1601224Y20770953D01*
X1614890Y20770907D01*
X1630346Y20770964D01*
X1647068Y20771114D01*
X1664533Y20771348D01*
X1682219Y20771658D01*
X1699601Y20772034D01*
X1716157Y20772467D01*
X1731363Y20772949D01*
X1744697Y20773469D01*
X1755634Y20774020D01*
X1762955Y20774530D01*
X1807575Y20779124D01*
X1849363Y20785057D01*
X1888626Y20792406D01*
X1925675Y20801249D01*
X1960820Y20811663D01*
X1994370Y20823724D01*
X2026634Y20837510D01*
X2038553Y20843183D01*
X2073257Y20861850D01*
X2106031Y20882947D01*
X2136893Y20906506D01*
X2165857Y20932557D01*
X2192939Y20961134D01*
X2218155Y20992266D01*
X2241521Y21025987D01*
X2263052Y21062327D01*
X2282764Y21101319D01*
X2300672Y21142993D01*
X2316793Y21187382D01*
X2331141Y21234518D01*
X2343733Y21284431D01*
X2354585Y21337154D01*
X2363712Y21392718D01*
X2371129Y21451155D01*
X2376853Y21512496D01*
X2378011Y21528147D01*
X2379514Y21552770D01*
X2380776Y21580085D01*
X2381790Y21609407D01*
X2382547Y21640049D01*
X2383038Y21671326D01*
X2383256Y21702551D01*
X2383192Y21733039D01*
X2382838Y21762103D01*
X2382185Y21789058D01*
X2381415Y21809240D01*
X2377672Y21871520D01*
X2372279Y21930959D01*
X2365210Y21987689D01*
X2356440Y22041841D01*
X2345946Y22093545D01*
X2333704Y22142931D01*
X2319687Y22190130D01*
X2303873Y22235272D01*
X2299688Y22246120D01*
X2291242Y22266223D01*
X2281201Y22287812D01*
X2269995Y22310085D01*
X2258057Y22332240D01*
X2245816Y22353474D01*
X2233704Y22372985D01*
X2223231Y22388462D01*
X2200291Y22418303D01*
X2175018Y22446764D01*
X2147919Y22473351D01*
X2119500Y22497567D01*
X2090267Y22518918D01*
X2089526Y22519413D01*
X2055019Y22540517D01*
X2018549Y22559081D01*
X1980050Y22575125D01*
X1939454Y22588672D01*
X1896697Y22599742D01*
X1851710Y22608356D01*
X1804429Y22614536D01*
X1787940Y22616076D01*
X1757774Y22618012D01*
X1724720Y22619003D01*
X1689137Y22619070D01*
X1651383Y22618234D01*
X1611816Y22616516D01*
X1570795Y22613934D01*
X1528679Y22610510D01*
X1485826Y22606264D01*
X1442595Y22601216D01*
X1399343Y22595386D01*
X1384601Y22593216D01*
X1339770Y22586091D01*
X1292483Y22577863D01*
X1243435Y22568671D01*
X1193323Y22558653D01*
X1142840Y22547946D01*
X1092683Y22536688D01*
X1055996Y22528039D01*
X1026786Y22521003D01*
X759240Y22521003D01*
X759240Y23991100D01*
X1026786Y23991100D01*
X1026786Y22760425D01*
G36*
X5447005Y22852697D02*
G01*
X5470700Y22852364D01*
X5491595Y22851935D01*
X5510280Y22851376D01*
X5527341Y22850652D01*
X5543364Y22849730D01*
X5558939Y22848573D01*
X5574652Y22847147D01*
X5591090Y22845418D01*
X5608841Y22843351D01*
X5612244Y22842938D01*
X5671270Y22834341D01*
X5728010Y22823248D01*
X5782474Y22809654D01*
X5834670Y22793554D01*
X5884609Y22774942D01*
X5932299Y22753813D01*
X5977749Y22730162D01*
X6020969Y22703984D01*
X6061968Y22675273D01*
X6100754Y22644025D01*
X6137338Y22610234D01*
X6171728Y22573894D01*
X6203934Y22535001D01*
X6233964Y22493550D01*
X6238076Y22487420D01*
X6265369Y22443501D01*
X6290517Y22397120D01*
X6313525Y22348259D01*
X6334395Y22296905D01*
X6353131Y22243041D01*
X6369738Y22186650D01*
X6384219Y22127718D01*
X6396578Y22066228D01*
X6406818Y22002165D01*
X6414944Y21935512D01*
X6420958Y21866255D01*
X6424866Y21794376D01*
X6426670Y21719861D01*
X6426805Y21692400D01*
X6425739Y21616688D01*
X6422544Y21543604D01*
X6417216Y21473141D01*
X6409753Y21405293D01*
X6400151Y21340053D01*
X6388408Y21277413D01*
X6374521Y21217367D01*
X6358486Y21159907D01*
X6340301Y21105027D01*
X6319963Y21052719D01*
X6297469Y21002977D01*
X6272816Y20955794D01*
X6246001Y20911161D01*
X6217021Y20869074D01*
X6185873Y20829523D01*
X6152555Y20792503D01*
X6117062Y20758007D01*
X6079393Y20726026D01*
X6039545Y20696555D01*
X5998413Y20670124D01*
X5954657Y20645852D01*
X5908532Y20623962D01*
X5860087Y20604465D01*
X5809372Y20587369D01*
X5756435Y20572686D01*
X5701324Y20560426D01*
X5644089Y20550598D01*
X5584779Y20543213D01*
X5523442Y20538282D01*
X5460127Y20535813D01*
X5394884Y20535819D01*
X5358333Y20536874D01*
X5295454Y20540588D01*
X5234705Y20546764D01*
X5176113Y20555391D01*
X5119707Y20566463D01*
X5065515Y20579969D01*
X5013566Y20595901D01*
X4963889Y20614249D01*
X4916511Y20635006D01*
X4871462Y20658163D01*
X4828769Y20683709D01*
X4788461Y20711637D01*
X4782662Y20716001D01*
X4749204Y20743169D01*
X4716498Y20773105D01*
X4685156Y20805193D01*
X4655791Y20838818D01*
X4637441Y20862013D01*
X4608734Y20902548D01*
X4582037Y20945779D01*
X4557363Y20991664D01*
X4534726Y21040164D01*
X4514139Y21091240D01*
X4495614Y21144850D01*
X4479164Y21200956D01*
X4464802Y21259517D01*
X4452542Y21320494D01*
X4442396Y21383845D01*
X4434377Y21449533D01*
X4429644Y21501900D01*
X4428020Y21523768D01*
X4426670Y21543977D01*
X4425570Y21563156D01*
X4424699Y21581933D01*
X4424035Y21600938D01*
X4423557Y21620800D01*
X4423241Y21642147D01*
X4423067Y21665608D01*
X4423013Y21691812D01*
X4423013Y21692400D01*
X4423062Y21703675D01*
X4704760Y21703675D01*
X4704760Y21682137D01*
X4704838Y21660850D01*
X4704993Y21640331D01*
X4705226Y21621097D01*
X4705537Y21603663D01*
X4705925Y21588548D01*
X4706390Y21576267D01*
X4706424Y21575560D01*
X4710142Y21514996D01*
X4715272Y21457410D01*
X4721838Y21402693D01*
X4729862Y21350734D01*
X4739368Y21301424D01*
X4750380Y21254652D01*
X4762920Y21210308D01*
X4777012Y21168282D01*
X4792680Y21128464D01*
X4808860Y21092960D01*
X4829405Y21054095D01*
X4851833Y21017866D01*
X4876193Y20984243D01*
X4902531Y20953199D01*
X4930897Y20924703D01*
X4961337Y20898726D01*
X4993899Y20875240D01*
X5028632Y20854215D01*
X5065583Y20835621D01*
X5104800Y20819431D01*
X5146330Y20805614D01*
X5190222Y20794142D01*
X5236522Y20784986D01*
X5285280Y20778115D01*
X5332086Y20773807D01*
X5357772Y20772311D01*
X5385304Y20771271D01*
X5413689Y20770697D01*
X5441939Y20770598D01*
X5469062Y20770985D01*
X5494069Y20771866D01*
X5499726Y20772157D01*
X5549006Y20775859D01*
X5595586Y20781424D01*
X5639625Y20788899D01*
X5681281Y20798331D01*
X5720712Y20809766D01*
X5758078Y20823251D01*
X5793536Y20838834D01*
X5827246Y20856561D01*
X5859365Y20876479D01*
X5864640Y20880059D01*
X5892393Y20900870D01*
X5919468Y20924567D01*
X5945378Y20950653D01*
X5969638Y20978633D01*
X5991763Y21008012D01*
X5996035Y21014228D01*
X6017938Y21049200D01*
X6038066Y21086705D01*
X6056430Y21126788D01*
X6073043Y21169491D01*
X6087917Y21214860D01*
X6101064Y21262936D01*
X6112497Y21313764D01*
X6122228Y21367387D01*
X6130270Y21423849D01*
X6136633Y21483194D01*
X6139797Y21522220D01*
X6142492Y21567606D01*
X6144274Y21615059D01*
X6145155Y21663877D01*
X6145144Y21713358D01*
X6144252Y21762798D01*
X6142489Y21811497D01*
X6139866Y21858751D01*
X6136392Y21903858D01*
X6133829Y21930314D01*
X6126617Y21988858D01*
X6117587Y22044787D01*
X6106751Y22098054D01*
X6094121Y22148614D01*
X6079709Y22196420D01*
X6063526Y22241426D01*
X6045584Y22283586D01*
X6040786Y22293757D01*
X6020193Y22333226D01*
X5997702Y22369995D01*
X5973267Y22404097D01*
X5946843Y22435563D01*
X5918383Y22464424D01*
X5887841Y22490711D01*
X5855171Y22514456D01*
X5820327Y22535689D01*
X5783264Y22554442D01*
X5743934Y22570746D01*
X5702292Y22584633D01*
X5658292Y22596134D01*
X5611888Y22605279D01*
X5573386Y22610873D01*
X5556524Y22612874D01*
X5540936Y22614510D01*
X5525995Y22615812D01*
X5511078Y22616815D01*
X5495559Y22617550D01*
X5478814Y22618052D01*
X5460218Y22618351D01*
X5439145Y22618483D01*
X5428606Y22618496D01*
X5406475Y22618431D01*
X5387078Y22618217D01*
X5369768Y22617822D01*
X5353893Y22617214D01*
X5338806Y22616361D01*
X5323856Y22615233D01*
X5308394Y22613798D01*
X5291770Y22612023D01*
X5289119Y22611724D01*
X5240372Y22604918D01*
X5194102Y22595838D01*
X5150247Y22584455D01*
X5108746Y22570737D01*
X5069540Y22554655D01*
X5032566Y22536178D01*
X4997764Y22515276D01*
X4965072Y22491919D01*
X4934431Y22466075D01*
X4905779Y22437715D01*
X4879723Y22407642D01*
X4874105Y22400377D01*
X4867381Y22391256D01*
X4860271Y22381276D01*
X4853492Y22371434D01*
X4851221Y22368040D01*
X4829771Y22333215D01*
X4810060Y22296022D01*
X4792073Y22256401D01*
X4775794Y22214292D01*
X4761207Y22169637D01*
X4748298Y22122374D01*
X4737050Y22072446D01*
X4727449Y22019791D01*
X4719478Y21964351D01*
X4713123Y21906066D01*
X4708367Y21844877D01*
X4706393Y21809240D01*
X4705926Y21797046D01*
X4705537Y21782003D01*
X4705226Y21764628D01*
X4704993Y21745437D01*
X4704837Y21724947D01*
X4704760Y21703675D01*
X4423062Y21703675D01*
X4423177Y21729651D01*
X4423690Y21764159D01*
X4424584Y21796554D01*
X4425892Y21827465D01*
X4427645Y21857521D01*
X4429876Y21887352D01*
X4432618Y21917587D01*
X4435901Y21948854D01*
X4436306Y21952469D01*
X4445065Y22019200D01*
X4455995Y22083334D01*
X4469099Y22144874D01*
X4484378Y22203822D01*
X4501834Y22260181D01*
X4521468Y22313955D01*
X4543283Y22365145D01*
X4567279Y22413755D01*
X4593459Y22459787D01*
X4621823Y22503244D01*
X4652374Y22544129D01*
X4685114Y22582445D01*
X4720043Y22618194D01*
X4757164Y22651380D01*
X4796479Y22682004D01*
X4837987Y22710070D01*
X4881693Y22735581D01*
X4904097Y22747242D01*
X4946791Y22767234D01*
X4990543Y22784948D01*
X5035687Y22800484D01*
X5082559Y22813943D01*
X5131495Y22825426D01*
X5182829Y22835033D01*
X5211986Y22839521D01*
X5238054Y22843045D01*
X5263055Y22845975D01*
X5287562Y22848344D01*
X5312149Y22850184D01*
X5337390Y22851528D01*
X5363858Y22852406D01*
X5392129Y22852852D01*
X5422775Y22852898D01*
X5447005Y22852697D01*
X5447005Y22852697D01*
G37*
X5447005Y22852697D02*
X5470700Y22852364D01*
X5491595Y22851935D01*
X5510280Y22851376D01*
X5527341Y22850652D01*
X5543364Y22849730D01*
X5558939Y22848573D01*
X5574652Y22847147D01*
X5591090Y22845418D01*
X5608841Y22843351D01*
X5612244Y22842938D01*
X5671270Y22834341D01*
X5728010Y22823248D01*
X5782474Y22809654D01*
X5834670Y22793554D01*
X5884609Y22774942D01*
X5932299Y22753813D01*
X5977749Y22730162D01*
X6020969Y22703984D01*
X6061968Y22675273D01*
X6100754Y22644025D01*
X6137338Y22610234D01*
X6171728Y22573894D01*
X6203934Y22535001D01*
X6233964Y22493550D01*
X6238076Y22487420D01*
X6265369Y22443501D01*
X6290517Y22397120D01*
X6313525Y22348259D01*
X6334395Y22296905D01*
X6353131Y22243041D01*
X6369738Y22186650D01*
X6384219Y22127718D01*
X6396578Y22066228D01*
X6406818Y22002165D01*
X6414944Y21935512D01*
X6420958Y21866255D01*
X6424866Y21794376D01*
X6426670Y21719861D01*
X6426805Y21692400D01*
X6425739Y21616688D01*
X6422544Y21543604D01*
X6417216Y21473141D01*
X6409753Y21405293D01*
X6400151Y21340053D01*
X6388408Y21277413D01*
X6374521Y21217367D01*
X6358486Y21159907D01*
X6340301Y21105027D01*
X6319963Y21052719D01*
X6297469Y21002977D01*
X6272816Y20955794D01*
X6246001Y20911161D01*
X6217021Y20869074D01*
X6185873Y20829523D01*
X6152555Y20792503D01*
X6117062Y20758007D01*
X6079393Y20726026D01*
X6039545Y20696555D01*
X5998413Y20670124D01*
X5954657Y20645852D01*
X5908532Y20623962D01*
X5860087Y20604465D01*
X5809372Y20587369D01*
X5756435Y20572686D01*
X5701324Y20560426D01*
X5644089Y20550598D01*
X5584779Y20543213D01*
X5523442Y20538282D01*
X5460127Y20535813D01*
X5394884Y20535819D01*
X5358333Y20536874D01*
X5295454Y20540588D01*
X5234705Y20546764D01*
X5176113Y20555391D01*
X5119707Y20566463D01*
X5065515Y20579969D01*
X5013566Y20595901D01*
X4963889Y20614249D01*
X4916511Y20635006D01*
X4871462Y20658163D01*
X4828769Y20683709D01*
X4788461Y20711637D01*
X4782662Y20716001D01*
X4749204Y20743169D01*
X4716498Y20773105D01*
X4685156Y20805193D01*
X4655791Y20838818D01*
X4637441Y20862013D01*
X4608734Y20902548D01*
X4582037Y20945779D01*
X4557363Y20991664D01*
X4534726Y21040164D01*
X4514139Y21091240D01*
X4495614Y21144850D01*
X4479164Y21200956D01*
X4464802Y21259517D01*
X4452542Y21320494D01*
X4442396Y21383845D01*
X4434377Y21449533D01*
X4429644Y21501900D01*
X4428020Y21523768D01*
X4426670Y21543977D01*
X4425570Y21563156D01*
X4424699Y21581933D01*
X4424035Y21600938D01*
X4423557Y21620800D01*
X4423241Y21642147D01*
X4423067Y21665608D01*
X4423013Y21691812D01*
X4423013Y21692400D01*
X4423062Y21703675D01*
X4704760Y21703675D01*
X4704760Y21682137D01*
X4704838Y21660850D01*
X4704993Y21640331D01*
X4705226Y21621097D01*
X4705537Y21603663D01*
X4705925Y21588548D01*
X4706390Y21576267D01*
X4706424Y21575560D01*
X4710142Y21514996D01*
X4715272Y21457410D01*
X4721838Y21402693D01*
X4729862Y21350734D01*
X4739368Y21301424D01*
X4750380Y21254652D01*
X4762920Y21210308D01*
X4777012Y21168282D01*
X4792680Y21128464D01*
X4808860Y21092960D01*
X4829405Y21054095D01*
X4851833Y21017866D01*
X4876193Y20984243D01*
X4902531Y20953199D01*
X4930897Y20924703D01*
X4961337Y20898726D01*
X4993899Y20875240D01*
X5028632Y20854215D01*
X5065583Y20835621D01*
X5104800Y20819431D01*
X5146330Y20805614D01*
X5190222Y20794142D01*
X5236522Y20784986D01*
X5285280Y20778115D01*
X5332086Y20773807D01*
X5357772Y20772311D01*
X5385304Y20771271D01*
X5413689Y20770697D01*
X5441939Y20770598D01*
X5469062Y20770985D01*
X5494069Y20771866D01*
X5499726Y20772157D01*
X5549006Y20775859D01*
X5595586Y20781424D01*
X5639625Y20788899D01*
X5681281Y20798331D01*
X5720712Y20809766D01*
X5758078Y20823251D01*
X5793536Y20838834D01*
X5827246Y20856561D01*
X5859365Y20876479D01*
X5864640Y20880059D01*
X5892393Y20900870D01*
X5919468Y20924567D01*
X5945378Y20950653D01*
X5969638Y20978633D01*
X5991763Y21008012D01*
X5996035Y21014228D01*
X6017938Y21049200D01*
X6038066Y21086705D01*
X6056430Y21126788D01*
X6073043Y21169491D01*
X6087917Y21214860D01*
X6101064Y21262936D01*
X6112497Y21313764D01*
X6122228Y21367387D01*
X6130270Y21423849D01*
X6136633Y21483194D01*
X6139797Y21522220D01*
X6142492Y21567606D01*
X6144274Y21615059D01*
X6145155Y21663877D01*
X6145144Y21713358D01*
X6144252Y21762798D01*
X6142489Y21811497D01*
X6139866Y21858751D01*
X6136392Y21903858D01*
X6133829Y21930314D01*
X6126617Y21988858D01*
X6117587Y22044787D01*
X6106751Y22098054D01*
X6094121Y22148614D01*
X6079709Y22196420D01*
X6063526Y22241426D01*
X6045584Y22283586D01*
X6040786Y22293757D01*
X6020193Y22333226D01*
X5997702Y22369995D01*
X5973267Y22404097D01*
X5946843Y22435563D01*
X5918383Y22464424D01*
X5887841Y22490711D01*
X5855171Y22514456D01*
X5820327Y22535689D01*
X5783264Y22554442D01*
X5743934Y22570746D01*
X5702292Y22584633D01*
X5658292Y22596134D01*
X5611888Y22605279D01*
X5573386Y22610873D01*
X5556524Y22612874D01*
X5540936Y22614510D01*
X5525995Y22615812D01*
X5511078Y22616815D01*
X5495559Y22617550D01*
X5478814Y22618052D01*
X5460218Y22618351D01*
X5439145Y22618483D01*
X5428606Y22618496D01*
X5406475Y22618431D01*
X5387078Y22618217D01*
X5369768Y22617822D01*
X5353893Y22617214D01*
X5338806Y22616361D01*
X5323856Y22615233D01*
X5308394Y22613798D01*
X5291770Y22612023D01*
X5289119Y22611724D01*
X5240372Y22604918D01*
X5194102Y22595838D01*
X5150247Y22584455D01*
X5108746Y22570737D01*
X5069540Y22554655D01*
X5032566Y22536178D01*
X4997764Y22515276D01*
X4965072Y22491919D01*
X4934431Y22466075D01*
X4905779Y22437715D01*
X4879723Y22407642D01*
X4874105Y22400377D01*
X4867381Y22391256D01*
X4860271Y22381276D01*
X4853492Y22371434D01*
X4851221Y22368040D01*
X4829771Y22333215D01*
X4810060Y22296022D01*
X4792073Y22256401D01*
X4775794Y22214292D01*
X4761207Y22169637D01*
X4748298Y22122374D01*
X4737050Y22072446D01*
X4727449Y22019791D01*
X4719478Y21964351D01*
X4713123Y21906066D01*
X4708367Y21844877D01*
X4706393Y21809240D01*
X4705926Y21797046D01*
X4705537Y21782003D01*
X4705226Y21764628D01*
X4704993Y21745437D01*
X4704837Y21724947D01*
X4704760Y21703675D01*
X4423062Y21703675D01*
X4423177Y21729651D01*
X4423690Y21764159D01*
X4424584Y21796554D01*
X4425892Y21827465D01*
X4427645Y21857521D01*
X4429876Y21887352D01*
X4432618Y21917587D01*
X4435901Y21948854D01*
X4436306Y21952469D01*
X4445065Y22019200D01*
X4455995Y22083334D01*
X4469099Y22144874D01*
X4484378Y22203822D01*
X4501834Y22260181D01*
X4521468Y22313955D01*
X4543283Y22365145D01*
X4567279Y22413755D01*
X4593459Y22459787D01*
X4621823Y22503244D01*
X4652374Y22544129D01*
X4685114Y22582445D01*
X4720043Y22618194D01*
X4757164Y22651380D01*
X4796479Y22682004D01*
X4837987Y22710070D01*
X4881693Y22735581D01*
X4904097Y22747242D01*
X4946791Y22767234D01*
X4990543Y22784948D01*
X5035687Y22800484D01*
X5082559Y22813943D01*
X5131495Y22825426D01*
X5182829Y22835033D01*
X5211986Y22839521D01*
X5238054Y22843045D01*
X5263055Y22845975D01*
X5287562Y22848344D01*
X5312149Y22850184D01*
X5337390Y22851528D01*
X5363858Y22852406D01*
X5392129Y22852852D01*
X5422775Y22852898D01*
X5447005Y22852697D01*
G36*
X8020263Y22852265D02*
G01*
X8041911Y22852129D01*
X8061117Y22851877D01*
X8078352Y22851487D01*
X8094088Y22850935D01*
X8108797Y22850196D01*
X8122949Y22849246D01*
X8137017Y22848063D01*
X8151472Y22846623D01*
X8166787Y22844901D01*
X8183432Y22842874D01*
X8183660Y22842845D01*
X8242808Y22834046D01*
X8299672Y22822754D01*
X8354257Y22808964D01*
X8406569Y22792670D01*
X8456614Y22773867D01*
X8504399Y22752548D01*
X8549930Y22728708D01*
X8593214Y22702341D01*
X8634256Y22673441D01*
X8673062Y22642002D01*
X8709640Y22608019D01*
X8743995Y22571485D01*
X8776134Y22532395D01*
X8806062Y22490744D01*
X8833787Y22446525D01*
X8859314Y22399732D01*
X8882649Y22350360D01*
X8903800Y22298402D01*
X8922771Y22243854D01*
X8939570Y22186709D01*
X8953875Y22128434D01*
X8964695Y22075057D01*
X8973981Y22019054D01*
X8981718Y21960826D01*
X8987892Y21900773D01*
X8992489Y21839295D01*
X8995494Y21776793D01*
X8996895Y21713667D01*
X8996675Y21650318D01*
X8994822Y21587145D01*
X8991321Y21524549D01*
X8986159Y21462931D01*
X8979448Y21403687D01*
X8969750Y21338200D01*
X8957847Y21275272D01*
X8943739Y21214903D01*
X8927427Y21157096D01*
X8908912Y21101852D01*
X8888195Y21049174D01*
X8865276Y20999064D01*
X8840157Y20951522D01*
X8812837Y20906552D01*
X8783317Y20864155D01*
X8755375Y20828800D01*
X8739395Y20810644D01*
X8721186Y20791515D01*
X8701472Y20772099D01*
X8680977Y20753082D01*
X8660424Y20735152D01*
X8640538Y20718994D01*
X8635780Y20715331D01*
X8596396Y20687464D01*
X8554567Y20661896D01*
X8510344Y20638640D01*
X8463781Y20617710D01*
X8414932Y20599119D01*
X8363848Y20582881D01*
X8310584Y20569008D01*
X8255192Y20557515D01*
X8197726Y20548415D01*
X8138238Y20541720D01*
X8076781Y20537446D01*
X8013409Y20535604D01*
X7948175Y20536209D01*
X7929591Y20536819D01*
X7865952Y20540508D01*
X7804617Y20546676D01*
X7745578Y20555327D01*
X7688829Y20566462D01*
X7634362Y20580086D01*
X7582168Y20596202D01*
X7532242Y20614813D01*
X7484576Y20635923D01*
X7439162Y20659535D01*
X7395993Y20685651D01*
X7355061Y20714276D01*
X7316359Y20745413D01*
X7279881Y20779065D01*
X7245618Y20815236D01*
X7213562Y20853928D01*
X7208809Y20860127D01*
X7179606Y20901262D01*
X7152537Y20944893D01*
X7127595Y20991038D01*
X7104775Y21039714D01*
X7084072Y21090938D01*
X7065479Y21144727D01*
X7048991Y21201098D01*
X7034603Y21260069D01*
X7022309Y21321655D01*
X7012102Y21385874D01*
X7003979Y21452744D01*
X7000091Y21494280D01*
X6996848Y21539928D01*
X6994501Y21588035D01*
X6993054Y21637792D01*
X6992511Y21688392D01*
X6992659Y21709041D01*
X7273681Y21709041D01*
X7273918Y21652260D01*
X7275435Y21595856D01*
X7278236Y21540333D01*
X7282325Y21486194D01*
X7287707Y21433942D01*
X7293983Y21386754D01*
X7303410Y21330979D01*
X7314633Y21278073D01*
X7327653Y21228029D01*
X7342471Y21180843D01*
X7359089Y21136510D01*
X7377509Y21095026D01*
X7397732Y21056385D01*
X7399571Y21053167D01*
X7421641Y21017648D01*
X7445536Y20984654D01*
X7471318Y20954153D01*
X7499049Y20926113D01*
X7528792Y20900501D01*
X7560606Y20877284D01*
X7594555Y20856431D01*
X7630699Y20837909D01*
X7669101Y20821685D01*
X7709823Y20807727D01*
X7752925Y20796002D01*
X7798469Y20786479D01*
X7846518Y20779125D01*
X7897132Y20773907D01*
X7935586Y20771435D01*
X7944644Y20771137D01*
X7956451Y20770972D01*
X7970458Y20770930D01*
X7986118Y20771001D01*
X8002884Y20771175D01*
X8020207Y20771442D01*
X8037539Y20771791D01*
X8054333Y20772214D01*
X8070040Y20772699D01*
X8084113Y20773238D01*
X8096005Y20773819D01*
X8105166Y20774433D01*
X8106613Y20774558D01*
X8154700Y20779962D01*
X8200067Y20787217D01*
X8242869Y20796381D01*
X8283258Y20807511D01*
X8321388Y20820665D01*
X8357411Y20835899D01*
X8391480Y20853271D01*
X8423750Y20872838D01*
X8454372Y20894656D01*
X8476606Y20912753D01*
X8505567Y20939875D01*
X8532651Y20969816D01*
X8557858Y21002576D01*
X8581187Y21038154D01*
X8602639Y21076551D01*
X8622214Y21117766D01*
X8639912Y21161800D01*
X8655732Y21208652D01*
X8669675Y21258322D01*
X8681741Y21310810D01*
X8691928Y21366116D01*
X8700239Y21424240D01*
X8702601Y21444327D01*
X8705596Y21472996D01*
X8708108Y21501167D01*
X8710163Y21529391D01*
X8711788Y21558215D01*
X8713009Y21588189D01*
X8713853Y21619863D01*
X8714346Y21653785D01*
X8714514Y21690504D01*
X8714514Y21692400D01*
X8714449Y21720569D01*
X8714238Y21745943D01*
X8713865Y21769111D01*
X8713309Y21790662D01*
X8712551Y21811185D01*
X8711573Y21831270D01*
X8710355Y21851506D01*
X8708878Y21872482D01*
X8708538Y21876974D01*
X8702795Y21938742D01*
X8695234Y21997665D01*
X8685847Y22053758D01*
X8674629Y22107037D01*
X8661573Y22157518D01*
X8646674Y22205217D01*
X8629923Y22250149D01*
X8611316Y22292331D01*
X8590845Y22331777D01*
X8568505Y22368503D01*
X8544289Y22402526D01*
X8518190Y22433861D01*
X8490202Y22462523D01*
X8460520Y22488369D01*
X8435524Y22507159D01*
X8409561Y22524132D01*
X8381671Y22539891D01*
X8366540Y22547586D01*
X8331013Y22563730D01*
X8294735Y22577525D01*
X8257179Y22589130D01*
X8217821Y22598705D01*
X8176134Y22606409D01*
X8169266Y22607471D01*
X8129086Y22612583D01*
X8086582Y22616230D01*
X8042485Y22618410D01*
X7997527Y22619118D01*
X7952439Y22618350D01*
X7907954Y22616102D01*
X7864803Y22612370D01*
X7838925Y22609294D01*
X7792264Y22601779D01*
X7747510Y22591862D01*
X7704778Y22579583D01*
X7664181Y22564986D01*
X7625835Y22548114D01*
X7589853Y22529007D01*
X7556349Y22507710D01*
X7546120Y22500402D01*
X7514998Y22475576D01*
X7485862Y22448284D01*
X7458692Y22418487D01*
X7433466Y22386147D01*
X7410164Y22351226D01*
X7388767Y22313684D01*
X7369254Y22273482D01*
X7351604Y22230583D01*
X7335797Y22184947D01*
X7321814Y22136536D01*
X7309633Y22085311D01*
X7299234Y22031234D01*
X7298932Y22029462D01*
X7291568Y21980988D01*
X7285461Y21929871D01*
X7280615Y21876615D01*
X7277034Y21821722D01*
X7274721Y21765696D01*
X7273681Y21709041D01*
X6992659Y21709041D01*
X6992875Y21739027D01*
X6994150Y21788888D01*
X6996339Y21837167D01*
X6998401Y21869354D01*
X7004610Y21939038D01*
X7012949Y22006096D01*
X7023425Y22070536D01*
X7036042Y22132369D01*
X7050804Y22191604D01*
X7067718Y22248250D01*
X7086788Y22302317D01*
X7108019Y22353815D01*
X7131415Y22402753D01*
X7156983Y22449140D01*
X7184726Y22492986D01*
X7214651Y22534301D01*
X7246761Y22573094D01*
X7281061Y22609374D01*
X7317558Y22643152D01*
X7356255Y22674436D01*
X7397158Y22703236D01*
X7440272Y22729561D01*
X7451305Y22735707D01*
X7494541Y22757577D01*
X7540287Y22777300D01*
X7588402Y22794835D01*
X7638743Y22810139D01*
X7691168Y22823172D01*
X7745534Y22833890D01*
X7801699Y22842252D01*
X7821286Y22844562D01*
X7836739Y22846235D01*
X7850611Y22847652D01*
X7863371Y22848834D01*
X7875485Y22849801D01*
X7887423Y22850574D01*
X7899653Y22851174D01*
X7912643Y22851621D01*
X7926860Y22851938D01*
X7942774Y22852143D01*
X7960852Y22852259D01*
X7981563Y22852306D01*
X7995700Y22852309D01*
X8020263Y22852265D01*
X8020263Y22852265D01*
G37*
X8020263Y22852265D02*
X8041911Y22852129D01*
X8061117Y22851877D01*
X8078352Y22851487D01*
X8094088Y22850935D01*
X8108797Y22850196D01*
X8122949Y22849246D01*
X8137017Y22848063D01*
X8151472Y22846623D01*
X8166787Y22844901D01*
X8183432Y22842874D01*
X8183660Y22842845D01*
X8242808Y22834046D01*
X8299672Y22822754D01*
X8354257Y22808964D01*
X8406569Y22792670D01*
X8456614Y22773867D01*
X8504399Y22752548D01*
X8549930Y22728708D01*
X8593214Y22702341D01*
X8634256Y22673441D01*
X8673062Y22642002D01*
X8709640Y22608019D01*
X8743995Y22571485D01*
X8776134Y22532395D01*
X8806062Y22490744D01*
X8833787Y22446525D01*
X8859314Y22399732D01*
X8882649Y22350360D01*
X8903800Y22298402D01*
X8922771Y22243854D01*
X8939570Y22186709D01*
X8953875Y22128434D01*
X8964695Y22075057D01*
X8973981Y22019054D01*
X8981718Y21960826D01*
X8987892Y21900773D01*
X8992489Y21839295D01*
X8995494Y21776793D01*
X8996895Y21713667D01*
X8996675Y21650318D01*
X8994822Y21587145D01*
X8991321Y21524549D01*
X8986159Y21462931D01*
X8979448Y21403687D01*
X8969750Y21338200D01*
X8957847Y21275272D01*
X8943739Y21214903D01*
X8927427Y21157096D01*
X8908912Y21101852D01*
X8888195Y21049174D01*
X8865276Y20999064D01*
X8840157Y20951522D01*
X8812837Y20906552D01*
X8783317Y20864155D01*
X8755375Y20828800D01*
X8739395Y20810644D01*
X8721186Y20791515D01*
X8701472Y20772099D01*
X8680977Y20753082D01*
X8660424Y20735152D01*
X8640538Y20718994D01*
X8635780Y20715331D01*
X8596396Y20687464D01*
X8554567Y20661896D01*
X8510344Y20638640D01*
X8463781Y20617710D01*
X8414932Y20599119D01*
X8363848Y20582881D01*
X8310584Y20569008D01*
X8255192Y20557515D01*
X8197726Y20548415D01*
X8138238Y20541720D01*
X8076781Y20537446D01*
X8013409Y20535604D01*
X7948175Y20536209D01*
X7929591Y20536819D01*
X7865952Y20540508D01*
X7804617Y20546676D01*
X7745578Y20555327D01*
X7688829Y20566462D01*
X7634362Y20580086D01*
X7582168Y20596202D01*
X7532242Y20614813D01*
X7484576Y20635923D01*
X7439162Y20659535D01*
X7395993Y20685651D01*
X7355061Y20714276D01*
X7316359Y20745413D01*
X7279881Y20779065D01*
X7245618Y20815236D01*
X7213562Y20853928D01*
X7208809Y20860127D01*
X7179606Y20901262D01*
X7152537Y20944893D01*
X7127595Y20991038D01*
X7104775Y21039714D01*
X7084072Y21090938D01*
X7065479Y21144727D01*
X7048991Y21201098D01*
X7034603Y21260069D01*
X7022309Y21321655D01*
X7012102Y21385874D01*
X7003979Y21452744D01*
X7000091Y21494280D01*
X6996848Y21539928D01*
X6994501Y21588035D01*
X6993054Y21637792D01*
X6992511Y21688392D01*
X6992659Y21709041D01*
X7273681Y21709041D01*
X7273918Y21652260D01*
X7275435Y21595856D01*
X7278236Y21540333D01*
X7282325Y21486194D01*
X7287707Y21433942D01*
X7293983Y21386754D01*
X7303410Y21330979D01*
X7314633Y21278073D01*
X7327653Y21228029D01*
X7342471Y21180843D01*
X7359089Y21136510D01*
X7377509Y21095026D01*
X7397732Y21056385D01*
X7399571Y21053167D01*
X7421641Y21017648D01*
X7445536Y20984654D01*
X7471318Y20954153D01*
X7499049Y20926113D01*
X7528792Y20900501D01*
X7560606Y20877284D01*
X7594555Y20856431D01*
X7630699Y20837909D01*
X7669101Y20821685D01*
X7709823Y20807727D01*
X7752925Y20796002D01*
X7798469Y20786479D01*
X7846518Y20779125D01*
X7897132Y20773907D01*
X7935586Y20771435D01*
X7944644Y20771137D01*
X7956451Y20770972D01*
X7970458Y20770930D01*
X7986118Y20771001D01*
X8002884Y20771175D01*
X8020207Y20771442D01*
X8037539Y20771791D01*
X8054333Y20772214D01*
X8070040Y20772699D01*
X8084113Y20773238D01*
X8096005Y20773819D01*
X8105166Y20774433D01*
X8106613Y20774558D01*
X8154700Y20779962D01*
X8200067Y20787217D01*
X8242869Y20796381D01*
X8283258Y20807511D01*
X8321388Y20820665D01*
X8357411Y20835899D01*
X8391480Y20853271D01*
X8423750Y20872838D01*
X8454372Y20894656D01*
X8476606Y20912753D01*
X8505567Y20939875D01*
X8532651Y20969816D01*
X8557858Y21002576D01*
X8581187Y21038154D01*
X8602639Y21076551D01*
X8622214Y21117766D01*
X8639912Y21161800D01*
X8655732Y21208652D01*
X8669675Y21258322D01*
X8681741Y21310810D01*
X8691928Y21366116D01*
X8700239Y21424240D01*
X8702601Y21444327D01*
X8705596Y21472996D01*
X8708108Y21501167D01*
X8710163Y21529391D01*
X8711788Y21558215D01*
X8713009Y21588189D01*
X8713853Y21619863D01*
X8714346Y21653785D01*
X8714514Y21690504D01*
X8714514Y21692400D01*
X8714449Y21720569D01*
X8714238Y21745943D01*
X8713865Y21769111D01*
X8713309Y21790662D01*
X8712551Y21811185D01*
X8711573Y21831270D01*
X8710355Y21851506D01*
X8708878Y21872482D01*
X8708538Y21876974D01*
X8702795Y21938742D01*
X8695234Y21997665D01*
X8685847Y22053758D01*
X8674629Y22107037D01*
X8661573Y22157518D01*
X8646674Y22205217D01*
X8629923Y22250149D01*
X8611316Y22292331D01*
X8590845Y22331777D01*
X8568505Y22368503D01*
X8544289Y22402526D01*
X8518190Y22433861D01*
X8490202Y22462523D01*
X8460520Y22488369D01*
X8435524Y22507159D01*
X8409561Y22524132D01*
X8381671Y22539891D01*
X8366540Y22547586D01*
X8331013Y22563730D01*
X8294735Y22577525D01*
X8257179Y22589130D01*
X8217821Y22598705D01*
X8176134Y22606409D01*
X8169266Y22607471D01*
X8129086Y22612583D01*
X8086582Y22616230D01*
X8042485Y22618410D01*
X7997527Y22619118D01*
X7952439Y22618350D01*
X7907954Y22616102D01*
X7864803Y22612370D01*
X7838925Y22609294D01*
X7792264Y22601779D01*
X7747510Y22591862D01*
X7704778Y22579583D01*
X7664181Y22564986D01*
X7625835Y22548114D01*
X7589853Y22529007D01*
X7556349Y22507710D01*
X7546120Y22500402D01*
X7514998Y22475576D01*
X7485862Y22448284D01*
X7458692Y22418487D01*
X7433466Y22386147D01*
X7410164Y22351226D01*
X7388767Y22313684D01*
X7369254Y22273482D01*
X7351604Y22230583D01*
X7335797Y22184947D01*
X7321814Y22136536D01*
X7309633Y22085311D01*
X7299234Y22031234D01*
X7298932Y22029462D01*
X7291568Y21980988D01*
X7285461Y21929871D01*
X7280615Y21876615D01*
X7277034Y21821722D01*
X7274721Y21765696D01*
X7273681Y21709041D01*
X6992659Y21709041D01*
X6992875Y21739027D01*
X6994150Y21788888D01*
X6996339Y21837167D01*
X6998401Y21869354D01*
X7004610Y21939038D01*
X7012949Y22006096D01*
X7023425Y22070536D01*
X7036042Y22132369D01*
X7050804Y22191604D01*
X7067718Y22248250D01*
X7086788Y22302317D01*
X7108019Y22353815D01*
X7131415Y22402753D01*
X7156983Y22449140D01*
X7184726Y22492986D01*
X7214651Y22534301D01*
X7246761Y22573094D01*
X7281061Y22609374D01*
X7317558Y22643152D01*
X7356255Y22674436D01*
X7397158Y22703236D01*
X7440272Y22729561D01*
X7451305Y22735707D01*
X7494541Y22757577D01*
X7540287Y22777300D01*
X7588402Y22794835D01*
X7638743Y22810139D01*
X7691168Y22823172D01*
X7745534Y22833890D01*
X7801699Y22842252D01*
X7821286Y22844562D01*
X7836739Y22846235D01*
X7850611Y22847652D01*
X7863371Y22848834D01*
X7875485Y22849801D01*
X7887423Y22850574D01*
X7899653Y22851174D01*
X7912643Y22851621D01*
X7926860Y22851938D01*
X7942774Y22852143D01*
X7960852Y22852259D01*
X7981563Y22852306D01*
X7995700Y22852309D01*
X8020263Y22852265D01*
G36*
X3674737Y22282104D02*
G01*
X3674313Y20573107D01*
X3540963Y20572674D01*
X3407613Y20572240D01*
X3407613Y23991100D01*
X3675161Y23991100D01*
X3674737Y22282104D01*
X3674737Y22282104D01*
G37*
X3674737Y22282104D02*
X3674313Y20573107D01*
X3540963Y20572674D01*
X3407613Y20572240D01*
X3407613Y23991100D01*
X3675161Y23991100D01*
X3674737Y22282104D01*
D11*
X20539100Y15488100D02*
X20539100Y15288100D01*
X20539100Y15488100D02*
X19839100Y15488100D01*
X16139100Y15488100D02*
X15939100Y15488100D01*
X15939100Y15488100D02*
X15939100Y15288100D01*
X20539100Y10088100D02*
X20539100Y9888100D01*
X20539100Y9888100D02*
X19839100Y9888100D01*
X16639100Y9888100D02*
X15939100Y9888100D01*
X15939100Y9888100D02*
X15939100Y10088100D01*
D13*
X20097000Y22621000D02*
X20097000Y23096000D01*
X20097000Y23096000D02*
X20572000Y23096000D01*
X24317000Y19351000D02*
X24317000Y18876000D01*
X24317000Y18876000D02*
X23842000Y18876000D01*
X24317000Y22621000D02*
X24317000Y23096000D01*
X24317000Y23096000D02*
X23842000Y23096000D01*
X20097000Y19351000D02*
X20097000Y18876000D01*
X30056140Y17956660D02*
X30056140Y21256660D01*
X27256140Y17956660D02*
X30056140Y17956660D01*
X27551279Y3015100D02*
X27225721Y3015100D01*
X27551279Y1995100D02*
X27225721Y1995100D01*
X29964279Y17516100D02*
X29638721Y17516100D01*
X29964279Y16496100D02*
X29638721Y16496100D01*
D11*
M02*
