G04 #@! TF.GenerationSoftware,KiCad,Pcbnew,5.1.4-e60b266~84~ubuntu18.04.1*
G04 #@! TF.CreationDate,2019-11-20T19:52:41-06:00*
G04 #@! TF.ProjectId,rf,72662e6b-6963-4616-945f-706362585858,A*
G04 #@! TF.SameCoordinates,PX811c3f0PY66a06fc*
G04 #@! TF.FileFunction,Copper,L2,Inr*
G04 #@! TF.FilePolarity,Positive*
%FSLAX46Y46*%
G04 Gerber Fmt 4.6, Leading zero omitted, Abs format (unit mm)*
G04 Created by KiCad (PCBNEW 5.1.4-e60b266~84~ubuntu18.04.1) date 2019-11-20 19:52:41*
%MOMM*%
%LPD*%
G04 APERTURE LIST*
%ADD10R,1.000000X1.000000*%
%ADD11C,0.600000*%
%ADD12C,0.127000*%
G04 APERTURE END LIST*
D10*
X30734000Y0D03*
X29464000Y0D03*
X28194000Y0D03*
X26924000Y0D03*
X25654000Y0D03*
X24384000Y0D03*
X23114000Y0D03*
X21844000Y0D03*
X20574000Y0D03*
X19304000Y0D03*
X18034000Y0D03*
X16764000Y0D03*
X15494000Y0D03*
X14224000Y0D03*
X12954000Y0D03*
X11684000Y0D03*
X11684000Y25400000D03*
X12954000Y25400000D03*
X14224000Y25400000D03*
X15494000Y25400000D03*
X16764000Y25400000D03*
X18034000Y25400000D03*
X19304000Y25400000D03*
X20574000Y25400000D03*
X21844000Y25400000D03*
X23114000Y25400000D03*
X24384000Y25400000D03*
X25654000Y25400000D03*
X26924000Y25400000D03*
X28194000Y25400000D03*
X29464000Y25400000D03*
X30734000Y25400000D03*
D11*
X17157100Y11800000D03*
X17157100Y13600000D03*
X19357100Y12700000D03*
X17157100Y11100000D03*
X17157100Y14300000D03*
X19357100Y11100000D03*
X19357100Y14300000D03*
X5866160Y17048000D03*
X4646160Y18048000D03*
X2476160Y18048000D03*
X1266160Y16848000D03*
X1266160Y14648000D03*
X2446160Y13458000D03*
X4696160Y13458000D03*
X5866160Y14448000D03*
X5866160Y10952000D03*
X4646160Y11952000D03*
X2476160Y11952000D03*
X1266160Y10752000D03*
X1266160Y8552000D03*
X2446160Y7362000D03*
X4696160Y7362000D03*
X5866160Y8352000D03*
X5866160Y4856000D03*
X4646160Y5856000D03*
X2476160Y5856000D03*
X1266160Y4656000D03*
X1266160Y2456000D03*
X2446160Y1266000D03*
X4696160Y1266000D03*
X5866160Y2256000D03*
X22975000Y21780000D03*
X21475000Y20247900D03*
X22975000Y20247900D03*
X21475000Y21780000D03*
X10915051Y16470596D03*
X12980418Y15962000D03*
X8849379Y16985575D03*
X9241303Y14149782D03*
X11304475Y13634122D03*
X12980418Y13345800D03*
X10897796Y8924490D03*
X8849379Y8414414D03*
X12945983Y9435491D03*
X11279441Y11758563D03*
X9232908Y11247974D03*
X12980418Y12050400D03*
X14928981Y4886680D03*
X22888012Y2359700D03*
X24859658Y3012048D03*
X26589870Y4159510D03*
X27958130Y5722351D03*
X28854645Y7596521D03*
X29221356Y9640365D03*
X29236852Y11723698D03*
X14986200Y2232700D03*
X16951427Y2238004D03*
X18913427Y2238004D03*
X20875427Y2238004D03*
X12964200Y4884700D03*
X11002200Y4884700D03*
X9040200Y4884700D03*
X7078200Y4884700D03*
X15459981Y5700639D03*
X21795981Y4895459D03*
X13024646Y2227245D03*
X11062646Y2227245D03*
X9100646Y2227245D03*
X7138646Y2227245D03*
X7228412Y10993604D03*
X6887379Y8323300D03*
X7228411Y14406385D03*
X14942418Y15962000D03*
X14907983Y9435491D03*
X23636452Y15512000D03*
X25598452Y15512000D03*
X29236852Y13746548D03*
X27560452Y15512000D03*
X19383981Y5700639D03*
X6887379Y17076700D03*
X23636452Y10888000D03*
X25598452Y10888000D03*
X26562299Y9671858D03*
X22882869Y5087474D03*
X24720224Y6051434D03*
X26016919Y7671069D03*
X17421981Y5700639D03*
X21345981Y5700639D03*
X30000000Y4750000D03*
X14750000Y24000000D03*
X14750000Y20000000D03*
X14750000Y22000000D03*
X29000000Y24000000D03*
X29000000Y22250000D03*
X30750000Y22250000D03*
X11366500Y24447500D03*
X12001500Y24447500D03*
X26775800Y19727900D03*
X30585800Y20642300D03*
X28384500Y954760D03*
X28003500Y17526000D03*
X28384500Y1574520D03*
X19141400Y20388300D03*
X27385400Y23436300D03*
X19765400Y23334700D03*
X24743800Y18762700D03*
X30416500Y3175000D03*
X31051500Y3175000D03*
X30734000Y17907000D03*
X30734000Y18516600D03*
X24743800Y19385000D03*
X15013700Y13034200D03*
X15013700Y12323000D03*
X16129000Y18859500D03*
X16257100Y9600000D03*
X16254100Y15775000D03*
X29591000Y3556000D03*
X28956000Y3556000D03*
X19202400Y21159897D03*
X28854400Y15773400D03*
X19202400Y21886900D03*
X26212800Y17076700D03*
X21894800Y24257000D03*
X22077680Y9080500D03*
X21577300Y9669780D03*
X25302600Y22572700D03*
X17368200Y8800000D03*
X18146000Y8800000D03*
X18893200Y8440000D03*
X19671000Y8440000D03*
X20101560Y9118320D03*
X19862800Y16637000D03*
X19576060Y17526000D03*
X18798260Y17526000D03*
X18146000Y17018000D03*
X17368200Y17018000D03*
X16002000Y21780500D03*
X22479000Y16679900D03*
D12*
G36*
X10992579Y24900000D02*
G01*
X10996257Y24862656D01*
X11007150Y24826746D01*
X11022799Y24797470D01*
X10985504Y24760175D01*
X10931825Y24679839D01*
X10894850Y24590573D01*
X10876000Y24495810D01*
X10876000Y24399190D01*
X10894850Y24304427D01*
X10931825Y24215161D01*
X10985504Y24134825D01*
X11053825Y24066504D01*
X11134161Y24012825D01*
X11223427Y23975850D01*
X11318190Y23957000D01*
X11414810Y23957000D01*
X11509573Y23975850D01*
X11598839Y24012825D01*
X11679175Y24066504D01*
X11684000Y24071329D01*
X11688825Y24066504D01*
X11769161Y24012825D01*
X11858427Y23975850D01*
X11953190Y23957000D01*
X12049810Y23957000D01*
X12144573Y23975850D01*
X12233839Y24012825D01*
X12314175Y24066504D01*
X12382496Y24134825D01*
X12436175Y24215161D01*
X12473150Y24304427D01*
X12492000Y24399190D01*
X12492000Y24495810D01*
X12473150Y24590573D01*
X12436175Y24679839D01*
X12413969Y24713072D01*
X12416656Y24712257D01*
X12454000Y24708579D01*
X13454000Y24708579D01*
X13491344Y24712257D01*
X13527254Y24723150D01*
X13560348Y24740839D01*
X13589000Y24764354D01*
X13617652Y24740839D01*
X13650746Y24723150D01*
X13686656Y24712257D01*
X13724000Y24708579D01*
X14724000Y24708579D01*
X14761344Y24712257D01*
X14797254Y24723150D01*
X14830348Y24740839D01*
X14859000Y24764354D01*
X14887652Y24740839D01*
X14920746Y24723150D01*
X14956656Y24712257D01*
X14994000Y24708579D01*
X15994000Y24708579D01*
X16031344Y24712257D01*
X16067254Y24723150D01*
X16100348Y24740839D01*
X16129000Y24764354D01*
X16157652Y24740839D01*
X16190746Y24723150D01*
X16226656Y24712257D01*
X16264000Y24708579D01*
X17264000Y24708579D01*
X17301344Y24712257D01*
X17337254Y24723150D01*
X17370348Y24740839D01*
X17399000Y24764354D01*
X17427652Y24740839D01*
X17460746Y24723150D01*
X17496656Y24712257D01*
X17534000Y24708579D01*
X18534000Y24708579D01*
X18571344Y24712257D01*
X18607254Y24723150D01*
X18640348Y24740839D01*
X18669000Y24764354D01*
X18697652Y24740839D01*
X18730746Y24723150D01*
X18766656Y24712257D01*
X18804000Y24708579D01*
X19804000Y24708579D01*
X19841344Y24712257D01*
X19877254Y24723150D01*
X19910348Y24740839D01*
X19939000Y24764354D01*
X19967652Y24740839D01*
X20000746Y24723150D01*
X20036656Y24712257D01*
X20074000Y24708579D01*
X21074000Y24708579D01*
X21111344Y24712257D01*
X21147254Y24723150D01*
X21180348Y24740839D01*
X21209000Y24764354D01*
X21237652Y24740839D01*
X21270746Y24723150D01*
X21306656Y24712257D01*
X21344000Y24708579D01*
X21703271Y24708579D01*
X21662461Y24691675D01*
X21582125Y24637996D01*
X21513804Y24569675D01*
X21460125Y24489339D01*
X21423150Y24400073D01*
X21404300Y24305310D01*
X21404300Y24208690D01*
X21423150Y24113927D01*
X21460125Y24024661D01*
X21513804Y23944325D01*
X21582125Y23876004D01*
X21662461Y23822325D01*
X21751727Y23785350D01*
X21846490Y23766500D01*
X21943110Y23766500D01*
X22037873Y23785350D01*
X22127139Y23822325D01*
X22207475Y23876004D01*
X22275796Y23944325D01*
X22329475Y24024661D01*
X22366450Y24113927D01*
X22385300Y24208690D01*
X22385300Y24305310D01*
X22366450Y24400073D01*
X22329475Y24489339D01*
X22275796Y24569675D01*
X22207475Y24637996D01*
X22127139Y24691675D01*
X22086329Y24708579D01*
X22344000Y24708579D01*
X22381344Y24712257D01*
X22417254Y24723150D01*
X22450348Y24740839D01*
X22479000Y24764354D01*
X22507652Y24740839D01*
X22540746Y24723150D01*
X22576656Y24712257D01*
X22614000Y24708579D01*
X23614000Y24708579D01*
X23651344Y24712257D01*
X23687254Y24723150D01*
X23720348Y24740839D01*
X23749000Y24764354D01*
X23777652Y24740839D01*
X23810746Y24723150D01*
X23846656Y24712257D01*
X23884000Y24708579D01*
X24884000Y24708579D01*
X24921344Y24712257D01*
X24957254Y24723150D01*
X24990348Y24740839D01*
X25019000Y24764354D01*
X25047652Y24740839D01*
X25080746Y24723150D01*
X25116656Y24712257D01*
X25154000Y24708579D01*
X26154000Y24708579D01*
X26191344Y24712257D01*
X26227254Y24723150D01*
X26260348Y24740839D01*
X26289000Y24764354D01*
X26317652Y24740839D01*
X26350746Y24723150D01*
X26386656Y24712257D01*
X26424000Y24708579D01*
X27424000Y24708579D01*
X27461344Y24712257D01*
X27497254Y24723150D01*
X27530348Y24740839D01*
X27559000Y24764354D01*
X27587652Y24740839D01*
X27620746Y24723150D01*
X27656656Y24712257D01*
X27694000Y24708579D01*
X28694000Y24708579D01*
X28731344Y24712257D01*
X28767254Y24723150D01*
X28800348Y24740839D01*
X28829000Y24764354D01*
X28857652Y24740839D01*
X28890746Y24723150D01*
X28926656Y24712257D01*
X28964000Y24708579D01*
X29964000Y24708579D01*
X30001344Y24712257D01*
X30037254Y24723150D01*
X30070348Y24740839D01*
X30099000Y24764354D01*
X30127652Y24740839D01*
X30160746Y24723150D01*
X30196656Y24712257D01*
X30234000Y24708579D01*
X31234000Y24708579D01*
X31271344Y24712257D01*
X31307254Y24723150D01*
X31340348Y24740839D01*
X31369355Y24764645D01*
X31393161Y24793652D01*
X31410850Y24826746D01*
X31421743Y24862656D01*
X31425421Y24900000D01*
X31425421Y25184500D01*
X31534501Y25184500D01*
X31534500Y3261013D01*
X31523150Y3318073D01*
X31486175Y3407339D01*
X31432496Y3487675D01*
X31364175Y3555996D01*
X31283839Y3609675D01*
X31194573Y3646650D01*
X31099810Y3665500D01*
X31003190Y3665500D01*
X30908427Y3646650D01*
X30819161Y3609675D01*
X30738825Y3555996D01*
X30734000Y3551171D01*
X30729175Y3555996D01*
X30648839Y3609675D01*
X30559573Y3646650D01*
X30464810Y3665500D01*
X30368190Y3665500D01*
X30273427Y3646650D01*
X30184161Y3609675D01*
X30103825Y3555996D01*
X30081500Y3533671D01*
X30081500Y3604310D01*
X30062650Y3699073D01*
X30025675Y3788339D01*
X29971996Y3868675D01*
X29903675Y3936996D01*
X29823339Y3990675D01*
X29734073Y4027650D01*
X29639310Y4046500D01*
X29542690Y4046500D01*
X29447927Y4027650D01*
X29358661Y3990675D01*
X29278325Y3936996D01*
X29273500Y3932171D01*
X29268675Y3936996D01*
X29188339Y3990675D01*
X29099073Y4027650D01*
X29004310Y4046500D01*
X28907690Y4046500D01*
X28812927Y4027650D01*
X28723661Y3990675D01*
X28643325Y3936996D01*
X28575004Y3868675D01*
X28521325Y3788339D01*
X28484350Y3699073D01*
X28465500Y3604310D01*
X28465500Y3507690D01*
X28484350Y3412927D01*
X28521325Y3323661D01*
X28575004Y3243325D01*
X28643325Y3175004D01*
X28723661Y3121325D01*
X28812927Y3084350D01*
X28907690Y3065500D01*
X29004310Y3065500D01*
X29099073Y3084350D01*
X29188339Y3121325D01*
X29268675Y3175004D01*
X29273500Y3179829D01*
X29278325Y3175004D01*
X29358661Y3121325D01*
X29447927Y3084350D01*
X29542690Y3065500D01*
X29639310Y3065500D01*
X29734073Y3084350D01*
X29823339Y3121325D01*
X29903675Y3175004D01*
X29926000Y3197329D01*
X29926000Y3126690D01*
X29944850Y3031927D01*
X29981825Y2942661D01*
X30035504Y2862325D01*
X30103825Y2794004D01*
X30184161Y2740325D01*
X30273427Y2703350D01*
X30368190Y2684500D01*
X30464810Y2684500D01*
X30559573Y2703350D01*
X30648839Y2740325D01*
X30729175Y2794004D01*
X30734000Y2798829D01*
X30738825Y2794004D01*
X30819161Y2740325D01*
X30908427Y2703350D01*
X31003190Y2684500D01*
X31099810Y2684500D01*
X31194573Y2703350D01*
X31283839Y2740325D01*
X31364175Y2794004D01*
X31432496Y2862325D01*
X31486175Y2942661D01*
X31523150Y3031927D01*
X31534500Y3088987D01*
X31534500Y215500D01*
X31425421Y215500D01*
X31425421Y500000D01*
X31421743Y537344D01*
X31410850Y573254D01*
X31393161Y606348D01*
X31369355Y635355D01*
X31340348Y659161D01*
X31307254Y676850D01*
X31271344Y687743D01*
X31234000Y691421D01*
X30234000Y691421D01*
X30196656Y687743D01*
X30160746Y676850D01*
X30127652Y659161D01*
X30099000Y635646D01*
X30070348Y659161D01*
X30037254Y676850D01*
X30001344Y687743D01*
X29964000Y691421D01*
X28964000Y691421D01*
X28926656Y687743D01*
X28890746Y676850D01*
X28857652Y659161D01*
X28829000Y635646D01*
X28800348Y659161D01*
X28783075Y668394D01*
X28819175Y722421D01*
X28856150Y811687D01*
X28875000Y906450D01*
X28875000Y1003070D01*
X28856150Y1097833D01*
X28819175Y1187099D01*
X28767364Y1264640D01*
X28819175Y1342181D01*
X28856150Y1431447D01*
X28875000Y1526210D01*
X28875000Y1622830D01*
X28856150Y1717593D01*
X28819175Y1806859D01*
X28765496Y1887195D01*
X28697175Y1955516D01*
X28616839Y2009195D01*
X28527573Y2046170D01*
X28432810Y2065020D01*
X28336190Y2065020D01*
X28241427Y2046170D01*
X28152161Y2009195D01*
X28071825Y1955516D01*
X28003504Y1887195D01*
X27949825Y1806859D01*
X27912850Y1717593D01*
X27894000Y1622830D01*
X27894000Y1526210D01*
X27912850Y1431447D01*
X27949825Y1342181D01*
X28001636Y1264640D01*
X27949825Y1187099D01*
X27912850Y1097833D01*
X27894000Y1003070D01*
X27894000Y906450D01*
X27912850Y811687D01*
X27949825Y722421D01*
X27970539Y691421D01*
X27694000Y691421D01*
X27656656Y687743D01*
X27620746Y676850D01*
X27587652Y659161D01*
X27559000Y635646D01*
X27530348Y659161D01*
X27497254Y676850D01*
X27461344Y687743D01*
X27424000Y691421D01*
X26424000Y691421D01*
X26386656Y687743D01*
X26350746Y676850D01*
X26317652Y659161D01*
X26289000Y635646D01*
X26260348Y659161D01*
X26227254Y676850D01*
X26191344Y687743D01*
X26154000Y691421D01*
X25154000Y691421D01*
X25116656Y687743D01*
X25080746Y676850D01*
X25047652Y659161D01*
X25019000Y635646D01*
X24990348Y659161D01*
X24957254Y676850D01*
X24921344Y687743D01*
X24884000Y691421D01*
X23884000Y691421D01*
X23846656Y687743D01*
X23810746Y676850D01*
X23777652Y659161D01*
X23749000Y635646D01*
X23720348Y659161D01*
X23687254Y676850D01*
X23651344Y687743D01*
X23614000Y691421D01*
X22614000Y691421D01*
X22576656Y687743D01*
X22540746Y676850D01*
X22507652Y659161D01*
X22479000Y635646D01*
X22450348Y659161D01*
X22417254Y676850D01*
X22381344Y687743D01*
X22344000Y691421D01*
X21344000Y691421D01*
X21306656Y687743D01*
X21270746Y676850D01*
X21237652Y659161D01*
X21209000Y635646D01*
X21180348Y659161D01*
X21147254Y676850D01*
X21111344Y687743D01*
X21074000Y691421D01*
X20074000Y691421D01*
X20036656Y687743D01*
X20000746Y676850D01*
X19967652Y659161D01*
X19939000Y635646D01*
X19910348Y659161D01*
X19877254Y676850D01*
X19841344Y687743D01*
X19804000Y691421D01*
X18804000Y691421D01*
X18766656Y687743D01*
X18730746Y676850D01*
X18697652Y659161D01*
X18669000Y635646D01*
X18640348Y659161D01*
X18607254Y676850D01*
X18571344Y687743D01*
X18534000Y691421D01*
X17534000Y691421D01*
X17496656Y687743D01*
X17460746Y676850D01*
X17427652Y659161D01*
X17399000Y635646D01*
X17370348Y659161D01*
X17337254Y676850D01*
X17301344Y687743D01*
X17264000Y691421D01*
X16264000Y691421D01*
X16226656Y687743D01*
X16190746Y676850D01*
X16157652Y659161D01*
X16129000Y635646D01*
X16100348Y659161D01*
X16067254Y676850D01*
X16031344Y687743D01*
X15994000Y691421D01*
X14994000Y691421D01*
X14956656Y687743D01*
X14920746Y676850D01*
X14887652Y659161D01*
X14859000Y635646D01*
X14830348Y659161D01*
X14797254Y676850D01*
X14761344Y687743D01*
X14724000Y691421D01*
X13724000Y691421D01*
X13686656Y687743D01*
X13650746Y676850D01*
X13617652Y659161D01*
X13589000Y635646D01*
X13560348Y659161D01*
X13527254Y676850D01*
X13491344Y687743D01*
X13454000Y691421D01*
X12454000Y691421D01*
X12416656Y687743D01*
X12380746Y676850D01*
X12347652Y659161D01*
X12319000Y635646D01*
X12290348Y659161D01*
X12257254Y676850D01*
X12221344Y687743D01*
X12184000Y691421D01*
X11184000Y691421D01*
X11146656Y687743D01*
X11110746Y676850D01*
X11077652Y659161D01*
X11048645Y635355D01*
X11024839Y606348D01*
X11007150Y573254D01*
X10996257Y537344D01*
X10992579Y500000D01*
X10992579Y215500D01*
X215500Y215500D01*
X215500Y8848310D01*
X16877700Y8848310D01*
X16877700Y8751690D01*
X16896550Y8656927D01*
X16933525Y8567661D01*
X16987204Y8487325D01*
X17055525Y8419004D01*
X17135861Y8365325D01*
X17225127Y8328350D01*
X17319890Y8309500D01*
X17416510Y8309500D01*
X17511273Y8328350D01*
X17600539Y8365325D01*
X17680875Y8419004D01*
X17749196Y8487325D01*
X17757100Y8499154D01*
X17765004Y8487325D01*
X17833325Y8419004D01*
X17913661Y8365325D01*
X18002927Y8328350D01*
X18097690Y8309500D01*
X18194310Y8309500D01*
X18289073Y8328350D01*
X18378339Y8365325D01*
X18404471Y8382786D01*
X18421550Y8296927D01*
X18458525Y8207661D01*
X18512204Y8127325D01*
X18580525Y8059004D01*
X18660861Y8005325D01*
X18750127Y7968350D01*
X18844890Y7949500D01*
X18941510Y7949500D01*
X19036273Y7968350D01*
X19125539Y8005325D01*
X19205875Y8059004D01*
X19274196Y8127325D01*
X19282100Y8139154D01*
X19290004Y8127325D01*
X19358325Y8059004D01*
X19438661Y8005325D01*
X19527927Y7968350D01*
X19622690Y7949500D01*
X19719310Y7949500D01*
X19814073Y7968350D01*
X19903339Y8005325D01*
X19983675Y8059004D01*
X20051996Y8127325D01*
X20105675Y8207661D01*
X20142650Y8296927D01*
X20161500Y8391690D01*
X20161500Y8488310D01*
X20142650Y8583073D01*
X20124115Y8627820D01*
X20149870Y8627820D01*
X20244633Y8646670D01*
X20333899Y8683645D01*
X20414235Y8737324D01*
X20482556Y8805645D01*
X20536235Y8885981D01*
X20573210Y8975247D01*
X20592060Y9070010D01*
X20592060Y9166630D01*
X20573210Y9261393D01*
X20536235Y9350659D01*
X20482556Y9430995D01*
X20414235Y9499316D01*
X20333899Y9552995D01*
X20244633Y9589970D01*
X20149870Y9608820D01*
X20053250Y9608820D01*
X19958487Y9589970D01*
X19869221Y9552995D01*
X19788885Y9499316D01*
X19720564Y9430995D01*
X19666885Y9350659D01*
X19629910Y9261393D01*
X19611060Y9166630D01*
X19611060Y9070010D01*
X19629910Y8975247D01*
X19648445Y8930500D01*
X19622690Y8930500D01*
X19527927Y8911650D01*
X19438661Y8874675D01*
X19358325Y8820996D01*
X19290004Y8752675D01*
X19282100Y8740846D01*
X19274196Y8752675D01*
X19205875Y8820996D01*
X19125539Y8874675D01*
X19036273Y8911650D01*
X18941510Y8930500D01*
X18844890Y8930500D01*
X18750127Y8911650D01*
X18660861Y8874675D01*
X18634729Y8857214D01*
X18617650Y8943073D01*
X18580675Y9032339D01*
X18526996Y9112675D01*
X18458675Y9180996D01*
X18378339Y9234675D01*
X18289073Y9271650D01*
X18194310Y9290500D01*
X18097690Y9290500D01*
X18002927Y9271650D01*
X17913661Y9234675D01*
X17833325Y9180996D01*
X17765004Y9112675D01*
X17757100Y9100846D01*
X17749196Y9112675D01*
X17680875Y9180996D01*
X17600539Y9234675D01*
X17511273Y9271650D01*
X17416510Y9290500D01*
X17319890Y9290500D01*
X17225127Y9271650D01*
X17135861Y9234675D01*
X17055525Y9180996D01*
X16987204Y9112675D01*
X16933525Y9032339D01*
X16896550Y8943073D01*
X16877700Y8848310D01*
X215500Y8848310D01*
X215500Y9648310D01*
X15766600Y9648310D01*
X15766600Y9551690D01*
X15785450Y9456927D01*
X15822425Y9367661D01*
X15876104Y9287325D01*
X15944425Y9219004D01*
X16024761Y9165325D01*
X16114027Y9128350D01*
X16208790Y9109500D01*
X16305410Y9109500D01*
X16400173Y9128350D01*
X16489439Y9165325D01*
X16569775Y9219004D01*
X16638096Y9287325D01*
X16691775Y9367661D01*
X16728750Y9456927D01*
X16747600Y9551690D01*
X16747600Y9648310D01*
X16733720Y9718090D01*
X21086800Y9718090D01*
X21086800Y9621470D01*
X21105650Y9526707D01*
X21142625Y9437441D01*
X21196304Y9357105D01*
X21264625Y9288784D01*
X21344961Y9235105D01*
X21434227Y9198130D01*
X21528990Y9179280D01*
X21597219Y9179280D01*
X21587180Y9128810D01*
X21587180Y9032190D01*
X21606030Y8937427D01*
X21643005Y8848161D01*
X21696684Y8767825D01*
X21765005Y8699504D01*
X21845341Y8645825D01*
X21934607Y8608850D01*
X22029370Y8590000D01*
X22125990Y8590000D01*
X22220753Y8608850D01*
X22310019Y8645825D01*
X22390355Y8699504D01*
X22458676Y8767825D01*
X22512355Y8848161D01*
X22549330Y8937427D01*
X22568180Y9032190D01*
X22568180Y9128810D01*
X22549330Y9223573D01*
X22512355Y9312839D01*
X22458676Y9393175D01*
X22390355Y9461496D01*
X22310019Y9515175D01*
X22220753Y9552150D01*
X22125990Y9571000D01*
X22057761Y9571000D01*
X22067800Y9621470D01*
X22067800Y9718090D01*
X22048950Y9812853D01*
X22011975Y9902119D01*
X21958296Y9982455D01*
X21889975Y10050776D01*
X21809639Y10104455D01*
X21720373Y10141430D01*
X21625610Y10160280D01*
X21528990Y10160280D01*
X21434227Y10141430D01*
X21344961Y10104455D01*
X21264625Y10050776D01*
X21196304Y9982455D01*
X21142625Y9902119D01*
X21105650Y9812853D01*
X21086800Y9718090D01*
X16733720Y9718090D01*
X16728750Y9743073D01*
X16691775Y9832339D01*
X16638096Y9912675D01*
X16569775Y9980996D01*
X16489439Y10034675D01*
X16400173Y10071650D01*
X16305410Y10090500D01*
X16208790Y10090500D01*
X16114027Y10071650D01*
X16024761Y10034675D01*
X15944425Y9980996D01*
X15876104Y9912675D01*
X15822425Y9832339D01*
X15785450Y9743073D01*
X15766600Y9648310D01*
X215500Y9648310D01*
X215500Y13082510D01*
X14523200Y13082510D01*
X14523200Y12985890D01*
X14542050Y12891127D01*
X14579025Y12801861D01*
X14632704Y12721525D01*
X14675629Y12678600D01*
X14632704Y12635675D01*
X14579025Y12555339D01*
X14542050Y12466073D01*
X14523200Y12371310D01*
X14523200Y12274690D01*
X14542050Y12179927D01*
X14579025Y12090661D01*
X14632704Y12010325D01*
X14701025Y11942004D01*
X14781361Y11888325D01*
X14870627Y11851350D01*
X14965390Y11832500D01*
X15062010Y11832500D01*
X15156773Y11851350D01*
X15246039Y11888325D01*
X15326375Y11942004D01*
X15394696Y12010325D01*
X15448375Y12090661D01*
X15485350Y12179927D01*
X15504200Y12274690D01*
X15504200Y12371310D01*
X15485350Y12466073D01*
X15448375Y12555339D01*
X15394696Y12635675D01*
X15351771Y12678600D01*
X15394696Y12721525D01*
X15448375Y12801861D01*
X15485350Y12891127D01*
X15504200Y12985890D01*
X15504200Y13082510D01*
X15485350Y13177273D01*
X15448375Y13266539D01*
X15394696Y13346875D01*
X15326375Y13415196D01*
X15246039Y13468875D01*
X15156773Y13505850D01*
X15062010Y13524700D01*
X14965390Y13524700D01*
X14870627Y13505850D01*
X14781361Y13468875D01*
X14701025Y13415196D01*
X14632704Y13346875D01*
X14579025Y13266539D01*
X14542050Y13177273D01*
X14523200Y13082510D01*
X215500Y13082510D01*
X215500Y15823310D01*
X15763600Y15823310D01*
X15763600Y15726690D01*
X15782450Y15631927D01*
X15819425Y15542661D01*
X15873104Y15462325D01*
X15941425Y15394004D01*
X16021761Y15340325D01*
X16111027Y15303350D01*
X16205790Y15284500D01*
X16302410Y15284500D01*
X16397173Y15303350D01*
X16486439Y15340325D01*
X16566775Y15394004D01*
X16635096Y15462325D01*
X16688775Y15542661D01*
X16725750Y15631927D01*
X16744600Y15726690D01*
X16744600Y15821710D01*
X28363900Y15821710D01*
X28363900Y15725090D01*
X28382750Y15630327D01*
X28419725Y15541061D01*
X28473404Y15460725D01*
X28541725Y15392404D01*
X28622061Y15338725D01*
X28711327Y15301750D01*
X28806090Y15282900D01*
X28902710Y15282900D01*
X28997473Y15301750D01*
X29086739Y15338725D01*
X29167075Y15392404D01*
X29235396Y15460725D01*
X29289075Y15541061D01*
X29326050Y15630327D01*
X29344900Y15725090D01*
X29344900Y15821710D01*
X29326050Y15916473D01*
X29289075Y16005739D01*
X29235396Y16086075D01*
X29167075Y16154396D01*
X29086739Y16208075D01*
X28997473Y16245050D01*
X28902710Y16263900D01*
X28806090Y16263900D01*
X28711327Y16245050D01*
X28622061Y16208075D01*
X28541725Y16154396D01*
X28473404Y16086075D01*
X28419725Y16005739D01*
X28382750Y15916473D01*
X28363900Y15821710D01*
X16744600Y15821710D01*
X16744600Y15823310D01*
X16725750Y15918073D01*
X16688775Y16007339D01*
X16635096Y16087675D01*
X16566775Y16155996D01*
X16486439Y16209675D01*
X16397173Y16246650D01*
X16302410Y16265500D01*
X16205790Y16265500D01*
X16111027Y16246650D01*
X16021761Y16209675D01*
X15941425Y16155996D01*
X15873104Y16087675D01*
X15819425Y16007339D01*
X15782450Y15918073D01*
X15763600Y15823310D01*
X215500Y15823310D01*
X215500Y17066310D01*
X16877700Y17066310D01*
X16877700Y16969690D01*
X16896550Y16874927D01*
X16933525Y16785661D01*
X16987204Y16705325D01*
X17055525Y16637004D01*
X17135861Y16583325D01*
X17225127Y16546350D01*
X17319890Y16527500D01*
X17416510Y16527500D01*
X17511273Y16546350D01*
X17600539Y16583325D01*
X17680875Y16637004D01*
X17749196Y16705325D01*
X17757100Y16717154D01*
X17765004Y16705325D01*
X17833325Y16637004D01*
X17913661Y16583325D01*
X18002927Y16546350D01*
X18097690Y16527500D01*
X18194310Y16527500D01*
X18289073Y16546350D01*
X18378339Y16583325D01*
X18458675Y16637004D01*
X18526996Y16705325D01*
X18580675Y16785661D01*
X18617650Y16874927D01*
X18636500Y16969690D01*
X18636500Y17062090D01*
X18655187Y17054350D01*
X18749950Y17035500D01*
X18846570Y17035500D01*
X18941333Y17054350D01*
X19030599Y17091325D01*
X19110935Y17145004D01*
X19179256Y17213325D01*
X19187160Y17225154D01*
X19195064Y17213325D01*
X19263385Y17145004D01*
X19343721Y17091325D01*
X19432987Y17054350D01*
X19527750Y17035500D01*
X19576321Y17035500D01*
X19550125Y17017996D01*
X19481804Y16949675D01*
X19428125Y16869339D01*
X19391150Y16780073D01*
X19372300Y16685310D01*
X19372300Y16588690D01*
X19391150Y16493927D01*
X19428125Y16404661D01*
X19481804Y16324325D01*
X19550125Y16256004D01*
X19630461Y16202325D01*
X19719727Y16165350D01*
X19814490Y16146500D01*
X19911110Y16146500D01*
X20005873Y16165350D01*
X20095139Y16202325D01*
X20175475Y16256004D01*
X20243796Y16324325D01*
X20297475Y16404661D01*
X20334450Y16493927D01*
X20353300Y16588690D01*
X20353300Y16685310D01*
X20344767Y16728210D01*
X21988500Y16728210D01*
X21988500Y16631590D01*
X22007350Y16536827D01*
X22044325Y16447561D01*
X22098004Y16367225D01*
X22166325Y16298904D01*
X22246661Y16245225D01*
X22335927Y16208250D01*
X22430690Y16189400D01*
X22527310Y16189400D01*
X22622073Y16208250D01*
X22711339Y16245225D01*
X22791675Y16298904D01*
X22859996Y16367225D01*
X22913675Y16447561D01*
X22950650Y16536827D01*
X22969500Y16631590D01*
X22969500Y16728210D01*
X22950650Y16822973D01*
X22913675Y16912239D01*
X22859996Y16992575D01*
X22791675Y17060896D01*
X22711339Y17114575D01*
X22686147Y17125010D01*
X25722300Y17125010D01*
X25722300Y17028390D01*
X25741150Y16933627D01*
X25778125Y16844361D01*
X25831804Y16764025D01*
X25900125Y16695704D01*
X25980461Y16642025D01*
X26069727Y16605050D01*
X26164490Y16586200D01*
X26261110Y16586200D01*
X26355873Y16605050D01*
X26445139Y16642025D01*
X26525475Y16695704D01*
X26593796Y16764025D01*
X26647475Y16844361D01*
X26684450Y16933627D01*
X26703300Y17028390D01*
X26703300Y17125010D01*
X26684450Y17219773D01*
X26647475Y17309039D01*
X26593796Y17389375D01*
X26525475Y17457696D01*
X26445139Y17511375D01*
X26355873Y17548350D01*
X26261110Y17567200D01*
X26164490Y17567200D01*
X26069727Y17548350D01*
X25980461Y17511375D01*
X25900125Y17457696D01*
X25831804Y17389375D01*
X25778125Y17309039D01*
X25741150Y17219773D01*
X25722300Y17125010D01*
X22686147Y17125010D01*
X22622073Y17151550D01*
X22527310Y17170400D01*
X22430690Y17170400D01*
X22335927Y17151550D01*
X22246661Y17114575D01*
X22166325Y17060896D01*
X22098004Y16992575D01*
X22044325Y16912239D01*
X22007350Y16822973D01*
X21988500Y16728210D01*
X20344767Y16728210D01*
X20334450Y16780073D01*
X20297475Y16869339D01*
X20243796Y16949675D01*
X20175475Y17017996D01*
X20095139Y17071675D01*
X20005873Y17108650D01*
X19911110Y17127500D01*
X19862539Y17127500D01*
X19888735Y17145004D01*
X19957056Y17213325D01*
X20010735Y17293661D01*
X20047710Y17382927D01*
X20066560Y17477690D01*
X20066560Y17574310D01*
X27513000Y17574310D01*
X27513000Y17477690D01*
X27531850Y17382927D01*
X27568825Y17293661D01*
X27622504Y17213325D01*
X27690825Y17145004D01*
X27771161Y17091325D01*
X27860427Y17054350D01*
X27955190Y17035500D01*
X28051810Y17035500D01*
X28146573Y17054350D01*
X28235839Y17091325D01*
X28316175Y17145004D01*
X28384496Y17213325D01*
X28438175Y17293661D01*
X28475150Y17382927D01*
X28494000Y17477690D01*
X28494000Y17574310D01*
X28475150Y17669073D01*
X28438175Y17758339D01*
X28384496Y17838675D01*
X28316175Y17906996D01*
X28235839Y17960675D01*
X28146573Y17997650D01*
X28051810Y18016500D01*
X27955190Y18016500D01*
X27860427Y17997650D01*
X27771161Y17960675D01*
X27690825Y17906996D01*
X27622504Y17838675D01*
X27568825Y17758339D01*
X27531850Y17669073D01*
X27513000Y17574310D01*
X20066560Y17574310D01*
X20047710Y17669073D01*
X20010735Y17758339D01*
X19957056Y17838675D01*
X19888735Y17906996D01*
X19808399Y17960675D01*
X19719133Y17997650D01*
X19624370Y18016500D01*
X19527750Y18016500D01*
X19432987Y17997650D01*
X19343721Y17960675D01*
X19263385Y17906996D01*
X19195064Y17838675D01*
X19187160Y17826846D01*
X19179256Y17838675D01*
X19110935Y17906996D01*
X19030599Y17960675D01*
X18941333Y17997650D01*
X18846570Y18016500D01*
X18749950Y18016500D01*
X18655187Y17997650D01*
X18565921Y17960675D01*
X18485585Y17906996D01*
X18417264Y17838675D01*
X18363585Y17758339D01*
X18326610Y17669073D01*
X18307760Y17574310D01*
X18307760Y17481910D01*
X18289073Y17489650D01*
X18194310Y17508500D01*
X18097690Y17508500D01*
X18002927Y17489650D01*
X17913661Y17452675D01*
X17833325Y17398996D01*
X17765004Y17330675D01*
X17757100Y17318846D01*
X17749196Y17330675D01*
X17680875Y17398996D01*
X17600539Y17452675D01*
X17511273Y17489650D01*
X17416510Y17508500D01*
X17319890Y17508500D01*
X17225127Y17489650D01*
X17135861Y17452675D01*
X17055525Y17398996D01*
X16987204Y17330675D01*
X16933525Y17250339D01*
X16896550Y17161073D01*
X16877700Y17066310D01*
X215500Y17066310D01*
X215500Y18907810D01*
X15638500Y18907810D01*
X15638500Y18811190D01*
X15657350Y18716427D01*
X15694325Y18627161D01*
X15748004Y18546825D01*
X15816325Y18478504D01*
X15896661Y18424825D01*
X15985927Y18387850D01*
X16080690Y18369000D01*
X16177310Y18369000D01*
X16272073Y18387850D01*
X16361339Y18424825D01*
X16441675Y18478504D01*
X16509996Y18546825D01*
X16563675Y18627161D01*
X16600650Y18716427D01*
X16619500Y18811190D01*
X16619500Y18907810D01*
X16600650Y19002573D01*
X16563675Y19091839D01*
X16509996Y19172175D01*
X16441675Y19240496D01*
X16361339Y19294175D01*
X16272073Y19331150D01*
X16177310Y19350000D01*
X16080690Y19350000D01*
X15985927Y19331150D01*
X15896661Y19294175D01*
X15816325Y19240496D01*
X15748004Y19172175D01*
X15694325Y19091839D01*
X15657350Y19002573D01*
X15638500Y18907810D01*
X215500Y18907810D01*
X215500Y19433310D01*
X24253300Y19433310D01*
X24253300Y19336690D01*
X24272150Y19241927D01*
X24309125Y19152661D01*
X24361785Y19073850D01*
X24309125Y18995039D01*
X24272150Y18905773D01*
X24253300Y18811010D01*
X24253300Y18714390D01*
X24272150Y18619627D01*
X24309125Y18530361D01*
X24362804Y18450025D01*
X24431125Y18381704D01*
X24511461Y18328025D01*
X24600727Y18291050D01*
X24695490Y18272200D01*
X24792110Y18272200D01*
X24886873Y18291050D01*
X24976139Y18328025D01*
X25056475Y18381704D01*
X25124796Y18450025D01*
X25178475Y18530361D01*
X25192785Y18564910D01*
X30243500Y18564910D01*
X30243500Y18468290D01*
X30262350Y18373527D01*
X30299325Y18284261D01*
X30347742Y18211800D01*
X30299325Y18139339D01*
X30262350Y18050073D01*
X30243500Y17955310D01*
X30243500Y17858690D01*
X30262350Y17763927D01*
X30299325Y17674661D01*
X30353004Y17594325D01*
X30421325Y17526004D01*
X30501661Y17472325D01*
X30590927Y17435350D01*
X30685690Y17416500D01*
X30782310Y17416500D01*
X30877073Y17435350D01*
X30966339Y17472325D01*
X31046675Y17526004D01*
X31114996Y17594325D01*
X31168675Y17674661D01*
X31205650Y17763927D01*
X31224500Y17858690D01*
X31224500Y17955310D01*
X31205650Y18050073D01*
X31168675Y18139339D01*
X31120258Y18211800D01*
X31168675Y18284261D01*
X31205650Y18373527D01*
X31224500Y18468290D01*
X31224500Y18564910D01*
X31205650Y18659673D01*
X31168675Y18748939D01*
X31114996Y18829275D01*
X31046675Y18897596D01*
X30966339Y18951275D01*
X30877073Y18988250D01*
X30782310Y19007100D01*
X30685690Y19007100D01*
X30590927Y18988250D01*
X30501661Y18951275D01*
X30421325Y18897596D01*
X30353004Y18829275D01*
X30299325Y18748939D01*
X30262350Y18659673D01*
X30243500Y18564910D01*
X25192785Y18564910D01*
X25215450Y18619627D01*
X25234300Y18714390D01*
X25234300Y18811010D01*
X25215450Y18905773D01*
X25178475Y18995039D01*
X25125815Y19073850D01*
X25178475Y19152661D01*
X25215450Y19241927D01*
X25234300Y19336690D01*
X25234300Y19433310D01*
X25215450Y19528073D01*
X25178475Y19617339D01*
X25124796Y19697675D01*
X25056475Y19765996D01*
X25041189Y19776210D01*
X26285300Y19776210D01*
X26285300Y19679590D01*
X26304150Y19584827D01*
X26341125Y19495561D01*
X26394804Y19415225D01*
X26463125Y19346904D01*
X26543461Y19293225D01*
X26632727Y19256250D01*
X26727490Y19237400D01*
X26824110Y19237400D01*
X26918873Y19256250D01*
X27008139Y19293225D01*
X27088475Y19346904D01*
X27156796Y19415225D01*
X27210475Y19495561D01*
X27247450Y19584827D01*
X27266300Y19679590D01*
X27266300Y19776210D01*
X27247450Y19870973D01*
X27210475Y19960239D01*
X27156796Y20040575D01*
X27088475Y20108896D01*
X27008139Y20162575D01*
X26918873Y20199550D01*
X26824110Y20218400D01*
X26727490Y20218400D01*
X26632727Y20199550D01*
X26543461Y20162575D01*
X26463125Y20108896D01*
X26394804Y20040575D01*
X26341125Y19960239D01*
X26304150Y19870973D01*
X26285300Y19776210D01*
X25041189Y19776210D01*
X24976139Y19819675D01*
X24886873Y19856650D01*
X24792110Y19875500D01*
X24695490Y19875500D01*
X24600727Y19856650D01*
X24511461Y19819675D01*
X24431125Y19765996D01*
X24362804Y19697675D01*
X24309125Y19617339D01*
X24272150Y19528073D01*
X24253300Y19433310D01*
X215500Y19433310D01*
X215500Y20436610D01*
X18650900Y20436610D01*
X18650900Y20339990D01*
X18669750Y20245227D01*
X18706725Y20155961D01*
X18760404Y20075625D01*
X18828725Y20007304D01*
X18909061Y19953625D01*
X18998327Y19916650D01*
X19093090Y19897800D01*
X19189710Y19897800D01*
X19284473Y19916650D01*
X19373739Y19953625D01*
X19454075Y20007304D01*
X19522396Y20075625D01*
X19576075Y20155961D01*
X19613050Y20245227D01*
X19631900Y20339990D01*
X19631900Y20436610D01*
X19613050Y20531373D01*
X19576075Y20620639D01*
X19529322Y20690610D01*
X30095300Y20690610D01*
X30095300Y20593990D01*
X30114150Y20499227D01*
X30151125Y20409961D01*
X30204804Y20329625D01*
X30273125Y20261304D01*
X30353461Y20207625D01*
X30442727Y20170650D01*
X30537490Y20151800D01*
X30634110Y20151800D01*
X30728873Y20170650D01*
X30818139Y20207625D01*
X30898475Y20261304D01*
X30966796Y20329625D01*
X31020475Y20409961D01*
X31057450Y20499227D01*
X31076300Y20593990D01*
X31076300Y20690610D01*
X31057450Y20785373D01*
X31020475Y20874639D01*
X30966796Y20954975D01*
X30898475Y21023296D01*
X30818139Y21076975D01*
X30728873Y21113950D01*
X30634110Y21132800D01*
X30537490Y21132800D01*
X30442727Y21113950D01*
X30353461Y21076975D01*
X30273125Y21023296D01*
X30204804Y20954975D01*
X30151125Y20874639D01*
X30114150Y20785373D01*
X30095300Y20690610D01*
X19529322Y20690610D01*
X19522396Y20700975D01*
X19472750Y20750621D01*
X19515075Y20778901D01*
X19583396Y20847222D01*
X19637075Y20927558D01*
X19674050Y21016824D01*
X19692900Y21111587D01*
X19692900Y21208207D01*
X19674050Y21302970D01*
X19637075Y21392236D01*
X19583396Y21472572D01*
X19532570Y21523398D01*
X19583396Y21574225D01*
X19637075Y21654561D01*
X19674050Y21743827D01*
X19692900Y21838590D01*
X19692900Y21935210D01*
X19674050Y22029973D01*
X19637075Y22119239D01*
X19583396Y22199575D01*
X19515075Y22267896D01*
X19434739Y22321575D01*
X19345473Y22358550D01*
X19250710Y22377400D01*
X19154090Y22377400D01*
X19059327Y22358550D01*
X18970061Y22321575D01*
X18889725Y22267896D01*
X18821404Y22199575D01*
X18767725Y22119239D01*
X18730750Y22029973D01*
X18711900Y21935210D01*
X18711900Y21838590D01*
X18730750Y21743827D01*
X18767725Y21654561D01*
X18821404Y21574225D01*
X18872231Y21523398D01*
X18821404Y21472572D01*
X18767725Y21392236D01*
X18730750Y21302970D01*
X18711900Y21208207D01*
X18711900Y21111587D01*
X18730750Y21016824D01*
X18767725Y20927558D01*
X18821404Y20847222D01*
X18871050Y20797576D01*
X18828725Y20769296D01*
X18760404Y20700975D01*
X18706725Y20620639D01*
X18669750Y20531373D01*
X18650900Y20436610D01*
X215500Y20436610D01*
X215500Y21828810D01*
X15511500Y21828810D01*
X15511500Y21732190D01*
X15530350Y21637427D01*
X15567325Y21548161D01*
X15621004Y21467825D01*
X15689325Y21399504D01*
X15769661Y21345825D01*
X15858927Y21308850D01*
X15953690Y21290000D01*
X16050310Y21290000D01*
X16145073Y21308850D01*
X16234339Y21345825D01*
X16314675Y21399504D01*
X16382996Y21467825D01*
X16436675Y21548161D01*
X16473650Y21637427D01*
X16492500Y21732190D01*
X16492500Y21828810D01*
X16473650Y21923573D01*
X16436675Y22012839D01*
X16382996Y22093175D01*
X16314675Y22161496D01*
X16234339Y22215175D01*
X16145073Y22252150D01*
X16050310Y22271000D01*
X15953690Y22271000D01*
X15858927Y22252150D01*
X15769661Y22215175D01*
X15689325Y22161496D01*
X15621004Y22093175D01*
X15567325Y22012839D01*
X15530350Y21923573D01*
X15511500Y21828810D01*
X215500Y21828810D01*
X215500Y22621010D01*
X24812100Y22621010D01*
X24812100Y22524390D01*
X24830950Y22429627D01*
X24867925Y22340361D01*
X24921604Y22260025D01*
X24989925Y22191704D01*
X25070261Y22138025D01*
X25159527Y22101050D01*
X25254290Y22082200D01*
X25350910Y22082200D01*
X25445673Y22101050D01*
X25534939Y22138025D01*
X25615275Y22191704D01*
X25683596Y22260025D01*
X25737275Y22340361D01*
X25774250Y22429627D01*
X25793100Y22524390D01*
X25793100Y22621010D01*
X25774250Y22715773D01*
X25737275Y22805039D01*
X25683596Y22885375D01*
X25615275Y22953696D01*
X25534939Y23007375D01*
X25445673Y23044350D01*
X25350910Y23063200D01*
X25254290Y23063200D01*
X25159527Y23044350D01*
X25070261Y23007375D01*
X24989925Y22953696D01*
X24921604Y22885375D01*
X24867925Y22805039D01*
X24830950Y22715773D01*
X24812100Y22621010D01*
X215500Y22621010D01*
X215500Y23383010D01*
X19274900Y23383010D01*
X19274900Y23286390D01*
X19293750Y23191627D01*
X19330725Y23102361D01*
X19384404Y23022025D01*
X19452725Y22953704D01*
X19533061Y22900025D01*
X19622327Y22863050D01*
X19717090Y22844200D01*
X19813710Y22844200D01*
X19908473Y22863050D01*
X19997739Y22900025D01*
X20078075Y22953704D01*
X20146396Y23022025D01*
X20200075Y23102361D01*
X20237050Y23191627D01*
X20255900Y23286390D01*
X20255900Y23383010D01*
X20237050Y23477773D01*
X20234219Y23484610D01*
X26894900Y23484610D01*
X26894900Y23387990D01*
X26913750Y23293227D01*
X26950725Y23203961D01*
X27004404Y23123625D01*
X27072725Y23055304D01*
X27153061Y23001625D01*
X27242327Y22964650D01*
X27337090Y22945800D01*
X27433710Y22945800D01*
X27528473Y22964650D01*
X27617739Y23001625D01*
X27698075Y23055304D01*
X27766396Y23123625D01*
X27820075Y23203961D01*
X27857050Y23293227D01*
X27875900Y23387990D01*
X27875900Y23484610D01*
X27857050Y23579373D01*
X27820075Y23668639D01*
X27766396Y23748975D01*
X27698075Y23817296D01*
X27617739Y23870975D01*
X27528473Y23907950D01*
X27433710Y23926800D01*
X27337090Y23926800D01*
X27242327Y23907950D01*
X27153061Y23870975D01*
X27072725Y23817296D01*
X27004404Y23748975D01*
X26950725Y23668639D01*
X26913750Y23579373D01*
X26894900Y23484610D01*
X20234219Y23484610D01*
X20200075Y23567039D01*
X20146396Y23647375D01*
X20078075Y23715696D01*
X19997739Y23769375D01*
X19908473Y23806350D01*
X19813710Y23825200D01*
X19717090Y23825200D01*
X19622327Y23806350D01*
X19533061Y23769375D01*
X19452725Y23715696D01*
X19384404Y23647375D01*
X19330725Y23567039D01*
X19293750Y23477773D01*
X19274900Y23383010D01*
X215500Y23383010D01*
X215500Y25184500D01*
X10992579Y25184500D01*
X10992579Y24900000D01*
X10992579Y24900000D01*
G37*
X10992579Y24900000D02*
X10996257Y24862656D01*
X11007150Y24826746D01*
X11022799Y24797470D01*
X10985504Y24760175D01*
X10931825Y24679839D01*
X10894850Y24590573D01*
X10876000Y24495810D01*
X10876000Y24399190D01*
X10894850Y24304427D01*
X10931825Y24215161D01*
X10985504Y24134825D01*
X11053825Y24066504D01*
X11134161Y24012825D01*
X11223427Y23975850D01*
X11318190Y23957000D01*
X11414810Y23957000D01*
X11509573Y23975850D01*
X11598839Y24012825D01*
X11679175Y24066504D01*
X11684000Y24071329D01*
X11688825Y24066504D01*
X11769161Y24012825D01*
X11858427Y23975850D01*
X11953190Y23957000D01*
X12049810Y23957000D01*
X12144573Y23975850D01*
X12233839Y24012825D01*
X12314175Y24066504D01*
X12382496Y24134825D01*
X12436175Y24215161D01*
X12473150Y24304427D01*
X12492000Y24399190D01*
X12492000Y24495810D01*
X12473150Y24590573D01*
X12436175Y24679839D01*
X12413969Y24713072D01*
X12416656Y24712257D01*
X12454000Y24708579D01*
X13454000Y24708579D01*
X13491344Y24712257D01*
X13527254Y24723150D01*
X13560348Y24740839D01*
X13589000Y24764354D01*
X13617652Y24740839D01*
X13650746Y24723150D01*
X13686656Y24712257D01*
X13724000Y24708579D01*
X14724000Y24708579D01*
X14761344Y24712257D01*
X14797254Y24723150D01*
X14830348Y24740839D01*
X14859000Y24764354D01*
X14887652Y24740839D01*
X14920746Y24723150D01*
X14956656Y24712257D01*
X14994000Y24708579D01*
X15994000Y24708579D01*
X16031344Y24712257D01*
X16067254Y24723150D01*
X16100348Y24740839D01*
X16129000Y24764354D01*
X16157652Y24740839D01*
X16190746Y24723150D01*
X16226656Y24712257D01*
X16264000Y24708579D01*
X17264000Y24708579D01*
X17301344Y24712257D01*
X17337254Y24723150D01*
X17370348Y24740839D01*
X17399000Y24764354D01*
X17427652Y24740839D01*
X17460746Y24723150D01*
X17496656Y24712257D01*
X17534000Y24708579D01*
X18534000Y24708579D01*
X18571344Y24712257D01*
X18607254Y24723150D01*
X18640348Y24740839D01*
X18669000Y24764354D01*
X18697652Y24740839D01*
X18730746Y24723150D01*
X18766656Y24712257D01*
X18804000Y24708579D01*
X19804000Y24708579D01*
X19841344Y24712257D01*
X19877254Y24723150D01*
X19910348Y24740839D01*
X19939000Y24764354D01*
X19967652Y24740839D01*
X20000746Y24723150D01*
X20036656Y24712257D01*
X20074000Y24708579D01*
X21074000Y24708579D01*
X21111344Y24712257D01*
X21147254Y24723150D01*
X21180348Y24740839D01*
X21209000Y24764354D01*
X21237652Y24740839D01*
X21270746Y24723150D01*
X21306656Y24712257D01*
X21344000Y24708579D01*
X21703271Y24708579D01*
X21662461Y24691675D01*
X21582125Y24637996D01*
X21513804Y24569675D01*
X21460125Y24489339D01*
X21423150Y24400073D01*
X21404300Y24305310D01*
X21404300Y24208690D01*
X21423150Y24113927D01*
X21460125Y24024661D01*
X21513804Y23944325D01*
X21582125Y23876004D01*
X21662461Y23822325D01*
X21751727Y23785350D01*
X21846490Y23766500D01*
X21943110Y23766500D01*
X22037873Y23785350D01*
X22127139Y23822325D01*
X22207475Y23876004D01*
X22275796Y23944325D01*
X22329475Y24024661D01*
X22366450Y24113927D01*
X22385300Y24208690D01*
X22385300Y24305310D01*
X22366450Y24400073D01*
X22329475Y24489339D01*
X22275796Y24569675D01*
X22207475Y24637996D01*
X22127139Y24691675D01*
X22086329Y24708579D01*
X22344000Y24708579D01*
X22381344Y24712257D01*
X22417254Y24723150D01*
X22450348Y24740839D01*
X22479000Y24764354D01*
X22507652Y24740839D01*
X22540746Y24723150D01*
X22576656Y24712257D01*
X22614000Y24708579D01*
X23614000Y24708579D01*
X23651344Y24712257D01*
X23687254Y24723150D01*
X23720348Y24740839D01*
X23749000Y24764354D01*
X23777652Y24740839D01*
X23810746Y24723150D01*
X23846656Y24712257D01*
X23884000Y24708579D01*
X24884000Y24708579D01*
X24921344Y24712257D01*
X24957254Y24723150D01*
X24990348Y24740839D01*
X25019000Y24764354D01*
X25047652Y24740839D01*
X25080746Y24723150D01*
X25116656Y24712257D01*
X25154000Y24708579D01*
X26154000Y24708579D01*
X26191344Y24712257D01*
X26227254Y24723150D01*
X26260348Y24740839D01*
X26289000Y24764354D01*
X26317652Y24740839D01*
X26350746Y24723150D01*
X26386656Y24712257D01*
X26424000Y24708579D01*
X27424000Y24708579D01*
X27461344Y24712257D01*
X27497254Y24723150D01*
X27530348Y24740839D01*
X27559000Y24764354D01*
X27587652Y24740839D01*
X27620746Y24723150D01*
X27656656Y24712257D01*
X27694000Y24708579D01*
X28694000Y24708579D01*
X28731344Y24712257D01*
X28767254Y24723150D01*
X28800348Y24740839D01*
X28829000Y24764354D01*
X28857652Y24740839D01*
X28890746Y24723150D01*
X28926656Y24712257D01*
X28964000Y24708579D01*
X29964000Y24708579D01*
X30001344Y24712257D01*
X30037254Y24723150D01*
X30070348Y24740839D01*
X30099000Y24764354D01*
X30127652Y24740839D01*
X30160746Y24723150D01*
X30196656Y24712257D01*
X30234000Y24708579D01*
X31234000Y24708579D01*
X31271344Y24712257D01*
X31307254Y24723150D01*
X31340348Y24740839D01*
X31369355Y24764645D01*
X31393161Y24793652D01*
X31410850Y24826746D01*
X31421743Y24862656D01*
X31425421Y24900000D01*
X31425421Y25184500D01*
X31534501Y25184500D01*
X31534500Y3261013D01*
X31523150Y3318073D01*
X31486175Y3407339D01*
X31432496Y3487675D01*
X31364175Y3555996D01*
X31283839Y3609675D01*
X31194573Y3646650D01*
X31099810Y3665500D01*
X31003190Y3665500D01*
X30908427Y3646650D01*
X30819161Y3609675D01*
X30738825Y3555996D01*
X30734000Y3551171D01*
X30729175Y3555996D01*
X30648839Y3609675D01*
X30559573Y3646650D01*
X30464810Y3665500D01*
X30368190Y3665500D01*
X30273427Y3646650D01*
X30184161Y3609675D01*
X30103825Y3555996D01*
X30081500Y3533671D01*
X30081500Y3604310D01*
X30062650Y3699073D01*
X30025675Y3788339D01*
X29971996Y3868675D01*
X29903675Y3936996D01*
X29823339Y3990675D01*
X29734073Y4027650D01*
X29639310Y4046500D01*
X29542690Y4046500D01*
X29447927Y4027650D01*
X29358661Y3990675D01*
X29278325Y3936996D01*
X29273500Y3932171D01*
X29268675Y3936996D01*
X29188339Y3990675D01*
X29099073Y4027650D01*
X29004310Y4046500D01*
X28907690Y4046500D01*
X28812927Y4027650D01*
X28723661Y3990675D01*
X28643325Y3936996D01*
X28575004Y3868675D01*
X28521325Y3788339D01*
X28484350Y3699073D01*
X28465500Y3604310D01*
X28465500Y3507690D01*
X28484350Y3412927D01*
X28521325Y3323661D01*
X28575004Y3243325D01*
X28643325Y3175004D01*
X28723661Y3121325D01*
X28812927Y3084350D01*
X28907690Y3065500D01*
X29004310Y3065500D01*
X29099073Y3084350D01*
X29188339Y3121325D01*
X29268675Y3175004D01*
X29273500Y3179829D01*
X29278325Y3175004D01*
X29358661Y3121325D01*
X29447927Y3084350D01*
X29542690Y3065500D01*
X29639310Y3065500D01*
X29734073Y3084350D01*
X29823339Y3121325D01*
X29903675Y3175004D01*
X29926000Y3197329D01*
X29926000Y3126690D01*
X29944850Y3031927D01*
X29981825Y2942661D01*
X30035504Y2862325D01*
X30103825Y2794004D01*
X30184161Y2740325D01*
X30273427Y2703350D01*
X30368190Y2684500D01*
X30464810Y2684500D01*
X30559573Y2703350D01*
X30648839Y2740325D01*
X30729175Y2794004D01*
X30734000Y2798829D01*
X30738825Y2794004D01*
X30819161Y2740325D01*
X30908427Y2703350D01*
X31003190Y2684500D01*
X31099810Y2684500D01*
X31194573Y2703350D01*
X31283839Y2740325D01*
X31364175Y2794004D01*
X31432496Y2862325D01*
X31486175Y2942661D01*
X31523150Y3031927D01*
X31534500Y3088987D01*
X31534500Y215500D01*
X31425421Y215500D01*
X31425421Y500000D01*
X31421743Y537344D01*
X31410850Y573254D01*
X31393161Y606348D01*
X31369355Y635355D01*
X31340348Y659161D01*
X31307254Y676850D01*
X31271344Y687743D01*
X31234000Y691421D01*
X30234000Y691421D01*
X30196656Y687743D01*
X30160746Y676850D01*
X30127652Y659161D01*
X30099000Y635646D01*
X30070348Y659161D01*
X30037254Y676850D01*
X30001344Y687743D01*
X29964000Y691421D01*
X28964000Y691421D01*
X28926656Y687743D01*
X28890746Y676850D01*
X28857652Y659161D01*
X28829000Y635646D01*
X28800348Y659161D01*
X28783075Y668394D01*
X28819175Y722421D01*
X28856150Y811687D01*
X28875000Y906450D01*
X28875000Y1003070D01*
X28856150Y1097833D01*
X28819175Y1187099D01*
X28767364Y1264640D01*
X28819175Y1342181D01*
X28856150Y1431447D01*
X28875000Y1526210D01*
X28875000Y1622830D01*
X28856150Y1717593D01*
X28819175Y1806859D01*
X28765496Y1887195D01*
X28697175Y1955516D01*
X28616839Y2009195D01*
X28527573Y2046170D01*
X28432810Y2065020D01*
X28336190Y2065020D01*
X28241427Y2046170D01*
X28152161Y2009195D01*
X28071825Y1955516D01*
X28003504Y1887195D01*
X27949825Y1806859D01*
X27912850Y1717593D01*
X27894000Y1622830D01*
X27894000Y1526210D01*
X27912850Y1431447D01*
X27949825Y1342181D01*
X28001636Y1264640D01*
X27949825Y1187099D01*
X27912850Y1097833D01*
X27894000Y1003070D01*
X27894000Y906450D01*
X27912850Y811687D01*
X27949825Y722421D01*
X27970539Y691421D01*
X27694000Y691421D01*
X27656656Y687743D01*
X27620746Y676850D01*
X27587652Y659161D01*
X27559000Y635646D01*
X27530348Y659161D01*
X27497254Y676850D01*
X27461344Y687743D01*
X27424000Y691421D01*
X26424000Y691421D01*
X26386656Y687743D01*
X26350746Y676850D01*
X26317652Y659161D01*
X26289000Y635646D01*
X26260348Y659161D01*
X26227254Y676850D01*
X26191344Y687743D01*
X26154000Y691421D01*
X25154000Y691421D01*
X25116656Y687743D01*
X25080746Y676850D01*
X25047652Y659161D01*
X25019000Y635646D01*
X24990348Y659161D01*
X24957254Y676850D01*
X24921344Y687743D01*
X24884000Y691421D01*
X23884000Y691421D01*
X23846656Y687743D01*
X23810746Y676850D01*
X23777652Y659161D01*
X23749000Y635646D01*
X23720348Y659161D01*
X23687254Y676850D01*
X23651344Y687743D01*
X23614000Y691421D01*
X22614000Y691421D01*
X22576656Y687743D01*
X22540746Y676850D01*
X22507652Y659161D01*
X22479000Y635646D01*
X22450348Y659161D01*
X22417254Y676850D01*
X22381344Y687743D01*
X22344000Y691421D01*
X21344000Y691421D01*
X21306656Y687743D01*
X21270746Y676850D01*
X21237652Y659161D01*
X21209000Y635646D01*
X21180348Y659161D01*
X21147254Y676850D01*
X21111344Y687743D01*
X21074000Y691421D01*
X20074000Y691421D01*
X20036656Y687743D01*
X20000746Y676850D01*
X19967652Y659161D01*
X19939000Y635646D01*
X19910348Y659161D01*
X19877254Y676850D01*
X19841344Y687743D01*
X19804000Y691421D01*
X18804000Y691421D01*
X18766656Y687743D01*
X18730746Y676850D01*
X18697652Y659161D01*
X18669000Y635646D01*
X18640348Y659161D01*
X18607254Y676850D01*
X18571344Y687743D01*
X18534000Y691421D01*
X17534000Y691421D01*
X17496656Y687743D01*
X17460746Y676850D01*
X17427652Y659161D01*
X17399000Y635646D01*
X17370348Y659161D01*
X17337254Y676850D01*
X17301344Y687743D01*
X17264000Y691421D01*
X16264000Y691421D01*
X16226656Y687743D01*
X16190746Y676850D01*
X16157652Y659161D01*
X16129000Y635646D01*
X16100348Y659161D01*
X16067254Y676850D01*
X16031344Y687743D01*
X15994000Y691421D01*
X14994000Y691421D01*
X14956656Y687743D01*
X14920746Y676850D01*
X14887652Y659161D01*
X14859000Y635646D01*
X14830348Y659161D01*
X14797254Y676850D01*
X14761344Y687743D01*
X14724000Y691421D01*
X13724000Y691421D01*
X13686656Y687743D01*
X13650746Y676850D01*
X13617652Y659161D01*
X13589000Y635646D01*
X13560348Y659161D01*
X13527254Y676850D01*
X13491344Y687743D01*
X13454000Y691421D01*
X12454000Y691421D01*
X12416656Y687743D01*
X12380746Y676850D01*
X12347652Y659161D01*
X12319000Y635646D01*
X12290348Y659161D01*
X12257254Y676850D01*
X12221344Y687743D01*
X12184000Y691421D01*
X11184000Y691421D01*
X11146656Y687743D01*
X11110746Y676850D01*
X11077652Y659161D01*
X11048645Y635355D01*
X11024839Y606348D01*
X11007150Y573254D01*
X10996257Y537344D01*
X10992579Y500000D01*
X10992579Y215500D01*
X215500Y215500D01*
X215500Y8848310D01*
X16877700Y8848310D01*
X16877700Y8751690D01*
X16896550Y8656927D01*
X16933525Y8567661D01*
X16987204Y8487325D01*
X17055525Y8419004D01*
X17135861Y8365325D01*
X17225127Y8328350D01*
X17319890Y8309500D01*
X17416510Y8309500D01*
X17511273Y8328350D01*
X17600539Y8365325D01*
X17680875Y8419004D01*
X17749196Y8487325D01*
X17757100Y8499154D01*
X17765004Y8487325D01*
X17833325Y8419004D01*
X17913661Y8365325D01*
X18002927Y8328350D01*
X18097690Y8309500D01*
X18194310Y8309500D01*
X18289073Y8328350D01*
X18378339Y8365325D01*
X18404471Y8382786D01*
X18421550Y8296927D01*
X18458525Y8207661D01*
X18512204Y8127325D01*
X18580525Y8059004D01*
X18660861Y8005325D01*
X18750127Y7968350D01*
X18844890Y7949500D01*
X18941510Y7949500D01*
X19036273Y7968350D01*
X19125539Y8005325D01*
X19205875Y8059004D01*
X19274196Y8127325D01*
X19282100Y8139154D01*
X19290004Y8127325D01*
X19358325Y8059004D01*
X19438661Y8005325D01*
X19527927Y7968350D01*
X19622690Y7949500D01*
X19719310Y7949500D01*
X19814073Y7968350D01*
X19903339Y8005325D01*
X19983675Y8059004D01*
X20051996Y8127325D01*
X20105675Y8207661D01*
X20142650Y8296927D01*
X20161500Y8391690D01*
X20161500Y8488310D01*
X20142650Y8583073D01*
X20124115Y8627820D01*
X20149870Y8627820D01*
X20244633Y8646670D01*
X20333899Y8683645D01*
X20414235Y8737324D01*
X20482556Y8805645D01*
X20536235Y8885981D01*
X20573210Y8975247D01*
X20592060Y9070010D01*
X20592060Y9166630D01*
X20573210Y9261393D01*
X20536235Y9350659D01*
X20482556Y9430995D01*
X20414235Y9499316D01*
X20333899Y9552995D01*
X20244633Y9589970D01*
X20149870Y9608820D01*
X20053250Y9608820D01*
X19958487Y9589970D01*
X19869221Y9552995D01*
X19788885Y9499316D01*
X19720564Y9430995D01*
X19666885Y9350659D01*
X19629910Y9261393D01*
X19611060Y9166630D01*
X19611060Y9070010D01*
X19629910Y8975247D01*
X19648445Y8930500D01*
X19622690Y8930500D01*
X19527927Y8911650D01*
X19438661Y8874675D01*
X19358325Y8820996D01*
X19290004Y8752675D01*
X19282100Y8740846D01*
X19274196Y8752675D01*
X19205875Y8820996D01*
X19125539Y8874675D01*
X19036273Y8911650D01*
X18941510Y8930500D01*
X18844890Y8930500D01*
X18750127Y8911650D01*
X18660861Y8874675D01*
X18634729Y8857214D01*
X18617650Y8943073D01*
X18580675Y9032339D01*
X18526996Y9112675D01*
X18458675Y9180996D01*
X18378339Y9234675D01*
X18289073Y9271650D01*
X18194310Y9290500D01*
X18097690Y9290500D01*
X18002927Y9271650D01*
X17913661Y9234675D01*
X17833325Y9180996D01*
X17765004Y9112675D01*
X17757100Y9100846D01*
X17749196Y9112675D01*
X17680875Y9180996D01*
X17600539Y9234675D01*
X17511273Y9271650D01*
X17416510Y9290500D01*
X17319890Y9290500D01*
X17225127Y9271650D01*
X17135861Y9234675D01*
X17055525Y9180996D01*
X16987204Y9112675D01*
X16933525Y9032339D01*
X16896550Y8943073D01*
X16877700Y8848310D01*
X215500Y8848310D01*
X215500Y9648310D01*
X15766600Y9648310D01*
X15766600Y9551690D01*
X15785450Y9456927D01*
X15822425Y9367661D01*
X15876104Y9287325D01*
X15944425Y9219004D01*
X16024761Y9165325D01*
X16114027Y9128350D01*
X16208790Y9109500D01*
X16305410Y9109500D01*
X16400173Y9128350D01*
X16489439Y9165325D01*
X16569775Y9219004D01*
X16638096Y9287325D01*
X16691775Y9367661D01*
X16728750Y9456927D01*
X16747600Y9551690D01*
X16747600Y9648310D01*
X16733720Y9718090D01*
X21086800Y9718090D01*
X21086800Y9621470D01*
X21105650Y9526707D01*
X21142625Y9437441D01*
X21196304Y9357105D01*
X21264625Y9288784D01*
X21344961Y9235105D01*
X21434227Y9198130D01*
X21528990Y9179280D01*
X21597219Y9179280D01*
X21587180Y9128810D01*
X21587180Y9032190D01*
X21606030Y8937427D01*
X21643005Y8848161D01*
X21696684Y8767825D01*
X21765005Y8699504D01*
X21845341Y8645825D01*
X21934607Y8608850D01*
X22029370Y8590000D01*
X22125990Y8590000D01*
X22220753Y8608850D01*
X22310019Y8645825D01*
X22390355Y8699504D01*
X22458676Y8767825D01*
X22512355Y8848161D01*
X22549330Y8937427D01*
X22568180Y9032190D01*
X22568180Y9128810D01*
X22549330Y9223573D01*
X22512355Y9312839D01*
X22458676Y9393175D01*
X22390355Y9461496D01*
X22310019Y9515175D01*
X22220753Y9552150D01*
X22125990Y9571000D01*
X22057761Y9571000D01*
X22067800Y9621470D01*
X22067800Y9718090D01*
X22048950Y9812853D01*
X22011975Y9902119D01*
X21958296Y9982455D01*
X21889975Y10050776D01*
X21809639Y10104455D01*
X21720373Y10141430D01*
X21625610Y10160280D01*
X21528990Y10160280D01*
X21434227Y10141430D01*
X21344961Y10104455D01*
X21264625Y10050776D01*
X21196304Y9982455D01*
X21142625Y9902119D01*
X21105650Y9812853D01*
X21086800Y9718090D01*
X16733720Y9718090D01*
X16728750Y9743073D01*
X16691775Y9832339D01*
X16638096Y9912675D01*
X16569775Y9980996D01*
X16489439Y10034675D01*
X16400173Y10071650D01*
X16305410Y10090500D01*
X16208790Y10090500D01*
X16114027Y10071650D01*
X16024761Y10034675D01*
X15944425Y9980996D01*
X15876104Y9912675D01*
X15822425Y9832339D01*
X15785450Y9743073D01*
X15766600Y9648310D01*
X215500Y9648310D01*
X215500Y13082510D01*
X14523200Y13082510D01*
X14523200Y12985890D01*
X14542050Y12891127D01*
X14579025Y12801861D01*
X14632704Y12721525D01*
X14675629Y12678600D01*
X14632704Y12635675D01*
X14579025Y12555339D01*
X14542050Y12466073D01*
X14523200Y12371310D01*
X14523200Y12274690D01*
X14542050Y12179927D01*
X14579025Y12090661D01*
X14632704Y12010325D01*
X14701025Y11942004D01*
X14781361Y11888325D01*
X14870627Y11851350D01*
X14965390Y11832500D01*
X15062010Y11832500D01*
X15156773Y11851350D01*
X15246039Y11888325D01*
X15326375Y11942004D01*
X15394696Y12010325D01*
X15448375Y12090661D01*
X15485350Y12179927D01*
X15504200Y12274690D01*
X15504200Y12371310D01*
X15485350Y12466073D01*
X15448375Y12555339D01*
X15394696Y12635675D01*
X15351771Y12678600D01*
X15394696Y12721525D01*
X15448375Y12801861D01*
X15485350Y12891127D01*
X15504200Y12985890D01*
X15504200Y13082510D01*
X15485350Y13177273D01*
X15448375Y13266539D01*
X15394696Y13346875D01*
X15326375Y13415196D01*
X15246039Y13468875D01*
X15156773Y13505850D01*
X15062010Y13524700D01*
X14965390Y13524700D01*
X14870627Y13505850D01*
X14781361Y13468875D01*
X14701025Y13415196D01*
X14632704Y13346875D01*
X14579025Y13266539D01*
X14542050Y13177273D01*
X14523200Y13082510D01*
X215500Y13082510D01*
X215500Y15823310D01*
X15763600Y15823310D01*
X15763600Y15726690D01*
X15782450Y15631927D01*
X15819425Y15542661D01*
X15873104Y15462325D01*
X15941425Y15394004D01*
X16021761Y15340325D01*
X16111027Y15303350D01*
X16205790Y15284500D01*
X16302410Y15284500D01*
X16397173Y15303350D01*
X16486439Y15340325D01*
X16566775Y15394004D01*
X16635096Y15462325D01*
X16688775Y15542661D01*
X16725750Y15631927D01*
X16744600Y15726690D01*
X16744600Y15821710D01*
X28363900Y15821710D01*
X28363900Y15725090D01*
X28382750Y15630327D01*
X28419725Y15541061D01*
X28473404Y15460725D01*
X28541725Y15392404D01*
X28622061Y15338725D01*
X28711327Y15301750D01*
X28806090Y15282900D01*
X28902710Y15282900D01*
X28997473Y15301750D01*
X29086739Y15338725D01*
X29167075Y15392404D01*
X29235396Y15460725D01*
X29289075Y15541061D01*
X29326050Y15630327D01*
X29344900Y15725090D01*
X29344900Y15821710D01*
X29326050Y15916473D01*
X29289075Y16005739D01*
X29235396Y16086075D01*
X29167075Y16154396D01*
X29086739Y16208075D01*
X28997473Y16245050D01*
X28902710Y16263900D01*
X28806090Y16263900D01*
X28711327Y16245050D01*
X28622061Y16208075D01*
X28541725Y16154396D01*
X28473404Y16086075D01*
X28419725Y16005739D01*
X28382750Y15916473D01*
X28363900Y15821710D01*
X16744600Y15821710D01*
X16744600Y15823310D01*
X16725750Y15918073D01*
X16688775Y16007339D01*
X16635096Y16087675D01*
X16566775Y16155996D01*
X16486439Y16209675D01*
X16397173Y16246650D01*
X16302410Y16265500D01*
X16205790Y16265500D01*
X16111027Y16246650D01*
X16021761Y16209675D01*
X15941425Y16155996D01*
X15873104Y16087675D01*
X15819425Y16007339D01*
X15782450Y15918073D01*
X15763600Y15823310D01*
X215500Y15823310D01*
X215500Y17066310D01*
X16877700Y17066310D01*
X16877700Y16969690D01*
X16896550Y16874927D01*
X16933525Y16785661D01*
X16987204Y16705325D01*
X17055525Y16637004D01*
X17135861Y16583325D01*
X17225127Y16546350D01*
X17319890Y16527500D01*
X17416510Y16527500D01*
X17511273Y16546350D01*
X17600539Y16583325D01*
X17680875Y16637004D01*
X17749196Y16705325D01*
X17757100Y16717154D01*
X17765004Y16705325D01*
X17833325Y16637004D01*
X17913661Y16583325D01*
X18002927Y16546350D01*
X18097690Y16527500D01*
X18194310Y16527500D01*
X18289073Y16546350D01*
X18378339Y16583325D01*
X18458675Y16637004D01*
X18526996Y16705325D01*
X18580675Y16785661D01*
X18617650Y16874927D01*
X18636500Y16969690D01*
X18636500Y17062090D01*
X18655187Y17054350D01*
X18749950Y17035500D01*
X18846570Y17035500D01*
X18941333Y17054350D01*
X19030599Y17091325D01*
X19110935Y17145004D01*
X19179256Y17213325D01*
X19187160Y17225154D01*
X19195064Y17213325D01*
X19263385Y17145004D01*
X19343721Y17091325D01*
X19432987Y17054350D01*
X19527750Y17035500D01*
X19576321Y17035500D01*
X19550125Y17017996D01*
X19481804Y16949675D01*
X19428125Y16869339D01*
X19391150Y16780073D01*
X19372300Y16685310D01*
X19372300Y16588690D01*
X19391150Y16493927D01*
X19428125Y16404661D01*
X19481804Y16324325D01*
X19550125Y16256004D01*
X19630461Y16202325D01*
X19719727Y16165350D01*
X19814490Y16146500D01*
X19911110Y16146500D01*
X20005873Y16165350D01*
X20095139Y16202325D01*
X20175475Y16256004D01*
X20243796Y16324325D01*
X20297475Y16404661D01*
X20334450Y16493927D01*
X20353300Y16588690D01*
X20353300Y16685310D01*
X20344767Y16728210D01*
X21988500Y16728210D01*
X21988500Y16631590D01*
X22007350Y16536827D01*
X22044325Y16447561D01*
X22098004Y16367225D01*
X22166325Y16298904D01*
X22246661Y16245225D01*
X22335927Y16208250D01*
X22430690Y16189400D01*
X22527310Y16189400D01*
X22622073Y16208250D01*
X22711339Y16245225D01*
X22791675Y16298904D01*
X22859996Y16367225D01*
X22913675Y16447561D01*
X22950650Y16536827D01*
X22969500Y16631590D01*
X22969500Y16728210D01*
X22950650Y16822973D01*
X22913675Y16912239D01*
X22859996Y16992575D01*
X22791675Y17060896D01*
X22711339Y17114575D01*
X22686147Y17125010D01*
X25722300Y17125010D01*
X25722300Y17028390D01*
X25741150Y16933627D01*
X25778125Y16844361D01*
X25831804Y16764025D01*
X25900125Y16695704D01*
X25980461Y16642025D01*
X26069727Y16605050D01*
X26164490Y16586200D01*
X26261110Y16586200D01*
X26355873Y16605050D01*
X26445139Y16642025D01*
X26525475Y16695704D01*
X26593796Y16764025D01*
X26647475Y16844361D01*
X26684450Y16933627D01*
X26703300Y17028390D01*
X26703300Y17125010D01*
X26684450Y17219773D01*
X26647475Y17309039D01*
X26593796Y17389375D01*
X26525475Y17457696D01*
X26445139Y17511375D01*
X26355873Y17548350D01*
X26261110Y17567200D01*
X26164490Y17567200D01*
X26069727Y17548350D01*
X25980461Y17511375D01*
X25900125Y17457696D01*
X25831804Y17389375D01*
X25778125Y17309039D01*
X25741150Y17219773D01*
X25722300Y17125010D01*
X22686147Y17125010D01*
X22622073Y17151550D01*
X22527310Y17170400D01*
X22430690Y17170400D01*
X22335927Y17151550D01*
X22246661Y17114575D01*
X22166325Y17060896D01*
X22098004Y16992575D01*
X22044325Y16912239D01*
X22007350Y16822973D01*
X21988500Y16728210D01*
X20344767Y16728210D01*
X20334450Y16780073D01*
X20297475Y16869339D01*
X20243796Y16949675D01*
X20175475Y17017996D01*
X20095139Y17071675D01*
X20005873Y17108650D01*
X19911110Y17127500D01*
X19862539Y17127500D01*
X19888735Y17145004D01*
X19957056Y17213325D01*
X20010735Y17293661D01*
X20047710Y17382927D01*
X20066560Y17477690D01*
X20066560Y17574310D01*
X27513000Y17574310D01*
X27513000Y17477690D01*
X27531850Y17382927D01*
X27568825Y17293661D01*
X27622504Y17213325D01*
X27690825Y17145004D01*
X27771161Y17091325D01*
X27860427Y17054350D01*
X27955190Y17035500D01*
X28051810Y17035500D01*
X28146573Y17054350D01*
X28235839Y17091325D01*
X28316175Y17145004D01*
X28384496Y17213325D01*
X28438175Y17293661D01*
X28475150Y17382927D01*
X28494000Y17477690D01*
X28494000Y17574310D01*
X28475150Y17669073D01*
X28438175Y17758339D01*
X28384496Y17838675D01*
X28316175Y17906996D01*
X28235839Y17960675D01*
X28146573Y17997650D01*
X28051810Y18016500D01*
X27955190Y18016500D01*
X27860427Y17997650D01*
X27771161Y17960675D01*
X27690825Y17906996D01*
X27622504Y17838675D01*
X27568825Y17758339D01*
X27531850Y17669073D01*
X27513000Y17574310D01*
X20066560Y17574310D01*
X20047710Y17669073D01*
X20010735Y17758339D01*
X19957056Y17838675D01*
X19888735Y17906996D01*
X19808399Y17960675D01*
X19719133Y17997650D01*
X19624370Y18016500D01*
X19527750Y18016500D01*
X19432987Y17997650D01*
X19343721Y17960675D01*
X19263385Y17906996D01*
X19195064Y17838675D01*
X19187160Y17826846D01*
X19179256Y17838675D01*
X19110935Y17906996D01*
X19030599Y17960675D01*
X18941333Y17997650D01*
X18846570Y18016500D01*
X18749950Y18016500D01*
X18655187Y17997650D01*
X18565921Y17960675D01*
X18485585Y17906996D01*
X18417264Y17838675D01*
X18363585Y17758339D01*
X18326610Y17669073D01*
X18307760Y17574310D01*
X18307760Y17481910D01*
X18289073Y17489650D01*
X18194310Y17508500D01*
X18097690Y17508500D01*
X18002927Y17489650D01*
X17913661Y17452675D01*
X17833325Y17398996D01*
X17765004Y17330675D01*
X17757100Y17318846D01*
X17749196Y17330675D01*
X17680875Y17398996D01*
X17600539Y17452675D01*
X17511273Y17489650D01*
X17416510Y17508500D01*
X17319890Y17508500D01*
X17225127Y17489650D01*
X17135861Y17452675D01*
X17055525Y17398996D01*
X16987204Y17330675D01*
X16933525Y17250339D01*
X16896550Y17161073D01*
X16877700Y17066310D01*
X215500Y17066310D01*
X215500Y18907810D01*
X15638500Y18907810D01*
X15638500Y18811190D01*
X15657350Y18716427D01*
X15694325Y18627161D01*
X15748004Y18546825D01*
X15816325Y18478504D01*
X15896661Y18424825D01*
X15985927Y18387850D01*
X16080690Y18369000D01*
X16177310Y18369000D01*
X16272073Y18387850D01*
X16361339Y18424825D01*
X16441675Y18478504D01*
X16509996Y18546825D01*
X16563675Y18627161D01*
X16600650Y18716427D01*
X16619500Y18811190D01*
X16619500Y18907810D01*
X16600650Y19002573D01*
X16563675Y19091839D01*
X16509996Y19172175D01*
X16441675Y19240496D01*
X16361339Y19294175D01*
X16272073Y19331150D01*
X16177310Y19350000D01*
X16080690Y19350000D01*
X15985927Y19331150D01*
X15896661Y19294175D01*
X15816325Y19240496D01*
X15748004Y19172175D01*
X15694325Y19091839D01*
X15657350Y19002573D01*
X15638500Y18907810D01*
X215500Y18907810D01*
X215500Y19433310D01*
X24253300Y19433310D01*
X24253300Y19336690D01*
X24272150Y19241927D01*
X24309125Y19152661D01*
X24361785Y19073850D01*
X24309125Y18995039D01*
X24272150Y18905773D01*
X24253300Y18811010D01*
X24253300Y18714390D01*
X24272150Y18619627D01*
X24309125Y18530361D01*
X24362804Y18450025D01*
X24431125Y18381704D01*
X24511461Y18328025D01*
X24600727Y18291050D01*
X24695490Y18272200D01*
X24792110Y18272200D01*
X24886873Y18291050D01*
X24976139Y18328025D01*
X25056475Y18381704D01*
X25124796Y18450025D01*
X25178475Y18530361D01*
X25192785Y18564910D01*
X30243500Y18564910D01*
X30243500Y18468290D01*
X30262350Y18373527D01*
X30299325Y18284261D01*
X30347742Y18211800D01*
X30299325Y18139339D01*
X30262350Y18050073D01*
X30243500Y17955310D01*
X30243500Y17858690D01*
X30262350Y17763927D01*
X30299325Y17674661D01*
X30353004Y17594325D01*
X30421325Y17526004D01*
X30501661Y17472325D01*
X30590927Y17435350D01*
X30685690Y17416500D01*
X30782310Y17416500D01*
X30877073Y17435350D01*
X30966339Y17472325D01*
X31046675Y17526004D01*
X31114996Y17594325D01*
X31168675Y17674661D01*
X31205650Y17763927D01*
X31224500Y17858690D01*
X31224500Y17955310D01*
X31205650Y18050073D01*
X31168675Y18139339D01*
X31120258Y18211800D01*
X31168675Y18284261D01*
X31205650Y18373527D01*
X31224500Y18468290D01*
X31224500Y18564910D01*
X31205650Y18659673D01*
X31168675Y18748939D01*
X31114996Y18829275D01*
X31046675Y18897596D01*
X30966339Y18951275D01*
X30877073Y18988250D01*
X30782310Y19007100D01*
X30685690Y19007100D01*
X30590927Y18988250D01*
X30501661Y18951275D01*
X30421325Y18897596D01*
X30353004Y18829275D01*
X30299325Y18748939D01*
X30262350Y18659673D01*
X30243500Y18564910D01*
X25192785Y18564910D01*
X25215450Y18619627D01*
X25234300Y18714390D01*
X25234300Y18811010D01*
X25215450Y18905773D01*
X25178475Y18995039D01*
X25125815Y19073850D01*
X25178475Y19152661D01*
X25215450Y19241927D01*
X25234300Y19336690D01*
X25234300Y19433310D01*
X25215450Y19528073D01*
X25178475Y19617339D01*
X25124796Y19697675D01*
X25056475Y19765996D01*
X25041189Y19776210D01*
X26285300Y19776210D01*
X26285300Y19679590D01*
X26304150Y19584827D01*
X26341125Y19495561D01*
X26394804Y19415225D01*
X26463125Y19346904D01*
X26543461Y19293225D01*
X26632727Y19256250D01*
X26727490Y19237400D01*
X26824110Y19237400D01*
X26918873Y19256250D01*
X27008139Y19293225D01*
X27088475Y19346904D01*
X27156796Y19415225D01*
X27210475Y19495561D01*
X27247450Y19584827D01*
X27266300Y19679590D01*
X27266300Y19776210D01*
X27247450Y19870973D01*
X27210475Y19960239D01*
X27156796Y20040575D01*
X27088475Y20108896D01*
X27008139Y20162575D01*
X26918873Y20199550D01*
X26824110Y20218400D01*
X26727490Y20218400D01*
X26632727Y20199550D01*
X26543461Y20162575D01*
X26463125Y20108896D01*
X26394804Y20040575D01*
X26341125Y19960239D01*
X26304150Y19870973D01*
X26285300Y19776210D01*
X25041189Y19776210D01*
X24976139Y19819675D01*
X24886873Y19856650D01*
X24792110Y19875500D01*
X24695490Y19875500D01*
X24600727Y19856650D01*
X24511461Y19819675D01*
X24431125Y19765996D01*
X24362804Y19697675D01*
X24309125Y19617339D01*
X24272150Y19528073D01*
X24253300Y19433310D01*
X215500Y19433310D01*
X215500Y20436610D01*
X18650900Y20436610D01*
X18650900Y20339990D01*
X18669750Y20245227D01*
X18706725Y20155961D01*
X18760404Y20075625D01*
X18828725Y20007304D01*
X18909061Y19953625D01*
X18998327Y19916650D01*
X19093090Y19897800D01*
X19189710Y19897800D01*
X19284473Y19916650D01*
X19373739Y19953625D01*
X19454075Y20007304D01*
X19522396Y20075625D01*
X19576075Y20155961D01*
X19613050Y20245227D01*
X19631900Y20339990D01*
X19631900Y20436610D01*
X19613050Y20531373D01*
X19576075Y20620639D01*
X19529322Y20690610D01*
X30095300Y20690610D01*
X30095300Y20593990D01*
X30114150Y20499227D01*
X30151125Y20409961D01*
X30204804Y20329625D01*
X30273125Y20261304D01*
X30353461Y20207625D01*
X30442727Y20170650D01*
X30537490Y20151800D01*
X30634110Y20151800D01*
X30728873Y20170650D01*
X30818139Y20207625D01*
X30898475Y20261304D01*
X30966796Y20329625D01*
X31020475Y20409961D01*
X31057450Y20499227D01*
X31076300Y20593990D01*
X31076300Y20690610D01*
X31057450Y20785373D01*
X31020475Y20874639D01*
X30966796Y20954975D01*
X30898475Y21023296D01*
X30818139Y21076975D01*
X30728873Y21113950D01*
X30634110Y21132800D01*
X30537490Y21132800D01*
X30442727Y21113950D01*
X30353461Y21076975D01*
X30273125Y21023296D01*
X30204804Y20954975D01*
X30151125Y20874639D01*
X30114150Y20785373D01*
X30095300Y20690610D01*
X19529322Y20690610D01*
X19522396Y20700975D01*
X19472750Y20750621D01*
X19515075Y20778901D01*
X19583396Y20847222D01*
X19637075Y20927558D01*
X19674050Y21016824D01*
X19692900Y21111587D01*
X19692900Y21208207D01*
X19674050Y21302970D01*
X19637075Y21392236D01*
X19583396Y21472572D01*
X19532570Y21523398D01*
X19583396Y21574225D01*
X19637075Y21654561D01*
X19674050Y21743827D01*
X19692900Y21838590D01*
X19692900Y21935210D01*
X19674050Y22029973D01*
X19637075Y22119239D01*
X19583396Y22199575D01*
X19515075Y22267896D01*
X19434739Y22321575D01*
X19345473Y22358550D01*
X19250710Y22377400D01*
X19154090Y22377400D01*
X19059327Y22358550D01*
X18970061Y22321575D01*
X18889725Y22267896D01*
X18821404Y22199575D01*
X18767725Y22119239D01*
X18730750Y22029973D01*
X18711900Y21935210D01*
X18711900Y21838590D01*
X18730750Y21743827D01*
X18767725Y21654561D01*
X18821404Y21574225D01*
X18872231Y21523398D01*
X18821404Y21472572D01*
X18767725Y21392236D01*
X18730750Y21302970D01*
X18711900Y21208207D01*
X18711900Y21111587D01*
X18730750Y21016824D01*
X18767725Y20927558D01*
X18821404Y20847222D01*
X18871050Y20797576D01*
X18828725Y20769296D01*
X18760404Y20700975D01*
X18706725Y20620639D01*
X18669750Y20531373D01*
X18650900Y20436610D01*
X215500Y20436610D01*
X215500Y21828810D01*
X15511500Y21828810D01*
X15511500Y21732190D01*
X15530350Y21637427D01*
X15567325Y21548161D01*
X15621004Y21467825D01*
X15689325Y21399504D01*
X15769661Y21345825D01*
X15858927Y21308850D01*
X15953690Y21290000D01*
X16050310Y21290000D01*
X16145073Y21308850D01*
X16234339Y21345825D01*
X16314675Y21399504D01*
X16382996Y21467825D01*
X16436675Y21548161D01*
X16473650Y21637427D01*
X16492500Y21732190D01*
X16492500Y21828810D01*
X16473650Y21923573D01*
X16436675Y22012839D01*
X16382996Y22093175D01*
X16314675Y22161496D01*
X16234339Y22215175D01*
X16145073Y22252150D01*
X16050310Y22271000D01*
X15953690Y22271000D01*
X15858927Y22252150D01*
X15769661Y22215175D01*
X15689325Y22161496D01*
X15621004Y22093175D01*
X15567325Y22012839D01*
X15530350Y21923573D01*
X15511500Y21828810D01*
X215500Y21828810D01*
X215500Y22621010D01*
X24812100Y22621010D01*
X24812100Y22524390D01*
X24830950Y22429627D01*
X24867925Y22340361D01*
X24921604Y22260025D01*
X24989925Y22191704D01*
X25070261Y22138025D01*
X25159527Y22101050D01*
X25254290Y22082200D01*
X25350910Y22082200D01*
X25445673Y22101050D01*
X25534939Y22138025D01*
X25615275Y22191704D01*
X25683596Y22260025D01*
X25737275Y22340361D01*
X25774250Y22429627D01*
X25793100Y22524390D01*
X25793100Y22621010D01*
X25774250Y22715773D01*
X25737275Y22805039D01*
X25683596Y22885375D01*
X25615275Y22953696D01*
X25534939Y23007375D01*
X25445673Y23044350D01*
X25350910Y23063200D01*
X25254290Y23063200D01*
X25159527Y23044350D01*
X25070261Y23007375D01*
X24989925Y22953696D01*
X24921604Y22885375D01*
X24867925Y22805039D01*
X24830950Y22715773D01*
X24812100Y22621010D01*
X215500Y22621010D01*
X215500Y23383010D01*
X19274900Y23383010D01*
X19274900Y23286390D01*
X19293750Y23191627D01*
X19330725Y23102361D01*
X19384404Y23022025D01*
X19452725Y22953704D01*
X19533061Y22900025D01*
X19622327Y22863050D01*
X19717090Y22844200D01*
X19813710Y22844200D01*
X19908473Y22863050D01*
X19997739Y22900025D01*
X20078075Y22953704D01*
X20146396Y23022025D01*
X20200075Y23102361D01*
X20237050Y23191627D01*
X20255900Y23286390D01*
X20255900Y23383010D01*
X20237050Y23477773D01*
X20234219Y23484610D01*
X26894900Y23484610D01*
X26894900Y23387990D01*
X26913750Y23293227D01*
X26950725Y23203961D01*
X27004404Y23123625D01*
X27072725Y23055304D01*
X27153061Y23001625D01*
X27242327Y22964650D01*
X27337090Y22945800D01*
X27433710Y22945800D01*
X27528473Y22964650D01*
X27617739Y23001625D01*
X27698075Y23055304D01*
X27766396Y23123625D01*
X27820075Y23203961D01*
X27857050Y23293227D01*
X27875900Y23387990D01*
X27875900Y23484610D01*
X27857050Y23579373D01*
X27820075Y23668639D01*
X27766396Y23748975D01*
X27698075Y23817296D01*
X27617739Y23870975D01*
X27528473Y23907950D01*
X27433710Y23926800D01*
X27337090Y23926800D01*
X27242327Y23907950D01*
X27153061Y23870975D01*
X27072725Y23817296D01*
X27004404Y23748975D01*
X26950725Y23668639D01*
X26913750Y23579373D01*
X26894900Y23484610D01*
X20234219Y23484610D01*
X20200075Y23567039D01*
X20146396Y23647375D01*
X20078075Y23715696D01*
X19997739Y23769375D01*
X19908473Y23806350D01*
X19813710Y23825200D01*
X19717090Y23825200D01*
X19622327Y23806350D01*
X19533061Y23769375D01*
X19452725Y23715696D01*
X19384404Y23647375D01*
X19330725Y23567039D01*
X19293750Y23477773D01*
X19274900Y23383010D01*
X215500Y23383010D01*
X215500Y25184500D01*
X10992579Y25184500D01*
X10992579Y24900000D01*
M02*
