G04 #@! TF.GenerationSoftware,KiCad,Pcbnew,5.1.4*
G04 #@! TF.CreationDate,2019-10-28T13:13:04-05:00*
G04 #@! TF.ProjectId,rf,72662e6b-6963-4616-945f-706362585858,rev?*
G04 #@! TF.SameCoordinates,PX8120a40PY669d880*
G04 #@! TF.FileFunction,Copper,L2,Inr*
G04 #@! TF.FilePolarity,Positive*
%FSLAX46Y46*%
G04 Gerber Fmt 4.6, Leading zero omitted, Abs format (unit mm)*
G04 Created by KiCad (PCBNEW 5.1.4) date 2019-10-28 13:13:04*
%MOMM*%
%LPD*%
G04 APERTURE LIST*
%ADD10R,1.000000X1.000000*%
%ADD11C,0.600000*%
%ADD12C,0.500000*%
%ADD13C,0.127000*%
G04 APERTURE END LIST*
D10*
X30716000Y-11900D03*
X29446000Y-11900D03*
X28176000Y-11900D03*
X26906000Y-11900D03*
X25636000Y-11900D03*
X24366000Y-11900D03*
X23096000Y-11900D03*
X21826000Y-11900D03*
X20556000Y-11900D03*
X19286000Y-11900D03*
X18016000Y-11900D03*
X16746000Y-11900D03*
X15476000Y-11900D03*
X14206000Y-11900D03*
X12936000Y-11900D03*
X11666000Y-11900D03*
X11666000Y25388100D03*
X12936000Y25388100D03*
X14206000Y25388100D03*
X15476000Y25388100D03*
X16746000Y25388100D03*
X18016000Y25388100D03*
X19286000Y25388100D03*
X20556000Y25388100D03*
X21826000Y25388100D03*
X23096000Y25388100D03*
X24366000Y25388100D03*
X25636000Y25388100D03*
X26906000Y25388100D03*
X28176000Y25388100D03*
X29446000Y25388100D03*
X30716000Y25388100D03*
D11*
X17139100Y11788100D03*
X17139100Y13588100D03*
X19339100Y12688100D03*
X17139100Y11088100D03*
X17139100Y14288100D03*
X19339100Y11088100D03*
X19339100Y14288100D03*
X5848160Y17036100D03*
X4628160Y18036100D03*
X2458160Y18036100D03*
X1248160Y16836100D03*
X1248160Y14636100D03*
X2428160Y13446100D03*
X4678160Y13446100D03*
X5848160Y14436100D03*
X5848160Y10940100D03*
X4628160Y11940100D03*
X2458160Y11940100D03*
X1248160Y10740100D03*
X1248160Y8540100D03*
X2428160Y7350100D03*
X4678160Y7350100D03*
X5848160Y8340100D03*
X5848160Y4844100D03*
X4628160Y5844100D03*
X2458160Y5844100D03*
X1248160Y4644100D03*
X1248160Y2444100D03*
X2428160Y1254100D03*
X4678160Y1254100D03*
X5848160Y2244100D03*
D12*
X21232000Y20011000D03*
X21232000Y20986000D03*
X21232000Y21961000D03*
X22207000Y20011000D03*
X22207000Y20986000D03*
X22207000Y21961000D03*
X23182000Y20011000D03*
X23182000Y20986000D03*
X23182000Y21961000D03*
D11*
X10897051Y16458696D03*
X12962418Y15950100D03*
X8831379Y16973675D03*
X9223303Y14137882D03*
X11286475Y13622222D03*
X12962418Y13333900D03*
X10879796Y8912590D03*
X8831379Y8402514D03*
X12927983Y9423591D03*
X11261441Y11746663D03*
X9214908Y11236074D03*
X12962418Y12038500D03*
X14910981Y4866541D03*
X22870012Y2347800D03*
X24841658Y3000148D03*
X26571870Y4147610D03*
X27940130Y5710451D03*
X28836645Y7584621D03*
X29203356Y9628465D03*
X29218852Y11711798D03*
X14968200Y2220800D03*
X16933427Y2226104D03*
X18895427Y2226104D03*
X20857427Y2226104D03*
X12946200Y4872800D03*
X10984200Y4872800D03*
X9022200Y4872800D03*
X7060200Y4872800D03*
X15441981Y5688739D03*
X21777981Y4883559D03*
X13006646Y2215345D03*
X11044646Y2215345D03*
X9082646Y2215345D03*
X7120646Y2215345D03*
X7210412Y10981704D03*
X6869379Y8311400D03*
X7210411Y14394485D03*
X14924418Y15950100D03*
X14889983Y9423591D03*
X23618452Y15500100D03*
X25580452Y15500100D03*
X29218852Y13734648D03*
X27542452Y15500100D03*
X19365981Y5688739D03*
X6869379Y17064800D03*
X23618452Y10876100D03*
X25580452Y10876100D03*
X26544299Y9659958D03*
X22864869Y5075574D03*
X24702224Y6039534D03*
X25998919Y7659169D03*
X17403981Y5688739D03*
X11348500Y24435600D03*
X11983500Y24435600D03*
X26757800Y19716000D03*
X30567800Y20630400D03*
X28366500Y1512100D03*
X28366500Y877100D03*
X27985500Y17514100D03*
X19123400Y20376400D03*
X27367400Y23424400D03*
X19747400Y23322800D03*
X24725800Y18750800D03*
X30398500Y3163100D03*
X31033500Y3163100D03*
X30716000Y17895100D03*
X30716000Y18504700D03*
X24725800Y19373100D03*
X14995700Y13022300D03*
X14995700Y12311100D03*
X16111000Y18847600D03*
X16239100Y9588100D03*
X16236100Y15763100D03*
X29573000Y3544100D03*
X28938000Y3544100D03*
X19184400Y21147997D03*
X28836400Y15761500D03*
X19184400Y21875000D03*
X26194800Y17064800D03*
X21327981Y5688739D03*
X21876800Y24245100D03*
X22059680Y9068600D03*
X21559300Y9657880D03*
X25284600Y22560800D03*
X17350200Y8788100D03*
X18128000Y8788100D03*
X18875200Y8428100D03*
X19653000Y8428100D03*
X20302000Y7633500D03*
X19844800Y16625100D03*
X19558060Y17514100D03*
X18780260Y17514100D03*
X18128000Y17006100D03*
X17350200Y17006100D03*
X21889500Y16053600D03*
X15984000Y21768600D03*
D13*
G36*
X10974579Y24888100D02*
G01*
X10978257Y24850756D01*
X10989150Y24814846D01*
X11004799Y24785570D01*
X10967504Y24748275D01*
X10913825Y24667939D01*
X10876850Y24578673D01*
X10858000Y24483910D01*
X10858000Y24387290D01*
X10876850Y24292527D01*
X10913825Y24203261D01*
X10967504Y24122925D01*
X11035825Y24054604D01*
X11116161Y24000925D01*
X11205427Y23963950D01*
X11300190Y23945100D01*
X11396810Y23945100D01*
X11491573Y23963950D01*
X11580839Y24000925D01*
X11661175Y24054604D01*
X11666000Y24059429D01*
X11670825Y24054604D01*
X11751161Y24000925D01*
X11840427Y23963950D01*
X11935190Y23945100D01*
X12031810Y23945100D01*
X12126573Y23963950D01*
X12215839Y24000925D01*
X12296175Y24054604D01*
X12364496Y24122925D01*
X12418175Y24203261D01*
X12455150Y24292527D01*
X12474000Y24387290D01*
X12474000Y24483910D01*
X12455150Y24578673D01*
X12418175Y24667939D01*
X12395969Y24701172D01*
X12398656Y24700357D01*
X12436000Y24696679D01*
X13436000Y24696679D01*
X13473344Y24700357D01*
X13509254Y24711250D01*
X13542348Y24728939D01*
X13571000Y24752454D01*
X13599652Y24728939D01*
X13632746Y24711250D01*
X13668656Y24700357D01*
X13706000Y24696679D01*
X14706000Y24696679D01*
X14743344Y24700357D01*
X14779254Y24711250D01*
X14812348Y24728939D01*
X14841000Y24752454D01*
X14869652Y24728939D01*
X14902746Y24711250D01*
X14938656Y24700357D01*
X14976000Y24696679D01*
X15976000Y24696679D01*
X16013344Y24700357D01*
X16049254Y24711250D01*
X16082348Y24728939D01*
X16111000Y24752454D01*
X16139652Y24728939D01*
X16172746Y24711250D01*
X16208656Y24700357D01*
X16246000Y24696679D01*
X17246000Y24696679D01*
X17283344Y24700357D01*
X17319254Y24711250D01*
X17352348Y24728939D01*
X17381000Y24752454D01*
X17409652Y24728939D01*
X17442746Y24711250D01*
X17478656Y24700357D01*
X17516000Y24696679D01*
X18516000Y24696679D01*
X18553344Y24700357D01*
X18589254Y24711250D01*
X18622348Y24728939D01*
X18651000Y24752454D01*
X18679652Y24728939D01*
X18712746Y24711250D01*
X18748656Y24700357D01*
X18786000Y24696679D01*
X19786000Y24696679D01*
X19823344Y24700357D01*
X19859254Y24711250D01*
X19892348Y24728939D01*
X19921000Y24752454D01*
X19949652Y24728939D01*
X19982746Y24711250D01*
X20018656Y24700357D01*
X20056000Y24696679D01*
X21056000Y24696679D01*
X21093344Y24700357D01*
X21129254Y24711250D01*
X21162348Y24728939D01*
X21191000Y24752454D01*
X21219652Y24728939D01*
X21252746Y24711250D01*
X21288656Y24700357D01*
X21326000Y24696679D01*
X21685271Y24696679D01*
X21644461Y24679775D01*
X21564125Y24626096D01*
X21495804Y24557775D01*
X21442125Y24477439D01*
X21405150Y24388173D01*
X21386300Y24293410D01*
X21386300Y24196790D01*
X21405150Y24102027D01*
X21442125Y24012761D01*
X21495804Y23932425D01*
X21564125Y23864104D01*
X21644461Y23810425D01*
X21733727Y23773450D01*
X21828490Y23754600D01*
X21925110Y23754600D01*
X22019873Y23773450D01*
X22109139Y23810425D01*
X22189475Y23864104D01*
X22257796Y23932425D01*
X22311475Y24012761D01*
X22348450Y24102027D01*
X22367300Y24196790D01*
X22367300Y24293410D01*
X22348450Y24388173D01*
X22311475Y24477439D01*
X22257796Y24557775D01*
X22189475Y24626096D01*
X22109139Y24679775D01*
X22068329Y24696679D01*
X22326000Y24696679D01*
X22363344Y24700357D01*
X22399254Y24711250D01*
X22432348Y24728939D01*
X22461000Y24752454D01*
X22489652Y24728939D01*
X22522746Y24711250D01*
X22558656Y24700357D01*
X22596000Y24696679D01*
X23596000Y24696679D01*
X23633344Y24700357D01*
X23669254Y24711250D01*
X23702348Y24728939D01*
X23731000Y24752454D01*
X23759652Y24728939D01*
X23792746Y24711250D01*
X23828656Y24700357D01*
X23866000Y24696679D01*
X24866000Y24696679D01*
X24903344Y24700357D01*
X24939254Y24711250D01*
X24972348Y24728939D01*
X25001000Y24752454D01*
X25029652Y24728939D01*
X25062746Y24711250D01*
X25098656Y24700357D01*
X25136000Y24696679D01*
X26136000Y24696679D01*
X26173344Y24700357D01*
X26209254Y24711250D01*
X26242348Y24728939D01*
X26271000Y24752454D01*
X26299652Y24728939D01*
X26332746Y24711250D01*
X26368656Y24700357D01*
X26406000Y24696679D01*
X27406000Y24696679D01*
X27443344Y24700357D01*
X27479254Y24711250D01*
X27512348Y24728939D01*
X27541000Y24752454D01*
X27569652Y24728939D01*
X27602746Y24711250D01*
X27638656Y24700357D01*
X27676000Y24696679D01*
X28676000Y24696679D01*
X28713344Y24700357D01*
X28749254Y24711250D01*
X28782348Y24728939D01*
X28811000Y24752454D01*
X28839652Y24728939D01*
X28872746Y24711250D01*
X28908656Y24700357D01*
X28946000Y24696679D01*
X29946000Y24696679D01*
X29983344Y24700357D01*
X30019254Y24711250D01*
X30052348Y24728939D01*
X30081000Y24752454D01*
X30109652Y24728939D01*
X30142746Y24711250D01*
X30178656Y24700357D01*
X30216000Y24696679D01*
X31216000Y24696679D01*
X31253344Y24700357D01*
X31289254Y24711250D01*
X31322348Y24728939D01*
X31351355Y24752745D01*
X31375161Y24781752D01*
X31392850Y24814846D01*
X31403743Y24850756D01*
X31407421Y24888100D01*
X31407421Y25172600D01*
X31516501Y25172600D01*
X31516500Y3249113D01*
X31505150Y3306173D01*
X31468175Y3395439D01*
X31414496Y3475775D01*
X31346175Y3544096D01*
X31265839Y3597775D01*
X31176573Y3634750D01*
X31081810Y3653600D01*
X30985190Y3653600D01*
X30890427Y3634750D01*
X30801161Y3597775D01*
X30720825Y3544096D01*
X30716000Y3539271D01*
X30711175Y3544096D01*
X30630839Y3597775D01*
X30541573Y3634750D01*
X30446810Y3653600D01*
X30350190Y3653600D01*
X30255427Y3634750D01*
X30166161Y3597775D01*
X30085825Y3544096D01*
X30063500Y3521771D01*
X30063500Y3592410D01*
X30044650Y3687173D01*
X30007675Y3776439D01*
X29953996Y3856775D01*
X29885675Y3925096D01*
X29805339Y3978775D01*
X29716073Y4015750D01*
X29621310Y4034600D01*
X29524690Y4034600D01*
X29429927Y4015750D01*
X29340661Y3978775D01*
X29260325Y3925096D01*
X29255500Y3920271D01*
X29250675Y3925096D01*
X29170339Y3978775D01*
X29081073Y4015750D01*
X28986310Y4034600D01*
X28889690Y4034600D01*
X28794927Y4015750D01*
X28705661Y3978775D01*
X28625325Y3925096D01*
X28557004Y3856775D01*
X28503325Y3776439D01*
X28466350Y3687173D01*
X28447500Y3592410D01*
X28447500Y3495790D01*
X28466350Y3401027D01*
X28503325Y3311761D01*
X28557004Y3231425D01*
X28625325Y3163104D01*
X28705661Y3109425D01*
X28794927Y3072450D01*
X28889690Y3053600D01*
X28986310Y3053600D01*
X29081073Y3072450D01*
X29170339Y3109425D01*
X29250675Y3163104D01*
X29255500Y3167929D01*
X29260325Y3163104D01*
X29340661Y3109425D01*
X29429927Y3072450D01*
X29524690Y3053600D01*
X29621310Y3053600D01*
X29716073Y3072450D01*
X29805339Y3109425D01*
X29885675Y3163104D01*
X29908000Y3185429D01*
X29908000Y3114790D01*
X29926850Y3020027D01*
X29963825Y2930761D01*
X30017504Y2850425D01*
X30085825Y2782104D01*
X30166161Y2728425D01*
X30255427Y2691450D01*
X30350190Y2672600D01*
X30446810Y2672600D01*
X30541573Y2691450D01*
X30630839Y2728425D01*
X30711175Y2782104D01*
X30716000Y2786929D01*
X30720825Y2782104D01*
X30801161Y2728425D01*
X30890427Y2691450D01*
X30985190Y2672600D01*
X31081810Y2672600D01*
X31176573Y2691450D01*
X31265839Y2728425D01*
X31346175Y2782104D01*
X31414496Y2850425D01*
X31468175Y2930761D01*
X31505150Y3020027D01*
X31516500Y3077087D01*
X31516500Y203600D01*
X31407421Y203600D01*
X31407421Y488100D01*
X31403743Y525444D01*
X31392850Y561354D01*
X31375161Y594448D01*
X31351355Y623455D01*
X31322348Y647261D01*
X31289254Y664950D01*
X31253344Y675843D01*
X31216000Y679521D01*
X30216000Y679521D01*
X30178656Y675843D01*
X30142746Y664950D01*
X30109652Y647261D01*
X30081000Y623746D01*
X30052348Y647261D01*
X30019254Y664950D01*
X29983344Y675843D01*
X29946000Y679521D01*
X28946000Y679521D01*
X28908656Y675843D01*
X28872746Y664950D01*
X28839652Y647261D01*
X28811000Y623746D01*
X28795586Y636397D01*
X28801175Y644761D01*
X28838150Y734027D01*
X28857000Y828790D01*
X28857000Y925410D01*
X28838150Y1020173D01*
X28801175Y1109439D01*
X28747496Y1189775D01*
X28742671Y1194600D01*
X28747496Y1199425D01*
X28801175Y1279761D01*
X28838150Y1369027D01*
X28857000Y1463790D01*
X28857000Y1560410D01*
X28838150Y1655173D01*
X28801175Y1744439D01*
X28747496Y1824775D01*
X28679175Y1893096D01*
X28598839Y1946775D01*
X28509573Y1983750D01*
X28414810Y2002600D01*
X28318190Y2002600D01*
X28223427Y1983750D01*
X28134161Y1946775D01*
X28053825Y1893096D01*
X27985504Y1824775D01*
X27931825Y1744439D01*
X27894850Y1655173D01*
X27876000Y1560410D01*
X27876000Y1463790D01*
X27894850Y1369027D01*
X27931825Y1279761D01*
X27985504Y1199425D01*
X27990329Y1194600D01*
X27985504Y1189775D01*
X27931825Y1109439D01*
X27894850Y1020173D01*
X27876000Y925410D01*
X27876000Y828790D01*
X27894850Y734027D01*
X27917427Y679521D01*
X27676000Y679521D01*
X27638656Y675843D01*
X27602746Y664950D01*
X27569652Y647261D01*
X27541000Y623746D01*
X27512348Y647261D01*
X27479254Y664950D01*
X27443344Y675843D01*
X27406000Y679521D01*
X26406000Y679521D01*
X26368656Y675843D01*
X26332746Y664950D01*
X26299652Y647261D01*
X26271000Y623746D01*
X26242348Y647261D01*
X26209254Y664950D01*
X26173344Y675843D01*
X26136000Y679521D01*
X25136000Y679521D01*
X25098656Y675843D01*
X25062746Y664950D01*
X25029652Y647261D01*
X25001000Y623746D01*
X24972348Y647261D01*
X24939254Y664950D01*
X24903344Y675843D01*
X24866000Y679521D01*
X23866000Y679521D01*
X23828656Y675843D01*
X23792746Y664950D01*
X23759652Y647261D01*
X23731000Y623746D01*
X23702348Y647261D01*
X23669254Y664950D01*
X23633344Y675843D01*
X23596000Y679521D01*
X22596000Y679521D01*
X22558656Y675843D01*
X22522746Y664950D01*
X22489652Y647261D01*
X22461000Y623746D01*
X22432348Y647261D01*
X22399254Y664950D01*
X22363344Y675843D01*
X22326000Y679521D01*
X21326000Y679521D01*
X21288656Y675843D01*
X21252746Y664950D01*
X21219652Y647261D01*
X21191000Y623746D01*
X21162348Y647261D01*
X21129254Y664950D01*
X21093344Y675843D01*
X21056000Y679521D01*
X20056000Y679521D01*
X20018656Y675843D01*
X19982746Y664950D01*
X19949652Y647261D01*
X19921000Y623746D01*
X19892348Y647261D01*
X19859254Y664950D01*
X19823344Y675843D01*
X19786000Y679521D01*
X18786000Y679521D01*
X18748656Y675843D01*
X18712746Y664950D01*
X18679652Y647261D01*
X18651000Y623746D01*
X18622348Y647261D01*
X18589254Y664950D01*
X18553344Y675843D01*
X18516000Y679521D01*
X17516000Y679521D01*
X17478656Y675843D01*
X17442746Y664950D01*
X17409652Y647261D01*
X17381000Y623746D01*
X17352348Y647261D01*
X17319254Y664950D01*
X17283344Y675843D01*
X17246000Y679521D01*
X16246000Y679521D01*
X16208656Y675843D01*
X16172746Y664950D01*
X16139652Y647261D01*
X16111000Y623746D01*
X16082348Y647261D01*
X16049254Y664950D01*
X16013344Y675843D01*
X15976000Y679521D01*
X14976000Y679521D01*
X14938656Y675843D01*
X14902746Y664950D01*
X14869652Y647261D01*
X14841000Y623746D01*
X14812348Y647261D01*
X14779254Y664950D01*
X14743344Y675843D01*
X14706000Y679521D01*
X13706000Y679521D01*
X13668656Y675843D01*
X13632746Y664950D01*
X13599652Y647261D01*
X13571000Y623746D01*
X13542348Y647261D01*
X13509254Y664950D01*
X13473344Y675843D01*
X13436000Y679521D01*
X12436000Y679521D01*
X12398656Y675843D01*
X12362746Y664950D01*
X12329652Y647261D01*
X12301000Y623746D01*
X12272348Y647261D01*
X12239254Y664950D01*
X12203344Y675843D01*
X12166000Y679521D01*
X11166000Y679521D01*
X11128656Y675843D01*
X11092746Y664950D01*
X11059652Y647261D01*
X11030645Y623455D01*
X11006839Y594448D01*
X10989150Y561354D01*
X10978257Y525444D01*
X10974579Y488100D01*
X10974579Y203600D01*
X197500Y203600D01*
X197500Y619013D01*
X2062480Y619013D01*
X2079870Y450623D01*
X2243313Y398114D01*
X2413859Y378500D01*
X2584955Y392534D01*
X2750026Y439678D01*
X2776450Y450623D01*
X2793840Y619013D01*
X4312480Y619013D01*
X4329870Y450623D01*
X4493313Y398114D01*
X4663859Y378500D01*
X4834955Y392534D01*
X5000026Y439678D01*
X5026450Y450623D01*
X5043840Y619013D01*
X4678160Y984692D01*
X4312480Y619013D01*
X2793840Y619013D01*
X2428160Y984692D01*
X2062480Y619013D01*
X197500Y619013D01*
X197500Y1268401D01*
X1552560Y1268401D01*
X1566594Y1097305D01*
X1613738Y932234D01*
X1624683Y905810D01*
X1793073Y888420D01*
X2158752Y1254100D01*
X2697568Y1254100D01*
X3063247Y888420D01*
X3231637Y905810D01*
X3284146Y1069253D01*
X3303760Y1239799D01*
X3301414Y1268401D01*
X3802560Y1268401D01*
X3816594Y1097305D01*
X3863738Y932234D01*
X3874683Y905810D01*
X4043073Y888420D01*
X4408752Y1254100D01*
X4947568Y1254100D01*
X5313247Y888420D01*
X5481637Y905810D01*
X5534146Y1069253D01*
X5553760Y1239799D01*
X5539726Y1410895D01*
X5534404Y1429528D01*
X5663313Y1388114D01*
X5833859Y1368500D01*
X6004955Y1382534D01*
X6170026Y1429678D01*
X6196450Y1440623D01*
X6213840Y1609013D01*
X5848160Y1974692D01*
X5482480Y1609013D01*
X5483671Y1597479D01*
X5481637Y1602390D01*
X5313247Y1619780D01*
X4947568Y1254100D01*
X4408752Y1254100D01*
X4043073Y1619780D01*
X3874683Y1602390D01*
X3822174Y1438947D01*
X3802560Y1268401D01*
X3301414Y1268401D01*
X3289726Y1410895D01*
X3242582Y1575966D01*
X3231637Y1602390D01*
X3063247Y1619780D01*
X2697568Y1254100D01*
X2158752Y1254100D01*
X1793073Y1619780D01*
X1624683Y1602390D01*
X1572174Y1438947D01*
X1552560Y1268401D01*
X197500Y1268401D01*
X197500Y1809013D01*
X882480Y1809013D01*
X899870Y1640623D01*
X1063313Y1588114D01*
X1233859Y1568500D01*
X1404955Y1582534D01*
X1570026Y1629678D01*
X1596450Y1640623D01*
X1613840Y1809013D01*
X1533666Y1889187D01*
X2062480Y1889187D01*
X2428160Y1523508D01*
X2793840Y1889187D01*
X4312480Y1889187D01*
X4678160Y1523508D01*
X5043840Y1889187D01*
X5042649Y1900721D01*
X5044683Y1895810D01*
X5213073Y1878420D01*
X5578752Y2244100D01*
X6117568Y2244100D01*
X6483247Y1878420D01*
X6651637Y1895810D01*
X6704146Y2059253D01*
X6723760Y2229799D01*
X6709726Y2400895D01*
X6662582Y2565966D01*
X6651637Y2592390D01*
X6483247Y2609780D01*
X6117568Y2244100D01*
X5578752Y2244100D01*
X5213073Y2609780D01*
X5044683Y2592390D01*
X4992174Y2428947D01*
X4972560Y2258401D01*
X4986594Y2087305D01*
X4991916Y2068672D01*
X4863007Y2110086D01*
X4692461Y2129700D01*
X4521365Y2115666D01*
X4356294Y2068522D01*
X4329870Y2057577D01*
X4312480Y1889187D01*
X2793840Y1889187D01*
X2776450Y2057577D01*
X2613007Y2110086D01*
X2442461Y2129700D01*
X2271365Y2115666D01*
X2106294Y2068522D01*
X2079870Y2057577D01*
X2062480Y1889187D01*
X1533666Y1889187D01*
X1248160Y2174692D01*
X882480Y1809013D01*
X197500Y1809013D01*
X197500Y2458401D01*
X372560Y2458401D01*
X386594Y2287305D01*
X433738Y2122234D01*
X444683Y2095810D01*
X613073Y2078420D01*
X978752Y2444100D01*
X1517568Y2444100D01*
X1883247Y2078420D01*
X2051637Y2095810D01*
X2104146Y2259253D01*
X2123760Y2429799D01*
X2109726Y2600895D01*
X2062582Y2765966D01*
X2051637Y2792390D01*
X1883247Y2809780D01*
X1517568Y2444100D01*
X978752Y2444100D01*
X613073Y2809780D01*
X444683Y2792390D01*
X392174Y2628947D01*
X372560Y2458401D01*
X197500Y2458401D01*
X197500Y3079187D01*
X882480Y3079187D01*
X1248160Y2713508D01*
X1413839Y2879187D01*
X5482480Y2879187D01*
X5848160Y2513508D01*
X6213840Y2879187D01*
X6196450Y3047577D01*
X6033007Y3100086D01*
X5862461Y3119700D01*
X5691365Y3105666D01*
X5526294Y3058522D01*
X5499870Y3047577D01*
X5482480Y2879187D01*
X1413839Y2879187D01*
X1613840Y3079187D01*
X1596450Y3247577D01*
X1433007Y3300086D01*
X1262461Y3319700D01*
X1091365Y3305666D01*
X926294Y3258522D01*
X899870Y3247577D01*
X882480Y3079187D01*
X197500Y3079187D01*
X197500Y4009013D01*
X882480Y4009013D01*
X899870Y3840623D01*
X1063313Y3788114D01*
X1233859Y3768500D01*
X1404955Y3782534D01*
X1570026Y3829678D01*
X1596450Y3840623D01*
X1613840Y4009013D01*
X1413840Y4209013D01*
X5482480Y4209013D01*
X5499870Y4040623D01*
X5663313Y3988114D01*
X5833859Y3968500D01*
X6004955Y3982534D01*
X6170026Y4029678D01*
X6196450Y4040623D01*
X6213840Y4209013D01*
X5848160Y4574692D01*
X5482480Y4209013D01*
X1413840Y4209013D01*
X1248160Y4374692D01*
X882480Y4009013D01*
X197500Y4009013D01*
X197500Y4658401D01*
X372560Y4658401D01*
X386594Y4487305D01*
X433738Y4322234D01*
X444683Y4295810D01*
X613073Y4278420D01*
X978752Y4644100D01*
X1517568Y4644100D01*
X1883247Y4278420D01*
X2051637Y4295810D01*
X2104146Y4459253D01*
X2123760Y4629799D01*
X2109726Y4800895D01*
X2093303Y4858401D01*
X4972560Y4858401D01*
X4986594Y4687305D01*
X5033738Y4522234D01*
X5044683Y4495810D01*
X5213073Y4478420D01*
X5578752Y4844100D01*
X6117568Y4844100D01*
X6483247Y4478420D01*
X6651637Y4495810D01*
X6704146Y4659253D01*
X6723760Y4829799D01*
X6709726Y5000895D01*
X6662582Y5165966D01*
X6651637Y5192390D01*
X6483247Y5209780D01*
X6117568Y4844100D01*
X5578752Y4844100D01*
X5213073Y5209780D01*
X5044683Y5192390D01*
X4992174Y5028947D01*
X4972560Y4858401D01*
X2093303Y4858401D01*
X2062582Y4965966D01*
X2051637Y4992390D01*
X1883247Y5009780D01*
X1517568Y4644100D01*
X978752Y4644100D01*
X613073Y5009780D01*
X444683Y4992390D01*
X392174Y4828947D01*
X372560Y4658401D01*
X197500Y4658401D01*
X197500Y5279187D01*
X882480Y5279187D01*
X1248160Y4913508D01*
X1543665Y5209013D01*
X2092480Y5209013D01*
X2109870Y5040623D01*
X2273313Y4988114D01*
X2443859Y4968500D01*
X2614955Y4982534D01*
X2780026Y5029678D01*
X2806450Y5040623D01*
X2823840Y5209013D01*
X4262480Y5209013D01*
X4279870Y5040623D01*
X4443313Y4988114D01*
X4613859Y4968500D01*
X4784955Y4982534D01*
X4950026Y5029678D01*
X4976450Y5040623D01*
X4993840Y5209013D01*
X4628160Y5574692D01*
X4262480Y5209013D01*
X2823840Y5209013D01*
X2458160Y5574692D01*
X2092480Y5209013D01*
X1543665Y5209013D01*
X1613840Y5279187D01*
X1596450Y5447577D01*
X1433007Y5500086D01*
X1262461Y5519700D01*
X1091365Y5505666D01*
X926294Y5458522D01*
X899870Y5447577D01*
X882480Y5279187D01*
X197500Y5279187D01*
X197500Y5858401D01*
X1582560Y5858401D01*
X1596594Y5687305D01*
X1643738Y5522234D01*
X1654683Y5495810D01*
X1823073Y5478420D01*
X2188752Y5844100D01*
X2727568Y5844100D01*
X3093247Y5478420D01*
X3261637Y5495810D01*
X3314146Y5659253D01*
X3333760Y5829799D01*
X3331414Y5858401D01*
X3752560Y5858401D01*
X3766594Y5687305D01*
X3813738Y5522234D01*
X3824683Y5495810D01*
X3993073Y5478420D01*
X4358752Y5844100D01*
X4897568Y5844100D01*
X5263247Y5478420D01*
X5270673Y5479187D01*
X5482480Y5479187D01*
X5848160Y5113508D01*
X6213840Y5479187D01*
X6196450Y5647577D01*
X6033007Y5700086D01*
X5862461Y5719700D01*
X5691365Y5705666D01*
X5526294Y5658522D01*
X5499870Y5647577D01*
X5482480Y5479187D01*
X5270673Y5479187D01*
X5431637Y5495810D01*
X5484146Y5659253D01*
X5503760Y5829799D01*
X5489726Y6000895D01*
X5442582Y6165966D01*
X5431637Y6192390D01*
X5263247Y6209780D01*
X4897568Y5844100D01*
X4358752Y5844100D01*
X3993073Y6209780D01*
X3824683Y6192390D01*
X3772174Y6028947D01*
X3752560Y5858401D01*
X3331414Y5858401D01*
X3319726Y6000895D01*
X3272582Y6165966D01*
X3261637Y6192390D01*
X3093247Y6209780D01*
X2727568Y5844100D01*
X2188752Y5844100D01*
X1823073Y6209780D01*
X1654683Y6192390D01*
X1602174Y6028947D01*
X1582560Y5858401D01*
X197500Y5858401D01*
X197500Y6715013D01*
X2062480Y6715013D01*
X2079870Y6546623D01*
X2098816Y6540536D01*
X2092480Y6479187D01*
X2458160Y6113508D01*
X2823840Y6479187D01*
X4262480Y6479187D01*
X4628160Y6113508D01*
X4993840Y6479187D01*
X4988350Y6532343D01*
X5000026Y6535678D01*
X5026450Y6546623D01*
X5043840Y6715013D01*
X4678160Y7080692D01*
X4312480Y6715013D01*
X4317970Y6661857D01*
X4306294Y6658522D01*
X4279870Y6647577D01*
X4262480Y6479187D01*
X2823840Y6479187D01*
X2806450Y6647577D01*
X2787504Y6653664D01*
X2793840Y6715013D01*
X2428160Y7080692D01*
X2062480Y6715013D01*
X197500Y6715013D01*
X197500Y7364401D01*
X1552560Y7364401D01*
X1566594Y7193305D01*
X1613738Y7028234D01*
X1624683Y7001810D01*
X1793073Y6984420D01*
X2158752Y7350100D01*
X2697568Y7350100D01*
X3063247Y6984420D01*
X3231637Y7001810D01*
X3284146Y7165253D01*
X3303760Y7335799D01*
X3301414Y7364401D01*
X3802560Y7364401D01*
X3816594Y7193305D01*
X3863738Y7028234D01*
X3874683Y7001810D01*
X4043073Y6984420D01*
X4408752Y7350100D01*
X4947568Y7350100D01*
X5313247Y6984420D01*
X5481637Y7001810D01*
X5534146Y7165253D01*
X5553760Y7335799D01*
X5539726Y7506895D01*
X5534404Y7525528D01*
X5663313Y7484114D01*
X5833859Y7464500D01*
X6004955Y7478534D01*
X6170026Y7525678D01*
X6196450Y7536623D01*
X6211443Y7681810D01*
X19811500Y7681810D01*
X19811500Y7585190D01*
X19830350Y7490427D01*
X19867325Y7401161D01*
X19921004Y7320825D01*
X19989325Y7252504D01*
X20069661Y7198825D01*
X20158927Y7161850D01*
X20253690Y7143000D01*
X20350310Y7143000D01*
X20445073Y7161850D01*
X20534339Y7198825D01*
X20614675Y7252504D01*
X20682996Y7320825D01*
X20736675Y7401161D01*
X20773650Y7490427D01*
X20792500Y7585190D01*
X20792500Y7681810D01*
X20773650Y7776573D01*
X20736675Y7865839D01*
X20682996Y7946175D01*
X20614675Y8014496D01*
X20534339Y8068175D01*
X20445073Y8105150D01*
X20350310Y8124000D01*
X20253690Y8124000D01*
X20158927Y8105150D01*
X20069661Y8068175D01*
X19989325Y8014496D01*
X19921004Y7946175D01*
X19867325Y7865839D01*
X19830350Y7776573D01*
X19811500Y7681810D01*
X6211443Y7681810D01*
X6213840Y7705013D01*
X5848160Y8070692D01*
X5482480Y7705013D01*
X5483671Y7693479D01*
X5481637Y7698390D01*
X5313247Y7715780D01*
X4947568Y7350100D01*
X4408752Y7350100D01*
X4043073Y7715780D01*
X3874683Y7698390D01*
X3822174Y7534947D01*
X3802560Y7364401D01*
X3301414Y7364401D01*
X3289726Y7506895D01*
X3242582Y7671966D01*
X3231637Y7698390D01*
X3063247Y7715780D01*
X2697568Y7350100D01*
X2158752Y7350100D01*
X1793073Y7715780D01*
X1624683Y7698390D01*
X1572174Y7534947D01*
X1552560Y7364401D01*
X197500Y7364401D01*
X197500Y7905013D01*
X882480Y7905013D01*
X899870Y7736623D01*
X1063313Y7684114D01*
X1233859Y7664500D01*
X1404955Y7678534D01*
X1570026Y7725678D01*
X1596450Y7736623D01*
X1613840Y7905013D01*
X1533666Y7985187D01*
X2062480Y7985187D01*
X2428160Y7619508D01*
X2793840Y7985187D01*
X4312480Y7985187D01*
X4678160Y7619508D01*
X5043840Y7985187D01*
X5042649Y7996721D01*
X5044683Y7991810D01*
X5213073Y7974420D01*
X5578752Y8340100D01*
X6117568Y8340100D01*
X6483247Y7974420D01*
X6651637Y7991810D01*
X6704146Y8155253D01*
X6723760Y8325799D01*
X6709726Y8496895D01*
X6662582Y8661966D01*
X6651637Y8688390D01*
X6483247Y8705780D01*
X6117568Y8340100D01*
X5578752Y8340100D01*
X5213073Y8705780D01*
X5044683Y8688390D01*
X4992174Y8524947D01*
X4972560Y8354401D01*
X4986594Y8183305D01*
X4991916Y8164672D01*
X4863007Y8206086D01*
X4692461Y8225700D01*
X4521365Y8211666D01*
X4356294Y8164522D01*
X4329870Y8153577D01*
X4312480Y7985187D01*
X2793840Y7985187D01*
X2776450Y8153577D01*
X2613007Y8206086D01*
X2442461Y8225700D01*
X2271365Y8211666D01*
X2106294Y8164522D01*
X2079870Y8153577D01*
X2062480Y7985187D01*
X1533666Y7985187D01*
X1248160Y8270692D01*
X882480Y7905013D01*
X197500Y7905013D01*
X197500Y8554401D01*
X372560Y8554401D01*
X386594Y8383305D01*
X433738Y8218234D01*
X444683Y8191810D01*
X613073Y8174420D01*
X978752Y8540100D01*
X1517568Y8540100D01*
X1883247Y8174420D01*
X2051637Y8191810D01*
X2104146Y8355253D01*
X2123760Y8525799D01*
X2109726Y8696895D01*
X2062582Y8861966D01*
X2051637Y8888390D01*
X1883247Y8905780D01*
X1517568Y8540100D01*
X978752Y8540100D01*
X613073Y8905780D01*
X444683Y8888390D01*
X392174Y8724947D01*
X372560Y8554401D01*
X197500Y8554401D01*
X197500Y9175187D01*
X882480Y9175187D01*
X1248160Y8809508D01*
X1413839Y8975187D01*
X5482480Y8975187D01*
X5848160Y8609508D01*
X6075062Y8836410D01*
X16859700Y8836410D01*
X16859700Y8739790D01*
X16878550Y8645027D01*
X16915525Y8555761D01*
X16969204Y8475425D01*
X17037525Y8407104D01*
X17117861Y8353425D01*
X17207127Y8316450D01*
X17301890Y8297600D01*
X17398510Y8297600D01*
X17493273Y8316450D01*
X17582539Y8353425D01*
X17662875Y8407104D01*
X17731196Y8475425D01*
X17739100Y8487254D01*
X17747004Y8475425D01*
X17815325Y8407104D01*
X17895661Y8353425D01*
X17984927Y8316450D01*
X18079690Y8297600D01*
X18176310Y8297600D01*
X18271073Y8316450D01*
X18360339Y8353425D01*
X18386471Y8370886D01*
X18403550Y8285027D01*
X18440525Y8195761D01*
X18494204Y8115425D01*
X18562525Y8047104D01*
X18642861Y7993425D01*
X18732127Y7956450D01*
X18826890Y7937600D01*
X18923510Y7937600D01*
X19018273Y7956450D01*
X19107539Y7993425D01*
X19187875Y8047104D01*
X19256196Y8115425D01*
X19264100Y8127254D01*
X19272004Y8115425D01*
X19340325Y8047104D01*
X19420661Y7993425D01*
X19509927Y7956450D01*
X19604690Y7937600D01*
X19701310Y7937600D01*
X19796073Y7956450D01*
X19885339Y7993425D01*
X19965675Y8047104D01*
X20033996Y8115425D01*
X20087675Y8195761D01*
X20124650Y8285027D01*
X20143500Y8379790D01*
X20143500Y8476410D01*
X20124650Y8571173D01*
X20087675Y8660439D01*
X20033996Y8740775D01*
X19965675Y8809096D01*
X19885339Y8862775D01*
X19796073Y8899750D01*
X19701310Y8918600D01*
X19604690Y8918600D01*
X19509927Y8899750D01*
X19420661Y8862775D01*
X19340325Y8809096D01*
X19272004Y8740775D01*
X19264100Y8728946D01*
X19256196Y8740775D01*
X19187875Y8809096D01*
X19107539Y8862775D01*
X19018273Y8899750D01*
X18923510Y8918600D01*
X18826890Y8918600D01*
X18732127Y8899750D01*
X18642861Y8862775D01*
X18616729Y8845314D01*
X18599650Y8931173D01*
X18562675Y9020439D01*
X18508996Y9100775D01*
X18440675Y9169096D01*
X18360339Y9222775D01*
X18271073Y9259750D01*
X18176310Y9278600D01*
X18079690Y9278600D01*
X17984927Y9259750D01*
X17895661Y9222775D01*
X17815325Y9169096D01*
X17747004Y9100775D01*
X17739100Y9088946D01*
X17731196Y9100775D01*
X17662875Y9169096D01*
X17582539Y9222775D01*
X17493273Y9259750D01*
X17398510Y9278600D01*
X17301890Y9278600D01*
X17207127Y9259750D01*
X17117861Y9222775D01*
X17037525Y9169096D01*
X16969204Y9100775D01*
X16915525Y9020439D01*
X16878550Y8931173D01*
X16859700Y8836410D01*
X6075062Y8836410D01*
X6213840Y8975187D01*
X6196450Y9143577D01*
X6033007Y9196086D01*
X5862461Y9215700D01*
X5691365Y9201666D01*
X5526294Y9154522D01*
X5499870Y9143577D01*
X5482480Y8975187D01*
X1413839Y8975187D01*
X1613840Y9175187D01*
X1596450Y9343577D01*
X1433007Y9396086D01*
X1262461Y9415700D01*
X1091365Y9401666D01*
X926294Y9354522D01*
X899870Y9343577D01*
X882480Y9175187D01*
X197500Y9175187D01*
X197500Y9636410D01*
X15748600Y9636410D01*
X15748600Y9539790D01*
X15767450Y9445027D01*
X15804425Y9355761D01*
X15858104Y9275425D01*
X15926425Y9207104D01*
X16006761Y9153425D01*
X16096027Y9116450D01*
X16190790Y9097600D01*
X16287410Y9097600D01*
X16382173Y9116450D01*
X16471439Y9153425D01*
X16551775Y9207104D01*
X16620096Y9275425D01*
X16673775Y9355761D01*
X16710750Y9445027D01*
X16729600Y9539790D01*
X16729600Y9636410D01*
X16715720Y9706190D01*
X21068800Y9706190D01*
X21068800Y9609570D01*
X21087650Y9514807D01*
X21124625Y9425541D01*
X21178304Y9345205D01*
X21246625Y9276884D01*
X21326961Y9223205D01*
X21416227Y9186230D01*
X21510990Y9167380D01*
X21579219Y9167380D01*
X21569180Y9116910D01*
X21569180Y9020290D01*
X21588030Y8925527D01*
X21625005Y8836261D01*
X21678684Y8755925D01*
X21747005Y8687604D01*
X21827341Y8633925D01*
X21916607Y8596950D01*
X22011370Y8578100D01*
X22107990Y8578100D01*
X22202753Y8596950D01*
X22292019Y8633925D01*
X22372355Y8687604D01*
X22440676Y8755925D01*
X22494355Y8836261D01*
X22531330Y8925527D01*
X22550180Y9020290D01*
X22550180Y9116910D01*
X22531330Y9211673D01*
X22494355Y9300939D01*
X22440676Y9381275D01*
X22372355Y9449596D01*
X22292019Y9503275D01*
X22202753Y9540250D01*
X22107990Y9559100D01*
X22039761Y9559100D01*
X22049800Y9609570D01*
X22049800Y9706190D01*
X22030950Y9800953D01*
X21993975Y9890219D01*
X21940296Y9970555D01*
X21871975Y10038876D01*
X21791639Y10092555D01*
X21702373Y10129530D01*
X21607610Y10148380D01*
X21510990Y10148380D01*
X21416227Y10129530D01*
X21326961Y10092555D01*
X21246625Y10038876D01*
X21178304Y9970555D01*
X21124625Y9890219D01*
X21087650Y9800953D01*
X21068800Y9706190D01*
X16715720Y9706190D01*
X16710750Y9731173D01*
X16673775Y9820439D01*
X16620096Y9900775D01*
X16551775Y9969096D01*
X16471439Y10022775D01*
X16382173Y10059750D01*
X16287410Y10078600D01*
X16190790Y10078600D01*
X16096027Y10059750D01*
X16006761Y10022775D01*
X15926425Y9969096D01*
X15858104Y9900775D01*
X15804425Y9820439D01*
X15767450Y9731173D01*
X15748600Y9636410D01*
X197500Y9636410D01*
X197500Y10105013D01*
X882480Y10105013D01*
X899870Y9936623D01*
X1063313Y9884114D01*
X1233859Y9864500D01*
X1404955Y9878534D01*
X1570026Y9925678D01*
X1596450Y9936623D01*
X1613840Y10105013D01*
X1413840Y10305013D01*
X5482480Y10305013D01*
X5499870Y10136623D01*
X5663313Y10084114D01*
X5833859Y10064500D01*
X6004955Y10078534D01*
X6170026Y10125678D01*
X6196450Y10136623D01*
X6213840Y10305013D01*
X6065840Y10453013D01*
X16773420Y10453013D01*
X16790810Y10284623D01*
X16954253Y10232114D01*
X17124799Y10212500D01*
X17295895Y10226534D01*
X17460966Y10273678D01*
X17487390Y10284623D01*
X17504780Y10453013D01*
X18973420Y10453013D01*
X18990810Y10284623D01*
X19154253Y10232114D01*
X19324799Y10212500D01*
X19495895Y10226534D01*
X19660966Y10273678D01*
X19687390Y10284623D01*
X19704780Y10453013D01*
X19339100Y10818692D01*
X18973420Y10453013D01*
X17504780Y10453013D01*
X17139100Y10818692D01*
X16773420Y10453013D01*
X6065840Y10453013D01*
X5848160Y10670692D01*
X5482480Y10305013D01*
X1413840Y10305013D01*
X1248160Y10470692D01*
X882480Y10105013D01*
X197500Y10105013D01*
X197500Y10754401D01*
X372560Y10754401D01*
X386594Y10583305D01*
X433738Y10418234D01*
X444683Y10391810D01*
X613073Y10374420D01*
X978752Y10740100D01*
X1517568Y10740100D01*
X1883247Y10374420D01*
X2051637Y10391810D01*
X2104146Y10555253D01*
X2123760Y10725799D01*
X2109726Y10896895D01*
X2093303Y10954401D01*
X4972560Y10954401D01*
X4986594Y10783305D01*
X5033738Y10618234D01*
X5044683Y10591810D01*
X5213073Y10574420D01*
X5578752Y10940100D01*
X6117568Y10940100D01*
X6483247Y10574420D01*
X6651637Y10591810D01*
X6704146Y10755253D01*
X6723760Y10925799D01*
X6709726Y11096895D01*
X6662582Y11261966D01*
X6651637Y11288390D01*
X6483247Y11305780D01*
X6117568Y10940100D01*
X5578752Y10940100D01*
X5213073Y11305780D01*
X5044683Y11288390D01*
X4992174Y11124947D01*
X4972560Y10954401D01*
X2093303Y10954401D01*
X2062582Y11061966D01*
X2051637Y11088390D01*
X1883247Y11105780D01*
X1517568Y10740100D01*
X978752Y10740100D01*
X613073Y11105780D01*
X444683Y11088390D01*
X392174Y10924947D01*
X372560Y10754401D01*
X197500Y10754401D01*
X197500Y11375187D01*
X882480Y11375187D01*
X1248160Y11009508D01*
X1543665Y11305013D01*
X2092480Y11305013D01*
X2109870Y11136623D01*
X2273313Y11084114D01*
X2443859Y11064500D01*
X2614955Y11078534D01*
X2780026Y11125678D01*
X2806450Y11136623D01*
X2823840Y11305013D01*
X4262480Y11305013D01*
X4279870Y11136623D01*
X4443313Y11084114D01*
X4613859Y11064500D01*
X4784955Y11078534D01*
X4950026Y11125678D01*
X4976450Y11136623D01*
X4993840Y11305013D01*
X4628160Y11670692D01*
X4262480Y11305013D01*
X2823840Y11305013D01*
X2458160Y11670692D01*
X2092480Y11305013D01*
X1543665Y11305013D01*
X1613840Y11375187D01*
X1596450Y11543577D01*
X1433007Y11596086D01*
X1262461Y11615700D01*
X1091365Y11601666D01*
X926294Y11554522D01*
X899870Y11543577D01*
X882480Y11375187D01*
X197500Y11375187D01*
X197500Y11954401D01*
X1582560Y11954401D01*
X1596594Y11783305D01*
X1643738Y11618234D01*
X1654683Y11591810D01*
X1823073Y11574420D01*
X2188752Y11940100D01*
X2727568Y11940100D01*
X3093247Y11574420D01*
X3261637Y11591810D01*
X3314146Y11755253D01*
X3333760Y11925799D01*
X3331414Y11954401D01*
X3752560Y11954401D01*
X3766594Y11783305D01*
X3813738Y11618234D01*
X3824683Y11591810D01*
X3993073Y11574420D01*
X4358752Y11940100D01*
X4897568Y11940100D01*
X5263247Y11574420D01*
X5270673Y11575187D01*
X5482480Y11575187D01*
X5848160Y11209508D01*
X6213840Y11575187D01*
X6196450Y11743577D01*
X6033007Y11796086D01*
X5978098Y11802401D01*
X16263500Y11802401D01*
X16277534Y11631305D01*
X16324678Y11466234D01*
X16335623Y11439810D01*
X16352181Y11438100D01*
X16335623Y11436390D01*
X16283114Y11272947D01*
X16263500Y11102401D01*
X16277534Y10931305D01*
X16324678Y10766234D01*
X16335623Y10739810D01*
X16504013Y10722420D01*
X16788508Y11006916D01*
X16790810Y10984623D01*
X16954253Y10932114D01*
X17124799Y10912500D01*
X17295895Y10926534D01*
X17460966Y10973678D01*
X17487390Y10984623D01*
X17489692Y11006916D01*
X17774187Y10722420D01*
X17942577Y10739810D01*
X17995086Y10903253D01*
X18014700Y11073799D01*
X18012354Y11102401D01*
X18463500Y11102401D01*
X18477534Y10931305D01*
X18524678Y10766234D01*
X18535623Y10739810D01*
X18704013Y10722420D01*
X19069692Y11088100D01*
X19608508Y11088100D01*
X19974187Y10722420D01*
X20142577Y10739810D01*
X20195086Y10903253D01*
X20214700Y11073799D01*
X20200666Y11244895D01*
X20153522Y11409966D01*
X20142577Y11436390D01*
X19974187Y11453780D01*
X19608508Y11088100D01*
X19069692Y11088100D01*
X18704013Y11453780D01*
X18535623Y11436390D01*
X18483114Y11272947D01*
X18463500Y11102401D01*
X18012354Y11102401D01*
X18000666Y11244895D01*
X17953522Y11409966D01*
X17942577Y11436390D01*
X17926019Y11438100D01*
X17942577Y11439810D01*
X17995086Y11603253D01*
X18014700Y11773799D01*
X18000666Y11944895D01*
X17969788Y12053013D01*
X18973420Y12053013D01*
X18990451Y11888100D01*
X18973420Y11723187D01*
X19339100Y11357508D01*
X19704780Y11723187D01*
X19687749Y11888100D01*
X19704780Y12053013D01*
X19339100Y12418692D01*
X18973420Y12053013D01*
X17969788Y12053013D01*
X17953522Y12109966D01*
X17942577Y12136390D01*
X17774187Y12153780D01*
X17489692Y11869284D01*
X17487390Y11891577D01*
X17323947Y11944086D01*
X17153401Y11963700D01*
X16982305Y11949666D01*
X16817234Y11902522D01*
X16790810Y11891577D01*
X16788508Y11869284D01*
X16504013Y12153780D01*
X16335623Y12136390D01*
X16283114Y11972947D01*
X16263500Y11802401D01*
X5978098Y11802401D01*
X5862461Y11815700D01*
X5691365Y11801666D01*
X5526294Y11754522D01*
X5499870Y11743577D01*
X5482480Y11575187D01*
X5270673Y11575187D01*
X5431637Y11591810D01*
X5484146Y11755253D01*
X5503760Y11925799D01*
X5489726Y12096895D01*
X5442582Y12261966D01*
X5431637Y12288390D01*
X5263247Y12305780D01*
X4897568Y11940100D01*
X4358752Y11940100D01*
X3993073Y12305780D01*
X3824683Y12288390D01*
X3772174Y12124947D01*
X3752560Y11954401D01*
X3331414Y11954401D01*
X3319726Y12096895D01*
X3272582Y12261966D01*
X3261637Y12288390D01*
X3093247Y12305780D01*
X2727568Y11940100D01*
X2188752Y11940100D01*
X1823073Y12305780D01*
X1654683Y12288390D01*
X1602174Y12124947D01*
X1582560Y11954401D01*
X197500Y11954401D01*
X197500Y12811013D01*
X2062480Y12811013D01*
X2079870Y12642623D01*
X2098816Y12636536D01*
X2092480Y12575187D01*
X2458160Y12209508D01*
X2823840Y12575187D01*
X4262480Y12575187D01*
X4628160Y12209508D01*
X4993840Y12575187D01*
X4988350Y12628343D01*
X5000026Y12631678D01*
X5026450Y12642623D01*
X5043840Y12811013D01*
X4784243Y13070610D01*
X14505200Y13070610D01*
X14505200Y12973990D01*
X14524050Y12879227D01*
X14561025Y12789961D01*
X14614704Y12709625D01*
X14657629Y12666700D01*
X14614704Y12623775D01*
X14561025Y12543439D01*
X14524050Y12454173D01*
X14505200Y12359410D01*
X14505200Y12262790D01*
X14524050Y12168027D01*
X14561025Y12078761D01*
X14614704Y11998425D01*
X14683025Y11930104D01*
X14763361Y11876425D01*
X14852627Y11839450D01*
X14947390Y11820600D01*
X15044010Y11820600D01*
X15138773Y11839450D01*
X15228039Y11876425D01*
X15308375Y11930104D01*
X15376696Y11998425D01*
X15430375Y12078761D01*
X15467350Y12168027D01*
X15486200Y12262790D01*
X15486200Y12359410D01*
X15473514Y12423187D01*
X16773420Y12423187D01*
X17139100Y12057508D01*
X17504780Y12423187D01*
X17487390Y12591577D01*
X17323947Y12644086D01*
X17153401Y12663700D01*
X16982305Y12649666D01*
X16817234Y12602522D01*
X16790810Y12591577D01*
X16773420Y12423187D01*
X15473514Y12423187D01*
X15467350Y12454173D01*
X15430375Y12543439D01*
X15376696Y12623775D01*
X15333771Y12666700D01*
X15369472Y12702401D01*
X18463500Y12702401D01*
X18477534Y12531305D01*
X18524678Y12366234D01*
X18535623Y12339810D01*
X18704013Y12322420D01*
X19069692Y12688100D01*
X19608508Y12688100D01*
X19974187Y12322420D01*
X20142577Y12339810D01*
X20195086Y12503253D01*
X20214700Y12673799D01*
X20200666Y12844895D01*
X20153522Y13009966D01*
X20142577Y13036390D01*
X19974187Y13053780D01*
X19608508Y12688100D01*
X19069692Y12688100D01*
X18704013Y13053780D01*
X18535623Y13036390D01*
X18483114Y12872947D01*
X18463500Y12702401D01*
X15369472Y12702401D01*
X15376696Y12709625D01*
X15430375Y12789961D01*
X15467350Y12879227D01*
X15482027Y12953013D01*
X16773420Y12953013D01*
X16790810Y12784623D01*
X16954253Y12732114D01*
X17124799Y12712500D01*
X17295895Y12726534D01*
X17460966Y12773678D01*
X17487390Y12784623D01*
X17504780Y12953013D01*
X17139100Y13318692D01*
X16773420Y12953013D01*
X15482027Y12953013D01*
X15486200Y12973990D01*
X15486200Y13070610D01*
X15467350Y13165373D01*
X15430375Y13254639D01*
X15376696Y13334975D01*
X15308375Y13403296D01*
X15228039Y13456975D01*
X15138773Y13493950D01*
X15044010Y13512800D01*
X14947390Y13512800D01*
X14852627Y13493950D01*
X14763361Y13456975D01*
X14683025Y13403296D01*
X14614704Y13334975D01*
X14561025Y13254639D01*
X14524050Y13165373D01*
X14505200Y13070610D01*
X4784243Y13070610D01*
X4678160Y13176692D01*
X4312480Y12811013D01*
X4317970Y12757857D01*
X4306294Y12754522D01*
X4279870Y12743577D01*
X4262480Y12575187D01*
X2823840Y12575187D01*
X2806450Y12743577D01*
X2787504Y12749664D01*
X2793840Y12811013D01*
X2428160Y13176692D01*
X2062480Y12811013D01*
X197500Y12811013D01*
X197500Y13460401D01*
X1552560Y13460401D01*
X1566594Y13289305D01*
X1613738Y13124234D01*
X1624683Y13097810D01*
X1793073Y13080420D01*
X2158752Y13446100D01*
X2697568Y13446100D01*
X3063247Y13080420D01*
X3231637Y13097810D01*
X3284146Y13261253D01*
X3303760Y13431799D01*
X3301414Y13460401D01*
X3802560Y13460401D01*
X3816594Y13289305D01*
X3863738Y13124234D01*
X3874683Y13097810D01*
X4043073Y13080420D01*
X4408752Y13446100D01*
X4947568Y13446100D01*
X5313247Y13080420D01*
X5481637Y13097810D01*
X5534146Y13261253D01*
X5553760Y13431799D01*
X5539726Y13602895D01*
X5534404Y13621528D01*
X5663313Y13580114D01*
X5833859Y13560500D01*
X6004955Y13574534D01*
X6170026Y13621678D01*
X6196450Y13632623D01*
X6213840Y13801013D01*
X5848160Y14166692D01*
X5482480Y13801013D01*
X5483671Y13789479D01*
X5481637Y13794390D01*
X5313247Y13811780D01*
X4947568Y13446100D01*
X4408752Y13446100D01*
X4043073Y13811780D01*
X3874683Y13794390D01*
X3822174Y13630947D01*
X3802560Y13460401D01*
X3301414Y13460401D01*
X3289726Y13602895D01*
X3242582Y13767966D01*
X3231637Y13794390D01*
X3063247Y13811780D01*
X2697568Y13446100D01*
X2158752Y13446100D01*
X1793073Y13811780D01*
X1624683Y13794390D01*
X1572174Y13630947D01*
X1552560Y13460401D01*
X197500Y13460401D01*
X197500Y14001013D01*
X882480Y14001013D01*
X899870Y13832623D01*
X1063313Y13780114D01*
X1233859Y13760500D01*
X1404955Y13774534D01*
X1570026Y13821678D01*
X1596450Y13832623D01*
X1613840Y14001013D01*
X1533666Y14081187D01*
X2062480Y14081187D01*
X2428160Y13715508D01*
X2793840Y14081187D01*
X4312480Y14081187D01*
X4678160Y13715508D01*
X5043840Y14081187D01*
X5042649Y14092721D01*
X5044683Y14087810D01*
X5213073Y14070420D01*
X5578752Y14436100D01*
X6117568Y14436100D01*
X6483247Y14070420D01*
X6651637Y14087810D01*
X6704146Y14251253D01*
X6710028Y14302401D01*
X16263500Y14302401D01*
X16277534Y14131305D01*
X16324678Y13966234D01*
X16335623Y13939810D01*
X16352181Y13938100D01*
X16335623Y13936390D01*
X16283114Y13772947D01*
X16263500Y13602401D01*
X16277534Y13431305D01*
X16324678Y13266234D01*
X16335623Y13239810D01*
X16504013Y13222420D01*
X16788508Y13506916D01*
X16790810Y13484623D01*
X16954253Y13432114D01*
X17124799Y13412500D01*
X17295895Y13426534D01*
X17460966Y13473678D01*
X17487390Y13484623D01*
X17489692Y13506916D01*
X17774187Y13222420D01*
X17942577Y13239810D01*
X17995086Y13403253D01*
X18014700Y13573799D01*
X18008203Y13653013D01*
X18973420Y13653013D01*
X18990451Y13488100D01*
X18973420Y13323187D01*
X19339100Y12957508D01*
X19704780Y13323187D01*
X19687749Y13488100D01*
X19704780Y13653013D01*
X19339100Y14018692D01*
X18973420Y13653013D01*
X18008203Y13653013D01*
X18000666Y13744895D01*
X17953522Y13909966D01*
X17942577Y13936390D01*
X17926019Y13938100D01*
X17942577Y13939810D01*
X17995086Y14103253D01*
X18014700Y14273799D01*
X18012354Y14302401D01*
X18463500Y14302401D01*
X18477534Y14131305D01*
X18524678Y13966234D01*
X18535623Y13939810D01*
X18704013Y13922420D01*
X19069692Y14288100D01*
X19608508Y14288100D01*
X19974187Y13922420D01*
X20142577Y13939810D01*
X20195086Y14103253D01*
X20214700Y14273799D01*
X20200666Y14444895D01*
X20153522Y14609966D01*
X20142577Y14636390D01*
X19974187Y14653780D01*
X19608508Y14288100D01*
X19069692Y14288100D01*
X18704013Y14653780D01*
X18535623Y14636390D01*
X18483114Y14472947D01*
X18463500Y14302401D01*
X18012354Y14302401D01*
X18000666Y14444895D01*
X17953522Y14609966D01*
X17942577Y14636390D01*
X17774187Y14653780D01*
X17489692Y14369284D01*
X17487390Y14391577D01*
X17323947Y14444086D01*
X17153401Y14463700D01*
X16982305Y14449666D01*
X16817234Y14402522D01*
X16790810Y14391577D01*
X16788508Y14369284D01*
X16504013Y14653780D01*
X16335623Y14636390D01*
X16283114Y14472947D01*
X16263500Y14302401D01*
X6710028Y14302401D01*
X6723760Y14421799D01*
X6709726Y14592895D01*
X6662582Y14757966D01*
X6651637Y14784390D01*
X6483247Y14801780D01*
X6117568Y14436100D01*
X5578752Y14436100D01*
X5213073Y14801780D01*
X5044683Y14784390D01*
X4992174Y14620947D01*
X4972560Y14450401D01*
X4986594Y14279305D01*
X4991916Y14260672D01*
X4863007Y14302086D01*
X4692461Y14321700D01*
X4521365Y14307666D01*
X4356294Y14260522D01*
X4329870Y14249577D01*
X4312480Y14081187D01*
X2793840Y14081187D01*
X2776450Y14249577D01*
X2613007Y14302086D01*
X2442461Y14321700D01*
X2271365Y14307666D01*
X2106294Y14260522D01*
X2079870Y14249577D01*
X2062480Y14081187D01*
X1533666Y14081187D01*
X1248160Y14366692D01*
X882480Y14001013D01*
X197500Y14001013D01*
X197500Y14650401D01*
X372560Y14650401D01*
X386594Y14479305D01*
X433738Y14314234D01*
X444683Y14287810D01*
X613073Y14270420D01*
X978752Y14636100D01*
X1517568Y14636100D01*
X1883247Y14270420D01*
X2051637Y14287810D01*
X2104146Y14451253D01*
X2123760Y14621799D01*
X2109726Y14792895D01*
X2062582Y14957966D01*
X2051637Y14984390D01*
X1883247Y15001780D01*
X1517568Y14636100D01*
X978752Y14636100D01*
X613073Y15001780D01*
X444683Y14984390D01*
X392174Y14820947D01*
X372560Y14650401D01*
X197500Y14650401D01*
X197500Y15271187D01*
X882480Y15271187D01*
X1248160Y14905508D01*
X1413839Y15071187D01*
X5482480Y15071187D01*
X5848160Y14705508D01*
X6065839Y14923187D01*
X16773420Y14923187D01*
X17139100Y14557508D01*
X17504780Y14923187D01*
X18973420Y14923187D01*
X19339100Y14557508D01*
X19704780Y14923187D01*
X19687390Y15091577D01*
X19523947Y15144086D01*
X19353401Y15163700D01*
X19182305Y15149666D01*
X19017234Y15102522D01*
X18990810Y15091577D01*
X18973420Y14923187D01*
X17504780Y14923187D01*
X17487390Y15091577D01*
X17323947Y15144086D01*
X17153401Y15163700D01*
X16982305Y15149666D01*
X16817234Y15102522D01*
X16790810Y15091577D01*
X16773420Y14923187D01*
X6065839Y14923187D01*
X6213840Y15071187D01*
X6196450Y15239577D01*
X6033007Y15292086D01*
X5862461Y15311700D01*
X5691365Y15297666D01*
X5526294Y15250522D01*
X5499870Y15239577D01*
X5482480Y15071187D01*
X1413839Y15071187D01*
X1613840Y15271187D01*
X1596450Y15439577D01*
X1433007Y15492086D01*
X1262461Y15511700D01*
X1091365Y15497666D01*
X926294Y15450522D01*
X899870Y15439577D01*
X882480Y15271187D01*
X197500Y15271187D01*
X197500Y15811410D01*
X15745600Y15811410D01*
X15745600Y15714790D01*
X15764450Y15620027D01*
X15801425Y15530761D01*
X15855104Y15450425D01*
X15923425Y15382104D01*
X16003761Y15328425D01*
X16093027Y15291450D01*
X16187790Y15272600D01*
X16284410Y15272600D01*
X16379173Y15291450D01*
X16468439Y15328425D01*
X16548775Y15382104D01*
X16617096Y15450425D01*
X16670775Y15530761D01*
X16707750Y15620027D01*
X16726600Y15714790D01*
X16726600Y15811410D01*
X16707750Y15906173D01*
X16670775Y15995439D01*
X16617096Y16075775D01*
X16590961Y16101910D01*
X21399000Y16101910D01*
X21399000Y16005290D01*
X21417850Y15910527D01*
X21454825Y15821261D01*
X21508504Y15740925D01*
X21576825Y15672604D01*
X21657161Y15618925D01*
X21746427Y15581950D01*
X21841190Y15563100D01*
X21937810Y15563100D01*
X22032573Y15581950D01*
X22121839Y15618925D01*
X22202175Y15672604D01*
X22270496Y15740925D01*
X22316523Y15809810D01*
X28345900Y15809810D01*
X28345900Y15713190D01*
X28364750Y15618427D01*
X28401725Y15529161D01*
X28455404Y15448825D01*
X28523725Y15380504D01*
X28604061Y15326825D01*
X28693327Y15289850D01*
X28788090Y15271000D01*
X28884710Y15271000D01*
X28979473Y15289850D01*
X29068739Y15326825D01*
X29149075Y15380504D01*
X29217396Y15448825D01*
X29271075Y15529161D01*
X29308050Y15618427D01*
X29326900Y15713190D01*
X29326900Y15809810D01*
X29308050Y15904573D01*
X29271075Y15993839D01*
X29217396Y16074175D01*
X29149075Y16142496D01*
X29068739Y16196175D01*
X28979473Y16233150D01*
X28884710Y16252000D01*
X28788090Y16252000D01*
X28693327Y16233150D01*
X28604061Y16196175D01*
X28523725Y16142496D01*
X28455404Y16074175D01*
X28401725Y15993839D01*
X28364750Y15904573D01*
X28345900Y15809810D01*
X22316523Y15809810D01*
X22324175Y15821261D01*
X22361150Y15910527D01*
X22380000Y16005290D01*
X22380000Y16101910D01*
X22361150Y16196673D01*
X22324175Y16285939D01*
X22270496Y16366275D01*
X22202175Y16434596D01*
X22121839Y16488275D01*
X22032573Y16525250D01*
X21937810Y16544100D01*
X21841190Y16544100D01*
X21746427Y16525250D01*
X21657161Y16488275D01*
X21576825Y16434596D01*
X21508504Y16366275D01*
X21454825Y16285939D01*
X21417850Y16196673D01*
X21399000Y16101910D01*
X16590961Y16101910D01*
X16548775Y16144096D01*
X16468439Y16197775D01*
X16379173Y16234750D01*
X16284410Y16253600D01*
X16187790Y16253600D01*
X16093027Y16234750D01*
X16003761Y16197775D01*
X15923425Y16144096D01*
X15855104Y16075775D01*
X15801425Y15995439D01*
X15764450Y15906173D01*
X15745600Y15811410D01*
X197500Y15811410D01*
X197500Y16201013D01*
X882480Y16201013D01*
X899870Y16032623D01*
X1063313Y15980114D01*
X1233859Y15960500D01*
X1404955Y15974534D01*
X1570026Y16021678D01*
X1596450Y16032623D01*
X1613840Y16201013D01*
X1413840Y16401013D01*
X5482480Y16401013D01*
X5499870Y16232623D01*
X5663313Y16180114D01*
X5833859Y16160500D01*
X6004955Y16174534D01*
X6170026Y16221678D01*
X6196450Y16232623D01*
X6213840Y16401013D01*
X5848160Y16766692D01*
X5482480Y16401013D01*
X1413840Y16401013D01*
X1248160Y16566692D01*
X882480Y16201013D01*
X197500Y16201013D01*
X197500Y16850401D01*
X372560Y16850401D01*
X386594Y16679305D01*
X433738Y16514234D01*
X444683Y16487810D01*
X613073Y16470420D01*
X978752Y16836100D01*
X1517568Y16836100D01*
X1883247Y16470420D01*
X2051637Y16487810D01*
X2104146Y16651253D01*
X2123760Y16821799D01*
X2109726Y16992895D01*
X2093303Y17050401D01*
X4972560Y17050401D01*
X4986594Y16879305D01*
X5033738Y16714234D01*
X5044683Y16687810D01*
X5213073Y16670420D01*
X5578752Y17036100D01*
X6117568Y17036100D01*
X6483247Y16670420D01*
X6651637Y16687810D01*
X6704146Y16851253D01*
X6723760Y17021799D01*
X6721086Y17054410D01*
X16859700Y17054410D01*
X16859700Y16957790D01*
X16878550Y16863027D01*
X16915525Y16773761D01*
X16969204Y16693425D01*
X17037525Y16625104D01*
X17117861Y16571425D01*
X17207127Y16534450D01*
X17301890Y16515600D01*
X17398510Y16515600D01*
X17493273Y16534450D01*
X17582539Y16571425D01*
X17662875Y16625104D01*
X17731196Y16693425D01*
X17739100Y16705254D01*
X17747004Y16693425D01*
X17815325Y16625104D01*
X17895661Y16571425D01*
X17984927Y16534450D01*
X18079690Y16515600D01*
X18176310Y16515600D01*
X18271073Y16534450D01*
X18360339Y16571425D01*
X18440675Y16625104D01*
X18508996Y16693425D01*
X18562675Y16773761D01*
X18599650Y16863027D01*
X18618500Y16957790D01*
X18618500Y17050190D01*
X18637187Y17042450D01*
X18731950Y17023600D01*
X18828570Y17023600D01*
X18923333Y17042450D01*
X19012599Y17079425D01*
X19092935Y17133104D01*
X19161256Y17201425D01*
X19169160Y17213254D01*
X19177064Y17201425D01*
X19245385Y17133104D01*
X19325721Y17079425D01*
X19414987Y17042450D01*
X19509750Y17023600D01*
X19558321Y17023600D01*
X19532125Y17006096D01*
X19463804Y16937775D01*
X19410125Y16857439D01*
X19373150Y16768173D01*
X19354300Y16673410D01*
X19354300Y16576790D01*
X19373150Y16482027D01*
X19410125Y16392761D01*
X19463804Y16312425D01*
X19532125Y16244104D01*
X19612461Y16190425D01*
X19701727Y16153450D01*
X19796490Y16134600D01*
X19893110Y16134600D01*
X19987873Y16153450D01*
X20077139Y16190425D01*
X20157475Y16244104D01*
X20225796Y16312425D01*
X20279475Y16392761D01*
X20316450Y16482027D01*
X20335300Y16576790D01*
X20335300Y16673410D01*
X20316450Y16768173D01*
X20279475Y16857439D01*
X20225796Y16937775D01*
X20157475Y17006096D01*
X20077139Y17059775D01*
X19987873Y17096750D01*
X19905628Y17113110D01*
X25704300Y17113110D01*
X25704300Y17016490D01*
X25723150Y16921727D01*
X25760125Y16832461D01*
X25813804Y16752125D01*
X25882125Y16683804D01*
X25962461Y16630125D01*
X26051727Y16593150D01*
X26146490Y16574300D01*
X26243110Y16574300D01*
X26337873Y16593150D01*
X26427139Y16630125D01*
X26507475Y16683804D01*
X26575796Y16752125D01*
X26629475Y16832461D01*
X26666450Y16921727D01*
X26685300Y17016490D01*
X26685300Y17113110D01*
X26666450Y17207873D01*
X26629475Y17297139D01*
X26575796Y17377475D01*
X26507475Y17445796D01*
X26427139Y17499475D01*
X26337873Y17536450D01*
X26243110Y17555300D01*
X26146490Y17555300D01*
X26051727Y17536450D01*
X25962461Y17499475D01*
X25882125Y17445796D01*
X25813804Y17377475D01*
X25760125Y17297139D01*
X25723150Y17207873D01*
X25704300Y17113110D01*
X19905628Y17113110D01*
X19893110Y17115600D01*
X19844539Y17115600D01*
X19870735Y17133104D01*
X19939056Y17201425D01*
X19992735Y17281761D01*
X20029710Y17371027D01*
X20048560Y17465790D01*
X20048560Y17562410D01*
X27495000Y17562410D01*
X27495000Y17465790D01*
X27513850Y17371027D01*
X27550825Y17281761D01*
X27604504Y17201425D01*
X27672825Y17133104D01*
X27753161Y17079425D01*
X27842427Y17042450D01*
X27937190Y17023600D01*
X28033810Y17023600D01*
X28128573Y17042450D01*
X28217839Y17079425D01*
X28298175Y17133104D01*
X28366496Y17201425D01*
X28420175Y17281761D01*
X28457150Y17371027D01*
X28476000Y17465790D01*
X28476000Y17562410D01*
X28457150Y17657173D01*
X28420175Y17746439D01*
X28366496Y17826775D01*
X28298175Y17895096D01*
X28217839Y17948775D01*
X28128573Y17985750D01*
X28033810Y18004600D01*
X27937190Y18004600D01*
X27842427Y17985750D01*
X27753161Y17948775D01*
X27672825Y17895096D01*
X27604504Y17826775D01*
X27550825Y17746439D01*
X27513850Y17657173D01*
X27495000Y17562410D01*
X20048560Y17562410D01*
X20029710Y17657173D01*
X19992735Y17746439D01*
X19939056Y17826775D01*
X19870735Y17895096D01*
X19790399Y17948775D01*
X19701133Y17985750D01*
X19606370Y18004600D01*
X19509750Y18004600D01*
X19414987Y17985750D01*
X19325721Y17948775D01*
X19245385Y17895096D01*
X19177064Y17826775D01*
X19169160Y17814946D01*
X19161256Y17826775D01*
X19092935Y17895096D01*
X19012599Y17948775D01*
X18923333Y17985750D01*
X18828570Y18004600D01*
X18731950Y18004600D01*
X18637187Y17985750D01*
X18547921Y17948775D01*
X18467585Y17895096D01*
X18399264Y17826775D01*
X18345585Y17746439D01*
X18308610Y17657173D01*
X18289760Y17562410D01*
X18289760Y17470010D01*
X18271073Y17477750D01*
X18176310Y17496600D01*
X18079690Y17496600D01*
X17984927Y17477750D01*
X17895661Y17440775D01*
X17815325Y17387096D01*
X17747004Y17318775D01*
X17739100Y17306946D01*
X17731196Y17318775D01*
X17662875Y17387096D01*
X17582539Y17440775D01*
X17493273Y17477750D01*
X17398510Y17496600D01*
X17301890Y17496600D01*
X17207127Y17477750D01*
X17117861Y17440775D01*
X17037525Y17387096D01*
X16969204Y17318775D01*
X16915525Y17238439D01*
X16878550Y17149173D01*
X16859700Y17054410D01*
X6721086Y17054410D01*
X6709726Y17192895D01*
X6662582Y17357966D01*
X6651637Y17384390D01*
X6483247Y17401780D01*
X6117568Y17036100D01*
X5578752Y17036100D01*
X5213073Y17401780D01*
X5044683Y17384390D01*
X4992174Y17220947D01*
X4972560Y17050401D01*
X2093303Y17050401D01*
X2062582Y17157966D01*
X2051637Y17184390D01*
X1883247Y17201780D01*
X1517568Y16836100D01*
X978752Y16836100D01*
X613073Y17201780D01*
X444683Y17184390D01*
X392174Y17020947D01*
X372560Y16850401D01*
X197500Y16850401D01*
X197500Y17471187D01*
X882480Y17471187D01*
X1248160Y17105508D01*
X1543665Y17401013D01*
X2092480Y17401013D01*
X2109870Y17232623D01*
X2273313Y17180114D01*
X2443859Y17160500D01*
X2614955Y17174534D01*
X2780026Y17221678D01*
X2806450Y17232623D01*
X2823840Y17401013D01*
X4262480Y17401013D01*
X4279870Y17232623D01*
X4443313Y17180114D01*
X4613859Y17160500D01*
X4784955Y17174534D01*
X4950026Y17221678D01*
X4976450Y17232623D01*
X4993840Y17401013D01*
X4628160Y17766692D01*
X4262480Y17401013D01*
X2823840Y17401013D01*
X2458160Y17766692D01*
X2092480Y17401013D01*
X1543665Y17401013D01*
X1613840Y17471187D01*
X1596450Y17639577D01*
X1433007Y17692086D01*
X1262461Y17711700D01*
X1091365Y17697666D01*
X926294Y17650522D01*
X899870Y17639577D01*
X882480Y17471187D01*
X197500Y17471187D01*
X197500Y18050401D01*
X1582560Y18050401D01*
X1596594Y17879305D01*
X1643738Y17714234D01*
X1654683Y17687810D01*
X1823073Y17670420D01*
X2188752Y18036100D01*
X2727568Y18036100D01*
X3093247Y17670420D01*
X3261637Y17687810D01*
X3314146Y17851253D01*
X3333760Y18021799D01*
X3331414Y18050401D01*
X3752560Y18050401D01*
X3766594Y17879305D01*
X3813738Y17714234D01*
X3824683Y17687810D01*
X3993073Y17670420D01*
X4358752Y18036100D01*
X4897568Y18036100D01*
X5263247Y17670420D01*
X5270673Y17671187D01*
X5482480Y17671187D01*
X5848160Y17305508D01*
X6213840Y17671187D01*
X6196450Y17839577D01*
X6033007Y17892086D01*
X5862461Y17911700D01*
X5691365Y17897666D01*
X5526294Y17850522D01*
X5499870Y17839577D01*
X5482480Y17671187D01*
X5270673Y17671187D01*
X5431637Y17687810D01*
X5484146Y17851253D01*
X5503760Y18021799D01*
X5489726Y18192895D01*
X5442582Y18357966D01*
X5431637Y18384390D01*
X5263247Y18401780D01*
X4897568Y18036100D01*
X4358752Y18036100D01*
X3993073Y18401780D01*
X3824683Y18384390D01*
X3772174Y18220947D01*
X3752560Y18050401D01*
X3331414Y18050401D01*
X3319726Y18192895D01*
X3272582Y18357966D01*
X3261637Y18384390D01*
X3093247Y18401780D01*
X2727568Y18036100D01*
X2188752Y18036100D01*
X1823073Y18401780D01*
X1654683Y18384390D01*
X1602174Y18220947D01*
X1582560Y18050401D01*
X197500Y18050401D01*
X197500Y18671187D01*
X2092480Y18671187D01*
X2458160Y18305508D01*
X2823840Y18671187D01*
X4262480Y18671187D01*
X4628160Y18305508D01*
X4993840Y18671187D01*
X4976450Y18839577D01*
X4813007Y18892086D01*
X4779757Y18895910D01*
X15620500Y18895910D01*
X15620500Y18799290D01*
X15639350Y18704527D01*
X15676325Y18615261D01*
X15730004Y18534925D01*
X15798325Y18466604D01*
X15878661Y18412925D01*
X15967927Y18375950D01*
X16062690Y18357100D01*
X16159310Y18357100D01*
X16254073Y18375950D01*
X16343339Y18412925D01*
X16423675Y18466604D01*
X16491996Y18534925D01*
X16545675Y18615261D01*
X16582650Y18704527D01*
X16601500Y18799290D01*
X16601500Y18895910D01*
X16582650Y18990673D01*
X16545675Y19079939D01*
X16491996Y19160275D01*
X16423675Y19228596D01*
X16343339Y19282275D01*
X16254073Y19319250D01*
X16159310Y19338100D01*
X16062690Y19338100D01*
X15967927Y19319250D01*
X15878661Y19282275D01*
X15798325Y19228596D01*
X15730004Y19160275D01*
X15676325Y19079939D01*
X15639350Y18990673D01*
X15620500Y18895910D01*
X4779757Y18895910D01*
X4642461Y18911700D01*
X4471365Y18897666D01*
X4306294Y18850522D01*
X4279870Y18839577D01*
X4262480Y18671187D01*
X2823840Y18671187D01*
X2806450Y18839577D01*
X2643007Y18892086D01*
X2472461Y18911700D01*
X2301365Y18897666D01*
X2136294Y18850522D01*
X2109870Y18839577D01*
X2092480Y18671187D01*
X197500Y18671187D01*
X197500Y19414818D01*
X20899569Y19414818D01*
X20910225Y19250822D01*
X21064711Y19202654D01*
X21225626Y19185549D01*
X21386786Y19200166D01*
X21541998Y19245944D01*
X21553775Y19250822D01*
X21564431Y19414818D01*
X21874569Y19414818D01*
X21885225Y19250822D01*
X22039711Y19202654D01*
X22200626Y19185549D01*
X22361786Y19200166D01*
X22516998Y19245944D01*
X22528775Y19250822D01*
X22539431Y19414818D01*
X22849569Y19414818D01*
X22860225Y19250822D01*
X23014711Y19202654D01*
X23175626Y19185549D01*
X23336786Y19200166D01*
X23491998Y19245944D01*
X23503775Y19250822D01*
X23514431Y19414818D01*
X23507839Y19421410D01*
X24235300Y19421410D01*
X24235300Y19324790D01*
X24254150Y19230027D01*
X24291125Y19140761D01*
X24343785Y19061950D01*
X24291125Y18983139D01*
X24254150Y18893873D01*
X24235300Y18799110D01*
X24235300Y18702490D01*
X24254150Y18607727D01*
X24291125Y18518461D01*
X24344804Y18438125D01*
X24413125Y18369804D01*
X24493461Y18316125D01*
X24582727Y18279150D01*
X24677490Y18260300D01*
X24774110Y18260300D01*
X24868873Y18279150D01*
X24958139Y18316125D01*
X25038475Y18369804D01*
X25106796Y18438125D01*
X25160475Y18518461D01*
X25174785Y18553010D01*
X30225500Y18553010D01*
X30225500Y18456390D01*
X30244350Y18361627D01*
X30281325Y18272361D01*
X30329742Y18199900D01*
X30281325Y18127439D01*
X30244350Y18038173D01*
X30225500Y17943410D01*
X30225500Y17846790D01*
X30244350Y17752027D01*
X30281325Y17662761D01*
X30335004Y17582425D01*
X30403325Y17514104D01*
X30483661Y17460425D01*
X30572927Y17423450D01*
X30667690Y17404600D01*
X30764310Y17404600D01*
X30859073Y17423450D01*
X30948339Y17460425D01*
X31028675Y17514104D01*
X31096996Y17582425D01*
X31150675Y17662761D01*
X31187650Y17752027D01*
X31206500Y17846790D01*
X31206500Y17943410D01*
X31187650Y18038173D01*
X31150675Y18127439D01*
X31102258Y18199900D01*
X31150675Y18272361D01*
X31187650Y18361627D01*
X31206500Y18456390D01*
X31206500Y18553010D01*
X31187650Y18647773D01*
X31150675Y18737039D01*
X31096996Y18817375D01*
X31028675Y18885696D01*
X30948339Y18939375D01*
X30859073Y18976350D01*
X30764310Y18995200D01*
X30667690Y18995200D01*
X30572927Y18976350D01*
X30483661Y18939375D01*
X30403325Y18885696D01*
X30335004Y18817375D01*
X30281325Y18737039D01*
X30244350Y18647773D01*
X30225500Y18553010D01*
X25174785Y18553010D01*
X25197450Y18607727D01*
X25216300Y18702490D01*
X25216300Y18799110D01*
X25197450Y18893873D01*
X25160475Y18983139D01*
X25107815Y19061950D01*
X25160475Y19140761D01*
X25197450Y19230027D01*
X25216300Y19324790D01*
X25216300Y19421410D01*
X25197450Y19516173D01*
X25160475Y19605439D01*
X25106796Y19685775D01*
X25038475Y19754096D01*
X25023189Y19764310D01*
X26267300Y19764310D01*
X26267300Y19667690D01*
X26286150Y19572927D01*
X26323125Y19483661D01*
X26376804Y19403325D01*
X26445125Y19335004D01*
X26525461Y19281325D01*
X26614727Y19244350D01*
X26709490Y19225500D01*
X26806110Y19225500D01*
X26900873Y19244350D01*
X26990139Y19281325D01*
X27070475Y19335004D01*
X27138796Y19403325D01*
X27192475Y19483661D01*
X27229450Y19572927D01*
X27248300Y19667690D01*
X27248300Y19764310D01*
X27229450Y19859073D01*
X27192475Y19948339D01*
X27138796Y20028675D01*
X27070475Y20096996D01*
X26990139Y20150675D01*
X26900873Y20187650D01*
X26806110Y20206500D01*
X26709490Y20206500D01*
X26614727Y20187650D01*
X26525461Y20150675D01*
X26445125Y20096996D01*
X26376804Y20028675D01*
X26323125Y19948339D01*
X26286150Y19859073D01*
X26267300Y19764310D01*
X25023189Y19764310D01*
X24958139Y19807775D01*
X24868873Y19844750D01*
X24774110Y19863600D01*
X24677490Y19863600D01*
X24582727Y19844750D01*
X24493461Y19807775D01*
X24413125Y19754096D01*
X24344804Y19685775D01*
X24291125Y19605439D01*
X24254150Y19516173D01*
X24235300Y19421410D01*
X23507839Y19421410D01*
X23182000Y19747249D01*
X22849569Y19414818D01*
X22539431Y19414818D01*
X22207000Y19747249D01*
X21874569Y19414818D01*
X21564431Y19414818D01*
X21232000Y19747249D01*
X20899569Y19414818D01*
X197500Y19414818D01*
X197500Y20424710D01*
X18632900Y20424710D01*
X18632900Y20328090D01*
X18651750Y20233327D01*
X18688725Y20144061D01*
X18742404Y20063725D01*
X18810725Y19995404D01*
X18891061Y19941725D01*
X18980327Y19904750D01*
X19075090Y19885900D01*
X19171710Y19885900D01*
X19266473Y19904750D01*
X19355739Y19941725D01*
X19436075Y19995404D01*
X19458045Y20017374D01*
X20406549Y20017374D01*
X20421166Y19856214D01*
X20466944Y19701002D01*
X20471822Y19689225D01*
X20635818Y19678569D01*
X20968249Y20011000D01*
X20635818Y20343431D01*
X20471822Y20332775D01*
X20423654Y20178289D01*
X20406549Y20017374D01*
X19458045Y20017374D01*
X19504396Y20063725D01*
X19558075Y20144061D01*
X19595050Y20233327D01*
X19613900Y20328090D01*
X19613900Y20424710D01*
X19595050Y20519473D01*
X19558075Y20608739D01*
X19504396Y20689075D01*
X19454750Y20738721D01*
X19497075Y20767001D01*
X19565396Y20835322D01*
X19619075Y20915658D01*
X19650851Y20992374D01*
X20406549Y20992374D01*
X20421166Y20831214D01*
X20466944Y20676002D01*
X20471822Y20664225D01*
X20635818Y20653569D01*
X20968249Y20986000D01*
X20635818Y21318431D01*
X20471822Y21307775D01*
X20423654Y21153289D01*
X20406549Y20992374D01*
X19650851Y20992374D01*
X19656050Y21004924D01*
X19674900Y21099687D01*
X19674900Y21196307D01*
X19656050Y21291070D01*
X19619075Y21380336D01*
X19565396Y21460672D01*
X19514570Y21511498D01*
X19565396Y21562325D01*
X19578664Y21582182D01*
X20899569Y21582182D01*
X21008251Y21473500D01*
X20899569Y21364818D01*
X20910225Y21200822D01*
X21064711Y21152654D01*
X21225626Y21135549D01*
X21386786Y21150166D01*
X21398784Y21153705D01*
X21398654Y21153289D01*
X21381549Y20992374D01*
X21396166Y20831214D01*
X21399705Y20819216D01*
X21399289Y20819346D01*
X21238374Y20836451D01*
X21077214Y20821834D01*
X20922002Y20776056D01*
X20910225Y20771178D01*
X20899569Y20607182D01*
X21008251Y20498500D01*
X20899569Y20389818D01*
X20910225Y20225822D01*
X21064711Y20177654D01*
X21225626Y20160549D01*
X21386786Y20175166D01*
X21398784Y20178705D01*
X21398654Y20178289D01*
X21381549Y20017374D01*
X21396166Y19856214D01*
X21441944Y19701002D01*
X21446822Y19689225D01*
X21610818Y19678569D01*
X21719500Y19787251D01*
X21828182Y19678569D01*
X21992178Y19689225D01*
X22040346Y19843711D01*
X22057451Y20004626D01*
X22042834Y20165786D01*
X22039295Y20177784D01*
X22039711Y20177654D01*
X22200626Y20160549D01*
X22361786Y20175166D01*
X22373784Y20178705D01*
X22373654Y20178289D01*
X22356549Y20017374D01*
X22371166Y19856214D01*
X22416944Y19701002D01*
X22421822Y19689225D01*
X22585818Y19678569D01*
X22694500Y19787251D01*
X22803182Y19678569D01*
X22967178Y19689225D01*
X23015346Y19843711D01*
X23032451Y20004626D01*
X23031873Y20011000D01*
X23445751Y20011000D01*
X23778182Y19678569D01*
X23942178Y19689225D01*
X23990346Y19843711D01*
X24007451Y20004626D01*
X23992834Y20165786D01*
X23947056Y20320998D01*
X23942178Y20332775D01*
X23778182Y20343431D01*
X23445751Y20011000D01*
X23031873Y20011000D01*
X23017834Y20165786D01*
X23014295Y20177784D01*
X23014711Y20177654D01*
X23175626Y20160549D01*
X23336786Y20175166D01*
X23491998Y20220944D01*
X23503775Y20225822D01*
X23514431Y20389818D01*
X23405749Y20498500D01*
X23514431Y20607182D01*
X23503775Y20771178D01*
X23349289Y20819346D01*
X23188374Y20836451D01*
X23027214Y20821834D01*
X23015216Y20818295D01*
X23015346Y20818711D01*
X23032451Y20979626D01*
X23031873Y20986000D01*
X23445751Y20986000D01*
X23778182Y20653569D01*
X23942178Y20664225D01*
X23946694Y20678710D01*
X30077300Y20678710D01*
X30077300Y20582090D01*
X30096150Y20487327D01*
X30133125Y20398061D01*
X30186804Y20317725D01*
X30255125Y20249404D01*
X30335461Y20195725D01*
X30424727Y20158750D01*
X30519490Y20139900D01*
X30616110Y20139900D01*
X30710873Y20158750D01*
X30800139Y20195725D01*
X30880475Y20249404D01*
X30948796Y20317725D01*
X31002475Y20398061D01*
X31039450Y20487327D01*
X31058300Y20582090D01*
X31058300Y20678710D01*
X31039450Y20773473D01*
X31002475Y20862739D01*
X30948796Y20943075D01*
X30880475Y21011396D01*
X30800139Y21065075D01*
X30710873Y21102050D01*
X30616110Y21120900D01*
X30519490Y21120900D01*
X30424727Y21102050D01*
X30335461Y21065075D01*
X30255125Y21011396D01*
X30186804Y20943075D01*
X30133125Y20862739D01*
X30096150Y20773473D01*
X30077300Y20678710D01*
X23946694Y20678710D01*
X23990346Y20818711D01*
X24007451Y20979626D01*
X23992834Y21140786D01*
X23947056Y21295998D01*
X23942178Y21307775D01*
X23778182Y21318431D01*
X23445751Y20986000D01*
X23031873Y20986000D01*
X23017834Y21140786D01*
X23014295Y21152784D01*
X23014711Y21152654D01*
X23175626Y21135549D01*
X23336786Y21150166D01*
X23491998Y21195944D01*
X23503775Y21200822D01*
X23514431Y21364818D01*
X23405749Y21473500D01*
X23514431Y21582182D01*
X23503775Y21746178D01*
X23349289Y21794346D01*
X23188374Y21811451D01*
X23027214Y21796834D01*
X23015216Y21793295D01*
X23015346Y21793711D01*
X23032451Y21954626D01*
X23031873Y21961000D01*
X23445751Y21961000D01*
X23778182Y21628569D01*
X23942178Y21639225D01*
X23990346Y21793711D01*
X24007451Y21954626D01*
X23992834Y22115786D01*
X23947056Y22270998D01*
X23942178Y22282775D01*
X23778182Y22293431D01*
X23445751Y21961000D01*
X23031873Y21961000D01*
X23017834Y22115786D01*
X22972056Y22270998D01*
X22967178Y22282775D01*
X22803182Y22293431D01*
X22694500Y22184749D01*
X22585818Y22293431D01*
X22421822Y22282775D01*
X22373654Y22128289D01*
X22356549Y21967374D01*
X22371166Y21806214D01*
X22374705Y21794216D01*
X22374289Y21794346D01*
X22213374Y21811451D01*
X22052214Y21796834D01*
X22040216Y21793295D01*
X22040346Y21793711D01*
X22057451Y21954626D01*
X22042834Y22115786D01*
X21997056Y22270998D01*
X21992178Y22282775D01*
X21828182Y22293431D01*
X21719500Y22184749D01*
X21610818Y22293431D01*
X21446822Y22282775D01*
X21398654Y22128289D01*
X21381549Y21967374D01*
X21396166Y21806214D01*
X21399705Y21794216D01*
X21399289Y21794346D01*
X21238374Y21811451D01*
X21077214Y21796834D01*
X20922002Y21751056D01*
X20910225Y21746178D01*
X20899569Y21582182D01*
X19578664Y21582182D01*
X19619075Y21642661D01*
X19656050Y21731927D01*
X19674900Y21826690D01*
X19674900Y21923310D01*
X19666135Y21967374D01*
X20406549Y21967374D01*
X20421166Y21806214D01*
X20466944Y21651002D01*
X20471822Y21639225D01*
X20635818Y21628569D01*
X20968249Y21961000D01*
X20635818Y22293431D01*
X20471822Y22282775D01*
X20423654Y22128289D01*
X20406549Y21967374D01*
X19666135Y21967374D01*
X19656050Y22018073D01*
X19619075Y22107339D01*
X19565396Y22187675D01*
X19497075Y22255996D01*
X19416739Y22309675D01*
X19327473Y22346650D01*
X19232710Y22365500D01*
X19136090Y22365500D01*
X19041327Y22346650D01*
X18952061Y22309675D01*
X18871725Y22255996D01*
X18803404Y22187675D01*
X18749725Y22107339D01*
X18712750Y22018073D01*
X18693900Y21923310D01*
X18693900Y21826690D01*
X18712750Y21731927D01*
X18749725Y21642661D01*
X18803404Y21562325D01*
X18854231Y21511498D01*
X18803404Y21460672D01*
X18749725Y21380336D01*
X18712750Y21291070D01*
X18693900Y21196307D01*
X18693900Y21099687D01*
X18712750Y21004924D01*
X18749725Y20915658D01*
X18803404Y20835322D01*
X18853050Y20785676D01*
X18810725Y20757396D01*
X18742404Y20689075D01*
X18688725Y20608739D01*
X18651750Y20519473D01*
X18632900Y20424710D01*
X197500Y20424710D01*
X197500Y21816910D01*
X15493500Y21816910D01*
X15493500Y21720290D01*
X15512350Y21625527D01*
X15549325Y21536261D01*
X15603004Y21455925D01*
X15671325Y21387604D01*
X15751661Y21333925D01*
X15840927Y21296950D01*
X15935690Y21278100D01*
X16032310Y21278100D01*
X16127073Y21296950D01*
X16216339Y21333925D01*
X16296675Y21387604D01*
X16364996Y21455925D01*
X16418675Y21536261D01*
X16455650Y21625527D01*
X16474500Y21720290D01*
X16474500Y21816910D01*
X16455650Y21911673D01*
X16418675Y22000939D01*
X16364996Y22081275D01*
X16296675Y22149596D01*
X16216339Y22203275D01*
X16127073Y22240250D01*
X16032310Y22259100D01*
X15935690Y22259100D01*
X15840927Y22240250D01*
X15751661Y22203275D01*
X15671325Y22149596D01*
X15603004Y22081275D01*
X15549325Y22000939D01*
X15512350Y21911673D01*
X15493500Y21816910D01*
X197500Y21816910D01*
X197500Y22557182D01*
X20899569Y22557182D01*
X21232000Y22224751D01*
X21564431Y22557182D01*
X21874569Y22557182D01*
X22207000Y22224751D01*
X22539431Y22557182D01*
X22849569Y22557182D01*
X23182000Y22224751D01*
X23514431Y22557182D01*
X23511057Y22609110D01*
X24794100Y22609110D01*
X24794100Y22512490D01*
X24812950Y22417727D01*
X24849925Y22328461D01*
X24903604Y22248125D01*
X24971925Y22179804D01*
X25052261Y22126125D01*
X25141527Y22089150D01*
X25236290Y22070300D01*
X25332910Y22070300D01*
X25427673Y22089150D01*
X25516939Y22126125D01*
X25597275Y22179804D01*
X25665596Y22248125D01*
X25719275Y22328461D01*
X25756250Y22417727D01*
X25775100Y22512490D01*
X25775100Y22609110D01*
X25756250Y22703873D01*
X25719275Y22793139D01*
X25665596Y22873475D01*
X25597275Y22941796D01*
X25516939Y22995475D01*
X25427673Y23032450D01*
X25332910Y23051300D01*
X25236290Y23051300D01*
X25141527Y23032450D01*
X25052261Y22995475D01*
X24971925Y22941796D01*
X24903604Y22873475D01*
X24849925Y22793139D01*
X24812950Y22703873D01*
X24794100Y22609110D01*
X23511057Y22609110D01*
X23503775Y22721178D01*
X23349289Y22769346D01*
X23188374Y22786451D01*
X23027214Y22771834D01*
X22872002Y22726056D01*
X22860225Y22721178D01*
X22849569Y22557182D01*
X22539431Y22557182D01*
X22528775Y22721178D01*
X22374289Y22769346D01*
X22213374Y22786451D01*
X22052214Y22771834D01*
X21897002Y22726056D01*
X21885225Y22721178D01*
X21874569Y22557182D01*
X21564431Y22557182D01*
X21553775Y22721178D01*
X21399289Y22769346D01*
X21238374Y22786451D01*
X21077214Y22771834D01*
X20922002Y22726056D01*
X20910225Y22721178D01*
X20899569Y22557182D01*
X197500Y22557182D01*
X197500Y23371110D01*
X19256900Y23371110D01*
X19256900Y23274490D01*
X19275750Y23179727D01*
X19312725Y23090461D01*
X19366404Y23010125D01*
X19434725Y22941804D01*
X19515061Y22888125D01*
X19604327Y22851150D01*
X19699090Y22832300D01*
X19795710Y22832300D01*
X19890473Y22851150D01*
X19979739Y22888125D01*
X20060075Y22941804D01*
X20128396Y23010125D01*
X20182075Y23090461D01*
X20219050Y23179727D01*
X20237900Y23274490D01*
X20237900Y23371110D01*
X20219050Y23465873D01*
X20216219Y23472710D01*
X26876900Y23472710D01*
X26876900Y23376090D01*
X26895750Y23281327D01*
X26932725Y23192061D01*
X26986404Y23111725D01*
X27054725Y23043404D01*
X27135061Y22989725D01*
X27224327Y22952750D01*
X27319090Y22933900D01*
X27415710Y22933900D01*
X27510473Y22952750D01*
X27599739Y22989725D01*
X27680075Y23043404D01*
X27748396Y23111725D01*
X27802075Y23192061D01*
X27839050Y23281327D01*
X27857900Y23376090D01*
X27857900Y23472710D01*
X27839050Y23567473D01*
X27802075Y23656739D01*
X27748396Y23737075D01*
X27680075Y23805396D01*
X27599739Y23859075D01*
X27510473Y23896050D01*
X27415710Y23914900D01*
X27319090Y23914900D01*
X27224327Y23896050D01*
X27135061Y23859075D01*
X27054725Y23805396D01*
X26986404Y23737075D01*
X26932725Y23656739D01*
X26895750Y23567473D01*
X26876900Y23472710D01*
X20216219Y23472710D01*
X20182075Y23555139D01*
X20128396Y23635475D01*
X20060075Y23703796D01*
X19979739Y23757475D01*
X19890473Y23794450D01*
X19795710Y23813300D01*
X19699090Y23813300D01*
X19604327Y23794450D01*
X19515061Y23757475D01*
X19434725Y23703796D01*
X19366404Y23635475D01*
X19312725Y23555139D01*
X19275750Y23465873D01*
X19256900Y23371110D01*
X197500Y23371110D01*
X197500Y25172600D01*
X10974579Y25172600D01*
X10974579Y24888100D01*
X10974579Y24888100D01*
G37*
X10974579Y24888100D02*
X10978257Y24850756D01*
X10989150Y24814846D01*
X11004799Y24785570D01*
X10967504Y24748275D01*
X10913825Y24667939D01*
X10876850Y24578673D01*
X10858000Y24483910D01*
X10858000Y24387290D01*
X10876850Y24292527D01*
X10913825Y24203261D01*
X10967504Y24122925D01*
X11035825Y24054604D01*
X11116161Y24000925D01*
X11205427Y23963950D01*
X11300190Y23945100D01*
X11396810Y23945100D01*
X11491573Y23963950D01*
X11580839Y24000925D01*
X11661175Y24054604D01*
X11666000Y24059429D01*
X11670825Y24054604D01*
X11751161Y24000925D01*
X11840427Y23963950D01*
X11935190Y23945100D01*
X12031810Y23945100D01*
X12126573Y23963950D01*
X12215839Y24000925D01*
X12296175Y24054604D01*
X12364496Y24122925D01*
X12418175Y24203261D01*
X12455150Y24292527D01*
X12474000Y24387290D01*
X12474000Y24483910D01*
X12455150Y24578673D01*
X12418175Y24667939D01*
X12395969Y24701172D01*
X12398656Y24700357D01*
X12436000Y24696679D01*
X13436000Y24696679D01*
X13473344Y24700357D01*
X13509254Y24711250D01*
X13542348Y24728939D01*
X13571000Y24752454D01*
X13599652Y24728939D01*
X13632746Y24711250D01*
X13668656Y24700357D01*
X13706000Y24696679D01*
X14706000Y24696679D01*
X14743344Y24700357D01*
X14779254Y24711250D01*
X14812348Y24728939D01*
X14841000Y24752454D01*
X14869652Y24728939D01*
X14902746Y24711250D01*
X14938656Y24700357D01*
X14976000Y24696679D01*
X15976000Y24696679D01*
X16013344Y24700357D01*
X16049254Y24711250D01*
X16082348Y24728939D01*
X16111000Y24752454D01*
X16139652Y24728939D01*
X16172746Y24711250D01*
X16208656Y24700357D01*
X16246000Y24696679D01*
X17246000Y24696679D01*
X17283344Y24700357D01*
X17319254Y24711250D01*
X17352348Y24728939D01*
X17381000Y24752454D01*
X17409652Y24728939D01*
X17442746Y24711250D01*
X17478656Y24700357D01*
X17516000Y24696679D01*
X18516000Y24696679D01*
X18553344Y24700357D01*
X18589254Y24711250D01*
X18622348Y24728939D01*
X18651000Y24752454D01*
X18679652Y24728939D01*
X18712746Y24711250D01*
X18748656Y24700357D01*
X18786000Y24696679D01*
X19786000Y24696679D01*
X19823344Y24700357D01*
X19859254Y24711250D01*
X19892348Y24728939D01*
X19921000Y24752454D01*
X19949652Y24728939D01*
X19982746Y24711250D01*
X20018656Y24700357D01*
X20056000Y24696679D01*
X21056000Y24696679D01*
X21093344Y24700357D01*
X21129254Y24711250D01*
X21162348Y24728939D01*
X21191000Y24752454D01*
X21219652Y24728939D01*
X21252746Y24711250D01*
X21288656Y24700357D01*
X21326000Y24696679D01*
X21685271Y24696679D01*
X21644461Y24679775D01*
X21564125Y24626096D01*
X21495804Y24557775D01*
X21442125Y24477439D01*
X21405150Y24388173D01*
X21386300Y24293410D01*
X21386300Y24196790D01*
X21405150Y24102027D01*
X21442125Y24012761D01*
X21495804Y23932425D01*
X21564125Y23864104D01*
X21644461Y23810425D01*
X21733727Y23773450D01*
X21828490Y23754600D01*
X21925110Y23754600D01*
X22019873Y23773450D01*
X22109139Y23810425D01*
X22189475Y23864104D01*
X22257796Y23932425D01*
X22311475Y24012761D01*
X22348450Y24102027D01*
X22367300Y24196790D01*
X22367300Y24293410D01*
X22348450Y24388173D01*
X22311475Y24477439D01*
X22257796Y24557775D01*
X22189475Y24626096D01*
X22109139Y24679775D01*
X22068329Y24696679D01*
X22326000Y24696679D01*
X22363344Y24700357D01*
X22399254Y24711250D01*
X22432348Y24728939D01*
X22461000Y24752454D01*
X22489652Y24728939D01*
X22522746Y24711250D01*
X22558656Y24700357D01*
X22596000Y24696679D01*
X23596000Y24696679D01*
X23633344Y24700357D01*
X23669254Y24711250D01*
X23702348Y24728939D01*
X23731000Y24752454D01*
X23759652Y24728939D01*
X23792746Y24711250D01*
X23828656Y24700357D01*
X23866000Y24696679D01*
X24866000Y24696679D01*
X24903344Y24700357D01*
X24939254Y24711250D01*
X24972348Y24728939D01*
X25001000Y24752454D01*
X25029652Y24728939D01*
X25062746Y24711250D01*
X25098656Y24700357D01*
X25136000Y24696679D01*
X26136000Y24696679D01*
X26173344Y24700357D01*
X26209254Y24711250D01*
X26242348Y24728939D01*
X26271000Y24752454D01*
X26299652Y24728939D01*
X26332746Y24711250D01*
X26368656Y24700357D01*
X26406000Y24696679D01*
X27406000Y24696679D01*
X27443344Y24700357D01*
X27479254Y24711250D01*
X27512348Y24728939D01*
X27541000Y24752454D01*
X27569652Y24728939D01*
X27602746Y24711250D01*
X27638656Y24700357D01*
X27676000Y24696679D01*
X28676000Y24696679D01*
X28713344Y24700357D01*
X28749254Y24711250D01*
X28782348Y24728939D01*
X28811000Y24752454D01*
X28839652Y24728939D01*
X28872746Y24711250D01*
X28908656Y24700357D01*
X28946000Y24696679D01*
X29946000Y24696679D01*
X29983344Y24700357D01*
X30019254Y24711250D01*
X30052348Y24728939D01*
X30081000Y24752454D01*
X30109652Y24728939D01*
X30142746Y24711250D01*
X30178656Y24700357D01*
X30216000Y24696679D01*
X31216000Y24696679D01*
X31253344Y24700357D01*
X31289254Y24711250D01*
X31322348Y24728939D01*
X31351355Y24752745D01*
X31375161Y24781752D01*
X31392850Y24814846D01*
X31403743Y24850756D01*
X31407421Y24888100D01*
X31407421Y25172600D01*
X31516501Y25172600D01*
X31516500Y3249113D01*
X31505150Y3306173D01*
X31468175Y3395439D01*
X31414496Y3475775D01*
X31346175Y3544096D01*
X31265839Y3597775D01*
X31176573Y3634750D01*
X31081810Y3653600D01*
X30985190Y3653600D01*
X30890427Y3634750D01*
X30801161Y3597775D01*
X30720825Y3544096D01*
X30716000Y3539271D01*
X30711175Y3544096D01*
X30630839Y3597775D01*
X30541573Y3634750D01*
X30446810Y3653600D01*
X30350190Y3653600D01*
X30255427Y3634750D01*
X30166161Y3597775D01*
X30085825Y3544096D01*
X30063500Y3521771D01*
X30063500Y3592410D01*
X30044650Y3687173D01*
X30007675Y3776439D01*
X29953996Y3856775D01*
X29885675Y3925096D01*
X29805339Y3978775D01*
X29716073Y4015750D01*
X29621310Y4034600D01*
X29524690Y4034600D01*
X29429927Y4015750D01*
X29340661Y3978775D01*
X29260325Y3925096D01*
X29255500Y3920271D01*
X29250675Y3925096D01*
X29170339Y3978775D01*
X29081073Y4015750D01*
X28986310Y4034600D01*
X28889690Y4034600D01*
X28794927Y4015750D01*
X28705661Y3978775D01*
X28625325Y3925096D01*
X28557004Y3856775D01*
X28503325Y3776439D01*
X28466350Y3687173D01*
X28447500Y3592410D01*
X28447500Y3495790D01*
X28466350Y3401027D01*
X28503325Y3311761D01*
X28557004Y3231425D01*
X28625325Y3163104D01*
X28705661Y3109425D01*
X28794927Y3072450D01*
X28889690Y3053600D01*
X28986310Y3053600D01*
X29081073Y3072450D01*
X29170339Y3109425D01*
X29250675Y3163104D01*
X29255500Y3167929D01*
X29260325Y3163104D01*
X29340661Y3109425D01*
X29429927Y3072450D01*
X29524690Y3053600D01*
X29621310Y3053600D01*
X29716073Y3072450D01*
X29805339Y3109425D01*
X29885675Y3163104D01*
X29908000Y3185429D01*
X29908000Y3114790D01*
X29926850Y3020027D01*
X29963825Y2930761D01*
X30017504Y2850425D01*
X30085825Y2782104D01*
X30166161Y2728425D01*
X30255427Y2691450D01*
X30350190Y2672600D01*
X30446810Y2672600D01*
X30541573Y2691450D01*
X30630839Y2728425D01*
X30711175Y2782104D01*
X30716000Y2786929D01*
X30720825Y2782104D01*
X30801161Y2728425D01*
X30890427Y2691450D01*
X30985190Y2672600D01*
X31081810Y2672600D01*
X31176573Y2691450D01*
X31265839Y2728425D01*
X31346175Y2782104D01*
X31414496Y2850425D01*
X31468175Y2930761D01*
X31505150Y3020027D01*
X31516500Y3077087D01*
X31516500Y203600D01*
X31407421Y203600D01*
X31407421Y488100D01*
X31403743Y525444D01*
X31392850Y561354D01*
X31375161Y594448D01*
X31351355Y623455D01*
X31322348Y647261D01*
X31289254Y664950D01*
X31253344Y675843D01*
X31216000Y679521D01*
X30216000Y679521D01*
X30178656Y675843D01*
X30142746Y664950D01*
X30109652Y647261D01*
X30081000Y623746D01*
X30052348Y647261D01*
X30019254Y664950D01*
X29983344Y675843D01*
X29946000Y679521D01*
X28946000Y679521D01*
X28908656Y675843D01*
X28872746Y664950D01*
X28839652Y647261D01*
X28811000Y623746D01*
X28795586Y636397D01*
X28801175Y644761D01*
X28838150Y734027D01*
X28857000Y828790D01*
X28857000Y925410D01*
X28838150Y1020173D01*
X28801175Y1109439D01*
X28747496Y1189775D01*
X28742671Y1194600D01*
X28747496Y1199425D01*
X28801175Y1279761D01*
X28838150Y1369027D01*
X28857000Y1463790D01*
X28857000Y1560410D01*
X28838150Y1655173D01*
X28801175Y1744439D01*
X28747496Y1824775D01*
X28679175Y1893096D01*
X28598839Y1946775D01*
X28509573Y1983750D01*
X28414810Y2002600D01*
X28318190Y2002600D01*
X28223427Y1983750D01*
X28134161Y1946775D01*
X28053825Y1893096D01*
X27985504Y1824775D01*
X27931825Y1744439D01*
X27894850Y1655173D01*
X27876000Y1560410D01*
X27876000Y1463790D01*
X27894850Y1369027D01*
X27931825Y1279761D01*
X27985504Y1199425D01*
X27990329Y1194600D01*
X27985504Y1189775D01*
X27931825Y1109439D01*
X27894850Y1020173D01*
X27876000Y925410D01*
X27876000Y828790D01*
X27894850Y734027D01*
X27917427Y679521D01*
X27676000Y679521D01*
X27638656Y675843D01*
X27602746Y664950D01*
X27569652Y647261D01*
X27541000Y623746D01*
X27512348Y647261D01*
X27479254Y664950D01*
X27443344Y675843D01*
X27406000Y679521D01*
X26406000Y679521D01*
X26368656Y675843D01*
X26332746Y664950D01*
X26299652Y647261D01*
X26271000Y623746D01*
X26242348Y647261D01*
X26209254Y664950D01*
X26173344Y675843D01*
X26136000Y679521D01*
X25136000Y679521D01*
X25098656Y675843D01*
X25062746Y664950D01*
X25029652Y647261D01*
X25001000Y623746D01*
X24972348Y647261D01*
X24939254Y664950D01*
X24903344Y675843D01*
X24866000Y679521D01*
X23866000Y679521D01*
X23828656Y675843D01*
X23792746Y664950D01*
X23759652Y647261D01*
X23731000Y623746D01*
X23702348Y647261D01*
X23669254Y664950D01*
X23633344Y675843D01*
X23596000Y679521D01*
X22596000Y679521D01*
X22558656Y675843D01*
X22522746Y664950D01*
X22489652Y647261D01*
X22461000Y623746D01*
X22432348Y647261D01*
X22399254Y664950D01*
X22363344Y675843D01*
X22326000Y679521D01*
X21326000Y679521D01*
X21288656Y675843D01*
X21252746Y664950D01*
X21219652Y647261D01*
X21191000Y623746D01*
X21162348Y647261D01*
X21129254Y664950D01*
X21093344Y675843D01*
X21056000Y679521D01*
X20056000Y679521D01*
X20018656Y675843D01*
X19982746Y664950D01*
X19949652Y647261D01*
X19921000Y623746D01*
X19892348Y647261D01*
X19859254Y664950D01*
X19823344Y675843D01*
X19786000Y679521D01*
X18786000Y679521D01*
X18748656Y675843D01*
X18712746Y664950D01*
X18679652Y647261D01*
X18651000Y623746D01*
X18622348Y647261D01*
X18589254Y664950D01*
X18553344Y675843D01*
X18516000Y679521D01*
X17516000Y679521D01*
X17478656Y675843D01*
X17442746Y664950D01*
X17409652Y647261D01*
X17381000Y623746D01*
X17352348Y647261D01*
X17319254Y664950D01*
X17283344Y675843D01*
X17246000Y679521D01*
X16246000Y679521D01*
X16208656Y675843D01*
X16172746Y664950D01*
X16139652Y647261D01*
X16111000Y623746D01*
X16082348Y647261D01*
X16049254Y664950D01*
X16013344Y675843D01*
X15976000Y679521D01*
X14976000Y679521D01*
X14938656Y675843D01*
X14902746Y664950D01*
X14869652Y647261D01*
X14841000Y623746D01*
X14812348Y647261D01*
X14779254Y664950D01*
X14743344Y675843D01*
X14706000Y679521D01*
X13706000Y679521D01*
X13668656Y675843D01*
X13632746Y664950D01*
X13599652Y647261D01*
X13571000Y623746D01*
X13542348Y647261D01*
X13509254Y664950D01*
X13473344Y675843D01*
X13436000Y679521D01*
X12436000Y679521D01*
X12398656Y675843D01*
X12362746Y664950D01*
X12329652Y647261D01*
X12301000Y623746D01*
X12272348Y647261D01*
X12239254Y664950D01*
X12203344Y675843D01*
X12166000Y679521D01*
X11166000Y679521D01*
X11128656Y675843D01*
X11092746Y664950D01*
X11059652Y647261D01*
X11030645Y623455D01*
X11006839Y594448D01*
X10989150Y561354D01*
X10978257Y525444D01*
X10974579Y488100D01*
X10974579Y203600D01*
X197500Y203600D01*
X197500Y619013D01*
X2062480Y619013D01*
X2079870Y450623D01*
X2243313Y398114D01*
X2413859Y378500D01*
X2584955Y392534D01*
X2750026Y439678D01*
X2776450Y450623D01*
X2793840Y619013D01*
X4312480Y619013D01*
X4329870Y450623D01*
X4493313Y398114D01*
X4663859Y378500D01*
X4834955Y392534D01*
X5000026Y439678D01*
X5026450Y450623D01*
X5043840Y619013D01*
X4678160Y984692D01*
X4312480Y619013D01*
X2793840Y619013D01*
X2428160Y984692D01*
X2062480Y619013D01*
X197500Y619013D01*
X197500Y1268401D01*
X1552560Y1268401D01*
X1566594Y1097305D01*
X1613738Y932234D01*
X1624683Y905810D01*
X1793073Y888420D01*
X2158752Y1254100D01*
X2697568Y1254100D01*
X3063247Y888420D01*
X3231637Y905810D01*
X3284146Y1069253D01*
X3303760Y1239799D01*
X3301414Y1268401D01*
X3802560Y1268401D01*
X3816594Y1097305D01*
X3863738Y932234D01*
X3874683Y905810D01*
X4043073Y888420D01*
X4408752Y1254100D01*
X4947568Y1254100D01*
X5313247Y888420D01*
X5481637Y905810D01*
X5534146Y1069253D01*
X5553760Y1239799D01*
X5539726Y1410895D01*
X5534404Y1429528D01*
X5663313Y1388114D01*
X5833859Y1368500D01*
X6004955Y1382534D01*
X6170026Y1429678D01*
X6196450Y1440623D01*
X6213840Y1609013D01*
X5848160Y1974692D01*
X5482480Y1609013D01*
X5483671Y1597479D01*
X5481637Y1602390D01*
X5313247Y1619780D01*
X4947568Y1254100D01*
X4408752Y1254100D01*
X4043073Y1619780D01*
X3874683Y1602390D01*
X3822174Y1438947D01*
X3802560Y1268401D01*
X3301414Y1268401D01*
X3289726Y1410895D01*
X3242582Y1575966D01*
X3231637Y1602390D01*
X3063247Y1619780D01*
X2697568Y1254100D01*
X2158752Y1254100D01*
X1793073Y1619780D01*
X1624683Y1602390D01*
X1572174Y1438947D01*
X1552560Y1268401D01*
X197500Y1268401D01*
X197500Y1809013D01*
X882480Y1809013D01*
X899870Y1640623D01*
X1063313Y1588114D01*
X1233859Y1568500D01*
X1404955Y1582534D01*
X1570026Y1629678D01*
X1596450Y1640623D01*
X1613840Y1809013D01*
X1533666Y1889187D01*
X2062480Y1889187D01*
X2428160Y1523508D01*
X2793840Y1889187D01*
X4312480Y1889187D01*
X4678160Y1523508D01*
X5043840Y1889187D01*
X5042649Y1900721D01*
X5044683Y1895810D01*
X5213073Y1878420D01*
X5578752Y2244100D01*
X6117568Y2244100D01*
X6483247Y1878420D01*
X6651637Y1895810D01*
X6704146Y2059253D01*
X6723760Y2229799D01*
X6709726Y2400895D01*
X6662582Y2565966D01*
X6651637Y2592390D01*
X6483247Y2609780D01*
X6117568Y2244100D01*
X5578752Y2244100D01*
X5213073Y2609780D01*
X5044683Y2592390D01*
X4992174Y2428947D01*
X4972560Y2258401D01*
X4986594Y2087305D01*
X4991916Y2068672D01*
X4863007Y2110086D01*
X4692461Y2129700D01*
X4521365Y2115666D01*
X4356294Y2068522D01*
X4329870Y2057577D01*
X4312480Y1889187D01*
X2793840Y1889187D01*
X2776450Y2057577D01*
X2613007Y2110086D01*
X2442461Y2129700D01*
X2271365Y2115666D01*
X2106294Y2068522D01*
X2079870Y2057577D01*
X2062480Y1889187D01*
X1533666Y1889187D01*
X1248160Y2174692D01*
X882480Y1809013D01*
X197500Y1809013D01*
X197500Y2458401D01*
X372560Y2458401D01*
X386594Y2287305D01*
X433738Y2122234D01*
X444683Y2095810D01*
X613073Y2078420D01*
X978752Y2444100D01*
X1517568Y2444100D01*
X1883247Y2078420D01*
X2051637Y2095810D01*
X2104146Y2259253D01*
X2123760Y2429799D01*
X2109726Y2600895D01*
X2062582Y2765966D01*
X2051637Y2792390D01*
X1883247Y2809780D01*
X1517568Y2444100D01*
X978752Y2444100D01*
X613073Y2809780D01*
X444683Y2792390D01*
X392174Y2628947D01*
X372560Y2458401D01*
X197500Y2458401D01*
X197500Y3079187D01*
X882480Y3079187D01*
X1248160Y2713508D01*
X1413839Y2879187D01*
X5482480Y2879187D01*
X5848160Y2513508D01*
X6213840Y2879187D01*
X6196450Y3047577D01*
X6033007Y3100086D01*
X5862461Y3119700D01*
X5691365Y3105666D01*
X5526294Y3058522D01*
X5499870Y3047577D01*
X5482480Y2879187D01*
X1413839Y2879187D01*
X1613840Y3079187D01*
X1596450Y3247577D01*
X1433007Y3300086D01*
X1262461Y3319700D01*
X1091365Y3305666D01*
X926294Y3258522D01*
X899870Y3247577D01*
X882480Y3079187D01*
X197500Y3079187D01*
X197500Y4009013D01*
X882480Y4009013D01*
X899870Y3840623D01*
X1063313Y3788114D01*
X1233859Y3768500D01*
X1404955Y3782534D01*
X1570026Y3829678D01*
X1596450Y3840623D01*
X1613840Y4009013D01*
X1413840Y4209013D01*
X5482480Y4209013D01*
X5499870Y4040623D01*
X5663313Y3988114D01*
X5833859Y3968500D01*
X6004955Y3982534D01*
X6170026Y4029678D01*
X6196450Y4040623D01*
X6213840Y4209013D01*
X5848160Y4574692D01*
X5482480Y4209013D01*
X1413840Y4209013D01*
X1248160Y4374692D01*
X882480Y4009013D01*
X197500Y4009013D01*
X197500Y4658401D01*
X372560Y4658401D01*
X386594Y4487305D01*
X433738Y4322234D01*
X444683Y4295810D01*
X613073Y4278420D01*
X978752Y4644100D01*
X1517568Y4644100D01*
X1883247Y4278420D01*
X2051637Y4295810D01*
X2104146Y4459253D01*
X2123760Y4629799D01*
X2109726Y4800895D01*
X2093303Y4858401D01*
X4972560Y4858401D01*
X4986594Y4687305D01*
X5033738Y4522234D01*
X5044683Y4495810D01*
X5213073Y4478420D01*
X5578752Y4844100D01*
X6117568Y4844100D01*
X6483247Y4478420D01*
X6651637Y4495810D01*
X6704146Y4659253D01*
X6723760Y4829799D01*
X6709726Y5000895D01*
X6662582Y5165966D01*
X6651637Y5192390D01*
X6483247Y5209780D01*
X6117568Y4844100D01*
X5578752Y4844100D01*
X5213073Y5209780D01*
X5044683Y5192390D01*
X4992174Y5028947D01*
X4972560Y4858401D01*
X2093303Y4858401D01*
X2062582Y4965966D01*
X2051637Y4992390D01*
X1883247Y5009780D01*
X1517568Y4644100D01*
X978752Y4644100D01*
X613073Y5009780D01*
X444683Y4992390D01*
X392174Y4828947D01*
X372560Y4658401D01*
X197500Y4658401D01*
X197500Y5279187D01*
X882480Y5279187D01*
X1248160Y4913508D01*
X1543665Y5209013D01*
X2092480Y5209013D01*
X2109870Y5040623D01*
X2273313Y4988114D01*
X2443859Y4968500D01*
X2614955Y4982534D01*
X2780026Y5029678D01*
X2806450Y5040623D01*
X2823840Y5209013D01*
X4262480Y5209013D01*
X4279870Y5040623D01*
X4443313Y4988114D01*
X4613859Y4968500D01*
X4784955Y4982534D01*
X4950026Y5029678D01*
X4976450Y5040623D01*
X4993840Y5209013D01*
X4628160Y5574692D01*
X4262480Y5209013D01*
X2823840Y5209013D01*
X2458160Y5574692D01*
X2092480Y5209013D01*
X1543665Y5209013D01*
X1613840Y5279187D01*
X1596450Y5447577D01*
X1433007Y5500086D01*
X1262461Y5519700D01*
X1091365Y5505666D01*
X926294Y5458522D01*
X899870Y5447577D01*
X882480Y5279187D01*
X197500Y5279187D01*
X197500Y5858401D01*
X1582560Y5858401D01*
X1596594Y5687305D01*
X1643738Y5522234D01*
X1654683Y5495810D01*
X1823073Y5478420D01*
X2188752Y5844100D01*
X2727568Y5844100D01*
X3093247Y5478420D01*
X3261637Y5495810D01*
X3314146Y5659253D01*
X3333760Y5829799D01*
X3331414Y5858401D01*
X3752560Y5858401D01*
X3766594Y5687305D01*
X3813738Y5522234D01*
X3824683Y5495810D01*
X3993073Y5478420D01*
X4358752Y5844100D01*
X4897568Y5844100D01*
X5263247Y5478420D01*
X5270673Y5479187D01*
X5482480Y5479187D01*
X5848160Y5113508D01*
X6213840Y5479187D01*
X6196450Y5647577D01*
X6033007Y5700086D01*
X5862461Y5719700D01*
X5691365Y5705666D01*
X5526294Y5658522D01*
X5499870Y5647577D01*
X5482480Y5479187D01*
X5270673Y5479187D01*
X5431637Y5495810D01*
X5484146Y5659253D01*
X5503760Y5829799D01*
X5489726Y6000895D01*
X5442582Y6165966D01*
X5431637Y6192390D01*
X5263247Y6209780D01*
X4897568Y5844100D01*
X4358752Y5844100D01*
X3993073Y6209780D01*
X3824683Y6192390D01*
X3772174Y6028947D01*
X3752560Y5858401D01*
X3331414Y5858401D01*
X3319726Y6000895D01*
X3272582Y6165966D01*
X3261637Y6192390D01*
X3093247Y6209780D01*
X2727568Y5844100D01*
X2188752Y5844100D01*
X1823073Y6209780D01*
X1654683Y6192390D01*
X1602174Y6028947D01*
X1582560Y5858401D01*
X197500Y5858401D01*
X197500Y6715013D01*
X2062480Y6715013D01*
X2079870Y6546623D01*
X2098816Y6540536D01*
X2092480Y6479187D01*
X2458160Y6113508D01*
X2823840Y6479187D01*
X4262480Y6479187D01*
X4628160Y6113508D01*
X4993840Y6479187D01*
X4988350Y6532343D01*
X5000026Y6535678D01*
X5026450Y6546623D01*
X5043840Y6715013D01*
X4678160Y7080692D01*
X4312480Y6715013D01*
X4317970Y6661857D01*
X4306294Y6658522D01*
X4279870Y6647577D01*
X4262480Y6479187D01*
X2823840Y6479187D01*
X2806450Y6647577D01*
X2787504Y6653664D01*
X2793840Y6715013D01*
X2428160Y7080692D01*
X2062480Y6715013D01*
X197500Y6715013D01*
X197500Y7364401D01*
X1552560Y7364401D01*
X1566594Y7193305D01*
X1613738Y7028234D01*
X1624683Y7001810D01*
X1793073Y6984420D01*
X2158752Y7350100D01*
X2697568Y7350100D01*
X3063247Y6984420D01*
X3231637Y7001810D01*
X3284146Y7165253D01*
X3303760Y7335799D01*
X3301414Y7364401D01*
X3802560Y7364401D01*
X3816594Y7193305D01*
X3863738Y7028234D01*
X3874683Y7001810D01*
X4043073Y6984420D01*
X4408752Y7350100D01*
X4947568Y7350100D01*
X5313247Y6984420D01*
X5481637Y7001810D01*
X5534146Y7165253D01*
X5553760Y7335799D01*
X5539726Y7506895D01*
X5534404Y7525528D01*
X5663313Y7484114D01*
X5833859Y7464500D01*
X6004955Y7478534D01*
X6170026Y7525678D01*
X6196450Y7536623D01*
X6211443Y7681810D01*
X19811500Y7681810D01*
X19811500Y7585190D01*
X19830350Y7490427D01*
X19867325Y7401161D01*
X19921004Y7320825D01*
X19989325Y7252504D01*
X20069661Y7198825D01*
X20158927Y7161850D01*
X20253690Y7143000D01*
X20350310Y7143000D01*
X20445073Y7161850D01*
X20534339Y7198825D01*
X20614675Y7252504D01*
X20682996Y7320825D01*
X20736675Y7401161D01*
X20773650Y7490427D01*
X20792500Y7585190D01*
X20792500Y7681810D01*
X20773650Y7776573D01*
X20736675Y7865839D01*
X20682996Y7946175D01*
X20614675Y8014496D01*
X20534339Y8068175D01*
X20445073Y8105150D01*
X20350310Y8124000D01*
X20253690Y8124000D01*
X20158927Y8105150D01*
X20069661Y8068175D01*
X19989325Y8014496D01*
X19921004Y7946175D01*
X19867325Y7865839D01*
X19830350Y7776573D01*
X19811500Y7681810D01*
X6211443Y7681810D01*
X6213840Y7705013D01*
X5848160Y8070692D01*
X5482480Y7705013D01*
X5483671Y7693479D01*
X5481637Y7698390D01*
X5313247Y7715780D01*
X4947568Y7350100D01*
X4408752Y7350100D01*
X4043073Y7715780D01*
X3874683Y7698390D01*
X3822174Y7534947D01*
X3802560Y7364401D01*
X3301414Y7364401D01*
X3289726Y7506895D01*
X3242582Y7671966D01*
X3231637Y7698390D01*
X3063247Y7715780D01*
X2697568Y7350100D01*
X2158752Y7350100D01*
X1793073Y7715780D01*
X1624683Y7698390D01*
X1572174Y7534947D01*
X1552560Y7364401D01*
X197500Y7364401D01*
X197500Y7905013D01*
X882480Y7905013D01*
X899870Y7736623D01*
X1063313Y7684114D01*
X1233859Y7664500D01*
X1404955Y7678534D01*
X1570026Y7725678D01*
X1596450Y7736623D01*
X1613840Y7905013D01*
X1533666Y7985187D01*
X2062480Y7985187D01*
X2428160Y7619508D01*
X2793840Y7985187D01*
X4312480Y7985187D01*
X4678160Y7619508D01*
X5043840Y7985187D01*
X5042649Y7996721D01*
X5044683Y7991810D01*
X5213073Y7974420D01*
X5578752Y8340100D01*
X6117568Y8340100D01*
X6483247Y7974420D01*
X6651637Y7991810D01*
X6704146Y8155253D01*
X6723760Y8325799D01*
X6709726Y8496895D01*
X6662582Y8661966D01*
X6651637Y8688390D01*
X6483247Y8705780D01*
X6117568Y8340100D01*
X5578752Y8340100D01*
X5213073Y8705780D01*
X5044683Y8688390D01*
X4992174Y8524947D01*
X4972560Y8354401D01*
X4986594Y8183305D01*
X4991916Y8164672D01*
X4863007Y8206086D01*
X4692461Y8225700D01*
X4521365Y8211666D01*
X4356294Y8164522D01*
X4329870Y8153577D01*
X4312480Y7985187D01*
X2793840Y7985187D01*
X2776450Y8153577D01*
X2613007Y8206086D01*
X2442461Y8225700D01*
X2271365Y8211666D01*
X2106294Y8164522D01*
X2079870Y8153577D01*
X2062480Y7985187D01*
X1533666Y7985187D01*
X1248160Y8270692D01*
X882480Y7905013D01*
X197500Y7905013D01*
X197500Y8554401D01*
X372560Y8554401D01*
X386594Y8383305D01*
X433738Y8218234D01*
X444683Y8191810D01*
X613073Y8174420D01*
X978752Y8540100D01*
X1517568Y8540100D01*
X1883247Y8174420D01*
X2051637Y8191810D01*
X2104146Y8355253D01*
X2123760Y8525799D01*
X2109726Y8696895D01*
X2062582Y8861966D01*
X2051637Y8888390D01*
X1883247Y8905780D01*
X1517568Y8540100D01*
X978752Y8540100D01*
X613073Y8905780D01*
X444683Y8888390D01*
X392174Y8724947D01*
X372560Y8554401D01*
X197500Y8554401D01*
X197500Y9175187D01*
X882480Y9175187D01*
X1248160Y8809508D01*
X1413839Y8975187D01*
X5482480Y8975187D01*
X5848160Y8609508D01*
X6075062Y8836410D01*
X16859700Y8836410D01*
X16859700Y8739790D01*
X16878550Y8645027D01*
X16915525Y8555761D01*
X16969204Y8475425D01*
X17037525Y8407104D01*
X17117861Y8353425D01*
X17207127Y8316450D01*
X17301890Y8297600D01*
X17398510Y8297600D01*
X17493273Y8316450D01*
X17582539Y8353425D01*
X17662875Y8407104D01*
X17731196Y8475425D01*
X17739100Y8487254D01*
X17747004Y8475425D01*
X17815325Y8407104D01*
X17895661Y8353425D01*
X17984927Y8316450D01*
X18079690Y8297600D01*
X18176310Y8297600D01*
X18271073Y8316450D01*
X18360339Y8353425D01*
X18386471Y8370886D01*
X18403550Y8285027D01*
X18440525Y8195761D01*
X18494204Y8115425D01*
X18562525Y8047104D01*
X18642861Y7993425D01*
X18732127Y7956450D01*
X18826890Y7937600D01*
X18923510Y7937600D01*
X19018273Y7956450D01*
X19107539Y7993425D01*
X19187875Y8047104D01*
X19256196Y8115425D01*
X19264100Y8127254D01*
X19272004Y8115425D01*
X19340325Y8047104D01*
X19420661Y7993425D01*
X19509927Y7956450D01*
X19604690Y7937600D01*
X19701310Y7937600D01*
X19796073Y7956450D01*
X19885339Y7993425D01*
X19965675Y8047104D01*
X20033996Y8115425D01*
X20087675Y8195761D01*
X20124650Y8285027D01*
X20143500Y8379790D01*
X20143500Y8476410D01*
X20124650Y8571173D01*
X20087675Y8660439D01*
X20033996Y8740775D01*
X19965675Y8809096D01*
X19885339Y8862775D01*
X19796073Y8899750D01*
X19701310Y8918600D01*
X19604690Y8918600D01*
X19509927Y8899750D01*
X19420661Y8862775D01*
X19340325Y8809096D01*
X19272004Y8740775D01*
X19264100Y8728946D01*
X19256196Y8740775D01*
X19187875Y8809096D01*
X19107539Y8862775D01*
X19018273Y8899750D01*
X18923510Y8918600D01*
X18826890Y8918600D01*
X18732127Y8899750D01*
X18642861Y8862775D01*
X18616729Y8845314D01*
X18599650Y8931173D01*
X18562675Y9020439D01*
X18508996Y9100775D01*
X18440675Y9169096D01*
X18360339Y9222775D01*
X18271073Y9259750D01*
X18176310Y9278600D01*
X18079690Y9278600D01*
X17984927Y9259750D01*
X17895661Y9222775D01*
X17815325Y9169096D01*
X17747004Y9100775D01*
X17739100Y9088946D01*
X17731196Y9100775D01*
X17662875Y9169096D01*
X17582539Y9222775D01*
X17493273Y9259750D01*
X17398510Y9278600D01*
X17301890Y9278600D01*
X17207127Y9259750D01*
X17117861Y9222775D01*
X17037525Y9169096D01*
X16969204Y9100775D01*
X16915525Y9020439D01*
X16878550Y8931173D01*
X16859700Y8836410D01*
X6075062Y8836410D01*
X6213840Y8975187D01*
X6196450Y9143577D01*
X6033007Y9196086D01*
X5862461Y9215700D01*
X5691365Y9201666D01*
X5526294Y9154522D01*
X5499870Y9143577D01*
X5482480Y8975187D01*
X1413839Y8975187D01*
X1613840Y9175187D01*
X1596450Y9343577D01*
X1433007Y9396086D01*
X1262461Y9415700D01*
X1091365Y9401666D01*
X926294Y9354522D01*
X899870Y9343577D01*
X882480Y9175187D01*
X197500Y9175187D01*
X197500Y9636410D01*
X15748600Y9636410D01*
X15748600Y9539790D01*
X15767450Y9445027D01*
X15804425Y9355761D01*
X15858104Y9275425D01*
X15926425Y9207104D01*
X16006761Y9153425D01*
X16096027Y9116450D01*
X16190790Y9097600D01*
X16287410Y9097600D01*
X16382173Y9116450D01*
X16471439Y9153425D01*
X16551775Y9207104D01*
X16620096Y9275425D01*
X16673775Y9355761D01*
X16710750Y9445027D01*
X16729600Y9539790D01*
X16729600Y9636410D01*
X16715720Y9706190D01*
X21068800Y9706190D01*
X21068800Y9609570D01*
X21087650Y9514807D01*
X21124625Y9425541D01*
X21178304Y9345205D01*
X21246625Y9276884D01*
X21326961Y9223205D01*
X21416227Y9186230D01*
X21510990Y9167380D01*
X21579219Y9167380D01*
X21569180Y9116910D01*
X21569180Y9020290D01*
X21588030Y8925527D01*
X21625005Y8836261D01*
X21678684Y8755925D01*
X21747005Y8687604D01*
X21827341Y8633925D01*
X21916607Y8596950D01*
X22011370Y8578100D01*
X22107990Y8578100D01*
X22202753Y8596950D01*
X22292019Y8633925D01*
X22372355Y8687604D01*
X22440676Y8755925D01*
X22494355Y8836261D01*
X22531330Y8925527D01*
X22550180Y9020290D01*
X22550180Y9116910D01*
X22531330Y9211673D01*
X22494355Y9300939D01*
X22440676Y9381275D01*
X22372355Y9449596D01*
X22292019Y9503275D01*
X22202753Y9540250D01*
X22107990Y9559100D01*
X22039761Y9559100D01*
X22049800Y9609570D01*
X22049800Y9706190D01*
X22030950Y9800953D01*
X21993975Y9890219D01*
X21940296Y9970555D01*
X21871975Y10038876D01*
X21791639Y10092555D01*
X21702373Y10129530D01*
X21607610Y10148380D01*
X21510990Y10148380D01*
X21416227Y10129530D01*
X21326961Y10092555D01*
X21246625Y10038876D01*
X21178304Y9970555D01*
X21124625Y9890219D01*
X21087650Y9800953D01*
X21068800Y9706190D01*
X16715720Y9706190D01*
X16710750Y9731173D01*
X16673775Y9820439D01*
X16620096Y9900775D01*
X16551775Y9969096D01*
X16471439Y10022775D01*
X16382173Y10059750D01*
X16287410Y10078600D01*
X16190790Y10078600D01*
X16096027Y10059750D01*
X16006761Y10022775D01*
X15926425Y9969096D01*
X15858104Y9900775D01*
X15804425Y9820439D01*
X15767450Y9731173D01*
X15748600Y9636410D01*
X197500Y9636410D01*
X197500Y10105013D01*
X882480Y10105013D01*
X899870Y9936623D01*
X1063313Y9884114D01*
X1233859Y9864500D01*
X1404955Y9878534D01*
X1570026Y9925678D01*
X1596450Y9936623D01*
X1613840Y10105013D01*
X1413840Y10305013D01*
X5482480Y10305013D01*
X5499870Y10136623D01*
X5663313Y10084114D01*
X5833859Y10064500D01*
X6004955Y10078534D01*
X6170026Y10125678D01*
X6196450Y10136623D01*
X6213840Y10305013D01*
X6065840Y10453013D01*
X16773420Y10453013D01*
X16790810Y10284623D01*
X16954253Y10232114D01*
X17124799Y10212500D01*
X17295895Y10226534D01*
X17460966Y10273678D01*
X17487390Y10284623D01*
X17504780Y10453013D01*
X18973420Y10453013D01*
X18990810Y10284623D01*
X19154253Y10232114D01*
X19324799Y10212500D01*
X19495895Y10226534D01*
X19660966Y10273678D01*
X19687390Y10284623D01*
X19704780Y10453013D01*
X19339100Y10818692D01*
X18973420Y10453013D01*
X17504780Y10453013D01*
X17139100Y10818692D01*
X16773420Y10453013D01*
X6065840Y10453013D01*
X5848160Y10670692D01*
X5482480Y10305013D01*
X1413840Y10305013D01*
X1248160Y10470692D01*
X882480Y10105013D01*
X197500Y10105013D01*
X197500Y10754401D01*
X372560Y10754401D01*
X386594Y10583305D01*
X433738Y10418234D01*
X444683Y10391810D01*
X613073Y10374420D01*
X978752Y10740100D01*
X1517568Y10740100D01*
X1883247Y10374420D01*
X2051637Y10391810D01*
X2104146Y10555253D01*
X2123760Y10725799D01*
X2109726Y10896895D01*
X2093303Y10954401D01*
X4972560Y10954401D01*
X4986594Y10783305D01*
X5033738Y10618234D01*
X5044683Y10591810D01*
X5213073Y10574420D01*
X5578752Y10940100D01*
X6117568Y10940100D01*
X6483247Y10574420D01*
X6651637Y10591810D01*
X6704146Y10755253D01*
X6723760Y10925799D01*
X6709726Y11096895D01*
X6662582Y11261966D01*
X6651637Y11288390D01*
X6483247Y11305780D01*
X6117568Y10940100D01*
X5578752Y10940100D01*
X5213073Y11305780D01*
X5044683Y11288390D01*
X4992174Y11124947D01*
X4972560Y10954401D01*
X2093303Y10954401D01*
X2062582Y11061966D01*
X2051637Y11088390D01*
X1883247Y11105780D01*
X1517568Y10740100D01*
X978752Y10740100D01*
X613073Y11105780D01*
X444683Y11088390D01*
X392174Y10924947D01*
X372560Y10754401D01*
X197500Y10754401D01*
X197500Y11375187D01*
X882480Y11375187D01*
X1248160Y11009508D01*
X1543665Y11305013D01*
X2092480Y11305013D01*
X2109870Y11136623D01*
X2273313Y11084114D01*
X2443859Y11064500D01*
X2614955Y11078534D01*
X2780026Y11125678D01*
X2806450Y11136623D01*
X2823840Y11305013D01*
X4262480Y11305013D01*
X4279870Y11136623D01*
X4443313Y11084114D01*
X4613859Y11064500D01*
X4784955Y11078534D01*
X4950026Y11125678D01*
X4976450Y11136623D01*
X4993840Y11305013D01*
X4628160Y11670692D01*
X4262480Y11305013D01*
X2823840Y11305013D01*
X2458160Y11670692D01*
X2092480Y11305013D01*
X1543665Y11305013D01*
X1613840Y11375187D01*
X1596450Y11543577D01*
X1433007Y11596086D01*
X1262461Y11615700D01*
X1091365Y11601666D01*
X926294Y11554522D01*
X899870Y11543577D01*
X882480Y11375187D01*
X197500Y11375187D01*
X197500Y11954401D01*
X1582560Y11954401D01*
X1596594Y11783305D01*
X1643738Y11618234D01*
X1654683Y11591810D01*
X1823073Y11574420D01*
X2188752Y11940100D01*
X2727568Y11940100D01*
X3093247Y11574420D01*
X3261637Y11591810D01*
X3314146Y11755253D01*
X3333760Y11925799D01*
X3331414Y11954401D01*
X3752560Y11954401D01*
X3766594Y11783305D01*
X3813738Y11618234D01*
X3824683Y11591810D01*
X3993073Y11574420D01*
X4358752Y11940100D01*
X4897568Y11940100D01*
X5263247Y11574420D01*
X5270673Y11575187D01*
X5482480Y11575187D01*
X5848160Y11209508D01*
X6213840Y11575187D01*
X6196450Y11743577D01*
X6033007Y11796086D01*
X5978098Y11802401D01*
X16263500Y11802401D01*
X16277534Y11631305D01*
X16324678Y11466234D01*
X16335623Y11439810D01*
X16352181Y11438100D01*
X16335623Y11436390D01*
X16283114Y11272947D01*
X16263500Y11102401D01*
X16277534Y10931305D01*
X16324678Y10766234D01*
X16335623Y10739810D01*
X16504013Y10722420D01*
X16788508Y11006916D01*
X16790810Y10984623D01*
X16954253Y10932114D01*
X17124799Y10912500D01*
X17295895Y10926534D01*
X17460966Y10973678D01*
X17487390Y10984623D01*
X17489692Y11006916D01*
X17774187Y10722420D01*
X17942577Y10739810D01*
X17995086Y10903253D01*
X18014700Y11073799D01*
X18012354Y11102401D01*
X18463500Y11102401D01*
X18477534Y10931305D01*
X18524678Y10766234D01*
X18535623Y10739810D01*
X18704013Y10722420D01*
X19069692Y11088100D01*
X19608508Y11088100D01*
X19974187Y10722420D01*
X20142577Y10739810D01*
X20195086Y10903253D01*
X20214700Y11073799D01*
X20200666Y11244895D01*
X20153522Y11409966D01*
X20142577Y11436390D01*
X19974187Y11453780D01*
X19608508Y11088100D01*
X19069692Y11088100D01*
X18704013Y11453780D01*
X18535623Y11436390D01*
X18483114Y11272947D01*
X18463500Y11102401D01*
X18012354Y11102401D01*
X18000666Y11244895D01*
X17953522Y11409966D01*
X17942577Y11436390D01*
X17926019Y11438100D01*
X17942577Y11439810D01*
X17995086Y11603253D01*
X18014700Y11773799D01*
X18000666Y11944895D01*
X17969788Y12053013D01*
X18973420Y12053013D01*
X18990451Y11888100D01*
X18973420Y11723187D01*
X19339100Y11357508D01*
X19704780Y11723187D01*
X19687749Y11888100D01*
X19704780Y12053013D01*
X19339100Y12418692D01*
X18973420Y12053013D01*
X17969788Y12053013D01*
X17953522Y12109966D01*
X17942577Y12136390D01*
X17774187Y12153780D01*
X17489692Y11869284D01*
X17487390Y11891577D01*
X17323947Y11944086D01*
X17153401Y11963700D01*
X16982305Y11949666D01*
X16817234Y11902522D01*
X16790810Y11891577D01*
X16788508Y11869284D01*
X16504013Y12153780D01*
X16335623Y12136390D01*
X16283114Y11972947D01*
X16263500Y11802401D01*
X5978098Y11802401D01*
X5862461Y11815700D01*
X5691365Y11801666D01*
X5526294Y11754522D01*
X5499870Y11743577D01*
X5482480Y11575187D01*
X5270673Y11575187D01*
X5431637Y11591810D01*
X5484146Y11755253D01*
X5503760Y11925799D01*
X5489726Y12096895D01*
X5442582Y12261966D01*
X5431637Y12288390D01*
X5263247Y12305780D01*
X4897568Y11940100D01*
X4358752Y11940100D01*
X3993073Y12305780D01*
X3824683Y12288390D01*
X3772174Y12124947D01*
X3752560Y11954401D01*
X3331414Y11954401D01*
X3319726Y12096895D01*
X3272582Y12261966D01*
X3261637Y12288390D01*
X3093247Y12305780D01*
X2727568Y11940100D01*
X2188752Y11940100D01*
X1823073Y12305780D01*
X1654683Y12288390D01*
X1602174Y12124947D01*
X1582560Y11954401D01*
X197500Y11954401D01*
X197500Y12811013D01*
X2062480Y12811013D01*
X2079870Y12642623D01*
X2098816Y12636536D01*
X2092480Y12575187D01*
X2458160Y12209508D01*
X2823840Y12575187D01*
X4262480Y12575187D01*
X4628160Y12209508D01*
X4993840Y12575187D01*
X4988350Y12628343D01*
X5000026Y12631678D01*
X5026450Y12642623D01*
X5043840Y12811013D01*
X4784243Y13070610D01*
X14505200Y13070610D01*
X14505200Y12973990D01*
X14524050Y12879227D01*
X14561025Y12789961D01*
X14614704Y12709625D01*
X14657629Y12666700D01*
X14614704Y12623775D01*
X14561025Y12543439D01*
X14524050Y12454173D01*
X14505200Y12359410D01*
X14505200Y12262790D01*
X14524050Y12168027D01*
X14561025Y12078761D01*
X14614704Y11998425D01*
X14683025Y11930104D01*
X14763361Y11876425D01*
X14852627Y11839450D01*
X14947390Y11820600D01*
X15044010Y11820600D01*
X15138773Y11839450D01*
X15228039Y11876425D01*
X15308375Y11930104D01*
X15376696Y11998425D01*
X15430375Y12078761D01*
X15467350Y12168027D01*
X15486200Y12262790D01*
X15486200Y12359410D01*
X15473514Y12423187D01*
X16773420Y12423187D01*
X17139100Y12057508D01*
X17504780Y12423187D01*
X17487390Y12591577D01*
X17323947Y12644086D01*
X17153401Y12663700D01*
X16982305Y12649666D01*
X16817234Y12602522D01*
X16790810Y12591577D01*
X16773420Y12423187D01*
X15473514Y12423187D01*
X15467350Y12454173D01*
X15430375Y12543439D01*
X15376696Y12623775D01*
X15333771Y12666700D01*
X15369472Y12702401D01*
X18463500Y12702401D01*
X18477534Y12531305D01*
X18524678Y12366234D01*
X18535623Y12339810D01*
X18704013Y12322420D01*
X19069692Y12688100D01*
X19608508Y12688100D01*
X19974187Y12322420D01*
X20142577Y12339810D01*
X20195086Y12503253D01*
X20214700Y12673799D01*
X20200666Y12844895D01*
X20153522Y13009966D01*
X20142577Y13036390D01*
X19974187Y13053780D01*
X19608508Y12688100D01*
X19069692Y12688100D01*
X18704013Y13053780D01*
X18535623Y13036390D01*
X18483114Y12872947D01*
X18463500Y12702401D01*
X15369472Y12702401D01*
X15376696Y12709625D01*
X15430375Y12789961D01*
X15467350Y12879227D01*
X15482027Y12953013D01*
X16773420Y12953013D01*
X16790810Y12784623D01*
X16954253Y12732114D01*
X17124799Y12712500D01*
X17295895Y12726534D01*
X17460966Y12773678D01*
X17487390Y12784623D01*
X17504780Y12953013D01*
X17139100Y13318692D01*
X16773420Y12953013D01*
X15482027Y12953013D01*
X15486200Y12973990D01*
X15486200Y13070610D01*
X15467350Y13165373D01*
X15430375Y13254639D01*
X15376696Y13334975D01*
X15308375Y13403296D01*
X15228039Y13456975D01*
X15138773Y13493950D01*
X15044010Y13512800D01*
X14947390Y13512800D01*
X14852627Y13493950D01*
X14763361Y13456975D01*
X14683025Y13403296D01*
X14614704Y13334975D01*
X14561025Y13254639D01*
X14524050Y13165373D01*
X14505200Y13070610D01*
X4784243Y13070610D01*
X4678160Y13176692D01*
X4312480Y12811013D01*
X4317970Y12757857D01*
X4306294Y12754522D01*
X4279870Y12743577D01*
X4262480Y12575187D01*
X2823840Y12575187D01*
X2806450Y12743577D01*
X2787504Y12749664D01*
X2793840Y12811013D01*
X2428160Y13176692D01*
X2062480Y12811013D01*
X197500Y12811013D01*
X197500Y13460401D01*
X1552560Y13460401D01*
X1566594Y13289305D01*
X1613738Y13124234D01*
X1624683Y13097810D01*
X1793073Y13080420D01*
X2158752Y13446100D01*
X2697568Y13446100D01*
X3063247Y13080420D01*
X3231637Y13097810D01*
X3284146Y13261253D01*
X3303760Y13431799D01*
X3301414Y13460401D01*
X3802560Y13460401D01*
X3816594Y13289305D01*
X3863738Y13124234D01*
X3874683Y13097810D01*
X4043073Y13080420D01*
X4408752Y13446100D01*
X4947568Y13446100D01*
X5313247Y13080420D01*
X5481637Y13097810D01*
X5534146Y13261253D01*
X5553760Y13431799D01*
X5539726Y13602895D01*
X5534404Y13621528D01*
X5663313Y13580114D01*
X5833859Y13560500D01*
X6004955Y13574534D01*
X6170026Y13621678D01*
X6196450Y13632623D01*
X6213840Y13801013D01*
X5848160Y14166692D01*
X5482480Y13801013D01*
X5483671Y13789479D01*
X5481637Y13794390D01*
X5313247Y13811780D01*
X4947568Y13446100D01*
X4408752Y13446100D01*
X4043073Y13811780D01*
X3874683Y13794390D01*
X3822174Y13630947D01*
X3802560Y13460401D01*
X3301414Y13460401D01*
X3289726Y13602895D01*
X3242582Y13767966D01*
X3231637Y13794390D01*
X3063247Y13811780D01*
X2697568Y13446100D01*
X2158752Y13446100D01*
X1793073Y13811780D01*
X1624683Y13794390D01*
X1572174Y13630947D01*
X1552560Y13460401D01*
X197500Y13460401D01*
X197500Y14001013D01*
X882480Y14001013D01*
X899870Y13832623D01*
X1063313Y13780114D01*
X1233859Y13760500D01*
X1404955Y13774534D01*
X1570026Y13821678D01*
X1596450Y13832623D01*
X1613840Y14001013D01*
X1533666Y14081187D01*
X2062480Y14081187D01*
X2428160Y13715508D01*
X2793840Y14081187D01*
X4312480Y14081187D01*
X4678160Y13715508D01*
X5043840Y14081187D01*
X5042649Y14092721D01*
X5044683Y14087810D01*
X5213073Y14070420D01*
X5578752Y14436100D01*
X6117568Y14436100D01*
X6483247Y14070420D01*
X6651637Y14087810D01*
X6704146Y14251253D01*
X6710028Y14302401D01*
X16263500Y14302401D01*
X16277534Y14131305D01*
X16324678Y13966234D01*
X16335623Y13939810D01*
X16352181Y13938100D01*
X16335623Y13936390D01*
X16283114Y13772947D01*
X16263500Y13602401D01*
X16277534Y13431305D01*
X16324678Y13266234D01*
X16335623Y13239810D01*
X16504013Y13222420D01*
X16788508Y13506916D01*
X16790810Y13484623D01*
X16954253Y13432114D01*
X17124799Y13412500D01*
X17295895Y13426534D01*
X17460966Y13473678D01*
X17487390Y13484623D01*
X17489692Y13506916D01*
X17774187Y13222420D01*
X17942577Y13239810D01*
X17995086Y13403253D01*
X18014700Y13573799D01*
X18008203Y13653013D01*
X18973420Y13653013D01*
X18990451Y13488100D01*
X18973420Y13323187D01*
X19339100Y12957508D01*
X19704780Y13323187D01*
X19687749Y13488100D01*
X19704780Y13653013D01*
X19339100Y14018692D01*
X18973420Y13653013D01*
X18008203Y13653013D01*
X18000666Y13744895D01*
X17953522Y13909966D01*
X17942577Y13936390D01*
X17926019Y13938100D01*
X17942577Y13939810D01*
X17995086Y14103253D01*
X18014700Y14273799D01*
X18012354Y14302401D01*
X18463500Y14302401D01*
X18477534Y14131305D01*
X18524678Y13966234D01*
X18535623Y13939810D01*
X18704013Y13922420D01*
X19069692Y14288100D01*
X19608508Y14288100D01*
X19974187Y13922420D01*
X20142577Y13939810D01*
X20195086Y14103253D01*
X20214700Y14273799D01*
X20200666Y14444895D01*
X20153522Y14609966D01*
X20142577Y14636390D01*
X19974187Y14653780D01*
X19608508Y14288100D01*
X19069692Y14288100D01*
X18704013Y14653780D01*
X18535623Y14636390D01*
X18483114Y14472947D01*
X18463500Y14302401D01*
X18012354Y14302401D01*
X18000666Y14444895D01*
X17953522Y14609966D01*
X17942577Y14636390D01*
X17774187Y14653780D01*
X17489692Y14369284D01*
X17487390Y14391577D01*
X17323947Y14444086D01*
X17153401Y14463700D01*
X16982305Y14449666D01*
X16817234Y14402522D01*
X16790810Y14391577D01*
X16788508Y14369284D01*
X16504013Y14653780D01*
X16335623Y14636390D01*
X16283114Y14472947D01*
X16263500Y14302401D01*
X6710028Y14302401D01*
X6723760Y14421799D01*
X6709726Y14592895D01*
X6662582Y14757966D01*
X6651637Y14784390D01*
X6483247Y14801780D01*
X6117568Y14436100D01*
X5578752Y14436100D01*
X5213073Y14801780D01*
X5044683Y14784390D01*
X4992174Y14620947D01*
X4972560Y14450401D01*
X4986594Y14279305D01*
X4991916Y14260672D01*
X4863007Y14302086D01*
X4692461Y14321700D01*
X4521365Y14307666D01*
X4356294Y14260522D01*
X4329870Y14249577D01*
X4312480Y14081187D01*
X2793840Y14081187D01*
X2776450Y14249577D01*
X2613007Y14302086D01*
X2442461Y14321700D01*
X2271365Y14307666D01*
X2106294Y14260522D01*
X2079870Y14249577D01*
X2062480Y14081187D01*
X1533666Y14081187D01*
X1248160Y14366692D01*
X882480Y14001013D01*
X197500Y14001013D01*
X197500Y14650401D01*
X372560Y14650401D01*
X386594Y14479305D01*
X433738Y14314234D01*
X444683Y14287810D01*
X613073Y14270420D01*
X978752Y14636100D01*
X1517568Y14636100D01*
X1883247Y14270420D01*
X2051637Y14287810D01*
X2104146Y14451253D01*
X2123760Y14621799D01*
X2109726Y14792895D01*
X2062582Y14957966D01*
X2051637Y14984390D01*
X1883247Y15001780D01*
X1517568Y14636100D01*
X978752Y14636100D01*
X613073Y15001780D01*
X444683Y14984390D01*
X392174Y14820947D01*
X372560Y14650401D01*
X197500Y14650401D01*
X197500Y15271187D01*
X882480Y15271187D01*
X1248160Y14905508D01*
X1413839Y15071187D01*
X5482480Y15071187D01*
X5848160Y14705508D01*
X6065839Y14923187D01*
X16773420Y14923187D01*
X17139100Y14557508D01*
X17504780Y14923187D01*
X18973420Y14923187D01*
X19339100Y14557508D01*
X19704780Y14923187D01*
X19687390Y15091577D01*
X19523947Y15144086D01*
X19353401Y15163700D01*
X19182305Y15149666D01*
X19017234Y15102522D01*
X18990810Y15091577D01*
X18973420Y14923187D01*
X17504780Y14923187D01*
X17487390Y15091577D01*
X17323947Y15144086D01*
X17153401Y15163700D01*
X16982305Y15149666D01*
X16817234Y15102522D01*
X16790810Y15091577D01*
X16773420Y14923187D01*
X6065839Y14923187D01*
X6213840Y15071187D01*
X6196450Y15239577D01*
X6033007Y15292086D01*
X5862461Y15311700D01*
X5691365Y15297666D01*
X5526294Y15250522D01*
X5499870Y15239577D01*
X5482480Y15071187D01*
X1413839Y15071187D01*
X1613840Y15271187D01*
X1596450Y15439577D01*
X1433007Y15492086D01*
X1262461Y15511700D01*
X1091365Y15497666D01*
X926294Y15450522D01*
X899870Y15439577D01*
X882480Y15271187D01*
X197500Y15271187D01*
X197500Y15811410D01*
X15745600Y15811410D01*
X15745600Y15714790D01*
X15764450Y15620027D01*
X15801425Y15530761D01*
X15855104Y15450425D01*
X15923425Y15382104D01*
X16003761Y15328425D01*
X16093027Y15291450D01*
X16187790Y15272600D01*
X16284410Y15272600D01*
X16379173Y15291450D01*
X16468439Y15328425D01*
X16548775Y15382104D01*
X16617096Y15450425D01*
X16670775Y15530761D01*
X16707750Y15620027D01*
X16726600Y15714790D01*
X16726600Y15811410D01*
X16707750Y15906173D01*
X16670775Y15995439D01*
X16617096Y16075775D01*
X16590961Y16101910D01*
X21399000Y16101910D01*
X21399000Y16005290D01*
X21417850Y15910527D01*
X21454825Y15821261D01*
X21508504Y15740925D01*
X21576825Y15672604D01*
X21657161Y15618925D01*
X21746427Y15581950D01*
X21841190Y15563100D01*
X21937810Y15563100D01*
X22032573Y15581950D01*
X22121839Y15618925D01*
X22202175Y15672604D01*
X22270496Y15740925D01*
X22316523Y15809810D01*
X28345900Y15809810D01*
X28345900Y15713190D01*
X28364750Y15618427D01*
X28401725Y15529161D01*
X28455404Y15448825D01*
X28523725Y15380504D01*
X28604061Y15326825D01*
X28693327Y15289850D01*
X28788090Y15271000D01*
X28884710Y15271000D01*
X28979473Y15289850D01*
X29068739Y15326825D01*
X29149075Y15380504D01*
X29217396Y15448825D01*
X29271075Y15529161D01*
X29308050Y15618427D01*
X29326900Y15713190D01*
X29326900Y15809810D01*
X29308050Y15904573D01*
X29271075Y15993839D01*
X29217396Y16074175D01*
X29149075Y16142496D01*
X29068739Y16196175D01*
X28979473Y16233150D01*
X28884710Y16252000D01*
X28788090Y16252000D01*
X28693327Y16233150D01*
X28604061Y16196175D01*
X28523725Y16142496D01*
X28455404Y16074175D01*
X28401725Y15993839D01*
X28364750Y15904573D01*
X28345900Y15809810D01*
X22316523Y15809810D01*
X22324175Y15821261D01*
X22361150Y15910527D01*
X22380000Y16005290D01*
X22380000Y16101910D01*
X22361150Y16196673D01*
X22324175Y16285939D01*
X22270496Y16366275D01*
X22202175Y16434596D01*
X22121839Y16488275D01*
X22032573Y16525250D01*
X21937810Y16544100D01*
X21841190Y16544100D01*
X21746427Y16525250D01*
X21657161Y16488275D01*
X21576825Y16434596D01*
X21508504Y16366275D01*
X21454825Y16285939D01*
X21417850Y16196673D01*
X21399000Y16101910D01*
X16590961Y16101910D01*
X16548775Y16144096D01*
X16468439Y16197775D01*
X16379173Y16234750D01*
X16284410Y16253600D01*
X16187790Y16253600D01*
X16093027Y16234750D01*
X16003761Y16197775D01*
X15923425Y16144096D01*
X15855104Y16075775D01*
X15801425Y15995439D01*
X15764450Y15906173D01*
X15745600Y15811410D01*
X197500Y15811410D01*
X197500Y16201013D01*
X882480Y16201013D01*
X899870Y16032623D01*
X1063313Y15980114D01*
X1233859Y15960500D01*
X1404955Y15974534D01*
X1570026Y16021678D01*
X1596450Y16032623D01*
X1613840Y16201013D01*
X1413840Y16401013D01*
X5482480Y16401013D01*
X5499870Y16232623D01*
X5663313Y16180114D01*
X5833859Y16160500D01*
X6004955Y16174534D01*
X6170026Y16221678D01*
X6196450Y16232623D01*
X6213840Y16401013D01*
X5848160Y16766692D01*
X5482480Y16401013D01*
X1413840Y16401013D01*
X1248160Y16566692D01*
X882480Y16201013D01*
X197500Y16201013D01*
X197500Y16850401D01*
X372560Y16850401D01*
X386594Y16679305D01*
X433738Y16514234D01*
X444683Y16487810D01*
X613073Y16470420D01*
X978752Y16836100D01*
X1517568Y16836100D01*
X1883247Y16470420D01*
X2051637Y16487810D01*
X2104146Y16651253D01*
X2123760Y16821799D01*
X2109726Y16992895D01*
X2093303Y17050401D01*
X4972560Y17050401D01*
X4986594Y16879305D01*
X5033738Y16714234D01*
X5044683Y16687810D01*
X5213073Y16670420D01*
X5578752Y17036100D01*
X6117568Y17036100D01*
X6483247Y16670420D01*
X6651637Y16687810D01*
X6704146Y16851253D01*
X6723760Y17021799D01*
X6721086Y17054410D01*
X16859700Y17054410D01*
X16859700Y16957790D01*
X16878550Y16863027D01*
X16915525Y16773761D01*
X16969204Y16693425D01*
X17037525Y16625104D01*
X17117861Y16571425D01*
X17207127Y16534450D01*
X17301890Y16515600D01*
X17398510Y16515600D01*
X17493273Y16534450D01*
X17582539Y16571425D01*
X17662875Y16625104D01*
X17731196Y16693425D01*
X17739100Y16705254D01*
X17747004Y16693425D01*
X17815325Y16625104D01*
X17895661Y16571425D01*
X17984927Y16534450D01*
X18079690Y16515600D01*
X18176310Y16515600D01*
X18271073Y16534450D01*
X18360339Y16571425D01*
X18440675Y16625104D01*
X18508996Y16693425D01*
X18562675Y16773761D01*
X18599650Y16863027D01*
X18618500Y16957790D01*
X18618500Y17050190D01*
X18637187Y17042450D01*
X18731950Y17023600D01*
X18828570Y17023600D01*
X18923333Y17042450D01*
X19012599Y17079425D01*
X19092935Y17133104D01*
X19161256Y17201425D01*
X19169160Y17213254D01*
X19177064Y17201425D01*
X19245385Y17133104D01*
X19325721Y17079425D01*
X19414987Y17042450D01*
X19509750Y17023600D01*
X19558321Y17023600D01*
X19532125Y17006096D01*
X19463804Y16937775D01*
X19410125Y16857439D01*
X19373150Y16768173D01*
X19354300Y16673410D01*
X19354300Y16576790D01*
X19373150Y16482027D01*
X19410125Y16392761D01*
X19463804Y16312425D01*
X19532125Y16244104D01*
X19612461Y16190425D01*
X19701727Y16153450D01*
X19796490Y16134600D01*
X19893110Y16134600D01*
X19987873Y16153450D01*
X20077139Y16190425D01*
X20157475Y16244104D01*
X20225796Y16312425D01*
X20279475Y16392761D01*
X20316450Y16482027D01*
X20335300Y16576790D01*
X20335300Y16673410D01*
X20316450Y16768173D01*
X20279475Y16857439D01*
X20225796Y16937775D01*
X20157475Y17006096D01*
X20077139Y17059775D01*
X19987873Y17096750D01*
X19905628Y17113110D01*
X25704300Y17113110D01*
X25704300Y17016490D01*
X25723150Y16921727D01*
X25760125Y16832461D01*
X25813804Y16752125D01*
X25882125Y16683804D01*
X25962461Y16630125D01*
X26051727Y16593150D01*
X26146490Y16574300D01*
X26243110Y16574300D01*
X26337873Y16593150D01*
X26427139Y16630125D01*
X26507475Y16683804D01*
X26575796Y16752125D01*
X26629475Y16832461D01*
X26666450Y16921727D01*
X26685300Y17016490D01*
X26685300Y17113110D01*
X26666450Y17207873D01*
X26629475Y17297139D01*
X26575796Y17377475D01*
X26507475Y17445796D01*
X26427139Y17499475D01*
X26337873Y17536450D01*
X26243110Y17555300D01*
X26146490Y17555300D01*
X26051727Y17536450D01*
X25962461Y17499475D01*
X25882125Y17445796D01*
X25813804Y17377475D01*
X25760125Y17297139D01*
X25723150Y17207873D01*
X25704300Y17113110D01*
X19905628Y17113110D01*
X19893110Y17115600D01*
X19844539Y17115600D01*
X19870735Y17133104D01*
X19939056Y17201425D01*
X19992735Y17281761D01*
X20029710Y17371027D01*
X20048560Y17465790D01*
X20048560Y17562410D01*
X27495000Y17562410D01*
X27495000Y17465790D01*
X27513850Y17371027D01*
X27550825Y17281761D01*
X27604504Y17201425D01*
X27672825Y17133104D01*
X27753161Y17079425D01*
X27842427Y17042450D01*
X27937190Y17023600D01*
X28033810Y17023600D01*
X28128573Y17042450D01*
X28217839Y17079425D01*
X28298175Y17133104D01*
X28366496Y17201425D01*
X28420175Y17281761D01*
X28457150Y17371027D01*
X28476000Y17465790D01*
X28476000Y17562410D01*
X28457150Y17657173D01*
X28420175Y17746439D01*
X28366496Y17826775D01*
X28298175Y17895096D01*
X28217839Y17948775D01*
X28128573Y17985750D01*
X28033810Y18004600D01*
X27937190Y18004600D01*
X27842427Y17985750D01*
X27753161Y17948775D01*
X27672825Y17895096D01*
X27604504Y17826775D01*
X27550825Y17746439D01*
X27513850Y17657173D01*
X27495000Y17562410D01*
X20048560Y17562410D01*
X20029710Y17657173D01*
X19992735Y17746439D01*
X19939056Y17826775D01*
X19870735Y17895096D01*
X19790399Y17948775D01*
X19701133Y17985750D01*
X19606370Y18004600D01*
X19509750Y18004600D01*
X19414987Y17985750D01*
X19325721Y17948775D01*
X19245385Y17895096D01*
X19177064Y17826775D01*
X19169160Y17814946D01*
X19161256Y17826775D01*
X19092935Y17895096D01*
X19012599Y17948775D01*
X18923333Y17985750D01*
X18828570Y18004600D01*
X18731950Y18004600D01*
X18637187Y17985750D01*
X18547921Y17948775D01*
X18467585Y17895096D01*
X18399264Y17826775D01*
X18345585Y17746439D01*
X18308610Y17657173D01*
X18289760Y17562410D01*
X18289760Y17470010D01*
X18271073Y17477750D01*
X18176310Y17496600D01*
X18079690Y17496600D01*
X17984927Y17477750D01*
X17895661Y17440775D01*
X17815325Y17387096D01*
X17747004Y17318775D01*
X17739100Y17306946D01*
X17731196Y17318775D01*
X17662875Y17387096D01*
X17582539Y17440775D01*
X17493273Y17477750D01*
X17398510Y17496600D01*
X17301890Y17496600D01*
X17207127Y17477750D01*
X17117861Y17440775D01*
X17037525Y17387096D01*
X16969204Y17318775D01*
X16915525Y17238439D01*
X16878550Y17149173D01*
X16859700Y17054410D01*
X6721086Y17054410D01*
X6709726Y17192895D01*
X6662582Y17357966D01*
X6651637Y17384390D01*
X6483247Y17401780D01*
X6117568Y17036100D01*
X5578752Y17036100D01*
X5213073Y17401780D01*
X5044683Y17384390D01*
X4992174Y17220947D01*
X4972560Y17050401D01*
X2093303Y17050401D01*
X2062582Y17157966D01*
X2051637Y17184390D01*
X1883247Y17201780D01*
X1517568Y16836100D01*
X978752Y16836100D01*
X613073Y17201780D01*
X444683Y17184390D01*
X392174Y17020947D01*
X372560Y16850401D01*
X197500Y16850401D01*
X197500Y17471187D01*
X882480Y17471187D01*
X1248160Y17105508D01*
X1543665Y17401013D01*
X2092480Y17401013D01*
X2109870Y17232623D01*
X2273313Y17180114D01*
X2443859Y17160500D01*
X2614955Y17174534D01*
X2780026Y17221678D01*
X2806450Y17232623D01*
X2823840Y17401013D01*
X4262480Y17401013D01*
X4279870Y17232623D01*
X4443313Y17180114D01*
X4613859Y17160500D01*
X4784955Y17174534D01*
X4950026Y17221678D01*
X4976450Y17232623D01*
X4993840Y17401013D01*
X4628160Y17766692D01*
X4262480Y17401013D01*
X2823840Y17401013D01*
X2458160Y17766692D01*
X2092480Y17401013D01*
X1543665Y17401013D01*
X1613840Y17471187D01*
X1596450Y17639577D01*
X1433007Y17692086D01*
X1262461Y17711700D01*
X1091365Y17697666D01*
X926294Y17650522D01*
X899870Y17639577D01*
X882480Y17471187D01*
X197500Y17471187D01*
X197500Y18050401D01*
X1582560Y18050401D01*
X1596594Y17879305D01*
X1643738Y17714234D01*
X1654683Y17687810D01*
X1823073Y17670420D01*
X2188752Y18036100D01*
X2727568Y18036100D01*
X3093247Y17670420D01*
X3261637Y17687810D01*
X3314146Y17851253D01*
X3333760Y18021799D01*
X3331414Y18050401D01*
X3752560Y18050401D01*
X3766594Y17879305D01*
X3813738Y17714234D01*
X3824683Y17687810D01*
X3993073Y17670420D01*
X4358752Y18036100D01*
X4897568Y18036100D01*
X5263247Y17670420D01*
X5270673Y17671187D01*
X5482480Y17671187D01*
X5848160Y17305508D01*
X6213840Y17671187D01*
X6196450Y17839577D01*
X6033007Y17892086D01*
X5862461Y17911700D01*
X5691365Y17897666D01*
X5526294Y17850522D01*
X5499870Y17839577D01*
X5482480Y17671187D01*
X5270673Y17671187D01*
X5431637Y17687810D01*
X5484146Y17851253D01*
X5503760Y18021799D01*
X5489726Y18192895D01*
X5442582Y18357966D01*
X5431637Y18384390D01*
X5263247Y18401780D01*
X4897568Y18036100D01*
X4358752Y18036100D01*
X3993073Y18401780D01*
X3824683Y18384390D01*
X3772174Y18220947D01*
X3752560Y18050401D01*
X3331414Y18050401D01*
X3319726Y18192895D01*
X3272582Y18357966D01*
X3261637Y18384390D01*
X3093247Y18401780D01*
X2727568Y18036100D01*
X2188752Y18036100D01*
X1823073Y18401780D01*
X1654683Y18384390D01*
X1602174Y18220947D01*
X1582560Y18050401D01*
X197500Y18050401D01*
X197500Y18671187D01*
X2092480Y18671187D01*
X2458160Y18305508D01*
X2823840Y18671187D01*
X4262480Y18671187D01*
X4628160Y18305508D01*
X4993840Y18671187D01*
X4976450Y18839577D01*
X4813007Y18892086D01*
X4779757Y18895910D01*
X15620500Y18895910D01*
X15620500Y18799290D01*
X15639350Y18704527D01*
X15676325Y18615261D01*
X15730004Y18534925D01*
X15798325Y18466604D01*
X15878661Y18412925D01*
X15967927Y18375950D01*
X16062690Y18357100D01*
X16159310Y18357100D01*
X16254073Y18375950D01*
X16343339Y18412925D01*
X16423675Y18466604D01*
X16491996Y18534925D01*
X16545675Y18615261D01*
X16582650Y18704527D01*
X16601500Y18799290D01*
X16601500Y18895910D01*
X16582650Y18990673D01*
X16545675Y19079939D01*
X16491996Y19160275D01*
X16423675Y19228596D01*
X16343339Y19282275D01*
X16254073Y19319250D01*
X16159310Y19338100D01*
X16062690Y19338100D01*
X15967927Y19319250D01*
X15878661Y19282275D01*
X15798325Y19228596D01*
X15730004Y19160275D01*
X15676325Y19079939D01*
X15639350Y18990673D01*
X15620500Y18895910D01*
X4779757Y18895910D01*
X4642461Y18911700D01*
X4471365Y18897666D01*
X4306294Y18850522D01*
X4279870Y18839577D01*
X4262480Y18671187D01*
X2823840Y18671187D01*
X2806450Y18839577D01*
X2643007Y18892086D01*
X2472461Y18911700D01*
X2301365Y18897666D01*
X2136294Y18850522D01*
X2109870Y18839577D01*
X2092480Y18671187D01*
X197500Y18671187D01*
X197500Y19414818D01*
X20899569Y19414818D01*
X20910225Y19250822D01*
X21064711Y19202654D01*
X21225626Y19185549D01*
X21386786Y19200166D01*
X21541998Y19245944D01*
X21553775Y19250822D01*
X21564431Y19414818D01*
X21874569Y19414818D01*
X21885225Y19250822D01*
X22039711Y19202654D01*
X22200626Y19185549D01*
X22361786Y19200166D01*
X22516998Y19245944D01*
X22528775Y19250822D01*
X22539431Y19414818D01*
X22849569Y19414818D01*
X22860225Y19250822D01*
X23014711Y19202654D01*
X23175626Y19185549D01*
X23336786Y19200166D01*
X23491998Y19245944D01*
X23503775Y19250822D01*
X23514431Y19414818D01*
X23507839Y19421410D01*
X24235300Y19421410D01*
X24235300Y19324790D01*
X24254150Y19230027D01*
X24291125Y19140761D01*
X24343785Y19061950D01*
X24291125Y18983139D01*
X24254150Y18893873D01*
X24235300Y18799110D01*
X24235300Y18702490D01*
X24254150Y18607727D01*
X24291125Y18518461D01*
X24344804Y18438125D01*
X24413125Y18369804D01*
X24493461Y18316125D01*
X24582727Y18279150D01*
X24677490Y18260300D01*
X24774110Y18260300D01*
X24868873Y18279150D01*
X24958139Y18316125D01*
X25038475Y18369804D01*
X25106796Y18438125D01*
X25160475Y18518461D01*
X25174785Y18553010D01*
X30225500Y18553010D01*
X30225500Y18456390D01*
X30244350Y18361627D01*
X30281325Y18272361D01*
X30329742Y18199900D01*
X30281325Y18127439D01*
X30244350Y18038173D01*
X30225500Y17943410D01*
X30225500Y17846790D01*
X30244350Y17752027D01*
X30281325Y17662761D01*
X30335004Y17582425D01*
X30403325Y17514104D01*
X30483661Y17460425D01*
X30572927Y17423450D01*
X30667690Y17404600D01*
X30764310Y17404600D01*
X30859073Y17423450D01*
X30948339Y17460425D01*
X31028675Y17514104D01*
X31096996Y17582425D01*
X31150675Y17662761D01*
X31187650Y17752027D01*
X31206500Y17846790D01*
X31206500Y17943410D01*
X31187650Y18038173D01*
X31150675Y18127439D01*
X31102258Y18199900D01*
X31150675Y18272361D01*
X31187650Y18361627D01*
X31206500Y18456390D01*
X31206500Y18553010D01*
X31187650Y18647773D01*
X31150675Y18737039D01*
X31096996Y18817375D01*
X31028675Y18885696D01*
X30948339Y18939375D01*
X30859073Y18976350D01*
X30764310Y18995200D01*
X30667690Y18995200D01*
X30572927Y18976350D01*
X30483661Y18939375D01*
X30403325Y18885696D01*
X30335004Y18817375D01*
X30281325Y18737039D01*
X30244350Y18647773D01*
X30225500Y18553010D01*
X25174785Y18553010D01*
X25197450Y18607727D01*
X25216300Y18702490D01*
X25216300Y18799110D01*
X25197450Y18893873D01*
X25160475Y18983139D01*
X25107815Y19061950D01*
X25160475Y19140761D01*
X25197450Y19230027D01*
X25216300Y19324790D01*
X25216300Y19421410D01*
X25197450Y19516173D01*
X25160475Y19605439D01*
X25106796Y19685775D01*
X25038475Y19754096D01*
X25023189Y19764310D01*
X26267300Y19764310D01*
X26267300Y19667690D01*
X26286150Y19572927D01*
X26323125Y19483661D01*
X26376804Y19403325D01*
X26445125Y19335004D01*
X26525461Y19281325D01*
X26614727Y19244350D01*
X26709490Y19225500D01*
X26806110Y19225500D01*
X26900873Y19244350D01*
X26990139Y19281325D01*
X27070475Y19335004D01*
X27138796Y19403325D01*
X27192475Y19483661D01*
X27229450Y19572927D01*
X27248300Y19667690D01*
X27248300Y19764310D01*
X27229450Y19859073D01*
X27192475Y19948339D01*
X27138796Y20028675D01*
X27070475Y20096996D01*
X26990139Y20150675D01*
X26900873Y20187650D01*
X26806110Y20206500D01*
X26709490Y20206500D01*
X26614727Y20187650D01*
X26525461Y20150675D01*
X26445125Y20096996D01*
X26376804Y20028675D01*
X26323125Y19948339D01*
X26286150Y19859073D01*
X26267300Y19764310D01*
X25023189Y19764310D01*
X24958139Y19807775D01*
X24868873Y19844750D01*
X24774110Y19863600D01*
X24677490Y19863600D01*
X24582727Y19844750D01*
X24493461Y19807775D01*
X24413125Y19754096D01*
X24344804Y19685775D01*
X24291125Y19605439D01*
X24254150Y19516173D01*
X24235300Y19421410D01*
X23507839Y19421410D01*
X23182000Y19747249D01*
X22849569Y19414818D01*
X22539431Y19414818D01*
X22207000Y19747249D01*
X21874569Y19414818D01*
X21564431Y19414818D01*
X21232000Y19747249D01*
X20899569Y19414818D01*
X197500Y19414818D01*
X197500Y20424710D01*
X18632900Y20424710D01*
X18632900Y20328090D01*
X18651750Y20233327D01*
X18688725Y20144061D01*
X18742404Y20063725D01*
X18810725Y19995404D01*
X18891061Y19941725D01*
X18980327Y19904750D01*
X19075090Y19885900D01*
X19171710Y19885900D01*
X19266473Y19904750D01*
X19355739Y19941725D01*
X19436075Y19995404D01*
X19458045Y20017374D01*
X20406549Y20017374D01*
X20421166Y19856214D01*
X20466944Y19701002D01*
X20471822Y19689225D01*
X20635818Y19678569D01*
X20968249Y20011000D01*
X20635818Y20343431D01*
X20471822Y20332775D01*
X20423654Y20178289D01*
X20406549Y20017374D01*
X19458045Y20017374D01*
X19504396Y20063725D01*
X19558075Y20144061D01*
X19595050Y20233327D01*
X19613900Y20328090D01*
X19613900Y20424710D01*
X19595050Y20519473D01*
X19558075Y20608739D01*
X19504396Y20689075D01*
X19454750Y20738721D01*
X19497075Y20767001D01*
X19565396Y20835322D01*
X19619075Y20915658D01*
X19650851Y20992374D01*
X20406549Y20992374D01*
X20421166Y20831214D01*
X20466944Y20676002D01*
X20471822Y20664225D01*
X20635818Y20653569D01*
X20968249Y20986000D01*
X20635818Y21318431D01*
X20471822Y21307775D01*
X20423654Y21153289D01*
X20406549Y20992374D01*
X19650851Y20992374D01*
X19656050Y21004924D01*
X19674900Y21099687D01*
X19674900Y21196307D01*
X19656050Y21291070D01*
X19619075Y21380336D01*
X19565396Y21460672D01*
X19514570Y21511498D01*
X19565396Y21562325D01*
X19578664Y21582182D01*
X20899569Y21582182D01*
X21008251Y21473500D01*
X20899569Y21364818D01*
X20910225Y21200822D01*
X21064711Y21152654D01*
X21225626Y21135549D01*
X21386786Y21150166D01*
X21398784Y21153705D01*
X21398654Y21153289D01*
X21381549Y20992374D01*
X21396166Y20831214D01*
X21399705Y20819216D01*
X21399289Y20819346D01*
X21238374Y20836451D01*
X21077214Y20821834D01*
X20922002Y20776056D01*
X20910225Y20771178D01*
X20899569Y20607182D01*
X21008251Y20498500D01*
X20899569Y20389818D01*
X20910225Y20225822D01*
X21064711Y20177654D01*
X21225626Y20160549D01*
X21386786Y20175166D01*
X21398784Y20178705D01*
X21398654Y20178289D01*
X21381549Y20017374D01*
X21396166Y19856214D01*
X21441944Y19701002D01*
X21446822Y19689225D01*
X21610818Y19678569D01*
X21719500Y19787251D01*
X21828182Y19678569D01*
X21992178Y19689225D01*
X22040346Y19843711D01*
X22057451Y20004626D01*
X22042834Y20165786D01*
X22039295Y20177784D01*
X22039711Y20177654D01*
X22200626Y20160549D01*
X22361786Y20175166D01*
X22373784Y20178705D01*
X22373654Y20178289D01*
X22356549Y20017374D01*
X22371166Y19856214D01*
X22416944Y19701002D01*
X22421822Y19689225D01*
X22585818Y19678569D01*
X22694500Y19787251D01*
X22803182Y19678569D01*
X22967178Y19689225D01*
X23015346Y19843711D01*
X23032451Y20004626D01*
X23031873Y20011000D01*
X23445751Y20011000D01*
X23778182Y19678569D01*
X23942178Y19689225D01*
X23990346Y19843711D01*
X24007451Y20004626D01*
X23992834Y20165786D01*
X23947056Y20320998D01*
X23942178Y20332775D01*
X23778182Y20343431D01*
X23445751Y20011000D01*
X23031873Y20011000D01*
X23017834Y20165786D01*
X23014295Y20177784D01*
X23014711Y20177654D01*
X23175626Y20160549D01*
X23336786Y20175166D01*
X23491998Y20220944D01*
X23503775Y20225822D01*
X23514431Y20389818D01*
X23405749Y20498500D01*
X23514431Y20607182D01*
X23503775Y20771178D01*
X23349289Y20819346D01*
X23188374Y20836451D01*
X23027214Y20821834D01*
X23015216Y20818295D01*
X23015346Y20818711D01*
X23032451Y20979626D01*
X23031873Y20986000D01*
X23445751Y20986000D01*
X23778182Y20653569D01*
X23942178Y20664225D01*
X23946694Y20678710D01*
X30077300Y20678710D01*
X30077300Y20582090D01*
X30096150Y20487327D01*
X30133125Y20398061D01*
X30186804Y20317725D01*
X30255125Y20249404D01*
X30335461Y20195725D01*
X30424727Y20158750D01*
X30519490Y20139900D01*
X30616110Y20139900D01*
X30710873Y20158750D01*
X30800139Y20195725D01*
X30880475Y20249404D01*
X30948796Y20317725D01*
X31002475Y20398061D01*
X31039450Y20487327D01*
X31058300Y20582090D01*
X31058300Y20678710D01*
X31039450Y20773473D01*
X31002475Y20862739D01*
X30948796Y20943075D01*
X30880475Y21011396D01*
X30800139Y21065075D01*
X30710873Y21102050D01*
X30616110Y21120900D01*
X30519490Y21120900D01*
X30424727Y21102050D01*
X30335461Y21065075D01*
X30255125Y21011396D01*
X30186804Y20943075D01*
X30133125Y20862739D01*
X30096150Y20773473D01*
X30077300Y20678710D01*
X23946694Y20678710D01*
X23990346Y20818711D01*
X24007451Y20979626D01*
X23992834Y21140786D01*
X23947056Y21295998D01*
X23942178Y21307775D01*
X23778182Y21318431D01*
X23445751Y20986000D01*
X23031873Y20986000D01*
X23017834Y21140786D01*
X23014295Y21152784D01*
X23014711Y21152654D01*
X23175626Y21135549D01*
X23336786Y21150166D01*
X23491998Y21195944D01*
X23503775Y21200822D01*
X23514431Y21364818D01*
X23405749Y21473500D01*
X23514431Y21582182D01*
X23503775Y21746178D01*
X23349289Y21794346D01*
X23188374Y21811451D01*
X23027214Y21796834D01*
X23015216Y21793295D01*
X23015346Y21793711D01*
X23032451Y21954626D01*
X23031873Y21961000D01*
X23445751Y21961000D01*
X23778182Y21628569D01*
X23942178Y21639225D01*
X23990346Y21793711D01*
X24007451Y21954626D01*
X23992834Y22115786D01*
X23947056Y22270998D01*
X23942178Y22282775D01*
X23778182Y22293431D01*
X23445751Y21961000D01*
X23031873Y21961000D01*
X23017834Y22115786D01*
X22972056Y22270998D01*
X22967178Y22282775D01*
X22803182Y22293431D01*
X22694500Y22184749D01*
X22585818Y22293431D01*
X22421822Y22282775D01*
X22373654Y22128289D01*
X22356549Y21967374D01*
X22371166Y21806214D01*
X22374705Y21794216D01*
X22374289Y21794346D01*
X22213374Y21811451D01*
X22052214Y21796834D01*
X22040216Y21793295D01*
X22040346Y21793711D01*
X22057451Y21954626D01*
X22042834Y22115786D01*
X21997056Y22270998D01*
X21992178Y22282775D01*
X21828182Y22293431D01*
X21719500Y22184749D01*
X21610818Y22293431D01*
X21446822Y22282775D01*
X21398654Y22128289D01*
X21381549Y21967374D01*
X21396166Y21806214D01*
X21399705Y21794216D01*
X21399289Y21794346D01*
X21238374Y21811451D01*
X21077214Y21796834D01*
X20922002Y21751056D01*
X20910225Y21746178D01*
X20899569Y21582182D01*
X19578664Y21582182D01*
X19619075Y21642661D01*
X19656050Y21731927D01*
X19674900Y21826690D01*
X19674900Y21923310D01*
X19666135Y21967374D01*
X20406549Y21967374D01*
X20421166Y21806214D01*
X20466944Y21651002D01*
X20471822Y21639225D01*
X20635818Y21628569D01*
X20968249Y21961000D01*
X20635818Y22293431D01*
X20471822Y22282775D01*
X20423654Y22128289D01*
X20406549Y21967374D01*
X19666135Y21967374D01*
X19656050Y22018073D01*
X19619075Y22107339D01*
X19565396Y22187675D01*
X19497075Y22255996D01*
X19416739Y22309675D01*
X19327473Y22346650D01*
X19232710Y22365500D01*
X19136090Y22365500D01*
X19041327Y22346650D01*
X18952061Y22309675D01*
X18871725Y22255996D01*
X18803404Y22187675D01*
X18749725Y22107339D01*
X18712750Y22018073D01*
X18693900Y21923310D01*
X18693900Y21826690D01*
X18712750Y21731927D01*
X18749725Y21642661D01*
X18803404Y21562325D01*
X18854231Y21511498D01*
X18803404Y21460672D01*
X18749725Y21380336D01*
X18712750Y21291070D01*
X18693900Y21196307D01*
X18693900Y21099687D01*
X18712750Y21004924D01*
X18749725Y20915658D01*
X18803404Y20835322D01*
X18853050Y20785676D01*
X18810725Y20757396D01*
X18742404Y20689075D01*
X18688725Y20608739D01*
X18651750Y20519473D01*
X18632900Y20424710D01*
X197500Y20424710D01*
X197500Y21816910D01*
X15493500Y21816910D01*
X15493500Y21720290D01*
X15512350Y21625527D01*
X15549325Y21536261D01*
X15603004Y21455925D01*
X15671325Y21387604D01*
X15751661Y21333925D01*
X15840927Y21296950D01*
X15935690Y21278100D01*
X16032310Y21278100D01*
X16127073Y21296950D01*
X16216339Y21333925D01*
X16296675Y21387604D01*
X16364996Y21455925D01*
X16418675Y21536261D01*
X16455650Y21625527D01*
X16474500Y21720290D01*
X16474500Y21816910D01*
X16455650Y21911673D01*
X16418675Y22000939D01*
X16364996Y22081275D01*
X16296675Y22149596D01*
X16216339Y22203275D01*
X16127073Y22240250D01*
X16032310Y22259100D01*
X15935690Y22259100D01*
X15840927Y22240250D01*
X15751661Y22203275D01*
X15671325Y22149596D01*
X15603004Y22081275D01*
X15549325Y22000939D01*
X15512350Y21911673D01*
X15493500Y21816910D01*
X197500Y21816910D01*
X197500Y22557182D01*
X20899569Y22557182D01*
X21232000Y22224751D01*
X21564431Y22557182D01*
X21874569Y22557182D01*
X22207000Y22224751D01*
X22539431Y22557182D01*
X22849569Y22557182D01*
X23182000Y22224751D01*
X23514431Y22557182D01*
X23511057Y22609110D01*
X24794100Y22609110D01*
X24794100Y22512490D01*
X24812950Y22417727D01*
X24849925Y22328461D01*
X24903604Y22248125D01*
X24971925Y22179804D01*
X25052261Y22126125D01*
X25141527Y22089150D01*
X25236290Y22070300D01*
X25332910Y22070300D01*
X25427673Y22089150D01*
X25516939Y22126125D01*
X25597275Y22179804D01*
X25665596Y22248125D01*
X25719275Y22328461D01*
X25756250Y22417727D01*
X25775100Y22512490D01*
X25775100Y22609110D01*
X25756250Y22703873D01*
X25719275Y22793139D01*
X25665596Y22873475D01*
X25597275Y22941796D01*
X25516939Y22995475D01*
X25427673Y23032450D01*
X25332910Y23051300D01*
X25236290Y23051300D01*
X25141527Y23032450D01*
X25052261Y22995475D01*
X24971925Y22941796D01*
X24903604Y22873475D01*
X24849925Y22793139D01*
X24812950Y22703873D01*
X24794100Y22609110D01*
X23511057Y22609110D01*
X23503775Y22721178D01*
X23349289Y22769346D01*
X23188374Y22786451D01*
X23027214Y22771834D01*
X22872002Y22726056D01*
X22860225Y22721178D01*
X22849569Y22557182D01*
X22539431Y22557182D01*
X22528775Y22721178D01*
X22374289Y22769346D01*
X22213374Y22786451D01*
X22052214Y22771834D01*
X21897002Y22726056D01*
X21885225Y22721178D01*
X21874569Y22557182D01*
X21564431Y22557182D01*
X21553775Y22721178D01*
X21399289Y22769346D01*
X21238374Y22786451D01*
X21077214Y22771834D01*
X20922002Y22726056D01*
X20910225Y22721178D01*
X20899569Y22557182D01*
X197500Y22557182D01*
X197500Y23371110D01*
X19256900Y23371110D01*
X19256900Y23274490D01*
X19275750Y23179727D01*
X19312725Y23090461D01*
X19366404Y23010125D01*
X19434725Y22941804D01*
X19515061Y22888125D01*
X19604327Y22851150D01*
X19699090Y22832300D01*
X19795710Y22832300D01*
X19890473Y22851150D01*
X19979739Y22888125D01*
X20060075Y22941804D01*
X20128396Y23010125D01*
X20182075Y23090461D01*
X20219050Y23179727D01*
X20237900Y23274490D01*
X20237900Y23371110D01*
X20219050Y23465873D01*
X20216219Y23472710D01*
X26876900Y23472710D01*
X26876900Y23376090D01*
X26895750Y23281327D01*
X26932725Y23192061D01*
X26986404Y23111725D01*
X27054725Y23043404D01*
X27135061Y22989725D01*
X27224327Y22952750D01*
X27319090Y22933900D01*
X27415710Y22933900D01*
X27510473Y22952750D01*
X27599739Y22989725D01*
X27680075Y23043404D01*
X27748396Y23111725D01*
X27802075Y23192061D01*
X27839050Y23281327D01*
X27857900Y23376090D01*
X27857900Y23472710D01*
X27839050Y23567473D01*
X27802075Y23656739D01*
X27748396Y23737075D01*
X27680075Y23805396D01*
X27599739Y23859075D01*
X27510473Y23896050D01*
X27415710Y23914900D01*
X27319090Y23914900D01*
X27224327Y23896050D01*
X27135061Y23859075D01*
X27054725Y23805396D01*
X26986404Y23737075D01*
X26932725Y23656739D01*
X26895750Y23567473D01*
X26876900Y23472710D01*
X20216219Y23472710D01*
X20182075Y23555139D01*
X20128396Y23635475D01*
X20060075Y23703796D01*
X19979739Y23757475D01*
X19890473Y23794450D01*
X19795710Y23813300D01*
X19699090Y23813300D01*
X19604327Y23794450D01*
X19515061Y23757475D01*
X19434725Y23703796D01*
X19366404Y23635475D01*
X19312725Y23555139D01*
X19275750Y23465873D01*
X19256900Y23371110D01*
X197500Y23371110D01*
X197500Y25172600D01*
X10974579Y25172600D01*
X10974579Y24888100D01*
G36*
X22373654Y21153289D02*
G01*
X22356549Y20992374D01*
X22371166Y20831214D01*
X22374705Y20819216D01*
X22374289Y20819346D01*
X22213374Y20836451D01*
X22052214Y20821834D01*
X22040216Y20818295D01*
X22040346Y20818711D01*
X22057451Y20979626D01*
X22042834Y21140786D01*
X22039295Y21152784D01*
X22039711Y21152654D01*
X22200626Y21135549D01*
X22361786Y21150166D01*
X22373784Y21153705D01*
X22373654Y21153289D01*
X22373654Y21153289D01*
G37*
X22373654Y21153289D02*
X22356549Y20992374D01*
X22371166Y20831214D01*
X22374705Y20819216D01*
X22374289Y20819346D01*
X22213374Y20836451D01*
X22052214Y20821834D01*
X22040216Y20818295D01*
X22040346Y20818711D01*
X22057451Y20979626D01*
X22042834Y21140786D01*
X22039295Y21152784D01*
X22039711Y21152654D01*
X22200626Y21135549D01*
X22361786Y21150166D01*
X22373784Y21153705D01*
X22373654Y21153289D01*
M02*
