G04 #@! TF.GenerationSoftware,KiCad,Pcbnew,5.1.4-e60b266~84~ubuntu18.04.1*
G04 #@! TF.CreationDate,2019-11-20T19:52:41-06:00*
G04 #@! TF.ProjectId,rf,72662e6b-6963-4616-945f-706362585858,A*
G04 #@! TF.SameCoordinates,PX811c3f0PY66a06fc*
G04 #@! TF.FileFunction,Copper,L3,Inr*
G04 #@! TF.FilePolarity,Positive*
%FSLAX46Y46*%
G04 Gerber Fmt 4.6, Leading zero omitted, Abs format (unit mm)*
G04 Created by KiCad (PCBNEW 5.1.4-e60b266~84~ubuntu18.04.1) date 2019-11-20 19:52:41*
%MOMM*%
%LPD*%
G04 APERTURE LIST*
%ADD10R,1.000000X1.000000*%
%ADD11C,0.600000*%
%ADD12C,0.125000*%
%ADD13C,0.600000*%
%ADD14C,0.381000*%
%ADD15C,0.127000*%
%ADD16C,0.254000*%
G04 APERTURE END LIST*
D10*
X30734000Y0D03*
X29464000Y0D03*
X28194000Y0D03*
X26924000Y0D03*
X25654000Y0D03*
X24384000Y0D03*
X23114000Y0D03*
X21844000Y0D03*
X20574000Y0D03*
X19304000Y0D03*
X18034000Y0D03*
X16764000Y0D03*
X15494000Y0D03*
X14224000Y0D03*
X12954000Y0D03*
X11684000Y0D03*
X11684000Y25400000D03*
X12954000Y25400000D03*
X14224000Y25400000D03*
X15494000Y25400000D03*
X16764000Y25400000D03*
X18034000Y25400000D03*
X19304000Y25400000D03*
X20574000Y25400000D03*
X21844000Y25400000D03*
X23114000Y25400000D03*
X24384000Y25400000D03*
X25654000Y25400000D03*
X26924000Y25400000D03*
X28194000Y25400000D03*
X29464000Y25400000D03*
X30734000Y25400000D03*
D11*
X17157100Y11800000D03*
X17157100Y13600000D03*
X19357100Y12700000D03*
X17157100Y11100000D03*
X17157100Y14300000D03*
X19357100Y11100000D03*
X19357100Y14300000D03*
X5866160Y17048000D03*
X4646160Y18048000D03*
X2476160Y18048000D03*
X1266160Y16848000D03*
X1266160Y14648000D03*
X2446160Y13458000D03*
X4696160Y13458000D03*
X5866160Y14448000D03*
X5866160Y10952000D03*
X4646160Y11952000D03*
X2476160Y11952000D03*
X1266160Y10752000D03*
X1266160Y8552000D03*
X2446160Y7362000D03*
X4696160Y7362000D03*
X5866160Y8352000D03*
X5866160Y4856000D03*
X4646160Y5856000D03*
X2476160Y5856000D03*
X1266160Y4656000D03*
X1266160Y2456000D03*
X2446160Y1266000D03*
X4696160Y1266000D03*
X5866160Y2256000D03*
X22975000Y21780000D03*
X21475000Y20247900D03*
X22975000Y20247900D03*
X21475000Y21780000D03*
X10915051Y16470596D03*
X12980418Y15962000D03*
X8849379Y16985575D03*
X9241303Y14149782D03*
X11304475Y13634122D03*
X12980418Y13345800D03*
X10897796Y8924490D03*
X8849379Y8414414D03*
X12945983Y9435491D03*
X11279441Y11758563D03*
X9232908Y11247974D03*
X12980418Y12050400D03*
X14928981Y4886680D03*
X22888012Y2359700D03*
X24859658Y3012048D03*
X26589870Y4159510D03*
X27958130Y5722351D03*
X28854645Y7596521D03*
X29221356Y9640365D03*
X29236852Y11723698D03*
X14986200Y2232700D03*
X16951427Y2238004D03*
X18913427Y2238004D03*
X20875427Y2238004D03*
X12964200Y4884700D03*
X11002200Y4884700D03*
X9040200Y4884700D03*
X7078200Y4884700D03*
X15459981Y5700639D03*
X21795981Y4895459D03*
X13024646Y2227245D03*
X11062646Y2227245D03*
X9100646Y2227245D03*
X7138646Y2227245D03*
X7228412Y10993604D03*
X6887379Y8323300D03*
X7228411Y14406385D03*
X14942418Y15962000D03*
X14907983Y9435491D03*
X23636452Y15512000D03*
X25598452Y15512000D03*
X29236852Y13746548D03*
X27560452Y15512000D03*
X19383981Y5700639D03*
X6887379Y17076700D03*
X23636452Y10888000D03*
X25598452Y10888000D03*
X26562299Y9671858D03*
X22882869Y5087474D03*
X24720224Y6051434D03*
X26016919Y7671069D03*
X17421981Y5700639D03*
X21345981Y5700639D03*
X30000000Y4750000D03*
X14750000Y24000000D03*
X14750000Y20000000D03*
X14750000Y22000000D03*
X29000000Y24000000D03*
X29000000Y22250000D03*
X30750000Y22250000D03*
X11366500Y24447500D03*
X12001500Y24447500D03*
X26775800Y19727900D03*
X30585800Y20642300D03*
X28384500Y954760D03*
X28003500Y17526000D03*
X28384500Y1574520D03*
X19141400Y20388300D03*
X27385400Y23436300D03*
X19765400Y23334700D03*
X24743800Y18762700D03*
X30416500Y3175000D03*
X31051500Y3175000D03*
X30734000Y17907000D03*
X30734000Y18516600D03*
X24743800Y19385000D03*
X15013700Y13034200D03*
X15013700Y12323000D03*
X16129000Y18859500D03*
X16257100Y9600000D03*
X16254100Y15775000D03*
X29591000Y3556000D03*
X28956000Y3556000D03*
X19202400Y21159897D03*
X28854400Y15773400D03*
X19202400Y21886900D03*
X26212800Y17076700D03*
X21894800Y24257000D03*
X22077680Y9080500D03*
X21577300Y9669780D03*
X25302600Y22572700D03*
X17368200Y8800000D03*
X18146000Y8800000D03*
X18893200Y8440000D03*
X19671000Y8440000D03*
X20101560Y9118320D03*
X19862800Y16637000D03*
X19576060Y17526000D03*
X18798260Y17526000D03*
X18146000Y17018000D03*
X17368200Y17018000D03*
X16002000Y21780500D03*
X22479000Y16679900D03*
D12*
X17380482Y5489100D02*
X17380482Y5935600D01*
D13*
X19765400Y23334700D02*
X18698700Y23334700D01*
X18698700Y23334700D02*
X18314000Y22950000D01*
X18314000Y22950000D02*
X18314000Y20760000D01*
X18685700Y20388300D02*
X19141400Y20388300D01*
X18314000Y20760000D02*
X18685700Y20388300D01*
X30416500Y3175000D02*
X30734000Y3492500D01*
X31051500Y3175000D02*
X30734000Y3492500D01*
D14*
X30640300Y18508700D02*
X30636680Y18508700D01*
D13*
X30734000Y17907000D02*
X30734000Y18411380D01*
X27385400Y23436300D02*
X27385400Y22462100D01*
X27385400Y22462100D02*
X30734000Y19113500D01*
X30734000Y19113500D02*
X30734000Y18516600D01*
X30734000Y3492500D02*
X31033999Y3792499D01*
X31033999Y3792499D02*
X31033999Y17607001D01*
X31033999Y17607001D02*
X30734000Y17907000D01*
X16254100Y9603000D02*
X16257100Y9600000D01*
X16257100Y15772000D02*
X16254100Y15775000D01*
X16257100Y9600000D02*
X16257100Y15772000D01*
D15*
X24384000Y635000D02*
X24384000Y0D01*
X30124400Y6375400D02*
X24384000Y635000D01*
X28854400Y15773400D02*
X30124400Y14503400D01*
X30124400Y14503400D02*
X30124400Y6375400D01*
X25654000Y1524000D02*
X25654000Y0D01*
X26500100Y16789400D02*
X28651200Y16789400D01*
X28651200Y16789400D02*
X30429210Y15011390D01*
X30429210Y15011390D02*
X30429210Y6299210D01*
X26212800Y17076700D02*
X26500100Y16789400D01*
X30429210Y6299210D02*
X25654000Y1524000D01*
X21894800Y24257000D02*
X21894800Y23749000D01*
X20624800Y22479000D02*
X20624800Y18211800D01*
X21894800Y23749000D02*
X20624800Y22479000D01*
D12*
X20624800Y9263100D02*
X20624800Y18211800D01*
X20855700Y9032200D02*
X20624800Y9263100D01*
X20855700Y3623500D02*
X20855700Y9032200D01*
X21844000Y0D02*
X21844000Y2635200D01*
X21844000Y2635200D02*
X20855700Y3623500D01*
D15*
X23860760Y22428200D02*
X25654000Y24221440D01*
X21308060Y9080500D02*
X21031200Y9357360D01*
X22077680Y9080500D02*
X21308060Y9080500D01*
X25654000Y24221440D02*
X25654000Y25400000D01*
X23860760Y19761200D02*
X23860760Y22428200D01*
X21031200Y9357360D02*
X21031200Y16931640D01*
X21031200Y16931640D02*
X23860760Y19761200D01*
X26924000Y25364440D02*
X26924000Y25400000D01*
X21386800Y9860280D02*
X21577300Y9669780D01*
X26924000Y24907240D02*
X24267160Y22250400D01*
X24267160Y19659600D02*
X21386800Y16779240D01*
X24267160Y22250400D02*
X24267160Y19659600D01*
X21386800Y16779240D02*
X21386800Y9860280D01*
D12*
X26924000Y25400000D02*
X26924000Y24907240D01*
D15*
X23114000Y635000D02*
X23114000Y0D01*
X29819600Y14097000D02*
X29819600Y6451600D01*
X29819600Y6451600D02*
X24384000Y1016000D01*
X27533600Y16383000D02*
X29819600Y14097000D01*
X25302600Y22572700D02*
X25302600Y22408200D01*
X25302600Y22408200D02*
X25400000Y22310800D01*
X25400000Y22310800D02*
X25400000Y16891000D01*
X23495000Y1016000D02*
X23114000Y635000D01*
X24384000Y1016000D02*
X23495000Y1016000D01*
X25400000Y16891000D02*
X25908000Y16383000D01*
X25908000Y16383000D02*
X27533600Y16383000D01*
D12*
X13805700Y7387712D02*
X13805700Y1931112D01*
X17419388Y7951400D02*
X14369388Y7951400D01*
X17605700Y8562500D02*
X17605700Y8137712D01*
X17368200Y8800000D02*
X17605700Y8562500D01*
X14369388Y7951400D02*
X13805700Y7387712D01*
X12954000Y750001D02*
X12954000Y0D01*
X13805700Y1931112D02*
X13437600Y1563012D01*
X13437600Y1233601D02*
X12954000Y750001D01*
X13437600Y1563012D02*
X13437600Y1233601D01*
X17605700Y8137712D02*
X17419388Y7951400D01*
X14224000Y750001D02*
X14224000Y0D01*
X13740400Y1233601D02*
X14224000Y750001D01*
X13740400Y1437588D02*
X13740400Y1233601D01*
X17908500Y8562500D02*
X17908500Y8012288D01*
X17544812Y7648600D02*
X14494812Y7648600D01*
X18146000Y8800000D02*
X17908500Y8562500D01*
X17908500Y8012288D02*
X17544812Y7648600D01*
X14494812Y7648600D02*
X14108500Y7262288D01*
X14108500Y7262288D02*
X14108500Y1805688D01*
X14108500Y1805688D02*
X13740400Y1437588D01*
X18893200Y8440000D02*
X19130700Y8202500D01*
X19130700Y7692712D02*
X18164300Y6726312D01*
X19130700Y8202500D02*
X19130700Y7692712D01*
X18164300Y3178212D02*
X17676600Y2690512D01*
X18164300Y6726312D02*
X18164300Y3178212D01*
X17676600Y2690512D02*
X17676600Y2144612D01*
X17676600Y2144612D02*
X17247600Y1715612D01*
X17247600Y1715612D02*
X17247600Y1233601D01*
X17247600Y1233601D02*
X16764000Y750001D01*
X16764000Y750001D02*
X16764000Y0D01*
X17979400Y2565088D02*
X17979400Y2019188D01*
X19433500Y7567288D02*
X18467100Y6600888D01*
X18467100Y3052788D02*
X17979400Y2565088D01*
X19671000Y8440000D02*
X19433500Y8202500D01*
X19433500Y8202500D02*
X19433500Y7567288D01*
X18467100Y6600888D02*
X18467100Y3052788D01*
X18034000Y750001D02*
X18034000Y0D01*
X17550400Y1233601D02*
X18034000Y750001D01*
X17550400Y1590188D02*
X17550400Y1233601D01*
X17979400Y2019188D02*
X17550400Y1590188D01*
X20574000Y625000D02*
X20574000Y0D01*
X20101560Y9118320D02*
X20320000Y8899880D01*
X20320000Y8899880D02*
X20320000Y879000D01*
X20320000Y879000D02*
X20574000Y625000D01*
D15*
X20269200Y17043400D02*
X20162799Y16936999D01*
X20162799Y16936999D02*
X19862800Y16637000D01*
X21844000Y25400000D02*
X21844000Y25069800D01*
D12*
X21844000Y25400000D02*
X21844000Y25120600D01*
X21844000Y25120600D02*
X21183600Y24460200D01*
X21183600Y23698200D02*
X20269200Y22783800D01*
X21183600Y24460200D02*
X21183600Y23698200D01*
D15*
X20269200Y22783800D02*
X20269200Y17043400D01*
X17551400Y24167399D02*
X18034000Y24649999D01*
X17551400Y19758288D02*
X17551400Y24167399D01*
X19339560Y17762500D02*
X19339560Y17970128D01*
X19339560Y17970128D02*
X17551400Y19758288D01*
X19576060Y17526000D02*
X19339560Y17762500D01*
X18034000Y24649999D02*
X18034000Y25400000D01*
X19034760Y17762500D02*
X18798260Y17526000D01*
X16764000Y24649999D02*
X17246600Y24167399D01*
X16764000Y25400000D02*
X16764000Y24649999D01*
X17246600Y24167399D02*
X17246600Y19632032D01*
X19034760Y17843872D02*
X19034760Y17762500D01*
X17246600Y19632032D02*
X19034760Y17843872D01*
X13741400Y19504288D02*
X13741400Y24167399D01*
X15059288Y18186400D02*
X13741400Y19504288D01*
X18146000Y17018000D02*
X16977600Y18186400D01*
X13741400Y24167399D02*
X14224000Y24649999D01*
X14224000Y24649999D02*
X14224000Y25400000D01*
X16977600Y18186400D02*
X15059288Y18186400D01*
X17368200Y17364747D02*
X16851347Y17881600D01*
X16851347Y17881600D02*
X14933032Y17881600D01*
X13436600Y24167399D02*
X12954000Y24649999D01*
X17368200Y17018000D02*
X17368200Y17364747D01*
X14933032Y17881600D02*
X13436600Y19378032D01*
X12954000Y24649999D02*
X12954000Y25400000D01*
X13436600Y19378032D02*
X13436600Y24167399D01*
D16*
G36*
X10928772Y24900000D02*
G01*
X10933676Y24850207D01*
X10945792Y24810267D01*
X10936180Y24800655D01*
X10875551Y24709918D01*
X10833789Y24609096D01*
X10812500Y24502064D01*
X10812500Y24392936D01*
X10833789Y24285904D01*
X10875551Y24185082D01*
X10936180Y24094345D01*
X11013345Y24017180D01*
X11104082Y23956551D01*
X11204904Y23914789D01*
X11311936Y23893500D01*
X11421064Y23893500D01*
X11528096Y23914789D01*
X11628918Y23956551D01*
X11684000Y23993356D01*
X11739082Y23956551D01*
X11839904Y23914789D01*
X11946936Y23893500D01*
X12056064Y23893500D01*
X12163096Y23914789D01*
X12263918Y23956551D01*
X12354655Y24017180D01*
X12431820Y24094345D01*
X12492449Y24185082D01*
X12534211Y24285904D01*
X12555500Y24392936D01*
X12555500Y24502064D01*
X12534211Y24609096D01*
X12519433Y24644772D01*
X12635479Y24644772D01*
X12636500Y24634404D01*
X12641094Y24587759D01*
X12659249Y24527910D01*
X12688731Y24472753D01*
X12728407Y24424406D01*
X12740530Y24414457D01*
X13119101Y24035885D01*
X13119100Y19393628D01*
X13117564Y19378032D01*
X13121254Y19340564D01*
X13123694Y19315792D01*
X13141849Y19255943D01*
X13171331Y19200786D01*
X13211007Y19152439D01*
X13223130Y19142490D01*
X14697495Y17668124D01*
X14707439Y17656007D01*
X14755785Y17616331D01*
X14810942Y17586849D01*
X14870791Y17568694D01*
X14917436Y17564100D01*
X14917438Y17564100D01*
X14933031Y17562564D01*
X14948624Y17564100D01*
X16719835Y17564100D01*
X16927826Y17356108D01*
X16877251Y17280418D01*
X16835489Y17179596D01*
X16814200Y17072564D01*
X16814200Y16963436D01*
X16835489Y16856404D01*
X16877251Y16755582D01*
X16937880Y16664845D01*
X17015045Y16587680D01*
X17105782Y16527051D01*
X17206604Y16485289D01*
X17313636Y16464000D01*
X17422764Y16464000D01*
X17529796Y16485289D01*
X17630618Y16527051D01*
X17721355Y16587680D01*
X17757100Y16623425D01*
X17792845Y16587680D01*
X17883582Y16527051D01*
X17984404Y16485289D01*
X18091436Y16464000D01*
X18200564Y16464000D01*
X18307596Y16485289D01*
X18408418Y16527051D01*
X18499155Y16587680D01*
X18576320Y16664845D01*
X18636949Y16755582D01*
X18678711Y16856404D01*
X18700000Y16963436D01*
X18700000Y16980691D01*
X18743696Y16972000D01*
X18852824Y16972000D01*
X18959856Y16993289D01*
X19060678Y17035051D01*
X19151415Y17095680D01*
X19187160Y17131425D01*
X19222905Y17095680D01*
X19313642Y17035051D01*
X19414464Y16993289D01*
X19432215Y16989758D01*
X19371851Y16899418D01*
X19330089Y16798596D01*
X19308800Y16691564D01*
X19308800Y16582436D01*
X19330089Y16475404D01*
X19371851Y16374582D01*
X19432480Y16283845D01*
X19509645Y16206680D01*
X19600382Y16146051D01*
X19701204Y16104289D01*
X19808236Y16083000D01*
X19917364Y16083000D01*
X20024396Y16104289D01*
X20125218Y16146051D01*
X20215955Y16206680D01*
X20293120Y16283845D01*
X20308301Y16306564D01*
X20308300Y9632332D01*
X20263156Y9651031D01*
X20156124Y9672320D01*
X20046996Y9672320D01*
X19939964Y9651031D01*
X19839142Y9609269D01*
X19748405Y9548640D01*
X19671240Y9471475D01*
X19610611Y9380738D01*
X19568849Y9279916D01*
X19547560Y9172884D01*
X19547560Y9063756D01*
X19563528Y8983476D01*
X19509404Y8972711D01*
X19408582Y8930949D01*
X19317845Y8870320D01*
X19282100Y8834575D01*
X19246355Y8870320D01*
X19155618Y8930949D01*
X19054796Y8972711D01*
X18947764Y8994000D01*
X18838636Y8994000D01*
X18731604Y8972711D01*
X18680695Y8951624D01*
X18678711Y8961596D01*
X18636949Y9062418D01*
X18576320Y9153155D01*
X18499155Y9230320D01*
X18408418Y9290949D01*
X18307596Y9332711D01*
X18200564Y9354000D01*
X18091436Y9354000D01*
X17984404Y9332711D01*
X17883582Y9290949D01*
X17792845Y9230320D01*
X17757100Y9194575D01*
X17721355Y9230320D01*
X17630618Y9290949D01*
X17529796Y9332711D01*
X17422764Y9354000D01*
X17313636Y9354000D01*
X17206604Y9332711D01*
X17105782Y9290949D01*
X17015045Y9230320D01*
X16937880Y9153155D01*
X16877251Y9062418D01*
X16835489Y8961596D01*
X16814200Y8854564D01*
X16814200Y8745436D01*
X16835489Y8638404D01*
X16877251Y8537582D01*
X16937880Y8446845D01*
X17015045Y8369680D01*
X17105782Y8309051D01*
X17205129Y8267900D01*
X14384931Y8267900D01*
X14369387Y8269431D01*
X14347640Y8267289D01*
X14307343Y8263320D01*
X14247683Y8245222D01*
X14192699Y8215833D01*
X14144506Y8176282D01*
X14134597Y8164208D01*
X13592897Y7622507D01*
X13580818Y7612594D01*
X13541267Y7564400D01*
X13511878Y7509416D01*
X13501467Y7475096D01*
X13493780Y7449756D01*
X13487669Y7387712D01*
X13489200Y7372168D01*
X13489201Y2062212D01*
X13224797Y1797807D01*
X13212718Y1787894D01*
X13173167Y1739700D01*
X13143778Y1684716D01*
X13129391Y1637290D01*
X13125680Y1625056D01*
X13119569Y1563012D01*
X13121100Y1547468D01*
X13121100Y1364699D01*
X12741197Y984796D01*
X12729118Y974883D01*
X12689567Y926689D01*
X12660178Y871705D01*
X12642141Y812247D01*
X12642080Y812045D01*
X12636484Y755228D01*
X12454000Y755228D01*
X12404207Y750324D01*
X12356328Y735800D01*
X12319000Y715847D01*
X12281672Y735800D01*
X12233793Y750324D01*
X12184000Y755228D01*
X11184000Y755228D01*
X11134207Y750324D01*
X11086328Y735800D01*
X11042203Y712214D01*
X11003527Y680473D01*
X10971786Y641797D01*
X10948200Y597672D01*
X10933676Y549793D01*
X10928772Y500000D01*
X10928772Y279000D01*
X279000Y279000D01*
X279000Y13088764D01*
X14459700Y13088764D01*
X14459700Y12979636D01*
X14480989Y12872604D01*
X14522751Y12771782D01*
X14583380Y12681045D01*
X14585825Y12678600D01*
X14583380Y12676155D01*
X14522751Y12585418D01*
X14480989Y12484596D01*
X14459700Y12377564D01*
X14459700Y12268436D01*
X14480989Y12161404D01*
X14522751Y12060582D01*
X14583380Y11969845D01*
X14660545Y11892680D01*
X14751282Y11832051D01*
X14852104Y11790289D01*
X14959136Y11769000D01*
X15068264Y11769000D01*
X15175296Y11790289D01*
X15276118Y11832051D01*
X15366855Y11892680D01*
X15444020Y11969845D01*
X15504649Y12060582D01*
X15546411Y12161404D01*
X15567700Y12268436D01*
X15567700Y12377564D01*
X15546411Y12484596D01*
X15504649Y12585418D01*
X15444020Y12676155D01*
X15441575Y12678600D01*
X15444020Y12681045D01*
X15504649Y12771782D01*
X15546411Y12872604D01*
X15567700Y12979636D01*
X15567700Y13088764D01*
X15546411Y13195796D01*
X15504649Y13296618D01*
X15444020Y13387355D01*
X15366855Y13464520D01*
X15276118Y13525149D01*
X15175296Y13566911D01*
X15068264Y13588200D01*
X14959136Y13588200D01*
X14852104Y13566911D01*
X14751282Y13525149D01*
X14660545Y13464520D01*
X14583380Y13387355D01*
X14522751Y13296618D01*
X14480989Y13195796D01*
X14459700Y13088764D01*
X279000Y13088764D01*
X279000Y15775000D01*
X15697421Y15775000D01*
X15700100Y15747796D01*
X15700100Y15720436D01*
X15703101Y15705348D01*
X15703100Y9660668D01*
X15697421Y9603000D01*
X15708116Y9494397D01*
X15723031Y9445232D01*
X15724389Y9438404D01*
X15727054Y9431970D01*
X15739796Y9389968D01*
X15760485Y9351261D01*
X15766151Y9337582D01*
X15774375Y9325274D01*
X15791238Y9293725D01*
X15813934Y9266070D01*
X15826780Y9246845D01*
X15846126Y9227499D01*
X15863468Y9206368D01*
X15884599Y9189026D01*
X15903945Y9169680D01*
X15926691Y9154482D01*
X15947825Y9137137D01*
X15971935Y9124250D01*
X15994682Y9109051D01*
X16019962Y9098579D01*
X16044068Y9085695D01*
X16070223Y9077761D01*
X16095504Y9067289D01*
X16122336Y9061952D01*
X16148497Y9054016D01*
X16175709Y9051336D01*
X16202536Y9046000D01*
X16229888Y9046000D01*
X16257100Y9043320D01*
X16284311Y9046000D01*
X16311664Y9046000D01*
X16338492Y9051336D01*
X16355966Y9053057D01*
X16365703Y9054016D01*
X16391864Y9061952D01*
X16418696Y9067289D01*
X16443977Y9077761D01*
X16470132Y9085695D01*
X16494238Y9098579D01*
X16519518Y9109051D01*
X16542265Y9124250D01*
X16566375Y9137137D01*
X16587509Y9154482D01*
X16610255Y9169680D01*
X16629601Y9189026D01*
X16650732Y9206368D01*
X16668074Y9227499D01*
X16687420Y9246845D01*
X16702618Y9269591D01*
X16719963Y9290725D01*
X16732850Y9314835D01*
X16748049Y9337582D01*
X16758521Y9362862D01*
X16771405Y9386968D01*
X16779339Y9413123D01*
X16789811Y9438404D01*
X16795148Y9465236D01*
X16803084Y9491397D01*
X16805764Y9518607D01*
X16811100Y9545436D01*
X16811100Y9572796D01*
X16813779Y9600000D01*
X16811100Y9627204D01*
X16811100Y15744796D01*
X16813779Y15772000D01*
X16811100Y15799204D01*
X16811100Y15799212D01*
X16803084Y15880603D01*
X16788168Y15929772D01*
X16786811Y15936596D01*
X16784148Y15943025D01*
X16771405Y15985032D01*
X16750712Y16023747D01*
X16745049Y16037418D01*
X16736830Y16049719D01*
X16719963Y16081275D01*
X16697262Y16108936D01*
X16684420Y16128155D01*
X16668074Y16144501D01*
X16650732Y16165632D01*
X16629601Y16182974D01*
X16607255Y16205320D01*
X16584503Y16220523D01*
X16563375Y16237862D01*
X16539272Y16250745D01*
X16516518Y16265949D01*
X16491229Y16276424D01*
X16467132Y16289304D01*
X16440984Y16297236D01*
X16415696Y16307711D01*
X16388861Y16313048D01*
X16362703Y16320984D01*
X16335493Y16323664D01*
X16308664Y16329000D01*
X16281304Y16329000D01*
X16254100Y16331679D01*
X16226896Y16329000D01*
X16199536Y16329000D01*
X16172707Y16323664D01*
X16145497Y16320984D01*
X16119339Y16313048D01*
X16092504Y16307711D01*
X16067216Y16297236D01*
X16041068Y16289304D01*
X16016971Y16276424D01*
X15991682Y16265949D01*
X15968928Y16250745D01*
X15944825Y16237862D01*
X15923696Y16220522D01*
X15900945Y16205320D01*
X15881598Y16185973D01*
X15860468Y16168632D01*
X15843127Y16147502D01*
X15823780Y16128155D01*
X15808578Y16105404D01*
X15791238Y16084275D01*
X15778355Y16060172D01*
X15763151Y16037418D01*
X15752676Y16012129D01*
X15739796Y15988032D01*
X15731864Y15961884D01*
X15721389Y15936596D01*
X15716052Y15909761D01*
X15708116Y15883603D01*
X15705436Y15856393D01*
X15700100Y15829564D01*
X15700100Y15802204D01*
X15697421Y15775000D01*
X279000Y15775000D01*
X279000Y25121000D01*
X10928772Y25121000D01*
X10928772Y24900000D01*
X10928772Y24900000D01*
G37*
X10928772Y24900000D02*
X10933676Y24850207D01*
X10945792Y24810267D01*
X10936180Y24800655D01*
X10875551Y24709918D01*
X10833789Y24609096D01*
X10812500Y24502064D01*
X10812500Y24392936D01*
X10833789Y24285904D01*
X10875551Y24185082D01*
X10936180Y24094345D01*
X11013345Y24017180D01*
X11104082Y23956551D01*
X11204904Y23914789D01*
X11311936Y23893500D01*
X11421064Y23893500D01*
X11528096Y23914789D01*
X11628918Y23956551D01*
X11684000Y23993356D01*
X11739082Y23956551D01*
X11839904Y23914789D01*
X11946936Y23893500D01*
X12056064Y23893500D01*
X12163096Y23914789D01*
X12263918Y23956551D01*
X12354655Y24017180D01*
X12431820Y24094345D01*
X12492449Y24185082D01*
X12534211Y24285904D01*
X12555500Y24392936D01*
X12555500Y24502064D01*
X12534211Y24609096D01*
X12519433Y24644772D01*
X12635479Y24644772D01*
X12636500Y24634404D01*
X12641094Y24587759D01*
X12659249Y24527910D01*
X12688731Y24472753D01*
X12728407Y24424406D01*
X12740530Y24414457D01*
X13119101Y24035885D01*
X13119100Y19393628D01*
X13117564Y19378032D01*
X13121254Y19340564D01*
X13123694Y19315792D01*
X13141849Y19255943D01*
X13171331Y19200786D01*
X13211007Y19152439D01*
X13223130Y19142490D01*
X14697495Y17668124D01*
X14707439Y17656007D01*
X14755785Y17616331D01*
X14810942Y17586849D01*
X14870791Y17568694D01*
X14917436Y17564100D01*
X14917438Y17564100D01*
X14933031Y17562564D01*
X14948624Y17564100D01*
X16719835Y17564100D01*
X16927826Y17356108D01*
X16877251Y17280418D01*
X16835489Y17179596D01*
X16814200Y17072564D01*
X16814200Y16963436D01*
X16835489Y16856404D01*
X16877251Y16755582D01*
X16937880Y16664845D01*
X17015045Y16587680D01*
X17105782Y16527051D01*
X17206604Y16485289D01*
X17313636Y16464000D01*
X17422764Y16464000D01*
X17529796Y16485289D01*
X17630618Y16527051D01*
X17721355Y16587680D01*
X17757100Y16623425D01*
X17792845Y16587680D01*
X17883582Y16527051D01*
X17984404Y16485289D01*
X18091436Y16464000D01*
X18200564Y16464000D01*
X18307596Y16485289D01*
X18408418Y16527051D01*
X18499155Y16587680D01*
X18576320Y16664845D01*
X18636949Y16755582D01*
X18678711Y16856404D01*
X18700000Y16963436D01*
X18700000Y16980691D01*
X18743696Y16972000D01*
X18852824Y16972000D01*
X18959856Y16993289D01*
X19060678Y17035051D01*
X19151415Y17095680D01*
X19187160Y17131425D01*
X19222905Y17095680D01*
X19313642Y17035051D01*
X19414464Y16993289D01*
X19432215Y16989758D01*
X19371851Y16899418D01*
X19330089Y16798596D01*
X19308800Y16691564D01*
X19308800Y16582436D01*
X19330089Y16475404D01*
X19371851Y16374582D01*
X19432480Y16283845D01*
X19509645Y16206680D01*
X19600382Y16146051D01*
X19701204Y16104289D01*
X19808236Y16083000D01*
X19917364Y16083000D01*
X20024396Y16104289D01*
X20125218Y16146051D01*
X20215955Y16206680D01*
X20293120Y16283845D01*
X20308301Y16306564D01*
X20308300Y9632332D01*
X20263156Y9651031D01*
X20156124Y9672320D01*
X20046996Y9672320D01*
X19939964Y9651031D01*
X19839142Y9609269D01*
X19748405Y9548640D01*
X19671240Y9471475D01*
X19610611Y9380738D01*
X19568849Y9279916D01*
X19547560Y9172884D01*
X19547560Y9063756D01*
X19563528Y8983476D01*
X19509404Y8972711D01*
X19408582Y8930949D01*
X19317845Y8870320D01*
X19282100Y8834575D01*
X19246355Y8870320D01*
X19155618Y8930949D01*
X19054796Y8972711D01*
X18947764Y8994000D01*
X18838636Y8994000D01*
X18731604Y8972711D01*
X18680695Y8951624D01*
X18678711Y8961596D01*
X18636949Y9062418D01*
X18576320Y9153155D01*
X18499155Y9230320D01*
X18408418Y9290949D01*
X18307596Y9332711D01*
X18200564Y9354000D01*
X18091436Y9354000D01*
X17984404Y9332711D01*
X17883582Y9290949D01*
X17792845Y9230320D01*
X17757100Y9194575D01*
X17721355Y9230320D01*
X17630618Y9290949D01*
X17529796Y9332711D01*
X17422764Y9354000D01*
X17313636Y9354000D01*
X17206604Y9332711D01*
X17105782Y9290949D01*
X17015045Y9230320D01*
X16937880Y9153155D01*
X16877251Y9062418D01*
X16835489Y8961596D01*
X16814200Y8854564D01*
X16814200Y8745436D01*
X16835489Y8638404D01*
X16877251Y8537582D01*
X16937880Y8446845D01*
X17015045Y8369680D01*
X17105782Y8309051D01*
X17205129Y8267900D01*
X14384931Y8267900D01*
X14369387Y8269431D01*
X14347640Y8267289D01*
X14307343Y8263320D01*
X14247683Y8245222D01*
X14192699Y8215833D01*
X14144506Y8176282D01*
X14134597Y8164208D01*
X13592897Y7622507D01*
X13580818Y7612594D01*
X13541267Y7564400D01*
X13511878Y7509416D01*
X13501467Y7475096D01*
X13493780Y7449756D01*
X13487669Y7387712D01*
X13489200Y7372168D01*
X13489201Y2062212D01*
X13224797Y1797807D01*
X13212718Y1787894D01*
X13173167Y1739700D01*
X13143778Y1684716D01*
X13129391Y1637290D01*
X13125680Y1625056D01*
X13119569Y1563012D01*
X13121100Y1547468D01*
X13121100Y1364699D01*
X12741197Y984796D01*
X12729118Y974883D01*
X12689567Y926689D01*
X12660178Y871705D01*
X12642141Y812247D01*
X12642080Y812045D01*
X12636484Y755228D01*
X12454000Y755228D01*
X12404207Y750324D01*
X12356328Y735800D01*
X12319000Y715847D01*
X12281672Y735800D01*
X12233793Y750324D01*
X12184000Y755228D01*
X11184000Y755228D01*
X11134207Y750324D01*
X11086328Y735800D01*
X11042203Y712214D01*
X11003527Y680473D01*
X10971786Y641797D01*
X10948200Y597672D01*
X10933676Y549793D01*
X10928772Y500000D01*
X10928772Y279000D01*
X279000Y279000D01*
X279000Y13088764D01*
X14459700Y13088764D01*
X14459700Y12979636D01*
X14480989Y12872604D01*
X14522751Y12771782D01*
X14583380Y12681045D01*
X14585825Y12678600D01*
X14583380Y12676155D01*
X14522751Y12585418D01*
X14480989Y12484596D01*
X14459700Y12377564D01*
X14459700Y12268436D01*
X14480989Y12161404D01*
X14522751Y12060582D01*
X14583380Y11969845D01*
X14660545Y11892680D01*
X14751282Y11832051D01*
X14852104Y11790289D01*
X14959136Y11769000D01*
X15068264Y11769000D01*
X15175296Y11790289D01*
X15276118Y11832051D01*
X15366855Y11892680D01*
X15444020Y11969845D01*
X15504649Y12060582D01*
X15546411Y12161404D01*
X15567700Y12268436D01*
X15567700Y12377564D01*
X15546411Y12484596D01*
X15504649Y12585418D01*
X15444020Y12676155D01*
X15441575Y12678600D01*
X15444020Y12681045D01*
X15504649Y12771782D01*
X15546411Y12872604D01*
X15567700Y12979636D01*
X15567700Y13088764D01*
X15546411Y13195796D01*
X15504649Y13296618D01*
X15444020Y13387355D01*
X15366855Y13464520D01*
X15276118Y13525149D01*
X15175296Y13566911D01*
X15068264Y13588200D01*
X14959136Y13588200D01*
X14852104Y13566911D01*
X14751282Y13525149D01*
X14660545Y13464520D01*
X14583380Y13387355D01*
X14522751Y13296618D01*
X14480989Y13195796D01*
X14459700Y13088764D01*
X279000Y13088764D01*
X279000Y15775000D01*
X15697421Y15775000D01*
X15700100Y15747796D01*
X15700100Y15720436D01*
X15703101Y15705348D01*
X15703100Y9660668D01*
X15697421Y9603000D01*
X15708116Y9494397D01*
X15723031Y9445232D01*
X15724389Y9438404D01*
X15727054Y9431970D01*
X15739796Y9389968D01*
X15760485Y9351261D01*
X15766151Y9337582D01*
X15774375Y9325274D01*
X15791238Y9293725D01*
X15813934Y9266070D01*
X15826780Y9246845D01*
X15846126Y9227499D01*
X15863468Y9206368D01*
X15884599Y9189026D01*
X15903945Y9169680D01*
X15926691Y9154482D01*
X15947825Y9137137D01*
X15971935Y9124250D01*
X15994682Y9109051D01*
X16019962Y9098579D01*
X16044068Y9085695D01*
X16070223Y9077761D01*
X16095504Y9067289D01*
X16122336Y9061952D01*
X16148497Y9054016D01*
X16175709Y9051336D01*
X16202536Y9046000D01*
X16229888Y9046000D01*
X16257100Y9043320D01*
X16284311Y9046000D01*
X16311664Y9046000D01*
X16338492Y9051336D01*
X16355966Y9053057D01*
X16365703Y9054016D01*
X16391864Y9061952D01*
X16418696Y9067289D01*
X16443977Y9077761D01*
X16470132Y9085695D01*
X16494238Y9098579D01*
X16519518Y9109051D01*
X16542265Y9124250D01*
X16566375Y9137137D01*
X16587509Y9154482D01*
X16610255Y9169680D01*
X16629601Y9189026D01*
X16650732Y9206368D01*
X16668074Y9227499D01*
X16687420Y9246845D01*
X16702618Y9269591D01*
X16719963Y9290725D01*
X16732850Y9314835D01*
X16748049Y9337582D01*
X16758521Y9362862D01*
X16771405Y9386968D01*
X16779339Y9413123D01*
X16789811Y9438404D01*
X16795148Y9465236D01*
X16803084Y9491397D01*
X16805764Y9518607D01*
X16811100Y9545436D01*
X16811100Y9572796D01*
X16813779Y9600000D01*
X16811100Y9627204D01*
X16811100Y15744796D01*
X16813779Y15772000D01*
X16811100Y15799204D01*
X16811100Y15799212D01*
X16803084Y15880603D01*
X16788168Y15929772D01*
X16786811Y15936596D01*
X16784148Y15943025D01*
X16771405Y15985032D01*
X16750712Y16023747D01*
X16745049Y16037418D01*
X16736830Y16049719D01*
X16719963Y16081275D01*
X16697262Y16108936D01*
X16684420Y16128155D01*
X16668074Y16144501D01*
X16650732Y16165632D01*
X16629601Y16182974D01*
X16607255Y16205320D01*
X16584503Y16220523D01*
X16563375Y16237862D01*
X16539272Y16250745D01*
X16516518Y16265949D01*
X16491229Y16276424D01*
X16467132Y16289304D01*
X16440984Y16297236D01*
X16415696Y16307711D01*
X16388861Y16313048D01*
X16362703Y16320984D01*
X16335493Y16323664D01*
X16308664Y16329000D01*
X16281304Y16329000D01*
X16254100Y16331679D01*
X16226896Y16329000D01*
X16199536Y16329000D01*
X16172707Y16323664D01*
X16145497Y16320984D01*
X16119339Y16313048D01*
X16092504Y16307711D01*
X16067216Y16297236D01*
X16041068Y16289304D01*
X16016971Y16276424D01*
X15991682Y16265949D01*
X15968928Y16250745D01*
X15944825Y16237862D01*
X15923696Y16220522D01*
X15900945Y16205320D01*
X15881598Y16185973D01*
X15860468Y16168632D01*
X15843127Y16147502D01*
X15823780Y16128155D01*
X15808578Y16105404D01*
X15791238Y16084275D01*
X15778355Y16060172D01*
X15763151Y16037418D01*
X15752676Y16012129D01*
X15739796Y15988032D01*
X15731864Y15961884D01*
X15721389Y15936596D01*
X15716052Y15909761D01*
X15708116Y15883603D01*
X15705436Y15856393D01*
X15700100Y15829564D01*
X15700100Y15802204D01*
X15697421Y15775000D01*
X279000Y15775000D01*
X279000Y25121000D01*
X10928772Y25121000D01*
X10928772Y24900000D01*
G36*
X30479999Y4021972D02*
G01*
X30361510Y3903483D01*
X30361505Y3903479D01*
X30340368Y3886132D01*
X30323022Y3864996D01*
X30132323Y3674297D01*
X30123711Y3717596D01*
X30081949Y3818418D01*
X30021320Y3909155D01*
X29944155Y3986320D01*
X29853418Y4046949D01*
X29752596Y4088711D01*
X29645564Y4110000D01*
X29536436Y4110000D01*
X29429404Y4088711D01*
X29328582Y4046949D01*
X29273500Y4010144D01*
X29218418Y4046949D01*
X29117596Y4088711D01*
X29010564Y4110000D01*
X28901436Y4110000D01*
X28794404Y4088711D01*
X28693582Y4046949D01*
X28602845Y3986320D01*
X28525680Y3909155D01*
X28465051Y3818418D01*
X28423289Y3717596D01*
X28402000Y3610564D01*
X28402000Y3501436D01*
X28423289Y3394404D01*
X28465051Y3293582D01*
X28525680Y3202845D01*
X28602845Y3125680D01*
X28693582Y3065051D01*
X28794404Y3023289D01*
X28901436Y3002000D01*
X29010564Y3002000D01*
X29117596Y3023289D01*
X29218418Y3065051D01*
X29273500Y3101856D01*
X29328582Y3065051D01*
X29429404Y3023289D01*
X29536436Y3002000D01*
X29645564Y3002000D01*
X29752596Y3023289D01*
X29853418Y3065051D01*
X29869585Y3075853D01*
X29870516Y3066397D01*
X29878452Y3040239D01*
X29883789Y3013404D01*
X29894264Y2988116D01*
X29902196Y2961968D01*
X29915076Y2937871D01*
X29925551Y2912582D01*
X29940755Y2889828D01*
X29953638Y2865725D01*
X29970978Y2844596D01*
X29986180Y2821845D01*
X30005527Y2802498D01*
X30022868Y2781368D01*
X30043998Y2764027D01*
X30063345Y2744680D01*
X30086096Y2729478D01*
X30107225Y2712138D01*
X30131328Y2699255D01*
X30154082Y2684051D01*
X30179371Y2673576D01*
X30203468Y2660696D01*
X30229616Y2652764D01*
X30254904Y2642289D01*
X30281739Y2636952D01*
X30307897Y2629016D01*
X30335107Y2626336D01*
X30361936Y2621000D01*
X30389296Y2621000D01*
X30416500Y2618321D01*
X30443704Y2621000D01*
X30471064Y2621000D01*
X30497893Y2626336D01*
X30525103Y2629016D01*
X30551261Y2636952D01*
X30578096Y2642289D01*
X30603384Y2652764D01*
X30629532Y2660696D01*
X30653629Y2673576D01*
X30678918Y2684051D01*
X30701672Y2699255D01*
X30725775Y2712138D01*
X30733999Y2718888D01*
X30742225Y2712137D01*
X30766336Y2699249D01*
X30789082Y2684051D01*
X30814359Y2673581D01*
X30838467Y2660695D01*
X30864625Y2652760D01*
X30889904Y2642289D01*
X30916736Y2636952D01*
X30942897Y2629016D01*
X30970107Y2626336D01*
X30996936Y2621000D01*
X31024296Y2621000D01*
X31051500Y2618321D01*
X31078704Y2621000D01*
X31106064Y2621000D01*
X31132893Y2626336D01*
X31160103Y2629016D01*
X31186264Y2636952D01*
X31213096Y2642289D01*
X31238377Y2652761D01*
X31264532Y2660695D01*
X31288638Y2673579D01*
X31313918Y2684051D01*
X31336665Y2699250D01*
X31360775Y2712137D01*
X31381909Y2729482D01*
X31404655Y2744680D01*
X31424001Y2764026D01*
X31445132Y2781368D01*
X31462474Y2802499D01*
X31471000Y2811025D01*
X31471000Y593716D01*
X31469800Y597672D01*
X31446214Y641797D01*
X31414473Y680473D01*
X31375797Y712214D01*
X31331672Y735800D01*
X31283793Y750324D01*
X31234000Y755228D01*
X30234000Y755228D01*
X30184207Y750324D01*
X30136328Y735800D01*
X30099000Y715847D01*
X30061672Y735800D01*
X30013793Y750324D01*
X29964000Y755228D01*
X28964000Y755228D01*
X28914207Y750324D01*
X28897348Y745210D01*
X28917211Y793164D01*
X28938500Y900196D01*
X28938500Y1009324D01*
X28917211Y1116356D01*
X28875449Y1217178D01*
X28843736Y1264640D01*
X28875449Y1312102D01*
X28917211Y1412924D01*
X28938500Y1519956D01*
X28938500Y1629084D01*
X28917211Y1736116D01*
X28875449Y1836938D01*
X28814820Y1927675D01*
X28737655Y2004840D01*
X28646918Y2065469D01*
X28546096Y2107231D01*
X28439064Y2128520D01*
X28329936Y2128520D01*
X28222904Y2107231D01*
X28122082Y2065469D01*
X28031345Y2004840D01*
X27954180Y1927675D01*
X27893551Y1836938D01*
X27851789Y1736116D01*
X27830500Y1629084D01*
X27830500Y1519956D01*
X27851789Y1412924D01*
X27893551Y1312102D01*
X27925264Y1264640D01*
X27893551Y1217178D01*
X27851789Y1116356D01*
X27830500Y1009324D01*
X27830500Y900196D01*
X27851789Y793164D01*
X27867503Y755228D01*
X27694000Y755228D01*
X27644207Y750324D01*
X27596328Y735800D01*
X27559000Y715847D01*
X27521672Y735800D01*
X27473793Y750324D01*
X27424000Y755228D01*
X26424000Y755228D01*
X26374207Y750324D01*
X26326328Y735800D01*
X26289000Y715847D01*
X26251672Y735800D01*
X26203793Y750324D01*
X26154000Y755228D01*
X25971500Y755228D01*
X25971500Y1392488D01*
X30479999Y5900986D01*
X30479999Y4021972D01*
X30479999Y4021972D01*
G37*
X30479999Y4021972D02*
X30361510Y3903483D01*
X30361505Y3903479D01*
X30340368Y3886132D01*
X30323022Y3864996D01*
X30132323Y3674297D01*
X30123711Y3717596D01*
X30081949Y3818418D01*
X30021320Y3909155D01*
X29944155Y3986320D01*
X29853418Y4046949D01*
X29752596Y4088711D01*
X29645564Y4110000D01*
X29536436Y4110000D01*
X29429404Y4088711D01*
X29328582Y4046949D01*
X29273500Y4010144D01*
X29218418Y4046949D01*
X29117596Y4088711D01*
X29010564Y4110000D01*
X28901436Y4110000D01*
X28794404Y4088711D01*
X28693582Y4046949D01*
X28602845Y3986320D01*
X28525680Y3909155D01*
X28465051Y3818418D01*
X28423289Y3717596D01*
X28402000Y3610564D01*
X28402000Y3501436D01*
X28423289Y3394404D01*
X28465051Y3293582D01*
X28525680Y3202845D01*
X28602845Y3125680D01*
X28693582Y3065051D01*
X28794404Y3023289D01*
X28901436Y3002000D01*
X29010564Y3002000D01*
X29117596Y3023289D01*
X29218418Y3065051D01*
X29273500Y3101856D01*
X29328582Y3065051D01*
X29429404Y3023289D01*
X29536436Y3002000D01*
X29645564Y3002000D01*
X29752596Y3023289D01*
X29853418Y3065051D01*
X29869585Y3075853D01*
X29870516Y3066397D01*
X29878452Y3040239D01*
X29883789Y3013404D01*
X29894264Y2988116D01*
X29902196Y2961968D01*
X29915076Y2937871D01*
X29925551Y2912582D01*
X29940755Y2889828D01*
X29953638Y2865725D01*
X29970978Y2844596D01*
X29986180Y2821845D01*
X30005527Y2802498D01*
X30022868Y2781368D01*
X30043998Y2764027D01*
X30063345Y2744680D01*
X30086096Y2729478D01*
X30107225Y2712138D01*
X30131328Y2699255D01*
X30154082Y2684051D01*
X30179371Y2673576D01*
X30203468Y2660696D01*
X30229616Y2652764D01*
X30254904Y2642289D01*
X30281739Y2636952D01*
X30307897Y2629016D01*
X30335107Y2626336D01*
X30361936Y2621000D01*
X30389296Y2621000D01*
X30416500Y2618321D01*
X30443704Y2621000D01*
X30471064Y2621000D01*
X30497893Y2626336D01*
X30525103Y2629016D01*
X30551261Y2636952D01*
X30578096Y2642289D01*
X30603384Y2652764D01*
X30629532Y2660696D01*
X30653629Y2673576D01*
X30678918Y2684051D01*
X30701672Y2699255D01*
X30725775Y2712138D01*
X30733999Y2718888D01*
X30742225Y2712137D01*
X30766336Y2699249D01*
X30789082Y2684051D01*
X30814359Y2673581D01*
X30838467Y2660695D01*
X30864625Y2652760D01*
X30889904Y2642289D01*
X30916736Y2636952D01*
X30942897Y2629016D01*
X30970107Y2626336D01*
X30996936Y2621000D01*
X31024296Y2621000D01*
X31051500Y2618321D01*
X31078704Y2621000D01*
X31106064Y2621000D01*
X31132893Y2626336D01*
X31160103Y2629016D01*
X31186264Y2636952D01*
X31213096Y2642289D01*
X31238377Y2652761D01*
X31264532Y2660695D01*
X31288638Y2673579D01*
X31313918Y2684051D01*
X31336665Y2699250D01*
X31360775Y2712137D01*
X31381909Y2729482D01*
X31404655Y2744680D01*
X31424001Y2764026D01*
X31445132Y2781368D01*
X31462474Y2802499D01*
X31471000Y2811025D01*
X31471000Y593716D01*
X31469800Y597672D01*
X31446214Y641797D01*
X31414473Y680473D01*
X31375797Y712214D01*
X31331672Y735800D01*
X31283793Y750324D01*
X31234000Y755228D01*
X30234000Y755228D01*
X30184207Y750324D01*
X30136328Y735800D01*
X30099000Y715847D01*
X30061672Y735800D01*
X30013793Y750324D01*
X29964000Y755228D01*
X28964000Y755228D01*
X28914207Y750324D01*
X28897348Y745210D01*
X28917211Y793164D01*
X28938500Y900196D01*
X28938500Y1009324D01*
X28917211Y1116356D01*
X28875449Y1217178D01*
X28843736Y1264640D01*
X28875449Y1312102D01*
X28917211Y1412924D01*
X28938500Y1519956D01*
X28938500Y1629084D01*
X28917211Y1736116D01*
X28875449Y1836938D01*
X28814820Y1927675D01*
X28737655Y2004840D01*
X28646918Y2065469D01*
X28546096Y2107231D01*
X28439064Y2128520D01*
X28329936Y2128520D01*
X28222904Y2107231D01*
X28122082Y2065469D01*
X28031345Y2004840D01*
X27954180Y1927675D01*
X27893551Y1836938D01*
X27851789Y1736116D01*
X27830500Y1629084D01*
X27830500Y1519956D01*
X27851789Y1412924D01*
X27893551Y1312102D01*
X27925264Y1264640D01*
X27893551Y1217178D01*
X27851789Y1116356D01*
X27830500Y1009324D01*
X27830500Y900196D01*
X27851789Y793164D01*
X27867503Y755228D01*
X27694000Y755228D01*
X27644207Y750324D01*
X27596328Y735800D01*
X27559000Y715847D01*
X27521672Y735800D01*
X27473793Y750324D01*
X27424000Y755228D01*
X26424000Y755228D01*
X26374207Y750324D01*
X26326328Y735800D01*
X26289000Y715847D01*
X26251672Y735800D01*
X26203793Y750324D01*
X26154000Y755228D01*
X25971500Y755228D01*
X25971500Y1392488D01*
X30479999Y5900986D01*
X30479999Y4021972D01*
G36*
X20642897Y3388705D02*
G01*
X21527501Y2504100D01*
X21527500Y755228D01*
X21344000Y755228D01*
X21294207Y750324D01*
X21246328Y735800D01*
X21209000Y715847D01*
X21171672Y735800D01*
X21123793Y750324D01*
X21074000Y755228D01*
X20863266Y755228D01*
X20838433Y801689D01*
X20798882Y849882D01*
X20786809Y859790D01*
X20636500Y1010098D01*
X20636500Y3393955D01*
X20642897Y3388705D01*
X20642897Y3388705D01*
G37*
X20642897Y3388705D02*
X21527501Y2504100D01*
X21527500Y755228D01*
X21344000Y755228D01*
X21294207Y750324D01*
X21246328Y735800D01*
X21209000Y715847D01*
X21171672Y735800D01*
X21123793Y750324D01*
X21074000Y755228D01*
X20863266Y755228D01*
X20838433Y801689D01*
X20798882Y849882D01*
X20786809Y859790D01*
X20636500Y1010098D01*
X20636500Y3393955D01*
X20642897Y3388705D01*
G36*
X18360489Y8278404D02*
G01*
X18402251Y8177582D01*
X18462880Y8086845D01*
X18540045Y8009680D01*
X18630782Y7949051D01*
X18731604Y7907289D01*
X18814201Y7890860D01*
X18814201Y7823812D01*
X17951497Y6961107D01*
X17939418Y6951194D01*
X17899867Y6903000D01*
X17870478Y6848016D01*
X17863730Y6825770D01*
X17852380Y6788356D01*
X17846269Y6726312D01*
X17847800Y6710768D01*
X17847801Y3309311D01*
X17463797Y2925307D01*
X17451718Y2915394D01*
X17412167Y2867200D01*
X17382778Y2812216D01*
X17366000Y2756906D01*
X17364680Y2752556D01*
X17358569Y2690512D01*
X17360100Y2674967D01*
X17360101Y2275711D01*
X17034797Y1950407D01*
X17022718Y1940494D01*
X16983167Y1892300D01*
X16953778Y1837316D01*
X16943367Y1802996D01*
X16935680Y1777656D01*
X16929569Y1715612D01*
X16931100Y1700067D01*
X16931101Y1364700D01*
X16551197Y984796D01*
X16539118Y974883D01*
X16499567Y926689D01*
X16470178Y871705D01*
X16452141Y812247D01*
X16452080Y812045D01*
X16446484Y755228D01*
X16264000Y755228D01*
X16214207Y750324D01*
X16166328Y735800D01*
X16129000Y715847D01*
X16091672Y735800D01*
X16043793Y750324D01*
X15994000Y755228D01*
X14994000Y755228D01*
X14944207Y750324D01*
X14896328Y735800D01*
X14859000Y715847D01*
X14821672Y735800D01*
X14773793Y750324D01*
X14724000Y755228D01*
X14541516Y755228D01*
X14535920Y812046D01*
X14517822Y871706D01*
X14488433Y926690D01*
X14471021Y947906D01*
X14448882Y974883D01*
X14436804Y984795D01*
X14086005Y1335594D01*
X14321308Y1570897D01*
X14333382Y1580806D01*
X14372933Y1628999D01*
X14402322Y1683983D01*
X14420420Y1743643D01*
X14425000Y1790144D01*
X14426531Y1805687D01*
X14425000Y1821231D01*
X14425000Y7131190D01*
X14625910Y7332100D01*
X17529268Y7332100D01*
X17544812Y7330569D01*
X17560356Y7332100D01*
X17606857Y7336680D01*
X17666517Y7354778D01*
X17721501Y7384167D01*
X17769694Y7423718D01*
X17779607Y7435797D01*
X18121303Y7777493D01*
X18133382Y7787406D01*
X18172933Y7835599D01*
X18202322Y7890583D01*
X18220420Y7950243D01*
X18225000Y7996744D01*
X18226531Y8012288D01*
X18225000Y8027832D01*
X18225000Y8250860D01*
X18307596Y8267289D01*
X18358505Y8288376D01*
X18360489Y8278404D01*
X18360489Y8278404D01*
G37*
X18360489Y8278404D02*
X18402251Y8177582D01*
X18462880Y8086845D01*
X18540045Y8009680D01*
X18630782Y7949051D01*
X18731604Y7907289D01*
X18814201Y7890860D01*
X18814201Y7823812D01*
X17951497Y6961107D01*
X17939418Y6951194D01*
X17899867Y6903000D01*
X17870478Y6848016D01*
X17863730Y6825770D01*
X17852380Y6788356D01*
X17846269Y6726312D01*
X17847800Y6710768D01*
X17847801Y3309311D01*
X17463797Y2925307D01*
X17451718Y2915394D01*
X17412167Y2867200D01*
X17382778Y2812216D01*
X17366000Y2756906D01*
X17364680Y2752556D01*
X17358569Y2690512D01*
X17360100Y2674967D01*
X17360101Y2275711D01*
X17034797Y1950407D01*
X17022718Y1940494D01*
X16983167Y1892300D01*
X16953778Y1837316D01*
X16943367Y1802996D01*
X16935680Y1777656D01*
X16929569Y1715612D01*
X16931100Y1700067D01*
X16931101Y1364700D01*
X16551197Y984796D01*
X16539118Y974883D01*
X16499567Y926689D01*
X16470178Y871705D01*
X16452141Y812247D01*
X16452080Y812045D01*
X16446484Y755228D01*
X16264000Y755228D01*
X16214207Y750324D01*
X16166328Y735800D01*
X16129000Y715847D01*
X16091672Y735800D01*
X16043793Y750324D01*
X15994000Y755228D01*
X14994000Y755228D01*
X14944207Y750324D01*
X14896328Y735800D01*
X14859000Y715847D01*
X14821672Y735800D01*
X14773793Y750324D01*
X14724000Y755228D01*
X14541516Y755228D01*
X14535920Y812046D01*
X14517822Y871706D01*
X14488433Y926690D01*
X14471021Y947906D01*
X14448882Y974883D01*
X14436804Y984795D01*
X14086005Y1335594D01*
X14321308Y1570897D01*
X14333382Y1580806D01*
X14372933Y1628999D01*
X14402322Y1683983D01*
X14420420Y1743643D01*
X14425000Y1790144D01*
X14426531Y1805687D01*
X14425000Y1821231D01*
X14425000Y7131190D01*
X14625910Y7332100D01*
X17529268Y7332100D01*
X17544812Y7330569D01*
X17560356Y7332100D01*
X17606857Y7336680D01*
X17666517Y7354778D01*
X17721501Y7384167D01*
X17769694Y7423718D01*
X17779607Y7435797D01*
X18121303Y7777493D01*
X18133382Y7787406D01*
X18172933Y7835599D01*
X18202322Y7890583D01*
X18220420Y7950243D01*
X18225000Y7996744D01*
X18226531Y8012288D01*
X18225000Y8027832D01*
X18225000Y8250860D01*
X18307596Y8267289D01*
X18358505Y8288376D01*
X18360489Y8278404D01*
G36*
X24252851Y19122582D02*
G01*
X24285413Y19073850D01*
X24252851Y19025118D01*
X24211089Y18924296D01*
X24189800Y18817264D01*
X24189800Y18708136D01*
X24211089Y18601104D01*
X24252851Y18500282D01*
X24313480Y18409545D01*
X24390645Y18332380D01*
X24481382Y18271751D01*
X24582204Y18229989D01*
X24689236Y18208700D01*
X24798364Y18208700D01*
X24905396Y18229989D01*
X25006218Y18271751D01*
X25082501Y18322722D01*
X25082501Y16906606D01*
X25080964Y16891000D01*
X25087094Y16828760D01*
X25105249Y16768911D01*
X25110145Y16759752D01*
X25134732Y16713753D01*
X25174408Y16665407D01*
X25186525Y16655463D01*
X25672463Y16169524D01*
X25682407Y16157407D01*
X25730753Y16117731D01*
X25785910Y16088249D01*
X25845759Y16070094D01*
X25892404Y16065500D01*
X25892406Y16065500D01*
X25907999Y16063964D01*
X25923592Y16065500D01*
X27402088Y16065500D01*
X29502100Y13965487D01*
X29502101Y6583114D01*
X24252488Y1333500D01*
X23510592Y1333500D01*
X23494999Y1335036D01*
X23479406Y1333500D01*
X23479404Y1333500D01*
X23432759Y1328906D01*
X23372910Y1310751D01*
X23317753Y1281269D01*
X23269407Y1241593D01*
X23259465Y1229478D01*
X22900529Y870541D01*
X22888407Y860593D01*
X22848731Y812246D01*
X22823769Y765545D01*
X22819249Y757089D01*
X22818684Y755228D01*
X22614000Y755228D01*
X22564207Y750324D01*
X22516328Y735800D01*
X22479000Y715847D01*
X22441672Y735800D01*
X22393793Y750324D01*
X22344000Y755228D01*
X22160500Y755228D01*
X22160500Y2619664D01*
X22162030Y2635201D01*
X22160500Y2650737D01*
X22160500Y2650744D01*
X22155920Y2697245D01*
X22137822Y2756905D01*
X22108433Y2811889D01*
X22068882Y2860082D01*
X22056809Y2869990D01*
X21172200Y3754598D01*
X21172200Y8793109D01*
X21185970Y8785749D01*
X21245819Y8767594D01*
X21292464Y8763000D01*
X21292466Y8763000D01*
X21308059Y8761464D01*
X21323652Y8763000D01*
X21623536Y8763000D01*
X21647360Y8727345D01*
X21724525Y8650180D01*
X21815262Y8589551D01*
X21916084Y8547789D01*
X22023116Y8526500D01*
X22132244Y8526500D01*
X22239276Y8547789D01*
X22340098Y8589551D01*
X22430835Y8650180D01*
X22508000Y8727345D01*
X22568629Y8818082D01*
X22610391Y8918904D01*
X22631680Y9025936D01*
X22631680Y9135064D01*
X22610391Y9242096D01*
X22568629Y9342918D01*
X22508000Y9433655D01*
X22430835Y9510820D01*
X22340098Y9571449D01*
X22239276Y9613211D01*
X22132244Y9634500D01*
X22131300Y9634500D01*
X22131300Y9724344D01*
X22110011Y9831376D01*
X22068249Y9932198D01*
X22007620Y10022935D01*
X21930455Y10100100D01*
X21839718Y10160729D01*
X21738896Y10202491D01*
X21704300Y10209372D01*
X21704300Y16647728D01*
X21980387Y16923814D01*
X21946289Y16841496D01*
X21925000Y16734464D01*
X21925000Y16625336D01*
X21946289Y16518304D01*
X21988051Y16417482D01*
X22048680Y16326745D01*
X22125845Y16249580D01*
X22216582Y16188951D01*
X22317404Y16147189D01*
X22424436Y16125900D01*
X22533564Y16125900D01*
X22640596Y16147189D01*
X22741418Y16188951D01*
X22832155Y16249580D01*
X22909320Y16326745D01*
X22969949Y16417482D01*
X23011711Y16518304D01*
X23033000Y16625336D01*
X23033000Y16734464D01*
X23011711Y16841496D01*
X22969949Y16942318D01*
X22909320Y17033055D01*
X22832155Y17110220D01*
X22741418Y17170849D01*
X22640596Y17212611D01*
X22533564Y17233900D01*
X22424436Y17233900D01*
X22317404Y17212611D01*
X22235086Y17178514D01*
X24231266Y19174693D01*
X24252851Y19122582D01*
X24252851Y19122582D01*
G37*
X24252851Y19122582D02*
X24285413Y19073850D01*
X24252851Y19025118D01*
X24211089Y18924296D01*
X24189800Y18817264D01*
X24189800Y18708136D01*
X24211089Y18601104D01*
X24252851Y18500282D01*
X24313480Y18409545D01*
X24390645Y18332380D01*
X24481382Y18271751D01*
X24582204Y18229989D01*
X24689236Y18208700D01*
X24798364Y18208700D01*
X24905396Y18229989D01*
X25006218Y18271751D01*
X25082501Y18322722D01*
X25082501Y16906606D01*
X25080964Y16891000D01*
X25087094Y16828760D01*
X25105249Y16768911D01*
X25110145Y16759752D01*
X25134732Y16713753D01*
X25174408Y16665407D01*
X25186525Y16655463D01*
X25672463Y16169524D01*
X25682407Y16157407D01*
X25730753Y16117731D01*
X25785910Y16088249D01*
X25845759Y16070094D01*
X25892404Y16065500D01*
X25892406Y16065500D01*
X25907999Y16063964D01*
X25923592Y16065500D01*
X27402088Y16065500D01*
X29502100Y13965487D01*
X29502101Y6583114D01*
X24252488Y1333500D01*
X23510592Y1333500D01*
X23494999Y1335036D01*
X23479406Y1333500D01*
X23479404Y1333500D01*
X23432759Y1328906D01*
X23372910Y1310751D01*
X23317753Y1281269D01*
X23269407Y1241593D01*
X23259465Y1229478D01*
X22900529Y870541D01*
X22888407Y860593D01*
X22848731Y812246D01*
X22823769Y765545D01*
X22819249Y757089D01*
X22818684Y755228D01*
X22614000Y755228D01*
X22564207Y750324D01*
X22516328Y735800D01*
X22479000Y715847D01*
X22441672Y735800D01*
X22393793Y750324D01*
X22344000Y755228D01*
X22160500Y755228D01*
X22160500Y2619664D01*
X22162030Y2635201D01*
X22160500Y2650737D01*
X22160500Y2650744D01*
X22155920Y2697245D01*
X22137822Y2756905D01*
X22108433Y2811889D01*
X22068882Y2860082D01*
X22056809Y2869990D01*
X21172200Y3754598D01*
X21172200Y8793109D01*
X21185970Y8785749D01*
X21245819Y8767594D01*
X21292464Y8763000D01*
X21292466Y8763000D01*
X21308059Y8761464D01*
X21323652Y8763000D01*
X21623536Y8763000D01*
X21647360Y8727345D01*
X21724525Y8650180D01*
X21815262Y8589551D01*
X21916084Y8547789D01*
X22023116Y8526500D01*
X22132244Y8526500D01*
X22239276Y8547789D01*
X22340098Y8589551D01*
X22430835Y8650180D01*
X22508000Y8727345D01*
X22568629Y8818082D01*
X22610391Y8918904D01*
X22631680Y9025936D01*
X22631680Y9135064D01*
X22610391Y9242096D01*
X22568629Y9342918D01*
X22508000Y9433655D01*
X22430835Y9510820D01*
X22340098Y9571449D01*
X22239276Y9613211D01*
X22132244Y9634500D01*
X22131300Y9634500D01*
X22131300Y9724344D01*
X22110011Y9831376D01*
X22068249Y9932198D01*
X22007620Y10022935D01*
X21930455Y10100100D01*
X21839718Y10160729D01*
X21738896Y10202491D01*
X21704300Y10209372D01*
X21704300Y16647728D01*
X21980387Y16923814D01*
X21946289Y16841496D01*
X21925000Y16734464D01*
X21925000Y16625336D01*
X21946289Y16518304D01*
X21988051Y16417482D01*
X22048680Y16326745D01*
X22125845Y16249580D01*
X22216582Y16188951D01*
X22317404Y16147189D01*
X22424436Y16125900D01*
X22533564Y16125900D01*
X22640596Y16147189D01*
X22741418Y16188951D01*
X22832155Y16249580D01*
X22909320Y16326745D01*
X22969949Y16417482D01*
X23011711Y16518304D01*
X23033000Y16625336D01*
X23033000Y16734464D01*
X23011711Y16841496D01*
X22969949Y16942318D01*
X22909320Y17033055D01*
X22832155Y17110220D01*
X22741418Y17170849D01*
X22640596Y17212611D01*
X22533564Y17233900D01*
X22424436Y17233900D01*
X22317404Y17212611D01*
X22235086Y17178514D01*
X24231266Y19174693D01*
X24252851Y19122582D01*
G36*
X20003501Y894554D02*
G01*
X20001969Y879000D01*
X20008080Y816956D01*
X20026179Y757295D01*
X20029620Y750857D01*
X20024207Y750324D01*
X19976328Y735800D01*
X19939000Y715847D01*
X19901672Y735800D01*
X19853793Y750324D01*
X19804000Y755228D01*
X18804000Y755228D01*
X18754207Y750324D01*
X18706328Y735800D01*
X18669000Y715847D01*
X18631672Y735800D01*
X18583793Y750324D01*
X18534000Y755228D01*
X18351516Y755228D01*
X18345920Y812046D01*
X18327822Y871706D01*
X18298433Y926690D01*
X18281021Y947906D01*
X18258882Y974883D01*
X18246804Y984795D01*
X17866900Y1364699D01*
X17866900Y1459090D01*
X18192203Y1784393D01*
X18204282Y1794306D01*
X18243833Y1842499D01*
X18273222Y1897483D01*
X18291320Y1957143D01*
X18295900Y2003644D01*
X18297431Y2019188D01*
X18295900Y2034732D01*
X18295900Y2433990D01*
X18679903Y2817993D01*
X18691982Y2827906D01*
X18731533Y2876099D01*
X18760922Y2931083D01*
X18779020Y2990743D01*
X18783600Y3037244D01*
X18785131Y3052788D01*
X18783600Y3068332D01*
X18783600Y6469790D01*
X19646309Y7332498D01*
X19658382Y7342406D01*
X19697933Y7390599D01*
X19727322Y7445583D01*
X19745420Y7505243D01*
X19750000Y7551744D01*
X19751531Y7567288D01*
X19750000Y7582832D01*
X19750000Y7890860D01*
X19832596Y7907289D01*
X19933418Y7949051D01*
X20003500Y7995879D01*
X20003501Y894554D01*
X20003501Y894554D01*
G37*
X20003501Y894554D02*
X20001969Y879000D01*
X20008080Y816956D01*
X20026179Y757295D01*
X20029620Y750857D01*
X20024207Y750324D01*
X19976328Y735800D01*
X19939000Y715847D01*
X19901672Y735800D01*
X19853793Y750324D01*
X19804000Y755228D01*
X18804000Y755228D01*
X18754207Y750324D01*
X18706328Y735800D01*
X18669000Y715847D01*
X18631672Y735800D01*
X18583793Y750324D01*
X18534000Y755228D01*
X18351516Y755228D01*
X18345920Y812046D01*
X18327822Y871706D01*
X18298433Y926690D01*
X18281021Y947906D01*
X18258882Y974883D01*
X18246804Y984795D01*
X17866900Y1364699D01*
X17866900Y1459090D01*
X18192203Y1784393D01*
X18204282Y1794306D01*
X18243833Y1842499D01*
X18273222Y1897483D01*
X18291320Y1957143D01*
X18295900Y2003644D01*
X18297431Y2019188D01*
X18295900Y2034732D01*
X18295900Y2433990D01*
X18679903Y2817993D01*
X18691982Y2827906D01*
X18731533Y2876099D01*
X18760922Y2931083D01*
X18779020Y2990743D01*
X18783600Y3037244D01*
X18785131Y3052788D01*
X18783600Y3068332D01*
X18783600Y6469790D01*
X19646309Y7332498D01*
X19658382Y7342406D01*
X19697933Y7390599D01*
X19727322Y7445583D01*
X19745420Y7505243D01*
X19750000Y7551744D01*
X19751531Y7567288D01*
X19750000Y7582832D01*
X19750000Y7890860D01*
X19832596Y7907289D01*
X19933418Y7949051D01*
X20003500Y7995879D01*
X20003501Y894554D01*
G36*
X31471001Y17947788D02*
G01*
X31427631Y18000633D01*
X31406494Y18017980D01*
X31288000Y18136474D01*
X31288000Y18438592D01*
X31286456Y18454272D01*
X31288000Y18462036D01*
X31288000Y19086288D01*
X31290680Y19113500D01*
X31279984Y19222103D01*
X31248305Y19326532D01*
X31196863Y19422775D01*
X31144979Y19485996D01*
X31144974Y19486001D01*
X31127632Y19507132D01*
X31106501Y19524474D01*
X30542675Y20088300D01*
X30640364Y20088300D01*
X30747396Y20109589D01*
X30848218Y20151351D01*
X30938955Y20211980D01*
X31016120Y20289145D01*
X31076749Y20379882D01*
X31118511Y20480704D01*
X31139800Y20587736D01*
X31139800Y20696864D01*
X31118511Y20803896D01*
X31076749Y20904718D01*
X31016120Y20995455D01*
X30938955Y21072620D01*
X30848218Y21133249D01*
X30747396Y21175011D01*
X30640364Y21196300D01*
X30531236Y21196300D01*
X30424204Y21175011D01*
X30323382Y21133249D01*
X30232645Y21072620D01*
X30155480Y20995455D01*
X30094851Y20904718D01*
X30053089Y20803896D01*
X30031800Y20696864D01*
X30031800Y20599174D01*
X27939400Y22691573D01*
X27939400Y23490864D01*
X27934064Y23517691D01*
X27931384Y23544903D01*
X27923448Y23571064D01*
X27918111Y23597896D01*
X27907639Y23623177D01*
X27899705Y23649332D01*
X27886821Y23673438D01*
X27876349Y23698718D01*
X27861150Y23721465D01*
X27848263Y23745575D01*
X27830918Y23766709D01*
X27815720Y23789455D01*
X27796374Y23808801D01*
X27779032Y23829932D01*
X27757901Y23847274D01*
X27738555Y23866620D01*
X27715809Y23881818D01*
X27694675Y23899163D01*
X27670566Y23912049D01*
X27647818Y23927249D01*
X27622534Y23937722D01*
X27598431Y23950605D01*
X27572280Y23958538D01*
X27546996Y23969011D01*
X27520161Y23974349D01*
X27494002Y23982284D01*
X27466792Y23984964D01*
X27439964Y23990300D01*
X27412611Y23990300D01*
X27385400Y23992980D01*
X27358188Y23990300D01*
X27330836Y23990300D01*
X27304009Y23984964D01*
X27276797Y23982284D01*
X27250636Y23974348D01*
X27223804Y23969011D01*
X27198523Y23958539D01*
X27172368Y23950605D01*
X27148262Y23937721D01*
X27122982Y23927249D01*
X27100235Y23912050D01*
X27076125Y23899163D01*
X27054991Y23881818D01*
X27032245Y23866620D01*
X27012899Y23847274D01*
X26991768Y23829932D01*
X26974426Y23808801D01*
X26955080Y23789455D01*
X26939882Y23766709D01*
X26922537Y23745575D01*
X26909651Y23721466D01*
X26894451Y23698718D01*
X26883978Y23673434D01*
X26871095Y23649331D01*
X26863162Y23623180D01*
X26852689Y23597896D01*
X26847351Y23571061D01*
X26839416Y23544902D01*
X26836736Y23517692D01*
X26831400Y23490864D01*
X26831400Y23463511D01*
X26831401Y22489314D01*
X26828721Y22462100D01*
X26839416Y22353497D01*
X26871096Y22249068D01*
X26922538Y22152825D01*
X26954854Y22113449D01*
X26991769Y22068468D01*
X27012906Y22051121D01*
X30180000Y18884025D01*
X30180000Y18462036D01*
X30181544Y18454272D01*
X30180000Y18438592D01*
X30180000Y17934204D01*
X30177321Y17907000D01*
X30180000Y17879796D01*
X30180000Y17852436D01*
X30185336Y17825608D01*
X30188016Y17798398D01*
X30195951Y17772239D01*
X30201289Y17745404D01*
X30211762Y17720120D01*
X30219695Y17693969D01*
X30232578Y17669866D01*
X30243051Y17644582D01*
X30258251Y17621834D01*
X30271137Y17597725D01*
X30288482Y17576591D01*
X30303680Y17553845D01*
X30323026Y17534499D01*
X30340368Y17513368D01*
X30361499Y17496026D01*
X30380845Y17476680D01*
X30380851Y17476676D01*
X30480000Y17377527D01*
X30480000Y15409613D01*
X28886742Y17002870D01*
X28876793Y17014993D01*
X28828447Y17054669D01*
X28773290Y17084151D01*
X28713441Y17102306D01*
X28666796Y17106900D01*
X28651200Y17108436D01*
X28635604Y17106900D01*
X28367875Y17106900D01*
X28433820Y17172845D01*
X28494449Y17263582D01*
X28536211Y17364404D01*
X28557500Y17471436D01*
X28557500Y17580564D01*
X28536211Y17687596D01*
X28494449Y17788418D01*
X28433820Y17879155D01*
X28356655Y17956320D01*
X28265918Y18016949D01*
X28165096Y18058711D01*
X28058064Y18080000D01*
X27948936Y18080000D01*
X27841904Y18058711D01*
X27741082Y18016949D01*
X27650345Y17956320D01*
X27573180Y17879155D01*
X27512551Y17788418D01*
X27470789Y17687596D01*
X27449500Y17580564D01*
X27449500Y17471436D01*
X27470789Y17364404D01*
X27512551Y17263582D01*
X27573180Y17172845D01*
X27639125Y17106900D01*
X26766800Y17106900D01*
X26766800Y17131264D01*
X26745511Y17238296D01*
X26703749Y17339118D01*
X26643120Y17429855D01*
X26565955Y17507020D01*
X26475218Y17567649D01*
X26374396Y17609411D01*
X26267364Y17630700D01*
X26158236Y17630700D01*
X26051204Y17609411D01*
X25950382Y17567649D01*
X25859645Y17507020D01*
X25782480Y17429855D01*
X25721851Y17339118D01*
X25717500Y17328614D01*
X25717500Y19782464D01*
X26221800Y19782464D01*
X26221800Y19673336D01*
X26243089Y19566304D01*
X26284851Y19465482D01*
X26345480Y19374745D01*
X26422645Y19297580D01*
X26513382Y19236951D01*
X26614204Y19195189D01*
X26721236Y19173900D01*
X26830364Y19173900D01*
X26937396Y19195189D01*
X27038218Y19236951D01*
X27128955Y19297580D01*
X27206120Y19374745D01*
X27266749Y19465482D01*
X27308511Y19566304D01*
X27329800Y19673336D01*
X27329800Y19782464D01*
X27308511Y19889496D01*
X27266749Y19990318D01*
X27206120Y20081055D01*
X27128955Y20158220D01*
X27038218Y20218849D01*
X26937396Y20260611D01*
X26830364Y20281900D01*
X26721236Y20281900D01*
X26614204Y20260611D01*
X26513382Y20218849D01*
X26422645Y20158220D01*
X26345480Y20081055D01*
X26284851Y19990318D01*
X26243089Y19889496D01*
X26221800Y19782464D01*
X25717500Y19782464D01*
X25717500Y22204125D01*
X25732920Y22219545D01*
X25793549Y22310282D01*
X25835311Y22411104D01*
X25856600Y22518136D01*
X25856600Y22627264D01*
X25835311Y22734296D01*
X25793549Y22835118D01*
X25732920Y22925855D01*
X25655755Y23003020D01*
X25565018Y23063649D01*
X25539847Y23074075D01*
X27110545Y24644772D01*
X27424000Y24644772D01*
X27473793Y24649676D01*
X27521672Y24664200D01*
X27559000Y24684153D01*
X27596328Y24664200D01*
X27644207Y24649676D01*
X27694000Y24644772D01*
X28694000Y24644772D01*
X28743793Y24649676D01*
X28791672Y24664200D01*
X28829000Y24684153D01*
X28866328Y24664200D01*
X28914207Y24649676D01*
X28964000Y24644772D01*
X29964000Y24644772D01*
X30013793Y24649676D01*
X30061672Y24664200D01*
X30099000Y24684153D01*
X30136328Y24664200D01*
X30184207Y24649676D01*
X30234000Y24644772D01*
X31234000Y24644772D01*
X31283793Y24649676D01*
X31331672Y24664200D01*
X31375797Y24687786D01*
X31414473Y24719527D01*
X31446214Y24758203D01*
X31469800Y24802328D01*
X31471001Y24806287D01*
X31471001Y17947788D01*
X31471001Y17947788D01*
G37*
X31471001Y17947788D02*
X31427631Y18000633D01*
X31406494Y18017980D01*
X31288000Y18136474D01*
X31288000Y18438592D01*
X31286456Y18454272D01*
X31288000Y18462036D01*
X31288000Y19086288D01*
X31290680Y19113500D01*
X31279984Y19222103D01*
X31248305Y19326532D01*
X31196863Y19422775D01*
X31144979Y19485996D01*
X31144974Y19486001D01*
X31127632Y19507132D01*
X31106501Y19524474D01*
X30542675Y20088300D01*
X30640364Y20088300D01*
X30747396Y20109589D01*
X30848218Y20151351D01*
X30938955Y20211980D01*
X31016120Y20289145D01*
X31076749Y20379882D01*
X31118511Y20480704D01*
X31139800Y20587736D01*
X31139800Y20696864D01*
X31118511Y20803896D01*
X31076749Y20904718D01*
X31016120Y20995455D01*
X30938955Y21072620D01*
X30848218Y21133249D01*
X30747396Y21175011D01*
X30640364Y21196300D01*
X30531236Y21196300D01*
X30424204Y21175011D01*
X30323382Y21133249D01*
X30232645Y21072620D01*
X30155480Y20995455D01*
X30094851Y20904718D01*
X30053089Y20803896D01*
X30031800Y20696864D01*
X30031800Y20599174D01*
X27939400Y22691573D01*
X27939400Y23490864D01*
X27934064Y23517691D01*
X27931384Y23544903D01*
X27923448Y23571064D01*
X27918111Y23597896D01*
X27907639Y23623177D01*
X27899705Y23649332D01*
X27886821Y23673438D01*
X27876349Y23698718D01*
X27861150Y23721465D01*
X27848263Y23745575D01*
X27830918Y23766709D01*
X27815720Y23789455D01*
X27796374Y23808801D01*
X27779032Y23829932D01*
X27757901Y23847274D01*
X27738555Y23866620D01*
X27715809Y23881818D01*
X27694675Y23899163D01*
X27670566Y23912049D01*
X27647818Y23927249D01*
X27622534Y23937722D01*
X27598431Y23950605D01*
X27572280Y23958538D01*
X27546996Y23969011D01*
X27520161Y23974349D01*
X27494002Y23982284D01*
X27466792Y23984964D01*
X27439964Y23990300D01*
X27412611Y23990300D01*
X27385400Y23992980D01*
X27358188Y23990300D01*
X27330836Y23990300D01*
X27304009Y23984964D01*
X27276797Y23982284D01*
X27250636Y23974348D01*
X27223804Y23969011D01*
X27198523Y23958539D01*
X27172368Y23950605D01*
X27148262Y23937721D01*
X27122982Y23927249D01*
X27100235Y23912050D01*
X27076125Y23899163D01*
X27054991Y23881818D01*
X27032245Y23866620D01*
X27012899Y23847274D01*
X26991768Y23829932D01*
X26974426Y23808801D01*
X26955080Y23789455D01*
X26939882Y23766709D01*
X26922537Y23745575D01*
X26909651Y23721466D01*
X26894451Y23698718D01*
X26883978Y23673434D01*
X26871095Y23649331D01*
X26863162Y23623180D01*
X26852689Y23597896D01*
X26847351Y23571061D01*
X26839416Y23544902D01*
X26836736Y23517692D01*
X26831400Y23490864D01*
X26831400Y23463511D01*
X26831401Y22489314D01*
X26828721Y22462100D01*
X26839416Y22353497D01*
X26871096Y22249068D01*
X26922538Y22152825D01*
X26954854Y22113449D01*
X26991769Y22068468D01*
X27012906Y22051121D01*
X30180000Y18884025D01*
X30180000Y18462036D01*
X30181544Y18454272D01*
X30180000Y18438592D01*
X30180000Y17934204D01*
X30177321Y17907000D01*
X30180000Y17879796D01*
X30180000Y17852436D01*
X30185336Y17825608D01*
X30188016Y17798398D01*
X30195951Y17772239D01*
X30201289Y17745404D01*
X30211762Y17720120D01*
X30219695Y17693969D01*
X30232578Y17669866D01*
X30243051Y17644582D01*
X30258251Y17621834D01*
X30271137Y17597725D01*
X30288482Y17576591D01*
X30303680Y17553845D01*
X30323026Y17534499D01*
X30340368Y17513368D01*
X30361499Y17496026D01*
X30380845Y17476680D01*
X30380851Y17476676D01*
X30480000Y17377527D01*
X30480000Y15409613D01*
X28886742Y17002870D01*
X28876793Y17014993D01*
X28828447Y17054669D01*
X28773290Y17084151D01*
X28713441Y17102306D01*
X28666796Y17106900D01*
X28651200Y17108436D01*
X28635604Y17106900D01*
X28367875Y17106900D01*
X28433820Y17172845D01*
X28494449Y17263582D01*
X28536211Y17364404D01*
X28557500Y17471436D01*
X28557500Y17580564D01*
X28536211Y17687596D01*
X28494449Y17788418D01*
X28433820Y17879155D01*
X28356655Y17956320D01*
X28265918Y18016949D01*
X28165096Y18058711D01*
X28058064Y18080000D01*
X27948936Y18080000D01*
X27841904Y18058711D01*
X27741082Y18016949D01*
X27650345Y17956320D01*
X27573180Y17879155D01*
X27512551Y17788418D01*
X27470789Y17687596D01*
X27449500Y17580564D01*
X27449500Y17471436D01*
X27470789Y17364404D01*
X27512551Y17263582D01*
X27573180Y17172845D01*
X27639125Y17106900D01*
X26766800Y17106900D01*
X26766800Y17131264D01*
X26745511Y17238296D01*
X26703749Y17339118D01*
X26643120Y17429855D01*
X26565955Y17507020D01*
X26475218Y17567649D01*
X26374396Y17609411D01*
X26267364Y17630700D01*
X26158236Y17630700D01*
X26051204Y17609411D01*
X25950382Y17567649D01*
X25859645Y17507020D01*
X25782480Y17429855D01*
X25721851Y17339118D01*
X25717500Y17328614D01*
X25717500Y19782464D01*
X26221800Y19782464D01*
X26221800Y19673336D01*
X26243089Y19566304D01*
X26284851Y19465482D01*
X26345480Y19374745D01*
X26422645Y19297580D01*
X26513382Y19236951D01*
X26614204Y19195189D01*
X26721236Y19173900D01*
X26830364Y19173900D01*
X26937396Y19195189D01*
X27038218Y19236951D01*
X27128955Y19297580D01*
X27206120Y19374745D01*
X27266749Y19465482D01*
X27308511Y19566304D01*
X27329800Y19673336D01*
X27329800Y19782464D01*
X27308511Y19889496D01*
X27266749Y19990318D01*
X27206120Y20081055D01*
X27128955Y20158220D01*
X27038218Y20218849D01*
X26937396Y20260611D01*
X26830364Y20281900D01*
X26721236Y20281900D01*
X26614204Y20260611D01*
X26513382Y20218849D01*
X26422645Y20158220D01*
X26345480Y20081055D01*
X26284851Y19990318D01*
X26243089Y19889496D01*
X26221800Y19782464D01*
X25717500Y19782464D01*
X25717500Y22204125D01*
X25732920Y22219545D01*
X25793549Y22310282D01*
X25835311Y22411104D01*
X25856600Y22518136D01*
X25856600Y22627264D01*
X25835311Y22734296D01*
X25793549Y22835118D01*
X25732920Y22925855D01*
X25655755Y23003020D01*
X25565018Y23063649D01*
X25539847Y23074075D01*
X27110545Y24644772D01*
X27424000Y24644772D01*
X27473793Y24649676D01*
X27521672Y24664200D01*
X27559000Y24684153D01*
X27596328Y24664200D01*
X27644207Y24649676D01*
X27694000Y24644772D01*
X28694000Y24644772D01*
X28743793Y24649676D01*
X28791672Y24664200D01*
X28829000Y24684153D01*
X28866328Y24664200D01*
X28914207Y24649676D01*
X28964000Y24644772D01*
X29964000Y24644772D01*
X30013793Y24649676D01*
X30061672Y24664200D01*
X30099000Y24684153D01*
X30136328Y24664200D01*
X30184207Y24649676D01*
X30234000Y24644772D01*
X31234000Y24644772D01*
X31283793Y24649676D01*
X31331672Y24664200D01*
X31375797Y24687786D01*
X31414473Y24719527D01*
X31446214Y24758203D01*
X31469800Y24802328D01*
X31471001Y24806287D01*
X31471001Y17947788D01*
G36*
X25056328Y24664200D02*
G01*
X25104207Y24649676D01*
X25154000Y24644772D01*
X25336500Y24644772D01*
X25336500Y24352953D01*
X23647285Y22663737D01*
X23635168Y22653793D01*
X23595492Y22605447D01*
X23593163Y22601089D01*
X23566009Y22550289D01*
X23547854Y22490440D01*
X23541724Y22428200D01*
X23543261Y22412594D01*
X23543260Y19892713D01*
X20941300Y17290752D01*
X20941300Y18186051D01*
X20942300Y18196204D01*
X20942300Y22347488D01*
X22108276Y23513463D01*
X22120393Y23523407D01*
X22160069Y23571753D01*
X22189551Y23626910D01*
X22207706Y23686759D01*
X22212300Y23733404D01*
X22212300Y23733406D01*
X22213836Y23748999D01*
X22212300Y23764592D01*
X22212300Y23802856D01*
X22247955Y23826680D01*
X22325120Y23903845D01*
X22385749Y23994582D01*
X22427511Y24095404D01*
X22448800Y24202436D01*
X22448800Y24311564D01*
X22427511Y24418596D01*
X22385749Y24519418D01*
X22325120Y24610155D01*
X22290503Y24644772D01*
X22344000Y24644772D01*
X22393793Y24649676D01*
X22441672Y24664200D01*
X22479000Y24684153D01*
X22516328Y24664200D01*
X22564207Y24649676D01*
X22614000Y24644772D01*
X23614000Y24644772D01*
X23663793Y24649676D01*
X23711672Y24664200D01*
X23749000Y24684153D01*
X23786328Y24664200D01*
X23834207Y24649676D01*
X23884000Y24644772D01*
X24884000Y24644772D01*
X24933793Y24649676D01*
X24981672Y24664200D01*
X25019000Y24684153D01*
X25056328Y24664200D01*
X25056328Y24664200D01*
G37*
X25056328Y24664200D02*
X25104207Y24649676D01*
X25154000Y24644772D01*
X25336500Y24644772D01*
X25336500Y24352953D01*
X23647285Y22663737D01*
X23635168Y22653793D01*
X23595492Y22605447D01*
X23593163Y22601089D01*
X23566009Y22550289D01*
X23547854Y22490440D01*
X23541724Y22428200D01*
X23543261Y22412594D01*
X23543260Y19892713D01*
X20941300Y17290752D01*
X20941300Y18186051D01*
X20942300Y18196204D01*
X20942300Y22347488D01*
X22108276Y23513463D01*
X22120393Y23523407D01*
X22160069Y23571753D01*
X22189551Y23626910D01*
X22207706Y23686759D01*
X22212300Y23733404D01*
X22212300Y23733406D01*
X22213836Y23748999D01*
X22212300Y23764592D01*
X22212300Y23802856D01*
X22247955Y23826680D01*
X22325120Y23903845D01*
X22385749Y23994582D01*
X22427511Y24095404D01*
X22448800Y24202436D01*
X22448800Y24311564D01*
X22427511Y24418596D01*
X22385749Y24519418D01*
X22325120Y24610155D01*
X22290503Y24644772D01*
X22344000Y24644772D01*
X22393793Y24649676D01*
X22441672Y24664200D01*
X22479000Y24684153D01*
X22516328Y24664200D01*
X22564207Y24649676D01*
X22614000Y24644772D01*
X23614000Y24644772D01*
X23663793Y24649676D01*
X23711672Y24664200D01*
X23749000Y24684153D01*
X23786328Y24664200D01*
X23834207Y24649676D01*
X23884000Y24644772D01*
X24884000Y24644772D01*
X24933793Y24649676D01*
X24981672Y24664200D01*
X25019000Y24684153D01*
X25056328Y24664200D01*
G36*
X16166328Y24664200D02*
G01*
X16214207Y24649676D01*
X16264000Y24644772D01*
X16445479Y24644772D01*
X16451094Y24587759D01*
X16469249Y24527910D01*
X16475514Y24516190D01*
X16498732Y24472752D01*
X16538408Y24424406D01*
X16550525Y24414462D01*
X16929100Y24035886D01*
X16929101Y19647638D01*
X16927564Y19632032D01*
X16933694Y19569792D01*
X16951849Y19509943D01*
X16963208Y19488693D01*
X16981332Y19454785D01*
X17021008Y19406439D01*
X17033125Y19396495D01*
X18462006Y17967613D01*
X18445105Y17956320D01*
X18367940Y17879155D01*
X18307311Y17788418D01*
X18265549Y17687596D01*
X18244260Y17580564D01*
X18244260Y17563309D01*
X18200564Y17572000D01*
X18091436Y17572000D01*
X18049378Y17563635D01*
X17213142Y18399870D01*
X17203193Y18411993D01*
X17154847Y18451669D01*
X17099690Y18481151D01*
X17039841Y18499306D01*
X16993196Y18503900D01*
X16977600Y18505436D01*
X16962004Y18503900D01*
X16556875Y18503900D01*
X16559320Y18506345D01*
X16619949Y18597082D01*
X16661711Y18697904D01*
X16683000Y18804936D01*
X16683000Y18914064D01*
X16661711Y19021096D01*
X16619949Y19121918D01*
X16559320Y19212655D01*
X16482155Y19289820D01*
X16391418Y19350449D01*
X16290596Y19392211D01*
X16183564Y19413500D01*
X16074436Y19413500D01*
X15967404Y19392211D01*
X15866582Y19350449D01*
X15775845Y19289820D01*
X15698680Y19212655D01*
X15638051Y19121918D01*
X15596289Y19021096D01*
X15575000Y18914064D01*
X15575000Y18804936D01*
X15596289Y18697904D01*
X15638051Y18597082D01*
X15698680Y18506345D01*
X15701125Y18503900D01*
X15190801Y18503900D01*
X14058900Y19635800D01*
X14058900Y21835064D01*
X15448000Y21835064D01*
X15448000Y21725936D01*
X15469289Y21618904D01*
X15511051Y21518082D01*
X15571680Y21427345D01*
X15648845Y21350180D01*
X15739582Y21289551D01*
X15840404Y21247789D01*
X15947436Y21226500D01*
X16056564Y21226500D01*
X16163596Y21247789D01*
X16264418Y21289551D01*
X16355155Y21350180D01*
X16432320Y21427345D01*
X16492949Y21518082D01*
X16534711Y21618904D01*
X16556000Y21725936D01*
X16556000Y21835064D01*
X16534711Y21942096D01*
X16492949Y22042918D01*
X16432320Y22133655D01*
X16355155Y22210820D01*
X16264418Y22271449D01*
X16163596Y22313211D01*
X16056564Y22334500D01*
X15947436Y22334500D01*
X15840404Y22313211D01*
X15739582Y22271449D01*
X15648845Y22210820D01*
X15571680Y22133655D01*
X15511051Y22042918D01*
X15469289Y21942096D01*
X15448000Y21835064D01*
X14058900Y21835064D01*
X14058900Y24035887D01*
X14437477Y24414463D01*
X14449593Y24424406D01*
X14489269Y24472752D01*
X14518751Y24527909D01*
X14536906Y24587758D01*
X14541500Y24634403D01*
X14541500Y24634405D01*
X14542521Y24644772D01*
X14724000Y24644772D01*
X14773793Y24649676D01*
X14821672Y24664200D01*
X14859000Y24684153D01*
X14896328Y24664200D01*
X14944207Y24649676D01*
X14994000Y24644772D01*
X15994000Y24644772D01*
X16043793Y24649676D01*
X16091672Y24664200D01*
X16129000Y24684153D01*
X16166328Y24664200D01*
X16166328Y24664200D01*
G37*
X16166328Y24664200D02*
X16214207Y24649676D01*
X16264000Y24644772D01*
X16445479Y24644772D01*
X16451094Y24587759D01*
X16469249Y24527910D01*
X16475514Y24516190D01*
X16498732Y24472752D01*
X16538408Y24424406D01*
X16550525Y24414462D01*
X16929100Y24035886D01*
X16929101Y19647638D01*
X16927564Y19632032D01*
X16933694Y19569792D01*
X16951849Y19509943D01*
X16963208Y19488693D01*
X16981332Y19454785D01*
X17021008Y19406439D01*
X17033125Y19396495D01*
X18462006Y17967613D01*
X18445105Y17956320D01*
X18367940Y17879155D01*
X18307311Y17788418D01*
X18265549Y17687596D01*
X18244260Y17580564D01*
X18244260Y17563309D01*
X18200564Y17572000D01*
X18091436Y17572000D01*
X18049378Y17563635D01*
X17213142Y18399870D01*
X17203193Y18411993D01*
X17154847Y18451669D01*
X17099690Y18481151D01*
X17039841Y18499306D01*
X16993196Y18503900D01*
X16977600Y18505436D01*
X16962004Y18503900D01*
X16556875Y18503900D01*
X16559320Y18506345D01*
X16619949Y18597082D01*
X16661711Y18697904D01*
X16683000Y18804936D01*
X16683000Y18914064D01*
X16661711Y19021096D01*
X16619949Y19121918D01*
X16559320Y19212655D01*
X16482155Y19289820D01*
X16391418Y19350449D01*
X16290596Y19392211D01*
X16183564Y19413500D01*
X16074436Y19413500D01*
X15967404Y19392211D01*
X15866582Y19350449D01*
X15775845Y19289820D01*
X15698680Y19212655D01*
X15638051Y19121918D01*
X15596289Y19021096D01*
X15575000Y18914064D01*
X15575000Y18804936D01*
X15596289Y18697904D01*
X15638051Y18597082D01*
X15698680Y18506345D01*
X15701125Y18503900D01*
X15190801Y18503900D01*
X14058900Y19635800D01*
X14058900Y21835064D01*
X15448000Y21835064D01*
X15448000Y21725936D01*
X15469289Y21618904D01*
X15511051Y21518082D01*
X15571680Y21427345D01*
X15648845Y21350180D01*
X15739582Y21289551D01*
X15840404Y21247789D01*
X15947436Y21226500D01*
X16056564Y21226500D01*
X16163596Y21247789D01*
X16264418Y21289551D01*
X16355155Y21350180D01*
X16432320Y21427345D01*
X16492949Y21518082D01*
X16534711Y21618904D01*
X16556000Y21725936D01*
X16556000Y21835064D01*
X16534711Y21942096D01*
X16492949Y22042918D01*
X16432320Y22133655D01*
X16355155Y22210820D01*
X16264418Y22271449D01*
X16163596Y22313211D01*
X16056564Y22334500D01*
X15947436Y22334500D01*
X15840404Y22313211D01*
X15739582Y22271449D01*
X15648845Y22210820D01*
X15571680Y22133655D01*
X15511051Y22042918D01*
X15469289Y21942096D01*
X15448000Y21835064D01*
X14058900Y21835064D01*
X14058900Y24035887D01*
X14437477Y24414463D01*
X14449593Y24424406D01*
X14489269Y24472752D01*
X14518751Y24527909D01*
X14536906Y24587758D01*
X14541500Y24634403D01*
X14541500Y24634405D01*
X14542521Y24644772D01*
X14724000Y24644772D01*
X14773793Y24649676D01*
X14821672Y24664200D01*
X14859000Y24684153D01*
X14896328Y24664200D01*
X14944207Y24649676D01*
X14994000Y24644772D01*
X15994000Y24644772D01*
X16043793Y24649676D01*
X16091672Y24664200D01*
X16129000Y24684153D01*
X16166328Y24664200D01*
M02*
