M48
METRIC,TZ
T1C0.300
T2C0.350
T3C0.400
T4C0.750
%
G90
G05
T1
X17157Y14300
X17157Y13600
X17157Y11800
X17157Y11100
X19357Y14300
X19357Y12700
X19357Y11100
T2
X6887Y17077
X6887Y8323
X7078Y4885
X7139Y2227
X7228Y14406
X7228Y10994
X8849Y16986
X8849Y8414
X9040Y4885
X9101Y2227
X9233Y11248
X9241Y14150
X10898Y8924
X10915Y16471
X11002Y4885
X11063Y2227
X11279Y11759
X11304Y13634
X11367Y24447
X12002Y24447
X12946Y9435
X12964Y4885
X12980Y15962
X12980Y13346
X12980Y12050
X13025Y2227
X14750Y24000
X14750Y22000
X14750Y20000
X14908Y9435
X14929Y4887
X14942Y15962
X14986Y2233
X15014Y13034
X15014Y12323
X15460Y5701
X16002Y21781
X16129Y18860
X16254Y15775
X16257Y9600
X16951Y2238
X17368Y17018
X17368Y8800
X17422Y5701
X18146Y17018
X18146Y8800
X18798Y17526
X18893Y8440
X18913Y2238
X19141Y20388
X19202Y21887
X19202Y21160
X19384Y5701
X19576Y17526
X19671Y8440
X19765Y23335
X19863Y16637
X20320Y7645
X20875Y2238
X21346Y5701
X21475Y21780
X21475Y20248
X21577Y9670
X21796Y4895
X21895Y24257
X21908Y16066
X22078Y9081
X22883Y5087
X22888Y2360
X22975Y21780
X22975Y20248
X23636Y15512
X23636Y10888
X24720Y6051
X24744Y19385
X24744Y18763
X24860Y3012
X25303Y22573
X25598Y15512
X25598Y10888
X26017Y7671
X26213Y17077
X26562Y9672
X26590Y4160
X26776Y19728
X27385Y23436
X27560Y15512
X27958Y5722
X28003Y17526
X28385Y1575
X28385Y955
X28854Y15773
X28855Y7597
X28956Y3556
X29000Y24000
X29000Y22250
X29221Y9640
X29237Y13747
X29237Y11724
X29591Y3556
X30000Y4750
X30416Y3175
X30586Y20642
X30734Y18517
X30734Y17907
X30750Y22250
X31051Y3175
T3
X1266Y10752
X1266Y8552
X2446Y7362
X2476Y11952
X4646Y11952
X4696Y7362
X5866Y10952
X5866Y8352
X1266Y4656
X1266Y2456
X2446Y1266
X2476Y5856
X4646Y5856
X4696Y1266
X5866Y4856
X5866Y2256
X1266Y16848
X1266Y14648
X2446Y13458
X2476Y18048
X4646Y18048
X4696Y13458
X5866Y17048
X5866Y14448
T4
X11684Y25400
X11684Y0
X12954Y25400
X12954Y0
X14224Y25400
X14224Y0
X15494Y25400
X15494Y0
X16764Y25400
X16764Y0
X18034Y25400
X18034Y0
X19304Y25400
X19304Y0
X20574Y25400
X20574Y0
X21844Y25400
X21844Y0
X23114Y25400
X23114Y0
X24384Y25400
X24384Y0
X25654Y25400
X25654Y0
X26924Y25400
X26924Y0
X28194Y25400
X28194Y0
X29464Y25400
X29464Y0
X30734Y25400
X30734Y0
T0
M30
