M48
INCH
T1C0.0079
T2C0.0118
T3C0.0138
T4C0.0157
T5C0.0295
%
G90
G05
T1
X0.8359Y0.8646
X0.8359Y0.8262
X0.8359Y0.7878
X0.8743Y0.8646
X0.8743Y0.8262
X0.8743Y0.7878
X0.9127Y0.8646
X0.9127Y0.8262
X0.9127Y0.7878
T2
X0.6748Y0.5625
X0.6748Y0.535
X0.6748Y0.4641
X0.6748Y0.4365
X0.7614Y0.5625
X0.7614Y0.4995
X0.7614Y0.4365
T3
X0.2704Y0.6718
X0.2704Y0.3272
X0.278Y0.1918
X0.2803Y0.0872
X0.2839Y0.5667
X0.2839Y0.4324
X0.3477Y0.6683
X0.3477Y0.3308
X0.3552Y0.1918
X0.3576Y0.0872
X0.3628Y0.4424
X0.3631Y0.5566
X0.4283Y0.3509
X0.429Y0.648
X0.4324Y0.1918
X0.4348Y0.0872
X0.4434Y0.4625
X0.4443Y0.5363
X0.4468Y0.962
X0.4718Y0.962
X0.509Y0.371
X0.5097Y0.1918
X0.5103Y0.628
X0.5103Y0.525
X0.5103Y0.474
X0.5121Y0.0872
X0.5862Y0.371
X0.587Y0.1916
X0.5876Y0.628
X0.5893Y0.0874
X0.5904Y0.5127
X0.5904Y0.4847
X0.608Y0.224
X0.6293Y0.857
X0.6343Y0.742
X0.6392Y0.6206
X0.6393Y0.3775
X0.6667Y0.0876
X0.6831Y0.6695
X0.6831Y0.346
X0.6852Y0.224
X0.7137Y0.6695
X0.7137Y0.346
X0.7394Y0.6895
X0.7431Y0.3318
X0.7439Y0.0876
X0.7529Y0.8022
X0.7553Y0.8612
X0.7553Y0.8326
X0.7624Y0.224
X0.77Y0.6895
X0.7737Y0.3318
X0.7775Y0.9182
X0.7813Y0.6545
X0.7993Y0.3005
X0.8212Y0.0876
X0.8397Y0.224
X0.8488Y0.3802
X0.8574Y0.1923
X0.8613Y0.9545
X0.8618Y0.632
X0.8685Y0.357
X0.9002Y0.1998
X0.9004Y0.0924
X0.9299Y0.6102
X0.9299Y0.4282
X0.9725Y0.2378
X0.9735Y0.7627
X0.9735Y0.7382
X0.978Y0.1181
X0.9955Y0.8882
X1.0071Y0.6102
X1.0071Y0.4282
X1.0236Y0.3015
X1.0313Y0.6718
X1.0451Y0.3803
X1.0461Y0.1633
X1.0535Y0.7762
X1.0775Y0.9222
X1.0843Y0.6102
X1.1Y0.2248
X1.1018Y0.6895
X1.1168Y0.0595
X1.1168Y0.0345
X1.1353Y0.6205
X1.1353Y0.2986
X1.1393Y0.1395
X1.1497Y0.3791
X1.1503Y0.5407
X1.1503Y0.4611
X1.1643Y0.1395
X1.1968Y0.1245
X1.2035Y0.8122
X1.2093Y0.7285
X1.2093Y0.7045
X1.2218Y0.1245
T4
X0.0491Y0.6628
X0.0491Y0.5762
X0.0956Y0.5294
X0.0968Y0.7101
X0.1822Y0.7101
X0.1842Y0.5294
X0.2302Y0.6707
X0.2302Y0.5684
X0.0491Y0.4228
X0.0491Y0.3362
X0.0956Y0.2894
X0.0968Y0.4701
X0.1822Y0.4701
X0.1842Y0.2894
X0.2302Y0.4307
X0.2302Y0.3284
X0.0491Y0.1828
X0.0491Y0.0962
X0.0956Y0.0494
X0.0968Y0.2301
X0.1822Y0.2301
X0.1842Y0.0494
X0.2302Y0.1907
X0.2302Y0.0884
T5
X0.4593Y0.9995
X0.4593Y-0.0005
X0.5093Y0.9995
X0.5093Y-0.0005
X0.5593Y0.9995
X0.5593Y-0.0005
X0.6093Y0.9995
X0.6093Y-0.0005
X0.6593Y0.9995
X0.6593Y-0.0005
X0.7093Y0.9995
X0.7093Y-0.0005
X0.7593Y0.9995
X0.7593Y-0.0005
X0.8093Y0.9995
X0.8093Y-0.0005
X0.8593Y0.9995
X0.8593Y-0.0005
X0.9093Y0.9995
X0.9093Y-0.0005
X0.9593Y0.9995
X0.9593Y-0.0005
X1.0093Y0.9995
X1.0093Y-0.0005
X1.0593Y0.9995
X1.0593Y-0.0005
X1.1093Y0.9995
X1.1093Y-0.0005
X1.1593Y0.9995
X1.1593Y-0.0005
X1.2093Y0.9995
X1.2093Y-0.0005
T0
M30
