M48
INCH
T1C0.0118
T2C0.0138
T3C0.0157
T4C0.0295
%
G90
G05
T1
X0.6755Y0.563
X0.6755Y0.5354
X0.6755Y0.4646
X0.6755Y0.437
X0.7621Y0.563
X0.7621Y0.5
X0.7621Y0.437
T2
X0.2712Y0.6723
X0.2712Y0.3277
X0.2787Y0.1923
X0.281Y0.0877
X0.2846Y0.5672
X0.2846Y0.4328
X0.3484Y0.6687
X0.3484Y0.3313
X0.3559Y0.1923
X0.3583Y0.0877
X0.3635Y0.4428
X0.3638Y0.5571
X0.429Y0.3514
X0.4297Y0.6484
X0.4332Y0.1923
X0.4355Y0.0877
X0.4441Y0.4629
X0.4451Y0.5368
X0.4475Y0.9625
X0.4725Y0.9625
X0.5097Y0.3715
X0.5104Y0.1923
X0.511Y0.6284
X0.511Y0.5254
X0.511Y0.4744
X0.5128Y0.0877
X0.5807Y0.9449
X0.5807Y0.8661
X0.5807Y0.7874
X0.5869Y0.3715
X0.5878Y0.1921
X0.5883Y0.6284
X0.59Y0.0879
X0.5911Y0.5132
X0.5911Y0.4852
X0.6087Y0.2244
X0.63Y0.8575
X0.635Y0.7425
X0.6399Y0.6211
X0.64Y0.378
X0.6674Y0.0881
X0.6838Y0.67
X0.6838Y0.3465
X0.6859Y0.2244
X0.7144Y0.67
X0.7144Y0.3465
X0.7401Y0.69
X0.7438Y0.3323
X0.7446Y0.0881
X0.7536Y0.8027
X0.756Y0.8617
X0.756Y0.8331
X0.7631Y0.2244
X0.7707Y0.69
X0.7744Y0.3323
X0.7782Y0.9187
X0.782Y0.655
X0.8Y0.301
X0.8219Y0.0881
X0.8404Y0.2244
X0.8455Y0.8575
X0.8455Y0.7972
X0.8495Y0.3807
X0.8581Y0.1927
X0.862Y0.955
X0.8625Y0.6325
X0.8692Y0.3575
X0.9009Y0.2003
X0.9011Y0.0929
X0.9045Y0.8575
X0.9045Y0.7972
X0.9306Y0.6107
X0.9306Y0.4287
X0.9732Y0.2382
X0.9742Y0.7632
X0.9742Y0.7387
X0.9787Y0.1186
X0.9962Y0.8887
X1.0078Y0.6107
X1.0078Y0.4287
X1.0243Y0.302
X1.032Y0.6723
X1.0458Y0.3808
X1.0468Y0.1638
X1.0542Y0.7767
X1.0782Y0.9227
X1.0851Y0.6107
X1.1007Y0.2253
X1.1025Y0.69
X1.1175Y0.06
X1.1175Y0.035
X1.136Y0.621
X1.136Y0.2991
X1.14Y0.14
X1.1417Y0.9449
X1.1417Y0.876
X1.1504Y0.3795
X1.1511Y0.5412
X1.1511Y0.4616
X1.165Y0.14
X1.1811Y0.187
X1.1975Y0.125
X1.2042Y0.8127
X1.21Y0.729
X1.21Y0.705
X1.2106Y0.876
X1.2225Y0.125
T3
X0.0498Y0.4233
X0.0498Y0.3367
X0.0963Y0.2898
X0.0975Y0.4706
X0.1829Y0.4706
X0.1849Y0.2898
X0.231Y0.4312
X0.231Y0.3288
X0.0498Y0.1833
X0.0498Y0.0967
X0.0963Y0.0498
X0.0975Y0.2306
X0.1829Y0.2306
X0.1849Y0.0498
X0.231Y0.1912
X0.231Y0.0888
X0.0498Y0.6633
X0.0498Y0.5767
X0.0963Y0.5298
X0.0975Y0.7106
X0.1829Y0.7106
X0.1849Y0.5298
X0.231Y0.6712
X0.231Y0.5688
T4
X0.46Y1.0
X0.46Y0.0
X0.51Y1.0
X0.51Y0.0
X0.56Y1.0
X0.56Y0.0
X0.61Y1.0
X0.61Y0.0
X0.66Y1.0
X0.66Y0.0
X0.71Y1.0
X0.71Y0.0
X0.76Y1.0
X0.76Y0.0
X0.81Y1.0
X0.81Y0.0
X0.86Y1.0
X0.86Y0.0
X0.91Y1.0
X0.91Y0.0
X0.96Y1.0
X0.96Y0.0
X1.01Y1.0
X1.01Y0.0
X1.06Y1.0
X1.06Y0.0
X1.11Y1.0
X1.11Y0.0
X1.16Y1.0
X1.16Y0.0
X1.21Y1.0
X1.21Y0.0
T0
M30
