G04 #@! TF.GenerationSoftware,KiCad,Pcbnew,(5.1.2)-2*
G04 #@! TF.CreationDate,2019-09-28T03:00:28-05:00*
G04 #@! TF.ProjectId,front_end,66726f6e-745f-4656-9e64-2e6b69636164,A*
G04 #@! TF.SameCoordinates,Original*
G04 #@! TF.FileFunction,Legend,Top*
G04 #@! TF.FilePolarity,Positive*
%FSLAX46Y46*%
G04 Gerber Fmt 4.6, Leading zero omitted, Abs format (unit mm)*
G04 Created by KiCad (PCBNEW (5.1.2)-2) date 2019-09-28 03:00:28*
%MOMM*%
%LPD*%
G04 APERTURE LIST*
%ADD10C,0.150000*%
G04 APERTURE END LIST*
D10*
X234180761Y-122372380D02*
X234180761Y-121372380D01*
X235085523Y-122372380D02*
X235085523Y-121372380D01*
X235085523Y-122324761D02*
X234990285Y-122372380D01*
X234799809Y-122372380D01*
X234704571Y-122324761D01*
X234656952Y-122277142D01*
X234609333Y-122181904D01*
X234609333Y-121896190D01*
X234656952Y-121800952D01*
X234704571Y-121753333D01*
X234799809Y-121705714D01*
X234990285Y-121705714D01*
X235085523Y-121753333D01*
X235942666Y-122324761D02*
X235847428Y-122372380D01*
X235656952Y-122372380D01*
X235561714Y-122324761D01*
X235514095Y-122229523D01*
X235514095Y-121848571D01*
X235561714Y-121753333D01*
X235656952Y-121705714D01*
X235847428Y-121705714D01*
X235942666Y-121753333D01*
X235990285Y-121848571D01*
X235990285Y-121943809D01*
X235514095Y-122039047D01*
X236847428Y-122372380D02*
X236847428Y-121848571D01*
X236799809Y-121753333D01*
X236704571Y-121705714D01*
X236514095Y-121705714D01*
X236418857Y-121753333D01*
X236847428Y-122324761D02*
X236752190Y-122372380D01*
X236514095Y-122372380D01*
X236418857Y-122324761D01*
X236371238Y-122229523D01*
X236371238Y-122134285D01*
X236418857Y-122039047D01*
X236514095Y-121991428D01*
X236752190Y-121991428D01*
X236847428Y-121943809D01*
X237466476Y-122372380D02*
X237371238Y-122324761D01*
X237323619Y-122229523D01*
X237323619Y-121372380D01*
X239085523Y-122372380D02*
X238609333Y-122372380D01*
X238609333Y-121372380D01*
X239418857Y-122372380D02*
X239418857Y-121372380D01*
X239799809Y-121372380D01*
X239895047Y-121420000D01*
X239942666Y-121467619D01*
X239990285Y-121562857D01*
X239990285Y-121705714D01*
X239942666Y-121800952D01*
X239895047Y-121848571D01*
X239799809Y-121896190D01*
X239418857Y-121896190D01*
X240752190Y-121848571D02*
X240418857Y-121848571D01*
X240418857Y-122372380D02*
X240418857Y-121372380D01*
X240895047Y-121372380D01*
X241990285Y-121467619D02*
X242037904Y-121420000D01*
X242133142Y-121372380D01*
X242371238Y-121372380D01*
X242466476Y-121420000D01*
X242514095Y-121467619D01*
X242561714Y-121562857D01*
X242561714Y-121658095D01*
X242514095Y-121800952D01*
X241942666Y-122372380D01*
X242561714Y-122372380D01*
X243418857Y-121372380D02*
X243228380Y-121372380D01*
X243133142Y-121420000D01*
X243085523Y-121467619D01*
X242990285Y-121610476D01*
X242942666Y-121800952D01*
X242942666Y-122181904D01*
X242990285Y-122277142D01*
X243037904Y-122324761D01*
X243133142Y-122372380D01*
X243323619Y-122372380D01*
X243418857Y-122324761D01*
X243466476Y-122277142D01*
X243514095Y-122181904D01*
X243514095Y-121943809D01*
X243466476Y-121848571D01*
X243418857Y-121800952D01*
X243323619Y-121753333D01*
X243133142Y-121753333D01*
X243037904Y-121800952D01*
X242990285Y-121848571D01*
X242942666Y-121943809D01*
X244371238Y-122372380D02*
X244371238Y-121372380D01*
X244371238Y-122324761D02*
X244276000Y-122372380D01*
X244085523Y-122372380D01*
X243990285Y-122324761D01*
X243942666Y-122277142D01*
X243895047Y-122181904D01*
X243895047Y-121896190D01*
X243942666Y-121800952D01*
X243990285Y-121753333D01*
X244085523Y-121705714D01*
X244276000Y-121705714D01*
X244371238Y-121753333D01*
X245180761Y-121848571D02*
X245323619Y-121896190D01*
X245371238Y-121943809D01*
X245418857Y-122039047D01*
X245418857Y-122181904D01*
X245371238Y-122277142D01*
X245323619Y-122324761D01*
X245228380Y-122372380D01*
X244847428Y-122372380D01*
X244847428Y-121372380D01*
X245180761Y-121372380D01*
X245276000Y-121420000D01*
X245323619Y-121467619D01*
X245371238Y-121562857D01*
X245371238Y-121658095D01*
X245323619Y-121753333D01*
X245276000Y-121800952D01*
X245180761Y-121848571D01*
X244847428Y-121848571D01*
X199311047Y-122118380D02*
X198834857Y-122118380D01*
X198834857Y-121118380D01*
X199644380Y-122118380D02*
X199644380Y-121118380D01*
X200025333Y-121118380D01*
X200120571Y-121166000D01*
X200168190Y-121213619D01*
X200215809Y-121308857D01*
X200215809Y-121451714D01*
X200168190Y-121546952D01*
X200120571Y-121594571D01*
X200025333Y-121642190D01*
X199644380Y-121642190D01*
X200977714Y-121594571D02*
X200644380Y-121594571D01*
X200644380Y-122118380D02*
X200644380Y-121118380D01*
X201120571Y-121118380D01*
X202168190Y-121118380D02*
X202787238Y-121118380D01*
X202453904Y-121499333D01*
X202596761Y-121499333D01*
X202692000Y-121546952D01*
X202739619Y-121594571D01*
X202787238Y-121689809D01*
X202787238Y-121927904D01*
X202739619Y-122023142D01*
X202692000Y-122070761D01*
X202596761Y-122118380D01*
X202311047Y-122118380D01*
X202215809Y-122070761D01*
X202168190Y-122023142D01*
X203692000Y-121118380D02*
X203215809Y-121118380D01*
X203168190Y-121594571D01*
X203215809Y-121546952D01*
X203311047Y-121499333D01*
X203549142Y-121499333D01*
X203644380Y-121546952D01*
X203692000Y-121594571D01*
X203739619Y-121689809D01*
X203739619Y-121927904D01*
X203692000Y-122023142D01*
X203644380Y-122070761D01*
X203549142Y-122118380D01*
X203311047Y-122118380D01*
X203215809Y-122070761D01*
X203168190Y-122023142D01*
X204692000Y-121166000D02*
X204596761Y-121118380D01*
X204453904Y-121118380D01*
X204311047Y-121166000D01*
X204215809Y-121261238D01*
X204168190Y-121356476D01*
X204120571Y-121546952D01*
X204120571Y-121689809D01*
X204168190Y-121880285D01*
X204215809Y-121975523D01*
X204311047Y-122070761D01*
X204453904Y-122118380D01*
X204549142Y-122118380D01*
X204692000Y-122070761D01*
X204739619Y-122023142D01*
X204739619Y-121689809D01*
X204549142Y-121689809D01*
X205168190Y-122118380D02*
X205168190Y-121118380D01*
X205168190Y-121594571D02*
X205739619Y-121594571D01*
X205739619Y-122118380D02*
X205739619Y-121118380D01*
X206120571Y-121451714D02*
X206644380Y-121451714D01*
X206120571Y-122118380D01*
X206644380Y-122118380D01*
X266065904Y-103576380D02*
X266065904Y-102576380D01*
X266542095Y-102909714D02*
X266542095Y-103576380D01*
X266542095Y-103004952D02*
X266589714Y-102957333D01*
X266684952Y-102909714D01*
X266827809Y-102909714D01*
X266923047Y-102957333D01*
X266970666Y-103052571D01*
X266970666Y-103576380D01*
X267304000Y-102909714D02*
X267684952Y-102909714D01*
X267446857Y-103576380D02*
X267446857Y-102719238D01*
X267494476Y-102624000D01*
X267589714Y-102576380D01*
X267684952Y-102576380D01*
X268018285Y-103576380D02*
X268018285Y-102909714D01*
X268018285Y-102576380D02*
X267970666Y-102624000D01*
X268018285Y-102671619D01*
X268065904Y-102624000D01*
X268018285Y-102576380D01*
X268018285Y-102671619D01*
X268494476Y-102909714D02*
X268494476Y-103576380D01*
X268494476Y-103004952D02*
X268542095Y-102957333D01*
X268637333Y-102909714D01*
X268780190Y-102909714D01*
X268875428Y-102957333D01*
X268923047Y-103052571D01*
X268923047Y-103576380D01*
X269780190Y-103528761D02*
X269684952Y-103576380D01*
X269494476Y-103576380D01*
X269399238Y-103528761D01*
X269351619Y-103433523D01*
X269351619Y-103052571D01*
X269399238Y-102957333D01*
X269494476Y-102909714D01*
X269684952Y-102909714D01*
X269780190Y-102957333D01*
X269827809Y-103052571D01*
X269827809Y-103147809D01*
X269351619Y-103243047D01*
X270399238Y-103576380D02*
X270304000Y-103528761D01*
X270256380Y-103481142D01*
X270208761Y-103385904D01*
X270208761Y-103100190D01*
X270256380Y-103004952D01*
X270304000Y-102957333D01*
X270399238Y-102909714D01*
X270542095Y-102909714D01*
X270637333Y-102957333D01*
X270684952Y-103004952D01*
X270732571Y-103100190D01*
X270732571Y-103385904D01*
X270684952Y-103481142D01*
X270637333Y-103528761D01*
X270542095Y-103576380D01*
X270399238Y-103576380D01*
X271161142Y-102909714D02*
X271161142Y-103576380D01*
X271161142Y-103004952D02*
X271208761Y-102957333D01*
X271304000Y-102909714D01*
X271446857Y-102909714D01*
X271542095Y-102957333D01*
X271589714Y-103052571D01*
X271589714Y-103576380D01*
X273304000Y-103576380D02*
X272827809Y-103576380D01*
X272827809Y-102576380D01*
X273637333Y-103576380D02*
X273637333Y-102576380D01*
X274018285Y-102576380D01*
X274113523Y-102624000D01*
X274161142Y-102671619D01*
X274208761Y-102766857D01*
X274208761Y-102909714D01*
X274161142Y-103004952D01*
X274113523Y-103052571D01*
X274018285Y-103100190D01*
X273637333Y-103100190D01*
X274970666Y-103052571D02*
X274637333Y-103052571D01*
X274637333Y-103576380D02*
X274637333Y-102576380D01*
X275113523Y-102576380D01*
X276684952Y-102909714D02*
X276684952Y-103576380D01*
X276446857Y-102528761D02*
X276208761Y-103243047D01*
X276827809Y-103243047D01*
X277351619Y-103004952D02*
X277256380Y-102957333D01*
X277208761Y-102909714D01*
X277161142Y-102814476D01*
X277161142Y-102766857D01*
X277208761Y-102671619D01*
X277256380Y-102624000D01*
X277351619Y-102576380D01*
X277542095Y-102576380D01*
X277637333Y-102624000D01*
X277684952Y-102671619D01*
X277732571Y-102766857D01*
X277732571Y-102814476D01*
X277684952Y-102909714D01*
X277637333Y-102957333D01*
X277542095Y-103004952D01*
X277351619Y-103004952D01*
X277256380Y-103052571D01*
X277208761Y-103100190D01*
X277161142Y-103195428D01*
X277161142Y-103385904D01*
X277208761Y-103481142D01*
X277256380Y-103528761D01*
X277351619Y-103576380D01*
X277542095Y-103576380D01*
X277637333Y-103528761D01*
X277684952Y-103481142D01*
X277732571Y-103385904D01*
X277732571Y-103195428D01*
X277684952Y-103100190D01*
X277637333Y-103052571D01*
X277542095Y-103004952D01*
X278684952Y-102624000D02*
X278589714Y-102576380D01*
X278446857Y-102576380D01*
X278304000Y-102624000D01*
X278208761Y-102719238D01*
X278161142Y-102814476D01*
X278113523Y-103004952D01*
X278113523Y-103147809D01*
X278161142Y-103338285D01*
X278208761Y-103433523D01*
X278304000Y-103528761D01*
X278446857Y-103576380D01*
X278542095Y-103576380D01*
X278684952Y-103528761D01*
X278732571Y-103481142D01*
X278732571Y-103147809D01*
X278542095Y-103147809D01*
X279161142Y-103576380D02*
X279161142Y-102576380D01*
X279161142Y-103052571D02*
X279732571Y-103052571D01*
X279732571Y-103576380D02*
X279732571Y-102576380D01*
X280113523Y-102909714D02*
X280637333Y-102909714D01*
X280113523Y-103576380D01*
X280637333Y-103576380D01*
X266494476Y-84034380D02*
X267065904Y-84034380D01*
X266780190Y-85034380D02*
X266780190Y-84034380D01*
X267827809Y-84367714D02*
X267827809Y-85034380D01*
X267399238Y-84367714D02*
X267399238Y-84891523D01*
X267446857Y-84986761D01*
X267542095Y-85034380D01*
X267684952Y-85034380D01*
X267780190Y-84986761D01*
X267827809Y-84939142D01*
X268304000Y-84367714D02*
X268304000Y-85034380D01*
X268304000Y-84462952D02*
X268351619Y-84415333D01*
X268446857Y-84367714D01*
X268589714Y-84367714D01*
X268684952Y-84415333D01*
X268732571Y-84510571D01*
X268732571Y-85034380D01*
X269208761Y-85034380D02*
X269208761Y-84367714D01*
X269208761Y-84034380D02*
X269161142Y-84082000D01*
X269208761Y-84129619D01*
X269256380Y-84082000D01*
X269208761Y-84034380D01*
X269208761Y-84129619D01*
X269684952Y-84367714D02*
X269684952Y-85034380D01*
X269684952Y-84462952D02*
X269732571Y-84415333D01*
X269827809Y-84367714D01*
X269970666Y-84367714D01*
X270065904Y-84415333D01*
X270113523Y-84510571D01*
X270113523Y-85034380D01*
X271018285Y-84367714D02*
X271018285Y-85177238D01*
X270970666Y-85272476D01*
X270923047Y-85320095D01*
X270827809Y-85367714D01*
X270684952Y-85367714D01*
X270589714Y-85320095D01*
X271018285Y-84986761D02*
X270923047Y-85034380D01*
X270732571Y-85034380D01*
X270637333Y-84986761D01*
X270589714Y-84939142D01*
X270542095Y-84843904D01*
X270542095Y-84558190D01*
X270589714Y-84462952D01*
X270637333Y-84415333D01*
X270732571Y-84367714D01*
X270923047Y-84367714D01*
X271018285Y-84415333D01*
X272732571Y-85034380D02*
X272256380Y-85034380D01*
X272256380Y-84034380D01*
X273065904Y-85034380D02*
X273065904Y-84034380D01*
X273446857Y-84034380D01*
X273542095Y-84082000D01*
X273589714Y-84129619D01*
X273637333Y-84224857D01*
X273637333Y-84367714D01*
X273589714Y-84462952D01*
X273542095Y-84510571D01*
X273446857Y-84558190D01*
X273065904Y-84558190D01*
X274399238Y-84510571D02*
X274065904Y-84510571D01*
X274065904Y-85034380D02*
X274065904Y-84034380D01*
X274542095Y-84034380D01*
X275589714Y-84034380D02*
X276208761Y-84034380D01*
X275875428Y-84415333D01*
X276018285Y-84415333D01*
X276113523Y-84462952D01*
X276161142Y-84510571D01*
X276208761Y-84605809D01*
X276208761Y-84843904D01*
X276161142Y-84939142D01*
X276113523Y-84986761D01*
X276018285Y-85034380D01*
X275732571Y-85034380D01*
X275637333Y-84986761D01*
X275589714Y-84939142D01*
X277113523Y-84034380D02*
X276637333Y-84034380D01*
X276589714Y-84510571D01*
X276637333Y-84462952D01*
X276732571Y-84415333D01*
X276970666Y-84415333D01*
X277065904Y-84462952D01*
X277113523Y-84510571D01*
X277161142Y-84605809D01*
X277161142Y-84843904D01*
X277113523Y-84939142D01*
X277065904Y-84986761D01*
X276970666Y-85034380D01*
X276732571Y-85034380D01*
X276637333Y-84986761D01*
X276589714Y-84939142D01*
X278113523Y-84082000D02*
X278018285Y-84034380D01*
X277875428Y-84034380D01*
X277732571Y-84082000D01*
X277637333Y-84177238D01*
X277589714Y-84272476D01*
X277542095Y-84462952D01*
X277542095Y-84605809D01*
X277589714Y-84796285D01*
X277637333Y-84891523D01*
X277732571Y-84986761D01*
X277875428Y-85034380D01*
X277970666Y-85034380D01*
X278113523Y-84986761D01*
X278161142Y-84939142D01*
X278161142Y-84605809D01*
X277970666Y-84605809D01*
X278589714Y-85034380D02*
X278589714Y-84034380D01*
X278589714Y-84510571D02*
X279161142Y-84510571D01*
X279161142Y-85034380D02*
X279161142Y-84034380D01*
X279542095Y-84367714D02*
X280065904Y-84367714D01*
X279542095Y-85034380D01*
X280065904Y-85034380D01*
X168854380Y-121673619D02*
X167854380Y-121673619D01*
X167854380Y-121435523D01*
X167902000Y-121292666D01*
X167997238Y-121197428D01*
X168092476Y-121149809D01*
X168282952Y-121102190D01*
X168425809Y-121102190D01*
X168616285Y-121149809D01*
X168711523Y-121197428D01*
X168806761Y-121292666D01*
X168854380Y-121435523D01*
X168854380Y-121673619D01*
X168759142Y-120102190D02*
X168806761Y-120149809D01*
X168854380Y-120292666D01*
X168854380Y-120387904D01*
X168806761Y-120530761D01*
X168711523Y-120626000D01*
X168616285Y-120673619D01*
X168425809Y-120721238D01*
X168282952Y-120721238D01*
X168092476Y-120673619D01*
X167997238Y-120626000D01*
X167902000Y-120530761D01*
X167854380Y-120387904D01*
X167854380Y-120292666D01*
X167902000Y-120149809D01*
X167949619Y-120102190D01*
X168330571Y-118578380D02*
X168378190Y-118435523D01*
X168425809Y-118387904D01*
X168521047Y-118340285D01*
X168663904Y-118340285D01*
X168759142Y-118387904D01*
X168806761Y-118435523D01*
X168854380Y-118530761D01*
X168854380Y-118911714D01*
X167854380Y-118911714D01*
X167854380Y-118578380D01*
X167902000Y-118483142D01*
X167949619Y-118435523D01*
X168044857Y-118387904D01*
X168140095Y-118387904D01*
X168235333Y-118435523D01*
X168282952Y-118483142D01*
X168330571Y-118578380D01*
X168330571Y-118911714D01*
X168854380Y-117435523D02*
X168854380Y-117911714D01*
X167854380Y-117911714D01*
X168854380Y-117102190D02*
X167854380Y-117102190D01*
X168854380Y-116530761D02*
X168282952Y-116959333D01*
X167854380Y-116530761D02*
X168425809Y-117102190D01*
X201922380Y-103830380D02*
X201922380Y-102830380D01*
X202160476Y-102830380D01*
X202303333Y-102878000D01*
X202398571Y-102973238D01*
X202446190Y-103068476D01*
X202493809Y-103258952D01*
X202493809Y-103401809D01*
X202446190Y-103592285D01*
X202398571Y-103687523D01*
X202303333Y-103782761D01*
X202160476Y-103830380D01*
X201922380Y-103830380D01*
X203493809Y-103735142D02*
X203446190Y-103782761D01*
X203303333Y-103830380D01*
X203208095Y-103830380D01*
X203065238Y-103782761D01*
X202970000Y-103687523D01*
X202922380Y-103592285D01*
X202874761Y-103401809D01*
X202874761Y-103258952D01*
X202922380Y-103068476D01*
X202970000Y-102973238D01*
X203065238Y-102878000D01*
X203208095Y-102830380D01*
X203303333Y-102830380D01*
X203446190Y-102878000D01*
X203493809Y-102925619D01*
X205017619Y-103306571D02*
X205160476Y-103354190D01*
X205208095Y-103401809D01*
X205255714Y-103497047D01*
X205255714Y-103639904D01*
X205208095Y-103735142D01*
X205160476Y-103782761D01*
X205065238Y-103830380D01*
X204684285Y-103830380D01*
X204684285Y-102830380D01*
X205017619Y-102830380D01*
X205112857Y-102878000D01*
X205160476Y-102925619D01*
X205208095Y-103020857D01*
X205208095Y-103116095D01*
X205160476Y-103211333D01*
X205112857Y-103258952D01*
X205017619Y-103306571D01*
X204684285Y-103306571D01*
X206160476Y-103830380D02*
X205684285Y-103830380D01*
X205684285Y-102830380D01*
X206493809Y-103830380D02*
X206493809Y-102830380D01*
X207065238Y-103830380D02*
X206636666Y-103258952D01*
X207065238Y-102830380D02*
X206493809Y-103401809D01*
X267359930Y-139076671D02*
X267026597Y-139076671D01*
X267026597Y-139600480D02*
X267026597Y-138600480D01*
X267502788Y-138600480D01*
X268312311Y-138933814D02*
X268312311Y-139600480D01*
X267883740Y-138933814D02*
X267883740Y-139457623D01*
X267931359Y-139552861D01*
X268026597Y-139600480D01*
X268169454Y-139600480D01*
X268264692Y-139552861D01*
X268312311Y-139505242D01*
X268931359Y-139600480D02*
X268836121Y-139552861D01*
X268788502Y-139457623D01*
X268788502Y-138600480D01*
X269455169Y-139600480D02*
X269359930Y-139552861D01*
X269312311Y-139457623D01*
X269312311Y-138600480D01*
X270455169Y-138600480D02*
X271026597Y-138600480D01*
X270740883Y-139600480D02*
X270740883Y-138600480D01*
X271264692Y-138600480D02*
X271931359Y-139600480D01*
X271931359Y-138600480D02*
X271264692Y-139600480D01*
X273645645Y-139505242D02*
X273598026Y-139552861D01*
X273455169Y-139600480D01*
X273359930Y-139600480D01*
X273217073Y-139552861D01*
X273121835Y-139457623D01*
X273074216Y-139362385D01*
X273026597Y-139171909D01*
X273026597Y-139029052D01*
X273074216Y-138838576D01*
X273121835Y-138743338D01*
X273217073Y-138648100D01*
X273359930Y-138600480D01*
X273455169Y-138600480D01*
X273598026Y-138648100D01*
X273645645Y-138695719D01*
X274074216Y-139600480D02*
X274074216Y-138600480D01*
X274502788Y-139600480D02*
X274502788Y-139076671D01*
X274455169Y-138981433D01*
X274359930Y-138933814D01*
X274217073Y-138933814D01*
X274121835Y-138981433D01*
X274074216Y-139029052D01*
X275407550Y-139600480D02*
X275407550Y-139076671D01*
X275359930Y-138981433D01*
X275264692Y-138933814D01*
X275074216Y-138933814D01*
X274978978Y-138981433D01*
X275407550Y-139552861D02*
X275312311Y-139600480D01*
X275074216Y-139600480D01*
X274978978Y-139552861D01*
X274931359Y-139457623D01*
X274931359Y-139362385D01*
X274978978Y-139267147D01*
X275074216Y-139219528D01*
X275312311Y-139219528D01*
X275407550Y-139171909D01*
X275883740Y-139600480D02*
X275883740Y-138933814D01*
X275883740Y-138600480D02*
X275836121Y-138648100D01*
X275883740Y-138695719D01*
X275931359Y-138648100D01*
X275883740Y-138600480D01*
X275883740Y-138695719D01*
X276359930Y-138933814D02*
X276359930Y-139600480D01*
X276359930Y-139029052D02*
X276407550Y-138981433D01*
X276502788Y-138933814D01*
X276645645Y-138933814D01*
X276740883Y-138981433D01*
X276788502Y-139076671D01*
X276788502Y-139600480D01*
X243092006Y-165191159D02*
X242520578Y-165191159D01*
X242806292Y-164191159D02*
X242806292Y-165191159D01*
X241758673Y-164191159D02*
X241758673Y-164714968D01*
X241806292Y-164810206D01*
X241901530Y-164857825D01*
X242092006Y-164857825D01*
X242187244Y-164810206D01*
X241758673Y-164238778D02*
X241853911Y-164191159D01*
X242092006Y-164191159D01*
X242187244Y-164238778D01*
X242234863Y-164334016D01*
X242234863Y-164429254D01*
X242187244Y-164524492D01*
X242092006Y-164572111D01*
X241853911Y-164572111D01*
X241758673Y-164619730D01*
X241282482Y-164857825D02*
X241282482Y-163857825D01*
X241282482Y-164810206D02*
X241187244Y-164857825D01*
X240996768Y-164857825D01*
X240901530Y-164810206D01*
X240853911Y-164762587D01*
X240806292Y-164667349D01*
X240806292Y-164381635D01*
X240853911Y-164286397D01*
X240901530Y-164238778D01*
X240996768Y-164191159D01*
X241187244Y-164191159D01*
X241282482Y-164238778D01*
X239996768Y-164238778D02*
X240092006Y-164191159D01*
X240282482Y-164191159D01*
X240377720Y-164238778D01*
X240425340Y-164334016D01*
X240425340Y-164714968D01*
X240377720Y-164810206D01*
X240282482Y-164857825D01*
X240092006Y-164857825D01*
X239996768Y-164810206D01*
X239949149Y-164714968D01*
X239949149Y-164619730D01*
X240425340Y-164524492D01*
X239520578Y-164191159D02*
X239520578Y-164857825D01*
X239520578Y-164667349D02*
X239472959Y-164762587D01*
X239425340Y-164810206D01*
X239330101Y-164857825D01*
X239234863Y-164857825D01*
X238520578Y-164238778D02*
X238615816Y-164191159D01*
X238806292Y-164191159D01*
X238901530Y-164238778D01*
X238949149Y-164334016D01*
X238949149Y-164714968D01*
X238901530Y-164810206D01*
X238806292Y-164857825D01*
X238615816Y-164857825D01*
X238520578Y-164810206D01*
X238472959Y-164714968D01*
X238472959Y-164619730D01*
X238949149Y-164524492D01*
X237615816Y-164191159D02*
X237615816Y-165191159D01*
X237615816Y-164238778D02*
X237711054Y-164191159D01*
X237901530Y-164191159D01*
X237996768Y-164238778D01*
X238044387Y-164286397D01*
X238092006Y-164381635D01*
X238092006Y-164667349D01*
X238044387Y-164762587D01*
X237996768Y-164810206D01*
X237901530Y-164857825D01*
X237711054Y-164857825D01*
X237615816Y-164810206D01*
X236472959Y-165191159D02*
X236234863Y-164191159D01*
X236044387Y-164905444D01*
X235853911Y-164191159D01*
X235615816Y-165191159D01*
X235234863Y-164191159D02*
X235234863Y-164857825D01*
X235234863Y-165191159D02*
X235282482Y-165143540D01*
X235234863Y-165095920D01*
X235187244Y-165143540D01*
X235234863Y-165191159D01*
X235234863Y-165095920D01*
X234615816Y-164191159D02*
X234711054Y-164238778D01*
X234758673Y-164334016D01*
X234758673Y-165191159D01*
X234234863Y-164191159D02*
X234234863Y-165191159D01*
X234139625Y-164572111D02*
X233853911Y-164191159D01*
X233853911Y-164857825D02*
X234234863Y-164476873D01*
X233425340Y-164191159D02*
X233425340Y-164857825D01*
X233425340Y-165191159D02*
X233472959Y-165143540D01*
X233425340Y-165095920D01*
X233377720Y-165143540D01*
X233425340Y-165191159D01*
X233425340Y-165095920D01*
X232949149Y-164857825D02*
X232949149Y-164191159D01*
X232949149Y-164762587D02*
X232901530Y-164810206D01*
X232806292Y-164857825D01*
X232663435Y-164857825D01*
X232568197Y-164810206D01*
X232520578Y-164714968D01*
X232520578Y-164191159D01*
X232092006Y-164238778D02*
X231996768Y-164191159D01*
X231806292Y-164191159D01*
X231711054Y-164238778D01*
X231663435Y-164334016D01*
X231663435Y-164381635D01*
X231711054Y-164476873D01*
X231806292Y-164524492D01*
X231949149Y-164524492D01*
X232044387Y-164572111D01*
X232092006Y-164667349D01*
X232092006Y-164714968D01*
X232044387Y-164810206D01*
X231949149Y-164857825D01*
X231806292Y-164857825D01*
X231711054Y-164810206D01*
X231092006Y-164191159D02*
X231187244Y-164238778D01*
X231234863Y-164286397D01*
X231282482Y-164381635D01*
X231282482Y-164667349D01*
X231234863Y-164762587D01*
X231187244Y-164810206D01*
X231092006Y-164857825D01*
X230949149Y-164857825D01*
X230853911Y-164810206D01*
X230806292Y-164762587D01*
X230758673Y-164667349D01*
X230758673Y-164381635D01*
X230806292Y-164286397D01*
X230853911Y-164238778D01*
X230949149Y-164191159D01*
X231092006Y-164191159D01*
X230330101Y-164857825D02*
X230330101Y-164191159D01*
X230330101Y-164762587D02*
X230282482Y-164810206D01*
X230187244Y-164857825D01*
X230044387Y-164857825D01*
X229949149Y-164810206D01*
X229901530Y-164714968D01*
X229901530Y-164191159D01*
X199292644Y-139600480D02*
X199292644Y-138600480D01*
X199625977Y-139314766D01*
X199959311Y-138600480D01*
X199959311Y-139600480D01*
X200578358Y-139600480D02*
X200483120Y-139552861D01*
X200435501Y-139505242D01*
X200387882Y-139410004D01*
X200387882Y-139124290D01*
X200435501Y-139029052D01*
X200483120Y-138981433D01*
X200578358Y-138933814D01*
X200721215Y-138933814D01*
X200816453Y-138981433D01*
X200864072Y-139029052D01*
X200911692Y-139124290D01*
X200911692Y-139410004D01*
X200864072Y-139505242D01*
X200816453Y-139552861D01*
X200721215Y-139600480D01*
X200578358Y-139600480D01*
X201768834Y-139600480D02*
X201768834Y-138600480D01*
X201768834Y-139552861D02*
X201673596Y-139600480D01*
X201483120Y-139600480D01*
X201387882Y-139552861D01*
X201340263Y-139505242D01*
X201292644Y-139410004D01*
X201292644Y-139124290D01*
X201340263Y-139029052D01*
X201387882Y-138981433D01*
X201483120Y-138933814D01*
X201673596Y-138933814D01*
X201768834Y-138981433D01*
X202245025Y-139600480D02*
X202245025Y-138933814D01*
X202245025Y-138600480D02*
X202197406Y-138648100D01*
X202245025Y-138695719D01*
X202292644Y-138648100D01*
X202245025Y-138600480D01*
X202245025Y-138695719D01*
X202578358Y-138933814D02*
X202959311Y-138933814D01*
X202721215Y-139600480D02*
X202721215Y-138743338D01*
X202768834Y-138648100D01*
X202864072Y-138600480D01*
X202959311Y-138600480D01*
X203292644Y-139600480D02*
X203292644Y-138933814D01*
X203292644Y-138600480D02*
X203245025Y-138648100D01*
X203292644Y-138695719D01*
X203340263Y-138648100D01*
X203292644Y-138600480D01*
X203292644Y-138695719D01*
X204149787Y-139552861D02*
X204054549Y-139600480D01*
X203864072Y-139600480D01*
X203768834Y-139552861D01*
X203721215Y-139457623D01*
X203721215Y-139076671D01*
X203768834Y-138981433D01*
X203864072Y-138933814D01*
X204054549Y-138933814D01*
X204149787Y-138981433D01*
X204197406Y-139076671D01*
X204197406Y-139171909D01*
X203721215Y-139267147D01*
X205054549Y-139600480D02*
X205054549Y-138600480D01*
X205054549Y-139552861D02*
X204959311Y-139600480D01*
X204768834Y-139600480D01*
X204673596Y-139552861D01*
X204625977Y-139505242D01*
X204578358Y-139410004D01*
X204578358Y-139124290D01*
X204625977Y-139029052D01*
X204673596Y-138981433D01*
X204768834Y-138933814D01*
X204959311Y-138933814D01*
X205054549Y-138981433D01*
X206245025Y-139314766D02*
X206721215Y-139314766D01*
X206149787Y-139600480D02*
X206483120Y-138600480D01*
X206816453Y-139600480D01*
X207054549Y-138600480D02*
X207292644Y-139600480D01*
X207483120Y-138886195D01*
X207673596Y-139600480D01*
X207911692Y-138600480D01*
X208864072Y-139600480D02*
X208530739Y-139124290D01*
X208292644Y-139600480D02*
X208292644Y-138600480D01*
X208673596Y-138600480D01*
X208768834Y-138648100D01*
X208816453Y-138695719D01*
X208864072Y-138790957D01*
X208864072Y-138933814D01*
X208816453Y-139029052D01*
X208768834Y-139076671D01*
X208673596Y-139124290D01*
X208292644Y-139124290D01*
X209959311Y-138600480D02*
X210197406Y-139600480D01*
X210387882Y-138886195D01*
X210578358Y-139600480D01*
X210816453Y-138600480D01*
X211197406Y-139600480D02*
X211197406Y-138933814D01*
X211197406Y-138600480D02*
X211149787Y-138648100D01*
X211197406Y-138695719D01*
X211245025Y-138648100D01*
X211197406Y-138600480D01*
X211197406Y-138695719D01*
X211816453Y-139600480D02*
X211721215Y-139552861D01*
X211673596Y-139457623D01*
X211673596Y-138600480D01*
X212197406Y-139600480D02*
X212197406Y-138600480D01*
X212292644Y-139219528D02*
X212578358Y-139600480D01*
X212578358Y-138933814D02*
X212197406Y-139314766D01*
X213006930Y-139600480D02*
X213006930Y-138933814D01*
X213006930Y-138600480D02*
X212959311Y-138648100D01*
X213006930Y-138695719D01*
X213054549Y-138648100D01*
X213006930Y-138600480D01*
X213006930Y-138695719D01*
X213483120Y-138933814D02*
X213483120Y-139600480D01*
X213483120Y-139029052D02*
X213530739Y-138981433D01*
X213625977Y-138933814D01*
X213768834Y-138933814D01*
X213864072Y-138981433D01*
X213911692Y-139076671D01*
X213911692Y-139600480D01*
X214340263Y-139552861D02*
X214435501Y-139600480D01*
X214625977Y-139600480D01*
X214721215Y-139552861D01*
X214768834Y-139457623D01*
X214768834Y-139410004D01*
X214721215Y-139314766D01*
X214625977Y-139267147D01*
X214483120Y-139267147D01*
X214387882Y-139219528D01*
X214340263Y-139124290D01*
X214340263Y-139076671D01*
X214387882Y-138981433D01*
X214483120Y-138933814D01*
X214625977Y-138933814D01*
X214721215Y-138981433D01*
X215340263Y-139600480D02*
X215245025Y-139552861D01*
X215197406Y-139505242D01*
X215149787Y-139410004D01*
X215149787Y-139124290D01*
X215197406Y-139029052D01*
X215245025Y-138981433D01*
X215340263Y-138933814D01*
X215483120Y-138933814D01*
X215578358Y-138981433D01*
X215625977Y-139029052D01*
X215673596Y-139124290D01*
X215673596Y-139410004D01*
X215625977Y-139505242D01*
X215578358Y-139552861D01*
X215483120Y-139600480D01*
X215340263Y-139600480D01*
X216102168Y-138933814D02*
X216102168Y-139600480D01*
X216102168Y-139029052D02*
X216149787Y-138981433D01*
X216245025Y-138933814D01*
X216387882Y-138933814D01*
X216483120Y-138981433D01*
X216530739Y-139076671D01*
X216530739Y-139600480D01*
X184527607Y-166059519D02*
X184527607Y-167059519D01*
X184051417Y-166726185D02*
X184051417Y-166059519D01*
X184051417Y-166630947D02*
X184003798Y-166678566D01*
X183908560Y-166726185D01*
X183765702Y-166726185D01*
X183670464Y-166678566D01*
X183622845Y-166583328D01*
X183622845Y-166059519D01*
X183289512Y-166726185D02*
X182908560Y-166726185D01*
X183146655Y-166059519D02*
X183146655Y-166916661D01*
X183099036Y-167011900D01*
X183003798Y-167059519D01*
X182908560Y-167059519D01*
X182575226Y-166059519D02*
X182575226Y-166726185D01*
X182575226Y-167059519D02*
X182622845Y-167011900D01*
X182575226Y-166964280D01*
X182527607Y-167011900D01*
X182575226Y-167059519D01*
X182575226Y-166964280D01*
X182099036Y-166726185D02*
X182099036Y-166059519D01*
X182099036Y-166630947D02*
X182051417Y-166678566D01*
X181956179Y-166726185D01*
X181813321Y-166726185D01*
X181718083Y-166678566D01*
X181670464Y-166583328D01*
X181670464Y-166059519D01*
X180813321Y-166107138D02*
X180908560Y-166059519D01*
X181099036Y-166059519D01*
X181194274Y-166107138D01*
X181241893Y-166202376D01*
X181241893Y-166583328D01*
X181194274Y-166678566D01*
X181099036Y-166726185D01*
X180908560Y-166726185D01*
X180813321Y-166678566D01*
X180765702Y-166583328D01*
X180765702Y-166488090D01*
X181241893Y-166392852D01*
X180194274Y-166059519D02*
X180289512Y-166107138D01*
X180337131Y-166154757D01*
X180384750Y-166249995D01*
X180384750Y-166535709D01*
X180337131Y-166630947D01*
X180289512Y-166678566D01*
X180194274Y-166726185D01*
X180051417Y-166726185D01*
X179956179Y-166678566D01*
X179908560Y-166630947D01*
X179860940Y-166535709D01*
X179860940Y-166249995D01*
X179908560Y-166154757D01*
X179956179Y-166107138D01*
X180051417Y-166059519D01*
X180194274Y-166059519D01*
X179432369Y-166726185D02*
X179432369Y-166059519D01*
X179432369Y-166630947D02*
X179384750Y-166678566D01*
X179289512Y-166726185D01*
X179146655Y-166726185D01*
X179051417Y-166678566D01*
X179003798Y-166583328D01*
X179003798Y-166059519D01*
X177860940Y-167059519D02*
X177622845Y-166059519D01*
X177432369Y-166773804D01*
X177241893Y-166059519D01*
X177003798Y-167059519D01*
X176622845Y-166059519D02*
X176622845Y-166726185D01*
X176622845Y-167059519D02*
X176670464Y-167011900D01*
X176622845Y-166964280D01*
X176575226Y-167011900D01*
X176622845Y-167059519D01*
X176622845Y-166964280D01*
X176003798Y-166059519D02*
X176099036Y-166107138D01*
X176146655Y-166202376D01*
X176146655Y-167059519D01*
X175622845Y-166059519D02*
X175622845Y-167059519D01*
X175527607Y-166440471D02*
X175241893Y-166059519D01*
X175241893Y-166726185D02*
X175622845Y-166345233D01*
X174813321Y-166059519D02*
X174813321Y-166726185D01*
X174813321Y-167059519D02*
X174860940Y-167011900D01*
X174813321Y-166964280D01*
X174765702Y-167011900D01*
X174813321Y-167059519D01*
X174813321Y-166964280D01*
X174337131Y-166726185D02*
X174337131Y-166059519D01*
X174337131Y-166630947D02*
X174289512Y-166678566D01*
X174194274Y-166726185D01*
X174051417Y-166726185D01*
X173956179Y-166678566D01*
X173908560Y-166583328D01*
X173908560Y-166059519D01*
X173479988Y-166107138D02*
X173384750Y-166059519D01*
X173194274Y-166059519D01*
X173099036Y-166107138D01*
X173051417Y-166202376D01*
X173051417Y-166249995D01*
X173099036Y-166345233D01*
X173194274Y-166392852D01*
X173337131Y-166392852D01*
X173432369Y-166440471D01*
X173479988Y-166535709D01*
X173479988Y-166583328D01*
X173432369Y-166678566D01*
X173337131Y-166726185D01*
X173194274Y-166726185D01*
X173099036Y-166678566D01*
X172479988Y-166059519D02*
X172575226Y-166107138D01*
X172622845Y-166154757D01*
X172670464Y-166249995D01*
X172670464Y-166535709D01*
X172622845Y-166630947D01*
X172575226Y-166678566D01*
X172479988Y-166726185D01*
X172337131Y-166726185D01*
X172241893Y-166678566D01*
X172194274Y-166630947D01*
X172146655Y-166535709D01*
X172146655Y-166249995D01*
X172194274Y-166154757D01*
X172241893Y-166107138D01*
X172337131Y-166059519D01*
X172479988Y-166059519D01*
X171718083Y-166726185D02*
X171718083Y-166059519D01*
X171718083Y-166630947D02*
X171670464Y-166678566D01*
X171575226Y-166726185D01*
X171432369Y-166726185D01*
X171337131Y-166678566D01*
X171289512Y-166583328D01*
X171289512Y-166059519D01*
X269744648Y-119620780D02*
X270316076Y-119620780D01*
X270030362Y-120620780D02*
X270030362Y-119620780D01*
X271220838Y-120620780D02*
X270887505Y-120144590D01*
X270649410Y-120620780D02*
X270649410Y-119620780D01*
X271030362Y-119620780D01*
X271125600Y-119668400D01*
X271173219Y-119716019D01*
X271220838Y-119811257D01*
X271220838Y-119954114D01*
X271173219Y-120049352D01*
X271125600Y-120096971D01*
X271030362Y-120144590D01*
X270649410Y-120144590D01*
X272125600Y-120620780D02*
X271649410Y-120620780D01*
X271649410Y-119620780D01*
X273792267Y-120525542D02*
X273744648Y-120573161D01*
X273601790Y-120620780D01*
X273506552Y-120620780D01*
X273363695Y-120573161D01*
X273268457Y-120477923D01*
X273220838Y-120382685D01*
X273173219Y-120192209D01*
X273173219Y-120049352D01*
X273220838Y-119858876D01*
X273268457Y-119763638D01*
X273363695Y-119668400D01*
X273506552Y-119620780D01*
X273601790Y-119620780D01*
X273744648Y-119668400D01*
X273792267Y-119716019D01*
X274173219Y-120335066D02*
X274649410Y-120335066D01*
X274077981Y-120620780D02*
X274411314Y-119620780D01*
X274744648Y-120620780D01*
X275554171Y-120620780D02*
X275077981Y-120620780D01*
X275077981Y-119620780D01*
X277125600Y-120620780D02*
X276649410Y-120620780D01*
X276649410Y-119620780D01*
X277458933Y-120620780D02*
X277458933Y-119620780D01*
X277935124Y-120620780D02*
X277935124Y-119620780D01*
X278506552Y-120620780D01*
X278506552Y-119620780D01*
X278982743Y-120096971D02*
X279316076Y-120096971D01*
X279458933Y-120620780D02*
X278982743Y-120620780D01*
X278982743Y-119620780D01*
X279458933Y-119620780D01*
X280411314Y-120620780D02*
X279839886Y-120620780D01*
X280125600Y-120620780D02*
X280125600Y-119620780D01*
X280030362Y-119763638D01*
X279935124Y-119858876D01*
X279839886Y-119906495D01*
X270411314Y-122270780D02*
X269839886Y-122270780D01*
X270125600Y-122270780D02*
X270125600Y-121270780D01*
X270030362Y-121413638D01*
X269935124Y-121508876D01*
X269839886Y-121556495D01*
X270839886Y-122175542D02*
X270887505Y-122223161D01*
X270839886Y-122270780D01*
X270792267Y-122223161D01*
X270839886Y-122175542D01*
X270839886Y-122270780D01*
X271268457Y-121366019D02*
X271316076Y-121318400D01*
X271411314Y-121270780D01*
X271649410Y-121270780D01*
X271744648Y-121318400D01*
X271792267Y-121366019D01*
X271839886Y-121461257D01*
X271839886Y-121556495D01*
X271792267Y-121699352D01*
X271220838Y-122270780D01*
X271839886Y-122270780D01*
X272744648Y-121270780D02*
X272268457Y-121270780D01*
X272220838Y-121746971D01*
X272268457Y-121699352D01*
X272363695Y-121651733D01*
X272601790Y-121651733D01*
X272697029Y-121699352D01*
X272744648Y-121746971D01*
X272792267Y-121842209D01*
X272792267Y-122080304D01*
X272744648Y-122175542D01*
X272697029Y-122223161D01*
X272601790Y-122270780D01*
X272363695Y-122270780D01*
X272268457Y-122223161D01*
X272220838Y-122175542D01*
X273125600Y-121270780D02*
X273744648Y-121270780D01*
X273411314Y-121651733D01*
X273554171Y-121651733D01*
X273649410Y-121699352D01*
X273697029Y-121746971D01*
X273744648Y-121842209D01*
X273744648Y-122080304D01*
X273697029Y-122175542D01*
X273649410Y-122223161D01*
X273554171Y-122270780D01*
X273268457Y-122270780D01*
X273173219Y-122223161D01*
X273125600Y-122175542D01*
X274935124Y-122270780D02*
X274935124Y-121604114D01*
X274935124Y-121270780D02*
X274887505Y-121318400D01*
X274935124Y-121366019D01*
X274982743Y-121318400D01*
X274935124Y-121270780D01*
X274935124Y-121366019D01*
X275411314Y-121604114D02*
X275411314Y-122270780D01*
X275411314Y-121699352D02*
X275458933Y-121651733D01*
X275554171Y-121604114D01*
X275697029Y-121604114D01*
X275792267Y-121651733D01*
X275839886Y-121746971D01*
X275839886Y-122270780D01*
X270411314Y-123920780D02*
X269839886Y-123920780D01*
X270125600Y-123920780D02*
X270125600Y-122920780D01*
X270030362Y-123063638D01*
X269935124Y-123158876D01*
X269839886Y-123206495D01*
X271268457Y-122920780D02*
X271077981Y-122920780D01*
X270982743Y-122968400D01*
X270935124Y-123016019D01*
X270839886Y-123158876D01*
X270792267Y-123349352D01*
X270792267Y-123730304D01*
X270839886Y-123825542D01*
X270887505Y-123873161D01*
X270982743Y-123920780D01*
X271173219Y-123920780D01*
X271268457Y-123873161D01*
X271316076Y-123825542D01*
X271363695Y-123730304D01*
X271363695Y-123492209D01*
X271316076Y-123396971D01*
X271268457Y-123349352D01*
X271173219Y-123301733D01*
X270982743Y-123301733D01*
X270887505Y-123349352D01*
X270839886Y-123396971D01*
X270792267Y-123492209D01*
X272220838Y-123254114D02*
X272220838Y-123920780D01*
X271982743Y-122873161D02*
X271744648Y-123587447D01*
X272363695Y-123587447D01*
X272744648Y-123825542D02*
X272792267Y-123873161D01*
X272744648Y-123920780D01*
X272697029Y-123873161D01*
X272744648Y-123825542D01*
X272744648Y-123920780D01*
X273125600Y-122920780D02*
X273744648Y-122920780D01*
X273411314Y-123301733D01*
X273554171Y-123301733D01*
X273649410Y-123349352D01*
X273697029Y-123396971D01*
X273744648Y-123492209D01*
X273744648Y-123730304D01*
X273697029Y-123825542D01*
X273649410Y-123873161D01*
X273554171Y-123920780D01*
X273268457Y-123920780D01*
X273173219Y-123873161D01*
X273125600Y-123825542D01*
X274220838Y-123920780D02*
X274411314Y-123920780D01*
X274506552Y-123873161D01*
X274554171Y-123825542D01*
X274649410Y-123682685D01*
X274697029Y-123492209D01*
X274697029Y-123111257D01*
X274649410Y-123016019D01*
X274601790Y-122968400D01*
X274506552Y-122920780D01*
X274316076Y-122920780D01*
X274220838Y-122968400D01*
X274173219Y-123016019D01*
X274125600Y-123111257D01*
X274125600Y-123349352D01*
X274173219Y-123444590D01*
X274220838Y-123492209D01*
X274316076Y-123539828D01*
X274506552Y-123539828D01*
X274601790Y-123492209D01*
X274649410Y-123444590D01*
X274697029Y-123349352D01*
X275887505Y-123254114D02*
X275887505Y-124254114D01*
X275887505Y-123301733D02*
X275982743Y-123254114D01*
X276173219Y-123254114D01*
X276268457Y-123301733D01*
X276316076Y-123349352D01*
X276363695Y-123444590D01*
X276363695Y-123730304D01*
X276316076Y-123825542D01*
X276268457Y-123873161D01*
X276173219Y-123920780D01*
X275982743Y-123920780D01*
X275887505Y-123873161D01*
X276744648Y-123873161D02*
X276839886Y-123920780D01*
X277030362Y-123920780D01*
X277125600Y-123873161D01*
X277173219Y-123777923D01*
X277173219Y-123730304D01*
X277125600Y-123635066D01*
X277030362Y-123587447D01*
X276887505Y-123587447D01*
X276792267Y-123539828D01*
X276744648Y-123444590D01*
X276744648Y-123396971D01*
X276792267Y-123301733D01*
X276887505Y-123254114D01*
X277030362Y-123254114D01*
X277125600Y-123301733D01*
X233119834Y-100912380D02*
X233691262Y-100912380D01*
X233405548Y-101912380D02*
X233405548Y-100912380D01*
X234596024Y-101912380D02*
X234262691Y-101436190D01*
X234024596Y-101912380D02*
X234024596Y-100912380D01*
X234405548Y-100912380D01*
X234500786Y-100960000D01*
X234548405Y-101007619D01*
X234596024Y-101102857D01*
X234596024Y-101245714D01*
X234548405Y-101340952D01*
X234500786Y-101388571D01*
X234405548Y-101436190D01*
X234024596Y-101436190D01*
X235500786Y-101912380D02*
X235024596Y-101912380D01*
X235024596Y-100912380D01*
X237167453Y-101817142D02*
X237119834Y-101864761D01*
X236976976Y-101912380D01*
X236881738Y-101912380D01*
X236738881Y-101864761D01*
X236643643Y-101769523D01*
X236596024Y-101674285D01*
X236548405Y-101483809D01*
X236548405Y-101340952D01*
X236596024Y-101150476D01*
X236643643Y-101055238D01*
X236738881Y-100960000D01*
X236881738Y-100912380D01*
X236976976Y-100912380D01*
X237119834Y-100960000D01*
X237167453Y-101007619D01*
X237548405Y-101626666D02*
X238024596Y-101626666D01*
X237453167Y-101912380D02*
X237786500Y-100912380D01*
X238119834Y-101912380D01*
X238929357Y-101912380D02*
X238453167Y-101912380D01*
X238453167Y-100912380D01*
X239881738Y-100912380D02*
X240453167Y-100912380D01*
X240167453Y-101912380D02*
X240167453Y-100912380D01*
X240786500Y-101912380D02*
X240786500Y-100912380D01*
X240786500Y-101388571D02*
X241357929Y-101388571D01*
X241357929Y-101912380D02*
X241357929Y-100912380D01*
X242405548Y-101912380D02*
X242072215Y-101436190D01*
X241834119Y-101912380D02*
X241834119Y-100912380D01*
X242215072Y-100912380D01*
X242310310Y-100960000D01*
X242357929Y-101007619D01*
X242405548Y-101102857D01*
X242405548Y-101245714D01*
X242357929Y-101340952D01*
X242310310Y-101388571D01*
X242215072Y-101436190D01*
X241834119Y-101436190D01*
X242834119Y-100912380D02*
X242834119Y-101721904D01*
X242881738Y-101817142D01*
X242929357Y-101864761D01*
X243024596Y-101912380D01*
X243215072Y-101912380D01*
X243310310Y-101864761D01*
X243357929Y-101817142D01*
X243405548Y-101721904D01*
X243405548Y-100912380D01*
X233786500Y-103562380D02*
X233215072Y-103562380D01*
X233500786Y-103562380D02*
X233500786Y-102562380D01*
X233405548Y-102705238D01*
X233310310Y-102800476D01*
X233215072Y-102848095D01*
X234215072Y-103467142D02*
X234262691Y-103514761D01*
X234215072Y-103562380D01*
X234167453Y-103514761D01*
X234215072Y-103467142D01*
X234215072Y-103562380D01*
X235215072Y-103562380D02*
X234643643Y-103562380D01*
X234929357Y-103562380D02*
X234929357Y-102562380D01*
X234834119Y-102705238D01*
X234738881Y-102800476D01*
X234643643Y-102848095D01*
X235548405Y-102562380D02*
X236215072Y-102562380D01*
X235786500Y-103562380D01*
X236643643Y-103562380D02*
X236834119Y-103562380D01*
X236929357Y-103514761D01*
X236976976Y-103467142D01*
X237072215Y-103324285D01*
X237119834Y-103133809D01*
X237119834Y-102752857D01*
X237072215Y-102657619D01*
X237024596Y-102610000D01*
X236929357Y-102562380D01*
X236738881Y-102562380D01*
X236643643Y-102610000D01*
X236596024Y-102657619D01*
X236548405Y-102752857D01*
X236548405Y-102990952D01*
X236596024Y-103086190D01*
X236643643Y-103133809D01*
X236738881Y-103181428D01*
X236929357Y-103181428D01*
X237024596Y-103133809D01*
X237072215Y-103086190D01*
X237119834Y-102990952D01*
X237976976Y-102895714D02*
X237976976Y-103562380D01*
X237738881Y-102514761D02*
X237500786Y-103229047D01*
X238119834Y-103229047D01*
X239262691Y-103562380D02*
X239262691Y-102895714D01*
X239262691Y-102562380D02*
X239215072Y-102610000D01*
X239262691Y-102657619D01*
X239310310Y-102610000D01*
X239262691Y-102562380D01*
X239262691Y-102657619D01*
X239738881Y-102895714D02*
X239738881Y-103562380D01*
X239738881Y-102990952D02*
X239786500Y-102943333D01*
X239881738Y-102895714D01*
X240024596Y-102895714D01*
X240119834Y-102943333D01*
X240167453Y-103038571D01*
X240167453Y-103562380D01*
X233786500Y-105212380D02*
X233215072Y-105212380D01*
X233500786Y-105212380D02*
X233500786Y-104212380D01*
X233405548Y-104355238D01*
X233310310Y-104450476D01*
X233215072Y-104498095D01*
X234691262Y-104212380D02*
X234215072Y-104212380D01*
X234167453Y-104688571D01*
X234215072Y-104640952D01*
X234310310Y-104593333D01*
X234548405Y-104593333D01*
X234643643Y-104640952D01*
X234691262Y-104688571D01*
X234738881Y-104783809D01*
X234738881Y-105021904D01*
X234691262Y-105117142D01*
X234643643Y-105164761D01*
X234548405Y-105212380D01*
X234310310Y-105212380D01*
X234215072Y-105164761D01*
X234167453Y-105117142D01*
X235596024Y-104545714D02*
X235596024Y-105212380D01*
X235357929Y-104164761D02*
X235119834Y-104879047D01*
X235738881Y-104879047D01*
X236119834Y-105117142D02*
X236167453Y-105164761D01*
X236119834Y-105212380D01*
X236072215Y-105164761D01*
X236119834Y-105117142D01*
X236119834Y-105212380D01*
X236500786Y-104212380D02*
X237167453Y-104212380D01*
X236738881Y-105212380D01*
X237976976Y-104545714D02*
X237976976Y-105212380D01*
X237738881Y-104164761D02*
X237500786Y-104879047D01*
X238119834Y-104879047D01*
X239262691Y-104545714D02*
X239262691Y-105545714D01*
X239262691Y-104593333D02*
X239357929Y-104545714D01*
X239548405Y-104545714D01*
X239643643Y-104593333D01*
X239691262Y-104640952D01*
X239738881Y-104736190D01*
X239738881Y-105021904D01*
X239691262Y-105117142D01*
X239643643Y-105164761D01*
X239548405Y-105212380D01*
X239357929Y-105212380D01*
X239262691Y-105164761D01*
X240119834Y-105164761D02*
X240215072Y-105212380D01*
X240405548Y-105212380D01*
X240500786Y-105164761D01*
X240548405Y-105069523D01*
X240548405Y-105021904D01*
X240500786Y-104926666D01*
X240405548Y-104879047D01*
X240262691Y-104879047D01*
X240167453Y-104831428D01*
X240119834Y-104736190D01*
X240119834Y-104688571D01*
X240167453Y-104593333D01*
X240262691Y-104545714D01*
X240405548Y-104545714D01*
X240500786Y-104593333D01*
X235446786Y-82402380D02*
X236018214Y-82402380D01*
X235732500Y-83402380D02*
X235732500Y-82402380D01*
X236922976Y-83402380D02*
X236589643Y-82926190D01*
X236351548Y-83402380D02*
X236351548Y-82402380D01*
X236732500Y-82402380D01*
X236827738Y-82450000D01*
X236875357Y-82497619D01*
X236922976Y-82592857D01*
X236922976Y-82735714D01*
X236875357Y-82830952D01*
X236827738Y-82878571D01*
X236732500Y-82926190D01*
X236351548Y-82926190D01*
X237827738Y-83402380D02*
X237351548Y-83402380D01*
X237351548Y-82402380D01*
X239494405Y-83307142D02*
X239446786Y-83354761D01*
X239303928Y-83402380D01*
X239208690Y-83402380D01*
X239065833Y-83354761D01*
X238970595Y-83259523D01*
X238922976Y-83164285D01*
X238875357Y-82973809D01*
X238875357Y-82830952D01*
X238922976Y-82640476D01*
X238970595Y-82545238D01*
X239065833Y-82450000D01*
X239208690Y-82402380D01*
X239303928Y-82402380D01*
X239446786Y-82450000D01*
X239494405Y-82497619D01*
X239875357Y-83116666D02*
X240351548Y-83116666D01*
X239780119Y-83402380D02*
X240113452Y-82402380D01*
X240446786Y-83402380D01*
X241256309Y-83402380D02*
X240780119Y-83402380D01*
X240780119Y-82402380D01*
X242542024Y-82402380D02*
X242732500Y-82402380D01*
X242827738Y-82450000D01*
X242922976Y-82545238D01*
X242970595Y-82735714D01*
X242970595Y-83069047D01*
X242922976Y-83259523D01*
X242827738Y-83354761D01*
X242732500Y-83402380D01*
X242542024Y-83402380D01*
X242446786Y-83354761D01*
X242351548Y-83259523D01*
X242303928Y-83069047D01*
X242303928Y-82735714D01*
X242351548Y-82545238D01*
X242446786Y-82450000D01*
X242542024Y-82402380D01*
X243399167Y-83402380D02*
X243399167Y-82402380D01*
X243780119Y-82402380D01*
X243875357Y-82450000D01*
X243922976Y-82497619D01*
X243970595Y-82592857D01*
X243970595Y-82735714D01*
X243922976Y-82830952D01*
X243875357Y-82878571D01*
X243780119Y-82926190D01*
X243399167Y-82926190D01*
X244399167Y-82878571D02*
X244732500Y-82878571D01*
X244875357Y-83402380D02*
X244399167Y-83402380D01*
X244399167Y-82402380D01*
X244875357Y-82402380D01*
X245303928Y-83402380D02*
X245303928Y-82402380D01*
X245875357Y-83402380D01*
X245875357Y-82402380D01*
X235780119Y-84052380D02*
X235875357Y-84052380D01*
X235970595Y-84100000D01*
X236018214Y-84147619D01*
X236065833Y-84242857D01*
X236113452Y-84433333D01*
X236113452Y-84671428D01*
X236065833Y-84861904D01*
X236018214Y-84957142D01*
X235970595Y-85004761D01*
X235875357Y-85052380D01*
X235780119Y-85052380D01*
X235684881Y-85004761D01*
X235637262Y-84957142D01*
X235589643Y-84861904D01*
X235542024Y-84671428D01*
X235542024Y-84433333D01*
X235589643Y-84242857D01*
X235637262Y-84147619D01*
X235684881Y-84100000D01*
X235780119Y-84052380D01*
X236542024Y-84957142D02*
X236589643Y-85004761D01*
X236542024Y-85052380D01*
X236494405Y-85004761D01*
X236542024Y-84957142D01*
X236542024Y-85052380D01*
X237494405Y-84052380D02*
X237018214Y-84052380D01*
X236970595Y-84528571D01*
X237018214Y-84480952D01*
X237113452Y-84433333D01*
X237351548Y-84433333D01*
X237446786Y-84480952D01*
X237494405Y-84528571D01*
X237542024Y-84623809D01*
X237542024Y-84861904D01*
X237494405Y-84957142D01*
X237446786Y-85004761D01*
X237351548Y-85052380D01*
X237113452Y-85052380D01*
X237018214Y-85004761D01*
X236970595Y-84957142D01*
X238113452Y-84480952D02*
X238018214Y-84433333D01*
X237970595Y-84385714D01*
X237922976Y-84290476D01*
X237922976Y-84242857D01*
X237970595Y-84147619D01*
X238018214Y-84100000D01*
X238113452Y-84052380D01*
X238303928Y-84052380D01*
X238399167Y-84100000D01*
X238446786Y-84147619D01*
X238494405Y-84242857D01*
X238494405Y-84290476D01*
X238446786Y-84385714D01*
X238399167Y-84433333D01*
X238303928Y-84480952D01*
X238113452Y-84480952D01*
X238018214Y-84528571D01*
X237970595Y-84576190D01*
X237922976Y-84671428D01*
X237922976Y-84861904D01*
X237970595Y-84957142D01*
X238018214Y-85004761D01*
X238113452Y-85052380D01*
X238303928Y-85052380D01*
X238399167Y-85004761D01*
X238446786Y-84957142D01*
X238494405Y-84861904D01*
X238494405Y-84671428D01*
X238446786Y-84576190D01*
X238399167Y-84528571D01*
X238303928Y-84480952D01*
X238970595Y-85052380D02*
X239161071Y-85052380D01*
X239256309Y-85004761D01*
X239303928Y-84957142D01*
X239399167Y-84814285D01*
X239446786Y-84623809D01*
X239446786Y-84242857D01*
X239399167Y-84147619D01*
X239351548Y-84100000D01*
X239256309Y-84052380D01*
X239065833Y-84052380D01*
X238970595Y-84100000D01*
X238922976Y-84147619D01*
X238875357Y-84242857D01*
X238875357Y-84480952D01*
X238922976Y-84576190D01*
X238970595Y-84623809D01*
X239065833Y-84671428D01*
X239256309Y-84671428D01*
X239351548Y-84623809D01*
X239399167Y-84576190D01*
X239446786Y-84480952D01*
X239780119Y-84052380D02*
X240446786Y-84052380D01*
X240018214Y-85052380D01*
X241589643Y-85052380D02*
X241589643Y-84385714D01*
X241589643Y-84052380D02*
X241542024Y-84100000D01*
X241589643Y-84147619D01*
X241637262Y-84100000D01*
X241589643Y-84052380D01*
X241589643Y-84147619D01*
X242065833Y-84385714D02*
X242065833Y-85052380D01*
X242065833Y-84480952D02*
X242113452Y-84433333D01*
X242208690Y-84385714D01*
X242351548Y-84385714D01*
X242446786Y-84433333D01*
X242494405Y-84528571D01*
X242494405Y-85052380D01*
X235494405Y-85702380D02*
X236161071Y-85702380D01*
X235732500Y-86702380D01*
X236446786Y-85702380D02*
X237113452Y-85702380D01*
X236684881Y-86702380D01*
X237494405Y-86607142D02*
X237542024Y-86654761D01*
X237494405Y-86702380D01*
X237446786Y-86654761D01*
X237494405Y-86607142D01*
X237494405Y-86702380D01*
X237875357Y-85702380D02*
X238494405Y-85702380D01*
X238161071Y-86083333D01*
X238303928Y-86083333D01*
X238399167Y-86130952D01*
X238446786Y-86178571D01*
X238494405Y-86273809D01*
X238494405Y-86511904D01*
X238446786Y-86607142D01*
X238399167Y-86654761D01*
X238303928Y-86702380D01*
X238018214Y-86702380D01*
X237922976Y-86654761D01*
X237875357Y-86607142D01*
X238970595Y-86702380D02*
X239161071Y-86702380D01*
X239256309Y-86654761D01*
X239303928Y-86607142D01*
X239399167Y-86464285D01*
X239446786Y-86273809D01*
X239446786Y-85892857D01*
X239399167Y-85797619D01*
X239351548Y-85750000D01*
X239256309Y-85702380D01*
X239065833Y-85702380D01*
X238970595Y-85750000D01*
X238922976Y-85797619D01*
X238875357Y-85892857D01*
X238875357Y-86130952D01*
X238922976Y-86226190D01*
X238970595Y-86273809D01*
X239065833Y-86321428D01*
X239256309Y-86321428D01*
X239351548Y-86273809D01*
X239399167Y-86226190D01*
X239446786Y-86130952D01*
X240637262Y-86035714D02*
X240637262Y-87035714D01*
X240637262Y-86083333D02*
X240732500Y-86035714D01*
X240922976Y-86035714D01*
X241018214Y-86083333D01*
X241065833Y-86130952D01*
X241113452Y-86226190D01*
X241113452Y-86511904D01*
X241065833Y-86607142D01*
X241018214Y-86654761D01*
X240922976Y-86702380D01*
X240732500Y-86702380D01*
X240637262Y-86654761D01*
X241494405Y-86654761D02*
X241589643Y-86702380D01*
X241780119Y-86702380D01*
X241875357Y-86654761D01*
X241922976Y-86559523D01*
X241922976Y-86511904D01*
X241875357Y-86416666D01*
X241780119Y-86369047D01*
X241637262Y-86369047D01*
X241542024Y-86321428D01*
X241494405Y-86226190D01*
X241494405Y-86178571D01*
X241542024Y-86083333D01*
X241637262Y-86035714D01*
X241780119Y-86035714D01*
X241875357Y-86083333D01*
X209062218Y-84213009D02*
X209205075Y-84260628D01*
X209443171Y-84260628D01*
X209538409Y-84213009D01*
X209586028Y-84165390D01*
X209633647Y-84070152D01*
X209633647Y-83974914D01*
X209586028Y-83879676D01*
X209538409Y-83832057D01*
X209443171Y-83784438D01*
X209252694Y-83736819D01*
X209157456Y-83689200D01*
X209109837Y-83641581D01*
X209062218Y-83546343D01*
X209062218Y-83451105D01*
X209109837Y-83355867D01*
X209157456Y-83308248D01*
X209252694Y-83260628D01*
X209490790Y-83260628D01*
X209633647Y-83308248D01*
X210062218Y-84260628D02*
X210062218Y-83260628D01*
X210395552Y-83974914D01*
X210728885Y-83260628D01*
X210728885Y-84260628D01*
X211157456Y-83974914D02*
X211633647Y-83974914D01*
X211062218Y-84260628D02*
X211395552Y-83260628D01*
X211728885Y-84260628D01*
X212681266Y-83593962D02*
X213062218Y-83593962D01*
X212824123Y-83260628D02*
X212824123Y-84117771D01*
X212871742Y-84213009D01*
X212966980Y-84260628D01*
X213062218Y-84260628D01*
X213538409Y-84260628D02*
X213443171Y-84213009D01*
X213395552Y-84165390D01*
X213347932Y-84070152D01*
X213347932Y-83784438D01*
X213395552Y-83689200D01*
X213443171Y-83641581D01*
X213538409Y-83593962D01*
X213681266Y-83593962D01*
X213776504Y-83641581D01*
X213824123Y-83689200D01*
X213871742Y-83784438D01*
X213871742Y-84070152D01*
X213824123Y-84165390D01*
X213776504Y-84213009D01*
X213681266Y-84260628D01*
X213538409Y-84260628D01*
X215014599Y-84213009D02*
X215157456Y-84260628D01*
X215395552Y-84260628D01*
X215490790Y-84213009D01*
X215538409Y-84165390D01*
X215586028Y-84070152D01*
X215586028Y-83974914D01*
X215538409Y-83879676D01*
X215490790Y-83832057D01*
X215395552Y-83784438D01*
X215205075Y-83736819D01*
X215109837Y-83689200D01*
X215062218Y-83641581D01*
X215014599Y-83546343D01*
X215014599Y-83451105D01*
X215062218Y-83355867D01*
X215109837Y-83308248D01*
X215205075Y-83260628D01*
X215443171Y-83260628D01*
X215586028Y-83308248D01*
X216014599Y-84260628D02*
X216014599Y-83260628D01*
X216347932Y-83974914D01*
X216681266Y-83260628D01*
X216681266Y-84260628D01*
X217157456Y-84260628D02*
X217157456Y-83260628D01*
X217538409Y-83260628D01*
X217633647Y-83308248D01*
X217681266Y-83355867D01*
X217728885Y-83451105D01*
X217728885Y-83593962D01*
X217681266Y-83689200D01*
X217633647Y-83736819D01*
X217538409Y-83784438D01*
X217157456Y-83784438D01*
X181526980Y-84213009D02*
X181669837Y-84260628D01*
X181907932Y-84260628D01*
X182003171Y-84213009D01*
X182050790Y-84165390D01*
X182098409Y-84070152D01*
X182098409Y-83974914D01*
X182050790Y-83879676D01*
X182003171Y-83832057D01*
X181907932Y-83784438D01*
X181717456Y-83736819D01*
X181622218Y-83689200D01*
X181574599Y-83641581D01*
X181526980Y-83546343D01*
X181526980Y-83451105D01*
X181574599Y-83355867D01*
X181622218Y-83308248D01*
X181717456Y-83260628D01*
X181955552Y-83260628D01*
X182098409Y-83308248D01*
X182526980Y-84260628D02*
X182526980Y-83260628D01*
X182860313Y-83974914D01*
X183193647Y-83260628D01*
X183193647Y-84260628D01*
X183669837Y-84260628D02*
X183669837Y-83260628D01*
X184050790Y-83260628D01*
X184146028Y-83308248D01*
X184193647Y-83355867D01*
X184241266Y-83451105D01*
X184241266Y-83593962D01*
X184193647Y-83689200D01*
X184146028Y-83736819D01*
X184050790Y-83784438D01*
X183669837Y-83784438D01*
X185765075Y-83736819D02*
X185907932Y-83784438D01*
X185955552Y-83832057D01*
X186003171Y-83927295D01*
X186003171Y-84070152D01*
X185955552Y-84165390D01*
X185907932Y-84213009D01*
X185812694Y-84260628D01*
X185431742Y-84260628D01*
X185431742Y-83260628D01*
X185765075Y-83260628D01*
X185860313Y-83308248D01*
X185907932Y-83355867D01*
X185955552Y-83451105D01*
X185955552Y-83546343D01*
X185907932Y-83641581D01*
X185860313Y-83689200D01*
X185765075Y-83736819D01*
X185431742Y-83736819D01*
X186860313Y-83593962D02*
X186860313Y-84260628D01*
X186431742Y-83593962D02*
X186431742Y-84117771D01*
X186479361Y-84213009D01*
X186574599Y-84260628D01*
X186717456Y-84260628D01*
X186812694Y-84213009D01*
X186860313Y-84165390D01*
X187479361Y-84260628D02*
X187384123Y-84213009D01*
X187336504Y-84117771D01*
X187336504Y-83260628D01*
X188003171Y-84260628D02*
X187907932Y-84213009D01*
X187860313Y-84117771D01*
X187860313Y-83260628D01*
X188765075Y-84213009D02*
X188669837Y-84260628D01*
X188479361Y-84260628D01*
X188384123Y-84213009D01*
X188336504Y-84117771D01*
X188336504Y-83736819D01*
X188384123Y-83641581D01*
X188479361Y-83593962D01*
X188669837Y-83593962D01*
X188765075Y-83641581D01*
X188812694Y-83736819D01*
X188812694Y-83832057D01*
X188336504Y-83927295D01*
X189098409Y-83593962D02*
X189479361Y-83593962D01*
X189241266Y-83260628D02*
X189241266Y-84117771D01*
X189288885Y-84213009D01*
X189384123Y-84260628D01*
X189479361Y-84260628D01*
M02*
