G04 #@! TF.GenerationSoftware,KiCad,Pcbnew,(5.1.5)-3*
G04 #@! TF.CreationDate,2020-01-05T10:53:17-07:00*
G04 #@! TF.ProjectId,spi_control,7370695f-636f-46e7-9472-6f6c2e6b6963,A*
G04 #@! TF.SameCoordinates,Original*
G04 #@! TF.FileFunction,Soldermask,Top*
G04 #@! TF.FilePolarity,Negative*
%FSLAX46Y46*%
G04 Gerber Fmt 4.6, Leading zero omitted, Abs format (unit mm)*
G04 Created by KiCad (PCBNEW (5.1.5)-3) date 2020-01-05 10:53:17*
%MOMM*%
%LPD*%
G04 APERTURE LIST*
%ADD10C,0.101600*%
%ADD11C,0.127000*%
%ADD12C,0.100000*%
G04 APERTURE END LIST*
D10*
G36*
X129646927Y-93647110D02*
G01*
X129652066Y-93649060D01*
X129659261Y-93652054D01*
X129668013Y-93655881D01*
X129677823Y-93660330D01*
X129682096Y-93662315D01*
X129781134Y-93706920D01*
X129881283Y-93748628D01*
X129982615Y-93787458D01*
X130085204Y-93823427D01*
X130189123Y-93856551D01*
X130294443Y-93886847D01*
X130401237Y-93914333D01*
X130509578Y-93939026D01*
X130619538Y-93960942D01*
X130731191Y-93980100D01*
X130844609Y-93996515D01*
X130959863Y-94010206D01*
X131077028Y-94021189D01*
X131196175Y-94029482D01*
X131252806Y-94032451D01*
X131304698Y-94034553D01*
X131359285Y-94036121D01*
X131415917Y-94037157D01*
X131473946Y-94037663D01*
X131532722Y-94037638D01*
X131591595Y-94037085D01*
X131649916Y-94036004D01*
X131707036Y-94034397D01*
X131762306Y-94032264D01*
X131776893Y-94031595D01*
X131892404Y-94024783D01*
X132005826Y-94015401D01*
X132117315Y-94003410D01*
X132227030Y-93988773D01*
X132335129Y-93971452D01*
X132441769Y-93951409D01*
X132547108Y-93928607D01*
X132651304Y-93903009D01*
X132754515Y-93874575D01*
X132856898Y-93843270D01*
X132958612Y-93809055D01*
X133059814Y-93771892D01*
X133160662Y-93731744D01*
X133261314Y-93688574D01*
X133314079Y-93664710D01*
X133326790Y-93658903D01*
X133336817Y-93654435D01*
X133344525Y-93651166D01*
X133350276Y-93648956D01*
X133354434Y-93647666D01*
X133357362Y-93647155D01*
X133359374Y-93647273D01*
X133364998Y-93649953D01*
X133368398Y-93654501D01*
X133369381Y-93660073D01*
X133367752Y-93665824D01*
X133364575Y-93669863D01*
X133361886Y-93671805D01*
X133356572Y-93675185D01*
X133348973Y-93679810D01*
X133339427Y-93685482D01*
X133328277Y-93692006D01*
X133315861Y-93699188D01*
X133302521Y-93706830D01*
X133288596Y-93714738D01*
X133274426Y-93722716D01*
X133260352Y-93730569D01*
X133246713Y-93738100D01*
X133233850Y-93745114D01*
X133231466Y-93746403D01*
X133132665Y-93797798D01*
X133032578Y-93846083D01*
X132931272Y-93891238D01*
X132828812Y-93933244D01*
X132725265Y-93972084D01*
X132620698Y-94007738D01*
X132515176Y-94040187D01*
X132408766Y-94069413D01*
X132301534Y-94095397D01*
X132193548Y-94118120D01*
X132084872Y-94137564D01*
X131975574Y-94153709D01*
X131865719Y-94166538D01*
X131755375Y-94176031D01*
X131695613Y-94179764D01*
X131664296Y-94181261D01*
X131630691Y-94182502D01*
X131595478Y-94183479D01*
X131559335Y-94184185D01*
X131522943Y-94184613D01*
X131486980Y-94184756D01*
X131452126Y-94184607D01*
X131419059Y-94184158D01*
X131388460Y-94183403D01*
X131378960Y-94183083D01*
X131267081Y-94177389D01*
X131156091Y-94168433D01*
X131045934Y-94156204D01*
X130936556Y-94140693D01*
X130827901Y-94121890D01*
X130719915Y-94099785D01*
X130612543Y-94074367D01*
X130505730Y-94045628D01*
X130399422Y-94013558D01*
X130353646Y-93998673D01*
X130249889Y-93962421D01*
X130147020Y-93922920D01*
X130045149Y-93880219D01*
X129944382Y-93834366D01*
X129844828Y-93785406D01*
X129746595Y-93733389D01*
X129734733Y-93726850D01*
X129720154Y-93718728D01*
X129705745Y-93710605D01*
X129691832Y-93702671D01*
X129678743Y-93695121D01*
X129666807Y-93688145D01*
X129656351Y-93681936D01*
X129647701Y-93676686D01*
X129641187Y-93672587D01*
X129637135Y-93669833D01*
X129636096Y-93668981D01*
X129632850Y-93663631D01*
X129632576Y-93657627D01*
X129635256Y-93651904D01*
X129636443Y-93650569D01*
X129640353Y-93647700D01*
X129644159Y-93646418D01*
X129644342Y-93646413D01*
X129646927Y-93647110D01*
G37*
X129646927Y-93647110D02*
X129652066Y-93649060D01*
X129659261Y-93652054D01*
X129668013Y-93655881D01*
X129677823Y-93660330D01*
X129682096Y-93662315D01*
X129781134Y-93706920D01*
X129881283Y-93748628D01*
X129982615Y-93787458D01*
X130085204Y-93823427D01*
X130189123Y-93856551D01*
X130294443Y-93886847D01*
X130401237Y-93914333D01*
X130509578Y-93939026D01*
X130619538Y-93960942D01*
X130731191Y-93980100D01*
X130844609Y-93996515D01*
X130959863Y-94010206D01*
X131077028Y-94021189D01*
X131196175Y-94029482D01*
X131252806Y-94032451D01*
X131304698Y-94034553D01*
X131359285Y-94036121D01*
X131415917Y-94037157D01*
X131473946Y-94037663D01*
X131532722Y-94037638D01*
X131591595Y-94037085D01*
X131649916Y-94036004D01*
X131707036Y-94034397D01*
X131762306Y-94032264D01*
X131776893Y-94031595D01*
X131892404Y-94024783D01*
X132005826Y-94015401D01*
X132117315Y-94003410D01*
X132227030Y-93988773D01*
X132335129Y-93971452D01*
X132441769Y-93951409D01*
X132547108Y-93928607D01*
X132651304Y-93903009D01*
X132754515Y-93874575D01*
X132856898Y-93843270D01*
X132958612Y-93809055D01*
X133059814Y-93771892D01*
X133160662Y-93731744D01*
X133261314Y-93688574D01*
X133314079Y-93664710D01*
X133326790Y-93658903D01*
X133336817Y-93654435D01*
X133344525Y-93651166D01*
X133350276Y-93648956D01*
X133354434Y-93647666D01*
X133357362Y-93647155D01*
X133359374Y-93647273D01*
X133364998Y-93649953D01*
X133368398Y-93654501D01*
X133369381Y-93660073D01*
X133367752Y-93665824D01*
X133364575Y-93669863D01*
X133361886Y-93671805D01*
X133356572Y-93675185D01*
X133348973Y-93679810D01*
X133339427Y-93685482D01*
X133328277Y-93692006D01*
X133315861Y-93699188D01*
X133302521Y-93706830D01*
X133288596Y-93714738D01*
X133274426Y-93722716D01*
X133260352Y-93730569D01*
X133246713Y-93738100D01*
X133233850Y-93745114D01*
X133231466Y-93746403D01*
X133132665Y-93797798D01*
X133032578Y-93846083D01*
X132931272Y-93891238D01*
X132828812Y-93933244D01*
X132725265Y-93972084D01*
X132620698Y-94007738D01*
X132515176Y-94040187D01*
X132408766Y-94069413D01*
X132301534Y-94095397D01*
X132193548Y-94118120D01*
X132084872Y-94137564D01*
X131975574Y-94153709D01*
X131865719Y-94166538D01*
X131755375Y-94176031D01*
X131695613Y-94179764D01*
X131664296Y-94181261D01*
X131630691Y-94182502D01*
X131595478Y-94183479D01*
X131559335Y-94184185D01*
X131522943Y-94184613D01*
X131486980Y-94184756D01*
X131452126Y-94184607D01*
X131419059Y-94184158D01*
X131388460Y-94183403D01*
X131378960Y-94183083D01*
X131267081Y-94177389D01*
X131156091Y-94168433D01*
X131045934Y-94156204D01*
X130936556Y-94140693D01*
X130827901Y-94121890D01*
X130719915Y-94099785D01*
X130612543Y-94074367D01*
X130505730Y-94045628D01*
X130399422Y-94013558D01*
X130353646Y-93998673D01*
X130249889Y-93962421D01*
X130147020Y-93922920D01*
X130045149Y-93880219D01*
X129944382Y-93834366D01*
X129844828Y-93785406D01*
X129746595Y-93733389D01*
X129734733Y-93726850D01*
X129720154Y-93718728D01*
X129705745Y-93710605D01*
X129691832Y-93702671D01*
X129678743Y-93695121D01*
X129666807Y-93688145D01*
X129656351Y-93681936D01*
X129647701Y-93676686D01*
X129641187Y-93672587D01*
X129637135Y-93669833D01*
X129636096Y-93668981D01*
X129632850Y-93663631D01*
X129632576Y-93657627D01*
X129635256Y-93651904D01*
X129636443Y-93650569D01*
X129640353Y-93647700D01*
X129644159Y-93646418D01*
X129644342Y-93646413D01*
X129646927Y-93647110D01*
G36*
X130131186Y-93134013D02*
G01*
X130136059Y-93135910D01*
X130142994Y-93138814D01*
X130151488Y-93142512D01*
X130161036Y-93146791D01*
X130163459Y-93147895D01*
X130248873Y-93185319D01*
X130334937Y-93219790D01*
X130421842Y-93251361D01*
X130509776Y-93280084D01*
X130598929Y-93306013D01*
X130689490Y-93329199D01*
X130781650Y-93349697D01*
X130875596Y-93367559D01*
X130971519Y-93382838D01*
X131035213Y-93391434D01*
X131114811Y-93400394D01*
X131196811Y-93407613D01*
X131280707Y-93413084D01*
X131365993Y-93416803D01*
X131452163Y-93418765D01*
X131538710Y-93418962D01*
X131625130Y-93417390D01*
X131710915Y-93414044D01*
X131795560Y-93408918D01*
X131878559Y-93402006D01*
X131891193Y-93400779D01*
X131990308Y-93389425D01*
X132087858Y-93375121D01*
X132184015Y-93357818D01*
X132278957Y-93337470D01*
X132372858Y-93314031D01*
X132465894Y-93287453D01*
X132558239Y-93257690D01*
X132650070Y-93224695D01*
X132741561Y-93188420D01*
X132830501Y-93149898D01*
X132843418Y-93144127D01*
X132853634Y-93139741D01*
X132861501Y-93136665D01*
X132867374Y-93134823D01*
X132871606Y-93134138D01*
X132874549Y-93134533D01*
X132876558Y-93135934D01*
X132877986Y-93138262D01*
X132878511Y-93139535D01*
X132879259Y-93141724D01*
X132879558Y-93143714D01*
X132879165Y-93145683D01*
X132877839Y-93147808D01*
X132875336Y-93150268D01*
X132871415Y-93153239D01*
X132865834Y-93156900D01*
X132858350Y-93161426D01*
X132848721Y-93166997D01*
X132836705Y-93173789D01*
X132822060Y-93181980D01*
X132815881Y-93185426D01*
X132734213Y-93229058D01*
X132650617Y-93269988D01*
X132565307Y-93308141D01*
X132478495Y-93343439D01*
X132390395Y-93375805D01*
X132301219Y-93405162D01*
X132211181Y-93431434D01*
X132120495Y-93454543D01*
X132029372Y-93474412D01*
X131998720Y-93480343D01*
X131923224Y-93493412D01*
X131847883Y-93504335D01*
X131773162Y-93513063D01*
X131699528Y-93519547D01*
X131627449Y-93523738D01*
X131569460Y-93525435D01*
X131555862Y-93525655D01*
X131542936Y-93525881D01*
X131531184Y-93526102D01*
X131521110Y-93526309D01*
X131513217Y-93526492D01*
X131508010Y-93526640D01*
X131506806Y-93526687D01*
X131502883Y-93526756D01*
X131496051Y-93526758D01*
X131486787Y-93526697D01*
X131475568Y-93526577D01*
X131462871Y-93526405D01*
X131449174Y-93526184D01*
X131439920Y-93526015D01*
X131351980Y-93522816D01*
X131263539Y-93516536D01*
X131174305Y-93507153D01*
X131119033Y-93499849D01*
X131024231Y-93484663D01*
X130930273Y-93466199D01*
X130837196Y-93444470D01*
X130745040Y-93419487D01*
X130653841Y-93391263D01*
X130563640Y-93359810D01*
X130474474Y-93325139D01*
X130386382Y-93287263D01*
X130299401Y-93246194D01*
X130278293Y-93235661D01*
X130263168Y-93227962D01*
X130247381Y-93219798D01*
X130231255Y-93211346D01*
X130215112Y-93202781D01*
X130199274Y-93194282D01*
X130184064Y-93186023D01*
X130169803Y-93178182D01*
X130156814Y-93170934D01*
X130145418Y-93164457D01*
X130135939Y-93158926D01*
X130128699Y-93154519D01*
X130124019Y-93151412D01*
X130122930Y-93150567D01*
X130120460Y-93146597D01*
X130120327Y-93141810D01*
X130122155Y-93137296D01*
X130125567Y-93134146D01*
X130128879Y-93133333D01*
X130131186Y-93134013D01*
G37*
X130131186Y-93134013D02*
X130136059Y-93135910D01*
X130142994Y-93138814D01*
X130151488Y-93142512D01*
X130161036Y-93146791D01*
X130163459Y-93147895D01*
X130248873Y-93185319D01*
X130334937Y-93219790D01*
X130421842Y-93251361D01*
X130509776Y-93280084D01*
X130598929Y-93306013D01*
X130689490Y-93329199D01*
X130781650Y-93349697D01*
X130875596Y-93367559D01*
X130971519Y-93382838D01*
X131035213Y-93391434D01*
X131114811Y-93400394D01*
X131196811Y-93407613D01*
X131280707Y-93413084D01*
X131365993Y-93416803D01*
X131452163Y-93418765D01*
X131538710Y-93418962D01*
X131625130Y-93417390D01*
X131710915Y-93414044D01*
X131795560Y-93408918D01*
X131878559Y-93402006D01*
X131891193Y-93400779D01*
X131990308Y-93389425D01*
X132087858Y-93375121D01*
X132184015Y-93357818D01*
X132278957Y-93337470D01*
X132372858Y-93314031D01*
X132465894Y-93287453D01*
X132558239Y-93257690D01*
X132650070Y-93224695D01*
X132741561Y-93188420D01*
X132830501Y-93149898D01*
X132843418Y-93144127D01*
X132853634Y-93139741D01*
X132861501Y-93136665D01*
X132867374Y-93134823D01*
X132871606Y-93134138D01*
X132874549Y-93134533D01*
X132876558Y-93135934D01*
X132877986Y-93138262D01*
X132878511Y-93139535D01*
X132879259Y-93141724D01*
X132879558Y-93143714D01*
X132879165Y-93145683D01*
X132877839Y-93147808D01*
X132875336Y-93150268D01*
X132871415Y-93153239D01*
X132865834Y-93156900D01*
X132858350Y-93161426D01*
X132848721Y-93166997D01*
X132836705Y-93173789D01*
X132822060Y-93181980D01*
X132815881Y-93185426D01*
X132734213Y-93229058D01*
X132650617Y-93269988D01*
X132565307Y-93308141D01*
X132478495Y-93343439D01*
X132390395Y-93375805D01*
X132301219Y-93405162D01*
X132211181Y-93431434D01*
X132120495Y-93454543D01*
X132029372Y-93474412D01*
X131998720Y-93480343D01*
X131923224Y-93493412D01*
X131847883Y-93504335D01*
X131773162Y-93513063D01*
X131699528Y-93519547D01*
X131627449Y-93523738D01*
X131569460Y-93525435D01*
X131555862Y-93525655D01*
X131542936Y-93525881D01*
X131531184Y-93526102D01*
X131521110Y-93526309D01*
X131513217Y-93526492D01*
X131508010Y-93526640D01*
X131506806Y-93526687D01*
X131502883Y-93526756D01*
X131496051Y-93526758D01*
X131486787Y-93526697D01*
X131475568Y-93526577D01*
X131462871Y-93526405D01*
X131449174Y-93526184D01*
X131439920Y-93526015D01*
X131351980Y-93522816D01*
X131263539Y-93516536D01*
X131174305Y-93507153D01*
X131119033Y-93499849D01*
X131024231Y-93484663D01*
X130930273Y-93466199D01*
X130837196Y-93444470D01*
X130745040Y-93419487D01*
X130653841Y-93391263D01*
X130563640Y-93359810D01*
X130474474Y-93325139D01*
X130386382Y-93287263D01*
X130299401Y-93246194D01*
X130278293Y-93235661D01*
X130263168Y-93227962D01*
X130247381Y-93219798D01*
X130231255Y-93211346D01*
X130215112Y-93202781D01*
X130199274Y-93194282D01*
X130184064Y-93186023D01*
X130169803Y-93178182D01*
X130156814Y-93170934D01*
X130145418Y-93164457D01*
X130135939Y-93158926D01*
X130128699Y-93154519D01*
X130124019Y-93151412D01*
X130122930Y-93150567D01*
X130120460Y-93146597D01*
X130120327Y-93141810D01*
X130122155Y-93137296D01*
X130125567Y-93134146D01*
X130128879Y-93133333D01*
X130131186Y-93134013D01*
G36*
X132472770Y-92692422D02*
G01*
X132476334Y-92695371D01*
X132478153Y-92699907D01*
X132477933Y-92703226D01*
X132476009Y-92705307D01*
X132471309Y-92708681D01*
X132464120Y-92713198D01*
X132454728Y-92718707D01*
X132443421Y-92725061D01*
X132430486Y-92732107D01*
X132416211Y-92739697D01*
X132400882Y-92747680D01*
X132384787Y-92755906D01*
X132368213Y-92764226D01*
X132351448Y-92772490D01*
X132334778Y-92780547D01*
X132318490Y-92788248D01*
X132302872Y-92795443D01*
X132291666Y-92800463D01*
X132221462Y-92829847D01*
X132150054Y-92856544D01*
X132077695Y-92880499D01*
X132004637Y-92901652D01*
X131931134Y-92919947D01*
X131857437Y-92935327D01*
X131783801Y-92947733D01*
X131710477Y-92957108D01*
X131637719Y-92963395D01*
X131565780Y-92966536D01*
X131560993Y-92966633D01*
X131548499Y-92966877D01*
X131536682Y-92967128D01*
X131526100Y-92967372D01*
X131517311Y-92967596D01*
X131510872Y-92967787D01*
X131507653Y-92967913D01*
X131503790Y-92967987D01*
X131497059Y-92967977D01*
X131487975Y-92967891D01*
X131477057Y-92967734D01*
X131464820Y-92967513D01*
X131451782Y-92967235D01*
X131449233Y-92967176D01*
X131369707Y-92963612D01*
X131290304Y-92956697D01*
X131211165Y-92946467D01*
X131132430Y-92932955D01*
X131054239Y-92916199D01*
X130976732Y-92896233D01*
X130900051Y-92873092D01*
X130824334Y-92846812D01*
X130749724Y-92817429D01*
X130676360Y-92784977D01*
X130622886Y-92758974D01*
X130606752Y-92750741D01*
X130591249Y-92742685D01*
X130576667Y-92734966D01*
X130563294Y-92727745D01*
X130551420Y-92721181D01*
X130541334Y-92715436D01*
X130533324Y-92710670D01*
X130527681Y-92707043D01*
X130524692Y-92704715D01*
X130524354Y-92704290D01*
X130523554Y-92699792D01*
X130525382Y-92695384D01*
X130528135Y-92693026D01*
X130529775Y-92692702D01*
X130532518Y-92693114D01*
X130536724Y-92694389D01*
X130542753Y-92696660D01*
X130550966Y-92700055D01*
X130561724Y-92704705D01*
X130567391Y-92707197D01*
X130641018Y-92738029D01*
X130715592Y-92765921D01*
X130791252Y-92790907D01*
X130868135Y-92813018D01*
X130946380Y-92832290D01*
X131026123Y-92848754D01*
X131107503Y-92862445D01*
X131190658Y-92873394D01*
X131275726Y-92881636D01*
X131300220Y-92883485D01*
X131352027Y-92886576D01*
X131406235Y-92888714D01*
X131461990Y-92889900D01*
X131518444Y-92890133D01*
X131574745Y-92889413D01*
X131630042Y-92887741D01*
X131683485Y-92885117D01*
X131708313Y-92883512D01*
X131792091Y-92876243D01*
X131873975Y-92866275D01*
X131954185Y-92853557D01*
X132032944Y-92838033D01*
X132110473Y-92819650D01*
X132186995Y-92798353D01*
X132262731Y-92774090D01*
X132337904Y-92746805D01*
X132412735Y-92716445D01*
X132435135Y-92706736D01*
X132446185Y-92701974D01*
X132455833Y-92698008D01*
X132463687Y-92694988D01*
X132469354Y-92693062D01*
X132472443Y-92692380D01*
X132472770Y-92692422D01*
G37*
X132472770Y-92692422D02*
X132476334Y-92695371D01*
X132478153Y-92699907D01*
X132477933Y-92703226D01*
X132476009Y-92705307D01*
X132471309Y-92708681D01*
X132464120Y-92713198D01*
X132454728Y-92718707D01*
X132443421Y-92725061D01*
X132430486Y-92732107D01*
X132416211Y-92739697D01*
X132400882Y-92747680D01*
X132384787Y-92755906D01*
X132368213Y-92764226D01*
X132351448Y-92772490D01*
X132334778Y-92780547D01*
X132318490Y-92788248D01*
X132302872Y-92795443D01*
X132291666Y-92800463D01*
X132221462Y-92829847D01*
X132150054Y-92856544D01*
X132077695Y-92880499D01*
X132004637Y-92901652D01*
X131931134Y-92919947D01*
X131857437Y-92935327D01*
X131783801Y-92947733D01*
X131710477Y-92957108D01*
X131637719Y-92963395D01*
X131565780Y-92966536D01*
X131560993Y-92966633D01*
X131548499Y-92966877D01*
X131536682Y-92967128D01*
X131526100Y-92967372D01*
X131517311Y-92967596D01*
X131510872Y-92967787D01*
X131507653Y-92967913D01*
X131503790Y-92967987D01*
X131497059Y-92967977D01*
X131487975Y-92967891D01*
X131477057Y-92967734D01*
X131464820Y-92967513D01*
X131451782Y-92967235D01*
X131449233Y-92967176D01*
X131369707Y-92963612D01*
X131290304Y-92956697D01*
X131211165Y-92946467D01*
X131132430Y-92932955D01*
X131054239Y-92916199D01*
X130976732Y-92896233D01*
X130900051Y-92873092D01*
X130824334Y-92846812D01*
X130749724Y-92817429D01*
X130676360Y-92784977D01*
X130622886Y-92758974D01*
X130606752Y-92750741D01*
X130591249Y-92742685D01*
X130576667Y-92734966D01*
X130563294Y-92727745D01*
X130551420Y-92721181D01*
X130541334Y-92715436D01*
X130533324Y-92710670D01*
X130527681Y-92707043D01*
X130524692Y-92704715D01*
X130524354Y-92704290D01*
X130523554Y-92699792D01*
X130525382Y-92695384D01*
X130528135Y-92693026D01*
X130529775Y-92692702D01*
X130532518Y-92693114D01*
X130536724Y-92694389D01*
X130542753Y-92696660D01*
X130550966Y-92700055D01*
X130561724Y-92704705D01*
X130567391Y-92707197D01*
X130641018Y-92738029D01*
X130715592Y-92765921D01*
X130791252Y-92790907D01*
X130868135Y-92813018D01*
X130946380Y-92832290D01*
X131026123Y-92848754D01*
X131107503Y-92862445D01*
X131190658Y-92873394D01*
X131275726Y-92881636D01*
X131300220Y-92883485D01*
X131352027Y-92886576D01*
X131406235Y-92888714D01*
X131461990Y-92889900D01*
X131518444Y-92890133D01*
X131574745Y-92889413D01*
X131630042Y-92887741D01*
X131683485Y-92885117D01*
X131708313Y-92883512D01*
X131792091Y-92876243D01*
X131873975Y-92866275D01*
X131954185Y-92853557D01*
X132032944Y-92838033D01*
X132110473Y-92819650D01*
X132186995Y-92798353D01*
X132262731Y-92774090D01*
X132337904Y-92746805D01*
X132412735Y-92716445D01*
X132435135Y-92706736D01*
X132446185Y-92701974D01*
X132455833Y-92698008D01*
X132463687Y-92694988D01*
X132469354Y-92693062D01*
X132472443Y-92692380D01*
X132472770Y-92692422D01*
D11*
G36*
X131525173Y-89154889D02*
G01*
X131545703Y-89154974D01*
X131563789Y-89155133D01*
X131579899Y-89155385D01*
X131594505Y-89155748D01*
X131608078Y-89156241D01*
X131621087Y-89156880D01*
X131634004Y-89157684D01*
X131647298Y-89158672D01*
X131661441Y-89159860D01*
X131676903Y-89161268D01*
X131682066Y-89161754D01*
X131763221Y-89171135D01*
X131843674Y-89183827D01*
X131923373Y-89199815D01*
X132002267Y-89219087D01*
X132080303Y-89241628D01*
X132157431Y-89267426D01*
X132233597Y-89296466D01*
X132289193Y-89319983D01*
X132302697Y-89326062D01*
X132317587Y-89332983D01*
X132333507Y-89340562D01*
X132350099Y-89348618D01*
X132367006Y-89356968D01*
X132383873Y-89365429D01*
X132400342Y-89373819D01*
X132416056Y-89381956D01*
X132430658Y-89389657D01*
X132443792Y-89396739D01*
X132455101Y-89403020D01*
X132464228Y-89408318D01*
X132470816Y-89412450D01*
X132472975Y-89413968D01*
X132476146Y-89417121D01*
X132476612Y-89420247D01*
X132476410Y-89421009D01*
X132474423Y-89424339D01*
X132472712Y-89425599D01*
X132470391Y-89425252D01*
X132465566Y-89423673D01*
X132458794Y-89421076D01*
X132450635Y-89417672D01*
X132443687Y-89414601D01*
X132371969Y-89383944D01*
X132298240Y-89355941D01*
X132222637Y-89330629D01*
X132145298Y-89308043D01*
X132066358Y-89288218D01*
X131985954Y-89271189D01*
X131904222Y-89256993D01*
X131821299Y-89245665D01*
X131772660Y-89240417D01*
X131738824Y-89237293D01*
X131706431Y-89234679D01*
X131674803Y-89232545D01*
X131643268Y-89230860D01*
X131611149Y-89229593D01*
X131577772Y-89228714D01*
X131542462Y-89228192D01*
X131504543Y-89227996D01*
X131499186Y-89227992D01*
X131442717Y-89228382D01*
X131389044Y-89229586D01*
X131337669Y-89231642D01*
X131288091Y-89234589D01*
X131239811Y-89238465D01*
X131192329Y-89243307D01*
X131145147Y-89249153D01*
X131097763Y-89256042D01*
X131069080Y-89260683D01*
X130997751Y-89273823D01*
X130927970Y-89289102D01*
X130859285Y-89306658D01*
X130791245Y-89326630D01*
X130723398Y-89349154D01*
X130655293Y-89374371D01*
X130586478Y-89402417D01*
X130541135Y-89422238D01*
X130535517Y-89424754D01*
X130532168Y-89426064D01*
X130530232Y-89426273D01*
X130528857Y-89425489D01*
X130527334Y-89423965D01*
X130525463Y-89421855D01*
X130524597Y-89419919D01*
X130525017Y-89417904D01*
X130527004Y-89415558D01*
X130530839Y-89412631D01*
X130536802Y-89408870D01*
X130545175Y-89404024D01*
X130556237Y-89397840D01*
X130556846Y-89397502D01*
X130628368Y-89359762D01*
X130701318Y-89325072D01*
X130775585Y-89293468D01*
X130851057Y-89264988D01*
X130927624Y-89239666D01*
X131005175Y-89217540D01*
X131083599Y-89198645D01*
X131162785Y-89183019D01*
X131242622Y-89170697D01*
X131252806Y-89169370D01*
X131276911Y-89166368D01*
X131298989Y-89163794D01*
X131319569Y-89161618D01*
X131339175Y-89159810D01*
X131358333Y-89158338D01*
X131377571Y-89157173D01*
X131397413Y-89156283D01*
X131418387Y-89155638D01*
X131441018Y-89155208D01*
X131465832Y-89154960D01*
X131493356Y-89154866D01*
X131501726Y-89154863D01*
X131525173Y-89154889D01*
G37*
X131525173Y-89154889D02*
X131545703Y-89154974D01*
X131563789Y-89155133D01*
X131579899Y-89155385D01*
X131594505Y-89155748D01*
X131608078Y-89156241D01*
X131621087Y-89156880D01*
X131634004Y-89157684D01*
X131647298Y-89158672D01*
X131661441Y-89159860D01*
X131676903Y-89161268D01*
X131682066Y-89161754D01*
X131763221Y-89171135D01*
X131843674Y-89183827D01*
X131923373Y-89199815D01*
X132002267Y-89219087D01*
X132080303Y-89241628D01*
X132157431Y-89267426D01*
X132233597Y-89296466D01*
X132289193Y-89319983D01*
X132302697Y-89326062D01*
X132317587Y-89332983D01*
X132333507Y-89340562D01*
X132350099Y-89348618D01*
X132367006Y-89356968D01*
X132383873Y-89365429D01*
X132400342Y-89373819D01*
X132416056Y-89381956D01*
X132430658Y-89389657D01*
X132443792Y-89396739D01*
X132455101Y-89403020D01*
X132464228Y-89408318D01*
X132470816Y-89412450D01*
X132472975Y-89413968D01*
X132476146Y-89417121D01*
X132476612Y-89420247D01*
X132476410Y-89421009D01*
X132474423Y-89424339D01*
X132472712Y-89425599D01*
X132470391Y-89425252D01*
X132465566Y-89423673D01*
X132458794Y-89421076D01*
X132450635Y-89417672D01*
X132443687Y-89414601D01*
X132371969Y-89383944D01*
X132298240Y-89355941D01*
X132222637Y-89330629D01*
X132145298Y-89308043D01*
X132066358Y-89288218D01*
X131985954Y-89271189D01*
X131904222Y-89256993D01*
X131821299Y-89245665D01*
X131772660Y-89240417D01*
X131738824Y-89237293D01*
X131706431Y-89234679D01*
X131674803Y-89232545D01*
X131643268Y-89230860D01*
X131611149Y-89229593D01*
X131577772Y-89228714D01*
X131542462Y-89228192D01*
X131504543Y-89227996D01*
X131499186Y-89227992D01*
X131442717Y-89228382D01*
X131389044Y-89229586D01*
X131337669Y-89231642D01*
X131288091Y-89234589D01*
X131239811Y-89238465D01*
X131192329Y-89243307D01*
X131145147Y-89249153D01*
X131097763Y-89256042D01*
X131069080Y-89260683D01*
X130997751Y-89273823D01*
X130927970Y-89289102D01*
X130859285Y-89306658D01*
X130791245Y-89326630D01*
X130723398Y-89349154D01*
X130655293Y-89374371D01*
X130586478Y-89402417D01*
X130541135Y-89422238D01*
X130535517Y-89424754D01*
X130532168Y-89426064D01*
X130530232Y-89426273D01*
X130528857Y-89425489D01*
X130527334Y-89423965D01*
X130525463Y-89421855D01*
X130524597Y-89419919D01*
X130525017Y-89417904D01*
X130527004Y-89415558D01*
X130530839Y-89412631D01*
X130536802Y-89408870D01*
X130545175Y-89404024D01*
X130556237Y-89397840D01*
X130556846Y-89397502D01*
X130628368Y-89359762D01*
X130701318Y-89325072D01*
X130775585Y-89293468D01*
X130851057Y-89264988D01*
X130927624Y-89239666D01*
X131005175Y-89217540D01*
X131083599Y-89198645D01*
X131162785Y-89183019D01*
X131242622Y-89170697D01*
X131252806Y-89169370D01*
X131276911Y-89166368D01*
X131298989Y-89163794D01*
X131319569Y-89161618D01*
X131339175Y-89159810D01*
X131358333Y-89158338D01*
X131377571Y-89157173D01*
X131397413Y-89156283D01*
X131418387Y-89155638D01*
X131441018Y-89155208D01*
X131465832Y-89154960D01*
X131493356Y-89154866D01*
X131501726Y-89154863D01*
X131525173Y-89154889D01*
G36*
X131531147Y-88594435D02*
G01*
X131555104Y-88594532D01*
X131576598Y-88594710D01*
X131596090Y-88594987D01*
X131614042Y-88595382D01*
X131630916Y-88595914D01*
X131647174Y-88596603D01*
X131663277Y-88597467D01*
X131679686Y-88598525D01*
X131696865Y-88599797D01*
X131715273Y-88601300D01*
X131735373Y-88603055D01*
X131752340Y-88604593D01*
X131846393Y-88614917D01*
X131940055Y-88628583D01*
X132033221Y-88645560D01*
X132125789Y-88665815D01*
X132217654Y-88689316D01*
X132308715Y-88716032D01*
X132398867Y-88745930D01*
X132488007Y-88778978D01*
X132576033Y-88815145D01*
X132662842Y-88854399D01*
X132748329Y-88896706D01*
X132821680Y-88936047D01*
X132836622Y-88944382D01*
X132848856Y-88951279D01*
X132858652Y-88956911D01*
X132866278Y-88961456D01*
X132872004Y-88965088D01*
X132876098Y-88967984D01*
X132878830Y-88970318D01*
X132880469Y-88972268D01*
X132881284Y-88974007D01*
X132881496Y-88975079D01*
X132880789Y-88980077D01*
X132878058Y-88984185D01*
X132874130Y-88986280D01*
X132873190Y-88986360D01*
X132870740Y-88985669D01*
X132865788Y-88983752D01*
X132858885Y-88980841D01*
X132850585Y-88977168D01*
X132842549Y-88973484D01*
X132758085Y-88935963D01*
X132671635Y-88901150D01*
X132583270Y-88869065D01*
X132493059Y-88839725D01*
X132401074Y-88813147D01*
X132307385Y-88789351D01*
X132212063Y-88768354D01*
X132115177Y-88750174D01*
X132016799Y-88734830D01*
X131916999Y-88722339D01*
X131829386Y-88713833D01*
X131796793Y-88711195D01*
X131765703Y-88708917D01*
X131735588Y-88706979D01*
X131705918Y-88705360D01*
X131676165Y-88704041D01*
X131645798Y-88703000D01*
X131614289Y-88702218D01*
X131581108Y-88701675D01*
X131545726Y-88701351D01*
X131507613Y-88701225D01*
X131498340Y-88701222D01*
X131450963Y-88701390D01*
X131406436Y-88701891D01*
X131364234Y-88702752D01*
X131323834Y-88703995D01*
X131284713Y-88705645D01*
X131246346Y-88707727D01*
X131208211Y-88710265D01*
X131169784Y-88713284D01*
X131130541Y-88716807D01*
X131100406Y-88719781D01*
X130999649Y-88731715D01*
X130900103Y-88746809D01*
X130801738Y-88765069D01*
X130704522Y-88786506D01*
X130608425Y-88811126D01*
X130513416Y-88838939D01*
X130419464Y-88869953D01*
X130326538Y-88904175D01*
X130234608Y-88941616D01*
X130160740Y-88974358D01*
X130151922Y-88978337D01*
X130144031Y-88981759D01*
X130137640Y-88984386D01*
X130133320Y-88985982D01*
X130131793Y-88986360D01*
X130128503Y-88985180D01*
X130126155Y-88983263D01*
X130123748Y-88978537D01*
X130123788Y-88973339D01*
X130126259Y-88969080D01*
X130126316Y-88969029D01*
X130128629Y-88967439D01*
X130133415Y-88964478D01*
X130140193Y-88960431D01*
X130148483Y-88955583D01*
X130157806Y-88950220D01*
X130161102Y-88948343D01*
X130245522Y-88902341D01*
X130331362Y-88859395D01*
X130418543Y-88819535D01*
X130506987Y-88782793D01*
X130596614Y-88749199D01*
X130687347Y-88718784D01*
X130779107Y-88691580D01*
X130871814Y-88667617D01*
X130883843Y-88664762D01*
X130977065Y-88644565D01*
X131070571Y-88627702D01*
X131164258Y-88614189D01*
X131258028Y-88604041D01*
X131290906Y-88601282D01*
X131308851Y-88599910D01*
X131324997Y-88598730D01*
X131339784Y-88597729D01*
X131353651Y-88596891D01*
X131367037Y-88596204D01*
X131380382Y-88595652D01*
X131394124Y-88595222D01*
X131408704Y-88594899D01*
X131424561Y-88594670D01*
X131442134Y-88594520D01*
X131461862Y-88594434D01*
X131484185Y-88594400D01*
X131504266Y-88594399D01*
X131531147Y-88594435D01*
G37*
X131531147Y-88594435D02*
X131555104Y-88594532D01*
X131576598Y-88594710D01*
X131596090Y-88594987D01*
X131614042Y-88595382D01*
X131630916Y-88595914D01*
X131647174Y-88596603D01*
X131663277Y-88597467D01*
X131679686Y-88598525D01*
X131696865Y-88599797D01*
X131715273Y-88601300D01*
X131735373Y-88603055D01*
X131752340Y-88604593D01*
X131846393Y-88614917D01*
X131940055Y-88628583D01*
X132033221Y-88645560D01*
X132125789Y-88665815D01*
X132217654Y-88689316D01*
X132308715Y-88716032D01*
X132398867Y-88745930D01*
X132488007Y-88778978D01*
X132576033Y-88815145D01*
X132662842Y-88854399D01*
X132748329Y-88896706D01*
X132821680Y-88936047D01*
X132836622Y-88944382D01*
X132848856Y-88951279D01*
X132858652Y-88956911D01*
X132866278Y-88961456D01*
X132872004Y-88965088D01*
X132876098Y-88967984D01*
X132878830Y-88970318D01*
X132880469Y-88972268D01*
X132881284Y-88974007D01*
X132881496Y-88975079D01*
X132880789Y-88980077D01*
X132878058Y-88984185D01*
X132874130Y-88986280D01*
X132873190Y-88986360D01*
X132870740Y-88985669D01*
X132865788Y-88983752D01*
X132858885Y-88980841D01*
X132850585Y-88977168D01*
X132842549Y-88973484D01*
X132758085Y-88935963D01*
X132671635Y-88901150D01*
X132583270Y-88869065D01*
X132493059Y-88839725D01*
X132401074Y-88813147D01*
X132307385Y-88789351D01*
X132212063Y-88768354D01*
X132115177Y-88750174D01*
X132016799Y-88734830D01*
X131916999Y-88722339D01*
X131829386Y-88713833D01*
X131796793Y-88711195D01*
X131765703Y-88708917D01*
X131735588Y-88706979D01*
X131705918Y-88705360D01*
X131676165Y-88704041D01*
X131645798Y-88703000D01*
X131614289Y-88702218D01*
X131581108Y-88701675D01*
X131545726Y-88701351D01*
X131507613Y-88701225D01*
X131498340Y-88701222D01*
X131450963Y-88701390D01*
X131406436Y-88701891D01*
X131364234Y-88702752D01*
X131323834Y-88703995D01*
X131284713Y-88705645D01*
X131246346Y-88707727D01*
X131208211Y-88710265D01*
X131169784Y-88713284D01*
X131130541Y-88716807D01*
X131100406Y-88719781D01*
X130999649Y-88731715D01*
X130900103Y-88746809D01*
X130801738Y-88765069D01*
X130704522Y-88786506D01*
X130608425Y-88811126D01*
X130513416Y-88838939D01*
X130419464Y-88869953D01*
X130326538Y-88904175D01*
X130234608Y-88941616D01*
X130160740Y-88974358D01*
X130151922Y-88978337D01*
X130144031Y-88981759D01*
X130137640Y-88984386D01*
X130133320Y-88985982D01*
X130131793Y-88986360D01*
X130128503Y-88985180D01*
X130126155Y-88983263D01*
X130123748Y-88978537D01*
X130123788Y-88973339D01*
X130126259Y-88969080D01*
X130126316Y-88969029D01*
X130128629Y-88967439D01*
X130133415Y-88964478D01*
X130140193Y-88960431D01*
X130148483Y-88955583D01*
X130157806Y-88950220D01*
X130161102Y-88948343D01*
X130245522Y-88902341D01*
X130331362Y-88859395D01*
X130418543Y-88819535D01*
X130506987Y-88782793D01*
X130596614Y-88749199D01*
X130687347Y-88718784D01*
X130779107Y-88691580D01*
X130871814Y-88667617D01*
X130883843Y-88664762D01*
X130977065Y-88644565D01*
X131070571Y-88627702D01*
X131164258Y-88614189D01*
X131258028Y-88604041D01*
X131290906Y-88601282D01*
X131308851Y-88599910D01*
X131324997Y-88598730D01*
X131339784Y-88597729D01*
X131353651Y-88596891D01*
X131367037Y-88596204D01*
X131380382Y-88595652D01*
X131394124Y-88595222D01*
X131408704Y-88594899D01*
X131424561Y-88594670D01*
X131442134Y-88594520D01*
X131461862Y-88594434D01*
X131484185Y-88594400D01*
X131504266Y-88594399D01*
X131531147Y-88594435D01*
G36*
X131559168Y-87935381D02*
G01*
X131669117Y-87938841D01*
X131779141Y-87945651D01*
X131889172Y-87955827D01*
X131941993Y-87961914D01*
X132051558Y-87977053D01*
X132160527Y-87995512D01*
X132268823Y-88017265D01*
X132376368Y-88042286D01*
X132483082Y-88070548D01*
X132588889Y-88102024D01*
X132693710Y-88136688D01*
X132797466Y-88174514D01*
X132900080Y-88215475D01*
X133001473Y-88259544D01*
X133101567Y-88306695D01*
X133200283Y-88356901D01*
X133297545Y-88410137D01*
X133344539Y-88437255D01*
X133352314Y-88441958D01*
X133359082Y-88446310D01*
X133364275Y-88449928D01*
X133367323Y-88452425D01*
X133367822Y-88453039D01*
X133369320Y-88459026D01*
X133367970Y-88464901D01*
X133364209Y-88469729D01*
X133358673Y-88472532D01*
X133356227Y-88472364D01*
X133351778Y-88471037D01*
X133345106Y-88468465D01*
X133335992Y-88464560D01*
X133324217Y-88459232D01*
X133316255Y-88455538D01*
X133214635Y-88409896D01*
X133111550Y-88367246D01*
X133006984Y-88327584D01*
X132900919Y-88290905D01*
X132793338Y-88257207D01*
X132684223Y-88226484D01*
X132573558Y-88198732D01*
X132461324Y-88173947D01*
X132347506Y-88152125D01*
X132232085Y-88133262D01*
X132115044Y-88117354D01*
X131996366Y-88104396D01*
X131876035Y-88094384D01*
X131803986Y-88089843D01*
X131783464Y-88088714D01*
X131764651Y-88087715D01*
X131747199Y-88086838D01*
X131730759Y-88086075D01*
X131714985Y-88085418D01*
X131699528Y-88084859D01*
X131684039Y-88084391D01*
X131668172Y-88084006D01*
X131651577Y-88083696D01*
X131633907Y-88083454D01*
X131614813Y-88083270D01*
X131593948Y-88083139D01*
X131570963Y-88083051D01*
X131545511Y-88082999D01*
X131517243Y-88082975D01*
X131497493Y-88082971D01*
X131466425Y-88082982D01*
X131438393Y-88083020D01*
X131413050Y-88083094D01*
X131390045Y-88083211D01*
X131369030Y-88083379D01*
X131349653Y-88083606D01*
X131331567Y-88083898D01*
X131314422Y-88084265D01*
X131297869Y-88084713D01*
X131281557Y-88085250D01*
X131265138Y-88085885D01*
X131248262Y-88086623D01*
X131230581Y-88087475D01*
X131211743Y-88088446D01*
X131191401Y-88089544D01*
X131186766Y-88089800D01*
X131072407Y-88097431D01*
X130960168Y-88107595D01*
X130849872Y-88120333D01*
X130741342Y-88135688D01*
X130634401Y-88153705D01*
X130528871Y-88174425D01*
X130424577Y-88197892D01*
X130321340Y-88224149D01*
X130218984Y-88253239D01*
X130117332Y-88285206D01*
X130016207Y-88320091D01*
X129915431Y-88357939D01*
X129814827Y-88398792D01*
X129714220Y-88442693D01*
X129689346Y-88454012D01*
X129678218Y-88459082D01*
X129668049Y-88463649D01*
X129659259Y-88467530D01*
X129652265Y-88470542D01*
X129647488Y-88472502D01*
X129645346Y-88473227D01*
X129645319Y-88473228D01*
X129642311Y-88472396D01*
X129639906Y-88471234D01*
X129634693Y-88466662D01*
X129632382Y-88460935D01*
X129633182Y-88454691D01*
X129633968Y-88452981D01*
X129635872Y-88451253D01*
X129640280Y-88448139D01*
X129646751Y-88443925D01*
X129654843Y-88438895D01*
X129664113Y-88433332D01*
X129669105Y-88430408D01*
X129766265Y-88375910D01*
X129864705Y-88324513D01*
X129964358Y-88276233D01*
X130065158Y-88231083D01*
X130167036Y-88189077D01*
X130269927Y-88150228D01*
X130373763Y-88114552D01*
X130478477Y-88082060D01*
X130584002Y-88052768D01*
X130690271Y-88026689D01*
X130797217Y-88003836D01*
X130904774Y-87984225D01*
X131012873Y-87967867D01*
X131121448Y-87954778D01*
X131230432Y-87944972D01*
X131339758Y-87938460D01*
X131449359Y-87935259D01*
X131559168Y-87935381D01*
G37*
X131559168Y-87935381D02*
X131669117Y-87938841D01*
X131779141Y-87945651D01*
X131889172Y-87955827D01*
X131941993Y-87961914D01*
X132051558Y-87977053D01*
X132160527Y-87995512D01*
X132268823Y-88017265D01*
X132376368Y-88042286D01*
X132483082Y-88070548D01*
X132588889Y-88102024D01*
X132693710Y-88136688D01*
X132797466Y-88174514D01*
X132900080Y-88215475D01*
X133001473Y-88259544D01*
X133101567Y-88306695D01*
X133200283Y-88356901D01*
X133297545Y-88410137D01*
X133344539Y-88437255D01*
X133352314Y-88441958D01*
X133359082Y-88446310D01*
X133364275Y-88449928D01*
X133367323Y-88452425D01*
X133367822Y-88453039D01*
X133369320Y-88459026D01*
X133367970Y-88464901D01*
X133364209Y-88469729D01*
X133358673Y-88472532D01*
X133356227Y-88472364D01*
X133351778Y-88471037D01*
X133345106Y-88468465D01*
X133335992Y-88464560D01*
X133324217Y-88459232D01*
X133316255Y-88455538D01*
X133214635Y-88409896D01*
X133111550Y-88367246D01*
X133006984Y-88327584D01*
X132900919Y-88290905D01*
X132793338Y-88257207D01*
X132684223Y-88226484D01*
X132573558Y-88198732D01*
X132461324Y-88173947D01*
X132347506Y-88152125D01*
X132232085Y-88133262D01*
X132115044Y-88117354D01*
X131996366Y-88104396D01*
X131876035Y-88094384D01*
X131803986Y-88089843D01*
X131783464Y-88088714D01*
X131764651Y-88087715D01*
X131747199Y-88086838D01*
X131730759Y-88086075D01*
X131714985Y-88085418D01*
X131699528Y-88084859D01*
X131684039Y-88084391D01*
X131668172Y-88084006D01*
X131651577Y-88083696D01*
X131633907Y-88083454D01*
X131614813Y-88083270D01*
X131593948Y-88083139D01*
X131570963Y-88083051D01*
X131545511Y-88082999D01*
X131517243Y-88082975D01*
X131497493Y-88082971D01*
X131466425Y-88082982D01*
X131438393Y-88083020D01*
X131413050Y-88083094D01*
X131390045Y-88083211D01*
X131369030Y-88083379D01*
X131349653Y-88083606D01*
X131331567Y-88083898D01*
X131314422Y-88084265D01*
X131297869Y-88084713D01*
X131281557Y-88085250D01*
X131265138Y-88085885D01*
X131248262Y-88086623D01*
X131230581Y-88087475D01*
X131211743Y-88088446D01*
X131191401Y-88089544D01*
X131186766Y-88089800D01*
X131072407Y-88097431D01*
X130960168Y-88107595D01*
X130849872Y-88120333D01*
X130741342Y-88135688D01*
X130634401Y-88153705D01*
X130528871Y-88174425D01*
X130424577Y-88197892D01*
X130321340Y-88224149D01*
X130218984Y-88253239D01*
X130117332Y-88285206D01*
X130016207Y-88320091D01*
X129915431Y-88357939D01*
X129814827Y-88398792D01*
X129714220Y-88442693D01*
X129689346Y-88454012D01*
X129678218Y-88459082D01*
X129668049Y-88463649D01*
X129659259Y-88467530D01*
X129652265Y-88470542D01*
X129647488Y-88472502D01*
X129645346Y-88473227D01*
X129645319Y-88473228D01*
X129642311Y-88472396D01*
X129639906Y-88471234D01*
X129634693Y-88466662D01*
X129632382Y-88460935D01*
X129633182Y-88454691D01*
X129633968Y-88452981D01*
X129635872Y-88451253D01*
X129640280Y-88448139D01*
X129646751Y-88443925D01*
X129654843Y-88438895D01*
X129664113Y-88433332D01*
X129669105Y-88430408D01*
X129766265Y-88375910D01*
X129864705Y-88324513D01*
X129964358Y-88276233D01*
X130065158Y-88231083D01*
X130167036Y-88189077D01*
X130269927Y-88150228D01*
X130373763Y-88114552D01*
X130478477Y-88082060D01*
X130584002Y-88052768D01*
X130690271Y-88026689D01*
X130797217Y-88003836D01*
X130904774Y-87984225D01*
X131012873Y-87967867D01*
X131121448Y-87954778D01*
X131230432Y-87944972D01*
X131339758Y-87938460D01*
X131449359Y-87935259D01*
X131559168Y-87935381D01*
D12*
G36*
X176155880Y-121330776D02*
G01*
X176536593Y-121406504D01*
X176946249Y-121576189D01*
X177314929Y-121822534D01*
X177628466Y-122136071D01*
X177874811Y-122504751D01*
X178044496Y-122914407D01*
X178131000Y-123349296D01*
X178131000Y-123792704D01*
X178044496Y-124227593D01*
X177874811Y-124637249D01*
X177628466Y-125005929D01*
X177314929Y-125319466D01*
X176946249Y-125565811D01*
X176536593Y-125735496D01*
X176155880Y-125811224D01*
X176101705Y-125822000D01*
X175658295Y-125822000D01*
X175604120Y-125811224D01*
X175223407Y-125735496D01*
X174813751Y-125565811D01*
X174445071Y-125319466D01*
X174131534Y-125005929D01*
X173885189Y-124637249D01*
X173715504Y-124227593D01*
X173629000Y-123792704D01*
X173629000Y-123349296D01*
X173715504Y-122914407D01*
X173885189Y-122504751D01*
X174131534Y-122136071D01*
X174445071Y-121822534D01*
X174813751Y-121576189D01*
X175223407Y-121406504D01*
X175604120Y-121330776D01*
X175658295Y-121320000D01*
X176101705Y-121320000D01*
X176155880Y-121330776D01*
G37*
G36*
X117155880Y-121330776D02*
G01*
X117536593Y-121406504D01*
X117946249Y-121576189D01*
X118314929Y-121822534D01*
X118628466Y-122136071D01*
X118874811Y-122504751D01*
X119044496Y-122914407D01*
X119131000Y-123349296D01*
X119131000Y-123792704D01*
X119044496Y-124227593D01*
X118874811Y-124637249D01*
X118628466Y-125005929D01*
X118314929Y-125319466D01*
X117946249Y-125565811D01*
X117536593Y-125735496D01*
X117155880Y-125811224D01*
X117101705Y-125822000D01*
X116658295Y-125822000D01*
X116604120Y-125811224D01*
X116223407Y-125735496D01*
X115813751Y-125565811D01*
X115445071Y-125319466D01*
X115131534Y-125005929D01*
X114885189Y-124637249D01*
X114715504Y-124227593D01*
X114629000Y-123792704D01*
X114629000Y-123349296D01*
X114715504Y-122914407D01*
X114885189Y-122504751D01*
X115131534Y-122136071D01*
X115445071Y-121822534D01*
X115813751Y-121576189D01*
X116223407Y-121406504D01*
X116604120Y-121330776D01*
X116658295Y-121320000D01*
X117101705Y-121320000D01*
X117155880Y-121330776D01*
G37*
G36*
X158031000Y-120685000D02*
G01*
X137879000Y-120685000D01*
X137879000Y-118583000D01*
X158031000Y-118583000D01*
X158031000Y-120685000D01*
G37*
G36*
X133625880Y-112650776D02*
G01*
X134006593Y-112726504D01*
X134416249Y-112896189D01*
X134784929Y-113142534D01*
X135098466Y-113456071D01*
X135344811Y-113824751D01*
X135514496Y-114234407D01*
X135601000Y-114669296D01*
X135601000Y-115112704D01*
X135514496Y-115547593D01*
X135344811Y-115957249D01*
X135098466Y-116325929D01*
X134784929Y-116639466D01*
X134416249Y-116885811D01*
X134006593Y-117055496D01*
X133625880Y-117131224D01*
X133571705Y-117142000D01*
X133128295Y-117142000D01*
X133074120Y-117131224D01*
X132693407Y-117055496D01*
X132283751Y-116885811D01*
X131915071Y-116639466D01*
X131601534Y-116325929D01*
X131355189Y-115957249D01*
X131185504Y-115547593D01*
X131099000Y-115112704D01*
X131099000Y-114669296D01*
X131185504Y-114234407D01*
X131355189Y-113824751D01*
X131601534Y-113456071D01*
X131915071Y-113142534D01*
X132283751Y-112896189D01*
X132693407Y-112726504D01*
X133074120Y-112650776D01*
X133128295Y-112640000D01*
X133571705Y-112640000D01*
X133625880Y-112650776D01*
G37*
G36*
X179332321Y-114693874D02*
G01*
X179432595Y-114735409D01*
X179432596Y-114735410D01*
X179522842Y-114795710D01*
X179599590Y-114872458D01*
X179599591Y-114872460D01*
X179659891Y-114962705D01*
X179701426Y-115062979D01*
X179722600Y-115169430D01*
X179722600Y-115277970D01*
X179701426Y-115384421D01*
X179659891Y-115484695D01*
X179659890Y-115484696D01*
X179599590Y-115574942D01*
X179522842Y-115651690D01*
X179515305Y-115656726D01*
X179432595Y-115711991D01*
X179332321Y-115753526D01*
X179225870Y-115774700D01*
X179117330Y-115774700D01*
X179010879Y-115753526D01*
X178910605Y-115711991D01*
X178827895Y-115656726D01*
X178820358Y-115651690D01*
X178743610Y-115574942D01*
X178683310Y-115484696D01*
X178683309Y-115484695D01*
X178641774Y-115384421D01*
X178620600Y-115277970D01*
X178620600Y-115169430D01*
X178641774Y-115062979D01*
X178683309Y-114962705D01*
X178743609Y-114872460D01*
X178743610Y-114872458D01*
X178820358Y-114795710D01*
X178910604Y-114735410D01*
X178910605Y-114735409D01*
X179010879Y-114693874D01*
X179117330Y-114672700D01*
X179225870Y-114672700D01*
X179332321Y-114693874D01*
G37*
G36*
X118664000Y-115351000D02*
G01*
X114762000Y-115351000D01*
X114762000Y-113249000D01*
X118664000Y-113249000D01*
X118664000Y-115351000D01*
G37*
G36*
X179396321Y-112639374D02*
G01*
X179496595Y-112680909D01*
X179496596Y-112680910D01*
X179586842Y-112741210D01*
X179663590Y-112817958D01*
X179663591Y-112817960D01*
X179723891Y-112908205D01*
X179765426Y-113008479D01*
X179786600Y-113114930D01*
X179786600Y-113223470D01*
X179765426Y-113329921D01*
X179723891Y-113430195D01*
X179723890Y-113430196D01*
X179663590Y-113520442D01*
X179586842Y-113597190D01*
X179542841Y-113626590D01*
X179496595Y-113657491D01*
X179396321Y-113699026D01*
X179289870Y-113720200D01*
X179181330Y-113720200D01*
X179074879Y-113699026D01*
X178974605Y-113657491D01*
X178928359Y-113626590D01*
X178884358Y-113597190D01*
X178807610Y-113520442D01*
X178747310Y-113430196D01*
X178747309Y-113430195D01*
X178705774Y-113329921D01*
X178684600Y-113223470D01*
X178684600Y-113114930D01*
X178705774Y-113008479D01*
X178747309Y-112908205D01*
X178807609Y-112817960D01*
X178807610Y-112817958D01*
X178884358Y-112741210D01*
X178974604Y-112680910D01*
X178974605Y-112680909D01*
X179074879Y-112639374D01*
X179181330Y-112618200D01*
X179289870Y-112618200D01*
X179396321Y-112639374D01*
G37*
G36*
X125014259Y-101925165D02*
G01*
X125018933Y-101926583D01*
X125023235Y-101928882D01*
X125031774Y-101935890D01*
X125235936Y-102140052D01*
X125242944Y-102148591D01*
X125245243Y-102152893D01*
X125246661Y-102157567D01*
X125247469Y-102165769D01*
X125252251Y-102189802D01*
X125261629Y-102212441D01*
X125275243Y-102232815D01*
X125292571Y-102250141D01*
X125312945Y-102263754D01*
X125335584Y-102273131D01*
X125359610Y-102277910D01*
X125367812Y-102278718D01*
X125372486Y-102280136D01*
X125376788Y-102282435D01*
X125385327Y-102289443D01*
X125589489Y-102493605D01*
X125596497Y-102502144D01*
X125598796Y-102506446D01*
X125600214Y-102511120D01*
X125601022Y-102519322D01*
X125605803Y-102543356D01*
X125615181Y-102565994D01*
X125628796Y-102586368D01*
X125646123Y-102603695D01*
X125666498Y-102617308D01*
X125689137Y-102626685D01*
X125713164Y-102631464D01*
X125721366Y-102632272D01*
X125726040Y-102633690D01*
X125730342Y-102635989D01*
X125738881Y-102642997D01*
X125943043Y-102847159D01*
X125950051Y-102855698D01*
X125952350Y-102860000D01*
X125953768Y-102864674D01*
X125954576Y-102872876D01*
X125959358Y-102896909D01*
X125968736Y-102919548D01*
X125982350Y-102939922D01*
X125999678Y-102957248D01*
X126020052Y-102970861D01*
X126042691Y-102980238D01*
X126066717Y-102985017D01*
X126074919Y-102985825D01*
X126079593Y-102987243D01*
X126083895Y-102989542D01*
X126092434Y-102996550D01*
X126296596Y-103200712D01*
X126303604Y-103209251D01*
X126305903Y-103213553D01*
X126307321Y-103218227D01*
X126308129Y-103226429D01*
X126312910Y-103250463D01*
X126322288Y-103273101D01*
X126335903Y-103293475D01*
X126353230Y-103310802D01*
X126373605Y-103324415D01*
X126396244Y-103333792D01*
X126420270Y-103338571D01*
X126428472Y-103339379D01*
X126433146Y-103340797D01*
X126437448Y-103343096D01*
X126445987Y-103350104D01*
X126650149Y-103554266D01*
X126657157Y-103562805D01*
X126659456Y-103567107D01*
X126660874Y-103571781D01*
X126661682Y-103579983D01*
X126666464Y-103604016D01*
X126675842Y-103626655D01*
X126689456Y-103647029D01*
X126706784Y-103664355D01*
X126727158Y-103677968D01*
X126749797Y-103687345D01*
X126773824Y-103692124D01*
X126782026Y-103692932D01*
X126786700Y-103694350D01*
X126791002Y-103696649D01*
X126799541Y-103703657D01*
X127003703Y-103907819D01*
X127010711Y-103916358D01*
X127013010Y-103920660D01*
X127014428Y-103925334D01*
X127015236Y-103933536D01*
X127020018Y-103957569D01*
X127029396Y-103980208D01*
X127043010Y-104000582D01*
X127060338Y-104017908D01*
X127080712Y-104031521D01*
X127103351Y-104040898D01*
X127127377Y-104045677D01*
X127135579Y-104046485D01*
X127140253Y-104047903D01*
X127144555Y-104050202D01*
X127153094Y-104057210D01*
X127357256Y-104261372D01*
X127364264Y-104269911D01*
X127366563Y-104274213D01*
X127367981Y-104278887D01*
X127368789Y-104287089D01*
X127373570Y-104311123D01*
X127382948Y-104333761D01*
X127396563Y-104354135D01*
X127413890Y-104371462D01*
X127434265Y-104385075D01*
X127456904Y-104394452D01*
X127480930Y-104399231D01*
X127489132Y-104400039D01*
X127493806Y-104401457D01*
X127498108Y-104403756D01*
X127506647Y-104410764D01*
X127710809Y-104614926D01*
X127717817Y-104623465D01*
X127720116Y-104627767D01*
X127721534Y-104632441D01*
X127722342Y-104640643D01*
X127727124Y-104664676D01*
X127736502Y-104687315D01*
X127750116Y-104707689D01*
X127767444Y-104725015D01*
X127787818Y-104738628D01*
X127810457Y-104748005D01*
X127834484Y-104752784D01*
X127842686Y-104753592D01*
X127847360Y-104755010D01*
X127851662Y-104757309D01*
X127860201Y-104764317D01*
X128064363Y-104968479D01*
X128071371Y-104977018D01*
X128073670Y-104981320D01*
X128075088Y-104985994D01*
X128075896Y-104994196D01*
X128080678Y-105018229D01*
X128090056Y-105040868D01*
X128103670Y-105061242D01*
X128120998Y-105078568D01*
X128141372Y-105092181D01*
X128164011Y-105101558D01*
X128188037Y-105106337D01*
X128196239Y-105107145D01*
X128200913Y-105108563D01*
X128205215Y-105110862D01*
X128213754Y-105117870D01*
X128417916Y-105322032D01*
X128424924Y-105330571D01*
X128427223Y-105334873D01*
X128428641Y-105339547D01*
X128429449Y-105347749D01*
X128434230Y-105371783D01*
X128443608Y-105394421D01*
X128457223Y-105414795D01*
X128474550Y-105432122D01*
X128494925Y-105445735D01*
X128517564Y-105455112D01*
X128541591Y-105459891D01*
X128549793Y-105460699D01*
X128554467Y-105462117D01*
X128558769Y-105464416D01*
X128567308Y-105471424D01*
X128771470Y-105675586D01*
X128778478Y-105684125D01*
X128780777Y-105688427D01*
X128782195Y-105693101D01*
X128783003Y-105701303D01*
X128787785Y-105725336D01*
X128797163Y-105747975D01*
X128810777Y-105768349D01*
X128828105Y-105785675D01*
X128848479Y-105799288D01*
X128871118Y-105808665D01*
X128895144Y-105813444D01*
X128903346Y-105814252D01*
X128908020Y-105815670D01*
X128912322Y-105817969D01*
X128920861Y-105824977D01*
X129125023Y-106029139D01*
X129132031Y-106037678D01*
X129134330Y-106041980D01*
X129135748Y-106046654D01*
X129136226Y-106051509D01*
X129135748Y-106056364D01*
X129134330Y-106061038D01*
X129132031Y-106065340D01*
X129125023Y-106073879D01*
X128546352Y-106652550D01*
X128530807Y-106671492D01*
X128519256Y-106693103D01*
X128512143Y-106716552D01*
X128509741Y-106740938D01*
X128512143Y-106765324D01*
X128519256Y-106788773D01*
X128530807Y-106810384D01*
X128546352Y-106829326D01*
X129125023Y-107407997D01*
X129132031Y-107416536D01*
X129134330Y-107420838D01*
X129135748Y-107425512D01*
X129136226Y-107430367D01*
X129135748Y-107435222D01*
X129134330Y-107439896D01*
X129132031Y-107444198D01*
X129125023Y-107452737D01*
X128920861Y-107656899D01*
X128912322Y-107663907D01*
X128908020Y-107666206D01*
X128903346Y-107667624D01*
X128895144Y-107668432D01*
X128871111Y-107673214D01*
X128848472Y-107682592D01*
X128828098Y-107696206D01*
X128810772Y-107713534D01*
X128797159Y-107733908D01*
X128787782Y-107756547D01*
X128783003Y-107780573D01*
X128782195Y-107788775D01*
X128780777Y-107793449D01*
X128778478Y-107797751D01*
X128771470Y-107806290D01*
X128567308Y-108010452D01*
X128558769Y-108017460D01*
X128554467Y-108019759D01*
X128549793Y-108021177D01*
X128541591Y-108021985D01*
X128517557Y-108026766D01*
X128494919Y-108036144D01*
X128474545Y-108049759D01*
X128457218Y-108067086D01*
X128443605Y-108087461D01*
X128434228Y-108110100D01*
X128429449Y-108134127D01*
X128428641Y-108142329D01*
X128427223Y-108147003D01*
X128424924Y-108151305D01*
X128417916Y-108159844D01*
X128213754Y-108364006D01*
X128205215Y-108371014D01*
X128200913Y-108373313D01*
X128196239Y-108374731D01*
X128188037Y-108375539D01*
X128164004Y-108380321D01*
X128141365Y-108389699D01*
X128120991Y-108403313D01*
X128103665Y-108420641D01*
X128090052Y-108441015D01*
X128080675Y-108463654D01*
X128075896Y-108487680D01*
X128075088Y-108495882D01*
X128073670Y-108500556D01*
X128071371Y-108504858D01*
X128064363Y-108513397D01*
X127860201Y-108717559D01*
X127851662Y-108724567D01*
X127847360Y-108726866D01*
X127842686Y-108728284D01*
X127834484Y-108729092D01*
X127810450Y-108733873D01*
X127787812Y-108743251D01*
X127767438Y-108756866D01*
X127750111Y-108774193D01*
X127736498Y-108794568D01*
X127727121Y-108817207D01*
X127722342Y-108841233D01*
X127721534Y-108849435D01*
X127720116Y-108854109D01*
X127717817Y-108858411D01*
X127710809Y-108866950D01*
X127506647Y-109071112D01*
X127498108Y-109078120D01*
X127493806Y-109080419D01*
X127489132Y-109081837D01*
X127480930Y-109082645D01*
X127456897Y-109087427D01*
X127434258Y-109096805D01*
X127413884Y-109110419D01*
X127396558Y-109127747D01*
X127382945Y-109148121D01*
X127373568Y-109170760D01*
X127368789Y-109194787D01*
X127367981Y-109202989D01*
X127366563Y-109207663D01*
X127364264Y-109211965D01*
X127357256Y-109220504D01*
X127153094Y-109424666D01*
X127144555Y-109431674D01*
X127140253Y-109433973D01*
X127135579Y-109435391D01*
X127127377Y-109436199D01*
X127103344Y-109440981D01*
X127080705Y-109450359D01*
X127060331Y-109463973D01*
X127043005Y-109481301D01*
X127029392Y-109501675D01*
X127020015Y-109524314D01*
X127015236Y-109548340D01*
X127014428Y-109556542D01*
X127013010Y-109561216D01*
X127010711Y-109565518D01*
X127003703Y-109574057D01*
X126799541Y-109778219D01*
X126791002Y-109785227D01*
X126786700Y-109787526D01*
X126782026Y-109788944D01*
X126773824Y-109789752D01*
X126749790Y-109794533D01*
X126727152Y-109803911D01*
X126706778Y-109817526D01*
X126689451Y-109834853D01*
X126675838Y-109855228D01*
X126666461Y-109877867D01*
X126661682Y-109901893D01*
X126660874Y-109910095D01*
X126659456Y-109914769D01*
X126657157Y-109919071D01*
X126650149Y-109927610D01*
X126445987Y-110131772D01*
X126437448Y-110138780D01*
X126433146Y-110141079D01*
X126428472Y-110142497D01*
X126420270Y-110143305D01*
X126396237Y-110148087D01*
X126373598Y-110157465D01*
X126353224Y-110171079D01*
X126335898Y-110188407D01*
X126322285Y-110208781D01*
X126312908Y-110231420D01*
X126308129Y-110255447D01*
X126307321Y-110263649D01*
X126305903Y-110268323D01*
X126303604Y-110272625D01*
X126296596Y-110281164D01*
X126092434Y-110485326D01*
X126083895Y-110492334D01*
X126079593Y-110494633D01*
X126074919Y-110496051D01*
X126066717Y-110496859D01*
X126042684Y-110501641D01*
X126020045Y-110511019D01*
X125999671Y-110524633D01*
X125982345Y-110541961D01*
X125968732Y-110562335D01*
X125959355Y-110584974D01*
X125954576Y-110609000D01*
X125953768Y-110617202D01*
X125952350Y-110621876D01*
X125950051Y-110626178D01*
X125943043Y-110634717D01*
X125738881Y-110838879D01*
X125730342Y-110845887D01*
X125726040Y-110848186D01*
X125721366Y-110849604D01*
X125713164Y-110850412D01*
X125689130Y-110855193D01*
X125666492Y-110864571D01*
X125646118Y-110878186D01*
X125628791Y-110895513D01*
X125615178Y-110915888D01*
X125605801Y-110938527D01*
X125601022Y-110962554D01*
X125600214Y-110970756D01*
X125598796Y-110975430D01*
X125596497Y-110979732D01*
X125589489Y-110988271D01*
X125385327Y-111192433D01*
X125376788Y-111199441D01*
X125372486Y-111201740D01*
X125367812Y-111203158D01*
X125359610Y-111203966D01*
X125335577Y-111208748D01*
X125312938Y-111218126D01*
X125292564Y-111231740D01*
X125275238Y-111249068D01*
X125261625Y-111269442D01*
X125252248Y-111292081D01*
X125247469Y-111316107D01*
X125246661Y-111324309D01*
X125245243Y-111328983D01*
X125242944Y-111333285D01*
X125235936Y-111341824D01*
X125031774Y-111545986D01*
X125023235Y-111552994D01*
X125018933Y-111555293D01*
X125014259Y-111556711D01*
X125009404Y-111557189D01*
X125004549Y-111556711D01*
X124999875Y-111555293D01*
X124995573Y-111552994D01*
X124987034Y-111545986D01*
X124408363Y-110967315D01*
X124389421Y-110951770D01*
X124367810Y-110940219D01*
X124344361Y-110933106D01*
X124319975Y-110930704D01*
X124295589Y-110933106D01*
X124272140Y-110940219D01*
X124250529Y-110951770D01*
X124231587Y-110967315D01*
X123652916Y-111545986D01*
X123644377Y-111552994D01*
X123640075Y-111555293D01*
X123635401Y-111556711D01*
X123630546Y-111557189D01*
X123625691Y-111556711D01*
X123621017Y-111555293D01*
X123616715Y-111552994D01*
X123608176Y-111545986D01*
X123404014Y-111341824D01*
X123397006Y-111333285D01*
X123394707Y-111328983D01*
X123393289Y-111324309D01*
X123392481Y-111316107D01*
X123387699Y-111292074D01*
X123378321Y-111269435D01*
X123364707Y-111249061D01*
X123347379Y-111231735D01*
X123327005Y-111218122D01*
X123304366Y-111208745D01*
X123280340Y-111203966D01*
X123272138Y-111203158D01*
X123267464Y-111201740D01*
X123263162Y-111199441D01*
X123254623Y-111192433D01*
X123050461Y-110988271D01*
X123043453Y-110979732D01*
X123041154Y-110975430D01*
X123039736Y-110970756D01*
X123038928Y-110962554D01*
X123034147Y-110938520D01*
X123024769Y-110915882D01*
X123011154Y-110895508D01*
X122993827Y-110878181D01*
X122973452Y-110864568D01*
X122950813Y-110855191D01*
X122926786Y-110850412D01*
X122918584Y-110849604D01*
X122913910Y-110848186D01*
X122909608Y-110845887D01*
X122901069Y-110838879D01*
X122696907Y-110634717D01*
X122689899Y-110626178D01*
X122687600Y-110621876D01*
X122686182Y-110617202D01*
X122685374Y-110609000D01*
X122680592Y-110584967D01*
X122671214Y-110562328D01*
X122657600Y-110541954D01*
X122640272Y-110524628D01*
X122619898Y-110511015D01*
X122597259Y-110501638D01*
X122573233Y-110496859D01*
X122565031Y-110496051D01*
X122560357Y-110494633D01*
X122556055Y-110492334D01*
X122547516Y-110485326D01*
X122343354Y-110281164D01*
X122336346Y-110272625D01*
X122334047Y-110268323D01*
X122332629Y-110263649D01*
X122331821Y-110255447D01*
X122327040Y-110231413D01*
X122317662Y-110208775D01*
X122304047Y-110188401D01*
X122286720Y-110171074D01*
X122266345Y-110157461D01*
X122243706Y-110148084D01*
X122219680Y-110143305D01*
X122211478Y-110142497D01*
X122206804Y-110141079D01*
X122202502Y-110138780D01*
X122193963Y-110131772D01*
X121989801Y-109927610D01*
X121982793Y-109919071D01*
X121980494Y-109914769D01*
X121979076Y-109910095D01*
X121978268Y-109901893D01*
X121973486Y-109877860D01*
X121964108Y-109855221D01*
X121950494Y-109834847D01*
X121933166Y-109817521D01*
X121912792Y-109803908D01*
X121890153Y-109794531D01*
X121866126Y-109789752D01*
X121857924Y-109788944D01*
X121853250Y-109787526D01*
X121848948Y-109785227D01*
X121840409Y-109778219D01*
X121636247Y-109574057D01*
X121629239Y-109565518D01*
X121626940Y-109561216D01*
X121625522Y-109556542D01*
X121624714Y-109548340D01*
X121619932Y-109524307D01*
X121610554Y-109501668D01*
X121596940Y-109481294D01*
X121579612Y-109463968D01*
X121559238Y-109450355D01*
X121536599Y-109440978D01*
X121512573Y-109436199D01*
X121504371Y-109435391D01*
X121499697Y-109433973D01*
X121495395Y-109431674D01*
X121486856Y-109424666D01*
X121282694Y-109220504D01*
X121275686Y-109211965D01*
X121273387Y-109207663D01*
X121271969Y-109202989D01*
X121271161Y-109194787D01*
X121266380Y-109170753D01*
X121257002Y-109148115D01*
X121243387Y-109127741D01*
X121226060Y-109110414D01*
X121205685Y-109096801D01*
X121183046Y-109087424D01*
X121159020Y-109082645D01*
X121150818Y-109081837D01*
X121146144Y-109080419D01*
X121141842Y-109078120D01*
X121133303Y-109071112D01*
X120929141Y-108866950D01*
X120922133Y-108858411D01*
X120919834Y-108854109D01*
X120918416Y-108849435D01*
X120917608Y-108841233D01*
X120912826Y-108817200D01*
X120903448Y-108794561D01*
X120889834Y-108774187D01*
X120872506Y-108756861D01*
X120852132Y-108743248D01*
X120829493Y-108733871D01*
X120805466Y-108729092D01*
X120797264Y-108728284D01*
X120792590Y-108726866D01*
X120788288Y-108724567D01*
X120779749Y-108717559D01*
X120575587Y-108513397D01*
X120568579Y-108504858D01*
X120566280Y-108500556D01*
X120564862Y-108495882D01*
X120564054Y-108487680D01*
X120559272Y-108463647D01*
X120549894Y-108441008D01*
X120536280Y-108420634D01*
X120518952Y-108403308D01*
X120498578Y-108389695D01*
X120475939Y-108380318D01*
X120451913Y-108375539D01*
X120443711Y-108374731D01*
X120439037Y-108373313D01*
X120434735Y-108371014D01*
X120426196Y-108364006D01*
X120222034Y-108159844D01*
X120215026Y-108151305D01*
X120212727Y-108147003D01*
X120211309Y-108142329D01*
X120210501Y-108134127D01*
X120205720Y-108110093D01*
X120196342Y-108087455D01*
X120182727Y-108067081D01*
X120165400Y-108049754D01*
X120145025Y-108036141D01*
X120122386Y-108026764D01*
X120098359Y-108021985D01*
X120090157Y-108021177D01*
X120085483Y-108019759D01*
X120081181Y-108017460D01*
X120072642Y-108010452D01*
X119868480Y-107806290D01*
X119861472Y-107797751D01*
X119859173Y-107793449D01*
X119857755Y-107788775D01*
X119856947Y-107780573D01*
X119852165Y-107756540D01*
X119842787Y-107733901D01*
X119829173Y-107713527D01*
X119811845Y-107696201D01*
X119791471Y-107682588D01*
X119768832Y-107673211D01*
X119744806Y-107668432D01*
X119736604Y-107667624D01*
X119731930Y-107666206D01*
X119727628Y-107663907D01*
X119719089Y-107656899D01*
X119514927Y-107452737D01*
X119507919Y-107444198D01*
X119505620Y-107439896D01*
X119504202Y-107435222D01*
X119503724Y-107430367D01*
X119504202Y-107425512D01*
X119505620Y-107420838D01*
X119507919Y-107416536D01*
X119514927Y-107407997D01*
X120093598Y-106829326D01*
X120109143Y-106810384D01*
X120120694Y-106788773D01*
X120127807Y-106765324D01*
X120130209Y-106740938D01*
X120130525Y-106740938D01*
X120132927Y-106765324D01*
X120140040Y-106788773D01*
X120151591Y-106810384D01*
X120167136Y-106829326D01*
X120356899Y-107019089D01*
X120363907Y-107027628D01*
X120366206Y-107031930D01*
X120367624Y-107036604D01*
X120368432Y-107044806D01*
X120373214Y-107068839D01*
X120382592Y-107091478D01*
X120396206Y-107111852D01*
X120413534Y-107129178D01*
X120433908Y-107142791D01*
X120456547Y-107152168D01*
X120480573Y-107156947D01*
X120488775Y-107157755D01*
X120493449Y-107159173D01*
X120497751Y-107161472D01*
X120506290Y-107168480D01*
X120710452Y-107372642D01*
X120717460Y-107381181D01*
X120719759Y-107385483D01*
X120721177Y-107390157D01*
X120721985Y-107398359D01*
X120726766Y-107422393D01*
X120736144Y-107445031D01*
X120749759Y-107465405D01*
X120767086Y-107482732D01*
X120787461Y-107496345D01*
X120810100Y-107505722D01*
X120834127Y-107510501D01*
X120842329Y-107511309D01*
X120847003Y-107512727D01*
X120851305Y-107515026D01*
X120859844Y-107522034D01*
X121064006Y-107726196D01*
X121071014Y-107734735D01*
X121073313Y-107739037D01*
X121074731Y-107743711D01*
X121075539Y-107751913D01*
X121080321Y-107775946D01*
X121089699Y-107798585D01*
X121103313Y-107818959D01*
X121120641Y-107836285D01*
X121141015Y-107849898D01*
X121163654Y-107859275D01*
X121187680Y-107864054D01*
X121195882Y-107864862D01*
X121200556Y-107866280D01*
X121204858Y-107868579D01*
X121213397Y-107875587D01*
X121417559Y-108079749D01*
X121424567Y-108088288D01*
X121426866Y-108092590D01*
X121428284Y-108097264D01*
X121429092Y-108105466D01*
X121433874Y-108129499D01*
X121443252Y-108152138D01*
X121456866Y-108172512D01*
X121474194Y-108189838D01*
X121494568Y-108203451D01*
X121517207Y-108212828D01*
X121541234Y-108217607D01*
X121549436Y-108218415D01*
X121554110Y-108219833D01*
X121558412Y-108222132D01*
X121566951Y-108229140D01*
X121771113Y-108433302D01*
X121778121Y-108441841D01*
X121780420Y-108446143D01*
X121781838Y-108450817D01*
X121782646Y-108459019D01*
X121787427Y-108483053D01*
X121796805Y-108505691D01*
X121810420Y-108526065D01*
X121827747Y-108543392D01*
X121848122Y-108557005D01*
X121870761Y-108566382D01*
X121894787Y-108571161D01*
X121902989Y-108571969D01*
X121907663Y-108573387D01*
X121911965Y-108575686D01*
X121920504Y-108582694D01*
X122124666Y-108786856D01*
X122131674Y-108795395D01*
X122133973Y-108799697D01*
X122135391Y-108804371D01*
X122136199Y-108812573D01*
X122140981Y-108836606D01*
X122150359Y-108859245D01*
X122163973Y-108879619D01*
X122181301Y-108896945D01*
X122201675Y-108910558D01*
X122224314Y-108919935D01*
X122248340Y-108924714D01*
X122256542Y-108925522D01*
X122261216Y-108926940D01*
X122265518Y-108929239D01*
X122274057Y-108936247D01*
X122478219Y-109140409D01*
X122485227Y-109148948D01*
X122487526Y-109153250D01*
X122488944Y-109157924D01*
X122489752Y-109166126D01*
X122494534Y-109190159D01*
X122503912Y-109212798D01*
X122517526Y-109233172D01*
X122534854Y-109250498D01*
X122555228Y-109264111D01*
X122577867Y-109273488D01*
X122601894Y-109278267D01*
X122610096Y-109279075D01*
X122614770Y-109280493D01*
X122619072Y-109282792D01*
X122627611Y-109289800D01*
X122831773Y-109493962D01*
X122838781Y-109502501D01*
X122841080Y-109506803D01*
X122842498Y-109511477D01*
X122843306Y-109519679D01*
X122848087Y-109543713D01*
X122857465Y-109566351D01*
X122871080Y-109586725D01*
X122888407Y-109604052D01*
X122908782Y-109617665D01*
X122931421Y-109627042D01*
X122955447Y-109631821D01*
X122963649Y-109632629D01*
X122968323Y-109634047D01*
X122972625Y-109636346D01*
X122981164Y-109643354D01*
X123185326Y-109847516D01*
X123192334Y-109856055D01*
X123194633Y-109860357D01*
X123196051Y-109865031D01*
X123196859Y-109873233D01*
X123201641Y-109897266D01*
X123211019Y-109919905D01*
X123224633Y-109940279D01*
X123241961Y-109957605D01*
X123262335Y-109971218D01*
X123284974Y-109980595D01*
X123309000Y-109985374D01*
X123317202Y-109986182D01*
X123321876Y-109987600D01*
X123326178Y-109989899D01*
X123334717Y-109996907D01*
X123538879Y-110201069D01*
X123545887Y-110209608D01*
X123548186Y-110213910D01*
X123549604Y-110218584D01*
X123550412Y-110226786D01*
X123555193Y-110250820D01*
X123564571Y-110273458D01*
X123578186Y-110293832D01*
X123595513Y-110311159D01*
X123615888Y-110324772D01*
X123638527Y-110334149D01*
X123662554Y-110338928D01*
X123670756Y-110339736D01*
X123675430Y-110341154D01*
X123679732Y-110343453D01*
X123688271Y-110350461D01*
X123892433Y-110554623D01*
X123899441Y-110563162D01*
X123901740Y-110567464D01*
X123903158Y-110572138D01*
X123903966Y-110580340D01*
X123908748Y-110604373D01*
X123918126Y-110627012D01*
X123931740Y-110647386D01*
X123949068Y-110664712D01*
X123969442Y-110678325D01*
X123992081Y-110687702D01*
X124016107Y-110692481D01*
X124024309Y-110693289D01*
X124028983Y-110694707D01*
X124033285Y-110697006D01*
X124041824Y-110704014D01*
X124231587Y-110893777D01*
X124250529Y-110909322D01*
X124272140Y-110920873D01*
X124295589Y-110927986D01*
X124319975Y-110930388D01*
X124344361Y-110927986D01*
X124367810Y-110920873D01*
X124389421Y-110909322D01*
X124408363Y-110893777D01*
X124598126Y-110704014D01*
X124606665Y-110697006D01*
X124610967Y-110694707D01*
X124615641Y-110693289D01*
X124623843Y-110692481D01*
X124647876Y-110687699D01*
X124670515Y-110678321D01*
X124690889Y-110664707D01*
X124708215Y-110647379D01*
X124721828Y-110627005D01*
X124731205Y-110604366D01*
X124735984Y-110580340D01*
X124736792Y-110572138D01*
X124738210Y-110567464D01*
X124740509Y-110563162D01*
X124747517Y-110554623D01*
X124951679Y-110350461D01*
X124960218Y-110343453D01*
X124964520Y-110341154D01*
X124969194Y-110339736D01*
X124977396Y-110338928D01*
X125001430Y-110334147D01*
X125024068Y-110324769D01*
X125044442Y-110311154D01*
X125061769Y-110293827D01*
X125075382Y-110273452D01*
X125084759Y-110250813D01*
X125089538Y-110226786D01*
X125090346Y-110218584D01*
X125091764Y-110213910D01*
X125094063Y-110209608D01*
X125101071Y-110201069D01*
X125305233Y-109996907D01*
X125313772Y-109989899D01*
X125318074Y-109987600D01*
X125322748Y-109986182D01*
X125330950Y-109985374D01*
X125354983Y-109980592D01*
X125377622Y-109971214D01*
X125397996Y-109957600D01*
X125415322Y-109940272D01*
X125428935Y-109919898D01*
X125438312Y-109897259D01*
X125443091Y-109873233D01*
X125443899Y-109865031D01*
X125445317Y-109860357D01*
X125447616Y-109856055D01*
X125454624Y-109847516D01*
X125658786Y-109643354D01*
X125667325Y-109636346D01*
X125671627Y-109634047D01*
X125676301Y-109632629D01*
X125684503Y-109631821D01*
X125708536Y-109627039D01*
X125731175Y-109617661D01*
X125751549Y-109604047D01*
X125768875Y-109586719D01*
X125782488Y-109566345D01*
X125791865Y-109543706D01*
X125796644Y-109519679D01*
X125797452Y-109511477D01*
X125798870Y-109506803D01*
X125801169Y-109502501D01*
X125808177Y-109493962D01*
X126012339Y-109289800D01*
X126020878Y-109282792D01*
X126025180Y-109280493D01*
X126029854Y-109279075D01*
X126038056Y-109278267D01*
X126062090Y-109273486D01*
X126084728Y-109264108D01*
X126105102Y-109250493D01*
X126122429Y-109233166D01*
X126136042Y-109212791D01*
X126145419Y-109190152D01*
X126150198Y-109166126D01*
X126151006Y-109157924D01*
X126152424Y-109153250D01*
X126154723Y-109148948D01*
X126161731Y-109140409D01*
X126365893Y-108936247D01*
X126374432Y-108929239D01*
X126378734Y-108926940D01*
X126383408Y-108925522D01*
X126391610Y-108924714D01*
X126415643Y-108919932D01*
X126438282Y-108910554D01*
X126458656Y-108896940D01*
X126475982Y-108879612D01*
X126489595Y-108859238D01*
X126498972Y-108836599D01*
X126503751Y-108812573D01*
X126504559Y-108804371D01*
X126505977Y-108799697D01*
X126508276Y-108795395D01*
X126515284Y-108786856D01*
X126719446Y-108582694D01*
X126727985Y-108575686D01*
X126732287Y-108573387D01*
X126736961Y-108571969D01*
X126745163Y-108571161D01*
X126769196Y-108566379D01*
X126791835Y-108557001D01*
X126812209Y-108543387D01*
X126829535Y-108526059D01*
X126843148Y-108505685D01*
X126852525Y-108483046D01*
X126857304Y-108459019D01*
X126858112Y-108450817D01*
X126859530Y-108446143D01*
X126861829Y-108441841D01*
X126868837Y-108433302D01*
X127072999Y-108229140D01*
X127081538Y-108222132D01*
X127085840Y-108219833D01*
X127090514Y-108218415D01*
X127098716Y-108217607D01*
X127122750Y-108212826D01*
X127145388Y-108203448D01*
X127165762Y-108189833D01*
X127183089Y-108172506D01*
X127196702Y-108152131D01*
X127206079Y-108129492D01*
X127210858Y-108105466D01*
X127211666Y-108097264D01*
X127213084Y-108092590D01*
X127215383Y-108088288D01*
X127222391Y-108079749D01*
X127426553Y-107875587D01*
X127435092Y-107868579D01*
X127439394Y-107866280D01*
X127444068Y-107864862D01*
X127452270Y-107864054D01*
X127476303Y-107859272D01*
X127498942Y-107849894D01*
X127519316Y-107836280D01*
X127536642Y-107818952D01*
X127550255Y-107798578D01*
X127559632Y-107775939D01*
X127564411Y-107751913D01*
X127565219Y-107743711D01*
X127566637Y-107739037D01*
X127568936Y-107734735D01*
X127575944Y-107726196D01*
X127780106Y-107522034D01*
X127788645Y-107515026D01*
X127792947Y-107512727D01*
X127797621Y-107511309D01*
X127805823Y-107510501D01*
X127829857Y-107505720D01*
X127852495Y-107496342D01*
X127872869Y-107482727D01*
X127890196Y-107465400D01*
X127903809Y-107445025D01*
X127913186Y-107422386D01*
X127917965Y-107398359D01*
X127918773Y-107390157D01*
X127920191Y-107385483D01*
X127922490Y-107381181D01*
X127929498Y-107372642D01*
X128133660Y-107168480D01*
X128142199Y-107161472D01*
X128146501Y-107159173D01*
X128151175Y-107157755D01*
X128159377Y-107156947D01*
X128183410Y-107152165D01*
X128206049Y-107142787D01*
X128226423Y-107129173D01*
X128243749Y-107111845D01*
X128257362Y-107091471D01*
X128266739Y-107068832D01*
X128271518Y-107044806D01*
X128272326Y-107036604D01*
X128273744Y-107031930D01*
X128276043Y-107027628D01*
X128283051Y-107019089D01*
X128472814Y-106829326D01*
X128488359Y-106810384D01*
X128499910Y-106788773D01*
X128507023Y-106765324D01*
X128509425Y-106740938D01*
X128507023Y-106716552D01*
X128499910Y-106693103D01*
X128488359Y-106671492D01*
X128472814Y-106652550D01*
X128283051Y-106462787D01*
X128276043Y-106454248D01*
X128273744Y-106449946D01*
X128272326Y-106445272D01*
X128271518Y-106437070D01*
X128266736Y-106413037D01*
X128257358Y-106390398D01*
X128243744Y-106370024D01*
X128226416Y-106352698D01*
X128206042Y-106339085D01*
X128183403Y-106329708D01*
X128159377Y-106324929D01*
X128151175Y-106324121D01*
X128146501Y-106322703D01*
X128142199Y-106320404D01*
X128133660Y-106313396D01*
X127929498Y-106109234D01*
X127922490Y-106100695D01*
X127920191Y-106096393D01*
X127918773Y-106091719D01*
X127917965Y-106083517D01*
X127913184Y-106059483D01*
X127903806Y-106036845D01*
X127890191Y-106016471D01*
X127872864Y-105999144D01*
X127852489Y-105985531D01*
X127829850Y-105976154D01*
X127805823Y-105971375D01*
X127797621Y-105970567D01*
X127792947Y-105969149D01*
X127788645Y-105966850D01*
X127780106Y-105959842D01*
X127575944Y-105755680D01*
X127568936Y-105747141D01*
X127566637Y-105742839D01*
X127565219Y-105738165D01*
X127564411Y-105729963D01*
X127559629Y-105705930D01*
X127550251Y-105683291D01*
X127536637Y-105662917D01*
X127519309Y-105645591D01*
X127498935Y-105631978D01*
X127476296Y-105622601D01*
X127452270Y-105617822D01*
X127444068Y-105617014D01*
X127439394Y-105615596D01*
X127435092Y-105613297D01*
X127426553Y-105606289D01*
X127222391Y-105402127D01*
X127215383Y-105393588D01*
X127213084Y-105389286D01*
X127211666Y-105384612D01*
X127210858Y-105376410D01*
X127206076Y-105352377D01*
X127196698Y-105329738D01*
X127183084Y-105309364D01*
X127165756Y-105292038D01*
X127145382Y-105278425D01*
X127122743Y-105269048D01*
X127098716Y-105264269D01*
X127090514Y-105263461D01*
X127085840Y-105262043D01*
X127081538Y-105259744D01*
X127072999Y-105252736D01*
X126868837Y-105048574D01*
X126861829Y-105040035D01*
X126859530Y-105035733D01*
X126858112Y-105031059D01*
X126857304Y-105022857D01*
X126852523Y-104998823D01*
X126843145Y-104976185D01*
X126829530Y-104955811D01*
X126812203Y-104938484D01*
X126791828Y-104924871D01*
X126769189Y-104915494D01*
X126745163Y-104910715D01*
X126736961Y-104909907D01*
X126732287Y-104908489D01*
X126727985Y-104906190D01*
X126719446Y-104899182D01*
X126515284Y-104695020D01*
X126508276Y-104686481D01*
X126505977Y-104682179D01*
X126504559Y-104677505D01*
X126503751Y-104669303D01*
X126498969Y-104645270D01*
X126489591Y-104622631D01*
X126475977Y-104602257D01*
X126458649Y-104584931D01*
X126438275Y-104571318D01*
X126415636Y-104561941D01*
X126391610Y-104557162D01*
X126383408Y-104556354D01*
X126378734Y-104554936D01*
X126374432Y-104552637D01*
X126365893Y-104545629D01*
X126161731Y-104341467D01*
X126154723Y-104332928D01*
X126152424Y-104328626D01*
X126151006Y-104323952D01*
X126150198Y-104315750D01*
X126145416Y-104291717D01*
X126136038Y-104269078D01*
X126122424Y-104248704D01*
X126105096Y-104231378D01*
X126084722Y-104217765D01*
X126062083Y-104208388D01*
X126038056Y-104203609D01*
X126029854Y-104202801D01*
X126025180Y-104201383D01*
X126020878Y-104199084D01*
X126012339Y-104192076D01*
X125808177Y-103987914D01*
X125801169Y-103979375D01*
X125798870Y-103975073D01*
X125797452Y-103970399D01*
X125796644Y-103962197D01*
X125791863Y-103938163D01*
X125782485Y-103915525D01*
X125768870Y-103895151D01*
X125751543Y-103877824D01*
X125731168Y-103864211D01*
X125708529Y-103854834D01*
X125684503Y-103850055D01*
X125676301Y-103849247D01*
X125671627Y-103847829D01*
X125667325Y-103845530D01*
X125658786Y-103838522D01*
X125454624Y-103634360D01*
X125447616Y-103625821D01*
X125445317Y-103621519D01*
X125443899Y-103616845D01*
X125443091Y-103608643D01*
X125438309Y-103584610D01*
X125428931Y-103561971D01*
X125415317Y-103541597D01*
X125397989Y-103524271D01*
X125377615Y-103510658D01*
X125354976Y-103501281D01*
X125330950Y-103496502D01*
X125322748Y-103495694D01*
X125318074Y-103494276D01*
X125313772Y-103491977D01*
X125305233Y-103484969D01*
X125101071Y-103280807D01*
X125094063Y-103272268D01*
X125091764Y-103267966D01*
X125090346Y-103263292D01*
X125089538Y-103255090D01*
X125084757Y-103231056D01*
X125075379Y-103208418D01*
X125061764Y-103188044D01*
X125044437Y-103170717D01*
X125024062Y-103157104D01*
X125001423Y-103147727D01*
X124977396Y-103142948D01*
X124969194Y-103142140D01*
X124964520Y-103140722D01*
X124960218Y-103138423D01*
X124951679Y-103131415D01*
X124747517Y-102927253D01*
X124740509Y-102918714D01*
X124738210Y-102914412D01*
X124736792Y-102909738D01*
X124735984Y-102901536D01*
X124731202Y-102877503D01*
X124721824Y-102854864D01*
X124708210Y-102834490D01*
X124690882Y-102817164D01*
X124670508Y-102803551D01*
X124647869Y-102794174D01*
X124623843Y-102789395D01*
X124615641Y-102788587D01*
X124610967Y-102787169D01*
X124606665Y-102784870D01*
X124598126Y-102777862D01*
X124408363Y-102588099D01*
X124389421Y-102572554D01*
X124367810Y-102561003D01*
X124344361Y-102553890D01*
X124319975Y-102551488D01*
X124295589Y-102553890D01*
X124272140Y-102561003D01*
X124250529Y-102572554D01*
X124231587Y-102588099D01*
X124041824Y-102777862D01*
X124033285Y-102784870D01*
X124028983Y-102787169D01*
X124024309Y-102788587D01*
X124016107Y-102789395D01*
X123992074Y-102794177D01*
X123969435Y-102803555D01*
X123949061Y-102817169D01*
X123931735Y-102834497D01*
X123918122Y-102854871D01*
X123908745Y-102877510D01*
X123903966Y-102901536D01*
X123903158Y-102909738D01*
X123901740Y-102914412D01*
X123899441Y-102918714D01*
X123892433Y-102927253D01*
X123688271Y-103131415D01*
X123679732Y-103138423D01*
X123675430Y-103140722D01*
X123670756Y-103142140D01*
X123662554Y-103142948D01*
X123638520Y-103147729D01*
X123615882Y-103157107D01*
X123595508Y-103170722D01*
X123578181Y-103188049D01*
X123564568Y-103208424D01*
X123555191Y-103231063D01*
X123550412Y-103255090D01*
X123549604Y-103263292D01*
X123548186Y-103267966D01*
X123545887Y-103272268D01*
X123538879Y-103280807D01*
X123334717Y-103484969D01*
X123326178Y-103491977D01*
X123321876Y-103494276D01*
X123317202Y-103495694D01*
X123309000Y-103496502D01*
X123284967Y-103501284D01*
X123262328Y-103510662D01*
X123241954Y-103524276D01*
X123224628Y-103541604D01*
X123211015Y-103561978D01*
X123201638Y-103584617D01*
X123196859Y-103608643D01*
X123196051Y-103616845D01*
X123194633Y-103621519D01*
X123192334Y-103625821D01*
X123185326Y-103634360D01*
X122981164Y-103838522D01*
X122972625Y-103845530D01*
X122968323Y-103847829D01*
X122963649Y-103849247D01*
X122955447Y-103850055D01*
X122931414Y-103854837D01*
X122908775Y-103864215D01*
X122888401Y-103877829D01*
X122871075Y-103895157D01*
X122857462Y-103915531D01*
X122848085Y-103938170D01*
X122843306Y-103962197D01*
X122842498Y-103970399D01*
X122841080Y-103975073D01*
X122838781Y-103979375D01*
X122831773Y-103987914D01*
X122627611Y-104192076D01*
X122619072Y-104199084D01*
X122614770Y-104201383D01*
X122610096Y-104202801D01*
X122601894Y-104203609D01*
X122577860Y-104208390D01*
X122555222Y-104217768D01*
X122534848Y-104231383D01*
X122517521Y-104248710D01*
X122503908Y-104269085D01*
X122494531Y-104291724D01*
X122489752Y-104315750D01*
X122488944Y-104323952D01*
X122487526Y-104328626D01*
X122485227Y-104332928D01*
X122478219Y-104341467D01*
X122274057Y-104545629D01*
X122265518Y-104552637D01*
X122261216Y-104554936D01*
X122256542Y-104556354D01*
X122248340Y-104557162D01*
X122224307Y-104561944D01*
X122201668Y-104571322D01*
X122181294Y-104584936D01*
X122163968Y-104602264D01*
X122150355Y-104622638D01*
X122140978Y-104645277D01*
X122136199Y-104669303D01*
X122135391Y-104677505D01*
X122133973Y-104682179D01*
X122131674Y-104686481D01*
X122124666Y-104695020D01*
X121920504Y-104899182D01*
X121911965Y-104906190D01*
X121907663Y-104908489D01*
X121902989Y-104909907D01*
X121894787Y-104910715D01*
X121870754Y-104915497D01*
X121848115Y-104924875D01*
X121827741Y-104938489D01*
X121810415Y-104955817D01*
X121796802Y-104976191D01*
X121787425Y-104998830D01*
X121782646Y-105022857D01*
X121781838Y-105031059D01*
X121780420Y-105035733D01*
X121778121Y-105040035D01*
X121771113Y-105048574D01*
X121566951Y-105252736D01*
X121558412Y-105259744D01*
X121554110Y-105262043D01*
X121549436Y-105263461D01*
X121541234Y-105264269D01*
X121517200Y-105269050D01*
X121494562Y-105278428D01*
X121474188Y-105292043D01*
X121456861Y-105309370D01*
X121443248Y-105329745D01*
X121433871Y-105352384D01*
X121429092Y-105376410D01*
X121428284Y-105384612D01*
X121426866Y-105389286D01*
X121424567Y-105393588D01*
X121417559Y-105402127D01*
X121213397Y-105606289D01*
X121204858Y-105613297D01*
X121200556Y-105615596D01*
X121195882Y-105617014D01*
X121187680Y-105617822D01*
X121163647Y-105622604D01*
X121141008Y-105631982D01*
X121120634Y-105645596D01*
X121103308Y-105662924D01*
X121089695Y-105683298D01*
X121080318Y-105705937D01*
X121075539Y-105729963D01*
X121074731Y-105738165D01*
X121073313Y-105742839D01*
X121071014Y-105747141D01*
X121064006Y-105755680D01*
X120859844Y-105959842D01*
X120851305Y-105966850D01*
X120847003Y-105969149D01*
X120842329Y-105970567D01*
X120834127Y-105971375D01*
X120810093Y-105976156D01*
X120787455Y-105985534D01*
X120767081Y-105999149D01*
X120749754Y-106016476D01*
X120736141Y-106036851D01*
X120726764Y-106059490D01*
X120721985Y-106083517D01*
X120721177Y-106091719D01*
X120719759Y-106096393D01*
X120717460Y-106100695D01*
X120710452Y-106109234D01*
X120506290Y-106313396D01*
X120497751Y-106320404D01*
X120493449Y-106322703D01*
X120488775Y-106324121D01*
X120480573Y-106324929D01*
X120456540Y-106329711D01*
X120433901Y-106339089D01*
X120413527Y-106352703D01*
X120396201Y-106370031D01*
X120382588Y-106390405D01*
X120373211Y-106413044D01*
X120368432Y-106437070D01*
X120367624Y-106445272D01*
X120366206Y-106449946D01*
X120363907Y-106454248D01*
X120356899Y-106462787D01*
X120167136Y-106652550D01*
X120151591Y-106671492D01*
X120140040Y-106693103D01*
X120132927Y-106716552D01*
X120130525Y-106740938D01*
X120130209Y-106740938D01*
X120127807Y-106716552D01*
X120120694Y-106693103D01*
X120109143Y-106671492D01*
X120093598Y-106652550D01*
X119514927Y-106073879D01*
X119507919Y-106065340D01*
X119505620Y-106061038D01*
X119504202Y-106056364D01*
X119503724Y-106051509D01*
X119504202Y-106046654D01*
X119505620Y-106041980D01*
X119507919Y-106037678D01*
X119514927Y-106029139D01*
X119719089Y-105824977D01*
X119727628Y-105817969D01*
X119731930Y-105815670D01*
X119736604Y-105814252D01*
X119744806Y-105813444D01*
X119768839Y-105808662D01*
X119791478Y-105799284D01*
X119811852Y-105785670D01*
X119829178Y-105768342D01*
X119842791Y-105747968D01*
X119852168Y-105725329D01*
X119856947Y-105701303D01*
X119857755Y-105693101D01*
X119859173Y-105688427D01*
X119861472Y-105684125D01*
X119868480Y-105675586D01*
X120072642Y-105471424D01*
X120081181Y-105464416D01*
X120085483Y-105462117D01*
X120090157Y-105460699D01*
X120098359Y-105459891D01*
X120122393Y-105455110D01*
X120145031Y-105445732D01*
X120165405Y-105432117D01*
X120182732Y-105414790D01*
X120196345Y-105394415D01*
X120205722Y-105371776D01*
X120210501Y-105347749D01*
X120211309Y-105339547D01*
X120212727Y-105334873D01*
X120215026Y-105330571D01*
X120222034Y-105322032D01*
X120426196Y-105117870D01*
X120434735Y-105110862D01*
X120439037Y-105108563D01*
X120443711Y-105107145D01*
X120451913Y-105106337D01*
X120475946Y-105101555D01*
X120498585Y-105092177D01*
X120518959Y-105078563D01*
X120536285Y-105061235D01*
X120549898Y-105040861D01*
X120559275Y-105018222D01*
X120564054Y-104994196D01*
X120564862Y-104985994D01*
X120566280Y-104981320D01*
X120568579Y-104977018D01*
X120575587Y-104968479D01*
X120779749Y-104764317D01*
X120788288Y-104757309D01*
X120792590Y-104755010D01*
X120797264Y-104753592D01*
X120805466Y-104752784D01*
X120829500Y-104748003D01*
X120852138Y-104738625D01*
X120872512Y-104725010D01*
X120889839Y-104707683D01*
X120903452Y-104687308D01*
X120912829Y-104664669D01*
X120917608Y-104640643D01*
X120918416Y-104632441D01*
X120919834Y-104627767D01*
X120922133Y-104623465D01*
X120929141Y-104614926D01*
X121133303Y-104410764D01*
X121141842Y-104403756D01*
X121146144Y-104401457D01*
X121150818Y-104400039D01*
X121159020Y-104399231D01*
X121183053Y-104394449D01*
X121205692Y-104385071D01*
X121226066Y-104371457D01*
X121243392Y-104354129D01*
X121257005Y-104333755D01*
X121266382Y-104311116D01*
X121271161Y-104287089D01*
X121271969Y-104278887D01*
X121273387Y-104274213D01*
X121275686Y-104269911D01*
X121282694Y-104261372D01*
X121486856Y-104057210D01*
X121495395Y-104050202D01*
X121499697Y-104047903D01*
X121504371Y-104046485D01*
X121512573Y-104045677D01*
X121536606Y-104040895D01*
X121559245Y-104031517D01*
X121579619Y-104017903D01*
X121596945Y-104000575D01*
X121610558Y-103980201D01*
X121619935Y-103957562D01*
X121624714Y-103933536D01*
X121625522Y-103925334D01*
X121626940Y-103920660D01*
X121629239Y-103916358D01*
X121636247Y-103907819D01*
X121840409Y-103703657D01*
X121848948Y-103696649D01*
X121853250Y-103694350D01*
X121857924Y-103692932D01*
X121866126Y-103692124D01*
X121890160Y-103687343D01*
X121912798Y-103677965D01*
X121933172Y-103664350D01*
X121950499Y-103647023D01*
X121964112Y-103626648D01*
X121973489Y-103604009D01*
X121978268Y-103579983D01*
X121979076Y-103571781D01*
X121980494Y-103567107D01*
X121982793Y-103562805D01*
X121989801Y-103554266D01*
X122193963Y-103350104D01*
X122202502Y-103343096D01*
X122206804Y-103340797D01*
X122211478Y-103339379D01*
X122219680Y-103338571D01*
X122243713Y-103333789D01*
X122266352Y-103324411D01*
X122286726Y-103310797D01*
X122304052Y-103293469D01*
X122317665Y-103273095D01*
X122327042Y-103250456D01*
X122331821Y-103226429D01*
X122332629Y-103218227D01*
X122334047Y-103213553D01*
X122336346Y-103209251D01*
X122343354Y-103200712D01*
X122547516Y-102996550D01*
X122556055Y-102989542D01*
X122560357Y-102987243D01*
X122565031Y-102985825D01*
X122573233Y-102985017D01*
X122597266Y-102980235D01*
X122619905Y-102970857D01*
X122640279Y-102957243D01*
X122657605Y-102939915D01*
X122671218Y-102919541D01*
X122680595Y-102896902D01*
X122685374Y-102872876D01*
X122686182Y-102864674D01*
X122687600Y-102860000D01*
X122689899Y-102855698D01*
X122696907Y-102847159D01*
X122901069Y-102642997D01*
X122909608Y-102635989D01*
X122913910Y-102633690D01*
X122918584Y-102632272D01*
X122926786Y-102631464D01*
X122950820Y-102626683D01*
X122973458Y-102617305D01*
X122993832Y-102603690D01*
X123011159Y-102586363D01*
X123024772Y-102565988D01*
X123034149Y-102543349D01*
X123038928Y-102519322D01*
X123039736Y-102511120D01*
X123041154Y-102506446D01*
X123043453Y-102502144D01*
X123050461Y-102493605D01*
X123254623Y-102289443D01*
X123263162Y-102282435D01*
X123267464Y-102280136D01*
X123272138Y-102278718D01*
X123280340Y-102277910D01*
X123304373Y-102273128D01*
X123327012Y-102263750D01*
X123347386Y-102250136D01*
X123364712Y-102232808D01*
X123378325Y-102212434D01*
X123387702Y-102189795D01*
X123392481Y-102165769D01*
X123393289Y-102157567D01*
X123394707Y-102152893D01*
X123397006Y-102148591D01*
X123404014Y-102140052D01*
X123608176Y-101935890D01*
X123616715Y-101928882D01*
X123621017Y-101926583D01*
X123625691Y-101925165D01*
X123630546Y-101924687D01*
X123635401Y-101925165D01*
X123640075Y-101926583D01*
X123644377Y-101928882D01*
X123652916Y-101935890D01*
X124231587Y-102514561D01*
X124250529Y-102530106D01*
X124272140Y-102541657D01*
X124295589Y-102548770D01*
X124319975Y-102551172D01*
X124344361Y-102548770D01*
X124367810Y-102541657D01*
X124389421Y-102530106D01*
X124408363Y-102514561D01*
X124987034Y-101935890D01*
X124995573Y-101928882D01*
X124999875Y-101926583D01*
X125004549Y-101925165D01*
X125009404Y-101924687D01*
X125014259Y-101925165D01*
G37*
G36*
X124348429Y-103833751D02*
G01*
X124375797Y-103842053D01*
X124401010Y-103855530D01*
X124427881Y-103877582D01*
X124501145Y-103950846D01*
X124501151Y-103950851D01*
X127110062Y-106559762D01*
X127110067Y-106559768D01*
X127183331Y-106633032D01*
X127205383Y-106659903D01*
X127218860Y-106685116D01*
X127227162Y-106712484D01*
X127229964Y-106740938D01*
X127227162Y-106769392D01*
X127218860Y-106796760D01*
X127205383Y-106821973D01*
X127183331Y-106848844D01*
X127110067Y-106922108D01*
X127110062Y-106922114D01*
X124501151Y-109531025D01*
X124501145Y-109531030D01*
X124427881Y-109604294D01*
X124401010Y-109626346D01*
X124375797Y-109639823D01*
X124348429Y-109648125D01*
X124319975Y-109650927D01*
X124291521Y-109648125D01*
X124264153Y-109639823D01*
X124238940Y-109626346D01*
X124212069Y-109604294D01*
X124138805Y-109531030D01*
X124138799Y-109531025D01*
X121529888Y-106922114D01*
X121529883Y-106922108D01*
X121456619Y-106848844D01*
X121434567Y-106821973D01*
X121421090Y-106796760D01*
X121412788Y-106769392D01*
X121409986Y-106740938D01*
X121412788Y-106712484D01*
X121421090Y-106685116D01*
X121434567Y-106659903D01*
X121456619Y-106633032D01*
X121529883Y-106559768D01*
X121529888Y-106559762D01*
X124138799Y-103950851D01*
X124138805Y-103950846D01*
X124212069Y-103877582D01*
X124238940Y-103855530D01*
X124264153Y-103842053D01*
X124291521Y-103833751D01*
X124319975Y-103830949D01*
X124348429Y-103833751D01*
G37*
G36*
X133756938Y-110756716D02*
G01*
X133777557Y-110762971D01*
X133796553Y-110773124D01*
X133813208Y-110786792D01*
X133826876Y-110803447D01*
X133837029Y-110822443D01*
X133843284Y-110843062D01*
X133846000Y-110870640D01*
X133846000Y-111379360D01*
X133843284Y-111406938D01*
X133837029Y-111427557D01*
X133826876Y-111446553D01*
X133813208Y-111463208D01*
X133796553Y-111476876D01*
X133777557Y-111487029D01*
X133756938Y-111493284D01*
X133729360Y-111496000D01*
X133270640Y-111496000D01*
X133243062Y-111493284D01*
X133222443Y-111487029D01*
X133203447Y-111476876D01*
X133186792Y-111463208D01*
X133173124Y-111446553D01*
X133162971Y-111427557D01*
X133156716Y-111406938D01*
X133154000Y-111379360D01*
X133154000Y-110870640D01*
X133156716Y-110843062D01*
X133162971Y-110822443D01*
X133173124Y-110803447D01*
X133186792Y-110786792D01*
X133203447Y-110773124D01*
X133222443Y-110762971D01*
X133243062Y-110756716D01*
X133270640Y-110754000D01*
X133729360Y-110754000D01*
X133756938Y-110756716D01*
G37*
G36*
X134726938Y-110756716D02*
G01*
X134747557Y-110762971D01*
X134766553Y-110773124D01*
X134783208Y-110786792D01*
X134796876Y-110803447D01*
X134807029Y-110822443D01*
X134813284Y-110843062D01*
X134816000Y-110870640D01*
X134816000Y-111379360D01*
X134813284Y-111406938D01*
X134807029Y-111427557D01*
X134796876Y-111446553D01*
X134783208Y-111463208D01*
X134766553Y-111476876D01*
X134747557Y-111487029D01*
X134726938Y-111493284D01*
X134699360Y-111496000D01*
X134240640Y-111496000D01*
X134213062Y-111493284D01*
X134192443Y-111487029D01*
X134173447Y-111476876D01*
X134156792Y-111463208D01*
X134143124Y-111446553D01*
X134132971Y-111427557D01*
X134126716Y-111406938D01*
X134124000Y-111379360D01*
X134124000Y-110870640D01*
X134126716Y-110843062D01*
X134132971Y-110822443D01*
X134143124Y-110803447D01*
X134156792Y-110786792D01*
X134173447Y-110773124D01*
X134192443Y-110762971D01*
X134213062Y-110756716D01*
X134240640Y-110754000D01*
X134699360Y-110754000D01*
X134726938Y-110756716D01*
G37*
G36*
X132615938Y-110631716D02*
G01*
X132636557Y-110637971D01*
X132655553Y-110648124D01*
X132672208Y-110661792D01*
X132685876Y-110678447D01*
X132696029Y-110697443D01*
X132702284Y-110718062D01*
X132705000Y-110745640D01*
X132705000Y-111204360D01*
X132702284Y-111231938D01*
X132696029Y-111252557D01*
X132685876Y-111271553D01*
X132672208Y-111288208D01*
X132655553Y-111301876D01*
X132636557Y-111312029D01*
X132615938Y-111318284D01*
X132588360Y-111321000D01*
X132079640Y-111321000D01*
X132052062Y-111318284D01*
X132031443Y-111312029D01*
X132012447Y-111301876D01*
X131995792Y-111288208D01*
X131982124Y-111271553D01*
X131971971Y-111252557D01*
X131965716Y-111231938D01*
X131963000Y-111204360D01*
X131963000Y-110745640D01*
X131965716Y-110718062D01*
X131971971Y-110697443D01*
X131982124Y-110678447D01*
X131995792Y-110661792D01*
X132012447Y-110648124D01*
X132031443Y-110637971D01*
X132052062Y-110631716D01*
X132079640Y-110629000D01*
X132588360Y-110629000D01*
X132615938Y-110631716D01*
G37*
G36*
X179507138Y-109766116D02*
G01*
X179527757Y-109772371D01*
X179546753Y-109782524D01*
X179563408Y-109796192D01*
X179577076Y-109812847D01*
X179587229Y-109831843D01*
X179593484Y-109852462D01*
X179596200Y-109880040D01*
X179596200Y-110388760D01*
X179593484Y-110416338D01*
X179587229Y-110436957D01*
X179577076Y-110455953D01*
X179563408Y-110472608D01*
X179546753Y-110486276D01*
X179527757Y-110496429D01*
X179507138Y-110502684D01*
X179479560Y-110505400D01*
X179020840Y-110505400D01*
X178993262Y-110502684D01*
X178972643Y-110496429D01*
X178953647Y-110486276D01*
X178936992Y-110472608D01*
X178923324Y-110455953D01*
X178913171Y-110436957D01*
X178906916Y-110416338D01*
X178904200Y-110388760D01*
X178904200Y-109880040D01*
X178906916Y-109852462D01*
X178913171Y-109831843D01*
X178923324Y-109812847D01*
X178936992Y-109796192D01*
X178953647Y-109782524D01*
X178972643Y-109772371D01*
X178993262Y-109766116D01*
X179020840Y-109763400D01*
X179479560Y-109763400D01*
X179507138Y-109766116D01*
G37*
G36*
X178537138Y-109766116D02*
G01*
X178557757Y-109772371D01*
X178576753Y-109782524D01*
X178593408Y-109796192D01*
X178607076Y-109812847D01*
X178617229Y-109831843D01*
X178623484Y-109852462D01*
X178626200Y-109880040D01*
X178626200Y-110388760D01*
X178623484Y-110416338D01*
X178617229Y-110436957D01*
X178607076Y-110455953D01*
X178593408Y-110472608D01*
X178576753Y-110486276D01*
X178557757Y-110496429D01*
X178537138Y-110502684D01*
X178509560Y-110505400D01*
X178050840Y-110505400D01*
X178023262Y-110502684D01*
X178002643Y-110496429D01*
X177983647Y-110486276D01*
X177966992Y-110472608D01*
X177953324Y-110455953D01*
X177943171Y-110436957D01*
X177936916Y-110416338D01*
X177934200Y-110388760D01*
X177934200Y-109880040D01*
X177936916Y-109852462D01*
X177943171Y-109831843D01*
X177953324Y-109812847D01*
X177966992Y-109796192D01*
X177983647Y-109782524D01*
X178002643Y-109772371D01*
X178023262Y-109766116D01*
X178050840Y-109763400D01*
X178509560Y-109763400D01*
X178537138Y-109766116D01*
G37*
G36*
X132615938Y-109661716D02*
G01*
X132636557Y-109667971D01*
X132655553Y-109678124D01*
X132672208Y-109691792D01*
X132685876Y-109708447D01*
X132696029Y-109727443D01*
X132702284Y-109748062D01*
X132705000Y-109775640D01*
X132705000Y-110234360D01*
X132702284Y-110261938D01*
X132696029Y-110282557D01*
X132685876Y-110301553D01*
X132672208Y-110318208D01*
X132655553Y-110331876D01*
X132636557Y-110342029D01*
X132615938Y-110348284D01*
X132588360Y-110351000D01*
X132079640Y-110351000D01*
X132052062Y-110348284D01*
X132031443Y-110342029D01*
X132012447Y-110331876D01*
X131995792Y-110318208D01*
X131982124Y-110301553D01*
X131971971Y-110282557D01*
X131965716Y-110261938D01*
X131963000Y-110234360D01*
X131963000Y-109775640D01*
X131965716Y-109748062D01*
X131971971Y-109727443D01*
X131982124Y-109708447D01*
X131995792Y-109691792D01*
X132012447Y-109678124D01*
X132031443Y-109667971D01*
X132052062Y-109661716D01*
X132079640Y-109659000D01*
X132588360Y-109659000D01*
X132615938Y-109661716D01*
G37*
G36*
X134726938Y-109486716D02*
G01*
X134747557Y-109492971D01*
X134766553Y-109503124D01*
X134783208Y-109516792D01*
X134796876Y-109533447D01*
X134807029Y-109552443D01*
X134813284Y-109573062D01*
X134816000Y-109600640D01*
X134816000Y-110109360D01*
X134813284Y-110136938D01*
X134807029Y-110157557D01*
X134796876Y-110176553D01*
X134783208Y-110193208D01*
X134766553Y-110206876D01*
X134747557Y-110217029D01*
X134726938Y-110223284D01*
X134699360Y-110226000D01*
X134240640Y-110226000D01*
X134213062Y-110223284D01*
X134192443Y-110217029D01*
X134173447Y-110206876D01*
X134156792Y-110193208D01*
X134143124Y-110176553D01*
X134132971Y-110157557D01*
X134126716Y-110136938D01*
X134124000Y-110109360D01*
X134124000Y-109600640D01*
X134126716Y-109573062D01*
X134132971Y-109552443D01*
X134143124Y-109533447D01*
X134156792Y-109516792D01*
X134173447Y-109503124D01*
X134192443Y-109492971D01*
X134213062Y-109486716D01*
X134240640Y-109484000D01*
X134699360Y-109484000D01*
X134726938Y-109486716D01*
G37*
G36*
X133756938Y-109486716D02*
G01*
X133777557Y-109492971D01*
X133796553Y-109503124D01*
X133813208Y-109516792D01*
X133826876Y-109533447D01*
X133837029Y-109552443D01*
X133843284Y-109573062D01*
X133846000Y-109600640D01*
X133846000Y-110109360D01*
X133843284Y-110136938D01*
X133837029Y-110157557D01*
X133826876Y-110176553D01*
X133813208Y-110193208D01*
X133796553Y-110206876D01*
X133777557Y-110217029D01*
X133756938Y-110223284D01*
X133729360Y-110226000D01*
X133270640Y-110226000D01*
X133243062Y-110223284D01*
X133222443Y-110217029D01*
X133203447Y-110206876D01*
X133186792Y-110193208D01*
X133173124Y-110176553D01*
X133162971Y-110157557D01*
X133156716Y-110136938D01*
X133154000Y-110109360D01*
X133154000Y-109600640D01*
X133156716Y-109573062D01*
X133162971Y-109552443D01*
X133173124Y-109533447D01*
X133186792Y-109516792D01*
X133203447Y-109503124D01*
X133222443Y-109492971D01*
X133243062Y-109486716D01*
X133270640Y-109484000D01*
X133729360Y-109484000D01*
X133756938Y-109486716D01*
G37*
G36*
X134749938Y-108216716D02*
G01*
X134770557Y-108222971D01*
X134789553Y-108233124D01*
X134806208Y-108246792D01*
X134819876Y-108263447D01*
X134830029Y-108282443D01*
X134836284Y-108303062D01*
X134839000Y-108330640D01*
X134839000Y-108839360D01*
X134836284Y-108866938D01*
X134830029Y-108887557D01*
X134819876Y-108906553D01*
X134806208Y-108923208D01*
X134789553Y-108936876D01*
X134770557Y-108947029D01*
X134749938Y-108953284D01*
X134722360Y-108956000D01*
X134263640Y-108956000D01*
X134236062Y-108953284D01*
X134215443Y-108947029D01*
X134196447Y-108936876D01*
X134179792Y-108923208D01*
X134166124Y-108906553D01*
X134155971Y-108887557D01*
X134149716Y-108866938D01*
X134147000Y-108839360D01*
X134147000Y-108330640D01*
X134149716Y-108303062D01*
X134155971Y-108282443D01*
X134166124Y-108263447D01*
X134179792Y-108246792D01*
X134196447Y-108233124D01*
X134215443Y-108222971D01*
X134236062Y-108216716D01*
X134263640Y-108214000D01*
X134722360Y-108214000D01*
X134749938Y-108216716D01*
G37*
G36*
X133779938Y-108216716D02*
G01*
X133800557Y-108222971D01*
X133819553Y-108233124D01*
X133836208Y-108246792D01*
X133849876Y-108263447D01*
X133860029Y-108282443D01*
X133866284Y-108303062D01*
X133869000Y-108330640D01*
X133869000Y-108839360D01*
X133866284Y-108866938D01*
X133860029Y-108887557D01*
X133849876Y-108906553D01*
X133836208Y-108923208D01*
X133819553Y-108936876D01*
X133800557Y-108947029D01*
X133779938Y-108953284D01*
X133752360Y-108956000D01*
X133293640Y-108956000D01*
X133266062Y-108953284D01*
X133245443Y-108947029D01*
X133226447Y-108936876D01*
X133209792Y-108923208D01*
X133196124Y-108906553D01*
X133185971Y-108887557D01*
X133179716Y-108866938D01*
X133177000Y-108839360D01*
X133177000Y-108330640D01*
X133179716Y-108303062D01*
X133185971Y-108282443D01*
X133196124Y-108263447D01*
X133209792Y-108246792D01*
X133226447Y-108233124D01*
X133245443Y-108222971D01*
X133266062Y-108216716D01*
X133293640Y-108214000D01*
X133752360Y-108214000D01*
X133779938Y-108216716D01*
G37*
G36*
X132615938Y-108091716D02*
G01*
X132636557Y-108097971D01*
X132655553Y-108108124D01*
X132672208Y-108121792D01*
X132685876Y-108138447D01*
X132696029Y-108157443D01*
X132702284Y-108178062D01*
X132705000Y-108205640D01*
X132705000Y-108664360D01*
X132702284Y-108691938D01*
X132696029Y-108712557D01*
X132685876Y-108731553D01*
X132672208Y-108748208D01*
X132655553Y-108761876D01*
X132636557Y-108772029D01*
X132615938Y-108778284D01*
X132588360Y-108781000D01*
X132079640Y-108781000D01*
X132052062Y-108778284D01*
X132031443Y-108772029D01*
X132012447Y-108761876D01*
X131995792Y-108748208D01*
X131982124Y-108731553D01*
X131971971Y-108712557D01*
X131965716Y-108691938D01*
X131963000Y-108664360D01*
X131963000Y-108205640D01*
X131965716Y-108178062D01*
X131971971Y-108157443D01*
X131982124Y-108138447D01*
X131995792Y-108121792D01*
X132012447Y-108108124D01*
X132031443Y-108097971D01*
X132052062Y-108091716D01*
X132079640Y-108089000D01*
X132588360Y-108089000D01*
X132615938Y-108091716D01*
G37*
G36*
X132615938Y-107121716D02*
G01*
X132636557Y-107127971D01*
X132655553Y-107138124D01*
X132672208Y-107151792D01*
X132685876Y-107168447D01*
X132696029Y-107187443D01*
X132702284Y-107208062D01*
X132705000Y-107235640D01*
X132705000Y-107694360D01*
X132702284Y-107721938D01*
X132696029Y-107742557D01*
X132685876Y-107761553D01*
X132672208Y-107778208D01*
X132655553Y-107791876D01*
X132636557Y-107802029D01*
X132615938Y-107808284D01*
X132588360Y-107811000D01*
X132079640Y-107811000D01*
X132052062Y-107808284D01*
X132031443Y-107802029D01*
X132012447Y-107791876D01*
X131995792Y-107778208D01*
X131982124Y-107761553D01*
X131971971Y-107742557D01*
X131965716Y-107721938D01*
X131963000Y-107694360D01*
X131963000Y-107235640D01*
X131965716Y-107208062D01*
X131971971Y-107187443D01*
X131982124Y-107168447D01*
X131995792Y-107151792D01*
X132012447Y-107138124D01*
X132031443Y-107127971D01*
X132052062Y-107121716D01*
X132079640Y-107119000D01*
X132588360Y-107119000D01*
X132615938Y-107121716D01*
G37*
G36*
X133779938Y-106946716D02*
G01*
X133800557Y-106952971D01*
X133819553Y-106963124D01*
X133836208Y-106976792D01*
X133849876Y-106993447D01*
X133860029Y-107012443D01*
X133866284Y-107033062D01*
X133869000Y-107060640D01*
X133869000Y-107569360D01*
X133866284Y-107596938D01*
X133860029Y-107617557D01*
X133849876Y-107636553D01*
X133836208Y-107653208D01*
X133819553Y-107666876D01*
X133800557Y-107677029D01*
X133779938Y-107683284D01*
X133752360Y-107686000D01*
X133293640Y-107686000D01*
X133266062Y-107683284D01*
X133245443Y-107677029D01*
X133226447Y-107666876D01*
X133209792Y-107653208D01*
X133196124Y-107636553D01*
X133185971Y-107617557D01*
X133179716Y-107596938D01*
X133177000Y-107569360D01*
X133177000Y-107060640D01*
X133179716Y-107033062D01*
X133185971Y-107012443D01*
X133196124Y-106993447D01*
X133209792Y-106976792D01*
X133226447Y-106963124D01*
X133245443Y-106952971D01*
X133266062Y-106946716D01*
X133293640Y-106944000D01*
X133752360Y-106944000D01*
X133779938Y-106946716D01*
G37*
G36*
X134749938Y-106946716D02*
G01*
X134770557Y-106952971D01*
X134789553Y-106963124D01*
X134806208Y-106976792D01*
X134819876Y-106993447D01*
X134830029Y-107012443D01*
X134836284Y-107033062D01*
X134839000Y-107060640D01*
X134839000Y-107569360D01*
X134836284Y-107596938D01*
X134830029Y-107617557D01*
X134819876Y-107636553D01*
X134806208Y-107653208D01*
X134789553Y-107666876D01*
X134770557Y-107677029D01*
X134749938Y-107683284D01*
X134722360Y-107686000D01*
X134263640Y-107686000D01*
X134236062Y-107683284D01*
X134215443Y-107677029D01*
X134196447Y-107666876D01*
X134179792Y-107653208D01*
X134166124Y-107636553D01*
X134155971Y-107617557D01*
X134149716Y-107596938D01*
X134147000Y-107569360D01*
X134147000Y-107060640D01*
X134149716Y-107033062D01*
X134155971Y-107012443D01*
X134166124Y-106993447D01*
X134179792Y-106976792D01*
X134196447Y-106963124D01*
X134215443Y-106952971D01*
X134236062Y-106946716D01*
X134263640Y-106944000D01*
X134722360Y-106944000D01*
X134749938Y-106946716D01*
G37*
G36*
X133756938Y-105803716D02*
G01*
X133777557Y-105809971D01*
X133796553Y-105820124D01*
X133813208Y-105833792D01*
X133826876Y-105850447D01*
X133837029Y-105869443D01*
X133843284Y-105890062D01*
X133846000Y-105917640D01*
X133846000Y-106426360D01*
X133843284Y-106453938D01*
X133837029Y-106474557D01*
X133826876Y-106493553D01*
X133813208Y-106510208D01*
X133796553Y-106523876D01*
X133777557Y-106534029D01*
X133756938Y-106540284D01*
X133729360Y-106543000D01*
X133270640Y-106543000D01*
X133243062Y-106540284D01*
X133222443Y-106534029D01*
X133203447Y-106523876D01*
X133186792Y-106510208D01*
X133173124Y-106493553D01*
X133162971Y-106474557D01*
X133156716Y-106453938D01*
X133154000Y-106426360D01*
X133154000Y-105917640D01*
X133156716Y-105890062D01*
X133162971Y-105869443D01*
X133173124Y-105850447D01*
X133186792Y-105833792D01*
X133203447Y-105820124D01*
X133222443Y-105809971D01*
X133243062Y-105803716D01*
X133270640Y-105801000D01*
X133729360Y-105801000D01*
X133756938Y-105803716D01*
G37*
G36*
X134726938Y-105803716D02*
G01*
X134747557Y-105809971D01*
X134766553Y-105820124D01*
X134783208Y-105833792D01*
X134796876Y-105850447D01*
X134807029Y-105869443D01*
X134813284Y-105890062D01*
X134816000Y-105917640D01*
X134816000Y-106426360D01*
X134813284Y-106453938D01*
X134807029Y-106474557D01*
X134796876Y-106493553D01*
X134783208Y-106510208D01*
X134766553Y-106523876D01*
X134747557Y-106534029D01*
X134726938Y-106540284D01*
X134699360Y-106543000D01*
X134240640Y-106543000D01*
X134213062Y-106540284D01*
X134192443Y-106534029D01*
X134173447Y-106523876D01*
X134156792Y-106510208D01*
X134143124Y-106493553D01*
X134132971Y-106474557D01*
X134126716Y-106453938D01*
X134124000Y-106426360D01*
X134124000Y-105917640D01*
X134126716Y-105890062D01*
X134132971Y-105869443D01*
X134143124Y-105850447D01*
X134156792Y-105833792D01*
X134173447Y-105820124D01*
X134192443Y-105809971D01*
X134213062Y-105803716D01*
X134240640Y-105801000D01*
X134699360Y-105801000D01*
X134726938Y-105803716D01*
G37*
G36*
X132615938Y-105805716D02*
G01*
X132636557Y-105811971D01*
X132655553Y-105822124D01*
X132672208Y-105835792D01*
X132685876Y-105852447D01*
X132696029Y-105871443D01*
X132702284Y-105892062D01*
X132705000Y-105919640D01*
X132705000Y-106378360D01*
X132702284Y-106405938D01*
X132696029Y-106426557D01*
X132685876Y-106445553D01*
X132672208Y-106462208D01*
X132655553Y-106475876D01*
X132636557Y-106486029D01*
X132615938Y-106492284D01*
X132588360Y-106495000D01*
X132079640Y-106495000D01*
X132052062Y-106492284D01*
X132031443Y-106486029D01*
X132012447Y-106475876D01*
X131995792Y-106462208D01*
X131982124Y-106445553D01*
X131971971Y-106426557D01*
X131965716Y-106405938D01*
X131963000Y-106378360D01*
X131963000Y-105919640D01*
X131965716Y-105892062D01*
X131971971Y-105871443D01*
X131982124Y-105852447D01*
X131995792Y-105835792D01*
X132012447Y-105822124D01*
X132031443Y-105811971D01*
X132052062Y-105805716D01*
X132079640Y-105803000D01*
X132588360Y-105803000D01*
X132615938Y-105805716D01*
G37*
G36*
X132615938Y-104835716D02*
G01*
X132636557Y-104841971D01*
X132655553Y-104852124D01*
X132672208Y-104865792D01*
X132685876Y-104882447D01*
X132696029Y-104901443D01*
X132702284Y-104922062D01*
X132705000Y-104949640D01*
X132705000Y-105408360D01*
X132702284Y-105435938D01*
X132696029Y-105456557D01*
X132685876Y-105475553D01*
X132672208Y-105492208D01*
X132655553Y-105505876D01*
X132636557Y-105516029D01*
X132615938Y-105522284D01*
X132588360Y-105525000D01*
X132079640Y-105525000D01*
X132052062Y-105522284D01*
X132031443Y-105516029D01*
X132012447Y-105505876D01*
X131995792Y-105492208D01*
X131982124Y-105475553D01*
X131971971Y-105456557D01*
X131965716Y-105435938D01*
X131963000Y-105408360D01*
X131963000Y-104949640D01*
X131965716Y-104922062D01*
X131971971Y-104901443D01*
X131982124Y-104882447D01*
X131995792Y-104865792D01*
X132012447Y-104852124D01*
X132031443Y-104841971D01*
X132052062Y-104835716D01*
X132079640Y-104833000D01*
X132588360Y-104833000D01*
X132615938Y-104835716D01*
G37*
G36*
X133756938Y-104660716D02*
G01*
X133777557Y-104666971D01*
X133796553Y-104677124D01*
X133813208Y-104690792D01*
X133826876Y-104707447D01*
X133837029Y-104726443D01*
X133843284Y-104747062D01*
X133846000Y-104774640D01*
X133846000Y-105283360D01*
X133843284Y-105310938D01*
X133837029Y-105331557D01*
X133826876Y-105350553D01*
X133813208Y-105367208D01*
X133796553Y-105380876D01*
X133777557Y-105391029D01*
X133756938Y-105397284D01*
X133729360Y-105400000D01*
X133270640Y-105400000D01*
X133243062Y-105397284D01*
X133222443Y-105391029D01*
X133203447Y-105380876D01*
X133186792Y-105367208D01*
X133173124Y-105350553D01*
X133162971Y-105331557D01*
X133156716Y-105310938D01*
X133154000Y-105283360D01*
X133154000Y-104774640D01*
X133156716Y-104747062D01*
X133162971Y-104726443D01*
X133173124Y-104707447D01*
X133186792Y-104690792D01*
X133203447Y-104677124D01*
X133222443Y-104666971D01*
X133243062Y-104660716D01*
X133270640Y-104658000D01*
X133729360Y-104658000D01*
X133756938Y-104660716D01*
G37*
G36*
X134726938Y-104660716D02*
G01*
X134747557Y-104666971D01*
X134766553Y-104677124D01*
X134783208Y-104690792D01*
X134796876Y-104707447D01*
X134807029Y-104726443D01*
X134813284Y-104747062D01*
X134816000Y-104774640D01*
X134816000Y-105283360D01*
X134813284Y-105310938D01*
X134807029Y-105331557D01*
X134796876Y-105350553D01*
X134783208Y-105367208D01*
X134766553Y-105380876D01*
X134747557Y-105391029D01*
X134726938Y-105397284D01*
X134699360Y-105400000D01*
X134240640Y-105400000D01*
X134213062Y-105397284D01*
X134192443Y-105391029D01*
X134173447Y-105380876D01*
X134156792Y-105367208D01*
X134143124Y-105350553D01*
X134132971Y-105331557D01*
X134126716Y-105310938D01*
X134124000Y-105283360D01*
X134124000Y-104774640D01*
X134126716Y-104747062D01*
X134132971Y-104726443D01*
X134143124Y-104707447D01*
X134156792Y-104690792D01*
X134173447Y-104677124D01*
X134192443Y-104666971D01*
X134213062Y-104660716D01*
X134240640Y-104658000D01*
X134699360Y-104658000D01*
X134726938Y-104660716D01*
G37*
G36*
X134703938Y-103517716D02*
G01*
X134724557Y-103523971D01*
X134743553Y-103534124D01*
X134760208Y-103547792D01*
X134773876Y-103564447D01*
X134784029Y-103583443D01*
X134790284Y-103604062D01*
X134793000Y-103631640D01*
X134793000Y-104140360D01*
X134790284Y-104167938D01*
X134784029Y-104188557D01*
X134773876Y-104207553D01*
X134760208Y-104224208D01*
X134743553Y-104237876D01*
X134724557Y-104248029D01*
X134703938Y-104254284D01*
X134676360Y-104257000D01*
X134217640Y-104257000D01*
X134190062Y-104254284D01*
X134169443Y-104248029D01*
X134150447Y-104237876D01*
X134133792Y-104224208D01*
X134120124Y-104207553D01*
X134109971Y-104188557D01*
X134103716Y-104167938D01*
X134101000Y-104140360D01*
X134101000Y-103631640D01*
X134103716Y-103604062D01*
X134109971Y-103583443D01*
X134120124Y-103564447D01*
X134133792Y-103547792D01*
X134150447Y-103534124D01*
X134169443Y-103523971D01*
X134190062Y-103517716D01*
X134217640Y-103515000D01*
X134676360Y-103515000D01*
X134703938Y-103517716D01*
G37*
G36*
X133733938Y-103517716D02*
G01*
X133754557Y-103523971D01*
X133773553Y-103534124D01*
X133790208Y-103547792D01*
X133803876Y-103564447D01*
X133814029Y-103583443D01*
X133820284Y-103604062D01*
X133823000Y-103631640D01*
X133823000Y-104140360D01*
X133820284Y-104167938D01*
X133814029Y-104188557D01*
X133803876Y-104207553D01*
X133790208Y-104224208D01*
X133773553Y-104237876D01*
X133754557Y-104248029D01*
X133733938Y-104254284D01*
X133706360Y-104257000D01*
X133247640Y-104257000D01*
X133220062Y-104254284D01*
X133199443Y-104248029D01*
X133180447Y-104237876D01*
X133163792Y-104224208D01*
X133150124Y-104207553D01*
X133139971Y-104188557D01*
X133133716Y-104167938D01*
X133131000Y-104140360D01*
X133131000Y-103631640D01*
X133133716Y-103604062D01*
X133139971Y-103583443D01*
X133150124Y-103564447D01*
X133163792Y-103547792D01*
X133180447Y-103534124D01*
X133199443Y-103523971D01*
X133220062Y-103517716D01*
X133247640Y-103515000D01*
X133706360Y-103515000D01*
X133733938Y-103517716D01*
G37*
G36*
X132615938Y-103392716D02*
G01*
X132636557Y-103398971D01*
X132655553Y-103409124D01*
X132672208Y-103422792D01*
X132685876Y-103439447D01*
X132696029Y-103458443D01*
X132702284Y-103479062D01*
X132705000Y-103506640D01*
X132705000Y-103965360D01*
X132702284Y-103992938D01*
X132696029Y-104013557D01*
X132685876Y-104032553D01*
X132672208Y-104049208D01*
X132655553Y-104062876D01*
X132636557Y-104073029D01*
X132615938Y-104079284D01*
X132588360Y-104082000D01*
X132079640Y-104082000D01*
X132052062Y-104079284D01*
X132031443Y-104073029D01*
X132012447Y-104062876D01*
X131995792Y-104049208D01*
X131982124Y-104032553D01*
X131971971Y-104013557D01*
X131965716Y-103992938D01*
X131963000Y-103965360D01*
X131963000Y-103506640D01*
X131965716Y-103479062D01*
X131971971Y-103458443D01*
X131982124Y-103439447D01*
X131995792Y-103422792D01*
X132012447Y-103409124D01*
X132031443Y-103398971D01*
X132052062Y-103392716D01*
X132079640Y-103390000D01*
X132588360Y-103390000D01*
X132615938Y-103392716D01*
G37*
G36*
X134726938Y-102374716D02*
G01*
X134747557Y-102380971D01*
X134766553Y-102391124D01*
X134783208Y-102404792D01*
X134796876Y-102421447D01*
X134807029Y-102440443D01*
X134813284Y-102461062D01*
X134816000Y-102488640D01*
X134816000Y-102997360D01*
X134813284Y-103024938D01*
X134807029Y-103045557D01*
X134796876Y-103064553D01*
X134783208Y-103081208D01*
X134766553Y-103094876D01*
X134747557Y-103105029D01*
X134726938Y-103111284D01*
X134699360Y-103114000D01*
X134240640Y-103114000D01*
X134213062Y-103111284D01*
X134192443Y-103105029D01*
X134173447Y-103094876D01*
X134156792Y-103081208D01*
X134143124Y-103064553D01*
X134132971Y-103045557D01*
X134126716Y-103024938D01*
X134124000Y-102997360D01*
X134124000Y-102488640D01*
X134126716Y-102461062D01*
X134132971Y-102440443D01*
X134143124Y-102421447D01*
X134156792Y-102404792D01*
X134173447Y-102391124D01*
X134192443Y-102380971D01*
X134213062Y-102374716D01*
X134240640Y-102372000D01*
X134699360Y-102372000D01*
X134726938Y-102374716D01*
G37*
G36*
X133756938Y-102374716D02*
G01*
X133777557Y-102380971D01*
X133796553Y-102391124D01*
X133813208Y-102404792D01*
X133826876Y-102421447D01*
X133837029Y-102440443D01*
X133843284Y-102461062D01*
X133846000Y-102488640D01*
X133846000Y-102997360D01*
X133843284Y-103024938D01*
X133837029Y-103045557D01*
X133826876Y-103064553D01*
X133813208Y-103081208D01*
X133796553Y-103094876D01*
X133777557Y-103105029D01*
X133756938Y-103111284D01*
X133729360Y-103114000D01*
X133270640Y-103114000D01*
X133243062Y-103111284D01*
X133222443Y-103105029D01*
X133203447Y-103094876D01*
X133186792Y-103081208D01*
X133173124Y-103064553D01*
X133162971Y-103045557D01*
X133156716Y-103024938D01*
X133154000Y-102997360D01*
X133154000Y-102488640D01*
X133156716Y-102461062D01*
X133162971Y-102440443D01*
X133173124Y-102421447D01*
X133186792Y-102404792D01*
X133203447Y-102391124D01*
X133222443Y-102380971D01*
X133243062Y-102374716D01*
X133270640Y-102372000D01*
X133729360Y-102372000D01*
X133756938Y-102374716D01*
G37*
G36*
X132615938Y-102422716D02*
G01*
X132636557Y-102428971D01*
X132655553Y-102439124D01*
X132672208Y-102452792D01*
X132685876Y-102469447D01*
X132696029Y-102488443D01*
X132702284Y-102509062D01*
X132705000Y-102536640D01*
X132705000Y-102995360D01*
X132702284Y-103022938D01*
X132696029Y-103043557D01*
X132685876Y-103062553D01*
X132672208Y-103079208D01*
X132655553Y-103092876D01*
X132636557Y-103103029D01*
X132615938Y-103109284D01*
X132588360Y-103112000D01*
X132079640Y-103112000D01*
X132052062Y-103109284D01*
X132031443Y-103103029D01*
X132012447Y-103092876D01*
X131995792Y-103079208D01*
X131982124Y-103062553D01*
X131971971Y-103043557D01*
X131965716Y-103022938D01*
X131963000Y-102995360D01*
X131963000Y-102536640D01*
X131965716Y-102509062D01*
X131971971Y-102488443D01*
X131982124Y-102469447D01*
X131995792Y-102452792D01*
X132012447Y-102439124D01*
X132031443Y-102428971D01*
X132052062Y-102422716D01*
X132079640Y-102420000D01*
X132588360Y-102420000D01*
X132615938Y-102422716D01*
G37*
G36*
X118567738Y-102069916D02*
G01*
X118588357Y-102076171D01*
X118607353Y-102086324D01*
X118624008Y-102099992D01*
X118637676Y-102116647D01*
X118647829Y-102135643D01*
X118654084Y-102156262D01*
X118656800Y-102183840D01*
X118656800Y-102692560D01*
X118654084Y-102720138D01*
X118647829Y-102740757D01*
X118637676Y-102759753D01*
X118624008Y-102776408D01*
X118607353Y-102790076D01*
X118588357Y-102800229D01*
X118567738Y-102806484D01*
X118540160Y-102809200D01*
X118081440Y-102809200D01*
X118053862Y-102806484D01*
X118033243Y-102800229D01*
X118014247Y-102790076D01*
X117997592Y-102776408D01*
X117983924Y-102759753D01*
X117973771Y-102740757D01*
X117967516Y-102720138D01*
X117964800Y-102692560D01*
X117964800Y-102183840D01*
X117967516Y-102156262D01*
X117973771Y-102135643D01*
X117983924Y-102116647D01*
X117997592Y-102099992D01*
X118014247Y-102086324D01*
X118033243Y-102076171D01*
X118053862Y-102069916D01*
X118081440Y-102067200D01*
X118540160Y-102067200D01*
X118567738Y-102069916D01*
G37*
G36*
X119537738Y-102069916D02*
G01*
X119558357Y-102076171D01*
X119577353Y-102086324D01*
X119594008Y-102099992D01*
X119607676Y-102116647D01*
X119617829Y-102135643D01*
X119624084Y-102156262D01*
X119626800Y-102183840D01*
X119626800Y-102692560D01*
X119624084Y-102720138D01*
X119617829Y-102740757D01*
X119607676Y-102759753D01*
X119594008Y-102776408D01*
X119577353Y-102790076D01*
X119558357Y-102800229D01*
X119537738Y-102806484D01*
X119510160Y-102809200D01*
X119051440Y-102809200D01*
X119023862Y-102806484D01*
X119003243Y-102800229D01*
X118984247Y-102790076D01*
X118967592Y-102776408D01*
X118953924Y-102759753D01*
X118943771Y-102740757D01*
X118937516Y-102720138D01*
X118934800Y-102692560D01*
X118934800Y-102183840D01*
X118937516Y-102156262D01*
X118943771Y-102135643D01*
X118953924Y-102116647D01*
X118967592Y-102099992D01*
X118984247Y-102086324D01*
X119003243Y-102076171D01*
X119023862Y-102069916D01*
X119051440Y-102067200D01*
X119510160Y-102067200D01*
X119537738Y-102069916D01*
G37*
G36*
X130634998Y-101889576D02*
G01*
X130655617Y-101895831D01*
X130674613Y-101905984D01*
X130691268Y-101919652D01*
X130704936Y-101936307D01*
X130715089Y-101955303D01*
X130721344Y-101975922D01*
X130724060Y-102003500D01*
X130724060Y-102512220D01*
X130721344Y-102539798D01*
X130715089Y-102560417D01*
X130704936Y-102579413D01*
X130691268Y-102596068D01*
X130674613Y-102609736D01*
X130655617Y-102619889D01*
X130634998Y-102626144D01*
X130607420Y-102628860D01*
X130148700Y-102628860D01*
X130121122Y-102626144D01*
X130100503Y-102619889D01*
X130081507Y-102609736D01*
X130064852Y-102596068D01*
X130051184Y-102579413D01*
X130041031Y-102560417D01*
X130034776Y-102539798D01*
X130032060Y-102512220D01*
X130032060Y-102003500D01*
X130034776Y-101975922D01*
X130041031Y-101955303D01*
X130051184Y-101936307D01*
X130064852Y-101919652D01*
X130081507Y-101905984D01*
X130100503Y-101895831D01*
X130121122Y-101889576D01*
X130148700Y-101886860D01*
X130607420Y-101886860D01*
X130634998Y-101889576D01*
G37*
G36*
X129664998Y-101889576D02*
G01*
X129685617Y-101895831D01*
X129704613Y-101905984D01*
X129721268Y-101919652D01*
X129734936Y-101936307D01*
X129745089Y-101955303D01*
X129751344Y-101975922D01*
X129754060Y-102003500D01*
X129754060Y-102512220D01*
X129751344Y-102539798D01*
X129745089Y-102560417D01*
X129734936Y-102579413D01*
X129721268Y-102596068D01*
X129704613Y-102609736D01*
X129685617Y-102619889D01*
X129664998Y-102626144D01*
X129637420Y-102628860D01*
X129178700Y-102628860D01*
X129151122Y-102626144D01*
X129130503Y-102619889D01*
X129111507Y-102609736D01*
X129094852Y-102596068D01*
X129081184Y-102579413D01*
X129071031Y-102560417D01*
X129064776Y-102539798D01*
X129062060Y-102512220D01*
X129062060Y-102003500D01*
X129064776Y-101975922D01*
X129071031Y-101955303D01*
X129081184Y-101936307D01*
X129094852Y-101919652D01*
X129111507Y-101905984D01*
X129130503Y-101895831D01*
X129151122Y-101889576D01*
X129178700Y-101886860D01*
X129637420Y-101886860D01*
X129664998Y-101889576D01*
G37*
G36*
X128707138Y-101104716D02*
G01*
X128727757Y-101110971D01*
X128746753Y-101121124D01*
X128763408Y-101134792D01*
X128777076Y-101151447D01*
X128787229Y-101170443D01*
X128793484Y-101191062D01*
X128796200Y-101218640D01*
X128796200Y-101727360D01*
X128793484Y-101754938D01*
X128787229Y-101775557D01*
X128777076Y-101794553D01*
X128763408Y-101811208D01*
X128746753Y-101824876D01*
X128727757Y-101835029D01*
X128707138Y-101841284D01*
X128679560Y-101844000D01*
X128220840Y-101844000D01*
X128193262Y-101841284D01*
X128172643Y-101835029D01*
X128153647Y-101824876D01*
X128136992Y-101811208D01*
X128123324Y-101794553D01*
X128113171Y-101775557D01*
X128106916Y-101754938D01*
X128104200Y-101727360D01*
X128104200Y-101218640D01*
X128106916Y-101191062D01*
X128113171Y-101170443D01*
X128123324Y-101151447D01*
X128136992Y-101134792D01*
X128153647Y-101121124D01*
X128172643Y-101110971D01*
X128193262Y-101104716D01*
X128220840Y-101102000D01*
X128679560Y-101102000D01*
X128707138Y-101104716D01*
G37*
G36*
X127737138Y-101104716D02*
G01*
X127757757Y-101110971D01*
X127776753Y-101121124D01*
X127793408Y-101134792D01*
X127807076Y-101151447D01*
X127817229Y-101170443D01*
X127823484Y-101191062D01*
X127826200Y-101218640D01*
X127826200Y-101727360D01*
X127823484Y-101754938D01*
X127817229Y-101775557D01*
X127807076Y-101794553D01*
X127793408Y-101811208D01*
X127776753Y-101824876D01*
X127757757Y-101835029D01*
X127737138Y-101841284D01*
X127709560Y-101844000D01*
X127250840Y-101844000D01*
X127223262Y-101841284D01*
X127202643Y-101835029D01*
X127183647Y-101824876D01*
X127166992Y-101811208D01*
X127153324Y-101794553D01*
X127143171Y-101775557D01*
X127136916Y-101754938D01*
X127134200Y-101727360D01*
X127134200Y-101218640D01*
X127136916Y-101191062D01*
X127143171Y-101170443D01*
X127153324Y-101151447D01*
X127166992Y-101134792D01*
X127183647Y-101121124D01*
X127202643Y-101110971D01*
X127223262Y-101104716D01*
X127250840Y-101102000D01*
X127709560Y-101102000D01*
X127737138Y-101104716D01*
G37*
G36*
X119540138Y-101003116D02*
G01*
X119560757Y-101009371D01*
X119579753Y-101019524D01*
X119596408Y-101033192D01*
X119610076Y-101049847D01*
X119620229Y-101068843D01*
X119626484Y-101089462D01*
X119629200Y-101117040D01*
X119629200Y-101625760D01*
X119626484Y-101653338D01*
X119620229Y-101673957D01*
X119610076Y-101692953D01*
X119596408Y-101709608D01*
X119579753Y-101723276D01*
X119560757Y-101733429D01*
X119540138Y-101739684D01*
X119512560Y-101742400D01*
X119053840Y-101742400D01*
X119026262Y-101739684D01*
X119005643Y-101733429D01*
X118986647Y-101723276D01*
X118969992Y-101709608D01*
X118956324Y-101692953D01*
X118946171Y-101673957D01*
X118939916Y-101653338D01*
X118937200Y-101625760D01*
X118937200Y-101117040D01*
X118939916Y-101089462D01*
X118946171Y-101068843D01*
X118956324Y-101049847D01*
X118969992Y-101033192D01*
X118986647Y-101019524D01*
X119005643Y-101009371D01*
X119026262Y-101003116D01*
X119053840Y-101000400D01*
X119512560Y-101000400D01*
X119540138Y-101003116D01*
G37*
G36*
X118570138Y-101003116D02*
G01*
X118590757Y-101009371D01*
X118609753Y-101019524D01*
X118626408Y-101033192D01*
X118640076Y-101049847D01*
X118650229Y-101068843D01*
X118656484Y-101089462D01*
X118659200Y-101117040D01*
X118659200Y-101625760D01*
X118656484Y-101653338D01*
X118650229Y-101673957D01*
X118640076Y-101692953D01*
X118626408Y-101709608D01*
X118609753Y-101723276D01*
X118590757Y-101733429D01*
X118570138Y-101739684D01*
X118542560Y-101742400D01*
X118083840Y-101742400D01*
X118056262Y-101739684D01*
X118035643Y-101733429D01*
X118016647Y-101723276D01*
X117999992Y-101709608D01*
X117986324Y-101692953D01*
X117976171Y-101673957D01*
X117969916Y-101653338D01*
X117967200Y-101625760D01*
X117967200Y-101117040D01*
X117969916Y-101089462D01*
X117976171Y-101068843D01*
X117986324Y-101049847D01*
X117999992Y-101033192D01*
X118016647Y-101019524D01*
X118035643Y-101009371D01*
X118056262Y-101003116D01*
X118083840Y-101000400D01*
X118542560Y-101000400D01*
X118570138Y-101003116D01*
G37*
G36*
X133625880Y-96819776D02*
G01*
X134006593Y-96895504D01*
X134416249Y-97065189D01*
X134784929Y-97311534D01*
X135098466Y-97625071D01*
X135344811Y-97993751D01*
X135514496Y-98403407D01*
X135601000Y-98838296D01*
X135601000Y-99281704D01*
X135514496Y-99716593D01*
X135344811Y-100126249D01*
X135098466Y-100494929D01*
X134784929Y-100808466D01*
X134416249Y-101054811D01*
X134006593Y-101224496D01*
X133625880Y-101300224D01*
X133571705Y-101311000D01*
X133128295Y-101311000D01*
X133074120Y-101300224D01*
X132693407Y-101224496D01*
X132283751Y-101054811D01*
X131915071Y-100808466D01*
X131601534Y-100494929D01*
X131355189Y-100126249D01*
X131185504Y-99716593D01*
X131099000Y-99281704D01*
X131099000Y-98838296D01*
X131185504Y-98403407D01*
X131355189Y-97993751D01*
X131601534Y-97625071D01*
X131915071Y-97311534D01*
X132283751Y-97065189D01*
X132693407Y-96895504D01*
X133074120Y-96819776D01*
X133128295Y-96809000D01*
X133571705Y-96809000D01*
X133625880Y-96819776D01*
G37*
G36*
X129723138Y-99910916D02*
G01*
X129743757Y-99917171D01*
X129762753Y-99927324D01*
X129779408Y-99940992D01*
X129793076Y-99957647D01*
X129803229Y-99976643D01*
X129809484Y-99997262D01*
X129812200Y-100024840D01*
X129812200Y-100533560D01*
X129809484Y-100561138D01*
X129803229Y-100581757D01*
X129793076Y-100600753D01*
X129779408Y-100617408D01*
X129762753Y-100631076D01*
X129743757Y-100641229D01*
X129723138Y-100647484D01*
X129695560Y-100650200D01*
X129236840Y-100650200D01*
X129209262Y-100647484D01*
X129188643Y-100641229D01*
X129169647Y-100631076D01*
X129152992Y-100617408D01*
X129139324Y-100600753D01*
X129129171Y-100581757D01*
X129122916Y-100561138D01*
X129120200Y-100533560D01*
X129120200Y-100024840D01*
X129122916Y-99997262D01*
X129129171Y-99976643D01*
X129139324Y-99957647D01*
X129152992Y-99940992D01*
X129169647Y-99927324D01*
X129188643Y-99917171D01*
X129209262Y-99910916D01*
X129236840Y-99908200D01*
X129695560Y-99908200D01*
X129723138Y-99910916D01*
G37*
G36*
X128753138Y-99910916D02*
G01*
X128773757Y-99917171D01*
X128792753Y-99927324D01*
X128809408Y-99940992D01*
X128823076Y-99957647D01*
X128833229Y-99976643D01*
X128839484Y-99997262D01*
X128842200Y-100024840D01*
X128842200Y-100533560D01*
X128839484Y-100561138D01*
X128833229Y-100581757D01*
X128823076Y-100600753D01*
X128809408Y-100617408D01*
X128792753Y-100631076D01*
X128773757Y-100641229D01*
X128753138Y-100647484D01*
X128725560Y-100650200D01*
X128266840Y-100650200D01*
X128239262Y-100647484D01*
X128218643Y-100641229D01*
X128199647Y-100631076D01*
X128182992Y-100617408D01*
X128169324Y-100600753D01*
X128159171Y-100581757D01*
X128152916Y-100561138D01*
X128150200Y-100533560D01*
X128150200Y-100024840D01*
X128152916Y-99997262D01*
X128159171Y-99976643D01*
X128169324Y-99957647D01*
X128182992Y-99940992D01*
X128199647Y-99927324D01*
X128218643Y-99917171D01*
X128239262Y-99910916D01*
X128266840Y-99908200D01*
X128725560Y-99908200D01*
X128753138Y-99910916D01*
G37*
G36*
X126565000Y-100459400D02*
G01*
X125063000Y-100459400D01*
X125063000Y-99157400D01*
X126565000Y-99157400D01*
X126565000Y-100459400D01*
G37*
G36*
X124365000Y-100459400D02*
G01*
X122863000Y-100459400D01*
X122863000Y-99157400D01*
X124365000Y-99157400D01*
X124365000Y-100459400D01*
G37*
G36*
X127637538Y-99608116D02*
G01*
X127658157Y-99614371D01*
X127677153Y-99624524D01*
X127693808Y-99638192D01*
X127707476Y-99654847D01*
X127717629Y-99673843D01*
X127723884Y-99694462D01*
X127726600Y-99722040D01*
X127726600Y-100180760D01*
X127723884Y-100208338D01*
X127717629Y-100228957D01*
X127707476Y-100247953D01*
X127693808Y-100264608D01*
X127677153Y-100278276D01*
X127658157Y-100288429D01*
X127637538Y-100294684D01*
X127609960Y-100297400D01*
X127101240Y-100297400D01*
X127073662Y-100294684D01*
X127053043Y-100288429D01*
X127034047Y-100278276D01*
X127017392Y-100264608D01*
X127003724Y-100247953D01*
X126993571Y-100228957D01*
X126987316Y-100208338D01*
X126984600Y-100180760D01*
X126984600Y-99722040D01*
X126987316Y-99694462D01*
X126993571Y-99673843D01*
X127003724Y-99654847D01*
X127017392Y-99638192D01*
X127034047Y-99624524D01*
X127053043Y-99614371D01*
X127073662Y-99608116D01*
X127101240Y-99605400D01*
X127609960Y-99605400D01*
X127637538Y-99608116D01*
G37*
G36*
X121336338Y-99504516D02*
G01*
X121356957Y-99510771D01*
X121375953Y-99520924D01*
X121392608Y-99534592D01*
X121406276Y-99551247D01*
X121416429Y-99570243D01*
X121422684Y-99590862D01*
X121425400Y-99618440D01*
X121425400Y-100127160D01*
X121422684Y-100154738D01*
X121416429Y-100175357D01*
X121406276Y-100194353D01*
X121392608Y-100211008D01*
X121375953Y-100224676D01*
X121356957Y-100234829D01*
X121336338Y-100241084D01*
X121308760Y-100243800D01*
X120850040Y-100243800D01*
X120822462Y-100241084D01*
X120801843Y-100234829D01*
X120782847Y-100224676D01*
X120766192Y-100211008D01*
X120752524Y-100194353D01*
X120742371Y-100175357D01*
X120736116Y-100154738D01*
X120733400Y-100127160D01*
X120733400Y-99618440D01*
X120736116Y-99590862D01*
X120742371Y-99570243D01*
X120752524Y-99551247D01*
X120766192Y-99534592D01*
X120782847Y-99520924D01*
X120801843Y-99510771D01*
X120822462Y-99504516D01*
X120850040Y-99501800D01*
X121308760Y-99501800D01*
X121336338Y-99504516D01*
G37*
G36*
X122306338Y-99504516D02*
G01*
X122326957Y-99510771D01*
X122345953Y-99520924D01*
X122362608Y-99534592D01*
X122376276Y-99551247D01*
X122386429Y-99570243D01*
X122392684Y-99590862D01*
X122395400Y-99618440D01*
X122395400Y-100127160D01*
X122392684Y-100154738D01*
X122386429Y-100175357D01*
X122376276Y-100194353D01*
X122362608Y-100211008D01*
X122345953Y-100224676D01*
X122326957Y-100234829D01*
X122306338Y-100241084D01*
X122278760Y-100243800D01*
X121820040Y-100243800D01*
X121792462Y-100241084D01*
X121771843Y-100234829D01*
X121752847Y-100224676D01*
X121736192Y-100211008D01*
X121722524Y-100194353D01*
X121712371Y-100175357D01*
X121706116Y-100154738D01*
X121703400Y-100127160D01*
X121703400Y-99618440D01*
X121706116Y-99590862D01*
X121712371Y-99570243D01*
X121722524Y-99551247D01*
X121736192Y-99534592D01*
X121752847Y-99520924D01*
X121771843Y-99510771D01*
X121792462Y-99504516D01*
X121820040Y-99501800D01*
X122278760Y-99501800D01*
X122306338Y-99504516D01*
G37*
G36*
X118334221Y-98784174D02*
G01*
X118434495Y-98825709D01*
X118479312Y-98855655D01*
X118524742Y-98886010D01*
X118601490Y-98962758D01*
X118601491Y-98962760D01*
X118661791Y-99053005D01*
X118703326Y-99153279D01*
X118724500Y-99259730D01*
X118724500Y-99368270D01*
X118703326Y-99474721D01*
X118661791Y-99574995D01*
X118651189Y-99590862D01*
X118601490Y-99665242D01*
X118524742Y-99741990D01*
X118520762Y-99744649D01*
X118434495Y-99802291D01*
X118334221Y-99843826D01*
X118227770Y-99865000D01*
X118119230Y-99865000D01*
X118012779Y-99843826D01*
X117912505Y-99802291D01*
X117826238Y-99744649D01*
X117822258Y-99741990D01*
X117745510Y-99665242D01*
X117695811Y-99590862D01*
X117685209Y-99574995D01*
X117643674Y-99474721D01*
X117622500Y-99368270D01*
X117622500Y-99259730D01*
X117643674Y-99153279D01*
X117685209Y-99053005D01*
X117745509Y-98962760D01*
X117745510Y-98962758D01*
X117822258Y-98886010D01*
X117867688Y-98855655D01*
X117912505Y-98825709D01*
X118012779Y-98784174D01*
X118119230Y-98763000D01*
X118227770Y-98763000D01*
X118334221Y-98784174D01*
G37*
G36*
X127637538Y-98638116D02*
G01*
X127658157Y-98644371D01*
X127677153Y-98654524D01*
X127693808Y-98668192D01*
X127707476Y-98684847D01*
X127717629Y-98703843D01*
X127723884Y-98724462D01*
X127726600Y-98752040D01*
X127726600Y-99210760D01*
X127723884Y-99238338D01*
X127717629Y-99258957D01*
X127707476Y-99277953D01*
X127693808Y-99294608D01*
X127677153Y-99308276D01*
X127658157Y-99318429D01*
X127637538Y-99324684D01*
X127609960Y-99327400D01*
X127101240Y-99327400D01*
X127073662Y-99324684D01*
X127053043Y-99318429D01*
X127034047Y-99308276D01*
X127017392Y-99294608D01*
X127003724Y-99277953D01*
X126993571Y-99258957D01*
X126987316Y-99238338D01*
X126984600Y-99210760D01*
X126984600Y-98752040D01*
X126987316Y-98724462D01*
X126993571Y-98703843D01*
X127003724Y-98684847D01*
X127017392Y-98668192D01*
X127034047Y-98654524D01*
X127053043Y-98644371D01*
X127073662Y-98638116D01*
X127101240Y-98635400D01*
X127609960Y-98635400D01*
X127637538Y-98638116D01*
G37*
G36*
X126565000Y-98759400D02*
G01*
X125063000Y-98759400D01*
X125063000Y-97457400D01*
X126565000Y-97457400D01*
X126565000Y-98759400D01*
G37*
G36*
X124365000Y-98759400D02*
G01*
X122863000Y-98759400D01*
X122863000Y-97457400D01*
X124365000Y-97457400D01*
X124365000Y-98759400D01*
G37*
G36*
X178397438Y-97993216D02*
G01*
X178418057Y-97999471D01*
X178437053Y-98009624D01*
X178453708Y-98023292D01*
X178467376Y-98039947D01*
X178477529Y-98058943D01*
X178483784Y-98079562D01*
X178486500Y-98107140D01*
X178486500Y-98615860D01*
X178483784Y-98643438D01*
X178477529Y-98664057D01*
X178467376Y-98683053D01*
X178453708Y-98699708D01*
X178437053Y-98713376D01*
X178418057Y-98723529D01*
X178397438Y-98729784D01*
X178369860Y-98732500D01*
X177911140Y-98732500D01*
X177883562Y-98729784D01*
X177862943Y-98723529D01*
X177843947Y-98713376D01*
X177827292Y-98699708D01*
X177813624Y-98683053D01*
X177803471Y-98664057D01*
X177797216Y-98643438D01*
X177794500Y-98615860D01*
X177794500Y-98107140D01*
X177797216Y-98079562D01*
X177803471Y-98058943D01*
X177813624Y-98039947D01*
X177827292Y-98023292D01*
X177843947Y-98009624D01*
X177862943Y-97999471D01*
X177883562Y-97993216D01*
X177911140Y-97990500D01*
X178369860Y-97990500D01*
X178397438Y-97993216D01*
G37*
G36*
X179367438Y-97993216D02*
G01*
X179388057Y-97999471D01*
X179407053Y-98009624D01*
X179423708Y-98023292D01*
X179437376Y-98039947D01*
X179447529Y-98058943D01*
X179453784Y-98079562D01*
X179456500Y-98107140D01*
X179456500Y-98615860D01*
X179453784Y-98643438D01*
X179447529Y-98664057D01*
X179437376Y-98683053D01*
X179423708Y-98699708D01*
X179407053Y-98713376D01*
X179388057Y-98723529D01*
X179367438Y-98729784D01*
X179339860Y-98732500D01*
X178881140Y-98732500D01*
X178853562Y-98729784D01*
X178832943Y-98723529D01*
X178813947Y-98713376D01*
X178797292Y-98699708D01*
X178783624Y-98683053D01*
X178773471Y-98664057D01*
X178767216Y-98643438D01*
X178764500Y-98615860D01*
X178764500Y-98107140D01*
X178767216Y-98079562D01*
X178773471Y-98058943D01*
X178783624Y-98039947D01*
X178797292Y-98023292D01*
X178813947Y-98009624D01*
X178832943Y-97999471D01*
X178853562Y-97993216D01*
X178881140Y-97990500D01*
X179339860Y-97990500D01*
X179367438Y-97993216D01*
G37*
G36*
X130040721Y-97350174D02*
G01*
X130140995Y-97391709D01*
X130140996Y-97391710D01*
X130231242Y-97452010D01*
X130307990Y-97528758D01*
X130307991Y-97528760D01*
X130368291Y-97619005D01*
X130409826Y-97719279D01*
X130431000Y-97825730D01*
X130431000Y-97934270D01*
X130409826Y-98040721D01*
X130368291Y-98140995D01*
X130338345Y-98185812D01*
X130307990Y-98231242D01*
X130231242Y-98307990D01*
X130185812Y-98338345D01*
X130140995Y-98368291D01*
X130040721Y-98409826D01*
X129934270Y-98431000D01*
X129825730Y-98431000D01*
X129719279Y-98409826D01*
X129619005Y-98368291D01*
X129574188Y-98338345D01*
X129528758Y-98307990D01*
X129452010Y-98231242D01*
X129421655Y-98185812D01*
X129391709Y-98140995D01*
X129350174Y-98040721D01*
X129329000Y-97934270D01*
X129329000Y-97825730D01*
X129350174Y-97719279D01*
X129391709Y-97619005D01*
X129452009Y-97528760D01*
X129452010Y-97528758D01*
X129528758Y-97452010D01*
X129619004Y-97391710D01*
X129619005Y-97391709D01*
X129719279Y-97350174D01*
X129825730Y-97329000D01*
X129934270Y-97329000D01*
X130040721Y-97350174D01*
G37*
G36*
X122306338Y-97624916D02*
G01*
X122326957Y-97631171D01*
X122345953Y-97641324D01*
X122362608Y-97654992D01*
X122376276Y-97671647D01*
X122386429Y-97690643D01*
X122392684Y-97711262D01*
X122395400Y-97738840D01*
X122395400Y-98247560D01*
X122392684Y-98275138D01*
X122386429Y-98295757D01*
X122376276Y-98314753D01*
X122362608Y-98331408D01*
X122345953Y-98345076D01*
X122326957Y-98355229D01*
X122306338Y-98361484D01*
X122278760Y-98364200D01*
X121820040Y-98364200D01*
X121792462Y-98361484D01*
X121771843Y-98355229D01*
X121752847Y-98345076D01*
X121736192Y-98331408D01*
X121722524Y-98314753D01*
X121712371Y-98295757D01*
X121706116Y-98275138D01*
X121703400Y-98247560D01*
X121703400Y-97738840D01*
X121706116Y-97711262D01*
X121712371Y-97690643D01*
X121722524Y-97671647D01*
X121736192Y-97654992D01*
X121752847Y-97641324D01*
X121771843Y-97631171D01*
X121792462Y-97624916D01*
X121820040Y-97622200D01*
X122278760Y-97622200D01*
X122306338Y-97624916D01*
G37*
G36*
X121336338Y-97624916D02*
G01*
X121356957Y-97631171D01*
X121375953Y-97641324D01*
X121392608Y-97654992D01*
X121406276Y-97671647D01*
X121416429Y-97690643D01*
X121422684Y-97711262D01*
X121425400Y-97738840D01*
X121425400Y-98247560D01*
X121422684Y-98275138D01*
X121416429Y-98295757D01*
X121406276Y-98314753D01*
X121392608Y-98331408D01*
X121375953Y-98345076D01*
X121356957Y-98355229D01*
X121336338Y-98361484D01*
X121308760Y-98364200D01*
X120850040Y-98364200D01*
X120822462Y-98361484D01*
X120801843Y-98355229D01*
X120782847Y-98345076D01*
X120766192Y-98331408D01*
X120752524Y-98314753D01*
X120742371Y-98295757D01*
X120736116Y-98275138D01*
X120733400Y-98247560D01*
X120733400Y-97738840D01*
X120736116Y-97711262D01*
X120742371Y-97690643D01*
X120752524Y-97671647D01*
X120766192Y-97654992D01*
X120782847Y-97641324D01*
X120801843Y-97631171D01*
X120822462Y-97624916D01*
X120850040Y-97622200D01*
X121308760Y-97622200D01*
X121336338Y-97624916D01*
G37*
G36*
X117318221Y-96688674D02*
G01*
X117418495Y-96730209D01*
X117418496Y-96730210D01*
X117508742Y-96790510D01*
X117585490Y-96867258D01*
X117585491Y-96867260D01*
X117645791Y-96957505D01*
X117687326Y-97057779D01*
X117708500Y-97164230D01*
X117708500Y-97272770D01*
X117687326Y-97379221D01*
X117645791Y-97479495D01*
X117620711Y-97517029D01*
X117585490Y-97569742D01*
X117508742Y-97646490D01*
X117480109Y-97665622D01*
X117418495Y-97706791D01*
X117318221Y-97748326D01*
X117211770Y-97769500D01*
X117103230Y-97769500D01*
X116996779Y-97748326D01*
X116896505Y-97706791D01*
X116834891Y-97665622D01*
X116806258Y-97646490D01*
X116729510Y-97569742D01*
X116694289Y-97517029D01*
X116669209Y-97479495D01*
X116627674Y-97379221D01*
X116606500Y-97272770D01*
X116606500Y-97164230D01*
X116627674Y-97057779D01*
X116669209Y-96957505D01*
X116729509Y-96867260D01*
X116729510Y-96867258D01*
X116806258Y-96790510D01*
X116896504Y-96730210D01*
X116896505Y-96730209D01*
X116996779Y-96688674D01*
X117103230Y-96667500D01*
X117211770Y-96667500D01*
X117318221Y-96688674D01*
G37*
G36*
X171915521Y-96599774D02*
G01*
X172015795Y-96641309D01*
X172015796Y-96641310D01*
X172106042Y-96701610D01*
X172182790Y-96778358D01*
X172192554Y-96792971D01*
X172243091Y-96868605D01*
X172284626Y-96968879D01*
X172305800Y-97075330D01*
X172305800Y-97183870D01*
X172284626Y-97290321D01*
X172243091Y-97390595D01*
X172223975Y-97419204D01*
X172182790Y-97480842D01*
X172106042Y-97557590D01*
X172087858Y-97569740D01*
X172015795Y-97617891D01*
X171915521Y-97659426D01*
X171809070Y-97680600D01*
X171700530Y-97680600D01*
X171594079Y-97659426D01*
X171493805Y-97617891D01*
X171421742Y-97569740D01*
X171403558Y-97557590D01*
X171326810Y-97480842D01*
X171285625Y-97419204D01*
X171266509Y-97390595D01*
X171224974Y-97290321D01*
X171203800Y-97183870D01*
X171203800Y-97075330D01*
X171224974Y-96968879D01*
X171266509Y-96868605D01*
X171317046Y-96792971D01*
X171326810Y-96778358D01*
X171403558Y-96701610D01*
X171493804Y-96641310D01*
X171493805Y-96641309D01*
X171594079Y-96599774D01*
X171700530Y-96578600D01*
X171809070Y-96578600D01*
X171915521Y-96599774D01*
G37*
G36*
X178420438Y-96786716D02*
G01*
X178441057Y-96792971D01*
X178460053Y-96803124D01*
X178476708Y-96816792D01*
X178490376Y-96833447D01*
X178500529Y-96852443D01*
X178506784Y-96873062D01*
X178509500Y-96900640D01*
X178509500Y-97409360D01*
X178506784Y-97436938D01*
X178500529Y-97457557D01*
X178490376Y-97476553D01*
X178476708Y-97493208D01*
X178460053Y-97506876D01*
X178441057Y-97517029D01*
X178420438Y-97523284D01*
X178392860Y-97526000D01*
X177934140Y-97526000D01*
X177906562Y-97523284D01*
X177885943Y-97517029D01*
X177866947Y-97506876D01*
X177850292Y-97493208D01*
X177836624Y-97476553D01*
X177826471Y-97457557D01*
X177820216Y-97436938D01*
X177817500Y-97409360D01*
X177817500Y-96900640D01*
X177820216Y-96873062D01*
X177826471Y-96852443D01*
X177836624Y-96833447D01*
X177850292Y-96816792D01*
X177866947Y-96803124D01*
X177885943Y-96792971D01*
X177906562Y-96786716D01*
X177934140Y-96784000D01*
X178392860Y-96784000D01*
X178420438Y-96786716D01*
G37*
G36*
X179390438Y-96786716D02*
G01*
X179411057Y-96792971D01*
X179430053Y-96803124D01*
X179446708Y-96816792D01*
X179460376Y-96833447D01*
X179470529Y-96852443D01*
X179476784Y-96873062D01*
X179479500Y-96900640D01*
X179479500Y-97409360D01*
X179476784Y-97436938D01*
X179470529Y-97457557D01*
X179460376Y-97476553D01*
X179446708Y-97493208D01*
X179430053Y-97506876D01*
X179411057Y-97517029D01*
X179390438Y-97523284D01*
X179362860Y-97526000D01*
X178904140Y-97526000D01*
X178876562Y-97523284D01*
X178855943Y-97517029D01*
X178836947Y-97506876D01*
X178820292Y-97493208D01*
X178806624Y-97476553D01*
X178796471Y-97457557D01*
X178790216Y-97436938D01*
X178787500Y-97409360D01*
X178787500Y-96900640D01*
X178790216Y-96873062D01*
X178796471Y-96852443D01*
X178806624Y-96833447D01*
X178820292Y-96816792D01*
X178836947Y-96803124D01*
X178855943Y-96792971D01*
X178876562Y-96786716D01*
X178904140Y-96784000D01*
X179362860Y-96784000D01*
X179390438Y-96786716D01*
G37*
G36*
X121336338Y-96354916D02*
G01*
X121356957Y-96361171D01*
X121375953Y-96371324D01*
X121392608Y-96384992D01*
X121406276Y-96401647D01*
X121416429Y-96420643D01*
X121422684Y-96441262D01*
X121425400Y-96468840D01*
X121425400Y-96977560D01*
X121422684Y-97005138D01*
X121416429Y-97025757D01*
X121406276Y-97044753D01*
X121392608Y-97061408D01*
X121375953Y-97075076D01*
X121356957Y-97085229D01*
X121336338Y-97091484D01*
X121308760Y-97094200D01*
X120850040Y-97094200D01*
X120822462Y-97091484D01*
X120801843Y-97085229D01*
X120782847Y-97075076D01*
X120766192Y-97061408D01*
X120752524Y-97044753D01*
X120742371Y-97025757D01*
X120736116Y-97005138D01*
X120733400Y-96977560D01*
X120733400Y-96468840D01*
X120736116Y-96441262D01*
X120742371Y-96420643D01*
X120752524Y-96401647D01*
X120766192Y-96384992D01*
X120782847Y-96371324D01*
X120801843Y-96361171D01*
X120822462Y-96354916D01*
X120850040Y-96352200D01*
X121308760Y-96352200D01*
X121336338Y-96354916D01*
G37*
G36*
X122306338Y-96354916D02*
G01*
X122326957Y-96361171D01*
X122345953Y-96371324D01*
X122362608Y-96384992D01*
X122376276Y-96401647D01*
X122386429Y-96420643D01*
X122392684Y-96441262D01*
X122395400Y-96468840D01*
X122395400Y-96977560D01*
X122392684Y-97005138D01*
X122386429Y-97025757D01*
X122376276Y-97044753D01*
X122362608Y-97061408D01*
X122345953Y-97075076D01*
X122326957Y-97085229D01*
X122306338Y-97091484D01*
X122278760Y-97094200D01*
X121820040Y-97094200D01*
X121792462Y-97091484D01*
X121771843Y-97085229D01*
X121752847Y-97075076D01*
X121736192Y-97061408D01*
X121722524Y-97044753D01*
X121712371Y-97025757D01*
X121706116Y-97005138D01*
X121703400Y-96977560D01*
X121703400Y-96468840D01*
X121706116Y-96441262D01*
X121712371Y-96420643D01*
X121722524Y-96401647D01*
X121736192Y-96384992D01*
X121752847Y-96371324D01*
X121771843Y-96361171D01*
X121792462Y-96354916D01*
X121820040Y-96352200D01*
X122278760Y-96352200D01*
X122306338Y-96354916D01*
G37*
G36*
X127127538Y-96304116D02*
G01*
X127148157Y-96310371D01*
X127167153Y-96320524D01*
X127183808Y-96334192D01*
X127197476Y-96350847D01*
X127207629Y-96369843D01*
X127213884Y-96390462D01*
X127216600Y-96418040D01*
X127216600Y-96926760D01*
X127213884Y-96954338D01*
X127207629Y-96974957D01*
X127197476Y-96993953D01*
X127183808Y-97010608D01*
X127167153Y-97024276D01*
X127148157Y-97034429D01*
X127127538Y-97040684D01*
X127099960Y-97043400D01*
X126641240Y-97043400D01*
X126613662Y-97040684D01*
X126593043Y-97034429D01*
X126574047Y-97024276D01*
X126557392Y-97010608D01*
X126543724Y-96993953D01*
X126533571Y-96974957D01*
X126527316Y-96954338D01*
X126524600Y-96926760D01*
X126524600Y-96418040D01*
X126527316Y-96390462D01*
X126533571Y-96369843D01*
X126543724Y-96350847D01*
X126557392Y-96334192D01*
X126574047Y-96320524D01*
X126593043Y-96310371D01*
X126613662Y-96304116D01*
X126641240Y-96301400D01*
X127099960Y-96301400D01*
X127127538Y-96304116D01*
G37*
G36*
X128097538Y-96304116D02*
G01*
X128118157Y-96310371D01*
X128137153Y-96320524D01*
X128153808Y-96334192D01*
X128167476Y-96350847D01*
X128177629Y-96369843D01*
X128183884Y-96390462D01*
X128186600Y-96418040D01*
X128186600Y-96926760D01*
X128183884Y-96954338D01*
X128177629Y-96974957D01*
X128167476Y-96993953D01*
X128153808Y-97010608D01*
X128137153Y-97024276D01*
X128118157Y-97034429D01*
X128097538Y-97040684D01*
X128069960Y-97043400D01*
X127611240Y-97043400D01*
X127583662Y-97040684D01*
X127563043Y-97034429D01*
X127544047Y-97024276D01*
X127527392Y-97010608D01*
X127513724Y-96993953D01*
X127503571Y-96974957D01*
X127497316Y-96954338D01*
X127494600Y-96926760D01*
X127494600Y-96418040D01*
X127497316Y-96390462D01*
X127503571Y-96369843D01*
X127513724Y-96350847D01*
X127527392Y-96334192D01*
X127544047Y-96320524D01*
X127563043Y-96310371D01*
X127583662Y-96304116D01*
X127611240Y-96301400D01*
X128069960Y-96301400D01*
X128097538Y-96304116D01*
G37*
G36*
X158031000Y-95285000D02*
G01*
X137879000Y-95285000D01*
X137879000Y-93183000D01*
X158031000Y-93183000D01*
X158031000Y-95285000D01*
G37*
G36*
X179230721Y-93132674D02*
G01*
X179330995Y-93174209D01*
X179375812Y-93204155D01*
X179421242Y-93234510D01*
X179497990Y-93311258D01*
X179497991Y-93311260D01*
X179558291Y-93401505D01*
X179599826Y-93501779D01*
X179621000Y-93608230D01*
X179621000Y-93716770D01*
X179599826Y-93823221D01*
X179558291Y-93923495D01*
X179558290Y-93923496D01*
X179497990Y-94013742D01*
X179421242Y-94090490D01*
X179375812Y-94120845D01*
X179330995Y-94150791D01*
X179230721Y-94192326D01*
X179124270Y-94213500D01*
X179015730Y-94213500D01*
X178909279Y-94192326D01*
X178809005Y-94150791D01*
X178764188Y-94120845D01*
X178718758Y-94090490D01*
X178642010Y-94013742D01*
X178581710Y-93923496D01*
X178581709Y-93923495D01*
X178540174Y-93823221D01*
X178519000Y-93716770D01*
X178519000Y-93608230D01*
X178540174Y-93501779D01*
X178581709Y-93401505D01*
X178642009Y-93311260D01*
X178642010Y-93311258D01*
X178718758Y-93234510D01*
X178764188Y-93204155D01*
X178809005Y-93174209D01*
X178909279Y-93132674D01*
X179015730Y-93111500D01*
X179124270Y-93111500D01*
X179230721Y-93132674D01*
G37*
G36*
X117155880Y-88239776D02*
G01*
X117536593Y-88315504D01*
X117946249Y-88485189D01*
X118314929Y-88731534D01*
X118628466Y-89045071D01*
X118874811Y-89413751D01*
X119044496Y-89823407D01*
X119131000Y-90258296D01*
X119131000Y-90701704D01*
X119044496Y-91136593D01*
X118874811Y-91546249D01*
X118628466Y-91914929D01*
X118314929Y-92228466D01*
X117946249Y-92474811D01*
X117536593Y-92644496D01*
X117155880Y-92720224D01*
X117101705Y-92731000D01*
X116658295Y-92731000D01*
X116604120Y-92720224D01*
X116223407Y-92644496D01*
X115813751Y-92474811D01*
X115445071Y-92228466D01*
X115131534Y-91914929D01*
X114885189Y-91546249D01*
X114715504Y-91136593D01*
X114629000Y-90701704D01*
X114629000Y-90258296D01*
X114715504Y-89823407D01*
X114885189Y-89413751D01*
X115131534Y-89045071D01*
X115445071Y-88731534D01*
X115813751Y-88485189D01*
X116223407Y-88315504D01*
X116604120Y-88239776D01*
X116658295Y-88229000D01*
X117101705Y-88229000D01*
X117155880Y-88239776D01*
G37*
G36*
X176155880Y-88239776D02*
G01*
X176536593Y-88315504D01*
X176946249Y-88485189D01*
X177314929Y-88731534D01*
X177628466Y-89045071D01*
X177874811Y-89413751D01*
X178044496Y-89823407D01*
X178131000Y-90258296D01*
X178131000Y-90701704D01*
X178044496Y-91136593D01*
X177874811Y-91546249D01*
X177628466Y-91914929D01*
X177314929Y-92228466D01*
X176946249Y-92474811D01*
X176536593Y-92644496D01*
X176155880Y-92720224D01*
X176101705Y-92731000D01*
X175658295Y-92731000D01*
X175604120Y-92720224D01*
X175223407Y-92644496D01*
X174813751Y-92474811D01*
X174445071Y-92228466D01*
X174131534Y-91914929D01*
X173885189Y-91546249D01*
X173715504Y-91136593D01*
X173629000Y-90701704D01*
X173629000Y-90258296D01*
X173715504Y-89823407D01*
X173885189Y-89413751D01*
X174131534Y-89045071D01*
X174445071Y-88731534D01*
X174813751Y-88485189D01*
X175223407Y-88315504D01*
X175604120Y-88239776D01*
X175658295Y-88229000D01*
X176101705Y-88229000D01*
X176155880Y-88239776D01*
G37*
M02*
