G04 #@! TF.GenerationSoftware,KiCad,Pcbnew,(5.1.5)-3*
G04 #@! TF.CreationDate,2020-01-05T10:53:17-07:00*
G04 #@! TF.ProjectId,spi_control,7370695f-636f-46e7-9472-6f6c2e6b6963,A*
G04 #@! TF.SameCoordinates,Original*
G04 #@! TF.FileFunction,Soldermask,Bot*
G04 #@! TF.FilePolarity,Negative*
%FSLAX46Y46*%
G04 Gerber Fmt 4.6, Leading zero omitted, Abs format (unit mm)*
G04 Created by KiCad (PCBNEW (5.1.5)-3) date 2020-01-05 10:53:17*
%MOMM*%
%LPD*%
G04 APERTURE LIST*
%ADD10C,0.100000*%
G04 APERTURE END LIST*
D10*
G36*
X122301000Y-127545600D02*
G01*
X121199000Y-127545600D01*
X121199000Y-124443600D01*
X122301000Y-124443600D01*
X122301000Y-127545600D01*
G37*
G36*
X150241000Y-127545600D02*
G01*
X149139000Y-127545600D01*
X149139000Y-124443600D01*
X150241000Y-124443600D01*
X150241000Y-127545600D01*
G37*
G36*
X170561000Y-127545600D02*
G01*
X169459000Y-127545600D01*
X169459000Y-124443600D01*
X170561000Y-124443600D01*
X170561000Y-127545600D01*
G37*
G36*
X168021000Y-127545600D02*
G01*
X166919000Y-127545600D01*
X166919000Y-124443600D01*
X168021000Y-124443600D01*
X168021000Y-127545600D01*
G37*
G36*
X165481000Y-127545600D02*
G01*
X164379000Y-127545600D01*
X164379000Y-124443600D01*
X165481000Y-124443600D01*
X165481000Y-127545600D01*
G37*
G36*
X162941000Y-127545600D02*
G01*
X161839000Y-127545600D01*
X161839000Y-124443600D01*
X162941000Y-124443600D01*
X162941000Y-127545600D01*
G37*
G36*
X160401000Y-127545600D02*
G01*
X159299000Y-127545600D01*
X159299000Y-124443600D01*
X160401000Y-124443600D01*
X160401000Y-127545600D01*
G37*
G36*
X157861000Y-127545600D02*
G01*
X156759000Y-127545600D01*
X156759000Y-124443600D01*
X157861000Y-124443600D01*
X157861000Y-127545600D01*
G37*
G36*
X155321000Y-127545600D02*
G01*
X154219000Y-127545600D01*
X154219000Y-124443600D01*
X155321000Y-124443600D01*
X155321000Y-127545600D01*
G37*
G36*
X152781000Y-127545600D02*
G01*
X151679000Y-127545600D01*
X151679000Y-124443600D01*
X152781000Y-124443600D01*
X152781000Y-127545600D01*
G37*
G36*
X129921000Y-127545600D02*
G01*
X128819000Y-127545600D01*
X128819000Y-124443600D01*
X129921000Y-124443600D01*
X129921000Y-127545600D01*
G37*
G36*
X145161000Y-127545600D02*
G01*
X144059000Y-127545600D01*
X144059000Y-124443600D01*
X145161000Y-124443600D01*
X145161000Y-127545600D01*
G37*
G36*
X142621000Y-127545600D02*
G01*
X141519000Y-127545600D01*
X141519000Y-124443600D01*
X142621000Y-124443600D01*
X142621000Y-127545600D01*
G37*
G36*
X140081000Y-127545600D02*
G01*
X138979000Y-127545600D01*
X138979000Y-124443600D01*
X140081000Y-124443600D01*
X140081000Y-127545600D01*
G37*
G36*
X137541000Y-127545600D02*
G01*
X136439000Y-127545600D01*
X136439000Y-124443600D01*
X137541000Y-124443600D01*
X137541000Y-127545600D01*
G37*
G36*
X135001000Y-127545600D02*
G01*
X133899000Y-127545600D01*
X133899000Y-124443600D01*
X135001000Y-124443600D01*
X135001000Y-127545600D01*
G37*
G36*
X132461000Y-127545600D02*
G01*
X131359000Y-127545600D01*
X131359000Y-124443600D01*
X132461000Y-124443600D01*
X132461000Y-127545600D01*
G37*
G36*
X127381000Y-127545600D02*
G01*
X126279000Y-127545600D01*
X126279000Y-124443600D01*
X127381000Y-124443600D01*
X127381000Y-127545600D01*
G37*
G36*
X124841000Y-127545600D02*
G01*
X123739000Y-127545600D01*
X123739000Y-124443600D01*
X124841000Y-124443600D01*
X124841000Y-127545600D01*
G37*
G36*
X147701000Y-127545600D02*
G01*
X146599000Y-127545600D01*
X146599000Y-124443600D01*
X147701000Y-124443600D01*
X147701000Y-127545600D01*
G37*
G36*
X176155880Y-121330776D02*
G01*
X176536593Y-121406504D01*
X176946249Y-121576189D01*
X177314929Y-121822534D01*
X177628466Y-122136071D01*
X177874811Y-122504751D01*
X178044496Y-122914407D01*
X178131000Y-123349296D01*
X178131000Y-123792704D01*
X178044496Y-124227593D01*
X177874811Y-124637249D01*
X177628466Y-125005929D01*
X177314929Y-125319466D01*
X176946249Y-125565811D01*
X176536593Y-125735496D01*
X176155880Y-125811224D01*
X176101705Y-125822000D01*
X175658295Y-125822000D01*
X175604120Y-125811224D01*
X175223407Y-125735496D01*
X174813751Y-125565811D01*
X174445071Y-125319466D01*
X174131534Y-125005929D01*
X173885189Y-124637249D01*
X173715504Y-124227593D01*
X173629000Y-123792704D01*
X173629000Y-123349296D01*
X173715504Y-122914407D01*
X173885189Y-122504751D01*
X174131534Y-122136071D01*
X174445071Y-121822534D01*
X174813751Y-121576189D01*
X175223407Y-121406504D01*
X175604120Y-121330776D01*
X175658295Y-121320000D01*
X176101705Y-121320000D01*
X176155880Y-121330776D01*
G37*
G36*
X117155880Y-121330776D02*
G01*
X117536593Y-121406504D01*
X117946249Y-121576189D01*
X118314929Y-121822534D01*
X118628466Y-122136071D01*
X118874811Y-122504751D01*
X119044496Y-122914407D01*
X119131000Y-123349296D01*
X119131000Y-123792704D01*
X119044496Y-124227593D01*
X118874811Y-124637249D01*
X118628466Y-125005929D01*
X118314929Y-125319466D01*
X117946249Y-125565811D01*
X117536593Y-125735496D01*
X117155880Y-125811224D01*
X117101705Y-125822000D01*
X116658295Y-125822000D01*
X116604120Y-125811224D01*
X116223407Y-125735496D01*
X115813751Y-125565811D01*
X115445071Y-125319466D01*
X115131534Y-125005929D01*
X114885189Y-124637249D01*
X114715504Y-124227593D01*
X114629000Y-123792704D01*
X114629000Y-123349296D01*
X114715504Y-122914407D01*
X114885189Y-122504751D01*
X115131534Y-122136071D01*
X115445071Y-121822534D01*
X115813751Y-121576189D01*
X116223407Y-121406504D01*
X116604120Y-121330776D01*
X116658295Y-121320000D01*
X117101705Y-121320000D01*
X117155880Y-121330776D01*
G37*
G36*
X155321000Y-122505600D02*
G01*
X154219000Y-122505600D01*
X154219000Y-119403600D01*
X155321000Y-119403600D01*
X155321000Y-122505600D01*
G37*
G36*
X145161000Y-122505600D02*
G01*
X144059000Y-122505600D01*
X144059000Y-119403600D01*
X145161000Y-119403600D01*
X145161000Y-122505600D01*
G37*
G36*
X170561000Y-122505600D02*
G01*
X169459000Y-122505600D01*
X169459000Y-119403600D01*
X170561000Y-119403600D01*
X170561000Y-122505600D01*
G37*
G36*
X168021000Y-122505600D02*
G01*
X166919000Y-122505600D01*
X166919000Y-119403600D01*
X168021000Y-119403600D01*
X168021000Y-122505600D01*
G37*
G36*
X124841000Y-122505600D02*
G01*
X123739000Y-122505600D01*
X123739000Y-119403600D01*
X124841000Y-119403600D01*
X124841000Y-122505600D01*
G37*
G36*
X165481000Y-122505600D02*
G01*
X164379000Y-122505600D01*
X164379000Y-119403600D01*
X165481000Y-119403600D01*
X165481000Y-122505600D01*
G37*
G36*
X127381000Y-122505600D02*
G01*
X126279000Y-122505600D01*
X126279000Y-119403600D01*
X127381000Y-119403600D01*
X127381000Y-122505600D01*
G37*
G36*
X162941000Y-122505600D02*
G01*
X161839000Y-122505600D01*
X161839000Y-119403600D01*
X162941000Y-119403600D01*
X162941000Y-122505600D01*
G37*
G36*
X129921000Y-122505600D02*
G01*
X128819000Y-122505600D01*
X128819000Y-119403600D01*
X129921000Y-119403600D01*
X129921000Y-122505600D01*
G37*
G36*
X160401000Y-122505600D02*
G01*
X159299000Y-122505600D01*
X159299000Y-119403600D01*
X160401000Y-119403600D01*
X160401000Y-122505600D01*
G37*
G36*
X122301000Y-122505600D02*
G01*
X121199000Y-122505600D01*
X121199000Y-119403600D01*
X122301000Y-119403600D01*
X122301000Y-122505600D01*
G37*
G36*
X157861000Y-122505600D02*
G01*
X156759000Y-122505600D01*
X156759000Y-119403600D01*
X157861000Y-119403600D01*
X157861000Y-122505600D01*
G37*
G36*
X135001000Y-122505600D02*
G01*
X133899000Y-122505600D01*
X133899000Y-119403600D01*
X135001000Y-119403600D01*
X135001000Y-122505600D01*
G37*
G36*
X137541000Y-122505600D02*
G01*
X136439000Y-122505600D01*
X136439000Y-119403600D01*
X137541000Y-119403600D01*
X137541000Y-122505600D01*
G37*
G36*
X152781000Y-122505600D02*
G01*
X151679000Y-122505600D01*
X151679000Y-119403600D01*
X152781000Y-119403600D01*
X152781000Y-122505600D01*
G37*
G36*
X140081000Y-122505600D02*
G01*
X138979000Y-122505600D01*
X138979000Y-119403600D01*
X140081000Y-119403600D01*
X140081000Y-122505600D01*
G37*
G36*
X150241000Y-122505600D02*
G01*
X149139000Y-122505600D01*
X149139000Y-119403600D01*
X150241000Y-119403600D01*
X150241000Y-122505600D01*
G37*
G36*
X142621000Y-122505600D02*
G01*
X141519000Y-122505600D01*
X141519000Y-119403600D01*
X142621000Y-119403600D01*
X142621000Y-122505600D01*
G37*
G36*
X147701000Y-122505600D02*
G01*
X146599000Y-122505600D01*
X146599000Y-119403600D01*
X147701000Y-119403600D01*
X147701000Y-122505600D01*
G37*
G36*
X132461000Y-122505600D02*
G01*
X131359000Y-122505600D01*
X131359000Y-119403600D01*
X132461000Y-119403600D01*
X132461000Y-122505600D01*
G37*
G36*
X133625880Y-112650776D02*
G01*
X134006593Y-112726504D01*
X134416249Y-112896189D01*
X134784929Y-113142534D01*
X135098466Y-113456071D01*
X135344811Y-113824751D01*
X135514496Y-114234407D01*
X135601000Y-114669296D01*
X135601000Y-115112704D01*
X135514496Y-115547593D01*
X135344811Y-115957249D01*
X135098466Y-116325929D01*
X134784929Y-116639466D01*
X134416249Y-116885811D01*
X134006593Y-117055496D01*
X133625880Y-117131224D01*
X133571705Y-117142000D01*
X133128295Y-117142000D01*
X133074120Y-117131224D01*
X132693407Y-117055496D01*
X132283751Y-116885811D01*
X131915071Y-116639466D01*
X131601534Y-116325929D01*
X131355189Y-115957249D01*
X131185504Y-115547593D01*
X131099000Y-115112704D01*
X131099000Y-114669296D01*
X131185504Y-114234407D01*
X131355189Y-113824751D01*
X131601534Y-113456071D01*
X131915071Y-113142534D01*
X132283751Y-112896189D01*
X132693407Y-112726504D01*
X133074120Y-112650776D01*
X133128295Y-112640000D01*
X133571705Y-112640000D01*
X133625880Y-112650776D01*
G37*
G36*
X170848138Y-114998516D02*
G01*
X170868757Y-115004771D01*
X170887753Y-115014924D01*
X170904408Y-115028592D01*
X170918076Y-115045247D01*
X170928229Y-115064243D01*
X170934484Y-115084862D01*
X170937200Y-115112440D01*
X170937200Y-115621160D01*
X170934484Y-115648738D01*
X170928229Y-115669357D01*
X170918076Y-115688353D01*
X170904408Y-115705008D01*
X170887753Y-115718676D01*
X170868757Y-115728829D01*
X170848138Y-115735084D01*
X170820560Y-115737800D01*
X170361840Y-115737800D01*
X170334262Y-115735084D01*
X170313643Y-115728829D01*
X170294647Y-115718676D01*
X170277992Y-115705008D01*
X170264324Y-115688353D01*
X170254171Y-115669357D01*
X170247916Y-115648738D01*
X170245200Y-115621160D01*
X170245200Y-115112440D01*
X170247916Y-115084862D01*
X170254171Y-115064243D01*
X170264324Y-115045247D01*
X170277992Y-115028592D01*
X170294647Y-115014924D01*
X170313643Y-115004771D01*
X170334262Y-114998516D01*
X170361840Y-114995800D01*
X170820560Y-114995800D01*
X170848138Y-114998516D01*
G37*
G36*
X169878138Y-114998516D02*
G01*
X169898757Y-115004771D01*
X169917753Y-115014924D01*
X169934408Y-115028592D01*
X169948076Y-115045247D01*
X169958229Y-115064243D01*
X169964484Y-115084862D01*
X169967200Y-115112440D01*
X169967200Y-115621160D01*
X169964484Y-115648738D01*
X169958229Y-115669357D01*
X169948076Y-115688353D01*
X169934408Y-115705008D01*
X169917753Y-115718676D01*
X169898757Y-115728829D01*
X169878138Y-115735084D01*
X169850560Y-115737800D01*
X169391840Y-115737800D01*
X169364262Y-115735084D01*
X169343643Y-115728829D01*
X169324647Y-115718676D01*
X169307992Y-115705008D01*
X169294324Y-115688353D01*
X169284171Y-115669357D01*
X169277916Y-115648738D01*
X169275200Y-115621160D01*
X169275200Y-115112440D01*
X169277916Y-115084862D01*
X169284171Y-115064243D01*
X169294324Y-115045247D01*
X169307992Y-115028592D01*
X169324647Y-115014924D01*
X169343643Y-115004771D01*
X169364262Y-114998516D01*
X169391840Y-114995800D01*
X169850560Y-114995800D01*
X169878138Y-114998516D01*
G37*
G36*
X166651938Y-114187716D02*
G01*
X166672557Y-114193971D01*
X166691553Y-114204124D01*
X166708208Y-114217792D01*
X166721876Y-114234447D01*
X166732029Y-114253443D01*
X166738284Y-114274062D01*
X166741000Y-114301640D01*
X166741000Y-114760360D01*
X166738284Y-114787938D01*
X166732029Y-114808557D01*
X166721876Y-114827553D01*
X166708208Y-114844208D01*
X166691553Y-114857876D01*
X166672557Y-114868029D01*
X166651938Y-114874284D01*
X166624360Y-114877000D01*
X166115640Y-114877000D01*
X166088062Y-114874284D01*
X166067443Y-114868029D01*
X166048447Y-114857876D01*
X166031792Y-114844208D01*
X166018124Y-114827553D01*
X166007971Y-114808557D01*
X166001716Y-114787938D01*
X165999000Y-114760360D01*
X165999000Y-114301640D01*
X166001716Y-114274062D01*
X166007971Y-114253443D01*
X166018124Y-114234447D01*
X166031792Y-114217792D01*
X166048447Y-114204124D01*
X166067443Y-114193971D01*
X166088062Y-114187716D01*
X166115640Y-114185000D01*
X166624360Y-114185000D01*
X166651938Y-114187716D01*
G37*
G36*
X171554000Y-114500000D02*
G01*
X170252000Y-114500000D01*
X170252000Y-112998000D01*
X171554000Y-112998000D01*
X171554000Y-114500000D01*
G37*
G36*
X169854000Y-114500000D02*
G01*
X168552000Y-114500000D01*
X168552000Y-112998000D01*
X169854000Y-112998000D01*
X169854000Y-114500000D01*
G37*
G36*
X125982813Y-113170438D02*
G01*
X126003432Y-113176693D01*
X126022428Y-113186846D01*
X126043849Y-113204426D01*
X126403574Y-113564151D01*
X126421154Y-113585572D01*
X126431307Y-113604568D01*
X126437562Y-113625187D01*
X126439673Y-113646625D01*
X126437562Y-113668063D01*
X126431307Y-113688682D01*
X126421154Y-113707678D01*
X126403574Y-113729099D01*
X126079205Y-114053468D01*
X126057784Y-114071048D01*
X126038788Y-114081201D01*
X126018169Y-114087456D01*
X125996731Y-114089567D01*
X125975293Y-114087456D01*
X125954674Y-114081201D01*
X125935678Y-114071048D01*
X125914257Y-114053468D01*
X125554532Y-113693743D01*
X125536952Y-113672322D01*
X125526799Y-113653326D01*
X125520544Y-113632707D01*
X125518433Y-113611269D01*
X125520544Y-113589831D01*
X125526799Y-113569212D01*
X125536952Y-113550216D01*
X125554532Y-113528795D01*
X125878901Y-113204426D01*
X125900322Y-113186846D01*
X125919318Y-113176693D01*
X125939937Y-113170438D01*
X125961375Y-113168327D01*
X125982813Y-113170438D01*
G37*
G36*
X166651938Y-113217716D02*
G01*
X166672557Y-113223971D01*
X166691553Y-113234124D01*
X166708208Y-113247792D01*
X166721876Y-113264447D01*
X166732029Y-113283443D01*
X166738284Y-113304062D01*
X166741000Y-113331640D01*
X166741000Y-113790360D01*
X166738284Y-113817938D01*
X166732029Y-113838557D01*
X166721876Y-113857553D01*
X166708208Y-113874208D01*
X166691553Y-113887876D01*
X166672557Y-113898029D01*
X166651938Y-113904284D01*
X166624360Y-113907000D01*
X166115640Y-113907000D01*
X166088062Y-113904284D01*
X166067443Y-113898029D01*
X166048447Y-113887876D01*
X166031792Y-113874208D01*
X166018124Y-113857553D01*
X166007971Y-113838557D01*
X166001716Y-113817938D01*
X165999000Y-113790360D01*
X165999000Y-113331640D01*
X166001716Y-113304062D01*
X166007971Y-113283443D01*
X166018124Y-113264447D01*
X166031792Y-113247792D01*
X166048447Y-113234124D01*
X166067443Y-113223971D01*
X166088062Y-113217716D01*
X166115640Y-113215000D01*
X166624360Y-113215000D01*
X166651938Y-113217716D01*
G37*
G36*
X172697138Y-112714516D02*
G01*
X172717757Y-112720771D01*
X172736753Y-112730924D01*
X172753408Y-112744592D01*
X172767076Y-112761247D01*
X172777229Y-112780243D01*
X172783484Y-112800862D01*
X172786200Y-112828440D01*
X172786200Y-113287160D01*
X172783484Y-113314738D01*
X172777229Y-113335357D01*
X172767076Y-113354353D01*
X172753408Y-113371008D01*
X172736753Y-113384676D01*
X172717757Y-113394829D01*
X172697138Y-113401084D01*
X172669560Y-113403800D01*
X172160840Y-113403800D01*
X172133262Y-113401084D01*
X172112643Y-113394829D01*
X172093647Y-113384676D01*
X172076992Y-113371008D01*
X172063324Y-113354353D01*
X172053171Y-113335357D01*
X172046916Y-113314738D01*
X172044200Y-113287160D01*
X172044200Y-112828440D01*
X172046916Y-112800862D01*
X172053171Y-112780243D01*
X172063324Y-112761247D01*
X172076992Y-112744592D01*
X172093647Y-112730924D01*
X172112643Y-112720771D01*
X172133262Y-112714516D01*
X172160840Y-112711800D01*
X172669560Y-112711800D01*
X172697138Y-112714516D01*
G37*
G36*
X126668707Y-112484544D02*
G01*
X126689326Y-112490799D01*
X126708322Y-112500952D01*
X126729743Y-112518532D01*
X127089468Y-112878257D01*
X127107048Y-112899678D01*
X127117201Y-112918674D01*
X127123456Y-112939293D01*
X127125567Y-112960731D01*
X127123456Y-112982169D01*
X127117201Y-113002788D01*
X127107048Y-113021784D01*
X127089468Y-113043205D01*
X126765099Y-113367574D01*
X126743678Y-113385154D01*
X126724682Y-113395307D01*
X126704063Y-113401562D01*
X126682625Y-113403673D01*
X126661187Y-113401562D01*
X126640568Y-113395307D01*
X126621572Y-113385154D01*
X126600151Y-113367574D01*
X126240426Y-113007849D01*
X126222846Y-112986428D01*
X126212693Y-112967432D01*
X126206438Y-112946813D01*
X126204327Y-112925375D01*
X126206438Y-112903937D01*
X126212693Y-112883318D01*
X126222846Y-112864322D01*
X126240426Y-112842901D01*
X126564795Y-112518532D01*
X126586216Y-112500952D01*
X126605212Y-112490799D01*
X126625831Y-112484544D01*
X126647269Y-112482433D01*
X126668707Y-112484544D01*
G37*
G36*
X125238413Y-112406438D02*
G01*
X125259032Y-112412693D01*
X125278028Y-112422846D01*
X125299449Y-112440426D01*
X125659174Y-112800151D01*
X125676754Y-112821572D01*
X125686907Y-112840568D01*
X125693162Y-112861187D01*
X125695273Y-112882625D01*
X125693162Y-112904063D01*
X125686907Y-112924682D01*
X125676754Y-112943678D01*
X125659174Y-112965099D01*
X125334805Y-113289468D01*
X125313384Y-113307048D01*
X125294388Y-113317201D01*
X125273769Y-113323456D01*
X125252331Y-113325567D01*
X125230893Y-113323456D01*
X125210274Y-113317201D01*
X125191278Y-113307048D01*
X125169857Y-113289468D01*
X124810132Y-112929743D01*
X124792552Y-112908322D01*
X124782399Y-112889326D01*
X124776144Y-112868707D01*
X124774033Y-112847269D01*
X124776144Y-112825831D01*
X124782399Y-112805212D01*
X124792552Y-112786216D01*
X124810132Y-112764795D01*
X125134501Y-112440426D01*
X125155922Y-112422846D01*
X125174918Y-112412693D01*
X125195537Y-112406438D01*
X125216975Y-112404327D01*
X125238413Y-112406438D01*
G37*
G36*
X125924307Y-111720544D02*
G01*
X125944926Y-111726799D01*
X125963922Y-111736952D01*
X125985343Y-111754532D01*
X126345068Y-112114257D01*
X126362648Y-112135678D01*
X126372801Y-112154674D01*
X126379056Y-112175293D01*
X126381167Y-112196731D01*
X126379056Y-112218169D01*
X126372801Y-112238788D01*
X126362648Y-112257784D01*
X126345068Y-112279205D01*
X126020699Y-112603574D01*
X125999278Y-112621154D01*
X125980282Y-112631307D01*
X125959663Y-112637562D01*
X125938225Y-112639673D01*
X125916787Y-112637562D01*
X125896168Y-112631307D01*
X125877172Y-112621154D01*
X125855751Y-112603574D01*
X125496026Y-112243849D01*
X125478446Y-112222428D01*
X125468293Y-112203432D01*
X125462038Y-112182813D01*
X125459927Y-112161375D01*
X125462038Y-112139937D01*
X125468293Y-112119318D01*
X125478446Y-112100322D01*
X125496026Y-112078901D01*
X125820395Y-111754532D01*
X125841816Y-111736952D01*
X125860812Y-111726799D01*
X125881431Y-111720544D01*
X125902869Y-111718433D01*
X125924307Y-111720544D01*
G37*
G36*
X163208295Y-111664823D02*
G01*
X163215310Y-111666951D01*
X163221776Y-111670408D01*
X163227442Y-111675058D01*
X163232092Y-111680724D01*
X163235549Y-111687190D01*
X163237677Y-111694205D01*
X163238603Y-111703609D01*
X163243383Y-111727642D01*
X163252761Y-111750281D01*
X163266374Y-111770655D01*
X163283701Y-111787982D01*
X163304076Y-111801596D01*
X163326715Y-111810974D01*
X163350748Y-111815754D01*
X163375252Y-111815754D01*
X163399285Y-111810974D01*
X163421924Y-111801596D01*
X163442298Y-111787983D01*
X163459625Y-111770656D01*
X163473239Y-111750281D01*
X163482617Y-111727642D01*
X163487397Y-111703609D01*
X163488323Y-111694205D01*
X163490451Y-111687190D01*
X163493908Y-111680724D01*
X163498558Y-111675058D01*
X163504224Y-111670408D01*
X163510690Y-111666951D01*
X163517705Y-111664823D01*
X163531140Y-111663500D01*
X163844860Y-111663500D01*
X163858295Y-111664823D01*
X163865310Y-111666951D01*
X163871776Y-111670408D01*
X163877442Y-111675058D01*
X163882092Y-111680724D01*
X163885549Y-111687190D01*
X163887677Y-111694205D01*
X163888603Y-111703609D01*
X163893383Y-111727642D01*
X163902761Y-111750281D01*
X163916374Y-111770655D01*
X163933701Y-111787982D01*
X163954076Y-111801596D01*
X163976715Y-111810974D01*
X164000748Y-111815754D01*
X164025252Y-111815754D01*
X164049285Y-111810974D01*
X164071924Y-111801596D01*
X164092298Y-111787983D01*
X164109625Y-111770656D01*
X164123239Y-111750281D01*
X164132617Y-111727642D01*
X164137397Y-111703609D01*
X164138323Y-111694205D01*
X164140451Y-111687190D01*
X164143908Y-111680724D01*
X164148558Y-111675058D01*
X164154224Y-111670408D01*
X164160690Y-111666951D01*
X164167705Y-111664823D01*
X164181140Y-111663500D01*
X164494860Y-111663500D01*
X164508295Y-111664823D01*
X164515310Y-111666951D01*
X164521776Y-111670408D01*
X164527442Y-111675058D01*
X164532092Y-111680724D01*
X164535549Y-111687190D01*
X164537677Y-111694205D01*
X164538603Y-111703609D01*
X164543383Y-111727642D01*
X164552761Y-111750281D01*
X164566374Y-111770655D01*
X164583701Y-111787982D01*
X164604076Y-111801596D01*
X164626715Y-111810974D01*
X164650748Y-111815754D01*
X164675252Y-111815754D01*
X164699285Y-111810974D01*
X164721924Y-111801596D01*
X164742298Y-111787983D01*
X164759625Y-111770656D01*
X164773239Y-111750281D01*
X164782617Y-111727642D01*
X164787397Y-111703609D01*
X164788323Y-111694205D01*
X164790451Y-111687190D01*
X164793908Y-111680724D01*
X164798558Y-111675058D01*
X164804224Y-111670408D01*
X164810690Y-111666951D01*
X164817705Y-111664823D01*
X164831140Y-111663500D01*
X165144860Y-111663500D01*
X165158295Y-111664823D01*
X165165310Y-111666951D01*
X165171776Y-111670408D01*
X165177442Y-111675058D01*
X165182092Y-111680724D01*
X165185549Y-111687190D01*
X165187677Y-111694205D01*
X165188603Y-111703609D01*
X165193383Y-111727642D01*
X165202761Y-111750281D01*
X165216374Y-111770655D01*
X165233701Y-111787982D01*
X165254076Y-111801596D01*
X165276715Y-111810974D01*
X165300748Y-111815754D01*
X165325252Y-111815754D01*
X165349285Y-111810974D01*
X165371924Y-111801596D01*
X165392298Y-111787983D01*
X165409625Y-111770656D01*
X165423239Y-111750281D01*
X165432617Y-111727642D01*
X165437397Y-111703609D01*
X165438323Y-111694205D01*
X165440451Y-111687190D01*
X165443908Y-111680724D01*
X165448558Y-111675058D01*
X165454224Y-111670408D01*
X165460690Y-111666951D01*
X165467705Y-111664823D01*
X165481140Y-111663500D01*
X165794860Y-111663500D01*
X165808295Y-111664823D01*
X165815310Y-111666951D01*
X165821776Y-111670408D01*
X165827442Y-111675058D01*
X165832092Y-111680724D01*
X165835549Y-111687190D01*
X165837677Y-111694205D01*
X165839000Y-111707640D01*
X165839000Y-112521360D01*
X165837677Y-112534795D01*
X165835549Y-112541810D01*
X165832092Y-112548276D01*
X165827442Y-112553942D01*
X165821776Y-112558592D01*
X165815310Y-112562049D01*
X165808295Y-112564177D01*
X165794860Y-112565500D01*
X165481140Y-112565500D01*
X165467705Y-112564177D01*
X165460690Y-112562049D01*
X165454224Y-112558592D01*
X165448558Y-112553942D01*
X165443908Y-112548276D01*
X165440451Y-112541810D01*
X165438323Y-112534795D01*
X165437397Y-112525391D01*
X165432617Y-112501358D01*
X165423239Y-112478719D01*
X165409626Y-112458345D01*
X165392299Y-112441018D01*
X165371924Y-112427404D01*
X165349285Y-112418026D01*
X165325252Y-112413246D01*
X165300748Y-112413246D01*
X165276715Y-112418026D01*
X165254076Y-112427404D01*
X165233702Y-112441017D01*
X165216375Y-112458344D01*
X165202761Y-112478719D01*
X165193383Y-112501358D01*
X165188603Y-112525391D01*
X165187677Y-112534795D01*
X165185549Y-112541810D01*
X165182092Y-112548276D01*
X165177442Y-112553942D01*
X165171776Y-112558592D01*
X165165310Y-112562049D01*
X165158295Y-112564177D01*
X165144860Y-112565500D01*
X164831140Y-112565500D01*
X164817705Y-112564177D01*
X164810690Y-112562049D01*
X164804224Y-112558592D01*
X164798558Y-112553942D01*
X164793908Y-112548276D01*
X164790451Y-112541810D01*
X164788323Y-112534795D01*
X164787397Y-112525391D01*
X164782617Y-112501358D01*
X164773239Y-112478719D01*
X164759626Y-112458345D01*
X164742299Y-112441018D01*
X164721924Y-112427404D01*
X164699285Y-112418026D01*
X164675252Y-112413246D01*
X164650748Y-112413246D01*
X164626715Y-112418026D01*
X164604076Y-112427404D01*
X164583702Y-112441017D01*
X164566375Y-112458344D01*
X164552761Y-112478719D01*
X164543383Y-112501358D01*
X164538603Y-112525391D01*
X164537677Y-112534795D01*
X164535549Y-112541810D01*
X164532092Y-112548276D01*
X164527442Y-112553942D01*
X164521776Y-112558592D01*
X164515310Y-112562049D01*
X164508295Y-112564177D01*
X164494860Y-112565500D01*
X164181140Y-112565500D01*
X164167705Y-112564177D01*
X164160690Y-112562049D01*
X164154224Y-112558592D01*
X164148558Y-112553942D01*
X164143908Y-112548276D01*
X164140451Y-112541810D01*
X164138323Y-112534795D01*
X164137397Y-112525391D01*
X164132617Y-112501358D01*
X164123239Y-112478719D01*
X164109626Y-112458345D01*
X164092299Y-112441018D01*
X164071924Y-112427404D01*
X164049285Y-112418026D01*
X164025252Y-112413246D01*
X164000748Y-112413246D01*
X163976715Y-112418026D01*
X163954076Y-112427404D01*
X163933702Y-112441017D01*
X163916375Y-112458344D01*
X163902761Y-112478719D01*
X163893383Y-112501358D01*
X163888603Y-112525391D01*
X163887677Y-112534795D01*
X163885549Y-112541810D01*
X163882092Y-112548276D01*
X163877442Y-112553942D01*
X163871776Y-112558592D01*
X163865310Y-112562049D01*
X163858295Y-112564177D01*
X163844860Y-112565500D01*
X163531140Y-112565500D01*
X163517705Y-112564177D01*
X163510690Y-112562049D01*
X163504224Y-112558592D01*
X163498558Y-112553942D01*
X163493908Y-112548276D01*
X163490451Y-112541810D01*
X163488323Y-112534795D01*
X163487397Y-112525391D01*
X163482617Y-112501358D01*
X163473239Y-112478719D01*
X163459626Y-112458345D01*
X163442299Y-112441018D01*
X163421924Y-112427404D01*
X163399285Y-112418026D01*
X163375252Y-112413246D01*
X163350748Y-112413246D01*
X163326715Y-112418026D01*
X163304076Y-112427404D01*
X163283702Y-112441017D01*
X163266375Y-112458344D01*
X163252761Y-112478719D01*
X163243383Y-112501358D01*
X163238603Y-112525391D01*
X163237677Y-112534795D01*
X163235549Y-112541810D01*
X163232092Y-112548276D01*
X163227442Y-112553942D01*
X163221776Y-112558592D01*
X163215310Y-112562049D01*
X163208295Y-112564177D01*
X163194860Y-112565500D01*
X162881140Y-112565500D01*
X162867705Y-112564177D01*
X162860690Y-112562049D01*
X162854224Y-112558592D01*
X162848558Y-112553942D01*
X162843908Y-112548276D01*
X162840451Y-112541810D01*
X162838323Y-112534795D01*
X162837000Y-112521360D01*
X162837000Y-111707640D01*
X162838323Y-111694205D01*
X162840451Y-111687190D01*
X162843908Y-111680724D01*
X162848558Y-111675058D01*
X162854224Y-111670408D01*
X162860690Y-111666951D01*
X162867705Y-111664823D01*
X162881140Y-111663500D01*
X163194860Y-111663500D01*
X163208295Y-111664823D01*
G37*
G36*
X172697138Y-111744516D02*
G01*
X172717757Y-111750771D01*
X172736753Y-111760924D01*
X172753408Y-111774592D01*
X172767076Y-111791247D01*
X172777229Y-111810243D01*
X172783484Y-111830862D01*
X172786200Y-111858440D01*
X172786200Y-112317160D01*
X172783484Y-112344738D01*
X172777229Y-112365357D01*
X172767076Y-112384353D01*
X172753408Y-112401008D01*
X172736753Y-112414676D01*
X172717757Y-112424829D01*
X172697138Y-112431084D01*
X172669560Y-112433800D01*
X172160840Y-112433800D01*
X172133262Y-112431084D01*
X172112643Y-112424829D01*
X172093647Y-112414676D01*
X172076992Y-112401008D01*
X172063324Y-112384353D01*
X172053171Y-112365357D01*
X172046916Y-112344738D01*
X172044200Y-112317160D01*
X172044200Y-111858440D01*
X172046916Y-111830862D01*
X172053171Y-111810243D01*
X172063324Y-111791247D01*
X172076992Y-111774592D01*
X172093647Y-111760924D01*
X172112643Y-111750771D01*
X172133262Y-111744516D01*
X172160840Y-111741800D01*
X172669560Y-111741800D01*
X172697138Y-111744516D01*
G37*
G36*
X169854000Y-112300000D02*
G01*
X168552000Y-112300000D01*
X168552000Y-110798000D01*
X169854000Y-110798000D01*
X169854000Y-112300000D01*
G37*
G36*
X171554000Y-112300000D02*
G01*
X170252000Y-112300000D01*
X170252000Y-110798000D01*
X171554000Y-110798000D01*
X171554000Y-112300000D01*
G37*
G36*
X127420116Y-110729991D02*
G01*
X127440735Y-110736246D01*
X127459731Y-110746399D01*
X127481152Y-110763979D01*
X127805521Y-111088348D01*
X127823101Y-111109769D01*
X127833254Y-111128765D01*
X127839509Y-111149384D01*
X127841620Y-111170822D01*
X127839509Y-111192260D01*
X127833254Y-111212879D01*
X127823101Y-111231875D01*
X127805521Y-111253296D01*
X127445796Y-111613021D01*
X127424375Y-111630601D01*
X127405379Y-111640754D01*
X127384760Y-111647009D01*
X127363322Y-111649120D01*
X127341884Y-111647009D01*
X127321265Y-111640754D01*
X127302269Y-111630601D01*
X127280848Y-111613021D01*
X126956479Y-111288652D01*
X126938899Y-111267231D01*
X126928746Y-111248235D01*
X126922491Y-111227616D01*
X126920380Y-111206178D01*
X126922491Y-111184740D01*
X126928746Y-111164121D01*
X126938899Y-111145125D01*
X126956479Y-111123704D01*
X127316204Y-110763979D01*
X127337625Y-110746399D01*
X127356621Y-110736246D01*
X127377240Y-110729991D01*
X127398678Y-110727880D01*
X127420116Y-110729991D01*
G37*
G36*
X165942124Y-107941999D02*
G01*
X165970387Y-107950573D01*
X165996434Y-107964496D01*
X166019267Y-107983233D01*
X166038004Y-108006066D01*
X166051927Y-108032113D01*
X166060501Y-108060376D01*
X166064000Y-108095908D01*
X166064000Y-111233092D01*
X166060501Y-111268624D01*
X166051927Y-111296887D01*
X166038004Y-111322934D01*
X166019267Y-111345767D01*
X165996434Y-111364504D01*
X165970387Y-111378427D01*
X165942124Y-111387001D01*
X165906592Y-111390500D01*
X162769408Y-111390500D01*
X162733876Y-111387001D01*
X162705613Y-111378427D01*
X162679566Y-111364504D01*
X162656733Y-111345767D01*
X162637996Y-111322934D01*
X162624073Y-111296887D01*
X162615499Y-111268624D01*
X162612000Y-111233092D01*
X162612000Y-108095908D01*
X162615499Y-108060376D01*
X162624073Y-108032113D01*
X162637996Y-108006066D01*
X162656733Y-107983233D01*
X162679566Y-107964496D01*
X162705613Y-107950573D01*
X162733876Y-107941999D01*
X162769408Y-107938500D01*
X165906592Y-107938500D01*
X165942124Y-107941999D01*
G37*
G36*
X167208295Y-108164823D02*
G01*
X167215310Y-108166951D01*
X167221776Y-108170408D01*
X167227442Y-108175058D01*
X167232092Y-108180724D01*
X167235549Y-108187190D01*
X167237677Y-108194205D01*
X167239000Y-108207640D01*
X167239000Y-108521360D01*
X167237677Y-108534795D01*
X167235549Y-108541810D01*
X167232092Y-108548276D01*
X167227442Y-108553942D01*
X167221776Y-108558592D01*
X167215310Y-108562049D01*
X167208295Y-108564177D01*
X167198891Y-108565103D01*
X167174858Y-108569883D01*
X167152219Y-108579261D01*
X167131845Y-108592874D01*
X167114518Y-108610201D01*
X167100904Y-108630576D01*
X167091526Y-108653215D01*
X167086746Y-108677248D01*
X167086746Y-108701752D01*
X167091526Y-108725785D01*
X167100904Y-108748424D01*
X167114517Y-108768798D01*
X167131844Y-108786125D01*
X167152219Y-108799739D01*
X167174858Y-108809117D01*
X167198891Y-108813897D01*
X167208295Y-108814823D01*
X167215310Y-108816951D01*
X167221776Y-108820408D01*
X167227442Y-108825058D01*
X167232092Y-108830724D01*
X167235549Y-108837190D01*
X167237677Y-108844205D01*
X167239000Y-108857640D01*
X167239000Y-109171360D01*
X167237677Y-109184795D01*
X167235549Y-109191810D01*
X167232092Y-109198276D01*
X167227442Y-109203942D01*
X167221776Y-109208592D01*
X167215310Y-109212049D01*
X167208295Y-109214177D01*
X167198891Y-109215103D01*
X167174858Y-109219883D01*
X167152219Y-109229261D01*
X167131845Y-109242874D01*
X167114518Y-109260201D01*
X167100904Y-109280576D01*
X167091526Y-109303215D01*
X167086746Y-109327248D01*
X167086746Y-109351752D01*
X167091526Y-109375785D01*
X167100904Y-109398424D01*
X167114517Y-109418798D01*
X167131844Y-109436125D01*
X167152219Y-109449739D01*
X167174858Y-109459117D01*
X167198891Y-109463897D01*
X167208295Y-109464823D01*
X167215310Y-109466951D01*
X167221776Y-109470408D01*
X167227442Y-109475058D01*
X167232092Y-109480724D01*
X167235549Y-109487190D01*
X167237677Y-109494205D01*
X167239000Y-109507640D01*
X167239000Y-109821360D01*
X167237677Y-109834795D01*
X167235549Y-109841810D01*
X167232092Y-109848276D01*
X167227442Y-109853942D01*
X167221776Y-109858592D01*
X167215310Y-109862049D01*
X167208295Y-109864177D01*
X167198891Y-109865103D01*
X167174858Y-109869883D01*
X167152219Y-109879261D01*
X167131845Y-109892874D01*
X167114518Y-109910201D01*
X167100904Y-109930576D01*
X167091526Y-109953215D01*
X167086746Y-109977248D01*
X167086746Y-110001752D01*
X167091526Y-110025785D01*
X167100904Y-110048424D01*
X167114517Y-110068798D01*
X167131844Y-110086125D01*
X167152219Y-110099739D01*
X167174858Y-110109117D01*
X167198891Y-110113897D01*
X167208295Y-110114823D01*
X167215310Y-110116951D01*
X167221776Y-110120408D01*
X167227442Y-110125058D01*
X167232092Y-110130724D01*
X167235549Y-110137190D01*
X167237677Y-110144205D01*
X167239000Y-110157640D01*
X167239000Y-110471360D01*
X167237677Y-110484795D01*
X167235549Y-110491810D01*
X167232092Y-110498276D01*
X167227442Y-110503942D01*
X167221776Y-110508592D01*
X167215310Y-110512049D01*
X167208295Y-110514177D01*
X167198891Y-110515103D01*
X167174858Y-110519883D01*
X167152219Y-110529261D01*
X167131845Y-110542874D01*
X167114518Y-110560201D01*
X167100904Y-110580576D01*
X167091526Y-110603215D01*
X167086746Y-110627248D01*
X167086746Y-110651752D01*
X167091526Y-110675785D01*
X167100904Y-110698424D01*
X167114517Y-110718798D01*
X167131844Y-110736125D01*
X167152219Y-110749739D01*
X167174858Y-110759117D01*
X167198891Y-110763897D01*
X167208295Y-110764823D01*
X167215310Y-110766951D01*
X167221776Y-110770408D01*
X167227442Y-110775058D01*
X167232092Y-110780724D01*
X167235549Y-110787190D01*
X167237677Y-110794205D01*
X167239000Y-110807640D01*
X167239000Y-111121360D01*
X167237677Y-111134795D01*
X167235549Y-111141810D01*
X167232092Y-111148276D01*
X167227442Y-111153942D01*
X167221776Y-111158592D01*
X167215310Y-111162049D01*
X167208295Y-111164177D01*
X167194860Y-111165500D01*
X166381140Y-111165500D01*
X166367705Y-111164177D01*
X166360690Y-111162049D01*
X166354224Y-111158592D01*
X166348558Y-111153942D01*
X166343908Y-111148276D01*
X166340451Y-111141810D01*
X166338323Y-111134795D01*
X166337000Y-111121360D01*
X166337000Y-110807640D01*
X166338323Y-110794205D01*
X166340451Y-110787190D01*
X166343908Y-110780724D01*
X166348558Y-110775058D01*
X166354224Y-110770408D01*
X166360690Y-110766951D01*
X166367705Y-110764823D01*
X166377109Y-110763897D01*
X166401142Y-110759117D01*
X166423781Y-110749739D01*
X166444155Y-110736126D01*
X166461482Y-110718799D01*
X166475096Y-110698424D01*
X166484474Y-110675785D01*
X166489254Y-110651752D01*
X166489254Y-110627248D01*
X166484474Y-110603215D01*
X166475096Y-110580576D01*
X166461483Y-110560202D01*
X166444156Y-110542875D01*
X166423781Y-110529261D01*
X166401142Y-110519883D01*
X166377109Y-110515103D01*
X166367705Y-110514177D01*
X166360690Y-110512049D01*
X166354224Y-110508592D01*
X166348558Y-110503942D01*
X166343908Y-110498276D01*
X166340451Y-110491810D01*
X166338323Y-110484795D01*
X166337000Y-110471360D01*
X166337000Y-110157640D01*
X166338323Y-110144205D01*
X166340451Y-110137190D01*
X166343908Y-110130724D01*
X166348558Y-110125058D01*
X166354224Y-110120408D01*
X166360690Y-110116951D01*
X166367705Y-110114823D01*
X166377109Y-110113897D01*
X166401142Y-110109117D01*
X166423781Y-110099739D01*
X166444155Y-110086126D01*
X166461482Y-110068799D01*
X166475096Y-110048424D01*
X166484474Y-110025785D01*
X166489254Y-110001752D01*
X166489254Y-109977248D01*
X166484474Y-109953215D01*
X166475096Y-109930576D01*
X166461483Y-109910202D01*
X166444156Y-109892875D01*
X166423781Y-109879261D01*
X166401142Y-109869883D01*
X166377109Y-109865103D01*
X166367705Y-109864177D01*
X166360690Y-109862049D01*
X166354224Y-109858592D01*
X166348558Y-109853942D01*
X166343908Y-109848276D01*
X166340451Y-109841810D01*
X166338323Y-109834795D01*
X166337000Y-109821360D01*
X166337000Y-109507640D01*
X166338323Y-109494205D01*
X166340451Y-109487190D01*
X166343908Y-109480724D01*
X166348558Y-109475058D01*
X166354224Y-109470408D01*
X166360690Y-109466951D01*
X166367705Y-109464823D01*
X166377109Y-109463897D01*
X166401142Y-109459117D01*
X166423781Y-109449739D01*
X166444155Y-109436126D01*
X166461482Y-109418799D01*
X166475096Y-109398424D01*
X166484474Y-109375785D01*
X166489254Y-109351752D01*
X166489254Y-109327248D01*
X166484474Y-109303215D01*
X166475096Y-109280576D01*
X166461483Y-109260202D01*
X166444156Y-109242875D01*
X166423781Y-109229261D01*
X166401142Y-109219883D01*
X166377109Y-109215103D01*
X166367705Y-109214177D01*
X166360690Y-109212049D01*
X166354224Y-109208592D01*
X166348558Y-109203942D01*
X166343908Y-109198276D01*
X166340451Y-109191810D01*
X166338323Y-109184795D01*
X166337000Y-109171360D01*
X166337000Y-108857640D01*
X166338323Y-108844205D01*
X166340451Y-108837190D01*
X166343908Y-108830724D01*
X166348558Y-108825058D01*
X166354224Y-108820408D01*
X166360690Y-108816951D01*
X166367705Y-108814823D01*
X166377109Y-108813897D01*
X166401142Y-108809117D01*
X166423781Y-108799739D01*
X166444155Y-108786126D01*
X166461482Y-108768799D01*
X166475096Y-108748424D01*
X166484474Y-108725785D01*
X166489254Y-108701752D01*
X166489254Y-108677248D01*
X166484474Y-108653215D01*
X166475096Y-108630576D01*
X166461483Y-108610202D01*
X166444156Y-108592875D01*
X166423781Y-108579261D01*
X166401142Y-108569883D01*
X166377109Y-108565103D01*
X166367705Y-108564177D01*
X166360690Y-108562049D01*
X166354224Y-108558592D01*
X166348558Y-108553942D01*
X166343908Y-108548276D01*
X166340451Y-108541810D01*
X166338323Y-108534795D01*
X166337000Y-108521360D01*
X166337000Y-108207640D01*
X166338323Y-108194205D01*
X166340451Y-108187190D01*
X166343908Y-108180724D01*
X166348558Y-108175058D01*
X166354224Y-108170408D01*
X166360690Y-108166951D01*
X166367705Y-108164823D01*
X166381140Y-108163500D01*
X167194860Y-108163500D01*
X167208295Y-108164823D01*
G37*
G36*
X162308295Y-108164823D02*
G01*
X162315310Y-108166951D01*
X162321776Y-108170408D01*
X162327442Y-108175058D01*
X162332092Y-108180724D01*
X162335549Y-108187190D01*
X162337677Y-108194205D01*
X162339000Y-108207640D01*
X162339000Y-108521360D01*
X162337677Y-108534795D01*
X162335549Y-108541810D01*
X162332092Y-108548276D01*
X162327442Y-108553942D01*
X162321776Y-108558592D01*
X162315310Y-108562049D01*
X162308295Y-108564177D01*
X162298891Y-108565103D01*
X162274858Y-108569883D01*
X162252219Y-108579261D01*
X162231845Y-108592874D01*
X162214518Y-108610201D01*
X162200904Y-108630576D01*
X162191526Y-108653215D01*
X162186746Y-108677248D01*
X162186746Y-108701752D01*
X162191526Y-108725785D01*
X162200904Y-108748424D01*
X162214517Y-108768798D01*
X162231844Y-108786125D01*
X162252219Y-108799739D01*
X162274858Y-108809117D01*
X162298891Y-108813897D01*
X162308295Y-108814823D01*
X162315310Y-108816951D01*
X162321776Y-108820408D01*
X162327442Y-108825058D01*
X162332092Y-108830724D01*
X162335549Y-108837190D01*
X162337677Y-108844205D01*
X162339000Y-108857640D01*
X162339000Y-109171360D01*
X162337677Y-109184795D01*
X162335549Y-109191810D01*
X162332092Y-109198276D01*
X162327442Y-109203942D01*
X162321776Y-109208592D01*
X162315310Y-109212049D01*
X162308295Y-109214177D01*
X162298891Y-109215103D01*
X162274858Y-109219883D01*
X162252219Y-109229261D01*
X162231845Y-109242874D01*
X162214518Y-109260201D01*
X162200904Y-109280576D01*
X162191526Y-109303215D01*
X162186746Y-109327248D01*
X162186746Y-109351752D01*
X162191526Y-109375785D01*
X162200904Y-109398424D01*
X162214517Y-109418798D01*
X162231844Y-109436125D01*
X162252219Y-109449739D01*
X162274858Y-109459117D01*
X162298891Y-109463897D01*
X162308295Y-109464823D01*
X162315310Y-109466951D01*
X162321776Y-109470408D01*
X162327442Y-109475058D01*
X162332092Y-109480724D01*
X162335549Y-109487190D01*
X162337677Y-109494205D01*
X162339000Y-109507640D01*
X162339000Y-109821360D01*
X162337677Y-109834795D01*
X162335549Y-109841810D01*
X162332092Y-109848276D01*
X162327442Y-109853942D01*
X162321776Y-109858592D01*
X162315310Y-109862049D01*
X162308295Y-109864177D01*
X162298891Y-109865103D01*
X162274858Y-109869883D01*
X162252219Y-109879261D01*
X162231845Y-109892874D01*
X162214518Y-109910201D01*
X162200904Y-109930576D01*
X162191526Y-109953215D01*
X162186746Y-109977248D01*
X162186746Y-110001752D01*
X162191526Y-110025785D01*
X162200904Y-110048424D01*
X162214517Y-110068798D01*
X162231844Y-110086125D01*
X162252219Y-110099739D01*
X162274858Y-110109117D01*
X162298891Y-110113897D01*
X162308295Y-110114823D01*
X162315310Y-110116951D01*
X162321776Y-110120408D01*
X162327442Y-110125058D01*
X162332092Y-110130724D01*
X162335549Y-110137190D01*
X162337677Y-110144205D01*
X162339000Y-110157640D01*
X162339000Y-110471360D01*
X162337677Y-110484795D01*
X162335549Y-110491810D01*
X162332092Y-110498276D01*
X162327442Y-110503942D01*
X162321776Y-110508592D01*
X162315310Y-110512049D01*
X162308295Y-110514177D01*
X162298891Y-110515103D01*
X162274858Y-110519883D01*
X162252219Y-110529261D01*
X162231845Y-110542874D01*
X162214518Y-110560201D01*
X162200904Y-110580576D01*
X162191526Y-110603215D01*
X162186746Y-110627248D01*
X162186746Y-110651752D01*
X162191526Y-110675785D01*
X162200904Y-110698424D01*
X162214517Y-110718798D01*
X162231844Y-110736125D01*
X162252219Y-110749739D01*
X162274858Y-110759117D01*
X162298891Y-110763897D01*
X162308295Y-110764823D01*
X162315310Y-110766951D01*
X162321776Y-110770408D01*
X162327442Y-110775058D01*
X162332092Y-110780724D01*
X162335549Y-110787190D01*
X162337677Y-110794205D01*
X162339000Y-110807640D01*
X162339000Y-111121360D01*
X162337677Y-111134795D01*
X162335549Y-111141810D01*
X162332092Y-111148276D01*
X162327442Y-111153942D01*
X162321776Y-111158592D01*
X162315310Y-111162049D01*
X162308295Y-111164177D01*
X162294860Y-111165500D01*
X161481140Y-111165500D01*
X161467705Y-111164177D01*
X161460690Y-111162049D01*
X161454224Y-111158592D01*
X161448558Y-111153942D01*
X161443908Y-111148276D01*
X161440451Y-111141810D01*
X161438323Y-111134795D01*
X161437000Y-111121360D01*
X161437000Y-110807640D01*
X161438323Y-110794205D01*
X161440451Y-110787190D01*
X161443908Y-110780724D01*
X161448558Y-110775058D01*
X161454224Y-110770408D01*
X161460690Y-110766951D01*
X161467705Y-110764823D01*
X161477109Y-110763897D01*
X161501142Y-110759117D01*
X161523781Y-110749739D01*
X161544155Y-110736126D01*
X161561482Y-110718799D01*
X161575096Y-110698424D01*
X161584474Y-110675785D01*
X161589254Y-110651752D01*
X161589254Y-110627248D01*
X161584474Y-110603215D01*
X161575096Y-110580576D01*
X161561483Y-110560202D01*
X161544156Y-110542875D01*
X161523781Y-110529261D01*
X161501142Y-110519883D01*
X161477109Y-110515103D01*
X161467705Y-110514177D01*
X161460690Y-110512049D01*
X161454224Y-110508592D01*
X161448558Y-110503942D01*
X161443908Y-110498276D01*
X161440451Y-110491810D01*
X161438323Y-110484795D01*
X161437000Y-110471360D01*
X161437000Y-110157640D01*
X161438323Y-110144205D01*
X161440451Y-110137190D01*
X161443908Y-110130724D01*
X161448558Y-110125058D01*
X161454224Y-110120408D01*
X161460690Y-110116951D01*
X161467705Y-110114823D01*
X161477109Y-110113897D01*
X161501142Y-110109117D01*
X161523781Y-110099739D01*
X161544155Y-110086126D01*
X161561482Y-110068799D01*
X161575096Y-110048424D01*
X161584474Y-110025785D01*
X161589254Y-110001752D01*
X161589254Y-109977248D01*
X161584474Y-109953215D01*
X161575096Y-109930576D01*
X161561483Y-109910202D01*
X161544156Y-109892875D01*
X161523781Y-109879261D01*
X161501142Y-109869883D01*
X161477109Y-109865103D01*
X161467705Y-109864177D01*
X161460690Y-109862049D01*
X161454224Y-109858592D01*
X161448558Y-109853942D01*
X161443908Y-109848276D01*
X161440451Y-109841810D01*
X161438323Y-109834795D01*
X161437000Y-109821360D01*
X161437000Y-109507640D01*
X161438323Y-109494205D01*
X161440451Y-109487190D01*
X161443908Y-109480724D01*
X161448558Y-109475058D01*
X161454224Y-109470408D01*
X161460690Y-109466951D01*
X161467705Y-109464823D01*
X161477109Y-109463897D01*
X161501142Y-109459117D01*
X161523781Y-109449739D01*
X161544155Y-109436126D01*
X161561482Y-109418799D01*
X161575096Y-109398424D01*
X161584474Y-109375785D01*
X161589254Y-109351752D01*
X161589254Y-109327248D01*
X161584474Y-109303215D01*
X161575096Y-109280576D01*
X161561483Y-109260202D01*
X161544156Y-109242875D01*
X161523781Y-109229261D01*
X161501142Y-109219883D01*
X161477109Y-109215103D01*
X161467705Y-109214177D01*
X161460690Y-109212049D01*
X161454224Y-109208592D01*
X161448558Y-109203942D01*
X161443908Y-109198276D01*
X161440451Y-109191810D01*
X161438323Y-109184795D01*
X161437000Y-109171360D01*
X161437000Y-108857640D01*
X161438323Y-108844205D01*
X161440451Y-108837190D01*
X161443908Y-108830724D01*
X161448558Y-108825058D01*
X161454224Y-108820408D01*
X161460690Y-108816951D01*
X161467705Y-108814823D01*
X161477109Y-108813897D01*
X161501142Y-108809117D01*
X161523781Y-108799739D01*
X161544155Y-108786126D01*
X161561482Y-108768799D01*
X161575096Y-108748424D01*
X161584474Y-108725785D01*
X161589254Y-108701752D01*
X161589254Y-108677248D01*
X161584474Y-108653215D01*
X161575096Y-108630576D01*
X161561483Y-108610202D01*
X161544156Y-108592875D01*
X161523781Y-108579261D01*
X161501142Y-108569883D01*
X161477109Y-108565103D01*
X161467705Y-108564177D01*
X161460690Y-108562049D01*
X161454224Y-108558592D01*
X161448558Y-108553942D01*
X161443908Y-108548276D01*
X161440451Y-108541810D01*
X161438323Y-108534795D01*
X161437000Y-108521360D01*
X161437000Y-108207640D01*
X161438323Y-108194205D01*
X161440451Y-108187190D01*
X161443908Y-108180724D01*
X161448558Y-108175058D01*
X161454224Y-108170408D01*
X161460690Y-108166951D01*
X161467705Y-108164823D01*
X161481140Y-108163500D01*
X162294860Y-108163500D01*
X162308295Y-108164823D01*
G37*
G36*
X126734222Y-110044097D02*
G01*
X126754841Y-110050352D01*
X126773837Y-110060505D01*
X126795258Y-110078085D01*
X127119627Y-110402454D01*
X127137207Y-110423875D01*
X127147360Y-110442871D01*
X127153615Y-110463490D01*
X127155726Y-110484928D01*
X127153615Y-110506366D01*
X127147360Y-110526985D01*
X127137207Y-110545981D01*
X127119627Y-110567402D01*
X126759902Y-110927127D01*
X126738481Y-110944707D01*
X126719485Y-110954860D01*
X126698866Y-110961115D01*
X126677428Y-110963226D01*
X126655990Y-110961115D01*
X126635371Y-110954860D01*
X126616375Y-110944707D01*
X126594954Y-110927127D01*
X126270585Y-110602758D01*
X126253005Y-110581337D01*
X126242852Y-110562341D01*
X126236597Y-110541722D01*
X126234486Y-110520284D01*
X126236597Y-110498846D01*
X126242852Y-110478227D01*
X126253005Y-110459231D01*
X126270585Y-110437810D01*
X126630310Y-110078085D01*
X126651731Y-110060505D01*
X126670727Y-110050352D01*
X126691346Y-110044097D01*
X126712784Y-110041986D01*
X126734222Y-110044097D01*
G37*
G36*
X128207563Y-109993438D02*
G01*
X128228182Y-109999693D01*
X128247178Y-110009846D01*
X128268599Y-110027426D01*
X128592968Y-110351795D01*
X128610548Y-110373216D01*
X128620701Y-110392212D01*
X128626956Y-110412831D01*
X128629067Y-110434269D01*
X128626956Y-110455707D01*
X128620701Y-110476326D01*
X128610548Y-110495322D01*
X128592968Y-110516743D01*
X128233243Y-110876468D01*
X128211822Y-110894048D01*
X128192826Y-110904201D01*
X128172207Y-110910456D01*
X128150769Y-110912567D01*
X128129331Y-110910456D01*
X128108712Y-110904201D01*
X128089716Y-110894048D01*
X128068295Y-110876468D01*
X127743926Y-110552099D01*
X127726346Y-110530678D01*
X127716193Y-110511682D01*
X127709938Y-110491063D01*
X127707827Y-110469625D01*
X127709938Y-110448187D01*
X127716193Y-110427568D01*
X127726346Y-110408572D01*
X127743926Y-110387151D01*
X128103651Y-110027426D01*
X128125072Y-110009846D01*
X128144068Y-109999693D01*
X128164687Y-109993438D01*
X128186125Y-109991327D01*
X128207563Y-109993438D01*
G37*
G36*
X176809938Y-109766116D02*
G01*
X176830557Y-109772371D01*
X176849553Y-109782524D01*
X176866208Y-109796192D01*
X176879876Y-109812847D01*
X176890029Y-109831843D01*
X176896284Y-109852462D01*
X176899000Y-109880040D01*
X176899000Y-110388760D01*
X176896284Y-110416338D01*
X176890029Y-110436957D01*
X176879876Y-110455953D01*
X176866208Y-110472608D01*
X176849553Y-110486276D01*
X176830557Y-110496429D01*
X176809938Y-110502684D01*
X176782360Y-110505400D01*
X176323640Y-110505400D01*
X176296062Y-110502684D01*
X176275443Y-110496429D01*
X176256447Y-110486276D01*
X176239792Y-110472608D01*
X176226124Y-110455953D01*
X176215971Y-110436957D01*
X176209716Y-110416338D01*
X176207000Y-110388760D01*
X176207000Y-109880040D01*
X176209716Y-109852462D01*
X176215971Y-109831843D01*
X176226124Y-109812847D01*
X176239792Y-109796192D01*
X176256447Y-109782524D01*
X176275443Y-109772371D01*
X176296062Y-109766116D01*
X176323640Y-109763400D01*
X176782360Y-109763400D01*
X176809938Y-109766116D01*
G37*
G36*
X177779938Y-109766116D02*
G01*
X177800557Y-109772371D01*
X177819553Y-109782524D01*
X177836208Y-109796192D01*
X177849876Y-109812847D01*
X177860029Y-109831843D01*
X177866284Y-109852462D01*
X177869000Y-109880040D01*
X177869000Y-110388760D01*
X177866284Y-110416338D01*
X177860029Y-110436957D01*
X177849876Y-110455953D01*
X177836208Y-110472608D01*
X177819553Y-110486276D01*
X177800557Y-110496429D01*
X177779938Y-110502684D01*
X177752360Y-110505400D01*
X177293640Y-110505400D01*
X177266062Y-110502684D01*
X177245443Y-110496429D01*
X177226447Y-110486276D01*
X177209792Y-110472608D01*
X177196124Y-110455953D01*
X177185971Y-110436957D01*
X177179716Y-110416338D01*
X177177000Y-110388760D01*
X177177000Y-109880040D01*
X177179716Y-109852462D01*
X177185971Y-109831843D01*
X177196124Y-109812847D01*
X177209792Y-109796192D01*
X177226447Y-109782524D01*
X177245443Y-109772371D01*
X177266062Y-109766116D01*
X177293640Y-109763400D01*
X177752360Y-109763400D01*
X177779938Y-109766116D01*
G37*
G36*
X127521669Y-109307544D02*
G01*
X127542288Y-109313799D01*
X127561284Y-109323952D01*
X127582705Y-109341532D01*
X127907074Y-109665901D01*
X127924654Y-109687322D01*
X127934807Y-109706318D01*
X127941062Y-109726937D01*
X127943173Y-109748375D01*
X127941062Y-109769813D01*
X127934807Y-109790432D01*
X127924654Y-109809428D01*
X127907074Y-109830849D01*
X127547349Y-110190574D01*
X127525928Y-110208154D01*
X127506932Y-110218307D01*
X127486313Y-110224562D01*
X127464875Y-110226673D01*
X127443437Y-110224562D01*
X127422818Y-110218307D01*
X127403822Y-110208154D01*
X127382401Y-110190574D01*
X127058032Y-109866205D01*
X127040452Y-109844784D01*
X127030299Y-109825788D01*
X127024044Y-109805169D01*
X127021933Y-109783731D01*
X127024044Y-109762293D01*
X127030299Y-109741674D01*
X127040452Y-109722678D01*
X127058032Y-109701257D01*
X127417757Y-109341532D01*
X127439178Y-109323952D01*
X127458174Y-109313799D01*
X127478793Y-109307544D01*
X127500231Y-109305433D01*
X127521669Y-109307544D01*
G37*
G36*
X128969563Y-109231438D02*
G01*
X128990182Y-109237693D01*
X129009178Y-109247846D01*
X129030599Y-109265426D01*
X129354968Y-109589795D01*
X129372548Y-109611216D01*
X129382701Y-109630212D01*
X129388956Y-109650831D01*
X129391067Y-109672269D01*
X129388956Y-109693707D01*
X129382701Y-109714326D01*
X129372548Y-109733322D01*
X129354968Y-109754743D01*
X128995243Y-110114468D01*
X128973822Y-110132048D01*
X128954826Y-110142201D01*
X128934207Y-110148456D01*
X128912769Y-110150567D01*
X128891331Y-110148456D01*
X128870712Y-110142201D01*
X128851716Y-110132048D01*
X128830295Y-110114468D01*
X128505926Y-109790099D01*
X128488346Y-109768678D01*
X128478193Y-109749682D01*
X128471938Y-109729063D01*
X128469827Y-109707625D01*
X128471938Y-109686187D01*
X128478193Y-109665568D01*
X128488346Y-109646572D01*
X128505926Y-109625151D01*
X128865651Y-109265426D01*
X128887072Y-109247846D01*
X128906068Y-109237693D01*
X128926687Y-109231438D01*
X128948125Y-109229327D01*
X128969563Y-109231438D01*
G37*
G36*
X171747438Y-109042216D02*
G01*
X171768057Y-109048471D01*
X171787053Y-109058624D01*
X171803708Y-109072292D01*
X171817376Y-109088947D01*
X171827529Y-109107943D01*
X171833784Y-109128562D01*
X171836500Y-109156140D01*
X171836500Y-109664860D01*
X171833784Y-109692438D01*
X171827529Y-109713057D01*
X171817376Y-109732053D01*
X171803708Y-109748708D01*
X171787053Y-109762376D01*
X171768057Y-109772529D01*
X171747438Y-109778784D01*
X171719860Y-109781500D01*
X171261140Y-109781500D01*
X171233562Y-109778784D01*
X171212943Y-109772529D01*
X171193947Y-109762376D01*
X171177292Y-109748708D01*
X171163624Y-109732053D01*
X171153471Y-109713057D01*
X171147216Y-109692438D01*
X171144500Y-109664860D01*
X171144500Y-109156140D01*
X171147216Y-109128562D01*
X171153471Y-109107943D01*
X171163624Y-109088947D01*
X171177292Y-109072292D01*
X171193947Y-109058624D01*
X171212943Y-109048471D01*
X171233562Y-109042216D01*
X171261140Y-109039500D01*
X171719860Y-109039500D01*
X171747438Y-109042216D01*
G37*
G36*
X170777438Y-109042216D02*
G01*
X170798057Y-109048471D01*
X170817053Y-109058624D01*
X170833708Y-109072292D01*
X170847376Y-109088947D01*
X170857529Y-109107943D01*
X170863784Y-109128562D01*
X170866500Y-109156140D01*
X170866500Y-109664860D01*
X170863784Y-109692438D01*
X170857529Y-109713057D01*
X170847376Y-109732053D01*
X170833708Y-109748708D01*
X170817053Y-109762376D01*
X170798057Y-109772529D01*
X170777438Y-109778784D01*
X170749860Y-109781500D01*
X170291140Y-109781500D01*
X170263562Y-109778784D01*
X170242943Y-109772529D01*
X170223947Y-109762376D01*
X170207292Y-109748708D01*
X170193624Y-109732053D01*
X170183471Y-109713057D01*
X170177216Y-109692438D01*
X170174500Y-109664860D01*
X170174500Y-109156140D01*
X170177216Y-109128562D01*
X170183471Y-109107943D01*
X170193624Y-109088947D01*
X170207292Y-109072292D01*
X170223947Y-109058624D01*
X170242943Y-109048471D01*
X170263562Y-109042216D01*
X170291140Y-109039500D01*
X170749860Y-109039500D01*
X170777438Y-109042216D01*
G37*
G36*
X128283669Y-108545544D02*
G01*
X128304288Y-108551799D01*
X128323284Y-108561952D01*
X128344705Y-108579532D01*
X128669074Y-108903901D01*
X128686654Y-108925322D01*
X128696807Y-108944318D01*
X128703062Y-108964937D01*
X128705173Y-108986375D01*
X128703062Y-109007813D01*
X128696807Y-109028432D01*
X128686654Y-109047428D01*
X128669074Y-109068849D01*
X128309349Y-109428574D01*
X128287928Y-109446154D01*
X128268932Y-109456307D01*
X128248313Y-109462562D01*
X128226875Y-109464673D01*
X128205437Y-109462562D01*
X128184818Y-109456307D01*
X128165822Y-109446154D01*
X128144401Y-109428574D01*
X127820032Y-109104205D01*
X127802452Y-109082784D01*
X127792299Y-109063788D01*
X127786044Y-109043169D01*
X127783933Y-109021731D01*
X127786044Y-109000293D01*
X127792299Y-108979674D01*
X127802452Y-108960678D01*
X127820032Y-108939257D01*
X128179757Y-108579532D01*
X128201178Y-108561952D01*
X128220174Y-108551799D01*
X128240793Y-108545544D01*
X128262231Y-108543433D01*
X128283669Y-108545544D01*
G37*
G36*
X171747438Y-107899216D02*
G01*
X171768057Y-107905471D01*
X171787053Y-107915624D01*
X171803708Y-107929292D01*
X171817376Y-107945947D01*
X171827529Y-107964943D01*
X171833784Y-107985562D01*
X171836500Y-108013140D01*
X171836500Y-108521860D01*
X171833784Y-108549438D01*
X171827529Y-108570057D01*
X171817376Y-108589053D01*
X171803708Y-108605708D01*
X171787053Y-108619376D01*
X171768057Y-108629529D01*
X171747438Y-108635784D01*
X171719860Y-108638500D01*
X171261140Y-108638500D01*
X171233562Y-108635784D01*
X171212943Y-108629529D01*
X171193947Y-108619376D01*
X171177292Y-108605708D01*
X171163624Y-108589053D01*
X171153471Y-108570057D01*
X171147216Y-108549438D01*
X171144500Y-108521860D01*
X171144500Y-108013140D01*
X171147216Y-107985562D01*
X171153471Y-107964943D01*
X171163624Y-107945947D01*
X171177292Y-107929292D01*
X171193947Y-107915624D01*
X171212943Y-107905471D01*
X171233562Y-107899216D01*
X171261140Y-107896500D01*
X171719860Y-107896500D01*
X171747438Y-107899216D01*
G37*
G36*
X170777438Y-107899216D02*
G01*
X170798057Y-107905471D01*
X170817053Y-107915624D01*
X170833708Y-107929292D01*
X170847376Y-107945947D01*
X170857529Y-107964943D01*
X170863784Y-107985562D01*
X170866500Y-108013140D01*
X170866500Y-108521860D01*
X170863784Y-108549438D01*
X170857529Y-108570057D01*
X170847376Y-108589053D01*
X170833708Y-108605708D01*
X170817053Y-108619376D01*
X170798057Y-108629529D01*
X170777438Y-108635784D01*
X170749860Y-108638500D01*
X170291140Y-108638500D01*
X170263562Y-108635784D01*
X170242943Y-108629529D01*
X170223947Y-108619376D01*
X170207292Y-108605708D01*
X170193624Y-108589053D01*
X170183471Y-108570057D01*
X170177216Y-108549438D01*
X170174500Y-108521860D01*
X170174500Y-108013140D01*
X170177216Y-107985562D01*
X170183471Y-107964943D01*
X170193624Y-107945947D01*
X170207292Y-107929292D01*
X170223947Y-107915624D01*
X170242943Y-107905471D01*
X170263562Y-107899216D01*
X170291140Y-107896500D01*
X170749860Y-107896500D01*
X170777438Y-107899216D01*
G37*
G36*
X179383500Y-108327500D02*
G01*
X177981500Y-108327500D01*
X177981500Y-106575500D01*
X179383500Y-106575500D01*
X179383500Y-108327500D01*
G37*
G36*
X118544338Y-107177316D02*
G01*
X118564957Y-107183571D01*
X118583953Y-107193724D01*
X118600608Y-107207392D01*
X118614276Y-107224047D01*
X118624429Y-107243043D01*
X118630684Y-107263662D01*
X118633400Y-107291240D01*
X118633400Y-107749960D01*
X118630684Y-107777538D01*
X118624429Y-107798157D01*
X118614276Y-107817153D01*
X118600608Y-107833808D01*
X118583953Y-107847476D01*
X118564957Y-107857629D01*
X118544338Y-107863884D01*
X118516760Y-107866600D01*
X118008040Y-107866600D01*
X117980462Y-107863884D01*
X117959843Y-107857629D01*
X117940847Y-107847476D01*
X117924192Y-107833808D01*
X117910524Y-107817153D01*
X117900371Y-107798157D01*
X117894116Y-107777538D01*
X117891400Y-107749960D01*
X117891400Y-107291240D01*
X117894116Y-107263662D01*
X117900371Y-107243043D01*
X117910524Y-107224047D01*
X117924192Y-107207392D01*
X117940847Y-107193724D01*
X117959843Y-107183571D01*
X117980462Y-107177316D01*
X118008040Y-107174600D01*
X118516760Y-107174600D01*
X118544338Y-107177316D01*
G37*
G36*
X117477538Y-107177316D02*
G01*
X117498157Y-107183571D01*
X117517153Y-107193724D01*
X117533808Y-107207392D01*
X117547476Y-107224047D01*
X117557629Y-107243043D01*
X117563884Y-107263662D01*
X117566600Y-107291240D01*
X117566600Y-107749960D01*
X117563884Y-107777538D01*
X117557629Y-107798157D01*
X117547476Y-107817153D01*
X117533808Y-107833808D01*
X117517153Y-107847476D01*
X117498157Y-107857629D01*
X117477538Y-107863884D01*
X117449960Y-107866600D01*
X116941240Y-107866600D01*
X116913662Y-107863884D01*
X116893043Y-107857629D01*
X116874047Y-107847476D01*
X116857392Y-107833808D01*
X116843724Y-107817153D01*
X116833571Y-107798157D01*
X116827316Y-107777538D01*
X116824600Y-107749960D01*
X116824600Y-107291240D01*
X116827316Y-107263662D01*
X116833571Y-107243043D01*
X116843724Y-107224047D01*
X116857392Y-107207392D01*
X116874047Y-107193724D01*
X116893043Y-107183571D01*
X116913662Y-107177316D01*
X116941240Y-107174600D01*
X117449960Y-107174600D01*
X117477538Y-107177316D01*
G37*
G36*
X163208295Y-106764823D02*
G01*
X163215310Y-106766951D01*
X163221776Y-106770408D01*
X163227442Y-106775058D01*
X163232092Y-106780724D01*
X163235549Y-106787190D01*
X163237677Y-106794205D01*
X163238603Y-106803609D01*
X163243383Y-106827642D01*
X163252761Y-106850281D01*
X163266374Y-106870655D01*
X163283701Y-106887982D01*
X163304076Y-106901596D01*
X163326715Y-106910974D01*
X163350748Y-106915754D01*
X163375252Y-106915754D01*
X163399285Y-106910974D01*
X163421924Y-106901596D01*
X163442298Y-106887983D01*
X163459625Y-106870656D01*
X163473239Y-106850281D01*
X163482617Y-106827642D01*
X163487397Y-106803609D01*
X163488323Y-106794205D01*
X163490451Y-106787190D01*
X163493908Y-106780724D01*
X163498558Y-106775058D01*
X163504224Y-106770408D01*
X163510690Y-106766951D01*
X163517705Y-106764823D01*
X163531140Y-106763500D01*
X163844860Y-106763500D01*
X163858295Y-106764823D01*
X163865310Y-106766951D01*
X163871776Y-106770408D01*
X163877442Y-106775058D01*
X163882092Y-106780724D01*
X163885549Y-106787190D01*
X163887677Y-106794205D01*
X163888603Y-106803609D01*
X163893383Y-106827642D01*
X163902761Y-106850281D01*
X163916374Y-106870655D01*
X163933701Y-106887982D01*
X163954076Y-106901596D01*
X163976715Y-106910974D01*
X164000748Y-106915754D01*
X164025252Y-106915754D01*
X164049285Y-106910974D01*
X164071924Y-106901596D01*
X164092298Y-106887983D01*
X164109625Y-106870656D01*
X164123239Y-106850281D01*
X164132617Y-106827642D01*
X164137397Y-106803609D01*
X164138323Y-106794205D01*
X164140451Y-106787190D01*
X164143908Y-106780724D01*
X164148558Y-106775058D01*
X164154224Y-106770408D01*
X164160690Y-106766951D01*
X164167705Y-106764823D01*
X164181140Y-106763500D01*
X164494860Y-106763500D01*
X164508295Y-106764823D01*
X164515310Y-106766951D01*
X164521776Y-106770408D01*
X164527442Y-106775058D01*
X164532092Y-106780724D01*
X164535549Y-106787190D01*
X164537677Y-106794205D01*
X164538603Y-106803609D01*
X164543383Y-106827642D01*
X164552761Y-106850281D01*
X164566374Y-106870655D01*
X164583701Y-106887982D01*
X164604076Y-106901596D01*
X164626715Y-106910974D01*
X164650748Y-106915754D01*
X164675252Y-106915754D01*
X164699285Y-106910974D01*
X164721924Y-106901596D01*
X164742298Y-106887983D01*
X164759625Y-106870656D01*
X164773239Y-106850281D01*
X164782617Y-106827642D01*
X164787397Y-106803609D01*
X164788323Y-106794205D01*
X164790451Y-106787190D01*
X164793908Y-106780724D01*
X164798558Y-106775058D01*
X164804224Y-106770408D01*
X164810690Y-106766951D01*
X164817705Y-106764823D01*
X164831140Y-106763500D01*
X165144860Y-106763500D01*
X165158295Y-106764823D01*
X165165310Y-106766951D01*
X165171776Y-106770408D01*
X165177442Y-106775058D01*
X165182092Y-106780724D01*
X165185549Y-106787190D01*
X165187677Y-106794205D01*
X165188603Y-106803609D01*
X165193383Y-106827642D01*
X165202761Y-106850281D01*
X165216374Y-106870655D01*
X165233701Y-106887982D01*
X165254076Y-106901596D01*
X165276715Y-106910974D01*
X165300748Y-106915754D01*
X165325252Y-106915754D01*
X165349285Y-106910974D01*
X165371924Y-106901596D01*
X165392298Y-106887983D01*
X165409625Y-106870656D01*
X165423239Y-106850281D01*
X165432617Y-106827642D01*
X165437397Y-106803609D01*
X165438323Y-106794205D01*
X165440451Y-106787190D01*
X165443908Y-106780724D01*
X165448558Y-106775058D01*
X165454224Y-106770408D01*
X165460690Y-106766951D01*
X165467705Y-106764823D01*
X165481140Y-106763500D01*
X165794860Y-106763500D01*
X165808295Y-106764823D01*
X165815310Y-106766951D01*
X165821776Y-106770408D01*
X165827442Y-106775058D01*
X165832092Y-106780724D01*
X165835549Y-106787190D01*
X165837677Y-106794205D01*
X165839000Y-106807640D01*
X165839000Y-107621360D01*
X165837677Y-107634795D01*
X165835549Y-107641810D01*
X165832092Y-107648276D01*
X165827442Y-107653942D01*
X165821776Y-107658592D01*
X165815310Y-107662049D01*
X165808295Y-107664177D01*
X165794860Y-107665500D01*
X165481140Y-107665500D01*
X165467705Y-107664177D01*
X165460690Y-107662049D01*
X165454224Y-107658592D01*
X165448558Y-107653942D01*
X165443908Y-107648276D01*
X165440451Y-107641810D01*
X165438323Y-107634795D01*
X165437397Y-107625391D01*
X165432617Y-107601358D01*
X165423239Y-107578719D01*
X165409626Y-107558345D01*
X165392299Y-107541018D01*
X165371924Y-107527404D01*
X165349285Y-107518026D01*
X165325252Y-107513246D01*
X165300748Y-107513246D01*
X165276715Y-107518026D01*
X165254076Y-107527404D01*
X165233702Y-107541017D01*
X165216375Y-107558344D01*
X165202761Y-107578719D01*
X165193383Y-107601358D01*
X165188603Y-107625391D01*
X165187677Y-107634795D01*
X165185549Y-107641810D01*
X165182092Y-107648276D01*
X165177442Y-107653942D01*
X165171776Y-107658592D01*
X165165310Y-107662049D01*
X165158295Y-107664177D01*
X165144860Y-107665500D01*
X164831140Y-107665500D01*
X164817705Y-107664177D01*
X164810690Y-107662049D01*
X164804224Y-107658592D01*
X164798558Y-107653942D01*
X164793908Y-107648276D01*
X164790451Y-107641810D01*
X164788323Y-107634795D01*
X164787397Y-107625391D01*
X164782617Y-107601358D01*
X164773239Y-107578719D01*
X164759626Y-107558345D01*
X164742299Y-107541018D01*
X164721924Y-107527404D01*
X164699285Y-107518026D01*
X164675252Y-107513246D01*
X164650748Y-107513246D01*
X164626715Y-107518026D01*
X164604076Y-107527404D01*
X164583702Y-107541017D01*
X164566375Y-107558344D01*
X164552761Y-107578719D01*
X164543383Y-107601358D01*
X164538603Y-107625391D01*
X164537677Y-107634795D01*
X164535549Y-107641810D01*
X164532092Y-107648276D01*
X164527442Y-107653942D01*
X164521776Y-107658592D01*
X164515310Y-107662049D01*
X164508295Y-107664177D01*
X164494860Y-107665500D01*
X164181140Y-107665500D01*
X164167705Y-107664177D01*
X164160690Y-107662049D01*
X164154224Y-107658592D01*
X164148558Y-107653942D01*
X164143908Y-107648276D01*
X164140451Y-107641810D01*
X164138323Y-107634795D01*
X164137397Y-107625391D01*
X164132617Y-107601358D01*
X164123239Y-107578719D01*
X164109626Y-107558345D01*
X164092299Y-107541018D01*
X164071924Y-107527404D01*
X164049285Y-107518026D01*
X164025252Y-107513246D01*
X164000748Y-107513246D01*
X163976715Y-107518026D01*
X163954076Y-107527404D01*
X163933702Y-107541017D01*
X163916375Y-107558344D01*
X163902761Y-107578719D01*
X163893383Y-107601358D01*
X163888603Y-107625391D01*
X163887677Y-107634795D01*
X163885549Y-107641810D01*
X163882092Y-107648276D01*
X163877442Y-107653942D01*
X163871776Y-107658592D01*
X163865310Y-107662049D01*
X163858295Y-107664177D01*
X163844860Y-107665500D01*
X163531140Y-107665500D01*
X163517705Y-107664177D01*
X163510690Y-107662049D01*
X163504224Y-107658592D01*
X163498558Y-107653942D01*
X163493908Y-107648276D01*
X163490451Y-107641810D01*
X163488323Y-107634795D01*
X163487397Y-107625391D01*
X163482617Y-107601358D01*
X163473239Y-107578719D01*
X163459626Y-107558345D01*
X163442299Y-107541018D01*
X163421924Y-107527404D01*
X163399285Y-107518026D01*
X163375252Y-107513246D01*
X163350748Y-107513246D01*
X163326715Y-107518026D01*
X163304076Y-107527404D01*
X163283702Y-107541017D01*
X163266375Y-107558344D01*
X163252761Y-107578719D01*
X163243383Y-107601358D01*
X163238603Y-107625391D01*
X163237677Y-107634795D01*
X163235549Y-107641810D01*
X163232092Y-107648276D01*
X163227442Y-107653942D01*
X163221776Y-107658592D01*
X163215310Y-107662049D01*
X163208295Y-107664177D01*
X163194860Y-107665500D01*
X162881140Y-107665500D01*
X162867705Y-107664177D01*
X162860690Y-107662049D01*
X162854224Y-107658592D01*
X162848558Y-107653942D01*
X162843908Y-107648276D01*
X162840451Y-107641810D01*
X162838323Y-107634795D01*
X162837000Y-107621360D01*
X162837000Y-106807640D01*
X162838323Y-106794205D01*
X162840451Y-106787190D01*
X162843908Y-106780724D01*
X162848558Y-106775058D01*
X162854224Y-106770408D01*
X162860690Y-106766951D01*
X162867705Y-106764823D01*
X162881140Y-106763500D01*
X163194860Y-106763500D01*
X163208295Y-106764823D01*
G37*
G36*
X173491500Y-107355500D02*
G01*
X171989500Y-107355500D01*
X171989500Y-106253500D01*
X173491500Y-106253500D01*
X173491500Y-107355500D01*
G37*
G36*
X176933500Y-102352500D02*
G01*
X176888499Y-102352500D01*
X176864113Y-102354902D01*
X176840664Y-102362015D01*
X176819053Y-102373566D01*
X176800111Y-102389111D01*
X176784566Y-102408053D01*
X176773015Y-102429664D01*
X176765902Y-102453113D01*
X176763500Y-102477499D01*
X176763500Y-105675501D01*
X176765902Y-105699887D01*
X176773015Y-105723336D01*
X176784566Y-105744947D01*
X176800111Y-105763889D01*
X176819053Y-105779434D01*
X176840664Y-105790985D01*
X176864113Y-105798098D01*
X176888499Y-105800500D01*
X176933500Y-105800500D01*
X176933500Y-107327500D01*
X175281500Y-107327500D01*
X175281500Y-100825500D01*
X176933500Y-100825500D01*
X176933500Y-102352500D01*
G37*
G36*
X171291500Y-107275500D02*
G01*
X169789500Y-107275500D01*
X169789500Y-105973500D01*
X171291500Y-105973500D01*
X171291500Y-107275500D01*
G37*
G36*
X130442716Y-106221491D02*
G01*
X130463335Y-106227746D01*
X130482331Y-106237899D01*
X130503752Y-106255479D01*
X130828121Y-106579848D01*
X130845701Y-106601269D01*
X130855854Y-106620265D01*
X130862109Y-106640884D01*
X130864220Y-106662322D01*
X130862109Y-106683760D01*
X130855854Y-106704379D01*
X130845701Y-106723375D01*
X130828121Y-106744796D01*
X130468396Y-107104521D01*
X130446975Y-107122101D01*
X130427979Y-107132254D01*
X130407360Y-107138509D01*
X130385922Y-107140620D01*
X130364484Y-107138509D01*
X130343865Y-107132254D01*
X130324869Y-107122101D01*
X130303448Y-107104521D01*
X129979079Y-106780152D01*
X129961499Y-106758731D01*
X129951346Y-106739735D01*
X129945091Y-106719116D01*
X129942980Y-106697678D01*
X129945091Y-106676240D01*
X129951346Y-106655621D01*
X129961499Y-106636625D01*
X129979079Y-106615204D01*
X130338804Y-106255479D01*
X130360225Y-106237899D01*
X130379221Y-106227746D01*
X130399840Y-106221491D01*
X130421278Y-106219380D01*
X130442716Y-106221491D01*
G37*
G36*
X117477538Y-106207316D02*
G01*
X117498157Y-106213571D01*
X117517153Y-106223724D01*
X117533808Y-106237392D01*
X117547476Y-106254047D01*
X117557629Y-106273043D01*
X117563884Y-106293662D01*
X117566600Y-106321240D01*
X117566600Y-106779960D01*
X117563884Y-106807538D01*
X117557629Y-106828157D01*
X117547476Y-106847153D01*
X117533808Y-106863808D01*
X117517153Y-106877476D01*
X117498157Y-106887629D01*
X117477538Y-106893884D01*
X117449960Y-106896600D01*
X116941240Y-106896600D01*
X116913662Y-106893884D01*
X116893043Y-106887629D01*
X116874047Y-106877476D01*
X116857392Y-106863808D01*
X116843724Y-106847153D01*
X116833571Y-106828157D01*
X116827316Y-106807538D01*
X116824600Y-106779960D01*
X116824600Y-106321240D01*
X116827316Y-106293662D01*
X116833571Y-106273043D01*
X116843724Y-106254047D01*
X116857392Y-106237392D01*
X116874047Y-106223724D01*
X116893043Y-106213571D01*
X116913662Y-106207316D01*
X116941240Y-106204600D01*
X117449960Y-106204600D01*
X117477538Y-106207316D01*
G37*
G36*
X118544338Y-106207316D02*
G01*
X118564957Y-106213571D01*
X118583953Y-106223724D01*
X118600608Y-106237392D01*
X118614276Y-106254047D01*
X118624429Y-106273043D01*
X118630684Y-106293662D01*
X118633400Y-106321240D01*
X118633400Y-106779960D01*
X118630684Y-106807538D01*
X118624429Y-106828157D01*
X118614276Y-106847153D01*
X118600608Y-106863808D01*
X118583953Y-106877476D01*
X118564957Y-106887629D01*
X118544338Y-106893884D01*
X118516760Y-106896600D01*
X118008040Y-106896600D01*
X117980462Y-106893884D01*
X117959843Y-106887629D01*
X117940847Y-106877476D01*
X117924192Y-106863808D01*
X117910524Y-106847153D01*
X117900371Y-106828157D01*
X117894116Y-106807538D01*
X117891400Y-106779960D01*
X117891400Y-106321240D01*
X117894116Y-106293662D01*
X117900371Y-106273043D01*
X117910524Y-106254047D01*
X117924192Y-106237392D01*
X117940847Y-106223724D01*
X117959843Y-106213571D01*
X117980462Y-106207316D01*
X118008040Y-106204600D01*
X118516760Y-106204600D01*
X118544338Y-106207316D01*
G37*
G36*
X129756822Y-105535597D02*
G01*
X129777441Y-105541852D01*
X129796437Y-105552005D01*
X129817858Y-105569585D01*
X130142227Y-105893954D01*
X130159807Y-105915375D01*
X130169960Y-105934371D01*
X130176215Y-105954990D01*
X130178326Y-105976428D01*
X130176215Y-105997866D01*
X130169960Y-106018485D01*
X130159807Y-106037481D01*
X130142227Y-106058902D01*
X129782502Y-106418627D01*
X129761081Y-106436207D01*
X129742085Y-106446360D01*
X129721466Y-106452615D01*
X129700028Y-106454726D01*
X129678590Y-106452615D01*
X129657971Y-106446360D01*
X129638975Y-106436207D01*
X129617554Y-106418627D01*
X129293185Y-106094258D01*
X129275605Y-106072837D01*
X129265452Y-106053841D01*
X129259197Y-106033222D01*
X129257086Y-106011784D01*
X129259197Y-105990346D01*
X129265452Y-105969727D01*
X129275605Y-105950731D01*
X129293185Y-105929310D01*
X129652910Y-105569585D01*
X129674331Y-105552005D01*
X129693327Y-105541852D01*
X129713946Y-105535597D01*
X129735384Y-105533486D01*
X129756822Y-105535597D01*
G37*
G36*
X131192063Y-105446838D02*
G01*
X131212682Y-105453093D01*
X131231678Y-105463246D01*
X131253099Y-105480826D01*
X131577468Y-105805195D01*
X131595048Y-105826616D01*
X131605201Y-105845612D01*
X131611456Y-105866231D01*
X131613567Y-105887669D01*
X131611456Y-105909107D01*
X131605201Y-105929726D01*
X131595048Y-105948722D01*
X131577468Y-105970143D01*
X131217743Y-106329868D01*
X131196322Y-106347448D01*
X131177326Y-106357601D01*
X131156707Y-106363856D01*
X131135269Y-106365967D01*
X131113831Y-106363856D01*
X131093212Y-106357601D01*
X131074216Y-106347448D01*
X131052795Y-106329868D01*
X130728426Y-106005499D01*
X130710846Y-105984078D01*
X130700693Y-105965082D01*
X130694438Y-105944463D01*
X130692327Y-105923025D01*
X130694438Y-105901587D01*
X130700693Y-105880968D01*
X130710846Y-105861972D01*
X130728426Y-105840551D01*
X131088151Y-105480826D01*
X131109572Y-105463246D01*
X131128568Y-105453093D01*
X131149187Y-105446838D01*
X131170625Y-105444727D01*
X131192063Y-105446838D01*
G37*
G36*
X179683500Y-106177500D02*
G01*
X177681500Y-106177500D01*
X177681500Y-105075500D01*
X179683500Y-105075500D01*
X179683500Y-106177500D01*
G37*
G36*
X166245538Y-105145316D02*
G01*
X166266157Y-105151571D01*
X166285153Y-105161724D01*
X166301808Y-105175392D01*
X166315476Y-105192047D01*
X166325629Y-105211043D01*
X166331884Y-105231662D01*
X166334600Y-105259240D01*
X166334600Y-105717960D01*
X166331884Y-105745538D01*
X166325629Y-105766157D01*
X166315476Y-105785153D01*
X166301808Y-105801808D01*
X166285153Y-105815476D01*
X166266157Y-105825629D01*
X166245538Y-105831884D01*
X166217960Y-105834600D01*
X165709240Y-105834600D01*
X165681662Y-105831884D01*
X165661043Y-105825629D01*
X165642047Y-105815476D01*
X165625392Y-105801808D01*
X165611724Y-105785153D01*
X165601571Y-105766157D01*
X165595316Y-105745538D01*
X165592600Y-105717960D01*
X165592600Y-105259240D01*
X165595316Y-105231662D01*
X165601571Y-105211043D01*
X165611724Y-105192047D01*
X165625392Y-105175392D01*
X165642047Y-105161724D01*
X165661043Y-105151571D01*
X165681662Y-105145316D01*
X165709240Y-105142600D01*
X166217960Y-105142600D01*
X166245538Y-105145316D01*
G37*
G36*
X167363138Y-105145316D02*
G01*
X167383757Y-105151571D01*
X167402753Y-105161724D01*
X167419408Y-105175392D01*
X167433076Y-105192047D01*
X167443229Y-105211043D01*
X167449484Y-105231662D01*
X167452200Y-105259240D01*
X167452200Y-105717960D01*
X167449484Y-105745538D01*
X167443229Y-105766157D01*
X167433076Y-105785153D01*
X167419408Y-105801808D01*
X167402753Y-105815476D01*
X167383757Y-105825629D01*
X167363138Y-105831884D01*
X167335560Y-105834600D01*
X166826840Y-105834600D01*
X166799262Y-105831884D01*
X166778643Y-105825629D01*
X166759647Y-105815476D01*
X166742992Y-105801808D01*
X166729324Y-105785153D01*
X166719171Y-105766157D01*
X166712916Y-105745538D01*
X166710200Y-105717960D01*
X166710200Y-105259240D01*
X166712916Y-105231662D01*
X166719171Y-105211043D01*
X166729324Y-105192047D01*
X166742992Y-105175392D01*
X166759647Y-105161724D01*
X166778643Y-105151571D01*
X166799262Y-105145316D01*
X166826840Y-105142600D01*
X167335560Y-105142600D01*
X167363138Y-105145316D01*
G37*
G36*
X116675438Y-105067116D02*
G01*
X116696057Y-105073371D01*
X116715053Y-105083524D01*
X116731708Y-105097192D01*
X116745376Y-105113847D01*
X116755529Y-105132843D01*
X116761784Y-105153462D01*
X116764500Y-105181040D01*
X116764500Y-105689760D01*
X116761784Y-105717338D01*
X116755529Y-105737957D01*
X116745376Y-105756953D01*
X116731708Y-105773608D01*
X116715053Y-105787276D01*
X116696057Y-105797429D01*
X116675438Y-105803684D01*
X116647860Y-105806400D01*
X116189140Y-105806400D01*
X116161562Y-105803684D01*
X116140943Y-105797429D01*
X116121947Y-105787276D01*
X116105292Y-105773608D01*
X116091624Y-105756953D01*
X116081471Y-105737957D01*
X116075216Y-105717338D01*
X116072500Y-105689760D01*
X116072500Y-105181040D01*
X116075216Y-105153462D01*
X116081471Y-105132843D01*
X116091624Y-105113847D01*
X116105292Y-105097192D01*
X116121947Y-105083524D01*
X116140943Y-105073371D01*
X116161562Y-105067116D01*
X116189140Y-105064400D01*
X116647860Y-105064400D01*
X116675438Y-105067116D01*
G37*
G36*
X117645438Y-105067116D02*
G01*
X117666057Y-105073371D01*
X117685053Y-105083524D01*
X117701708Y-105097192D01*
X117715376Y-105113847D01*
X117725529Y-105132843D01*
X117731784Y-105153462D01*
X117734500Y-105181040D01*
X117734500Y-105689760D01*
X117731784Y-105717338D01*
X117725529Y-105737957D01*
X117715376Y-105756953D01*
X117701708Y-105773608D01*
X117685053Y-105787276D01*
X117666057Y-105797429D01*
X117645438Y-105803684D01*
X117617860Y-105806400D01*
X117159140Y-105806400D01*
X117131562Y-105803684D01*
X117110943Y-105797429D01*
X117091947Y-105787276D01*
X117075292Y-105773608D01*
X117061624Y-105756953D01*
X117051471Y-105737957D01*
X117045216Y-105717338D01*
X117042500Y-105689760D01*
X117042500Y-105181040D01*
X117045216Y-105153462D01*
X117051471Y-105132843D01*
X117061624Y-105113847D01*
X117075292Y-105097192D01*
X117091947Y-105083524D01*
X117110943Y-105073371D01*
X117131562Y-105067116D01*
X117159140Y-105064400D01*
X117617860Y-105064400D01*
X117645438Y-105067116D01*
G37*
G36*
X130506169Y-104760944D02*
G01*
X130526788Y-104767199D01*
X130545784Y-104777352D01*
X130567205Y-104794932D01*
X130891574Y-105119301D01*
X130909154Y-105140722D01*
X130919307Y-105159718D01*
X130925562Y-105180337D01*
X130927673Y-105201775D01*
X130925562Y-105223213D01*
X130919307Y-105243832D01*
X130909154Y-105262828D01*
X130891574Y-105284249D01*
X130531849Y-105643974D01*
X130510428Y-105661554D01*
X130491432Y-105671707D01*
X130470813Y-105677962D01*
X130449375Y-105680073D01*
X130427937Y-105677962D01*
X130407318Y-105671707D01*
X130388322Y-105661554D01*
X130366901Y-105643974D01*
X130042532Y-105319605D01*
X130024952Y-105298184D01*
X130014799Y-105279188D01*
X130008544Y-105258569D01*
X130006433Y-105237131D01*
X130008544Y-105215693D01*
X130014799Y-105195074D01*
X130024952Y-105176078D01*
X130042532Y-105154657D01*
X130402257Y-104794932D01*
X130423678Y-104777352D01*
X130442674Y-104767199D01*
X130463293Y-104760944D01*
X130484731Y-104758833D01*
X130506169Y-104760944D01*
G37*
G36*
X173491500Y-105455500D02*
G01*
X171989500Y-105455500D01*
X171989500Y-104353500D01*
X173491500Y-104353500D01*
X173491500Y-105455500D01*
G37*
G36*
X171291500Y-105455500D02*
G01*
X169789500Y-105455500D01*
X169789500Y-104353500D01*
X171291500Y-104353500D01*
X171291500Y-105455500D01*
G37*
G36*
X166245538Y-104175316D02*
G01*
X166266157Y-104181571D01*
X166285153Y-104191724D01*
X166301808Y-104205392D01*
X166315476Y-104222047D01*
X166325629Y-104241043D01*
X166331884Y-104261662D01*
X166334600Y-104289240D01*
X166334600Y-104747960D01*
X166331884Y-104775538D01*
X166325629Y-104796157D01*
X166315476Y-104815153D01*
X166301808Y-104831808D01*
X166285153Y-104845476D01*
X166266157Y-104855629D01*
X166245538Y-104861884D01*
X166217960Y-104864600D01*
X165709240Y-104864600D01*
X165681662Y-104861884D01*
X165661043Y-104855629D01*
X165642047Y-104845476D01*
X165625392Y-104831808D01*
X165611724Y-104815153D01*
X165601571Y-104796157D01*
X165595316Y-104775538D01*
X165592600Y-104747960D01*
X165592600Y-104289240D01*
X165595316Y-104261662D01*
X165601571Y-104241043D01*
X165611724Y-104222047D01*
X165625392Y-104205392D01*
X165642047Y-104191724D01*
X165661043Y-104181571D01*
X165681662Y-104175316D01*
X165709240Y-104172600D01*
X166217960Y-104172600D01*
X166245538Y-104175316D01*
G37*
G36*
X167363138Y-104175316D02*
G01*
X167383757Y-104181571D01*
X167402753Y-104191724D01*
X167419408Y-104205392D01*
X167433076Y-104222047D01*
X167443229Y-104241043D01*
X167449484Y-104261662D01*
X167452200Y-104289240D01*
X167452200Y-104747960D01*
X167449484Y-104775538D01*
X167443229Y-104796157D01*
X167433076Y-104815153D01*
X167419408Y-104831808D01*
X167402753Y-104845476D01*
X167383757Y-104855629D01*
X167363138Y-104861884D01*
X167335560Y-104864600D01*
X166826840Y-104864600D01*
X166799262Y-104861884D01*
X166778643Y-104855629D01*
X166759647Y-104845476D01*
X166742992Y-104831808D01*
X166729324Y-104815153D01*
X166719171Y-104796157D01*
X166712916Y-104775538D01*
X166710200Y-104747960D01*
X166710200Y-104289240D01*
X166712916Y-104261662D01*
X166719171Y-104241043D01*
X166729324Y-104222047D01*
X166742992Y-104205392D01*
X166759647Y-104191724D01*
X166778643Y-104181571D01*
X166799262Y-104175316D01*
X166826840Y-104172600D01*
X167335560Y-104172600D01*
X167363138Y-104175316D01*
G37*
G36*
X116675438Y-103924116D02*
G01*
X116696057Y-103930371D01*
X116715053Y-103940524D01*
X116731708Y-103954192D01*
X116745376Y-103970847D01*
X116755529Y-103989843D01*
X116761784Y-104010462D01*
X116764500Y-104038040D01*
X116764500Y-104546760D01*
X116761784Y-104574338D01*
X116755529Y-104594957D01*
X116745376Y-104613953D01*
X116731708Y-104630608D01*
X116715053Y-104644276D01*
X116696057Y-104654429D01*
X116675438Y-104660684D01*
X116647860Y-104663400D01*
X116189140Y-104663400D01*
X116161562Y-104660684D01*
X116140943Y-104654429D01*
X116121947Y-104644276D01*
X116105292Y-104630608D01*
X116091624Y-104613953D01*
X116081471Y-104594957D01*
X116075216Y-104574338D01*
X116072500Y-104546760D01*
X116072500Y-104038040D01*
X116075216Y-104010462D01*
X116081471Y-103989843D01*
X116091624Y-103970847D01*
X116105292Y-103954192D01*
X116121947Y-103940524D01*
X116140943Y-103930371D01*
X116161562Y-103924116D01*
X116189140Y-103921400D01*
X116647860Y-103921400D01*
X116675438Y-103924116D01*
G37*
G36*
X117645438Y-103924116D02*
G01*
X117666057Y-103930371D01*
X117685053Y-103940524D01*
X117701708Y-103954192D01*
X117715376Y-103970847D01*
X117725529Y-103989843D01*
X117731784Y-104010462D01*
X117734500Y-104038040D01*
X117734500Y-104546760D01*
X117731784Y-104574338D01*
X117725529Y-104594957D01*
X117715376Y-104613953D01*
X117701708Y-104630608D01*
X117685053Y-104644276D01*
X117666057Y-104654429D01*
X117645438Y-104660684D01*
X117617860Y-104663400D01*
X117159140Y-104663400D01*
X117131562Y-104660684D01*
X117110943Y-104654429D01*
X117091947Y-104644276D01*
X117075292Y-104630608D01*
X117061624Y-104613953D01*
X117051471Y-104594957D01*
X117045216Y-104574338D01*
X117042500Y-104546760D01*
X117042500Y-104038040D01*
X117045216Y-104010462D01*
X117051471Y-103989843D01*
X117061624Y-103970847D01*
X117075292Y-103954192D01*
X117091947Y-103940524D01*
X117110943Y-103930371D01*
X117131562Y-103924116D01*
X117159140Y-103921400D01*
X117617860Y-103921400D01*
X117645438Y-103924116D01*
G37*
G36*
X179683500Y-103877500D02*
G01*
X177681500Y-103877500D01*
X177681500Y-101975500D01*
X179683500Y-101975500D01*
X179683500Y-103877500D01*
G37*
G36*
X117645438Y-102844616D02*
G01*
X117666057Y-102850871D01*
X117685053Y-102861024D01*
X117701708Y-102874692D01*
X117715376Y-102891347D01*
X117725529Y-102910343D01*
X117731784Y-102930962D01*
X117734500Y-102958540D01*
X117734500Y-103467260D01*
X117731784Y-103494838D01*
X117725529Y-103515457D01*
X117715376Y-103534453D01*
X117701708Y-103551108D01*
X117685053Y-103564776D01*
X117666057Y-103574929D01*
X117645438Y-103581184D01*
X117617860Y-103583900D01*
X117159140Y-103583900D01*
X117131562Y-103581184D01*
X117110943Y-103574929D01*
X117091947Y-103564776D01*
X117075292Y-103551108D01*
X117061624Y-103534453D01*
X117051471Y-103515457D01*
X117045216Y-103494838D01*
X117042500Y-103467260D01*
X117042500Y-102958540D01*
X117045216Y-102930962D01*
X117051471Y-102910343D01*
X117061624Y-102891347D01*
X117075292Y-102874692D01*
X117091947Y-102861024D01*
X117110943Y-102850871D01*
X117131562Y-102844616D01*
X117159140Y-102841900D01*
X117617860Y-102841900D01*
X117645438Y-102844616D01*
G37*
G36*
X116675438Y-102844616D02*
G01*
X116696057Y-102850871D01*
X116715053Y-102861024D01*
X116731708Y-102874692D01*
X116745376Y-102891347D01*
X116755529Y-102910343D01*
X116761784Y-102930962D01*
X116764500Y-102958540D01*
X116764500Y-103467260D01*
X116761784Y-103494838D01*
X116755529Y-103515457D01*
X116745376Y-103534453D01*
X116731708Y-103551108D01*
X116715053Y-103564776D01*
X116696057Y-103574929D01*
X116675438Y-103581184D01*
X116647860Y-103583900D01*
X116189140Y-103583900D01*
X116161562Y-103581184D01*
X116140943Y-103574929D01*
X116121947Y-103564776D01*
X116105292Y-103551108D01*
X116091624Y-103534453D01*
X116081471Y-103515457D01*
X116075216Y-103494838D01*
X116072500Y-103467260D01*
X116072500Y-102958540D01*
X116075216Y-102930962D01*
X116081471Y-102910343D01*
X116091624Y-102891347D01*
X116105292Y-102874692D01*
X116121947Y-102861024D01*
X116140943Y-102850871D01*
X116161562Y-102844616D01*
X116189140Y-102841900D01*
X116647860Y-102841900D01*
X116675438Y-102844616D01*
G37*
G36*
X125721013Y-102475038D02*
G01*
X125741632Y-102481293D01*
X125760628Y-102491446D01*
X125782049Y-102509026D01*
X126141774Y-102868751D01*
X126159354Y-102890172D01*
X126169507Y-102909168D01*
X126175762Y-102929787D01*
X126177873Y-102951225D01*
X126175762Y-102972663D01*
X126169507Y-102993282D01*
X126159354Y-103012278D01*
X126141774Y-103033699D01*
X125817405Y-103358068D01*
X125795984Y-103375648D01*
X125776988Y-103385801D01*
X125756369Y-103392056D01*
X125734931Y-103394167D01*
X125713493Y-103392056D01*
X125692874Y-103385801D01*
X125673878Y-103375648D01*
X125652457Y-103358068D01*
X125292732Y-102998343D01*
X125275152Y-102976922D01*
X125264999Y-102957926D01*
X125258744Y-102937307D01*
X125256633Y-102915869D01*
X125258744Y-102894431D01*
X125264999Y-102873812D01*
X125275152Y-102854816D01*
X125292732Y-102833395D01*
X125617101Y-102509026D01*
X125638522Y-102491446D01*
X125657518Y-102481293D01*
X125678137Y-102475038D01*
X125699575Y-102472927D01*
X125721013Y-102475038D01*
G37*
G36*
X128719838Y-102542356D02*
G01*
X128740457Y-102548611D01*
X128759453Y-102558764D01*
X128776108Y-102572432D01*
X128789776Y-102589087D01*
X128799929Y-102608083D01*
X128806184Y-102628702D01*
X128808900Y-102656280D01*
X128808900Y-103165000D01*
X128806184Y-103192578D01*
X128799929Y-103213197D01*
X128789776Y-103232193D01*
X128776108Y-103248848D01*
X128759453Y-103262516D01*
X128740457Y-103272669D01*
X128719838Y-103278924D01*
X128692260Y-103281640D01*
X128233540Y-103281640D01*
X128205962Y-103278924D01*
X128185343Y-103272669D01*
X128166347Y-103262516D01*
X128149692Y-103248848D01*
X128136024Y-103232193D01*
X128125871Y-103213197D01*
X128119616Y-103192578D01*
X128116900Y-103165000D01*
X128116900Y-102656280D01*
X128119616Y-102628702D01*
X128125871Y-102608083D01*
X128136024Y-102589087D01*
X128149692Y-102572432D01*
X128166347Y-102558764D01*
X128185343Y-102548611D01*
X128205962Y-102542356D01*
X128233540Y-102539640D01*
X128692260Y-102539640D01*
X128719838Y-102542356D01*
G37*
G36*
X127749838Y-102542356D02*
G01*
X127770457Y-102548611D01*
X127789453Y-102558764D01*
X127806108Y-102572432D01*
X127819776Y-102589087D01*
X127829929Y-102608083D01*
X127836184Y-102628702D01*
X127838900Y-102656280D01*
X127838900Y-103165000D01*
X127836184Y-103192578D01*
X127829929Y-103213197D01*
X127819776Y-103232193D01*
X127806108Y-103248848D01*
X127789453Y-103262516D01*
X127770457Y-103272669D01*
X127749838Y-103278924D01*
X127722260Y-103281640D01*
X127263540Y-103281640D01*
X127235962Y-103278924D01*
X127215343Y-103272669D01*
X127196347Y-103262516D01*
X127179692Y-103248848D01*
X127166024Y-103232193D01*
X127155871Y-103213197D01*
X127149616Y-103192578D01*
X127146900Y-103165000D01*
X127146900Y-102656280D01*
X127149616Y-102628702D01*
X127155871Y-102608083D01*
X127166024Y-102589087D01*
X127179692Y-102572432D01*
X127196347Y-102558764D01*
X127215343Y-102548611D01*
X127235962Y-102542356D01*
X127263540Y-102539640D01*
X127722260Y-102539640D01*
X127749838Y-102542356D01*
G37*
G36*
X126406907Y-101789144D02*
G01*
X126427526Y-101795399D01*
X126446522Y-101805552D01*
X126467943Y-101823132D01*
X126827668Y-102182857D01*
X126845248Y-102204278D01*
X126855401Y-102223274D01*
X126861656Y-102243893D01*
X126863767Y-102265331D01*
X126861656Y-102286769D01*
X126855401Y-102307388D01*
X126845248Y-102326384D01*
X126827668Y-102347805D01*
X126503299Y-102672174D01*
X126481878Y-102689754D01*
X126462882Y-102699907D01*
X126442263Y-102706162D01*
X126420825Y-102708273D01*
X126399387Y-102706162D01*
X126378768Y-102699907D01*
X126359772Y-102689754D01*
X126338351Y-102672174D01*
X125978626Y-102312449D01*
X125961046Y-102291028D01*
X125950893Y-102272032D01*
X125944638Y-102251413D01*
X125942527Y-102229975D01*
X125944638Y-102208537D01*
X125950893Y-102187918D01*
X125961046Y-102168922D01*
X125978626Y-102147501D01*
X126302995Y-101823132D01*
X126324416Y-101805552D01*
X126343412Y-101795399D01*
X126364031Y-101789144D01*
X126385469Y-101787033D01*
X126406907Y-101789144D01*
G37*
G36*
X124933613Y-101738438D02*
G01*
X124954232Y-101744693D01*
X124973228Y-101754846D01*
X124994649Y-101772426D01*
X125354374Y-102132151D01*
X125371954Y-102153572D01*
X125382107Y-102172568D01*
X125388362Y-102193187D01*
X125390473Y-102214625D01*
X125388362Y-102236063D01*
X125382107Y-102256682D01*
X125371954Y-102275678D01*
X125354374Y-102297099D01*
X125030005Y-102621468D01*
X125008584Y-102639048D01*
X124989588Y-102649201D01*
X124968969Y-102655456D01*
X124947531Y-102657567D01*
X124926093Y-102655456D01*
X124905474Y-102649201D01*
X124886478Y-102639048D01*
X124865057Y-102621468D01*
X124505332Y-102261743D01*
X124487752Y-102240322D01*
X124477599Y-102221326D01*
X124471344Y-102200707D01*
X124469233Y-102179269D01*
X124471344Y-102157831D01*
X124477599Y-102137212D01*
X124487752Y-102118216D01*
X124505332Y-102096795D01*
X124829701Y-101772426D01*
X124851122Y-101754846D01*
X124870118Y-101744693D01*
X124890737Y-101738438D01*
X124912175Y-101736327D01*
X124933613Y-101738438D01*
G37*
G36*
X171996500Y-100104501D02*
G01*
X171998902Y-100128887D01*
X172006015Y-100152336D01*
X172017566Y-100173947D01*
X172033111Y-100192889D01*
X172052053Y-100208434D01*
X172073664Y-100219985D01*
X172097113Y-100227098D01*
X172121499Y-100229500D01*
X172966500Y-100229500D01*
X172966500Y-102081500D01*
X172121499Y-102081500D01*
X172097113Y-102083902D01*
X172073664Y-102091015D01*
X172052053Y-102102566D01*
X172033111Y-102118111D01*
X172017566Y-102137053D01*
X172006015Y-102158664D01*
X171998902Y-102182113D01*
X171996500Y-102206499D01*
X171996500Y-102306500D01*
X171284500Y-102306500D01*
X171284500Y-102206499D01*
X171282098Y-102182113D01*
X171274985Y-102158664D01*
X171263434Y-102137053D01*
X171247889Y-102118111D01*
X171228947Y-102102566D01*
X171207336Y-102091015D01*
X171183887Y-102083902D01*
X171159501Y-102081500D01*
X170314500Y-102081500D01*
X170314500Y-100229500D01*
X171159501Y-100229500D01*
X171183887Y-100227098D01*
X171207336Y-100219985D01*
X171228947Y-100208434D01*
X171247889Y-100192889D01*
X171263434Y-100173947D01*
X171274985Y-100152336D01*
X171282098Y-100128887D01*
X171284500Y-100104501D01*
X171284500Y-100004500D01*
X171996500Y-100004500D01*
X171996500Y-100104501D01*
G37*
G36*
X161403591Y-101078085D02*
G01*
X161437569Y-101088393D01*
X161468890Y-101105134D01*
X161496339Y-101127661D01*
X161518866Y-101155110D01*
X161535607Y-101186431D01*
X161545915Y-101220409D01*
X161550000Y-101261890D01*
X161550000Y-101938110D01*
X161545915Y-101979591D01*
X161535607Y-102013569D01*
X161518866Y-102044890D01*
X161496339Y-102072339D01*
X161468890Y-102094866D01*
X161437569Y-102111607D01*
X161403591Y-102121915D01*
X161362110Y-102126000D01*
X160760890Y-102126000D01*
X160719409Y-102121915D01*
X160685431Y-102111607D01*
X160654110Y-102094866D01*
X160626661Y-102072339D01*
X160604134Y-102044890D01*
X160587393Y-102013569D01*
X160577085Y-101979591D01*
X160573000Y-101938110D01*
X160573000Y-101261890D01*
X160577085Y-101220409D01*
X160587393Y-101186431D01*
X160604134Y-101155110D01*
X160626661Y-101127661D01*
X160654110Y-101105134D01*
X160685431Y-101088393D01*
X160719409Y-101078085D01*
X160760890Y-101074000D01*
X161362110Y-101074000D01*
X161403591Y-101078085D01*
G37*
G36*
X159828591Y-101078085D02*
G01*
X159862569Y-101088393D01*
X159893890Y-101105134D01*
X159921339Y-101127661D01*
X159943866Y-101155110D01*
X159960607Y-101186431D01*
X159970915Y-101220409D01*
X159975000Y-101261890D01*
X159975000Y-101938110D01*
X159970915Y-101979591D01*
X159960607Y-102013569D01*
X159943866Y-102044890D01*
X159921339Y-102072339D01*
X159893890Y-102094866D01*
X159862569Y-102111607D01*
X159828591Y-102121915D01*
X159787110Y-102126000D01*
X159185890Y-102126000D01*
X159144409Y-102121915D01*
X159110431Y-102111607D01*
X159079110Y-102094866D01*
X159051661Y-102072339D01*
X159029134Y-102044890D01*
X159012393Y-102013569D01*
X159002085Y-101979591D01*
X158998000Y-101938110D01*
X158998000Y-101261890D01*
X159002085Y-101220409D01*
X159012393Y-101186431D01*
X159029134Y-101155110D01*
X159051661Y-101127661D01*
X159079110Y-101105134D01*
X159110431Y-101088393D01*
X159144409Y-101078085D01*
X159185890Y-101074000D01*
X159787110Y-101074000D01*
X159828591Y-101078085D01*
G37*
G36*
X120551938Y-101311716D02*
G01*
X120572557Y-101317971D01*
X120591553Y-101328124D01*
X120608208Y-101341792D01*
X120621876Y-101358447D01*
X120632029Y-101377443D01*
X120638284Y-101398062D01*
X120641000Y-101425640D01*
X120641000Y-101934360D01*
X120638284Y-101961938D01*
X120632029Y-101982557D01*
X120621876Y-102001553D01*
X120608208Y-102018208D01*
X120591553Y-102031876D01*
X120572557Y-102042029D01*
X120551938Y-102048284D01*
X120524360Y-102051000D01*
X120065640Y-102051000D01*
X120038062Y-102048284D01*
X120017443Y-102042029D01*
X119998447Y-102031876D01*
X119981792Y-102018208D01*
X119968124Y-102001553D01*
X119957971Y-101982557D01*
X119951716Y-101961938D01*
X119949000Y-101934360D01*
X119949000Y-101425640D01*
X119951716Y-101398062D01*
X119957971Y-101377443D01*
X119968124Y-101358447D01*
X119981792Y-101341792D01*
X119998447Y-101328124D01*
X120017443Y-101317971D01*
X120038062Y-101311716D01*
X120065640Y-101309000D01*
X120524360Y-101309000D01*
X120551938Y-101311716D01*
G37*
G36*
X121521938Y-101311716D02*
G01*
X121542557Y-101317971D01*
X121561553Y-101328124D01*
X121578208Y-101341792D01*
X121591876Y-101358447D01*
X121602029Y-101377443D01*
X121608284Y-101398062D01*
X121611000Y-101425640D01*
X121611000Y-101934360D01*
X121608284Y-101961938D01*
X121602029Y-101982557D01*
X121591876Y-102001553D01*
X121578208Y-102018208D01*
X121561553Y-102031876D01*
X121542557Y-102042029D01*
X121521938Y-102048284D01*
X121494360Y-102051000D01*
X121035640Y-102051000D01*
X121008062Y-102048284D01*
X120987443Y-102042029D01*
X120968447Y-102031876D01*
X120951792Y-102018208D01*
X120938124Y-102001553D01*
X120927971Y-101982557D01*
X120921716Y-101961938D01*
X120919000Y-101934360D01*
X120919000Y-101425640D01*
X120921716Y-101398062D01*
X120927971Y-101377443D01*
X120938124Y-101358447D01*
X120951792Y-101341792D01*
X120968447Y-101328124D01*
X120987443Y-101317971D01*
X121008062Y-101311716D01*
X121035640Y-101309000D01*
X121494360Y-101309000D01*
X121521938Y-101311716D01*
G37*
G36*
X125619507Y-101052544D02*
G01*
X125640126Y-101058799D01*
X125659122Y-101068952D01*
X125680543Y-101086532D01*
X126040268Y-101446257D01*
X126057848Y-101467678D01*
X126068001Y-101486674D01*
X126074256Y-101507293D01*
X126076367Y-101528731D01*
X126074256Y-101550169D01*
X126068001Y-101570788D01*
X126057848Y-101589784D01*
X126040268Y-101611205D01*
X125715899Y-101935574D01*
X125694478Y-101953154D01*
X125675482Y-101963307D01*
X125654863Y-101969562D01*
X125633425Y-101971673D01*
X125611987Y-101969562D01*
X125591368Y-101963307D01*
X125572372Y-101953154D01*
X125550951Y-101935574D01*
X125191226Y-101575849D01*
X125173646Y-101554428D01*
X125163493Y-101535432D01*
X125157238Y-101514813D01*
X125155127Y-101493375D01*
X125157238Y-101471937D01*
X125163493Y-101451318D01*
X125173646Y-101432322D01*
X125191226Y-101410901D01*
X125515595Y-101086532D01*
X125537016Y-101068952D01*
X125556012Y-101058799D01*
X125576631Y-101052544D01*
X125598069Y-101050433D01*
X125619507Y-101052544D01*
G37*
G36*
X179383500Y-101577500D02*
G01*
X177981500Y-101577500D01*
X177981500Y-99825500D01*
X179383500Y-99825500D01*
X179383500Y-101577500D01*
G37*
G36*
X133625880Y-96819776D02*
G01*
X134006593Y-96895504D01*
X134416249Y-97065189D01*
X134784929Y-97311534D01*
X135098466Y-97625071D01*
X135344811Y-97993751D01*
X135514496Y-98403407D01*
X135601000Y-98838296D01*
X135601000Y-99281704D01*
X135514496Y-99716593D01*
X135344811Y-100126249D01*
X135098466Y-100494929D01*
X134784929Y-100808466D01*
X134416249Y-101054811D01*
X134006593Y-101224496D01*
X133625880Y-101300224D01*
X133571705Y-101311000D01*
X133128295Y-101311000D01*
X133074120Y-101300224D01*
X132693407Y-101224496D01*
X132283751Y-101054811D01*
X131915071Y-100808466D01*
X131601534Y-100494929D01*
X131355189Y-100126249D01*
X131185504Y-99716593D01*
X131099000Y-99281704D01*
X131099000Y-98838296D01*
X131185504Y-98403407D01*
X131355189Y-97993751D01*
X131601534Y-97625071D01*
X131915071Y-97311534D01*
X132283751Y-97065189D01*
X132693407Y-96895504D01*
X133074120Y-96819776D01*
X133128295Y-96809000D01*
X133571705Y-96809000D01*
X133625880Y-96819776D01*
G37*
G36*
X120526938Y-100236716D02*
G01*
X120547557Y-100242971D01*
X120566553Y-100253124D01*
X120583208Y-100266792D01*
X120596876Y-100283447D01*
X120607029Y-100302443D01*
X120613284Y-100323062D01*
X120616000Y-100350640D01*
X120616000Y-100859360D01*
X120613284Y-100886938D01*
X120607029Y-100907557D01*
X120596876Y-100926553D01*
X120583208Y-100943208D01*
X120566553Y-100956876D01*
X120547557Y-100967029D01*
X120526938Y-100973284D01*
X120499360Y-100976000D01*
X120040640Y-100976000D01*
X120013062Y-100973284D01*
X119992443Y-100967029D01*
X119973447Y-100956876D01*
X119956792Y-100943208D01*
X119943124Y-100926553D01*
X119932971Y-100907557D01*
X119926716Y-100886938D01*
X119924000Y-100859360D01*
X119924000Y-100350640D01*
X119926716Y-100323062D01*
X119932971Y-100302443D01*
X119943124Y-100283447D01*
X119956792Y-100266792D01*
X119973447Y-100253124D01*
X119992443Y-100242971D01*
X120013062Y-100236716D01*
X120040640Y-100234000D01*
X120499360Y-100234000D01*
X120526938Y-100236716D01*
G37*
G36*
X121496938Y-100236716D02*
G01*
X121517557Y-100242971D01*
X121536553Y-100253124D01*
X121553208Y-100266792D01*
X121566876Y-100283447D01*
X121577029Y-100302443D01*
X121583284Y-100323062D01*
X121586000Y-100350640D01*
X121586000Y-100859360D01*
X121583284Y-100886938D01*
X121577029Y-100907557D01*
X121566876Y-100926553D01*
X121553208Y-100943208D01*
X121536553Y-100956876D01*
X121517557Y-100967029D01*
X121496938Y-100973284D01*
X121469360Y-100976000D01*
X121010640Y-100976000D01*
X120983062Y-100973284D01*
X120962443Y-100967029D01*
X120943447Y-100956876D01*
X120926792Y-100943208D01*
X120913124Y-100926553D01*
X120902971Y-100907557D01*
X120896716Y-100886938D01*
X120894000Y-100859360D01*
X120894000Y-100350640D01*
X120896716Y-100323062D01*
X120902971Y-100302443D01*
X120913124Y-100283447D01*
X120926792Y-100266792D01*
X120943447Y-100253124D01*
X120962443Y-100242971D01*
X120983062Y-100236716D01*
X121010640Y-100234000D01*
X121469360Y-100234000D01*
X121496938Y-100236716D01*
G37*
G36*
X169763438Y-100027216D02*
G01*
X169784057Y-100033471D01*
X169803053Y-100043624D01*
X169819708Y-100057292D01*
X169833376Y-100073947D01*
X169843529Y-100092943D01*
X169849784Y-100113562D01*
X169852500Y-100141140D01*
X169852500Y-100599860D01*
X169849784Y-100627438D01*
X169843529Y-100648057D01*
X169833376Y-100667053D01*
X169819708Y-100683708D01*
X169803053Y-100697376D01*
X169784057Y-100707529D01*
X169763438Y-100713784D01*
X169735860Y-100716500D01*
X169227140Y-100716500D01*
X169199562Y-100713784D01*
X169178943Y-100707529D01*
X169159947Y-100697376D01*
X169143292Y-100683708D01*
X169129624Y-100667053D01*
X169119471Y-100648057D01*
X169113216Y-100627438D01*
X169110500Y-100599860D01*
X169110500Y-100141140D01*
X169113216Y-100113562D01*
X169119471Y-100092943D01*
X169129624Y-100073947D01*
X169143292Y-100057292D01*
X169159947Y-100043624D01*
X169178943Y-100033471D01*
X169199562Y-100027216D01*
X169227140Y-100024500D01*
X169735860Y-100024500D01*
X169763438Y-100027216D01*
G37*
G36*
X123927138Y-99199716D02*
G01*
X123947757Y-99205971D01*
X123966753Y-99216124D01*
X123983408Y-99229792D01*
X123997076Y-99246447D01*
X124007229Y-99265443D01*
X124013484Y-99286062D01*
X124016200Y-99313640D01*
X124016200Y-99822360D01*
X124013484Y-99849938D01*
X124007229Y-99870557D01*
X123997076Y-99889553D01*
X123983408Y-99906208D01*
X123966753Y-99919876D01*
X123947757Y-99930029D01*
X123927138Y-99936284D01*
X123899560Y-99939000D01*
X123440840Y-99939000D01*
X123413262Y-99936284D01*
X123392643Y-99930029D01*
X123373647Y-99919876D01*
X123356992Y-99906208D01*
X123343324Y-99889553D01*
X123333171Y-99870557D01*
X123326916Y-99849938D01*
X123324200Y-99822360D01*
X123324200Y-99313640D01*
X123326916Y-99286062D01*
X123333171Y-99265443D01*
X123343324Y-99246447D01*
X123356992Y-99229792D01*
X123373647Y-99216124D01*
X123392643Y-99205971D01*
X123413262Y-99199716D01*
X123440840Y-99197000D01*
X123899560Y-99197000D01*
X123927138Y-99199716D01*
G37*
G36*
X124897138Y-99199716D02*
G01*
X124917757Y-99205971D01*
X124936753Y-99216124D01*
X124953408Y-99229792D01*
X124967076Y-99246447D01*
X124977229Y-99265443D01*
X124983484Y-99286062D01*
X124986200Y-99313640D01*
X124986200Y-99822360D01*
X124983484Y-99849938D01*
X124977229Y-99870557D01*
X124967076Y-99889553D01*
X124953408Y-99906208D01*
X124936753Y-99919876D01*
X124917757Y-99930029D01*
X124897138Y-99936284D01*
X124869560Y-99939000D01*
X124410840Y-99939000D01*
X124383262Y-99936284D01*
X124362643Y-99930029D01*
X124343647Y-99919876D01*
X124326992Y-99906208D01*
X124313324Y-99889553D01*
X124303171Y-99870557D01*
X124296916Y-99849938D01*
X124294200Y-99822360D01*
X124294200Y-99313640D01*
X124296916Y-99286062D01*
X124303171Y-99265443D01*
X124313324Y-99246447D01*
X124326992Y-99229792D01*
X124343647Y-99216124D01*
X124362643Y-99205971D01*
X124383262Y-99199716D01*
X124410840Y-99197000D01*
X124869560Y-99197000D01*
X124897138Y-99199716D01*
G37*
G36*
X121496938Y-99161716D02*
G01*
X121517557Y-99167971D01*
X121536553Y-99178124D01*
X121553208Y-99191792D01*
X121566876Y-99208447D01*
X121577029Y-99227443D01*
X121583284Y-99248062D01*
X121586000Y-99275640D01*
X121586000Y-99784360D01*
X121583284Y-99811938D01*
X121577029Y-99832557D01*
X121566876Y-99851553D01*
X121553208Y-99868208D01*
X121536553Y-99881876D01*
X121517557Y-99892029D01*
X121496938Y-99898284D01*
X121469360Y-99901000D01*
X121010640Y-99901000D01*
X120983062Y-99898284D01*
X120962443Y-99892029D01*
X120943447Y-99881876D01*
X120926792Y-99868208D01*
X120913124Y-99851553D01*
X120902971Y-99832557D01*
X120896716Y-99811938D01*
X120894000Y-99784360D01*
X120894000Y-99275640D01*
X120896716Y-99248062D01*
X120902971Y-99227443D01*
X120913124Y-99208447D01*
X120926792Y-99191792D01*
X120943447Y-99178124D01*
X120962443Y-99167971D01*
X120983062Y-99161716D01*
X121010640Y-99159000D01*
X121469360Y-99159000D01*
X121496938Y-99161716D01*
G37*
G36*
X120526938Y-99161716D02*
G01*
X120547557Y-99167971D01*
X120566553Y-99178124D01*
X120583208Y-99191792D01*
X120596876Y-99208447D01*
X120607029Y-99227443D01*
X120613284Y-99248062D01*
X120616000Y-99275640D01*
X120616000Y-99784360D01*
X120613284Y-99811938D01*
X120607029Y-99832557D01*
X120596876Y-99851553D01*
X120583208Y-99868208D01*
X120566553Y-99881876D01*
X120547557Y-99892029D01*
X120526938Y-99898284D01*
X120499360Y-99901000D01*
X120040640Y-99901000D01*
X120013062Y-99898284D01*
X119992443Y-99892029D01*
X119973447Y-99881876D01*
X119956792Y-99868208D01*
X119943124Y-99851553D01*
X119932971Y-99832557D01*
X119926716Y-99811938D01*
X119924000Y-99784360D01*
X119924000Y-99275640D01*
X119926716Y-99248062D01*
X119932971Y-99227443D01*
X119943124Y-99208447D01*
X119956792Y-99191792D01*
X119973447Y-99178124D01*
X119992443Y-99167971D01*
X120013062Y-99161716D01*
X120040640Y-99159000D01*
X120499360Y-99159000D01*
X120526938Y-99161716D01*
G37*
G36*
X169763438Y-99057216D02*
G01*
X169784057Y-99063471D01*
X169803053Y-99073624D01*
X169819708Y-99087292D01*
X169833376Y-99103947D01*
X169843529Y-99122943D01*
X169849784Y-99143562D01*
X169852500Y-99171140D01*
X169852500Y-99629860D01*
X169849784Y-99657438D01*
X169843529Y-99678057D01*
X169833376Y-99697053D01*
X169819708Y-99713708D01*
X169803053Y-99727376D01*
X169784057Y-99737529D01*
X169763438Y-99743784D01*
X169735860Y-99746500D01*
X169227140Y-99746500D01*
X169199562Y-99743784D01*
X169178943Y-99737529D01*
X169159947Y-99727376D01*
X169143292Y-99713708D01*
X169129624Y-99697053D01*
X169119471Y-99678057D01*
X169113216Y-99657438D01*
X169110500Y-99629860D01*
X169110500Y-99171140D01*
X169113216Y-99143562D01*
X169119471Y-99122943D01*
X169129624Y-99103947D01*
X169143292Y-99087292D01*
X169159947Y-99073624D01*
X169178943Y-99063471D01*
X169199562Y-99057216D01*
X169227140Y-99054500D01*
X169735860Y-99054500D01*
X169763438Y-99057216D01*
G37*
G36*
X126062738Y-99049316D02*
G01*
X126083357Y-99055571D01*
X126102353Y-99065724D01*
X126119008Y-99079392D01*
X126132676Y-99096047D01*
X126142829Y-99115043D01*
X126149084Y-99135662D01*
X126151800Y-99163240D01*
X126151800Y-99621960D01*
X126149084Y-99649538D01*
X126142829Y-99670157D01*
X126132676Y-99689153D01*
X126119008Y-99705808D01*
X126102353Y-99719476D01*
X126083357Y-99729629D01*
X126062738Y-99735884D01*
X126035160Y-99738600D01*
X125526440Y-99738600D01*
X125498862Y-99735884D01*
X125478243Y-99729629D01*
X125459247Y-99719476D01*
X125442592Y-99705808D01*
X125428924Y-99689153D01*
X125418771Y-99670157D01*
X125412516Y-99649538D01*
X125409800Y-99621960D01*
X125409800Y-99163240D01*
X125412516Y-99135662D01*
X125418771Y-99115043D01*
X125428924Y-99096047D01*
X125442592Y-99079392D01*
X125459247Y-99065724D01*
X125478243Y-99055571D01*
X125498862Y-99049316D01*
X125526440Y-99046600D01*
X126035160Y-99046600D01*
X126062738Y-99049316D01*
G37*
G36*
X159803091Y-98411085D02*
G01*
X159837069Y-98421393D01*
X159868390Y-98438134D01*
X159895839Y-98460661D01*
X159918366Y-98488110D01*
X159935107Y-98519431D01*
X159945415Y-98553409D01*
X159949500Y-98594890D01*
X159949500Y-99271110D01*
X159945415Y-99312591D01*
X159935107Y-99346569D01*
X159918366Y-99377890D01*
X159895839Y-99405339D01*
X159868390Y-99427866D01*
X159837069Y-99444607D01*
X159803091Y-99454915D01*
X159761610Y-99459000D01*
X159160390Y-99459000D01*
X159118909Y-99454915D01*
X159084931Y-99444607D01*
X159053610Y-99427866D01*
X159026161Y-99405339D01*
X159003634Y-99377890D01*
X158986893Y-99346569D01*
X158976585Y-99312591D01*
X158972500Y-99271110D01*
X158972500Y-98594890D01*
X158976585Y-98553409D01*
X158986893Y-98519431D01*
X159003634Y-98488110D01*
X159026161Y-98460661D01*
X159053610Y-98438134D01*
X159084931Y-98421393D01*
X159118909Y-98411085D01*
X159160390Y-98407000D01*
X159761610Y-98407000D01*
X159803091Y-98411085D01*
G37*
G36*
X161378091Y-98411085D02*
G01*
X161412069Y-98421393D01*
X161443390Y-98438134D01*
X161470839Y-98460661D01*
X161493366Y-98488110D01*
X161510107Y-98519431D01*
X161520415Y-98553409D01*
X161524500Y-98594890D01*
X161524500Y-99271110D01*
X161520415Y-99312591D01*
X161510107Y-99346569D01*
X161493366Y-99377890D01*
X161470839Y-99405339D01*
X161443390Y-99427866D01*
X161412069Y-99444607D01*
X161378091Y-99454915D01*
X161336610Y-99459000D01*
X160735390Y-99459000D01*
X160693909Y-99454915D01*
X160659931Y-99444607D01*
X160628610Y-99427866D01*
X160601161Y-99405339D01*
X160578634Y-99377890D01*
X160561893Y-99346569D01*
X160551585Y-99312591D01*
X160547500Y-99271110D01*
X160547500Y-98594890D01*
X160551585Y-98553409D01*
X160561893Y-98519431D01*
X160578634Y-98488110D01*
X160601161Y-98460661D01*
X160628610Y-98438134D01*
X160659931Y-98421393D01*
X160693909Y-98411085D01*
X160735390Y-98407000D01*
X161336610Y-98407000D01*
X161378091Y-98411085D01*
G37*
G36*
X126062738Y-98079316D02*
G01*
X126083357Y-98085571D01*
X126102353Y-98095724D01*
X126119008Y-98109392D01*
X126132676Y-98126047D01*
X126142829Y-98145043D01*
X126149084Y-98165662D01*
X126151800Y-98193240D01*
X126151800Y-98651960D01*
X126149084Y-98679538D01*
X126142829Y-98700157D01*
X126132676Y-98719153D01*
X126119008Y-98735808D01*
X126102353Y-98749476D01*
X126083357Y-98759629D01*
X126062738Y-98765884D01*
X126035160Y-98768600D01*
X125526440Y-98768600D01*
X125498862Y-98765884D01*
X125478243Y-98759629D01*
X125459247Y-98749476D01*
X125442592Y-98735808D01*
X125428924Y-98719153D01*
X125418771Y-98700157D01*
X125412516Y-98679538D01*
X125409800Y-98651960D01*
X125409800Y-98193240D01*
X125412516Y-98165662D01*
X125418771Y-98145043D01*
X125428924Y-98126047D01*
X125442592Y-98109392D01*
X125459247Y-98095724D01*
X125478243Y-98085571D01*
X125498862Y-98079316D01*
X125526440Y-98076600D01*
X126035160Y-98076600D01*
X126062738Y-98079316D01*
G37*
G36*
X123927138Y-97929716D02*
G01*
X123947757Y-97935971D01*
X123966753Y-97946124D01*
X123983408Y-97959792D01*
X123997076Y-97976447D01*
X124007229Y-97995443D01*
X124013484Y-98016062D01*
X124016200Y-98043640D01*
X124016200Y-98552360D01*
X124013484Y-98579938D01*
X124007229Y-98600557D01*
X123997076Y-98619553D01*
X123983408Y-98636208D01*
X123966753Y-98649876D01*
X123947757Y-98660029D01*
X123927138Y-98666284D01*
X123899560Y-98669000D01*
X123440840Y-98669000D01*
X123413262Y-98666284D01*
X123392643Y-98660029D01*
X123373647Y-98649876D01*
X123356992Y-98636208D01*
X123343324Y-98619553D01*
X123333171Y-98600557D01*
X123326916Y-98579938D01*
X123324200Y-98552360D01*
X123324200Y-98043640D01*
X123326916Y-98016062D01*
X123333171Y-97995443D01*
X123343324Y-97976447D01*
X123356992Y-97959792D01*
X123373647Y-97946124D01*
X123392643Y-97935971D01*
X123413262Y-97929716D01*
X123440840Y-97927000D01*
X123899560Y-97927000D01*
X123927138Y-97929716D01*
G37*
G36*
X124897138Y-97929716D02*
G01*
X124917757Y-97935971D01*
X124936753Y-97946124D01*
X124953408Y-97959792D01*
X124967076Y-97976447D01*
X124977229Y-97995443D01*
X124983484Y-98016062D01*
X124986200Y-98043640D01*
X124986200Y-98552360D01*
X124983484Y-98579938D01*
X124977229Y-98600557D01*
X124967076Y-98619553D01*
X124953408Y-98636208D01*
X124936753Y-98649876D01*
X124917757Y-98660029D01*
X124897138Y-98666284D01*
X124869560Y-98669000D01*
X124410840Y-98669000D01*
X124383262Y-98666284D01*
X124362643Y-98660029D01*
X124343647Y-98649876D01*
X124326992Y-98636208D01*
X124313324Y-98619553D01*
X124303171Y-98600557D01*
X124296916Y-98579938D01*
X124294200Y-98552360D01*
X124294200Y-98043640D01*
X124296916Y-98016062D01*
X124303171Y-97995443D01*
X124313324Y-97976447D01*
X124326992Y-97959792D01*
X124343647Y-97946124D01*
X124362643Y-97935971D01*
X124383262Y-97929716D01*
X124410840Y-97927000D01*
X124869560Y-97927000D01*
X124897138Y-97929716D01*
G37*
G36*
X175160938Y-97931716D02*
G01*
X175181557Y-97937971D01*
X175200553Y-97948124D01*
X175217208Y-97961792D01*
X175230876Y-97978447D01*
X175241029Y-97997443D01*
X175247284Y-98018062D01*
X175250000Y-98045640D01*
X175250000Y-98504360D01*
X175247284Y-98531938D01*
X175241029Y-98552557D01*
X175230876Y-98571553D01*
X175217208Y-98588208D01*
X175200553Y-98601876D01*
X175181557Y-98612029D01*
X175160938Y-98618284D01*
X175133360Y-98621000D01*
X174624640Y-98621000D01*
X174597062Y-98618284D01*
X174576443Y-98612029D01*
X174557447Y-98601876D01*
X174540792Y-98588208D01*
X174527124Y-98571553D01*
X174516971Y-98552557D01*
X174510716Y-98531938D01*
X174508000Y-98504360D01*
X174508000Y-98045640D01*
X174510716Y-98018062D01*
X174516971Y-97997443D01*
X174527124Y-97978447D01*
X174540792Y-97961792D01*
X174557447Y-97948124D01*
X174576443Y-97937971D01*
X174597062Y-97931716D01*
X174624640Y-97929000D01*
X175133360Y-97929000D01*
X175160938Y-97931716D01*
G37*
G36*
X174017938Y-97931716D02*
G01*
X174038557Y-97937971D01*
X174057553Y-97948124D01*
X174074208Y-97961792D01*
X174087876Y-97978447D01*
X174098029Y-97997443D01*
X174104284Y-98018062D01*
X174107000Y-98045640D01*
X174107000Y-98504360D01*
X174104284Y-98531938D01*
X174098029Y-98552557D01*
X174087876Y-98571553D01*
X174074208Y-98588208D01*
X174057553Y-98601876D01*
X174038557Y-98612029D01*
X174017938Y-98618284D01*
X173990360Y-98621000D01*
X173481640Y-98621000D01*
X173454062Y-98618284D01*
X173433443Y-98612029D01*
X173414447Y-98601876D01*
X173397792Y-98588208D01*
X173384124Y-98571553D01*
X173373971Y-98552557D01*
X173367716Y-98531938D01*
X173365000Y-98504360D01*
X173365000Y-98045640D01*
X173367716Y-98018062D01*
X173373971Y-97997443D01*
X173384124Y-97978447D01*
X173397792Y-97961792D01*
X173414447Y-97948124D01*
X173433443Y-97937971D01*
X173454062Y-97931716D01*
X173481640Y-97929000D01*
X173990360Y-97929000D01*
X174017938Y-97931716D01*
G37*
G36*
X176303938Y-97931716D02*
G01*
X176324557Y-97937971D01*
X176343553Y-97948124D01*
X176360208Y-97961792D01*
X176373876Y-97978447D01*
X176384029Y-97997443D01*
X176390284Y-98018062D01*
X176393000Y-98045640D01*
X176393000Y-98504360D01*
X176390284Y-98531938D01*
X176384029Y-98552557D01*
X176373876Y-98571553D01*
X176360208Y-98588208D01*
X176343553Y-98601876D01*
X176324557Y-98612029D01*
X176303938Y-98618284D01*
X176276360Y-98621000D01*
X175767640Y-98621000D01*
X175740062Y-98618284D01*
X175719443Y-98612029D01*
X175700447Y-98601876D01*
X175683792Y-98588208D01*
X175670124Y-98571553D01*
X175659971Y-98552557D01*
X175653716Y-98531938D01*
X175651000Y-98504360D01*
X175651000Y-98045640D01*
X175653716Y-98018062D01*
X175659971Y-97997443D01*
X175670124Y-97978447D01*
X175683792Y-97961792D01*
X175700447Y-97948124D01*
X175719443Y-97937971D01*
X175740062Y-97931716D01*
X175767640Y-97929000D01*
X176276360Y-97929000D01*
X176303938Y-97931716D01*
G37*
G36*
X174017938Y-96961716D02*
G01*
X174038557Y-96967971D01*
X174057553Y-96978124D01*
X174074208Y-96991792D01*
X174087876Y-97008447D01*
X174098029Y-97027443D01*
X174104284Y-97048062D01*
X174107000Y-97075640D01*
X174107000Y-97534360D01*
X174104284Y-97561938D01*
X174098029Y-97582557D01*
X174087876Y-97601553D01*
X174074208Y-97618208D01*
X174057553Y-97631876D01*
X174038557Y-97642029D01*
X174017938Y-97648284D01*
X173990360Y-97651000D01*
X173481640Y-97651000D01*
X173454062Y-97648284D01*
X173433443Y-97642029D01*
X173414447Y-97631876D01*
X173397792Y-97618208D01*
X173384124Y-97601553D01*
X173373971Y-97582557D01*
X173367716Y-97561938D01*
X173365000Y-97534360D01*
X173365000Y-97075640D01*
X173367716Y-97048062D01*
X173373971Y-97027443D01*
X173384124Y-97008447D01*
X173397792Y-96991792D01*
X173414447Y-96978124D01*
X173433443Y-96967971D01*
X173454062Y-96961716D01*
X173481640Y-96959000D01*
X173990360Y-96959000D01*
X174017938Y-96961716D01*
G37*
G36*
X175160938Y-96961716D02*
G01*
X175181557Y-96967971D01*
X175200553Y-96978124D01*
X175217208Y-96991792D01*
X175230876Y-97008447D01*
X175241029Y-97027443D01*
X175247284Y-97048062D01*
X175250000Y-97075640D01*
X175250000Y-97534360D01*
X175247284Y-97561938D01*
X175241029Y-97582557D01*
X175230876Y-97601553D01*
X175217208Y-97618208D01*
X175200553Y-97631876D01*
X175181557Y-97642029D01*
X175160938Y-97648284D01*
X175133360Y-97651000D01*
X174624640Y-97651000D01*
X174597062Y-97648284D01*
X174576443Y-97642029D01*
X174557447Y-97631876D01*
X174540792Y-97618208D01*
X174527124Y-97601553D01*
X174516971Y-97582557D01*
X174510716Y-97561938D01*
X174508000Y-97534360D01*
X174508000Y-97075640D01*
X174510716Y-97048062D01*
X174516971Y-97027443D01*
X174527124Y-97008447D01*
X174540792Y-96991792D01*
X174557447Y-96978124D01*
X174576443Y-96967971D01*
X174597062Y-96961716D01*
X174624640Y-96959000D01*
X175133360Y-96959000D01*
X175160938Y-96961716D01*
G37*
G36*
X176303938Y-96961716D02*
G01*
X176324557Y-96967971D01*
X176343553Y-96978124D01*
X176360208Y-96991792D01*
X176373876Y-97008447D01*
X176384029Y-97027443D01*
X176390284Y-97048062D01*
X176393000Y-97075640D01*
X176393000Y-97534360D01*
X176390284Y-97561938D01*
X176384029Y-97582557D01*
X176373876Y-97601553D01*
X176360208Y-97618208D01*
X176343553Y-97631876D01*
X176324557Y-97642029D01*
X176303938Y-97648284D01*
X176276360Y-97651000D01*
X175767640Y-97651000D01*
X175740062Y-97648284D01*
X175719443Y-97642029D01*
X175700447Y-97631876D01*
X175683792Y-97618208D01*
X175670124Y-97601553D01*
X175659971Y-97582557D01*
X175653716Y-97561938D01*
X175651000Y-97534360D01*
X175651000Y-97075640D01*
X175653716Y-97048062D01*
X175659971Y-97027443D01*
X175670124Y-97008447D01*
X175683792Y-96991792D01*
X175700447Y-96978124D01*
X175719443Y-96967971D01*
X175740062Y-96961716D01*
X175767640Y-96959000D01*
X176276360Y-96959000D01*
X176303938Y-96961716D01*
G37*
G36*
X178333938Y-95643716D02*
G01*
X178354557Y-95649971D01*
X178373553Y-95660124D01*
X178390208Y-95673792D01*
X178403876Y-95690447D01*
X178414029Y-95709443D01*
X178420284Y-95730062D01*
X178423000Y-95757640D01*
X178423000Y-96266360D01*
X178420284Y-96293938D01*
X178414029Y-96314557D01*
X178403876Y-96333553D01*
X178390208Y-96350208D01*
X178373553Y-96363876D01*
X178354557Y-96374029D01*
X178333938Y-96380284D01*
X178306360Y-96383000D01*
X177847640Y-96383000D01*
X177820062Y-96380284D01*
X177799443Y-96374029D01*
X177780447Y-96363876D01*
X177763792Y-96350208D01*
X177750124Y-96333553D01*
X177739971Y-96314557D01*
X177733716Y-96293938D01*
X177731000Y-96266360D01*
X177731000Y-95757640D01*
X177733716Y-95730062D01*
X177739971Y-95709443D01*
X177750124Y-95690447D01*
X177763792Y-95673792D01*
X177780447Y-95660124D01*
X177799443Y-95649971D01*
X177820062Y-95643716D01*
X177847640Y-95641000D01*
X178306360Y-95641000D01*
X178333938Y-95643716D01*
G37*
G36*
X179303938Y-95643716D02*
G01*
X179324557Y-95649971D01*
X179343553Y-95660124D01*
X179360208Y-95673792D01*
X179373876Y-95690447D01*
X179384029Y-95709443D01*
X179390284Y-95730062D01*
X179393000Y-95757640D01*
X179393000Y-96266360D01*
X179390284Y-96293938D01*
X179384029Y-96314557D01*
X179373876Y-96333553D01*
X179360208Y-96350208D01*
X179343553Y-96363876D01*
X179324557Y-96374029D01*
X179303938Y-96380284D01*
X179276360Y-96383000D01*
X178817640Y-96383000D01*
X178790062Y-96380284D01*
X178769443Y-96374029D01*
X178750447Y-96363876D01*
X178733792Y-96350208D01*
X178720124Y-96333553D01*
X178709971Y-96314557D01*
X178703716Y-96293938D01*
X178701000Y-96266360D01*
X178701000Y-95757640D01*
X178703716Y-95730062D01*
X178709971Y-95709443D01*
X178720124Y-95690447D01*
X178733792Y-95673792D01*
X178750447Y-95660124D01*
X178769443Y-95649971D01*
X178790062Y-95643716D01*
X178817640Y-95641000D01*
X179276360Y-95641000D01*
X179303938Y-95643716D01*
G37*
G36*
X145161000Y-94551000D02*
G01*
X144059000Y-94551000D01*
X144059000Y-91449000D01*
X145161000Y-91449000D01*
X145161000Y-94551000D01*
G37*
G36*
X127381000Y-94551000D02*
G01*
X126279000Y-94551000D01*
X126279000Y-91449000D01*
X127381000Y-91449000D01*
X127381000Y-94551000D01*
G37*
G36*
X147701000Y-94551000D02*
G01*
X146599000Y-94551000D01*
X146599000Y-91449000D01*
X147701000Y-91449000D01*
X147701000Y-94551000D01*
G37*
G36*
X142621000Y-94551000D02*
G01*
X141519000Y-94551000D01*
X141519000Y-91449000D01*
X142621000Y-91449000D01*
X142621000Y-94551000D01*
G37*
G36*
X150241000Y-94551000D02*
G01*
X149139000Y-94551000D01*
X149139000Y-91449000D01*
X150241000Y-91449000D01*
X150241000Y-94551000D01*
G37*
G36*
X152781000Y-94551000D02*
G01*
X151679000Y-94551000D01*
X151679000Y-91449000D01*
X152781000Y-91449000D01*
X152781000Y-94551000D01*
G37*
G36*
X155321000Y-94551000D02*
G01*
X154219000Y-94551000D01*
X154219000Y-91449000D01*
X155321000Y-91449000D01*
X155321000Y-94551000D01*
G37*
G36*
X157861000Y-94551000D02*
G01*
X156759000Y-94551000D01*
X156759000Y-91449000D01*
X157861000Y-91449000D01*
X157861000Y-94551000D01*
G37*
G36*
X124841000Y-94551000D02*
G01*
X123739000Y-94551000D01*
X123739000Y-91449000D01*
X124841000Y-91449000D01*
X124841000Y-94551000D01*
G37*
G36*
X160401000Y-94551000D02*
G01*
X159299000Y-94551000D01*
X159299000Y-91449000D01*
X160401000Y-91449000D01*
X160401000Y-94551000D01*
G37*
G36*
X137541000Y-94551000D02*
G01*
X136439000Y-94551000D01*
X136439000Y-91449000D01*
X137541000Y-91449000D01*
X137541000Y-94551000D01*
G37*
G36*
X162941000Y-94551000D02*
G01*
X161839000Y-94551000D01*
X161839000Y-91449000D01*
X162941000Y-91449000D01*
X162941000Y-94551000D01*
G37*
G36*
X135001000Y-94551000D02*
G01*
X133899000Y-94551000D01*
X133899000Y-91449000D01*
X135001000Y-91449000D01*
X135001000Y-94551000D01*
G37*
G36*
X132461000Y-94551000D02*
G01*
X131359000Y-94551000D01*
X131359000Y-91449000D01*
X132461000Y-91449000D01*
X132461000Y-94551000D01*
G37*
G36*
X165481000Y-94551000D02*
G01*
X164379000Y-94551000D01*
X164379000Y-91449000D01*
X165481000Y-91449000D01*
X165481000Y-94551000D01*
G37*
G36*
X129921000Y-94551000D02*
G01*
X128819000Y-94551000D01*
X128819000Y-91449000D01*
X129921000Y-91449000D01*
X129921000Y-94551000D01*
G37*
G36*
X168021000Y-94551000D02*
G01*
X166919000Y-94551000D01*
X166919000Y-91449000D01*
X168021000Y-91449000D01*
X168021000Y-94551000D01*
G37*
G36*
X170561000Y-94551000D02*
G01*
X169459000Y-94551000D01*
X169459000Y-91449000D01*
X170561000Y-91449000D01*
X170561000Y-94551000D01*
G37*
G36*
X140081000Y-94551000D02*
G01*
X138979000Y-94551000D01*
X138979000Y-91449000D01*
X140081000Y-91449000D01*
X140081000Y-94551000D01*
G37*
G36*
X122301000Y-94551000D02*
G01*
X121199000Y-94551000D01*
X121199000Y-91449000D01*
X122301000Y-91449000D01*
X122301000Y-94551000D01*
G37*
G36*
X176155880Y-88239776D02*
G01*
X176536593Y-88315504D01*
X176946249Y-88485189D01*
X177314929Y-88731534D01*
X177628466Y-89045071D01*
X177874811Y-89413751D01*
X178044496Y-89823407D01*
X178131000Y-90258296D01*
X178131000Y-90701704D01*
X178044496Y-91136593D01*
X177874811Y-91546249D01*
X177628466Y-91914929D01*
X177314929Y-92228466D01*
X176946249Y-92474811D01*
X176536593Y-92644496D01*
X176155880Y-92720224D01*
X176101705Y-92731000D01*
X175658295Y-92731000D01*
X175604120Y-92720224D01*
X175223407Y-92644496D01*
X174813751Y-92474811D01*
X174445071Y-92228466D01*
X174131534Y-91914929D01*
X173885189Y-91546249D01*
X173715504Y-91136593D01*
X173629000Y-90701704D01*
X173629000Y-90258296D01*
X173715504Y-89823407D01*
X173885189Y-89413751D01*
X174131534Y-89045071D01*
X174445071Y-88731534D01*
X174813751Y-88485189D01*
X175223407Y-88315504D01*
X175604120Y-88239776D01*
X175658295Y-88229000D01*
X176101705Y-88229000D01*
X176155880Y-88239776D01*
G37*
G36*
X117155880Y-88239776D02*
G01*
X117536593Y-88315504D01*
X117946249Y-88485189D01*
X118314929Y-88731534D01*
X118628466Y-89045071D01*
X118874811Y-89413751D01*
X119044496Y-89823407D01*
X119131000Y-90258296D01*
X119131000Y-90701704D01*
X119044496Y-91136593D01*
X118874811Y-91546249D01*
X118628466Y-91914929D01*
X118314929Y-92228466D01*
X117946249Y-92474811D01*
X117536593Y-92644496D01*
X117155880Y-92720224D01*
X117101705Y-92731000D01*
X116658295Y-92731000D01*
X116604120Y-92720224D01*
X116223407Y-92644496D01*
X115813751Y-92474811D01*
X115445071Y-92228466D01*
X115131534Y-91914929D01*
X114885189Y-91546249D01*
X114715504Y-91136593D01*
X114629000Y-90701704D01*
X114629000Y-90258296D01*
X114715504Y-89823407D01*
X114885189Y-89413751D01*
X115131534Y-89045071D01*
X115445071Y-88731534D01*
X115813751Y-88485189D01*
X116223407Y-88315504D01*
X116604120Y-88239776D01*
X116658295Y-88229000D01*
X117101705Y-88229000D01*
X117155880Y-88239776D01*
G37*
G36*
X137541000Y-89511000D02*
G01*
X136439000Y-89511000D01*
X136439000Y-86409000D01*
X137541000Y-86409000D01*
X137541000Y-89511000D01*
G37*
G36*
X140081000Y-89511000D02*
G01*
X138979000Y-89511000D01*
X138979000Y-86409000D01*
X140081000Y-86409000D01*
X140081000Y-89511000D01*
G37*
G36*
X165481000Y-89511000D02*
G01*
X164379000Y-89511000D01*
X164379000Y-86409000D01*
X165481000Y-86409000D01*
X165481000Y-89511000D01*
G37*
G36*
X162941000Y-89511000D02*
G01*
X161839000Y-89511000D01*
X161839000Y-86409000D01*
X162941000Y-86409000D01*
X162941000Y-89511000D01*
G37*
G36*
X160401000Y-89511000D02*
G01*
X159299000Y-89511000D01*
X159299000Y-86409000D01*
X160401000Y-86409000D01*
X160401000Y-89511000D01*
G37*
G36*
X157861000Y-89511000D02*
G01*
X156759000Y-89511000D01*
X156759000Y-86409000D01*
X157861000Y-86409000D01*
X157861000Y-89511000D01*
G37*
G36*
X155321000Y-89511000D02*
G01*
X154219000Y-89511000D01*
X154219000Y-86409000D01*
X155321000Y-86409000D01*
X155321000Y-89511000D01*
G37*
G36*
X152781000Y-89511000D02*
G01*
X151679000Y-89511000D01*
X151679000Y-86409000D01*
X152781000Y-86409000D01*
X152781000Y-89511000D01*
G37*
G36*
X150241000Y-89511000D02*
G01*
X149139000Y-89511000D01*
X149139000Y-86409000D01*
X150241000Y-86409000D01*
X150241000Y-89511000D01*
G37*
G36*
X147701000Y-89511000D02*
G01*
X146599000Y-89511000D01*
X146599000Y-86409000D01*
X147701000Y-86409000D01*
X147701000Y-89511000D01*
G37*
G36*
X145161000Y-89511000D02*
G01*
X144059000Y-89511000D01*
X144059000Y-86409000D01*
X145161000Y-86409000D01*
X145161000Y-89511000D01*
G37*
G36*
X142621000Y-89511000D02*
G01*
X141519000Y-89511000D01*
X141519000Y-86409000D01*
X142621000Y-86409000D01*
X142621000Y-89511000D01*
G37*
G36*
X135001000Y-89511000D02*
G01*
X133899000Y-89511000D01*
X133899000Y-86409000D01*
X135001000Y-86409000D01*
X135001000Y-89511000D01*
G37*
G36*
X122301000Y-89511000D02*
G01*
X121199000Y-89511000D01*
X121199000Y-86409000D01*
X122301000Y-86409000D01*
X122301000Y-89511000D01*
G37*
G36*
X124841000Y-89511000D02*
G01*
X123739000Y-89511000D01*
X123739000Y-86409000D01*
X124841000Y-86409000D01*
X124841000Y-89511000D01*
G37*
G36*
X129921000Y-89511000D02*
G01*
X128819000Y-89511000D01*
X128819000Y-86409000D01*
X129921000Y-86409000D01*
X129921000Y-89511000D01*
G37*
G36*
X132461000Y-89511000D02*
G01*
X131359000Y-89511000D01*
X131359000Y-86409000D01*
X132461000Y-86409000D01*
X132461000Y-89511000D01*
G37*
G36*
X127381000Y-89511000D02*
G01*
X126279000Y-89511000D01*
X126279000Y-86409000D01*
X127381000Y-86409000D01*
X127381000Y-89511000D01*
G37*
G36*
X170561000Y-89511000D02*
G01*
X169459000Y-89511000D01*
X169459000Y-86409000D01*
X170561000Y-86409000D01*
X170561000Y-89511000D01*
G37*
G36*
X168021000Y-89511000D02*
G01*
X166919000Y-89511000D01*
X166919000Y-86409000D01*
X168021000Y-86409000D01*
X168021000Y-89511000D01*
G37*
M02*
