G04 #@! TF.GenerationSoftware,KiCad,Pcbnew,(5.1.5)-3*
G04 #@! TF.CreationDate,2020-01-05T10:53:17-07:00*
G04 #@! TF.ProjectId,spi_control,7370695f-636f-46e7-9472-6f6c2e6b6963,A*
G04 #@! TF.SameCoordinates,Original*
G04 #@! TF.FileFunction,Legend,Bot*
G04 #@! TF.FilePolarity,Positive*
%FSLAX46Y46*%
G04 Gerber Fmt 4.6, Leading zero omitted, Abs format (unit mm)*
G04 Created by KiCad (PCBNEW (5.1.5)-3) date 2020-01-05 10:53:17*
%MOMM*%
%LPD*%
G04 APERTURE LIST*
%ADD10C,0.150000*%
%ADD11C,0.300000*%
%ADD12C,0.120000*%
G04 APERTURE END LIST*
D10*
X118243200Y-119887200D02*
X117709866Y-119887200D01*
X117843200Y-120020533D02*
X117709866Y-119887200D01*
X117843200Y-119753866D01*
X117176533Y-119453866D02*
X117176533Y-119953866D01*
X117209866Y-120053866D01*
X117276533Y-120120533D01*
X117376533Y-120153866D01*
X117443200Y-120153866D01*
X116909866Y-119453866D02*
X116476533Y-119453866D01*
X116709866Y-119720533D01*
X116609866Y-119720533D01*
X116543200Y-119753866D01*
X116509866Y-119787200D01*
X116476533Y-119853866D01*
X116476533Y-120020533D01*
X116509866Y-120087200D01*
X116543200Y-120120533D01*
X116609866Y-120153866D01*
X116809866Y-120153866D01*
X116876533Y-120120533D01*
X116909866Y-120087200D01*
X116143200Y-120153866D02*
X116009866Y-120153866D01*
X115943200Y-120120533D01*
X115909866Y-120087200D01*
X115843200Y-119987200D01*
X115809866Y-119853866D01*
X115809866Y-119587200D01*
X115843200Y-119520533D01*
X115876533Y-119487200D01*
X115943200Y-119453866D01*
X116076533Y-119453866D01*
X116143200Y-119487200D01*
X116176533Y-119520533D01*
X116209866Y-119587200D01*
X116209866Y-119753866D01*
X116176533Y-119820533D01*
X116143200Y-119853866D01*
X116076533Y-119887200D01*
X115943200Y-119887200D01*
X115876533Y-119853866D01*
X115843200Y-119820533D01*
X115809866Y-119753866D01*
X118395600Y-94030000D02*
X117862266Y-94030000D01*
X117995600Y-94163333D02*
X117862266Y-94030000D01*
X117995600Y-93896666D01*
X117328933Y-93596666D02*
X117328933Y-94096666D01*
X117362266Y-94196666D01*
X117428933Y-94263333D01*
X117528933Y-94296666D01*
X117595600Y-94296666D01*
X116695600Y-93830000D02*
X116695600Y-94296666D01*
X116862266Y-93563333D02*
X117028933Y-94063333D01*
X116595600Y-94063333D01*
X116195600Y-93596666D02*
X116128933Y-93596666D01*
X116062266Y-93630000D01*
X116028933Y-93663333D01*
X115995600Y-93730000D01*
X115962266Y-93863333D01*
X115962266Y-94030000D01*
X115995600Y-94163333D01*
X116028933Y-94230000D01*
X116062266Y-94263333D01*
X116128933Y-94296666D01*
X116195600Y-94296666D01*
X116262266Y-94263333D01*
X116295600Y-94230000D01*
X116328933Y-94163333D01*
X116362266Y-94030000D01*
X116362266Y-93863333D01*
X116328933Y-93730000D01*
X116295600Y-93663333D01*
X116262266Y-93630000D01*
X116195600Y-93596666D01*
D11*
X120496000Y-126746000D02*
G75*
G03X120496000Y-126746000I-100000J0D01*
G01*
X120496000Y-93726000D02*
G75*
G03X120496000Y-93726000I-100000J0D01*
G01*
D12*
X171703000Y-110649000D02*
X171703000Y-114649000D01*
X168403000Y-110649000D02*
X171703000Y-110649000D01*
X180082500Y-100266500D02*
X179822500Y-100266500D01*
X177542500Y-100266500D02*
X175772500Y-100266500D01*
X175772500Y-100266500D02*
X175772500Y-100646500D01*
X175772500Y-107886500D02*
X177542500Y-107886500D01*
X179822500Y-107886500D02*
X180082500Y-107886500D01*
X175772500Y-107886500D02*
X175772500Y-107506500D01*
X120990000Y-93080000D02*
X120990000Y-94440000D01*
X170770000Y-87880000D02*
X171340000Y-87880000D01*
X168230000Y-87880000D02*
X169250000Y-87880000D01*
X165690000Y-87880000D02*
X166710000Y-87880000D01*
X163150000Y-87880000D02*
X164170000Y-87880000D01*
X160610000Y-87880000D02*
X161630000Y-87880000D01*
X158070000Y-87880000D02*
X159090000Y-87880000D01*
X155530000Y-87880000D02*
X156550000Y-87880000D01*
X152990000Y-87880000D02*
X154010000Y-87880000D01*
X150450000Y-87880000D02*
X151470000Y-87880000D01*
X147910000Y-87880000D02*
X148930000Y-87880000D01*
X145370000Y-87880000D02*
X146390000Y-87880000D01*
X142830000Y-87880000D02*
X143850000Y-87880000D01*
X140290000Y-87880000D02*
X141310000Y-87880000D01*
X137750000Y-87880000D02*
X138770000Y-87880000D01*
X135210000Y-87880000D02*
X136230000Y-87880000D01*
X132670000Y-87880000D02*
X133690000Y-87880000D01*
X130130000Y-87880000D02*
X131150000Y-87880000D01*
X127590000Y-87880000D02*
X128610000Y-87880000D01*
X125050000Y-87880000D02*
X126070000Y-87880000D01*
X122510000Y-87880000D02*
X123530000Y-87880000D01*
X120420000Y-87880000D02*
X120990000Y-87880000D01*
X171340000Y-87880000D02*
X171340000Y-93080000D01*
X170770000Y-93080000D02*
X171340000Y-93080000D01*
X168230000Y-93080000D02*
X169250000Y-93080000D01*
X165690000Y-93080000D02*
X166710000Y-93080000D01*
X163150000Y-93080000D02*
X164170000Y-93080000D01*
X160610000Y-93080000D02*
X161630000Y-93080000D01*
X158070000Y-93080000D02*
X159090000Y-93080000D01*
X155530000Y-93080000D02*
X156550000Y-93080000D01*
X152990000Y-93080000D02*
X154010000Y-93080000D01*
X150450000Y-93080000D02*
X151470000Y-93080000D01*
X147910000Y-93080000D02*
X148930000Y-93080000D01*
X145370000Y-93080000D02*
X146390000Y-93080000D01*
X142830000Y-93080000D02*
X143850000Y-93080000D01*
X140290000Y-93080000D02*
X141310000Y-93080000D01*
X137750000Y-93080000D02*
X138770000Y-93080000D01*
X135210000Y-93080000D02*
X136230000Y-93080000D01*
X132670000Y-93080000D02*
X133690000Y-93080000D01*
X130130000Y-93080000D02*
X131150000Y-93080000D01*
X127590000Y-93080000D02*
X128610000Y-93080000D01*
X125050000Y-93080000D02*
X126070000Y-93080000D01*
X122510000Y-93080000D02*
X123530000Y-93080000D01*
X120420000Y-93080000D02*
X120990000Y-93080000D01*
X120420000Y-87880000D02*
X120420000Y-93080000D01*
X120990000Y-126074600D02*
X120990000Y-127434600D01*
X170770000Y-120874600D02*
X171340000Y-120874600D01*
X168230000Y-120874600D02*
X169250000Y-120874600D01*
X165690000Y-120874600D02*
X166710000Y-120874600D01*
X163150000Y-120874600D02*
X164170000Y-120874600D01*
X160610000Y-120874600D02*
X161630000Y-120874600D01*
X158070000Y-120874600D02*
X159090000Y-120874600D01*
X155530000Y-120874600D02*
X156550000Y-120874600D01*
X152990000Y-120874600D02*
X154010000Y-120874600D01*
X150450000Y-120874600D02*
X151470000Y-120874600D01*
X147910000Y-120874600D02*
X148930000Y-120874600D01*
X145370000Y-120874600D02*
X146390000Y-120874600D01*
X142830000Y-120874600D02*
X143850000Y-120874600D01*
X140290000Y-120874600D02*
X141310000Y-120874600D01*
X137750000Y-120874600D02*
X138770000Y-120874600D01*
X135210000Y-120874600D02*
X136230000Y-120874600D01*
X132670000Y-120874600D02*
X133690000Y-120874600D01*
X130130000Y-120874600D02*
X131150000Y-120874600D01*
X127590000Y-120874600D02*
X128610000Y-120874600D01*
X125050000Y-120874600D02*
X126070000Y-120874600D01*
X122510000Y-120874600D02*
X123530000Y-120874600D01*
X120420000Y-120874600D02*
X120990000Y-120874600D01*
X171340000Y-120874600D02*
X171340000Y-126074600D01*
X170770000Y-126074600D02*
X171340000Y-126074600D01*
X168230000Y-126074600D02*
X169250000Y-126074600D01*
X165690000Y-126074600D02*
X166710000Y-126074600D01*
X163150000Y-126074600D02*
X164170000Y-126074600D01*
X160610000Y-126074600D02*
X161630000Y-126074600D01*
X158070000Y-126074600D02*
X159090000Y-126074600D01*
X155530000Y-126074600D02*
X156550000Y-126074600D01*
X152990000Y-126074600D02*
X154010000Y-126074600D01*
X150450000Y-126074600D02*
X151470000Y-126074600D01*
X147910000Y-126074600D02*
X148930000Y-126074600D01*
X145370000Y-126074600D02*
X146390000Y-126074600D01*
X142830000Y-126074600D02*
X143850000Y-126074600D01*
X140290000Y-126074600D02*
X141310000Y-126074600D01*
X137750000Y-126074600D02*
X138770000Y-126074600D01*
X135210000Y-126074600D02*
X136230000Y-126074600D01*
X132670000Y-126074600D02*
X133690000Y-126074600D01*
X130130000Y-126074600D02*
X131150000Y-126074600D01*
X127590000Y-126074600D02*
X128610000Y-126074600D01*
X125050000Y-126074600D02*
X126070000Y-126074600D01*
X122510000Y-126074600D02*
X123530000Y-126074600D01*
X120420000Y-126074600D02*
X120990000Y-126074600D01*
X120420000Y-120874600D02*
X120420000Y-126074600D01*
X166948000Y-111374500D02*
X166948000Y-112274500D01*
X161728000Y-107054500D02*
X162628000Y-107054500D01*
X161728000Y-107954500D02*
X161728000Y-107054500D01*
X161728000Y-112274500D02*
X162628000Y-112274500D01*
X161728000Y-111374500D02*
X161728000Y-112274500D01*
X166948000Y-107054500D02*
X166048000Y-107054500D01*
X166948000Y-107954500D02*
X166948000Y-107054500D01*
D10*
X172990500Y-99530500D02*
X171065500Y-99530500D01*
X172215500Y-102780500D02*
X171065500Y-102780500D01*
D12*
X160085721Y-98423000D02*
X160411279Y-98423000D01*
X160085721Y-99443000D02*
X160411279Y-99443000D01*
X160111221Y-101090000D02*
X160436779Y-101090000D01*
X160111221Y-102110000D02*
X160436779Y-102110000D01*
X172840500Y-107404500D02*
X169890500Y-107404500D01*
X170440500Y-104304500D02*
X172840500Y-104304500D01*
D10*
X167579190Y-112172809D02*
X168055380Y-112172809D01*
X167055380Y-111839476D02*
X167579190Y-112172809D01*
X167055380Y-112506142D01*
X168055380Y-113363285D02*
X168055380Y-112791857D01*
X168055380Y-113077571D02*
X167055380Y-113077571D01*
X167198238Y-112982333D01*
X167293476Y-112887095D01*
X167341095Y-112791857D01*
X115385000Y-105685400D02*
X115418333Y-105718733D01*
X115518333Y-105752066D01*
X115585000Y-105752066D01*
X115685000Y-105718733D01*
X115751666Y-105652066D01*
X115785000Y-105585400D01*
X115818333Y-105452066D01*
X115818333Y-105352066D01*
X115785000Y-105218733D01*
X115751666Y-105152066D01*
X115685000Y-105085400D01*
X115585000Y-105052066D01*
X115518333Y-105052066D01*
X115418333Y-105085400D01*
X115385000Y-105118733D01*
X114785000Y-105285400D02*
X114785000Y-105752066D01*
X114951666Y-105018733D02*
X115118333Y-105518733D01*
X114685000Y-105518733D01*
X114485000Y-105052066D02*
X114051666Y-105052066D01*
X114285000Y-105318733D01*
X114185000Y-105318733D01*
X114118333Y-105352066D01*
X114085000Y-105385400D01*
X114051666Y-105452066D01*
X114051666Y-105618733D01*
X114085000Y-105685400D01*
X114118333Y-105718733D01*
X114185000Y-105752066D01*
X114385000Y-105752066D01*
X114451666Y-105718733D01*
X114485000Y-105685400D01*
X172900166Y-108517500D02*
X172933500Y-108550833D01*
X173033500Y-108584166D01*
X173100166Y-108584166D01*
X173200166Y-108550833D01*
X173266833Y-108484166D01*
X173300166Y-108417500D01*
X173333500Y-108284166D01*
X173333500Y-108184166D01*
X173300166Y-108050833D01*
X173266833Y-107984166D01*
X173200166Y-107917500D01*
X173100166Y-107884166D01*
X173033500Y-107884166D01*
X172933500Y-107917500D01*
X172900166Y-107950833D01*
X172233500Y-108584166D02*
X172633500Y-108584166D01*
X172433500Y-108584166D02*
X172433500Y-107884166D01*
X172500166Y-107984166D01*
X172566833Y-108050833D01*
X172633500Y-108084166D01*
X172900166Y-109727166D02*
X173133500Y-109393833D01*
X173300166Y-109727166D02*
X173300166Y-109027166D01*
X173033500Y-109027166D01*
X172966833Y-109060500D01*
X172933500Y-109093833D01*
X172900166Y-109160500D01*
X172900166Y-109260500D01*
X172933500Y-109327166D01*
X172966833Y-109360500D01*
X173033500Y-109393833D01*
X173300166Y-109393833D01*
X172233500Y-109727166D02*
X172633500Y-109727166D01*
X172433500Y-109727166D02*
X172433500Y-109027166D01*
X172500166Y-109127166D01*
X172566833Y-109193833D01*
X172633500Y-109227166D01*
X174178166Y-107526166D02*
X174678166Y-107526166D01*
X174778166Y-107492833D01*
X174844833Y-107426166D01*
X174878166Y-107326166D01*
X174878166Y-107259500D01*
X174878166Y-108226166D02*
X174878166Y-107826166D01*
X174878166Y-108026166D02*
X174178166Y-108026166D01*
X174278166Y-107959500D01*
X174344833Y-107892833D01*
X174378166Y-107826166D01*
X119359333Y-93596666D02*
X119359333Y-94096666D01*
X119392666Y-94196666D01*
X119459333Y-94263333D01*
X119559333Y-94296666D01*
X119626000Y-94296666D01*
X119059333Y-93663333D02*
X119026000Y-93630000D01*
X118959333Y-93596666D01*
X118792666Y-93596666D01*
X118726000Y-93630000D01*
X118692666Y-93663333D01*
X118659333Y-93730000D01*
X118659333Y-93796666D01*
X118692666Y-93896666D01*
X119092666Y-94296666D01*
X118659333Y-94296666D01*
X119359333Y-119504666D02*
X119359333Y-120004666D01*
X119392666Y-120104666D01*
X119459333Y-120171333D01*
X119559333Y-120204666D01*
X119626000Y-120204666D01*
X119092666Y-119504666D02*
X118659333Y-119504666D01*
X118892666Y-119771333D01*
X118792666Y-119771333D01*
X118726000Y-119804666D01*
X118692666Y-119838000D01*
X118659333Y-119904666D01*
X118659333Y-120071333D01*
X118692666Y-120138000D01*
X118726000Y-120171333D01*
X118792666Y-120204666D01*
X118992666Y-120204666D01*
X119059333Y-120171333D01*
X119092666Y-120138000D01*
X164058533Y-105433066D02*
X164058533Y-105999733D01*
X164025200Y-106066400D01*
X163991866Y-106099733D01*
X163925200Y-106133066D01*
X163791866Y-106133066D01*
X163725200Y-106099733D01*
X163691866Y-106066400D01*
X163658533Y-105999733D01*
X163658533Y-105433066D01*
X163391866Y-105433066D02*
X162958533Y-105433066D01*
X163191866Y-105699733D01*
X163091866Y-105699733D01*
X163025200Y-105733066D01*
X162991866Y-105766400D01*
X162958533Y-105833066D01*
X162958533Y-105999733D01*
X162991866Y-106066400D01*
X163025200Y-106099733D01*
X163091866Y-106133066D01*
X163291866Y-106133066D01*
X163358533Y-106099733D01*
X163391866Y-106066400D01*
X170395833Y-102486666D02*
X170395833Y-103053333D01*
X170362500Y-103120000D01*
X170329166Y-103153333D01*
X170262500Y-103186666D01*
X170129166Y-103186666D01*
X170062500Y-103153333D01*
X170029166Y-103120000D01*
X169995833Y-103053333D01*
X169995833Y-102486666D01*
X169695833Y-102553333D02*
X169662500Y-102520000D01*
X169595833Y-102486666D01*
X169429166Y-102486666D01*
X169362500Y-102520000D01*
X169329166Y-102553333D01*
X169295833Y-102620000D01*
X169295833Y-102686666D01*
X169329166Y-102786666D01*
X169729166Y-103186666D01*
X169295833Y-103186666D01*
X130118621Y-111325956D02*
X130519315Y-111255245D01*
X130401464Y-111608798D02*
X130896439Y-111113824D01*
X130707877Y-110925262D01*
X130637166Y-110901692D01*
X130590026Y-110901692D01*
X130519315Y-110925262D01*
X130448605Y-110995973D01*
X130425034Y-111066683D01*
X130425034Y-111113824D01*
X130448605Y-111184534D01*
X130637166Y-111373096D01*
X129647217Y-110854551D02*
X129930060Y-111137394D01*
X129788638Y-110995973D02*
X130283613Y-110500998D01*
X130260043Y-110618849D01*
X130260043Y-110713130D01*
X130283613Y-110783841D01*
X129906489Y-110218155D02*
X129906489Y-110171015D01*
X129882919Y-110100304D01*
X129765068Y-109982453D01*
X129694357Y-109958883D01*
X129647217Y-109958883D01*
X129576506Y-109982453D01*
X129529366Y-110029593D01*
X129482225Y-110123874D01*
X129482225Y-110689560D01*
X129175812Y-110383147D01*
X129356621Y-112231640D02*
X129757315Y-112160929D01*
X129639464Y-112514482D02*
X130134439Y-112019508D01*
X129945877Y-111830946D01*
X129875166Y-111807376D01*
X129828026Y-111807376D01*
X129757315Y-111830946D01*
X129686605Y-111901657D01*
X129663034Y-111972367D01*
X129663034Y-112019508D01*
X129686605Y-112090218D01*
X129875166Y-112278780D01*
X128885217Y-111760235D02*
X129168060Y-112043078D01*
X129026638Y-111901657D02*
X129521613Y-111406682D01*
X129498043Y-111524533D01*
X129498043Y-111618814D01*
X129521613Y-111689525D01*
X128413812Y-111288831D02*
X128696655Y-111571673D01*
X128555234Y-111430252D02*
X129050208Y-110935277D01*
X129026638Y-111053128D01*
X129026638Y-111147409D01*
X129050208Y-111218120D01*
X126097466Y-96451000D02*
X125764133Y-96217666D01*
X126097466Y-96051000D02*
X125397466Y-96051000D01*
X125397466Y-96317666D01*
X125430800Y-96384333D01*
X125464133Y-96417666D01*
X125530800Y-96451000D01*
X125630800Y-96451000D01*
X125697466Y-96417666D01*
X125730800Y-96384333D01*
X125764133Y-96317666D01*
X125764133Y-96051000D01*
X126097466Y-97117666D02*
X126097466Y-96717666D01*
X126097466Y-96917666D02*
X125397466Y-96917666D01*
X125497466Y-96851000D01*
X125564133Y-96784333D01*
X125597466Y-96717666D01*
X125397466Y-97551000D02*
X125397466Y-97617666D01*
X125430800Y-97684333D01*
X125464133Y-97717666D01*
X125530800Y-97751000D01*
X125664133Y-97784333D01*
X125830800Y-97784333D01*
X125964133Y-97751000D01*
X126030800Y-97717666D01*
X126064133Y-97684333D01*
X126097466Y-97617666D01*
X126097466Y-97551000D01*
X126064133Y-97484333D01*
X126030800Y-97451000D01*
X125964133Y-97417666D01*
X125830800Y-97384333D01*
X125664133Y-97384333D01*
X125530800Y-97417666D01*
X125464133Y-97451000D01*
X125430800Y-97484333D01*
X125397466Y-97551000D01*
X128319078Y-112574412D02*
X128719772Y-112503702D01*
X128601921Y-112857255D02*
X129096896Y-112362280D01*
X128908334Y-112173719D01*
X128837623Y-112150148D01*
X128790483Y-112150148D01*
X128719772Y-112173719D01*
X128649061Y-112244429D01*
X128625491Y-112315140D01*
X128625491Y-112362280D01*
X128649061Y-112432991D01*
X128837623Y-112621553D01*
X128083376Y-112338710D02*
X127989095Y-112244429D01*
X127965525Y-112173719D01*
X127965525Y-112126578D01*
X127989095Y-112008727D01*
X128059806Y-111890876D01*
X128248367Y-111702314D01*
X128319078Y-111678744D01*
X128366219Y-111678744D01*
X128436929Y-111702314D01*
X128531210Y-111796595D01*
X128554780Y-111867306D01*
X128554780Y-111914446D01*
X128531210Y-111985157D01*
X128413359Y-112103008D01*
X128342648Y-112126578D01*
X128295508Y-112126578D01*
X128224797Y-112103008D01*
X128130516Y-112008727D01*
X128106946Y-111938016D01*
X128106946Y-111890876D01*
X128130516Y-111820165D01*
X177154666Y-109435066D02*
X177388000Y-109101733D01*
X177554666Y-109435066D02*
X177554666Y-108735066D01*
X177288000Y-108735066D01*
X177221333Y-108768400D01*
X177188000Y-108801733D01*
X177154666Y-108868400D01*
X177154666Y-108968400D01*
X177188000Y-109035066D01*
X177221333Y-109068400D01*
X177288000Y-109101733D01*
X177554666Y-109101733D01*
X176754666Y-109035066D02*
X176821333Y-109001733D01*
X176854666Y-108968400D01*
X176888000Y-108901733D01*
X176888000Y-108868400D01*
X176854666Y-108801733D01*
X176821333Y-108768400D01*
X176754666Y-108735066D01*
X176621333Y-108735066D01*
X176554666Y-108768400D01*
X176521333Y-108801733D01*
X176488000Y-108868400D01*
X176488000Y-108901733D01*
X176521333Y-108968400D01*
X176554666Y-109001733D01*
X176621333Y-109035066D01*
X176754666Y-109035066D01*
X176821333Y-109068400D01*
X176854666Y-109101733D01*
X176888000Y-109168400D01*
X176888000Y-109301733D01*
X176854666Y-109368400D01*
X176821333Y-109401733D01*
X176754666Y-109435066D01*
X176621333Y-109435066D01*
X176554666Y-109401733D01*
X176521333Y-109368400D01*
X176488000Y-109301733D01*
X176488000Y-109168400D01*
X176521333Y-109101733D01*
X176554666Y-109068400D01*
X176621333Y-109035066D01*
X166686666Y-115707333D02*
X166353333Y-115474000D01*
X166686666Y-115307333D02*
X165986666Y-115307333D01*
X165986666Y-115574000D01*
X166020000Y-115640666D01*
X166053333Y-115674000D01*
X166120000Y-115707333D01*
X166220000Y-115707333D01*
X166286666Y-115674000D01*
X166320000Y-115640666D01*
X166353333Y-115574000D01*
X166353333Y-115307333D01*
X166220000Y-116307333D02*
X166686666Y-116307333D01*
X165953333Y-116140666D02*
X166453333Y-115974000D01*
X166453333Y-116407333D01*
X178170666Y-95376166D02*
X178404000Y-95042833D01*
X178570666Y-95376166D02*
X178570666Y-94676166D01*
X178304000Y-94676166D01*
X178237333Y-94709500D01*
X178204000Y-94742833D01*
X178170666Y-94809500D01*
X178170666Y-94909500D01*
X178204000Y-94976166D01*
X178237333Y-95009500D01*
X178304000Y-95042833D01*
X178570666Y-95042833D01*
X177937333Y-94676166D02*
X177504000Y-94676166D01*
X177737333Y-94942833D01*
X177637333Y-94942833D01*
X177570666Y-94976166D01*
X177537333Y-95009500D01*
X177504000Y-95076166D01*
X177504000Y-95242833D01*
X177537333Y-95309500D01*
X177570666Y-95342833D01*
X177637333Y-95376166D01*
X177837333Y-95376166D01*
X177904000Y-95342833D01*
X177937333Y-95309500D01*
X176338666Y-95831833D02*
X176005333Y-95598500D01*
X176338666Y-95431833D02*
X175638666Y-95431833D01*
X175638666Y-95698500D01*
X175672000Y-95765166D01*
X175705333Y-95798500D01*
X175772000Y-95831833D01*
X175872000Y-95831833D01*
X175938666Y-95798500D01*
X175972000Y-95765166D01*
X176005333Y-95698500D01*
X176005333Y-95431833D01*
X175705333Y-96098500D02*
X175672000Y-96131833D01*
X175638666Y-96198500D01*
X175638666Y-96365166D01*
X175672000Y-96431833D01*
X175705333Y-96465166D01*
X175772000Y-96498500D01*
X175838666Y-96498500D01*
X175938666Y-96465166D01*
X176338666Y-96065166D01*
X176338666Y-96498500D01*
X160831833Y-97613000D02*
X161065166Y-97613000D01*
X161065166Y-97979666D02*
X161065166Y-97279666D01*
X160731833Y-97279666D01*
X160231833Y-97613000D02*
X160131833Y-97646333D01*
X160098500Y-97679666D01*
X160065166Y-97746333D01*
X160065166Y-97846333D01*
X160098500Y-97913000D01*
X160131833Y-97946333D01*
X160198500Y-97979666D01*
X160465166Y-97979666D01*
X160465166Y-97279666D01*
X160231833Y-97279666D01*
X160165166Y-97313000D01*
X160131833Y-97346333D01*
X160098500Y-97413000D01*
X160098500Y-97479666D01*
X160131833Y-97546333D01*
X160165166Y-97579666D01*
X160231833Y-97613000D01*
X160465166Y-97613000D01*
X159398500Y-97979666D02*
X159798500Y-97979666D01*
X159598500Y-97979666D02*
X159598500Y-97279666D01*
X159665166Y-97379666D01*
X159731833Y-97446333D01*
X159798500Y-97479666D01*
X160857333Y-102980000D02*
X161090666Y-102980000D01*
X161090666Y-103346666D02*
X161090666Y-102646666D01*
X160757333Y-102646666D01*
X160257333Y-102980000D02*
X160157333Y-103013333D01*
X160124000Y-103046666D01*
X160090666Y-103113333D01*
X160090666Y-103213333D01*
X160124000Y-103280000D01*
X160157333Y-103313333D01*
X160224000Y-103346666D01*
X160490666Y-103346666D01*
X160490666Y-102646666D01*
X160257333Y-102646666D01*
X160190666Y-102680000D01*
X160157333Y-102713333D01*
X160124000Y-102780000D01*
X160124000Y-102846666D01*
X160157333Y-102913333D01*
X160190666Y-102946666D01*
X160257333Y-102980000D01*
X160490666Y-102980000D01*
X159824000Y-102713333D02*
X159790666Y-102680000D01*
X159724000Y-102646666D01*
X159557333Y-102646666D01*
X159490666Y-102680000D01*
X159457333Y-102713333D01*
X159424000Y-102780000D01*
X159424000Y-102846666D01*
X159457333Y-102946666D01*
X159857333Y-103346666D01*
X159424000Y-103346666D01*
X173554166Y-104012166D02*
X173554166Y-103312166D01*
X173387500Y-103312166D01*
X173287500Y-103345500D01*
X173220833Y-103412166D01*
X173187500Y-103478833D01*
X173154166Y-103612166D01*
X173154166Y-103712166D01*
X173187500Y-103845500D01*
X173220833Y-103912166D01*
X173287500Y-103978833D01*
X173387500Y-104012166D01*
X173554166Y-104012166D01*
X172487500Y-104012166D02*
X172887500Y-104012166D01*
X172687500Y-104012166D02*
X172687500Y-103312166D01*
X172754166Y-103412166D01*
X172820833Y-103478833D01*
X172887500Y-103512166D01*
X119230000Y-99780000D02*
X119263333Y-99813333D01*
X119363333Y-99846666D01*
X119430000Y-99846666D01*
X119530000Y-99813333D01*
X119596666Y-99746666D01*
X119630000Y-99680000D01*
X119663333Y-99546666D01*
X119663333Y-99446666D01*
X119630000Y-99313333D01*
X119596666Y-99246666D01*
X119530000Y-99180000D01*
X119430000Y-99146666D01*
X119363333Y-99146666D01*
X119263333Y-99180000D01*
X119230000Y-99213333D01*
X118630000Y-99380000D02*
X118630000Y-99846666D01*
X118796666Y-99113333D02*
X118963333Y-99613333D01*
X118530000Y-99613333D01*
X117963333Y-99380000D02*
X117963333Y-99846666D01*
X118130000Y-99113333D02*
X118296666Y-99613333D01*
X117863333Y-99613333D01*
X124651996Y-113801156D02*
X124699137Y-113801156D01*
X124793418Y-113754016D01*
X124840558Y-113706875D01*
X124887699Y-113612594D01*
X124887699Y-113518313D01*
X124864128Y-113447603D01*
X124793418Y-113329752D01*
X124722707Y-113259041D01*
X124604856Y-113188330D01*
X124534145Y-113164760D01*
X124439864Y-113164760D01*
X124345583Y-113211900D01*
X124298443Y-113259041D01*
X124251302Y-113353322D01*
X124251302Y-113400462D01*
X123944889Y-113942578D02*
X124274873Y-114272561D01*
X123874179Y-113636165D02*
X124345583Y-113871867D01*
X124039170Y-114178280D01*
X123591336Y-114060429D02*
X123544196Y-114060429D01*
X123473485Y-114083999D01*
X123355634Y-114201850D01*
X123332064Y-114272561D01*
X123332064Y-114319701D01*
X123355634Y-114390412D01*
X123402774Y-114437552D01*
X123497055Y-114484693D01*
X124062741Y-114484693D01*
X123756328Y-114791106D01*
X119240000Y-100805000D02*
X119273333Y-100838333D01*
X119373333Y-100871666D01*
X119440000Y-100871666D01*
X119540000Y-100838333D01*
X119606666Y-100771666D01*
X119640000Y-100705000D01*
X119673333Y-100571666D01*
X119673333Y-100471666D01*
X119640000Y-100338333D01*
X119606666Y-100271666D01*
X119540000Y-100205000D01*
X119440000Y-100171666D01*
X119373333Y-100171666D01*
X119273333Y-100205000D01*
X119240000Y-100238333D01*
X118640000Y-100405000D02*
X118640000Y-100871666D01*
X118806666Y-100138333D02*
X118973333Y-100638333D01*
X118540000Y-100638333D01*
X118140000Y-100171666D02*
X118073333Y-100171666D01*
X118006666Y-100205000D01*
X117973333Y-100238333D01*
X117940000Y-100305000D01*
X117906666Y-100438333D01*
X117906666Y-100605000D01*
X117940000Y-100738333D01*
X117973333Y-100805000D01*
X118006666Y-100838333D01*
X118073333Y-100871666D01*
X118140000Y-100871666D01*
X118206666Y-100838333D01*
X118240000Y-100805000D01*
X118273333Y-100738333D01*
X118306666Y-100605000D01*
X118306666Y-100438333D01*
X118273333Y-100305000D01*
X118240000Y-100238333D01*
X118206666Y-100205000D01*
X118140000Y-100171666D01*
X115385000Y-104605900D02*
X115418333Y-104639233D01*
X115518333Y-104672566D01*
X115585000Y-104672566D01*
X115685000Y-104639233D01*
X115751666Y-104572566D01*
X115785000Y-104505900D01*
X115818333Y-104372566D01*
X115818333Y-104272566D01*
X115785000Y-104139233D01*
X115751666Y-104072566D01*
X115685000Y-104005900D01*
X115585000Y-103972566D01*
X115518333Y-103972566D01*
X115418333Y-104005900D01*
X115385000Y-104039233D01*
X115151666Y-103972566D02*
X114718333Y-103972566D01*
X114951666Y-104239233D01*
X114851666Y-104239233D01*
X114785000Y-104272566D01*
X114751666Y-104305900D01*
X114718333Y-104372566D01*
X114718333Y-104539233D01*
X114751666Y-104605900D01*
X114785000Y-104639233D01*
X114851666Y-104672566D01*
X115051666Y-104672566D01*
X115118333Y-104639233D01*
X115151666Y-104605900D01*
X114385000Y-104672566D02*
X114251666Y-104672566D01*
X114185000Y-104639233D01*
X114151666Y-104605900D01*
X114085000Y-104505900D01*
X114051666Y-104372566D01*
X114051666Y-104105900D01*
X114085000Y-104039233D01*
X114118333Y-104005900D01*
X114185000Y-103972566D01*
X114318333Y-103972566D01*
X114385000Y-104005900D01*
X114418333Y-104039233D01*
X114451666Y-104105900D01*
X114451666Y-104272566D01*
X114418333Y-104339233D01*
X114385000Y-104372566D01*
X114318333Y-104405900D01*
X114185000Y-104405900D01*
X114118333Y-104372566D01*
X114085000Y-104339233D01*
X114051666Y-104272566D01*
X125438116Y-114570388D02*
X125485257Y-114570388D01*
X125579538Y-114523248D01*
X125626678Y-114476107D01*
X125673819Y-114381826D01*
X125673819Y-114287545D01*
X125650248Y-114216835D01*
X125579538Y-114098984D01*
X125508827Y-114028273D01*
X125390976Y-113957562D01*
X125320265Y-113933992D01*
X125225984Y-113933992D01*
X125131703Y-113981132D01*
X125084563Y-114028273D01*
X125037422Y-114122554D01*
X125037422Y-114169694D01*
X124825290Y-114287545D02*
X124518877Y-114593958D01*
X124872431Y-114617529D01*
X124801720Y-114688239D01*
X124778150Y-114758950D01*
X124778150Y-114806090D01*
X124801720Y-114876801D01*
X124919571Y-114994652D01*
X124990282Y-115018222D01*
X125037422Y-115018222D01*
X125108133Y-114994652D01*
X125249554Y-114853231D01*
X125273125Y-114782520D01*
X125273125Y-114735380D01*
X124448167Y-115088933D02*
X124471737Y-115018222D01*
X124471737Y-114971082D01*
X124448167Y-114900371D01*
X124424597Y-114876801D01*
X124353886Y-114853231D01*
X124306745Y-114853231D01*
X124236035Y-114876801D01*
X124141754Y-114971082D01*
X124118184Y-115041793D01*
X124118184Y-115088933D01*
X124141754Y-115159644D01*
X124165324Y-115183214D01*
X124236035Y-115206784D01*
X124283175Y-115206784D01*
X124353886Y-115183214D01*
X124448167Y-115088933D01*
X124518877Y-115065363D01*
X124566018Y-115065363D01*
X124636729Y-115088933D01*
X124731009Y-115183214D01*
X124754580Y-115253925D01*
X124754580Y-115301065D01*
X124731009Y-115371776D01*
X124636729Y-115466057D01*
X124566018Y-115489627D01*
X124518877Y-115489627D01*
X124448167Y-115466057D01*
X124353886Y-115371776D01*
X124330316Y-115301065D01*
X124330316Y-115253925D01*
X124353886Y-115183214D01*
X128053774Y-101052178D02*
X128100915Y-101052178D01*
X128195196Y-101005038D01*
X128242336Y-100957897D01*
X128289477Y-100863616D01*
X128289477Y-100769335D01*
X128265906Y-100698625D01*
X128195196Y-100580774D01*
X128124485Y-100510063D01*
X128006634Y-100439352D01*
X127935923Y-100415782D01*
X127841642Y-100415782D01*
X127747361Y-100462922D01*
X127700221Y-100510063D01*
X127653080Y-100604344D01*
X127653080Y-100651484D01*
X127440948Y-100769335D02*
X127134535Y-101075748D01*
X127488089Y-101099319D01*
X127417378Y-101170029D01*
X127393808Y-101240740D01*
X127393808Y-101287880D01*
X127417378Y-101358591D01*
X127535229Y-101476442D01*
X127605940Y-101500012D01*
X127653080Y-101500012D01*
X127723791Y-101476442D01*
X127865212Y-101335021D01*
X127888783Y-101264310D01*
X127888783Y-101217170D01*
X126969544Y-101240740D02*
X126639561Y-101570723D01*
X127346667Y-101853566D01*
X119255000Y-101905000D02*
X119288333Y-101938333D01*
X119388333Y-101971666D01*
X119455000Y-101971666D01*
X119555000Y-101938333D01*
X119621666Y-101871666D01*
X119655000Y-101805000D01*
X119688333Y-101671666D01*
X119688333Y-101571666D01*
X119655000Y-101438333D01*
X119621666Y-101371666D01*
X119555000Y-101305000D01*
X119455000Y-101271666D01*
X119388333Y-101271666D01*
X119288333Y-101305000D01*
X119255000Y-101338333D01*
X119021666Y-101271666D02*
X118588333Y-101271666D01*
X118821666Y-101538333D01*
X118721666Y-101538333D01*
X118655000Y-101571666D01*
X118621666Y-101605000D01*
X118588333Y-101671666D01*
X118588333Y-101838333D01*
X118621666Y-101905000D01*
X118655000Y-101938333D01*
X118721666Y-101971666D01*
X118921666Y-101971666D01*
X118988333Y-101938333D01*
X119021666Y-101905000D01*
X117988333Y-101271666D02*
X118121666Y-101271666D01*
X118188333Y-101305000D01*
X118221666Y-101338333D01*
X118288333Y-101438333D01*
X118321666Y-101571666D01*
X118321666Y-101838333D01*
X118288333Y-101905000D01*
X118255000Y-101938333D01*
X118188333Y-101971666D01*
X118055000Y-101971666D01*
X117988333Y-101938333D01*
X117955000Y-101905000D01*
X117921666Y-101838333D01*
X117921666Y-101671666D01*
X117955000Y-101605000D01*
X117988333Y-101571666D01*
X118055000Y-101538333D01*
X118188333Y-101538333D01*
X118255000Y-101571666D01*
X118288333Y-101605000D01*
X118321666Y-101671666D01*
X117463440Y-108612800D02*
X117496773Y-108579466D01*
X117530106Y-108479466D01*
X117530106Y-108412800D01*
X117496773Y-108312800D01*
X117430106Y-108246133D01*
X117363440Y-108212800D01*
X117230106Y-108179466D01*
X117130106Y-108179466D01*
X116996773Y-108212800D01*
X116930106Y-108246133D01*
X116863440Y-108312800D01*
X116830106Y-108412800D01*
X116830106Y-108479466D01*
X116863440Y-108579466D01*
X116896773Y-108612800D01*
X116830106Y-108846133D02*
X116830106Y-109279466D01*
X117096773Y-109046133D01*
X117096773Y-109146133D01*
X117130106Y-109212800D01*
X117163440Y-109246133D01*
X117230106Y-109279466D01*
X117396773Y-109279466D01*
X117463440Y-109246133D01*
X117496773Y-109212800D01*
X117530106Y-109146133D01*
X117530106Y-108946133D01*
X117496773Y-108879466D01*
X117463440Y-108846133D01*
X116830106Y-109912800D02*
X116830106Y-109579466D01*
X117163440Y-109546133D01*
X117130106Y-109579466D01*
X117096773Y-109646133D01*
X117096773Y-109812800D01*
X117130106Y-109879466D01*
X117163440Y-109912800D01*
X117230106Y-109946133D01*
X117396773Y-109946133D01*
X117463440Y-109912800D01*
X117496773Y-109879466D01*
X117530106Y-109812800D01*
X117530106Y-109646133D01*
X117496773Y-109579466D01*
X117463440Y-109546133D01*
X115385000Y-103526400D02*
X115418333Y-103559733D01*
X115518333Y-103593066D01*
X115585000Y-103593066D01*
X115685000Y-103559733D01*
X115751666Y-103493066D01*
X115785000Y-103426400D01*
X115818333Y-103293066D01*
X115818333Y-103193066D01*
X115785000Y-103059733D01*
X115751666Y-102993066D01*
X115685000Y-102926400D01*
X115585000Y-102893066D01*
X115518333Y-102893066D01*
X115418333Y-102926400D01*
X115385000Y-102959733D01*
X115151666Y-102893066D02*
X114718333Y-102893066D01*
X114951666Y-103159733D01*
X114851666Y-103159733D01*
X114785000Y-103193066D01*
X114751666Y-103226400D01*
X114718333Y-103293066D01*
X114718333Y-103459733D01*
X114751666Y-103526400D01*
X114785000Y-103559733D01*
X114851666Y-103593066D01*
X115051666Y-103593066D01*
X115118333Y-103559733D01*
X115151666Y-103526400D01*
X114118333Y-103126400D02*
X114118333Y-103593066D01*
X114285000Y-102859733D02*
X114451666Y-103359733D01*
X114018333Y-103359733D01*
X132344501Y-107450454D02*
X132344501Y-107497595D01*
X132391641Y-107591876D01*
X132438782Y-107639016D01*
X132533063Y-107686157D01*
X132627344Y-107686157D01*
X132698054Y-107662586D01*
X132815905Y-107591876D01*
X132886616Y-107521165D01*
X132957327Y-107403314D01*
X132980897Y-107332603D01*
X132980897Y-107238322D01*
X132933757Y-107144041D01*
X132886616Y-107096901D01*
X132792335Y-107049760D01*
X132745195Y-107049760D01*
X132627344Y-106837628D02*
X132320931Y-106531215D01*
X132297360Y-106884769D01*
X132226650Y-106814058D01*
X132155939Y-106790488D01*
X132108799Y-106790488D01*
X132038088Y-106814058D01*
X131920237Y-106931909D01*
X131896667Y-107002620D01*
X131896667Y-107049760D01*
X131920237Y-107120471D01*
X132061658Y-107261892D01*
X132132369Y-107285463D01*
X132179509Y-107285463D01*
X132155939Y-106366224D02*
X131849526Y-106059811D01*
X131825956Y-106413364D01*
X131755245Y-106342654D01*
X131684535Y-106319083D01*
X131637394Y-106319083D01*
X131566683Y-106342654D01*
X131448832Y-106460505D01*
X131425262Y-106531215D01*
X131425262Y-106578356D01*
X131448832Y-106649067D01*
X131590254Y-106790488D01*
X131660964Y-106814058D01*
X131708105Y-106814058D01*
X118512400Y-108617600D02*
X118545733Y-108584266D01*
X118579066Y-108484266D01*
X118579066Y-108417600D01*
X118545733Y-108317600D01*
X118479066Y-108250933D01*
X118412400Y-108217600D01*
X118279066Y-108184266D01*
X118179066Y-108184266D01*
X118045733Y-108217600D01*
X117979066Y-108250933D01*
X117912400Y-108317600D01*
X117879066Y-108417600D01*
X117879066Y-108484266D01*
X117912400Y-108584266D01*
X117945733Y-108617600D01*
X117879066Y-108850933D02*
X117879066Y-109284266D01*
X118145733Y-109050933D01*
X118145733Y-109150933D01*
X118179066Y-109217600D01*
X118212400Y-109250933D01*
X118279066Y-109284266D01*
X118445733Y-109284266D01*
X118512400Y-109250933D01*
X118545733Y-109217600D01*
X118579066Y-109150933D01*
X118579066Y-108950933D01*
X118545733Y-108884266D01*
X118512400Y-108850933D01*
X117945733Y-109550933D02*
X117912400Y-109584266D01*
X117879066Y-109650933D01*
X117879066Y-109817600D01*
X117912400Y-109884266D01*
X117945733Y-109917600D01*
X118012400Y-109950933D01*
X118079066Y-109950933D01*
X118179066Y-109917600D01*
X118579066Y-109517600D01*
X118579066Y-109950933D01*
X127342574Y-100239378D02*
X127389715Y-100239378D01*
X127483996Y-100192238D01*
X127531136Y-100145097D01*
X127578277Y-100050816D01*
X127578277Y-99956535D01*
X127554706Y-99885825D01*
X127483996Y-99767974D01*
X127413285Y-99697263D01*
X127295434Y-99626552D01*
X127224723Y-99602982D01*
X127130442Y-99602982D01*
X127036161Y-99650122D01*
X126989021Y-99697263D01*
X126941880Y-99791544D01*
X126941880Y-99838684D01*
X126729748Y-99956535D02*
X126423335Y-100262948D01*
X126776889Y-100286519D01*
X126706178Y-100357229D01*
X126682608Y-100427940D01*
X126682608Y-100475080D01*
X126706178Y-100545791D01*
X126824029Y-100663642D01*
X126894740Y-100687212D01*
X126941880Y-100687212D01*
X127012591Y-100663642D01*
X127154012Y-100522221D01*
X127177583Y-100451510D01*
X127177583Y-100404370D01*
X126116922Y-100569361D02*
X126069782Y-100616502D01*
X126046212Y-100687212D01*
X126046212Y-100734353D01*
X126069782Y-100805064D01*
X126140493Y-100922915D01*
X126258344Y-101040766D01*
X126376195Y-101111477D01*
X126446906Y-101135047D01*
X126494046Y-101135047D01*
X126564757Y-101111477D01*
X126611897Y-101064336D01*
X126635467Y-100993625D01*
X126635467Y-100946485D01*
X126611897Y-100875774D01*
X126541187Y-100757923D01*
X126423335Y-100640072D01*
X126305484Y-100569361D01*
X126234774Y-100545791D01*
X126187633Y-100545791D01*
X126116922Y-100569361D01*
X122550200Y-98548000D02*
X122583533Y-98581333D01*
X122683533Y-98614666D01*
X122750200Y-98614666D01*
X122850200Y-98581333D01*
X122916866Y-98514666D01*
X122950200Y-98448000D01*
X122983533Y-98314666D01*
X122983533Y-98214666D01*
X122950200Y-98081333D01*
X122916866Y-98014666D01*
X122850200Y-97948000D01*
X122750200Y-97914666D01*
X122683533Y-97914666D01*
X122583533Y-97948000D01*
X122550200Y-97981333D01*
X122283533Y-97981333D02*
X122250200Y-97948000D01*
X122183533Y-97914666D01*
X122016866Y-97914666D01*
X121950200Y-97948000D01*
X121916866Y-97981333D01*
X121883533Y-98048000D01*
X121883533Y-98114666D01*
X121916866Y-98214666D01*
X122316866Y-98614666D01*
X121883533Y-98614666D01*
X121550200Y-98614666D02*
X121416866Y-98614666D01*
X121350200Y-98581333D01*
X121316866Y-98548000D01*
X121250200Y-98448000D01*
X121216866Y-98314666D01*
X121216866Y-98048000D01*
X121250200Y-97981333D01*
X121283533Y-97948000D01*
X121350200Y-97914666D01*
X121483533Y-97914666D01*
X121550200Y-97948000D01*
X121583533Y-97981333D01*
X121616866Y-98048000D01*
X121616866Y-98214666D01*
X121583533Y-98281333D01*
X121550200Y-98314666D01*
X121483533Y-98348000D01*
X121350200Y-98348000D01*
X121283533Y-98314666D01*
X121250200Y-98281333D01*
X121216866Y-98214666D01*
X131595154Y-108225107D02*
X131595154Y-108272248D01*
X131642294Y-108366529D01*
X131689435Y-108413669D01*
X131783716Y-108460810D01*
X131877997Y-108460810D01*
X131948707Y-108437239D01*
X132066558Y-108366529D01*
X132137269Y-108295818D01*
X132207980Y-108177967D01*
X132231550Y-108107256D01*
X132231550Y-108012975D01*
X132184410Y-107918694D01*
X132137269Y-107871554D01*
X132042988Y-107824413D01*
X131995848Y-107824413D01*
X131807286Y-107635852D02*
X131807286Y-107588711D01*
X131783716Y-107518000D01*
X131665865Y-107400149D01*
X131595154Y-107376579D01*
X131548013Y-107376579D01*
X131477303Y-107400149D01*
X131430162Y-107447290D01*
X131383022Y-107541571D01*
X131383022Y-108107256D01*
X131076609Y-107800843D01*
X131076609Y-107235158D02*
X131147320Y-107258728D01*
X131194460Y-107258728D01*
X131265171Y-107235158D01*
X131288741Y-107211588D01*
X131312311Y-107140877D01*
X131312311Y-107093736D01*
X131288741Y-107023026D01*
X131194460Y-106928745D01*
X131123749Y-106905175D01*
X131076609Y-106905175D01*
X131005898Y-106928745D01*
X130982328Y-106952315D01*
X130958758Y-107023026D01*
X130958758Y-107070166D01*
X130982328Y-107140877D01*
X131076609Y-107235158D01*
X131100179Y-107305868D01*
X131100179Y-107353009D01*
X131076609Y-107423720D01*
X130982328Y-107518000D01*
X130911617Y-107541571D01*
X130864477Y-107541571D01*
X130793766Y-107518000D01*
X130699485Y-107423720D01*
X130675915Y-107353009D01*
X130675915Y-107305868D01*
X130699485Y-107235158D01*
X130793766Y-107140877D01*
X130864477Y-107117307D01*
X130911617Y-107117307D01*
X130982328Y-107140877D01*
X124656000Y-100961000D02*
X124689333Y-100994333D01*
X124789333Y-101027666D01*
X124856000Y-101027666D01*
X124956000Y-100994333D01*
X125022666Y-100927666D01*
X125056000Y-100861000D01*
X125089333Y-100727666D01*
X125089333Y-100627666D01*
X125056000Y-100494333D01*
X125022666Y-100427666D01*
X124956000Y-100361000D01*
X124856000Y-100327666D01*
X124789333Y-100327666D01*
X124689333Y-100361000D01*
X124656000Y-100394333D01*
X124389333Y-100394333D02*
X124356000Y-100361000D01*
X124289333Y-100327666D01*
X124122666Y-100327666D01*
X124056000Y-100361000D01*
X124022666Y-100394333D01*
X123989333Y-100461000D01*
X123989333Y-100527666D01*
X124022666Y-100627666D01*
X124422666Y-101027666D01*
X123989333Y-101027666D01*
X123756000Y-100327666D02*
X123289333Y-100327666D01*
X123589333Y-101027666D01*
X170556200Y-116785200D02*
X170589533Y-116818533D01*
X170689533Y-116851866D01*
X170756200Y-116851866D01*
X170856200Y-116818533D01*
X170922866Y-116751866D01*
X170956200Y-116685200D01*
X170989533Y-116551866D01*
X170989533Y-116451866D01*
X170956200Y-116318533D01*
X170922866Y-116251866D01*
X170856200Y-116185200D01*
X170756200Y-116151866D01*
X170689533Y-116151866D01*
X170589533Y-116185200D01*
X170556200Y-116218533D01*
X170289533Y-116218533D02*
X170256200Y-116185200D01*
X170189533Y-116151866D01*
X170022866Y-116151866D01*
X169956200Y-116185200D01*
X169922866Y-116218533D01*
X169889533Y-116285200D01*
X169889533Y-116351866D01*
X169922866Y-116451866D01*
X170322866Y-116851866D01*
X169889533Y-116851866D01*
X169656200Y-116151866D02*
X169222866Y-116151866D01*
X169456200Y-116418533D01*
X169356200Y-116418533D01*
X169289533Y-116451866D01*
X169256200Y-116485200D01*
X169222866Y-116551866D01*
X169222866Y-116718533D01*
X169256200Y-116785200D01*
X169289533Y-116818533D01*
X169356200Y-116851866D01*
X169556200Y-116851866D01*
X169622866Y-116818533D01*
X169656200Y-116785200D01*
X130396400Y-102967600D02*
X130429733Y-103000933D01*
X130529733Y-103034266D01*
X130596400Y-103034266D01*
X130696400Y-103000933D01*
X130763066Y-102934266D01*
X130796400Y-102867600D01*
X130829733Y-102734266D01*
X130829733Y-102634266D01*
X130796400Y-102500933D01*
X130763066Y-102434266D01*
X130696400Y-102367600D01*
X130596400Y-102334266D01*
X130529733Y-102334266D01*
X130429733Y-102367600D01*
X130396400Y-102400933D01*
X130129733Y-102400933D02*
X130096400Y-102367600D01*
X130029733Y-102334266D01*
X129863066Y-102334266D01*
X129796400Y-102367600D01*
X129763066Y-102400933D01*
X129729733Y-102467600D01*
X129729733Y-102534266D01*
X129763066Y-102634266D01*
X130163066Y-103034266D01*
X129729733Y-103034266D01*
X129463066Y-102400933D02*
X129429733Y-102367600D01*
X129363066Y-102334266D01*
X129196400Y-102334266D01*
X129129733Y-102367600D01*
X129096400Y-102400933D01*
X129063066Y-102467600D01*
X129063066Y-102534266D01*
X129096400Y-102634266D01*
X129496400Y-103034266D01*
X129063066Y-103034266D01*
X173835200Y-112122800D02*
X173868533Y-112089466D01*
X173901866Y-111989466D01*
X173901866Y-111922800D01*
X173868533Y-111822800D01*
X173801866Y-111756133D01*
X173735200Y-111722800D01*
X173601866Y-111689466D01*
X173501866Y-111689466D01*
X173368533Y-111722800D01*
X173301866Y-111756133D01*
X173235200Y-111822800D01*
X173201866Y-111922800D01*
X173201866Y-111989466D01*
X173235200Y-112089466D01*
X173268533Y-112122800D01*
X173901866Y-112789466D02*
X173901866Y-112389466D01*
X173901866Y-112589466D02*
X173201866Y-112589466D01*
X173301866Y-112522800D01*
X173368533Y-112456133D01*
X173401866Y-112389466D01*
X173501866Y-113189466D02*
X173468533Y-113122800D01*
X173435200Y-113089466D01*
X173368533Y-113056133D01*
X173335200Y-113056133D01*
X173268533Y-113089466D01*
X173235200Y-113122800D01*
X173201866Y-113189466D01*
X173201866Y-113322800D01*
X173235200Y-113389466D01*
X173268533Y-113422800D01*
X173335200Y-113456133D01*
X173368533Y-113456133D01*
X173435200Y-113422800D01*
X173468533Y-113389466D01*
X173501866Y-113322800D01*
X173501866Y-113189466D01*
X173535200Y-113122800D01*
X173568533Y-113089466D01*
X173635200Y-113056133D01*
X173768533Y-113056133D01*
X173835200Y-113089466D01*
X173868533Y-113122800D01*
X173901866Y-113189466D01*
X173901866Y-113322800D01*
X173868533Y-113389466D01*
X173835200Y-113422800D01*
X173768533Y-113456133D01*
X173635200Y-113456133D01*
X173568533Y-113422800D01*
X173535200Y-113389466D01*
X173501866Y-113322800D01*
X168501200Y-104553600D02*
X168534533Y-104520266D01*
X168567866Y-104420266D01*
X168567866Y-104353600D01*
X168534533Y-104253600D01*
X168467866Y-104186933D01*
X168401200Y-104153600D01*
X168267866Y-104120266D01*
X168167866Y-104120266D01*
X168034533Y-104153600D01*
X167967866Y-104186933D01*
X167901200Y-104253600D01*
X167867866Y-104353600D01*
X167867866Y-104420266D01*
X167901200Y-104520266D01*
X167934533Y-104553600D01*
X167934533Y-104820266D02*
X167901200Y-104853600D01*
X167867866Y-104920266D01*
X167867866Y-105086933D01*
X167901200Y-105153600D01*
X167934533Y-105186933D01*
X168001200Y-105220266D01*
X168067866Y-105220266D01*
X168167866Y-105186933D01*
X168567866Y-104786933D01*
X168567866Y-105220266D01*
X168567866Y-105886933D02*
X168567866Y-105486933D01*
X168567866Y-105686933D02*
X167867866Y-105686933D01*
X167967866Y-105620266D01*
X168034533Y-105553600D01*
X168067866Y-105486933D01*
X166264400Y-102443000D02*
X166297733Y-102409666D01*
X166331066Y-102309666D01*
X166331066Y-102243000D01*
X166297733Y-102143000D01*
X166231066Y-102076333D01*
X166164400Y-102043000D01*
X166031066Y-102009666D01*
X165931066Y-102009666D01*
X165797733Y-102043000D01*
X165731066Y-102076333D01*
X165664400Y-102143000D01*
X165631066Y-102243000D01*
X165631066Y-102309666D01*
X165664400Y-102409666D01*
X165697733Y-102443000D01*
X166331066Y-103109666D02*
X166331066Y-102709666D01*
X166331066Y-102909666D02*
X165631066Y-102909666D01*
X165731066Y-102843000D01*
X165797733Y-102776333D01*
X165831066Y-102709666D01*
X166331066Y-103443000D02*
X166331066Y-103576333D01*
X166297733Y-103643000D01*
X166264400Y-103676333D01*
X166164400Y-103743000D01*
X166031066Y-103776333D01*
X165764400Y-103776333D01*
X165697733Y-103743000D01*
X165664400Y-103709666D01*
X165631066Y-103643000D01*
X165631066Y-103509666D01*
X165664400Y-103443000D01*
X165697733Y-103409666D01*
X165764400Y-103376333D01*
X165931066Y-103376333D01*
X165997733Y-103409666D01*
X166031066Y-103443000D01*
X166064400Y-103509666D01*
X166064400Y-103643000D01*
X166031066Y-103709666D01*
X165997733Y-103743000D01*
X165931066Y-103776333D01*
X169731500Y-98117833D02*
X169764833Y-98084500D01*
X169798166Y-97984500D01*
X169798166Y-97917833D01*
X169764833Y-97817833D01*
X169698166Y-97751166D01*
X169631500Y-97717833D01*
X169498166Y-97684500D01*
X169398166Y-97684500D01*
X169264833Y-97717833D01*
X169198166Y-97751166D01*
X169131500Y-97817833D01*
X169098166Y-97917833D01*
X169098166Y-97984500D01*
X169131500Y-98084500D01*
X169164833Y-98117833D01*
X169331500Y-98717833D02*
X169798166Y-98717833D01*
X169064833Y-98551166D02*
X169564833Y-98384500D01*
X169564833Y-98817833D01*
X175129000Y-95895333D02*
X175162333Y-95862000D01*
X175195666Y-95762000D01*
X175195666Y-95695333D01*
X175162333Y-95595333D01*
X175095666Y-95528666D01*
X175029000Y-95495333D01*
X174895666Y-95462000D01*
X174795666Y-95462000D01*
X174662333Y-95495333D01*
X174595666Y-95528666D01*
X174529000Y-95595333D01*
X174495666Y-95695333D01*
X174495666Y-95762000D01*
X174529000Y-95862000D01*
X174562333Y-95895333D01*
X174495666Y-96128666D02*
X174495666Y-96562000D01*
X174762333Y-96328666D01*
X174762333Y-96428666D01*
X174795666Y-96495333D01*
X174829000Y-96528666D01*
X174895666Y-96562000D01*
X175062333Y-96562000D01*
X175129000Y-96528666D01*
X175162333Y-96495333D01*
X175195666Y-96428666D01*
X175195666Y-96228666D01*
X175162333Y-96162000D01*
X175129000Y-96128666D01*
X173986000Y-95895333D02*
X174019333Y-95862000D01*
X174052666Y-95762000D01*
X174052666Y-95695333D01*
X174019333Y-95595333D01*
X173952666Y-95528666D01*
X173886000Y-95495333D01*
X173752666Y-95462000D01*
X173652666Y-95462000D01*
X173519333Y-95495333D01*
X173452666Y-95528666D01*
X173386000Y-95595333D01*
X173352666Y-95695333D01*
X173352666Y-95762000D01*
X173386000Y-95862000D01*
X173419333Y-95895333D01*
X173419333Y-96162000D02*
X173386000Y-96195333D01*
X173352666Y-96262000D01*
X173352666Y-96428666D01*
X173386000Y-96495333D01*
X173419333Y-96528666D01*
X173486000Y-96562000D01*
X173552666Y-96562000D01*
X173652666Y-96528666D01*
X174052666Y-96128666D01*
X174052666Y-96562000D01*
M02*
