M48
INCH
T1C0.0157
%
G90
G05
T1
X-0.0787Y0.1929
X-0.0787Y0.1693
X-0.0787Y0.1457
X-0.0787Y0.122
X0.0Y0.1929
X0.0Y0.1693
X0.0Y0.1457
X0.0Y0.122
X-0.0787Y1.9567
X-0.0787Y1.9331
X-0.0787Y1.9094
X-0.0787Y1.8858
X0.0Y1.9567
X0.0Y1.9331
X0.0Y1.9094
X0.0Y1.8858
X-0.0787Y0.878
X-0.0787Y0.8543
X-0.0787Y0.8307
X-0.0787Y0.8071
X0.0Y0.878
X0.0Y0.8543
X0.0Y0.8307
X0.0Y0.8071
X3.9075Y1.2717
X3.9075Y1.248
X3.9075Y1.2244
X3.9075Y1.2008
X3.9862Y1.2717
X3.9862Y1.248
X3.9862Y1.2244
X3.9862Y1.2008
X-0.0787Y1.2717
X-0.0787Y1.248
X-0.0787Y1.2244
X-0.0787Y1.2008
X0.0Y1.2717
X0.0Y1.248
X0.0Y1.2244
X0.0Y1.2008
X3.9075Y1.9567
X3.9075Y1.9331
X3.9075Y1.9094
X3.9075Y1.8858
X3.9862Y1.9567
X3.9862Y1.9331
X3.9862Y1.9094
X3.9862Y1.8858
X3.9075Y2.3504
X3.9075Y2.3268
X3.9075Y2.3031
X3.9075Y2.2795
X3.9862Y2.3504
X3.9862Y2.3268
X3.9862Y2.3031
X3.9862Y2.2795
X1.25Y1.9567
X1.25Y1.9331
X1.25Y1.9094
X1.25Y1.8858
X1.3287Y1.9567
X1.3287Y1.9331
X1.3287Y1.9094
X1.3287Y1.8858
X1.25Y1.2717
X1.25Y1.248
X1.25Y1.2244
X1.25Y1.2008
X1.3287Y1.2717
X1.3287Y1.248
X1.3287Y1.2244
X1.3287Y1.2008
X3.9075Y0.878
X3.9075Y0.8543
X3.9075Y0.8307
X3.9075Y0.8071
X3.9862Y0.878
X3.9862Y0.8543
X3.9862Y0.8307
X3.9862Y0.8071
X1.25Y0.1929
X1.25Y0.1693
X1.25Y0.1457
X1.25Y0.122
X1.3287Y0.1929
X1.3287Y0.1693
X1.3287Y0.1457
X1.3287Y0.122
X3.9075Y3.0354
X3.9075Y3.0118
X3.9075Y2.9882
X3.9075Y2.9646
X3.9862Y3.0354
X3.9862Y3.0118
X3.9862Y2.9882
X3.9862Y2.9646
X1.25Y2.3504
X1.25Y2.3268
X1.25Y2.3031
X1.25Y2.2795
X1.3287Y2.3504
X1.3287Y2.3268
X1.3287Y2.3031
X1.3287Y2.2795
X2.5787Y0.878
X2.5787Y0.8543
X2.5787Y0.8307
X2.5787Y0.8071
X2.6575Y0.878
X2.6575Y0.8543
X2.6575Y0.8307
X2.6575Y0.8071
X-0.0787Y3.0354
X-0.0787Y3.0118
X-0.0787Y2.9882
X-0.0787Y2.9646
X0.0Y3.0354
X0.0Y3.0118
X0.0Y2.9882
X0.0Y2.9646
X2.5787Y0.1929
X2.5787Y0.1693
X2.5787Y0.1457
X2.5787Y0.122
X2.6575Y0.1929
X2.6575Y0.1693
X2.6575Y0.1457
X2.6575Y0.122
X2.5787Y3.0354
X2.5787Y3.0118
X2.5787Y2.9882
X2.5787Y2.9646
X2.6575Y3.0354
X2.6575Y3.0118
X2.6575Y2.9882
X2.6575Y2.9646
X2.5787Y1.2717
X2.5787Y1.248
X2.5787Y1.2244
X2.5787Y1.2008
X2.6575Y1.2717
X2.6575Y1.248
X2.6575Y1.2244
X2.6575Y1.2008
X-0.0787Y2.3504
X-0.0787Y2.3268
X-0.0787Y2.3031
X-0.0787Y2.2795
X0.0Y2.3504
X0.0Y2.3268
X0.0Y2.3031
X0.0Y2.2795
X1.25Y3.0354
X1.25Y3.0118
X1.25Y2.9882
X1.25Y2.9646
X1.3287Y3.0354
X1.3287Y3.0118
X1.3287Y2.9882
X1.3287Y2.9646
X3.9075Y0.1929
X3.9075Y0.1693
X3.9075Y0.1457
X3.9075Y0.122
X3.9862Y0.1929
X3.9862Y0.1693
X3.9862Y0.1457
X3.9862Y0.122
X2.5787Y2.3504
X2.5787Y2.3268
X2.5787Y2.3031
X2.5787Y2.2795
X2.6575Y2.3504
X2.6575Y2.3268
X2.6575Y2.3031
X2.6575Y2.2795
X2.5787Y1.9567
X2.5787Y1.9331
X2.5787Y1.9094
X2.5787Y1.8858
X2.6575Y1.9567
X2.6575Y1.9331
X2.6575Y1.9094
X2.6575Y1.8858
X1.25Y0.878
X1.25Y0.8543
X1.25Y0.8307
X1.25Y0.8071
X1.3287Y0.878
X1.3287Y0.8543
X1.3287Y0.8307
X1.3287Y0.8071
T0
M30
