M48
INCH
T1C0.0079
T2C0.0118
T3C0.0138
T4C0.0157
T5C0.0295
%
G90
G05
T1
X3.4941Y1.9438
X3.4941Y1.9054
X3.4941Y1.867
X3.5325Y1.9438
X3.5325Y1.9054
X3.5325Y1.867
X3.5709Y1.9438
X3.5709Y1.9054
X3.5709Y1.867
X0.8366Y3.0226
X0.8366Y2.9842
X0.8366Y2.9458
X0.875Y3.0226
X0.875Y2.9842
X0.875Y2.9458
X0.9134Y3.0226
X0.9134Y2.9842
X0.9134Y2.9458
X2.1654Y3.0226
X2.1654Y2.9842
X2.1654Y2.9458
X2.2037Y3.0226
X2.2037Y2.9842
X2.2037Y2.9458
X2.2421Y3.0226
X2.2421Y2.9842
X2.2421Y2.9458
X3.4941Y0.8651
X3.4941Y0.8267
X3.4941Y0.7883
X3.5325Y0.8651
X3.5325Y0.8267
X3.5325Y0.7883
X3.5709Y0.8651
X3.5709Y0.8267
X3.5709Y0.7883
X0.8366Y0.8651
X0.8366Y0.8267
X0.8366Y0.7883
X0.875Y0.8651
X0.875Y0.8267
X0.875Y0.7883
X0.9134Y0.8651
X0.9134Y0.8267
X0.9134Y0.7883
X2.1654Y0.8651
X2.1654Y0.8267
X2.1654Y0.7883
X2.2037Y0.8651
X2.2037Y0.8267
X2.2037Y0.7883
X2.2421Y0.8651
X2.2421Y0.8267
X2.2421Y0.7883
X0.8366Y1.9438
X0.8366Y1.9054
X0.8366Y1.867
X0.875Y1.9438
X0.875Y1.9054
X0.875Y1.867
X0.9134Y1.9438
X0.9134Y1.9054
X0.9134Y1.867
X3.4941Y3.0226
X3.4941Y2.9842
X3.4941Y2.9458
X3.5325Y3.0226
X3.5325Y2.9842
X3.5325Y2.9458
X3.5709Y3.0226
X3.5709Y2.9842
X3.5709Y2.9458
X2.1654Y1.9438
X2.1654Y1.9054
X2.1654Y1.867
X2.2037Y1.9438
X2.2037Y1.9054
X2.2037Y1.867
X2.2421Y1.9438
X2.2421Y1.9054
X2.2421Y1.867
T2
X0.6755Y2.7205
X0.6755Y2.6929
X0.6755Y2.622
X0.6755Y2.5945
X0.7621Y2.7205
X0.7621Y2.6575
X0.7621Y2.5945
X2.0042Y0.563
X2.0042Y0.5354
X2.0042Y0.4646
X2.0042Y0.437
X2.0908Y0.563
X2.0908Y0.5
X2.0908Y0.437
X0.6755Y1.6417
X0.6755Y1.6142
X0.6755Y1.5433
X0.6755Y1.5157
X0.7621Y1.6417
X0.7621Y1.5787
X0.7621Y1.5157
X3.333Y0.563
X3.333Y0.5354
X3.333Y0.4646
X3.333Y0.437
X3.4196Y0.563
X3.4196Y0.5
X3.4196Y0.437
X3.333Y2.7205
X3.333Y2.6929
X3.333Y2.622
X3.333Y2.5945
X3.4196Y2.7205
X3.4196Y2.6575
X3.4196Y2.5945
X2.0042Y2.7205
X2.0042Y2.6929
X2.0042Y2.622
X2.0042Y2.5945
X2.0908Y2.7205
X2.0908Y2.6575
X2.0908Y2.5945
X0.6755Y0.563
X0.6755Y0.5354
X0.6755Y0.4646
X0.6755Y0.437
X0.7621Y0.563
X0.7621Y0.5
X0.7621Y0.437
X2.0042Y1.6417
X2.0042Y1.6142
X2.0042Y1.5433
X2.0042Y1.5157
X2.0908Y1.6417
X2.0908Y1.5787
X2.0908Y1.5157
X3.333Y1.6417
X3.333Y1.6142
X3.333Y1.5433
X3.333Y1.5157
X3.4196Y1.6417
X3.4196Y1.5787
X3.4196Y1.5157
T3
X0.2712Y2.8298
X0.2712Y2.4852
X0.2712Y1.7511
X0.2712Y1.4064
X0.2712Y0.6723
X0.2712Y0.3277
X0.2787Y2.3498
X0.2787Y1.2711
X0.2787Y0.1923
X0.281Y2.2452
X0.281Y1.1664
X0.281Y0.0877
X0.2846Y2.7247
X0.2846Y1.6459
X0.2846Y0.5672
X0.2846Y2.5903
X0.2846Y1.5116
X0.2846Y0.4328
X0.3484Y2.8262
X0.3484Y2.4888
X0.3484Y1.7475
X0.3484Y1.41
X0.3484Y0.6687
X0.3484Y0.3313
X0.3559Y2.3498
X0.3559Y1.2711
X0.3559Y0.1923
X0.3583Y2.2452
X0.3583Y1.1664
X0.3583Y0.0877
X0.3635Y2.6003
X0.3635Y1.5216
X0.3635Y0.4428
X0.3638Y2.7146
X0.3638Y1.6358
X0.3638Y0.5571
X0.429Y2.5088
X0.429Y1.4301
X0.429Y0.3514
X0.4297Y2.8059
X0.4297Y1.7272
X0.4297Y0.6484
X0.4332Y2.3498
X0.4332Y1.2711
X0.4332Y0.1923
X0.4355Y2.2452
X0.4355Y1.1664
X0.4355Y0.0877
X0.4441Y2.6204
X0.4441Y1.5417
X0.4441Y0.4629
X0.4451Y2.6943
X0.4451Y1.6155
X0.4451Y0.5368
X0.4475Y3.12
X0.4475Y2.0412
X0.4475Y0.9625
X0.4725Y3.12
X0.4725Y2.0412
X0.4725Y0.9625
X0.5097Y2.529
X0.5097Y1.4502
X0.5097Y0.3715
X0.5104Y2.3498
X0.5104Y1.2711
X0.5104Y0.1923
X0.511Y2.7859
X0.511Y2.6829
X0.511Y2.6319
X0.511Y1.7072
X0.511Y1.6042
X0.511Y1.5532
X0.511Y0.6284
X0.511Y0.5254
X0.511Y0.4744
X0.5128Y2.2452
X0.5128Y1.1664
X0.5128Y0.0877
X0.5869Y2.529
X0.5869Y1.4502
X0.5869Y0.3715
X0.5878Y2.3495
X0.5878Y1.2708
X0.5878Y0.1921
X0.5883Y2.7859
X0.5883Y1.7072
X0.5883Y0.6284
X0.59Y2.2454
X0.59Y1.1666
X0.59Y0.0879
X0.5911Y2.6706
X0.5911Y2.6426
X0.5911Y1.5919
X0.5911Y1.5639
X0.5911Y0.5132
X0.5911Y0.4852
X0.6087Y2.3819
X0.6087Y1.3032
X0.6087Y0.2244
X0.63Y3.015
X0.63Y1.9362
X0.63Y0.8575
X0.635Y2.9
X0.635Y1.8212
X0.635Y0.7425
X0.6399Y2.7785
X0.6399Y1.6998
X0.6399Y0.6211
X0.64Y2.5354
X0.64Y1.4567
X0.64Y0.378
X0.6674Y2.2456
X0.6674Y1.1669
X0.6674Y0.0881
X0.6838Y2.8275
X0.6838Y2.5039
X0.6838Y1.7487
X0.6838Y1.4252
X0.6838Y0.67
X0.6838Y0.3465
X0.6859Y2.3819
X0.6859Y1.3032
X0.6859Y0.2244
X0.7144Y2.8275
X0.7144Y2.5039
X0.7144Y1.7487
X0.7144Y1.4252
X0.7144Y0.67
X0.7144Y0.3465
X0.7401Y2.8475
X0.7401Y1.7687
X0.7401Y0.69
X0.7438Y2.4898
X0.7438Y1.411
X0.7438Y0.3323
X0.7446Y2.2456
X0.7446Y1.1669
X0.7446Y0.0881
X0.7536Y2.9602
X0.7536Y1.8814
X0.7536Y0.8027
X0.756Y3.0192
X0.756Y2.9905
X0.756Y1.9404
X0.756Y1.9118
X0.756Y0.8617
X0.756Y0.8331
X0.7631Y2.3819
X0.7631Y1.3032
X0.7631Y0.2244
X0.7707Y2.8475
X0.7707Y1.7687
X0.7707Y0.69
X0.7744Y2.4898
X0.7744Y1.411
X0.7744Y0.3323
X0.7782Y3.0762
X0.7782Y1.9974
X0.7782Y0.9187
X0.782Y2.8125
X0.782Y1.7337
X0.782Y0.655
X0.8Y2.4585
X0.8Y1.3797
X0.8Y0.301
X0.8219Y2.2456
X0.8219Y1.1669
X0.8219Y0.0881
X0.8404Y2.3819
X0.8404Y1.3032
X0.8404Y0.2244
X0.8495Y2.5382
X0.8495Y1.4594
X0.8495Y0.3807
X0.8581Y2.3502
X0.8581Y1.2715
X0.8581Y0.1927
X0.862Y3.1125
X0.862Y2.0337
X0.862Y0.955
X0.8625Y2.79
X0.8625Y1.7112
X0.8625Y0.6325
X0.8692Y2.515
X0.8692Y1.4362
X0.8692Y0.3575
X0.9009Y2.3578
X0.9009Y1.279
X0.9009Y0.2003
X0.9011Y2.2504
X0.9011Y1.1716
X0.9011Y0.0929
X0.9306Y2.7682
X0.9306Y2.5861
X0.9306Y1.6894
X0.9306Y1.5074
X0.9306Y0.6107
X0.9306Y0.4287
X0.9732Y2.3957
X0.9732Y1.317
X0.9732Y0.2382
X0.9742Y2.9207
X0.9742Y2.8962
X0.9742Y1.8419
X0.9742Y1.8174
X0.9742Y0.7632
X0.9742Y0.7387
X0.9787Y2.2761
X0.9787Y1.1973
X0.9787Y0.1186
X0.9962Y3.0462
X0.9962Y1.9674
X0.9962Y0.8887
X1.0078Y2.7682
X1.0078Y2.5861
X1.0078Y1.6894
X1.0078Y1.5074
X1.0078Y0.6107
X1.0078Y0.4287
X1.0243Y2.4595
X1.0243Y1.3808
X1.0243Y0.302
X1.032Y2.8298
X1.032Y1.7511
X1.032Y0.6723
X1.0458Y2.5383
X1.0458Y1.4595
X1.0458Y0.3808
X1.0468Y2.3212
X1.0468Y1.2425
X1.0468Y0.1638
X1.0542Y2.9342
X1.0542Y1.8554
X1.0542Y0.7767
X1.0782Y3.0802
X1.0782Y2.0014
X1.0782Y0.9227
X1.0851Y2.7682
X1.0851Y1.6894
X1.0851Y0.6107
X1.1007Y2.3828
X1.1007Y1.304
X1.1007Y0.2253
X1.1025Y2.8475
X1.1025Y1.7687
X1.1025Y0.69
X1.1175Y2.2175
X1.1175Y2.1925
X1.1175Y1.1387
X1.1175Y1.1137
X1.1175Y0.06
X1.1175Y0.035
X1.136Y2.7785
X1.136Y1.6997
X1.136Y0.621
X1.136Y2.4566
X1.136Y1.3778
X1.136Y0.2991
X1.14Y2.2975
X1.14Y1.2187
X1.14Y0.14
X1.1504Y2.537
X1.1504Y1.4583
X1.1504Y0.3795
X1.1511Y2.6987
X1.1511Y2.619
X1.1511Y1.6199
X1.1511Y1.5403
X1.1511Y0.5412
X1.1511Y0.4616
X1.165Y2.2975
X1.165Y1.2187
X1.165Y0.14
X1.1975Y2.2825
X1.1975Y1.2037
X1.1975Y0.125
X1.2042Y2.9702
X1.2042Y1.8914
X1.2042Y0.8127
X1.21Y2.8865
X1.21Y2.8625
X1.21Y1.8077
X1.21Y1.7837
X1.21Y0.729
X1.21Y0.705
X1.2225Y2.2825
X1.2225Y1.2037
X1.2225Y0.125
X1.5999Y2.8298
X1.5999Y2.4852
X1.5999Y1.7511
X1.5999Y1.4064
X1.5999Y0.6723
X1.5999Y0.3277
X1.6074Y2.3498
X1.6074Y1.2711
X1.6074Y0.1923
X1.6098Y2.2452
X1.6098Y1.1664
X1.6098Y0.0877
X1.6133Y2.7247
X1.6133Y1.6459
X1.6133Y0.5672
X1.6133Y2.5903
X1.6133Y1.5116
X1.6133Y0.4328
X1.6771Y2.8262
X1.6771Y2.4888
X1.6771Y1.7475
X1.6771Y1.41
X1.6771Y0.6687
X1.6771Y0.3313
X1.6847Y2.3498
X1.6847Y1.2711
X1.6847Y0.1923
X1.687Y2.2452
X1.687Y1.1664
X1.687Y0.0877
X1.6922Y2.6003
X1.6922Y1.5216
X1.6922Y0.4428
X1.6926Y2.7146
X1.6926Y1.6358
X1.6926Y0.5571
X1.7578Y2.5088
X1.7578Y1.4301
X1.7578Y0.3514
X1.7585Y2.8059
X1.7585Y1.7272
X1.7585Y0.6484
X1.7619Y2.3498
X1.7619Y1.2711
X1.7619Y0.1923
X1.7643Y2.2452
X1.7643Y1.1664
X1.7643Y0.0877
X1.7728Y2.6204
X1.7728Y1.5417
X1.7728Y0.4629
X1.7738Y2.6943
X1.7738Y1.6155
X1.7738Y0.5368
X1.7762Y3.12
X1.7762Y2.0412
X1.7762Y0.9625
X1.8012Y3.12
X1.8012Y2.0412
X1.8012Y0.9625
X1.8384Y2.529
X1.8384Y1.4502
X1.8384Y0.3715
X1.8391Y2.3498
X1.8391Y1.2711
X1.8391Y0.1923
X1.8398Y2.7859
X1.8398Y2.6829
X1.8398Y2.6319
X1.8398Y1.7072
X1.8398Y1.6042
X1.8398Y1.5532
X1.8398Y0.6284
X1.8398Y0.5254
X1.8398Y0.4744
X1.8415Y2.2452
X1.8415Y1.1664
X1.8415Y0.0877
X1.9157Y2.529
X1.9157Y1.4502
X1.9157Y0.3715
X1.9165Y2.3495
X1.9165Y1.2708
X1.9165Y0.1921
X1.917Y2.7859
X1.917Y1.7072
X1.917Y0.6284
X1.9187Y2.2454
X1.9187Y1.1666
X1.9187Y0.0879
X1.9198Y2.6706
X1.9198Y2.6426
X1.9198Y1.5919
X1.9198Y1.5639
X1.9198Y0.5132
X1.9198Y0.4852
X1.9374Y2.3819
X1.9374Y1.3032
X1.9374Y0.2244
X1.9587Y3.015
X1.9587Y1.9362
X1.9587Y0.8575
X1.9637Y2.9
X1.9637Y1.8212
X1.9637Y0.7425
X1.9687Y2.7785
X1.9687Y1.6998
X1.9687Y0.6211
X1.9688Y2.5354
X1.9688Y1.4567
X1.9688Y0.378
X1.9961Y2.2456
X1.9961Y1.1669
X1.9961Y0.0881
X2.0125Y2.8275
X2.0125Y2.5039
X2.0125Y1.7487
X2.0125Y1.4252
X2.0125Y0.67
X2.0125Y0.3465
X2.0146Y2.3819
X2.0146Y1.3032
X2.0146Y0.2244
X2.0431Y2.8275
X2.0431Y2.5039
X2.0431Y1.7487
X2.0431Y1.4252
X2.0431Y0.67
X2.0431Y0.3465
X2.0688Y2.8475
X2.0688Y1.7687
X2.0688Y0.69
X2.0726Y2.4898
X2.0726Y1.411
X2.0726Y0.3323
X2.0734Y2.2456
X2.0734Y1.1669
X2.0734Y0.0881
X2.0823Y2.9602
X2.0823Y1.8814
X2.0823Y0.8027
X2.0847Y3.0192
X2.0847Y2.9905
X2.0847Y1.9404
X2.0847Y1.9118
X2.0847Y0.8617
X2.0847Y0.8331
X2.0919Y2.3819
X2.0919Y1.3032
X2.0919Y0.2244
X2.0995Y2.8475
X2.0995Y1.7687
X2.0995Y0.69
X2.1032Y2.4898
X2.1032Y1.411
X2.1032Y0.3323
X2.1069Y3.0762
X2.1069Y1.9974
X2.1069Y0.9187
X2.1107Y2.8125
X2.1107Y1.7337
X2.1107Y0.655
X2.1287Y2.4585
X2.1287Y1.3797
X2.1287Y0.301
X2.1506Y2.2456
X2.1506Y1.1669
X2.1506Y0.0881
X2.1691Y2.3819
X2.1691Y1.3032
X2.1691Y0.2244
X2.1782Y2.5382
X2.1782Y1.4594
X2.1782Y0.3807
X2.1868Y2.3502
X2.1868Y1.2715
X2.1868Y0.1927
X2.1907Y3.1125
X2.1907Y2.0337
X2.1907Y0.955
X2.1912Y2.79
X2.1912Y1.7112
X2.1912Y0.6325
X2.1979Y2.515
X2.1979Y1.4362
X2.1979Y0.3575
X2.2296Y2.3578
X2.2296Y1.279
X2.2296Y0.2003
X2.2298Y2.2504
X2.2298Y1.1716
X2.2298Y0.0929
X2.2593Y2.7682
X2.2593Y2.5861
X2.2593Y1.6894
X2.2593Y1.5074
X2.2593Y0.6107
X2.2593Y0.4287
X2.302Y2.3957
X2.302Y1.317
X2.302Y0.2382
X2.3029Y2.9207
X2.3029Y2.8962
X2.3029Y1.8419
X2.3029Y1.8174
X2.3029Y0.7632
X2.3029Y0.7387
X2.3075Y2.2761
X2.3075Y1.1973
X2.3075Y0.1186
X2.3249Y3.0462
X2.3249Y1.9674
X2.3249Y0.8887
X2.3366Y2.7682
X2.3366Y2.5861
X2.3366Y1.6894
X2.3366Y1.5074
X2.3366Y0.6107
X2.3366Y0.4287
X2.353Y2.4595
X2.353Y1.3808
X2.353Y0.302
X2.3607Y2.8298
X2.3607Y1.7511
X2.3607Y0.6723
X2.3745Y2.5383
X2.3745Y1.4595
X2.3745Y0.3808
X2.3756Y2.3212
X2.3756Y1.2425
X2.3756Y0.1638
X2.3829Y2.9342
X2.3829Y1.8554
X2.3829Y0.7767
X2.4069Y3.0802
X2.4069Y2.0014
X2.4069Y0.9227
X2.4138Y2.7682
X2.4138Y1.6894
X2.4138Y0.6107
X2.4295Y2.3828
X2.4295Y1.304
X2.4295Y0.2253
X2.4312Y2.8475
X2.4312Y1.7687
X2.4312Y0.69
X2.4462Y2.2175
X2.4462Y2.1925
X2.4462Y1.1387
X2.4462Y1.1137
X2.4462Y0.06
X2.4462Y0.035
X2.4647Y2.7785
X2.4647Y1.6997
X2.4647Y0.621
X2.4647Y2.4566
X2.4647Y1.3778
X2.4647Y0.2991
X2.4687Y2.2975
X2.4687Y1.2187
X2.4687Y0.14
X2.4792Y2.537
X2.4792Y1.4583
X2.4792Y0.3795
X2.4798Y2.6987
X2.4798Y2.619
X2.4798Y1.6199
X2.4798Y1.5403
X2.4798Y0.5412
X2.4798Y0.4616
X2.4937Y2.2975
X2.4937Y1.2187
X2.4937Y0.14
X2.5262Y2.2825
X2.5262Y1.2037
X2.5262Y0.125
X2.5329Y2.9702
X2.5329Y1.8914
X2.5329Y0.8127
X2.5387Y2.8865
X2.5387Y2.8625
X2.5387Y1.8077
X2.5387Y1.7837
X2.5387Y0.729
X2.5387Y0.705
X2.5512Y2.2825
X2.5512Y1.2037
X2.5512Y0.125
X2.9286Y2.8298
X2.9286Y2.4852
X2.9286Y1.7511
X2.9286Y1.4064
X2.9286Y0.6723
X2.9286Y0.3277
X2.9361Y2.3498
X2.9361Y1.2711
X2.9361Y0.1923
X2.9385Y2.2452
X2.9385Y1.1664
X2.9385Y0.0877
X2.9421Y2.7247
X2.9421Y1.6459
X2.9421Y0.5672
X2.9421Y2.5903
X2.9421Y1.5116
X2.9421Y0.4328
X3.0059Y2.8262
X3.0059Y2.4888
X3.0059Y1.7475
X3.0059Y1.41
X3.0059Y0.6687
X3.0059Y0.3313
X3.0134Y2.3498
X3.0134Y1.2711
X3.0134Y0.1923
X3.0158Y2.2452
X3.0158Y1.1664
X3.0158Y0.0877
X3.021Y2.6003
X3.021Y1.5216
X3.021Y0.4428
X3.0213Y2.7146
X3.0213Y1.6358
X3.0213Y0.5571
X3.0865Y2.5088
X3.0865Y1.4301
X3.0865Y0.3514
X3.0872Y2.8059
X3.0872Y1.7272
X3.0872Y0.6484
X3.0906Y2.3498
X3.0906Y1.2711
X3.0906Y0.1923
X3.093Y2.2452
X3.093Y1.1664
X3.093Y0.0877
X3.1016Y2.6204
X3.1016Y1.5417
X3.1016Y0.4629
X3.1025Y2.6943
X3.1025Y1.6155
X3.1025Y0.5368
X3.105Y3.12
X3.105Y2.0412
X3.105Y0.9625
X3.13Y3.12
X3.13Y2.0412
X3.13Y0.9625
X3.1672Y2.529
X3.1672Y1.4502
X3.1672Y0.3715
X3.1679Y2.3498
X3.1679Y1.2711
X3.1679Y0.1923
X3.1685Y2.7859
X3.1685Y2.6829
X3.1685Y2.6319
X3.1685Y1.7072
X3.1685Y1.6042
X3.1685Y1.5532
X3.1685Y0.6284
X3.1685Y0.5254
X3.1685Y0.4744
X3.1703Y2.2452
X3.1703Y1.1664
X3.1703Y0.0877
X3.2444Y2.529
X3.2444Y1.4502
X3.2444Y0.3715
X3.2452Y2.3495
X3.2452Y1.2708
X3.2452Y0.1921
X3.2458Y2.7859
X3.2458Y1.7072
X3.2458Y0.6284
X3.2475Y2.2454
X3.2475Y1.1666
X3.2475Y0.0879
X3.2486Y2.6706
X3.2486Y2.6426
X3.2486Y1.5919
X3.2486Y1.5639
X3.2486Y0.5132
X3.2486Y0.4852
X3.2661Y2.3819
X3.2661Y1.3032
X3.2661Y0.2244
X3.2875Y3.015
X3.2875Y1.9362
X3.2875Y0.8575
X3.2925Y2.9
X3.2925Y1.8212
X3.2925Y0.7425
X3.2974Y2.7785
X3.2974Y1.6998
X3.2974Y0.6211
X3.2975Y2.5354
X3.2975Y1.4567
X3.2975Y0.378
X3.3249Y2.2456
X3.3249Y1.1669
X3.3249Y0.0881
X3.3413Y2.8275
X3.3413Y2.5039
X3.3413Y1.7487
X3.3413Y1.4252
X3.3413Y0.67
X3.3413Y0.3465
X3.3434Y2.3819
X3.3434Y1.3032
X3.3434Y0.2244
X3.3719Y2.8275
X3.3719Y2.5039
X3.3719Y1.7487
X3.3719Y1.4252
X3.3719Y0.67
X3.3719Y0.3465
X3.3976Y2.8475
X3.3976Y1.7687
X3.3976Y0.69
X3.4013Y2.4898
X3.4013Y1.411
X3.4013Y0.3323
X3.4021Y2.2456
X3.4021Y1.1669
X3.4021Y0.0881
X3.4111Y2.9602
X3.4111Y1.8814
X3.4111Y0.8027
X3.4135Y3.0192
X3.4135Y2.9905
X3.4135Y1.9404
X3.4135Y1.9118
X3.4135Y0.8617
X3.4135Y0.8331
X3.4206Y2.3819
X3.4206Y1.3032
X3.4206Y0.2244
X3.4282Y2.8475
X3.4282Y1.7687
X3.4282Y0.69
X3.4319Y2.4898
X3.4319Y1.411
X3.4319Y0.3323
X3.4356Y3.0762
X3.4356Y1.9974
X3.4356Y0.9187
X3.4395Y2.8125
X3.4395Y1.7337
X3.4395Y0.655
X3.4575Y2.4585
X3.4575Y1.3797
X3.4575Y0.301
X3.4793Y2.2456
X3.4793Y1.1669
X3.4793Y0.0881
X3.4979Y2.3819
X3.4979Y1.3032
X3.4979Y0.2244
X3.507Y2.5382
X3.507Y1.4594
X3.507Y0.3807
X3.5156Y2.3502
X3.5156Y1.2715
X3.5156Y0.1927
X3.5195Y3.1125
X3.5195Y2.0337
X3.5195Y0.955
X3.52Y2.79
X3.52Y1.7112
X3.52Y0.6325
X3.5267Y2.515
X3.5267Y1.4362
X3.5267Y0.3575
X3.5584Y2.3578
X3.5584Y1.279
X3.5584Y0.2003
X3.5586Y2.2504
X3.5586Y1.1716
X3.5586Y0.0929
X3.588Y2.7682
X3.588Y2.5861
X3.588Y1.6894
X3.588Y1.5074
X3.588Y0.6107
X3.588Y0.4287
X3.6307Y2.3957
X3.6307Y1.317
X3.6307Y0.2382
X3.6316Y2.9207
X3.6316Y2.8962
X3.6316Y1.8419
X3.6316Y1.8174
X3.6316Y0.7632
X3.6316Y0.7387
X3.6362Y2.2761
X3.6362Y1.1973
X3.6362Y0.1186
X3.6536Y3.0462
X3.6536Y1.9674
X3.6536Y0.8887
X3.6653Y2.7682
X3.6653Y2.5861
X3.6653Y1.6894
X3.6653Y1.5074
X3.6653Y0.6107
X3.6653Y0.4287
X3.6818Y2.4595
X3.6818Y1.3808
X3.6818Y0.302
X3.6895Y2.8298
X3.6895Y1.7511
X3.6895Y0.6723
X3.7032Y2.5383
X3.7032Y1.4595
X3.7032Y0.3808
X3.7043Y2.3212
X3.7043Y1.2425
X3.7043Y0.1638
X3.7116Y2.9342
X3.7116Y1.8554
X3.7116Y0.7767
X3.7356Y3.0802
X3.7356Y2.0014
X3.7356Y0.9227
X3.7425Y2.7682
X3.7425Y1.6894
X3.7425Y0.6107
X3.7582Y2.3828
X3.7582Y1.304
X3.7582Y0.2253
X3.76Y2.8475
X3.76Y1.7687
X3.76Y0.69
X3.775Y2.2175
X3.775Y2.1925
X3.775Y1.1387
X3.775Y1.1137
X3.775Y0.06
X3.775Y0.035
X3.7935Y2.7785
X3.7935Y1.6997
X3.7935Y0.621
X3.7935Y2.4566
X3.7935Y1.3778
X3.7935Y0.2991
X3.7975Y2.2975
X3.7975Y1.2187
X3.7975Y0.14
X3.8079Y2.537
X3.8079Y1.4583
X3.8079Y0.3795
X3.8085Y2.6987
X3.8085Y2.619
X3.8085Y1.6199
X3.8085Y1.5403
X3.8085Y0.5412
X3.8085Y0.4616
X3.8225Y2.2975
X3.8225Y1.2187
X3.8225Y0.14
X3.855Y2.2825
X3.855Y1.2037
X3.855Y0.125
X3.8616Y2.9702
X3.8616Y1.8914
X3.8616Y0.8127
X3.8675Y2.8865
X3.8675Y2.8625
X3.8675Y1.8077
X3.8675Y1.7837
X3.8675Y0.729
X3.8675Y0.705
X3.88Y2.2825
X3.88Y1.2037
X3.88Y0.125
T4
X1.3786Y0.4233
X1.3786Y0.3367
X1.425Y0.2898
X1.4262Y0.4706
X1.5117Y0.4706
X1.5136Y0.2898
X1.5597Y0.4312
X1.5597Y0.3288
X2.7073Y0.1833
X2.7073Y0.0967
X2.7538Y0.0498
X2.755Y0.2306
X2.8404Y0.2306
X2.8424Y0.0498
X2.8884Y0.1912
X2.8884Y0.0888
X1.3786Y2.5808
X1.3786Y2.4942
X1.425Y2.4473
X1.4262Y2.628
X1.5117Y2.628
X1.5136Y2.4473
X1.5597Y2.5887
X1.5597Y2.4863
X0.0498Y1.502
X0.0498Y1.4154
X0.0963Y1.3686
X0.0975Y1.5493
X0.1829Y1.5493
X0.1849Y1.3686
X0.231Y1.5099
X0.231Y1.4076
X1.3786Y1.502
X1.3786Y1.4154
X1.425Y1.3686
X1.4262Y1.5493
X1.5117Y1.5493
X1.5136Y1.3686
X1.5597Y1.5099
X1.5597Y1.4076
X0.0498Y0.6633
X0.0498Y0.5767
X0.0963Y0.5298
X0.0975Y0.7106
X0.1829Y0.7106
X0.1849Y0.5298
X0.231Y0.6712
X0.231Y0.5688
X0.0498Y2.5808
X0.0498Y2.4942
X0.0963Y2.4473
X0.0975Y2.628
X0.1829Y2.628
X0.1849Y2.4473
X0.231Y2.5887
X0.231Y2.4863
X0.0498Y2.3408
X0.0498Y2.2542
X0.0963Y2.2073
X0.0975Y2.388
X0.1829Y2.388
X0.1849Y2.2073
X0.231Y2.3487
X0.231Y2.2463
X0.0498Y0.1833
X0.0498Y0.0967
X0.0963Y0.0498
X0.0975Y0.2306
X0.1829Y0.2306
X0.1849Y0.0498
X0.231Y0.1912
X0.231Y0.0888
X2.7073Y2.5808
X2.7073Y2.4942
X2.7538Y2.4473
X2.755Y2.628
X2.8404Y2.628
X2.8424Y2.4473
X2.8884Y2.5887
X2.8884Y2.4863
X2.7073Y1.742
X2.7073Y1.6554
X2.7538Y1.6086
X2.755Y1.7893
X2.8404Y1.7893
X2.8424Y1.6086
X2.8884Y1.7499
X2.8884Y1.6476
X1.3786Y1.742
X1.3786Y1.6554
X1.425Y1.6086
X1.4262Y1.7893
X1.5117Y1.7893
X1.5136Y1.6086
X1.5597Y1.7499
X1.5597Y1.6476
X1.3786Y2.8208
X1.3786Y2.7342
X1.425Y2.6873
X1.4262Y2.868
X1.5117Y2.868
X1.5136Y2.6873
X1.5597Y2.8287
X1.5597Y2.7263
X0.0498Y2.8208
X0.0498Y2.7342
X0.0963Y2.6873
X0.0975Y2.868
X0.1829Y2.868
X0.1849Y2.6873
X0.231Y2.8287
X0.231Y2.7263
X2.7073Y1.262
X2.7073Y1.1754
X2.7538Y1.1286
X2.755Y1.3093
X2.8404Y1.3093
X2.8424Y1.1286
X2.8884Y1.2699
X2.8884Y1.1676
X2.7073Y0.6633
X2.7073Y0.5767
X2.7538Y0.5298
X2.755Y0.7106
X2.8404Y0.7106
X2.8424Y0.5298
X2.8884Y0.6712
X2.8884Y0.5688
X2.7073Y0.4233
X2.7073Y0.3367
X2.7538Y0.2898
X2.755Y0.4706
X2.8404Y0.4706
X2.8424Y0.2898
X2.8884Y0.4312
X2.8884Y0.3288
X0.0498Y0.4233
X0.0498Y0.3367
X0.0963Y0.2898
X0.0975Y0.4706
X0.1829Y0.4706
X0.1849Y0.2898
X0.231Y0.4312
X0.231Y0.3288
X1.3786Y1.262
X1.3786Y1.1754
X1.425Y1.1286
X1.4262Y1.3093
X1.5117Y1.3093
X1.5136Y1.1286
X1.5597Y1.2699
X1.5597Y1.1676
X1.3786Y0.6633
X1.3786Y0.5767
X1.425Y0.5298
X1.4262Y0.7106
X1.5117Y0.7106
X1.5136Y0.5298
X1.5597Y0.6712
X1.5597Y0.5688
X2.7073Y2.3408
X2.7073Y2.2542
X2.7538Y2.2073
X2.755Y2.388
X2.8404Y2.388
X2.8424Y2.2073
X2.8884Y2.3487
X2.8884Y2.2463
X0.0498Y1.262
X0.0498Y1.1754
X0.0963Y1.1286
X0.0975Y1.3093
X0.1829Y1.3093
X0.1849Y1.1286
X0.231Y1.2699
X0.231Y1.1676
X1.3786Y0.1833
X1.3786Y0.0967
X1.425Y0.0498
X1.4262Y0.2306
X1.5117Y0.2306
X1.5136Y0.0498
X1.5597Y0.1912
X1.5597Y0.0888
X2.7073Y1.502
X2.7073Y1.4154
X2.7538Y1.3686
X2.755Y1.5493
X2.8404Y1.5493
X2.8424Y1.3686
X2.8884Y1.5099
X2.8884Y1.4076
X0.0498Y1.742
X0.0498Y1.6554
X0.0963Y1.6086
X0.0975Y1.7893
X0.1829Y1.7893
X0.1849Y1.6086
X0.231Y1.7499
X0.231Y1.6476
X2.7073Y2.8208
X2.7073Y2.7342
X2.7538Y2.6873
X2.755Y2.868
X2.8404Y2.868
X2.8424Y2.6873
X2.8884Y2.8287
X2.8884Y2.7263
X1.3786Y2.3408
X1.3786Y2.2542
X1.425Y2.2073
X1.4262Y2.388
X1.5117Y2.388
X1.5136Y2.2073
X1.5597Y2.3487
X1.5597Y2.2463
T5
X1.7887Y3.1575
X1.7887Y2.1575
X1.8387Y3.1575
X1.8387Y2.1575
X1.8887Y3.1575
X1.8887Y2.1575
X1.9387Y3.1575
X1.9387Y2.1575
X1.9887Y3.1575
X1.9887Y2.1575
X2.0387Y3.1575
X2.0387Y2.1575
X2.0887Y3.1575
X2.0887Y2.1575
X2.1387Y3.1575
X2.1387Y2.1575
X2.1887Y3.1575
X2.1887Y2.1575
X2.2387Y3.1575
X2.2387Y2.1575
X2.2887Y3.1575
X2.2887Y2.1575
X2.3387Y3.1575
X2.3387Y2.1575
X2.3887Y3.1575
X2.3887Y2.1575
X2.4387Y3.1575
X2.4387Y2.1575
X2.4887Y3.1575
X2.4887Y2.1575
X2.5387Y3.1575
X2.5387Y2.1575
X3.1175Y3.1575
X3.1175Y2.1575
X3.1675Y3.1575
X3.1675Y2.1575
X3.2175Y3.1575
X3.2175Y2.1575
X3.2675Y3.1575
X3.2675Y2.1575
X3.3175Y3.1575
X3.3175Y2.1575
X3.3675Y3.1575
X3.3675Y2.1575
X3.4175Y3.1575
X3.4175Y2.1575
X3.4675Y3.1575
X3.4675Y2.1575
X3.5175Y3.1575
X3.5175Y2.1575
X3.5675Y3.1575
X3.5675Y2.1575
X3.6175Y3.1575
X3.6175Y2.1575
X3.6675Y3.1575
X3.6675Y2.1575
X3.7175Y3.1575
X3.7175Y2.1575
X3.7675Y3.1575
X3.7675Y2.1575
X3.8175Y3.1575
X3.8175Y2.1575
X3.8675Y3.1575
X3.8675Y2.1575
X0.46Y2.0787
X0.46Y1.0787
X0.51Y2.0787
X0.51Y1.0787
X0.56Y2.0787
X0.56Y1.0787
X0.61Y2.0787
X0.61Y1.0787
X0.66Y2.0787
X0.66Y1.0787
X0.71Y2.0787
X0.71Y1.0787
X0.76Y2.0787
X0.76Y1.0787
X0.81Y2.0787
X0.81Y1.0787
X0.86Y2.0787
X0.86Y1.0787
X0.91Y2.0787
X0.91Y1.0787
X0.96Y2.0787
X0.96Y1.0787
X1.01Y2.0787
X1.01Y1.0787
X1.06Y2.0787
X1.06Y1.0787
X1.11Y2.0787
X1.11Y1.0787
X1.16Y2.0787
X1.16Y1.0787
X1.21Y2.0787
X1.21Y1.0787
X1.7887Y1.0
X1.7887Y0.0
X1.8387Y1.0
X1.8387Y0.0
X1.8887Y1.0
X1.8887Y0.0
X1.9387Y1.0
X1.9387Y0.0
X1.9887Y1.0
X1.9887Y0.0
X2.0387Y1.0
X2.0387Y0.0
X2.0887Y1.0
X2.0887Y0.0
X2.1387Y1.0
X2.1387Y0.0
X2.1887Y1.0
X2.1887Y0.0
X2.2387Y1.0
X2.2387Y0.0
X2.2887Y1.0
X2.2887Y0.0
X2.3387Y1.0
X2.3387Y0.0
X2.3887Y1.0
X2.3887Y0.0
X2.4387Y1.0
X2.4387Y0.0
X2.4887Y1.0
X2.4887Y0.0
X2.5387Y1.0
X2.5387Y0.0
X1.7887Y2.0787
X1.7887Y1.0787
X1.8387Y2.0787
X1.8387Y1.0787
X1.8887Y2.0787
X1.8887Y1.0787
X1.9387Y2.0787
X1.9387Y1.0787
X1.9887Y2.0787
X1.9887Y1.0787
X2.0387Y2.0787
X2.0387Y1.0787
X2.0887Y2.0787
X2.0887Y1.0787
X2.1387Y2.0787
X2.1387Y1.0787
X2.1887Y2.0787
X2.1887Y1.0787
X2.2387Y2.0787
X2.2387Y1.0787
X2.2887Y2.0787
X2.2887Y1.0787
X2.3387Y2.0787
X2.3387Y1.0787
X2.3887Y2.0787
X2.3887Y1.0787
X2.4387Y2.0787
X2.4387Y1.0787
X2.4887Y2.0787
X2.4887Y1.0787
X2.5387Y2.0787
X2.5387Y1.0787
X0.46Y3.1575
X0.46Y2.1575
X0.51Y3.1575
X0.51Y2.1575
X0.56Y3.1575
X0.56Y2.1575
X0.61Y3.1575
X0.61Y2.1575
X0.66Y3.1575
X0.66Y2.1575
X0.71Y3.1575
X0.71Y2.1575
X0.76Y3.1575
X0.76Y2.1575
X0.81Y3.1575
X0.81Y2.1575
X0.86Y3.1575
X0.86Y2.1575
X0.91Y3.1575
X0.91Y2.1575
X0.96Y3.1575
X0.96Y2.1575
X1.01Y3.1575
X1.01Y2.1575
X1.06Y3.1575
X1.06Y2.1575
X1.11Y3.1575
X1.11Y2.1575
X1.16Y3.1575
X1.16Y2.1575
X1.21Y3.1575
X1.21Y2.1575
X3.1175Y2.0787
X3.1175Y1.0787
X3.1675Y2.0787
X3.1675Y1.0787
X3.2175Y2.0787
X3.2175Y1.0787
X3.2675Y2.0787
X3.2675Y1.0787
X3.3175Y2.0787
X3.3175Y1.0787
X3.3675Y2.0787
X3.3675Y1.0787
X3.4175Y2.0787
X3.4175Y1.0787
X3.4675Y2.0787
X3.4675Y1.0787
X3.5175Y2.0787
X3.5175Y1.0787
X3.5675Y2.0787
X3.5675Y1.0787
X3.6175Y2.0787
X3.6175Y1.0787
X3.6675Y2.0787
X3.6675Y1.0787
X3.7175Y2.0787
X3.7175Y1.0787
X3.7675Y2.0787
X3.7675Y1.0787
X3.8175Y2.0787
X3.8175Y1.0787
X3.8675Y2.0787
X3.8675Y1.0787
X3.1175Y1.0
X3.1175Y0.0
X3.1675Y1.0
X3.1675Y0.0
X3.2175Y1.0
X3.2175Y0.0
X3.2675Y1.0
X3.2675Y0.0
X3.3175Y1.0
X3.3175Y0.0
X3.3675Y1.0
X3.3675Y0.0
X3.4175Y1.0
X3.4175Y0.0
X3.4675Y1.0
X3.4675Y0.0
X3.5175Y1.0
X3.5175Y0.0
X3.5675Y1.0
X3.5675Y0.0
X3.6175Y1.0
X3.6175Y0.0
X3.6675Y1.0
X3.6675Y0.0
X3.7175Y1.0
X3.7175Y0.0
X3.7675Y1.0
X3.7675Y0.0
X3.8175Y1.0
X3.8175Y0.0
X3.8675Y1.0
X3.8675Y0.0
X0.46Y1.0
X0.46Y0.0
X0.51Y1.0
X0.51Y0.0
X0.56Y1.0
X0.56Y0.0
X0.61Y1.0
X0.61Y0.0
X0.66Y1.0
X0.66Y0.0
X0.71Y1.0
X0.71Y0.0
X0.76Y1.0
X0.76Y0.0
X0.81Y1.0
X0.81Y0.0
X0.86Y1.0
X0.86Y0.0
X0.91Y1.0
X0.91Y0.0
X0.96Y1.0
X0.96Y0.0
X1.01Y1.0
X1.01Y0.0
X1.06Y1.0
X1.06Y0.0
X1.11Y1.0
X1.11Y0.0
X1.16Y1.0
X1.16Y0.0
X1.21Y1.0
X1.21Y0.0
T0
M30
