M48
INCH
T1C0.0118
T2C0.0138
T3C0.0157
T4C0.0295
%
G90
G05
T1
X2.1665Y0.7255
X2.1665Y0.698
X2.1665Y0.6271
X2.1665Y0.5995
X2.2531Y0.7255
X2.2531Y0.6625
X2.2531Y0.5995
X0.8378Y2.883
X0.8378Y2.8554
X0.8378Y2.7846
X0.8378Y2.757
X0.9244Y2.883
X0.9244Y2.82
X0.9244Y2.757
X3.4952Y2.883
X3.4952Y2.8554
X3.4952Y2.7846
X3.4952Y2.757
X3.5819Y2.883
X3.5819Y2.82
X3.5819Y2.757
X2.1665Y1.8043
X2.1665Y1.7767
X2.1665Y1.7058
X2.1665Y1.6783
X2.2531Y1.8043
X2.2531Y1.7413
X2.2531Y1.6783
X3.4952Y0.7255
X3.4952Y0.698
X3.4952Y0.6271
X3.4952Y0.5995
X3.5819Y0.7255
X3.5819Y0.6625
X3.5819Y0.5995
X0.8378Y0.7255
X0.8378Y0.698
X0.8378Y0.6271
X0.8378Y0.5995
X0.9244Y0.7255
X0.9244Y0.6625
X0.9244Y0.5995
X0.8378Y1.8043
X0.8378Y1.7767
X0.8378Y1.7058
X0.8378Y1.6783
X0.9244Y1.8043
X0.9244Y1.7413
X0.9244Y1.6783
X3.4952Y1.8043
X3.4952Y1.7767
X3.4952Y1.7058
X3.4952Y1.6783
X3.5819Y1.8043
X3.5819Y1.7413
X3.5819Y1.6783
X2.1665Y2.883
X2.1665Y2.8554
X2.1665Y2.7846
X2.1665Y2.757
X2.2531Y2.883
X2.2531Y2.82
X2.2531Y2.757
T2
X0.4334Y2.9923
X0.4334Y2.6477
X0.4334Y1.9136
X0.4334Y1.569
X0.4334Y0.8348
X0.4334Y0.4902
X0.441Y2.5123
X0.441Y1.4336
X0.441Y0.3548
X0.4433Y2.4077
X0.4433Y1.329
X0.4433Y0.2502
X0.4469Y2.8872
X0.4469Y1.8084
X0.4469Y0.7297
X0.4469Y2.7528
X0.4469Y1.6741
X0.4469Y0.5953
X0.5107Y2.9887
X0.5107Y2.6513
X0.5107Y1.91
X0.5107Y1.5725
X0.5107Y0.8312
X0.5107Y0.4938
X0.5182Y2.5123
X0.5182Y1.4336
X0.5182Y0.3548
X0.5206Y2.4077
X0.5206Y1.329
X0.5206Y0.2502
X0.5258Y2.7628
X0.5258Y1.6841
X0.5258Y0.6054
X0.5261Y2.8771
X0.5261Y1.7983
X0.5261Y0.7196
X0.5913Y2.6714
X0.5913Y1.5926
X0.5913Y0.5139
X0.592Y2.9685
X0.592Y1.8897
X0.592Y0.811
X0.5954Y2.5123
X0.5954Y1.4336
X0.5954Y0.3548
X0.5978Y2.4077
X0.5978Y1.329
X0.5978Y0.2502
X0.6064Y2.7829
X0.6064Y1.7042
X0.6064Y0.6255
X0.6073Y2.8568
X0.6073Y1.778
X0.6073Y0.6993
X0.6098Y3.2825
X0.6098Y2.2038
X0.6098Y1.125
X0.6348Y3.2825
X0.6348Y2.2038
X0.6348Y1.125
X0.672Y2.6915
X0.672Y1.6127
X0.672Y0.534
X0.6727Y2.5123
X0.6727Y1.4336
X0.6727Y0.3548
X0.6733Y2.9484
X0.6733Y2.8454
X0.6733Y2.7944
X0.6733Y1.8697
X0.6733Y1.7667
X0.6733Y1.7157
X0.6733Y0.7909
X0.6733Y0.6879
X0.6733Y0.6369
X0.6751Y2.4077
X0.6751Y1.329
X0.6751Y0.2502
X0.743Y3.2649
X0.743Y3.1861
X0.743Y3.1074
X0.743Y2.1861
X0.743Y2.1074
X0.743Y2.0287
X0.743Y1.1074
X0.743Y1.0287
X0.743Y0.9499
X0.7492Y2.6915
X0.7492Y1.6127
X0.7492Y0.534
X0.75Y2.5121
X0.75Y1.4333
X0.75Y0.3546
X0.7506Y2.9484
X0.7506Y1.8697
X0.7506Y0.7909
X0.7523Y2.4079
X0.7523Y1.3292
X0.7523Y0.2504
X0.7534Y2.8332
X0.7534Y2.8052
X0.7534Y1.7544
X0.7534Y1.7264
X0.7534Y0.6757
X0.7534Y0.6477
X0.7709Y2.5444
X0.7709Y1.4657
X0.7709Y0.387
X0.7923Y3.1775
X0.7923Y2.0988
X0.7923Y1.02
X0.7973Y3.0625
X0.7973Y1.9838
X0.7973Y0.905
X0.8022Y2.9411
X0.8022Y1.8623
X0.8022Y0.7836
X0.8023Y2.698
X0.8023Y1.6192
X0.8023Y0.5405
X0.8297Y2.4081
X0.8297Y1.3294
X0.8297Y0.2506
X0.8461Y2.99
X0.8461Y2.6665
X0.8461Y1.9113
X0.8461Y1.5877
X0.8461Y0.8325
X0.8461Y0.509
X0.8482Y2.5444
X0.8482Y1.4657
X0.8482Y0.387
X0.8767Y2.99
X0.8767Y2.6665
X0.8767Y1.9113
X0.8767Y1.5877
X0.8767Y0.8325
X0.8767Y0.509
X0.9024Y3.01
X0.9024Y1.9313
X0.9024Y0.8525
X0.9061Y2.6523
X0.9061Y1.5735
X0.9061Y0.4948
X0.9069Y2.4081
X0.9069Y1.3294
X0.9069Y0.2506
X0.9159Y3.1227
X0.9159Y2.044
X0.9159Y0.9652
X0.9183Y3.1817
X0.9183Y3.1531
X0.9183Y2.103
X0.9183Y2.0743
X0.9183Y1.0242
X0.9183Y0.9956
X0.9254Y2.5444
X0.9254Y1.4657
X0.9254Y0.387
X0.933Y3.01
X0.933Y1.9313
X0.933Y0.8525
X0.9367Y2.6523
X0.9367Y1.5735
X0.9367Y0.4948
X0.9404Y3.2387
X0.9404Y2.16
X0.9404Y1.0812
X0.9443Y2.975
X0.9443Y1.8963
X0.9443Y0.8175
X0.9623Y2.621
X0.9623Y1.5423
X0.9623Y0.4635
X0.9842Y2.4081
X0.9842Y1.3294
X0.9842Y0.2506
X1.0027Y2.5444
X1.0027Y1.4657
X1.0027Y0.387
X1.0078Y3.1775
X1.0078Y3.1172
X1.0078Y2.0987
X1.0078Y2.0384
X1.0078Y1.02
X1.0078Y0.9597
X1.0118Y2.7007
X1.0118Y1.622
X1.0118Y0.5432
X1.0204Y2.5127
X1.0204Y1.434
X1.0204Y0.3553
X1.0243Y3.275
X1.0243Y2.1963
X1.0243Y1.1175
X1.0248Y2.9525
X1.0248Y1.8738
X1.0248Y0.795
X1.0315Y2.6775
X1.0315Y1.5988
X1.0315Y0.52
X1.0632Y2.5203
X1.0632Y1.4416
X1.0632Y0.3628
X1.0634Y2.4129
X1.0634Y1.3342
X1.0634Y0.2554
X1.0668Y3.1775
X1.0668Y3.1172
X1.0668Y2.0987
X1.0668Y2.0384
X1.0668Y1.02
X1.0668Y0.9597
X1.0929Y2.9307
X1.0929Y2.7487
X1.0929Y1.852
X1.0929Y1.6699
X1.0929Y0.7732
X1.0929Y0.5912
X1.1355Y2.5582
X1.1355Y1.4795
X1.1355Y0.4008
X1.1364Y3.0832
X1.1364Y3.0587
X1.1364Y2.0045
X1.1364Y1.98
X1.1364Y0.9257
X1.1364Y0.9012
X1.141Y2.4386
X1.141Y1.3598
X1.141Y0.2811
X1.1584Y3.2087
X1.1584Y2.13
X1.1584Y1.0512
X1.1701Y2.9307
X1.1701Y2.7487
X1.1701Y1.852
X1.1701Y1.6699
X1.1701Y0.7732
X1.1701Y0.5912
X1.1866Y2.622
X1.1866Y1.5433
X1.1866Y0.4645
X1.1943Y2.9923
X1.1943Y1.9136
X1.1943Y0.8348
X1.208Y2.7008
X1.208Y1.622
X1.208Y0.5433
X1.2091Y2.4838
X1.2091Y1.405
X1.2091Y0.3263
X1.2164Y3.0967
X1.2164Y2.018
X1.2164Y0.9392
X1.2404Y3.2427
X1.2404Y2.164
X1.2404Y1.0852
X1.2473Y2.9307
X1.2473Y1.852
X1.2473Y0.7732
X1.263Y2.5453
X1.263Y1.4666
X1.263Y0.3878
X1.2648Y3.01
X1.2648Y1.9313
X1.2648Y0.8525
X1.2798Y2.38
X1.2798Y2.355
X1.2798Y1.3013
X1.2798Y1.2763
X1.2798Y0.2225
X1.2798Y0.1975
X1.2983Y2.941
X1.2983Y1.8623
X1.2983Y0.7835
X1.2983Y2.6191
X1.2983Y1.5403
X1.2983Y0.4616
X1.3023Y2.46
X1.3023Y1.3813
X1.3023Y0.3025
X1.304Y3.2649
X1.304Y3.196
X1.304Y2.1861
X1.304Y2.1172
X1.304Y1.1074
X1.304Y1.0385
X1.3127Y2.6995
X1.3127Y1.6208
X1.3127Y0.5421
X1.3133Y2.8612
X1.3133Y2.7816
X1.3133Y1.7825
X1.3133Y1.7028
X1.3133Y0.7037
X1.3133Y0.6241
X1.3273Y2.46
X1.3273Y1.3813
X1.3273Y0.3025
X1.3434Y2.507
X1.3434Y1.4283
X1.3434Y0.3495
X1.3598Y2.445
X1.3598Y1.3663
X1.3598Y0.2875
X1.3664Y3.1327
X1.3664Y2.054
X1.3664Y0.9752
X1.3723Y3.049
X1.3723Y3.025
X1.3723Y1.9703
X1.3723Y1.9463
X1.3723Y0.8915
X1.3723Y0.8675
X1.3729Y3.196
X1.3729Y2.1172
X1.3729Y1.0385
X1.3848Y2.445
X1.3848Y1.3663
X1.3848Y0.2875
X1.7622Y2.9923
X1.7622Y2.6477
X1.7622Y1.9136
X1.7622Y1.569
X1.7622Y0.8348
X1.7622Y0.4902
X1.7697Y2.5123
X1.7697Y1.4336
X1.7697Y0.3548
X1.7721Y2.4077
X1.7721Y1.329
X1.7721Y0.2502
X1.7756Y2.8872
X1.7756Y1.8084
X1.7756Y0.7297
X1.7756Y2.7528
X1.7756Y1.6741
X1.7756Y0.5953
X1.8394Y2.9887
X1.8394Y2.6513
X1.8394Y1.91
X1.8394Y1.5725
X1.8394Y0.8312
X1.8394Y0.4938
X1.8469Y2.5123
X1.8469Y1.4336
X1.8469Y0.3548
X1.8493Y2.4077
X1.8493Y1.329
X1.8493Y0.2502
X1.8545Y2.7628
X1.8545Y1.6841
X1.8545Y0.6054
X1.8549Y2.8771
X1.8549Y1.7983
X1.8549Y0.7196
X1.9201Y2.6714
X1.9201Y1.5926
X1.9201Y0.5139
X1.9208Y2.9685
X1.9208Y1.8897
X1.9208Y0.811
X1.9242Y2.5123
X1.9242Y1.4336
X1.9242Y0.3548
X1.9266Y2.4077
X1.9266Y1.329
X1.9266Y0.2502
X1.9351Y2.7829
X1.9351Y1.7042
X1.9351Y0.6255
X1.9361Y2.8568
X1.9361Y1.778
X1.9361Y0.6993
X1.9385Y3.2825
X1.9385Y2.2038
X1.9385Y1.125
X1.9635Y3.2825
X1.9635Y2.2038
X1.9635Y1.125
X2.0007Y2.6915
X2.0007Y1.6127
X2.0007Y0.534
X2.0014Y2.5123
X2.0014Y1.4336
X2.0014Y0.3548
X2.0021Y2.9484
X2.0021Y2.8454
X2.0021Y2.7944
X2.0021Y1.8697
X2.0021Y1.7667
X2.0021Y1.7157
X2.0021Y0.7909
X2.0021Y0.6879
X2.0021Y0.6369
X2.0038Y2.4077
X2.0038Y1.329
X2.0038Y0.2502
X2.0717Y3.2649
X2.0717Y3.1861
X2.0717Y3.1074
X2.0717Y2.1861
X2.0717Y2.1074
X2.0717Y2.0287
X2.0717Y1.1074
X2.0717Y1.0287
X2.0717Y0.9499
X2.078Y2.6915
X2.078Y1.6127
X2.078Y0.534
X2.0788Y2.5121
X2.0788Y1.4333
X2.0788Y0.3546
X2.0793Y2.9484
X2.0793Y1.8697
X2.0793Y0.7909
X2.081Y2.4079
X2.081Y1.3292
X2.081Y0.2504
X2.0821Y2.8332
X2.0821Y2.8052
X2.0821Y1.7544
X2.0821Y1.7264
X2.0821Y0.6757
X2.0821Y0.6477
X2.0997Y2.5444
X2.0997Y1.4657
X2.0997Y0.387
X2.121Y3.1775
X2.121Y2.0988
X2.121Y1.02
X2.126Y3.0625
X2.126Y1.9838
X2.126Y0.905
X2.1309Y2.9411
X2.1309Y1.8623
X2.1309Y0.7836
X2.1311Y2.698
X2.1311Y1.6192
X2.1311Y0.5405
X2.1584Y2.4081
X2.1584Y1.3294
X2.1584Y0.2506
X2.1748Y2.99
X2.1748Y2.6665
X2.1748Y1.9113
X2.1748Y1.5877
X2.1748Y0.8325
X2.1748Y0.509
X2.1769Y2.5444
X2.1769Y1.4657
X2.1769Y0.387
X2.2054Y2.99
X2.2054Y2.6665
X2.2054Y1.9113
X2.2054Y1.5877
X2.2054Y0.8325
X2.2054Y0.509
X2.2311Y3.01
X2.2311Y1.9313
X2.2311Y0.8525
X2.2349Y2.6523
X2.2349Y1.5735
X2.2349Y0.4948
X2.2356Y2.4081
X2.2356Y1.3294
X2.2356Y0.2506
X2.2446Y3.1227
X2.2446Y2.044
X2.2446Y0.9652
X2.247Y3.1817
X2.247Y3.1531
X2.247Y2.103
X2.247Y2.0743
X2.247Y1.0242
X2.247Y0.9956
X2.2542Y2.5444
X2.2542Y1.4657
X2.2542Y0.387
X2.2617Y3.01
X2.2617Y1.9313
X2.2617Y0.8525
X2.2655Y2.6523
X2.2655Y1.5735
X2.2655Y0.4948
X2.2692Y3.2387
X2.2692Y2.16
X2.2692Y1.0812
X2.273Y2.975
X2.273Y1.8963
X2.273Y0.8175
X2.291Y2.621
X2.291Y1.5423
X2.291Y0.4635
X2.3129Y2.4081
X2.3129Y1.3294
X2.3129Y0.2506
X2.3314Y2.5444
X2.3314Y1.4657
X2.3314Y0.387
X2.3365Y3.1775
X2.3365Y3.1172
X2.3365Y2.0987
X2.3365Y2.0384
X2.3365Y1.02
X2.3365Y0.9597
X2.3405Y2.7007
X2.3405Y1.622
X2.3405Y0.5432
X2.3491Y2.5127
X2.3491Y1.434
X2.3491Y0.3553
X2.353Y3.275
X2.353Y2.1963
X2.353Y1.1175
X2.3535Y2.9525
X2.3535Y1.8738
X2.3535Y0.795
X2.3602Y2.6775
X2.3602Y1.5988
X2.3602Y0.52
X2.3919Y2.5203
X2.3919Y1.4416
X2.3919Y0.3628
X2.3921Y2.4129
X2.3921Y1.3342
X2.3921Y0.2554
X2.3956Y3.1775
X2.3956Y3.1172
X2.3956Y2.0987
X2.3956Y2.0384
X2.3956Y1.02
X2.3956Y0.9597
X2.4216Y2.9307
X2.4216Y2.7487
X2.4216Y1.852
X2.4216Y1.6699
X2.4216Y0.7732
X2.4216Y0.5912
X2.4643Y2.5582
X2.4643Y1.4795
X2.4643Y0.4008
X2.4652Y3.0832
X2.4652Y3.0587
X2.4652Y2.0045
X2.4652Y1.98
X2.4652Y0.9257
X2.4652Y0.9012
X2.4698Y2.4386
X2.4698Y1.3598
X2.4698Y0.2811
X2.4872Y3.2087
X2.4872Y2.13
X2.4872Y1.0512
X2.4988Y2.9307
X2.4988Y2.7487
X2.4988Y1.852
X2.4988Y1.6699
X2.4988Y0.7732
X2.4988Y0.5912
X2.5153Y2.622
X2.5153Y1.5433
X2.5153Y0.4645
X2.523Y2.9923
X2.523Y1.9136
X2.523Y0.8348
X2.5368Y2.7008
X2.5368Y1.622
X2.5368Y0.5433
X2.5379Y2.4838
X2.5379Y1.405
X2.5379Y0.3263
X2.5452Y3.0967
X2.5452Y2.018
X2.5452Y0.9392
X2.5692Y3.2427
X2.5692Y2.164
X2.5692Y1.0852
X2.5761Y2.9307
X2.5761Y1.852
X2.5761Y0.7732
X2.5917Y2.5453
X2.5917Y1.4666
X2.5917Y0.3878
X2.5935Y3.01
X2.5935Y1.9313
X2.5935Y0.8525
X2.6085Y2.38
X2.6085Y2.355
X2.6085Y1.3013
X2.6085Y1.2763
X2.6085Y0.2225
X2.6085Y0.1975
X2.627Y2.941
X2.627Y1.8623
X2.627Y0.7835
X2.627Y2.6191
X2.627Y1.5403
X2.627Y0.4616
X2.631Y2.46
X2.631Y1.3813
X2.631Y0.3025
X2.6328Y3.2649
X2.6328Y3.196
X2.6328Y2.1861
X2.6328Y2.1172
X2.6328Y1.1074
X2.6328Y1.0385
X2.6415Y2.6995
X2.6415Y1.6208
X2.6415Y0.5421
X2.6421Y2.8612
X2.6421Y2.7816
X2.6421Y1.7825
X2.6421Y1.7028
X2.6421Y0.7037
X2.6421Y0.6241
X2.656Y2.46
X2.656Y1.3813
X2.656Y0.3025
X2.6721Y2.507
X2.6721Y1.4283
X2.6721Y0.3495
X2.6885Y2.445
X2.6885Y1.3663
X2.6885Y0.2875
X2.6952Y3.1327
X2.6952Y2.054
X2.6952Y0.9752
X2.701Y3.049
X2.701Y3.025
X2.701Y1.9703
X2.701Y1.9463
X2.701Y0.8915
X2.701Y0.8675
X2.7017Y3.196
X2.7017Y2.1172
X2.7017Y1.0385
X2.7135Y2.445
X2.7135Y1.3663
X2.7135Y0.2875
X3.0909Y2.9923
X3.0909Y2.6477
X3.0909Y1.9136
X3.0909Y1.569
X3.0909Y0.8348
X3.0909Y0.4902
X3.0984Y2.5123
X3.0984Y1.4336
X3.0984Y0.3548
X3.1008Y2.4077
X3.1008Y1.329
X3.1008Y0.2502
X3.1043Y2.8872
X3.1043Y1.8084
X3.1043Y0.7297
X3.1043Y2.7528
X3.1043Y1.6741
X3.1043Y0.5953
X3.1682Y2.9887
X3.1682Y2.6513
X3.1682Y1.91
X3.1682Y1.5725
X3.1682Y0.8312
X3.1682Y0.4938
X3.1757Y2.5123
X3.1757Y1.4336
X3.1757Y0.3548
X3.1781Y2.4077
X3.1781Y1.329
X3.1781Y0.2502
X3.1833Y2.7628
X3.1833Y1.6841
X3.1833Y0.6054
X3.1836Y2.8771
X3.1836Y1.7983
X3.1836Y0.7196
X3.2488Y2.6714
X3.2488Y1.5926
X3.2488Y0.5139
X3.2495Y2.9685
X3.2495Y1.8897
X3.2495Y0.811
X3.2529Y2.5123
X3.2529Y1.4336
X3.2529Y0.3548
X3.2553Y2.4077
X3.2553Y1.329
X3.2553Y0.2502
X3.2638Y2.7829
X3.2638Y1.7042
X3.2638Y0.6255
X3.2648Y2.8568
X3.2648Y1.778
X3.2648Y0.6993
X3.2673Y3.2825
X3.2673Y2.2038
X3.2673Y1.125
X3.2923Y3.2825
X3.2923Y2.2038
X3.2923Y1.125
X3.3294Y2.6915
X3.3294Y1.6127
X3.3294Y0.534
X3.3302Y2.5123
X3.3302Y1.4336
X3.3302Y0.3548
X3.3308Y2.9484
X3.3308Y2.8454
X3.3308Y2.7944
X3.3308Y1.8697
X3.3308Y1.7667
X3.3308Y1.7157
X3.3308Y0.7909
X3.3308Y0.6879
X3.3308Y0.6369
X3.3325Y2.4077
X3.3325Y1.329
X3.3325Y0.2502
X3.4005Y3.2649
X3.4005Y3.1861
X3.4005Y3.1074
X3.4005Y2.1861
X3.4005Y2.1074
X3.4005Y2.0287
X3.4005Y1.1074
X3.4005Y1.0287
X3.4005Y0.9499
X3.4067Y2.6915
X3.4067Y1.6127
X3.4067Y0.534
X3.4075Y2.5121
X3.4075Y1.4333
X3.4075Y0.3546
X3.408Y2.9484
X3.408Y1.8697
X3.408Y0.7909
X3.4098Y2.4079
X3.4098Y1.3292
X3.4098Y0.2504
X3.4109Y2.8332
X3.4109Y2.8052
X3.4109Y1.7544
X3.4109Y1.7264
X3.4109Y0.6757
X3.4109Y0.6477
X3.4284Y2.5444
X3.4284Y1.4657
X3.4284Y0.387
X3.4498Y3.1775
X3.4498Y2.0988
X3.4498Y1.02
X3.4548Y3.0625
X3.4548Y1.9838
X3.4548Y0.905
X3.4597Y2.9411
X3.4597Y1.8623
X3.4597Y0.7836
X3.4598Y2.698
X3.4598Y1.6192
X3.4598Y0.5405
X3.4871Y2.4081
X3.4871Y1.3294
X3.4871Y0.2506
X3.5036Y2.99
X3.5036Y2.6665
X3.5036Y1.9113
X3.5036Y1.5877
X3.5036Y0.8325
X3.5036Y0.509
X3.5057Y2.5444
X3.5057Y1.4657
X3.5057Y0.387
X3.5342Y2.99
X3.5342Y2.6665
X3.5342Y1.9113
X3.5342Y1.5877
X3.5342Y0.8325
X3.5342Y0.509
X3.5599Y3.01
X3.5599Y1.9313
X3.5599Y0.8525
X3.5636Y2.6523
X3.5636Y1.5735
X3.5636Y0.4948
X3.5644Y2.4081
X3.5644Y1.3294
X3.5644Y0.2506
X3.5734Y3.1227
X3.5734Y2.044
X3.5734Y0.9652
X3.5758Y3.1817
X3.5758Y3.1531
X3.5758Y2.103
X3.5758Y2.0743
X3.5758Y1.0242
X3.5758Y0.9956
X3.5829Y2.5444
X3.5829Y1.4657
X3.5829Y0.387
X3.5905Y3.01
X3.5905Y1.9313
X3.5905Y0.8525
X3.5942Y2.6523
X3.5942Y1.5735
X3.5942Y0.4948
X3.5979Y3.2387
X3.5979Y2.16
X3.5979Y1.0812
X3.6018Y2.975
X3.6018Y1.8963
X3.6018Y0.8175
X3.6198Y2.621
X3.6198Y1.5423
X3.6198Y0.4635
X3.6416Y2.4081
X3.6416Y1.3294
X3.6416Y0.2506
X3.6602Y2.5444
X3.6602Y1.4657
X3.6602Y0.387
X3.6652Y3.1775
X3.6652Y3.1172
X3.6652Y2.0987
X3.6652Y2.0384
X3.6652Y1.02
X3.6652Y0.9597
X3.6693Y2.7007
X3.6693Y1.622
X3.6693Y0.5432
X3.6779Y2.5127
X3.6779Y1.434
X3.6779Y0.3553
X3.6818Y3.275
X3.6818Y2.1963
X3.6818Y1.1175
X3.6823Y2.9525
X3.6823Y1.8738
X3.6823Y0.795
X3.689Y2.6775
X3.689Y1.5988
X3.689Y0.52
X3.7207Y2.5203
X3.7207Y1.4416
X3.7207Y0.3628
X3.7209Y2.4129
X3.7209Y1.3342
X3.7209Y0.2554
X3.7243Y3.1775
X3.7243Y3.1172
X3.7243Y2.0987
X3.7243Y2.0384
X3.7243Y1.02
X3.7243Y0.9597
X3.7503Y2.9307
X3.7503Y2.7487
X3.7503Y1.852
X3.7503Y1.6699
X3.7503Y0.7732
X3.7503Y0.5912
X3.793Y2.5582
X3.793Y1.4795
X3.793Y0.4008
X3.7939Y3.0832
X3.7939Y3.0587
X3.7939Y2.0045
X3.7939Y1.98
X3.7939Y0.9257
X3.7939Y0.9012
X3.7985Y2.4386
X3.7985Y1.3598
X3.7985Y0.2811
X3.8159Y3.2087
X3.8159Y2.13
X3.8159Y1.0512
X3.8276Y2.9307
X3.8276Y2.7487
X3.8276Y1.852
X3.8276Y1.6699
X3.8276Y0.7732
X3.8276Y0.5912
X3.8441Y2.622
X3.8441Y1.5433
X3.8441Y0.4645
X3.8518Y2.9923
X3.8518Y1.9136
X3.8518Y0.8348
X3.8655Y2.7008
X3.8655Y1.622
X3.8655Y0.5433
X3.8666Y2.4838
X3.8666Y1.405
X3.8666Y0.3263
X3.8739Y3.0967
X3.8739Y2.018
X3.8739Y0.9392
X3.8979Y3.2427
X3.8979Y2.164
X3.8979Y1.0852
X3.9048Y2.9307
X3.9048Y1.852
X3.9048Y0.7732
X3.9205Y2.5453
X3.9205Y1.4666
X3.9205Y0.3878
X3.9223Y3.01
X3.9223Y1.9313
X3.9223Y0.8525
X3.9373Y2.38
X3.9373Y2.355
X3.9373Y1.3013
X3.9373Y1.2763
X3.9373Y0.2225
X3.9373Y0.1975
X3.9558Y2.941
X3.9558Y1.8623
X3.9558Y0.7835
X3.9558Y2.6191
X3.9558Y1.5403
X3.9558Y0.4616
X3.9598Y2.46
X3.9598Y1.3813
X3.9598Y0.3025
X3.9615Y3.2649
X3.9615Y3.196
X3.9615Y2.1861
X3.9615Y2.1172
X3.9615Y1.1074
X3.9615Y1.0385
X3.9702Y2.6995
X3.9702Y1.6208
X3.9702Y0.5421
X3.9708Y2.8612
X3.9708Y2.7816
X3.9708Y1.7825
X3.9708Y1.7028
X3.9708Y0.7037
X3.9708Y0.6241
X3.9848Y2.46
X3.9848Y1.3813
X3.9848Y0.3025
X4.0009Y2.507
X4.0009Y1.4283
X4.0009Y0.3495
X4.0173Y2.445
X4.0173Y1.3663
X4.0173Y0.2875
X4.0239Y3.1327
X4.0239Y2.054
X4.0239Y0.9752
X4.0298Y3.049
X4.0298Y3.025
X4.0298Y1.9703
X4.0298Y1.9463
X4.0298Y0.8915
X4.0298Y0.8675
X4.0304Y3.196
X4.0304Y2.1172
X4.0304Y1.0385
X4.0423Y2.445
X4.0423Y1.3663
X4.0423Y0.2875
T3
X2.8696Y0.8258
X2.8696Y0.7392
X2.9161Y0.6924
X2.9173Y0.8731
X3.0027Y0.8731
X3.0047Y0.6924
X3.0507Y0.8337
X3.0507Y0.7313
X0.2121Y1.9046
X0.2121Y1.818
X0.2586Y1.7711
X0.2598Y1.9518
X0.3452Y1.9518
X0.3472Y1.7711
X0.3932Y1.9124
X0.3932Y1.8101
X0.2121Y0.3458
X0.2121Y0.2592
X0.2586Y0.2124
X0.2598Y0.3931
X0.3452Y0.3931
X0.3472Y0.2124
X0.3932Y0.3537
X0.3932Y0.2513
X2.8696Y0.3458
X2.8696Y0.2592
X2.9161Y0.2124
X2.9173Y0.3931
X3.0027Y0.3931
X3.0047Y0.2124
X3.0507Y0.3537
X3.0507Y0.2513
X2.8696Y1.4246
X2.8696Y1.338
X2.9161Y1.2911
X2.9173Y1.4718
X3.0027Y1.4718
X3.0047Y1.2911
X3.0507Y1.4324
X3.0507Y1.3301
X1.5409Y1.6646
X1.5409Y1.578
X1.5873Y1.5311
X1.5885Y1.7118
X1.6739Y1.7118
X1.6759Y1.5311
X1.722Y1.6724
X1.722Y1.5701
X2.8696Y1.9046
X2.8696Y1.818
X2.9161Y1.7711
X2.9173Y1.9518
X3.0027Y1.9518
X3.0047Y1.7711
X3.0507Y1.9124
X3.0507Y1.8101
X2.8696Y0.5858
X2.8696Y0.4992
X2.9161Y0.4524
X2.9173Y0.6331
X3.0027Y0.6331
X3.0047Y0.4524
X3.0507Y0.5937
X3.0507Y0.4913
X1.5409Y1.4246
X1.5409Y1.338
X1.5873Y1.2911
X1.5885Y1.4718
X1.6739Y1.4718
X1.6759Y1.2911
X1.722Y1.4324
X1.722Y1.3301
X1.5409Y2.9833
X1.5409Y2.8967
X1.5873Y2.8498
X1.5885Y3.0306
X1.6739Y3.0306
X1.6759Y2.8498
X1.722Y2.9912
X1.722Y2.8888
X1.5409Y2.7433
X1.5409Y2.6567
X1.5873Y2.6098
X1.5885Y2.7906
X1.6739Y2.7906
X1.6759Y2.6098
X1.722Y2.7512
X1.722Y2.6488
X1.5409Y0.3458
X1.5409Y0.2592
X1.5873Y0.2124
X1.5885Y0.3931
X1.6739Y0.3931
X1.6759Y0.2124
X1.722Y0.3537
X1.722Y0.2513
X1.5409Y2.5033
X1.5409Y2.4167
X1.5873Y2.3698
X1.5885Y2.5506
X1.6739Y2.5506
X1.6759Y2.3698
X1.722Y2.5112
X1.722Y2.4088
X2.8696Y1.6646
X2.8696Y1.578
X2.9161Y1.5311
X2.9173Y1.7118
X3.0027Y1.7118
X3.0047Y1.5311
X3.0507Y1.6724
X3.0507Y1.5701
X0.2121Y2.5033
X0.2121Y2.4167
X0.2586Y2.3698
X0.2598Y2.5506
X0.3452Y2.5506
X0.3472Y2.3698
X0.3932Y2.5112
X0.3932Y2.4088
X2.8696Y2.9833
X2.8696Y2.8967
X2.9161Y2.8498
X2.9173Y3.0306
X3.0027Y3.0306
X3.0047Y2.8498
X3.0507Y2.9912
X3.0507Y2.8888
X2.8696Y2.5033
X2.8696Y2.4167
X2.9161Y2.3698
X2.9173Y2.5506
X3.0027Y2.5506
X3.0047Y2.3698
X3.0507Y2.5112
X3.0507Y2.4088
X0.2121Y2.7433
X0.2121Y2.6567
X0.2586Y2.6098
X0.2598Y2.7906
X0.3452Y2.7906
X0.3472Y2.6098
X0.3932Y2.7512
X0.3932Y2.6488
X0.2121Y2.9833
X0.2121Y2.8967
X0.2586Y2.8498
X0.2598Y3.0306
X0.3452Y3.0306
X0.3472Y2.8498
X0.3932Y2.9912
X0.3932Y2.8888
X0.2121Y1.6646
X0.2121Y1.578
X0.2586Y1.5311
X0.2598Y1.7118
X0.3452Y1.7118
X0.3472Y1.5311
X0.3932Y1.6724
X0.3932Y1.5701
X1.5409Y0.8258
X1.5409Y0.7392
X1.5873Y0.6924
X1.5885Y0.8731
X1.6739Y0.8731
X1.6759Y0.6924
X1.722Y0.8337
X1.722Y0.7313
X2.8696Y2.7433
X2.8696Y2.6567
X2.9161Y2.6098
X2.9173Y2.7906
X3.0027Y2.7906
X3.0047Y2.6098
X3.0507Y2.7512
X3.0507Y2.6488
X0.2121Y0.8258
X0.2121Y0.7392
X0.2586Y0.6924
X0.2598Y0.8731
X0.3452Y0.8731
X0.3472Y0.6924
X0.3932Y0.8337
X0.3932Y0.7313
X0.2121Y0.5858
X0.2121Y0.4992
X0.2586Y0.4524
X0.2598Y0.6331
X0.3452Y0.6331
X0.3472Y0.4524
X0.3932Y0.5937
X0.3932Y0.4913
X1.5409Y1.9046
X1.5409Y1.818
X1.5873Y1.7711
X1.5885Y1.9518
X1.6739Y1.9518
X1.6759Y1.7711
X1.722Y1.9124
X1.722Y1.8101
X0.2121Y1.4246
X0.2121Y1.338
X0.2586Y1.2911
X0.2598Y1.4718
X0.3452Y1.4718
X0.3472Y1.2911
X0.3932Y1.4324
X0.3932Y1.3301
X1.5409Y0.5858
X1.5409Y0.4992
X1.5873Y0.4524
X1.5885Y0.6331
X1.6739Y0.6331
X1.6759Y0.4524
X1.722Y0.5937
X1.722Y0.4913
T4
X3.2798Y2.2413
X3.2798Y1.2413
X3.3298Y2.2413
X3.3298Y1.2413
X3.3798Y2.2413
X3.3798Y1.2413
X3.4298Y2.2413
X3.4298Y1.2413
X3.4798Y2.2413
X3.4798Y1.2413
X3.5298Y2.2413
X3.5298Y1.2413
X3.5798Y2.2413
X3.5798Y1.2413
X3.6298Y2.2413
X3.6298Y1.2413
X3.6798Y2.2413
X3.6798Y1.2413
X3.7298Y2.2413
X3.7298Y1.2413
X3.7798Y2.2413
X3.7798Y1.2413
X3.8298Y2.2413
X3.8298Y1.2413
X3.8798Y2.2413
X3.8798Y1.2413
X3.9298Y2.2413
X3.9298Y1.2413
X3.9798Y2.2413
X3.9798Y1.2413
X4.0298Y2.2413
X4.0298Y1.2413
X0.6223Y1.1625
X0.6223Y0.1625
X0.6723Y1.1625
X0.6723Y0.1625
X0.7223Y1.1625
X0.7223Y0.1625
X0.7723Y1.1625
X0.7723Y0.1625
X0.8223Y1.1625
X0.8223Y0.1625
X0.8723Y1.1625
X0.8723Y0.1625
X0.9223Y1.1625
X0.9223Y0.1625
X0.9723Y1.1625
X0.9723Y0.1625
X1.0223Y1.1625
X1.0223Y0.1625
X1.0723Y1.1625
X1.0723Y0.1625
X1.1223Y1.1625
X1.1223Y0.1625
X1.1723Y1.1625
X1.1723Y0.1625
X1.2223Y1.1625
X1.2223Y0.1625
X1.2723Y1.1625
X1.2723Y0.1625
X1.3223Y1.1625
X1.3223Y0.1625
X1.3723Y1.1625
X1.3723Y0.1625
X0.6223Y3.32
X0.6223Y2.32
X0.6723Y3.32
X0.6723Y2.32
X0.7223Y3.32
X0.7223Y2.32
X0.7723Y3.32
X0.7723Y2.32
X0.8223Y3.32
X0.8223Y2.32
X0.8723Y3.32
X0.8723Y2.32
X0.9223Y3.32
X0.9223Y2.32
X0.9723Y3.32
X0.9723Y2.32
X1.0223Y3.32
X1.0223Y2.32
X1.0723Y3.32
X1.0723Y2.32
X1.1223Y3.32
X1.1223Y2.32
X1.1723Y3.32
X1.1723Y2.32
X1.2223Y3.32
X1.2223Y2.32
X1.2723Y3.32
X1.2723Y2.32
X1.3223Y3.32
X1.3223Y2.32
X1.3723Y3.32
X1.3723Y2.32
X1.951Y1.1625
X1.951Y0.1625
X2.001Y1.1625
X2.001Y0.1625
X2.051Y1.1625
X2.051Y0.1625
X2.101Y1.1625
X2.101Y0.1625
X2.151Y1.1625
X2.151Y0.1625
X2.201Y1.1625
X2.201Y0.1625
X2.251Y1.1625
X2.251Y0.1625
X2.301Y1.1625
X2.301Y0.1625
X2.351Y1.1625
X2.351Y0.1625
X2.401Y1.1625
X2.401Y0.1625
X2.451Y1.1625
X2.451Y0.1625
X2.501Y1.1625
X2.501Y0.1625
X2.551Y1.1625
X2.551Y0.1625
X2.601Y1.1625
X2.601Y0.1625
X2.651Y1.1625
X2.651Y0.1625
X2.701Y1.1625
X2.701Y0.1625
X1.951Y3.32
X1.951Y2.32
X2.001Y3.32
X2.001Y2.32
X2.051Y3.32
X2.051Y2.32
X2.101Y3.32
X2.101Y2.32
X2.151Y3.32
X2.151Y2.32
X2.201Y3.32
X2.201Y2.32
X2.251Y3.32
X2.251Y2.32
X2.301Y3.32
X2.301Y2.32
X2.351Y3.32
X2.351Y2.32
X2.401Y3.32
X2.401Y2.32
X2.451Y3.32
X2.451Y2.32
X2.501Y3.32
X2.501Y2.32
X2.551Y3.32
X2.551Y2.32
X2.601Y3.32
X2.601Y2.32
X2.651Y3.32
X2.651Y2.32
X2.701Y3.32
X2.701Y2.32
X3.2798Y1.1625
X3.2798Y0.1625
X3.3298Y1.1625
X3.3298Y0.1625
X3.3798Y1.1625
X3.3798Y0.1625
X3.4298Y1.1625
X3.4298Y0.1625
X3.4798Y1.1625
X3.4798Y0.1625
X3.5298Y1.1625
X3.5298Y0.1625
X3.5798Y1.1625
X3.5798Y0.1625
X3.6298Y1.1625
X3.6298Y0.1625
X3.6798Y1.1625
X3.6798Y0.1625
X3.7298Y1.1625
X3.7298Y0.1625
X3.7798Y1.1625
X3.7798Y0.1625
X3.8298Y1.1625
X3.8298Y0.1625
X3.8798Y1.1625
X3.8798Y0.1625
X3.9298Y1.1625
X3.9298Y0.1625
X3.9798Y1.1625
X3.9798Y0.1625
X4.0298Y1.1625
X4.0298Y0.1625
X3.2798Y3.32
X3.2798Y2.32
X3.3298Y3.32
X3.3298Y2.32
X3.3798Y3.32
X3.3798Y2.32
X3.4298Y3.32
X3.4298Y2.32
X3.4798Y3.32
X3.4798Y2.32
X3.5298Y3.32
X3.5298Y2.32
X3.5798Y3.32
X3.5798Y2.32
X3.6298Y3.32
X3.6298Y2.32
X3.6798Y3.32
X3.6798Y2.32
X3.7298Y3.32
X3.7298Y2.32
X3.7798Y3.32
X3.7798Y2.32
X3.8298Y3.32
X3.8298Y2.32
X3.8798Y3.32
X3.8798Y2.32
X3.9298Y3.32
X3.9298Y2.32
X3.9798Y3.32
X3.9798Y2.32
X4.0298Y3.32
X4.0298Y2.32
X1.951Y2.2413
X1.951Y1.2413
X2.001Y2.2413
X2.001Y1.2413
X2.051Y2.2413
X2.051Y1.2413
X2.101Y2.2413
X2.101Y1.2413
X2.151Y2.2413
X2.151Y1.2413
X2.201Y2.2413
X2.201Y1.2413
X2.251Y2.2413
X2.251Y1.2413
X2.301Y2.2413
X2.301Y1.2413
X2.351Y2.2413
X2.351Y1.2413
X2.401Y2.2413
X2.401Y1.2413
X2.451Y2.2413
X2.451Y1.2413
X2.501Y2.2413
X2.501Y1.2413
X2.551Y2.2413
X2.551Y1.2413
X2.601Y2.2413
X2.601Y1.2413
X2.651Y2.2413
X2.651Y1.2413
X2.701Y2.2413
X2.701Y1.2413
X0.6223Y2.2413
X0.6223Y1.2413
X0.6723Y2.2413
X0.6723Y1.2413
X0.7223Y2.2413
X0.7223Y1.2413
X0.7723Y2.2413
X0.7723Y1.2413
X0.8223Y2.2413
X0.8223Y1.2413
X0.8723Y2.2413
X0.8723Y1.2413
X0.9223Y2.2413
X0.9223Y1.2413
X0.9723Y2.2413
X0.9723Y1.2413
X1.0223Y2.2413
X1.0223Y1.2413
X1.0723Y2.2413
X1.0723Y1.2413
X1.1223Y2.2413
X1.1223Y1.2413
X1.1723Y2.2413
X1.1723Y1.2413
X1.2223Y2.2413
X1.2223Y1.2413
X1.2723Y2.2413
X1.2723Y1.2413
X1.3223Y2.2413
X1.3223Y1.2413
X1.3723Y2.2413
X1.3723Y1.2413
T0
M30
