G04 #@! TF.GenerationSoftware,KiCad,Pcbnew,(5.1.5)-3*
G04 #@! TF.CreationDate,2020-01-06T20:35:26-07:00*
G04 #@! TF.ProjectId,rf_panel,72665f70-616e-4656-9c2e-6b696361645f,A*
G04 #@! TF.SameCoordinates,PX5c3d87cPY8384138*
G04 #@! TF.FileFunction,Profile,NP*
%FSLAX46Y46*%
G04 Gerber Fmt 4.6, Leading zero omitted, Abs format (unit mm)*
G04 Created by KiCad (PCBNEW (5.1.5)-3) date 2020-01-06 20:35:26*
%MOMM*%
%LPD*%
G04 APERTURE LIST*
%ADD10C,0.050000*%
G04 APERTURE END LIST*
D10*
X72000980Y29902540D02*
X72000980Y4502540D01*
X38250980Y29902540D02*
X38250980Y4502540D01*
X4500980Y29902540D02*
X4500980Y4502540D01*
X72000980Y57302540D02*
X72000980Y31902540D01*
X38250980Y57302540D02*
X38250980Y31902540D01*
X4500980Y57302540D02*
X4500980Y31902540D01*
X72000980Y84702540D02*
X72000980Y59302540D01*
X38250980Y84702540D02*
X38250980Y59302540D01*
X103750980Y4502540D02*
X103750980Y29902540D01*
X70000980Y4502540D02*
X70000980Y29902540D01*
X36250980Y4502540D02*
X36250980Y29902540D01*
X103750980Y31902540D02*
X103750980Y57302540D01*
X70000980Y31902540D02*
X70000980Y57302540D01*
X36250980Y31902540D02*
X36250980Y57302540D01*
X103750980Y59302540D02*
X103750980Y84702540D01*
X70000980Y59302540D02*
X70000980Y84702540D01*
X72000980Y4502540D02*
X103750980Y4502540D01*
X38250980Y4502540D02*
X70000980Y4502540D01*
X4500980Y4502540D02*
X36250980Y4502540D01*
X72000980Y31902540D02*
X103750980Y31902540D01*
X38250980Y31902540D02*
X70000980Y31902540D01*
X4500980Y31902540D02*
X36250980Y31902540D01*
X72000980Y59302540D02*
X103750980Y59302540D01*
X38250980Y59302540D02*
X70000980Y59302540D01*
X103750980Y29902540D02*
X72000980Y29902540D01*
X70000980Y29902540D02*
X38250980Y29902540D01*
X36250980Y29902540D02*
X4500980Y29902540D01*
X103750980Y57302540D02*
X72000980Y57302540D01*
X70000980Y57302540D02*
X38250980Y57302540D01*
X36250980Y57302540D02*
X4500980Y57302540D01*
X103750980Y84702540D02*
X72000980Y84702540D01*
X70000980Y84702540D02*
X38250980Y84702540D01*
X104750000Y86700000D02*
G75*
G02X105750000Y85700000I0J-1000000D01*
G01*
X105750000Y85700000D02*
X105750000Y3500000D01*
X2500000Y85700000D02*
X2500000Y3500000D01*
X104750000Y86700000D02*
X3500000Y86700000D01*
X3500000Y2500000D02*
X104750000Y2500000D01*
X110750000Y-2500000D02*
X-2500000Y-2500000D01*
X110750000Y91700000D02*
X110750000Y-2500000D01*
X-2500000Y91700000D02*
X110750000Y91700000D01*
X105750000Y3500000D02*
G75*
G02X104750000Y2500000I-1000000J0D01*
G01*
X-2500000Y-2500000D02*
X-2500000Y91700000D01*
X3500000Y2500000D02*
G75*
G02X2500000Y3500000I0J1000000D01*
G01*
X2500000Y85700000D02*
G75*
G02X3500000Y86700000I1000000J0D01*
G01*
X4500980Y84702540D02*
X4500980Y59302540D01*
X36250980Y84702540D02*
X4500980Y84702540D01*
X36250980Y59302540D02*
X36250980Y84702540D01*
X4500980Y59302540D02*
X36250980Y59302540D01*
M02*
