G04 #@! TF.GenerationSoftware,KiCad,Pcbnew,(5.1.4)-1*
G04 #@! TF.CreationDate,2019-11-03T20:44:50-06:00*
G04 #@! TF.ProjectId,rf_panel,72665f70-616e-4656-9c2e-6b696361645f,A*
G04 #@! TF.SameCoordinates,PX5b136e0PY86f1e60*
G04 #@! TF.FileFunction,Profile,NP*
%FSLAX46Y46*%
G04 Gerber Fmt 4.6, Leading zero omitted, Abs format (unit mm)*
G04 Created by KiCad (PCBNEW (5.1.4)-1) date 2019-11-03 20:44:50*
%MOMM*%
%LPD*%
G04 APERTURE LIST*
%ADD10C,0.050000*%
G04 APERTURE END LIST*
D10*
X72002000Y4498100D02*
X103752000Y4498100D01*
X38252000Y4498100D02*
X70002000Y4498100D01*
X4502000Y4498100D02*
X36252000Y4498100D01*
X72002000Y31898100D02*
X103752000Y31898100D01*
X38252000Y31898100D02*
X70002000Y31898100D01*
X4502000Y31898100D02*
X36252000Y31898100D01*
X72002000Y59298100D02*
X103752000Y59298100D01*
X38252000Y59298100D02*
X70002000Y59298100D01*
X103752000Y29898100D02*
X72002000Y29898100D01*
X70002000Y29898100D02*
X38252000Y29898100D01*
X36252000Y29898100D02*
X4502000Y29898100D01*
X103752000Y57298100D02*
X72002000Y57298100D01*
X70002000Y57298100D02*
X38252000Y57298100D01*
X36252000Y57298100D02*
X4502000Y57298100D01*
X103752000Y84698100D02*
X72002000Y84698100D01*
X70002000Y84698100D02*
X38252000Y84698100D01*
X103752000Y4498100D02*
X103752000Y29898100D01*
X70002000Y4498100D02*
X70002000Y29898100D01*
X36252000Y4498100D02*
X36252000Y29898100D01*
X103752000Y31898100D02*
X103752000Y57298100D01*
X70002000Y31898100D02*
X70002000Y57298100D01*
X36252000Y31898100D02*
X36252000Y57298100D01*
X103752000Y59298100D02*
X103752000Y84698100D01*
X70002000Y59298100D02*
X70002000Y84698100D01*
X72002000Y29898100D02*
X72002000Y4498100D01*
X38252000Y29898100D02*
X38252000Y4498100D01*
X4502000Y29898100D02*
X4502000Y4498100D01*
X72002000Y57298100D02*
X72002000Y31898100D01*
X38252000Y57298100D02*
X38252000Y31898100D01*
X4502000Y57298100D02*
X4502000Y31898100D01*
X72002000Y84698100D02*
X72002000Y59298100D01*
X38252000Y84698100D02*
X38252000Y59298100D01*
X2500000Y85700000D02*
G75*
G02X3500000Y86700000I1000000J0D01*
G01*
X3500000Y2500000D02*
X104750000Y2500000D01*
X3500000Y2500000D02*
G75*
G02X2500000Y3500000I0J1000000D01*
G01*
X104750000Y86700000D02*
G75*
G02X105750000Y85700000I0J-1000000D01*
G01*
X104750000Y86700000D02*
X3500000Y86700000D01*
X2500000Y85700000D02*
X2500000Y3500000D01*
X-2500000Y-2500000D02*
X-2500000Y91700000D01*
X105750000Y85700000D02*
X105750000Y3500000D01*
X110750000Y91700000D02*
X110750000Y-2500000D01*
X105750000Y3500000D02*
G75*
G02X104750000Y2500000I-1000000J0D01*
G01*
X110750000Y-2500000D02*
X-2500000Y-2500000D01*
X-2500000Y91700000D02*
X110750000Y91700000D01*
X4502000Y84698100D02*
X4502000Y59298100D01*
X36252000Y84698100D02*
X4502000Y84698100D01*
X36252000Y59298100D02*
X36252000Y84698100D01*
X4502000Y59298100D02*
X36252000Y59298100D01*
M02*
