M48
METRIC,TZ
T1C0.300
T2C0.350
T3C0.400
T4C0.750
%
G90
G05
T1
X55409Y18798
X55409Y18098
X55409Y16298
X55409Y15598
X57609Y18798
X57609Y17198
X57609Y15598
X89159Y46198
X89159Y45498
X89159Y43698
X89159Y42998
X91359Y46198
X91359Y44598
X91359Y42998
X89159Y18798
X89159Y18098
X89159Y16298
X89159Y15598
X91359Y18798
X91359Y17198
X91359Y15598
X55409Y46198
X55409Y45498
X55409Y43698
X55409Y42998
X57609Y46198
X57609Y44598
X57609Y42998
X89159Y73598
X89159Y72898
X89159Y71098
X89159Y70398
X91359Y73598
X91359Y71998
X91359Y70398
X21659Y73598
X21659Y72898
X21659Y71098
X21659Y70398
X23859Y73598
X23859Y71998
X23859Y70398
X21659Y18798
X21659Y18098
X21659Y16298
X21659Y15598
X23859Y18798
X23859Y17198
X23859Y15598
X21659Y46198
X21659Y45498
X21659Y43698
X21659Y42998
X23859Y46198
X23859Y44598
X23859Y42998
X55409Y73598
X55409Y72898
X55409Y71098
X55409Y70398
X57609Y73598
X57609Y71998
X57609Y70398
T2
X11389Y76375
X11389Y67621
X11389Y48975
X11389Y40221
X11389Y21575
X11389Y12821
X11580Y64183
X11580Y36783
X11580Y9383
X11641Y61525
X11641Y34125
X11641Y6725
X11730Y73704
X11730Y46304
X11730Y18904
X11730Y70292
X11730Y42892
X11730Y15492
X13351Y76284
X13351Y67713
X13351Y48884
X13351Y40313
X13351Y21484
X13351Y12913
X13542Y64183
X13542Y36783
X13542Y9383
X13603Y61525
X13603Y34125
X13603Y6725
X13735Y70546
X13735Y43146
X13735Y15746
X13743Y73448
X13743Y46048
X13743Y18648
X15400Y68223
X15400Y40823
X15400Y13423
X15417Y75769
X15417Y48369
X15417Y20969
X15504Y64183
X15504Y36783
X15504Y9383
X15565Y61525
X15565Y34125
X15565Y6725
X15781Y71057
X15781Y43657
X15781Y16257
X15806Y72932
X15806Y45532
X15806Y18132
X15869Y83746
X15869Y56346
X15869Y28946
X16504Y83746
X16504Y56346
X16504Y28946
X17448Y68734
X17448Y41334
X17448Y13934
X17466Y64183
X17466Y36783
X17466Y9383
X17482Y75260
X17482Y72644
X17482Y71349
X17482Y47860
X17482Y45244
X17482Y43948
X17482Y20460
X17482Y17844
X17482Y16549
X17527Y61525
X17527Y34125
X17527Y6725
X19252Y83298
X19252Y81298
X19252Y79298
X19252Y55898
X19252Y53898
X19252Y51898
X19252Y28498
X19252Y26498
X19252Y24498
X19410Y68734
X19410Y41334
X19410Y13934
X19431Y64185
X19431Y36785
X19431Y9385
X19444Y75260
X19444Y47860
X19444Y20460
X19488Y61531
X19488Y34131
X19488Y6731
X19516Y72332
X19516Y71621
X19516Y44932
X19516Y44221
X19516Y17532
X19516Y16821
X19962Y64999
X19962Y37599
X19962Y10199
X20504Y81079
X20504Y53679
X20504Y26279
X20631Y78158
X20631Y50758
X20631Y23358
X20756Y75073
X20756Y47673
X20756Y20273
X20759Y68898
X20759Y41498
X20759Y14098
X21453Y61536
X21453Y34136
X21453Y6736
X21870Y76316
X21870Y68098
X21870Y48916
X21870Y40698
X21870Y21516
X21870Y13298
X21924Y64999
X21924Y37599
X21924Y10199
X22648Y76316
X22648Y68098
X22648Y48916
X22648Y40698
X22648Y21516
X22648Y13298
X23300Y76824
X23300Y49424
X23300Y22024
X23395Y67738
X23395Y40338
X23395Y12938
X23415Y61536
X23415Y34136
X23415Y6736
X23643Y79686
X23643Y52286
X23643Y24886
X23704Y81185
X23704Y80458
X23704Y53785
X23704Y53058
X23704Y26385
X23704Y25658
X23886Y64999
X23886Y37599
X23886Y10199
X24078Y76824
X24078Y49424
X24078Y22024
X24173Y67738
X24173Y40338
X24173Y12938
X24267Y82633
X24267Y55233
X24267Y27833
X24365Y75935
X24365Y48535
X24365Y21135
X24822Y66944
X24822Y39544
X24822Y12144
X25377Y61536
X25377Y34136
X25377Y6736
X25848Y64999
X25848Y37599
X25848Y10199
X25977Y81078
X25977Y79546
X25977Y53678
X25977Y52146
X25977Y26278
X25977Y24746
X26079Y68968
X26079Y41568
X26079Y14168
X26298Y64194
X26298Y36794
X26298Y9394
X26397Y83555
X26397Y56155
X26397Y28755
X26410Y75364
X26410Y47964
X26410Y20564
X26580Y68379
X26580Y40979
X26580Y13579
X27385Y64386
X27385Y36986
X27385Y9586
X27390Y61658
X27390Y34258
X27390Y6858
X27477Y81078
X27477Y79546
X27477Y53678
X27477Y52146
X27477Y26278
X27477Y24746
X28138Y74810
X28138Y70186
X28138Y47410
X28138Y42786
X28138Y20010
X28138Y15386
X29222Y65350
X29222Y37950
X29222Y10550
X29246Y78683
X29246Y78061
X29246Y51283
X29246Y50661
X29246Y23883
X29246Y23261
X29362Y62310
X29362Y34910
X29362Y7510
X29805Y81871
X29805Y54471
X29805Y27071
X30100Y74810
X30100Y70186
X30100Y47410
X30100Y42786
X30100Y20010
X30100Y15386
X30519Y66969
X30519Y39569
X30519Y12169
X30715Y76375
X30715Y48975
X30715Y21575
X31064Y68970
X31064Y41570
X31064Y14170
X31092Y63458
X31092Y36058
X31092Y8658
X31278Y79026
X31278Y51626
X31278Y24226
X31887Y82734
X31887Y55334
X31887Y27934
X32062Y74810
X32062Y47410
X32062Y20010
X32460Y65020
X32460Y37620
X32460Y10220
X32505Y76824
X32505Y49424
X32505Y22024
X32887Y60873
X32887Y60253
X32887Y33473
X32887Y32853
X32887Y6073
X32887Y5453
X33356Y75072
X33356Y47672
X33356Y20272
X33357Y66895
X33357Y39495
X33357Y12095
X33458Y62854
X33458Y35454
X33458Y8054
X33502Y83298
X33502Y81548
X33502Y55898
X33502Y54148
X33502Y28498
X33502Y26748
X33723Y68938
X33723Y41538
X33723Y14138
X33739Y73045
X33739Y71022
X33739Y45645
X33739Y43622
X33739Y18245
X33739Y16222
X34093Y62854
X34093Y35454
X34093Y8054
X34502Y64048
X34502Y36648
X34502Y9248
X34919Y62473
X34919Y35073
X34919Y7673
X35088Y79940
X35088Y52540
X35088Y25140
X35236Y77815
X35236Y77205
X35236Y50415
X35236Y49805
X35236Y23015
X35236Y22405
X35252Y81548
X35252Y54148
X35252Y26748
X35553Y62473
X35553Y35073
X35553Y7673
X45139Y76375
X45139Y67621
X45139Y48975
X45139Y40221
X45139Y21575
X45139Y12821
X45330Y64183
X45330Y36783
X45330Y9383
X45391Y61525
X45391Y34125
X45391Y6725
X45480Y73704
X45480Y46304
X45480Y18904
X45480Y70292
X45480Y42892
X45480Y15492
X47101Y76284
X47101Y67713
X47101Y48884
X47101Y40313
X47101Y21484
X47101Y12913
X47292Y64183
X47292Y36783
X47292Y9383
X47353Y61525
X47353Y34125
X47353Y6725
X47485Y70546
X47485Y43146
X47485Y15746
X47493Y73448
X47493Y46048
X47493Y18648
X49150Y68223
X49150Y40823
X49150Y13423
X49167Y75769
X49167Y48369
X49167Y20969
X49254Y64183
X49254Y36783
X49254Y9383
X49315Y61525
X49315Y34125
X49315Y6725
X49531Y71057
X49531Y43657
X49531Y16257
X49556Y72932
X49556Y45532
X49556Y18132
X49618Y83746
X49618Y56346
X49618Y28946
X50253Y83746
X50253Y56346
X50253Y28946
X51198Y68734
X51198Y41334
X51198Y13934
X51216Y64183
X51216Y36783
X51216Y9383
X51232Y75260
X51232Y72644
X51232Y71349
X51232Y47860
X51232Y45244
X51232Y43948
X51232Y20460
X51232Y17844
X51232Y16549
X51277Y61525
X51277Y34125
X51277Y6725
X53002Y83298
X53002Y81298
X53002Y79298
X53002Y55898
X53002Y53898
X53002Y51898
X53002Y28498
X53002Y26498
X53002Y24498
X53160Y68734
X53160Y41334
X53160Y13934
X53181Y64185
X53181Y36785
X53181Y9385
X53194Y75260
X53194Y47860
X53194Y20460
X53238Y61531
X53238Y34131
X53238Y6731
X53266Y72332
X53266Y71621
X53266Y44932
X53266Y44221
X53266Y17532
X53266Y16821
X53712Y64999
X53712Y37599
X53712Y10199
X54254Y81079
X54254Y53679
X54254Y26279
X54381Y78158
X54381Y50758
X54381Y23358
X54506Y75073
X54506Y47673
X54506Y20273
X54509Y68898
X54509Y41498
X54509Y14098
X55203Y61536
X55203Y34136
X55203Y6736
X55620Y76316
X55620Y68098
X55620Y48916
X55620Y40698
X55620Y21516
X55620Y13298
X55674Y64999
X55674Y37599
X55674Y10199
X56398Y76316
X56398Y68098
X56398Y48916
X56398Y40698
X56398Y21516
X56398Y13298
X57050Y76824
X57050Y49424
X57050Y22024
X57145Y67738
X57145Y40338
X57145Y12938
X57165Y61536
X57165Y34136
X57165Y6736
X57393Y79686
X57393Y52286
X57393Y24886
X57454Y81185
X57454Y80458
X57454Y53785
X57454Y53058
X57454Y26385
X57454Y25658
X57636Y64999
X57636Y37599
X57636Y10199
X57828Y76824
X57828Y49424
X57828Y22024
X57923Y67738
X57923Y40338
X57923Y12938
X58017Y82633
X58017Y55233
X58017Y27833
X58115Y75935
X58115Y48535
X58115Y21135
X58572Y66944
X58572Y39544
X58572Y12144
X59127Y61536
X59127Y34136
X59127Y6736
X59598Y64999
X59598Y37599
X59598Y10199
X59727Y81078
X59727Y79546
X59727Y53678
X59727Y52146
X59727Y26278
X59727Y24746
X59829Y68968
X59829Y41568
X59829Y14168
X60048Y64194
X60048Y36794
X60048Y9394
X60147Y83555
X60147Y56155
X60147Y28755
X60159Y75364
X60159Y47964
X60159Y20564
X60330Y68379
X60330Y40979
X60330Y13579
X61135Y64386
X61135Y36986
X61135Y9586
X61140Y61658
X61140Y34258
X61140Y6858
X61227Y81078
X61227Y79546
X61227Y53678
X61227Y52146
X61227Y26278
X61227Y24746
X61888Y74810
X61888Y70186
X61888Y47410
X61888Y42786
X61888Y20010
X61888Y15386
X62972Y65350
X62972Y37950
X62972Y10550
X62996Y78683
X62996Y78061
X62996Y51283
X62996Y50661
X62996Y23883
X62996Y23261
X63112Y62310
X63112Y34910
X63112Y7510
X63555Y81871
X63555Y54471
X63555Y27071
X63850Y74810
X63850Y70186
X63850Y47410
X63850Y42786
X63850Y20010
X63850Y15386
X64269Y66969
X64269Y39569
X64269Y12169
X64465Y76375
X64465Y48975
X64465Y21575
X64814Y68970
X64814Y41570
X64814Y14170
X64842Y63458
X64842Y36058
X64842Y8658
X65028Y79026
X65028Y51626
X65028Y24226
X65637Y82734
X65637Y55334
X65637Y27934
X65812Y74810
X65812Y47410
X65812Y20010
X66210Y65020
X66210Y37620
X66210Y10220
X66256Y76824
X66256Y49424
X66256Y22024
X66637Y60873
X66637Y60253
X66637Y33473
X66637Y32853
X66637Y6073
X66637Y5453
X67106Y75072
X67106Y47672
X67106Y20272
X67107Y66895
X67107Y39495
X67107Y12095
X67208Y62854
X67208Y35454
X67208Y8054
X67252Y83298
X67252Y81548
X67252Y55898
X67252Y54148
X67252Y28498
X67252Y26748
X67473Y68938
X67473Y41538
X67473Y14138
X67489Y73045
X67489Y71022
X67489Y45645
X67489Y43622
X67489Y18245
X67489Y16222
X67843Y62854
X67843Y35454
X67843Y8054
X68252Y64048
X68252Y36648
X68252Y9248
X68669Y62473
X68669Y35073
X68669Y7673
X68838Y79940
X68838Y52540
X68838Y25140
X68986Y77815
X68986Y77205
X68986Y50415
X68986Y49805
X68986Y23015
X68986Y22405
X69002Y81548
X69002Y54148
X69002Y26748
X69304Y62473
X69304Y35073
X69304Y7673
X78889Y76375
X78889Y67621
X78889Y48975
X78889Y40221
X78889Y21575
X78889Y12821
X79080Y64183
X79080Y36783
X79080Y9383
X79141Y61525
X79141Y34125
X79141Y6725
X79230Y73704
X79230Y46304
X79230Y18904
X79230Y70292
X79230Y42892
X79230Y15492
X80851Y76284
X80851Y67713
X80851Y48884
X80851Y40313
X80851Y21484
X80851Y12913
X81042Y64183
X81042Y36783
X81042Y9383
X81103Y61525
X81103Y34125
X81103Y6725
X81235Y70546
X81235Y43146
X81235Y15746
X81243Y73448
X81243Y46048
X81243Y18648
X82900Y68223
X82900Y40823
X82900Y13423
X82917Y75769
X82917Y48369
X82917Y20969
X83004Y64183
X83004Y36783
X83004Y9383
X83065Y61525
X83065Y34125
X83065Y6725
X83281Y71057
X83281Y43657
X83281Y16257
X83306Y72932
X83306Y45532
X83306Y18132
X83368Y83746
X83368Y56346
X83368Y28946
X84004Y83746
X84004Y56346
X84004Y28946
X84948Y68734
X84948Y41334
X84948Y13934
X84966Y64183
X84966Y36783
X84966Y9383
X84982Y75260
X84982Y72644
X84982Y71349
X84982Y47860
X84982Y45244
X84982Y43948
X84982Y20460
X84982Y17844
X84982Y16549
X85027Y61525
X85027Y34125
X85027Y6725
X86752Y83298
X86752Y81298
X86752Y79298
X86752Y55898
X86752Y53898
X86752Y51898
X86752Y28498
X86752Y26498
X86752Y24498
X86910Y68734
X86910Y41334
X86910Y13934
X86931Y64185
X86931Y36785
X86931Y9385
X86944Y75260
X86944Y47860
X86944Y20460
X86988Y61531
X86988Y34131
X86988Y6731
X87016Y72332
X87016Y71621
X87016Y44932
X87016Y44221
X87016Y17532
X87016Y16821
X87462Y64999
X87462Y37599
X87462Y10199
X88004Y81079
X88004Y53679
X88004Y26279
X88131Y78158
X88131Y50758
X88131Y23358
X88256Y75073
X88256Y47673
X88256Y20273
X88259Y68898
X88259Y41498
X88259Y14098
X88953Y61536
X88953Y34136
X88953Y6736
X89370Y76316
X89370Y68098
X89370Y48916
X89370Y40698
X89370Y21516
X89370Y13298
X89424Y64999
X89424Y37599
X89424Y10199
X90148Y76316
X90148Y68098
X90148Y48916
X90148Y40698
X90148Y21516
X90148Y13298
X90800Y76824
X90800Y49424
X90800Y22024
X90895Y67738
X90895Y40338
X90895Y12938
X90915Y61536
X90915Y34136
X90915Y6736
X91143Y79686
X91143Y52286
X91143Y24886
X91204Y81185
X91204Y80458
X91204Y53785
X91204Y53058
X91204Y26385
X91204Y25658
X91386Y64999
X91386Y37599
X91386Y10199
X91578Y76824
X91578Y49424
X91578Y22024
X91673Y67738
X91673Y40338
X91673Y12938
X91767Y82633
X91767Y55233
X91767Y27833
X91865Y75935
X91865Y48535
X91865Y21135
X92322Y66944
X92322Y39544
X92322Y12144
X92877Y61536
X92877Y34136
X92877Y6736
X93348Y64999
X93348Y37599
X93348Y10199
X93477Y81078
X93477Y79546
X93477Y53678
X93477Y52146
X93477Y26278
X93477Y24746
X93579Y68968
X93579Y41568
X93579Y14168
X93798Y64194
X93798Y36794
X93798Y9394
X93897Y83555
X93897Y56155
X93897Y28755
X93909Y75364
X93909Y47964
X93909Y20564
X94080Y68379
X94080Y40979
X94080Y13579
X94885Y64386
X94885Y36986
X94885Y9586
X94890Y61658
X94890Y34258
X94890Y6858
X94977Y81078
X94977Y79546
X94977Y53678
X94977Y52146
X94977Y26278
X94977Y24746
X95638Y74810
X95638Y70186
X95638Y47410
X95638Y42786
X95638Y20010
X95638Y15386
X96722Y65350
X96722Y37950
X96722Y10550
X96746Y78683
X96746Y78061
X96746Y51283
X96746Y50661
X96746Y23883
X96746Y23261
X96862Y62310
X96862Y34910
X96862Y7510
X97305Y81871
X97305Y54471
X97305Y27071
X97600Y74810
X97600Y70186
X97600Y47410
X97600Y42786
X97600Y20010
X97600Y15386
X98019Y66969
X98019Y39569
X98019Y12169
X98215Y76375
X98215Y48975
X98215Y21575
X98564Y68970
X98564Y41570
X98564Y14170
X98592Y63458
X98592Y36058
X98592Y8658
X98778Y79026
X98778Y51626
X98778Y24226
X99387Y82734
X99387Y55334
X99387Y27934
X99562Y74810
X99562Y47410
X99562Y20010
X99960Y65020
X99960Y37620
X99960Y10220
X100006Y76824
X100006Y49424
X100006Y22024
X100387Y60873
X100387Y60253
X100387Y33473
X100387Y32853
X100387Y6073
X100387Y5453
X100856Y75072
X100856Y47672
X100856Y20272
X100857Y66895
X100857Y39495
X100857Y12095
X100958Y62854
X100958Y35454
X100958Y8054
X101002Y83298
X101002Y81548
X101002Y55898
X101002Y54148
X101002Y28498
X101002Y26748
X101223Y68938
X101223Y41538
X101223Y14138
X101239Y73045
X101239Y71022
X101239Y45645
X101239Y43622
X101239Y18245
X101239Y16222
X101593Y62854
X101593Y35454
X101593Y8054
X102002Y64048
X102002Y36648
X102002Y9248
X102418Y62473
X102418Y35073
X102418Y7673
X102588Y79940
X102588Y52540
X102588Y25140
X102736Y77815
X102736Y77205
X102736Y50415
X102736Y49805
X102736Y23015
X102736Y22405
X102752Y81548
X102752Y54148
X102752Y26748
X103054Y62473
X103054Y35073
X103054Y7673
T3
X5768Y48746
X5768Y46546
X6948Y45356
X6978Y49946
X9148Y49946
X9198Y45356
X10368Y48946
X10368Y46346
X39518Y70050
X39518Y67850
X40698Y66660
X40728Y71250
X42898Y71250
X42948Y66660
X44118Y70250
X44118Y67650
X73268Y76146
X73268Y73946
X74448Y72756
X74478Y77346
X76648Y77346
X76698Y72756
X77868Y76346
X77868Y73746
X5768Y70050
X5768Y67850
X6948Y66660
X6978Y71250
X9148Y71250
X9198Y66660
X10368Y70250
X10368Y67650
X73268Y36554
X73268Y34354
X74448Y33164
X74478Y37754
X76648Y37754
X76698Y33164
X77868Y36754
X77868Y34154
X39518Y9154
X39518Y6954
X40698Y5764
X40728Y10354
X42898Y10354
X42948Y5764
X44118Y9354
X44118Y6754
X5768Y15250
X5768Y13050
X6948Y11860
X6978Y16450
X9148Y16450
X9198Y11860
X10368Y15450
X10368Y12850
X39518Y42650
X39518Y40450
X40698Y39260
X40728Y43850
X42898Y43850
X42948Y39260
X44118Y42850
X44118Y40250
X73268Y48746
X73268Y46546
X74448Y45356
X74478Y49946
X76648Y49946
X76698Y45356
X77868Y48946
X77868Y46346
X73268Y15250
X73268Y13050
X74448Y11860
X74478Y16450
X76648Y16450
X76698Y11860
X77868Y15450
X77868Y12850
X5768Y21346
X5768Y19146
X6948Y17956
X6978Y22546
X9148Y22546
X9198Y17956
X10368Y21546
X10368Y18946
X5768Y63954
X5768Y61754
X6948Y60564
X6978Y65154
X9148Y65154
X9198Y60564
X10368Y64154
X10368Y61554
X39518Y21346
X39518Y19146
X40698Y17956
X40728Y22546
X42898Y22546
X42948Y17956
X44118Y21546
X44118Y18946
X39518Y36554
X39518Y34354
X40698Y33164
X40728Y37754
X42898Y37754
X42948Y33164
X44118Y36754
X44118Y34154
X5768Y36554
X5768Y34354
X6948Y33164
X6978Y37754
X9148Y37754
X9198Y33164
X10368Y36754
X10368Y34154
X5768Y42650
X5768Y40450
X6948Y39260
X6978Y43850
X9148Y43850
X9198Y39260
X10368Y42850
X10368Y40250
X39518Y63954
X39518Y61754
X40698Y60564
X40728Y65154
X42898Y65154
X42948Y60564
X44118Y64154
X44118Y61554
X39518Y48746
X39518Y46546
X40698Y45356
X40728Y49946
X42898Y49946
X42948Y45356
X44118Y48946
X44118Y46346
X73268Y9154
X73268Y6954
X74448Y5764
X74478Y10354
X76648Y10354
X76698Y5764
X77868Y9354
X77868Y6754
X39518Y76146
X39518Y73946
X40698Y72756
X40728Y77346
X42898Y77346
X42948Y72756
X44118Y76346
X44118Y73746
X73268Y21346
X73268Y19146
X74448Y17956
X74478Y22546
X76648Y22546
X76698Y17956
X77868Y21546
X77868Y18946
X73268Y42650
X73268Y40450
X74448Y39260
X74478Y43850
X76648Y43850
X76698Y39260
X77868Y42850
X77868Y40250
X39518Y15250
X39518Y13050
X40698Y11860
X40728Y16450
X42898Y16450
X42948Y11860
X44118Y15450
X44118Y12850
X5768Y76146
X5768Y73946
X6948Y72756
X6978Y77346
X9148Y77346
X9198Y72756
X10368Y76346
X10368Y73746
X5768Y9154
X5768Y6954
X6948Y5764
X6978Y10354
X9148Y10354
X9198Y5764
X10368Y9354
X10368Y6754
X73268Y63954
X73268Y61754
X74448Y60564
X74478Y65154
X76648Y65154
X76698Y60564
X77868Y64154
X77868Y61554
X73268Y70050
X73268Y67850
X74448Y66660
X74478Y71250
X76648Y71250
X76698Y66660
X77868Y70250
X77868Y67650
T4
X83686Y84698
X83686Y59298
X84956Y84698
X84956Y59298
X86226Y84698
X86226Y59298
X87496Y84698
X87496Y59298
X88766Y84698
X88766Y59298
X90036Y84698
X90036Y59298
X91306Y84698
X91306Y59298
X92576Y84698
X92576Y59298
X93846Y84698
X93846Y59298
X95116Y84698
X95116Y59298
X96386Y84698
X96386Y59298
X97656Y84698
X97656Y59298
X98926Y84698
X98926Y59298
X100196Y84698
X100196Y59298
X101466Y84698
X101466Y59298
X102736Y84698
X102736Y59298
X16186Y29898
X16186Y4498
X17456Y29898
X17456Y4498
X18726Y29898
X18726Y4498
X19996Y29898
X19996Y4498
X21266Y29898
X21266Y4498
X22536Y29898
X22536Y4498
X23806Y29898
X23806Y4498
X25076Y29898
X25076Y4498
X26346Y29898
X26346Y4498
X27616Y29898
X27616Y4498
X28886Y29898
X28886Y4498
X30156Y29898
X30156Y4498
X31426Y29898
X31426Y4498
X32696Y29898
X32696Y4498
X33966Y29898
X33966Y4498
X35236Y29898
X35236Y4498
X16186Y84698
X16186Y59298
X17456Y84698
X17456Y59298
X18726Y84698
X18726Y59298
X19996Y84698
X19996Y59298
X21266Y84698
X21266Y59298
X22536Y84698
X22536Y59298
X23806Y84698
X23806Y59298
X25076Y84698
X25076Y59298
X26346Y84698
X26346Y59298
X27616Y84698
X27616Y59298
X28886Y84698
X28886Y59298
X30156Y84698
X30156Y59298
X31426Y84698
X31426Y59298
X32696Y84698
X32696Y59298
X33966Y84698
X33966Y59298
X35236Y84698
X35236Y59298
X83686Y29898
X83686Y4498
X84956Y29898
X84956Y4498
X86226Y29898
X86226Y4498
X87496Y29898
X87496Y4498
X88766Y29898
X88766Y4498
X90036Y29898
X90036Y4498
X91306Y29898
X91306Y4498
X92576Y29898
X92576Y4498
X93846Y29898
X93846Y4498
X95116Y29898
X95116Y4498
X96386Y29898
X96386Y4498
X97656Y29898
X97656Y4498
X98926Y29898
X98926Y4498
X100196Y29898
X100196Y4498
X101466Y29898
X101466Y4498
X102736Y29898
X102736Y4498
X16186Y57298
X16186Y31898
X17456Y57298
X17456Y31898
X18726Y57298
X18726Y31898
X19996Y57298
X19996Y31898
X21266Y57298
X21266Y31898
X22536Y57298
X22536Y31898
X23806Y57298
X23806Y31898
X25076Y57298
X25076Y31898
X26346Y57298
X26346Y31898
X27616Y57298
X27616Y31898
X28886Y57298
X28886Y31898
X30156Y57298
X30156Y31898
X31426Y57298
X31426Y31898
X32696Y57298
X32696Y31898
X33966Y57298
X33966Y31898
X35236Y57298
X35236Y31898
X49936Y84698
X49936Y59298
X51206Y84698
X51206Y59298
X52476Y84698
X52476Y59298
X53746Y84698
X53746Y59298
X55016Y84698
X55016Y59298
X56286Y84698
X56286Y59298
X57556Y84698
X57556Y59298
X58826Y84698
X58826Y59298
X60096Y84698
X60096Y59298
X61366Y84698
X61366Y59298
X62636Y84698
X62636Y59298
X63906Y84698
X63906Y59298
X65176Y84698
X65176Y59298
X66446Y84698
X66446Y59298
X67716Y84698
X67716Y59298
X68986Y84698
X68986Y59298
X49936Y57298
X49936Y31898
X51206Y57298
X51206Y31898
X52476Y57298
X52476Y31898
X53746Y57298
X53746Y31898
X55016Y57298
X55016Y31898
X56286Y57298
X56286Y31898
X57556Y57298
X57556Y31898
X58826Y57298
X58826Y31898
X60096Y57298
X60096Y31898
X61366Y57298
X61366Y31898
X62636Y57298
X62636Y31898
X63906Y57298
X63906Y31898
X65176Y57298
X65176Y31898
X66446Y57298
X66446Y31898
X67716Y57298
X67716Y31898
X68986Y57298
X68986Y31898
X49936Y29898
X49936Y4498
X51206Y29898
X51206Y4498
X52476Y29898
X52476Y4498
X53746Y29898
X53746Y4498
X55016Y29898
X55016Y4498
X56286Y29898
X56286Y4498
X57556Y29898
X57556Y4498
X58826Y29898
X58826Y4498
X60096Y29898
X60096Y4498
X61366Y29898
X61366Y4498
X62636Y29898
X62636Y4498
X63906Y29898
X63906Y4498
X65176Y29898
X65176Y4498
X66446Y29898
X66446Y4498
X67716Y29898
X67716Y4498
X68986Y29898
X68986Y4498
X83686Y57298
X83686Y31898
X84956Y57298
X84956Y31898
X86226Y57298
X86226Y31898
X87496Y57298
X87496Y31898
X88766Y57298
X88766Y31898
X90036Y57298
X90036Y31898
X91306Y57298
X91306Y31898
X92576Y57298
X92576Y31898
X93846Y57298
X93846Y31898
X95116Y57298
X95116Y31898
X96386Y57298
X96386Y31898
X97656Y57298
X97656Y31898
X98926Y57298
X98926Y31898
X100196Y57298
X100196Y31898
X101466Y57298
X101466Y31898
X102736Y57298
X102736Y31898
T0
M30
