M48
METRIC,TZ
T1C0.400
%
G90
G05
T1
X-36161Y-3493
X-36161Y-4093
X-36161Y-4693
X-36161Y-5293
X-34161Y-3493
X-34161Y-4093
X-34161Y-4693
X-34161Y-5293
X65089Y-20893
X65089Y-21493
X65089Y-22093
X65089Y-22693
X67089Y-20893
X67089Y-21493
X67089Y-22093
X67089Y-22693
X-2411Y51307
X-2411Y50707
X-2411Y50107
X-2411Y49507
X-411Y51307
X-411Y50707
X-411Y50107
X-411Y49507
X-36161Y51307
X-36161Y50707
X-36161Y50107
X-36161Y49507
X-34161Y51307
X-34161Y50707
X-34161Y50107
X-34161Y49507
X31339Y23907
X31339Y23307
X31339Y22707
X31339Y22107
X33339Y23907
X33339Y23307
X33339Y22707
X33339Y22107
X31339Y33907
X31339Y33307
X31339Y32707
X31339Y32107
X33339Y33907
X33339Y33307
X33339Y32707
X33339Y32107
X-2411Y-3493
X-2411Y-4093
X-2411Y-4693
X-2411Y-5293
X-411Y-3493
X-411Y-4093
X-411Y-4693
X-411Y-5293
X-36161Y33907
X-36161Y33307
X-36161Y32707
X-36161Y32107
X-34161Y33907
X-34161Y33307
X-34161Y32707
X-34161Y32107
X65089Y23907
X65089Y23307
X65089Y22707
X65089Y22107
X67089Y23907
X67089Y23307
X67089Y22707
X67089Y22107
X-36161Y23907
X-36161Y23307
X-36161Y22707
X-36161Y22107
X-34161Y23907
X-34161Y23307
X-34161Y22707
X-34161Y22107
X31339Y-3493
X31339Y-4093
X31339Y-4693
X31339Y-5293
X33339Y-3493
X33339Y-4093
X33339Y-4693
X33339Y-5293
X-2411Y6507
X-2411Y5907
X-2411Y5307
X-2411Y4707
X-411Y6507
X-411Y5907
X-411Y5307
X-411Y4707
X65089Y6507
X65089Y5907
X65089Y5307
X65089Y4707
X67089Y6507
X67089Y5907
X67089Y5307
X67089Y4707
X65089Y-3493
X65089Y-4093
X65089Y-4693
X65089Y-5293
X67089Y-3493
X67089Y-4093
X67089Y-4693
X67089Y-5293
X-36161Y6507
X-36161Y5907
X-36161Y5307
X-36161Y4707
X-34161Y6507
X-34161Y5907
X-34161Y5307
X-34161Y4707
X-2411Y23907
X-2411Y23307
X-2411Y22707
X-2411Y22107
X-411Y23907
X-411Y23307
X-411Y22707
X-411Y22107
X-2411Y33907
X-2411Y33307
X-2411Y32707
X-2411Y32107
X-411Y33907
X-411Y33307
X-411Y32707
X-411Y32107
X31339Y51307
X31339Y50707
X31339Y50107
X31339Y49507
X33339Y51307
X33339Y50707
X33339Y50107
X33339Y49507
X-36161Y-20893
X-36161Y-21493
X-36161Y-22093
X-36161Y-22693
X-34161Y-20893
X-34161Y-21493
X-34161Y-22093
X-34161Y-22693
X-2411Y-20893
X-2411Y-21493
X-2411Y-22093
X-2411Y-22693
X-411Y-20893
X-411Y-21493
X-411Y-22093
X-411Y-22693
X65089Y51307
X65089Y50707
X65089Y50107
X65089Y49507
X67089Y51307
X67089Y50707
X67089Y50107
X67089Y49507
X65089Y33907
X65089Y33307
X65089Y32707
X65089Y32107
X67089Y33907
X67089Y33307
X67089Y32707
X67089Y32107
X31339Y-20893
X31339Y-21493
X31339Y-22093
X31339Y-22693
X33339Y-20893
X33339Y-21493
X33339Y-22093
X33339Y-22693
X31339Y6507
X31339Y5907
X31339Y5307
X31339Y4707
X33339Y6507
X33339Y5907
X33339Y5307
X33339Y4707
T0
M30
