G04 #@! TF.GenerationSoftware,KiCad,Pcbnew,(5.1.4)-1*
G04 #@! TF.CreationDate,2019-11-04T20:33:43-06:00*
G04 #@! TF.ProjectId,rf_panel,72665f70-616e-4656-9c2e-6b696361645f,A*
G04 #@! TF.SameCoordinates,PX811c3f0PY66a06fc*
G04 #@! TF.FileFunction,Profile,NP*
%FSLAX46Y46*%
G04 Gerber Fmt 4.6, Leading zero omitted, Abs format (unit mm)*
G04 Created by KiCad (PCBNEW (5.1.4)-1) date 2019-11-04 20:33:43*
%MOMM*%
%LPD*%
G04 APERTURE LIST*
%ADD10C,0.050000*%
G04 APERTURE END LIST*
D10*
X33340000Y-390000D02*
X33340000Y-25790000D01*
X-410000Y-390000D02*
X-410000Y-25790000D01*
X-34160000Y-390000D02*
X-34160000Y-25790000D01*
X33340000Y27010000D02*
X33340000Y1610000D01*
X-410000Y27010000D02*
X-410000Y1610000D01*
X-34160000Y27010000D02*
X-34160000Y1610000D01*
X33340000Y54410000D02*
X33340000Y29010000D01*
X-410000Y54410000D02*
X-410000Y29010000D01*
X65090000Y-25790000D02*
X65090000Y-390000D01*
X31340000Y-25790000D02*
X31340000Y-390000D01*
X-2410000Y-25790000D02*
X-2410000Y-390000D01*
X65090000Y1610000D02*
X65090000Y27010000D01*
X31340000Y1610000D02*
X31340000Y27010000D01*
X-2410000Y1610000D02*
X-2410000Y27010000D01*
X65090000Y29010000D02*
X65090000Y54410000D01*
X31340000Y29010000D02*
X31340000Y54410000D01*
X33340000Y-25790000D02*
X65090000Y-25790000D01*
X-410000Y-25790000D02*
X31340000Y-25790000D01*
X-34160000Y-25790000D02*
X-2410000Y-25790000D01*
X33340000Y1610000D02*
X65090000Y1610000D01*
X-410000Y1610000D02*
X31340000Y1610000D01*
X-34160000Y1610000D02*
X-2410000Y1610000D01*
X33340000Y29010000D02*
X65090000Y29010000D01*
X-410000Y29010000D02*
X31340000Y29010000D01*
X65090000Y-390000D02*
X33340000Y-390000D01*
X31340000Y-390000D02*
X-410000Y-390000D01*
X-2410000Y-390000D02*
X-34160000Y-390000D01*
X65090000Y27010000D02*
X33340000Y27010000D01*
X31340000Y27010000D02*
X-410000Y27010000D01*
X-2410000Y27010000D02*
X-34160000Y27010000D01*
X65090000Y54410000D02*
X33340000Y54410000D01*
X31340000Y54410000D02*
X-410000Y54410000D01*
X66089020Y56407460D02*
G75*
G02X67089020Y55407460I0J-1000000D01*
G01*
X67089020Y55407460D02*
X67089020Y-26792540D01*
X-36160980Y55407460D02*
X-36160980Y-26792540D01*
X66089020Y56407460D02*
X-35160980Y56407460D01*
X-35160980Y-27792540D02*
X66089020Y-27792540D01*
X72089020Y-32792540D02*
X-41160980Y-32792540D01*
X72089020Y61407460D02*
X72089020Y-32792540D01*
X-41160980Y61407460D02*
X72089020Y61407460D01*
X67089020Y-26792540D02*
G75*
G02X66089020Y-27792540I-1000000J0D01*
G01*
X-41160980Y-32792540D02*
X-41160980Y61407460D01*
X-35160980Y-27792540D02*
G75*
G02X-36160980Y-26792540I0J1000000D01*
G01*
X-36160980Y55407460D02*
G75*
G02X-35160980Y56407460I1000000J0D01*
G01*
X-34160000Y54410000D02*
X-34160000Y29010000D01*
X-2410000Y54410000D02*
X-34160000Y54410000D01*
X-2410000Y29010000D02*
X-2410000Y54410000D01*
X-34160000Y29010000D02*
X-2410000Y29010000D01*
M02*
