M48
METRIC,TZ
T1C0.400
%
G90
G05
T1
X103750Y36800
X103750Y36200
X103750Y35600
X103750Y35000
X105750Y36800
X105750Y36200
X105750Y35600
X105750Y35000
X36250Y54200
X36250Y53600
X36250Y53000
X36250Y52400
X38250Y54200
X38250Y53600
X38250Y53000
X38250Y52400
X70000Y54200
X70000Y53600
X70000Y53000
X70000Y52400
X72000Y54200
X72000Y53600
X72000Y53000
X72000Y52400
X103750Y54200
X103750Y53600
X103750Y53000
X103750Y52400
X105750Y54200
X105750Y53600
X105750Y53000
X105750Y52400
X36250Y9400
X36250Y8800
X36250Y8200
X36250Y7600
X38250Y9400
X38250Y8800
X38250Y8200
X38250Y7600
X2500Y36800
X2500Y36200
X2500Y35600
X2500Y35000
X4500Y36800
X4500Y36200
X4500Y35600
X4500Y35000
X36250Y64200
X36250Y63600
X36250Y63000
X36250Y62400
X38250Y64200
X38250Y63600
X38250Y63000
X38250Y62400
X70000Y26800
X70000Y26200
X70000Y25600
X70000Y25000
X72000Y26800
X72000Y26200
X72000Y25600
X72000Y25000
X103750Y81600
X103750Y81000
X103750Y80400
X103750Y79800
X105750Y81600
X105750Y81000
X105750Y80400
X105750Y79800
X70000Y36800
X70000Y36200
X70000Y35600
X70000Y35000
X72000Y36800
X72000Y36200
X72000Y35600
X72000Y35000
X2500Y9400
X2500Y8800
X2500Y8200
X2500Y7600
X4500Y9400
X4500Y8800
X4500Y8200
X4500Y7600
X2500Y26800
X2500Y26200
X2500Y25600
X2500Y25000
X4500Y26800
X4500Y26200
X4500Y25600
X4500Y25000
X36250Y81600
X36250Y81000
X36250Y80400
X36250Y79800
X38250Y81600
X38250Y81000
X38250Y80400
X38250Y79800
X36250Y36800
X36250Y36200
X36250Y35600
X36250Y35000
X38250Y36800
X38250Y36200
X38250Y35600
X38250Y35000
X2500Y64200
X2500Y63600
X2500Y63000
X2500Y62400
X4500Y64200
X4500Y63600
X4500Y63000
X4500Y62400
X103750Y64200
X103750Y63600
X103750Y63000
X103750Y62400
X105750Y64200
X105750Y63600
X105750Y63000
X105750Y62400
X70000Y9400
X70000Y8800
X70000Y8200
X70000Y7600
X72000Y9400
X72000Y8800
X72000Y8200
X72000Y7600
X70000Y81600
X70000Y81000
X70000Y80400
X70000Y79800
X72000Y81600
X72000Y81000
X72000Y80400
X72000Y79800
X36250Y26800
X36250Y26200
X36250Y25600
X36250Y25000
X38250Y26800
X38250Y26200
X38250Y25600
X38250Y25000
X70000Y64200
X70000Y63600
X70000Y63000
X70000Y62400
X72000Y64200
X72000Y63600
X72000Y63000
X72000Y62400
X2500Y81600
X2500Y81000
X2500Y80400
X2500Y79800
X4500Y81600
X4500Y81000
X4500Y80400
X4500Y79800
X103750Y9400
X103750Y8800
X103750Y8200
X103750Y7600
X105750Y9400
X105750Y8800
X105750Y8200
X105750Y7600
X103750Y26800
X103750Y26200
X103750Y25600
X103750Y25000
X105750Y26800
X105750Y26200
X105750Y25600
X105750Y25000
X2500Y54200
X2500Y53600
X2500Y53000
X2500Y52400
X4500Y54200
X4500Y53600
X4500Y53000
X4500Y52400
T0
M30
