G04 #@! TF.GenerationSoftware,KiCad,Pcbnew,5.1.4-e60b266~84~ubuntu18.04.1*
G04 #@! TF.CreationDate,2019-11-20T19:53:48-06:00*
G04 #@! TF.ProjectId,rf_panel,72665f70-616e-4656-9c2e-6b696361645f,A*
G04 #@! TF.SameCoordinates,PX5c3d87cPY8384138*
G04 #@! TF.FileFunction,Other,ECO1*
%FSLAX46Y46*%
G04 Gerber Fmt 4.6, Leading zero omitted, Abs format (unit mm)*
G04 Created by KiCad (PCBNEW 5.1.4-e60b266~84~ubuntu18.04.1) date 2019-11-20 19:53:48*
%MOMM*%
%LPD*%
G04 APERTURE LIST*
%ADD10C,2.000000*%
G04 APERTURE END LIST*
D10*
X104750000Y37800000D02*
X104750000Y51300000D01*
X71000000Y37800000D02*
X71000000Y51300000D01*
X37250000Y55200000D02*
X37250000Y61300000D01*
X37250000Y3500000D02*
X37250000Y6500000D01*
X104750000Y55200000D02*
X104750000Y61300000D01*
X71000000Y10400000D02*
X71000000Y23900000D01*
X3500000Y55200000D02*
X3500000Y61300000D01*
X71000000Y85700000D02*
X71000000Y82700000D01*
X104750000Y85700000D02*
X3500000Y85700000D01*
X37250000Y27900000D02*
X37250000Y33900000D01*
X104750000Y85700000D02*
X104750000Y82700000D01*
X3500000Y65200000D02*
X3500000Y78700000D01*
X37250000Y37800000D02*
X37250000Y51300000D01*
X104750000Y3500000D02*
X104750000Y6500000D01*
X3500000Y3500000D02*
X3500000Y6500000D01*
X71000000Y3500000D02*
X71000000Y6500000D01*
X71000000Y27900000D02*
X71000000Y33900000D01*
X104750000Y65200000D02*
X104750000Y78700000D01*
X104750000Y58300000D02*
X3500000Y58300000D01*
X3500000Y37800000D02*
X3500000Y51300000D01*
X3500000Y10400000D02*
X3500000Y23900000D01*
X71000000Y65200000D02*
X71000000Y78700000D01*
X104750000Y27900000D02*
X104750000Y33900000D01*
X104750000Y30900000D02*
X3500000Y30900000D01*
X3500000Y85700000D02*
X3500000Y82700000D01*
X104750000Y10400000D02*
X104750000Y23900000D01*
X37250000Y65200000D02*
X37250000Y78700000D01*
X37250000Y85700000D02*
X37250000Y82700000D01*
X37250000Y10400000D02*
X37250000Y23900000D01*
X71000000Y55200000D02*
X71000000Y61300000D01*
X3500000Y3500000D02*
X104750000Y3500000D01*
X3500000Y27900000D02*
X3500000Y33900000D01*
M02*
