M48
; DRILL file {KiCad 5.1.4-e60b266~84~ubuntu18.04.1} date Wed 20 Nov 2019 07:53:55 PM CST
; FORMAT={-:-/ absolute / inch / decimal}
; #@! TF.CreationDate,2019-11-20T19:53:55-06:00
; #@! TF.GenerationSoftware,Kicad,Pcbnew,5.1.4-e60b266~84~ubuntu18.04.1
; #@! TF.FileFunction,Plated,1,4,PTH
FMAT,2
INCH
T1C0.0118
T2C0.0138
T3C0.0157
T4C0.0236
%
G90
G05
T1
X2.1814Y0.7403
X2.1814Y0.7127
X2.1814Y0.6418
X2.1814Y0.6143
X2.268Y0.7403
X2.268Y0.6773
X2.268Y0.6143
X3.5102Y1.819
X3.5102Y1.7914
X3.5102Y1.7206
X3.5102Y1.693
X3.5968Y1.819
X3.5968Y1.756
X3.5968Y1.693
X0.8527Y1.819
X0.8527Y1.7914
X0.8527Y1.7206
X0.8527Y1.693
X0.9393Y1.819
X0.9393Y1.756
X0.9393Y1.693
X2.1814Y2.8977
X2.1814Y2.8702
X2.1814Y2.7993
X2.1814Y2.7718
X2.268Y2.8977
X2.268Y2.8347
X2.268Y2.7718
X2.1814Y1.819
X2.1814Y1.7914
X2.1814Y1.7206
X2.1814Y1.693
X2.268Y1.819
X2.268Y1.756
X2.268Y1.693
X3.5102Y2.8977
X3.5102Y2.8702
X3.5102Y2.7993
X3.5102Y2.7718
X3.5968Y2.8977
X3.5968Y2.8347
X3.5968Y2.7718
X0.8527Y0.7403
X0.8527Y0.7127
X0.8527Y0.6418
X0.8527Y0.6143
X0.9393Y0.7403
X0.9393Y0.6773
X0.9393Y0.6143
X3.5102Y0.7403
X3.5102Y0.7127
X3.5102Y0.6418
X3.5102Y0.6143
X3.5968Y0.7403
X3.5968Y0.6773
X3.5968Y0.6143
X0.8527Y2.8977
X0.8527Y2.8702
X0.8527Y2.7993
X0.8527Y2.7718
X0.9393Y2.8977
X0.9393Y2.8347
X0.9393Y2.7718
T2
X0.4484Y3.0071
X0.4484Y2.6624
X0.4484Y1.9283
X0.4484Y1.5837
X0.4484Y0.8496
X0.4484Y0.505
X0.4559Y2.5271
X0.4559Y1.4483
X0.4559Y0.3696
X0.4583Y2.4224
X0.4583Y1.3437
X0.4583Y0.265
X0.4618Y2.9019
X0.4618Y1.8232
X0.4618Y0.7444
X0.4618Y2.7676
X0.4618Y1.6888
X0.4618Y0.6101
X0.5256Y3.0035
X0.5256Y2.666
X0.5256Y1.9247
X0.5256Y1.5873
X0.5256Y0.846
X0.5256Y0.5085
X0.5331Y2.5271
X0.5331Y1.4483
X0.5331Y0.3696
X0.5355Y2.4224
X0.5355Y1.3437
X0.5355Y0.265
X0.5407Y2.7776
X0.5407Y1.6988
X0.5407Y0.6201
X0.541Y2.8918
X0.541Y1.8131
X0.541Y0.7343
X0.6063Y2.6861
X0.6063Y1.6074
X0.6063Y0.5286
X0.6069Y2.9832
X0.6069Y1.9045
X0.6069Y0.8257
X0.6104Y2.5271
X0.6104Y1.4483
X0.6104Y0.3696
X0.6127Y2.4224
X0.6127Y1.3437
X0.6127Y0.265
X0.6213Y2.7977
X0.6213Y1.7189
X0.6213Y0.6402
X0.6223Y2.8715
X0.6223Y1.7928
X0.6223Y0.714
X0.6247Y3.2972
X0.6247Y2.2185
X0.6247Y1.1398
X0.6497Y3.2972
X0.6497Y2.2185
X0.6497Y1.1398
X0.6869Y2.7062
X0.6869Y1.6275
X0.6869Y0.5487
X0.6876Y2.5271
X0.6876Y1.4483
X0.6876Y0.3696
X0.6882Y2.9632
X0.6882Y2.8602
X0.6882Y2.8092
X0.6882Y1.8844
X0.6882Y1.7814
X0.6882Y1.7304
X0.6882Y0.8057
X0.6882Y0.7027
X0.6882Y0.6517
X0.69Y2.4224
X0.69Y1.3437
X0.69Y0.265
X0.7579Y3.2796
X0.7579Y3.2009
X0.7579Y3.1221
X0.7579Y2.2009
X0.7579Y2.1221
X0.7579Y2.0434
X0.7579Y1.1221
X0.7579Y1.0434
X0.7579Y0.9647
X0.7641Y2.7062
X0.7641Y1.6275
X0.7641Y0.5487
X0.765Y2.5271
X0.765Y1.4484
X0.765Y0.3697
X0.7655Y2.9632
X0.7655Y1.8844
X0.7655Y0.8057
X0.7672Y2.4226
X0.7672Y1.3439
X0.7672Y0.2652
X0.7683Y2.8479
X0.7683Y2.8199
X0.7683Y1.7692
X0.7683Y1.7412
X0.7683Y0.6904
X0.7683Y0.6624
X0.7859Y2.5592
X0.7859Y1.4804
X0.7859Y0.4017
X0.8072Y3.1922
X0.8072Y2.1135
X0.8072Y1.0348
X0.8122Y3.0772
X0.8122Y1.9985
X0.8122Y0.9198
X0.8171Y2.9558
X0.8171Y1.8771
X0.8171Y0.7983
X0.8172Y2.7127
X0.8172Y1.634
X0.8172Y0.5552
X0.8446Y2.4229
X0.8446Y1.3441
X0.8446Y0.2654
X0.861Y3.0047
X0.861Y2.6812
X0.861Y1.926
X0.861Y1.6025
X0.861Y0.8473
X0.861Y0.5237
X0.8631Y2.5592
X0.8631Y1.4804
X0.8631Y0.4017
X0.8916Y3.0047
X0.8916Y2.6812
X0.8916Y1.926
X0.8916Y1.6025
X0.8916Y0.8473
X0.8916Y0.5237
X0.9173Y3.0247
X0.9173Y1.946
X0.9173Y0.8673
X0.921Y2.667
X0.921Y1.5883
X0.921Y0.5095
X0.9218Y2.4229
X0.9218Y1.3441
X0.9218Y0.2654
X0.9308Y3.1374
X0.9308Y2.0587
X0.9308Y0.98
X0.9332Y3.1964
X0.9332Y3.1678
X0.9332Y2.1177
X0.9332Y2.0891
X0.9332Y1.039
X0.9332Y1.0103
X0.9404Y2.5592
X0.9404Y1.4804
X0.9404Y0.4017
X0.9479Y3.0247
X0.9479Y1.946
X0.9479Y0.8673
X0.9517Y2.667
X0.9517Y1.5883
X0.9517Y0.5095
X0.9554Y3.2534
X0.9554Y2.1747
X0.9554Y1.096
X0.9592Y2.9897
X0.9592Y1.911
X0.9592Y0.8323
X0.9686Y2.6937
X0.9686Y1.615
X0.9686Y0.5363
X0.9991Y2.4229
X0.9991Y1.3441
X0.9991Y0.2654
X1.0176Y2.5592
X1.0176Y1.4804
X1.0176Y0.4017
X1.0227Y3.1922
X1.0227Y3.1319
X1.0227Y2.1135
X1.0227Y2.0532
X1.0227Y1.0347
X1.0227Y0.9744
X1.0267Y2.7154
X1.0267Y1.6367
X1.0267Y0.558
X1.0353Y2.5275
X1.0353Y1.4487
X1.0353Y0.37
X1.0392Y3.2897
X1.0392Y2.211
X1.0392Y1.1323
X1.0464Y2.6922
X1.0464Y1.6135
X1.0464Y0.5348
X1.0622Y2.9914
X1.0622Y1.9127
X1.0622Y0.834
X1.0781Y2.535
X1.0781Y1.4563
X1.0781Y0.3776
X1.0783Y2.4276
X1.0783Y1.3489
X1.0783Y0.2702
X1.0817Y3.1922
X1.0817Y3.1319
X1.0817Y2.1135
X1.0817Y2.0532
X1.0817Y1.0347
X1.0817Y0.9744
X1.1078Y2.9455
X1.1078Y2.7634
X1.1078Y1.8667
X1.1078Y1.6847
X1.1078Y0.788
X1.1078Y0.6059
X1.1504Y2.573
X1.1504Y1.4943
X1.1504Y0.4155
X1.1514Y3.0979
X1.1514Y3.0734
X1.1514Y2.0192
X1.1514Y1.9947
X1.1514Y0.9405
X1.1514Y0.916
X1.1559Y2.4533
X1.1559Y1.3746
X1.1559Y0.2958
X1.1734Y3.2234
X1.1734Y2.1447
X1.1734Y1.066
X1.185Y2.9455
X1.185Y2.7634
X1.185Y1.8667
X1.185Y1.6847
X1.185Y0.788
X1.185Y0.6059
X1.2015Y2.6368
X1.2015Y1.558
X1.2015Y0.4793
X1.2092Y3.0071
X1.2092Y1.9283
X1.2092Y0.8496
X1.223Y2.7155
X1.223Y1.6368
X1.223Y0.558
X1.224Y2.4985
X1.224Y1.4198
X1.224Y0.341
X1.2314Y3.1114
X1.2314Y2.0327
X1.2314Y0.954
X1.2554Y3.2574
X1.2554Y2.1787
X1.2554Y1.1
X1.2623Y2.9455
X1.2623Y1.8667
X1.2623Y0.788
X1.2779Y2.56
X1.2779Y1.4813
X1.2779Y0.4026
X1.2797Y3.0247
X1.2797Y1.946
X1.2797Y0.8673
X1.2947Y2.3967
X1.2947Y2.3723
X1.2947Y1.318
X1.2947Y1.2936
X1.2947Y0.2393
X1.2947Y0.2149
X1.3132Y2.9557
X1.3132Y1.877
X1.3132Y0.7983
X1.3132Y2.6338
X1.3132Y1.5551
X1.3132Y0.4763
X1.3172Y2.4747
X1.3172Y1.396
X1.3172Y0.3173
X1.3189Y3.2796
X1.3189Y3.2107
X1.3189Y2.2009
X1.3189Y2.132
X1.3189Y1.1221
X1.3189Y1.0532
X1.3277Y2.7143
X1.3277Y1.6355
X1.3277Y0.5568
X1.3283Y2.8759
X1.3283Y2.7963
X1.3283Y1.7972
X1.3283Y1.7176
X1.3283Y0.7185
X1.3283Y0.6388
X1.3422Y2.4747
X1.3422Y1.396
X1.3422Y0.3173
X1.3583Y2.5218
X1.3583Y1.443
X1.3583Y0.3643
X1.3747Y2.4597
X1.3747Y1.381
X1.3747Y0.3023
X1.3814Y3.1474
X1.3814Y2.0687
X1.3814Y0.99
X1.3872Y3.0637
X1.3872Y3.0397
X1.3872Y1.985
X1.3872Y1.961
X1.3872Y0.9063
X1.3872Y0.8823
X1.3878Y3.2107
X1.3878Y2.132
X1.3878Y1.0532
X1.3997Y2.4597
X1.3997Y1.381
X1.3997Y0.3023
X1.7771Y3.0071
X1.7771Y2.6624
X1.7771Y1.9283
X1.7771Y1.5837
X1.7771Y0.8496
X1.7771Y0.505
X1.7846Y2.5271
X1.7846Y1.4483
X1.7846Y0.3696
X1.787Y2.4224
X1.787Y1.3437
X1.787Y0.265
X1.7905Y2.9019
X1.7905Y1.8232
X1.7905Y0.7444
X1.7905Y2.7676
X1.7905Y1.6888
X1.7905Y0.6101
X1.8543Y3.0035
X1.8543Y2.666
X1.8543Y1.9247
X1.8543Y1.5873
X1.8543Y0.846
X1.8543Y0.5085
X1.8619Y2.5271
X1.8619Y1.4483
X1.8619Y0.3696
X1.8642Y2.4224
X1.8642Y1.3437
X1.8642Y0.265
X1.8694Y2.7776
X1.8694Y1.6988
X1.8694Y0.6201
X1.8698Y2.8918
X1.8698Y1.8131
X1.8698Y0.7343
X1.935Y2.6861
X1.935Y1.6074
X1.935Y0.5286
X1.9357Y2.9832
X1.9357Y1.9045
X1.9357Y0.8257
X1.9391Y2.5271
X1.9391Y1.4483
X1.9391Y0.3696
X1.9415Y2.4224
X1.9415Y1.3437
X1.9415Y0.265
X1.95Y2.7977
X1.95Y1.7189
X1.95Y0.6402
X1.951Y2.8715
X1.951Y1.7928
X1.951Y0.714
X1.9534Y3.2972
X1.9534Y2.2185
X1.9534Y1.1398
X1.9784Y3.2972
X1.9784Y2.2185
X1.9784Y1.1398
X2.0156Y2.7062
X2.0156Y1.6275
X2.0156Y0.5487
X2.0163Y2.5271
X2.0163Y1.4483
X2.0163Y0.3696
X2.017Y2.9632
X2.017Y2.8602
X2.017Y2.8092
X2.017Y1.8844
X2.017Y1.7814
X2.017Y1.7304
X2.017Y0.8057
X2.017Y0.7027
X2.017Y0.6517
X2.0187Y2.4224
X2.0187Y1.3437
X2.0187Y0.265
X2.0867Y3.2796
X2.0867Y3.2009
X2.0867Y3.1221
X2.0867Y2.2009
X2.0867Y2.1221
X2.0867Y2.0434
X2.0867Y1.1221
X2.0867Y1.0434
X2.0867Y0.9647
X2.0929Y2.7062
X2.0929Y1.6275
X2.0929Y0.5487
X2.0937Y2.5271
X2.0937Y1.4484
X2.0937Y0.3697
X2.0942Y2.9632
X2.0942Y1.8844
X2.0942Y0.8057
X2.096Y2.4226
X2.096Y1.3439
X2.096Y0.2652
X2.097Y2.8479
X2.097Y2.8199
X2.097Y1.7692
X2.097Y1.7412
X2.097Y0.6904
X2.097Y0.6624
X2.1146Y2.5592
X2.1146Y1.4804
X2.1146Y0.4017
X2.1359Y3.1922
X2.1359Y2.1135
X2.1359Y1.0348
X2.1409Y3.0772
X2.1409Y1.9985
X2.1409Y0.9198
X2.1459Y2.9558
X2.1459Y1.8771
X2.1459Y0.7983
X2.146Y2.7127
X2.146Y1.634
X2.146Y0.5552
X2.1733Y2.4229
X2.1733Y1.3441
X2.1733Y0.2654
X2.1897Y3.0047
X2.1897Y2.6812
X2.1897Y1.926
X2.1897Y1.6025
X2.1897Y0.8473
X2.1897Y0.5237
X2.1918Y2.5592
X2.1918Y1.4804
X2.1918Y0.4017
X2.2204Y3.0047
X2.2204Y2.6812
X2.2204Y1.926
X2.2204Y1.6025
X2.2204Y0.8473
X2.2204Y0.5237
X2.246Y3.0247
X2.246Y1.946
X2.246Y0.8673
X2.2498Y2.667
X2.2498Y1.5883
X2.2498Y0.5095
X2.2506Y2.4229
X2.2506Y1.3441
X2.2506Y0.2654
X2.2595Y3.1374
X2.2595Y2.0587
X2.2595Y0.98
X2.2619Y3.1964
X2.2619Y3.1678
X2.2619Y2.1177
X2.2619Y2.0891
X2.2619Y1.039
X2.2619Y1.0103
X2.2691Y2.5592
X2.2691Y1.4804
X2.2691Y0.4017
X2.2767Y3.0247
X2.2767Y1.946
X2.2767Y0.8673
X2.2804Y2.667
X2.2804Y1.5883
X2.2804Y0.5095
X2.2841Y3.2534
X2.2841Y2.1747
X2.2841Y1.096
X2.2879Y2.9897
X2.2879Y1.911
X2.2879Y0.8323
X2.2973Y2.6937
X2.2973Y1.615
X2.2973Y0.5363
X2.3278Y2.4229
X2.3278Y1.3441
X2.3278Y0.2654
X2.3463Y2.5592
X2.3463Y1.4804
X2.3463Y0.4017
X2.3514Y3.1922
X2.3514Y3.1319
X2.3514Y2.1135
X2.3514Y2.0532
X2.3514Y1.0347
X2.3514Y0.9744
X2.3554Y2.7154
X2.3554Y1.6367
X2.3554Y0.558
X2.3641Y2.5275
X2.3641Y1.4487
X2.3641Y0.37
X2.3679Y3.2897
X2.3679Y2.211
X2.3679Y1.1323
X2.3751Y2.6922
X2.3751Y1.6135
X2.3751Y0.5348
X2.3909Y2.9914
X2.3909Y1.9127
X2.3909Y0.834
X2.4068Y2.535
X2.4068Y1.4563
X2.4068Y0.3776
X2.407Y2.4276
X2.407Y1.3489
X2.407Y0.2702
X2.4105Y3.1922
X2.4105Y3.1319
X2.4105Y2.1135
X2.4105Y2.0532
X2.4105Y1.0347
X2.4105Y0.9744
X2.4365Y2.9455
X2.4365Y2.7634
X2.4365Y1.8667
X2.4365Y1.6847
X2.4365Y0.788
X2.4365Y0.6059
X2.4792Y2.573
X2.4792Y1.4943
X2.4792Y0.4155
X2.4801Y3.0979
X2.4801Y3.0734
X2.4801Y2.0192
X2.4801Y1.9947
X2.4801Y0.9405
X2.4801Y0.916
X2.4847Y2.4533
X2.4847Y1.3746
X2.4847Y0.2958
X2.5021Y3.2234
X2.5021Y2.1447
X2.5021Y1.066
X2.5138Y2.9455
X2.5138Y2.7634
X2.5138Y1.8667
X2.5138Y1.6847
X2.5138Y0.788
X2.5138Y0.6059
X2.5302Y2.6368
X2.5302Y1.558
X2.5302Y0.4793
X2.5379Y3.0071
X2.5379Y1.9283
X2.5379Y0.8496
X2.5517Y2.7155
X2.5517Y1.6368
X2.5517Y0.558
X2.5528Y2.4985
X2.5528Y1.4198
X2.5528Y0.341
X2.5601Y3.1114
X2.5601Y2.0327
X2.5601Y0.954
X2.5841Y3.2574
X2.5841Y2.1787
X2.5841Y1.1
X2.591Y2.9455
X2.591Y1.8667
X2.591Y0.788
X2.6067Y2.56
X2.6067Y1.4813
X2.6067Y0.4026
X2.6084Y3.0247
X2.6084Y1.946
X2.6084Y0.8673
X2.6234Y2.3967
X2.6234Y2.3723
X2.6234Y1.318
X2.6234Y1.2936
X2.6234Y0.2393
X2.6234Y0.2149
X2.6419Y2.9557
X2.6419Y1.877
X2.6419Y0.7983
X2.642Y2.6338
X2.642Y1.5551
X2.642Y0.4763
X2.6459Y2.4747
X2.6459Y1.396
X2.6459Y0.3173
X2.6477Y3.2796
X2.6477Y3.2107
X2.6477Y2.2009
X2.6477Y2.132
X2.6477Y1.1221
X2.6477Y1.0532
X2.6564Y2.7143
X2.6564Y1.6355
X2.6564Y0.5568
X2.657Y2.8759
X2.657Y2.7963
X2.657Y1.7972
X2.657Y1.7176
X2.657Y0.7185
X2.657Y0.6388
X2.6709Y2.4747
X2.6709Y1.396
X2.6709Y0.3173
X2.687Y2.5218
X2.687Y1.443
X2.687Y0.3643
X2.7034Y2.4597
X2.7034Y1.381
X2.7034Y0.3023
X2.7101Y3.1474
X2.7101Y2.0687
X2.7101Y0.99
X2.7159Y3.0637
X2.7159Y3.0397
X2.7159Y1.985
X2.7159Y1.961
X2.7159Y0.9063
X2.7159Y0.8823
X2.7166Y3.2107
X2.7166Y2.132
X2.7166Y1.0532
X2.7284Y2.4597
X2.7284Y1.381
X2.7284Y0.3023
X3.1058Y3.0071
X3.1058Y2.6624
X3.1058Y1.9283
X3.1058Y1.5837
X3.1058Y0.8496
X3.1058Y0.505
X3.1134Y2.5271
X3.1134Y1.4483
X3.1134Y0.3696
X3.1157Y2.4224
X3.1157Y1.3437
X3.1157Y0.265
X3.1193Y2.9019
X3.1193Y1.8232
X3.1193Y0.7444
X3.1193Y2.7676
X3.1193Y1.6888
X3.1193Y0.6101
X3.1831Y3.0035
X3.1831Y2.666
X3.1831Y1.9247
X3.1831Y1.5873
X3.1831Y0.846
X3.1831Y0.5085
X3.1906Y2.5271
X3.1906Y1.4483
X3.1906Y0.3696
X3.193Y2.4224
X3.193Y1.3437
X3.193Y0.265
X3.1982Y2.7776
X3.1982Y1.6988
X3.1982Y0.6201
X3.1985Y2.8918
X3.1985Y1.8131
X3.1985Y0.7343
X3.2637Y2.6861
X3.2637Y1.6074
X3.2637Y0.5286
X3.2644Y2.9832
X3.2644Y1.9045
X3.2644Y0.8257
X3.2678Y2.5271
X3.2678Y1.4483
X3.2678Y0.3696
X3.2702Y2.4224
X3.2702Y1.3437
X3.2702Y0.265
X3.2788Y2.7977
X3.2788Y1.7189
X3.2788Y0.6402
X3.2797Y2.8715
X3.2797Y1.7928
X3.2797Y0.714
X3.2822Y3.2972
X3.2822Y2.2185
X3.2822Y1.1398
X3.3072Y3.2972
X3.3072Y2.2185
X3.3072Y1.1398
X3.3444Y2.7062
X3.3444Y1.6275
X3.3444Y0.5487
X3.3451Y2.5271
X3.3451Y1.4483
X3.3451Y0.3696
X3.3457Y2.9632
X3.3457Y2.8602
X3.3457Y2.8092
X3.3457Y1.8844
X3.3457Y1.7814
X3.3457Y1.7304
X3.3457Y0.8057
X3.3457Y0.7027
X3.3457Y0.6517
X3.3475Y2.4224
X3.3475Y1.3437
X3.3475Y0.265
X3.4154Y3.2796
X3.4154Y3.2009
X3.4154Y3.1221
X3.4154Y2.2009
X3.4154Y2.1221
X3.4154Y2.0434
X3.4154Y1.1221
X3.4154Y1.0434
X3.4154Y0.9647
X3.4216Y2.7062
X3.4216Y1.6275
X3.4216Y0.5487
X3.4224Y2.5271
X3.4224Y1.4484
X3.4224Y0.3697
X3.423Y2.9632
X3.423Y1.8844
X3.423Y0.8057
X3.4247Y2.4226
X3.4247Y1.3439
X3.4247Y0.2652
X3.4258Y2.8479
X3.4258Y2.8199
X3.4258Y1.7692
X3.4258Y1.7412
X3.4258Y0.6904
X3.4258Y0.6624
X3.4433Y2.5592
X3.4433Y1.4804
X3.4433Y0.4017
X3.4647Y3.1922
X3.4647Y2.1135
X3.4647Y1.0348
X3.4697Y3.0772
X3.4697Y1.9985
X3.4697Y0.9198
X3.4746Y2.9558
X3.4746Y1.8771
X3.4746Y0.7983
X3.4747Y2.7127
X3.4747Y1.634
X3.4747Y0.5552
X3.5021Y2.4229
X3.5021Y1.3441
X3.5021Y0.2654
X3.5185Y3.0047
X3.5185Y2.6812
X3.5185Y1.926
X3.5185Y1.6025
X3.5185Y0.8473
X3.5185Y0.5237
X3.5206Y2.5592
X3.5206Y1.4804
X3.5206Y0.4017
X3.5491Y3.0047
X3.5491Y2.6812
X3.5491Y1.926
X3.5491Y1.6025
X3.5491Y0.8473
X3.5491Y0.5237
X3.5748Y3.0247
X3.5748Y1.946
X3.5748Y0.8673
X3.5785Y2.667
X3.5785Y1.5883
X3.5785Y0.5095
X3.5793Y2.4229
X3.5793Y1.3441
X3.5793Y0.2654
X3.5883Y3.1374
X3.5883Y2.0587
X3.5883Y0.98
X3.5907Y3.1964
X3.5907Y3.1678
X3.5907Y2.1177
X3.5907Y2.0891
X3.5907Y1.039
X3.5907Y1.0103
X3.5978Y2.5592
X3.5978Y1.4804
X3.5978Y0.4017
X3.6054Y3.0247
X3.6054Y1.946
X3.6054Y0.8673
X3.6091Y2.667
X3.6091Y1.5883
X3.6091Y0.5095
X3.6128Y3.2534
X3.6128Y2.1747
X3.6128Y1.096
X3.6167Y2.9897
X3.6167Y1.911
X3.6167Y0.8323
X3.6261Y2.6937
X3.6261Y1.615
X3.6261Y0.5363
X3.6566Y2.4229
X3.6566Y1.3441
X3.6566Y0.2654
X3.6751Y2.5592
X3.6751Y1.4804
X3.6751Y0.4017
X3.6802Y3.1922
X3.6802Y3.1319
X3.6802Y2.1135
X3.6802Y2.0532
X3.6802Y1.0347
X3.6802Y0.9744
X3.6842Y2.7154
X3.6842Y1.6367
X3.6842Y0.558
X3.6928Y2.5275
X3.6928Y1.4487
X3.6928Y0.37
X3.6967Y3.2897
X3.6967Y2.211
X3.6967Y1.1323
X3.7039Y2.6922
X3.7039Y1.6135
X3.7039Y0.5348
X3.7197Y2.9914
X3.7197Y1.9127
X3.7197Y0.834
X3.7356Y2.535
X3.7356Y1.4563
X3.7356Y0.3776
X3.7358Y2.4276
X3.7358Y1.3489
X3.7358Y0.2702
X3.7392Y3.1922
X3.7392Y3.1319
X3.7392Y2.1135
X3.7392Y2.0532
X3.7392Y1.0347
X3.7392Y0.9744
X3.7653Y2.9455
X3.7653Y2.7634
X3.7653Y1.8667
X3.7653Y1.6847
X3.7653Y0.788
X3.7653Y0.6059
X3.8079Y2.573
X3.8079Y1.4943
X3.8079Y0.4155
X3.8088Y3.0979
X3.8088Y3.0734
X3.8088Y2.0192
X3.8088Y1.9947
X3.8088Y0.9405
X3.8088Y0.916
X3.8134Y2.4533
X3.8134Y1.3746
X3.8134Y0.2958
X3.8308Y3.2234
X3.8308Y2.1447
X3.8308Y1.066
X3.8425Y2.9455
X3.8425Y2.7634
X3.8425Y1.8667
X3.8425Y1.6847
X3.8425Y0.788
X3.8425Y0.6059
X3.859Y2.6368
X3.859Y1.558
X3.859Y0.4793
X3.8667Y3.0071
X3.8667Y1.9283
X3.8667Y0.8496
X3.8804Y2.7155
X3.8804Y1.6368
X3.8804Y0.558
X3.8815Y2.4985
X3.8815Y1.4198
X3.8815Y0.341
X3.8888Y3.1114
X3.8888Y2.0327
X3.8888Y0.954
X3.9128Y3.2574
X3.9128Y2.1787
X3.9128Y1.1
X3.9197Y2.9455
X3.9197Y1.8667
X3.9197Y0.788
X3.9354Y2.56
X3.9354Y1.4813
X3.9354Y0.4026
X3.9372Y3.0247
X3.9372Y1.946
X3.9372Y0.8673
X3.9522Y2.3967
X3.9522Y2.3723
X3.9522Y1.318
X3.9522Y1.2936
X3.9522Y0.2393
X3.9522Y0.2149
X3.9707Y2.9557
X3.9707Y1.877
X3.9707Y0.7983
X3.9707Y2.6338
X3.9707Y1.5551
X3.9707Y0.4763
X3.9747Y2.4747
X3.9747Y1.396
X3.9747Y0.3173
X3.9764Y3.2796
X3.9764Y3.2107
X3.9764Y2.2009
X3.9764Y2.132
X3.9764Y1.1221
X3.9764Y1.0532
X3.9851Y2.7143
X3.9851Y1.6355
X3.9851Y0.5568
X3.9857Y2.8759
X3.9857Y2.7963
X3.9857Y1.7972
X3.9857Y1.7176
X3.9857Y0.7185
X3.9857Y0.6388
X3.9997Y2.4747
X3.9997Y1.396
X3.9997Y0.3173
X4.0158Y2.5218
X4.0158Y1.443
X4.0158Y0.3643
X4.0322Y2.4597
X4.0322Y1.381
X4.0322Y0.3023
X4.0388Y3.1474
X4.0388Y2.0687
X4.0388Y0.99
X4.0447Y3.0637
X4.0447Y3.0397
X4.0447Y1.985
X4.0447Y1.961
X4.0447Y0.9063
X4.0447Y0.8823
X4.0453Y3.2107
X4.0453Y2.132
X4.0453Y1.0532
X4.0572Y2.4597
X4.0572Y1.381
X4.0572Y0.3023
T3
X2.8845Y0.8406
X2.8845Y0.754
X2.931Y0.7071
X2.9322Y0.8878
X3.0176Y0.8878
X3.0196Y0.7071
X3.0656Y0.8484
X3.0656Y0.7461
X1.5558Y2.5181
X1.5558Y2.4314
X1.6022Y2.3846
X1.6034Y2.5653
X1.6889Y2.5653
X1.6908Y2.3846
X1.7369Y2.5259
X1.7369Y2.4236
X2.8845Y1.6793
X2.8845Y1.5927
X2.931Y1.5458
X2.9322Y1.7266
X3.0176Y1.7266
X3.0196Y1.5458
X3.0656Y1.6872
X3.0656Y1.5848
X2.8845Y1.4393
X2.8845Y1.3527
X2.931Y1.3058
X2.9322Y1.4866
X3.0176Y1.4866
X3.0196Y1.3058
X3.0656Y1.4472
X3.0656Y1.3448
X1.5558Y0.8406
X1.5558Y0.754
X1.6022Y0.7071
X1.6034Y0.8878
X1.6889Y0.8878
X1.6908Y0.7071
X1.7369Y0.8484
X1.7369Y0.7461
X1.5558Y2.7581
X1.5558Y2.6714
X1.6022Y2.6246
X1.6034Y2.8053
X1.6889Y2.8053
X1.6908Y2.6246
X1.7369Y2.7659
X1.7369Y2.6636
X0.2271Y1.4393
X0.2271Y1.3527
X0.2735Y1.3058
X0.2747Y1.4866
X0.3601Y1.4866
X0.3621Y1.3058
X0.4082Y1.4472
X0.4082Y1.3448
X1.5558Y1.4393
X1.5558Y1.3527
X1.6022Y1.3058
X1.6034Y1.4866
X1.6889Y1.4866
X1.6908Y1.3058
X1.7369Y1.4472
X1.7369Y1.3448
X1.5558Y1.6793
X1.5558Y1.5927
X1.6022Y1.5458
X1.6034Y1.7266
X1.6889Y1.7266
X1.6908Y1.5458
X1.7369Y1.6872
X1.7369Y1.5848
X2.8845Y1.9193
X2.8845Y1.8327
X2.931Y1.7858
X2.9322Y1.9666
X3.0176Y1.9666
X3.0196Y1.7858
X3.0656Y1.9272
X3.0656Y1.8248
X0.2271Y2.5181
X0.2271Y2.4314
X0.2735Y2.3846
X0.2747Y2.5653
X0.3601Y2.5653
X0.3621Y2.3846
X0.4082Y2.5259
X0.4082Y2.4236
X0.2271Y0.3606
X0.2271Y0.274
X0.2735Y0.2271
X0.2747Y0.4078
X0.3601Y0.4078
X0.3621Y0.2271
X0.4082Y0.3684
X0.4082Y0.2661
X1.5558Y1.9193
X1.5558Y1.8327
X1.6022Y1.7858
X1.6034Y1.9666
X1.6889Y1.9666
X1.6908Y1.7858
X1.7369Y1.9272
X1.7369Y1.8248
X2.8845Y0.3606
X2.8845Y0.274
X2.931Y0.2271
X2.9322Y0.4078
X3.0176Y0.4078
X3.0196Y0.2271
X3.0656Y0.3684
X3.0656Y0.2661
X0.2271Y2.9981
X0.2271Y2.9114
X0.2735Y2.8646
X0.2747Y3.0453
X0.3601Y3.0453
X0.3621Y2.8646
X0.4082Y3.0059
X0.4082Y2.9036
X0.2271Y1.6793
X0.2271Y1.5927
X0.2735Y1.5458
X0.2747Y1.7266
X0.3601Y1.7266
X0.3621Y1.5458
X0.4082Y1.6872
X0.4082Y1.5848
X1.5558Y2.9981
X1.5558Y2.9114
X1.6022Y2.8646
X1.6034Y3.0453
X1.6889Y3.0453
X1.6908Y2.8646
X1.7369Y3.0059
X1.7369Y2.9036
X2.8845Y0.6006
X2.8845Y0.514
X2.931Y0.4671
X2.9322Y0.6478
X3.0176Y0.6478
X3.0196Y0.4671
X3.0656Y0.6084
X3.0656Y0.5061
X0.2271Y1.9193
X0.2271Y1.8327
X0.2735Y1.7858
X0.2747Y1.9666
X0.3601Y1.9666
X0.3621Y1.7858
X0.4082Y1.9272
X0.4082Y1.8248
X2.8845Y2.7581
X2.8845Y2.6714
X2.931Y2.6246
X2.9322Y2.8053
X3.0176Y2.8053
X3.0196Y2.6246
X3.0656Y2.7659
X3.0656Y2.6636
X2.8845Y2.5181
X2.8845Y2.4314
X2.931Y2.3846
X2.9322Y2.5653
X3.0176Y2.5653
X3.0196Y2.3846
X3.0656Y2.5259
X3.0656Y2.4236
X1.5558Y0.3606
X1.5558Y0.274
X1.6022Y0.2271
X1.6034Y0.4078
X1.6889Y0.4078
X1.6908Y0.2271
X1.7369Y0.3684
X1.7369Y0.2661
X0.2271Y2.7581
X0.2271Y2.6714
X0.2735Y2.6246
X0.2747Y2.8053
X0.3601Y2.8053
X0.3621Y2.6246
X0.4082Y2.7659
X0.4082Y2.6636
X2.8845Y2.9981
X2.8845Y2.9114
X2.931Y2.8646
X2.9322Y3.0453
X3.0176Y3.0453
X3.0196Y2.8646
X3.0656Y3.0059
X3.0656Y2.9036
X0.2271Y0.8406
X0.2271Y0.754
X0.2735Y0.7071
X0.2747Y0.8878
X0.3601Y0.8878
X0.3621Y0.7071
X0.4082Y0.8484
X0.4082Y0.7461
X1.5558Y0.6006
X1.5558Y0.514
X1.6022Y0.4671
X1.6034Y0.6478
X1.6889Y0.6478
X1.6908Y0.4671
X1.7369Y0.6084
X1.7369Y0.5061
X0.2271Y0.6006
X0.2271Y0.514
X0.2735Y0.4671
X0.2747Y0.6478
X0.3601Y0.6478
X0.3621Y0.4671
X0.4082Y0.6084
X0.4082Y0.5061
T4
X1.9659Y3.3347
X1.9659Y2.3347
X2.0159Y3.3347
X2.0159Y2.3347
X2.0659Y3.3347
X2.0659Y2.3347
X2.1159Y3.3347
X2.1159Y2.3347
X2.1659Y3.3347
X2.1659Y2.3347
X2.2159Y3.3347
X2.2159Y2.3347
X2.2659Y3.3347
X2.2659Y2.3347
X2.3159Y3.3347
X2.3159Y2.3347
X2.3659Y3.3347
X2.3659Y2.3347
X2.4159Y3.3347
X2.4159Y2.3347
X2.4659Y3.3347
X2.4659Y2.3347
X2.5159Y3.3347
X2.5159Y2.3347
X2.5659Y3.3347
X2.5659Y2.3347
X2.6159Y3.3347
X2.6159Y2.3347
X2.6659Y3.3347
X2.6659Y2.3347
X2.7159Y3.3347
X2.7159Y2.3347
X0.6372Y3.3347
X0.6372Y2.3347
X0.6872Y3.3347
X0.6872Y2.3347
X0.7372Y3.3347
X0.7372Y2.3347
X0.7872Y3.3347
X0.7872Y2.3347
X0.8372Y3.3347
X0.8372Y2.3347
X0.8872Y3.3347
X0.8872Y2.3347
X0.9372Y3.3347
X0.9372Y2.3347
X0.9872Y3.3347
X0.9872Y2.3347
X1.0372Y3.3347
X1.0372Y2.3347
X1.0872Y3.3347
X1.0872Y2.3347
X1.1372Y3.3347
X1.1372Y2.3347
X1.1872Y3.3347
X1.1872Y2.3347
X1.2372Y3.3347
X1.2372Y2.3347
X1.2872Y3.3347
X1.2872Y2.3347
X1.3372Y3.3347
X1.3372Y2.3347
X1.3872Y3.3347
X1.3872Y2.3347
X0.6372Y1.1773
X0.6372Y0.1773
X0.6872Y1.1773
X0.6872Y0.1773
X0.7372Y1.1773
X0.7372Y0.1773
X0.7872Y1.1773
X0.7872Y0.1773
X0.8372Y1.1773
X0.8372Y0.1773
X0.8872Y1.1773
X0.8872Y0.1773
X0.9372Y1.1773
X0.9372Y0.1773
X0.9872Y1.1773
X0.9872Y0.1773
X1.0372Y1.1773
X1.0372Y0.1773
X1.0872Y1.1773
X1.0872Y0.1773
X1.1372Y1.1773
X1.1372Y0.1773
X1.1872Y1.1773
X1.1872Y0.1773
X1.2372Y1.1773
X1.2372Y0.1773
X1.2872Y1.1773
X1.2872Y0.1773
X1.3372Y1.1773
X1.3372Y0.1773
X1.3872Y1.1773
X1.3872Y0.1773
X3.2947Y1.1773
X3.2947Y0.1773
X3.3447Y1.1773
X3.3447Y0.1773
X3.3947Y1.1773
X3.3947Y0.1773
X3.4447Y1.1773
X3.4447Y0.1773
X3.4947Y1.1773
X3.4947Y0.1773
X3.5447Y1.1773
X3.5447Y0.1773
X3.5947Y1.1773
X3.5947Y0.1773
X3.6447Y1.1773
X3.6447Y0.1773
X3.6947Y1.1773
X3.6947Y0.1773
X3.7447Y1.1773
X3.7447Y0.1773
X3.7947Y1.1773
X3.7947Y0.1773
X3.8447Y1.1773
X3.8447Y0.1773
X3.8947Y1.1773
X3.8947Y0.1773
X3.9447Y1.1773
X3.9447Y0.1773
X3.9947Y1.1773
X3.9947Y0.1773
X4.0447Y1.1773
X4.0447Y0.1773
X1.9659Y1.1773
X1.9659Y0.1773
X2.0159Y1.1773
X2.0159Y0.1773
X2.0659Y1.1773
X2.0659Y0.1773
X2.1159Y1.1773
X2.1159Y0.1773
X2.1659Y1.1773
X2.1659Y0.1773
X2.2159Y1.1773
X2.2159Y0.1773
X2.2659Y1.1773
X2.2659Y0.1773
X2.3159Y1.1773
X2.3159Y0.1773
X2.3659Y1.1773
X2.3659Y0.1773
X2.4159Y1.1773
X2.4159Y0.1773
X2.4659Y1.1773
X2.4659Y0.1773
X2.5159Y1.1773
X2.5159Y0.1773
X2.5659Y1.1773
X2.5659Y0.1773
X2.6159Y1.1773
X2.6159Y0.1773
X2.6659Y1.1773
X2.6659Y0.1773
X2.7159Y1.1773
X2.7159Y0.1773
X3.2947Y3.3347
X3.2947Y2.3347
X3.3447Y3.3347
X3.3447Y2.3347
X3.3947Y3.3347
X3.3947Y2.3347
X3.4447Y3.3347
X3.4447Y2.3347
X3.4947Y3.3347
X3.4947Y2.3347
X3.5447Y3.3347
X3.5447Y2.3347
X3.5947Y3.3347
X3.5947Y2.3347
X3.6447Y3.3347
X3.6447Y2.3347
X3.6947Y3.3347
X3.6947Y2.3347
X3.7447Y3.3347
X3.7447Y2.3347
X3.7947Y3.3347
X3.7947Y2.3347
X3.8447Y3.3347
X3.8447Y2.3347
X3.8947Y3.3347
X3.8947Y2.3347
X3.9447Y3.3347
X3.9447Y2.3347
X3.9947Y3.3347
X3.9947Y2.3347
X4.0447Y3.3347
X4.0447Y2.3347
X1.9659Y2.256
X1.9659Y1.256
X2.0159Y2.256
X2.0159Y1.256
X2.0659Y2.256
X2.0659Y1.256
X2.1159Y2.256
X2.1159Y1.256
X2.1659Y2.256
X2.1659Y1.256
X2.2159Y2.256
X2.2159Y1.256
X2.2659Y2.256
X2.2659Y1.256
X2.3159Y2.256
X2.3159Y1.256
X2.3659Y2.256
X2.3659Y1.256
X2.4159Y2.256
X2.4159Y1.256
X2.4659Y2.256
X2.4659Y1.256
X2.5159Y2.256
X2.5159Y1.256
X2.5659Y2.256
X2.5659Y1.256
X2.6159Y2.256
X2.6159Y1.256
X2.6659Y2.256
X2.6659Y1.256
X2.7159Y2.256
X2.7159Y1.256
X3.2947Y2.256
X3.2947Y1.256
X3.3447Y2.256
X3.3447Y1.256
X3.3947Y2.256
X3.3947Y1.256
X3.4447Y2.256
X3.4447Y1.256
X3.4947Y2.256
X3.4947Y1.256
X3.5447Y2.256
X3.5447Y1.256
X3.5947Y2.256
X3.5947Y1.256
X3.6447Y2.256
X3.6447Y1.256
X3.6947Y2.256
X3.6947Y1.256
X3.7447Y2.256
X3.7447Y1.256
X3.7947Y2.256
X3.7947Y1.256
X3.8447Y2.256
X3.8447Y1.256
X3.8947Y2.256
X3.8947Y1.256
X3.9447Y2.256
X3.9447Y1.256
X3.9947Y2.256
X3.9947Y1.256
X4.0447Y2.256
X4.0447Y1.256
X0.6372Y2.256
X0.6372Y1.256
X0.6872Y2.256
X0.6872Y1.256
X0.7372Y2.256
X0.7372Y1.256
X0.7872Y2.256
X0.7872Y1.256
X0.8372Y2.256
X0.8372Y1.256
X0.8872Y2.256
X0.8872Y1.256
X0.9372Y2.256
X0.9372Y1.256
X0.9872Y2.256
X0.9872Y1.256
X1.0372Y2.256
X1.0372Y1.256
X1.0872Y2.256
X1.0872Y1.256
X1.1372Y2.256
X1.1372Y1.256
X1.1872Y2.256
X1.1872Y1.256
X1.2372Y2.256
X1.2372Y1.256
X1.2872Y2.256
X1.2872Y1.256
X1.3372Y2.256
X1.3372Y1.256
X1.3872Y2.256
X1.3872Y1.256
T0
M30
