M48
METRIC,TZ
T1C0.300
T2C0.350
T3C0.400
T4C0.600
%
G90
G05
T1
X55408Y18803
X55408Y18103
X55408Y16303
X55408Y15603
X57608Y18803
X57608Y17203
X57608Y15603
X21658Y46203
X21658Y45503
X21658Y43703
X21658Y43003
X23858Y46203
X23858Y44603
X23858Y43003
X21658Y73603
X21658Y72903
X21658Y71103
X21658Y70403
X23858Y73603
X23858Y72003
X23858Y70403
X89158Y18803
X89158Y18103
X89158Y16303
X89158Y15603
X91358Y18803
X91358Y17203
X91358Y15603
X55408Y73603
X55408Y72903
X55408Y71103
X55408Y70403
X57608Y73603
X57608Y72003
X57608Y70403
X55408Y46203
X55408Y45503
X55408Y43703
X55408Y43003
X57608Y46203
X57608Y44603
X57608Y43003
X21658Y18803
X21658Y18103
X21658Y16303
X21658Y15603
X23858Y18803
X23858Y17203
X23858Y15603
X89158Y73603
X89158Y72903
X89158Y71103
X89158Y70403
X91358Y73603
X91358Y72003
X91358Y70403
X89158Y46203
X89158Y45503
X89158Y43703
X89158Y43003
X91358Y46203
X91358Y44603
X91358Y43003
T2
X11388Y76379
X11388Y67626
X11388Y48979
X11388Y40226
X11388Y21579
X11388Y12826
X11579Y64187
X11579Y36787
X11579Y9387
X11640Y61530
X11640Y34130
X11640Y6730
X11729Y73709
X11729Y46309
X11729Y18909
X11729Y70296
X11729Y42896
X11729Y15496
X13350Y76288
X13350Y67717
X13350Y48888
X13350Y40317
X13350Y21488
X13350Y12917
X13541Y64187
X13541Y36787
X13541Y9387
X13602Y61530
X13602Y34130
X13602Y6730
X13734Y70551
X13734Y43151
X13734Y15751
X13742Y73452
X13742Y46052
X13742Y18652
X15399Y68227
X15399Y40827
X15399Y13427
X15416Y75773
X15416Y48373
X15416Y20973
X15503Y64187
X15503Y36787
X15503Y9387
X15564Y61530
X15564Y34130
X15564Y6730
X15780Y71061
X15780Y43661
X15780Y16261
X15805Y72937
X15805Y45537
X15805Y18137
X15867Y83750
X15867Y56350
X15867Y28950
X16502Y83750
X16502Y56350
X16502Y28950
X17447Y68738
X17447Y41338
X17447Y13938
X17465Y64187
X17465Y36787
X17465Y9387
X17481Y75265
X17481Y72648
X17481Y71353
X17481Y47865
X17481Y45248
X17481Y43953
X17481Y20465
X17481Y17848
X17481Y16553
X17526Y61530
X17526Y34130
X17526Y6730
X19251Y83303
X19251Y81303
X19251Y79303
X19251Y55903
X19251Y53903
X19251Y51903
X19251Y28503
X19251Y26503
X19251Y24503
X19409Y68738
X19409Y41338
X19409Y13938
X19430Y64189
X19430Y36789
X19430Y9389
X19443Y75265
X19443Y47865
X19443Y20465
X19487Y61535
X19487Y34135
X19487Y6735
X19515Y72337
X19515Y71626
X19515Y44937
X19515Y44226
X19515Y17537
X19515Y16826
X19961Y65003
X19961Y37603
X19961Y10203
X20503Y81083
X20503Y53683
X20503Y26283
X20630Y78162
X20630Y50762
X20630Y23362
X20755Y75078
X20755Y47678
X20755Y20278
X20758Y68903
X20758Y41503
X20758Y14103
X21452Y61541
X21452Y34141
X21452Y6741
X21869Y76321
X21869Y68103
X21869Y48921
X21869Y40703
X21869Y21521
X21869Y13303
X21923Y65003
X21923Y37603
X21923Y10203
X22647Y76321
X22647Y68103
X22647Y48921
X22647Y40703
X22647Y21521
X22647Y13303
X23299Y76829
X23299Y49429
X23299Y22029
X23394Y67743
X23394Y40343
X23394Y12943
X23414Y61541
X23414Y34141
X23414Y6741
X23642Y79691
X23642Y52291
X23642Y24891
X23703Y81189
X23703Y80462
X23703Y53789
X23703Y53062
X23703Y26389
X23703Y25662
X23885Y65003
X23885Y37603
X23885Y10203
X24077Y76829
X24077Y49429
X24077Y22029
X24172Y67743
X24172Y40343
X24172Y12943
X24266Y82637
X24266Y55237
X24266Y27837
X24364Y75940
X24364Y48540
X24364Y21140
X24603Y68421
X24603Y41021
X24603Y13621
X25376Y61541
X25376Y34141
X25376Y6741
X25847Y65003
X25847Y37603
X25847Y10203
X25976Y81083
X25976Y79550
X25976Y53683
X25976Y52150
X25976Y26283
X25976Y24750
X26078Y68972
X26078Y41572
X26078Y14172
X26297Y64198
X26297Y36798
X26297Y9398
X26396Y83560
X26396Y56160
X26396Y28760
X26579Y68383
X26579Y40983
X26579Y13583
X26980Y75982
X26980Y48582
X26980Y21182
X27384Y64390
X27384Y36990
X27384Y9590
X27389Y61662
X27389Y34262
X27389Y6862
X27476Y81083
X27476Y79550
X27476Y53683
X27476Y52150
X27476Y26283
X27476Y24750
X28137Y74815
X28137Y70191
X28137Y47415
X28137Y42791
X28137Y20015
X28137Y15391
X29221Y65354
X29221Y37954
X29221Y10554
X29245Y78688
X29245Y78065
X29245Y51288
X29245Y50665
X29245Y23888
X29245Y23265
X29361Y62315
X29361Y34915
X29361Y7515
X29804Y81875
X29804Y54475
X29804Y27075
X30099Y74815
X30099Y70191
X30099Y47415
X30099Y42791
X30099Y20015
X30099Y15391
X30518Y66974
X30518Y39574
X30518Y12174
X30714Y76379
X30714Y48979
X30714Y21579
X31063Y68974
X31063Y41574
X31063Y14174
X31091Y63462
X31091Y36062
X31091Y8662
X31277Y79030
X31277Y51630
X31277Y24230
X31886Y82739
X31886Y55339
X31886Y27939
X32061Y74815
X32061Y47415
X32061Y20015
X32459Y65025
X32459Y37625
X32459Y10225
X32504Y76829
X32504Y49429
X32504Y22029
X32885Y60877
X32885Y60257
X32885Y33477
X32885Y32857
X32885Y6077
X32885Y5457
X33355Y75076
X33355Y47676
X33355Y20276
X33356Y66899
X33356Y39499
X33356Y12099
X33457Y62859
X33457Y35459
X33457Y8059
X33501Y83303
X33501Y81553
X33501Y55903
X33501Y54153
X33501Y28503
X33501Y26753
X33722Y68943
X33722Y41543
X33722Y14143
X33738Y73049
X33738Y71026
X33738Y45649
X33738Y43626
X33738Y18249
X33738Y16226
X34092Y62859
X34092Y35459
X34092Y8059
X34501Y64053
X34501Y36653
X34501Y9253
X34917Y62478
X34917Y35078
X34917Y7678
X35087Y79945
X35087Y52545
X35087Y25145
X35235Y77819
X35235Y77210
X35235Y50419
X35235Y49810
X35235Y23019
X35235Y22410
X35251Y81553
X35251Y54153
X35251Y26753
X35552Y62478
X35552Y35078
X35552Y7678
X45138Y76379
X45138Y67626
X45138Y48979
X45138Y40226
X45138Y21579
X45138Y12826
X45329Y64187
X45329Y36787
X45329Y9387
X45390Y61530
X45390Y34130
X45390Y6730
X45479Y73709
X45479Y46309
X45479Y18909
X45479Y70296
X45479Y42896
X45479Y15496
X47100Y76288
X47100Y67717
X47100Y48888
X47100Y40317
X47100Y21488
X47100Y12917
X47291Y64187
X47291Y36787
X47291Y9387
X47352Y61530
X47352Y34130
X47352Y6730
X47484Y70551
X47484Y43151
X47484Y15751
X47492Y73452
X47492Y46052
X47492Y18652
X49149Y68227
X49149Y40827
X49149Y13427
X49166Y75773
X49166Y48373
X49166Y20973
X49253Y64187
X49253Y36787
X49253Y9387
X49314Y61530
X49314Y34130
X49314Y6730
X49530Y71061
X49530Y43661
X49530Y16261
X49555Y72937
X49555Y45537
X49555Y18137
X49617Y83750
X49617Y56350
X49617Y28950
X50252Y83750
X50252Y56350
X50252Y28950
X51197Y68738
X51197Y41338
X51197Y13938
X51215Y64187
X51215Y36787
X51215Y9387
X51231Y75265
X51231Y72648
X51231Y71353
X51231Y47865
X51231Y45248
X51231Y43953
X51231Y20465
X51231Y17848
X51231Y16553
X51276Y61530
X51276Y34130
X51276Y6730
X53001Y83303
X53001Y81303
X53001Y79303
X53001Y55903
X53001Y53903
X53001Y51903
X53001Y28503
X53001Y26503
X53001Y24503
X53159Y68738
X53159Y41338
X53159Y13938
X53180Y64189
X53180Y36789
X53180Y9389
X53193Y75265
X53193Y47865
X53193Y20465
X53237Y61535
X53237Y34135
X53237Y6735
X53265Y72337
X53265Y71626
X53265Y44937
X53265Y44226
X53265Y17537
X53265Y16826
X53711Y65003
X53711Y37603
X53711Y10203
X54253Y81083
X54253Y53683
X54253Y26283
X54380Y78162
X54380Y50762
X54380Y23362
X54505Y75078
X54505Y47678
X54505Y20278
X54508Y68903
X54508Y41503
X54508Y14103
X55202Y61541
X55202Y34141
X55202Y6741
X55619Y76321
X55619Y68103
X55619Y48921
X55619Y40703
X55619Y21521
X55619Y13303
X55673Y65003
X55673Y37603
X55673Y10203
X56397Y76321
X56397Y68103
X56397Y48921
X56397Y40703
X56397Y21521
X56397Y13303
X57049Y76829
X57049Y49429
X57049Y22029
X57144Y67743
X57144Y40343
X57144Y12943
X57164Y61541
X57164Y34141
X57164Y6741
X57392Y79691
X57392Y52291
X57392Y24891
X57453Y81189
X57453Y80462
X57453Y53789
X57453Y53062
X57453Y26389
X57453Y25662
X57635Y65003
X57635Y37603
X57635Y10203
X57827Y76829
X57827Y49429
X57827Y22029
X57922Y67743
X57922Y40343
X57922Y12943
X58016Y82637
X58016Y55237
X58016Y27837
X58114Y75940
X58114Y48540
X58114Y21140
X58353Y68421
X58353Y41021
X58353Y13621
X59126Y61541
X59126Y34141
X59126Y6741
X59597Y65003
X59597Y37603
X59597Y10203
X59726Y81083
X59726Y79550
X59726Y53683
X59726Y52150
X59726Y26283
X59726Y24750
X59828Y68972
X59828Y41572
X59828Y14172
X60047Y64198
X60047Y36798
X60047Y9398
X60146Y83560
X60146Y56160
X60146Y28760
X60329Y68383
X60329Y40983
X60329Y13583
X60730Y75982
X60730Y48582
X60730Y21182
X61134Y64390
X61134Y36990
X61134Y9590
X61139Y61662
X61139Y34262
X61139Y6862
X61226Y81083
X61226Y79550
X61226Y53683
X61226Y52150
X61226Y26283
X61226Y24750
X61887Y74815
X61887Y70191
X61887Y47415
X61887Y42791
X61887Y20015
X61887Y15391
X62971Y65354
X62971Y37954
X62971Y10554
X62995Y78688
X62995Y78065
X62995Y51288
X62995Y50665
X62995Y23888
X62995Y23265
X63111Y62315
X63111Y34915
X63111Y7515
X63554Y81875
X63554Y54475
X63554Y27075
X63849Y74815
X63849Y70191
X63849Y47415
X63849Y42791
X63849Y20015
X63849Y15391
X64268Y66974
X64268Y39574
X64268Y12174
X64464Y76379
X64464Y48979
X64464Y21579
X64813Y68974
X64813Y41574
X64813Y14174
X64841Y63462
X64841Y36062
X64841Y8662
X65027Y79030
X65027Y51630
X65027Y24230
X65636Y82739
X65636Y55339
X65636Y27939
X65811Y74815
X65811Y47415
X65811Y20015
X66209Y65025
X66209Y37625
X66209Y10225
X66254Y76829
X66254Y49429
X66254Y22029
X66635Y60877
X66635Y60257
X66635Y33477
X66635Y32857
X66635Y6077
X66635Y5457
X67105Y75076
X67105Y47676
X67105Y20276
X67106Y66899
X67106Y39499
X67106Y12099
X67207Y62859
X67207Y35459
X67207Y8059
X67251Y83303
X67251Y81553
X67251Y55903
X67251Y54153
X67251Y28503
X67251Y26753
X67472Y68943
X67472Y41543
X67472Y14143
X67488Y73049
X67488Y71026
X67488Y45649
X67488Y43626
X67488Y18249
X67488Y16226
X67842Y62859
X67842Y35459
X67842Y8059
X68251Y64053
X68251Y36653
X68251Y9253
X68667Y62478
X68667Y35078
X68667Y7678
X68837Y79945
X68837Y52545
X68837Y25145
X68985Y77819
X68985Y77210
X68985Y50419
X68985Y49810
X68985Y23019
X68985Y22410
X69001Y81553
X69001Y54153
X69001Y26753
X69302Y62478
X69302Y35078
X69302Y7678
X78888Y76379
X78888Y67626
X78888Y48979
X78888Y40226
X78888Y21579
X78888Y12826
X79079Y64187
X79079Y36787
X79079Y9387
X79140Y61530
X79140Y34130
X79140Y6730
X79229Y73709
X79229Y46309
X79229Y18909
X79229Y70296
X79229Y42896
X79229Y15496
X80850Y76288
X80850Y67717
X80850Y48888
X80850Y40317
X80850Y21488
X80850Y12917
X81041Y64187
X81041Y36787
X81041Y9387
X81102Y61530
X81102Y34130
X81102Y6730
X81234Y70551
X81234Y43151
X81234Y15751
X81242Y73452
X81242Y46052
X81242Y18652
X82899Y68227
X82899Y40827
X82899Y13427
X82916Y75773
X82916Y48373
X82916Y20973
X83003Y64187
X83003Y36787
X83003Y9387
X83064Y61530
X83064Y34130
X83064Y6730
X83280Y71061
X83280Y43661
X83280Y16261
X83305Y72937
X83305Y45537
X83305Y18137
X83367Y83750
X83367Y56350
X83367Y28950
X84002Y83750
X84002Y56350
X84002Y28950
X84947Y68738
X84947Y41338
X84947Y13938
X84965Y64187
X84965Y36787
X84965Y9387
X84981Y75265
X84981Y72648
X84981Y71353
X84981Y47865
X84981Y45248
X84981Y43953
X84981Y20465
X84981Y17848
X84981Y16553
X85026Y61530
X85026Y34130
X85026Y6730
X86751Y83303
X86751Y81303
X86751Y79303
X86751Y55903
X86751Y53903
X86751Y51903
X86751Y28503
X86751Y26503
X86751Y24503
X86909Y68738
X86909Y41338
X86909Y13938
X86930Y64189
X86930Y36789
X86930Y9389
X86943Y75265
X86943Y47865
X86943Y20465
X86987Y61535
X86987Y34135
X86987Y6735
X87015Y72337
X87015Y71626
X87015Y44937
X87015Y44226
X87015Y17537
X87015Y16826
X87461Y65003
X87461Y37603
X87461Y10203
X88003Y81083
X88003Y53683
X88003Y26283
X88130Y78162
X88130Y50762
X88130Y23362
X88255Y75078
X88255Y47678
X88255Y20278
X88258Y68903
X88258Y41503
X88258Y14103
X88952Y61541
X88952Y34141
X88952Y6741
X89369Y76321
X89369Y68103
X89369Y48921
X89369Y40703
X89369Y21521
X89369Y13303
X89423Y65003
X89423Y37603
X89423Y10203
X90147Y76321
X90147Y68103
X90147Y48921
X90147Y40703
X90147Y21521
X90147Y13303
X90799Y76829
X90799Y49429
X90799Y22029
X90894Y67743
X90894Y40343
X90894Y12943
X90914Y61541
X90914Y34141
X90914Y6741
X91142Y79691
X91142Y52291
X91142Y24891
X91203Y81189
X91203Y80462
X91203Y53789
X91203Y53062
X91203Y26389
X91203Y25662
X91385Y65003
X91385Y37603
X91385Y10203
X91577Y76829
X91577Y49429
X91577Y22029
X91672Y67743
X91672Y40343
X91672Y12943
X91766Y82637
X91766Y55237
X91766Y27837
X91864Y75940
X91864Y48540
X91864Y21140
X92103Y68421
X92103Y41021
X92103Y13621
X92876Y61541
X92876Y34141
X92876Y6741
X93347Y65003
X93347Y37603
X93347Y10203
X93476Y81083
X93476Y79550
X93476Y53683
X93476Y52150
X93476Y26283
X93476Y24750
X93578Y68972
X93578Y41572
X93578Y14172
X93797Y64198
X93797Y36798
X93797Y9398
X93896Y83560
X93896Y56160
X93896Y28760
X94079Y68383
X94079Y40983
X94079Y13583
X94480Y75982
X94480Y48582
X94480Y21182
X94884Y64390
X94884Y36990
X94884Y9590
X94889Y61662
X94889Y34262
X94889Y6862
X94976Y81083
X94976Y79550
X94976Y53683
X94976Y52150
X94976Y26283
X94976Y24750
X95637Y74815
X95637Y70191
X95637Y47415
X95637Y42791
X95637Y20015
X95637Y15391
X96721Y65354
X96721Y37954
X96721Y10554
X96745Y78688
X96745Y78065
X96745Y51288
X96745Y50665
X96745Y23888
X96745Y23265
X96861Y62315
X96861Y34915
X96861Y7515
X97304Y81875
X97304Y54475
X97304Y27075
X97599Y74815
X97599Y70191
X97599Y47415
X97599Y42791
X97599Y20015
X97599Y15391
X98018Y66974
X98018Y39574
X98018Y12174
X98214Y76379
X98214Y48979
X98214Y21579
X98563Y68974
X98563Y41574
X98563Y14174
X98591Y63462
X98591Y36062
X98591Y8662
X98777Y79030
X98777Y51630
X98777Y24230
X99386Y82739
X99386Y55339
X99386Y27939
X99561Y74815
X99561Y47415
X99561Y20015
X99959Y65025
X99959Y37625
X99959Y10225
X100004Y76829
X100004Y49429
X100004Y22029
X100385Y60877
X100385Y60257
X100385Y33477
X100385Y32857
X100385Y6077
X100385Y5457
X100855Y75076
X100855Y47676
X100855Y20276
X100856Y66899
X100856Y39499
X100856Y12099
X100957Y62859
X100957Y35459
X100957Y8059
X101001Y83303
X101001Y81553
X101001Y55903
X101001Y54153
X101001Y28503
X101001Y26753
X101222Y68943
X101222Y41543
X101222Y14143
X101238Y73049
X101238Y71026
X101238Y45649
X101238Y43626
X101238Y18249
X101238Y16226
X101592Y62859
X101592Y35459
X101592Y8059
X102001Y64053
X102001Y36653
X102001Y9253
X102417Y62478
X102417Y35078
X102417Y7678
X102587Y79945
X102587Y52545
X102587Y25145
X102735Y77819
X102735Y77210
X102735Y50419
X102735Y49810
X102735Y23019
X102735Y22410
X102751Y81553
X102751Y54153
X102751Y26753
X103052Y62478
X103052Y35078
X103052Y7678
T3
X39517Y70055
X39517Y67855
X40697Y66665
X40727Y71255
X42897Y71255
X42947Y66665
X44117Y70255
X44117Y67655
X39517Y15255
X39517Y13055
X40697Y11865
X40727Y16455
X42897Y16455
X42947Y11865
X44117Y15455
X44117Y12855
X5767Y70055
X5767Y67855
X6947Y66665
X6977Y71255
X9147Y71255
X9197Y66665
X10367Y70255
X10367Y67655
X39517Y21351
X39517Y19151
X40697Y17961
X40727Y22551
X42897Y22551
X42947Y17961
X44117Y21551
X44117Y18951
X39517Y48751
X39517Y46551
X40697Y45361
X40727Y49951
X42897Y49951
X42947Y45361
X44117Y48951
X44117Y46351
X5767Y36559
X5767Y34359
X6947Y33169
X6977Y37759
X9147Y37759
X9197Y33169
X10367Y36759
X10367Y34159
X5767Y76151
X5767Y73951
X6947Y72761
X6977Y77351
X9147Y77351
X9197Y72761
X10367Y76351
X10367Y73751
X39517Y76151
X39517Y73951
X40697Y72761
X40727Y77351
X42897Y77351
X42947Y72761
X44117Y76351
X44117Y73751
X39517Y9159
X39517Y6959
X40697Y5769
X40727Y10359
X42897Y10359
X42947Y5769
X44117Y9359
X44117Y6759
X73267Y63959
X73267Y61759
X74447Y60569
X74477Y65159
X76647Y65159
X76697Y60569
X77867Y64159
X77867Y61559
X73267Y9159
X73267Y6959
X74447Y5769
X74477Y10359
X76647Y10359
X76697Y5769
X77867Y9359
X77867Y6759
X39517Y42655
X39517Y40455
X40697Y39265
X40727Y43855
X42897Y43855
X42947Y39265
X44117Y42855
X44117Y40255
X39517Y36559
X39517Y34359
X40697Y33169
X40727Y37759
X42897Y37759
X42947Y33169
X44117Y36759
X44117Y34159
X5767Y21351
X5767Y19151
X6947Y17961
X6977Y22551
X9147Y22551
X9197Y17961
X10367Y21551
X10367Y18951
X5767Y48751
X5767Y46551
X6947Y45361
X6977Y49951
X9147Y49951
X9197Y45361
X10367Y48951
X10367Y46351
X73267Y76151
X73267Y73951
X74447Y72761
X74477Y77351
X76647Y77351
X76697Y72761
X77867Y76351
X77867Y73751
X5767Y63959
X5767Y61759
X6947Y60569
X6977Y65159
X9147Y65159
X9197Y60569
X10367Y64159
X10367Y61559
X5767Y9159
X5767Y6959
X6947Y5769
X6977Y10359
X9147Y10359
X9197Y5769
X10367Y9359
X10367Y6759
X73267Y70055
X73267Y67855
X74447Y66665
X74477Y71255
X76647Y71255
X76697Y66665
X77867Y70255
X77867Y67655
X73267Y15255
X73267Y13055
X74447Y11865
X74477Y16455
X76647Y16455
X76697Y11865
X77867Y15455
X77867Y12855
X73267Y42655
X73267Y40455
X74447Y39265
X74477Y43855
X76647Y43855
X76697Y39265
X77867Y42855
X77867Y40255
X73267Y48751
X73267Y46551
X74447Y45361
X74477Y49951
X76647Y49951
X76697Y45361
X77867Y48951
X77867Y46351
X5767Y15255
X5767Y13055
X6947Y11865
X6977Y16455
X9147Y16455
X9197Y11865
X10367Y15455
X10367Y12855
X73267Y21351
X73267Y19151
X74447Y17961
X74477Y22551
X76647Y22551
X76697Y17961
X77867Y21551
X77867Y18951
X5767Y42655
X5767Y40455
X6947Y39265
X6977Y43855
X9147Y43855
X9197Y39265
X10367Y42855
X10367Y40255
X73267Y36559
X73267Y34359
X74447Y33169
X74477Y37759
X76647Y37759
X76697Y33169
X77867Y36759
X77867Y34159
X39517Y63959
X39517Y61759
X40697Y60569
X40727Y65159
X42897Y65159
X42947Y60569
X44117Y64159
X44117Y61559
T4
X16185Y84703
X16185Y59303
X17455Y84703
X17455Y59303
X18725Y84703
X18725Y59303
X19995Y84703
X19995Y59303
X21265Y84703
X21265Y59303
X22535Y84703
X22535Y59303
X23805Y84703
X23805Y59303
X25075Y84703
X25075Y59303
X26345Y84703
X26345Y59303
X27615Y84703
X27615Y59303
X28885Y84703
X28885Y59303
X30155Y84703
X30155Y59303
X31425Y84703
X31425Y59303
X32695Y84703
X32695Y59303
X33965Y84703
X33965Y59303
X35235Y84703
X35235Y59303
X16185Y29903
X16185Y4503
X17455Y29903
X17455Y4503
X18725Y29903
X18725Y4503
X19995Y29903
X19995Y4503
X21265Y29903
X21265Y4503
X22535Y29903
X22535Y4503
X23805Y29903
X23805Y4503
X25075Y29903
X25075Y4503
X26345Y29903
X26345Y4503
X27615Y29903
X27615Y4503
X28885Y29903
X28885Y4503
X30155Y29903
X30155Y4503
X31425Y29903
X31425Y4503
X32695Y29903
X32695Y4503
X33965Y29903
X33965Y4503
X35235Y29903
X35235Y4503
X49935Y57303
X49935Y31903
X51205Y57303
X51205Y31903
X52475Y57303
X52475Y31903
X53745Y57303
X53745Y31903
X55015Y57303
X55015Y31903
X56285Y57303
X56285Y31903
X57555Y57303
X57555Y31903
X58825Y57303
X58825Y31903
X60095Y57303
X60095Y31903
X61365Y57303
X61365Y31903
X62635Y57303
X62635Y31903
X63905Y57303
X63905Y31903
X65175Y57303
X65175Y31903
X66445Y57303
X66445Y31903
X67715Y57303
X67715Y31903
X68985Y57303
X68985Y31903
X83685Y57303
X83685Y31903
X84955Y57303
X84955Y31903
X86225Y57303
X86225Y31903
X87495Y57303
X87495Y31903
X88765Y57303
X88765Y31903
X90035Y57303
X90035Y31903
X91305Y57303
X91305Y31903
X92575Y57303
X92575Y31903
X93845Y57303
X93845Y31903
X95115Y57303
X95115Y31903
X96385Y57303
X96385Y31903
X97655Y57303
X97655Y31903
X98925Y57303
X98925Y31903
X100195Y57303
X100195Y31903
X101465Y57303
X101465Y31903
X102735Y57303
X102735Y31903
X83685Y84703
X83685Y59303
X84955Y84703
X84955Y59303
X86225Y84703
X86225Y59303
X87495Y84703
X87495Y59303
X88765Y84703
X88765Y59303
X90035Y84703
X90035Y59303
X91305Y84703
X91305Y59303
X92575Y84703
X92575Y59303
X93845Y84703
X93845Y59303
X95115Y84703
X95115Y59303
X96385Y84703
X96385Y59303
X97655Y84703
X97655Y59303
X98925Y84703
X98925Y59303
X100195Y84703
X100195Y59303
X101465Y84703
X101465Y59303
X102735Y84703
X102735Y59303
X16185Y57303
X16185Y31903
X17455Y57303
X17455Y31903
X18725Y57303
X18725Y31903
X19995Y57303
X19995Y31903
X21265Y57303
X21265Y31903
X22535Y57303
X22535Y31903
X23805Y57303
X23805Y31903
X25075Y57303
X25075Y31903
X26345Y57303
X26345Y31903
X27615Y57303
X27615Y31903
X28885Y57303
X28885Y31903
X30155Y57303
X30155Y31903
X31425Y57303
X31425Y31903
X32695Y57303
X32695Y31903
X33965Y57303
X33965Y31903
X35235Y57303
X35235Y31903
X83685Y29903
X83685Y4503
X84955Y29903
X84955Y4503
X86225Y29903
X86225Y4503
X87495Y29903
X87495Y4503
X88765Y29903
X88765Y4503
X90035Y29903
X90035Y4503
X91305Y29903
X91305Y4503
X92575Y29903
X92575Y4503
X93845Y29903
X93845Y4503
X95115Y29903
X95115Y4503
X96385Y29903
X96385Y4503
X97655Y29903
X97655Y4503
X98925Y29903
X98925Y4503
X100195Y29903
X100195Y4503
X101465Y29903
X101465Y4503
X102735Y29903
X102735Y4503
X49935Y29903
X49935Y4503
X51205Y29903
X51205Y4503
X52475Y29903
X52475Y4503
X53745Y29903
X53745Y4503
X55015Y29903
X55015Y4503
X56285Y29903
X56285Y4503
X57555Y29903
X57555Y4503
X58825Y29903
X58825Y4503
X60095Y29903
X60095Y4503
X61365Y29903
X61365Y4503
X62635Y29903
X62635Y4503
X63905Y29903
X63905Y4503
X65175Y29903
X65175Y4503
X66445Y29903
X66445Y4503
X67715Y29903
X67715Y4503
X68985Y29903
X68985Y4503
X49935Y84703
X49935Y59303
X51205Y84703
X51205Y59303
X52475Y84703
X52475Y59303
X53745Y84703
X53745Y59303
X55015Y84703
X55015Y59303
X56285Y84703
X56285Y59303
X57555Y84703
X57555Y59303
X58825Y84703
X58825Y59303
X60095Y84703
X60095Y59303
X61365Y84703
X61365Y59303
X62635Y84703
X62635Y59303
X63905Y84703
X63905Y59303
X65175Y84703
X65175Y59303
X66445Y84703
X66445Y59303
X67715Y84703
X67715Y59303
X68985Y84703
X68985Y59303
T0
M30
