M48
INCH
T1C0.0157
%
G90
G05
T1
X2.741Y1.0405
X2.741Y1.0169
X2.741Y0.9932
X2.741Y0.9696
X2.8198Y1.0405
X2.8198Y1.0169
X2.8198Y0.9932
X2.8198Y0.9696
X0.0835Y0.3554
X0.0835Y0.3318
X0.0835Y0.3082
X0.0835Y0.2846
X0.1623Y0.3554
X0.1623Y0.3318
X0.1623Y0.3082
X0.1623Y0.2846
X4.0698Y1.0405
X4.0698Y1.0169
X4.0698Y0.9932
X4.0698Y0.9696
X4.1485Y1.0405
X4.1485Y1.0169
X4.1485Y0.9932
X4.1485Y0.9696
X1.4123Y1.0405
X1.4123Y1.0169
X1.4123Y0.9932
X1.4123Y0.9696
X1.491Y1.0405
X1.491Y1.0169
X1.491Y0.9932
X1.491Y0.9696
X4.0698Y1.4342
X4.0698Y1.4106
X4.0698Y1.3869
X4.0698Y1.3633
X4.1485Y1.4342
X4.1485Y1.4106
X4.1485Y1.3869
X4.1485Y1.3633
X4.0698Y0.3554
X4.0698Y0.3318
X4.0698Y0.3082
X4.0698Y0.2846
X4.1485Y0.3554
X4.1485Y0.3318
X4.1485Y0.3082
X4.1485Y0.2846
X0.0835Y1.0405
X0.0835Y1.0169
X0.0835Y0.9932
X0.0835Y0.9696
X0.1623Y1.0405
X0.1623Y1.0169
X0.1623Y0.9932
X0.1623Y0.9696
X2.741Y1.4342
X2.741Y1.4106
X2.741Y1.3869
X2.741Y1.3633
X2.8198Y1.4342
X2.8198Y1.4106
X2.8198Y1.3869
X2.8198Y1.3633
X1.4123Y1.4342
X1.4123Y1.4106
X1.4123Y1.3869
X1.4123Y1.3633
X1.491Y1.4342
X1.491Y1.4106
X1.491Y1.3869
X1.491Y1.3633
X0.0835Y1.4342
X0.0835Y1.4106
X0.0835Y1.3869
X0.0835Y1.3633
X0.1623Y1.4342
X0.1623Y1.4106
X0.1623Y1.3869
X0.1623Y1.3633
X2.741Y0.3554
X2.741Y0.3318
X2.741Y0.3082
X2.741Y0.2846
X2.8198Y0.3554
X2.8198Y0.3318
X2.8198Y0.3082
X2.8198Y0.2846
X0.0835Y3.198
X0.0835Y3.1743
X0.0835Y3.1507
X0.0835Y3.1271
X0.1623Y3.198
X0.1623Y3.1743
X0.1623Y3.1507
X0.1623Y3.1271
X4.0698Y2.5129
X4.0698Y2.4893
X4.0698Y2.4657
X4.0698Y2.4421
X4.1485Y2.5129
X4.1485Y2.4893
X4.1485Y2.4657
X4.1485Y2.4421
X4.0698Y2.1192
X4.0698Y2.0956
X4.0698Y2.072
X4.0698Y2.0484
X4.1485Y2.1192
X4.1485Y2.0956
X4.1485Y2.072
X4.1485Y2.0484
X1.4123Y3.198
X1.4123Y3.1743
X1.4123Y3.1507
X1.4123Y3.1271
X1.491Y3.198
X1.491Y3.1743
X1.491Y3.1507
X1.491Y3.1271
X2.741Y2.5129
X2.741Y2.4893
X2.741Y2.4657
X2.741Y2.4421
X2.8198Y2.5129
X2.8198Y2.4893
X2.8198Y2.4657
X2.8198Y2.4421
X2.741Y3.198
X2.741Y3.1743
X2.741Y3.1507
X2.741Y3.1271
X2.8198Y3.198
X2.8198Y3.1743
X2.8198Y3.1507
X2.8198Y3.1271
X1.4123Y2.5129
X1.4123Y2.4893
X1.4123Y2.4657
X1.4123Y2.4421
X1.491Y2.5129
X1.491Y2.4893
X1.491Y2.4657
X1.491Y2.4421
X0.0835Y2.1192
X0.0835Y2.0956
X0.0835Y2.072
X0.0835Y2.0484
X0.1623Y2.1192
X0.1623Y2.0956
X0.1623Y2.072
X0.1623Y2.0484
X4.0698Y3.198
X4.0698Y3.1743
X4.0698Y3.1507
X4.0698Y3.1271
X4.1485Y3.198
X4.1485Y3.1743
X4.1485Y3.1507
X4.1485Y3.1271
X2.741Y2.1192
X2.741Y2.0956
X2.741Y2.072
X2.741Y2.0484
X2.8198Y2.1192
X2.8198Y2.0956
X2.8198Y2.072
X2.8198Y2.0484
X1.4123Y2.1192
X1.4123Y2.0956
X1.4123Y2.072
X1.4123Y2.0484
X1.491Y2.1192
X1.491Y2.0956
X1.491Y2.072
X1.491Y2.0484
X1.4123Y0.3554
X1.4123Y0.3318
X1.4123Y0.3082
X1.4123Y0.2846
X1.491Y0.3554
X1.491Y0.3318
X1.491Y0.3082
X1.491Y0.2846
X0.0835Y2.5129
X0.0835Y2.4893
X0.0835Y2.4657
X0.0835Y2.4421
X0.1623Y2.5129
X0.1623Y2.4893
X0.1623Y2.4657
X0.1623Y2.4421
T0
M30
