M48
METRIC,TZ
T1C0.300
T2C0.350
T3C0.400
T4C0.600
%
G90
G05
T1
X16747Y-11490
X16747Y-12190
X16747Y-13990
X16747Y-14690
X18947Y-11490
X18947Y-13090
X18947Y-14690
X-17003Y43310
X-17003Y42610
X-17003Y40810
X-17003Y40110
X-14803Y43310
X-14803Y41710
X-14803Y40110
X-17003Y15910
X-17003Y15210
X-17003Y13410
X-17003Y12710
X-14803Y15910
X-14803Y14310
X-14803Y12710
X-17003Y-11490
X-17003Y-12190
X-17003Y-13990
X-17003Y-14690
X-14803Y-11490
X-14803Y-13090
X-14803Y-14690
X16747Y43310
X16747Y42610
X16747Y40810
X16747Y40110
X18947Y43310
X18947Y41710
X18947Y40110
X16747Y15910
X16747Y15210
X16747Y13410
X16747Y12710
X18947Y15910
X18947Y14310
X18947Y12710
X50497Y-11490
X50497Y-12190
X50497Y-13990
X50497Y-14690
X52697Y-11490
X52697Y-13090
X52697Y-14690
X50497Y43310
X50497Y42610
X50497Y40810
X50497Y40110
X52697Y43310
X52697Y41710
X52697Y40110
X50497Y15910
X50497Y15210
X50497Y13410
X50497Y12710
X52697Y15910
X52697Y14310
X52697Y12710
T2
X-27273Y46087
X-27273Y37333
X-27273Y18687
X-27273Y9933
X-27273Y-8713
X-27273Y-17467
X-27082Y33895
X-27082Y6495
X-27082Y-20905
X-27021Y31237
X-27021Y3837
X-27021Y-23563
X-26932Y43416
X-26932Y16016
X-26932Y-11384
X-26932Y40004
X-26932Y12604
X-26932Y-14796
X-25311Y45996
X-25311Y37424
X-25311Y18596
X-25311Y10024
X-25311Y-8804
X-25311Y-17376
X-25120Y33895
X-25120Y6495
X-25120Y-20905
X-25059Y31237
X-25059Y3837
X-25059Y-23563
X-24927Y40258
X-24927Y12858
X-24927Y-14542
X-24919Y43160
X-24919Y15760
X-24919Y-11640
X-23262Y37934
X-23262Y10534
X-23262Y-16866
X-23245Y45481
X-23245Y18081
X-23245Y-9319
X-23158Y33895
X-23158Y6495
X-23158Y-20905
X-23097Y31237
X-23097Y3837
X-23097Y-23563
X-22881Y40769
X-22881Y13369
X-22881Y-14031
X-22856Y42644
X-22856Y15244
X-22856Y-12156
X-22794Y53457
X-22794Y26058
X-22794Y-1343
X-22159Y53457
X-22159Y26058
X-22159Y-1343
X-21214Y38445
X-21214Y11045
X-21214Y-16355
X-21196Y33895
X-21196Y6495
X-21196Y-20905
X-21180Y44972
X-21180Y42356
X-21180Y41060
X-21180Y17572
X-21180Y14956
X-21180Y13660
X-21180Y-9828
X-21180Y-12444
X-21180Y-13740
X-21135Y31237
X-21135Y3837
X-21135Y-23563
X-19410Y53010
X-19410Y51010
X-19410Y49010
X-19410Y25610
X-19410Y23610
X-19410Y21610
X-19410Y-1790
X-19410Y-3790
X-19410Y-5790
X-19252Y38445
X-19252Y11045
X-19252Y-16355
X-19231Y33897
X-19231Y6497
X-19231Y-20903
X-19218Y44972
X-19218Y17572
X-19218Y-9828
X-19174Y31243
X-19174Y3843
X-19174Y-23557
X-19146Y42044
X-19146Y41333
X-19146Y14644
X-19146Y13933
X-19146Y-12756
X-19146Y-13467
X-18700Y34711
X-18700Y7311
X-18700Y-20089
X-18158Y50790
X-18158Y23391
X-18158Y-4010
X-18031Y47869
X-18031Y20470
X-18031Y-6931
X-17906Y44785
X-17906Y17385
X-17906Y-10015
X-17903Y38610
X-17903Y11210
X-17903Y-16190
X-17209Y31248
X-17209Y3848
X-17209Y-23552
X-16792Y46028
X-16792Y37810
X-16792Y18628
X-16792Y10410
X-16792Y-8772
X-16792Y-16990
X-16738Y34711
X-16738Y7311
X-16738Y-20089
X-16014Y46028
X-16014Y37810
X-16014Y18628
X-16014Y10410
X-16014Y-8772
X-16014Y-16990
X-15362Y46536
X-15362Y19136
X-15362Y-8264
X-15267Y37450
X-15267Y10050
X-15267Y-17350
X-15247Y31248
X-15247Y3848
X-15247Y-23552
X-15019Y49398
X-15019Y21998
X-15019Y-5402
X-14958Y50897
X-14958Y50170
X-14958Y23497
X-14958Y22770
X-14958Y-3903
X-14958Y-4630
X-14776Y34711
X-14776Y7311
X-14776Y-20089
X-14584Y46536
X-14584Y19136
X-14584Y-8264
X-14489Y37450
X-14489Y10050
X-14489Y-17350
X-14395Y52345
X-14395Y24945
X-14395Y-2455
X-14297Y45647
X-14297Y18247
X-14297Y-9153
X-14058Y38128
X-14058Y10728
X-14058Y-16672
X-13285Y31248
X-13285Y3848
X-13285Y-23552
X-12814Y34711
X-12814Y7311
X-12814Y-20089
X-12685Y50790
X-12685Y49258
X-12685Y23390
X-12685Y21858
X-12685Y-4010
X-12685Y-5542
X-12583Y38680
X-12583Y11280
X-12583Y-16120
X-12364Y33905
X-12364Y6505
X-12364Y-20895
X-12265Y53267
X-12265Y25867
X-12265Y-1533
X-12082Y38091
X-12082Y10691
X-12082Y-16710
X-11681Y45690
X-11681Y18290
X-11681Y-9110
X-11277Y34097
X-11277Y6697
X-11277Y-20703
X-11272Y31370
X-11272Y3970
X-11272Y-23430
X-11185Y50790
X-11185Y49258
X-11185Y23390
X-11185Y21858
X-11185Y-4010
X-11185Y-5542
X-10524Y44522
X-10524Y39898
X-10524Y17122
X-10524Y12498
X-10524Y-10278
X-10524Y-14902
X-9440Y35061
X-9440Y7661
X-9440Y-19739
X-9416Y48395
X-9416Y47773
X-9416Y20995
X-9416Y20373
X-9416Y-6405
X-9416Y-7027
X-9300Y32022
X-9300Y4622
X-9300Y-22778
X-8857Y51583
X-8857Y24183
X-8857Y-3217
X-8562Y44522
X-8562Y39898
X-8562Y17122
X-8562Y12498
X-8562Y-10278
X-8562Y-14902
X-8143Y36681
X-8143Y9281
X-8143Y-18119
X-7947Y46087
X-7947Y18687
X-7947Y-8713
X-7598Y38682
X-7598Y11282
X-7598Y-16118
X-7570Y33170
X-7570Y5770
X-7570Y-21630
X-7384Y48738
X-7384Y21338
X-7384Y-6062
X-6775Y52446
X-6775Y25046
X-6775Y-2354
X-6600Y44522
X-6600Y17122
X-6600Y-10278
X-6202Y34732
X-6202Y7332
X-6202Y-20068
X-6157Y46536
X-6157Y19136
X-6157Y-8264
X-5776Y30585
X-5776Y29965
X-5776Y3185
X-5776Y2565
X-5776Y-24215
X-5776Y-24835
X-5306Y44783
X-5306Y17383
X-5306Y-10017
X-5305Y36607
X-5305Y9207
X-5305Y-18193
X-5204Y32566
X-5204Y5166
X-5204Y-22234
X-5160Y53010
X-5160Y51260
X-5160Y25610
X-5160Y23860
X-5160Y-1790
X-5160Y-3540
X-4939Y38650
X-4939Y11250
X-4939Y-16150
X-4923Y42757
X-4923Y40734
X-4923Y15357
X-4923Y13334
X-4923Y-12043
X-4923Y-14066
X-4569Y32566
X-4569Y5166
X-4569Y-22234
X-4160Y33760
X-4160Y6360
X-4160Y-21040
X-3744Y32185
X-3744Y4785
X-3744Y-22615
X-3574Y49652
X-3574Y22252
X-3574Y-5148
X-3426Y47527
X-3426Y46917
X-3426Y20127
X-3426Y19517
X-3426Y-7273
X-3426Y-7883
X-3410Y51260
X-3410Y23860
X-3410Y-3540
X-3108Y32185
X-3108Y4785
X-3108Y-22615
X6477Y46087
X6477Y37333
X6477Y18687
X6477Y9933
X6477Y-8713
X6477Y-17467
X6668Y33895
X6668Y6495
X6668Y-20905
X6729Y31237
X6729Y3837
X6729Y-23563
X6818Y43416
X6818Y16016
X6818Y-11384
X6818Y40004
X6818Y12604
X6818Y-14796
X8439Y45996
X8439Y37424
X8439Y18596
X8439Y10024
X8439Y-8804
X8439Y-17376
X8630Y33895
X8630Y6495
X8630Y-20905
X8691Y31237
X8691Y3837
X8691Y-23563
X8823Y40258
X8823Y12858
X8823Y-14542
X8831Y43160
X8831Y15760
X8831Y-11640
X10488Y37934
X10488Y10534
X10488Y-16866
X10505Y45481
X10505Y18081
X10505Y-9319
X10592Y33895
X10592Y6495
X10592Y-20905
X10653Y31237
X10653Y3837
X10653Y-23563
X10869Y40769
X10869Y13369
X10869Y-14031
X10894Y42644
X10894Y15244
X10894Y-12156
X10957Y53457
X10957Y26058
X10957Y-1343
X11591Y53457
X11591Y26058
X11591Y-1343
X12536Y38445
X12536Y11045
X12536Y-16355
X12554Y33895
X12554Y6495
X12554Y-20905
X12570Y44972
X12570Y42356
X12570Y41060
X12570Y17572
X12570Y14956
X12570Y13660
X12570Y-9828
X12570Y-12444
X12570Y-13740
X12615Y31237
X12615Y3837
X12615Y-23563
X14340Y53010
X14340Y51010
X14340Y49010
X14340Y25610
X14340Y23610
X14340Y21610
X14340Y-1790
X14340Y-3790
X14340Y-5790
X14498Y38445
X14498Y11045
X14498Y-16355
X14519Y33897
X14519Y6497
X14519Y-20903
X14532Y44972
X14532Y17572
X14532Y-9828
X14576Y31243
X14576Y3843
X14576Y-23557
X14604Y42044
X14604Y41333
X14604Y14644
X14604Y13933
X14604Y-12756
X14604Y-13467
X15050Y34711
X15050Y7311
X15050Y-20089
X15592Y50790
X15592Y23391
X15592Y-4010
X15719Y47869
X15719Y20470
X15719Y-6931
X15844Y44785
X15844Y17385
X15844Y-10015
X15847Y38610
X15847Y11210
X15847Y-16190
X16541Y31248
X16541Y3848
X16541Y-23552
X16958Y46028
X16958Y37810
X16958Y18628
X16958Y10410
X16958Y-8772
X16958Y-16990
X17012Y34711
X17012Y7311
X17012Y-20089
X17736Y46028
X17736Y37810
X17736Y18628
X17736Y10410
X17736Y-8772
X17736Y-16990
X18388Y46536
X18388Y19136
X18388Y-8264
X18483Y37450
X18483Y10050
X18483Y-17350
X18503Y31248
X18503Y3848
X18503Y-23552
X18731Y49398
X18731Y21998
X18731Y-5402
X18792Y50897
X18792Y50170
X18792Y23497
X18792Y22770
X18792Y-3903
X18792Y-4630
X18974Y34711
X18974Y7311
X18974Y-20089
X19166Y46536
X19166Y19136
X19166Y-8264
X19261Y37450
X19261Y10050
X19261Y-17350
X19355Y52345
X19355Y24945
X19355Y-2455
X19453Y45647
X19453Y18247
X19453Y-9153
X19692Y38128
X19692Y10728
X19692Y-16672
X20465Y31248
X20465Y3848
X20465Y-23552
X20936Y34711
X20936Y7311
X20936Y-20089
X21065Y50790
X21065Y49258
X21065Y23390
X21065Y21858
X21065Y-4010
X21065Y-5542
X21167Y38680
X21167Y11280
X21167Y-16120
X21386Y33905
X21386Y6505
X21386Y-20895
X21485Y53267
X21485Y25867
X21485Y-1533
X21668Y38091
X21668Y10691
X21668Y-16710
X22069Y45690
X22069Y18290
X22069Y-9110
X22473Y34097
X22473Y6697
X22473Y-20703
X22478Y31370
X22478Y3970
X22478Y-23430
X22565Y50790
X22565Y49258
X22565Y23390
X22565Y21858
X22565Y-4010
X22565Y-5542
X23226Y44522
X23226Y39898
X23226Y17122
X23226Y12498
X23226Y-10278
X23226Y-14902
X24310Y35061
X24310Y7661
X24310Y-19739
X24334Y48395
X24334Y47773
X24334Y20995
X24334Y20373
X24334Y-6405
X24334Y-7027
X24450Y32022
X24450Y4622
X24450Y-22778
X24893Y51583
X24893Y24183
X24893Y-3217
X25188Y44522
X25188Y39898
X25188Y17122
X25188Y12498
X25188Y-10278
X25188Y-14902
X25607Y36681
X25607Y9281
X25607Y-18119
X25803Y46087
X25803Y18687
X25803Y-8713
X26152Y38682
X26152Y11282
X26152Y-16118
X26180Y33170
X26180Y5770
X26180Y-21630
X26366Y48738
X26366Y21338
X26366Y-6062
X26975Y52446
X26975Y25046
X26975Y-2354
X27150Y44522
X27150Y17122
X27150Y-10278
X27548Y34732
X27548Y7332
X27548Y-20068
X27594Y46536
X27594Y19136
X27594Y-8264
X27975Y30585
X27975Y29965
X27975Y3185
X27975Y2565
X27975Y-24215
X27975Y-24835
X28444Y44783
X28444Y17383
X28444Y-10017
X28445Y36607
X28445Y9207
X28445Y-18193
X28546Y32566
X28546Y5166
X28546Y-22234
X28590Y53010
X28590Y51260
X28590Y25610
X28590Y23860
X28590Y-1790
X28590Y-3540
X28811Y38650
X28811Y11250
X28811Y-16150
X28827Y42757
X28827Y40734
X28827Y15357
X28827Y13334
X28827Y-12043
X28827Y-14066
X29181Y32566
X29181Y5166
X29181Y-22234
X29590Y33760
X29590Y6360
X29590Y-21040
X30007Y32185
X30007Y4785
X30007Y-22615
X30176Y49652
X30176Y22252
X30176Y-5148
X30324Y47527
X30324Y46917
X30324Y20127
X30324Y19517
X30324Y-7273
X30324Y-7883
X30340Y51260
X30340Y23860
X30340Y-3540
X30641Y32185
X30641Y4785
X30641Y-22615
X40227Y46087
X40227Y37333
X40227Y18687
X40227Y9933
X40227Y-8713
X40227Y-17467
X40418Y33895
X40418Y6495
X40418Y-20905
X40479Y31237
X40479Y3837
X40479Y-23563
X40568Y43416
X40568Y16016
X40568Y-11384
X40568Y40004
X40568Y12604
X40568Y-14796
X42189Y45996
X42189Y37424
X42189Y18596
X42189Y10024
X42189Y-8804
X42189Y-17376
X42380Y33895
X42380Y6495
X42380Y-20905
X42441Y31237
X42441Y3837
X42441Y-23563
X42573Y40258
X42573Y12858
X42573Y-14542
X42581Y43160
X42581Y15760
X42581Y-11640
X44238Y37934
X44238Y10534
X44238Y-16866
X44255Y45481
X44255Y18081
X44255Y-9319
X44342Y33895
X44342Y6495
X44342Y-20905
X44403Y31237
X44403Y3837
X44403Y-23563
X44619Y40769
X44619Y13369
X44619Y-14031
X44644Y42644
X44644Y15244
X44644Y-12156
X44707Y53457
X44707Y26058
X44707Y-1343
X45342Y53457
X45342Y26058
X45342Y-1343
X46286Y38445
X46286Y11045
X46286Y-16355
X46304Y33895
X46304Y6495
X46304Y-20905
X46320Y44972
X46320Y42356
X46320Y41060
X46320Y17572
X46320Y14956
X46320Y13660
X46320Y-9828
X46320Y-12444
X46320Y-13740
X46365Y31237
X46365Y3837
X46365Y-23563
X48090Y53010
X48090Y51010
X48090Y49010
X48090Y25610
X48090Y23610
X48090Y21610
X48090Y-1790
X48090Y-3790
X48090Y-5790
X48248Y38445
X48248Y11045
X48248Y-16355
X48269Y33897
X48269Y6497
X48269Y-20903
X48282Y44972
X48282Y17572
X48282Y-9828
X48326Y31243
X48326Y3843
X48326Y-23557
X48354Y42044
X48354Y41333
X48354Y14644
X48354Y13933
X48354Y-12756
X48354Y-13467
X48800Y34711
X48800Y7311
X48800Y-20089
X49342Y50790
X49342Y23391
X49342Y-4010
X49469Y47869
X49469Y20470
X49469Y-6931
X49594Y44785
X49594Y17385
X49594Y-10015
X49597Y38610
X49597Y11210
X49597Y-16190
X50291Y31248
X50291Y3848
X50291Y-23552
X50708Y46028
X50708Y37810
X50708Y18628
X50708Y10410
X50708Y-8772
X50708Y-16990
X50762Y34711
X50762Y7311
X50762Y-20089
X51486Y46028
X51486Y37810
X51486Y18628
X51486Y10410
X51486Y-8772
X51486Y-16990
X52138Y46536
X52138Y19136
X52138Y-8264
X52233Y37450
X52233Y10050
X52233Y-17350
X52253Y31248
X52253Y3848
X52253Y-23552
X52481Y49398
X52481Y21998
X52481Y-5402
X52542Y50897
X52542Y50170
X52542Y23497
X52542Y22770
X52542Y-3903
X52542Y-4630
X52724Y34711
X52724Y7311
X52724Y-20089
X52916Y46536
X52916Y19136
X52916Y-8264
X53011Y37450
X53011Y10050
X53011Y-17350
X53105Y52345
X53105Y24945
X53105Y-2455
X53203Y45647
X53203Y18247
X53203Y-9153
X53442Y38128
X53442Y10728
X53442Y-16672
X54215Y31248
X54215Y3848
X54215Y-23552
X54686Y34711
X54686Y7311
X54686Y-20089
X54815Y50790
X54815Y49258
X54815Y23390
X54815Y21858
X54815Y-4010
X54815Y-5542
X54917Y38680
X54917Y11280
X54917Y-16120
X55136Y33905
X55136Y6505
X55136Y-20895
X55235Y53267
X55235Y25867
X55235Y-1533
X55418Y38091
X55418Y10691
X55418Y-16710
X55819Y45690
X55819Y18290
X55819Y-9110
X56223Y34097
X56223Y6697
X56223Y-20703
X56228Y31370
X56228Y3970
X56228Y-23430
X56315Y50790
X56315Y49258
X56315Y23390
X56315Y21858
X56315Y-4010
X56315Y-5542
X56976Y44522
X56976Y39898
X56976Y17122
X56976Y12498
X56976Y-10278
X56976Y-14902
X58060Y35061
X58060Y7661
X58060Y-19739
X58084Y48395
X58084Y47773
X58084Y20995
X58084Y20373
X58084Y-6405
X58084Y-7027
X58200Y32022
X58200Y4622
X58200Y-22778
X58643Y51583
X58643Y24183
X58643Y-3217
X58938Y44522
X58938Y39898
X58938Y17122
X58938Y12498
X58938Y-10278
X58938Y-14902
X59357Y36681
X59357Y9281
X59357Y-18119
X59553Y46087
X59553Y18687
X59553Y-8713
X59902Y38682
X59902Y11282
X59902Y-16118
X59930Y33170
X59930Y5770
X59930Y-21630
X60116Y48738
X60116Y21338
X60116Y-6062
X60725Y52446
X60725Y25046
X60725Y-2354
X60900Y44522
X60900Y17122
X60900Y-10278
X61298Y34732
X61298Y7332
X61298Y-20068
X61343Y46536
X61343Y19136
X61343Y-8264
X61725Y30585
X61725Y29965
X61725Y3185
X61725Y2565
X61725Y-24215
X61725Y-24835
X62194Y44783
X62194Y17383
X62194Y-10017
X62195Y36607
X62195Y9207
X62195Y-18193
X62296Y32566
X62296Y5166
X62296Y-22234
X62340Y53010
X62340Y51260
X62340Y25610
X62340Y23860
X62340Y-1790
X62340Y-3540
X62561Y38650
X62561Y11250
X62561Y-16150
X62577Y42757
X62577Y40734
X62577Y15357
X62577Y13334
X62577Y-12043
X62577Y-14066
X62931Y32566
X62931Y5166
X62931Y-22234
X63340Y33760
X63340Y6360
X63340Y-21040
X63757Y32185
X63757Y4785
X63757Y-22615
X63926Y49652
X63926Y22252
X63926Y-5148
X64074Y47527
X64074Y46917
X64074Y20127
X64074Y19517
X64074Y-7273
X64074Y-7883
X64090Y51260
X64090Y23860
X64090Y-3540
X64392Y32185
X64392Y4785
X64392Y-22615
T3
X856Y6266
X856Y4066
X2036Y2876
X2066Y7466
X4236Y7466
X4286Y2876
X5456Y6466
X5456Y3866
X34606Y6266
X34606Y4066
X35786Y2876
X35816Y7466
X37986Y7466
X38036Y2876
X39206Y6466
X39206Y3866
X34606Y45858
X34606Y43658
X35786Y42468
X35816Y47058
X37986Y47058
X38036Y42468
X39206Y46058
X39206Y43458
X34606Y12362
X34606Y10162
X35786Y8972
X35816Y13562
X37986Y13562
X38036Y8972
X39206Y12562
X39206Y9962
X856Y-15038
X856Y-17238
X2036Y-18428
X2066Y-13838
X4236Y-13838
X4286Y-18428
X5456Y-14838
X5456Y-17438
X-32894Y39762
X-32894Y37562
X-31714Y36372
X-31684Y40962
X-29514Y40962
X-29464Y36372
X-28294Y39962
X-28294Y37362
X856Y-8942
X856Y-11142
X2036Y-12332
X2066Y-7742
X4236Y-7742
X4286Y-12332
X5456Y-8742
X5456Y-11342
X-32894Y-21134
X-32894Y-23334
X-31714Y-24524
X-31684Y-19934
X-29514Y-19934
X-29464Y-24524
X-28294Y-20934
X-28294Y-23534
X34606Y39762
X34606Y37562
X35786Y36372
X35816Y40962
X37986Y40962
X38036Y36372
X39206Y39962
X39206Y37362
X856Y-21134
X856Y-23334
X2036Y-24524
X2066Y-19934
X4236Y-19934
X4286Y-24524
X5456Y-20934
X5456Y-23534
X34606Y-8942
X34606Y-11142
X35786Y-12332
X35816Y-7742
X37986Y-7742
X38036Y-12332
X39206Y-8742
X39206Y-11342
X-32894Y-8942
X-32894Y-11142
X-31714Y-12332
X-31684Y-7742
X-29514Y-7742
X-29464Y-12332
X-28294Y-8742
X-28294Y-11342
X34606Y-21134
X34606Y-23334
X35786Y-24524
X35816Y-19934
X37986Y-19934
X38036Y-24524
X39206Y-20934
X39206Y-23534
X-32894Y33666
X-32894Y31466
X-31714Y30276
X-31684Y34866
X-29514Y34866
X-29464Y30276
X-28294Y33866
X-28294Y31266
X34606Y33666
X34606Y31466
X35786Y30276
X35816Y34866
X37986Y34866
X38036Y30276
X39206Y33866
X39206Y31266
X856Y12362
X856Y10162
X2036Y8972
X2066Y13562
X4236Y13562
X4286Y8972
X5456Y12562
X5456Y9962
X-32894Y12362
X-32894Y10162
X-31714Y8972
X-31684Y13562
X-29514Y13562
X-29464Y8972
X-28294Y12562
X-28294Y9962
X-32894Y45858
X-32894Y43658
X-31714Y42468
X-31684Y47058
X-29514Y47058
X-29464Y42468
X-28294Y46058
X-28294Y43458
X856Y33666
X856Y31466
X2036Y30276
X2066Y34866
X4236Y34866
X4286Y30276
X5456Y33866
X5456Y31266
X-32894Y18458
X-32894Y16258
X-31714Y15068
X-31684Y19658
X-29514Y19658
X-29464Y15068
X-28294Y18658
X-28294Y16058
X-32894Y6266
X-32894Y4066
X-31714Y2876
X-31684Y7466
X-29514Y7466
X-29464Y2876
X-28294Y6466
X-28294Y3866
X856Y45858
X856Y43658
X2036Y42468
X2066Y47058
X4236Y47058
X4286Y42468
X5456Y46058
X5456Y43458
X-32894Y-15038
X-32894Y-17238
X-31714Y-18428
X-31684Y-13838
X-29514Y-13838
X-29464Y-18428
X-28294Y-14838
X-28294Y-17438
X34606Y-15038
X34606Y-17238
X35786Y-18428
X35816Y-13838
X37986Y-13838
X38036Y-18428
X39206Y-14838
X39206Y-17438
X856Y39762
X856Y37562
X2036Y36372
X2066Y40962
X4236Y40962
X4286Y36372
X5456Y39962
X5456Y37362
X856Y18458
X856Y16258
X2036Y15068
X2066Y19658
X4236Y19658
X4286Y15068
X5456Y18658
X5456Y16058
X34606Y18458
X34606Y16258
X35786Y15068
X35816Y19658
X37986Y19658
X38036Y15068
X39206Y18658
X39206Y16058
T4
X11274Y27010
X11274Y1610
X12544Y27010
X12544Y1610
X13814Y27010
X13814Y1610
X15084Y27010
X15084Y1610
X16354Y27010
X16354Y1610
X17624Y27010
X17624Y1610
X18894Y27010
X18894Y1610
X20164Y27010
X20164Y1610
X21434Y27010
X21434Y1610
X22704Y27010
X22704Y1610
X23974Y27010
X23974Y1610
X25244Y27010
X25244Y1610
X26514Y27010
X26514Y1610
X27784Y27010
X27784Y1610
X29054Y27010
X29054Y1610
X30324Y27010
X30324Y1610
X11274Y-390
X11274Y-25790
X12544Y-390
X12544Y-25790
X13814Y-390
X13814Y-25790
X15084Y-390
X15084Y-25790
X16354Y-390
X16354Y-25790
X17624Y-390
X17624Y-25790
X18894Y-390
X18894Y-25790
X20164Y-390
X20164Y-25790
X21434Y-390
X21434Y-25790
X22704Y-390
X22704Y-25790
X23974Y-390
X23974Y-25790
X25244Y-390
X25244Y-25790
X26514Y-390
X26514Y-25790
X27784Y-390
X27784Y-25790
X29054Y-390
X29054Y-25790
X30324Y-390
X30324Y-25790
X45024Y-390
X45024Y-25790
X46294Y-390
X46294Y-25790
X47564Y-390
X47564Y-25790
X48834Y-390
X48834Y-25790
X50104Y-390
X50104Y-25790
X51374Y-390
X51374Y-25790
X52644Y-390
X52644Y-25790
X53914Y-390
X53914Y-25790
X55184Y-390
X55184Y-25790
X56454Y-390
X56454Y-25790
X57724Y-390
X57724Y-25790
X58994Y-390
X58994Y-25790
X60264Y-390
X60264Y-25790
X61534Y-390
X61534Y-25790
X62804Y-390
X62804Y-25790
X64074Y-390
X64074Y-25790
X-22476Y54410
X-22476Y29010
X-21206Y54410
X-21206Y29010
X-19936Y54410
X-19936Y29010
X-18666Y54410
X-18666Y29010
X-17396Y54410
X-17396Y29010
X-16126Y54410
X-16126Y29010
X-14856Y54410
X-14856Y29010
X-13586Y54410
X-13586Y29010
X-12316Y54410
X-12316Y29010
X-11046Y54410
X-11046Y29010
X-9776Y54410
X-9776Y29010
X-8506Y54410
X-8506Y29010
X-7236Y54410
X-7236Y29010
X-5966Y54410
X-5966Y29010
X-4696Y54410
X-4696Y29010
X-3426Y54410
X-3426Y29010
X11274Y54410
X11274Y29010
X12544Y54410
X12544Y29010
X13814Y54410
X13814Y29010
X15084Y54410
X15084Y29010
X16354Y54410
X16354Y29010
X17624Y54410
X17624Y29010
X18894Y54410
X18894Y29010
X20164Y54410
X20164Y29010
X21434Y54410
X21434Y29010
X22704Y54410
X22704Y29010
X23974Y54410
X23974Y29010
X25244Y54410
X25244Y29010
X26514Y54410
X26514Y29010
X27784Y54410
X27784Y29010
X29054Y54410
X29054Y29010
X30324Y54410
X30324Y29010
X45024Y27010
X45024Y1610
X46294Y27010
X46294Y1610
X47564Y27010
X47564Y1610
X48834Y27010
X48834Y1610
X50104Y27010
X50104Y1610
X51374Y27010
X51374Y1610
X52644Y27010
X52644Y1610
X53914Y27010
X53914Y1610
X55184Y27010
X55184Y1610
X56454Y27010
X56454Y1610
X57724Y27010
X57724Y1610
X58994Y27010
X58994Y1610
X60264Y27010
X60264Y1610
X61534Y27010
X61534Y1610
X62804Y27010
X62804Y1610
X64074Y27010
X64074Y1610
X-22476Y27010
X-22476Y1610
X-21206Y27010
X-21206Y1610
X-19936Y27010
X-19936Y1610
X-18666Y27010
X-18666Y1610
X-17396Y27010
X-17396Y1610
X-16126Y27010
X-16126Y1610
X-14856Y27010
X-14856Y1610
X-13586Y27010
X-13586Y1610
X-12316Y27010
X-12316Y1610
X-11046Y27010
X-11046Y1610
X-9776Y27010
X-9776Y1610
X-8506Y27010
X-8506Y1610
X-7236Y27010
X-7236Y1610
X-5966Y27010
X-5966Y1610
X-4696Y27010
X-4696Y1610
X-3426Y27010
X-3426Y1610
X45024Y54410
X45024Y29010
X46294Y54410
X46294Y29010
X47564Y54410
X47564Y29010
X48834Y54410
X48834Y29010
X50104Y54410
X50104Y29010
X51374Y54410
X51374Y29010
X52644Y54410
X52644Y29010
X53914Y54410
X53914Y29010
X55184Y54410
X55184Y29010
X56454Y54410
X56454Y29010
X57724Y54410
X57724Y29010
X58994Y54410
X58994Y29010
X60264Y54410
X60264Y29010
X61534Y54410
X61534Y29010
X62804Y54410
X62804Y29010
X64074Y54410
X64074Y29010
X-22476Y-390
X-22476Y-25790
X-21206Y-390
X-21206Y-25790
X-19936Y-390
X-19936Y-25790
X-18666Y-390
X-18666Y-25790
X-17396Y-390
X-17396Y-25790
X-16126Y-390
X-16126Y-25790
X-14856Y-390
X-14856Y-25790
X-13586Y-390
X-13586Y-25790
X-12316Y-390
X-12316Y-25790
X-11046Y-390
X-11046Y-25790
X-9776Y-390
X-9776Y-25790
X-8506Y-390
X-8506Y-25790
X-7236Y-390
X-7236Y-25790
X-5966Y-390
X-5966Y-25790
X-4696Y-390
X-4696Y-25790
X-3426Y-390
X-3426Y-25790
T0
M30
