M48
; DRILL file {KiCad 5.1.4-e60b266~84~ubuntu18.04.1} date Wed 20 Nov 2019 07:53:55 PM CST
; FORMAT={-:-/ absolute / inch / decimal}
; #@! TF.CreationDate,2019-11-20T19:53:55-06:00
; #@! TF.GenerationSoftware,Kicad,Pcbnew,5.1.4-e60b266~84~ubuntu18.04.1
; #@! TF.FileFunction,NonPlated,1,4,NPTH
FMAT,2
INCH
T1C0.0157
%
G90
G05
T1
X1.4272Y1.0551
X1.4272Y1.0315
X1.4272Y1.0079
X1.4272Y0.9843
X1.5059Y1.0551
X1.5059Y1.0315
X1.5059Y1.0079
X1.5059Y0.9843
X2.7559Y1.4488
X2.7559Y1.4252
X2.7559Y1.4016
X2.7559Y1.378
X2.8346Y1.4488
X2.8346Y1.4252
X2.8346Y1.4016
X2.8346Y1.378
X0.0984Y2.1339
X0.0984Y2.1102
X0.0984Y2.0866
X0.0984Y2.063
X0.1772Y2.1339
X0.1772Y2.1102
X0.1772Y2.0866
X0.1772Y2.063
X0.0984Y1.0551
X0.0984Y1.0315
X0.0984Y1.0079
X0.0984Y0.9843
X0.1772Y1.0551
X0.1772Y1.0315
X0.1772Y1.0079
X0.1772Y0.9843
X4.0846Y0.3701
X4.0846Y0.3465
X4.0846Y0.3228
X4.0846Y0.2992
X4.1634Y0.3701
X4.1634Y0.3465
X4.1634Y0.3228
X4.1634Y0.2992
X1.4272Y1.4488
X1.4272Y1.4252
X1.4272Y1.4016
X1.4272Y1.378
X1.5059Y1.4488
X1.5059Y1.4252
X1.5059Y1.4016
X1.5059Y1.378
X2.7559Y0.3701
X2.7559Y0.3465
X2.7559Y0.3228
X2.7559Y0.2992
X2.8346Y0.3701
X2.8346Y0.3465
X2.8346Y0.3228
X2.8346Y0.2992
X0.0984Y0.3701
X0.0984Y0.3465
X0.0984Y0.3228
X0.0984Y0.2992
X0.1772Y0.3701
X0.1772Y0.3465
X0.1772Y0.3228
X0.1772Y0.2992
X0.0984Y1.4488
X0.0984Y1.4252
X0.0984Y1.4016
X0.0984Y1.378
X0.1772Y1.4488
X0.1772Y1.4252
X0.1772Y1.4016
X0.1772Y1.378
X4.0846Y1.4488
X4.0846Y1.4252
X4.0846Y1.4016
X4.0846Y1.378
X4.1634Y1.4488
X4.1634Y1.4252
X4.1634Y1.4016
X4.1634Y1.378
X2.7559Y3.2126
X2.7559Y3.189
X2.7559Y3.1654
X2.7559Y3.1417
X2.8346Y3.2126
X2.8346Y3.189
X2.8346Y3.1654
X2.8346Y3.1417
X0.0984Y2.5276
X0.0984Y2.5039
X0.0984Y2.4803
X0.0984Y2.4567
X0.1772Y2.5276
X0.1772Y2.5039
X0.1772Y2.4803
X0.1772Y2.4567
X0.0984Y3.2126
X0.0984Y3.189
X0.0984Y3.1654
X0.0984Y3.1417
X0.1772Y3.2126
X0.1772Y3.189
X0.1772Y3.1654
X0.1772Y3.1417
X1.4272Y2.1339
X1.4272Y2.1102
X1.4272Y2.0866
X1.4272Y2.063
X1.5059Y2.1339
X1.5059Y2.1102
X1.5059Y2.0866
X1.5059Y2.063
X2.7559Y2.5276
X2.7559Y2.5039
X2.7559Y2.4803
X2.7559Y2.4567
X2.8346Y2.5276
X2.8346Y2.5039
X2.8346Y2.4803
X2.8346Y2.4567
X4.0846Y3.2126
X4.0846Y3.189
X4.0846Y3.1654
X4.0846Y3.1417
X4.1634Y3.2126
X4.1634Y3.189
X4.1634Y3.1654
X4.1634Y3.1417
X1.4272Y2.5276
X1.4272Y2.5039
X1.4272Y2.4803
X1.4272Y2.4567
X1.5059Y2.5276
X1.5059Y2.5039
X1.5059Y2.4803
X1.5059Y2.4567
X2.7559Y2.1339
X2.7559Y2.1102
X2.7559Y2.0866
X2.7559Y2.063
X2.8346Y2.1339
X2.8346Y2.1102
X2.8346Y2.0866
X2.8346Y2.063
X4.0846Y1.0551
X4.0846Y1.0315
X4.0846Y1.0079
X4.0846Y0.9843
X4.1634Y1.0551
X4.1634Y1.0315
X4.1634Y1.0079
X4.1634Y0.9843
X4.0846Y2.5276
X4.0846Y2.5039
X4.0846Y2.4803
X4.0846Y2.4567
X4.1634Y2.5276
X4.1634Y2.5039
X4.1634Y2.4803
X4.1634Y2.4567
X1.4272Y3.2126
X1.4272Y3.189
X1.4272Y3.1654
X1.4272Y3.1417
X1.5059Y3.2126
X1.5059Y3.189
X1.5059Y3.1654
X1.5059Y3.1417
X2.7559Y1.0551
X2.7559Y1.0315
X2.7559Y1.0079
X2.7559Y0.9843
X2.8346Y1.0551
X2.8346Y1.0315
X2.8346Y1.0079
X2.8346Y0.9843
X1.4272Y0.3701
X1.4272Y0.3465
X1.4272Y0.3228
X1.4272Y0.2992
X1.5059Y0.3701
X1.5059Y0.3465
X1.5059Y0.3228
X1.5059Y0.2992
X4.0846Y2.1339
X4.0846Y2.1102
X4.0846Y2.0866
X4.0846Y2.063
X4.1634Y2.1339
X4.1634Y2.1102
X4.1634Y2.0866
X4.1634Y2.063
T0
M30
