G04 #@! TF.GenerationSoftware,KiCad,Pcbnew,(5.1.2)-2*
G04 #@! TF.CreationDate,2019-11-16T13:35:15-06:00*
G04 #@! TF.ProjectId,spi_control,7370695f-636f-46e7-9472-6f6c2e6b6963,rev?*
G04 #@! TF.SameCoordinates,Original*
G04 #@! TF.FileFunction,Legend,Top*
G04 #@! TF.FilePolarity,Positive*
%FSLAX46Y46*%
G04 Gerber Fmt 4.6, Leading zero omitted, Abs format (unit mm)*
G04 Created by KiCad (PCBNEW (5.1.2)-2) date 2019-11-16 13:35:15*
%MOMM*%
%LPD*%
G04 APERTURE LIST*
%ADD10C,0.120000*%
%ADD11C,0.150000*%
%ADD12C,0.010000*%
%ADD13C,0.100000*%
G04 APERTURE END LIST*
D10*
X73209410Y-76596814D02*
X73545286Y-76260938D01*
X63334664Y-76260938D02*
X63670540Y-76596814D01*
X63670540Y-75925062D02*
X63334664Y-76260938D01*
X68439975Y-71155627D02*
X68775851Y-71491503D01*
X68104099Y-71491503D02*
X68439975Y-71155627D01*
X68439975Y-81366249D02*
X68104099Y-81030373D01*
X68775851Y-81030373D02*
X68439975Y-81366249D01*
D11*
X80645000Y-89789000D02*
X80645000Y-89154000D01*
X81280000Y-89789000D02*
X80645000Y-89789000D01*
X113411000Y-63627000D02*
X102870000Y-63627000D01*
X113411000Y-89281000D02*
X113411000Y-63627000D01*
X102870000Y-89281000D02*
X113411000Y-89281000D01*
X81407000Y-63754000D02*
X81407000Y-89154000D01*
D10*
X70734000Y-66903400D02*
X66934000Y-66903400D01*
X70734000Y-70053400D02*
X70734000Y-66903400D01*
D12*
G36*
X76109438Y-58796805D02*
G01*
X76128555Y-58796865D01*
X76145205Y-58796995D01*
X76159846Y-58797217D01*
X76172937Y-58797552D01*
X76184938Y-58798019D01*
X76196307Y-58798640D01*
X76207505Y-58799437D01*
X76218991Y-58800429D01*
X76231223Y-58801638D01*
X76244661Y-58803085D01*
X76257573Y-58804539D01*
X76316025Y-58812639D01*
X76372366Y-58823355D01*
X76426588Y-58836680D01*
X76478682Y-58852612D01*
X76528638Y-58871145D01*
X76576448Y-58892276D01*
X76622104Y-58915998D01*
X76665595Y-58942309D01*
X76706914Y-58971203D01*
X76746050Y-59002677D01*
X76782997Y-59036724D01*
X76817744Y-59073342D01*
X76842870Y-59103130D01*
X76872938Y-59143244D01*
X76901009Y-59186042D01*
X76927046Y-59231444D01*
X76951011Y-59279371D01*
X76972867Y-59329744D01*
X76992577Y-59382484D01*
X77010104Y-59437513D01*
X77023027Y-59485106D01*
X77032380Y-59524636D01*
X77040701Y-59564747D01*
X77048049Y-59605861D01*
X77054486Y-59648400D01*
X77060073Y-59692789D01*
X77064872Y-59739448D01*
X77068943Y-59788801D01*
X77070714Y-59814460D01*
X77071343Y-59826578D01*
X77071866Y-59841632D01*
X77072285Y-59859175D01*
X77072602Y-59878759D01*
X77072818Y-59899933D01*
X77072934Y-59922252D01*
X77072951Y-59945265D01*
X77072872Y-59968525D01*
X77072697Y-59991583D01*
X77072428Y-60013992D01*
X77072066Y-60035302D01*
X77071613Y-60055066D01*
X77071070Y-60072834D01*
X77070438Y-60088160D01*
X77069832Y-60098940D01*
X77065867Y-60151717D01*
X77061130Y-60201568D01*
X77055573Y-60248874D01*
X77049148Y-60294017D01*
X77041806Y-60337380D01*
X77035655Y-60369026D01*
X77021965Y-60429384D01*
X77006230Y-60487057D01*
X76988437Y-60542071D01*
X76968568Y-60594456D01*
X76946608Y-60644236D01*
X76922542Y-60691441D01*
X76896352Y-60736098D01*
X76868025Y-60778233D01*
X76837542Y-60817875D01*
X76804890Y-60855050D01*
X76770051Y-60889785D01*
X76733011Y-60922109D01*
X76700701Y-60947041D01*
X76661702Y-60973455D01*
X76620163Y-60997675D01*
X76576145Y-61019674D01*
X76529709Y-61039428D01*
X76480915Y-61056911D01*
X76429825Y-61072096D01*
X76376500Y-61084958D01*
X76371026Y-61086120D01*
X76327124Y-61094375D01*
X76281185Y-61101148D01*
X76233139Y-61106435D01*
X76182915Y-61110234D01*
X76130442Y-61112543D01*
X76075651Y-61113358D01*
X76018469Y-61112677D01*
X75958826Y-61110497D01*
X75896652Y-61106817D01*
X75831876Y-61101633D01*
X75764426Y-61094943D01*
X75694232Y-61086744D01*
X75621224Y-61077033D01*
X75545331Y-61065809D01*
X75466526Y-61053075D01*
X75456865Y-61051461D01*
X75448390Y-61050062D01*
X75441654Y-61048969D01*
X75437208Y-61048270D01*
X75435623Y-61048053D01*
X75435536Y-61049723D01*
X75435452Y-61054642D01*
X75435369Y-61062670D01*
X75435289Y-61073669D01*
X75435212Y-61087501D01*
X75435138Y-61104027D01*
X75435068Y-61123110D01*
X75435002Y-61144609D01*
X75434940Y-61168387D01*
X75434882Y-61194306D01*
X75434829Y-61222226D01*
X75434781Y-61252010D01*
X75434738Y-61283519D01*
X75434701Y-61316614D01*
X75434670Y-61351157D01*
X75434646Y-61387009D01*
X75434628Y-61424032D01*
X75434617Y-61462088D01*
X75434613Y-61501038D01*
X75434613Y-61955680D01*
X75167064Y-61955680D01*
X75167489Y-60455028D01*
X75167626Y-59968203D01*
X75434613Y-59968203D01*
X75434613Y-60808594D01*
X75477370Y-60815821D01*
X75535824Y-60825496D01*
X75591292Y-60834247D01*
X75644036Y-60842111D01*
X75694317Y-60849121D01*
X75742397Y-60855312D01*
X75788539Y-60860720D01*
X75833004Y-60865379D01*
X75876054Y-60869324D01*
X75885886Y-60870142D01*
X75897421Y-60871062D01*
X75908603Y-60871901D01*
X75919910Y-60872688D01*
X75931820Y-60873452D01*
X75944811Y-60874221D01*
X75959361Y-60875024D01*
X75975947Y-60875888D01*
X75995047Y-60876844D01*
X76012886Y-60877713D01*
X76019835Y-60877926D01*
X76029580Y-60878051D01*
X76041624Y-60878093D01*
X76055465Y-60878061D01*
X76070605Y-60877961D01*
X76086543Y-60877799D01*
X76102780Y-60877583D01*
X76118816Y-60877321D01*
X76134151Y-60877017D01*
X76148287Y-60876681D01*
X76160722Y-60876317D01*
X76170958Y-60875935D01*
X76178495Y-60875539D01*
X76180526Y-60875389D01*
X76229961Y-60870126D01*
X76276750Y-60862823D01*
X76320985Y-60853433D01*
X76362757Y-60841910D01*
X76402156Y-60828208D01*
X76439274Y-60812282D01*
X76474202Y-60794085D01*
X76507031Y-60773571D01*
X76537853Y-60750695D01*
X76566758Y-60725411D01*
X76593838Y-60697672D01*
X76619184Y-60667432D01*
X76634860Y-60646288D01*
X76657657Y-60611344D01*
X76678680Y-60573519D01*
X76697927Y-60532822D01*
X76715397Y-60489260D01*
X76731087Y-60442840D01*
X76744994Y-60393569D01*
X76757118Y-60341453D01*
X76767456Y-60286500D01*
X76776005Y-60228717D01*
X76782764Y-60168111D01*
X76784975Y-60142966D01*
X76788497Y-60091654D01*
X76790891Y-60038580D01*
X76792162Y-59984448D01*
X76792316Y-59929962D01*
X76791358Y-59875825D01*
X76789295Y-59822741D01*
X76786131Y-59771413D01*
X76781873Y-59722546D01*
X76781575Y-59719633D01*
X76774817Y-59663472D01*
X76766370Y-59609530D01*
X76756279Y-59558049D01*
X76744589Y-59509271D01*
X76740959Y-59495858D01*
X76726167Y-59447433D01*
X76709464Y-59401797D01*
X76690828Y-59358929D01*
X76670235Y-59318805D01*
X76647660Y-59281403D01*
X76623081Y-59246700D01*
X76596474Y-59214673D01*
X76567814Y-59185299D01*
X76537080Y-59158555D01*
X76504246Y-59134420D01*
X76469290Y-59112869D01*
X76432187Y-59093881D01*
X76392914Y-59077433D01*
X76351448Y-59063501D01*
X76307765Y-59052064D01*
X76272813Y-59044980D01*
X76245389Y-59040500D01*
X76218054Y-59036921D01*
X76190158Y-59034191D01*
X76161052Y-59032262D01*
X76130087Y-59031081D01*
X76096613Y-59030600D01*
X76087393Y-59030583D01*
X76068484Y-59030645D01*
X76051593Y-59030834D01*
X76036029Y-59031183D01*
X76021102Y-59031728D01*
X76006121Y-59032504D01*
X75990396Y-59033544D01*
X75973236Y-59034884D01*
X75953950Y-59036559D01*
X75936686Y-59038147D01*
X75899184Y-59041993D01*
X75859741Y-59046662D01*
X75818836Y-59052070D01*
X75776950Y-59058134D01*
X75734562Y-59064770D01*
X75692153Y-59071894D01*
X75650201Y-59079423D01*
X75609189Y-59087274D01*
X75569594Y-59095362D01*
X75531898Y-59103604D01*
X75496580Y-59111916D01*
X75464121Y-59120215D01*
X75461126Y-59121020D01*
X75452414Y-59123363D01*
X75444921Y-59125357D01*
X75439225Y-59126848D01*
X75435905Y-59127686D01*
X75435303Y-59127813D01*
X75435259Y-59129489D01*
X75435216Y-59134450D01*
X75435174Y-59142595D01*
X75435133Y-59153821D01*
X75435092Y-59168026D01*
X75435053Y-59185109D01*
X75435015Y-59204969D01*
X75434978Y-59227502D01*
X75434942Y-59252609D01*
X75434908Y-59280186D01*
X75434875Y-59310132D01*
X75434844Y-59342345D01*
X75434814Y-59376724D01*
X75434786Y-59413166D01*
X75434760Y-59451571D01*
X75434735Y-59491836D01*
X75434713Y-59533859D01*
X75434692Y-59577539D01*
X75434674Y-59622774D01*
X75434658Y-59669462D01*
X75434644Y-59717501D01*
X75434633Y-59766790D01*
X75434624Y-59817227D01*
X75434618Y-59868710D01*
X75434614Y-59921137D01*
X75434613Y-59968203D01*
X75167626Y-59968203D01*
X75167913Y-58954377D01*
X75181460Y-58950443D01*
X75240899Y-58933637D01*
X75301345Y-58917435D01*
X75362387Y-58901926D01*
X75423618Y-58887197D01*
X75484627Y-58873335D01*
X75545006Y-58860428D01*
X75604346Y-58848564D01*
X75662239Y-58837831D01*
X75718275Y-58828316D01*
X75772046Y-58820106D01*
X75819000Y-58813802D01*
X75849214Y-58810128D01*
X75876712Y-58806999D01*
X75902115Y-58804373D01*
X75926044Y-58802213D01*
X75949118Y-58800478D01*
X75971958Y-58799130D01*
X75995184Y-58798130D01*
X76019417Y-58797437D01*
X76045278Y-58797013D01*
X76073386Y-58796818D01*
X76087393Y-58796794D01*
X76109438Y-58796805D01*
X76109438Y-58796805D01*
G37*
X76109438Y-58796805D02*
X76128555Y-58796865D01*
X76145205Y-58796995D01*
X76159846Y-58797217D01*
X76172937Y-58797552D01*
X76184938Y-58798019D01*
X76196307Y-58798640D01*
X76207505Y-58799437D01*
X76218991Y-58800429D01*
X76231223Y-58801638D01*
X76244661Y-58803085D01*
X76257573Y-58804539D01*
X76316025Y-58812639D01*
X76372366Y-58823355D01*
X76426588Y-58836680D01*
X76478682Y-58852612D01*
X76528638Y-58871145D01*
X76576448Y-58892276D01*
X76622104Y-58915998D01*
X76665595Y-58942309D01*
X76706914Y-58971203D01*
X76746050Y-59002677D01*
X76782997Y-59036724D01*
X76817744Y-59073342D01*
X76842870Y-59103130D01*
X76872938Y-59143244D01*
X76901009Y-59186042D01*
X76927046Y-59231444D01*
X76951011Y-59279371D01*
X76972867Y-59329744D01*
X76992577Y-59382484D01*
X77010104Y-59437513D01*
X77023027Y-59485106D01*
X77032380Y-59524636D01*
X77040701Y-59564747D01*
X77048049Y-59605861D01*
X77054486Y-59648400D01*
X77060073Y-59692789D01*
X77064872Y-59739448D01*
X77068943Y-59788801D01*
X77070714Y-59814460D01*
X77071343Y-59826578D01*
X77071866Y-59841632D01*
X77072285Y-59859175D01*
X77072602Y-59878759D01*
X77072818Y-59899933D01*
X77072934Y-59922252D01*
X77072951Y-59945265D01*
X77072872Y-59968525D01*
X77072697Y-59991583D01*
X77072428Y-60013992D01*
X77072066Y-60035302D01*
X77071613Y-60055066D01*
X77071070Y-60072834D01*
X77070438Y-60088160D01*
X77069832Y-60098940D01*
X77065867Y-60151717D01*
X77061130Y-60201568D01*
X77055573Y-60248874D01*
X77049148Y-60294017D01*
X77041806Y-60337380D01*
X77035655Y-60369026D01*
X77021965Y-60429384D01*
X77006230Y-60487057D01*
X76988437Y-60542071D01*
X76968568Y-60594456D01*
X76946608Y-60644236D01*
X76922542Y-60691441D01*
X76896352Y-60736098D01*
X76868025Y-60778233D01*
X76837542Y-60817875D01*
X76804890Y-60855050D01*
X76770051Y-60889785D01*
X76733011Y-60922109D01*
X76700701Y-60947041D01*
X76661702Y-60973455D01*
X76620163Y-60997675D01*
X76576145Y-61019674D01*
X76529709Y-61039428D01*
X76480915Y-61056911D01*
X76429825Y-61072096D01*
X76376500Y-61084958D01*
X76371026Y-61086120D01*
X76327124Y-61094375D01*
X76281185Y-61101148D01*
X76233139Y-61106435D01*
X76182915Y-61110234D01*
X76130442Y-61112543D01*
X76075651Y-61113358D01*
X76018469Y-61112677D01*
X75958826Y-61110497D01*
X75896652Y-61106817D01*
X75831876Y-61101633D01*
X75764426Y-61094943D01*
X75694232Y-61086744D01*
X75621224Y-61077033D01*
X75545331Y-61065809D01*
X75466526Y-61053075D01*
X75456865Y-61051461D01*
X75448390Y-61050062D01*
X75441654Y-61048969D01*
X75437208Y-61048270D01*
X75435623Y-61048053D01*
X75435536Y-61049723D01*
X75435452Y-61054642D01*
X75435369Y-61062670D01*
X75435289Y-61073669D01*
X75435212Y-61087501D01*
X75435138Y-61104027D01*
X75435068Y-61123110D01*
X75435002Y-61144609D01*
X75434940Y-61168387D01*
X75434882Y-61194306D01*
X75434829Y-61222226D01*
X75434781Y-61252010D01*
X75434738Y-61283519D01*
X75434701Y-61316614D01*
X75434670Y-61351157D01*
X75434646Y-61387009D01*
X75434628Y-61424032D01*
X75434617Y-61462088D01*
X75434613Y-61501038D01*
X75434613Y-61955680D01*
X75167064Y-61955680D01*
X75167489Y-60455028D01*
X75167626Y-59968203D01*
X75434613Y-59968203D01*
X75434613Y-60808594D01*
X75477370Y-60815821D01*
X75535824Y-60825496D01*
X75591292Y-60834247D01*
X75644036Y-60842111D01*
X75694317Y-60849121D01*
X75742397Y-60855312D01*
X75788539Y-60860720D01*
X75833004Y-60865379D01*
X75876054Y-60869324D01*
X75885886Y-60870142D01*
X75897421Y-60871062D01*
X75908603Y-60871901D01*
X75919910Y-60872688D01*
X75931820Y-60873452D01*
X75944811Y-60874221D01*
X75959361Y-60875024D01*
X75975947Y-60875888D01*
X75995047Y-60876844D01*
X76012886Y-60877713D01*
X76019835Y-60877926D01*
X76029580Y-60878051D01*
X76041624Y-60878093D01*
X76055465Y-60878061D01*
X76070605Y-60877961D01*
X76086543Y-60877799D01*
X76102780Y-60877583D01*
X76118816Y-60877321D01*
X76134151Y-60877017D01*
X76148287Y-60876681D01*
X76160722Y-60876317D01*
X76170958Y-60875935D01*
X76178495Y-60875539D01*
X76180526Y-60875389D01*
X76229961Y-60870126D01*
X76276750Y-60862823D01*
X76320985Y-60853433D01*
X76362757Y-60841910D01*
X76402156Y-60828208D01*
X76439274Y-60812282D01*
X76474202Y-60794085D01*
X76507031Y-60773571D01*
X76537853Y-60750695D01*
X76566758Y-60725411D01*
X76593838Y-60697672D01*
X76619184Y-60667432D01*
X76634860Y-60646288D01*
X76657657Y-60611344D01*
X76678680Y-60573519D01*
X76697927Y-60532822D01*
X76715397Y-60489260D01*
X76731087Y-60442840D01*
X76744994Y-60393569D01*
X76757118Y-60341453D01*
X76767456Y-60286500D01*
X76776005Y-60228717D01*
X76782764Y-60168111D01*
X76784975Y-60142966D01*
X76788497Y-60091654D01*
X76790891Y-60038580D01*
X76792162Y-59984448D01*
X76792316Y-59929962D01*
X76791358Y-59875825D01*
X76789295Y-59822741D01*
X76786131Y-59771413D01*
X76781873Y-59722546D01*
X76781575Y-59719633D01*
X76774817Y-59663472D01*
X76766370Y-59609530D01*
X76756279Y-59558049D01*
X76744589Y-59509271D01*
X76740959Y-59495858D01*
X76726167Y-59447433D01*
X76709464Y-59401797D01*
X76690828Y-59358929D01*
X76670235Y-59318805D01*
X76647660Y-59281403D01*
X76623081Y-59246700D01*
X76596474Y-59214673D01*
X76567814Y-59185299D01*
X76537080Y-59158555D01*
X76504246Y-59134420D01*
X76469290Y-59112869D01*
X76432187Y-59093881D01*
X76392914Y-59077433D01*
X76351448Y-59063501D01*
X76307765Y-59052064D01*
X76272813Y-59044980D01*
X76245389Y-59040500D01*
X76218054Y-59036921D01*
X76190158Y-59034191D01*
X76161052Y-59032262D01*
X76130087Y-59031081D01*
X76096613Y-59030600D01*
X76087393Y-59030583D01*
X76068484Y-59030645D01*
X76051593Y-59030834D01*
X76036029Y-59031183D01*
X76021102Y-59031728D01*
X76006121Y-59032504D01*
X75990396Y-59033544D01*
X75973236Y-59034884D01*
X75953950Y-59036559D01*
X75936686Y-59038147D01*
X75899184Y-59041993D01*
X75859741Y-59046662D01*
X75818836Y-59052070D01*
X75776950Y-59058134D01*
X75734562Y-59064770D01*
X75692153Y-59071894D01*
X75650201Y-59079423D01*
X75609189Y-59087274D01*
X75569594Y-59095362D01*
X75531898Y-59103604D01*
X75496580Y-59111916D01*
X75464121Y-59120215D01*
X75461126Y-59121020D01*
X75452414Y-59123363D01*
X75444921Y-59125357D01*
X75439225Y-59126848D01*
X75435905Y-59127686D01*
X75435303Y-59127813D01*
X75435259Y-59129489D01*
X75435216Y-59134450D01*
X75435174Y-59142595D01*
X75435133Y-59153821D01*
X75435092Y-59168026D01*
X75435053Y-59185109D01*
X75435015Y-59204969D01*
X75434978Y-59227502D01*
X75434942Y-59252609D01*
X75434908Y-59280186D01*
X75434875Y-59310132D01*
X75434844Y-59342345D01*
X75434814Y-59376724D01*
X75434786Y-59413166D01*
X75434760Y-59451571D01*
X75434735Y-59491836D01*
X75434713Y-59533859D01*
X75434692Y-59577539D01*
X75434674Y-59622774D01*
X75434658Y-59669462D01*
X75434644Y-59717501D01*
X75434633Y-59766790D01*
X75434624Y-59817227D01*
X75434618Y-59868710D01*
X75434614Y-59921137D01*
X75434613Y-59968203D01*
X75167626Y-59968203D01*
X75167913Y-58954377D01*
X75181460Y-58950443D01*
X75240899Y-58933637D01*
X75301345Y-58917435D01*
X75362387Y-58901926D01*
X75423618Y-58887197D01*
X75484627Y-58873335D01*
X75545006Y-58860428D01*
X75604346Y-58848564D01*
X75662239Y-58837831D01*
X75718275Y-58828316D01*
X75772046Y-58820106D01*
X75819000Y-58813802D01*
X75849214Y-58810128D01*
X75876712Y-58806999D01*
X75902115Y-58804373D01*
X75926044Y-58802213D01*
X75949118Y-58800478D01*
X75971958Y-58799130D01*
X75995184Y-58798130D01*
X76019417Y-58797437D01*
X76045278Y-58797013D01*
X76073386Y-58796818D01*
X76087393Y-58796794D01*
X76109438Y-58796805D01*
G36*
X66449786Y-58888675D02*
G01*
X66472223Y-58883030D01*
X66557878Y-58862743D01*
X66643046Y-58845139D01*
X66728331Y-58830121D01*
X66814342Y-58817593D01*
X66901682Y-58807456D01*
X66990959Y-58799615D01*
X66996733Y-58799191D01*
X67006927Y-58798592D01*
X67019909Y-58798052D01*
X67035194Y-58797575D01*
X67052293Y-58797166D01*
X67070719Y-58796827D01*
X67089986Y-58796564D01*
X67109605Y-58796379D01*
X67129090Y-58796278D01*
X67147953Y-58796263D01*
X67165707Y-58796338D01*
X67181865Y-58796508D01*
X67195940Y-58796777D01*
X67207444Y-58797148D01*
X67213480Y-58797456D01*
X67263377Y-58801416D01*
X67310710Y-58806913D01*
X67355974Y-58814039D01*
X67399667Y-58822886D01*
X67442288Y-58833546D01*
X67484332Y-58846110D01*
X67493726Y-58849197D01*
X67543305Y-58867423D01*
X67590750Y-58888275D01*
X67636055Y-58911750D01*
X67679216Y-58937842D01*
X67720227Y-58966549D01*
X67759082Y-58997866D01*
X67795776Y-59031788D01*
X67830303Y-59068312D01*
X67862658Y-59107433D01*
X67892835Y-59149148D01*
X67896695Y-59154906D01*
X67907655Y-59171622D01*
X67917108Y-59186572D01*
X67925594Y-59200686D01*
X67933654Y-59214896D01*
X67941828Y-59230131D01*
X67950658Y-59247323D01*
X67952300Y-59250580D01*
X67974956Y-59298857D01*
X67995526Y-59349467D01*
X68014021Y-59402458D01*
X68030452Y-59457879D01*
X68044833Y-59515779D01*
X68057173Y-59576207D01*
X68067485Y-59639212D01*
X68075782Y-59704843D01*
X68082074Y-59773149D01*
X68083848Y-59798373D01*
X68085286Y-59824624D01*
X68086399Y-59853582D01*
X68087190Y-59884584D01*
X68087657Y-59916967D01*
X68087800Y-59950066D01*
X68087621Y-59983219D01*
X68087118Y-60015761D01*
X68086292Y-60047029D01*
X68085143Y-60076359D01*
X68083814Y-60100856D01*
X68078251Y-60171675D01*
X68070645Y-60239806D01*
X68060988Y-60305265D01*
X68049274Y-60368070D01*
X68035494Y-60428238D01*
X68019641Y-60485786D01*
X68001709Y-60540732D01*
X67981691Y-60593092D01*
X67959578Y-60642883D01*
X67935365Y-60690124D01*
X67909043Y-60734831D01*
X67880605Y-60777022D01*
X67850045Y-60816714D01*
X67817354Y-60853924D01*
X67782527Y-60888668D01*
X67745555Y-60920966D01*
X67739092Y-60926186D01*
X67710948Y-60947643D01*
X67682479Y-60967236D01*
X67652818Y-60985511D01*
X67621102Y-61003017D01*
X67602918Y-61012292D01*
X67560620Y-61031946D01*
X67517031Y-61049463D01*
X67471947Y-61064893D01*
X67425159Y-61078284D01*
X67376463Y-61089686D01*
X67325652Y-61099149D01*
X67272519Y-61106721D01*
X67216859Y-61112453D01*
X67170535Y-61115736D01*
X67163060Y-61116057D01*
X67152739Y-61116341D01*
X67140068Y-61116586D01*
X67125545Y-61116790D01*
X67109666Y-61116951D01*
X67092929Y-61117068D01*
X67075830Y-61117139D01*
X67058866Y-61117163D01*
X67042535Y-61117137D01*
X67027333Y-61117061D01*
X67013757Y-61116931D01*
X67002305Y-61116747D01*
X66993472Y-61116508D01*
X66989960Y-61116354D01*
X66954118Y-61114248D01*
X66918636Y-61111780D01*
X66883292Y-61108913D01*
X66847864Y-61105615D01*
X66812130Y-61101851D01*
X66775867Y-61097587D01*
X66738854Y-61092789D01*
X66700869Y-61087422D01*
X66661689Y-61081452D01*
X66621093Y-61074845D01*
X66578858Y-61067568D01*
X66534764Y-61059585D01*
X66488586Y-61050863D01*
X66440104Y-61041367D01*
X66389096Y-61031064D01*
X66335339Y-61019918D01*
X66278612Y-61007896D01*
X66260980Y-61004114D01*
X66245821Y-61000851D01*
X66231590Y-60997785D01*
X66218649Y-60994994D01*
X66207362Y-60992556D01*
X66198092Y-60990550D01*
X66191200Y-60989054D01*
X66187049Y-60988146D01*
X66186050Y-60987922D01*
X66182240Y-60987028D01*
X66182240Y-59128097D01*
X66449786Y-59128097D01*
X66449786Y-60808782D01*
X66470530Y-60812435D01*
X66478704Y-60813879D01*
X66489317Y-60815757D01*
X66501471Y-60817912D01*
X66514272Y-60820185D01*
X66526822Y-60822417D01*
X66528526Y-60822720D01*
X66572321Y-60830262D01*
X66617213Y-60837508D01*
X66662459Y-60844353D01*
X66707314Y-60850691D01*
X66751032Y-60856417D01*
X66792871Y-60861423D01*
X66826553Y-60865051D01*
X66845115Y-60866897D01*
X66862420Y-60868527D01*
X66879022Y-60869983D01*
X66895476Y-60871302D01*
X66912339Y-60872525D01*
X66930165Y-60873692D01*
X66949511Y-60874841D01*
X66970931Y-60876013D01*
X66994981Y-60877246D01*
X67004353Y-60877712D01*
X67012870Y-60877989D01*
X67024224Y-60878147D01*
X67037890Y-60878193D01*
X67053346Y-60878136D01*
X67070068Y-60877986D01*
X67087533Y-60877752D01*
X67105219Y-60877442D01*
X67122601Y-60877066D01*
X67139157Y-60876633D01*
X67154363Y-60876151D01*
X67167697Y-60875631D01*
X67178634Y-60875080D01*
X67185955Y-60874570D01*
X67230575Y-60869976D01*
X67272363Y-60864043D01*
X67311626Y-60856694D01*
X67348675Y-60847851D01*
X67383820Y-60837437D01*
X67417370Y-60825376D01*
X67449634Y-60811590D01*
X67461553Y-60805917D01*
X67496257Y-60787250D01*
X67529031Y-60766153D01*
X67559893Y-60742594D01*
X67588857Y-60716543D01*
X67615939Y-60687966D01*
X67641155Y-60656834D01*
X67664521Y-60623113D01*
X67686052Y-60586773D01*
X67705764Y-60547781D01*
X67723672Y-60506107D01*
X67739793Y-60461718D01*
X67754141Y-60414582D01*
X67766733Y-60364669D01*
X67777585Y-60311946D01*
X67786712Y-60256382D01*
X67794129Y-60197945D01*
X67799853Y-60136604D01*
X67801011Y-60120953D01*
X67802514Y-60096330D01*
X67803776Y-60069015D01*
X67804790Y-60039693D01*
X67805547Y-60009051D01*
X67806038Y-59977774D01*
X67806256Y-59946549D01*
X67806192Y-59916061D01*
X67805838Y-59886997D01*
X67805185Y-59860042D01*
X67804415Y-59839860D01*
X67800672Y-59777580D01*
X67795279Y-59718141D01*
X67788210Y-59661411D01*
X67779440Y-59607259D01*
X67768946Y-59555555D01*
X67756704Y-59506169D01*
X67742687Y-59458970D01*
X67726873Y-59413828D01*
X67722688Y-59402980D01*
X67714242Y-59382877D01*
X67704201Y-59361288D01*
X67692995Y-59339015D01*
X67681057Y-59316860D01*
X67668816Y-59295626D01*
X67656704Y-59276115D01*
X67646231Y-59260638D01*
X67623291Y-59230797D01*
X67598018Y-59202336D01*
X67570919Y-59175749D01*
X67542500Y-59151533D01*
X67513267Y-59130182D01*
X67512526Y-59129687D01*
X67478019Y-59108583D01*
X67441549Y-59090019D01*
X67403050Y-59073975D01*
X67362454Y-59060428D01*
X67319697Y-59049358D01*
X67274710Y-59040744D01*
X67227429Y-59034564D01*
X67210940Y-59033024D01*
X67180774Y-59031088D01*
X67147720Y-59030097D01*
X67112137Y-59030030D01*
X67074383Y-59030866D01*
X67034816Y-59032584D01*
X66993795Y-59035166D01*
X66951679Y-59038590D01*
X66908826Y-59042836D01*
X66865595Y-59047884D01*
X66822343Y-59053714D01*
X66807601Y-59055884D01*
X66762770Y-59063009D01*
X66715483Y-59071237D01*
X66666435Y-59080429D01*
X66616323Y-59090447D01*
X66565840Y-59101154D01*
X66515683Y-59112412D01*
X66478996Y-59121061D01*
X66449786Y-59128097D01*
X66182240Y-59128097D01*
X66182240Y-57658000D01*
X66449786Y-57658000D01*
X66449786Y-58888675D01*
X66449786Y-58888675D01*
G37*
X66449786Y-58888675D02*
X66472223Y-58883030D01*
X66557878Y-58862743D01*
X66643046Y-58845139D01*
X66728331Y-58830121D01*
X66814342Y-58817593D01*
X66901682Y-58807456D01*
X66990959Y-58799615D01*
X66996733Y-58799191D01*
X67006927Y-58798592D01*
X67019909Y-58798052D01*
X67035194Y-58797575D01*
X67052293Y-58797166D01*
X67070719Y-58796827D01*
X67089986Y-58796564D01*
X67109605Y-58796379D01*
X67129090Y-58796278D01*
X67147953Y-58796263D01*
X67165707Y-58796338D01*
X67181865Y-58796508D01*
X67195940Y-58796777D01*
X67207444Y-58797148D01*
X67213480Y-58797456D01*
X67263377Y-58801416D01*
X67310710Y-58806913D01*
X67355974Y-58814039D01*
X67399667Y-58822886D01*
X67442288Y-58833546D01*
X67484332Y-58846110D01*
X67493726Y-58849197D01*
X67543305Y-58867423D01*
X67590750Y-58888275D01*
X67636055Y-58911750D01*
X67679216Y-58937842D01*
X67720227Y-58966549D01*
X67759082Y-58997866D01*
X67795776Y-59031788D01*
X67830303Y-59068312D01*
X67862658Y-59107433D01*
X67892835Y-59149148D01*
X67896695Y-59154906D01*
X67907655Y-59171622D01*
X67917108Y-59186572D01*
X67925594Y-59200686D01*
X67933654Y-59214896D01*
X67941828Y-59230131D01*
X67950658Y-59247323D01*
X67952300Y-59250580D01*
X67974956Y-59298857D01*
X67995526Y-59349467D01*
X68014021Y-59402458D01*
X68030452Y-59457879D01*
X68044833Y-59515779D01*
X68057173Y-59576207D01*
X68067485Y-59639212D01*
X68075782Y-59704843D01*
X68082074Y-59773149D01*
X68083848Y-59798373D01*
X68085286Y-59824624D01*
X68086399Y-59853582D01*
X68087190Y-59884584D01*
X68087657Y-59916967D01*
X68087800Y-59950066D01*
X68087621Y-59983219D01*
X68087118Y-60015761D01*
X68086292Y-60047029D01*
X68085143Y-60076359D01*
X68083814Y-60100856D01*
X68078251Y-60171675D01*
X68070645Y-60239806D01*
X68060988Y-60305265D01*
X68049274Y-60368070D01*
X68035494Y-60428238D01*
X68019641Y-60485786D01*
X68001709Y-60540732D01*
X67981691Y-60593092D01*
X67959578Y-60642883D01*
X67935365Y-60690124D01*
X67909043Y-60734831D01*
X67880605Y-60777022D01*
X67850045Y-60816714D01*
X67817354Y-60853924D01*
X67782527Y-60888668D01*
X67745555Y-60920966D01*
X67739092Y-60926186D01*
X67710948Y-60947643D01*
X67682479Y-60967236D01*
X67652818Y-60985511D01*
X67621102Y-61003017D01*
X67602918Y-61012292D01*
X67560620Y-61031946D01*
X67517031Y-61049463D01*
X67471947Y-61064893D01*
X67425159Y-61078284D01*
X67376463Y-61089686D01*
X67325652Y-61099149D01*
X67272519Y-61106721D01*
X67216859Y-61112453D01*
X67170535Y-61115736D01*
X67163060Y-61116057D01*
X67152739Y-61116341D01*
X67140068Y-61116586D01*
X67125545Y-61116790D01*
X67109666Y-61116951D01*
X67092929Y-61117068D01*
X67075830Y-61117139D01*
X67058866Y-61117163D01*
X67042535Y-61117137D01*
X67027333Y-61117061D01*
X67013757Y-61116931D01*
X67002305Y-61116747D01*
X66993472Y-61116508D01*
X66989960Y-61116354D01*
X66954118Y-61114248D01*
X66918636Y-61111780D01*
X66883292Y-61108913D01*
X66847864Y-61105615D01*
X66812130Y-61101851D01*
X66775867Y-61097587D01*
X66738854Y-61092789D01*
X66700869Y-61087422D01*
X66661689Y-61081452D01*
X66621093Y-61074845D01*
X66578858Y-61067568D01*
X66534764Y-61059585D01*
X66488586Y-61050863D01*
X66440104Y-61041367D01*
X66389096Y-61031064D01*
X66335339Y-61019918D01*
X66278612Y-61007896D01*
X66260980Y-61004114D01*
X66245821Y-61000851D01*
X66231590Y-60997785D01*
X66218649Y-60994994D01*
X66207362Y-60992556D01*
X66198092Y-60990550D01*
X66191200Y-60989054D01*
X66187049Y-60988146D01*
X66186050Y-60987922D01*
X66182240Y-60987028D01*
X66182240Y-59128097D01*
X66449786Y-59128097D01*
X66449786Y-60808782D01*
X66470530Y-60812435D01*
X66478704Y-60813879D01*
X66489317Y-60815757D01*
X66501471Y-60817912D01*
X66514272Y-60820185D01*
X66526822Y-60822417D01*
X66528526Y-60822720D01*
X66572321Y-60830262D01*
X66617213Y-60837508D01*
X66662459Y-60844353D01*
X66707314Y-60850691D01*
X66751032Y-60856417D01*
X66792871Y-60861423D01*
X66826553Y-60865051D01*
X66845115Y-60866897D01*
X66862420Y-60868527D01*
X66879022Y-60869983D01*
X66895476Y-60871302D01*
X66912339Y-60872525D01*
X66930165Y-60873692D01*
X66949511Y-60874841D01*
X66970931Y-60876013D01*
X66994981Y-60877246D01*
X67004353Y-60877712D01*
X67012870Y-60877989D01*
X67024224Y-60878147D01*
X67037890Y-60878193D01*
X67053346Y-60878136D01*
X67070068Y-60877986D01*
X67087533Y-60877752D01*
X67105219Y-60877442D01*
X67122601Y-60877066D01*
X67139157Y-60876633D01*
X67154363Y-60876151D01*
X67167697Y-60875631D01*
X67178634Y-60875080D01*
X67185955Y-60874570D01*
X67230575Y-60869976D01*
X67272363Y-60864043D01*
X67311626Y-60856694D01*
X67348675Y-60847851D01*
X67383820Y-60837437D01*
X67417370Y-60825376D01*
X67449634Y-60811590D01*
X67461553Y-60805917D01*
X67496257Y-60787250D01*
X67529031Y-60766153D01*
X67559893Y-60742594D01*
X67588857Y-60716543D01*
X67615939Y-60687966D01*
X67641155Y-60656834D01*
X67664521Y-60623113D01*
X67686052Y-60586773D01*
X67705764Y-60547781D01*
X67723672Y-60506107D01*
X67739793Y-60461718D01*
X67754141Y-60414582D01*
X67766733Y-60364669D01*
X67777585Y-60311946D01*
X67786712Y-60256382D01*
X67794129Y-60197945D01*
X67799853Y-60136604D01*
X67801011Y-60120953D01*
X67802514Y-60096330D01*
X67803776Y-60069015D01*
X67804790Y-60039693D01*
X67805547Y-60009051D01*
X67806038Y-59977774D01*
X67806256Y-59946549D01*
X67806192Y-59916061D01*
X67805838Y-59886997D01*
X67805185Y-59860042D01*
X67804415Y-59839860D01*
X67800672Y-59777580D01*
X67795279Y-59718141D01*
X67788210Y-59661411D01*
X67779440Y-59607259D01*
X67768946Y-59555555D01*
X67756704Y-59506169D01*
X67742687Y-59458970D01*
X67726873Y-59413828D01*
X67722688Y-59402980D01*
X67714242Y-59382877D01*
X67704201Y-59361288D01*
X67692995Y-59339015D01*
X67681057Y-59316860D01*
X67668816Y-59295626D01*
X67656704Y-59276115D01*
X67646231Y-59260638D01*
X67623291Y-59230797D01*
X67598018Y-59202336D01*
X67570919Y-59175749D01*
X67542500Y-59151533D01*
X67513267Y-59130182D01*
X67512526Y-59129687D01*
X67478019Y-59108583D01*
X67441549Y-59090019D01*
X67403050Y-59073975D01*
X67362454Y-59060428D01*
X67319697Y-59049358D01*
X67274710Y-59040744D01*
X67227429Y-59034564D01*
X67210940Y-59033024D01*
X67180774Y-59031088D01*
X67147720Y-59030097D01*
X67112137Y-59030030D01*
X67074383Y-59030866D01*
X67034816Y-59032584D01*
X66993795Y-59035166D01*
X66951679Y-59038590D01*
X66908826Y-59042836D01*
X66865595Y-59047884D01*
X66822343Y-59053714D01*
X66807601Y-59055884D01*
X66762770Y-59063009D01*
X66715483Y-59071237D01*
X66666435Y-59080429D01*
X66616323Y-59090447D01*
X66565840Y-59101154D01*
X66515683Y-59112412D01*
X66478996Y-59121061D01*
X66449786Y-59128097D01*
X66182240Y-59128097D01*
X66182240Y-57658000D01*
X66449786Y-57658000D01*
X66449786Y-58888675D01*
G36*
X70870005Y-58796403D02*
G01*
X70893700Y-58796736D01*
X70914595Y-58797165D01*
X70933280Y-58797724D01*
X70950341Y-58798448D01*
X70966364Y-58799370D01*
X70981939Y-58800527D01*
X70997652Y-58801953D01*
X71014090Y-58803682D01*
X71031841Y-58805749D01*
X71035244Y-58806162D01*
X71094270Y-58814759D01*
X71151010Y-58825852D01*
X71205474Y-58839446D01*
X71257670Y-58855546D01*
X71307609Y-58874158D01*
X71355299Y-58895287D01*
X71400749Y-58918938D01*
X71443969Y-58945116D01*
X71484968Y-58973827D01*
X71523754Y-59005075D01*
X71560338Y-59038866D01*
X71594728Y-59075206D01*
X71626934Y-59114099D01*
X71656964Y-59155550D01*
X71661076Y-59161680D01*
X71688369Y-59205599D01*
X71713517Y-59251980D01*
X71736525Y-59300841D01*
X71757395Y-59352195D01*
X71776131Y-59406059D01*
X71792738Y-59462450D01*
X71807219Y-59521382D01*
X71819578Y-59582872D01*
X71829818Y-59646935D01*
X71837944Y-59713588D01*
X71843958Y-59782845D01*
X71847866Y-59854724D01*
X71849670Y-59929239D01*
X71849805Y-59956700D01*
X71848739Y-60032412D01*
X71845544Y-60105496D01*
X71840216Y-60175959D01*
X71832753Y-60243807D01*
X71823151Y-60309047D01*
X71811408Y-60371687D01*
X71797521Y-60431733D01*
X71781486Y-60489193D01*
X71763301Y-60544073D01*
X71742963Y-60596381D01*
X71720469Y-60646123D01*
X71695816Y-60693306D01*
X71669001Y-60737939D01*
X71640021Y-60780026D01*
X71608873Y-60819577D01*
X71575555Y-60856597D01*
X71540062Y-60891093D01*
X71502393Y-60923074D01*
X71462545Y-60952545D01*
X71421413Y-60978976D01*
X71377657Y-61003248D01*
X71331532Y-61025138D01*
X71283087Y-61044635D01*
X71232372Y-61061731D01*
X71179435Y-61076414D01*
X71124324Y-61088674D01*
X71067089Y-61098502D01*
X71007779Y-61105887D01*
X70946442Y-61110818D01*
X70883127Y-61113287D01*
X70817884Y-61113281D01*
X70781333Y-61112226D01*
X70718454Y-61108512D01*
X70657705Y-61102336D01*
X70599113Y-61093709D01*
X70542707Y-61082637D01*
X70488515Y-61069131D01*
X70436566Y-61053199D01*
X70386889Y-61034851D01*
X70339511Y-61014094D01*
X70294462Y-60990937D01*
X70251769Y-60965391D01*
X70211461Y-60937463D01*
X70205662Y-60933099D01*
X70172204Y-60905931D01*
X70139498Y-60875995D01*
X70108156Y-60843907D01*
X70078791Y-60810282D01*
X70060441Y-60787087D01*
X70031734Y-60746552D01*
X70005037Y-60703321D01*
X69980363Y-60657436D01*
X69957726Y-60608936D01*
X69937139Y-60557860D01*
X69918614Y-60504250D01*
X69902164Y-60448144D01*
X69887802Y-60389583D01*
X69875542Y-60328606D01*
X69865396Y-60265255D01*
X69857377Y-60199567D01*
X69852644Y-60147200D01*
X69851020Y-60125332D01*
X69849670Y-60105123D01*
X69848570Y-60085944D01*
X69847699Y-60067167D01*
X69847035Y-60048162D01*
X69846557Y-60028300D01*
X69846241Y-60006953D01*
X69846067Y-59983492D01*
X69846013Y-59957288D01*
X69846013Y-59956700D01*
X69846062Y-59945425D01*
X70127760Y-59945425D01*
X70127760Y-59966963D01*
X70127838Y-59988250D01*
X70127993Y-60008769D01*
X70128226Y-60028003D01*
X70128537Y-60045437D01*
X70128925Y-60060552D01*
X70129390Y-60072833D01*
X70129424Y-60073540D01*
X70133142Y-60134104D01*
X70138272Y-60191690D01*
X70144838Y-60246407D01*
X70152862Y-60298366D01*
X70162368Y-60347676D01*
X70173380Y-60394448D01*
X70185920Y-60438792D01*
X70200012Y-60480818D01*
X70215680Y-60520636D01*
X70231860Y-60556140D01*
X70252405Y-60595005D01*
X70274833Y-60631234D01*
X70299193Y-60664857D01*
X70325531Y-60695901D01*
X70353897Y-60724397D01*
X70384337Y-60750374D01*
X70416899Y-60773860D01*
X70451632Y-60794885D01*
X70488583Y-60813479D01*
X70527800Y-60829669D01*
X70569330Y-60843486D01*
X70613222Y-60854958D01*
X70659522Y-60864114D01*
X70708280Y-60870985D01*
X70755086Y-60875293D01*
X70780772Y-60876789D01*
X70808304Y-60877829D01*
X70836689Y-60878403D01*
X70864939Y-60878502D01*
X70892062Y-60878115D01*
X70917069Y-60877234D01*
X70922726Y-60876943D01*
X70972006Y-60873241D01*
X71018586Y-60867676D01*
X71062625Y-60860201D01*
X71104281Y-60850769D01*
X71143712Y-60839334D01*
X71181078Y-60825849D01*
X71216536Y-60810266D01*
X71250246Y-60792539D01*
X71282365Y-60772621D01*
X71287640Y-60769041D01*
X71315393Y-60748230D01*
X71342468Y-60724533D01*
X71368378Y-60698447D01*
X71392638Y-60670467D01*
X71414763Y-60641088D01*
X71419035Y-60634872D01*
X71440938Y-60599900D01*
X71461066Y-60562395D01*
X71479430Y-60522312D01*
X71496043Y-60479609D01*
X71510917Y-60434240D01*
X71524064Y-60386164D01*
X71535497Y-60335336D01*
X71545228Y-60281713D01*
X71553270Y-60225251D01*
X71559633Y-60165906D01*
X71562797Y-60126880D01*
X71565492Y-60081494D01*
X71567274Y-60034041D01*
X71568155Y-59985223D01*
X71568144Y-59935742D01*
X71567252Y-59886302D01*
X71565489Y-59837603D01*
X71562866Y-59790349D01*
X71559392Y-59745242D01*
X71556829Y-59718786D01*
X71549617Y-59660242D01*
X71540587Y-59604313D01*
X71529751Y-59551046D01*
X71517121Y-59500486D01*
X71502709Y-59452680D01*
X71486526Y-59407674D01*
X71468584Y-59365514D01*
X71463786Y-59355343D01*
X71443193Y-59315874D01*
X71420702Y-59279105D01*
X71396267Y-59245003D01*
X71369843Y-59213537D01*
X71341383Y-59184676D01*
X71310841Y-59158389D01*
X71278171Y-59134644D01*
X71243327Y-59113411D01*
X71206264Y-59094658D01*
X71166934Y-59078354D01*
X71125292Y-59064467D01*
X71081292Y-59052966D01*
X71034888Y-59043821D01*
X70996386Y-59038227D01*
X70979524Y-59036226D01*
X70963936Y-59034590D01*
X70948995Y-59033288D01*
X70934078Y-59032285D01*
X70918559Y-59031550D01*
X70901814Y-59031048D01*
X70883218Y-59030749D01*
X70862145Y-59030617D01*
X70851606Y-59030604D01*
X70829475Y-59030669D01*
X70810078Y-59030883D01*
X70792768Y-59031278D01*
X70776893Y-59031886D01*
X70761806Y-59032739D01*
X70746856Y-59033867D01*
X70731394Y-59035302D01*
X70714770Y-59037077D01*
X70712119Y-59037376D01*
X70663372Y-59044182D01*
X70617102Y-59053262D01*
X70573247Y-59064645D01*
X70531746Y-59078363D01*
X70492540Y-59094445D01*
X70455566Y-59112922D01*
X70420764Y-59133824D01*
X70388072Y-59157181D01*
X70357431Y-59183025D01*
X70328779Y-59211385D01*
X70302723Y-59241458D01*
X70297105Y-59248723D01*
X70290381Y-59257844D01*
X70283271Y-59267824D01*
X70276492Y-59277666D01*
X70274221Y-59281060D01*
X70252771Y-59315885D01*
X70233060Y-59353078D01*
X70215073Y-59392699D01*
X70198794Y-59434808D01*
X70184207Y-59479463D01*
X70171298Y-59526726D01*
X70160050Y-59576654D01*
X70150449Y-59629309D01*
X70142478Y-59684749D01*
X70136123Y-59743034D01*
X70131367Y-59804223D01*
X70129393Y-59839860D01*
X70128926Y-59852054D01*
X70128537Y-59867097D01*
X70128226Y-59884472D01*
X70127993Y-59903663D01*
X70127837Y-59924153D01*
X70127760Y-59945425D01*
X69846062Y-59945425D01*
X69846177Y-59919449D01*
X69846690Y-59884941D01*
X69847584Y-59852546D01*
X69848892Y-59821635D01*
X69850645Y-59791579D01*
X69852876Y-59761748D01*
X69855618Y-59731513D01*
X69858901Y-59700246D01*
X69859306Y-59696631D01*
X69868065Y-59629900D01*
X69878995Y-59565766D01*
X69892099Y-59504226D01*
X69907378Y-59445278D01*
X69924834Y-59388919D01*
X69944468Y-59335145D01*
X69966283Y-59283955D01*
X69990279Y-59235345D01*
X70016459Y-59189313D01*
X70044823Y-59145856D01*
X70075374Y-59104971D01*
X70108114Y-59066655D01*
X70143043Y-59030906D01*
X70180164Y-58997720D01*
X70219479Y-58967096D01*
X70260987Y-58939030D01*
X70304693Y-58913519D01*
X70327097Y-58901858D01*
X70369791Y-58881866D01*
X70413543Y-58864152D01*
X70458687Y-58848616D01*
X70505559Y-58835157D01*
X70554495Y-58823674D01*
X70605829Y-58814067D01*
X70634986Y-58809579D01*
X70661054Y-58806055D01*
X70686055Y-58803125D01*
X70710562Y-58800756D01*
X70735149Y-58798916D01*
X70760390Y-58797572D01*
X70786858Y-58796694D01*
X70815129Y-58796248D01*
X70845775Y-58796202D01*
X70870005Y-58796403D01*
X70870005Y-58796403D01*
G37*
X70870005Y-58796403D02*
X70893700Y-58796736D01*
X70914595Y-58797165D01*
X70933280Y-58797724D01*
X70950341Y-58798448D01*
X70966364Y-58799370D01*
X70981939Y-58800527D01*
X70997652Y-58801953D01*
X71014090Y-58803682D01*
X71031841Y-58805749D01*
X71035244Y-58806162D01*
X71094270Y-58814759D01*
X71151010Y-58825852D01*
X71205474Y-58839446D01*
X71257670Y-58855546D01*
X71307609Y-58874158D01*
X71355299Y-58895287D01*
X71400749Y-58918938D01*
X71443969Y-58945116D01*
X71484968Y-58973827D01*
X71523754Y-59005075D01*
X71560338Y-59038866D01*
X71594728Y-59075206D01*
X71626934Y-59114099D01*
X71656964Y-59155550D01*
X71661076Y-59161680D01*
X71688369Y-59205599D01*
X71713517Y-59251980D01*
X71736525Y-59300841D01*
X71757395Y-59352195D01*
X71776131Y-59406059D01*
X71792738Y-59462450D01*
X71807219Y-59521382D01*
X71819578Y-59582872D01*
X71829818Y-59646935D01*
X71837944Y-59713588D01*
X71843958Y-59782845D01*
X71847866Y-59854724D01*
X71849670Y-59929239D01*
X71849805Y-59956700D01*
X71848739Y-60032412D01*
X71845544Y-60105496D01*
X71840216Y-60175959D01*
X71832753Y-60243807D01*
X71823151Y-60309047D01*
X71811408Y-60371687D01*
X71797521Y-60431733D01*
X71781486Y-60489193D01*
X71763301Y-60544073D01*
X71742963Y-60596381D01*
X71720469Y-60646123D01*
X71695816Y-60693306D01*
X71669001Y-60737939D01*
X71640021Y-60780026D01*
X71608873Y-60819577D01*
X71575555Y-60856597D01*
X71540062Y-60891093D01*
X71502393Y-60923074D01*
X71462545Y-60952545D01*
X71421413Y-60978976D01*
X71377657Y-61003248D01*
X71331532Y-61025138D01*
X71283087Y-61044635D01*
X71232372Y-61061731D01*
X71179435Y-61076414D01*
X71124324Y-61088674D01*
X71067089Y-61098502D01*
X71007779Y-61105887D01*
X70946442Y-61110818D01*
X70883127Y-61113287D01*
X70817884Y-61113281D01*
X70781333Y-61112226D01*
X70718454Y-61108512D01*
X70657705Y-61102336D01*
X70599113Y-61093709D01*
X70542707Y-61082637D01*
X70488515Y-61069131D01*
X70436566Y-61053199D01*
X70386889Y-61034851D01*
X70339511Y-61014094D01*
X70294462Y-60990937D01*
X70251769Y-60965391D01*
X70211461Y-60937463D01*
X70205662Y-60933099D01*
X70172204Y-60905931D01*
X70139498Y-60875995D01*
X70108156Y-60843907D01*
X70078791Y-60810282D01*
X70060441Y-60787087D01*
X70031734Y-60746552D01*
X70005037Y-60703321D01*
X69980363Y-60657436D01*
X69957726Y-60608936D01*
X69937139Y-60557860D01*
X69918614Y-60504250D01*
X69902164Y-60448144D01*
X69887802Y-60389583D01*
X69875542Y-60328606D01*
X69865396Y-60265255D01*
X69857377Y-60199567D01*
X69852644Y-60147200D01*
X69851020Y-60125332D01*
X69849670Y-60105123D01*
X69848570Y-60085944D01*
X69847699Y-60067167D01*
X69847035Y-60048162D01*
X69846557Y-60028300D01*
X69846241Y-60006953D01*
X69846067Y-59983492D01*
X69846013Y-59957288D01*
X69846013Y-59956700D01*
X69846062Y-59945425D01*
X70127760Y-59945425D01*
X70127760Y-59966963D01*
X70127838Y-59988250D01*
X70127993Y-60008769D01*
X70128226Y-60028003D01*
X70128537Y-60045437D01*
X70128925Y-60060552D01*
X70129390Y-60072833D01*
X70129424Y-60073540D01*
X70133142Y-60134104D01*
X70138272Y-60191690D01*
X70144838Y-60246407D01*
X70152862Y-60298366D01*
X70162368Y-60347676D01*
X70173380Y-60394448D01*
X70185920Y-60438792D01*
X70200012Y-60480818D01*
X70215680Y-60520636D01*
X70231860Y-60556140D01*
X70252405Y-60595005D01*
X70274833Y-60631234D01*
X70299193Y-60664857D01*
X70325531Y-60695901D01*
X70353897Y-60724397D01*
X70384337Y-60750374D01*
X70416899Y-60773860D01*
X70451632Y-60794885D01*
X70488583Y-60813479D01*
X70527800Y-60829669D01*
X70569330Y-60843486D01*
X70613222Y-60854958D01*
X70659522Y-60864114D01*
X70708280Y-60870985D01*
X70755086Y-60875293D01*
X70780772Y-60876789D01*
X70808304Y-60877829D01*
X70836689Y-60878403D01*
X70864939Y-60878502D01*
X70892062Y-60878115D01*
X70917069Y-60877234D01*
X70922726Y-60876943D01*
X70972006Y-60873241D01*
X71018586Y-60867676D01*
X71062625Y-60860201D01*
X71104281Y-60850769D01*
X71143712Y-60839334D01*
X71181078Y-60825849D01*
X71216536Y-60810266D01*
X71250246Y-60792539D01*
X71282365Y-60772621D01*
X71287640Y-60769041D01*
X71315393Y-60748230D01*
X71342468Y-60724533D01*
X71368378Y-60698447D01*
X71392638Y-60670467D01*
X71414763Y-60641088D01*
X71419035Y-60634872D01*
X71440938Y-60599900D01*
X71461066Y-60562395D01*
X71479430Y-60522312D01*
X71496043Y-60479609D01*
X71510917Y-60434240D01*
X71524064Y-60386164D01*
X71535497Y-60335336D01*
X71545228Y-60281713D01*
X71553270Y-60225251D01*
X71559633Y-60165906D01*
X71562797Y-60126880D01*
X71565492Y-60081494D01*
X71567274Y-60034041D01*
X71568155Y-59985223D01*
X71568144Y-59935742D01*
X71567252Y-59886302D01*
X71565489Y-59837603D01*
X71562866Y-59790349D01*
X71559392Y-59745242D01*
X71556829Y-59718786D01*
X71549617Y-59660242D01*
X71540587Y-59604313D01*
X71529751Y-59551046D01*
X71517121Y-59500486D01*
X71502709Y-59452680D01*
X71486526Y-59407674D01*
X71468584Y-59365514D01*
X71463786Y-59355343D01*
X71443193Y-59315874D01*
X71420702Y-59279105D01*
X71396267Y-59245003D01*
X71369843Y-59213537D01*
X71341383Y-59184676D01*
X71310841Y-59158389D01*
X71278171Y-59134644D01*
X71243327Y-59113411D01*
X71206264Y-59094658D01*
X71166934Y-59078354D01*
X71125292Y-59064467D01*
X71081292Y-59052966D01*
X71034888Y-59043821D01*
X70996386Y-59038227D01*
X70979524Y-59036226D01*
X70963936Y-59034590D01*
X70948995Y-59033288D01*
X70934078Y-59032285D01*
X70918559Y-59031550D01*
X70901814Y-59031048D01*
X70883218Y-59030749D01*
X70862145Y-59030617D01*
X70851606Y-59030604D01*
X70829475Y-59030669D01*
X70810078Y-59030883D01*
X70792768Y-59031278D01*
X70776893Y-59031886D01*
X70761806Y-59032739D01*
X70746856Y-59033867D01*
X70731394Y-59035302D01*
X70714770Y-59037077D01*
X70712119Y-59037376D01*
X70663372Y-59044182D01*
X70617102Y-59053262D01*
X70573247Y-59064645D01*
X70531746Y-59078363D01*
X70492540Y-59094445D01*
X70455566Y-59112922D01*
X70420764Y-59133824D01*
X70388072Y-59157181D01*
X70357431Y-59183025D01*
X70328779Y-59211385D01*
X70302723Y-59241458D01*
X70297105Y-59248723D01*
X70290381Y-59257844D01*
X70283271Y-59267824D01*
X70276492Y-59277666D01*
X70274221Y-59281060D01*
X70252771Y-59315885D01*
X70233060Y-59353078D01*
X70215073Y-59392699D01*
X70198794Y-59434808D01*
X70184207Y-59479463D01*
X70171298Y-59526726D01*
X70160050Y-59576654D01*
X70150449Y-59629309D01*
X70142478Y-59684749D01*
X70136123Y-59743034D01*
X70131367Y-59804223D01*
X70129393Y-59839860D01*
X70128926Y-59852054D01*
X70128537Y-59867097D01*
X70128226Y-59884472D01*
X70127993Y-59903663D01*
X70127837Y-59924153D01*
X70127760Y-59945425D01*
X69846062Y-59945425D01*
X69846177Y-59919449D01*
X69846690Y-59884941D01*
X69847584Y-59852546D01*
X69848892Y-59821635D01*
X69850645Y-59791579D01*
X69852876Y-59761748D01*
X69855618Y-59731513D01*
X69858901Y-59700246D01*
X69859306Y-59696631D01*
X69868065Y-59629900D01*
X69878995Y-59565766D01*
X69892099Y-59504226D01*
X69907378Y-59445278D01*
X69924834Y-59388919D01*
X69944468Y-59335145D01*
X69966283Y-59283955D01*
X69990279Y-59235345D01*
X70016459Y-59189313D01*
X70044823Y-59145856D01*
X70075374Y-59104971D01*
X70108114Y-59066655D01*
X70143043Y-59030906D01*
X70180164Y-58997720D01*
X70219479Y-58967096D01*
X70260987Y-58939030D01*
X70304693Y-58913519D01*
X70327097Y-58901858D01*
X70369791Y-58881866D01*
X70413543Y-58864152D01*
X70458687Y-58848616D01*
X70505559Y-58835157D01*
X70554495Y-58823674D01*
X70605829Y-58814067D01*
X70634986Y-58809579D01*
X70661054Y-58806055D01*
X70686055Y-58803125D01*
X70710562Y-58800756D01*
X70735149Y-58798916D01*
X70760390Y-58797572D01*
X70786858Y-58796694D01*
X70815129Y-58796248D01*
X70845775Y-58796202D01*
X70870005Y-58796403D01*
G36*
X73443263Y-58796835D02*
G01*
X73464911Y-58796971D01*
X73484117Y-58797223D01*
X73501352Y-58797613D01*
X73517088Y-58798165D01*
X73531797Y-58798904D01*
X73545949Y-58799854D01*
X73560017Y-58801037D01*
X73574472Y-58802477D01*
X73589787Y-58804199D01*
X73606432Y-58806226D01*
X73606660Y-58806255D01*
X73665808Y-58815054D01*
X73722672Y-58826346D01*
X73777257Y-58840136D01*
X73829569Y-58856430D01*
X73879614Y-58875233D01*
X73927399Y-58896552D01*
X73972930Y-58920392D01*
X74016214Y-58946759D01*
X74057256Y-58975659D01*
X74096062Y-59007098D01*
X74132640Y-59041081D01*
X74166995Y-59077615D01*
X74199134Y-59116705D01*
X74229062Y-59158356D01*
X74256787Y-59202575D01*
X74282314Y-59249368D01*
X74305649Y-59298740D01*
X74326800Y-59350698D01*
X74345771Y-59405246D01*
X74362570Y-59462391D01*
X74376875Y-59520666D01*
X74387695Y-59574043D01*
X74396981Y-59630046D01*
X74404718Y-59688274D01*
X74410892Y-59748327D01*
X74415489Y-59809805D01*
X74418494Y-59872307D01*
X74419895Y-59935433D01*
X74419675Y-59998782D01*
X74417822Y-60061955D01*
X74414321Y-60124551D01*
X74409159Y-60186169D01*
X74402448Y-60245413D01*
X74392750Y-60310900D01*
X74380847Y-60373828D01*
X74366739Y-60434197D01*
X74350427Y-60492004D01*
X74331912Y-60547248D01*
X74311195Y-60599926D01*
X74288276Y-60650036D01*
X74263157Y-60697578D01*
X74235837Y-60742548D01*
X74206317Y-60784945D01*
X74178375Y-60820300D01*
X74162395Y-60838456D01*
X74144186Y-60857585D01*
X74124472Y-60877001D01*
X74103977Y-60896018D01*
X74083424Y-60913948D01*
X74063538Y-60930106D01*
X74058780Y-60933769D01*
X74019396Y-60961636D01*
X73977567Y-60987204D01*
X73933344Y-61010460D01*
X73886781Y-61031390D01*
X73837932Y-61049981D01*
X73786848Y-61066219D01*
X73733584Y-61080092D01*
X73678192Y-61091585D01*
X73620726Y-61100685D01*
X73561238Y-61107380D01*
X73499781Y-61111654D01*
X73436409Y-61113496D01*
X73371175Y-61112891D01*
X73352591Y-61112281D01*
X73288952Y-61108592D01*
X73227617Y-61102424D01*
X73168578Y-61093773D01*
X73111829Y-61082638D01*
X73057362Y-61069014D01*
X73005168Y-61052898D01*
X72955242Y-61034287D01*
X72907576Y-61013177D01*
X72862162Y-60989565D01*
X72818993Y-60963449D01*
X72778061Y-60934824D01*
X72739359Y-60903687D01*
X72702881Y-60870035D01*
X72668618Y-60833864D01*
X72636562Y-60795172D01*
X72631809Y-60788973D01*
X72602606Y-60747838D01*
X72575537Y-60704207D01*
X72550595Y-60658062D01*
X72527775Y-60609386D01*
X72507072Y-60558162D01*
X72488479Y-60504373D01*
X72471991Y-60448002D01*
X72457603Y-60389031D01*
X72445309Y-60327445D01*
X72435102Y-60263226D01*
X72426979Y-60196356D01*
X72423091Y-60154820D01*
X72419848Y-60109172D01*
X72417501Y-60061065D01*
X72416054Y-60011308D01*
X72415511Y-59960708D01*
X72415659Y-59940059D01*
X72696681Y-59940059D01*
X72696918Y-59996840D01*
X72698435Y-60053244D01*
X72701236Y-60108767D01*
X72705325Y-60162906D01*
X72710707Y-60215158D01*
X72716983Y-60262346D01*
X72726410Y-60318121D01*
X72737633Y-60371027D01*
X72750653Y-60421071D01*
X72765471Y-60468257D01*
X72782089Y-60512590D01*
X72800509Y-60554074D01*
X72820732Y-60592715D01*
X72822571Y-60595933D01*
X72844641Y-60631452D01*
X72868536Y-60664446D01*
X72894318Y-60694947D01*
X72922049Y-60722987D01*
X72951792Y-60748599D01*
X72983606Y-60771816D01*
X73017555Y-60792669D01*
X73053699Y-60811191D01*
X73092101Y-60827415D01*
X73132823Y-60841373D01*
X73175925Y-60853098D01*
X73221469Y-60862621D01*
X73269518Y-60869975D01*
X73320132Y-60875193D01*
X73358586Y-60877665D01*
X73367644Y-60877963D01*
X73379451Y-60878128D01*
X73393458Y-60878170D01*
X73409118Y-60878099D01*
X73425884Y-60877925D01*
X73443207Y-60877658D01*
X73460539Y-60877309D01*
X73477333Y-60876886D01*
X73493040Y-60876401D01*
X73507113Y-60875862D01*
X73519005Y-60875281D01*
X73528166Y-60874667D01*
X73529613Y-60874542D01*
X73577700Y-60869138D01*
X73623067Y-60861883D01*
X73665869Y-60852719D01*
X73706258Y-60841589D01*
X73744388Y-60828435D01*
X73780411Y-60813201D01*
X73814480Y-60795829D01*
X73846750Y-60776262D01*
X73877372Y-60754444D01*
X73899606Y-60736347D01*
X73928567Y-60709225D01*
X73955651Y-60679284D01*
X73980858Y-60646524D01*
X74004187Y-60610946D01*
X74025639Y-60572549D01*
X74045214Y-60531334D01*
X74062912Y-60487300D01*
X74078732Y-60440448D01*
X74092675Y-60390778D01*
X74104741Y-60338290D01*
X74114928Y-60282984D01*
X74123239Y-60224860D01*
X74125601Y-60204773D01*
X74128596Y-60176104D01*
X74131108Y-60147933D01*
X74133163Y-60119709D01*
X74134788Y-60090885D01*
X74136009Y-60060911D01*
X74136853Y-60029237D01*
X74137346Y-59995315D01*
X74137514Y-59958596D01*
X74137514Y-59956700D01*
X74137449Y-59928531D01*
X74137238Y-59903157D01*
X74136865Y-59879989D01*
X74136309Y-59858438D01*
X74135551Y-59837915D01*
X74134573Y-59817830D01*
X74133355Y-59797594D01*
X74131878Y-59776618D01*
X74131538Y-59772126D01*
X74125795Y-59710358D01*
X74118234Y-59651435D01*
X74108847Y-59595342D01*
X74097629Y-59542063D01*
X74084573Y-59491582D01*
X74069674Y-59443883D01*
X74052923Y-59398951D01*
X74034316Y-59356769D01*
X74013845Y-59317323D01*
X73991505Y-59280597D01*
X73967289Y-59246574D01*
X73941190Y-59215239D01*
X73913202Y-59186577D01*
X73883520Y-59160731D01*
X73858524Y-59141941D01*
X73832561Y-59124968D01*
X73804671Y-59109209D01*
X73789540Y-59101514D01*
X73754013Y-59085370D01*
X73717735Y-59071575D01*
X73680179Y-59059970D01*
X73640821Y-59050395D01*
X73599134Y-59042691D01*
X73592266Y-59041629D01*
X73552086Y-59036517D01*
X73509582Y-59032870D01*
X73465485Y-59030690D01*
X73420527Y-59029982D01*
X73375439Y-59030750D01*
X73330954Y-59032998D01*
X73287803Y-59036730D01*
X73261925Y-59039806D01*
X73215264Y-59047321D01*
X73170510Y-59057238D01*
X73127778Y-59069517D01*
X73087181Y-59084114D01*
X73048835Y-59100986D01*
X73012853Y-59120093D01*
X72979349Y-59141390D01*
X72969120Y-59148698D01*
X72937998Y-59173524D01*
X72908862Y-59200816D01*
X72881692Y-59230613D01*
X72856466Y-59262953D01*
X72833164Y-59297874D01*
X72811767Y-59335416D01*
X72792254Y-59375618D01*
X72774604Y-59418517D01*
X72758797Y-59464153D01*
X72744814Y-59512564D01*
X72732633Y-59563789D01*
X72722234Y-59617866D01*
X72721932Y-59619638D01*
X72714568Y-59668112D01*
X72708461Y-59719229D01*
X72703615Y-59772485D01*
X72700034Y-59827378D01*
X72697721Y-59883404D01*
X72696681Y-59940059D01*
X72415659Y-59940059D01*
X72415875Y-59910073D01*
X72417150Y-59860212D01*
X72419339Y-59811933D01*
X72421401Y-59779746D01*
X72427610Y-59710062D01*
X72435949Y-59643004D01*
X72446425Y-59578564D01*
X72459042Y-59516731D01*
X72473804Y-59457496D01*
X72490718Y-59400850D01*
X72509788Y-59346783D01*
X72531019Y-59295285D01*
X72554415Y-59246347D01*
X72579983Y-59199960D01*
X72607726Y-59156114D01*
X72637651Y-59114799D01*
X72669761Y-59076006D01*
X72704061Y-59039726D01*
X72740558Y-59005948D01*
X72779255Y-58974664D01*
X72820158Y-58945864D01*
X72863272Y-58919539D01*
X72874305Y-58913393D01*
X72917541Y-58891523D01*
X72963287Y-58871800D01*
X73011402Y-58854265D01*
X73061743Y-58838961D01*
X73114168Y-58825928D01*
X73168534Y-58815210D01*
X73224699Y-58806848D01*
X73244286Y-58804538D01*
X73259739Y-58802865D01*
X73273611Y-58801448D01*
X73286371Y-58800266D01*
X73298485Y-58799299D01*
X73310423Y-58798526D01*
X73322653Y-58797926D01*
X73335643Y-58797479D01*
X73349860Y-58797162D01*
X73365774Y-58796957D01*
X73383852Y-58796841D01*
X73404563Y-58796794D01*
X73418700Y-58796791D01*
X73443263Y-58796835D01*
X73443263Y-58796835D01*
G37*
X73443263Y-58796835D02*
X73464911Y-58796971D01*
X73484117Y-58797223D01*
X73501352Y-58797613D01*
X73517088Y-58798165D01*
X73531797Y-58798904D01*
X73545949Y-58799854D01*
X73560017Y-58801037D01*
X73574472Y-58802477D01*
X73589787Y-58804199D01*
X73606432Y-58806226D01*
X73606660Y-58806255D01*
X73665808Y-58815054D01*
X73722672Y-58826346D01*
X73777257Y-58840136D01*
X73829569Y-58856430D01*
X73879614Y-58875233D01*
X73927399Y-58896552D01*
X73972930Y-58920392D01*
X74016214Y-58946759D01*
X74057256Y-58975659D01*
X74096062Y-59007098D01*
X74132640Y-59041081D01*
X74166995Y-59077615D01*
X74199134Y-59116705D01*
X74229062Y-59158356D01*
X74256787Y-59202575D01*
X74282314Y-59249368D01*
X74305649Y-59298740D01*
X74326800Y-59350698D01*
X74345771Y-59405246D01*
X74362570Y-59462391D01*
X74376875Y-59520666D01*
X74387695Y-59574043D01*
X74396981Y-59630046D01*
X74404718Y-59688274D01*
X74410892Y-59748327D01*
X74415489Y-59809805D01*
X74418494Y-59872307D01*
X74419895Y-59935433D01*
X74419675Y-59998782D01*
X74417822Y-60061955D01*
X74414321Y-60124551D01*
X74409159Y-60186169D01*
X74402448Y-60245413D01*
X74392750Y-60310900D01*
X74380847Y-60373828D01*
X74366739Y-60434197D01*
X74350427Y-60492004D01*
X74331912Y-60547248D01*
X74311195Y-60599926D01*
X74288276Y-60650036D01*
X74263157Y-60697578D01*
X74235837Y-60742548D01*
X74206317Y-60784945D01*
X74178375Y-60820300D01*
X74162395Y-60838456D01*
X74144186Y-60857585D01*
X74124472Y-60877001D01*
X74103977Y-60896018D01*
X74083424Y-60913948D01*
X74063538Y-60930106D01*
X74058780Y-60933769D01*
X74019396Y-60961636D01*
X73977567Y-60987204D01*
X73933344Y-61010460D01*
X73886781Y-61031390D01*
X73837932Y-61049981D01*
X73786848Y-61066219D01*
X73733584Y-61080092D01*
X73678192Y-61091585D01*
X73620726Y-61100685D01*
X73561238Y-61107380D01*
X73499781Y-61111654D01*
X73436409Y-61113496D01*
X73371175Y-61112891D01*
X73352591Y-61112281D01*
X73288952Y-61108592D01*
X73227617Y-61102424D01*
X73168578Y-61093773D01*
X73111829Y-61082638D01*
X73057362Y-61069014D01*
X73005168Y-61052898D01*
X72955242Y-61034287D01*
X72907576Y-61013177D01*
X72862162Y-60989565D01*
X72818993Y-60963449D01*
X72778061Y-60934824D01*
X72739359Y-60903687D01*
X72702881Y-60870035D01*
X72668618Y-60833864D01*
X72636562Y-60795172D01*
X72631809Y-60788973D01*
X72602606Y-60747838D01*
X72575537Y-60704207D01*
X72550595Y-60658062D01*
X72527775Y-60609386D01*
X72507072Y-60558162D01*
X72488479Y-60504373D01*
X72471991Y-60448002D01*
X72457603Y-60389031D01*
X72445309Y-60327445D01*
X72435102Y-60263226D01*
X72426979Y-60196356D01*
X72423091Y-60154820D01*
X72419848Y-60109172D01*
X72417501Y-60061065D01*
X72416054Y-60011308D01*
X72415511Y-59960708D01*
X72415659Y-59940059D01*
X72696681Y-59940059D01*
X72696918Y-59996840D01*
X72698435Y-60053244D01*
X72701236Y-60108767D01*
X72705325Y-60162906D01*
X72710707Y-60215158D01*
X72716983Y-60262346D01*
X72726410Y-60318121D01*
X72737633Y-60371027D01*
X72750653Y-60421071D01*
X72765471Y-60468257D01*
X72782089Y-60512590D01*
X72800509Y-60554074D01*
X72820732Y-60592715D01*
X72822571Y-60595933D01*
X72844641Y-60631452D01*
X72868536Y-60664446D01*
X72894318Y-60694947D01*
X72922049Y-60722987D01*
X72951792Y-60748599D01*
X72983606Y-60771816D01*
X73017555Y-60792669D01*
X73053699Y-60811191D01*
X73092101Y-60827415D01*
X73132823Y-60841373D01*
X73175925Y-60853098D01*
X73221469Y-60862621D01*
X73269518Y-60869975D01*
X73320132Y-60875193D01*
X73358586Y-60877665D01*
X73367644Y-60877963D01*
X73379451Y-60878128D01*
X73393458Y-60878170D01*
X73409118Y-60878099D01*
X73425884Y-60877925D01*
X73443207Y-60877658D01*
X73460539Y-60877309D01*
X73477333Y-60876886D01*
X73493040Y-60876401D01*
X73507113Y-60875862D01*
X73519005Y-60875281D01*
X73528166Y-60874667D01*
X73529613Y-60874542D01*
X73577700Y-60869138D01*
X73623067Y-60861883D01*
X73665869Y-60852719D01*
X73706258Y-60841589D01*
X73744388Y-60828435D01*
X73780411Y-60813201D01*
X73814480Y-60795829D01*
X73846750Y-60776262D01*
X73877372Y-60754444D01*
X73899606Y-60736347D01*
X73928567Y-60709225D01*
X73955651Y-60679284D01*
X73980858Y-60646524D01*
X74004187Y-60610946D01*
X74025639Y-60572549D01*
X74045214Y-60531334D01*
X74062912Y-60487300D01*
X74078732Y-60440448D01*
X74092675Y-60390778D01*
X74104741Y-60338290D01*
X74114928Y-60282984D01*
X74123239Y-60224860D01*
X74125601Y-60204773D01*
X74128596Y-60176104D01*
X74131108Y-60147933D01*
X74133163Y-60119709D01*
X74134788Y-60090885D01*
X74136009Y-60060911D01*
X74136853Y-60029237D01*
X74137346Y-59995315D01*
X74137514Y-59958596D01*
X74137514Y-59956700D01*
X74137449Y-59928531D01*
X74137238Y-59903157D01*
X74136865Y-59879989D01*
X74136309Y-59858438D01*
X74135551Y-59837915D01*
X74134573Y-59817830D01*
X74133355Y-59797594D01*
X74131878Y-59776618D01*
X74131538Y-59772126D01*
X74125795Y-59710358D01*
X74118234Y-59651435D01*
X74108847Y-59595342D01*
X74097629Y-59542063D01*
X74084573Y-59491582D01*
X74069674Y-59443883D01*
X74052923Y-59398951D01*
X74034316Y-59356769D01*
X74013845Y-59317323D01*
X73991505Y-59280597D01*
X73967289Y-59246574D01*
X73941190Y-59215239D01*
X73913202Y-59186577D01*
X73883520Y-59160731D01*
X73858524Y-59141941D01*
X73832561Y-59124968D01*
X73804671Y-59109209D01*
X73789540Y-59101514D01*
X73754013Y-59085370D01*
X73717735Y-59071575D01*
X73680179Y-59059970D01*
X73640821Y-59050395D01*
X73599134Y-59042691D01*
X73592266Y-59041629D01*
X73552086Y-59036517D01*
X73509582Y-59032870D01*
X73465485Y-59030690D01*
X73420527Y-59029982D01*
X73375439Y-59030750D01*
X73330954Y-59032998D01*
X73287803Y-59036730D01*
X73261925Y-59039806D01*
X73215264Y-59047321D01*
X73170510Y-59057238D01*
X73127778Y-59069517D01*
X73087181Y-59084114D01*
X73048835Y-59100986D01*
X73012853Y-59120093D01*
X72979349Y-59141390D01*
X72969120Y-59148698D01*
X72937998Y-59173524D01*
X72908862Y-59200816D01*
X72881692Y-59230613D01*
X72856466Y-59262953D01*
X72833164Y-59297874D01*
X72811767Y-59335416D01*
X72792254Y-59375618D01*
X72774604Y-59418517D01*
X72758797Y-59464153D01*
X72744814Y-59512564D01*
X72732633Y-59563789D01*
X72722234Y-59617866D01*
X72721932Y-59619638D01*
X72714568Y-59668112D01*
X72708461Y-59719229D01*
X72703615Y-59772485D01*
X72700034Y-59827378D01*
X72697721Y-59883404D01*
X72696681Y-59940059D01*
X72415659Y-59940059D01*
X72415875Y-59910073D01*
X72417150Y-59860212D01*
X72419339Y-59811933D01*
X72421401Y-59779746D01*
X72427610Y-59710062D01*
X72435949Y-59643004D01*
X72446425Y-59578564D01*
X72459042Y-59516731D01*
X72473804Y-59457496D01*
X72490718Y-59400850D01*
X72509788Y-59346783D01*
X72531019Y-59295285D01*
X72554415Y-59246347D01*
X72579983Y-59199960D01*
X72607726Y-59156114D01*
X72637651Y-59114799D01*
X72669761Y-59076006D01*
X72704061Y-59039726D01*
X72740558Y-59005948D01*
X72779255Y-58974664D01*
X72820158Y-58945864D01*
X72863272Y-58919539D01*
X72874305Y-58913393D01*
X72917541Y-58891523D01*
X72963287Y-58871800D01*
X73011402Y-58854265D01*
X73061743Y-58838961D01*
X73114168Y-58825928D01*
X73168534Y-58815210D01*
X73224699Y-58806848D01*
X73244286Y-58804538D01*
X73259739Y-58802865D01*
X73273611Y-58801448D01*
X73286371Y-58800266D01*
X73298485Y-58799299D01*
X73310423Y-58798526D01*
X73322653Y-58797926D01*
X73335643Y-58797479D01*
X73349860Y-58797162D01*
X73365774Y-58796957D01*
X73383852Y-58796841D01*
X73404563Y-58796794D01*
X73418700Y-58796791D01*
X73443263Y-58796835D01*
G36*
X69097737Y-59366996D02*
G01*
X69097313Y-61075993D01*
X68963963Y-61076426D01*
X68830613Y-61076860D01*
X68830613Y-57658000D01*
X69098161Y-57658000D01*
X69097737Y-59366996D01*
X69097737Y-59366996D01*
G37*
X69097737Y-59366996D02*
X69097313Y-61075993D01*
X68963963Y-61076426D01*
X68830613Y-61076860D01*
X68830613Y-57658000D01*
X69098161Y-57658000D01*
X69097737Y-59366996D01*
D10*
X116574800Y-66649600D02*
G75*
G03X116574800Y-66649600I-700000J0D01*
G01*
X62993500Y-68834000D02*
G75*
G03X62993500Y-68834000I-700000J0D01*
G01*
X124055600Y-82689200D02*
G75*
G03X124055600Y-82689200I-700000J0D01*
G01*
X123991600Y-84743700D02*
G75*
G03X123991600Y-84743700I-700000J0D01*
G01*
X61977500Y-66738500D02*
G75*
G03X61977500Y-66738500I-700000J0D01*
G01*
X74700000Y-67400000D02*
G75*
G03X74700000Y-67400000I-700000J0D01*
G01*
X123890000Y-63182500D02*
G75*
G03X123890000Y-63182500I-700000J0D01*
G01*
D13*
X124025200Y-79654400D02*
G75*
G03X124025200Y-79654400I-50000J0D01*
G01*
X123908500Y-66675000D02*
G75*
G03X123908500Y-66675000I-50000J0D01*
G01*
X123885500Y-67881500D02*
G75*
G03X123885500Y-67881500I-50000J0D01*
G01*
D11*
X70908114Y-79806573D02*
X71480534Y-80378993D01*
X71581549Y-80412665D01*
X71648893Y-80412665D01*
X71749908Y-80378993D01*
X71884595Y-80244306D01*
X71918267Y-80143291D01*
X71918267Y-80075947D01*
X71884595Y-79974932D01*
X71312175Y-79402512D01*
X71581549Y-79133138D02*
X72019282Y-78695406D01*
X72052954Y-79200482D01*
X72153969Y-79099467D01*
X72254984Y-79065795D01*
X72322328Y-79065795D01*
X72423343Y-79099467D01*
X72591702Y-79267825D01*
X72625374Y-79368841D01*
X72625374Y-79436184D01*
X72591702Y-79537199D01*
X72389671Y-79739230D01*
X72288656Y-79772902D01*
X72221313Y-79772902D01*
X68449866Y-66328133D02*
X68449866Y-66661466D01*
X68216533Y-65961466D02*
X68449866Y-66328133D01*
X68683200Y-65961466D01*
X68883200Y-66028133D02*
X68916533Y-65994800D01*
X68983200Y-65961466D01*
X69149866Y-65961466D01*
X69216533Y-65994800D01*
X69249866Y-66028133D01*
X69283200Y-66094800D01*
X69283200Y-66161466D01*
X69249866Y-66261466D01*
X68849866Y-66661466D01*
X69283200Y-66661466D01*
X114323066Y-67482133D02*
X114323066Y-67082133D01*
X115023066Y-67282133D02*
X114323066Y-67282133D01*
X115023066Y-66848800D02*
X114323066Y-66848800D01*
X114323066Y-66582133D01*
X114356400Y-66515466D01*
X114389733Y-66482133D01*
X114456400Y-66448800D01*
X114556400Y-66448800D01*
X114623066Y-66482133D01*
X114656400Y-66515466D01*
X114689733Y-66582133D01*
X114689733Y-66848800D01*
X114323066Y-66215466D02*
X114323066Y-65748800D01*
X115023066Y-66048800D01*
X59632166Y-68450666D02*
X60032166Y-68450666D01*
X59832166Y-69150666D02*
X59832166Y-68450666D01*
X60265500Y-69150666D02*
X60265500Y-68450666D01*
X60532166Y-68450666D01*
X60598833Y-68484000D01*
X60632166Y-68517333D01*
X60665500Y-68584000D01*
X60665500Y-68684000D01*
X60632166Y-68750666D01*
X60598833Y-68784000D01*
X60532166Y-68817333D01*
X60265500Y-68817333D01*
X61265500Y-68450666D02*
X61132166Y-68450666D01*
X61065500Y-68484000D01*
X61032166Y-68517333D01*
X60965500Y-68617333D01*
X60932166Y-68750666D01*
X60932166Y-69017333D01*
X60965500Y-69084000D01*
X60998833Y-69117333D01*
X61065500Y-69150666D01*
X61198833Y-69150666D01*
X61265500Y-69117333D01*
X61298833Y-69084000D01*
X61332166Y-69017333D01*
X61332166Y-68850666D01*
X61298833Y-68784000D01*
X61265500Y-68750666D01*
X61198833Y-68717333D01*
X61065500Y-68717333D01*
X60998833Y-68750666D01*
X60965500Y-68784000D01*
X60932166Y-68850666D01*
X121772266Y-83572533D02*
X121772266Y-83172533D01*
X122472266Y-83372533D02*
X121772266Y-83372533D01*
X122472266Y-82939200D02*
X121772266Y-82939200D01*
X121772266Y-82672533D01*
X121805600Y-82605866D01*
X121838933Y-82572533D01*
X121905600Y-82539200D01*
X122005600Y-82539200D01*
X122072266Y-82572533D01*
X122105600Y-82605866D01*
X122138933Y-82672533D01*
X122138933Y-82939200D01*
X121772266Y-81905866D02*
X121772266Y-82239200D01*
X122105600Y-82272533D01*
X122072266Y-82239200D01*
X122038933Y-82172533D01*
X122038933Y-82005866D01*
X122072266Y-81939200D01*
X122105600Y-81905866D01*
X122172266Y-81872533D01*
X122338933Y-81872533D01*
X122405600Y-81905866D01*
X122438933Y-81939200D01*
X122472266Y-82005866D01*
X122472266Y-82172533D01*
X122438933Y-82239200D01*
X122405600Y-82272533D01*
X121772266Y-85572533D02*
X121772266Y-85172533D01*
X122472266Y-85372533D02*
X121772266Y-85372533D01*
X122472266Y-84939200D02*
X121772266Y-84939200D01*
X121772266Y-84672533D01*
X121805600Y-84605866D01*
X121838933Y-84572533D01*
X121905600Y-84539200D01*
X122005600Y-84539200D01*
X122072266Y-84572533D01*
X122105600Y-84605866D01*
X122138933Y-84672533D01*
X122138933Y-84939200D01*
X122005600Y-83939200D02*
X122472266Y-83939200D01*
X121738933Y-84105866D02*
X122238933Y-84272533D01*
X122238933Y-83839200D01*
X58644966Y-66366866D02*
X59044966Y-66366866D01*
X58844966Y-67066866D02*
X58844966Y-66366866D01*
X59278300Y-67066866D02*
X59278300Y-66366866D01*
X59544966Y-66366866D01*
X59611633Y-66400200D01*
X59644966Y-66433533D01*
X59678300Y-66500200D01*
X59678300Y-66600200D01*
X59644966Y-66666866D01*
X59611633Y-66700200D01*
X59544966Y-66733533D01*
X59278300Y-66733533D01*
X59911633Y-66366866D02*
X60344966Y-66366866D01*
X60111633Y-66633533D01*
X60211633Y-66633533D01*
X60278300Y-66666866D01*
X60311633Y-66700200D01*
X60344966Y-66766866D01*
X60344966Y-66933533D01*
X60311633Y-67000200D01*
X60278300Y-67033533D01*
X60211633Y-67066866D01*
X60011633Y-67066866D01*
X59944966Y-67033533D01*
X59911633Y-67000200D01*
X73116666Y-65816666D02*
X73516666Y-65816666D01*
X73316666Y-66516666D02*
X73316666Y-65816666D01*
X73750000Y-66516666D02*
X73750000Y-65816666D01*
X74016666Y-65816666D01*
X74083333Y-65850000D01*
X74116666Y-65883333D01*
X74150000Y-65950000D01*
X74150000Y-66050000D01*
X74116666Y-66116666D01*
X74083333Y-66150000D01*
X74016666Y-66183333D01*
X73750000Y-66183333D01*
X74416666Y-65883333D02*
X74450000Y-65850000D01*
X74516666Y-65816666D01*
X74683333Y-65816666D01*
X74750000Y-65850000D01*
X74783333Y-65883333D01*
X74816666Y-65950000D01*
X74816666Y-66016666D01*
X74783333Y-66116666D01*
X74383333Y-66516666D01*
X74816666Y-66516666D01*
X121358666Y-64065833D02*
X121358666Y-63665833D01*
X122058666Y-63865833D02*
X121358666Y-63865833D01*
X122058666Y-63432500D02*
X121358666Y-63432500D01*
X121358666Y-63165833D01*
X121392000Y-63099166D01*
X121425333Y-63065833D01*
X121492000Y-63032500D01*
X121592000Y-63032500D01*
X121658666Y-63065833D01*
X121692000Y-63099166D01*
X121725333Y-63165833D01*
X121725333Y-63432500D01*
X122058666Y-62365833D02*
X122058666Y-62765833D01*
X122058666Y-62565833D02*
X121358666Y-62565833D01*
X121458666Y-62632500D01*
X121525333Y-62699166D01*
X121558666Y-62765833D01*
X63954833Y-69709466D02*
X63721500Y-69376133D01*
X63554833Y-69709466D02*
X63554833Y-69009466D01*
X63821500Y-69009466D01*
X63888166Y-69042800D01*
X63921500Y-69076133D01*
X63954833Y-69142800D01*
X63954833Y-69242800D01*
X63921500Y-69309466D01*
X63888166Y-69342800D01*
X63821500Y-69376133D01*
X63554833Y-69376133D01*
X64188166Y-69009466D02*
X64654833Y-69009466D01*
X64354833Y-69709466D01*
X63891333Y-66559866D02*
X63658000Y-66226533D01*
X63491333Y-66559866D02*
X63491333Y-65859866D01*
X63758000Y-65859866D01*
X63824666Y-65893200D01*
X63858000Y-65926533D01*
X63891333Y-65993200D01*
X63891333Y-66093200D01*
X63858000Y-66159866D01*
X63824666Y-66193200D01*
X63758000Y-66226533D01*
X63491333Y-66226533D01*
X64491333Y-65859866D02*
X64358000Y-65859866D01*
X64291333Y-65893200D01*
X64258000Y-65926533D01*
X64191333Y-66026533D01*
X64158000Y-66159866D01*
X64158000Y-66426533D01*
X64191333Y-66493200D01*
X64224666Y-66526533D01*
X64291333Y-66559866D01*
X64424666Y-66559866D01*
X64491333Y-66526533D01*
X64524666Y-66493200D01*
X64558000Y-66426533D01*
X64558000Y-66259866D01*
X64524666Y-66193200D01*
X64491333Y-66159866D01*
X64424666Y-66126533D01*
X64291333Y-66126533D01*
X64224666Y-66159866D01*
X64191333Y-66193200D01*
X64158000Y-66259866D01*
X63863533Y-67829866D02*
X63630200Y-67496533D01*
X63463533Y-67829866D02*
X63463533Y-67129866D01*
X63730200Y-67129866D01*
X63796866Y-67163200D01*
X63830200Y-67196533D01*
X63863533Y-67263200D01*
X63863533Y-67363200D01*
X63830200Y-67429866D01*
X63796866Y-67463200D01*
X63730200Y-67496533D01*
X63463533Y-67496533D01*
X64496866Y-67129866D02*
X64163533Y-67129866D01*
X64130200Y-67463200D01*
X64163533Y-67429866D01*
X64230200Y-67396533D01*
X64396866Y-67396533D01*
X64463533Y-67429866D01*
X64496866Y-67463200D01*
X64530200Y-67529866D01*
X64530200Y-67696533D01*
X64496866Y-67763200D01*
X64463533Y-67796533D01*
X64396866Y-67829866D01*
X64230200Y-67829866D01*
X64163533Y-67796533D01*
X64130200Y-67763200D01*
X120692133Y-79971066D02*
X120692133Y-79271066D01*
X120858800Y-79271066D01*
X120958800Y-79304400D01*
X121025466Y-79371066D01*
X121058800Y-79437733D01*
X121092133Y-79571066D01*
X121092133Y-79671066D01*
X121058800Y-79804400D01*
X121025466Y-79871066D01*
X120958800Y-79937733D01*
X120858800Y-79971066D01*
X120692133Y-79971066D01*
X121692133Y-79504400D02*
X121692133Y-79971066D01*
X121525466Y-79237733D02*
X121358800Y-79737733D01*
X121792133Y-79737733D01*
X120450833Y-66991666D02*
X120450833Y-66291666D01*
X120617500Y-66291666D01*
X120717500Y-66325000D01*
X120784166Y-66391666D01*
X120817500Y-66458333D01*
X120850833Y-66591666D01*
X120850833Y-66691666D01*
X120817500Y-66825000D01*
X120784166Y-66891666D01*
X120717500Y-66958333D01*
X120617500Y-66991666D01*
X120450833Y-66991666D01*
X121084166Y-66291666D02*
X121517500Y-66291666D01*
X121284166Y-66558333D01*
X121384166Y-66558333D01*
X121450833Y-66591666D01*
X121484166Y-66625000D01*
X121517500Y-66691666D01*
X121517500Y-66858333D01*
X121484166Y-66925000D01*
X121450833Y-66958333D01*
X121384166Y-66991666D01*
X121184166Y-66991666D01*
X121117500Y-66958333D01*
X121084166Y-66925000D01*
X120450833Y-68198166D02*
X120450833Y-67498166D01*
X120617500Y-67498166D01*
X120717500Y-67531500D01*
X120784166Y-67598166D01*
X120817500Y-67664833D01*
X120850833Y-67798166D01*
X120850833Y-67898166D01*
X120817500Y-68031500D01*
X120784166Y-68098166D01*
X120717500Y-68164833D01*
X120617500Y-68198166D01*
X120450833Y-68198166D01*
X121117500Y-67564833D02*
X121150833Y-67531500D01*
X121217500Y-67498166D01*
X121384166Y-67498166D01*
X121450833Y-67531500D01*
X121484166Y-67564833D01*
X121517500Y-67631500D01*
X121517500Y-67698166D01*
X121484166Y-67798166D01*
X121084166Y-68198166D01*
X121517500Y-68198166D01*
X60433800Y-71141400D02*
X60400466Y-71174733D01*
X60300466Y-71208066D01*
X60233800Y-71208066D01*
X60133800Y-71174733D01*
X60067133Y-71108066D01*
X60033800Y-71041400D01*
X60000466Y-70908066D01*
X60000466Y-70808066D01*
X60033800Y-70674733D01*
X60067133Y-70608066D01*
X60133800Y-70541400D01*
X60233800Y-70508066D01*
X60300466Y-70508066D01*
X60400466Y-70541400D01*
X60433800Y-70574733D01*
X61033800Y-70741400D02*
X61033800Y-71208066D01*
X60867133Y-70474733D02*
X60700466Y-70974733D01*
X61133800Y-70974733D01*
X61767133Y-71208066D02*
X61367133Y-71208066D01*
X61567133Y-71208066D02*
X61567133Y-70508066D01*
X61500466Y-70608066D01*
X61433800Y-70674733D01*
X61367133Y-70708066D01*
X60459200Y-72157400D02*
X60425866Y-72190733D01*
X60325866Y-72224066D01*
X60259200Y-72224066D01*
X60159200Y-72190733D01*
X60092533Y-72124066D01*
X60059200Y-72057400D01*
X60025866Y-71924066D01*
X60025866Y-71824066D01*
X60059200Y-71690733D01*
X60092533Y-71624066D01*
X60159200Y-71557400D01*
X60259200Y-71524066D01*
X60325866Y-71524066D01*
X60425866Y-71557400D01*
X60459200Y-71590733D01*
X60692533Y-71524066D02*
X61125866Y-71524066D01*
X60892533Y-71790733D01*
X60992533Y-71790733D01*
X61059200Y-71824066D01*
X61092533Y-71857400D01*
X61125866Y-71924066D01*
X61125866Y-72090733D01*
X61092533Y-72157400D01*
X61059200Y-72190733D01*
X60992533Y-72224066D01*
X60792533Y-72224066D01*
X60725866Y-72190733D01*
X60692533Y-72157400D01*
X61792533Y-72224066D02*
X61392533Y-72224066D01*
X61592533Y-72224066D02*
X61592533Y-71524066D01*
X61525866Y-71624066D01*
X61459200Y-71690733D01*
X61392533Y-71724066D01*
X71635200Y-67763200D02*
X71601866Y-67796533D01*
X71501866Y-67829866D01*
X71435200Y-67829866D01*
X71335200Y-67796533D01*
X71268533Y-67729866D01*
X71235200Y-67663200D01*
X71201866Y-67529866D01*
X71201866Y-67429866D01*
X71235200Y-67296533D01*
X71268533Y-67229866D01*
X71335200Y-67163200D01*
X71435200Y-67129866D01*
X71501866Y-67129866D01*
X71601866Y-67163200D01*
X71635200Y-67196533D01*
X71901866Y-67196533D02*
X71935200Y-67163200D01*
X72001866Y-67129866D01*
X72168533Y-67129866D01*
X72235200Y-67163200D01*
X72268533Y-67196533D01*
X72301866Y-67263200D01*
X72301866Y-67329866D01*
X72268533Y-67429866D01*
X71868533Y-67829866D01*
X72301866Y-67829866D01*
X72901866Y-67129866D02*
X72768533Y-67129866D01*
X72701866Y-67163200D01*
X72668533Y-67196533D01*
X72601866Y-67296533D01*
X72568533Y-67429866D01*
X72568533Y-67696533D01*
X72601866Y-67763200D01*
X72635200Y-67796533D01*
X72701866Y-67829866D01*
X72835200Y-67829866D01*
X72901866Y-67796533D01*
X72935200Y-67763200D01*
X72968533Y-67696533D01*
X72968533Y-67529866D01*
X72935200Y-67463200D01*
X72901866Y-67429866D01*
X72835200Y-67396533D01*
X72701866Y-67396533D01*
X72635200Y-67429866D01*
X72601866Y-67463200D01*
X72568533Y-67529866D01*
X71025600Y-65477200D02*
X70992266Y-65510533D01*
X70892266Y-65543866D01*
X70825600Y-65543866D01*
X70725600Y-65510533D01*
X70658933Y-65443866D01*
X70625600Y-65377200D01*
X70592266Y-65243866D01*
X70592266Y-65143866D01*
X70625600Y-65010533D01*
X70658933Y-64943866D01*
X70725600Y-64877200D01*
X70825600Y-64843866D01*
X70892266Y-64843866D01*
X70992266Y-64877200D01*
X71025600Y-64910533D01*
X71292266Y-64910533D02*
X71325600Y-64877200D01*
X71392266Y-64843866D01*
X71558933Y-64843866D01*
X71625600Y-64877200D01*
X71658933Y-64910533D01*
X71692266Y-64977200D01*
X71692266Y-65043866D01*
X71658933Y-65143866D01*
X71258933Y-65543866D01*
X71692266Y-65543866D01*
X72325600Y-64843866D02*
X71992266Y-64843866D01*
X71958933Y-65177200D01*
X71992266Y-65143866D01*
X72058933Y-65110533D01*
X72225600Y-65110533D01*
X72292266Y-65143866D01*
X72325600Y-65177200D01*
X72358933Y-65243866D01*
X72358933Y-65410533D01*
X72325600Y-65477200D01*
X72292266Y-65510533D01*
X72225600Y-65543866D01*
X72058933Y-65543866D01*
X71992266Y-65510533D01*
X71958933Y-65477200D01*
X73563060Y-71050000D02*
X73529726Y-71083333D01*
X73429726Y-71116666D01*
X73363060Y-71116666D01*
X73263060Y-71083333D01*
X73196393Y-71016666D01*
X73163060Y-70950000D01*
X73129726Y-70816666D01*
X73129726Y-70716666D01*
X73163060Y-70583333D01*
X73196393Y-70516666D01*
X73263060Y-70450000D01*
X73363060Y-70416666D01*
X73429726Y-70416666D01*
X73529726Y-70450000D01*
X73563060Y-70483333D01*
X73829726Y-70483333D02*
X73863060Y-70450000D01*
X73929726Y-70416666D01*
X74096393Y-70416666D01*
X74163060Y-70450000D01*
X74196393Y-70483333D01*
X74229726Y-70550000D01*
X74229726Y-70616666D01*
X74196393Y-70716666D01*
X73796393Y-71116666D01*
X74229726Y-71116666D01*
X74829726Y-70650000D02*
X74829726Y-71116666D01*
X74663060Y-70383333D02*
X74496393Y-70883333D01*
X74929726Y-70883333D01*
X69654000Y-71217600D02*
X69620666Y-71250933D01*
X69520666Y-71284266D01*
X69454000Y-71284266D01*
X69354000Y-71250933D01*
X69287333Y-71184266D01*
X69254000Y-71117600D01*
X69220666Y-70984266D01*
X69220666Y-70884266D01*
X69254000Y-70750933D01*
X69287333Y-70684266D01*
X69354000Y-70617600D01*
X69454000Y-70584266D01*
X69520666Y-70584266D01*
X69620666Y-70617600D01*
X69654000Y-70650933D01*
X70320666Y-71284266D02*
X69920666Y-71284266D01*
X70120666Y-71284266D02*
X70120666Y-70584266D01*
X70054000Y-70684266D01*
X69987333Y-70750933D01*
X69920666Y-70784266D01*
X70654000Y-71284266D02*
X70787333Y-71284266D01*
X70854000Y-71250933D01*
X70887333Y-71217600D01*
X70954000Y-71117600D01*
X70987333Y-70984266D01*
X70987333Y-70717600D01*
X70954000Y-70650933D01*
X70920666Y-70617600D01*
X70854000Y-70584266D01*
X70720666Y-70584266D01*
X70654000Y-70617600D01*
X70620666Y-70650933D01*
X70587333Y-70717600D01*
X70587333Y-70884266D01*
X70620666Y-70950933D01*
X70654000Y-70984266D01*
X70720666Y-71017600D01*
X70854000Y-71017600D01*
X70920666Y-70984266D01*
X70954000Y-70950933D01*
X70987333Y-70884266D01*
X72651200Y-69033200D02*
X72617866Y-69066533D01*
X72517866Y-69099866D01*
X72451200Y-69099866D01*
X72351200Y-69066533D01*
X72284533Y-68999866D01*
X72251200Y-68933200D01*
X72217866Y-68799866D01*
X72217866Y-68699866D01*
X72251200Y-68566533D01*
X72284533Y-68499866D01*
X72351200Y-68433200D01*
X72451200Y-68399866D01*
X72517866Y-68399866D01*
X72617866Y-68433200D01*
X72651200Y-68466533D01*
X73317866Y-69099866D02*
X72917866Y-69099866D01*
X73117866Y-69099866D02*
X73117866Y-68399866D01*
X73051200Y-68499866D01*
X72984533Y-68566533D01*
X72917866Y-68599866D01*
X73551200Y-68399866D02*
X74017866Y-68399866D01*
X73717866Y-69099866D01*
X75650000Y-73650000D02*
X75683333Y-73683333D01*
X75716666Y-73783333D01*
X75716666Y-73850000D01*
X75683333Y-73950000D01*
X75616666Y-74016666D01*
X75550000Y-74050000D01*
X75416666Y-74083333D01*
X75316666Y-74083333D01*
X75183333Y-74050000D01*
X75116666Y-74016666D01*
X75050000Y-73950000D01*
X75016666Y-73850000D01*
X75016666Y-73783333D01*
X75050000Y-73683333D01*
X75083333Y-73650000D01*
X75716666Y-72983333D02*
X75716666Y-73383333D01*
X75716666Y-73183333D02*
X75016666Y-73183333D01*
X75116666Y-73250000D01*
X75183333Y-73316666D01*
X75216666Y-73383333D01*
X75016666Y-72383333D02*
X75016666Y-72516666D01*
X75050000Y-72583333D01*
X75083333Y-72616666D01*
X75183333Y-72683333D01*
X75316666Y-72716666D01*
X75583333Y-72716666D01*
X75650000Y-72683333D01*
X75683333Y-72650000D01*
X75716666Y-72583333D01*
X75716666Y-72450000D01*
X75683333Y-72383333D01*
X75650000Y-72350000D01*
X75583333Y-72316666D01*
X75416666Y-72316666D01*
X75350000Y-72350000D01*
X75316666Y-72383333D01*
X75283333Y-72450000D01*
X75283333Y-72583333D01*
X75316666Y-72650000D01*
X75350000Y-72683333D01*
X75416666Y-72716666D01*
X75688000Y-75634000D02*
X75721333Y-75667333D01*
X75754666Y-75767333D01*
X75754666Y-75834000D01*
X75721333Y-75934000D01*
X75654666Y-76000666D01*
X75588000Y-76034000D01*
X75454666Y-76067333D01*
X75354666Y-76067333D01*
X75221333Y-76034000D01*
X75154666Y-76000666D01*
X75088000Y-75934000D01*
X75054666Y-75834000D01*
X75054666Y-75767333D01*
X75088000Y-75667333D01*
X75121333Y-75634000D01*
X75754666Y-74967333D02*
X75754666Y-75367333D01*
X75754666Y-75167333D02*
X75054666Y-75167333D01*
X75154666Y-75234000D01*
X75221333Y-75300666D01*
X75254666Y-75367333D01*
X75054666Y-74334000D02*
X75054666Y-74667333D01*
X75388000Y-74700666D01*
X75354666Y-74667333D01*
X75321333Y-74600666D01*
X75321333Y-74434000D01*
X75354666Y-74367333D01*
X75388000Y-74334000D01*
X75454666Y-74300666D01*
X75621333Y-74300666D01*
X75688000Y-74334000D01*
X75721333Y-74367333D01*
X75754666Y-74434000D01*
X75754666Y-74600666D01*
X75721333Y-74667333D01*
X75688000Y-74700666D01*
X75688000Y-77920000D02*
X75721333Y-77953333D01*
X75754666Y-78053333D01*
X75754666Y-78120000D01*
X75721333Y-78220000D01*
X75654666Y-78286666D01*
X75588000Y-78320000D01*
X75454666Y-78353333D01*
X75354666Y-78353333D01*
X75221333Y-78320000D01*
X75154666Y-78286666D01*
X75088000Y-78220000D01*
X75054666Y-78120000D01*
X75054666Y-78053333D01*
X75088000Y-77953333D01*
X75121333Y-77920000D01*
X75754666Y-77253333D02*
X75754666Y-77653333D01*
X75754666Y-77453333D02*
X75054666Y-77453333D01*
X75154666Y-77520000D01*
X75221333Y-77586666D01*
X75254666Y-77653333D01*
X75288000Y-76653333D02*
X75754666Y-76653333D01*
X75021333Y-76820000D02*
X75521333Y-76986666D01*
X75521333Y-76553333D01*
X75688000Y-80460000D02*
X75721333Y-80493333D01*
X75754666Y-80593333D01*
X75754666Y-80660000D01*
X75721333Y-80760000D01*
X75654666Y-80826666D01*
X75588000Y-80860000D01*
X75454666Y-80893333D01*
X75354666Y-80893333D01*
X75221333Y-80860000D01*
X75154666Y-80826666D01*
X75088000Y-80760000D01*
X75054666Y-80660000D01*
X75054666Y-80593333D01*
X75088000Y-80493333D01*
X75121333Y-80460000D01*
X75754666Y-79793333D02*
X75754666Y-80193333D01*
X75754666Y-79993333D02*
X75054666Y-79993333D01*
X75154666Y-80060000D01*
X75221333Y-80126666D01*
X75254666Y-80193333D01*
X75054666Y-79560000D02*
X75054666Y-79126666D01*
X75321333Y-79360000D01*
X75321333Y-79260000D01*
X75354666Y-79193333D01*
X75388000Y-79160000D01*
X75454666Y-79126666D01*
X75621333Y-79126666D01*
X75688000Y-79160000D01*
X75721333Y-79193333D01*
X75754666Y-79260000D01*
X75754666Y-79460000D01*
X75721333Y-79526666D01*
X75688000Y-79560000D01*
X79687000Y-73656000D02*
X79653666Y-73689333D01*
X79553666Y-73722666D01*
X79487000Y-73722666D01*
X79387000Y-73689333D01*
X79320333Y-73622666D01*
X79287000Y-73556000D01*
X79253666Y-73422666D01*
X79253666Y-73322666D01*
X79287000Y-73189333D01*
X79320333Y-73122666D01*
X79387000Y-73056000D01*
X79487000Y-73022666D01*
X79553666Y-73022666D01*
X79653666Y-73056000D01*
X79687000Y-73089333D01*
X80353666Y-73722666D02*
X79953666Y-73722666D01*
X80153666Y-73722666D02*
X80153666Y-73022666D01*
X80087000Y-73122666D01*
X80020333Y-73189333D01*
X79953666Y-73222666D01*
X80620333Y-73089333D02*
X80653666Y-73056000D01*
X80720333Y-73022666D01*
X80887000Y-73022666D01*
X80953666Y-73056000D01*
X80987000Y-73089333D01*
X81020333Y-73156000D01*
X81020333Y-73222666D01*
X80987000Y-73322666D01*
X80587000Y-73722666D01*
X81020333Y-73722666D01*
X79814000Y-75942000D02*
X79780666Y-75975333D01*
X79680666Y-76008666D01*
X79614000Y-76008666D01*
X79514000Y-75975333D01*
X79447333Y-75908666D01*
X79414000Y-75842000D01*
X79380666Y-75708666D01*
X79380666Y-75608666D01*
X79414000Y-75475333D01*
X79447333Y-75408666D01*
X79514000Y-75342000D01*
X79614000Y-75308666D01*
X79680666Y-75308666D01*
X79780666Y-75342000D01*
X79814000Y-75375333D01*
X80480666Y-76008666D02*
X80080666Y-76008666D01*
X80280666Y-76008666D02*
X80280666Y-75308666D01*
X80214000Y-75408666D01*
X80147333Y-75475333D01*
X80080666Y-75508666D01*
X81147333Y-76008666D02*
X80747333Y-76008666D01*
X80947333Y-76008666D02*
X80947333Y-75308666D01*
X80880666Y-75408666D01*
X80814000Y-75475333D01*
X80747333Y-75508666D01*
X79814000Y-78355000D02*
X79780666Y-78388333D01*
X79680666Y-78421666D01*
X79614000Y-78421666D01*
X79514000Y-78388333D01*
X79447333Y-78321666D01*
X79414000Y-78255000D01*
X79380666Y-78121666D01*
X79380666Y-78021666D01*
X79414000Y-77888333D01*
X79447333Y-77821666D01*
X79514000Y-77755000D01*
X79614000Y-77721666D01*
X79680666Y-77721666D01*
X79780666Y-77755000D01*
X79814000Y-77788333D01*
X80480666Y-78421666D02*
X80080666Y-78421666D01*
X80280666Y-78421666D02*
X80280666Y-77721666D01*
X80214000Y-77821666D01*
X80147333Y-77888333D01*
X80080666Y-77921666D01*
X80914000Y-77721666D02*
X80980666Y-77721666D01*
X81047333Y-77755000D01*
X81080666Y-77788333D01*
X81114000Y-77855000D01*
X81147333Y-77988333D01*
X81147333Y-78155000D01*
X81114000Y-78288333D01*
X81080666Y-78355000D01*
X81047333Y-78388333D01*
X80980666Y-78421666D01*
X80914000Y-78421666D01*
X80847333Y-78388333D01*
X80814000Y-78355000D01*
X80780666Y-78288333D01*
X80747333Y-78155000D01*
X80747333Y-77988333D01*
X80780666Y-77855000D01*
X80814000Y-77788333D01*
X80847333Y-77755000D01*
X80914000Y-77721666D01*
X79893333Y-80895000D02*
X79860000Y-80928333D01*
X79760000Y-80961666D01*
X79693333Y-80961666D01*
X79593333Y-80928333D01*
X79526666Y-80861666D01*
X79493333Y-80795000D01*
X79460000Y-80661666D01*
X79460000Y-80561666D01*
X79493333Y-80428333D01*
X79526666Y-80361666D01*
X79593333Y-80295000D01*
X79693333Y-80261666D01*
X79760000Y-80261666D01*
X79860000Y-80295000D01*
X79893333Y-80328333D01*
X80226666Y-80961666D02*
X80360000Y-80961666D01*
X80426666Y-80928333D01*
X80460000Y-80895000D01*
X80526666Y-80795000D01*
X80560000Y-80661666D01*
X80560000Y-80395000D01*
X80526666Y-80328333D01*
X80493333Y-80295000D01*
X80426666Y-80261666D01*
X80293333Y-80261666D01*
X80226666Y-80295000D01*
X80193333Y-80328333D01*
X80160000Y-80395000D01*
X80160000Y-80561666D01*
X80193333Y-80628333D01*
X80226666Y-80661666D01*
X80293333Y-80695000D01*
X80426666Y-80695000D01*
X80493333Y-80661666D01*
X80526666Y-80628333D01*
X80560000Y-80561666D01*
X79639333Y-72513000D02*
X79606000Y-72546333D01*
X79506000Y-72579666D01*
X79439333Y-72579666D01*
X79339333Y-72546333D01*
X79272666Y-72479666D01*
X79239333Y-72413000D01*
X79206000Y-72279666D01*
X79206000Y-72179666D01*
X79239333Y-72046333D01*
X79272666Y-71979666D01*
X79339333Y-71913000D01*
X79439333Y-71879666D01*
X79506000Y-71879666D01*
X79606000Y-71913000D01*
X79639333Y-71946333D01*
X80039333Y-72179666D02*
X79972666Y-72146333D01*
X79939333Y-72113000D01*
X79906000Y-72046333D01*
X79906000Y-72013000D01*
X79939333Y-71946333D01*
X79972666Y-71913000D01*
X80039333Y-71879666D01*
X80172666Y-71879666D01*
X80239333Y-71913000D01*
X80272666Y-71946333D01*
X80306000Y-72013000D01*
X80306000Y-72046333D01*
X80272666Y-72113000D01*
X80239333Y-72146333D01*
X80172666Y-72179666D01*
X80039333Y-72179666D01*
X79972666Y-72213000D01*
X79939333Y-72246333D01*
X79906000Y-72313000D01*
X79906000Y-72446333D01*
X79939333Y-72513000D01*
X79972666Y-72546333D01*
X80039333Y-72579666D01*
X80172666Y-72579666D01*
X80239333Y-72546333D01*
X80272666Y-72513000D01*
X80306000Y-72446333D01*
X80306000Y-72313000D01*
X80272666Y-72246333D01*
X80239333Y-72213000D01*
X80172666Y-72179666D01*
X79893333Y-74799000D02*
X79860000Y-74832333D01*
X79760000Y-74865666D01*
X79693333Y-74865666D01*
X79593333Y-74832333D01*
X79526666Y-74765666D01*
X79493333Y-74699000D01*
X79460000Y-74565666D01*
X79460000Y-74465666D01*
X79493333Y-74332333D01*
X79526666Y-74265666D01*
X79593333Y-74199000D01*
X79693333Y-74165666D01*
X79760000Y-74165666D01*
X79860000Y-74199000D01*
X79893333Y-74232333D01*
X80126666Y-74165666D02*
X80593333Y-74165666D01*
X80293333Y-74865666D01*
X79766333Y-77085000D02*
X79733000Y-77118333D01*
X79633000Y-77151666D01*
X79566333Y-77151666D01*
X79466333Y-77118333D01*
X79399666Y-77051666D01*
X79366333Y-76985000D01*
X79333000Y-76851666D01*
X79333000Y-76751666D01*
X79366333Y-76618333D01*
X79399666Y-76551666D01*
X79466333Y-76485000D01*
X79566333Y-76451666D01*
X79633000Y-76451666D01*
X79733000Y-76485000D01*
X79766333Y-76518333D01*
X80366333Y-76451666D02*
X80233000Y-76451666D01*
X80166333Y-76485000D01*
X80133000Y-76518333D01*
X80066333Y-76618333D01*
X80033000Y-76751666D01*
X80033000Y-77018333D01*
X80066333Y-77085000D01*
X80099666Y-77118333D01*
X80166333Y-77151666D01*
X80299666Y-77151666D01*
X80366333Y-77118333D01*
X80399666Y-77085000D01*
X80433000Y-77018333D01*
X80433000Y-76851666D01*
X80399666Y-76785000D01*
X80366333Y-76751666D01*
X80299666Y-76718333D01*
X80166333Y-76718333D01*
X80099666Y-76751666D01*
X80066333Y-76785000D01*
X80033000Y-76851666D01*
X79893333Y-79625000D02*
X79860000Y-79658333D01*
X79760000Y-79691666D01*
X79693333Y-79691666D01*
X79593333Y-79658333D01*
X79526666Y-79591666D01*
X79493333Y-79525000D01*
X79460000Y-79391666D01*
X79460000Y-79291666D01*
X79493333Y-79158333D01*
X79526666Y-79091666D01*
X79593333Y-79025000D01*
X79693333Y-78991666D01*
X79760000Y-78991666D01*
X79860000Y-79025000D01*
X79893333Y-79058333D01*
X80526666Y-78991666D02*
X80193333Y-78991666D01*
X80160000Y-79325000D01*
X80193333Y-79291666D01*
X80260000Y-79258333D01*
X80426666Y-79258333D01*
X80493333Y-79291666D01*
X80526666Y-79325000D01*
X80560000Y-79391666D01*
X80560000Y-79558333D01*
X80526666Y-79625000D01*
X80493333Y-79658333D01*
X80426666Y-79691666D01*
X80260000Y-79691666D01*
X80193333Y-79658333D01*
X80160000Y-79625000D01*
M02*
