G04 #@! TF.GenerationSoftware,KiCad,Pcbnew,(5.1.2)-2*
G04 #@! TF.CreationDate,2019-11-16T13:35:15-06:00*
G04 #@! TF.ProjectId,spi_control,7370695f-636f-46e7-9472-6f6c2e6b6963,rev?*
G04 #@! TF.SameCoordinates,Original*
G04 #@! TF.FileFunction,Legend,Bot*
G04 #@! TF.FilePolarity,Positive*
%FSLAX46Y46*%
G04 Gerber Fmt 4.6, Leading zero omitted, Abs format (unit mm)*
G04 Created by KiCad (PCBNEW (5.1.2)-2) date 2019-11-16 13:35:15*
%MOMM*%
%LPD*%
G04 APERTURE LIST*
%ADD10C,0.120000*%
%ADD11C,0.150000*%
G04 APERTURE END LIST*
D10*
X115823000Y-80169000D02*
X115823000Y-84169000D01*
X112523000Y-80169000D02*
X115823000Y-80169000D01*
X124202500Y-69786500D02*
X123942500Y-69786500D01*
X121662500Y-69786500D02*
X119892500Y-69786500D01*
X119892500Y-69786500D02*
X119892500Y-70166500D01*
X119892500Y-77406500D02*
X121662500Y-77406500D01*
X123942500Y-77406500D02*
X124202500Y-77406500D01*
X119892500Y-77406500D02*
X119892500Y-77026500D01*
X65110000Y-62600000D02*
X65110000Y-63960000D01*
X114890000Y-57400000D02*
X115460000Y-57400000D01*
X112350000Y-57400000D02*
X113370000Y-57400000D01*
X109810000Y-57400000D02*
X110830000Y-57400000D01*
X107270000Y-57400000D02*
X108290000Y-57400000D01*
X104730000Y-57400000D02*
X105750000Y-57400000D01*
X102190000Y-57400000D02*
X103210000Y-57400000D01*
X99650000Y-57400000D02*
X100670000Y-57400000D01*
X97110000Y-57400000D02*
X98130000Y-57400000D01*
X94570000Y-57400000D02*
X95590000Y-57400000D01*
X92030000Y-57400000D02*
X93050000Y-57400000D01*
X89490000Y-57400000D02*
X90510000Y-57400000D01*
X86950000Y-57400000D02*
X87970000Y-57400000D01*
X84410000Y-57400000D02*
X85430000Y-57400000D01*
X81870000Y-57400000D02*
X82890000Y-57400000D01*
X79330000Y-57400000D02*
X80350000Y-57400000D01*
X76790000Y-57400000D02*
X77810000Y-57400000D01*
X74250000Y-57400000D02*
X75270000Y-57400000D01*
X71710000Y-57400000D02*
X72730000Y-57400000D01*
X69170000Y-57400000D02*
X70190000Y-57400000D01*
X66630000Y-57400000D02*
X67650000Y-57400000D01*
X64540000Y-57400000D02*
X65110000Y-57400000D01*
X115460000Y-57400000D02*
X115460000Y-62600000D01*
X114890000Y-62600000D02*
X115460000Y-62600000D01*
X112350000Y-62600000D02*
X113370000Y-62600000D01*
X109810000Y-62600000D02*
X110830000Y-62600000D01*
X107270000Y-62600000D02*
X108290000Y-62600000D01*
X104730000Y-62600000D02*
X105750000Y-62600000D01*
X102190000Y-62600000D02*
X103210000Y-62600000D01*
X99650000Y-62600000D02*
X100670000Y-62600000D01*
X97110000Y-62600000D02*
X98130000Y-62600000D01*
X94570000Y-62600000D02*
X95590000Y-62600000D01*
X92030000Y-62600000D02*
X93050000Y-62600000D01*
X89490000Y-62600000D02*
X90510000Y-62600000D01*
X86950000Y-62600000D02*
X87970000Y-62600000D01*
X84410000Y-62600000D02*
X85430000Y-62600000D01*
X81870000Y-62600000D02*
X82890000Y-62600000D01*
X79330000Y-62600000D02*
X80350000Y-62600000D01*
X76790000Y-62600000D02*
X77810000Y-62600000D01*
X74250000Y-62600000D02*
X75270000Y-62600000D01*
X71710000Y-62600000D02*
X72730000Y-62600000D01*
X69170000Y-62600000D02*
X70190000Y-62600000D01*
X66630000Y-62600000D02*
X67650000Y-62600000D01*
X64540000Y-62600000D02*
X65110000Y-62600000D01*
X64540000Y-57400000D02*
X64540000Y-62600000D01*
X64540000Y-90394600D02*
X64540000Y-95594600D01*
X64540000Y-95594600D02*
X65110000Y-95594600D01*
X66630000Y-95594600D02*
X67650000Y-95594600D01*
X69170000Y-95594600D02*
X70190000Y-95594600D01*
X71710000Y-95594600D02*
X72730000Y-95594600D01*
X74250000Y-95594600D02*
X75270000Y-95594600D01*
X76790000Y-95594600D02*
X77810000Y-95594600D01*
X79330000Y-95594600D02*
X80350000Y-95594600D01*
X81870000Y-95594600D02*
X82890000Y-95594600D01*
X84410000Y-95594600D02*
X85430000Y-95594600D01*
X86950000Y-95594600D02*
X87970000Y-95594600D01*
X89490000Y-95594600D02*
X90510000Y-95594600D01*
X92030000Y-95594600D02*
X93050000Y-95594600D01*
X94570000Y-95594600D02*
X95590000Y-95594600D01*
X97110000Y-95594600D02*
X98130000Y-95594600D01*
X99650000Y-95594600D02*
X100670000Y-95594600D01*
X102190000Y-95594600D02*
X103210000Y-95594600D01*
X104730000Y-95594600D02*
X105750000Y-95594600D01*
X107270000Y-95594600D02*
X108290000Y-95594600D01*
X109810000Y-95594600D02*
X110830000Y-95594600D01*
X112350000Y-95594600D02*
X113370000Y-95594600D01*
X114890000Y-95594600D02*
X115460000Y-95594600D01*
X115460000Y-90394600D02*
X115460000Y-95594600D01*
X64540000Y-90394600D02*
X65110000Y-90394600D01*
X66630000Y-90394600D02*
X67650000Y-90394600D01*
X69170000Y-90394600D02*
X70190000Y-90394600D01*
X71710000Y-90394600D02*
X72730000Y-90394600D01*
X74250000Y-90394600D02*
X75270000Y-90394600D01*
X76790000Y-90394600D02*
X77810000Y-90394600D01*
X79330000Y-90394600D02*
X80350000Y-90394600D01*
X81870000Y-90394600D02*
X82890000Y-90394600D01*
X84410000Y-90394600D02*
X85430000Y-90394600D01*
X86950000Y-90394600D02*
X87970000Y-90394600D01*
X89490000Y-90394600D02*
X90510000Y-90394600D01*
X92030000Y-90394600D02*
X93050000Y-90394600D01*
X94570000Y-90394600D02*
X95590000Y-90394600D01*
X97110000Y-90394600D02*
X98130000Y-90394600D01*
X99650000Y-90394600D02*
X100670000Y-90394600D01*
X102190000Y-90394600D02*
X103210000Y-90394600D01*
X104730000Y-90394600D02*
X105750000Y-90394600D01*
X107270000Y-90394600D02*
X108290000Y-90394600D01*
X109810000Y-90394600D02*
X110830000Y-90394600D01*
X112350000Y-90394600D02*
X113370000Y-90394600D01*
X114890000Y-90394600D02*
X115460000Y-90394600D01*
X65110000Y-95594600D02*
X65110000Y-96954600D01*
X111068000Y-77474500D02*
X111068000Y-76574500D01*
X111068000Y-76574500D02*
X110168000Y-76574500D01*
X105848000Y-80894500D02*
X105848000Y-81794500D01*
X105848000Y-81794500D02*
X106748000Y-81794500D01*
X105848000Y-77474500D02*
X105848000Y-76574500D01*
X105848000Y-76574500D02*
X106748000Y-76574500D01*
X111068000Y-80894500D02*
X111068000Y-81794500D01*
D11*
X116335500Y-72300500D02*
X115185500Y-72300500D01*
X117110500Y-69050500D02*
X115185500Y-69050500D01*
D10*
X104205721Y-67943000D02*
X104531279Y-67943000D01*
X104205721Y-68963000D02*
X104531279Y-68963000D01*
X104231221Y-70610000D02*
X104556779Y-70610000D01*
X104231221Y-71630000D02*
X104556779Y-71630000D01*
X116960500Y-76924500D02*
X114010500Y-76924500D01*
X114560500Y-73824500D02*
X116960500Y-73824500D01*
D11*
X59505000Y-75205400D02*
X59538333Y-75238733D01*
X59638333Y-75272066D01*
X59705000Y-75272066D01*
X59805000Y-75238733D01*
X59871666Y-75172066D01*
X59905000Y-75105400D01*
X59938333Y-74972066D01*
X59938333Y-74872066D01*
X59905000Y-74738733D01*
X59871666Y-74672066D01*
X59805000Y-74605400D01*
X59705000Y-74572066D01*
X59638333Y-74572066D01*
X59538333Y-74605400D01*
X59505000Y-74638733D01*
X58905000Y-74805400D02*
X58905000Y-75272066D01*
X59071666Y-74538733D02*
X59238333Y-75038733D01*
X58805000Y-75038733D01*
X58605000Y-74572066D02*
X58171666Y-74572066D01*
X58405000Y-74838733D01*
X58305000Y-74838733D01*
X58238333Y-74872066D01*
X58205000Y-74905400D01*
X58171666Y-74972066D01*
X58171666Y-75138733D01*
X58205000Y-75205400D01*
X58238333Y-75238733D01*
X58305000Y-75272066D01*
X58505000Y-75272066D01*
X58571666Y-75238733D01*
X58605000Y-75205400D01*
X117109833Y-80564833D02*
X117109833Y-80898166D01*
X117343166Y-80198166D02*
X117109833Y-80564833D01*
X116876500Y-80198166D01*
X116276500Y-80898166D02*
X116676500Y-80898166D01*
X116476500Y-80898166D02*
X116476500Y-80198166D01*
X116543166Y-80298166D01*
X116609833Y-80364833D01*
X116676500Y-80398166D01*
X117020166Y-78037500D02*
X117053500Y-78070833D01*
X117153500Y-78104166D01*
X117220166Y-78104166D01*
X117320166Y-78070833D01*
X117386833Y-78004166D01*
X117420166Y-77937500D01*
X117453500Y-77804166D01*
X117453500Y-77704166D01*
X117420166Y-77570833D01*
X117386833Y-77504166D01*
X117320166Y-77437500D01*
X117220166Y-77404166D01*
X117153500Y-77404166D01*
X117053500Y-77437500D01*
X117020166Y-77470833D01*
X116353500Y-78104166D02*
X116753500Y-78104166D01*
X116553500Y-78104166D02*
X116553500Y-77404166D01*
X116620166Y-77504166D01*
X116686833Y-77570833D01*
X116753500Y-77604166D01*
X117020166Y-79247166D02*
X117253500Y-78913833D01*
X117420166Y-79247166D02*
X117420166Y-78547166D01*
X117153500Y-78547166D01*
X117086833Y-78580500D01*
X117053500Y-78613833D01*
X117020166Y-78680500D01*
X117020166Y-78780500D01*
X117053500Y-78847166D01*
X117086833Y-78880500D01*
X117153500Y-78913833D01*
X117420166Y-78913833D01*
X116353500Y-79247166D02*
X116753500Y-79247166D01*
X116553500Y-79247166D02*
X116553500Y-78547166D01*
X116620166Y-78647166D01*
X116686833Y-78713833D01*
X116753500Y-78747166D01*
X118298166Y-77046166D02*
X118798166Y-77046166D01*
X118898166Y-77012833D01*
X118964833Y-76946166D01*
X118998166Y-76846166D01*
X118998166Y-76779500D01*
X118998166Y-77746166D02*
X118998166Y-77346166D01*
X118998166Y-77546166D02*
X118298166Y-77546166D01*
X118398166Y-77479500D01*
X118464833Y-77412833D01*
X118498166Y-77346166D01*
X63812666Y-63116666D02*
X63812666Y-63616666D01*
X63846000Y-63716666D01*
X63912666Y-63783333D01*
X64012666Y-63816666D01*
X64079333Y-63816666D01*
X63179333Y-63350000D02*
X63179333Y-63816666D01*
X63346000Y-63083333D02*
X63512666Y-63583333D01*
X63079333Y-63583333D01*
X62679333Y-63116666D02*
X62612666Y-63116666D01*
X62546000Y-63150000D01*
X62512666Y-63183333D01*
X62479333Y-63250000D01*
X62446000Y-63383333D01*
X62446000Y-63550000D01*
X62479333Y-63683333D01*
X62512666Y-63750000D01*
X62546000Y-63783333D01*
X62612666Y-63816666D01*
X62679333Y-63816666D01*
X62746000Y-63783333D01*
X62779333Y-63750000D01*
X62812666Y-63683333D01*
X62846000Y-63550000D01*
X62846000Y-63383333D01*
X62812666Y-63250000D01*
X62779333Y-63183333D01*
X62746000Y-63150000D01*
X62679333Y-63116666D01*
X63812666Y-89024666D02*
X63812666Y-89524666D01*
X63846000Y-89624666D01*
X63912666Y-89691333D01*
X64012666Y-89724666D01*
X64079333Y-89724666D01*
X63546000Y-89024666D02*
X63112666Y-89024666D01*
X63346000Y-89291333D01*
X63246000Y-89291333D01*
X63179333Y-89324666D01*
X63146000Y-89358000D01*
X63112666Y-89424666D01*
X63112666Y-89591333D01*
X63146000Y-89658000D01*
X63179333Y-89691333D01*
X63246000Y-89724666D01*
X63446000Y-89724666D01*
X63512666Y-89691333D01*
X63546000Y-89658000D01*
X62779333Y-89724666D02*
X62646000Y-89724666D01*
X62579333Y-89691333D01*
X62546000Y-89658000D01*
X62479333Y-89558000D01*
X62446000Y-89424666D01*
X62446000Y-89158000D01*
X62479333Y-89091333D01*
X62512666Y-89058000D01*
X62579333Y-89024666D01*
X62712666Y-89024666D01*
X62779333Y-89058000D01*
X62812666Y-89091333D01*
X62846000Y-89158000D01*
X62846000Y-89324666D01*
X62812666Y-89391333D01*
X62779333Y-89424666D01*
X62712666Y-89458000D01*
X62579333Y-89458000D01*
X62512666Y-89424666D01*
X62479333Y-89391333D01*
X62446000Y-89324666D01*
X108178533Y-74953066D02*
X108178533Y-75519733D01*
X108145200Y-75586400D01*
X108111866Y-75619733D01*
X108045200Y-75653066D01*
X107911866Y-75653066D01*
X107845200Y-75619733D01*
X107811866Y-75586400D01*
X107778533Y-75519733D01*
X107778533Y-74953066D01*
X107478533Y-75019733D02*
X107445200Y-74986400D01*
X107378533Y-74953066D01*
X107211866Y-74953066D01*
X107145200Y-74986400D01*
X107111866Y-75019733D01*
X107078533Y-75086400D01*
X107078533Y-75153066D01*
X107111866Y-75253066D01*
X107511866Y-75653066D01*
X107078533Y-75653066D01*
X114515833Y-72006666D02*
X114515833Y-72573333D01*
X114482500Y-72640000D01*
X114449166Y-72673333D01*
X114382500Y-72706666D01*
X114249166Y-72706666D01*
X114182500Y-72673333D01*
X114149166Y-72640000D01*
X114115833Y-72573333D01*
X114115833Y-72006666D01*
X113415833Y-72706666D02*
X113815833Y-72706666D01*
X113615833Y-72706666D02*
X113615833Y-72006666D01*
X113682500Y-72106666D01*
X113749166Y-72173333D01*
X113815833Y-72206666D01*
X74238621Y-80845956D02*
X74639315Y-80775245D01*
X74521464Y-81128798D02*
X75016439Y-80633824D01*
X74827877Y-80445262D01*
X74757166Y-80421692D01*
X74710026Y-80421692D01*
X74639315Y-80445262D01*
X74568605Y-80515973D01*
X74545034Y-80586683D01*
X74545034Y-80633824D01*
X74568605Y-80704534D01*
X74757166Y-80893096D01*
X73767217Y-80374551D02*
X74050060Y-80657394D01*
X73908638Y-80515973D02*
X74403613Y-80020998D01*
X74380043Y-80138849D01*
X74380043Y-80233130D01*
X74403613Y-80303841D01*
X74026489Y-79738155D02*
X74026489Y-79691015D01*
X74002919Y-79620304D01*
X73885068Y-79502453D01*
X73814357Y-79478883D01*
X73767217Y-79478883D01*
X73696506Y-79502453D01*
X73649366Y-79549593D01*
X73602225Y-79643874D01*
X73602225Y-80209560D01*
X73295812Y-79903147D01*
X73476621Y-81751640D02*
X73877315Y-81680929D01*
X73759464Y-82034482D02*
X74254439Y-81539508D01*
X74065877Y-81350946D01*
X73995166Y-81327376D01*
X73948026Y-81327376D01*
X73877315Y-81350946D01*
X73806605Y-81421657D01*
X73783034Y-81492367D01*
X73783034Y-81539508D01*
X73806605Y-81610218D01*
X73995166Y-81798780D01*
X73005217Y-81280235D02*
X73288060Y-81563078D01*
X73146638Y-81421657D02*
X73641613Y-80926682D01*
X73618043Y-81044533D01*
X73618043Y-81138814D01*
X73641613Y-81209525D01*
X72533812Y-80808831D02*
X72816655Y-81091673D01*
X72675234Y-80950252D02*
X73170208Y-80455277D01*
X73146638Y-80573128D01*
X73146638Y-80667409D01*
X73170208Y-80738120D01*
X70217466Y-65971000D02*
X69884133Y-65737666D01*
X70217466Y-65571000D02*
X69517466Y-65571000D01*
X69517466Y-65837666D01*
X69550800Y-65904333D01*
X69584133Y-65937666D01*
X69650800Y-65971000D01*
X69750800Y-65971000D01*
X69817466Y-65937666D01*
X69850800Y-65904333D01*
X69884133Y-65837666D01*
X69884133Y-65571000D01*
X70217466Y-66637666D02*
X70217466Y-66237666D01*
X70217466Y-66437666D02*
X69517466Y-66437666D01*
X69617466Y-66371000D01*
X69684133Y-66304333D01*
X69717466Y-66237666D01*
X69517466Y-67071000D02*
X69517466Y-67137666D01*
X69550800Y-67204333D01*
X69584133Y-67237666D01*
X69650800Y-67271000D01*
X69784133Y-67304333D01*
X69950800Y-67304333D01*
X70084133Y-67271000D01*
X70150800Y-67237666D01*
X70184133Y-67204333D01*
X70217466Y-67137666D01*
X70217466Y-67071000D01*
X70184133Y-67004333D01*
X70150800Y-66971000D01*
X70084133Y-66937666D01*
X69950800Y-66904333D01*
X69784133Y-66904333D01*
X69650800Y-66937666D01*
X69584133Y-66971000D01*
X69550800Y-67004333D01*
X69517466Y-67071000D01*
X72439078Y-82094412D02*
X72839772Y-82023702D01*
X72721921Y-82377255D02*
X73216896Y-81882280D01*
X73028334Y-81693719D01*
X72957623Y-81670148D01*
X72910483Y-81670148D01*
X72839772Y-81693719D01*
X72769061Y-81764429D01*
X72745491Y-81835140D01*
X72745491Y-81882280D01*
X72769061Y-81952991D01*
X72957623Y-82141553D01*
X72203376Y-81858710D02*
X72109095Y-81764429D01*
X72085525Y-81693719D01*
X72085525Y-81646578D01*
X72109095Y-81528727D01*
X72179806Y-81410876D01*
X72368367Y-81222314D01*
X72439078Y-81198744D01*
X72486219Y-81198744D01*
X72556929Y-81222314D01*
X72651210Y-81316595D01*
X72674780Y-81387306D01*
X72674780Y-81434446D01*
X72651210Y-81505157D01*
X72533359Y-81623008D01*
X72462648Y-81646578D01*
X72415508Y-81646578D01*
X72344797Y-81623008D01*
X72250516Y-81528727D01*
X72226946Y-81458016D01*
X72226946Y-81410876D01*
X72250516Y-81340165D01*
X121274666Y-78955066D02*
X121508000Y-78621733D01*
X121674666Y-78955066D02*
X121674666Y-78255066D01*
X121408000Y-78255066D01*
X121341333Y-78288400D01*
X121308000Y-78321733D01*
X121274666Y-78388400D01*
X121274666Y-78488400D01*
X121308000Y-78555066D01*
X121341333Y-78588400D01*
X121408000Y-78621733D01*
X121674666Y-78621733D01*
X120874666Y-78555066D02*
X120941333Y-78521733D01*
X120974666Y-78488400D01*
X121008000Y-78421733D01*
X121008000Y-78388400D01*
X120974666Y-78321733D01*
X120941333Y-78288400D01*
X120874666Y-78255066D01*
X120741333Y-78255066D01*
X120674666Y-78288400D01*
X120641333Y-78321733D01*
X120608000Y-78388400D01*
X120608000Y-78421733D01*
X120641333Y-78488400D01*
X120674666Y-78521733D01*
X120741333Y-78555066D01*
X120874666Y-78555066D01*
X120941333Y-78588400D01*
X120974666Y-78621733D01*
X121008000Y-78688400D01*
X121008000Y-78821733D01*
X120974666Y-78888400D01*
X120941333Y-78921733D01*
X120874666Y-78955066D01*
X120741333Y-78955066D01*
X120674666Y-78921733D01*
X120641333Y-78888400D01*
X120608000Y-78821733D01*
X120608000Y-78688400D01*
X120641333Y-78621733D01*
X120674666Y-78588400D01*
X120741333Y-78555066D01*
X110806666Y-85227333D02*
X110473333Y-84994000D01*
X110806666Y-84827333D02*
X110106666Y-84827333D01*
X110106666Y-85094000D01*
X110140000Y-85160666D01*
X110173333Y-85194000D01*
X110240000Y-85227333D01*
X110340000Y-85227333D01*
X110406666Y-85194000D01*
X110440000Y-85160666D01*
X110473333Y-85094000D01*
X110473333Y-84827333D01*
X110340000Y-85827333D02*
X110806666Y-85827333D01*
X110073333Y-85660666D02*
X110573333Y-85494000D01*
X110573333Y-85927333D01*
X122735166Y-64832666D02*
X122968500Y-64499333D01*
X123135166Y-64832666D02*
X123135166Y-64132666D01*
X122868500Y-64132666D01*
X122801833Y-64166000D01*
X122768500Y-64199333D01*
X122735166Y-64266000D01*
X122735166Y-64366000D01*
X122768500Y-64432666D01*
X122801833Y-64466000D01*
X122868500Y-64499333D01*
X123135166Y-64499333D01*
X122501833Y-64132666D02*
X122068500Y-64132666D01*
X122301833Y-64399333D01*
X122201833Y-64399333D01*
X122135166Y-64432666D01*
X122101833Y-64466000D01*
X122068500Y-64532666D01*
X122068500Y-64699333D01*
X122101833Y-64766000D01*
X122135166Y-64799333D01*
X122201833Y-64832666D01*
X122401833Y-64832666D01*
X122468500Y-64799333D01*
X122501833Y-64766000D01*
X120458666Y-65351833D02*
X120125333Y-65118500D01*
X120458666Y-64951833D02*
X119758666Y-64951833D01*
X119758666Y-65218500D01*
X119792000Y-65285166D01*
X119825333Y-65318500D01*
X119892000Y-65351833D01*
X119992000Y-65351833D01*
X120058666Y-65318500D01*
X120092000Y-65285166D01*
X120125333Y-65218500D01*
X120125333Y-64951833D01*
X119825333Y-65618500D02*
X119792000Y-65651833D01*
X119758666Y-65718500D01*
X119758666Y-65885166D01*
X119792000Y-65951833D01*
X119825333Y-65985166D01*
X119892000Y-66018500D01*
X119958666Y-66018500D01*
X120058666Y-65985166D01*
X120458666Y-65585166D01*
X120458666Y-66018500D01*
X104951833Y-67133000D02*
X105185166Y-67133000D01*
X105185166Y-67499666D02*
X105185166Y-66799666D01*
X104851833Y-66799666D01*
X104351833Y-67133000D02*
X104251833Y-67166333D01*
X104218500Y-67199666D01*
X104185166Y-67266333D01*
X104185166Y-67366333D01*
X104218500Y-67433000D01*
X104251833Y-67466333D01*
X104318500Y-67499666D01*
X104585166Y-67499666D01*
X104585166Y-66799666D01*
X104351833Y-66799666D01*
X104285166Y-66833000D01*
X104251833Y-66866333D01*
X104218500Y-66933000D01*
X104218500Y-66999666D01*
X104251833Y-67066333D01*
X104285166Y-67099666D01*
X104351833Y-67133000D01*
X104585166Y-67133000D01*
X103918500Y-66866333D02*
X103885166Y-66833000D01*
X103818500Y-66799666D01*
X103651833Y-66799666D01*
X103585166Y-66833000D01*
X103551833Y-66866333D01*
X103518500Y-66933000D01*
X103518500Y-66999666D01*
X103551833Y-67099666D01*
X103951833Y-67499666D01*
X103518500Y-67499666D01*
X104977333Y-72500000D02*
X105210666Y-72500000D01*
X105210666Y-72866666D02*
X105210666Y-72166666D01*
X104877333Y-72166666D01*
X104377333Y-72500000D02*
X104277333Y-72533333D01*
X104244000Y-72566666D01*
X104210666Y-72633333D01*
X104210666Y-72733333D01*
X104244000Y-72800000D01*
X104277333Y-72833333D01*
X104344000Y-72866666D01*
X104610666Y-72866666D01*
X104610666Y-72166666D01*
X104377333Y-72166666D01*
X104310666Y-72200000D01*
X104277333Y-72233333D01*
X104244000Y-72300000D01*
X104244000Y-72366666D01*
X104277333Y-72433333D01*
X104310666Y-72466666D01*
X104377333Y-72500000D01*
X104610666Y-72500000D01*
X103544000Y-72866666D02*
X103944000Y-72866666D01*
X103744000Y-72866666D02*
X103744000Y-72166666D01*
X103810666Y-72266666D01*
X103877333Y-72333333D01*
X103944000Y-72366666D01*
X117674166Y-73532166D02*
X117674166Y-72832166D01*
X117507500Y-72832166D01*
X117407500Y-72865500D01*
X117340833Y-72932166D01*
X117307500Y-72998833D01*
X117274166Y-73132166D01*
X117274166Y-73232166D01*
X117307500Y-73365500D01*
X117340833Y-73432166D01*
X117407500Y-73498833D01*
X117507500Y-73532166D01*
X117674166Y-73532166D01*
X116607500Y-73532166D02*
X117007500Y-73532166D01*
X116807500Y-73532166D02*
X116807500Y-72832166D01*
X116874166Y-72932166D01*
X116940833Y-72998833D01*
X117007500Y-73032166D01*
X63350000Y-69300000D02*
X63383333Y-69333333D01*
X63483333Y-69366666D01*
X63550000Y-69366666D01*
X63650000Y-69333333D01*
X63716666Y-69266666D01*
X63750000Y-69200000D01*
X63783333Y-69066666D01*
X63783333Y-68966666D01*
X63750000Y-68833333D01*
X63716666Y-68766666D01*
X63650000Y-68700000D01*
X63550000Y-68666666D01*
X63483333Y-68666666D01*
X63383333Y-68700000D01*
X63350000Y-68733333D01*
X62750000Y-68900000D02*
X62750000Y-69366666D01*
X62916666Y-68633333D02*
X63083333Y-69133333D01*
X62650000Y-69133333D01*
X62083333Y-68900000D02*
X62083333Y-69366666D01*
X62250000Y-68633333D02*
X62416666Y-69133333D01*
X61983333Y-69133333D01*
X68771996Y-83321156D02*
X68819137Y-83321156D01*
X68913418Y-83274016D01*
X68960558Y-83226875D01*
X69007699Y-83132594D01*
X69007699Y-83038313D01*
X68984128Y-82967603D01*
X68913418Y-82849752D01*
X68842707Y-82779041D01*
X68724856Y-82708330D01*
X68654145Y-82684760D01*
X68559864Y-82684760D01*
X68465583Y-82731900D01*
X68418443Y-82779041D01*
X68371302Y-82873322D01*
X68371302Y-82920462D01*
X68064889Y-83462578D02*
X68394873Y-83792561D01*
X67994179Y-83156165D02*
X68465583Y-83391867D01*
X68159170Y-83698280D01*
X67711336Y-83580429D02*
X67664196Y-83580429D01*
X67593485Y-83603999D01*
X67475634Y-83721850D01*
X67452064Y-83792561D01*
X67452064Y-83839701D01*
X67475634Y-83910412D01*
X67522774Y-83957552D01*
X67617055Y-84004693D01*
X68182741Y-84004693D01*
X67876328Y-84311106D01*
X63360000Y-70325000D02*
X63393333Y-70358333D01*
X63493333Y-70391666D01*
X63560000Y-70391666D01*
X63660000Y-70358333D01*
X63726666Y-70291666D01*
X63760000Y-70225000D01*
X63793333Y-70091666D01*
X63793333Y-69991666D01*
X63760000Y-69858333D01*
X63726666Y-69791666D01*
X63660000Y-69725000D01*
X63560000Y-69691666D01*
X63493333Y-69691666D01*
X63393333Y-69725000D01*
X63360000Y-69758333D01*
X62760000Y-69925000D02*
X62760000Y-70391666D01*
X62926666Y-69658333D02*
X63093333Y-70158333D01*
X62660000Y-70158333D01*
X62260000Y-69691666D02*
X62193333Y-69691666D01*
X62126666Y-69725000D01*
X62093333Y-69758333D01*
X62060000Y-69825000D01*
X62026666Y-69958333D01*
X62026666Y-70125000D01*
X62060000Y-70258333D01*
X62093333Y-70325000D01*
X62126666Y-70358333D01*
X62193333Y-70391666D01*
X62260000Y-70391666D01*
X62326666Y-70358333D01*
X62360000Y-70325000D01*
X62393333Y-70258333D01*
X62426666Y-70125000D01*
X62426666Y-69958333D01*
X62393333Y-69825000D01*
X62360000Y-69758333D01*
X62326666Y-69725000D01*
X62260000Y-69691666D01*
X59505000Y-74125900D02*
X59538333Y-74159233D01*
X59638333Y-74192566D01*
X59705000Y-74192566D01*
X59805000Y-74159233D01*
X59871666Y-74092566D01*
X59905000Y-74025900D01*
X59938333Y-73892566D01*
X59938333Y-73792566D01*
X59905000Y-73659233D01*
X59871666Y-73592566D01*
X59805000Y-73525900D01*
X59705000Y-73492566D01*
X59638333Y-73492566D01*
X59538333Y-73525900D01*
X59505000Y-73559233D01*
X59271666Y-73492566D02*
X58838333Y-73492566D01*
X59071666Y-73759233D01*
X58971666Y-73759233D01*
X58905000Y-73792566D01*
X58871666Y-73825900D01*
X58838333Y-73892566D01*
X58838333Y-74059233D01*
X58871666Y-74125900D01*
X58905000Y-74159233D01*
X58971666Y-74192566D01*
X59171666Y-74192566D01*
X59238333Y-74159233D01*
X59271666Y-74125900D01*
X58505000Y-74192566D02*
X58371666Y-74192566D01*
X58305000Y-74159233D01*
X58271666Y-74125900D01*
X58205000Y-74025900D01*
X58171666Y-73892566D01*
X58171666Y-73625900D01*
X58205000Y-73559233D01*
X58238333Y-73525900D01*
X58305000Y-73492566D01*
X58438333Y-73492566D01*
X58505000Y-73525900D01*
X58538333Y-73559233D01*
X58571666Y-73625900D01*
X58571666Y-73792566D01*
X58538333Y-73859233D01*
X58505000Y-73892566D01*
X58438333Y-73925900D01*
X58305000Y-73925900D01*
X58238333Y-73892566D01*
X58205000Y-73859233D01*
X58171666Y-73792566D01*
X69558116Y-84090388D02*
X69605257Y-84090388D01*
X69699538Y-84043248D01*
X69746678Y-83996107D01*
X69793819Y-83901826D01*
X69793819Y-83807545D01*
X69770248Y-83736835D01*
X69699538Y-83618984D01*
X69628827Y-83548273D01*
X69510976Y-83477562D01*
X69440265Y-83453992D01*
X69345984Y-83453992D01*
X69251703Y-83501132D01*
X69204563Y-83548273D01*
X69157422Y-83642554D01*
X69157422Y-83689694D01*
X68945290Y-83807545D02*
X68638877Y-84113958D01*
X68992431Y-84137529D01*
X68921720Y-84208239D01*
X68898150Y-84278950D01*
X68898150Y-84326090D01*
X68921720Y-84396801D01*
X69039571Y-84514652D01*
X69110282Y-84538222D01*
X69157422Y-84538222D01*
X69228133Y-84514652D01*
X69369554Y-84373231D01*
X69393125Y-84302520D01*
X69393125Y-84255380D01*
X68568167Y-84608933D02*
X68591737Y-84538222D01*
X68591737Y-84491082D01*
X68568167Y-84420371D01*
X68544597Y-84396801D01*
X68473886Y-84373231D01*
X68426745Y-84373231D01*
X68356035Y-84396801D01*
X68261754Y-84491082D01*
X68238184Y-84561793D01*
X68238184Y-84608933D01*
X68261754Y-84679644D01*
X68285324Y-84703214D01*
X68356035Y-84726784D01*
X68403175Y-84726784D01*
X68473886Y-84703214D01*
X68568167Y-84608933D01*
X68638877Y-84585363D01*
X68686018Y-84585363D01*
X68756729Y-84608933D01*
X68851009Y-84703214D01*
X68874580Y-84773925D01*
X68874580Y-84821065D01*
X68851009Y-84891776D01*
X68756729Y-84986057D01*
X68686018Y-85009627D01*
X68638877Y-85009627D01*
X68568167Y-84986057D01*
X68473886Y-84891776D01*
X68450316Y-84821065D01*
X68450316Y-84773925D01*
X68473886Y-84703214D01*
X72173774Y-70572178D02*
X72220915Y-70572178D01*
X72315196Y-70525038D01*
X72362336Y-70477897D01*
X72409477Y-70383616D01*
X72409477Y-70289335D01*
X72385906Y-70218625D01*
X72315196Y-70100774D01*
X72244485Y-70030063D01*
X72126634Y-69959352D01*
X72055923Y-69935782D01*
X71961642Y-69935782D01*
X71867361Y-69982922D01*
X71820221Y-70030063D01*
X71773080Y-70124344D01*
X71773080Y-70171484D01*
X71560948Y-70289335D02*
X71254535Y-70595748D01*
X71608089Y-70619319D01*
X71537378Y-70690029D01*
X71513808Y-70760740D01*
X71513808Y-70807880D01*
X71537378Y-70878591D01*
X71655229Y-70996442D01*
X71725940Y-71020012D01*
X71773080Y-71020012D01*
X71843791Y-70996442D01*
X71985212Y-70855021D01*
X72008783Y-70784310D01*
X72008783Y-70737170D01*
X71089544Y-70760740D02*
X70759561Y-71090723D01*
X71466667Y-71373566D01*
X63375000Y-71425000D02*
X63408333Y-71458333D01*
X63508333Y-71491666D01*
X63575000Y-71491666D01*
X63675000Y-71458333D01*
X63741666Y-71391666D01*
X63775000Y-71325000D01*
X63808333Y-71191666D01*
X63808333Y-71091666D01*
X63775000Y-70958333D01*
X63741666Y-70891666D01*
X63675000Y-70825000D01*
X63575000Y-70791666D01*
X63508333Y-70791666D01*
X63408333Y-70825000D01*
X63375000Y-70858333D01*
X63141666Y-70791666D02*
X62708333Y-70791666D01*
X62941666Y-71058333D01*
X62841666Y-71058333D01*
X62775000Y-71091666D01*
X62741666Y-71125000D01*
X62708333Y-71191666D01*
X62708333Y-71358333D01*
X62741666Y-71425000D01*
X62775000Y-71458333D01*
X62841666Y-71491666D01*
X63041666Y-71491666D01*
X63108333Y-71458333D01*
X63141666Y-71425000D01*
X62108333Y-70791666D02*
X62241666Y-70791666D01*
X62308333Y-70825000D01*
X62341666Y-70858333D01*
X62408333Y-70958333D01*
X62441666Y-71091666D01*
X62441666Y-71358333D01*
X62408333Y-71425000D01*
X62375000Y-71458333D01*
X62308333Y-71491666D01*
X62175000Y-71491666D01*
X62108333Y-71458333D01*
X62075000Y-71425000D01*
X62041666Y-71358333D01*
X62041666Y-71191666D01*
X62075000Y-71125000D01*
X62108333Y-71091666D01*
X62175000Y-71058333D01*
X62308333Y-71058333D01*
X62375000Y-71091666D01*
X62408333Y-71125000D01*
X62441666Y-71191666D01*
X61583440Y-78132800D02*
X61616773Y-78099466D01*
X61650106Y-77999466D01*
X61650106Y-77932800D01*
X61616773Y-77832800D01*
X61550106Y-77766133D01*
X61483440Y-77732800D01*
X61350106Y-77699466D01*
X61250106Y-77699466D01*
X61116773Y-77732800D01*
X61050106Y-77766133D01*
X60983440Y-77832800D01*
X60950106Y-77932800D01*
X60950106Y-77999466D01*
X60983440Y-78099466D01*
X61016773Y-78132800D01*
X60950106Y-78366133D02*
X60950106Y-78799466D01*
X61216773Y-78566133D01*
X61216773Y-78666133D01*
X61250106Y-78732800D01*
X61283440Y-78766133D01*
X61350106Y-78799466D01*
X61516773Y-78799466D01*
X61583440Y-78766133D01*
X61616773Y-78732800D01*
X61650106Y-78666133D01*
X61650106Y-78466133D01*
X61616773Y-78399466D01*
X61583440Y-78366133D01*
X60950106Y-79432800D02*
X60950106Y-79099466D01*
X61283440Y-79066133D01*
X61250106Y-79099466D01*
X61216773Y-79166133D01*
X61216773Y-79332800D01*
X61250106Y-79399466D01*
X61283440Y-79432800D01*
X61350106Y-79466133D01*
X61516773Y-79466133D01*
X61583440Y-79432800D01*
X61616773Y-79399466D01*
X61650106Y-79332800D01*
X61650106Y-79166133D01*
X61616773Y-79099466D01*
X61583440Y-79066133D01*
X59505000Y-73046400D02*
X59538333Y-73079733D01*
X59638333Y-73113066D01*
X59705000Y-73113066D01*
X59805000Y-73079733D01*
X59871666Y-73013066D01*
X59905000Y-72946400D01*
X59938333Y-72813066D01*
X59938333Y-72713066D01*
X59905000Y-72579733D01*
X59871666Y-72513066D01*
X59805000Y-72446400D01*
X59705000Y-72413066D01*
X59638333Y-72413066D01*
X59538333Y-72446400D01*
X59505000Y-72479733D01*
X59271666Y-72413066D02*
X58838333Y-72413066D01*
X59071666Y-72679733D01*
X58971666Y-72679733D01*
X58905000Y-72713066D01*
X58871666Y-72746400D01*
X58838333Y-72813066D01*
X58838333Y-72979733D01*
X58871666Y-73046400D01*
X58905000Y-73079733D01*
X58971666Y-73113066D01*
X59171666Y-73113066D01*
X59238333Y-73079733D01*
X59271666Y-73046400D01*
X58238333Y-72646400D02*
X58238333Y-73113066D01*
X58405000Y-72379733D02*
X58571666Y-72879733D01*
X58138333Y-72879733D01*
X76464501Y-76970454D02*
X76464501Y-77017595D01*
X76511641Y-77111876D01*
X76558782Y-77159016D01*
X76653063Y-77206157D01*
X76747344Y-77206157D01*
X76818054Y-77182586D01*
X76935905Y-77111876D01*
X77006616Y-77041165D01*
X77077327Y-76923314D01*
X77100897Y-76852603D01*
X77100897Y-76758322D01*
X77053757Y-76664041D01*
X77006616Y-76616901D01*
X76912335Y-76569760D01*
X76865195Y-76569760D01*
X76747344Y-76357628D02*
X76440931Y-76051215D01*
X76417360Y-76404769D01*
X76346650Y-76334058D01*
X76275939Y-76310488D01*
X76228799Y-76310488D01*
X76158088Y-76334058D01*
X76040237Y-76451909D01*
X76016667Y-76522620D01*
X76016667Y-76569760D01*
X76040237Y-76640471D01*
X76181658Y-76781892D01*
X76252369Y-76805463D01*
X76299509Y-76805463D01*
X76275939Y-75886224D02*
X75969526Y-75579811D01*
X75945956Y-75933364D01*
X75875245Y-75862654D01*
X75804535Y-75839083D01*
X75757394Y-75839083D01*
X75686683Y-75862654D01*
X75568832Y-75980505D01*
X75545262Y-76051215D01*
X75545262Y-76098356D01*
X75568832Y-76169067D01*
X75710254Y-76310488D01*
X75780964Y-76334058D01*
X75828105Y-76334058D01*
X62632400Y-78137600D02*
X62665733Y-78104266D01*
X62699066Y-78004266D01*
X62699066Y-77937600D01*
X62665733Y-77837600D01*
X62599066Y-77770933D01*
X62532400Y-77737600D01*
X62399066Y-77704266D01*
X62299066Y-77704266D01*
X62165733Y-77737600D01*
X62099066Y-77770933D01*
X62032400Y-77837600D01*
X61999066Y-77937600D01*
X61999066Y-78004266D01*
X62032400Y-78104266D01*
X62065733Y-78137600D01*
X61999066Y-78370933D02*
X61999066Y-78804266D01*
X62265733Y-78570933D01*
X62265733Y-78670933D01*
X62299066Y-78737600D01*
X62332400Y-78770933D01*
X62399066Y-78804266D01*
X62565733Y-78804266D01*
X62632400Y-78770933D01*
X62665733Y-78737600D01*
X62699066Y-78670933D01*
X62699066Y-78470933D01*
X62665733Y-78404266D01*
X62632400Y-78370933D01*
X62065733Y-79070933D02*
X62032400Y-79104266D01*
X61999066Y-79170933D01*
X61999066Y-79337600D01*
X62032400Y-79404266D01*
X62065733Y-79437600D01*
X62132400Y-79470933D01*
X62199066Y-79470933D01*
X62299066Y-79437600D01*
X62699066Y-79037600D01*
X62699066Y-79470933D01*
X71462574Y-69759378D02*
X71509715Y-69759378D01*
X71603996Y-69712238D01*
X71651136Y-69665097D01*
X71698277Y-69570816D01*
X71698277Y-69476535D01*
X71674706Y-69405825D01*
X71603996Y-69287974D01*
X71533285Y-69217263D01*
X71415434Y-69146552D01*
X71344723Y-69122982D01*
X71250442Y-69122982D01*
X71156161Y-69170122D01*
X71109021Y-69217263D01*
X71061880Y-69311544D01*
X71061880Y-69358684D01*
X70849748Y-69476535D02*
X70543335Y-69782948D01*
X70896889Y-69806519D01*
X70826178Y-69877229D01*
X70802608Y-69947940D01*
X70802608Y-69995080D01*
X70826178Y-70065791D01*
X70944029Y-70183642D01*
X71014740Y-70207212D01*
X71061880Y-70207212D01*
X71132591Y-70183642D01*
X71274012Y-70042221D01*
X71297583Y-69971510D01*
X71297583Y-69924370D01*
X70236922Y-70089361D02*
X70189782Y-70136502D01*
X70166212Y-70207212D01*
X70166212Y-70254353D01*
X70189782Y-70325064D01*
X70260493Y-70442915D01*
X70378344Y-70560766D01*
X70496195Y-70631477D01*
X70566906Y-70655047D01*
X70614046Y-70655047D01*
X70684757Y-70631477D01*
X70731897Y-70584336D01*
X70755467Y-70513625D01*
X70755467Y-70466485D01*
X70731897Y-70395774D01*
X70661187Y-70277923D01*
X70543335Y-70160072D01*
X70425484Y-70089361D01*
X70354774Y-70065791D01*
X70307633Y-70065791D01*
X70236922Y-70089361D01*
X66670200Y-68068000D02*
X66703533Y-68101333D01*
X66803533Y-68134666D01*
X66870200Y-68134666D01*
X66970200Y-68101333D01*
X67036866Y-68034666D01*
X67070200Y-67968000D01*
X67103533Y-67834666D01*
X67103533Y-67734666D01*
X67070200Y-67601333D01*
X67036866Y-67534666D01*
X66970200Y-67468000D01*
X66870200Y-67434666D01*
X66803533Y-67434666D01*
X66703533Y-67468000D01*
X66670200Y-67501333D01*
X66403533Y-67501333D02*
X66370200Y-67468000D01*
X66303533Y-67434666D01*
X66136866Y-67434666D01*
X66070200Y-67468000D01*
X66036866Y-67501333D01*
X66003533Y-67568000D01*
X66003533Y-67634666D01*
X66036866Y-67734666D01*
X66436866Y-68134666D01*
X66003533Y-68134666D01*
X65670200Y-68134666D02*
X65536866Y-68134666D01*
X65470200Y-68101333D01*
X65436866Y-68068000D01*
X65370200Y-67968000D01*
X65336866Y-67834666D01*
X65336866Y-67568000D01*
X65370200Y-67501333D01*
X65403533Y-67468000D01*
X65470200Y-67434666D01*
X65603533Y-67434666D01*
X65670200Y-67468000D01*
X65703533Y-67501333D01*
X65736866Y-67568000D01*
X65736866Y-67734666D01*
X65703533Y-67801333D01*
X65670200Y-67834666D01*
X65603533Y-67868000D01*
X65470200Y-67868000D01*
X65403533Y-67834666D01*
X65370200Y-67801333D01*
X65336866Y-67734666D01*
X75715154Y-77745107D02*
X75715154Y-77792248D01*
X75762294Y-77886529D01*
X75809435Y-77933669D01*
X75903716Y-77980810D01*
X75997997Y-77980810D01*
X76068707Y-77957239D01*
X76186558Y-77886529D01*
X76257269Y-77815818D01*
X76327980Y-77697967D01*
X76351550Y-77627256D01*
X76351550Y-77532975D01*
X76304410Y-77438694D01*
X76257269Y-77391554D01*
X76162988Y-77344413D01*
X76115848Y-77344413D01*
X75927286Y-77155852D02*
X75927286Y-77108711D01*
X75903716Y-77038000D01*
X75785865Y-76920149D01*
X75715154Y-76896579D01*
X75668013Y-76896579D01*
X75597303Y-76920149D01*
X75550162Y-76967290D01*
X75503022Y-77061571D01*
X75503022Y-77627256D01*
X75196609Y-77320843D01*
X75196609Y-76755158D02*
X75267320Y-76778728D01*
X75314460Y-76778728D01*
X75385171Y-76755158D01*
X75408741Y-76731588D01*
X75432311Y-76660877D01*
X75432311Y-76613736D01*
X75408741Y-76543026D01*
X75314460Y-76448745D01*
X75243749Y-76425175D01*
X75196609Y-76425175D01*
X75125898Y-76448745D01*
X75102328Y-76472315D01*
X75078758Y-76543026D01*
X75078758Y-76590166D01*
X75102328Y-76660877D01*
X75196609Y-76755158D01*
X75220179Y-76825868D01*
X75220179Y-76873009D01*
X75196609Y-76943720D01*
X75102328Y-77038000D01*
X75031617Y-77061571D01*
X74984477Y-77061571D01*
X74913766Y-77038000D01*
X74819485Y-76943720D01*
X74795915Y-76873009D01*
X74795915Y-76825868D01*
X74819485Y-76755158D01*
X74913766Y-76660877D01*
X74984477Y-76637307D01*
X75031617Y-76637307D01*
X75102328Y-76660877D01*
X68776000Y-70481000D02*
X68809333Y-70514333D01*
X68909333Y-70547666D01*
X68976000Y-70547666D01*
X69076000Y-70514333D01*
X69142666Y-70447666D01*
X69176000Y-70381000D01*
X69209333Y-70247666D01*
X69209333Y-70147666D01*
X69176000Y-70014333D01*
X69142666Y-69947666D01*
X69076000Y-69881000D01*
X68976000Y-69847666D01*
X68909333Y-69847666D01*
X68809333Y-69881000D01*
X68776000Y-69914333D01*
X68509333Y-69914333D02*
X68476000Y-69881000D01*
X68409333Y-69847666D01*
X68242666Y-69847666D01*
X68176000Y-69881000D01*
X68142666Y-69914333D01*
X68109333Y-69981000D01*
X68109333Y-70047666D01*
X68142666Y-70147666D01*
X68542666Y-70547666D01*
X68109333Y-70547666D01*
X67876000Y-69847666D02*
X67409333Y-69847666D01*
X67709333Y-70547666D01*
X114676200Y-86305200D02*
X114709533Y-86338533D01*
X114809533Y-86371866D01*
X114876200Y-86371866D01*
X114976200Y-86338533D01*
X115042866Y-86271866D01*
X115076200Y-86205200D01*
X115109533Y-86071866D01*
X115109533Y-85971866D01*
X115076200Y-85838533D01*
X115042866Y-85771866D01*
X114976200Y-85705200D01*
X114876200Y-85671866D01*
X114809533Y-85671866D01*
X114709533Y-85705200D01*
X114676200Y-85738533D01*
X114409533Y-85738533D02*
X114376200Y-85705200D01*
X114309533Y-85671866D01*
X114142866Y-85671866D01*
X114076200Y-85705200D01*
X114042866Y-85738533D01*
X114009533Y-85805200D01*
X114009533Y-85871866D01*
X114042866Y-85971866D01*
X114442866Y-86371866D01*
X114009533Y-86371866D01*
X113776200Y-85671866D02*
X113342866Y-85671866D01*
X113576200Y-85938533D01*
X113476200Y-85938533D01*
X113409533Y-85971866D01*
X113376200Y-86005200D01*
X113342866Y-86071866D01*
X113342866Y-86238533D01*
X113376200Y-86305200D01*
X113409533Y-86338533D01*
X113476200Y-86371866D01*
X113676200Y-86371866D01*
X113742866Y-86338533D01*
X113776200Y-86305200D01*
X74516400Y-72487600D02*
X74549733Y-72520933D01*
X74649733Y-72554266D01*
X74716400Y-72554266D01*
X74816400Y-72520933D01*
X74883066Y-72454266D01*
X74916400Y-72387600D01*
X74949733Y-72254266D01*
X74949733Y-72154266D01*
X74916400Y-72020933D01*
X74883066Y-71954266D01*
X74816400Y-71887600D01*
X74716400Y-71854266D01*
X74649733Y-71854266D01*
X74549733Y-71887600D01*
X74516400Y-71920933D01*
X74249733Y-71920933D02*
X74216400Y-71887600D01*
X74149733Y-71854266D01*
X73983066Y-71854266D01*
X73916400Y-71887600D01*
X73883066Y-71920933D01*
X73849733Y-71987600D01*
X73849733Y-72054266D01*
X73883066Y-72154266D01*
X74283066Y-72554266D01*
X73849733Y-72554266D01*
X73583066Y-71920933D02*
X73549733Y-71887600D01*
X73483066Y-71854266D01*
X73316400Y-71854266D01*
X73249733Y-71887600D01*
X73216400Y-71920933D01*
X73183066Y-71987600D01*
X73183066Y-72054266D01*
X73216400Y-72154266D01*
X73616400Y-72554266D01*
X73183066Y-72554266D01*
X117955200Y-81642800D02*
X117988533Y-81609466D01*
X118021866Y-81509466D01*
X118021866Y-81442800D01*
X117988533Y-81342800D01*
X117921866Y-81276133D01*
X117855200Y-81242800D01*
X117721866Y-81209466D01*
X117621866Y-81209466D01*
X117488533Y-81242800D01*
X117421866Y-81276133D01*
X117355200Y-81342800D01*
X117321866Y-81442800D01*
X117321866Y-81509466D01*
X117355200Y-81609466D01*
X117388533Y-81642800D01*
X117388533Y-81909466D02*
X117355200Y-81942800D01*
X117321866Y-82009466D01*
X117321866Y-82176133D01*
X117355200Y-82242800D01*
X117388533Y-82276133D01*
X117455200Y-82309466D01*
X117521866Y-82309466D01*
X117621866Y-82276133D01*
X118021866Y-81876133D01*
X118021866Y-82309466D01*
X118021866Y-82976133D02*
X118021866Y-82576133D01*
X118021866Y-82776133D02*
X117321866Y-82776133D01*
X117421866Y-82709466D01*
X117488533Y-82642800D01*
X117521866Y-82576133D01*
X112621200Y-74073600D02*
X112654533Y-74040266D01*
X112687866Y-73940266D01*
X112687866Y-73873600D01*
X112654533Y-73773600D01*
X112587866Y-73706933D01*
X112521200Y-73673600D01*
X112387866Y-73640266D01*
X112287866Y-73640266D01*
X112154533Y-73673600D01*
X112087866Y-73706933D01*
X112021200Y-73773600D01*
X111987866Y-73873600D01*
X111987866Y-73940266D01*
X112021200Y-74040266D01*
X112054533Y-74073600D01*
X112054533Y-74340266D02*
X112021200Y-74373600D01*
X111987866Y-74440266D01*
X111987866Y-74606933D01*
X112021200Y-74673600D01*
X112054533Y-74706933D01*
X112121200Y-74740266D01*
X112187866Y-74740266D01*
X112287866Y-74706933D01*
X112687866Y-74306933D01*
X112687866Y-74740266D01*
X111987866Y-75173600D02*
X111987866Y-75240266D01*
X112021200Y-75306933D01*
X112054533Y-75340266D01*
X112121200Y-75373600D01*
X112254533Y-75406933D01*
X112421200Y-75406933D01*
X112554533Y-75373600D01*
X112621200Y-75340266D01*
X112654533Y-75306933D01*
X112687866Y-75240266D01*
X112687866Y-75173600D01*
X112654533Y-75106933D01*
X112621200Y-75073600D01*
X112554533Y-75040266D01*
X112421200Y-75006933D01*
X112254533Y-75006933D01*
X112121200Y-75040266D01*
X112054533Y-75073600D01*
X112021200Y-75106933D01*
X111987866Y-75173600D01*
X110384400Y-71963000D02*
X110417733Y-71929666D01*
X110451066Y-71829666D01*
X110451066Y-71763000D01*
X110417733Y-71663000D01*
X110351066Y-71596333D01*
X110284400Y-71563000D01*
X110151066Y-71529666D01*
X110051066Y-71529666D01*
X109917733Y-71563000D01*
X109851066Y-71596333D01*
X109784400Y-71663000D01*
X109751066Y-71763000D01*
X109751066Y-71829666D01*
X109784400Y-71929666D01*
X109817733Y-71963000D01*
X110451066Y-72629666D02*
X110451066Y-72229666D01*
X110451066Y-72429666D02*
X109751066Y-72429666D01*
X109851066Y-72363000D01*
X109917733Y-72296333D01*
X109951066Y-72229666D01*
X110051066Y-73029666D02*
X110017733Y-72963000D01*
X109984400Y-72929666D01*
X109917733Y-72896333D01*
X109884400Y-72896333D01*
X109817733Y-72929666D01*
X109784400Y-72963000D01*
X109751066Y-73029666D01*
X109751066Y-73163000D01*
X109784400Y-73229666D01*
X109817733Y-73263000D01*
X109884400Y-73296333D01*
X109917733Y-73296333D01*
X109984400Y-73263000D01*
X110017733Y-73229666D01*
X110051066Y-73163000D01*
X110051066Y-73029666D01*
X110084400Y-72963000D01*
X110117733Y-72929666D01*
X110184400Y-72896333D01*
X110317733Y-72896333D01*
X110384400Y-72929666D01*
X110417733Y-72963000D01*
X110451066Y-73029666D01*
X110451066Y-73163000D01*
X110417733Y-73229666D01*
X110384400Y-73263000D01*
X110317733Y-73296333D01*
X110184400Y-73296333D01*
X110117733Y-73263000D01*
X110084400Y-73229666D01*
X110051066Y-73163000D01*
X113851500Y-67637833D02*
X113884833Y-67604500D01*
X113918166Y-67504500D01*
X113918166Y-67437833D01*
X113884833Y-67337833D01*
X113818166Y-67271166D01*
X113751500Y-67237833D01*
X113618166Y-67204500D01*
X113518166Y-67204500D01*
X113384833Y-67237833D01*
X113318166Y-67271166D01*
X113251500Y-67337833D01*
X113218166Y-67437833D01*
X113218166Y-67504500D01*
X113251500Y-67604500D01*
X113284833Y-67637833D01*
X113451500Y-68237833D02*
X113918166Y-68237833D01*
X113184833Y-68071166D02*
X113684833Y-67904500D01*
X113684833Y-68337833D01*
X119249000Y-65415333D02*
X119282333Y-65382000D01*
X119315666Y-65282000D01*
X119315666Y-65215333D01*
X119282333Y-65115333D01*
X119215666Y-65048666D01*
X119149000Y-65015333D01*
X119015666Y-64982000D01*
X118915666Y-64982000D01*
X118782333Y-65015333D01*
X118715666Y-65048666D01*
X118649000Y-65115333D01*
X118615666Y-65215333D01*
X118615666Y-65282000D01*
X118649000Y-65382000D01*
X118682333Y-65415333D01*
X118615666Y-65648666D02*
X118615666Y-66082000D01*
X118882333Y-65848666D01*
X118882333Y-65948666D01*
X118915666Y-66015333D01*
X118949000Y-66048666D01*
X119015666Y-66082000D01*
X119182333Y-66082000D01*
X119249000Y-66048666D01*
X119282333Y-66015333D01*
X119315666Y-65948666D01*
X119315666Y-65748666D01*
X119282333Y-65682000D01*
X119249000Y-65648666D01*
X118106000Y-65415333D02*
X118139333Y-65382000D01*
X118172666Y-65282000D01*
X118172666Y-65215333D01*
X118139333Y-65115333D01*
X118072666Y-65048666D01*
X118006000Y-65015333D01*
X117872666Y-64982000D01*
X117772666Y-64982000D01*
X117639333Y-65015333D01*
X117572666Y-65048666D01*
X117506000Y-65115333D01*
X117472666Y-65215333D01*
X117472666Y-65282000D01*
X117506000Y-65382000D01*
X117539333Y-65415333D01*
X117539333Y-65682000D02*
X117506000Y-65715333D01*
X117472666Y-65782000D01*
X117472666Y-65948666D01*
X117506000Y-66015333D01*
X117539333Y-66048666D01*
X117606000Y-66082000D01*
X117672666Y-66082000D01*
X117772666Y-66048666D01*
X118172666Y-65648666D01*
X118172666Y-66082000D01*
M02*
