%TF.GenerationSoftware,KiCad,Pcbnew,(5.1.5)-3*%
%TF.CreationDate,2020-01-05T10:53:19-07:00*%
%TF.ProjectId,spi_control,7370695f-636f-46e7-9472-6f6c2e6b6963,A*%
%TF.SameCoordinates,Original*%
%TF.FileFunction,Plated,1,4,PTH,Drill*%
%TF.FilePolarity,Positive*%
%FSLAX46Y46*%
G04 Gerber Fmt 4.6, Leading zero omitted, Abs format (unit mm)*
G04 Created by KiCad (PCBNEW (5.1.5)-3) date 2020-01-05 10:53:19*
%MOMM*%
%LPD*%
G04 APERTURE LIST*
%TA.AperFunction,ViaDrill*%
%ADD10C,0.300000*%
%TD*%
%TA.AperFunction,ComponentDrill*%
%ADD11C,0.400000*%
%TD*%
%TA.AperFunction,ComponentDrill*%
%ADD12C,2.200000*%
%TD*%
G04 APERTURE END LIST*
D10*
X114300000Y-125984000D03*
X114554000Y-86614000D03*
X114554000Y-88392000D03*
X114554000Y-93472000D03*
X114554000Y-94742000D03*
X114554000Y-96266000D03*
X114554000Y-98552000D03*
X114554000Y-100076000D03*
X114554000Y-101600000D03*
X114808000Y-105918000D03*
X114808000Y-106680000D03*
X114808000Y-107442000D03*
X114808000Y-108204000D03*
X114808000Y-108966000D03*
X114808000Y-109728000D03*
X114808000Y-110490000D03*
X114808000Y-127000000D03*
X114858800Y-111506000D03*
X114858800Y-112506000D03*
X114858800Y-116506000D03*
X114858800Y-117506000D03*
X114858800Y-118506000D03*
X114858800Y-119506000D03*
X114858800Y-120506000D03*
X115519200Y-103251000D03*
X115570000Y-106934000D03*
X115570000Y-107950000D03*
X115824000Y-86360000D03*
X115824000Y-108966000D03*
X115824000Y-109728000D03*
X115824000Y-110490000D03*
X115858800Y-111506000D03*
X115858800Y-112506000D03*
X115858800Y-116506000D03*
X115858800Y-117506000D03*
X115858800Y-118506000D03*
X115858800Y-120506000D03*
X116078000Y-127254000D03*
X116141500Y-106387900D03*
X116230400Y-107492800D03*
X116332000Y-93218000D03*
X116332000Y-94742000D03*
X116332000Y-95504000D03*
X116840000Y-110490000D03*
X116858800Y-111506000D03*
X116858800Y-112506000D03*
X116858800Y-116506000D03*
X116858800Y-117506000D03*
X116858800Y-118506000D03*
X116858800Y-120506000D03*
X117602000Y-93218000D03*
X117602000Y-94742000D03*
X117602000Y-95504000D03*
X117856000Y-86360000D03*
X117856000Y-110490000D03*
X117856000Y-127254000D03*
X117858800Y-111506000D03*
X117858800Y-112506000D03*
X117858800Y-116506000D03*
X117858800Y-117506000D03*
X117858800Y-118506000D03*
X117858800Y-119506000D03*
X117858800Y-120506000D03*
X118237000Y-97218500D03*
X118516400Y-103225600D03*
X118516400Y-104343200D03*
X118567200Y-100482400D03*
X118618020Y-105410000D03*
X118872000Y-116332000D03*
X118872000Y-126746000D03*
X119126000Y-108204000D03*
X119126000Y-118110000D03*
X119126000Y-118872000D03*
X119329200Y-106730800D03*
X119380000Y-104902000D03*
X119856430Y-108692303D03*
X119888000Y-117094000D03*
X120025450Y-109472344D03*
X120142000Y-116078000D03*
X120142000Y-118364000D03*
X120292821Y-102678444D03*
X120625402Y-109480872D03*
X120650000Y-98729800D03*
X121412000Y-123698000D03*
X122021600Y-98907600D03*
X122429637Y-102064555D03*
X122504200Y-106185000D03*
X122504200Y-107385000D03*
X122936000Y-87884000D03*
X123037600Y-101244400D03*
X123614000Y-97180400D03*
X123704200Y-104985000D03*
X123704200Y-106185000D03*
X123704200Y-107385000D03*
X123704200Y-108585000D03*
X124167900Y-112704880D03*
X124206008Y-111506000D03*
X124269500Y-123444000D03*
X124307600Y-101650800D03*
X124307620Y-103225600D03*
X124841000Y-113919000D03*
X124904200Y-104985000D03*
X124904200Y-106185000D03*
X124904200Y-107385000D03*
X124904200Y-108585000D03*
X125222000Y-111760000D03*
X125521720Y-115219480D03*
X125630002Y-104230002D03*
X125730000Y-125984000D03*
X126104200Y-106185000D03*
X126104200Y-107385000D03*
X126873000Y-123444000D03*
X127630000Y-103780800D03*
X127831823Y-102110633D03*
X127863604Y-97332800D03*
X128016000Y-125984000D03*
X128020189Y-111501811D03*
X128079520Y-98615500D03*
X128397000Y-113093500D03*
X128422408Y-102158800D03*
X128524000Y-114744500D03*
X128524000Y-115570000D03*
X129032000Y-113728500D03*
X129133600Y-106578400D03*
X129286000Y-107797600D03*
X129413000Y-123444000D03*
X129438400Y-101346000D03*
X129540000Y-115570000D03*
X129540000Y-116586000D03*
X130302000Y-113792000D03*
X130302000Y-114744500D03*
X130380000Y-101480000D03*
X130556000Y-115824000D03*
X130556000Y-125984000D03*
X130692094Y-112204932D03*
X130873507Y-111632993D03*
X131064000Y-117348000D03*
X131826000Y-117856000D03*
X132842000Y-118110000D03*
X133096000Y-121920000D03*
X133096000Y-125984000D03*
X133159500Y-123444000D03*
X133858000Y-118110000D03*
X135064500Y-117856000D03*
X135636000Y-121158000D03*
X135890000Y-113030000D03*
X136144000Y-117094000D03*
X136398000Y-113792000D03*
X136398000Y-115570000D03*
X137033008Y-123507500D03*
X138176000Y-106807000D03*
X138176000Y-109220000D03*
X138430000Y-95707212D03*
X138430000Y-97790000D03*
X138430000Y-99695000D03*
X138430000Y-101600000D03*
X138430000Y-104584500D03*
X138430000Y-113284000D03*
X138430000Y-114808000D03*
X138430000Y-116332000D03*
X138430000Y-117635020D03*
X139446000Y-111506000D03*
X139488333Y-106807000D03*
X139488333Y-109220000D03*
X139509504Y-123825000D03*
X139700000Y-95656332D03*
X139700000Y-114808000D03*
X139700000Y-116332000D03*
X139700000Y-117627400D03*
X140335000Y-97790000D03*
X140335000Y-99695000D03*
X140335000Y-101600000D03*
X140335000Y-104584500D03*
X140716000Y-111506000D03*
X140800666Y-106807000D03*
X140800666Y-109220000D03*
X140923510Y-122047826D03*
X140970000Y-95638618D03*
X140970000Y-116332000D03*
X141160500Y-118173500D03*
X141732000Y-111506000D03*
X141732000Y-113030000D03*
X141986000Y-113792000D03*
X142112999Y-106807000D03*
X142112999Y-109220000D03*
X142240000Y-95664020D03*
X142240000Y-97790000D03*
X142240000Y-99695000D03*
X142240000Y-101600000D03*
X142240000Y-104584500D03*
X142240000Y-117602000D03*
X142748000Y-114554000D03*
X143236000Y-121158000D03*
X143256000Y-111506000D03*
X143256000Y-113030000D03*
X143256000Y-113792000D03*
X143256000Y-115316000D03*
X143383000Y-126047500D03*
X143425332Y-106807000D03*
X143425332Y-109220000D03*
X143637000Y-90297000D03*
X143764000Y-114554000D03*
X144145000Y-97790000D03*
X144145000Y-99695000D03*
X144145000Y-101600000D03*
X144145000Y-104584500D03*
X144272000Y-111506000D03*
X144272000Y-113030000D03*
X144272000Y-113792000D03*
X144737665Y-106807000D03*
X144737665Y-109220000D03*
X145034000Y-113792000D03*
X145288000Y-113030000D03*
X145732500Y-116776500D03*
X145796000Y-124396500D03*
X145986500Y-104584500D03*
X146050000Y-92598244D03*
X146050000Y-97790000D03*
X146050000Y-99695000D03*
X146050000Y-101600000D03*
X146050000Y-106807000D03*
X146050000Y-109220000D03*
X146050000Y-111506000D03*
X146621500Y-115760500D03*
X146939000Y-117785611D03*
X147510500Y-114871500D03*
X147510500Y-116332000D03*
X147955000Y-99695000D03*
X147955000Y-101600000D03*
X147955000Y-104584500D03*
X148064990Y-91884500D03*
X148209000Y-87757000D03*
X148463000Y-121793000D03*
X148630000Y-117480000D03*
X149288500Y-113474508D03*
X149860000Y-117655338D03*
X149923500Y-104584500D03*
X149923500Y-114363500D03*
X149923500Y-115443000D03*
X149923500Y-116522500D03*
X150309580Y-95674178D03*
X150431500Y-112077500D03*
X150495000Y-112966500D03*
X150749000Y-87757000D03*
X150876000Y-121793000D03*
X151240000Y-114300000D03*
X151240000Y-116205000D03*
X152146000Y-101981000D03*
X152290000Y-114300000D03*
X152290000Y-116205000D03*
X153225500Y-114300000D03*
X153289000Y-87630000D03*
X153289000Y-108204000D03*
X153352500Y-105854500D03*
X153416000Y-121793000D03*
X153543000Y-116586000D03*
X153670000Y-95653860D03*
X153670000Y-117657878D03*
X154178000Y-115443000D03*
X154368498Y-96329500D03*
X154813000Y-90741500D03*
X155020000Y-97760000D03*
X155020000Y-100046000D03*
X155067000Y-107251500D03*
X155067000Y-109474000D03*
X155956000Y-121793000D03*
X156070000Y-97760000D03*
X156070000Y-100046000D03*
X156718000Y-97028000D03*
X156718000Y-110299500D03*
X156781500Y-112014000D03*
X156908500Y-116903500D03*
X157226000Y-115633500D03*
X157353000Y-90170000D03*
X157353000Y-98425000D03*
X157353000Y-99441000D03*
X157353000Y-101092000D03*
X157353000Y-102108000D03*
X157480000Y-95653860D03*
X157480000Y-117698520D03*
X157607000Y-112839500D03*
X157866080Y-98905060D03*
X157876240Y-101622860D03*
X158369000Y-98425000D03*
X158369000Y-99441000D03*
X158369000Y-101092000D03*
X158369000Y-102108000D03*
X158369000Y-121793000D03*
X158496000Y-87884000D03*
X159067500Y-107442000D03*
X159766000Y-113665000D03*
X159766000Y-116332000D03*
X159766000Y-117602000D03*
X159766000Y-118364000D03*
X159829496Y-95250000D03*
X159893000Y-90614500D03*
X160337508Y-114300000D03*
X160909000Y-109664500D03*
X160909000Y-114998500D03*
X161036000Y-121793000D03*
X161290000Y-116332000D03*
X161290000Y-117602000D03*
X161290000Y-118364000D03*
X162034220Y-98976180D03*
X162034220Y-101566980D03*
X162369500Y-90932000D03*
X162369500Y-95758000D03*
X162433000Y-98552000D03*
X162433000Y-99441000D03*
X162433000Y-101092000D03*
X162433000Y-101981000D03*
X162814000Y-116332000D03*
X162814000Y-117602000D03*
X162814000Y-118364000D03*
X163017200Y-113182400D03*
X163449000Y-87884000D03*
X163576000Y-121793000D03*
X163830000Y-96774000D03*
X164084000Y-98044000D03*
X164084000Y-116332000D03*
X164084000Y-117602000D03*
X164084000Y-118364000D03*
X164338000Y-95758000D03*
X164338000Y-99314000D03*
X164338000Y-101600000D03*
X164338000Y-102870000D03*
X164592000Y-100584000D03*
X164846000Y-97028000D03*
X164973000Y-90614500D03*
X164973000Y-113728500D03*
X165013640Y-106128820D03*
X165049200Y-104495600D03*
X165100000Y-102616000D03*
X165354000Y-96012000D03*
X165608000Y-98044000D03*
X165862000Y-99314000D03*
X165862000Y-100584000D03*
X165862000Y-117602000D03*
X165862000Y-118364000D03*
X166116000Y-121793000D03*
X166370000Y-96774000D03*
X166403020Y-107208320D03*
X166878000Y-98044000D03*
X166878000Y-117602000D03*
X166878000Y-118364000D03*
X167157400Y-114513360D03*
X167195500Y-99377500D03*
X167195500Y-100393500D03*
X167195500Y-101409500D03*
X167195500Y-102425500D03*
X167195500Y-103441500D03*
X167513000Y-90614500D03*
X167640000Y-95758000D03*
X167640000Y-97790000D03*
X167756840Y-99748340D03*
X167756840Y-101414580D03*
X167767000Y-102430580D03*
X167767000Y-103014780D03*
X167779700Y-100396040D03*
X167894000Y-96774000D03*
X167894000Y-115062000D03*
X167894000Y-116332000D03*
X167894000Y-117602000D03*
X167894000Y-118364000D03*
X167919400Y-110845600D03*
X167921940Y-108323380D03*
X168198800Y-104495600D03*
X168325800Y-109024420D03*
X168338500Y-99377500D03*
X168338500Y-100393500D03*
X168338500Y-101409500D03*
X168338500Y-102425500D03*
X168338500Y-103441500D03*
X168379140Y-109687360D03*
X168783000Y-121793000D03*
X169100500Y-106272490D03*
X169608501Y-101218999D03*
X169926000Y-118110000D03*
X169989500Y-90614500D03*
X171005500Y-99123500D03*
X171069000Y-87884000D03*
X171196000Y-118110000D03*
X171450000Y-116586000D03*
X172021500Y-103759000D03*
X172059600Y-113995200D03*
X172379500Y-98765500D03*
X172466000Y-115570000D03*
X172720000Y-86868000D03*
X172720000Y-89408000D03*
X172720000Y-91694000D03*
X172720000Y-94996000D03*
X172720000Y-116840000D03*
X172720000Y-118364000D03*
X172720000Y-119888000D03*
X172720000Y-121412000D03*
X172720000Y-122682000D03*
X172720000Y-123698000D03*
X172720000Y-124968000D03*
X172720000Y-126238000D03*
X172720000Y-127254000D03*
X172910500Y-97345500D03*
X172974000Y-93472000D03*
X173482000Y-115316000D03*
X173545500Y-101944010D03*
X173736000Y-108013500D03*
X173736000Y-119888000D03*
X173736000Y-121412000D03*
X173990000Y-86360000D03*
X174244000Y-93472000D03*
X174244000Y-114300000D03*
X174498000Y-94742000D03*
X174498000Y-116840000D03*
X174498000Y-118364000D03*
X174498000Y-119888000D03*
X174498000Y-126238000D03*
X174498000Y-127254000D03*
X174752000Y-113030000D03*
X174879000Y-105376497D03*
X175069500Y-99758500D03*
X175260000Y-87122000D03*
X175260000Y-114554000D03*
X175260000Y-115824000D03*
X175514000Y-93472000D03*
X176022000Y-94488000D03*
X176022000Y-127254000D03*
X176225200Y-111252000D03*
X176276000Y-86360000D03*
X176276000Y-113284000D03*
X176276000Y-115316000D03*
X176276000Y-116840000D03*
X176276000Y-118364000D03*
X176276000Y-119888000D03*
X176784000Y-114300000D03*
X176784020Y-96012000D03*
X177292000Y-87630000D03*
X177546000Y-127254000D03*
X177800000Y-116840000D03*
X177800000Y-118364000D03*
X177800000Y-119888000D03*
X178155600Y-99192080D03*
X178308000Y-92202000D03*
X178308000Y-109220000D03*
X178562000Y-87122000D03*
X178562000Y-126492000D03*
X178816000Y-89408000D03*
X179070000Y-90678000D03*
X179070000Y-94996000D03*
X179070000Y-117602000D03*
X179070000Y-119126000D03*
X179070000Y-120142000D03*
X179070000Y-121158000D03*
X179070000Y-122428000D03*
X179070000Y-123952000D03*
X179070000Y-125222000D03*
X179110500Y-99171902D03*
X179171602Y-116442916D03*
X179285900Y-111848900D03*
X179324000Y-91694000D03*
D11*
%TO.C,H3*%
X174230000Y-123571000D03*
X174713274Y-122404274D03*
X174713274Y-124737726D03*
X175880000Y-121921000D03*
X175880000Y-125221000D03*
X177046726Y-122404274D03*
X177046726Y-124737726D03*
X177530000Y-123571000D03*
%TO.C,H5*%
X131700000Y-99060000D03*
X132183274Y-97893274D03*
X132183274Y-100226726D03*
X133350000Y-97410000D03*
X133350000Y-100710000D03*
X134516726Y-97893274D03*
X134516726Y-100226726D03*
X135000000Y-99060000D03*
%TO.C,H2*%
X115230000Y-123571000D03*
X115713274Y-122404274D03*
X115713274Y-124737726D03*
X116880000Y-121921000D03*
X116880000Y-125221000D03*
X118046726Y-122404274D03*
X118046726Y-124737726D03*
X118530000Y-123571000D03*
%TO.C,H4*%
X174230000Y-90480000D03*
X174713274Y-89313274D03*
X174713274Y-91646726D03*
X175880000Y-88830000D03*
X175880000Y-92130000D03*
X177046726Y-89313274D03*
X177046726Y-91646726D03*
X177530000Y-90480000D03*
%TO.C,H1*%
X115230000Y-90480000D03*
X115713274Y-89313274D03*
X115713274Y-91646726D03*
X116880000Y-88830000D03*
X116880000Y-92130000D03*
X118046726Y-89313274D03*
X118046726Y-91646726D03*
X118530000Y-90480000D03*
%TO.C,H6*%
X131700000Y-114891000D03*
X132183274Y-113724274D03*
X132183274Y-116057726D03*
X133350000Y-113241000D03*
X133350000Y-116541000D03*
X134516726Y-113724274D03*
X134516726Y-116057726D03*
X135000000Y-114891000D03*
D12*
%TO.C,H3*%
X175880000Y-123571000D03*
%TO.C,H2*%
X116880000Y-123571000D03*
%TO.C,H4*%
X175880000Y-90480000D03*
%TO.C,H1*%
X116880000Y-90480000D03*
%TO.C,H6*%
X133350000Y-114891000D03*
%TO.C,H5*%
X133350000Y-99060000D03*
M02*
