G04 #@! TF.GenerationSoftware,KiCad,Pcbnew,(5.1.2)-2*
G04 #@! TF.CreationDate,2019-11-16T13:35:15-06:00*
G04 #@! TF.ProjectId,spi_control,7370695f-636f-46e7-9472-6f6c2e6b6963,rev?*
G04 #@! TF.SameCoordinates,Original*
G04 #@! TF.FileFunction,Soldermask,Bot*
G04 #@! TF.FilePolarity,Negative*
%FSLAX46Y46*%
G04 Gerber Fmt 4.6, Leading zero omitted, Abs format (unit mm)*
G04 Created by KiCad (PCBNEW (5.1.2)-2) date 2019-11-16 13:35:15*
%MOMM*%
%LPD*%
G04 APERTURE LIST*
%ADD10C,0.100000*%
G04 APERTURE END LIST*
D10*
G36*
X114681000Y-97065600D02*
G01*
X113579000Y-97065600D01*
X113579000Y-93963600D01*
X114681000Y-93963600D01*
X114681000Y-97065600D01*
X114681000Y-97065600D01*
G37*
G36*
X86741000Y-97065600D02*
G01*
X85639000Y-97065600D01*
X85639000Y-93963600D01*
X86741000Y-93963600D01*
X86741000Y-97065600D01*
X86741000Y-97065600D01*
G37*
G36*
X66421000Y-97065600D02*
G01*
X65319000Y-97065600D01*
X65319000Y-93963600D01*
X66421000Y-93963600D01*
X66421000Y-97065600D01*
X66421000Y-97065600D01*
G37*
G36*
X68961000Y-97065600D02*
G01*
X67859000Y-97065600D01*
X67859000Y-93963600D01*
X68961000Y-93963600D01*
X68961000Y-97065600D01*
X68961000Y-97065600D01*
G37*
G36*
X71501000Y-97065600D02*
G01*
X70399000Y-97065600D01*
X70399000Y-93963600D01*
X71501000Y-93963600D01*
X71501000Y-97065600D01*
X71501000Y-97065600D01*
G37*
G36*
X74041000Y-97065600D02*
G01*
X72939000Y-97065600D01*
X72939000Y-93963600D01*
X74041000Y-93963600D01*
X74041000Y-97065600D01*
X74041000Y-97065600D01*
G37*
G36*
X76581000Y-97065600D02*
G01*
X75479000Y-97065600D01*
X75479000Y-93963600D01*
X76581000Y-93963600D01*
X76581000Y-97065600D01*
X76581000Y-97065600D01*
G37*
G36*
X79121000Y-97065600D02*
G01*
X78019000Y-97065600D01*
X78019000Y-93963600D01*
X79121000Y-93963600D01*
X79121000Y-97065600D01*
X79121000Y-97065600D01*
G37*
G36*
X81661000Y-97065600D02*
G01*
X80559000Y-97065600D01*
X80559000Y-93963600D01*
X81661000Y-93963600D01*
X81661000Y-97065600D01*
X81661000Y-97065600D01*
G37*
G36*
X84201000Y-97065600D02*
G01*
X83099000Y-97065600D01*
X83099000Y-93963600D01*
X84201000Y-93963600D01*
X84201000Y-97065600D01*
X84201000Y-97065600D01*
G37*
G36*
X107061000Y-97065600D02*
G01*
X105959000Y-97065600D01*
X105959000Y-93963600D01*
X107061000Y-93963600D01*
X107061000Y-97065600D01*
X107061000Y-97065600D01*
G37*
G36*
X91821000Y-97065600D02*
G01*
X90719000Y-97065600D01*
X90719000Y-93963600D01*
X91821000Y-93963600D01*
X91821000Y-97065600D01*
X91821000Y-97065600D01*
G37*
G36*
X94361000Y-97065600D02*
G01*
X93259000Y-97065600D01*
X93259000Y-93963600D01*
X94361000Y-93963600D01*
X94361000Y-97065600D01*
X94361000Y-97065600D01*
G37*
G36*
X96901000Y-97065600D02*
G01*
X95799000Y-97065600D01*
X95799000Y-93963600D01*
X96901000Y-93963600D01*
X96901000Y-97065600D01*
X96901000Y-97065600D01*
G37*
G36*
X99441000Y-97065600D02*
G01*
X98339000Y-97065600D01*
X98339000Y-93963600D01*
X99441000Y-93963600D01*
X99441000Y-97065600D01*
X99441000Y-97065600D01*
G37*
G36*
X101981000Y-97065600D02*
G01*
X100879000Y-97065600D01*
X100879000Y-93963600D01*
X101981000Y-93963600D01*
X101981000Y-97065600D01*
X101981000Y-97065600D01*
G37*
G36*
X104521000Y-97065600D02*
G01*
X103419000Y-97065600D01*
X103419000Y-93963600D01*
X104521000Y-93963600D01*
X104521000Y-97065600D01*
X104521000Y-97065600D01*
G37*
G36*
X109601000Y-97065600D02*
G01*
X108499000Y-97065600D01*
X108499000Y-93963600D01*
X109601000Y-93963600D01*
X109601000Y-97065600D01*
X109601000Y-97065600D01*
G37*
G36*
X112141000Y-97065600D02*
G01*
X111039000Y-97065600D01*
X111039000Y-93963600D01*
X112141000Y-93963600D01*
X112141000Y-97065600D01*
X112141000Y-97065600D01*
G37*
G36*
X89281000Y-97065600D02*
G01*
X88179000Y-97065600D01*
X88179000Y-93963600D01*
X89281000Y-93963600D01*
X89281000Y-97065600D01*
X89281000Y-97065600D01*
G37*
G36*
X120275880Y-90754376D02*
G01*
X120656593Y-90830104D01*
X121066249Y-90999789D01*
X121434929Y-91246134D01*
X121748466Y-91559671D01*
X121994811Y-91928351D01*
X122164496Y-92338007D01*
X122251000Y-92772896D01*
X122251000Y-93216304D01*
X122164496Y-93651193D01*
X121994811Y-94060849D01*
X121748466Y-94429529D01*
X121434929Y-94743066D01*
X121066249Y-94989411D01*
X120656593Y-95159096D01*
X120275880Y-95234824D01*
X120221705Y-95245600D01*
X119778295Y-95245600D01*
X119724120Y-95234824D01*
X119343407Y-95159096D01*
X118933751Y-94989411D01*
X118565071Y-94743066D01*
X118251534Y-94429529D01*
X118005189Y-94060849D01*
X117835504Y-93651193D01*
X117749000Y-93216304D01*
X117749000Y-92772896D01*
X117835504Y-92338007D01*
X118005189Y-91928351D01*
X118251534Y-91559671D01*
X118565071Y-91246134D01*
X118933751Y-90999789D01*
X119343407Y-90830104D01*
X119724120Y-90754376D01*
X119778295Y-90743600D01*
X120221705Y-90743600D01*
X120275880Y-90754376D01*
X120275880Y-90754376D01*
G37*
G36*
X61275880Y-90754376D02*
G01*
X61656593Y-90830104D01*
X62066249Y-90999789D01*
X62434929Y-91246134D01*
X62748466Y-91559671D01*
X62994811Y-91928351D01*
X63164496Y-92338007D01*
X63251000Y-92772896D01*
X63251000Y-93216304D01*
X63164496Y-93651193D01*
X62994811Y-94060849D01*
X62748466Y-94429529D01*
X62434929Y-94743066D01*
X62066249Y-94989411D01*
X61656593Y-95159096D01*
X61275880Y-95234824D01*
X61221705Y-95245600D01*
X60778295Y-95245600D01*
X60724120Y-95234824D01*
X60343407Y-95159096D01*
X59933751Y-94989411D01*
X59565071Y-94743066D01*
X59251534Y-94429529D01*
X59005189Y-94060849D01*
X58835504Y-93651193D01*
X58749000Y-93216304D01*
X58749000Y-92772896D01*
X58835504Y-92338007D01*
X59005189Y-91928351D01*
X59251534Y-91559671D01*
X59565071Y-91246134D01*
X59933751Y-90999789D01*
X60343407Y-90830104D01*
X60724120Y-90754376D01*
X60778295Y-90743600D01*
X61221705Y-90743600D01*
X61275880Y-90754376D01*
X61275880Y-90754376D01*
G37*
G36*
X109601000Y-92025600D02*
G01*
X108499000Y-92025600D01*
X108499000Y-88923600D01*
X109601000Y-88923600D01*
X109601000Y-92025600D01*
X109601000Y-92025600D01*
G37*
G36*
X68961000Y-92025600D02*
G01*
X67859000Y-92025600D01*
X67859000Y-88923600D01*
X68961000Y-88923600D01*
X68961000Y-92025600D01*
X68961000Y-92025600D01*
G37*
G36*
X71501000Y-92025600D02*
G01*
X70399000Y-92025600D01*
X70399000Y-88923600D01*
X71501000Y-88923600D01*
X71501000Y-92025600D01*
X71501000Y-92025600D01*
G37*
G36*
X74041000Y-92025600D02*
G01*
X72939000Y-92025600D01*
X72939000Y-88923600D01*
X74041000Y-88923600D01*
X74041000Y-92025600D01*
X74041000Y-92025600D01*
G37*
G36*
X76581000Y-92025600D02*
G01*
X75479000Y-92025600D01*
X75479000Y-88923600D01*
X76581000Y-88923600D01*
X76581000Y-92025600D01*
X76581000Y-92025600D01*
G37*
G36*
X79121000Y-92025600D02*
G01*
X78019000Y-92025600D01*
X78019000Y-88923600D01*
X79121000Y-88923600D01*
X79121000Y-92025600D01*
X79121000Y-92025600D01*
G37*
G36*
X84201000Y-92025600D02*
G01*
X83099000Y-92025600D01*
X83099000Y-88923600D01*
X84201000Y-88923600D01*
X84201000Y-92025600D01*
X84201000Y-92025600D01*
G37*
G36*
X91821000Y-92025600D02*
G01*
X90719000Y-92025600D01*
X90719000Y-88923600D01*
X91821000Y-88923600D01*
X91821000Y-92025600D01*
X91821000Y-92025600D01*
G37*
G36*
X66421000Y-92025600D02*
G01*
X65319000Y-92025600D01*
X65319000Y-88923600D01*
X66421000Y-88923600D01*
X66421000Y-92025600D01*
X66421000Y-92025600D01*
G37*
G36*
X86741000Y-92025600D02*
G01*
X85639000Y-92025600D01*
X85639000Y-88923600D01*
X86741000Y-88923600D01*
X86741000Y-92025600D01*
X86741000Y-92025600D01*
G37*
G36*
X89281000Y-92025600D02*
G01*
X88179000Y-92025600D01*
X88179000Y-88923600D01*
X89281000Y-88923600D01*
X89281000Y-92025600D01*
X89281000Y-92025600D01*
G37*
G36*
X81661000Y-92025600D02*
G01*
X80559000Y-92025600D01*
X80559000Y-88923600D01*
X81661000Y-88923600D01*
X81661000Y-92025600D01*
X81661000Y-92025600D01*
G37*
G36*
X114681000Y-92025600D02*
G01*
X113579000Y-92025600D01*
X113579000Y-88923600D01*
X114681000Y-88923600D01*
X114681000Y-92025600D01*
X114681000Y-92025600D01*
G37*
G36*
X112141000Y-92025600D02*
G01*
X111039000Y-92025600D01*
X111039000Y-88923600D01*
X112141000Y-88923600D01*
X112141000Y-92025600D01*
X112141000Y-92025600D01*
G37*
G36*
X107061000Y-92025600D02*
G01*
X105959000Y-92025600D01*
X105959000Y-88923600D01*
X107061000Y-88923600D01*
X107061000Y-92025600D01*
X107061000Y-92025600D01*
G37*
G36*
X104521000Y-92025600D02*
G01*
X103419000Y-92025600D01*
X103419000Y-88923600D01*
X104521000Y-88923600D01*
X104521000Y-92025600D01*
X104521000Y-92025600D01*
G37*
G36*
X101981000Y-92025600D02*
G01*
X100879000Y-92025600D01*
X100879000Y-88923600D01*
X101981000Y-88923600D01*
X101981000Y-92025600D01*
X101981000Y-92025600D01*
G37*
G36*
X99441000Y-92025600D02*
G01*
X98339000Y-92025600D01*
X98339000Y-88923600D01*
X99441000Y-88923600D01*
X99441000Y-92025600D01*
X99441000Y-92025600D01*
G37*
G36*
X94361000Y-92025600D02*
G01*
X93259000Y-92025600D01*
X93259000Y-88923600D01*
X94361000Y-88923600D01*
X94361000Y-92025600D01*
X94361000Y-92025600D01*
G37*
G36*
X96901000Y-92025600D02*
G01*
X95799000Y-92025600D01*
X95799000Y-88923600D01*
X96901000Y-88923600D01*
X96901000Y-92025600D01*
X96901000Y-92025600D01*
G37*
G36*
X77745880Y-82170776D02*
G01*
X78126593Y-82246504D01*
X78536249Y-82416189D01*
X78904929Y-82662534D01*
X79218466Y-82976071D01*
X79464811Y-83344751D01*
X79634496Y-83754407D01*
X79721000Y-84189296D01*
X79721000Y-84632704D01*
X79634496Y-85067593D01*
X79464811Y-85477249D01*
X79218466Y-85845929D01*
X78904929Y-86159466D01*
X78536249Y-86405811D01*
X78126593Y-86575496D01*
X77745880Y-86651224D01*
X77691705Y-86662000D01*
X77248295Y-86662000D01*
X77194120Y-86651224D01*
X76813407Y-86575496D01*
X76403751Y-86405811D01*
X76035071Y-86159466D01*
X75721534Y-85845929D01*
X75475189Y-85477249D01*
X75305504Y-85067593D01*
X75219000Y-84632704D01*
X75219000Y-84189296D01*
X75305504Y-83754407D01*
X75475189Y-83344751D01*
X75721534Y-82976071D01*
X76035071Y-82662534D01*
X76403751Y-82416189D01*
X76813407Y-82246504D01*
X77194120Y-82170776D01*
X77248295Y-82160000D01*
X77691705Y-82160000D01*
X77745880Y-82170776D01*
X77745880Y-82170776D01*
G37*
G36*
X113998138Y-84518516D02*
G01*
X114018757Y-84524771D01*
X114037753Y-84534924D01*
X114054408Y-84548592D01*
X114068076Y-84565247D01*
X114078229Y-84584243D01*
X114084484Y-84604862D01*
X114087200Y-84632440D01*
X114087200Y-85141160D01*
X114084484Y-85168738D01*
X114078229Y-85189357D01*
X114068076Y-85208353D01*
X114054408Y-85225008D01*
X114037753Y-85238676D01*
X114018757Y-85248829D01*
X113998138Y-85255084D01*
X113970560Y-85257800D01*
X113511840Y-85257800D01*
X113484262Y-85255084D01*
X113463643Y-85248829D01*
X113444647Y-85238676D01*
X113427992Y-85225008D01*
X113414324Y-85208353D01*
X113404171Y-85189357D01*
X113397916Y-85168738D01*
X113395200Y-85141160D01*
X113395200Y-84632440D01*
X113397916Y-84604862D01*
X113404171Y-84584243D01*
X113414324Y-84565247D01*
X113427992Y-84548592D01*
X113444647Y-84534924D01*
X113463643Y-84524771D01*
X113484262Y-84518516D01*
X113511840Y-84515800D01*
X113970560Y-84515800D01*
X113998138Y-84518516D01*
X113998138Y-84518516D01*
G37*
G36*
X114968138Y-84518516D02*
G01*
X114988757Y-84524771D01*
X115007753Y-84534924D01*
X115024408Y-84548592D01*
X115038076Y-84565247D01*
X115048229Y-84584243D01*
X115054484Y-84604862D01*
X115057200Y-84632440D01*
X115057200Y-85141160D01*
X115054484Y-85168738D01*
X115048229Y-85189357D01*
X115038076Y-85208353D01*
X115024408Y-85225008D01*
X115007753Y-85238676D01*
X114988757Y-85248829D01*
X114968138Y-85255084D01*
X114940560Y-85257800D01*
X114481840Y-85257800D01*
X114454262Y-85255084D01*
X114433643Y-85248829D01*
X114414647Y-85238676D01*
X114397992Y-85225008D01*
X114384324Y-85208353D01*
X114374171Y-85189357D01*
X114367916Y-85168738D01*
X114365200Y-85141160D01*
X114365200Y-84632440D01*
X114367916Y-84604862D01*
X114374171Y-84584243D01*
X114384324Y-84565247D01*
X114397992Y-84548592D01*
X114414647Y-84534924D01*
X114433643Y-84524771D01*
X114454262Y-84518516D01*
X114481840Y-84515800D01*
X114940560Y-84515800D01*
X114968138Y-84518516D01*
X114968138Y-84518516D01*
G37*
G36*
X110771938Y-83707716D02*
G01*
X110792557Y-83713971D01*
X110811553Y-83724124D01*
X110828208Y-83737792D01*
X110841876Y-83754447D01*
X110852029Y-83773443D01*
X110858284Y-83794062D01*
X110861000Y-83821640D01*
X110861000Y-84280360D01*
X110858284Y-84307938D01*
X110852029Y-84328557D01*
X110841876Y-84347553D01*
X110828208Y-84364208D01*
X110811553Y-84377876D01*
X110792557Y-84388029D01*
X110771938Y-84394284D01*
X110744360Y-84397000D01*
X110235640Y-84397000D01*
X110208062Y-84394284D01*
X110187443Y-84388029D01*
X110168447Y-84377876D01*
X110151792Y-84364208D01*
X110138124Y-84347553D01*
X110127971Y-84328557D01*
X110121716Y-84307938D01*
X110119000Y-84280360D01*
X110119000Y-83821640D01*
X110121716Y-83794062D01*
X110127971Y-83773443D01*
X110138124Y-83754447D01*
X110151792Y-83737792D01*
X110168447Y-83724124D01*
X110187443Y-83713971D01*
X110208062Y-83707716D01*
X110235640Y-83705000D01*
X110744360Y-83705000D01*
X110771938Y-83707716D01*
X110771938Y-83707716D01*
G37*
G36*
X115674000Y-84020000D02*
G01*
X114372000Y-84020000D01*
X114372000Y-82518000D01*
X115674000Y-82518000D01*
X115674000Y-84020000D01*
X115674000Y-84020000D01*
G37*
G36*
X113974000Y-84020000D02*
G01*
X112672000Y-84020000D01*
X112672000Y-82518000D01*
X113974000Y-82518000D01*
X113974000Y-84020000D01*
X113974000Y-84020000D01*
G37*
G36*
X70102813Y-82690438D02*
G01*
X70123432Y-82696693D01*
X70142428Y-82706846D01*
X70163849Y-82724426D01*
X70523574Y-83084151D01*
X70541154Y-83105572D01*
X70551307Y-83124568D01*
X70557562Y-83145187D01*
X70559673Y-83166625D01*
X70557562Y-83188063D01*
X70551307Y-83208682D01*
X70541154Y-83227678D01*
X70523574Y-83249099D01*
X70199205Y-83573468D01*
X70177784Y-83591048D01*
X70158788Y-83601201D01*
X70138169Y-83607456D01*
X70116731Y-83609567D01*
X70095293Y-83607456D01*
X70074674Y-83601201D01*
X70055678Y-83591048D01*
X70034257Y-83573468D01*
X69674532Y-83213743D01*
X69656952Y-83192322D01*
X69646799Y-83173326D01*
X69640544Y-83152707D01*
X69638433Y-83131269D01*
X69640544Y-83109831D01*
X69646799Y-83089212D01*
X69656952Y-83070216D01*
X69674532Y-83048795D01*
X69998901Y-82724426D01*
X70020322Y-82706846D01*
X70039318Y-82696693D01*
X70059937Y-82690438D01*
X70081375Y-82688327D01*
X70102813Y-82690438D01*
X70102813Y-82690438D01*
G37*
G36*
X110771938Y-82737716D02*
G01*
X110792557Y-82743971D01*
X110811553Y-82754124D01*
X110828208Y-82767792D01*
X110841876Y-82784447D01*
X110852029Y-82803443D01*
X110858284Y-82824062D01*
X110861000Y-82851640D01*
X110861000Y-83310360D01*
X110858284Y-83337938D01*
X110852029Y-83358557D01*
X110841876Y-83377553D01*
X110828208Y-83394208D01*
X110811553Y-83407876D01*
X110792557Y-83418029D01*
X110771938Y-83424284D01*
X110744360Y-83427000D01*
X110235640Y-83427000D01*
X110208062Y-83424284D01*
X110187443Y-83418029D01*
X110168447Y-83407876D01*
X110151792Y-83394208D01*
X110138124Y-83377553D01*
X110127971Y-83358557D01*
X110121716Y-83337938D01*
X110119000Y-83310360D01*
X110119000Y-82851640D01*
X110121716Y-82824062D01*
X110127971Y-82803443D01*
X110138124Y-82784447D01*
X110151792Y-82767792D01*
X110168447Y-82754124D01*
X110187443Y-82743971D01*
X110208062Y-82737716D01*
X110235640Y-82735000D01*
X110744360Y-82735000D01*
X110771938Y-82737716D01*
X110771938Y-82737716D01*
G37*
G36*
X116817138Y-82234516D02*
G01*
X116837757Y-82240771D01*
X116856753Y-82250924D01*
X116873408Y-82264592D01*
X116887076Y-82281247D01*
X116897229Y-82300243D01*
X116903484Y-82320862D01*
X116906200Y-82348440D01*
X116906200Y-82807160D01*
X116903484Y-82834738D01*
X116897229Y-82855357D01*
X116887076Y-82874353D01*
X116873408Y-82891008D01*
X116856753Y-82904676D01*
X116837757Y-82914829D01*
X116817138Y-82921084D01*
X116789560Y-82923800D01*
X116280840Y-82923800D01*
X116253262Y-82921084D01*
X116232643Y-82914829D01*
X116213647Y-82904676D01*
X116196992Y-82891008D01*
X116183324Y-82874353D01*
X116173171Y-82855357D01*
X116166916Y-82834738D01*
X116164200Y-82807160D01*
X116164200Y-82348440D01*
X116166916Y-82320862D01*
X116173171Y-82300243D01*
X116183324Y-82281247D01*
X116196992Y-82264592D01*
X116213647Y-82250924D01*
X116232643Y-82240771D01*
X116253262Y-82234516D01*
X116280840Y-82231800D01*
X116789560Y-82231800D01*
X116817138Y-82234516D01*
X116817138Y-82234516D01*
G37*
G36*
X70788707Y-82004544D02*
G01*
X70809326Y-82010799D01*
X70828322Y-82020952D01*
X70849743Y-82038532D01*
X71209468Y-82398257D01*
X71227048Y-82419678D01*
X71237201Y-82438674D01*
X71243456Y-82459293D01*
X71245567Y-82480731D01*
X71243456Y-82502169D01*
X71237201Y-82522788D01*
X71227048Y-82541784D01*
X71209468Y-82563205D01*
X70885099Y-82887574D01*
X70863678Y-82905154D01*
X70844682Y-82915307D01*
X70824063Y-82921562D01*
X70802625Y-82923673D01*
X70781187Y-82921562D01*
X70760568Y-82915307D01*
X70741572Y-82905154D01*
X70720151Y-82887574D01*
X70360426Y-82527849D01*
X70342846Y-82506428D01*
X70332693Y-82487432D01*
X70326438Y-82466813D01*
X70324327Y-82445375D01*
X70326438Y-82423937D01*
X70332693Y-82403318D01*
X70342846Y-82384322D01*
X70360426Y-82362901D01*
X70684795Y-82038532D01*
X70706216Y-82020952D01*
X70725212Y-82010799D01*
X70745831Y-82004544D01*
X70767269Y-82002433D01*
X70788707Y-82004544D01*
X70788707Y-82004544D01*
G37*
G36*
X69358413Y-81926438D02*
G01*
X69379032Y-81932693D01*
X69398028Y-81942846D01*
X69419449Y-81960426D01*
X69779174Y-82320151D01*
X69796754Y-82341572D01*
X69806907Y-82360568D01*
X69813162Y-82381187D01*
X69815273Y-82402625D01*
X69813162Y-82424063D01*
X69806907Y-82444682D01*
X69796754Y-82463678D01*
X69779174Y-82485099D01*
X69454805Y-82809468D01*
X69433384Y-82827048D01*
X69414388Y-82837201D01*
X69393769Y-82843456D01*
X69372331Y-82845567D01*
X69350893Y-82843456D01*
X69330274Y-82837201D01*
X69311278Y-82827048D01*
X69289857Y-82809468D01*
X68930132Y-82449743D01*
X68912552Y-82428322D01*
X68902399Y-82409326D01*
X68896144Y-82388707D01*
X68894033Y-82367269D01*
X68896144Y-82345831D01*
X68902399Y-82325212D01*
X68912552Y-82306216D01*
X68930132Y-82284795D01*
X69254501Y-81960426D01*
X69275922Y-81942846D01*
X69294918Y-81932693D01*
X69315537Y-81926438D01*
X69336975Y-81924327D01*
X69358413Y-81926438D01*
X69358413Y-81926438D01*
G37*
G36*
X70044307Y-81240544D02*
G01*
X70064926Y-81246799D01*
X70083922Y-81256952D01*
X70105343Y-81274532D01*
X70465068Y-81634257D01*
X70482648Y-81655678D01*
X70492801Y-81674674D01*
X70499056Y-81695293D01*
X70501167Y-81716731D01*
X70499056Y-81738169D01*
X70492801Y-81758788D01*
X70482648Y-81777784D01*
X70465068Y-81799205D01*
X70140699Y-82123574D01*
X70119278Y-82141154D01*
X70100282Y-82151307D01*
X70079663Y-82157562D01*
X70058225Y-82159673D01*
X70036787Y-82157562D01*
X70016168Y-82151307D01*
X69997172Y-82141154D01*
X69975751Y-82123574D01*
X69616026Y-81763849D01*
X69598446Y-81742428D01*
X69588293Y-81723432D01*
X69582038Y-81702813D01*
X69579927Y-81681375D01*
X69582038Y-81659937D01*
X69588293Y-81639318D01*
X69598446Y-81620322D01*
X69616026Y-81598901D01*
X69940395Y-81274532D01*
X69961816Y-81256952D01*
X69980812Y-81246799D01*
X70001431Y-81240544D01*
X70022869Y-81238433D01*
X70044307Y-81240544D01*
X70044307Y-81240544D01*
G37*
G36*
X107328295Y-81184823D02*
G01*
X107335310Y-81186951D01*
X107341776Y-81190408D01*
X107347442Y-81195058D01*
X107352092Y-81200724D01*
X107355549Y-81207190D01*
X107357677Y-81214205D01*
X107358603Y-81223609D01*
X107363383Y-81247642D01*
X107372761Y-81270281D01*
X107386374Y-81290655D01*
X107403701Y-81307982D01*
X107424076Y-81321596D01*
X107446715Y-81330974D01*
X107470748Y-81335754D01*
X107495252Y-81335754D01*
X107519285Y-81330974D01*
X107541924Y-81321596D01*
X107562298Y-81307983D01*
X107579625Y-81290656D01*
X107593239Y-81270281D01*
X107602617Y-81247642D01*
X107607397Y-81223609D01*
X107608323Y-81214205D01*
X107610451Y-81207190D01*
X107613908Y-81200724D01*
X107618558Y-81195058D01*
X107624224Y-81190408D01*
X107630690Y-81186951D01*
X107637705Y-81184823D01*
X107651140Y-81183500D01*
X107964860Y-81183500D01*
X107978295Y-81184823D01*
X107985310Y-81186951D01*
X107991776Y-81190408D01*
X107997442Y-81195058D01*
X108002092Y-81200724D01*
X108005549Y-81207190D01*
X108007677Y-81214205D01*
X108008603Y-81223609D01*
X108013383Y-81247642D01*
X108022761Y-81270281D01*
X108036374Y-81290655D01*
X108053701Y-81307982D01*
X108074076Y-81321596D01*
X108096715Y-81330974D01*
X108120748Y-81335754D01*
X108145252Y-81335754D01*
X108169285Y-81330974D01*
X108191924Y-81321596D01*
X108212298Y-81307983D01*
X108229625Y-81290656D01*
X108243239Y-81270281D01*
X108252617Y-81247642D01*
X108257397Y-81223609D01*
X108258323Y-81214205D01*
X108260451Y-81207190D01*
X108263908Y-81200724D01*
X108268558Y-81195058D01*
X108274224Y-81190408D01*
X108280690Y-81186951D01*
X108287705Y-81184823D01*
X108301140Y-81183500D01*
X108614860Y-81183500D01*
X108628295Y-81184823D01*
X108635310Y-81186951D01*
X108641776Y-81190408D01*
X108647442Y-81195058D01*
X108652092Y-81200724D01*
X108655549Y-81207190D01*
X108657677Y-81214205D01*
X108658603Y-81223609D01*
X108663383Y-81247642D01*
X108672761Y-81270281D01*
X108686374Y-81290655D01*
X108703701Y-81307982D01*
X108724076Y-81321596D01*
X108746715Y-81330974D01*
X108770748Y-81335754D01*
X108795252Y-81335754D01*
X108819285Y-81330974D01*
X108841924Y-81321596D01*
X108862298Y-81307983D01*
X108879625Y-81290656D01*
X108893239Y-81270281D01*
X108902617Y-81247642D01*
X108907397Y-81223609D01*
X108908323Y-81214205D01*
X108910451Y-81207190D01*
X108913908Y-81200724D01*
X108918558Y-81195058D01*
X108924224Y-81190408D01*
X108930690Y-81186951D01*
X108937705Y-81184823D01*
X108951140Y-81183500D01*
X109264860Y-81183500D01*
X109278295Y-81184823D01*
X109285310Y-81186951D01*
X109291776Y-81190408D01*
X109297442Y-81195058D01*
X109302092Y-81200724D01*
X109305549Y-81207190D01*
X109307677Y-81214205D01*
X109308603Y-81223609D01*
X109313383Y-81247642D01*
X109322761Y-81270281D01*
X109336374Y-81290655D01*
X109353701Y-81307982D01*
X109374076Y-81321596D01*
X109396715Y-81330974D01*
X109420748Y-81335754D01*
X109445252Y-81335754D01*
X109469285Y-81330974D01*
X109491924Y-81321596D01*
X109512298Y-81307983D01*
X109529625Y-81290656D01*
X109543239Y-81270281D01*
X109552617Y-81247642D01*
X109557397Y-81223609D01*
X109558323Y-81214205D01*
X109560451Y-81207190D01*
X109563908Y-81200724D01*
X109568558Y-81195058D01*
X109574224Y-81190408D01*
X109580690Y-81186951D01*
X109587705Y-81184823D01*
X109601140Y-81183500D01*
X109914860Y-81183500D01*
X109928295Y-81184823D01*
X109935310Y-81186951D01*
X109941776Y-81190408D01*
X109947442Y-81195058D01*
X109952092Y-81200724D01*
X109955549Y-81207190D01*
X109957677Y-81214205D01*
X109959000Y-81227640D01*
X109959000Y-82041360D01*
X109957677Y-82054795D01*
X109955549Y-82061810D01*
X109952092Y-82068276D01*
X109947442Y-82073942D01*
X109941776Y-82078592D01*
X109935310Y-82082049D01*
X109928295Y-82084177D01*
X109914860Y-82085500D01*
X109601140Y-82085500D01*
X109587705Y-82084177D01*
X109580690Y-82082049D01*
X109574224Y-82078592D01*
X109568558Y-82073942D01*
X109563908Y-82068276D01*
X109560451Y-82061810D01*
X109558323Y-82054795D01*
X109557397Y-82045391D01*
X109552617Y-82021358D01*
X109543239Y-81998719D01*
X109529626Y-81978345D01*
X109512299Y-81961018D01*
X109491924Y-81947404D01*
X109469285Y-81938026D01*
X109445252Y-81933246D01*
X109420748Y-81933246D01*
X109396715Y-81938026D01*
X109374076Y-81947404D01*
X109353702Y-81961017D01*
X109336375Y-81978344D01*
X109322761Y-81998719D01*
X109313383Y-82021358D01*
X109308603Y-82045391D01*
X109307677Y-82054795D01*
X109305549Y-82061810D01*
X109302092Y-82068276D01*
X109297442Y-82073942D01*
X109291776Y-82078592D01*
X109285310Y-82082049D01*
X109278295Y-82084177D01*
X109264860Y-82085500D01*
X108951140Y-82085500D01*
X108937705Y-82084177D01*
X108930690Y-82082049D01*
X108924224Y-82078592D01*
X108918558Y-82073942D01*
X108913908Y-82068276D01*
X108910451Y-82061810D01*
X108908323Y-82054795D01*
X108907397Y-82045391D01*
X108902617Y-82021358D01*
X108893239Y-81998719D01*
X108879626Y-81978345D01*
X108862299Y-81961018D01*
X108841924Y-81947404D01*
X108819285Y-81938026D01*
X108795252Y-81933246D01*
X108770748Y-81933246D01*
X108746715Y-81938026D01*
X108724076Y-81947404D01*
X108703702Y-81961017D01*
X108686375Y-81978344D01*
X108672761Y-81998719D01*
X108663383Y-82021358D01*
X108658603Y-82045391D01*
X108657677Y-82054795D01*
X108655549Y-82061810D01*
X108652092Y-82068276D01*
X108647442Y-82073942D01*
X108641776Y-82078592D01*
X108635310Y-82082049D01*
X108628295Y-82084177D01*
X108614860Y-82085500D01*
X108301140Y-82085500D01*
X108287705Y-82084177D01*
X108280690Y-82082049D01*
X108274224Y-82078592D01*
X108268558Y-82073942D01*
X108263908Y-82068276D01*
X108260451Y-82061810D01*
X108258323Y-82054795D01*
X108257397Y-82045391D01*
X108252617Y-82021358D01*
X108243239Y-81998719D01*
X108229626Y-81978345D01*
X108212299Y-81961018D01*
X108191924Y-81947404D01*
X108169285Y-81938026D01*
X108145252Y-81933246D01*
X108120748Y-81933246D01*
X108096715Y-81938026D01*
X108074076Y-81947404D01*
X108053702Y-81961017D01*
X108036375Y-81978344D01*
X108022761Y-81998719D01*
X108013383Y-82021358D01*
X108008603Y-82045391D01*
X108007677Y-82054795D01*
X108005549Y-82061810D01*
X108002092Y-82068276D01*
X107997442Y-82073942D01*
X107991776Y-82078592D01*
X107985310Y-82082049D01*
X107978295Y-82084177D01*
X107964860Y-82085500D01*
X107651140Y-82085500D01*
X107637705Y-82084177D01*
X107630690Y-82082049D01*
X107624224Y-82078592D01*
X107618558Y-82073942D01*
X107613908Y-82068276D01*
X107610451Y-82061810D01*
X107608323Y-82054795D01*
X107607397Y-82045391D01*
X107602617Y-82021358D01*
X107593239Y-81998719D01*
X107579626Y-81978345D01*
X107562299Y-81961018D01*
X107541924Y-81947404D01*
X107519285Y-81938026D01*
X107495252Y-81933246D01*
X107470748Y-81933246D01*
X107446715Y-81938026D01*
X107424076Y-81947404D01*
X107403702Y-81961017D01*
X107386375Y-81978344D01*
X107372761Y-81998719D01*
X107363383Y-82021358D01*
X107358603Y-82045391D01*
X107357677Y-82054795D01*
X107355549Y-82061810D01*
X107352092Y-82068276D01*
X107347442Y-82073942D01*
X107341776Y-82078592D01*
X107335310Y-82082049D01*
X107328295Y-82084177D01*
X107314860Y-82085500D01*
X107001140Y-82085500D01*
X106987705Y-82084177D01*
X106980690Y-82082049D01*
X106974224Y-82078592D01*
X106968558Y-82073942D01*
X106963908Y-82068276D01*
X106960451Y-82061810D01*
X106958323Y-82054795D01*
X106957000Y-82041360D01*
X106957000Y-81227640D01*
X106958323Y-81214205D01*
X106960451Y-81207190D01*
X106963908Y-81200724D01*
X106968558Y-81195058D01*
X106974224Y-81190408D01*
X106980690Y-81186951D01*
X106987705Y-81184823D01*
X107001140Y-81183500D01*
X107314860Y-81183500D01*
X107328295Y-81184823D01*
X107328295Y-81184823D01*
G37*
G36*
X116817138Y-81264516D02*
G01*
X116837757Y-81270771D01*
X116856753Y-81280924D01*
X116873408Y-81294592D01*
X116887076Y-81311247D01*
X116897229Y-81330243D01*
X116903484Y-81350862D01*
X116906200Y-81378440D01*
X116906200Y-81837160D01*
X116903484Y-81864738D01*
X116897229Y-81885357D01*
X116887076Y-81904353D01*
X116873408Y-81921008D01*
X116856753Y-81934676D01*
X116837757Y-81944829D01*
X116817138Y-81951084D01*
X116789560Y-81953800D01*
X116280840Y-81953800D01*
X116253262Y-81951084D01*
X116232643Y-81944829D01*
X116213647Y-81934676D01*
X116196992Y-81921008D01*
X116183324Y-81904353D01*
X116173171Y-81885357D01*
X116166916Y-81864738D01*
X116164200Y-81837160D01*
X116164200Y-81378440D01*
X116166916Y-81350862D01*
X116173171Y-81330243D01*
X116183324Y-81311247D01*
X116196992Y-81294592D01*
X116213647Y-81280924D01*
X116232643Y-81270771D01*
X116253262Y-81264516D01*
X116280840Y-81261800D01*
X116789560Y-81261800D01*
X116817138Y-81264516D01*
X116817138Y-81264516D01*
G37*
G36*
X113974000Y-81820000D02*
G01*
X112672000Y-81820000D01*
X112672000Y-80318000D01*
X113974000Y-80318000D01*
X113974000Y-81820000D01*
X113974000Y-81820000D01*
G37*
G36*
X115674000Y-81820000D02*
G01*
X114372000Y-81820000D01*
X114372000Y-80318000D01*
X115674000Y-80318000D01*
X115674000Y-81820000D01*
X115674000Y-81820000D01*
G37*
G36*
X71540116Y-80249991D02*
G01*
X71560735Y-80256246D01*
X71579731Y-80266399D01*
X71601152Y-80283979D01*
X71925521Y-80608348D01*
X71943101Y-80629769D01*
X71953254Y-80648765D01*
X71959509Y-80669384D01*
X71961620Y-80690822D01*
X71959509Y-80712260D01*
X71953254Y-80732879D01*
X71943101Y-80751875D01*
X71925521Y-80773296D01*
X71565796Y-81133021D01*
X71544375Y-81150601D01*
X71525379Y-81160754D01*
X71504760Y-81167009D01*
X71483322Y-81169120D01*
X71461884Y-81167009D01*
X71441265Y-81160754D01*
X71422269Y-81150601D01*
X71400848Y-81133021D01*
X71076479Y-80808652D01*
X71058899Y-80787231D01*
X71048746Y-80768235D01*
X71042491Y-80747616D01*
X71040380Y-80726178D01*
X71042491Y-80704740D01*
X71048746Y-80684121D01*
X71058899Y-80665125D01*
X71076479Y-80643704D01*
X71436204Y-80283979D01*
X71457625Y-80266399D01*
X71476621Y-80256246D01*
X71497240Y-80249991D01*
X71518678Y-80247880D01*
X71540116Y-80249991D01*
X71540116Y-80249991D01*
G37*
G36*
X110062124Y-77461999D02*
G01*
X110090387Y-77470573D01*
X110116434Y-77484496D01*
X110139267Y-77503233D01*
X110158004Y-77526066D01*
X110171927Y-77552113D01*
X110180501Y-77580376D01*
X110184000Y-77615908D01*
X110184000Y-80753092D01*
X110180501Y-80788624D01*
X110171927Y-80816887D01*
X110158004Y-80842934D01*
X110139267Y-80865767D01*
X110116434Y-80884504D01*
X110090387Y-80898427D01*
X110062124Y-80907001D01*
X110026592Y-80910500D01*
X106889408Y-80910500D01*
X106853876Y-80907001D01*
X106825613Y-80898427D01*
X106799566Y-80884504D01*
X106776733Y-80865767D01*
X106757996Y-80842934D01*
X106744073Y-80816887D01*
X106735499Y-80788624D01*
X106732000Y-80753092D01*
X106732000Y-77615908D01*
X106735499Y-77580376D01*
X106744073Y-77552113D01*
X106757996Y-77526066D01*
X106776733Y-77503233D01*
X106799566Y-77484496D01*
X106825613Y-77470573D01*
X106853876Y-77461999D01*
X106889408Y-77458500D01*
X110026592Y-77458500D01*
X110062124Y-77461999D01*
X110062124Y-77461999D01*
G37*
G36*
X106428295Y-77684823D02*
G01*
X106435310Y-77686951D01*
X106441776Y-77690408D01*
X106447442Y-77695058D01*
X106452092Y-77700724D01*
X106455549Y-77707190D01*
X106457677Y-77714205D01*
X106459000Y-77727640D01*
X106459000Y-78041360D01*
X106457677Y-78054795D01*
X106455549Y-78061810D01*
X106452092Y-78068276D01*
X106447442Y-78073942D01*
X106441776Y-78078592D01*
X106435310Y-78082049D01*
X106428295Y-78084177D01*
X106418891Y-78085103D01*
X106394858Y-78089883D01*
X106372219Y-78099261D01*
X106351845Y-78112874D01*
X106334518Y-78130201D01*
X106320904Y-78150576D01*
X106311526Y-78173215D01*
X106306746Y-78197248D01*
X106306746Y-78221752D01*
X106311526Y-78245785D01*
X106320904Y-78268424D01*
X106334517Y-78288798D01*
X106351844Y-78306125D01*
X106372219Y-78319739D01*
X106394858Y-78329117D01*
X106418891Y-78333897D01*
X106428295Y-78334823D01*
X106435310Y-78336951D01*
X106441776Y-78340408D01*
X106447442Y-78345058D01*
X106452092Y-78350724D01*
X106455549Y-78357190D01*
X106457677Y-78364205D01*
X106459000Y-78377640D01*
X106459000Y-78691360D01*
X106457677Y-78704795D01*
X106455549Y-78711810D01*
X106452092Y-78718276D01*
X106447442Y-78723942D01*
X106441776Y-78728592D01*
X106435310Y-78732049D01*
X106428295Y-78734177D01*
X106418891Y-78735103D01*
X106394858Y-78739883D01*
X106372219Y-78749261D01*
X106351845Y-78762874D01*
X106334518Y-78780201D01*
X106320904Y-78800576D01*
X106311526Y-78823215D01*
X106306746Y-78847248D01*
X106306746Y-78871752D01*
X106311526Y-78895785D01*
X106320904Y-78918424D01*
X106334517Y-78938798D01*
X106351844Y-78956125D01*
X106372219Y-78969739D01*
X106394858Y-78979117D01*
X106418891Y-78983897D01*
X106428295Y-78984823D01*
X106435310Y-78986951D01*
X106441776Y-78990408D01*
X106447442Y-78995058D01*
X106452092Y-79000724D01*
X106455549Y-79007190D01*
X106457677Y-79014205D01*
X106459000Y-79027640D01*
X106459000Y-79341360D01*
X106457677Y-79354795D01*
X106455549Y-79361810D01*
X106452092Y-79368276D01*
X106447442Y-79373942D01*
X106441776Y-79378592D01*
X106435310Y-79382049D01*
X106428295Y-79384177D01*
X106418891Y-79385103D01*
X106394858Y-79389883D01*
X106372219Y-79399261D01*
X106351845Y-79412874D01*
X106334518Y-79430201D01*
X106320904Y-79450576D01*
X106311526Y-79473215D01*
X106306746Y-79497248D01*
X106306746Y-79521752D01*
X106311526Y-79545785D01*
X106320904Y-79568424D01*
X106334517Y-79588798D01*
X106351844Y-79606125D01*
X106372219Y-79619739D01*
X106394858Y-79629117D01*
X106418891Y-79633897D01*
X106428295Y-79634823D01*
X106435310Y-79636951D01*
X106441776Y-79640408D01*
X106447442Y-79645058D01*
X106452092Y-79650724D01*
X106455549Y-79657190D01*
X106457677Y-79664205D01*
X106459000Y-79677640D01*
X106459000Y-79991360D01*
X106457677Y-80004795D01*
X106455549Y-80011810D01*
X106452092Y-80018276D01*
X106447442Y-80023942D01*
X106441776Y-80028592D01*
X106435310Y-80032049D01*
X106428295Y-80034177D01*
X106418891Y-80035103D01*
X106394858Y-80039883D01*
X106372219Y-80049261D01*
X106351845Y-80062874D01*
X106334518Y-80080201D01*
X106320904Y-80100576D01*
X106311526Y-80123215D01*
X106306746Y-80147248D01*
X106306746Y-80171752D01*
X106311526Y-80195785D01*
X106320904Y-80218424D01*
X106334517Y-80238798D01*
X106351844Y-80256125D01*
X106372219Y-80269739D01*
X106394858Y-80279117D01*
X106418891Y-80283897D01*
X106428295Y-80284823D01*
X106435310Y-80286951D01*
X106441776Y-80290408D01*
X106447442Y-80295058D01*
X106452092Y-80300724D01*
X106455549Y-80307190D01*
X106457677Y-80314205D01*
X106459000Y-80327640D01*
X106459000Y-80641360D01*
X106457677Y-80654795D01*
X106455549Y-80661810D01*
X106452092Y-80668276D01*
X106447442Y-80673942D01*
X106441776Y-80678592D01*
X106435310Y-80682049D01*
X106428295Y-80684177D01*
X106414860Y-80685500D01*
X105601140Y-80685500D01*
X105587705Y-80684177D01*
X105580690Y-80682049D01*
X105574224Y-80678592D01*
X105568558Y-80673942D01*
X105563908Y-80668276D01*
X105560451Y-80661810D01*
X105558323Y-80654795D01*
X105557000Y-80641360D01*
X105557000Y-80327640D01*
X105558323Y-80314205D01*
X105560451Y-80307190D01*
X105563908Y-80300724D01*
X105568558Y-80295058D01*
X105574224Y-80290408D01*
X105580690Y-80286951D01*
X105587705Y-80284823D01*
X105597109Y-80283897D01*
X105621142Y-80279117D01*
X105643781Y-80269739D01*
X105664155Y-80256126D01*
X105681482Y-80238799D01*
X105695096Y-80218424D01*
X105704474Y-80195785D01*
X105709254Y-80171752D01*
X105709254Y-80147248D01*
X105704474Y-80123215D01*
X105695096Y-80100576D01*
X105681483Y-80080202D01*
X105664156Y-80062875D01*
X105643781Y-80049261D01*
X105621142Y-80039883D01*
X105597109Y-80035103D01*
X105587705Y-80034177D01*
X105580690Y-80032049D01*
X105574224Y-80028592D01*
X105568558Y-80023942D01*
X105563908Y-80018276D01*
X105560451Y-80011810D01*
X105558323Y-80004795D01*
X105557000Y-79991360D01*
X105557000Y-79677640D01*
X105558323Y-79664205D01*
X105560451Y-79657190D01*
X105563908Y-79650724D01*
X105568558Y-79645058D01*
X105574224Y-79640408D01*
X105580690Y-79636951D01*
X105587705Y-79634823D01*
X105597109Y-79633897D01*
X105621142Y-79629117D01*
X105643781Y-79619739D01*
X105664155Y-79606126D01*
X105681482Y-79588799D01*
X105695096Y-79568424D01*
X105704474Y-79545785D01*
X105709254Y-79521752D01*
X105709254Y-79497248D01*
X105704474Y-79473215D01*
X105695096Y-79450576D01*
X105681483Y-79430202D01*
X105664156Y-79412875D01*
X105643781Y-79399261D01*
X105621142Y-79389883D01*
X105597109Y-79385103D01*
X105587705Y-79384177D01*
X105580690Y-79382049D01*
X105574224Y-79378592D01*
X105568558Y-79373942D01*
X105563908Y-79368276D01*
X105560451Y-79361810D01*
X105558323Y-79354795D01*
X105557000Y-79341360D01*
X105557000Y-79027640D01*
X105558323Y-79014205D01*
X105560451Y-79007190D01*
X105563908Y-79000724D01*
X105568558Y-78995058D01*
X105574224Y-78990408D01*
X105580690Y-78986951D01*
X105587705Y-78984823D01*
X105597109Y-78983897D01*
X105621142Y-78979117D01*
X105643781Y-78969739D01*
X105664155Y-78956126D01*
X105681482Y-78938799D01*
X105695096Y-78918424D01*
X105704474Y-78895785D01*
X105709254Y-78871752D01*
X105709254Y-78847248D01*
X105704474Y-78823215D01*
X105695096Y-78800576D01*
X105681483Y-78780202D01*
X105664156Y-78762875D01*
X105643781Y-78749261D01*
X105621142Y-78739883D01*
X105597109Y-78735103D01*
X105587705Y-78734177D01*
X105580690Y-78732049D01*
X105574224Y-78728592D01*
X105568558Y-78723942D01*
X105563908Y-78718276D01*
X105560451Y-78711810D01*
X105558323Y-78704795D01*
X105557000Y-78691360D01*
X105557000Y-78377640D01*
X105558323Y-78364205D01*
X105560451Y-78357190D01*
X105563908Y-78350724D01*
X105568558Y-78345058D01*
X105574224Y-78340408D01*
X105580690Y-78336951D01*
X105587705Y-78334823D01*
X105597109Y-78333897D01*
X105621142Y-78329117D01*
X105643781Y-78319739D01*
X105664155Y-78306126D01*
X105681482Y-78288799D01*
X105695096Y-78268424D01*
X105704474Y-78245785D01*
X105709254Y-78221752D01*
X105709254Y-78197248D01*
X105704474Y-78173215D01*
X105695096Y-78150576D01*
X105681483Y-78130202D01*
X105664156Y-78112875D01*
X105643781Y-78099261D01*
X105621142Y-78089883D01*
X105597109Y-78085103D01*
X105587705Y-78084177D01*
X105580690Y-78082049D01*
X105574224Y-78078592D01*
X105568558Y-78073942D01*
X105563908Y-78068276D01*
X105560451Y-78061810D01*
X105558323Y-78054795D01*
X105557000Y-78041360D01*
X105557000Y-77727640D01*
X105558323Y-77714205D01*
X105560451Y-77707190D01*
X105563908Y-77700724D01*
X105568558Y-77695058D01*
X105574224Y-77690408D01*
X105580690Y-77686951D01*
X105587705Y-77684823D01*
X105601140Y-77683500D01*
X106414860Y-77683500D01*
X106428295Y-77684823D01*
X106428295Y-77684823D01*
G37*
G36*
X111328295Y-77684823D02*
G01*
X111335310Y-77686951D01*
X111341776Y-77690408D01*
X111347442Y-77695058D01*
X111352092Y-77700724D01*
X111355549Y-77707190D01*
X111357677Y-77714205D01*
X111359000Y-77727640D01*
X111359000Y-78041360D01*
X111357677Y-78054795D01*
X111355549Y-78061810D01*
X111352092Y-78068276D01*
X111347442Y-78073942D01*
X111341776Y-78078592D01*
X111335310Y-78082049D01*
X111328295Y-78084177D01*
X111318891Y-78085103D01*
X111294858Y-78089883D01*
X111272219Y-78099261D01*
X111251845Y-78112874D01*
X111234518Y-78130201D01*
X111220904Y-78150576D01*
X111211526Y-78173215D01*
X111206746Y-78197248D01*
X111206746Y-78221752D01*
X111211526Y-78245785D01*
X111220904Y-78268424D01*
X111234517Y-78288798D01*
X111251844Y-78306125D01*
X111272219Y-78319739D01*
X111294858Y-78329117D01*
X111318891Y-78333897D01*
X111328295Y-78334823D01*
X111335310Y-78336951D01*
X111341776Y-78340408D01*
X111347442Y-78345058D01*
X111352092Y-78350724D01*
X111355549Y-78357190D01*
X111357677Y-78364205D01*
X111359000Y-78377640D01*
X111359000Y-78691360D01*
X111357677Y-78704795D01*
X111355549Y-78711810D01*
X111352092Y-78718276D01*
X111347442Y-78723942D01*
X111341776Y-78728592D01*
X111335310Y-78732049D01*
X111328295Y-78734177D01*
X111318891Y-78735103D01*
X111294858Y-78739883D01*
X111272219Y-78749261D01*
X111251845Y-78762874D01*
X111234518Y-78780201D01*
X111220904Y-78800576D01*
X111211526Y-78823215D01*
X111206746Y-78847248D01*
X111206746Y-78871752D01*
X111211526Y-78895785D01*
X111220904Y-78918424D01*
X111234517Y-78938798D01*
X111251844Y-78956125D01*
X111272219Y-78969739D01*
X111294858Y-78979117D01*
X111318891Y-78983897D01*
X111328295Y-78984823D01*
X111335310Y-78986951D01*
X111341776Y-78990408D01*
X111347442Y-78995058D01*
X111352092Y-79000724D01*
X111355549Y-79007190D01*
X111357677Y-79014205D01*
X111359000Y-79027640D01*
X111359000Y-79341360D01*
X111357677Y-79354795D01*
X111355549Y-79361810D01*
X111352092Y-79368276D01*
X111347442Y-79373942D01*
X111341776Y-79378592D01*
X111335310Y-79382049D01*
X111328295Y-79384177D01*
X111318891Y-79385103D01*
X111294858Y-79389883D01*
X111272219Y-79399261D01*
X111251845Y-79412874D01*
X111234518Y-79430201D01*
X111220904Y-79450576D01*
X111211526Y-79473215D01*
X111206746Y-79497248D01*
X111206746Y-79521752D01*
X111211526Y-79545785D01*
X111220904Y-79568424D01*
X111234517Y-79588798D01*
X111251844Y-79606125D01*
X111272219Y-79619739D01*
X111294858Y-79629117D01*
X111318891Y-79633897D01*
X111328295Y-79634823D01*
X111335310Y-79636951D01*
X111341776Y-79640408D01*
X111347442Y-79645058D01*
X111352092Y-79650724D01*
X111355549Y-79657190D01*
X111357677Y-79664205D01*
X111359000Y-79677640D01*
X111359000Y-79991360D01*
X111357677Y-80004795D01*
X111355549Y-80011810D01*
X111352092Y-80018276D01*
X111347442Y-80023942D01*
X111341776Y-80028592D01*
X111335310Y-80032049D01*
X111328295Y-80034177D01*
X111318891Y-80035103D01*
X111294858Y-80039883D01*
X111272219Y-80049261D01*
X111251845Y-80062874D01*
X111234518Y-80080201D01*
X111220904Y-80100576D01*
X111211526Y-80123215D01*
X111206746Y-80147248D01*
X111206746Y-80171752D01*
X111211526Y-80195785D01*
X111220904Y-80218424D01*
X111234517Y-80238798D01*
X111251844Y-80256125D01*
X111272219Y-80269739D01*
X111294858Y-80279117D01*
X111318891Y-80283897D01*
X111328295Y-80284823D01*
X111335310Y-80286951D01*
X111341776Y-80290408D01*
X111347442Y-80295058D01*
X111352092Y-80300724D01*
X111355549Y-80307190D01*
X111357677Y-80314205D01*
X111359000Y-80327640D01*
X111359000Y-80641360D01*
X111357677Y-80654795D01*
X111355549Y-80661810D01*
X111352092Y-80668276D01*
X111347442Y-80673942D01*
X111341776Y-80678592D01*
X111335310Y-80682049D01*
X111328295Y-80684177D01*
X111314860Y-80685500D01*
X110501140Y-80685500D01*
X110487705Y-80684177D01*
X110480690Y-80682049D01*
X110474224Y-80678592D01*
X110468558Y-80673942D01*
X110463908Y-80668276D01*
X110460451Y-80661810D01*
X110458323Y-80654795D01*
X110457000Y-80641360D01*
X110457000Y-80327640D01*
X110458323Y-80314205D01*
X110460451Y-80307190D01*
X110463908Y-80300724D01*
X110468558Y-80295058D01*
X110474224Y-80290408D01*
X110480690Y-80286951D01*
X110487705Y-80284823D01*
X110497109Y-80283897D01*
X110521142Y-80279117D01*
X110543781Y-80269739D01*
X110564155Y-80256126D01*
X110581482Y-80238799D01*
X110595096Y-80218424D01*
X110604474Y-80195785D01*
X110609254Y-80171752D01*
X110609254Y-80147248D01*
X110604474Y-80123215D01*
X110595096Y-80100576D01*
X110581483Y-80080202D01*
X110564156Y-80062875D01*
X110543781Y-80049261D01*
X110521142Y-80039883D01*
X110497109Y-80035103D01*
X110487705Y-80034177D01*
X110480690Y-80032049D01*
X110474224Y-80028592D01*
X110468558Y-80023942D01*
X110463908Y-80018276D01*
X110460451Y-80011810D01*
X110458323Y-80004795D01*
X110457000Y-79991360D01*
X110457000Y-79677640D01*
X110458323Y-79664205D01*
X110460451Y-79657190D01*
X110463908Y-79650724D01*
X110468558Y-79645058D01*
X110474224Y-79640408D01*
X110480690Y-79636951D01*
X110487705Y-79634823D01*
X110497109Y-79633897D01*
X110521142Y-79629117D01*
X110543781Y-79619739D01*
X110564155Y-79606126D01*
X110581482Y-79588799D01*
X110595096Y-79568424D01*
X110604474Y-79545785D01*
X110609254Y-79521752D01*
X110609254Y-79497248D01*
X110604474Y-79473215D01*
X110595096Y-79450576D01*
X110581483Y-79430202D01*
X110564156Y-79412875D01*
X110543781Y-79399261D01*
X110521142Y-79389883D01*
X110497109Y-79385103D01*
X110487705Y-79384177D01*
X110480690Y-79382049D01*
X110474224Y-79378592D01*
X110468558Y-79373942D01*
X110463908Y-79368276D01*
X110460451Y-79361810D01*
X110458323Y-79354795D01*
X110457000Y-79341360D01*
X110457000Y-79027640D01*
X110458323Y-79014205D01*
X110460451Y-79007190D01*
X110463908Y-79000724D01*
X110468558Y-78995058D01*
X110474224Y-78990408D01*
X110480690Y-78986951D01*
X110487705Y-78984823D01*
X110497109Y-78983897D01*
X110521142Y-78979117D01*
X110543781Y-78969739D01*
X110564155Y-78956126D01*
X110581482Y-78938799D01*
X110595096Y-78918424D01*
X110604474Y-78895785D01*
X110609254Y-78871752D01*
X110609254Y-78847248D01*
X110604474Y-78823215D01*
X110595096Y-78800576D01*
X110581483Y-78780202D01*
X110564156Y-78762875D01*
X110543781Y-78749261D01*
X110521142Y-78739883D01*
X110497109Y-78735103D01*
X110487705Y-78734177D01*
X110480690Y-78732049D01*
X110474224Y-78728592D01*
X110468558Y-78723942D01*
X110463908Y-78718276D01*
X110460451Y-78711810D01*
X110458323Y-78704795D01*
X110457000Y-78691360D01*
X110457000Y-78377640D01*
X110458323Y-78364205D01*
X110460451Y-78357190D01*
X110463908Y-78350724D01*
X110468558Y-78345058D01*
X110474224Y-78340408D01*
X110480690Y-78336951D01*
X110487705Y-78334823D01*
X110497109Y-78333897D01*
X110521142Y-78329117D01*
X110543781Y-78319739D01*
X110564155Y-78306126D01*
X110581482Y-78288799D01*
X110595096Y-78268424D01*
X110604474Y-78245785D01*
X110609254Y-78221752D01*
X110609254Y-78197248D01*
X110604474Y-78173215D01*
X110595096Y-78150576D01*
X110581483Y-78130202D01*
X110564156Y-78112875D01*
X110543781Y-78099261D01*
X110521142Y-78089883D01*
X110497109Y-78085103D01*
X110487705Y-78084177D01*
X110480690Y-78082049D01*
X110474224Y-78078592D01*
X110468558Y-78073942D01*
X110463908Y-78068276D01*
X110460451Y-78061810D01*
X110458323Y-78054795D01*
X110457000Y-78041360D01*
X110457000Y-77727640D01*
X110458323Y-77714205D01*
X110460451Y-77707190D01*
X110463908Y-77700724D01*
X110468558Y-77695058D01*
X110474224Y-77690408D01*
X110480690Y-77686951D01*
X110487705Y-77684823D01*
X110501140Y-77683500D01*
X111314860Y-77683500D01*
X111328295Y-77684823D01*
X111328295Y-77684823D01*
G37*
G36*
X70854222Y-79564097D02*
G01*
X70874841Y-79570352D01*
X70893837Y-79580505D01*
X70915258Y-79598085D01*
X71239627Y-79922454D01*
X71257207Y-79943875D01*
X71267360Y-79962871D01*
X71273615Y-79983490D01*
X71275726Y-80004928D01*
X71273615Y-80026366D01*
X71267360Y-80046985D01*
X71257207Y-80065981D01*
X71239627Y-80087402D01*
X70879902Y-80447127D01*
X70858481Y-80464707D01*
X70839485Y-80474860D01*
X70818866Y-80481115D01*
X70797428Y-80483226D01*
X70775990Y-80481115D01*
X70755371Y-80474860D01*
X70736375Y-80464707D01*
X70714954Y-80447127D01*
X70390585Y-80122758D01*
X70373005Y-80101337D01*
X70362852Y-80082341D01*
X70356597Y-80061722D01*
X70354486Y-80040284D01*
X70356597Y-80018846D01*
X70362852Y-79998227D01*
X70373005Y-79979231D01*
X70390585Y-79957810D01*
X70750310Y-79598085D01*
X70771731Y-79580505D01*
X70790727Y-79570352D01*
X70811346Y-79564097D01*
X70832784Y-79561986D01*
X70854222Y-79564097D01*
X70854222Y-79564097D01*
G37*
G36*
X72327563Y-79513438D02*
G01*
X72348182Y-79519693D01*
X72367178Y-79529846D01*
X72388599Y-79547426D01*
X72712968Y-79871795D01*
X72730548Y-79893216D01*
X72740701Y-79912212D01*
X72746956Y-79932831D01*
X72749067Y-79954269D01*
X72746956Y-79975707D01*
X72740701Y-79996326D01*
X72730548Y-80015322D01*
X72712968Y-80036743D01*
X72353243Y-80396468D01*
X72331822Y-80414048D01*
X72312826Y-80424201D01*
X72292207Y-80430456D01*
X72270769Y-80432567D01*
X72249331Y-80430456D01*
X72228712Y-80424201D01*
X72209716Y-80414048D01*
X72188295Y-80396468D01*
X71863926Y-80072099D01*
X71846346Y-80050678D01*
X71836193Y-80031682D01*
X71829938Y-80011063D01*
X71827827Y-79989625D01*
X71829938Y-79968187D01*
X71836193Y-79947568D01*
X71846346Y-79928572D01*
X71863926Y-79907151D01*
X72223651Y-79547426D01*
X72245072Y-79529846D01*
X72264068Y-79519693D01*
X72284687Y-79513438D01*
X72306125Y-79511327D01*
X72327563Y-79513438D01*
X72327563Y-79513438D01*
G37*
G36*
X120929938Y-79286116D02*
G01*
X120950557Y-79292371D01*
X120969553Y-79302524D01*
X120986208Y-79316192D01*
X120999876Y-79332847D01*
X121010029Y-79351843D01*
X121016284Y-79372462D01*
X121019000Y-79400040D01*
X121019000Y-79908760D01*
X121016284Y-79936338D01*
X121010029Y-79956957D01*
X120999876Y-79975953D01*
X120986208Y-79992608D01*
X120969553Y-80006276D01*
X120950557Y-80016429D01*
X120929938Y-80022684D01*
X120902360Y-80025400D01*
X120443640Y-80025400D01*
X120416062Y-80022684D01*
X120395443Y-80016429D01*
X120376447Y-80006276D01*
X120359792Y-79992608D01*
X120346124Y-79975953D01*
X120335971Y-79956957D01*
X120329716Y-79936338D01*
X120327000Y-79908760D01*
X120327000Y-79400040D01*
X120329716Y-79372462D01*
X120335971Y-79351843D01*
X120346124Y-79332847D01*
X120359792Y-79316192D01*
X120376447Y-79302524D01*
X120395443Y-79292371D01*
X120416062Y-79286116D01*
X120443640Y-79283400D01*
X120902360Y-79283400D01*
X120929938Y-79286116D01*
X120929938Y-79286116D01*
G37*
G36*
X121899938Y-79286116D02*
G01*
X121920557Y-79292371D01*
X121939553Y-79302524D01*
X121956208Y-79316192D01*
X121969876Y-79332847D01*
X121980029Y-79351843D01*
X121986284Y-79372462D01*
X121989000Y-79400040D01*
X121989000Y-79908760D01*
X121986284Y-79936338D01*
X121980029Y-79956957D01*
X121969876Y-79975953D01*
X121956208Y-79992608D01*
X121939553Y-80006276D01*
X121920557Y-80016429D01*
X121899938Y-80022684D01*
X121872360Y-80025400D01*
X121413640Y-80025400D01*
X121386062Y-80022684D01*
X121365443Y-80016429D01*
X121346447Y-80006276D01*
X121329792Y-79992608D01*
X121316124Y-79975953D01*
X121305971Y-79956957D01*
X121299716Y-79936338D01*
X121297000Y-79908760D01*
X121297000Y-79400040D01*
X121299716Y-79372462D01*
X121305971Y-79351843D01*
X121316124Y-79332847D01*
X121329792Y-79316192D01*
X121346447Y-79302524D01*
X121365443Y-79292371D01*
X121386062Y-79286116D01*
X121413640Y-79283400D01*
X121872360Y-79283400D01*
X121899938Y-79286116D01*
X121899938Y-79286116D01*
G37*
G36*
X71641669Y-78827544D02*
G01*
X71662288Y-78833799D01*
X71681284Y-78843952D01*
X71702705Y-78861532D01*
X72027074Y-79185901D01*
X72044654Y-79207322D01*
X72054807Y-79226318D01*
X72061062Y-79246937D01*
X72063173Y-79268375D01*
X72061062Y-79289813D01*
X72054807Y-79310432D01*
X72044654Y-79329428D01*
X72027074Y-79350849D01*
X71667349Y-79710574D01*
X71645928Y-79728154D01*
X71626932Y-79738307D01*
X71606313Y-79744562D01*
X71584875Y-79746673D01*
X71563437Y-79744562D01*
X71542818Y-79738307D01*
X71523822Y-79728154D01*
X71502401Y-79710574D01*
X71178032Y-79386205D01*
X71160452Y-79364784D01*
X71150299Y-79345788D01*
X71144044Y-79325169D01*
X71141933Y-79303731D01*
X71144044Y-79282293D01*
X71150299Y-79261674D01*
X71160452Y-79242678D01*
X71178032Y-79221257D01*
X71537757Y-78861532D01*
X71559178Y-78843952D01*
X71578174Y-78833799D01*
X71598793Y-78827544D01*
X71620231Y-78825433D01*
X71641669Y-78827544D01*
X71641669Y-78827544D01*
G37*
G36*
X73089563Y-78751438D02*
G01*
X73110182Y-78757693D01*
X73129178Y-78767846D01*
X73150599Y-78785426D01*
X73474968Y-79109795D01*
X73492548Y-79131216D01*
X73502701Y-79150212D01*
X73508956Y-79170831D01*
X73511067Y-79192269D01*
X73508956Y-79213707D01*
X73502701Y-79234326D01*
X73492548Y-79253322D01*
X73474968Y-79274743D01*
X73115243Y-79634468D01*
X73093822Y-79652048D01*
X73074826Y-79662201D01*
X73054207Y-79668456D01*
X73032769Y-79670567D01*
X73011331Y-79668456D01*
X72990712Y-79662201D01*
X72971716Y-79652048D01*
X72950295Y-79634468D01*
X72625926Y-79310099D01*
X72608346Y-79288678D01*
X72598193Y-79269682D01*
X72591938Y-79249063D01*
X72589827Y-79227625D01*
X72591938Y-79206187D01*
X72598193Y-79185568D01*
X72608346Y-79166572D01*
X72625926Y-79145151D01*
X72985651Y-78785426D01*
X73007072Y-78767846D01*
X73026068Y-78757693D01*
X73046687Y-78751438D01*
X73068125Y-78749327D01*
X73089563Y-78751438D01*
X73089563Y-78751438D01*
G37*
G36*
X114897438Y-78562216D02*
G01*
X114918057Y-78568471D01*
X114937053Y-78578624D01*
X114953708Y-78592292D01*
X114967376Y-78608947D01*
X114977529Y-78627943D01*
X114983784Y-78648562D01*
X114986500Y-78676140D01*
X114986500Y-79184860D01*
X114983784Y-79212438D01*
X114977529Y-79233057D01*
X114967376Y-79252053D01*
X114953708Y-79268708D01*
X114937053Y-79282376D01*
X114918057Y-79292529D01*
X114897438Y-79298784D01*
X114869860Y-79301500D01*
X114411140Y-79301500D01*
X114383562Y-79298784D01*
X114362943Y-79292529D01*
X114343947Y-79282376D01*
X114327292Y-79268708D01*
X114313624Y-79252053D01*
X114303471Y-79233057D01*
X114297216Y-79212438D01*
X114294500Y-79184860D01*
X114294500Y-78676140D01*
X114297216Y-78648562D01*
X114303471Y-78627943D01*
X114313624Y-78608947D01*
X114327292Y-78592292D01*
X114343947Y-78578624D01*
X114362943Y-78568471D01*
X114383562Y-78562216D01*
X114411140Y-78559500D01*
X114869860Y-78559500D01*
X114897438Y-78562216D01*
X114897438Y-78562216D01*
G37*
G36*
X115867438Y-78562216D02*
G01*
X115888057Y-78568471D01*
X115907053Y-78578624D01*
X115923708Y-78592292D01*
X115937376Y-78608947D01*
X115947529Y-78627943D01*
X115953784Y-78648562D01*
X115956500Y-78676140D01*
X115956500Y-79184860D01*
X115953784Y-79212438D01*
X115947529Y-79233057D01*
X115937376Y-79252053D01*
X115923708Y-79268708D01*
X115907053Y-79282376D01*
X115888057Y-79292529D01*
X115867438Y-79298784D01*
X115839860Y-79301500D01*
X115381140Y-79301500D01*
X115353562Y-79298784D01*
X115332943Y-79292529D01*
X115313947Y-79282376D01*
X115297292Y-79268708D01*
X115283624Y-79252053D01*
X115273471Y-79233057D01*
X115267216Y-79212438D01*
X115264500Y-79184860D01*
X115264500Y-78676140D01*
X115267216Y-78648562D01*
X115273471Y-78627943D01*
X115283624Y-78608947D01*
X115297292Y-78592292D01*
X115313947Y-78578624D01*
X115332943Y-78568471D01*
X115353562Y-78562216D01*
X115381140Y-78559500D01*
X115839860Y-78559500D01*
X115867438Y-78562216D01*
X115867438Y-78562216D01*
G37*
G36*
X72403669Y-78065544D02*
G01*
X72424288Y-78071799D01*
X72443284Y-78081952D01*
X72464705Y-78099532D01*
X72789074Y-78423901D01*
X72806654Y-78445322D01*
X72816807Y-78464318D01*
X72823062Y-78484937D01*
X72825173Y-78506375D01*
X72823062Y-78527813D01*
X72816807Y-78548432D01*
X72806654Y-78567428D01*
X72789074Y-78588849D01*
X72429349Y-78948574D01*
X72407928Y-78966154D01*
X72388932Y-78976307D01*
X72368313Y-78982562D01*
X72346875Y-78984673D01*
X72325437Y-78982562D01*
X72304818Y-78976307D01*
X72285822Y-78966154D01*
X72264401Y-78948574D01*
X71940032Y-78624205D01*
X71922452Y-78602784D01*
X71912299Y-78583788D01*
X71906044Y-78563169D01*
X71903933Y-78541731D01*
X71906044Y-78520293D01*
X71912299Y-78499674D01*
X71922452Y-78480678D01*
X71940032Y-78459257D01*
X72299757Y-78099532D01*
X72321178Y-78081952D01*
X72340174Y-78071799D01*
X72360793Y-78065544D01*
X72382231Y-78063433D01*
X72403669Y-78065544D01*
X72403669Y-78065544D01*
G37*
G36*
X114897438Y-77419216D02*
G01*
X114918057Y-77425471D01*
X114937053Y-77435624D01*
X114953708Y-77449292D01*
X114967376Y-77465947D01*
X114977529Y-77484943D01*
X114983784Y-77505562D01*
X114986500Y-77533140D01*
X114986500Y-78041860D01*
X114983784Y-78069438D01*
X114977529Y-78090057D01*
X114967376Y-78109053D01*
X114953708Y-78125708D01*
X114937053Y-78139376D01*
X114918057Y-78149529D01*
X114897438Y-78155784D01*
X114869860Y-78158500D01*
X114411140Y-78158500D01*
X114383562Y-78155784D01*
X114362943Y-78149529D01*
X114343947Y-78139376D01*
X114327292Y-78125708D01*
X114313624Y-78109053D01*
X114303471Y-78090057D01*
X114297216Y-78069438D01*
X114294500Y-78041860D01*
X114294500Y-77533140D01*
X114297216Y-77505562D01*
X114303471Y-77484943D01*
X114313624Y-77465947D01*
X114327292Y-77449292D01*
X114343947Y-77435624D01*
X114362943Y-77425471D01*
X114383562Y-77419216D01*
X114411140Y-77416500D01*
X114869860Y-77416500D01*
X114897438Y-77419216D01*
X114897438Y-77419216D01*
G37*
G36*
X115867438Y-77419216D02*
G01*
X115888057Y-77425471D01*
X115907053Y-77435624D01*
X115923708Y-77449292D01*
X115937376Y-77465947D01*
X115947529Y-77484943D01*
X115953784Y-77505562D01*
X115956500Y-77533140D01*
X115956500Y-78041860D01*
X115953784Y-78069438D01*
X115947529Y-78090057D01*
X115937376Y-78109053D01*
X115923708Y-78125708D01*
X115907053Y-78139376D01*
X115888057Y-78149529D01*
X115867438Y-78155784D01*
X115839860Y-78158500D01*
X115381140Y-78158500D01*
X115353562Y-78155784D01*
X115332943Y-78149529D01*
X115313947Y-78139376D01*
X115297292Y-78125708D01*
X115283624Y-78109053D01*
X115273471Y-78090057D01*
X115267216Y-78069438D01*
X115264500Y-78041860D01*
X115264500Y-77533140D01*
X115267216Y-77505562D01*
X115273471Y-77484943D01*
X115283624Y-77465947D01*
X115297292Y-77449292D01*
X115313947Y-77435624D01*
X115332943Y-77425471D01*
X115353562Y-77419216D01*
X115381140Y-77416500D01*
X115839860Y-77416500D01*
X115867438Y-77419216D01*
X115867438Y-77419216D01*
G37*
G36*
X123803500Y-73395000D02*
G01*
X121801500Y-73395000D01*
X121801500Y-72047499D01*
X121799098Y-72023113D01*
X121791985Y-71999664D01*
X121780434Y-71978053D01*
X121764889Y-71959111D01*
X121745947Y-71943566D01*
X121724336Y-71932015D01*
X121700887Y-71924902D01*
X121676501Y-71922500D01*
X121008499Y-71922500D01*
X120984113Y-71924902D01*
X120960664Y-71932015D01*
X120939053Y-71943566D01*
X120920111Y-71959111D01*
X120904566Y-71978053D01*
X120893015Y-71999664D01*
X120885902Y-72023113D01*
X120883500Y-72047499D01*
X120883500Y-75145501D01*
X120885902Y-75169887D01*
X120893015Y-75193336D01*
X120904566Y-75214947D01*
X120920111Y-75233889D01*
X120939053Y-75249434D01*
X120960664Y-75260985D01*
X120984113Y-75268098D01*
X121008499Y-75270500D01*
X121676501Y-75270500D01*
X121700887Y-75268098D01*
X121724336Y-75260985D01*
X121745947Y-75249434D01*
X121764889Y-75233889D01*
X121780434Y-75214947D01*
X121791985Y-75193336D01*
X121799098Y-75169887D01*
X121801500Y-75145501D01*
X121801500Y-73798000D01*
X123803500Y-73798000D01*
X123803500Y-77745000D01*
X121801500Y-77745000D01*
X121801500Y-76972499D01*
X121799098Y-76948113D01*
X121791985Y-76924664D01*
X121780434Y-76903053D01*
X121764889Y-76884111D01*
X121745947Y-76868566D01*
X121724336Y-76857015D01*
X121700887Y-76849902D01*
X121676501Y-76847500D01*
X119401500Y-76847500D01*
X119401500Y-70345500D01*
X121676501Y-70345500D01*
X121700887Y-70343098D01*
X121724336Y-70335985D01*
X121745947Y-70324434D01*
X121764889Y-70308889D01*
X121780434Y-70289947D01*
X121791985Y-70268336D01*
X121799098Y-70244887D01*
X121801500Y-70220501D01*
X121801500Y-69448000D01*
X123803500Y-69448000D01*
X123803500Y-73395000D01*
X123803500Y-73395000D01*
G37*
G36*
X62664338Y-76697316D02*
G01*
X62684957Y-76703571D01*
X62703953Y-76713724D01*
X62720608Y-76727392D01*
X62734276Y-76744047D01*
X62744429Y-76763043D01*
X62750684Y-76783662D01*
X62753400Y-76811240D01*
X62753400Y-77269960D01*
X62750684Y-77297538D01*
X62744429Y-77318157D01*
X62734276Y-77337153D01*
X62720608Y-77353808D01*
X62703953Y-77367476D01*
X62684957Y-77377629D01*
X62664338Y-77383884D01*
X62636760Y-77386600D01*
X62128040Y-77386600D01*
X62100462Y-77383884D01*
X62079843Y-77377629D01*
X62060847Y-77367476D01*
X62044192Y-77353808D01*
X62030524Y-77337153D01*
X62020371Y-77318157D01*
X62014116Y-77297538D01*
X62011400Y-77269960D01*
X62011400Y-76811240D01*
X62014116Y-76783662D01*
X62020371Y-76763043D01*
X62030524Y-76744047D01*
X62044192Y-76727392D01*
X62060847Y-76713724D01*
X62079843Y-76703571D01*
X62100462Y-76697316D01*
X62128040Y-76694600D01*
X62636760Y-76694600D01*
X62664338Y-76697316D01*
X62664338Y-76697316D01*
G37*
G36*
X61597538Y-76697316D02*
G01*
X61618157Y-76703571D01*
X61637153Y-76713724D01*
X61653808Y-76727392D01*
X61667476Y-76744047D01*
X61677629Y-76763043D01*
X61683884Y-76783662D01*
X61686600Y-76811240D01*
X61686600Y-77269960D01*
X61683884Y-77297538D01*
X61677629Y-77318157D01*
X61667476Y-77337153D01*
X61653808Y-77353808D01*
X61637153Y-77367476D01*
X61618157Y-77377629D01*
X61597538Y-77383884D01*
X61569960Y-77386600D01*
X61061240Y-77386600D01*
X61033662Y-77383884D01*
X61013043Y-77377629D01*
X60994047Y-77367476D01*
X60977392Y-77353808D01*
X60963724Y-77337153D01*
X60953571Y-77318157D01*
X60947316Y-77297538D01*
X60944600Y-77269960D01*
X60944600Y-76811240D01*
X60947316Y-76783662D01*
X60953571Y-76763043D01*
X60963724Y-76744047D01*
X60977392Y-76727392D01*
X60994047Y-76713724D01*
X61013043Y-76703571D01*
X61033662Y-76697316D01*
X61061240Y-76694600D01*
X61569960Y-76694600D01*
X61597538Y-76697316D01*
X61597538Y-76697316D01*
G37*
G36*
X107328295Y-76284823D02*
G01*
X107335310Y-76286951D01*
X107341776Y-76290408D01*
X107347442Y-76295058D01*
X107352092Y-76300724D01*
X107355549Y-76307190D01*
X107357677Y-76314205D01*
X107358603Y-76323609D01*
X107363383Y-76347642D01*
X107372761Y-76370281D01*
X107386374Y-76390655D01*
X107403701Y-76407982D01*
X107424076Y-76421596D01*
X107446715Y-76430974D01*
X107470748Y-76435754D01*
X107495252Y-76435754D01*
X107519285Y-76430974D01*
X107541924Y-76421596D01*
X107562298Y-76407983D01*
X107579625Y-76390656D01*
X107593239Y-76370281D01*
X107602617Y-76347642D01*
X107607397Y-76323609D01*
X107608323Y-76314205D01*
X107610451Y-76307190D01*
X107613908Y-76300724D01*
X107618558Y-76295058D01*
X107624224Y-76290408D01*
X107630690Y-76286951D01*
X107637705Y-76284823D01*
X107651140Y-76283500D01*
X107964860Y-76283500D01*
X107978295Y-76284823D01*
X107985310Y-76286951D01*
X107991776Y-76290408D01*
X107997442Y-76295058D01*
X108002092Y-76300724D01*
X108005549Y-76307190D01*
X108007677Y-76314205D01*
X108008603Y-76323609D01*
X108013383Y-76347642D01*
X108022761Y-76370281D01*
X108036374Y-76390655D01*
X108053701Y-76407982D01*
X108074076Y-76421596D01*
X108096715Y-76430974D01*
X108120748Y-76435754D01*
X108145252Y-76435754D01*
X108169285Y-76430974D01*
X108191924Y-76421596D01*
X108212298Y-76407983D01*
X108229625Y-76390656D01*
X108243239Y-76370281D01*
X108252617Y-76347642D01*
X108257397Y-76323609D01*
X108258323Y-76314205D01*
X108260451Y-76307190D01*
X108263908Y-76300724D01*
X108268558Y-76295058D01*
X108274224Y-76290408D01*
X108280690Y-76286951D01*
X108287705Y-76284823D01*
X108301140Y-76283500D01*
X108614860Y-76283500D01*
X108628295Y-76284823D01*
X108635310Y-76286951D01*
X108641776Y-76290408D01*
X108647442Y-76295058D01*
X108652092Y-76300724D01*
X108655549Y-76307190D01*
X108657677Y-76314205D01*
X108658603Y-76323609D01*
X108663383Y-76347642D01*
X108672761Y-76370281D01*
X108686374Y-76390655D01*
X108703701Y-76407982D01*
X108724076Y-76421596D01*
X108746715Y-76430974D01*
X108770748Y-76435754D01*
X108795252Y-76435754D01*
X108819285Y-76430974D01*
X108841924Y-76421596D01*
X108862298Y-76407983D01*
X108879625Y-76390656D01*
X108893239Y-76370281D01*
X108902617Y-76347642D01*
X108907397Y-76323609D01*
X108908323Y-76314205D01*
X108910451Y-76307190D01*
X108913908Y-76300724D01*
X108918558Y-76295058D01*
X108924224Y-76290408D01*
X108930690Y-76286951D01*
X108937705Y-76284823D01*
X108951140Y-76283500D01*
X109264860Y-76283500D01*
X109278295Y-76284823D01*
X109285310Y-76286951D01*
X109291776Y-76290408D01*
X109297442Y-76295058D01*
X109302092Y-76300724D01*
X109305549Y-76307190D01*
X109307677Y-76314205D01*
X109308603Y-76323609D01*
X109313383Y-76347642D01*
X109322761Y-76370281D01*
X109336374Y-76390655D01*
X109353701Y-76407982D01*
X109374076Y-76421596D01*
X109396715Y-76430974D01*
X109420748Y-76435754D01*
X109445252Y-76435754D01*
X109469285Y-76430974D01*
X109491924Y-76421596D01*
X109512298Y-76407983D01*
X109529625Y-76390656D01*
X109543239Y-76370281D01*
X109552617Y-76347642D01*
X109557397Y-76323609D01*
X109558323Y-76314205D01*
X109560451Y-76307190D01*
X109563908Y-76300724D01*
X109568558Y-76295058D01*
X109574224Y-76290408D01*
X109580690Y-76286951D01*
X109587705Y-76284823D01*
X109601140Y-76283500D01*
X109914860Y-76283500D01*
X109928295Y-76284823D01*
X109935310Y-76286951D01*
X109941776Y-76290408D01*
X109947442Y-76295058D01*
X109952092Y-76300724D01*
X109955549Y-76307190D01*
X109957677Y-76314205D01*
X109959000Y-76327640D01*
X109959000Y-77141360D01*
X109957677Y-77154795D01*
X109955549Y-77161810D01*
X109952092Y-77168276D01*
X109947442Y-77173942D01*
X109941776Y-77178592D01*
X109935310Y-77182049D01*
X109928295Y-77184177D01*
X109914860Y-77185500D01*
X109601140Y-77185500D01*
X109587705Y-77184177D01*
X109580690Y-77182049D01*
X109574224Y-77178592D01*
X109568558Y-77173942D01*
X109563908Y-77168276D01*
X109560451Y-77161810D01*
X109558323Y-77154795D01*
X109557397Y-77145391D01*
X109552617Y-77121358D01*
X109543239Y-77098719D01*
X109529626Y-77078345D01*
X109512299Y-77061018D01*
X109491924Y-77047404D01*
X109469285Y-77038026D01*
X109445252Y-77033246D01*
X109420748Y-77033246D01*
X109396715Y-77038026D01*
X109374076Y-77047404D01*
X109353702Y-77061017D01*
X109336375Y-77078344D01*
X109322761Y-77098719D01*
X109313383Y-77121358D01*
X109308603Y-77145391D01*
X109307677Y-77154795D01*
X109305549Y-77161810D01*
X109302092Y-77168276D01*
X109297442Y-77173942D01*
X109291776Y-77178592D01*
X109285310Y-77182049D01*
X109278295Y-77184177D01*
X109264860Y-77185500D01*
X108951140Y-77185500D01*
X108937705Y-77184177D01*
X108930690Y-77182049D01*
X108924224Y-77178592D01*
X108918558Y-77173942D01*
X108913908Y-77168276D01*
X108910451Y-77161810D01*
X108908323Y-77154795D01*
X108907397Y-77145391D01*
X108902617Y-77121358D01*
X108893239Y-77098719D01*
X108879626Y-77078345D01*
X108862299Y-77061018D01*
X108841924Y-77047404D01*
X108819285Y-77038026D01*
X108795252Y-77033246D01*
X108770748Y-77033246D01*
X108746715Y-77038026D01*
X108724076Y-77047404D01*
X108703702Y-77061017D01*
X108686375Y-77078344D01*
X108672761Y-77098719D01*
X108663383Y-77121358D01*
X108658603Y-77145391D01*
X108657677Y-77154795D01*
X108655549Y-77161810D01*
X108652092Y-77168276D01*
X108647442Y-77173942D01*
X108641776Y-77178592D01*
X108635310Y-77182049D01*
X108628295Y-77184177D01*
X108614860Y-77185500D01*
X108301140Y-77185500D01*
X108287705Y-77184177D01*
X108280690Y-77182049D01*
X108274224Y-77178592D01*
X108268558Y-77173942D01*
X108263908Y-77168276D01*
X108260451Y-77161810D01*
X108258323Y-77154795D01*
X108257397Y-77145391D01*
X108252617Y-77121358D01*
X108243239Y-77098719D01*
X108229626Y-77078345D01*
X108212299Y-77061018D01*
X108191924Y-77047404D01*
X108169285Y-77038026D01*
X108145252Y-77033246D01*
X108120748Y-77033246D01*
X108096715Y-77038026D01*
X108074076Y-77047404D01*
X108053702Y-77061017D01*
X108036375Y-77078344D01*
X108022761Y-77098719D01*
X108013383Y-77121358D01*
X108008603Y-77145391D01*
X108007677Y-77154795D01*
X108005549Y-77161810D01*
X108002092Y-77168276D01*
X107997442Y-77173942D01*
X107991776Y-77178592D01*
X107985310Y-77182049D01*
X107978295Y-77184177D01*
X107964860Y-77185500D01*
X107651140Y-77185500D01*
X107637705Y-77184177D01*
X107630690Y-77182049D01*
X107624224Y-77178592D01*
X107618558Y-77173942D01*
X107613908Y-77168276D01*
X107610451Y-77161810D01*
X107608323Y-77154795D01*
X107607397Y-77145391D01*
X107602617Y-77121358D01*
X107593239Y-77098719D01*
X107579626Y-77078345D01*
X107562299Y-77061018D01*
X107541924Y-77047404D01*
X107519285Y-77038026D01*
X107495252Y-77033246D01*
X107470748Y-77033246D01*
X107446715Y-77038026D01*
X107424076Y-77047404D01*
X107403702Y-77061017D01*
X107386375Y-77078344D01*
X107372761Y-77098719D01*
X107363383Y-77121358D01*
X107358603Y-77145391D01*
X107357677Y-77154795D01*
X107355549Y-77161810D01*
X107352092Y-77168276D01*
X107347442Y-77173942D01*
X107341776Y-77178592D01*
X107335310Y-77182049D01*
X107328295Y-77184177D01*
X107314860Y-77185500D01*
X107001140Y-77185500D01*
X106987705Y-77184177D01*
X106980690Y-77182049D01*
X106974224Y-77178592D01*
X106968558Y-77173942D01*
X106963908Y-77168276D01*
X106960451Y-77161810D01*
X106958323Y-77154795D01*
X106957000Y-77141360D01*
X106957000Y-76327640D01*
X106958323Y-76314205D01*
X106960451Y-76307190D01*
X106963908Y-76300724D01*
X106968558Y-76295058D01*
X106974224Y-76290408D01*
X106980690Y-76286951D01*
X106987705Y-76284823D01*
X107001140Y-76283500D01*
X107314860Y-76283500D01*
X107328295Y-76284823D01*
X107328295Y-76284823D01*
G37*
G36*
X117611500Y-76875500D02*
G01*
X116109500Y-76875500D01*
X116109500Y-75773500D01*
X117611500Y-75773500D01*
X117611500Y-76875500D01*
X117611500Y-76875500D01*
G37*
G36*
X115411500Y-76795500D02*
G01*
X113909500Y-76795500D01*
X113909500Y-75493500D01*
X115411500Y-75493500D01*
X115411500Y-76795500D01*
X115411500Y-76795500D01*
G37*
G36*
X74562716Y-75741491D02*
G01*
X74583335Y-75747746D01*
X74602331Y-75757899D01*
X74623752Y-75775479D01*
X74948121Y-76099848D01*
X74965701Y-76121269D01*
X74975854Y-76140265D01*
X74982109Y-76160884D01*
X74984220Y-76182322D01*
X74982109Y-76203760D01*
X74975854Y-76224379D01*
X74965701Y-76243375D01*
X74948121Y-76264796D01*
X74588396Y-76624521D01*
X74566975Y-76642101D01*
X74547979Y-76652254D01*
X74527360Y-76658509D01*
X74505922Y-76660620D01*
X74484484Y-76658509D01*
X74463865Y-76652254D01*
X74444869Y-76642101D01*
X74423448Y-76624521D01*
X74099079Y-76300152D01*
X74081499Y-76278731D01*
X74071346Y-76259735D01*
X74065091Y-76239116D01*
X74062980Y-76217678D01*
X74065091Y-76196240D01*
X74071346Y-76175621D01*
X74081499Y-76156625D01*
X74099079Y-76135204D01*
X74458804Y-75775479D01*
X74480225Y-75757899D01*
X74499221Y-75747746D01*
X74519840Y-75741491D01*
X74541278Y-75739380D01*
X74562716Y-75741491D01*
X74562716Y-75741491D01*
G37*
G36*
X62664338Y-75727316D02*
G01*
X62684957Y-75733571D01*
X62703953Y-75743724D01*
X62720608Y-75757392D01*
X62734276Y-75774047D01*
X62744429Y-75793043D01*
X62750684Y-75813662D01*
X62753400Y-75841240D01*
X62753400Y-76299960D01*
X62750684Y-76327538D01*
X62744429Y-76348157D01*
X62734276Y-76367153D01*
X62720608Y-76383808D01*
X62703953Y-76397476D01*
X62684957Y-76407629D01*
X62664338Y-76413884D01*
X62636760Y-76416600D01*
X62128040Y-76416600D01*
X62100462Y-76413884D01*
X62079843Y-76407629D01*
X62060847Y-76397476D01*
X62044192Y-76383808D01*
X62030524Y-76367153D01*
X62020371Y-76348157D01*
X62014116Y-76327538D01*
X62011400Y-76299960D01*
X62011400Y-75841240D01*
X62014116Y-75813662D01*
X62020371Y-75793043D01*
X62030524Y-75774047D01*
X62044192Y-75757392D01*
X62060847Y-75743724D01*
X62079843Y-75733571D01*
X62100462Y-75727316D01*
X62128040Y-75724600D01*
X62636760Y-75724600D01*
X62664338Y-75727316D01*
X62664338Y-75727316D01*
G37*
G36*
X61597538Y-75727316D02*
G01*
X61618157Y-75733571D01*
X61637153Y-75743724D01*
X61653808Y-75757392D01*
X61667476Y-75774047D01*
X61677629Y-75793043D01*
X61683884Y-75813662D01*
X61686600Y-75841240D01*
X61686600Y-76299960D01*
X61683884Y-76327538D01*
X61677629Y-76348157D01*
X61667476Y-76367153D01*
X61653808Y-76383808D01*
X61637153Y-76397476D01*
X61618157Y-76407629D01*
X61597538Y-76413884D01*
X61569960Y-76416600D01*
X61061240Y-76416600D01*
X61033662Y-76413884D01*
X61013043Y-76407629D01*
X60994047Y-76397476D01*
X60977392Y-76383808D01*
X60963724Y-76367153D01*
X60953571Y-76348157D01*
X60947316Y-76327538D01*
X60944600Y-76299960D01*
X60944600Y-75841240D01*
X60947316Y-75813662D01*
X60953571Y-75793043D01*
X60963724Y-75774047D01*
X60977392Y-75757392D01*
X60994047Y-75743724D01*
X61013043Y-75733571D01*
X61033662Y-75727316D01*
X61061240Y-75724600D01*
X61569960Y-75724600D01*
X61597538Y-75727316D01*
X61597538Y-75727316D01*
G37*
G36*
X73876822Y-75055597D02*
G01*
X73897441Y-75061852D01*
X73916437Y-75072005D01*
X73937858Y-75089585D01*
X74262227Y-75413954D01*
X74279807Y-75435375D01*
X74289960Y-75454371D01*
X74296215Y-75474990D01*
X74298326Y-75496428D01*
X74296215Y-75517866D01*
X74289960Y-75538485D01*
X74279807Y-75557481D01*
X74262227Y-75578902D01*
X73902502Y-75938627D01*
X73881081Y-75956207D01*
X73862085Y-75966360D01*
X73841466Y-75972615D01*
X73820028Y-75974726D01*
X73798590Y-75972615D01*
X73777971Y-75966360D01*
X73758975Y-75956207D01*
X73737554Y-75938627D01*
X73413185Y-75614258D01*
X73395605Y-75592837D01*
X73385452Y-75573841D01*
X73379197Y-75553222D01*
X73377086Y-75531784D01*
X73379197Y-75510346D01*
X73385452Y-75489727D01*
X73395605Y-75470731D01*
X73413185Y-75449310D01*
X73772910Y-75089585D01*
X73794331Y-75072005D01*
X73813327Y-75061852D01*
X73833946Y-75055597D01*
X73855384Y-75053486D01*
X73876822Y-75055597D01*
X73876822Y-75055597D01*
G37*
G36*
X75312063Y-74966838D02*
G01*
X75332682Y-74973093D01*
X75351678Y-74983246D01*
X75373099Y-75000826D01*
X75697468Y-75325195D01*
X75715048Y-75346616D01*
X75725201Y-75365612D01*
X75731456Y-75386231D01*
X75733567Y-75407669D01*
X75731456Y-75429107D01*
X75725201Y-75449726D01*
X75715048Y-75468722D01*
X75697468Y-75490143D01*
X75337743Y-75849868D01*
X75316322Y-75867448D01*
X75297326Y-75877601D01*
X75276707Y-75883856D01*
X75255269Y-75885967D01*
X75233831Y-75883856D01*
X75213212Y-75877601D01*
X75194216Y-75867448D01*
X75172795Y-75849868D01*
X74848426Y-75525499D01*
X74830846Y-75504078D01*
X74820693Y-75485082D01*
X74814438Y-75464463D01*
X74812327Y-75443025D01*
X74814438Y-75421587D01*
X74820693Y-75400968D01*
X74830846Y-75381972D01*
X74848426Y-75360551D01*
X75208151Y-75000826D01*
X75229572Y-74983246D01*
X75248568Y-74973093D01*
X75269187Y-74966838D01*
X75290625Y-74964727D01*
X75312063Y-74966838D01*
X75312063Y-74966838D01*
G37*
G36*
X111483138Y-74665316D02*
G01*
X111503757Y-74671571D01*
X111522753Y-74681724D01*
X111539408Y-74695392D01*
X111553076Y-74712047D01*
X111563229Y-74731043D01*
X111569484Y-74751662D01*
X111572200Y-74779240D01*
X111572200Y-75237960D01*
X111569484Y-75265538D01*
X111563229Y-75286157D01*
X111553076Y-75305153D01*
X111539408Y-75321808D01*
X111522753Y-75335476D01*
X111503757Y-75345629D01*
X111483138Y-75351884D01*
X111455560Y-75354600D01*
X110946840Y-75354600D01*
X110919262Y-75351884D01*
X110898643Y-75345629D01*
X110879647Y-75335476D01*
X110862992Y-75321808D01*
X110849324Y-75305153D01*
X110839171Y-75286157D01*
X110832916Y-75265538D01*
X110830200Y-75237960D01*
X110830200Y-74779240D01*
X110832916Y-74751662D01*
X110839171Y-74731043D01*
X110849324Y-74712047D01*
X110862992Y-74695392D01*
X110879647Y-74681724D01*
X110898643Y-74671571D01*
X110919262Y-74665316D01*
X110946840Y-74662600D01*
X111455560Y-74662600D01*
X111483138Y-74665316D01*
X111483138Y-74665316D01*
G37*
G36*
X110365538Y-74665316D02*
G01*
X110386157Y-74671571D01*
X110405153Y-74681724D01*
X110421808Y-74695392D01*
X110435476Y-74712047D01*
X110445629Y-74731043D01*
X110451884Y-74751662D01*
X110454600Y-74779240D01*
X110454600Y-75237960D01*
X110451884Y-75265538D01*
X110445629Y-75286157D01*
X110435476Y-75305153D01*
X110421808Y-75321808D01*
X110405153Y-75335476D01*
X110386157Y-75345629D01*
X110365538Y-75351884D01*
X110337960Y-75354600D01*
X109829240Y-75354600D01*
X109801662Y-75351884D01*
X109781043Y-75345629D01*
X109762047Y-75335476D01*
X109745392Y-75321808D01*
X109731724Y-75305153D01*
X109721571Y-75286157D01*
X109715316Y-75265538D01*
X109712600Y-75237960D01*
X109712600Y-74779240D01*
X109715316Y-74751662D01*
X109721571Y-74731043D01*
X109731724Y-74712047D01*
X109745392Y-74695392D01*
X109762047Y-74681724D01*
X109781043Y-74671571D01*
X109801662Y-74665316D01*
X109829240Y-74662600D01*
X110337960Y-74662600D01*
X110365538Y-74665316D01*
X110365538Y-74665316D01*
G37*
G36*
X60795438Y-74587116D02*
G01*
X60816057Y-74593371D01*
X60835053Y-74603524D01*
X60851708Y-74617192D01*
X60865376Y-74633847D01*
X60875529Y-74652843D01*
X60881784Y-74673462D01*
X60884500Y-74701040D01*
X60884500Y-75209760D01*
X60881784Y-75237338D01*
X60875529Y-75257957D01*
X60865376Y-75276953D01*
X60851708Y-75293608D01*
X60835053Y-75307276D01*
X60816057Y-75317429D01*
X60795438Y-75323684D01*
X60767860Y-75326400D01*
X60309140Y-75326400D01*
X60281562Y-75323684D01*
X60260943Y-75317429D01*
X60241947Y-75307276D01*
X60225292Y-75293608D01*
X60211624Y-75276953D01*
X60201471Y-75257957D01*
X60195216Y-75237338D01*
X60192500Y-75209760D01*
X60192500Y-74701040D01*
X60195216Y-74673462D01*
X60201471Y-74652843D01*
X60211624Y-74633847D01*
X60225292Y-74617192D01*
X60241947Y-74603524D01*
X60260943Y-74593371D01*
X60281562Y-74587116D01*
X60309140Y-74584400D01*
X60767860Y-74584400D01*
X60795438Y-74587116D01*
X60795438Y-74587116D01*
G37*
G36*
X61765438Y-74587116D02*
G01*
X61786057Y-74593371D01*
X61805053Y-74603524D01*
X61821708Y-74617192D01*
X61835376Y-74633847D01*
X61845529Y-74652843D01*
X61851784Y-74673462D01*
X61854500Y-74701040D01*
X61854500Y-75209760D01*
X61851784Y-75237338D01*
X61845529Y-75257957D01*
X61835376Y-75276953D01*
X61821708Y-75293608D01*
X61805053Y-75307276D01*
X61786057Y-75317429D01*
X61765438Y-75323684D01*
X61737860Y-75326400D01*
X61279140Y-75326400D01*
X61251562Y-75323684D01*
X61230943Y-75317429D01*
X61211947Y-75307276D01*
X61195292Y-75293608D01*
X61181624Y-75276953D01*
X61171471Y-75257957D01*
X61165216Y-75237338D01*
X61162500Y-75209760D01*
X61162500Y-74701040D01*
X61165216Y-74673462D01*
X61171471Y-74652843D01*
X61181624Y-74633847D01*
X61195292Y-74617192D01*
X61211947Y-74603524D01*
X61230943Y-74593371D01*
X61251562Y-74587116D01*
X61279140Y-74584400D01*
X61737860Y-74584400D01*
X61765438Y-74587116D01*
X61765438Y-74587116D01*
G37*
G36*
X74626169Y-74280944D02*
G01*
X74646788Y-74287199D01*
X74665784Y-74297352D01*
X74687205Y-74314932D01*
X75011574Y-74639301D01*
X75029154Y-74660722D01*
X75039307Y-74679718D01*
X75045562Y-74700337D01*
X75047673Y-74721775D01*
X75045562Y-74743213D01*
X75039307Y-74763832D01*
X75029154Y-74782828D01*
X75011574Y-74804249D01*
X74651849Y-75163974D01*
X74630428Y-75181554D01*
X74611432Y-75191707D01*
X74590813Y-75197962D01*
X74569375Y-75200073D01*
X74547937Y-75197962D01*
X74527318Y-75191707D01*
X74508322Y-75181554D01*
X74486901Y-75163974D01*
X74162532Y-74839605D01*
X74144952Y-74818184D01*
X74134799Y-74799188D01*
X74128544Y-74778569D01*
X74126433Y-74757131D01*
X74128544Y-74735693D01*
X74134799Y-74715074D01*
X74144952Y-74696078D01*
X74162532Y-74674657D01*
X74522257Y-74314932D01*
X74543678Y-74297352D01*
X74562674Y-74287199D01*
X74583293Y-74280944D01*
X74604731Y-74278833D01*
X74626169Y-74280944D01*
X74626169Y-74280944D01*
G37*
G36*
X115411500Y-74975500D02*
G01*
X113909500Y-74975500D01*
X113909500Y-73873500D01*
X115411500Y-73873500D01*
X115411500Y-74975500D01*
X115411500Y-74975500D01*
G37*
G36*
X117611500Y-74975500D02*
G01*
X116109500Y-74975500D01*
X116109500Y-73873500D01*
X117611500Y-73873500D01*
X117611500Y-74975500D01*
X117611500Y-74975500D01*
G37*
G36*
X111483138Y-73695316D02*
G01*
X111503757Y-73701571D01*
X111522753Y-73711724D01*
X111539408Y-73725392D01*
X111553076Y-73742047D01*
X111563229Y-73761043D01*
X111569484Y-73781662D01*
X111572200Y-73809240D01*
X111572200Y-74267960D01*
X111569484Y-74295538D01*
X111563229Y-74316157D01*
X111553076Y-74335153D01*
X111539408Y-74351808D01*
X111522753Y-74365476D01*
X111503757Y-74375629D01*
X111483138Y-74381884D01*
X111455560Y-74384600D01*
X110946840Y-74384600D01*
X110919262Y-74381884D01*
X110898643Y-74375629D01*
X110879647Y-74365476D01*
X110862992Y-74351808D01*
X110849324Y-74335153D01*
X110839171Y-74316157D01*
X110832916Y-74295538D01*
X110830200Y-74267960D01*
X110830200Y-73809240D01*
X110832916Y-73781662D01*
X110839171Y-73761043D01*
X110849324Y-73742047D01*
X110862992Y-73725392D01*
X110879647Y-73711724D01*
X110898643Y-73701571D01*
X110919262Y-73695316D01*
X110946840Y-73692600D01*
X111455560Y-73692600D01*
X111483138Y-73695316D01*
X111483138Y-73695316D01*
G37*
G36*
X110365538Y-73695316D02*
G01*
X110386157Y-73701571D01*
X110405153Y-73711724D01*
X110421808Y-73725392D01*
X110435476Y-73742047D01*
X110445629Y-73761043D01*
X110451884Y-73781662D01*
X110454600Y-73809240D01*
X110454600Y-74267960D01*
X110451884Y-74295538D01*
X110445629Y-74316157D01*
X110435476Y-74335153D01*
X110421808Y-74351808D01*
X110405153Y-74365476D01*
X110386157Y-74375629D01*
X110365538Y-74381884D01*
X110337960Y-74384600D01*
X109829240Y-74384600D01*
X109801662Y-74381884D01*
X109781043Y-74375629D01*
X109762047Y-74365476D01*
X109745392Y-74351808D01*
X109731724Y-74335153D01*
X109721571Y-74316157D01*
X109715316Y-74295538D01*
X109712600Y-74267960D01*
X109712600Y-73809240D01*
X109715316Y-73781662D01*
X109721571Y-73761043D01*
X109731724Y-73742047D01*
X109745392Y-73725392D01*
X109762047Y-73711724D01*
X109781043Y-73701571D01*
X109801662Y-73695316D01*
X109829240Y-73692600D01*
X110337960Y-73692600D01*
X110365538Y-73695316D01*
X110365538Y-73695316D01*
G37*
G36*
X61765438Y-73444116D02*
G01*
X61786057Y-73450371D01*
X61805053Y-73460524D01*
X61821708Y-73474192D01*
X61835376Y-73490847D01*
X61845529Y-73509843D01*
X61851784Y-73530462D01*
X61854500Y-73558040D01*
X61854500Y-74066760D01*
X61851784Y-74094338D01*
X61845529Y-74114957D01*
X61835376Y-74133953D01*
X61821708Y-74150608D01*
X61805053Y-74164276D01*
X61786057Y-74174429D01*
X61765438Y-74180684D01*
X61737860Y-74183400D01*
X61279140Y-74183400D01*
X61251562Y-74180684D01*
X61230943Y-74174429D01*
X61211947Y-74164276D01*
X61195292Y-74150608D01*
X61181624Y-74133953D01*
X61171471Y-74114957D01*
X61165216Y-74094338D01*
X61162500Y-74066760D01*
X61162500Y-73558040D01*
X61165216Y-73530462D01*
X61171471Y-73509843D01*
X61181624Y-73490847D01*
X61195292Y-73474192D01*
X61211947Y-73460524D01*
X61230943Y-73450371D01*
X61251562Y-73444116D01*
X61279140Y-73441400D01*
X61737860Y-73441400D01*
X61765438Y-73444116D01*
X61765438Y-73444116D01*
G37*
G36*
X60795438Y-73444116D02*
G01*
X60816057Y-73450371D01*
X60835053Y-73460524D01*
X60851708Y-73474192D01*
X60865376Y-73490847D01*
X60875529Y-73509843D01*
X60881784Y-73530462D01*
X60884500Y-73558040D01*
X60884500Y-74066760D01*
X60881784Y-74094338D01*
X60875529Y-74114957D01*
X60865376Y-74133953D01*
X60851708Y-74150608D01*
X60835053Y-74164276D01*
X60816057Y-74174429D01*
X60795438Y-74180684D01*
X60767860Y-74183400D01*
X60309140Y-74183400D01*
X60281562Y-74180684D01*
X60260943Y-74174429D01*
X60241947Y-74164276D01*
X60225292Y-74150608D01*
X60211624Y-74133953D01*
X60201471Y-74114957D01*
X60195216Y-74094338D01*
X60192500Y-74066760D01*
X60192500Y-73558040D01*
X60195216Y-73530462D01*
X60201471Y-73509843D01*
X60211624Y-73490847D01*
X60225292Y-73474192D01*
X60241947Y-73460524D01*
X60260943Y-73450371D01*
X60281562Y-73444116D01*
X60309140Y-73441400D01*
X60767860Y-73441400D01*
X60795438Y-73444116D01*
X60795438Y-73444116D01*
G37*
G36*
X61765438Y-72364616D02*
G01*
X61786057Y-72370871D01*
X61805053Y-72381024D01*
X61821708Y-72394692D01*
X61835376Y-72411347D01*
X61845529Y-72430343D01*
X61851784Y-72450962D01*
X61854500Y-72478540D01*
X61854500Y-72987260D01*
X61851784Y-73014838D01*
X61845529Y-73035457D01*
X61835376Y-73054453D01*
X61821708Y-73071108D01*
X61805053Y-73084776D01*
X61786057Y-73094929D01*
X61765438Y-73101184D01*
X61737860Y-73103900D01*
X61279140Y-73103900D01*
X61251562Y-73101184D01*
X61230943Y-73094929D01*
X61211947Y-73084776D01*
X61195292Y-73071108D01*
X61181624Y-73054453D01*
X61171471Y-73035457D01*
X61165216Y-73014838D01*
X61162500Y-72987260D01*
X61162500Y-72478540D01*
X61165216Y-72450962D01*
X61171471Y-72430343D01*
X61181624Y-72411347D01*
X61195292Y-72394692D01*
X61211947Y-72381024D01*
X61230943Y-72370871D01*
X61251562Y-72364616D01*
X61279140Y-72361900D01*
X61737860Y-72361900D01*
X61765438Y-72364616D01*
X61765438Y-72364616D01*
G37*
G36*
X60795438Y-72364616D02*
G01*
X60816057Y-72370871D01*
X60835053Y-72381024D01*
X60851708Y-72394692D01*
X60865376Y-72411347D01*
X60875529Y-72430343D01*
X60881784Y-72450962D01*
X60884500Y-72478540D01*
X60884500Y-72987260D01*
X60881784Y-73014838D01*
X60875529Y-73035457D01*
X60865376Y-73054453D01*
X60851708Y-73071108D01*
X60835053Y-73084776D01*
X60816057Y-73094929D01*
X60795438Y-73101184D01*
X60767860Y-73103900D01*
X60309140Y-73103900D01*
X60281562Y-73101184D01*
X60260943Y-73094929D01*
X60241947Y-73084776D01*
X60225292Y-73071108D01*
X60211624Y-73054453D01*
X60201471Y-73035457D01*
X60195216Y-73014838D01*
X60192500Y-72987260D01*
X60192500Y-72478540D01*
X60195216Y-72450962D01*
X60201471Y-72430343D01*
X60211624Y-72411347D01*
X60225292Y-72394692D01*
X60241947Y-72381024D01*
X60260943Y-72370871D01*
X60281562Y-72364616D01*
X60309140Y-72361900D01*
X60767860Y-72361900D01*
X60795438Y-72364616D01*
X60795438Y-72364616D01*
G37*
G36*
X69841013Y-71995038D02*
G01*
X69861632Y-72001293D01*
X69880628Y-72011446D01*
X69902049Y-72029026D01*
X70261774Y-72388751D01*
X70279354Y-72410172D01*
X70289507Y-72429168D01*
X70295762Y-72449787D01*
X70297873Y-72471225D01*
X70295762Y-72492663D01*
X70289507Y-72513282D01*
X70279354Y-72532278D01*
X70261774Y-72553699D01*
X69937405Y-72878068D01*
X69915984Y-72895648D01*
X69896988Y-72905801D01*
X69876369Y-72912056D01*
X69854931Y-72914167D01*
X69833493Y-72912056D01*
X69812874Y-72905801D01*
X69793878Y-72895648D01*
X69772457Y-72878068D01*
X69412732Y-72518343D01*
X69395152Y-72496922D01*
X69384999Y-72477926D01*
X69378744Y-72457307D01*
X69376633Y-72435869D01*
X69378744Y-72414431D01*
X69384999Y-72393812D01*
X69395152Y-72374816D01*
X69412732Y-72353395D01*
X69737101Y-72029026D01*
X69758522Y-72011446D01*
X69777518Y-72001293D01*
X69798137Y-71995038D01*
X69819575Y-71992927D01*
X69841013Y-71995038D01*
X69841013Y-71995038D01*
G37*
G36*
X71869838Y-72062356D02*
G01*
X71890457Y-72068611D01*
X71909453Y-72078764D01*
X71926108Y-72092432D01*
X71939776Y-72109087D01*
X71949929Y-72128083D01*
X71956184Y-72148702D01*
X71958900Y-72176280D01*
X71958900Y-72685000D01*
X71956184Y-72712578D01*
X71949929Y-72733197D01*
X71939776Y-72752193D01*
X71926108Y-72768848D01*
X71909453Y-72782516D01*
X71890457Y-72792669D01*
X71869838Y-72798924D01*
X71842260Y-72801640D01*
X71383540Y-72801640D01*
X71355962Y-72798924D01*
X71335343Y-72792669D01*
X71316347Y-72782516D01*
X71299692Y-72768848D01*
X71286024Y-72752193D01*
X71275871Y-72733197D01*
X71269616Y-72712578D01*
X71266900Y-72685000D01*
X71266900Y-72176280D01*
X71269616Y-72148702D01*
X71275871Y-72128083D01*
X71286024Y-72109087D01*
X71299692Y-72092432D01*
X71316347Y-72078764D01*
X71335343Y-72068611D01*
X71355962Y-72062356D01*
X71383540Y-72059640D01*
X71842260Y-72059640D01*
X71869838Y-72062356D01*
X71869838Y-72062356D01*
G37*
G36*
X72839838Y-72062356D02*
G01*
X72860457Y-72068611D01*
X72879453Y-72078764D01*
X72896108Y-72092432D01*
X72909776Y-72109087D01*
X72919929Y-72128083D01*
X72926184Y-72148702D01*
X72928900Y-72176280D01*
X72928900Y-72685000D01*
X72926184Y-72712578D01*
X72919929Y-72733197D01*
X72909776Y-72752193D01*
X72896108Y-72768848D01*
X72879453Y-72782516D01*
X72860457Y-72792669D01*
X72839838Y-72798924D01*
X72812260Y-72801640D01*
X72353540Y-72801640D01*
X72325962Y-72798924D01*
X72305343Y-72792669D01*
X72286347Y-72782516D01*
X72269692Y-72768848D01*
X72256024Y-72752193D01*
X72245871Y-72733197D01*
X72239616Y-72712578D01*
X72236900Y-72685000D01*
X72236900Y-72176280D01*
X72239616Y-72148702D01*
X72245871Y-72128083D01*
X72256024Y-72109087D01*
X72269692Y-72092432D01*
X72286347Y-72078764D01*
X72305343Y-72068611D01*
X72325962Y-72062356D01*
X72353540Y-72059640D01*
X72812260Y-72059640D01*
X72839838Y-72062356D01*
X72839838Y-72062356D01*
G37*
G36*
X70526907Y-71309144D02*
G01*
X70547526Y-71315399D01*
X70566522Y-71325552D01*
X70587943Y-71343132D01*
X70947668Y-71702857D01*
X70965248Y-71724278D01*
X70975401Y-71743274D01*
X70981656Y-71763893D01*
X70983767Y-71785331D01*
X70981656Y-71806769D01*
X70975401Y-71827388D01*
X70965248Y-71846384D01*
X70947668Y-71867805D01*
X70623299Y-72192174D01*
X70601878Y-72209754D01*
X70582882Y-72219907D01*
X70562263Y-72226162D01*
X70540825Y-72228273D01*
X70519387Y-72226162D01*
X70498768Y-72219907D01*
X70479772Y-72209754D01*
X70458351Y-72192174D01*
X70098626Y-71832449D01*
X70081046Y-71811028D01*
X70070893Y-71792032D01*
X70064638Y-71771413D01*
X70062527Y-71749975D01*
X70064638Y-71728537D01*
X70070893Y-71707918D01*
X70081046Y-71688922D01*
X70098626Y-71667501D01*
X70422995Y-71343132D01*
X70444416Y-71325552D01*
X70463412Y-71315399D01*
X70484031Y-71309144D01*
X70505469Y-71307033D01*
X70526907Y-71309144D01*
X70526907Y-71309144D01*
G37*
G36*
X69053613Y-71258438D02*
G01*
X69074232Y-71264693D01*
X69093228Y-71274846D01*
X69114649Y-71292426D01*
X69474374Y-71652151D01*
X69491954Y-71673572D01*
X69502107Y-71692568D01*
X69508362Y-71713187D01*
X69510473Y-71734625D01*
X69508362Y-71756063D01*
X69502107Y-71776682D01*
X69491954Y-71795678D01*
X69474374Y-71817099D01*
X69150005Y-72141468D01*
X69128584Y-72159048D01*
X69109588Y-72169201D01*
X69088969Y-72175456D01*
X69067531Y-72177567D01*
X69046093Y-72175456D01*
X69025474Y-72169201D01*
X69006478Y-72159048D01*
X68985057Y-72141468D01*
X68625332Y-71781743D01*
X68607752Y-71760322D01*
X68597599Y-71741326D01*
X68591344Y-71720707D01*
X68589233Y-71699269D01*
X68591344Y-71677831D01*
X68597599Y-71657212D01*
X68607752Y-71638216D01*
X68625332Y-71616795D01*
X68949701Y-71292426D01*
X68971122Y-71274846D01*
X68990118Y-71264693D01*
X69010737Y-71258438D01*
X69032175Y-71256327D01*
X69053613Y-71258438D01*
X69053613Y-71258438D01*
G37*
G36*
X116116500Y-69624501D02*
G01*
X116118902Y-69648887D01*
X116126015Y-69672336D01*
X116137566Y-69693947D01*
X116153111Y-69712889D01*
X116172053Y-69728434D01*
X116193664Y-69739985D01*
X116217113Y-69747098D01*
X116241499Y-69749500D01*
X117086500Y-69749500D01*
X117086500Y-71601500D01*
X116241499Y-71601500D01*
X116217113Y-71603902D01*
X116193664Y-71611015D01*
X116172053Y-71622566D01*
X116153111Y-71638111D01*
X116137566Y-71657053D01*
X116126015Y-71678664D01*
X116118902Y-71702113D01*
X116116500Y-71726499D01*
X116116500Y-71826500D01*
X115404500Y-71826500D01*
X115404500Y-71726499D01*
X115402098Y-71702113D01*
X115394985Y-71678664D01*
X115383434Y-71657053D01*
X115367889Y-71638111D01*
X115348947Y-71622566D01*
X115327336Y-71611015D01*
X115303887Y-71603902D01*
X115279501Y-71601500D01*
X114434500Y-71601500D01*
X114434500Y-69749500D01*
X115279501Y-69749500D01*
X115303887Y-69747098D01*
X115327336Y-69739985D01*
X115348947Y-69728434D01*
X115367889Y-69712889D01*
X115383434Y-69693947D01*
X115394985Y-69672336D01*
X115402098Y-69648887D01*
X115404500Y-69624501D01*
X115404500Y-69524500D01*
X116116500Y-69524500D01*
X116116500Y-69624501D01*
X116116500Y-69624501D01*
G37*
G36*
X105523591Y-70598085D02*
G01*
X105557569Y-70608393D01*
X105588890Y-70625134D01*
X105616339Y-70647661D01*
X105638866Y-70675110D01*
X105655607Y-70706431D01*
X105665915Y-70740409D01*
X105670000Y-70781890D01*
X105670000Y-71458110D01*
X105665915Y-71499591D01*
X105655607Y-71533569D01*
X105638866Y-71564890D01*
X105616339Y-71592339D01*
X105588890Y-71614866D01*
X105557569Y-71631607D01*
X105523591Y-71641915D01*
X105482110Y-71646000D01*
X104880890Y-71646000D01*
X104839409Y-71641915D01*
X104805431Y-71631607D01*
X104774110Y-71614866D01*
X104746661Y-71592339D01*
X104724134Y-71564890D01*
X104707393Y-71533569D01*
X104697085Y-71499591D01*
X104693000Y-71458110D01*
X104693000Y-70781890D01*
X104697085Y-70740409D01*
X104707393Y-70706431D01*
X104724134Y-70675110D01*
X104746661Y-70647661D01*
X104774110Y-70625134D01*
X104805431Y-70608393D01*
X104839409Y-70598085D01*
X104880890Y-70594000D01*
X105482110Y-70594000D01*
X105523591Y-70598085D01*
X105523591Y-70598085D01*
G37*
G36*
X103948591Y-70598085D02*
G01*
X103982569Y-70608393D01*
X104013890Y-70625134D01*
X104041339Y-70647661D01*
X104063866Y-70675110D01*
X104080607Y-70706431D01*
X104090915Y-70740409D01*
X104095000Y-70781890D01*
X104095000Y-71458110D01*
X104090915Y-71499591D01*
X104080607Y-71533569D01*
X104063866Y-71564890D01*
X104041339Y-71592339D01*
X104013890Y-71614866D01*
X103982569Y-71631607D01*
X103948591Y-71641915D01*
X103907110Y-71646000D01*
X103305890Y-71646000D01*
X103264409Y-71641915D01*
X103230431Y-71631607D01*
X103199110Y-71614866D01*
X103171661Y-71592339D01*
X103149134Y-71564890D01*
X103132393Y-71533569D01*
X103122085Y-71499591D01*
X103118000Y-71458110D01*
X103118000Y-70781890D01*
X103122085Y-70740409D01*
X103132393Y-70706431D01*
X103149134Y-70675110D01*
X103171661Y-70647661D01*
X103199110Y-70625134D01*
X103230431Y-70608393D01*
X103264409Y-70598085D01*
X103305890Y-70594000D01*
X103907110Y-70594000D01*
X103948591Y-70598085D01*
X103948591Y-70598085D01*
G37*
G36*
X64671938Y-70831716D02*
G01*
X64692557Y-70837971D01*
X64711553Y-70848124D01*
X64728208Y-70861792D01*
X64741876Y-70878447D01*
X64752029Y-70897443D01*
X64758284Y-70918062D01*
X64761000Y-70945640D01*
X64761000Y-71454360D01*
X64758284Y-71481938D01*
X64752029Y-71502557D01*
X64741876Y-71521553D01*
X64728208Y-71538208D01*
X64711553Y-71551876D01*
X64692557Y-71562029D01*
X64671938Y-71568284D01*
X64644360Y-71571000D01*
X64185640Y-71571000D01*
X64158062Y-71568284D01*
X64137443Y-71562029D01*
X64118447Y-71551876D01*
X64101792Y-71538208D01*
X64088124Y-71521553D01*
X64077971Y-71502557D01*
X64071716Y-71481938D01*
X64069000Y-71454360D01*
X64069000Y-70945640D01*
X64071716Y-70918062D01*
X64077971Y-70897443D01*
X64088124Y-70878447D01*
X64101792Y-70861792D01*
X64118447Y-70848124D01*
X64137443Y-70837971D01*
X64158062Y-70831716D01*
X64185640Y-70829000D01*
X64644360Y-70829000D01*
X64671938Y-70831716D01*
X64671938Y-70831716D01*
G37*
G36*
X65641938Y-70831716D02*
G01*
X65662557Y-70837971D01*
X65681553Y-70848124D01*
X65698208Y-70861792D01*
X65711876Y-70878447D01*
X65722029Y-70897443D01*
X65728284Y-70918062D01*
X65731000Y-70945640D01*
X65731000Y-71454360D01*
X65728284Y-71481938D01*
X65722029Y-71502557D01*
X65711876Y-71521553D01*
X65698208Y-71538208D01*
X65681553Y-71551876D01*
X65662557Y-71562029D01*
X65641938Y-71568284D01*
X65614360Y-71571000D01*
X65155640Y-71571000D01*
X65128062Y-71568284D01*
X65107443Y-71562029D01*
X65088447Y-71551876D01*
X65071792Y-71538208D01*
X65058124Y-71521553D01*
X65047971Y-71502557D01*
X65041716Y-71481938D01*
X65039000Y-71454360D01*
X65039000Y-70945640D01*
X65041716Y-70918062D01*
X65047971Y-70897443D01*
X65058124Y-70878447D01*
X65071792Y-70861792D01*
X65088447Y-70848124D01*
X65107443Y-70837971D01*
X65128062Y-70831716D01*
X65155640Y-70829000D01*
X65614360Y-70829000D01*
X65641938Y-70831716D01*
X65641938Y-70831716D01*
G37*
G36*
X69739507Y-70572544D02*
G01*
X69760126Y-70578799D01*
X69779122Y-70588952D01*
X69800543Y-70606532D01*
X70160268Y-70966257D01*
X70177848Y-70987678D01*
X70188001Y-71006674D01*
X70194256Y-71027293D01*
X70196367Y-71048731D01*
X70194256Y-71070169D01*
X70188001Y-71090788D01*
X70177848Y-71109784D01*
X70160268Y-71131205D01*
X69835899Y-71455574D01*
X69814478Y-71473154D01*
X69795482Y-71483307D01*
X69774863Y-71489562D01*
X69753425Y-71491673D01*
X69731987Y-71489562D01*
X69711368Y-71483307D01*
X69692372Y-71473154D01*
X69670951Y-71455574D01*
X69311226Y-71095849D01*
X69293646Y-71074428D01*
X69283493Y-71055432D01*
X69277238Y-71034813D01*
X69275127Y-71013375D01*
X69277238Y-70991937D01*
X69283493Y-70971318D01*
X69293646Y-70952322D01*
X69311226Y-70930901D01*
X69635595Y-70606532D01*
X69657016Y-70588952D01*
X69676012Y-70578799D01*
X69696631Y-70572544D01*
X69718069Y-70570433D01*
X69739507Y-70572544D01*
X69739507Y-70572544D01*
G37*
G36*
X77745880Y-66339776D02*
G01*
X78126593Y-66415504D01*
X78536249Y-66585189D01*
X78904929Y-66831534D01*
X79218466Y-67145071D01*
X79464811Y-67513751D01*
X79634496Y-67923407D01*
X79721000Y-68358296D01*
X79721000Y-68801704D01*
X79634496Y-69236593D01*
X79464811Y-69646249D01*
X79218466Y-70014929D01*
X78904929Y-70328466D01*
X78536249Y-70574811D01*
X78126593Y-70744496D01*
X77745880Y-70820224D01*
X77691705Y-70831000D01*
X77248295Y-70831000D01*
X77194120Y-70820224D01*
X76813407Y-70744496D01*
X76403751Y-70574811D01*
X76035071Y-70328466D01*
X75721534Y-70014929D01*
X75475189Y-69646249D01*
X75305504Y-69236593D01*
X75219000Y-68801704D01*
X75219000Y-68358296D01*
X75305504Y-67923407D01*
X75475189Y-67513751D01*
X75721534Y-67145071D01*
X76035071Y-66831534D01*
X76403751Y-66585189D01*
X76813407Y-66415504D01*
X77194120Y-66339776D01*
X77248295Y-66329000D01*
X77691705Y-66329000D01*
X77745880Y-66339776D01*
X77745880Y-66339776D01*
G37*
G36*
X65616938Y-69756716D02*
G01*
X65637557Y-69762971D01*
X65656553Y-69773124D01*
X65673208Y-69786792D01*
X65686876Y-69803447D01*
X65697029Y-69822443D01*
X65703284Y-69843062D01*
X65706000Y-69870640D01*
X65706000Y-70379360D01*
X65703284Y-70406938D01*
X65697029Y-70427557D01*
X65686876Y-70446553D01*
X65673208Y-70463208D01*
X65656553Y-70476876D01*
X65637557Y-70487029D01*
X65616938Y-70493284D01*
X65589360Y-70496000D01*
X65130640Y-70496000D01*
X65103062Y-70493284D01*
X65082443Y-70487029D01*
X65063447Y-70476876D01*
X65046792Y-70463208D01*
X65033124Y-70446553D01*
X65022971Y-70427557D01*
X65016716Y-70406938D01*
X65014000Y-70379360D01*
X65014000Y-69870640D01*
X65016716Y-69843062D01*
X65022971Y-69822443D01*
X65033124Y-69803447D01*
X65046792Y-69786792D01*
X65063447Y-69773124D01*
X65082443Y-69762971D01*
X65103062Y-69756716D01*
X65130640Y-69754000D01*
X65589360Y-69754000D01*
X65616938Y-69756716D01*
X65616938Y-69756716D01*
G37*
G36*
X64646938Y-69756716D02*
G01*
X64667557Y-69762971D01*
X64686553Y-69773124D01*
X64703208Y-69786792D01*
X64716876Y-69803447D01*
X64727029Y-69822443D01*
X64733284Y-69843062D01*
X64736000Y-69870640D01*
X64736000Y-70379360D01*
X64733284Y-70406938D01*
X64727029Y-70427557D01*
X64716876Y-70446553D01*
X64703208Y-70463208D01*
X64686553Y-70476876D01*
X64667557Y-70487029D01*
X64646938Y-70493284D01*
X64619360Y-70496000D01*
X64160640Y-70496000D01*
X64133062Y-70493284D01*
X64112443Y-70487029D01*
X64093447Y-70476876D01*
X64076792Y-70463208D01*
X64063124Y-70446553D01*
X64052971Y-70427557D01*
X64046716Y-70406938D01*
X64044000Y-70379360D01*
X64044000Y-69870640D01*
X64046716Y-69843062D01*
X64052971Y-69822443D01*
X64063124Y-69803447D01*
X64076792Y-69786792D01*
X64093447Y-69773124D01*
X64112443Y-69762971D01*
X64133062Y-69756716D01*
X64160640Y-69754000D01*
X64619360Y-69754000D01*
X64646938Y-69756716D01*
X64646938Y-69756716D01*
G37*
G36*
X113883438Y-69547216D02*
G01*
X113904057Y-69553471D01*
X113923053Y-69563624D01*
X113939708Y-69577292D01*
X113953376Y-69593947D01*
X113963529Y-69612943D01*
X113969784Y-69633562D01*
X113972500Y-69661140D01*
X113972500Y-70119860D01*
X113969784Y-70147438D01*
X113963529Y-70168057D01*
X113953376Y-70187053D01*
X113939708Y-70203708D01*
X113923053Y-70217376D01*
X113904057Y-70227529D01*
X113883438Y-70233784D01*
X113855860Y-70236500D01*
X113347140Y-70236500D01*
X113319562Y-70233784D01*
X113298943Y-70227529D01*
X113279947Y-70217376D01*
X113263292Y-70203708D01*
X113249624Y-70187053D01*
X113239471Y-70168057D01*
X113233216Y-70147438D01*
X113230500Y-70119860D01*
X113230500Y-69661140D01*
X113233216Y-69633562D01*
X113239471Y-69612943D01*
X113249624Y-69593947D01*
X113263292Y-69577292D01*
X113279947Y-69563624D01*
X113298943Y-69553471D01*
X113319562Y-69547216D01*
X113347140Y-69544500D01*
X113855860Y-69544500D01*
X113883438Y-69547216D01*
X113883438Y-69547216D01*
G37*
G36*
X68047138Y-68719716D02*
G01*
X68067757Y-68725971D01*
X68086753Y-68736124D01*
X68103408Y-68749792D01*
X68117076Y-68766447D01*
X68127229Y-68785443D01*
X68133484Y-68806062D01*
X68136200Y-68833640D01*
X68136200Y-69342360D01*
X68133484Y-69369938D01*
X68127229Y-69390557D01*
X68117076Y-69409553D01*
X68103408Y-69426208D01*
X68086753Y-69439876D01*
X68067757Y-69450029D01*
X68047138Y-69456284D01*
X68019560Y-69459000D01*
X67560840Y-69459000D01*
X67533262Y-69456284D01*
X67512643Y-69450029D01*
X67493647Y-69439876D01*
X67476992Y-69426208D01*
X67463324Y-69409553D01*
X67453171Y-69390557D01*
X67446916Y-69369938D01*
X67444200Y-69342360D01*
X67444200Y-68833640D01*
X67446916Y-68806062D01*
X67453171Y-68785443D01*
X67463324Y-68766447D01*
X67476992Y-68749792D01*
X67493647Y-68736124D01*
X67512643Y-68725971D01*
X67533262Y-68719716D01*
X67560840Y-68717000D01*
X68019560Y-68717000D01*
X68047138Y-68719716D01*
X68047138Y-68719716D01*
G37*
G36*
X69017138Y-68719716D02*
G01*
X69037757Y-68725971D01*
X69056753Y-68736124D01*
X69073408Y-68749792D01*
X69087076Y-68766447D01*
X69097229Y-68785443D01*
X69103484Y-68806062D01*
X69106200Y-68833640D01*
X69106200Y-69342360D01*
X69103484Y-69369938D01*
X69097229Y-69390557D01*
X69087076Y-69409553D01*
X69073408Y-69426208D01*
X69056753Y-69439876D01*
X69037757Y-69450029D01*
X69017138Y-69456284D01*
X68989560Y-69459000D01*
X68530840Y-69459000D01*
X68503262Y-69456284D01*
X68482643Y-69450029D01*
X68463647Y-69439876D01*
X68446992Y-69426208D01*
X68433324Y-69409553D01*
X68423171Y-69390557D01*
X68416916Y-69369938D01*
X68414200Y-69342360D01*
X68414200Y-68833640D01*
X68416916Y-68806062D01*
X68423171Y-68785443D01*
X68433324Y-68766447D01*
X68446992Y-68749792D01*
X68463647Y-68736124D01*
X68482643Y-68725971D01*
X68503262Y-68719716D01*
X68530840Y-68717000D01*
X68989560Y-68717000D01*
X69017138Y-68719716D01*
X69017138Y-68719716D01*
G37*
G36*
X64646938Y-68681716D02*
G01*
X64667557Y-68687971D01*
X64686553Y-68698124D01*
X64703208Y-68711792D01*
X64716876Y-68728447D01*
X64727029Y-68747443D01*
X64733284Y-68768062D01*
X64736000Y-68795640D01*
X64736000Y-69304360D01*
X64733284Y-69331938D01*
X64727029Y-69352557D01*
X64716876Y-69371553D01*
X64703208Y-69388208D01*
X64686553Y-69401876D01*
X64667557Y-69412029D01*
X64646938Y-69418284D01*
X64619360Y-69421000D01*
X64160640Y-69421000D01*
X64133062Y-69418284D01*
X64112443Y-69412029D01*
X64093447Y-69401876D01*
X64076792Y-69388208D01*
X64063124Y-69371553D01*
X64052971Y-69352557D01*
X64046716Y-69331938D01*
X64044000Y-69304360D01*
X64044000Y-68795640D01*
X64046716Y-68768062D01*
X64052971Y-68747443D01*
X64063124Y-68728447D01*
X64076792Y-68711792D01*
X64093447Y-68698124D01*
X64112443Y-68687971D01*
X64133062Y-68681716D01*
X64160640Y-68679000D01*
X64619360Y-68679000D01*
X64646938Y-68681716D01*
X64646938Y-68681716D01*
G37*
G36*
X65616938Y-68681716D02*
G01*
X65637557Y-68687971D01*
X65656553Y-68698124D01*
X65673208Y-68711792D01*
X65686876Y-68728447D01*
X65697029Y-68747443D01*
X65703284Y-68768062D01*
X65706000Y-68795640D01*
X65706000Y-69304360D01*
X65703284Y-69331938D01*
X65697029Y-69352557D01*
X65686876Y-69371553D01*
X65673208Y-69388208D01*
X65656553Y-69401876D01*
X65637557Y-69412029D01*
X65616938Y-69418284D01*
X65589360Y-69421000D01*
X65130640Y-69421000D01*
X65103062Y-69418284D01*
X65082443Y-69412029D01*
X65063447Y-69401876D01*
X65046792Y-69388208D01*
X65033124Y-69371553D01*
X65022971Y-69352557D01*
X65016716Y-69331938D01*
X65014000Y-69304360D01*
X65014000Y-68795640D01*
X65016716Y-68768062D01*
X65022971Y-68747443D01*
X65033124Y-68728447D01*
X65046792Y-68711792D01*
X65063447Y-68698124D01*
X65082443Y-68687971D01*
X65103062Y-68681716D01*
X65130640Y-68679000D01*
X65589360Y-68679000D01*
X65616938Y-68681716D01*
X65616938Y-68681716D01*
G37*
G36*
X113883438Y-68577216D02*
G01*
X113904057Y-68583471D01*
X113923053Y-68593624D01*
X113939708Y-68607292D01*
X113953376Y-68623947D01*
X113963529Y-68642943D01*
X113969784Y-68663562D01*
X113972500Y-68691140D01*
X113972500Y-69149860D01*
X113969784Y-69177438D01*
X113963529Y-69198057D01*
X113953376Y-69217053D01*
X113939708Y-69233708D01*
X113923053Y-69247376D01*
X113904057Y-69257529D01*
X113883438Y-69263784D01*
X113855860Y-69266500D01*
X113347140Y-69266500D01*
X113319562Y-69263784D01*
X113298943Y-69257529D01*
X113279947Y-69247376D01*
X113263292Y-69233708D01*
X113249624Y-69217053D01*
X113239471Y-69198057D01*
X113233216Y-69177438D01*
X113230500Y-69149860D01*
X113230500Y-68691140D01*
X113233216Y-68663562D01*
X113239471Y-68642943D01*
X113249624Y-68623947D01*
X113263292Y-68607292D01*
X113279947Y-68593624D01*
X113298943Y-68583471D01*
X113319562Y-68577216D01*
X113347140Y-68574500D01*
X113855860Y-68574500D01*
X113883438Y-68577216D01*
X113883438Y-68577216D01*
G37*
G36*
X70182738Y-68569316D02*
G01*
X70203357Y-68575571D01*
X70222353Y-68585724D01*
X70239008Y-68599392D01*
X70252676Y-68616047D01*
X70262829Y-68635043D01*
X70269084Y-68655662D01*
X70271800Y-68683240D01*
X70271800Y-69141960D01*
X70269084Y-69169538D01*
X70262829Y-69190157D01*
X70252676Y-69209153D01*
X70239008Y-69225808D01*
X70222353Y-69239476D01*
X70203357Y-69249629D01*
X70182738Y-69255884D01*
X70155160Y-69258600D01*
X69646440Y-69258600D01*
X69618862Y-69255884D01*
X69598243Y-69249629D01*
X69579247Y-69239476D01*
X69562592Y-69225808D01*
X69548924Y-69209153D01*
X69538771Y-69190157D01*
X69532516Y-69169538D01*
X69529800Y-69141960D01*
X69529800Y-68683240D01*
X69532516Y-68655662D01*
X69538771Y-68635043D01*
X69548924Y-68616047D01*
X69562592Y-68599392D01*
X69579247Y-68585724D01*
X69598243Y-68575571D01*
X69618862Y-68569316D01*
X69646440Y-68566600D01*
X70155160Y-68566600D01*
X70182738Y-68569316D01*
X70182738Y-68569316D01*
G37*
G36*
X103923091Y-67931085D02*
G01*
X103957069Y-67941393D01*
X103988390Y-67958134D01*
X104015839Y-67980661D01*
X104038366Y-68008110D01*
X104055107Y-68039431D01*
X104065415Y-68073409D01*
X104069500Y-68114890D01*
X104069500Y-68791110D01*
X104065415Y-68832591D01*
X104055107Y-68866569D01*
X104038366Y-68897890D01*
X104015839Y-68925339D01*
X103988390Y-68947866D01*
X103957069Y-68964607D01*
X103923091Y-68974915D01*
X103881610Y-68979000D01*
X103280390Y-68979000D01*
X103238909Y-68974915D01*
X103204931Y-68964607D01*
X103173610Y-68947866D01*
X103146161Y-68925339D01*
X103123634Y-68897890D01*
X103106893Y-68866569D01*
X103096585Y-68832591D01*
X103092500Y-68791110D01*
X103092500Y-68114890D01*
X103096585Y-68073409D01*
X103106893Y-68039431D01*
X103123634Y-68008110D01*
X103146161Y-67980661D01*
X103173610Y-67958134D01*
X103204931Y-67941393D01*
X103238909Y-67931085D01*
X103280390Y-67927000D01*
X103881610Y-67927000D01*
X103923091Y-67931085D01*
X103923091Y-67931085D01*
G37*
G36*
X105498091Y-67931085D02*
G01*
X105532069Y-67941393D01*
X105563390Y-67958134D01*
X105590839Y-67980661D01*
X105613366Y-68008110D01*
X105630107Y-68039431D01*
X105640415Y-68073409D01*
X105644500Y-68114890D01*
X105644500Y-68791110D01*
X105640415Y-68832591D01*
X105630107Y-68866569D01*
X105613366Y-68897890D01*
X105590839Y-68925339D01*
X105563390Y-68947866D01*
X105532069Y-68964607D01*
X105498091Y-68974915D01*
X105456610Y-68979000D01*
X104855390Y-68979000D01*
X104813909Y-68974915D01*
X104779931Y-68964607D01*
X104748610Y-68947866D01*
X104721161Y-68925339D01*
X104698634Y-68897890D01*
X104681893Y-68866569D01*
X104671585Y-68832591D01*
X104667500Y-68791110D01*
X104667500Y-68114890D01*
X104671585Y-68073409D01*
X104681893Y-68039431D01*
X104698634Y-68008110D01*
X104721161Y-67980661D01*
X104748610Y-67958134D01*
X104779931Y-67941393D01*
X104813909Y-67931085D01*
X104855390Y-67927000D01*
X105456610Y-67927000D01*
X105498091Y-67931085D01*
X105498091Y-67931085D01*
G37*
G36*
X70182738Y-67599316D02*
G01*
X70203357Y-67605571D01*
X70222353Y-67615724D01*
X70239008Y-67629392D01*
X70252676Y-67646047D01*
X70262829Y-67665043D01*
X70269084Y-67685662D01*
X70271800Y-67713240D01*
X70271800Y-68171960D01*
X70269084Y-68199538D01*
X70262829Y-68220157D01*
X70252676Y-68239153D01*
X70239008Y-68255808D01*
X70222353Y-68269476D01*
X70203357Y-68279629D01*
X70182738Y-68285884D01*
X70155160Y-68288600D01*
X69646440Y-68288600D01*
X69618862Y-68285884D01*
X69598243Y-68279629D01*
X69579247Y-68269476D01*
X69562592Y-68255808D01*
X69548924Y-68239153D01*
X69538771Y-68220157D01*
X69532516Y-68199538D01*
X69529800Y-68171960D01*
X69529800Y-67713240D01*
X69532516Y-67685662D01*
X69538771Y-67665043D01*
X69548924Y-67646047D01*
X69562592Y-67629392D01*
X69579247Y-67615724D01*
X69598243Y-67605571D01*
X69618862Y-67599316D01*
X69646440Y-67596600D01*
X70155160Y-67596600D01*
X70182738Y-67599316D01*
X70182738Y-67599316D01*
G37*
G36*
X68047138Y-67449716D02*
G01*
X68067757Y-67455971D01*
X68086753Y-67466124D01*
X68103408Y-67479792D01*
X68117076Y-67496447D01*
X68127229Y-67515443D01*
X68133484Y-67536062D01*
X68136200Y-67563640D01*
X68136200Y-68072360D01*
X68133484Y-68099938D01*
X68127229Y-68120557D01*
X68117076Y-68139553D01*
X68103408Y-68156208D01*
X68086753Y-68169876D01*
X68067757Y-68180029D01*
X68047138Y-68186284D01*
X68019560Y-68189000D01*
X67560840Y-68189000D01*
X67533262Y-68186284D01*
X67512643Y-68180029D01*
X67493647Y-68169876D01*
X67476992Y-68156208D01*
X67463324Y-68139553D01*
X67453171Y-68120557D01*
X67446916Y-68099938D01*
X67444200Y-68072360D01*
X67444200Y-67563640D01*
X67446916Y-67536062D01*
X67453171Y-67515443D01*
X67463324Y-67496447D01*
X67476992Y-67479792D01*
X67493647Y-67466124D01*
X67512643Y-67455971D01*
X67533262Y-67449716D01*
X67560840Y-67447000D01*
X68019560Y-67447000D01*
X68047138Y-67449716D01*
X68047138Y-67449716D01*
G37*
G36*
X69017138Y-67449716D02*
G01*
X69037757Y-67455971D01*
X69056753Y-67466124D01*
X69073408Y-67479792D01*
X69087076Y-67496447D01*
X69097229Y-67515443D01*
X69103484Y-67536062D01*
X69106200Y-67563640D01*
X69106200Y-68072360D01*
X69103484Y-68099938D01*
X69097229Y-68120557D01*
X69087076Y-68139553D01*
X69073408Y-68156208D01*
X69056753Y-68169876D01*
X69037757Y-68180029D01*
X69017138Y-68186284D01*
X68989560Y-68189000D01*
X68530840Y-68189000D01*
X68503262Y-68186284D01*
X68482643Y-68180029D01*
X68463647Y-68169876D01*
X68446992Y-68156208D01*
X68433324Y-68139553D01*
X68423171Y-68120557D01*
X68416916Y-68099938D01*
X68414200Y-68072360D01*
X68414200Y-67563640D01*
X68416916Y-67536062D01*
X68423171Y-67515443D01*
X68433324Y-67496447D01*
X68446992Y-67479792D01*
X68463647Y-67466124D01*
X68482643Y-67455971D01*
X68503262Y-67449716D01*
X68530840Y-67447000D01*
X68989560Y-67447000D01*
X69017138Y-67449716D01*
X69017138Y-67449716D01*
G37*
G36*
X119280938Y-67451716D02*
G01*
X119301557Y-67457971D01*
X119320553Y-67468124D01*
X119337208Y-67481792D01*
X119350876Y-67498447D01*
X119361029Y-67517443D01*
X119367284Y-67538062D01*
X119370000Y-67565640D01*
X119370000Y-68024360D01*
X119367284Y-68051938D01*
X119361029Y-68072557D01*
X119350876Y-68091553D01*
X119337208Y-68108208D01*
X119320553Y-68121876D01*
X119301557Y-68132029D01*
X119280938Y-68138284D01*
X119253360Y-68141000D01*
X118744640Y-68141000D01*
X118717062Y-68138284D01*
X118696443Y-68132029D01*
X118677447Y-68121876D01*
X118660792Y-68108208D01*
X118647124Y-68091553D01*
X118636971Y-68072557D01*
X118630716Y-68051938D01*
X118628000Y-68024360D01*
X118628000Y-67565640D01*
X118630716Y-67538062D01*
X118636971Y-67517443D01*
X118647124Y-67498447D01*
X118660792Y-67481792D01*
X118677447Y-67468124D01*
X118696443Y-67457971D01*
X118717062Y-67451716D01*
X118744640Y-67449000D01*
X119253360Y-67449000D01*
X119280938Y-67451716D01*
X119280938Y-67451716D01*
G37*
G36*
X120423938Y-67451716D02*
G01*
X120444557Y-67457971D01*
X120463553Y-67468124D01*
X120480208Y-67481792D01*
X120493876Y-67498447D01*
X120504029Y-67517443D01*
X120510284Y-67538062D01*
X120513000Y-67565640D01*
X120513000Y-68024360D01*
X120510284Y-68051938D01*
X120504029Y-68072557D01*
X120493876Y-68091553D01*
X120480208Y-68108208D01*
X120463553Y-68121876D01*
X120444557Y-68132029D01*
X120423938Y-68138284D01*
X120396360Y-68141000D01*
X119887640Y-68141000D01*
X119860062Y-68138284D01*
X119839443Y-68132029D01*
X119820447Y-68121876D01*
X119803792Y-68108208D01*
X119790124Y-68091553D01*
X119779971Y-68072557D01*
X119773716Y-68051938D01*
X119771000Y-68024360D01*
X119771000Y-67565640D01*
X119773716Y-67538062D01*
X119779971Y-67517443D01*
X119790124Y-67498447D01*
X119803792Y-67481792D01*
X119820447Y-67468124D01*
X119839443Y-67457971D01*
X119860062Y-67451716D01*
X119887640Y-67449000D01*
X120396360Y-67449000D01*
X120423938Y-67451716D01*
X120423938Y-67451716D01*
G37*
G36*
X118137938Y-67451716D02*
G01*
X118158557Y-67457971D01*
X118177553Y-67468124D01*
X118194208Y-67481792D01*
X118207876Y-67498447D01*
X118218029Y-67517443D01*
X118224284Y-67538062D01*
X118227000Y-67565640D01*
X118227000Y-68024360D01*
X118224284Y-68051938D01*
X118218029Y-68072557D01*
X118207876Y-68091553D01*
X118194208Y-68108208D01*
X118177553Y-68121876D01*
X118158557Y-68132029D01*
X118137938Y-68138284D01*
X118110360Y-68141000D01*
X117601640Y-68141000D01*
X117574062Y-68138284D01*
X117553443Y-68132029D01*
X117534447Y-68121876D01*
X117517792Y-68108208D01*
X117504124Y-68091553D01*
X117493971Y-68072557D01*
X117487716Y-68051938D01*
X117485000Y-68024360D01*
X117485000Y-67565640D01*
X117487716Y-67538062D01*
X117493971Y-67517443D01*
X117504124Y-67498447D01*
X117517792Y-67481792D01*
X117534447Y-67468124D01*
X117553443Y-67457971D01*
X117574062Y-67451716D01*
X117601640Y-67449000D01*
X118110360Y-67449000D01*
X118137938Y-67451716D01*
X118137938Y-67451716D01*
G37*
G36*
X118137938Y-66481716D02*
G01*
X118158557Y-66487971D01*
X118177553Y-66498124D01*
X118194208Y-66511792D01*
X118207876Y-66528447D01*
X118218029Y-66547443D01*
X118224284Y-66568062D01*
X118227000Y-66595640D01*
X118227000Y-67054360D01*
X118224284Y-67081938D01*
X118218029Y-67102557D01*
X118207876Y-67121553D01*
X118194208Y-67138208D01*
X118177553Y-67151876D01*
X118158557Y-67162029D01*
X118137938Y-67168284D01*
X118110360Y-67171000D01*
X117601640Y-67171000D01*
X117574062Y-67168284D01*
X117553443Y-67162029D01*
X117534447Y-67151876D01*
X117517792Y-67138208D01*
X117504124Y-67121553D01*
X117493971Y-67102557D01*
X117487716Y-67081938D01*
X117485000Y-67054360D01*
X117485000Y-66595640D01*
X117487716Y-66568062D01*
X117493971Y-66547443D01*
X117504124Y-66528447D01*
X117517792Y-66511792D01*
X117534447Y-66498124D01*
X117553443Y-66487971D01*
X117574062Y-66481716D01*
X117601640Y-66479000D01*
X118110360Y-66479000D01*
X118137938Y-66481716D01*
X118137938Y-66481716D01*
G37*
G36*
X119280938Y-66481716D02*
G01*
X119301557Y-66487971D01*
X119320553Y-66498124D01*
X119337208Y-66511792D01*
X119350876Y-66528447D01*
X119361029Y-66547443D01*
X119367284Y-66568062D01*
X119370000Y-66595640D01*
X119370000Y-67054360D01*
X119367284Y-67081938D01*
X119361029Y-67102557D01*
X119350876Y-67121553D01*
X119337208Y-67138208D01*
X119320553Y-67151876D01*
X119301557Y-67162029D01*
X119280938Y-67168284D01*
X119253360Y-67171000D01*
X118744640Y-67171000D01*
X118717062Y-67168284D01*
X118696443Y-67162029D01*
X118677447Y-67151876D01*
X118660792Y-67138208D01*
X118647124Y-67121553D01*
X118636971Y-67102557D01*
X118630716Y-67081938D01*
X118628000Y-67054360D01*
X118628000Y-66595640D01*
X118630716Y-66568062D01*
X118636971Y-66547443D01*
X118647124Y-66528447D01*
X118660792Y-66511792D01*
X118677447Y-66498124D01*
X118696443Y-66487971D01*
X118717062Y-66481716D01*
X118744640Y-66479000D01*
X119253360Y-66479000D01*
X119280938Y-66481716D01*
X119280938Y-66481716D01*
G37*
G36*
X120423938Y-66481716D02*
G01*
X120444557Y-66487971D01*
X120463553Y-66498124D01*
X120480208Y-66511792D01*
X120493876Y-66528447D01*
X120504029Y-66547443D01*
X120510284Y-66568062D01*
X120513000Y-66595640D01*
X120513000Y-67054360D01*
X120510284Y-67081938D01*
X120504029Y-67102557D01*
X120493876Y-67121553D01*
X120480208Y-67138208D01*
X120463553Y-67151876D01*
X120444557Y-67162029D01*
X120423938Y-67168284D01*
X120396360Y-67171000D01*
X119887640Y-67171000D01*
X119860062Y-67168284D01*
X119839443Y-67162029D01*
X119820447Y-67151876D01*
X119803792Y-67138208D01*
X119790124Y-67121553D01*
X119779971Y-67102557D01*
X119773716Y-67081938D01*
X119771000Y-67054360D01*
X119771000Y-66595640D01*
X119773716Y-66568062D01*
X119779971Y-66547443D01*
X119790124Y-66528447D01*
X119803792Y-66511792D01*
X119820447Y-66498124D01*
X119839443Y-66487971D01*
X119860062Y-66481716D01*
X119887640Y-66479000D01*
X120396360Y-66479000D01*
X120423938Y-66481716D01*
X120423938Y-66481716D01*
G37*
G36*
X122453938Y-65163716D02*
G01*
X122474557Y-65169971D01*
X122493553Y-65180124D01*
X122510208Y-65193792D01*
X122523876Y-65210447D01*
X122534029Y-65229443D01*
X122540284Y-65250062D01*
X122543000Y-65277640D01*
X122543000Y-65786360D01*
X122540284Y-65813938D01*
X122534029Y-65834557D01*
X122523876Y-65853553D01*
X122510208Y-65870208D01*
X122493553Y-65883876D01*
X122474557Y-65894029D01*
X122453938Y-65900284D01*
X122426360Y-65903000D01*
X121967640Y-65903000D01*
X121940062Y-65900284D01*
X121919443Y-65894029D01*
X121900447Y-65883876D01*
X121883792Y-65870208D01*
X121870124Y-65853553D01*
X121859971Y-65834557D01*
X121853716Y-65813938D01*
X121851000Y-65786360D01*
X121851000Y-65277640D01*
X121853716Y-65250062D01*
X121859971Y-65229443D01*
X121870124Y-65210447D01*
X121883792Y-65193792D01*
X121900447Y-65180124D01*
X121919443Y-65169971D01*
X121940062Y-65163716D01*
X121967640Y-65161000D01*
X122426360Y-65161000D01*
X122453938Y-65163716D01*
X122453938Y-65163716D01*
G37*
G36*
X123423938Y-65163716D02*
G01*
X123444557Y-65169971D01*
X123463553Y-65180124D01*
X123480208Y-65193792D01*
X123493876Y-65210447D01*
X123504029Y-65229443D01*
X123510284Y-65250062D01*
X123513000Y-65277640D01*
X123513000Y-65786360D01*
X123510284Y-65813938D01*
X123504029Y-65834557D01*
X123493876Y-65853553D01*
X123480208Y-65870208D01*
X123463553Y-65883876D01*
X123444557Y-65894029D01*
X123423938Y-65900284D01*
X123396360Y-65903000D01*
X122937640Y-65903000D01*
X122910062Y-65900284D01*
X122889443Y-65894029D01*
X122870447Y-65883876D01*
X122853792Y-65870208D01*
X122840124Y-65853553D01*
X122829971Y-65834557D01*
X122823716Y-65813938D01*
X122821000Y-65786360D01*
X122821000Y-65277640D01*
X122823716Y-65250062D01*
X122829971Y-65229443D01*
X122840124Y-65210447D01*
X122853792Y-65193792D01*
X122870447Y-65180124D01*
X122889443Y-65169971D01*
X122910062Y-65163716D01*
X122937640Y-65161000D01*
X123396360Y-65161000D01*
X123423938Y-65163716D01*
X123423938Y-65163716D01*
G37*
G36*
X104521000Y-64071000D02*
G01*
X103419000Y-64071000D01*
X103419000Y-60969000D01*
X104521000Y-60969000D01*
X104521000Y-64071000D01*
X104521000Y-64071000D01*
G37*
G36*
X86741000Y-64071000D02*
G01*
X85639000Y-64071000D01*
X85639000Y-60969000D01*
X86741000Y-60969000D01*
X86741000Y-64071000D01*
X86741000Y-64071000D01*
G37*
G36*
X68961000Y-64071000D02*
G01*
X67859000Y-64071000D01*
X67859000Y-60969000D01*
X68961000Y-60969000D01*
X68961000Y-64071000D01*
X68961000Y-64071000D01*
G37*
G36*
X101981000Y-64071000D02*
G01*
X100879000Y-64071000D01*
X100879000Y-60969000D01*
X101981000Y-60969000D01*
X101981000Y-64071000D01*
X101981000Y-64071000D01*
G37*
G36*
X99441000Y-64071000D02*
G01*
X98339000Y-64071000D01*
X98339000Y-60969000D01*
X99441000Y-60969000D01*
X99441000Y-64071000D01*
X99441000Y-64071000D01*
G37*
G36*
X96901000Y-64071000D02*
G01*
X95799000Y-64071000D01*
X95799000Y-60969000D01*
X96901000Y-60969000D01*
X96901000Y-64071000D01*
X96901000Y-64071000D01*
G37*
G36*
X94361000Y-64071000D02*
G01*
X93259000Y-64071000D01*
X93259000Y-60969000D01*
X94361000Y-60969000D01*
X94361000Y-64071000D01*
X94361000Y-64071000D01*
G37*
G36*
X91821000Y-64071000D02*
G01*
X90719000Y-64071000D01*
X90719000Y-60969000D01*
X91821000Y-60969000D01*
X91821000Y-64071000D01*
X91821000Y-64071000D01*
G37*
G36*
X89281000Y-64071000D02*
G01*
X88179000Y-64071000D01*
X88179000Y-60969000D01*
X89281000Y-60969000D01*
X89281000Y-64071000D01*
X89281000Y-64071000D01*
G37*
G36*
X71501000Y-64071000D02*
G01*
X70399000Y-64071000D01*
X70399000Y-60969000D01*
X71501000Y-60969000D01*
X71501000Y-64071000D01*
X71501000Y-64071000D01*
G37*
G36*
X81661000Y-64071000D02*
G01*
X80559000Y-64071000D01*
X80559000Y-60969000D01*
X81661000Y-60969000D01*
X81661000Y-64071000D01*
X81661000Y-64071000D01*
G37*
G36*
X107061000Y-64071000D02*
G01*
X105959000Y-64071000D01*
X105959000Y-60969000D01*
X107061000Y-60969000D01*
X107061000Y-64071000D01*
X107061000Y-64071000D01*
G37*
G36*
X79121000Y-64071000D02*
G01*
X78019000Y-64071000D01*
X78019000Y-60969000D01*
X79121000Y-60969000D01*
X79121000Y-64071000D01*
X79121000Y-64071000D01*
G37*
G36*
X76581000Y-64071000D02*
G01*
X75479000Y-64071000D01*
X75479000Y-60969000D01*
X76581000Y-60969000D01*
X76581000Y-64071000D01*
X76581000Y-64071000D01*
G37*
G36*
X109601000Y-64071000D02*
G01*
X108499000Y-64071000D01*
X108499000Y-60969000D01*
X109601000Y-60969000D01*
X109601000Y-64071000D01*
X109601000Y-64071000D01*
G37*
G36*
X74041000Y-64071000D02*
G01*
X72939000Y-64071000D01*
X72939000Y-60969000D01*
X74041000Y-60969000D01*
X74041000Y-64071000D01*
X74041000Y-64071000D01*
G37*
G36*
X112141000Y-64071000D02*
G01*
X111039000Y-64071000D01*
X111039000Y-60969000D01*
X112141000Y-60969000D01*
X112141000Y-64071000D01*
X112141000Y-64071000D01*
G37*
G36*
X114681000Y-64071000D02*
G01*
X113579000Y-64071000D01*
X113579000Y-60969000D01*
X114681000Y-60969000D01*
X114681000Y-64071000D01*
X114681000Y-64071000D01*
G37*
G36*
X84201000Y-64071000D02*
G01*
X83099000Y-64071000D01*
X83099000Y-60969000D01*
X84201000Y-60969000D01*
X84201000Y-64071000D01*
X84201000Y-64071000D01*
G37*
G36*
X66421000Y-64071000D02*
G01*
X65319000Y-64071000D01*
X65319000Y-60969000D01*
X66421000Y-60969000D01*
X66421000Y-64071000D01*
X66421000Y-64071000D01*
G37*
G36*
X120275880Y-57759776D02*
G01*
X120656593Y-57835504D01*
X121066249Y-58005189D01*
X121434929Y-58251534D01*
X121748466Y-58565071D01*
X121994811Y-58933751D01*
X122164496Y-59343407D01*
X122251000Y-59778296D01*
X122251000Y-60221704D01*
X122164496Y-60656593D01*
X121994811Y-61066249D01*
X121748466Y-61434929D01*
X121434929Y-61748466D01*
X121066249Y-61994811D01*
X120656593Y-62164496D01*
X120275880Y-62240224D01*
X120221705Y-62251000D01*
X119778295Y-62251000D01*
X119724120Y-62240224D01*
X119343407Y-62164496D01*
X118933751Y-61994811D01*
X118565071Y-61748466D01*
X118251534Y-61434929D01*
X118005189Y-61066249D01*
X117835504Y-60656593D01*
X117749000Y-60221704D01*
X117749000Y-59778296D01*
X117835504Y-59343407D01*
X118005189Y-58933751D01*
X118251534Y-58565071D01*
X118565071Y-58251534D01*
X118933751Y-58005189D01*
X119343407Y-57835504D01*
X119724120Y-57759776D01*
X119778295Y-57749000D01*
X120221705Y-57749000D01*
X120275880Y-57759776D01*
X120275880Y-57759776D01*
G37*
G36*
X61275880Y-57759776D02*
G01*
X61656593Y-57835504D01*
X62066249Y-58005189D01*
X62434929Y-58251534D01*
X62748466Y-58565071D01*
X62994811Y-58933751D01*
X63164496Y-59343407D01*
X63251000Y-59778296D01*
X63251000Y-60221704D01*
X63164496Y-60656593D01*
X62994811Y-61066249D01*
X62748466Y-61434929D01*
X62434929Y-61748466D01*
X62066249Y-61994811D01*
X61656593Y-62164496D01*
X61275880Y-62240224D01*
X61221705Y-62251000D01*
X60778295Y-62251000D01*
X60724120Y-62240224D01*
X60343407Y-62164496D01*
X59933751Y-61994811D01*
X59565071Y-61748466D01*
X59251534Y-61434929D01*
X59005189Y-61066249D01*
X58835504Y-60656593D01*
X58749000Y-60221704D01*
X58749000Y-59778296D01*
X58835504Y-59343407D01*
X59005189Y-58933751D01*
X59251534Y-58565071D01*
X59565071Y-58251534D01*
X59933751Y-58005189D01*
X60343407Y-57835504D01*
X60724120Y-57759776D01*
X60778295Y-57749000D01*
X61221705Y-57749000D01*
X61275880Y-57759776D01*
X61275880Y-57759776D01*
G37*
G36*
X81661000Y-59031000D02*
G01*
X80559000Y-59031000D01*
X80559000Y-55929000D01*
X81661000Y-55929000D01*
X81661000Y-59031000D01*
X81661000Y-59031000D01*
G37*
G36*
X84201000Y-59031000D02*
G01*
X83099000Y-59031000D01*
X83099000Y-55929000D01*
X84201000Y-55929000D01*
X84201000Y-59031000D01*
X84201000Y-59031000D01*
G37*
G36*
X109601000Y-59031000D02*
G01*
X108499000Y-59031000D01*
X108499000Y-55929000D01*
X109601000Y-55929000D01*
X109601000Y-59031000D01*
X109601000Y-59031000D01*
G37*
G36*
X107061000Y-59031000D02*
G01*
X105959000Y-59031000D01*
X105959000Y-55929000D01*
X107061000Y-55929000D01*
X107061000Y-59031000D01*
X107061000Y-59031000D01*
G37*
G36*
X104521000Y-59031000D02*
G01*
X103419000Y-59031000D01*
X103419000Y-55929000D01*
X104521000Y-55929000D01*
X104521000Y-59031000D01*
X104521000Y-59031000D01*
G37*
G36*
X101981000Y-59031000D02*
G01*
X100879000Y-59031000D01*
X100879000Y-55929000D01*
X101981000Y-55929000D01*
X101981000Y-59031000D01*
X101981000Y-59031000D01*
G37*
G36*
X99441000Y-59031000D02*
G01*
X98339000Y-59031000D01*
X98339000Y-55929000D01*
X99441000Y-55929000D01*
X99441000Y-59031000D01*
X99441000Y-59031000D01*
G37*
G36*
X96901000Y-59031000D02*
G01*
X95799000Y-59031000D01*
X95799000Y-55929000D01*
X96901000Y-55929000D01*
X96901000Y-59031000D01*
X96901000Y-59031000D01*
G37*
G36*
X94361000Y-59031000D02*
G01*
X93259000Y-59031000D01*
X93259000Y-55929000D01*
X94361000Y-55929000D01*
X94361000Y-59031000D01*
X94361000Y-59031000D01*
G37*
G36*
X91821000Y-59031000D02*
G01*
X90719000Y-59031000D01*
X90719000Y-55929000D01*
X91821000Y-55929000D01*
X91821000Y-59031000D01*
X91821000Y-59031000D01*
G37*
G36*
X89281000Y-59031000D02*
G01*
X88179000Y-59031000D01*
X88179000Y-55929000D01*
X89281000Y-55929000D01*
X89281000Y-59031000D01*
X89281000Y-59031000D01*
G37*
G36*
X86741000Y-59031000D02*
G01*
X85639000Y-59031000D01*
X85639000Y-55929000D01*
X86741000Y-55929000D01*
X86741000Y-59031000D01*
X86741000Y-59031000D01*
G37*
G36*
X79121000Y-59031000D02*
G01*
X78019000Y-59031000D01*
X78019000Y-55929000D01*
X79121000Y-55929000D01*
X79121000Y-59031000D01*
X79121000Y-59031000D01*
G37*
G36*
X66421000Y-59031000D02*
G01*
X65319000Y-59031000D01*
X65319000Y-55929000D01*
X66421000Y-55929000D01*
X66421000Y-59031000D01*
X66421000Y-59031000D01*
G37*
G36*
X68961000Y-59031000D02*
G01*
X67859000Y-59031000D01*
X67859000Y-55929000D01*
X68961000Y-55929000D01*
X68961000Y-59031000D01*
X68961000Y-59031000D01*
G37*
G36*
X74041000Y-59031000D02*
G01*
X72939000Y-59031000D01*
X72939000Y-55929000D01*
X74041000Y-55929000D01*
X74041000Y-59031000D01*
X74041000Y-59031000D01*
G37*
G36*
X76581000Y-59031000D02*
G01*
X75479000Y-59031000D01*
X75479000Y-55929000D01*
X76581000Y-55929000D01*
X76581000Y-59031000D01*
X76581000Y-59031000D01*
G37*
G36*
X71501000Y-59031000D02*
G01*
X70399000Y-59031000D01*
X70399000Y-55929000D01*
X71501000Y-55929000D01*
X71501000Y-59031000D01*
X71501000Y-59031000D01*
G37*
G36*
X114681000Y-59031000D02*
G01*
X113579000Y-59031000D01*
X113579000Y-55929000D01*
X114681000Y-55929000D01*
X114681000Y-59031000D01*
X114681000Y-59031000D01*
G37*
G36*
X112141000Y-59031000D02*
G01*
X111039000Y-59031000D01*
X111039000Y-55929000D01*
X112141000Y-55929000D01*
X112141000Y-59031000D01*
X112141000Y-59031000D01*
G37*
M02*
