G04 #@! TF.GenerationSoftware,KiCad,Pcbnew,(5.1.5)-3*
G04 #@! TF.CreationDate,2020-01-05T10:53:17-07:00*
G04 #@! TF.ProjectId,spi_control,7370695f-636f-46e7-9472-6f6c2e6b6963,A*
G04 #@! TF.SameCoordinates,Original*
G04 #@! TF.FileFunction,Legend,Top*
G04 #@! TF.FilePolarity,Positive*
%FSLAX46Y46*%
G04 Gerber Fmt 4.6, Leading zero omitted, Abs format (unit mm)*
G04 Created by KiCad (PCBNEW (5.1.5)-3) date 2020-01-05 10:53:17*
%MOMM*%
%LPD*%
G04 APERTURE LIST*
%ADD10C,0.150000*%
%ADD11C,0.120000*%
%ADD12C,0.010000*%
%ADD13C,0.100000*%
G04 APERTURE END LIST*
D10*
X176462666Y-100392666D02*
X176462666Y-99692666D01*
X176729333Y-99692666D01*
X176796000Y-99726000D01*
X176829333Y-99759333D01*
X176862666Y-99826000D01*
X176862666Y-99926000D01*
X176829333Y-99992666D01*
X176796000Y-100026000D01*
X176729333Y-100059333D01*
X176462666Y-100059333D01*
X176996000Y-100459333D02*
X177529333Y-100459333D01*
X178029333Y-99692666D02*
X177696000Y-99692666D01*
X177662666Y-100026000D01*
X177696000Y-99992666D01*
X177762666Y-99959333D01*
X177929333Y-99959333D01*
X177996000Y-99992666D01*
X178029333Y-100026000D01*
X178062666Y-100092666D01*
X178062666Y-100259333D01*
X178029333Y-100326000D01*
X177996000Y-100359333D01*
X177929333Y-100392666D01*
X177762666Y-100392666D01*
X177696000Y-100359333D01*
X177662666Y-100326000D01*
X178262666Y-99692666D02*
X178496000Y-100392666D01*
X178729333Y-99692666D01*
X176383333Y-96328666D02*
X176383333Y-95628666D01*
X176650000Y-95628666D01*
X176716666Y-95662000D01*
X176750000Y-95695333D01*
X176783333Y-95762000D01*
X176783333Y-95862000D01*
X176750000Y-95928666D01*
X176716666Y-95962000D01*
X176650000Y-95995333D01*
X176383333Y-95995333D01*
X176916666Y-96395333D02*
X177450000Y-96395333D01*
X177550000Y-95628666D02*
X177983333Y-95628666D01*
X177750000Y-95895333D01*
X177850000Y-95895333D01*
X177916666Y-95928666D01*
X177950000Y-95962000D01*
X177983333Y-96028666D01*
X177983333Y-96195333D01*
X177950000Y-96262000D01*
X177916666Y-96295333D01*
X177850000Y-96328666D01*
X177650000Y-96328666D01*
X177583333Y-96295333D01*
X177550000Y-96262000D01*
X178183333Y-95628666D02*
X178416666Y-96328666D01*
X178650000Y-95628666D01*
X178816666Y-95628666D02*
X179250000Y-95628666D01*
X179016666Y-95895333D01*
X179116666Y-95895333D01*
X179183333Y-95928666D01*
X179216666Y-95962000D01*
X179250000Y-96028666D01*
X179250000Y-96195333D01*
X179216666Y-96262000D01*
X179183333Y-96295333D01*
X179116666Y-96328666D01*
X178916666Y-96328666D01*
X178850000Y-96295333D01*
X178816666Y-96262000D01*
X176575333Y-111535333D02*
X176675333Y-111568666D01*
X176842000Y-111568666D01*
X176908666Y-111535333D01*
X176942000Y-111502000D01*
X176975333Y-111435333D01*
X176975333Y-111368666D01*
X176942000Y-111302000D01*
X176908666Y-111268666D01*
X176842000Y-111235333D01*
X176708666Y-111202000D01*
X176642000Y-111168666D01*
X176608666Y-111135333D01*
X176575333Y-111068666D01*
X176575333Y-111002000D01*
X176608666Y-110935333D01*
X176642000Y-110902000D01*
X176708666Y-110868666D01*
X176875333Y-110868666D01*
X176975333Y-110902000D01*
X177275333Y-111568666D02*
X177275333Y-110868666D01*
X177542000Y-110868666D01*
X177608666Y-110902000D01*
X177642000Y-110935333D01*
X177675333Y-111002000D01*
X177675333Y-111102000D01*
X177642000Y-111168666D01*
X177608666Y-111202000D01*
X177542000Y-111235333D01*
X177275333Y-111235333D01*
X177975333Y-111568666D02*
X177975333Y-110868666D01*
X168584328Y-125458980D02*
X168250995Y-124982790D01*
X168012900Y-125458980D02*
X168012900Y-124458980D01*
X168393852Y-124458980D01*
X168489090Y-124506600D01*
X168536709Y-124554219D01*
X168584328Y-124649457D01*
X168584328Y-124792314D01*
X168536709Y-124887552D01*
X168489090Y-124935171D01*
X168393852Y-124982790D01*
X168012900Y-124982790D01*
X169393852Y-125411361D02*
X169298614Y-125458980D01*
X169108138Y-125458980D01*
X169012900Y-125411361D01*
X168965280Y-125316123D01*
X168965280Y-124935171D01*
X169012900Y-124839933D01*
X169108138Y-124792314D01*
X169298614Y-124792314D01*
X169393852Y-124839933D01*
X169441471Y-124935171D01*
X169441471Y-125030409D01*
X168965280Y-125125647D01*
X169774804Y-124792314D02*
X170012900Y-125458980D01*
X170250995Y-124792314D01*
X171346233Y-125173266D02*
X171822423Y-125173266D01*
X171250995Y-125458980D02*
X171584328Y-124458980D01*
X171917661Y-125458980D01*
X163584328Y-127061361D02*
X163727185Y-127108980D01*
X163965280Y-127108980D01*
X164060519Y-127061361D01*
X164108138Y-127013742D01*
X164155757Y-126918504D01*
X164155757Y-126823266D01*
X164108138Y-126728028D01*
X164060519Y-126680409D01*
X163965280Y-126632790D01*
X163774804Y-126585171D01*
X163679566Y-126537552D01*
X163631947Y-126489933D01*
X163584328Y-126394695D01*
X163584328Y-126299457D01*
X163631947Y-126204219D01*
X163679566Y-126156600D01*
X163774804Y-126108980D01*
X164012900Y-126108980D01*
X164155757Y-126156600D01*
X164584328Y-127108980D02*
X164584328Y-126108980D01*
X164965280Y-126108980D01*
X165060519Y-126156600D01*
X165108138Y-126204219D01*
X165155757Y-126299457D01*
X165155757Y-126442314D01*
X165108138Y-126537552D01*
X165060519Y-126585171D01*
X164965280Y-126632790D01*
X164584328Y-126632790D01*
X165584328Y-127108980D02*
X165584328Y-126108980D01*
X167393852Y-127013742D02*
X167346233Y-127061361D01*
X167203376Y-127108980D01*
X167108138Y-127108980D01*
X166965280Y-127061361D01*
X166870042Y-126966123D01*
X166822423Y-126870885D01*
X166774804Y-126680409D01*
X166774804Y-126537552D01*
X166822423Y-126347076D01*
X166870042Y-126251838D01*
X166965280Y-126156600D01*
X167108138Y-126108980D01*
X167203376Y-126108980D01*
X167346233Y-126156600D01*
X167393852Y-126204219D01*
X167965280Y-127108980D02*
X167870042Y-127061361D01*
X167822423Y-127013742D01*
X167774804Y-126918504D01*
X167774804Y-126632790D01*
X167822423Y-126537552D01*
X167870042Y-126489933D01*
X167965280Y-126442314D01*
X168108138Y-126442314D01*
X168203376Y-126489933D01*
X168250995Y-126537552D01*
X168298614Y-126632790D01*
X168298614Y-126918504D01*
X168250995Y-127013742D01*
X168203376Y-127061361D01*
X168108138Y-127108980D01*
X167965280Y-127108980D01*
X168727185Y-126442314D02*
X168727185Y-127108980D01*
X168727185Y-126537552D02*
X168774804Y-126489933D01*
X168870042Y-126442314D01*
X169012900Y-126442314D01*
X169108138Y-126489933D01*
X169155757Y-126585171D01*
X169155757Y-127108980D01*
X169489090Y-126442314D02*
X169870042Y-126442314D01*
X169631947Y-126108980D02*
X169631947Y-126966123D01*
X169679566Y-127061361D01*
X169774804Y-127108980D01*
X169870042Y-127108980D01*
X170203376Y-127108980D02*
X170203376Y-126442314D01*
X170203376Y-126632790D02*
X170250995Y-126537552D01*
X170298614Y-126489933D01*
X170393852Y-126442314D01*
X170489090Y-126442314D01*
X170965280Y-127108980D02*
X170870042Y-127061361D01*
X170822423Y-127013742D01*
X170774804Y-126918504D01*
X170774804Y-126632790D01*
X170822423Y-126537552D01*
X170870042Y-126489933D01*
X170965280Y-126442314D01*
X171108138Y-126442314D01*
X171203376Y-126489933D01*
X171250995Y-126537552D01*
X171298614Y-126632790D01*
X171298614Y-126918504D01*
X171250995Y-127013742D01*
X171203376Y-127061361D01*
X171108138Y-127108980D01*
X170965280Y-127108980D01*
X171870042Y-127108980D02*
X171774804Y-127061361D01*
X171727185Y-126966123D01*
X171727185Y-126108980D01*
X136525000Y-120269000D02*
X136525000Y-119634000D01*
X137160000Y-120269000D02*
X136525000Y-120269000D01*
X169291000Y-94107000D02*
X158750000Y-94107000D01*
X169291000Y-119761000D02*
X169291000Y-94107000D01*
X158750000Y-119761000D02*
X169291000Y-119761000D01*
X137287000Y-94234000D02*
X137287000Y-119634000D01*
D11*
X126714000Y-97308400D02*
X122714000Y-97308400D01*
X126714000Y-100608400D02*
X126714000Y-97308400D01*
D12*
G36*
X134211938Y-89911805D02*
G01*
X134231055Y-89911865D01*
X134247705Y-89911995D01*
X134262346Y-89912217D01*
X134275437Y-89912552D01*
X134287438Y-89913019D01*
X134298807Y-89913640D01*
X134310005Y-89914437D01*
X134321491Y-89915429D01*
X134333723Y-89916638D01*
X134347161Y-89918085D01*
X134360073Y-89919539D01*
X134418525Y-89927639D01*
X134474866Y-89938355D01*
X134529088Y-89951680D01*
X134581182Y-89967612D01*
X134631138Y-89986145D01*
X134678948Y-90007276D01*
X134724604Y-90030998D01*
X134768095Y-90057309D01*
X134809414Y-90086203D01*
X134848550Y-90117677D01*
X134885497Y-90151724D01*
X134920244Y-90188342D01*
X134945370Y-90218130D01*
X134975438Y-90258244D01*
X135003509Y-90301042D01*
X135029546Y-90346444D01*
X135053511Y-90394371D01*
X135075367Y-90444744D01*
X135095077Y-90497484D01*
X135112604Y-90552513D01*
X135125527Y-90600106D01*
X135134880Y-90639636D01*
X135143201Y-90679747D01*
X135150549Y-90720861D01*
X135156986Y-90763400D01*
X135162573Y-90807789D01*
X135167372Y-90854448D01*
X135171443Y-90903801D01*
X135173214Y-90929460D01*
X135173843Y-90941578D01*
X135174366Y-90956632D01*
X135174785Y-90974175D01*
X135175102Y-90993759D01*
X135175318Y-91014933D01*
X135175434Y-91037252D01*
X135175451Y-91060265D01*
X135175372Y-91083525D01*
X135175197Y-91106583D01*
X135174928Y-91128992D01*
X135174566Y-91150302D01*
X135174113Y-91170066D01*
X135173570Y-91187834D01*
X135172938Y-91203160D01*
X135172332Y-91213940D01*
X135168367Y-91266717D01*
X135163630Y-91316568D01*
X135158073Y-91363874D01*
X135151648Y-91409017D01*
X135144306Y-91452380D01*
X135138155Y-91484026D01*
X135124465Y-91544384D01*
X135108730Y-91602057D01*
X135090937Y-91657071D01*
X135071068Y-91709456D01*
X135049108Y-91759236D01*
X135025042Y-91806441D01*
X134998852Y-91851098D01*
X134970525Y-91893233D01*
X134940042Y-91932875D01*
X134907390Y-91970050D01*
X134872551Y-92004785D01*
X134835511Y-92037109D01*
X134803201Y-92062041D01*
X134764202Y-92088455D01*
X134722663Y-92112675D01*
X134678645Y-92134674D01*
X134632209Y-92154428D01*
X134583415Y-92171911D01*
X134532325Y-92187096D01*
X134479000Y-92199958D01*
X134473526Y-92201120D01*
X134429624Y-92209375D01*
X134383685Y-92216148D01*
X134335639Y-92221435D01*
X134285415Y-92225234D01*
X134232942Y-92227543D01*
X134178151Y-92228358D01*
X134120969Y-92227677D01*
X134061326Y-92225497D01*
X133999152Y-92221817D01*
X133934376Y-92216633D01*
X133866926Y-92209943D01*
X133796732Y-92201744D01*
X133723724Y-92192033D01*
X133647831Y-92180809D01*
X133569026Y-92168075D01*
X133559365Y-92166461D01*
X133550890Y-92165062D01*
X133544154Y-92163969D01*
X133539708Y-92163270D01*
X133538123Y-92163053D01*
X133538036Y-92164723D01*
X133537952Y-92169642D01*
X133537869Y-92177670D01*
X133537789Y-92188669D01*
X133537712Y-92202501D01*
X133537638Y-92219027D01*
X133537568Y-92238110D01*
X133537502Y-92259609D01*
X133537440Y-92283387D01*
X133537382Y-92309306D01*
X133537329Y-92337226D01*
X133537281Y-92367010D01*
X133537238Y-92398519D01*
X133537201Y-92431614D01*
X133537170Y-92466157D01*
X133537146Y-92502009D01*
X133537128Y-92539032D01*
X133537117Y-92577088D01*
X133537113Y-92616038D01*
X133537113Y-93070680D01*
X133269564Y-93070680D01*
X133269989Y-91570028D01*
X133270126Y-91083203D01*
X133537113Y-91083203D01*
X133537113Y-91923594D01*
X133579870Y-91930821D01*
X133638324Y-91940496D01*
X133693792Y-91949247D01*
X133746536Y-91957111D01*
X133796817Y-91964121D01*
X133844897Y-91970312D01*
X133891039Y-91975720D01*
X133935504Y-91980379D01*
X133978554Y-91984324D01*
X133988386Y-91985142D01*
X133999921Y-91986062D01*
X134011103Y-91986901D01*
X134022410Y-91987688D01*
X134034320Y-91988452D01*
X134047311Y-91989221D01*
X134061861Y-91990024D01*
X134078447Y-91990888D01*
X134097547Y-91991844D01*
X134115386Y-91992713D01*
X134122335Y-91992926D01*
X134132080Y-91993051D01*
X134144124Y-91993093D01*
X134157965Y-91993061D01*
X134173105Y-91992961D01*
X134189043Y-91992799D01*
X134205280Y-91992583D01*
X134221316Y-91992321D01*
X134236651Y-91992017D01*
X134250787Y-91991681D01*
X134263222Y-91991317D01*
X134273458Y-91990935D01*
X134280995Y-91990539D01*
X134283026Y-91990389D01*
X134332461Y-91985126D01*
X134379250Y-91977823D01*
X134423485Y-91968433D01*
X134465257Y-91956910D01*
X134504656Y-91943208D01*
X134541774Y-91927282D01*
X134576702Y-91909085D01*
X134609531Y-91888571D01*
X134640353Y-91865695D01*
X134669258Y-91840411D01*
X134696338Y-91812672D01*
X134721684Y-91782432D01*
X134737360Y-91761288D01*
X134760157Y-91726344D01*
X134781180Y-91688519D01*
X134800427Y-91647822D01*
X134817897Y-91604260D01*
X134833587Y-91557840D01*
X134847494Y-91508569D01*
X134859618Y-91456453D01*
X134869956Y-91401500D01*
X134878505Y-91343717D01*
X134885264Y-91283111D01*
X134887475Y-91257966D01*
X134890997Y-91206654D01*
X134893391Y-91153580D01*
X134894662Y-91099448D01*
X134894816Y-91044962D01*
X134893858Y-90990825D01*
X134891795Y-90937741D01*
X134888631Y-90886413D01*
X134884373Y-90837546D01*
X134884075Y-90834633D01*
X134877317Y-90778472D01*
X134868870Y-90724530D01*
X134858779Y-90673049D01*
X134847089Y-90624271D01*
X134843459Y-90610858D01*
X134828667Y-90562433D01*
X134811964Y-90516797D01*
X134793328Y-90473929D01*
X134772735Y-90433805D01*
X134750160Y-90396403D01*
X134725581Y-90361700D01*
X134698974Y-90329673D01*
X134670314Y-90300299D01*
X134639580Y-90273555D01*
X134606746Y-90249420D01*
X134571790Y-90227869D01*
X134534687Y-90208881D01*
X134495414Y-90192433D01*
X134453948Y-90178501D01*
X134410265Y-90167064D01*
X134375313Y-90159980D01*
X134347889Y-90155500D01*
X134320554Y-90151921D01*
X134292658Y-90149191D01*
X134263552Y-90147262D01*
X134232587Y-90146081D01*
X134199113Y-90145600D01*
X134189893Y-90145583D01*
X134170984Y-90145645D01*
X134154093Y-90145834D01*
X134138529Y-90146183D01*
X134123602Y-90146728D01*
X134108621Y-90147504D01*
X134092896Y-90148544D01*
X134075736Y-90149884D01*
X134056450Y-90151559D01*
X134039186Y-90153147D01*
X134001684Y-90156993D01*
X133962241Y-90161662D01*
X133921336Y-90167070D01*
X133879450Y-90173134D01*
X133837062Y-90179770D01*
X133794653Y-90186894D01*
X133752701Y-90194423D01*
X133711689Y-90202274D01*
X133672094Y-90210362D01*
X133634398Y-90218604D01*
X133599080Y-90226916D01*
X133566621Y-90235215D01*
X133563626Y-90236020D01*
X133554914Y-90238363D01*
X133547421Y-90240357D01*
X133541725Y-90241848D01*
X133538405Y-90242686D01*
X133537803Y-90242813D01*
X133537759Y-90244489D01*
X133537716Y-90249450D01*
X133537674Y-90257595D01*
X133537633Y-90268821D01*
X133537592Y-90283026D01*
X133537553Y-90300109D01*
X133537515Y-90319969D01*
X133537478Y-90342502D01*
X133537442Y-90367609D01*
X133537408Y-90395186D01*
X133537375Y-90425132D01*
X133537344Y-90457345D01*
X133537314Y-90491724D01*
X133537286Y-90528166D01*
X133537260Y-90566571D01*
X133537235Y-90606836D01*
X133537213Y-90648859D01*
X133537192Y-90692539D01*
X133537174Y-90737774D01*
X133537158Y-90784462D01*
X133537144Y-90832501D01*
X133537133Y-90881790D01*
X133537124Y-90932227D01*
X133537118Y-90983710D01*
X133537114Y-91036137D01*
X133537113Y-91083203D01*
X133270126Y-91083203D01*
X133270413Y-90069377D01*
X133283960Y-90065443D01*
X133343399Y-90048637D01*
X133403845Y-90032435D01*
X133464887Y-90016926D01*
X133526118Y-90002197D01*
X133587127Y-89988335D01*
X133647506Y-89975428D01*
X133706846Y-89963564D01*
X133764739Y-89952831D01*
X133820775Y-89943316D01*
X133874546Y-89935106D01*
X133921500Y-89928802D01*
X133951714Y-89925128D01*
X133979212Y-89921999D01*
X134004615Y-89919373D01*
X134028544Y-89917213D01*
X134051618Y-89915478D01*
X134074458Y-89914130D01*
X134097684Y-89913130D01*
X134121917Y-89912437D01*
X134147778Y-89912013D01*
X134175886Y-89911818D01*
X134189893Y-89911794D01*
X134211938Y-89911805D01*
G37*
X134211938Y-89911805D02*
X134231055Y-89911865D01*
X134247705Y-89911995D01*
X134262346Y-89912217D01*
X134275437Y-89912552D01*
X134287438Y-89913019D01*
X134298807Y-89913640D01*
X134310005Y-89914437D01*
X134321491Y-89915429D01*
X134333723Y-89916638D01*
X134347161Y-89918085D01*
X134360073Y-89919539D01*
X134418525Y-89927639D01*
X134474866Y-89938355D01*
X134529088Y-89951680D01*
X134581182Y-89967612D01*
X134631138Y-89986145D01*
X134678948Y-90007276D01*
X134724604Y-90030998D01*
X134768095Y-90057309D01*
X134809414Y-90086203D01*
X134848550Y-90117677D01*
X134885497Y-90151724D01*
X134920244Y-90188342D01*
X134945370Y-90218130D01*
X134975438Y-90258244D01*
X135003509Y-90301042D01*
X135029546Y-90346444D01*
X135053511Y-90394371D01*
X135075367Y-90444744D01*
X135095077Y-90497484D01*
X135112604Y-90552513D01*
X135125527Y-90600106D01*
X135134880Y-90639636D01*
X135143201Y-90679747D01*
X135150549Y-90720861D01*
X135156986Y-90763400D01*
X135162573Y-90807789D01*
X135167372Y-90854448D01*
X135171443Y-90903801D01*
X135173214Y-90929460D01*
X135173843Y-90941578D01*
X135174366Y-90956632D01*
X135174785Y-90974175D01*
X135175102Y-90993759D01*
X135175318Y-91014933D01*
X135175434Y-91037252D01*
X135175451Y-91060265D01*
X135175372Y-91083525D01*
X135175197Y-91106583D01*
X135174928Y-91128992D01*
X135174566Y-91150302D01*
X135174113Y-91170066D01*
X135173570Y-91187834D01*
X135172938Y-91203160D01*
X135172332Y-91213940D01*
X135168367Y-91266717D01*
X135163630Y-91316568D01*
X135158073Y-91363874D01*
X135151648Y-91409017D01*
X135144306Y-91452380D01*
X135138155Y-91484026D01*
X135124465Y-91544384D01*
X135108730Y-91602057D01*
X135090937Y-91657071D01*
X135071068Y-91709456D01*
X135049108Y-91759236D01*
X135025042Y-91806441D01*
X134998852Y-91851098D01*
X134970525Y-91893233D01*
X134940042Y-91932875D01*
X134907390Y-91970050D01*
X134872551Y-92004785D01*
X134835511Y-92037109D01*
X134803201Y-92062041D01*
X134764202Y-92088455D01*
X134722663Y-92112675D01*
X134678645Y-92134674D01*
X134632209Y-92154428D01*
X134583415Y-92171911D01*
X134532325Y-92187096D01*
X134479000Y-92199958D01*
X134473526Y-92201120D01*
X134429624Y-92209375D01*
X134383685Y-92216148D01*
X134335639Y-92221435D01*
X134285415Y-92225234D01*
X134232942Y-92227543D01*
X134178151Y-92228358D01*
X134120969Y-92227677D01*
X134061326Y-92225497D01*
X133999152Y-92221817D01*
X133934376Y-92216633D01*
X133866926Y-92209943D01*
X133796732Y-92201744D01*
X133723724Y-92192033D01*
X133647831Y-92180809D01*
X133569026Y-92168075D01*
X133559365Y-92166461D01*
X133550890Y-92165062D01*
X133544154Y-92163969D01*
X133539708Y-92163270D01*
X133538123Y-92163053D01*
X133538036Y-92164723D01*
X133537952Y-92169642D01*
X133537869Y-92177670D01*
X133537789Y-92188669D01*
X133537712Y-92202501D01*
X133537638Y-92219027D01*
X133537568Y-92238110D01*
X133537502Y-92259609D01*
X133537440Y-92283387D01*
X133537382Y-92309306D01*
X133537329Y-92337226D01*
X133537281Y-92367010D01*
X133537238Y-92398519D01*
X133537201Y-92431614D01*
X133537170Y-92466157D01*
X133537146Y-92502009D01*
X133537128Y-92539032D01*
X133537117Y-92577088D01*
X133537113Y-92616038D01*
X133537113Y-93070680D01*
X133269564Y-93070680D01*
X133269989Y-91570028D01*
X133270126Y-91083203D01*
X133537113Y-91083203D01*
X133537113Y-91923594D01*
X133579870Y-91930821D01*
X133638324Y-91940496D01*
X133693792Y-91949247D01*
X133746536Y-91957111D01*
X133796817Y-91964121D01*
X133844897Y-91970312D01*
X133891039Y-91975720D01*
X133935504Y-91980379D01*
X133978554Y-91984324D01*
X133988386Y-91985142D01*
X133999921Y-91986062D01*
X134011103Y-91986901D01*
X134022410Y-91987688D01*
X134034320Y-91988452D01*
X134047311Y-91989221D01*
X134061861Y-91990024D01*
X134078447Y-91990888D01*
X134097547Y-91991844D01*
X134115386Y-91992713D01*
X134122335Y-91992926D01*
X134132080Y-91993051D01*
X134144124Y-91993093D01*
X134157965Y-91993061D01*
X134173105Y-91992961D01*
X134189043Y-91992799D01*
X134205280Y-91992583D01*
X134221316Y-91992321D01*
X134236651Y-91992017D01*
X134250787Y-91991681D01*
X134263222Y-91991317D01*
X134273458Y-91990935D01*
X134280995Y-91990539D01*
X134283026Y-91990389D01*
X134332461Y-91985126D01*
X134379250Y-91977823D01*
X134423485Y-91968433D01*
X134465257Y-91956910D01*
X134504656Y-91943208D01*
X134541774Y-91927282D01*
X134576702Y-91909085D01*
X134609531Y-91888571D01*
X134640353Y-91865695D01*
X134669258Y-91840411D01*
X134696338Y-91812672D01*
X134721684Y-91782432D01*
X134737360Y-91761288D01*
X134760157Y-91726344D01*
X134781180Y-91688519D01*
X134800427Y-91647822D01*
X134817897Y-91604260D01*
X134833587Y-91557840D01*
X134847494Y-91508569D01*
X134859618Y-91456453D01*
X134869956Y-91401500D01*
X134878505Y-91343717D01*
X134885264Y-91283111D01*
X134887475Y-91257966D01*
X134890997Y-91206654D01*
X134893391Y-91153580D01*
X134894662Y-91099448D01*
X134894816Y-91044962D01*
X134893858Y-90990825D01*
X134891795Y-90937741D01*
X134888631Y-90886413D01*
X134884373Y-90837546D01*
X134884075Y-90834633D01*
X134877317Y-90778472D01*
X134868870Y-90724530D01*
X134858779Y-90673049D01*
X134847089Y-90624271D01*
X134843459Y-90610858D01*
X134828667Y-90562433D01*
X134811964Y-90516797D01*
X134793328Y-90473929D01*
X134772735Y-90433805D01*
X134750160Y-90396403D01*
X134725581Y-90361700D01*
X134698974Y-90329673D01*
X134670314Y-90300299D01*
X134639580Y-90273555D01*
X134606746Y-90249420D01*
X134571790Y-90227869D01*
X134534687Y-90208881D01*
X134495414Y-90192433D01*
X134453948Y-90178501D01*
X134410265Y-90167064D01*
X134375313Y-90159980D01*
X134347889Y-90155500D01*
X134320554Y-90151921D01*
X134292658Y-90149191D01*
X134263552Y-90147262D01*
X134232587Y-90146081D01*
X134199113Y-90145600D01*
X134189893Y-90145583D01*
X134170984Y-90145645D01*
X134154093Y-90145834D01*
X134138529Y-90146183D01*
X134123602Y-90146728D01*
X134108621Y-90147504D01*
X134092896Y-90148544D01*
X134075736Y-90149884D01*
X134056450Y-90151559D01*
X134039186Y-90153147D01*
X134001684Y-90156993D01*
X133962241Y-90161662D01*
X133921336Y-90167070D01*
X133879450Y-90173134D01*
X133837062Y-90179770D01*
X133794653Y-90186894D01*
X133752701Y-90194423D01*
X133711689Y-90202274D01*
X133672094Y-90210362D01*
X133634398Y-90218604D01*
X133599080Y-90226916D01*
X133566621Y-90235215D01*
X133563626Y-90236020D01*
X133554914Y-90238363D01*
X133547421Y-90240357D01*
X133541725Y-90241848D01*
X133538405Y-90242686D01*
X133537803Y-90242813D01*
X133537759Y-90244489D01*
X133537716Y-90249450D01*
X133537674Y-90257595D01*
X133537633Y-90268821D01*
X133537592Y-90283026D01*
X133537553Y-90300109D01*
X133537515Y-90319969D01*
X133537478Y-90342502D01*
X133537442Y-90367609D01*
X133537408Y-90395186D01*
X133537375Y-90425132D01*
X133537344Y-90457345D01*
X133537314Y-90491724D01*
X133537286Y-90528166D01*
X133537260Y-90566571D01*
X133537235Y-90606836D01*
X133537213Y-90648859D01*
X133537192Y-90692539D01*
X133537174Y-90737774D01*
X133537158Y-90784462D01*
X133537144Y-90832501D01*
X133537133Y-90881790D01*
X133537124Y-90932227D01*
X133537118Y-90983710D01*
X133537114Y-91036137D01*
X133537113Y-91083203D01*
X133270126Y-91083203D01*
X133270413Y-90069377D01*
X133283960Y-90065443D01*
X133343399Y-90048637D01*
X133403845Y-90032435D01*
X133464887Y-90016926D01*
X133526118Y-90002197D01*
X133587127Y-89988335D01*
X133647506Y-89975428D01*
X133706846Y-89963564D01*
X133764739Y-89952831D01*
X133820775Y-89943316D01*
X133874546Y-89935106D01*
X133921500Y-89928802D01*
X133951714Y-89925128D01*
X133979212Y-89921999D01*
X134004615Y-89919373D01*
X134028544Y-89917213D01*
X134051618Y-89915478D01*
X134074458Y-89914130D01*
X134097684Y-89913130D01*
X134121917Y-89912437D01*
X134147778Y-89912013D01*
X134175886Y-89911818D01*
X134189893Y-89911794D01*
X134211938Y-89911805D01*
G36*
X124552286Y-90003675D02*
G01*
X124574723Y-89998030D01*
X124660378Y-89977743D01*
X124745546Y-89960139D01*
X124830831Y-89945121D01*
X124916842Y-89932593D01*
X125004182Y-89922456D01*
X125093459Y-89914615D01*
X125099233Y-89914191D01*
X125109427Y-89913592D01*
X125122409Y-89913052D01*
X125137694Y-89912575D01*
X125154793Y-89912166D01*
X125173219Y-89911827D01*
X125192486Y-89911564D01*
X125212105Y-89911379D01*
X125231590Y-89911278D01*
X125250453Y-89911263D01*
X125268207Y-89911338D01*
X125284365Y-89911508D01*
X125298440Y-89911777D01*
X125309944Y-89912148D01*
X125315980Y-89912456D01*
X125365877Y-89916416D01*
X125413210Y-89921913D01*
X125458474Y-89929039D01*
X125502167Y-89937886D01*
X125544788Y-89948546D01*
X125586832Y-89961110D01*
X125596226Y-89964197D01*
X125645805Y-89982423D01*
X125693250Y-90003275D01*
X125738555Y-90026750D01*
X125781716Y-90052842D01*
X125822727Y-90081549D01*
X125861582Y-90112866D01*
X125898276Y-90146788D01*
X125932803Y-90183312D01*
X125965158Y-90222433D01*
X125995335Y-90264148D01*
X125999195Y-90269906D01*
X126010155Y-90286622D01*
X126019608Y-90301572D01*
X126028094Y-90315686D01*
X126036154Y-90329896D01*
X126044328Y-90345131D01*
X126053158Y-90362323D01*
X126054800Y-90365580D01*
X126077456Y-90413857D01*
X126098026Y-90464467D01*
X126116521Y-90517458D01*
X126132952Y-90572879D01*
X126147333Y-90630779D01*
X126159673Y-90691207D01*
X126169985Y-90754212D01*
X126178282Y-90819843D01*
X126184574Y-90888149D01*
X126186348Y-90913373D01*
X126187786Y-90939624D01*
X126188899Y-90968582D01*
X126189690Y-90999584D01*
X126190157Y-91031967D01*
X126190300Y-91065066D01*
X126190121Y-91098219D01*
X126189618Y-91130761D01*
X126188792Y-91162029D01*
X126187643Y-91191359D01*
X126186314Y-91215856D01*
X126180751Y-91286675D01*
X126173145Y-91354806D01*
X126163488Y-91420265D01*
X126151774Y-91483070D01*
X126137994Y-91543238D01*
X126122141Y-91600786D01*
X126104209Y-91655732D01*
X126084191Y-91708092D01*
X126062078Y-91757883D01*
X126037865Y-91805124D01*
X126011543Y-91849831D01*
X125983105Y-91892022D01*
X125952545Y-91931714D01*
X125919854Y-91968924D01*
X125885027Y-92003668D01*
X125848055Y-92035966D01*
X125841592Y-92041186D01*
X125813448Y-92062643D01*
X125784979Y-92082236D01*
X125755318Y-92100511D01*
X125723602Y-92118017D01*
X125705418Y-92127292D01*
X125663120Y-92146946D01*
X125619531Y-92164463D01*
X125574447Y-92179893D01*
X125527659Y-92193284D01*
X125478963Y-92204686D01*
X125428152Y-92214149D01*
X125375019Y-92221721D01*
X125319359Y-92227453D01*
X125273035Y-92230736D01*
X125265560Y-92231057D01*
X125255239Y-92231341D01*
X125242568Y-92231586D01*
X125228045Y-92231790D01*
X125212166Y-92231951D01*
X125195429Y-92232068D01*
X125178330Y-92232139D01*
X125161366Y-92232163D01*
X125145035Y-92232137D01*
X125129833Y-92232061D01*
X125116257Y-92231931D01*
X125104805Y-92231747D01*
X125095972Y-92231508D01*
X125092460Y-92231354D01*
X125056618Y-92229248D01*
X125021136Y-92226780D01*
X124985792Y-92223913D01*
X124950364Y-92220615D01*
X124914630Y-92216851D01*
X124878367Y-92212587D01*
X124841354Y-92207789D01*
X124803369Y-92202422D01*
X124764189Y-92196452D01*
X124723593Y-92189845D01*
X124681358Y-92182568D01*
X124637264Y-92174585D01*
X124591086Y-92165863D01*
X124542604Y-92156367D01*
X124491596Y-92146064D01*
X124437839Y-92134918D01*
X124381112Y-92122896D01*
X124363480Y-92119114D01*
X124348321Y-92115851D01*
X124334090Y-92112785D01*
X124321149Y-92109994D01*
X124309862Y-92107556D01*
X124300592Y-92105550D01*
X124293700Y-92104054D01*
X124289549Y-92103146D01*
X124288550Y-92102922D01*
X124284740Y-92102028D01*
X124284740Y-90243097D01*
X124552286Y-90243097D01*
X124552286Y-91923782D01*
X124573030Y-91927435D01*
X124581204Y-91928879D01*
X124591817Y-91930757D01*
X124603971Y-91932912D01*
X124616772Y-91935185D01*
X124629322Y-91937417D01*
X124631026Y-91937720D01*
X124674821Y-91945262D01*
X124719713Y-91952508D01*
X124764959Y-91959353D01*
X124809814Y-91965691D01*
X124853532Y-91971417D01*
X124895371Y-91976423D01*
X124929053Y-91980051D01*
X124947615Y-91981897D01*
X124964920Y-91983527D01*
X124981522Y-91984983D01*
X124997976Y-91986302D01*
X125014839Y-91987525D01*
X125032665Y-91988692D01*
X125052011Y-91989841D01*
X125073431Y-91991013D01*
X125097481Y-91992246D01*
X125106853Y-91992712D01*
X125115370Y-91992989D01*
X125126724Y-91993147D01*
X125140390Y-91993193D01*
X125155846Y-91993136D01*
X125172568Y-91992986D01*
X125190033Y-91992752D01*
X125207719Y-91992442D01*
X125225101Y-91992066D01*
X125241657Y-91991633D01*
X125256863Y-91991151D01*
X125270197Y-91990631D01*
X125281134Y-91990080D01*
X125288455Y-91989570D01*
X125333075Y-91984976D01*
X125374863Y-91979043D01*
X125414126Y-91971694D01*
X125451175Y-91962851D01*
X125486320Y-91952437D01*
X125519870Y-91940376D01*
X125552134Y-91926590D01*
X125564053Y-91920917D01*
X125598757Y-91902250D01*
X125631531Y-91881153D01*
X125662393Y-91857594D01*
X125691357Y-91831543D01*
X125718439Y-91802966D01*
X125743655Y-91771834D01*
X125767021Y-91738113D01*
X125788552Y-91701773D01*
X125808264Y-91662781D01*
X125826172Y-91621107D01*
X125842293Y-91576718D01*
X125856641Y-91529582D01*
X125869233Y-91479669D01*
X125880085Y-91426946D01*
X125889212Y-91371382D01*
X125896629Y-91312945D01*
X125902353Y-91251604D01*
X125903511Y-91235953D01*
X125905014Y-91211330D01*
X125906276Y-91184015D01*
X125907290Y-91154693D01*
X125908047Y-91124051D01*
X125908538Y-91092774D01*
X125908756Y-91061549D01*
X125908692Y-91031061D01*
X125908338Y-91001997D01*
X125907685Y-90975042D01*
X125906915Y-90954860D01*
X125903172Y-90892580D01*
X125897779Y-90833141D01*
X125890710Y-90776411D01*
X125881940Y-90722259D01*
X125871446Y-90670555D01*
X125859204Y-90621169D01*
X125845187Y-90573970D01*
X125829373Y-90528828D01*
X125825188Y-90517980D01*
X125816742Y-90497877D01*
X125806701Y-90476288D01*
X125795495Y-90454015D01*
X125783557Y-90431860D01*
X125771316Y-90410626D01*
X125759204Y-90391115D01*
X125748731Y-90375638D01*
X125725791Y-90345797D01*
X125700518Y-90317336D01*
X125673419Y-90290749D01*
X125645000Y-90266533D01*
X125615767Y-90245182D01*
X125615026Y-90244687D01*
X125580519Y-90223583D01*
X125544049Y-90205019D01*
X125505550Y-90188975D01*
X125464954Y-90175428D01*
X125422197Y-90164358D01*
X125377210Y-90155744D01*
X125329929Y-90149564D01*
X125313440Y-90148024D01*
X125283274Y-90146088D01*
X125250220Y-90145097D01*
X125214637Y-90145030D01*
X125176883Y-90145866D01*
X125137316Y-90147584D01*
X125096295Y-90150166D01*
X125054179Y-90153590D01*
X125011326Y-90157836D01*
X124968095Y-90162884D01*
X124924843Y-90168714D01*
X124910101Y-90170884D01*
X124865270Y-90178009D01*
X124817983Y-90186237D01*
X124768935Y-90195429D01*
X124718823Y-90205447D01*
X124668340Y-90216154D01*
X124618183Y-90227412D01*
X124581496Y-90236061D01*
X124552286Y-90243097D01*
X124284740Y-90243097D01*
X124284740Y-88773000D01*
X124552286Y-88773000D01*
X124552286Y-90003675D01*
G37*
X124552286Y-90003675D02*
X124574723Y-89998030D01*
X124660378Y-89977743D01*
X124745546Y-89960139D01*
X124830831Y-89945121D01*
X124916842Y-89932593D01*
X125004182Y-89922456D01*
X125093459Y-89914615D01*
X125099233Y-89914191D01*
X125109427Y-89913592D01*
X125122409Y-89913052D01*
X125137694Y-89912575D01*
X125154793Y-89912166D01*
X125173219Y-89911827D01*
X125192486Y-89911564D01*
X125212105Y-89911379D01*
X125231590Y-89911278D01*
X125250453Y-89911263D01*
X125268207Y-89911338D01*
X125284365Y-89911508D01*
X125298440Y-89911777D01*
X125309944Y-89912148D01*
X125315980Y-89912456D01*
X125365877Y-89916416D01*
X125413210Y-89921913D01*
X125458474Y-89929039D01*
X125502167Y-89937886D01*
X125544788Y-89948546D01*
X125586832Y-89961110D01*
X125596226Y-89964197D01*
X125645805Y-89982423D01*
X125693250Y-90003275D01*
X125738555Y-90026750D01*
X125781716Y-90052842D01*
X125822727Y-90081549D01*
X125861582Y-90112866D01*
X125898276Y-90146788D01*
X125932803Y-90183312D01*
X125965158Y-90222433D01*
X125995335Y-90264148D01*
X125999195Y-90269906D01*
X126010155Y-90286622D01*
X126019608Y-90301572D01*
X126028094Y-90315686D01*
X126036154Y-90329896D01*
X126044328Y-90345131D01*
X126053158Y-90362323D01*
X126054800Y-90365580D01*
X126077456Y-90413857D01*
X126098026Y-90464467D01*
X126116521Y-90517458D01*
X126132952Y-90572879D01*
X126147333Y-90630779D01*
X126159673Y-90691207D01*
X126169985Y-90754212D01*
X126178282Y-90819843D01*
X126184574Y-90888149D01*
X126186348Y-90913373D01*
X126187786Y-90939624D01*
X126188899Y-90968582D01*
X126189690Y-90999584D01*
X126190157Y-91031967D01*
X126190300Y-91065066D01*
X126190121Y-91098219D01*
X126189618Y-91130761D01*
X126188792Y-91162029D01*
X126187643Y-91191359D01*
X126186314Y-91215856D01*
X126180751Y-91286675D01*
X126173145Y-91354806D01*
X126163488Y-91420265D01*
X126151774Y-91483070D01*
X126137994Y-91543238D01*
X126122141Y-91600786D01*
X126104209Y-91655732D01*
X126084191Y-91708092D01*
X126062078Y-91757883D01*
X126037865Y-91805124D01*
X126011543Y-91849831D01*
X125983105Y-91892022D01*
X125952545Y-91931714D01*
X125919854Y-91968924D01*
X125885027Y-92003668D01*
X125848055Y-92035966D01*
X125841592Y-92041186D01*
X125813448Y-92062643D01*
X125784979Y-92082236D01*
X125755318Y-92100511D01*
X125723602Y-92118017D01*
X125705418Y-92127292D01*
X125663120Y-92146946D01*
X125619531Y-92164463D01*
X125574447Y-92179893D01*
X125527659Y-92193284D01*
X125478963Y-92204686D01*
X125428152Y-92214149D01*
X125375019Y-92221721D01*
X125319359Y-92227453D01*
X125273035Y-92230736D01*
X125265560Y-92231057D01*
X125255239Y-92231341D01*
X125242568Y-92231586D01*
X125228045Y-92231790D01*
X125212166Y-92231951D01*
X125195429Y-92232068D01*
X125178330Y-92232139D01*
X125161366Y-92232163D01*
X125145035Y-92232137D01*
X125129833Y-92232061D01*
X125116257Y-92231931D01*
X125104805Y-92231747D01*
X125095972Y-92231508D01*
X125092460Y-92231354D01*
X125056618Y-92229248D01*
X125021136Y-92226780D01*
X124985792Y-92223913D01*
X124950364Y-92220615D01*
X124914630Y-92216851D01*
X124878367Y-92212587D01*
X124841354Y-92207789D01*
X124803369Y-92202422D01*
X124764189Y-92196452D01*
X124723593Y-92189845D01*
X124681358Y-92182568D01*
X124637264Y-92174585D01*
X124591086Y-92165863D01*
X124542604Y-92156367D01*
X124491596Y-92146064D01*
X124437839Y-92134918D01*
X124381112Y-92122896D01*
X124363480Y-92119114D01*
X124348321Y-92115851D01*
X124334090Y-92112785D01*
X124321149Y-92109994D01*
X124309862Y-92107556D01*
X124300592Y-92105550D01*
X124293700Y-92104054D01*
X124289549Y-92103146D01*
X124288550Y-92102922D01*
X124284740Y-92102028D01*
X124284740Y-90243097D01*
X124552286Y-90243097D01*
X124552286Y-91923782D01*
X124573030Y-91927435D01*
X124581204Y-91928879D01*
X124591817Y-91930757D01*
X124603971Y-91932912D01*
X124616772Y-91935185D01*
X124629322Y-91937417D01*
X124631026Y-91937720D01*
X124674821Y-91945262D01*
X124719713Y-91952508D01*
X124764959Y-91959353D01*
X124809814Y-91965691D01*
X124853532Y-91971417D01*
X124895371Y-91976423D01*
X124929053Y-91980051D01*
X124947615Y-91981897D01*
X124964920Y-91983527D01*
X124981522Y-91984983D01*
X124997976Y-91986302D01*
X125014839Y-91987525D01*
X125032665Y-91988692D01*
X125052011Y-91989841D01*
X125073431Y-91991013D01*
X125097481Y-91992246D01*
X125106853Y-91992712D01*
X125115370Y-91992989D01*
X125126724Y-91993147D01*
X125140390Y-91993193D01*
X125155846Y-91993136D01*
X125172568Y-91992986D01*
X125190033Y-91992752D01*
X125207719Y-91992442D01*
X125225101Y-91992066D01*
X125241657Y-91991633D01*
X125256863Y-91991151D01*
X125270197Y-91990631D01*
X125281134Y-91990080D01*
X125288455Y-91989570D01*
X125333075Y-91984976D01*
X125374863Y-91979043D01*
X125414126Y-91971694D01*
X125451175Y-91962851D01*
X125486320Y-91952437D01*
X125519870Y-91940376D01*
X125552134Y-91926590D01*
X125564053Y-91920917D01*
X125598757Y-91902250D01*
X125631531Y-91881153D01*
X125662393Y-91857594D01*
X125691357Y-91831543D01*
X125718439Y-91802966D01*
X125743655Y-91771834D01*
X125767021Y-91738113D01*
X125788552Y-91701773D01*
X125808264Y-91662781D01*
X125826172Y-91621107D01*
X125842293Y-91576718D01*
X125856641Y-91529582D01*
X125869233Y-91479669D01*
X125880085Y-91426946D01*
X125889212Y-91371382D01*
X125896629Y-91312945D01*
X125902353Y-91251604D01*
X125903511Y-91235953D01*
X125905014Y-91211330D01*
X125906276Y-91184015D01*
X125907290Y-91154693D01*
X125908047Y-91124051D01*
X125908538Y-91092774D01*
X125908756Y-91061549D01*
X125908692Y-91031061D01*
X125908338Y-91001997D01*
X125907685Y-90975042D01*
X125906915Y-90954860D01*
X125903172Y-90892580D01*
X125897779Y-90833141D01*
X125890710Y-90776411D01*
X125881940Y-90722259D01*
X125871446Y-90670555D01*
X125859204Y-90621169D01*
X125845187Y-90573970D01*
X125829373Y-90528828D01*
X125825188Y-90517980D01*
X125816742Y-90497877D01*
X125806701Y-90476288D01*
X125795495Y-90454015D01*
X125783557Y-90431860D01*
X125771316Y-90410626D01*
X125759204Y-90391115D01*
X125748731Y-90375638D01*
X125725791Y-90345797D01*
X125700518Y-90317336D01*
X125673419Y-90290749D01*
X125645000Y-90266533D01*
X125615767Y-90245182D01*
X125615026Y-90244687D01*
X125580519Y-90223583D01*
X125544049Y-90205019D01*
X125505550Y-90188975D01*
X125464954Y-90175428D01*
X125422197Y-90164358D01*
X125377210Y-90155744D01*
X125329929Y-90149564D01*
X125313440Y-90148024D01*
X125283274Y-90146088D01*
X125250220Y-90145097D01*
X125214637Y-90145030D01*
X125176883Y-90145866D01*
X125137316Y-90147584D01*
X125096295Y-90150166D01*
X125054179Y-90153590D01*
X125011326Y-90157836D01*
X124968095Y-90162884D01*
X124924843Y-90168714D01*
X124910101Y-90170884D01*
X124865270Y-90178009D01*
X124817983Y-90186237D01*
X124768935Y-90195429D01*
X124718823Y-90205447D01*
X124668340Y-90216154D01*
X124618183Y-90227412D01*
X124581496Y-90236061D01*
X124552286Y-90243097D01*
X124284740Y-90243097D01*
X124284740Y-88773000D01*
X124552286Y-88773000D01*
X124552286Y-90003675D01*
G36*
X128972505Y-89911403D02*
G01*
X128996200Y-89911736D01*
X129017095Y-89912165D01*
X129035780Y-89912724D01*
X129052841Y-89913448D01*
X129068864Y-89914370D01*
X129084439Y-89915527D01*
X129100152Y-89916953D01*
X129116590Y-89918682D01*
X129134341Y-89920749D01*
X129137744Y-89921162D01*
X129196770Y-89929759D01*
X129253510Y-89940852D01*
X129307974Y-89954446D01*
X129360170Y-89970546D01*
X129410109Y-89989158D01*
X129457799Y-90010287D01*
X129503249Y-90033938D01*
X129546469Y-90060116D01*
X129587468Y-90088827D01*
X129626254Y-90120075D01*
X129662838Y-90153866D01*
X129697228Y-90190206D01*
X129729434Y-90229099D01*
X129759464Y-90270550D01*
X129763576Y-90276680D01*
X129790869Y-90320599D01*
X129816017Y-90366980D01*
X129839025Y-90415841D01*
X129859895Y-90467195D01*
X129878631Y-90521059D01*
X129895238Y-90577450D01*
X129909719Y-90636382D01*
X129922078Y-90697872D01*
X129932318Y-90761935D01*
X129940444Y-90828588D01*
X129946458Y-90897845D01*
X129950366Y-90969724D01*
X129952170Y-91044239D01*
X129952305Y-91071700D01*
X129951239Y-91147412D01*
X129948044Y-91220496D01*
X129942716Y-91290959D01*
X129935253Y-91358807D01*
X129925651Y-91424047D01*
X129913908Y-91486687D01*
X129900021Y-91546733D01*
X129883986Y-91604193D01*
X129865801Y-91659073D01*
X129845463Y-91711381D01*
X129822969Y-91761123D01*
X129798316Y-91808306D01*
X129771501Y-91852939D01*
X129742521Y-91895026D01*
X129711373Y-91934577D01*
X129678055Y-91971597D01*
X129642562Y-92006093D01*
X129604893Y-92038074D01*
X129565045Y-92067545D01*
X129523913Y-92093976D01*
X129480157Y-92118248D01*
X129434032Y-92140138D01*
X129385587Y-92159635D01*
X129334872Y-92176731D01*
X129281935Y-92191414D01*
X129226824Y-92203674D01*
X129169589Y-92213502D01*
X129110279Y-92220887D01*
X129048942Y-92225818D01*
X128985627Y-92228287D01*
X128920384Y-92228281D01*
X128883833Y-92227226D01*
X128820954Y-92223512D01*
X128760205Y-92217336D01*
X128701613Y-92208709D01*
X128645207Y-92197637D01*
X128591015Y-92184131D01*
X128539066Y-92168199D01*
X128489389Y-92149851D01*
X128442011Y-92129094D01*
X128396962Y-92105937D01*
X128354269Y-92080391D01*
X128313961Y-92052463D01*
X128308162Y-92048099D01*
X128274704Y-92020931D01*
X128241998Y-91990995D01*
X128210656Y-91958907D01*
X128181291Y-91925282D01*
X128162941Y-91902087D01*
X128134234Y-91861552D01*
X128107537Y-91818321D01*
X128082863Y-91772436D01*
X128060226Y-91723936D01*
X128039639Y-91672860D01*
X128021114Y-91619250D01*
X128004664Y-91563144D01*
X127990302Y-91504583D01*
X127978042Y-91443606D01*
X127967896Y-91380255D01*
X127959877Y-91314567D01*
X127955144Y-91262200D01*
X127953520Y-91240332D01*
X127952170Y-91220123D01*
X127951070Y-91200944D01*
X127950199Y-91182167D01*
X127949535Y-91163162D01*
X127949057Y-91143300D01*
X127948741Y-91121953D01*
X127948567Y-91098492D01*
X127948513Y-91072288D01*
X127948513Y-91071700D01*
X127948562Y-91060425D01*
X128230260Y-91060425D01*
X128230260Y-91081963D01*
X128230338Y-91103250D01*
X128230493Y-91123769D01*
X128230726Y-91143003D01*
X128231037Y-91160437D01*
X128231425Y-91175552D01*
X128231890Y-91187833D01*
X128231924Y-91188540D01*
X128235642Y-91249104D01*
X128240772Y-91306690D01*
X128247338Y-91361407D01*
X128255362Y-91413366D01*
X128264868Y-91462676D01*
X128275880Y-91509448D01*
X128288420Y-91553792D01*
X128302512Y-91595818D01*
X128318180Y-91635636D01*
X128334360Y-91671140D01*
X128354905Y-91710005D01*
X128377333Y-91746234D01*
X128401693Y-91779857D01*
X128428031Y-91810901D01*
X128456397Y-91839397D01*
X128486837Y-91865374D01*
X128519399Y-91888860D01*
X128554132Y-91909885D01*
X128591083Y-91928479D01*
X128630300Y-91944669D01*
X128671830Y-91958486D01*
X128715722Y-91969958D01*
X128762022Y-91979114D01*
X128810780Y-91985985D01*
X128857586Y-91990293D01*
X128883272Y-91991789D01*
X128910804Y-91992829D01*
X128939189Y-91993403D01*
X128967439Y-91993502D01*
X128994562Y-91993115D01*
X129019569Y-91992234D01*
X129025226Y-91991943D01*
X129074506Y-91988241D01*
X129121086Y-91982676D01*
X129165125Y-91975201D01*
X129206781Y-91965769D01*
X129246212Y-91954334D01*
X129283578Y-91940849D01*
X129319036Y-91925266D01*
X129352746Y-91907539D01*
X129384865Y-91887621D01*
X129390140Y-91884041D01*
X129417893Y-91863230D01*
X129444968Y-91839533D01*
X129470878Y-91813447D01*
X129495138Y-91785467D01*
X129517263Y-91756088D01*
X129521535Y-91749872D01*
X129543438Y-91714900D01*
X129563566Y-91677395D01*
X129581930Y-91637312D01*
X129598543Y-91594609D01*
X129613417Y-91549240D01*
X129626564Y-91501164D01*
X129637997Y-91450336D01*
X129647728Y-91396713D01*
X129655770Y-91340251D01*
X129662133Y-91280906D01*
X129665297Y-91241880D01*
X129667992Y-91196494D01*
X129669774Y-91149041D01*
X129670655Y-91100223D01*
X129670644Y-91050742D01*
X129669752Y-91001302D01*
X129667989Y-90952603D01*
X129665366Y-90905349D01*
X129661892Y-90860242D01*
X129659329Y-90833786D01*
X129652117Y-90775242D01*
X129643087Y-90719313D01*
X129632251Y-90666046D01*
X129619621Y-90615486D01*
X129605209Y-90567680D01*
X129589026Y-90522674D01*
X129571084Y-90480514D01*
X129566286Y-90470343D01*
X129545693Y-90430874D01*
X129523202Y-90394105D01*
X129498767Y-90360003D01*
X129472343Y-90328537D01*
X129443883Y-90299676D01*
X129413341Y-90273389D01*
X129380671Y-90249644D01*
X129345827Y-90228411D01*
X129308764Y-90209658D01*
X129269434Y-90193354D01*
X129227792Y-90179467D01*
X129183792Y-90167966D01*
X129137388Y-90158821D01*
X129098886Y-90153227D01*
X129082024Y-90151226D01*
X129066436Y-90149590D01*
X129051495Y-90148288D01*
X129036578Y-90147285D01*
X129021059Y-90146550D01*
X129004314Y-90146048D01*
X128985718Y-90145749D01*
X128964645Y-90145617D01*
X128954106Y-90145604D01*
X128931975Y-90145669D01*
X128912578Y-90145883D01*
X128895268Y-90146278D01*
X128879393Y-90146886D01*
X128864306Y-90147739D01*
X128849356Y-90148867D01*
X128833894Y-90150302D01*
X128817270Y-90152077D01*
X128814619Y-90152376D01*
X128765872Y-90159182D01*
X128719602Y-90168262D01*
X128675747Y-90179645D01*
X128634246Y-90193363D01*
X128595040Y-90209445D01*
X128558066Y-90227922D01*
X128523264Y-90248824D01*
X128490572Y-90272181D01*
X128459931Y-90298025D01*
X128431279Y-90326385D01*
X128405223Y-90356458D01*
X128399605Y-90363723D01*
X128392881Y-90372844D01*
X128385771Y-90382824D01*
X128378992Y-90392666D01*
X128376721Y-90396060D01*
X128355271Y-90430885D01*
X128335560Y-90468078D01*
X128317573Y-90507699D01*
X128301294Y-90549808D01*
X128286707Y-90594463D01*
X128273798Y-90641726D01*
X128262550Y-90691654D01*
X128252949Y-90744309D01*
X128244978Y-90799749D01*
X128238623Y-90858034D01*
X128233867Y-90919223D01*
X128231893Y-90954860D01*
X128231426Y-90967054D01*
X128231037Y-90982097D01*
X128230726Y-90999472D01*
X128230493Y-91018663D01*
X128230337Y-91039153D01*
X128230260Y-91060425D01*
X127948562Y-91060425D01*
X127948677Y-91034449D01*
X127949190Y-90999941D01*
X127950084Y-90967546D01*
X127951392Y-90936635D01*
X127953145Y-90906579D01*
X127955376Y-90876748D01*
X127958118Y-90846513D01*
X127961401Y-90815246D01*
X127961806Y-90811631D01*
X127970565Y-90744900D01*
X127981495Y-90680766D01*
X127994599Y-90619226D01*
X128009878Y-90560278D01*
X128027334Y-90503919D01*
X128046968Y-90450145D01*
X128068783Y-90398955D01*
X128092779Y-90350345D01*
X128118959Y-90304313D01*
X128147323Y-90260856D01*
X128177874Y-90219971D01*
X128210614Y-90181655D01*
X128245543Y-90145906D01*
X128282664Y-90112720D01*
X128321979Y-90082096D01*
X128363487Y-90054030D01*
X128407193Y-90028519D01*
X128429597Y-90016858D01*
X128472291Y-89996866D01*
X128516043Y-89979152D01*
X128561187Y-89963616D01*
X128608059Y-89950157D01*
X128656995Y-89938674D01*
X128708329Y-89929067D01*
X128737486Y-89924579D01*
X128763554Y-89921055D01*
X128788555Y-89918125D01*
X128813062Y-89915756D01*
X128837649Y-89913916D01*
X128862890Y-89912572D01*
X128889358Y-89911694D01*
X128917629Y-89911248D01*
X128948275Y-89911202D01*
X128972505Y-89911403D01*
G37*
X128972505Y-89911403D02*
X128996200Y-89911736D01*
X129017095Y-89912165D01*
X129035780Y-89912724D01*
X129052841Y-89913448D01*
X129068864Y-89914370D01*
X129084439Y-89915527D01*
X129100152Y-89916953D01*
X129116590Y-89918682D01*
X129134341Y-89920749D01*
X129137744Y-89921162D01*
X129196770Y-89929759D01*
X129253510Y-89940852D01*
X129307974Y-89954446D01*
X129360170Y-89970546D01*
X129410109Y-89989158D01*
X129457799Y-90010287D01*
X129503249Y-90033938D01*
X129546469Y-90060116D01*
X129587468Y-90088827D01*
X129626254Y-90120075D01*
X129662838Y-90153866D01*
X129697228Y-90190206D01*
X129729434Y-90229099D01*
X129759464Y-90270550D01*
X129763576Y-90276680D01*
X129790869Y-90320599D01*
X129816017Y-90366980D01*
X129839025Y-90415841D01*
X129859895Y-90467195D01*
X129878631Y-90521059D01*
X129895238Y-90577450D01*
X129909719Y-90636382D01*
X129922078Y-90697872D01*
X129932318Y-90761935D01*
X129940444Y-90828588D01*
X129946458Y-90897845D01*
X129950366Y-90969724D01*
X129952170Y-91044239D01*
X129952305Y-91071700D01*
X129951239Y-91147412D01*
X129948044Y-91220496D01*
X129942716Y-91290959D01*
X129935253Y-91358807D01*
X129925651Y-91424047D01*
X129913908Y-91486687D01*
X129900021Y-91546733D01*
X129883986Y-91604193D01*
X129865801Y-91659073D01*
X129845463Y-91711381D01*
X129822969Y-91761123D01*
X129798316Y-91808306D01*
X129771501Y-91852939D01*
X129742521Y-91895026D01*
X129711373Y-91934577D01*
X129678055Y-91971597D01*
X129642562Y-92006093D01*
X129604893Y-92038074D01*
X129565045Y-92067545D01*
X129523913Y-92093976D01*
X129480157Y-92118248D01*
X129434032Y-92140138D01*
X129385587Y-92159635D01*
X129334872Y-92176731D01*
X129281935Y-92191414D01*
X129226824Y-92203674D01*
X129169589Y-92213502D01*
X129110279Y-92220887D01*
X129048942Y-92225818D01*
X128985627Y-92228287D01*
X128920384Y-92228281D01*
X128883833Y-92227226D01*
X128820954Y-92223512D01*
X128760205Y-92217336D01*
X128701613Y-92208709D01*
X128645207Y-92197637D01*
X128591015Y-92184131D01*
X128539066Y-92168199D01*
X128489389Y-92149851D01*
X128442011Y-92129094D01*
X128396962Y-92105937D01*
X128354269Y-92080391D01*
X128313961Y-92052463D01*
X128308162Y-92048099D01*
X128274704Y-92020931D01*
X128241998Y-91990995D01*
X128210656Y-91958907D01*
X128181291Y-91925282D01*
X128162941Y-91902087D01*
X128134234Y-91861552D01*
X128107537Y-91818321D01*
X128082863Y-91772436D01*
X128060226Y-91723936D01*
X128039639Y-91672860D01*
X128021114Y-91619250D01*
X128004664Y-91563144D01*
X127990302Y-91504583D01*
X127978042Y-91443606D01*
X127967896Y-91380255D01*
X127959877Y-91314567D01*
X127955144Y-91262200D01*
X127953520Y-91240332D01*
X127952170Y-91220123D01*
X127951070Y-91200944D01*
X127950199Y-91182167D01*
X127949535Y-91163162D01*
X127949057Y-91143300D01*
X127948741Y-91121953D01*
X127948567Y-91098492D01*
X127948513Y-91072288D01*
X127948513Y-91071700D01*
X127948562Y-91060425D01*
X128230260Y-91060425D01*
X128230260Y-91081963D01*
X128230338Y-91103250D01*
X128230493Y-91123769D01*
X128230726Y-91143003D01*
X128231037Y-91160437D01*
X128231425Y-91175552D01*
X128231890Y-91187833D01*
X128231924Y-91188540D01*
X128235642Y-91249104D01*
X128240772Y-91306690D01*
X128247338Y-91361407D01*
X128255362Y-91413366D01*
X128264868Y-91462676D01*
X128275880Y-91509448D01*
X128288420Y-91553792D01*
X128302512Y-91595818D01*
X128318180Y-91635636D01*
X128334360Y-91671140D01*
X128354905Y-91710005D01*
X128377333Y-91746234D01*
X128401693Y-91779857D01*
X128428031Y-91810901D01*
X128456397Y-91839397D01*
X128486837Y-91865374D01*
X128519399Y-91888860D01*
X128554132Y-91909885D01*
X128591083Y-91928479D01*
X128630300Y-91944669D01*
X128671830Y-91958486D01*
X128715722Y-91969958D01*
X128762022Y-91979114D01*
X128810780Y-91985985D01*
X128857586Y-91990293D01*
X128883272Y-91991789D01*
X128910804Y-91992829D01*
X128939189Y-91993403D01*
X128967439Y-91993502D01*
X128994562Y-91993115D01*
X129019569Y-91992234D01*
X129025226Y-91991943D01*
X129074506Y-91988241D01*
X129121086Y-91982676D01*
X129165125Y-91975201D01*
X129206781Y-91965769D01*
X129246212Y-91954334D01*
X129283578Y-91940849D01*
X129319036Y-91925266D01*
X129352746Y-91907539D01*
X129384865Y-91887621D01*
X129390140Y-91884041D01*
X129417893Y-91863230D01*
X129444968Y-91839533D01*
X129470878Y-91813447D01*
X129495138Y-91785467D01*
X129517263Y-91756088D01*
X129521535Y-91749872D01*
X129543438Y-91714900D01*
X129563566Y-91677395D01*
X129581930Y-91637312D01*
X129598543Y-91594609D01*
X129613417Y-91549240D01*
X129626564Y-91501164D01*
X129637997Y-91450336D01*
X129647728Y-91396713D01*
X129655770Y-91340251D01*
X129662133Y-91280906D01*
X129665297Y-91241880D01*
X129667992Y-91196494D01*
X129669774Y-91149041D01*
X129670655Y-91100223D01*
X129670644Y-91050742D01*
X129669752Y-91001302D01*
X129667989Y-90952603D01*
X129665366Y-90905349D01*
X129661892Y-90860242D01*
X129659329Y-90833786D01*
X129652117Y-90775242D01*
X129643087Y-90719313D01*
X129632251Y-90666046D01*
X129619621Y-90615486D01*
X129605209Y-90567680D01*
X129589026Y-90522674D01*
X129571084Y-90480514D01*
X129566286Y-90470343D01*
X129545693Y-90430874D01*
X129523202Y-90394105D01*
X129498767Y-90360003D01*
X129472343Y-90328537D01*
X129443883Y-90299676D01*
X129413341Y-90273389D01*
X129380671Y-90249644D01*
X129345827Y-90228411D01*
X129308764Y-90209658D01*
X129269434Y-90193354D01*
X129227792Y-90179467D01*
X129183792Y-90167966D01*
X129137388Y-90158821D01*
X129098886Y-90153227D01*
X129082024Y-90151226D01*
X129066436Y-90149590D01*
X129051495Y-90148288D01*
X129036578Y-90147285D01*
X129021059Y-90146550D01*
X129004314Y-90146048D01*
X128985718Y-90145749D01*
X128964645Y-90145617D01*
X128954106Y-90145604D01*
X128931975Y-90145669D01*
X128912578Y-90145883D01*
X128895268Y-90146278D01*
X128879393Y-90146886D01*
X128864306Y-90147739D01*
X128849356Y-90148867D01*
X128833894Y-90150302D01*
X128817270Y-90152077D01*
X128814619Y-90152376D01*
X128765872Y-90159182D01*
X128719602Y-90168262D01*
X128675747Y-90179645D01*
X128634246Y-90193363D01*
X128595040Y-90209445D01*
X128558066Y-90227922D01*
X128523264Y-90248824D01*
X128490572Y-90272181D01*
X128459931Y-90298025D01*
X128431279Y-90326385D01*
X128405223Y-90356458D01*
X128399605Y-90363723D01*
X128392881Y-90372844D01*
X128385771Y-90382824D01*
X128378992Y-90392666D01*
X128376721Y-90396060D01*
X128355271Y-90430885D01*
X128335560Y-90468078D01*
X128317573Y-90507699D01*
X128301294Y-90549808D01*
X128286707Y-90594463D01*
X128273798Y-90641726D01*
X128262550Y-90691654D01*
X128252949Y-90744309D01*
X128244978Y-90799749D01*
X128238623Y-90858034D01*
X128233867Y-90919223D01*
X128231893Y-90954860D01*
X128231426Y-90967054D01*
X128231037Y-90982097D01*
X128230726Y-90999472D01*
X128230493Y-91018663D01*
X128230337Y-91039153D01*
X128230260Y-91060425D01*
X127948562Y-91060425D01*
X127948677Y-91034449D01*
X127949190Y-90999941D01*
X127950084Y-90967546D01*
X127951392Y-90936635D01*
X127953145Y-90906579D01*
X127955376Y-90876748D01*
X127958118Y-90846513D01*
X127961401Y-90815246D01*
X127961806Y-90811631D01*
X127970565Y-90744900D01*
X127981495Y-90680766D01*
X127994599Y-90619226D01*
X128009878Y-90560278D01*
X128027334Y-90503919D01*
X128046968Y-90450145D01*
X128068783Y-90398955D01*
X128092779Y-90350345D01*
X128118959Y-90304313D01*
X128147323Y-90260856D01*
X128177874Y-90219971D01*
X128210614Y-90181655D01*
X128245543Y-90145906D01*
X128282664Y-90112720D01*
X128321979Y-90082096D01*
X128363487Y-90054030D01*
X128407193Y-90028519D01*
X128429597Y-90016858D01*
X128472291Y-89996866D01*
X128516043Y-89979152D01*
X128561187Y-89963616D01*
X128608059Y-89950157D01*
X128656995Y-89938674D01*
X128708329Y-89929067D01*
X128737486Y-89924579D01*
X128763554Y-89921055D01*
X128788555Y-89918125D01*
X128813062Y-89915756D01*
X128837649Y-89913916D01*
X128862890Y-89912572D01*
X128889358Y-89911694D01*
X128917629Y-89911248D01*
X128948275Y-89911202D01*
X128972505Y-89911403D01*
G36*
X131545763Y-89911835D02*
G01*
X131567411Y-89911971D01*
X131586617Y-89912223D01*
X131603852Y-89912613D01*
X131619588Y-89913165D01*
X131634297Y-89913904D01*
X131648449Y-89914854D01*
X131662517Y-89916037D01*
X131676972Y-89917477D01*
X131692287Y-89919199D01*
X131708932Y-89921226D01*
X131709160Y-89921255D01*
X131768308Y-89930054D01*
X131825172Y-89941346D01*
X131879757Y-89955136D01*
X131932069Y-89971430D01*
X131982114Y-89990233D01*
X132029899Y-90011552D01*
X132075430Y-90035392D01*
X132118714Y-90061759D01*
X132159756Y-90090659D01*
X132198562Y-90122098D01*
X132235140Y-90156081D01*
X132269495Y-90192615D01*
X132301634Y-90231705D01*
X132331562Y-90273356D01*
X132359287Y-90317575D01*
X132384814Y-90364368D01*
X132408149Y-90413740D01*
X132429300Y-90465698D01*
X132448271Y-90520246D01*
X132465070Y-90577391D01*
X132479375Y-90635666D01*
X132490195Y-90689043D01*
X132499481Y-90745046D01*
X132507218Y-90803274D01*
X132513392Y-90863327D01*
X132517989Y-90924805D01*
X132520994Y-90987307D01*
X132522395Y-91050433D01*
X132522175Y-91113782D01*
X132520322Y-91176955D01*
X132516821Y-91239551D01*
X132511659Y-91301169D01*
X132504948Y-91360413D01*
X132495250Y-91425900D01*
X132483347Y-91488828D01*
X132469239Y-91549197D01*
X132452927Y-91607004D01*
X132434412Y-91662248D01*
X132413695Y-91714926D01*
X132390776Y-91765036D01*
X132365657Y-91812578D01*
X132338337Y-91857548D01*
X132308817Y-91899945D01*
X132280875Y-91935300D01*
X132264895Y-91953456D01*
X132246686Y-91972585D01*
X132226972Y-91992001D01*
X132206477Y-92011018D01*
X132185924Y-92028948D01*
X132166038Y-92045106D01*
X132161280Y-92048769D01*
X132121896Y-92076636D01*
X132080067Y-92102204D01*
X132035844Y-92125460D01*
X131989281Y-92146390D01*
X131940432Y-92164981D01*
X131889348Y-92181219D01*
X131836084Y-92195092D01*
X131780692Y-92206585D01*
X131723226Y-92215685D01*
X131663738Y-92222380D01*
X131602281Y-92226654D01*
X131538909Y-92228496D01*
X131473675Y-92227891D01*
X131455091Y-92227281D01*
X131391452Y-92223592D01*
X131330117Y-92217424D01*
X131271078Y-92208773D01*
X131214329Y-92197638D01*
X131159862Y-92184014D01*
X131107668Y-92167898D01*
X131057742Y-92149287D01*
X131010076Y-92128177D01*
X130964662Y-92104565D01*
X130921493Y-92078449D01*
X130880561Y-92049824D01*
X130841859Y-92018687D01*
X130805381Y-91985035D01*
X130771118Y-91948864D01*
X130739062Y-91910172D01*
X130734309Y-91903973D01*
X130705106Y-91862838D01*
X130678037Y-91819207D01*
X130653095Y-91773062D01*
X130630275Y-91724386D01*
X130609572Y-91673162D01*
X130590979Y-91619373D01*
X130574491Y-91563002D01*
X130560103Y-91504031D01*
X130547809Y-91442445D01*
X130537602Y-91378226D01*
X130529479Y-91311356D01*
X130525591Y-91269820D01*
X130522348Y-91224172D01*
X130520001Y-91176065D01*
X130518554Y-91126308D01*
X130518011Y-91075708D01*
X130518159Y-91055059D01*
X130799181Y-91055059D01*
X130799418Y-91111840D01*
X130800935Y-91168244D01*
X130803736Y-91223767D01*
X130807825Y-91277906D01*
X130813207Y-91330158D01*
X130819483Y-91377346D01*
X130828910Y-91433121D01*
X130840133Y-91486027D01*
X130853153Y-91536071D01*
X130867971Y-91583257D01*
X130884589Y-91627590D01*
X130903009Y-91669074D01*
X130923232Y-91707715D01*
X130925071Y-91710933D01*
X130947141Y-91746452D01*
X130971036Y-91779446D01*
X130996818Y-91809947D01*
X131024549Y-91837987D01*
X131054292Y-91863599D01*
X131086106Y-91886816D01*
X131120055Y-91907669D01*
X131156199Y-91926191D01*
X131194601Y-91942415D01*
X131235323Y-91956373D01*
X131278425Y-91968098D01*
X131323969Y-91977621D01*
X131372018Y-91984975D01*
X131422632Y-91990193D01*
X131461086Y-91992665D01*
X131470144Y-91992963D01*
X131481951Y-91993128D01*
X131495958Y-91993170D01*
X131511618Y-91993099D01*
X131528384Y-91992925D01*
X131545707Y-91992658D01*
X131563039Y-91992309D01*
X131579833Y-91991886D01*
X131595540Y-91991401D01*
X131609613Y-91990862D01*
X131621505Y-91990281D01*
X131630666Y-91989667D01*
X131632113Y-91989542D01*
X131680200Y-91984138D01*
X131725567Y-91976883D01*
X131768369Y-91967719D01*
X131808758Y-91956589D01*
X131846888Y-91943435D01*
X131882911Y-91928201D01*
X131916980Y-91910829D01*
X131949250Y-91891262D01*
X131979872Y-91869444D01*
X132002106Y-91851347D01*
X132031067Y-91824225D01*
X132058151Y-91794284D01*
X132083358Y-91761524D01*
X132106687Y-91725946D01*
X132128139Y-91687549D01*
X132147714Y-91646334D01*
X132165412Y-91602300D01*
X132181232Y-91555448D01*
X132195175Y-91505778D01*
X132207241Y-91453290D01*
X132217428Y-91397984D01*
X132225739Y-91339860D01*
X132228101Y-91319773D01*
X132231096Y-91291104D01*
X132233608Y-91262933D01*
X132235663Y-91234709D01*
X132237288Y-91205885D01*
X132238509Y-91175911D01*
X132239353Y-91144237D01*
X132239846Y-91110315D01*
X132240014Y-91073596D01*
X132240014Y-91071700D01*
X132239949Y-91043531D01*
X132239738Y-91018157D01*
X132239365Y-90994989D01*
X132238809Y-90973438D01*
X132238051Y-90952915D01*
X132237073Y-90932830D01*
X132235855Y-90912594D01*
X132234378Y-90891618D01*
X132234038Y-90887126D01*
X132228295Y-90825358D01*
X132220734Y-90766435D01*
X132211347Y-90710342D01*
X132200129Y-90657063D01*
X132187073Y-90606582D01*
X132172174Y-90558883D01*
X132155423Y-90513951D01*
X132136816Y-90471769D01*
X132116345Y-90432323D01*
X132094005Y-90395597D01*
X132069789Y-90361574D01*
X132043690Y-90330239D01*
X132015702Y-90301577D01*
X131986020Y-90275731D01*
X131961024Y-90256941D01*
X131935061Y-90239968D01*
X131907171Y-90224209D01*
X131892040Y-90216514D01*
X131856513Y-90200370D01*
X131820235Y-90186575D01*
X131782679Y-90174970D01*
X131743321Y-90165395D01*
X131701634Y-90157691D01*
X131694766Y-90156629D01*
X131654586Y-90151517D01*
X131612082Y-90147870D01*
X131567985Y-90145690D01*
X131523027Y-90144982D01*
X131477939Y-90145750D01*
X131433454Y-90147998D01*
X131390303Y-90151730D01*
X131364425Y-90154806D01*
X131317764Y-90162321D01*
X131273010Y-90172238D01*
X131230278Y-90184517D01*
X131189681Y-90199114D01*
X131151335Y-90215986D01*
X131115353Y-90235093D01*
X131081849Y-90256390D01*
X131071620Y-90263698D01*
X131040498Y-90288524D01*
X131011362Y-90315816D01*
X130984192Y-90345613D01*
X130958966Y-90377953D01*
X130935664Y-90412874D01*
X130914267Y-90450416D01*
X130894754Y-90490618D01*
X130877104Y-90533517D01*
X130861297Y-90579153D01*
X130847314Y-90627564D01*
X130835133Y-90678789D01*
X130824734Y-90732866D01*
X130824432Y-90734638D01*
X130817068Y-90783112D01*
X130810961Y-90834229D01*
X130806115Y-90887485D01*
X130802534Y-90942378D01*
X130800221Y-90998404D01*
X130799181Y-91055059D01*
X130518159Y-91055059D01*
X130518375Y-91025073D01*
X130519650Y-90975212D01*
X130521839Y-90926933D01*
X130523901Y-90894746D01*
X130530110Y-90825062D01*
X130538449Y-90758004D01*
X130548925Y-90693564D01*
X130561542Y-90631731D01*
X130576304Y-90572496D01*
X130593218Y-90515850D01*
X130612288Y-90461783D01*
X130633519Y-90410285D01*
X130656915Y-90361347D01*
X130682483Y-90314960D01*
X130710226Y-90271114D01*
X130740151Y-90229799D01*
X130772261Y-90191006D01*
X130806561Y-90154726D01*
X130843058Y-90120948D01*
X130881755Y-90089664D01*
X130922658Y-90060864D01*
X130965772Y-90034539D01*
X130976805Y-90028393D01*
X131020041Y-90006523D01*
X131065787Y-89986800D01*
X131113902Y-89969265D01*
X131164243Y-89953961D01*
X131216668Y-89940928D01*
X131271034Y-89930210D01*
X131327199Y-89921848D01*
X131346786Y-89919538D01*
X131362239Y-89917865D01*
X131376111Y-89916448D01*
X131388871Y-89915266D01*
X131400985Y-89914299D01*
X131412923Y-89913526D01*
X131425153Y-89912926D01*
X131438143Y-89912479D01*
X131452360Y-89912162D01*
X131468274Y-89911957D01*
X131486352Y-89911841D01*
X131507063Y-89911794D01*
X131521200Y-89911791D01*
X131545763Y-89911835D01*
G37*
X131545763Y-89911835D02*
X131567411Y-89911971D01*
X131586617Y-89912223D01*
X131603852Y-89912613D01*
X131619588Y-89913165D01*
X131634297Y-89913904D01*
X131648449Y-89914854D01*
X131662517Y-89916037D01*
X131676972Y-89917477D01*
X131692287Y-89919199D01*
X131708932Y-89921226D01*
X131709160Y-89921255D01*
X131768308Y-89930054D01*
X131825172Y-89941346D01*
X131879757Y-89955136D01*
X131932069Y-89971430D01*
X131982114Y-89990233D01*
X132029899Y-90011552D01*
X132075430Y-90035392D01*
X132118714Y-90061759D01*
X132159756Y-90090659D01*
X132198562Y-90122098D01*
X132235140Y-90156081D01*
X132269495Y-90192615D01*
X132301634Y-90231705D01*
X132331562Y-90273356D01*
X132359287Y-90317575D01*
X132384814Y-90364368D01*
X132408149Y-90413740D01*
X132429300Y-90465698D01*
X132448271Y-90520246D01*
X132465070Y-90577391D01*
X132479375Y-90635666D01*
X132490195Y-90689043D01*
X132499481Y-90745046D01*
X132507218Y-90803274D01*
X132513392Y-90863327D01*
X132517989Y-90924805D01*
X132520994Y-90987307D01*
X132522395Y-91050433D01*
X132522175Y-91113782D01*
X132520322Y-91176955D01*
X132516821Y-91239551D01*
X132511659Y-91301169D01*
X132504948Y-91360413D01*
X132495250Y-91425900D01*
X132483347Y-91488828D01*
X132469239Y-91549197D01*
X132452927Y-91607004D01*
X132434412Y-91662248D01*
X132413695Y-91714926D01*
X132390776Y-91765036D01*
X132365657Y-91812578D01*
X132338337Y-91857548D01*
X132308817Y-91899945D01*
X132280875Y-91935300D01*
X132264895Y-91953456D01*
X132246686Y-91972585D01*
X132226972Y-91992001D01*
X132206477Y-92011018D01*
X132185924Y-92028948D01*
X132166038Y-92045106D01*
X132161280Y-92048769D01*
X132121896Y-92076636D01*
X132080067Y-92102204D01*
X132035844Y-92125460D01*
X131989281Y-92146390D01*
X131940432Y-92164981D01*
X131889348Y-92181219D01*
X131836084Y-92195092D01*
X131780692Y-92206585D01*
X131723226Y-92215685D01*
X131663738Y-92222380D01*
X131602281Y-92226654D01*
X131538909Y-92228496D01*
X131473675Y-92227891D01*
X131455091Y-92227281D01*
X131391452Y-92223592D01*
X131330117Y-92217424D01*
X131271078Y-92208773D01*
X131214329Y-92197638D01*
X131159862Y-92184014D01*
X131107668Y-92167898D01*
X131057742Y-92149287D01*
X131010076Y-92128177D01*
X130964662Y-92104565D01*
X130921493Y-92078449D01*
X130880561Y-92049824D01*
X130841859Y-92018687D01*
X130805381Y-91985035D01*
X130771118Y-91948864D01*
X130739062Y-91910172D01*
X130734309Y-91903973D01*
X130705106Y-91862838D01*
X130678037Y-91819207D01*
X130653095Y-91773062D01*
X130630275Y-91724386D01*
X130609572Y-91673162D01*
X130590979Y-91619373D01*
X130574491Y-91563002D01*
X130560103Y-91504031D01*
X130547809Y-91442445D01*
X130537602Y-91378226D01*
X130529479Y-91311356D01*
X130525591Y-91269820D01*
X130522348Y-91224172D01*
X130520001Y-91176065D01*
X130518554Y-91126308D01*
X130518011Y-91075708D01*
X130518159Y-91055059D01*
X130799181Y-91055059D01*
X130799418Y-91111840D01*
X130800935Y-91168244D01*
X130803736Y-91223767D01*
X130807825Y-91277906D01*
X130813207Y-91330158D01*
X130819483Y-91377346D01*
X130828910Y-91433121D01*
X130840133Y-91486027D01*
X130853153Y-91536071D01*
X130867971Y-91583257D01*
X130884589Y-91627590D01*
X130903009Y-91669074D01*
X130923232Y-91707715D01*
X130925071Y-91710933D01*
X130947141Y-91746452D01*
X130971036Y-91779446D01*
X130996818Y-91809947D01*
X131024549Y-91837987D01*
X131054292Y-91863599D01*
X131086106Y-91886816D01*
X131120055Y-91907669D01*
X131156199Y-91926191D01*
X131194601Y-91942415D01*
X131235323Y-91956373D01*
X131278425Y-91968098D01*
X131323969Y-91977621D01*
X131372018Y-91984975D01*
X131422632Y-91990193D01*
X131461086Y-91992665D01*
X131470144Y-91992963D01*
X131481951Y-91993128D01*
X131495958Y-91993170D01*
X131511618Y-91993099D01*
X131528384Y-91992925D01*
X131545707Y-91992658D01*
X131563039Y-91992309D01*
X131579833Y-91991886D01*
X131595540Y-91991401D01*
X131609613Y-91990862D01*
X131621505Y-91990281D01*
X131630666Y-91989667D01*
X131632113Y-91989542D01*
X131680200Y-91984138D01*
X131725567Y-91976883D01*
X131768369Y-91967719D01*
X131808758Y-91956589D01*
X131846888Y-91943435D01*
X131882911Y-91928201D01*
X131916980Y-91910829D01*
X131949250Y-91891262D01*
X131979872Y-91869444D01*
X132002106Y-91851347D01*
X132031067Y-91824225D01*
X132058151Y-91794284D01*
X132083358Y-91761524D01*
X132106687Y-91725946D01*
X132128139Y-91687549D01*
X132147714Y-91646334D01*
X132165412Y-91602300D01*
X132181232Y-91555448D01*
X132195175Y-91505778D01*
X132207241Y-91453290D01*
X132217428Y-91397984D01*
X132225739Y-91339860D01*
X132228101Y-91319773D01*
X132231096Y-91291104D01*
X132233608Y-91262933D01*
X132235663Y-91234709D01*
X132237288Y-91205885D01*
X132238509Y-91175911D01*
X132239353Y-91144237D01*
X132239846Y-91110315D01*
X132240014Y-91073596D01*
X132240014Y-91071700D01*
X132239949Y-91043531D01*
X132239738Y-91018157D01*
X132239365Y-90994989D01*
X132238809Y-90973438D01*
X132238051Y-90952915D01*
X132237073Y-90932830D01*
X132235855Y-90912594D01*
X132234378Y-90891618D01*
X132234038Y-90887126D01*
X132228295Y-90825358D01*
X132220734Y-90766435D01*
X132211347Y-90710342D01*
X132200129Y-90657063D01*
X132187073Y-90606582D01*
X132172174Y-90558883D01*
X132155423Y-90513951D01*
X132136816Y-90471769D01*
X132116345Y-90432323D01*
X132094005Y-90395597D01*
X132069789Y-90361574D01*
X132043690Y-90330239D01*
X132015702Y-90301577D01*
X131986020Y-90275731D01*
X131961024Y-90256941D01*
X131935061Y-90239968D01*
X131907171Y-90224209D01*
X131892040Y-90216514D01*
X131856513Y-90200370D01*
X131820235Y-90186575D01*
X131782679Y-90174970D01*
X131743321Y-90165395D01*
X131701634Y-90157691D01*
X131694766Y-90156629D01*
X131654586Y-90151517D01*
X131612082Y-90147870D01*
X131567985Y-90145690D01*
X131523027Y-90144982D01*
X131477939Y-90145750D01*
X131433454Y-90147998D01*
X131390303Y-90151730D01*
X131364425Y-90154806D01*
X131317764Y-90162321D01*
X131273010Y-90172238D01*
X131230278Y-90184517D01*
X131189681Y-90199114D01*
X131151335Y-90215986D01*
X131115353Y-90235093D01*
X131081849Y-90256390D01*
X131071620Y-90263698D01*
X131040498Y-90288524D01*
X131011362Y-90315816D01*
X130984192Y-90345613D01*
X130958966Y-90377953D01*
X130935664Y-90412874D01*
X130914267Y-90450416D01*
X130894754Y-90490618D01*
X130877104Y-90533517D01*
X130861297Y-90579153D01*
X130847314Y-90627564D01*
X130835133Y-90678789D01*
X130824734Y-90732866D01*
X130824432Y-90734638D01*
X130817068Y-90783112D01*
X130810961Y-90834229D01*
X130806115Y-90887485D01*
X130802534Y-90942378D01*
X130800221Y-90998404D01*
X130799181Y-91055059D01*
X130518159Y-91055059D01*
X130518375Y-91025073D01*
X130519650Y-90975212D01*
X130521839Y-90926933D01*
X130523901Y-90894746D01*
X130530110Y-90825062D01*
X130538449Y-90758004D01*
X130548925Y-90693564D01*
X130561542Y-90631731D01*
X130576304Y-90572496D01*
X130593218Y-90515850D01*
X130612288Y-90461783D01*
X130633519Y-90410285D01*
X130656915Y-90361347D01*
X130682483Y-90314960D01*
X130710226Y-90271114D01*
X130740151Y-90229799D01*
X130772261Y-90191006D01*
X130806561Y-90154726D01*
X130843058Y-90120948D01*
X130881755Y-90089664D01*
X130922658Y-90060864D01*
X130965772Y-90034539D01*
X130976805Y-90028393D01*
X131020041Y-90006523D01*
X131065787Y-89986800D01*
X131113902Y-89969265D01*
X131164243Y-89953961D01*
X131216668Y-89940928D01*
X131271034Y-89930210D01*
X131327199Y-89921848D01*
X131346786Y-89919538D01*
X131362239Y-89917865D01*
X131376111Y-89916448D01*
X131388871Y-89915266D01*
X131400985Y-89914299D01*
X131412923Y-89913526D01*
X131425153Y-89912926D01*
X131438143Y-89912479D01*
X131452360Y-89912162D01*
X131468274Y-89911957D01*
X131486352Y-89911841D01*
X131507063Y-89911794D01*
X131521200Y-89911791D01*
X131545763Y-89911835D01*
G36*
X127200237Y-90481996D02*
G01*
X127199813Y-92190993D01*
X127066463Y-92191426D01*
X126933113Y-92191860D01*
X126933113Y-88773000D01*
X127200661Y-88773000D01*
X127200237Y-90481996D01*
G37*
X127200237Y-90481996D02*
X127199813Y-92190993D01*
X127066463Y-92191426D01*
X126933113Y-92191860D01*
X126933113Y-88773000D01*
X127200661Y-88773000D01*
X127200237Y-90481996D01*
D10*
X114613000Y-113100000D02*
X118813000Y-113100000D01*
X118813000Y-113100000D02*
X118813000Y-115500000D01*
X118813000Y-115500000D02*
X114613000Y-115500000D01*
X114613000Y-115500000D02*
X114613000Y-113100000D01*
D11*
X129089410Y-107076814D02*
X129425286Y-106740938D01*
X119214664Y-106740938D02*
X119550540Y-107076814D01*
X119550540Y-106405062D02*
X119214664Y-106740938D01*
X124319975Y-101635627D02*
X124655851Y-101971503D01*
X123984099Y-101971503D02*
X124319975Y-101635627D01*
X124319975Y-111846249D02*
X123984099Y-111510373D01*
X124655851Y-111510373D02*
X124319975Y-111846249D01*
X172454800Y-97129600D02*
G75*
G03X172454800Y-97129600I-700000J0D01*
G01*
X118873500Y-99314000D02*
G75*
G03X118873500Y-99314000I-700000J0D01*
G01*
X179935600Y-113169200D02*
G75*
G03X179935600Y-113169200I-700000J0D01*
G01*
X179871600Y-115223700D02*
G75*
G03X179871600Y-115223700I-700000J0D01*
G01*
X117857500Y-97218500D02*
G75*
G03X117857500Y-97218500I-700000J0D01*
G01*
X130580000Y-97880000D02*
G75*
G03X130580000Y-97880000I-700000J0D01*
G01*
X179770000Y-93662500D02*
G75*
G03X179770000Y-93662500I-700000J0D01*
G01*
D13*
X179905200Y-110134400D02*
G75*
G03X179905200Y-110134400I-50000J0D01*
G01*
X179788500Y-97155000D02*
G75*
G03X179788500Y-97155000I-50000J0D01*
G01*
X179765500Y-98361500D02*
G75*
G03X179765500Y-98361500I-50000J0D01*
G01*
D10*
X124380666Y-96630333D02*
X124380666Y-96963666D01*
X124147333Y-96263666D02*
X124380666Y-96630333D01*
X124614000Y-96263666D01*
X124814000Y-96330333D02*
X124847333Y-96297000D01*
X124914000Y-96263666D01*
X125080666Y-96263666D01*
X125147333Y-96297000D01*
X125180666Y-96330333D01*
X125214000Y-96397000D01*
X125214000Y-96463666D01*
X125180666Y-96563666D01*
X124780666Y-96963666D01*
X125214000Y-96963666D01*
X119568166Y-115183333D02*
X119568166Y-114783333D01*
X120268166Y-114983333D02*
X119568166Y-114983333D01*
X120268166Y-114550000D02*
X119568166Y-114550000D01*
X119568166Y-114283333D01*
X119601500Y-114216666D01*
X119634833Y-114183333D01*
X119701500Y-114150000D01*
X119801500Y-114150000D01*
X119868166Y-114183333D01*
X119901500Y-114216666D01*
X119934833Y-114283333D01*
X119934833Y-114550000D01*
X119801500Y-113550000D02*
X120268166Y-113550000D01*
X119534833Y-113716666D02*
X120034833Y-113883333D01*
X120034833Y-113450000D01*
X129272818Y-108500566D02*
X129673512Y-108901259D01*
X129744223Y-108924830D01*
X129791363Y-108924830D01*
X129862074Y-108901259D01*
X129956355Y-108806978D01*
X129979925Y-108736268D01*
X129979925Y-108689127D01*
X129956355Y-108618417D01*
X129555661Y-108217723D01*
X130168487Y-107934880D02*
X130498470Y-108264863D01*
X129862074Y-107864169D02*
X130097776Y-108335574D01*
X130404189Y-108029161D01*
X170884166Y-95501666D02*
X171284166Y-95501666D01*
X171084166Y-96201666D02*
X171084166Y-95501666D01*
X171517500Y-96201666D02*
X171517500Y-95501666D01*
X171784166Y-95501666D01*
X171850833Y-95535000D01*
X171884166Y-95568333D01*
X171917500Y-95635000D01*
X171917500Y-95735000D01*
X171884166Y-95801666D01*
X171850833Y-95835000D01*
X171784166Y-95868333D01*
X171517500Y-95868333D01*
X172317500Y-95801666D02*
X172250833Y-95768333D01*
X172217500Y-95735000D01*
X172184166Y-95668333D01*
X172184166Y-95635000D01*
X172217500Y-95568333D01*
X172250833Y-95535000D01*
X172317500Y-95501666D01*
X172450833Y-95501666D01*
X172517500Y-95535000D01*
X172550833Y-95568333D01*
X172584166Y-95635000D01*
X172584166Y-95668333D01*
X172550833Y-95735000D01*
X172517500Y-95768333D01*
X172450833Y-95801666D01*
X172317500Y-95801666D01*
X172250833Y-95835000D01*
X172217500Y-95868333D01*
X172184166Y-95935000D01*
X172184166Y-96068333D01*
X172217500Y-96135000D01*
X172250833Y-96168333D01*
X172317500Y-96201666D01*
X172450833Y-96201666D01*
X172517500Y-96168333D01*
X172550833Y-96135000D01*
X172584166Y-96068333D01*
X172584166Y-95935000D01*
X172550833Y-95868333D01*
X172517500Y-95835000D01*
X172450833Y-95801666D01*
X115512166Y-98930666D02*
X115912166Y-98930666D01*
X115712166Y-99630666D02*
X115712166Y-98930666D01*
X116145500Y-99630666D02*
X116145500Y-98930666D01*
X116412166Y-98930666D01*
X116478833Y-98964000D01*
X116512166Y-98997333D01*
X116545500Y-99064000D01*
X116545500Y-99164000D01*
X116512166Y-99230666D01*
X116478833Y-99264000D01*
X116412166Y-99297333D01*
X116145500Y-99297333D01*
X116778833Y-98930666D02*
X117245500Y-98930666D01*
X116945500Y-99630666D01*
X176535666Y-112785866D02*
X176935666Y-112785866D01*
X176735666Y-113485866D02*
X176735666Y-112785866D01*
X177169000Y-113485866D02*
X177169000Y-112785866D01*
X177435666Y-112785866D01*
X177502333Y-112819200D01*
X177535666Y-112852533D01*
X177569000Y-112919200D01*
X177569000Y-113019200D01*
X177535666Y-113085866D01*
X177502333Y-113119200D01*
X177435666Y-113152533D01*
X177169000Y-113152533D01*
X178202333Y-112785866D02*
X177869000Y-112785866D01*
X177835666Y-113119200D01*
X177869000Y-113085866D01*
X177935666Y-113052533D01*
X178102333Y-113052533D01*
X178169000Y-113085866D01*
X178202333Y-113119200D01*
X178235666Y-113185866D01*
X178235666Y-113352533D01*
X178202333Y-113419200D01*
X178169000Y-113452533D01*
X178102333Y-113485866D01*
X177935666Y-113485866D01*
X177869000Y-113452533D01*
X177835666Y-113419200D01*
X176535666Y-114869166D02*
X176935666Y-114869166D01*
X176735666Y-115569166D02*
X176735666Y-114869166D01*
X177169000Y-115569166D02*
X177169000Y-114869166D01*
X177435666Y-114869166D01*
X177502333Y-114902500D01*
X177535666Y-114935833D01*
X177569000Y-115002500D01*
X177569000Y-115102500D01*
X177535666Y-115169166D01*
X177502333Y-115202500D01*
X177435666Y-115235833D01*
X177169000Y-115235833D01*
X178169000Y-114869166D02*
X178035666Y-114869166D01*
X177969000Y-114902500D01*
X177935666Y-114935833D01*
X177869000Y-115035833D01*
X177835666Y-115169166D01*
X177835666Y-115435833D01*
X177869000Y-115502500D01*
X177902333Y-115535833D01*
X177969000Y-115569166D01*
X178102333Y-115569166D01*
X178169000Y-115535833D01*
X178202333Y-115502500D01*
X178235666Y-115435833D01*
X178235666Y-115269166D01*
X178202333Y-115202500D01*
X178169000Y-115169166D01*
X178102333Y-115135833D01*
X177969000Y-115135833D01*
X177902333Y-115169166D01*
X177869000Y-115202500D01*
X177835666Y-115269166D01*
X114524966Y-96846866D02*
X114924966Y-96846866D01*
X114724966Y-97546866D02*
X114724966Y-96846866D01*
X115158300Y-97546866D02*
X115158300Y-96846866D01*
X115424966Y-96846866D01*
X115491633Y-96880200D01*
X115524966Y-96913533D01*
X115558300Y-96980200D01*
X115558300Y-97080200D01*
X115524966Y-97146866D01*
X115491633Y-97180200D01*
X115424966Y-97213533D01*
X115158300Y-97213533D01*
X115791633Y-96846866D02*
X116224966Y-96846866D01*
X115991633Y-97113533D01*
X116091633Y-97113533D01*
X116158300Y-97146866D01*
X116191633Y-97180200D01*
X116224966Y-97246866D01*
X116224966Y-97413533D01*
X116191633Y-97480200D01*
X116158300Y-97513533D01*
X116091633Y-97546866D01*
X115891633Y-97546866D01*
X115824966Y-97513533D01*
X115791633Y-97480200D01*
X128996666Y-96200166D02*
X129396666Y-96200166D01*
X129196666Y-96900166D02*
X129196666Y-96200166D01*
X129630000Y-96900166D02*
X129630000Y-96200166D01*
X129896666Y-96200166D01*
X129963333Y-96233500D01*
X129996666Y-96266833D01*
X130030000Y-96333500D01*
X130030000Y-96433500D01*
X129996666Y-96500166D01*
X129963333Y-96533500D01*
X129896666Y-96566833D01*
X129630000Y-96566833D01*
X130296666Y-96266833D02*
X130330000Y-96233500D01*
X130396666Y-96200166D01*
X130563333Y-96200166D01*
X130630000Y-96233500D01*
X130663333Y-96266833D01*
X130696666Y-96333500D01*
X130696666Y-96400166D01*
X130663333Y-96500166D01*
X130263333Y-96900166D01*
X130696666Y-96900166D01*
X176345166Y-93279166D02*
X176745166Y-93279166D01*
X176545166Y-93979166D02*
X176545166Y-93279166D01*
X176978500Y-93979166D02*
X176978500Y-93279166D01*
X177245166Y-93279166D01*
X177311833Y-93312500D01*
X177345166Y-93345833D01*
X177378500Y-93412500D01*
X177378500Y-93512500D01*
X177345166Y-93579166D01*
X177311833Y-93612500D01*
X177245166Y-93645833D01*
X176978500Y-93645833D01*
X178045166Y-93979166D02*
X177645166Y-93979166D01*
X177845166Y-93979166D02*
X177845166Y-93279166D01*
X177778500Y-93379166D01*
X177711833Y-93445833D01*
X177645166Y-93479166D01*
X119834833Y-100189466D02*
X119601500Y-99856133D01*
X119434833Y-100189466D02*
X119434833Y-99489466D01*
X119701500Y-99489466D01*
X119768166Y-99522800D01*
X119801500Y-99556133D01*
X119834833Y-99622800D01*
X119834833Y-99722800D01*
X119801500Y-99789466D01*
X119768166Y-99822800D01*
X119701500Y-99856133D01*
X119434833Y-99856133D01*
X120068166Y-99489466D02*
X120534833Y-99489466D01*
X120234833Y-100189466D01*
X119771333Y-97039866D02*
X119538000Y-96706533D01*
X119371333Y-97039866D02*
X119371333Y-96339866D01*
X119638000Y-96339866D01*
X119704666Y-96373200D01*
X119738000Y-96406533D01*
X119771333Y-96473200D01*
X119771333Y-96573200D01*
X119738000Y-96639866D01*
X119704666Y-96673200D01*
X119638000Y-96706533D01*
X119371333Y-96706533D01*
X120371333Y-96339866D02*
X120238000Y-96339866D01*
X120171333Y-96373200D01*
X120138000Y-96406533D01*
X120071333Y-96506533D01*
X120038000Y-96639866D01*
X120038000Y-96906533D01*
X120071333Y-96973200D01*
X120104666Y-97006533D01*
X120171333Y-97039866D01*
X120304666Y-97039866D01*
X120371333Y-97006533D01*
X120404666Y-96973200D01*
X120438000Y-96906533D01*
X120438000Y-96739866D01*
X120404666Y-96673200D01*
X120371333Y-96639866D01*
X120304666Y-96606533D01*
X120171333Y-96606533D01*
X120104666Y-96639866D01*
X120071333Y-96673200D01*
X120038000Y-96739866D01*
X119743533Y-98309866D02*
X119510200Y-97976533D01*
X119343533Y-98309866D02*
X119343533Y-97609866D01*
X119610200Y-97609866D01*
X119676866Y-97643200D01*
X119710200Y-97676533D01*
X119743533Y-97743200D01*
X119743533Y-97843200D01*
X119710200Y-97909866D01*
X119676866Y-97943200D01*
X119610200Y-97976533D01*
X119343533Y-97976533D01*
X120376866Y-97609866D02*
X120043533Y-97609866D01*
X120010200Y-97943200D01*
X120043533Y-97909866D01*
X120110200Y-97876533D01*
X120276866Y-97876533D01*
X120343533Y-97909866D01*
X120376866Y-97943200D01*
X120410200Y-98009866D01*
X120410200Y-98176533D01*
X120376866Y-98243200D01*
X120343533Y-98276533D01*
X120276866Y-98309866D01*
X120110200Y-98309866D01*
X120043533Y-98276533D01*
X120010200Y-98243200D01*
X176572133Y-110451066D02*
X176572133Y-109751066D01*
X176738800Y-109751066D01*
X176838800Y-109784400D01*
X176905466Y-109851066D01*
X176938800Y-109917733D01*
X176972133Y-110051066D01*
X176972133Y-110151066D01*
X176938800Y-110284400D01*
X176905466Y-110351066D01*
X176838800Y-110417733D01*
X176738800Y-110451066D01*
X176572133Y-110451066D01*
X177572133Y-109984400D02*
X177572133Y-110451066D01*
X177405466Y-109717733D02*
X177238800Y-110217733D01*
X177672133Y-110217733D01*
X176330833Y-97471666D02*
X176330833Y-96771666D01*
X176497500Y-96771666D01*
X176597500Y-96805000D01*
X176664166Y-96871666D01*
X176697500Y-96938333D01*
X176730833Y-97071666D01*
X176730833Y-97171666D01*
X176697500Y-97305000D01*
X176664166Y-97371666D01*
X176597500Y-97438333D01*
X176497500Y-97471666D01*
X176330833Y-97471666D01*
X176964166Y-96771666D02*
X177397500Y-96771666D01*
X177164166Y-97038333D01*
X177264166Y-97038333D01*
X177330833Y-97071666D01*
X177364166Y-97105000D01*
X177397500Y-97171666D01*
X177397500Y-97338333D01*
X177364166Y-97405000D01*
X177330833Y-97438333D01*
X177264166Y-97471666D01*
X177064166Y-97471666D01*
X176997500Y-97438333D01*
X176964166Y-97405000D01*
X176330833Y-98678166D02*
X176330833Y-97978166D01*
X176497500Y-97978166D01*
X176597500Y-98011500D01*
X176664166Y-98078166D01*
X176697500Y-98144833D01*
X176730833Y-98278166D01*
X176730833Y-98378166D01*
X176697500Y-98511500D01*
X176664166Y-98578166D01*
X176597500Y-98644833D01*
X176497500Y-98678166D01*
X176330833Y-98678166D01*
X176997500Y-98044833D02*
X177030833Y-98011500D01*
X177097500Y-97978166D01*
X177264166Y-97978166D01*
X177330833Y-98011500D01*
X177364166Y-98044833D01*
X177397500Y-98111500D01*
X177397500Y-98178166D01*
X177364166Y-98278166D01*
X176964166Y-98678166D01*
X177397500Y-98678166D01*
X116313800Y-101621400D02*
X116280466Y-101654733D01*
X116180466Y-101688066D01*
X116113800Y-101688066D01*
X116013800Y-101654733D01*
X115947133Y-101588066D01*
X115913800Y-101521400D01*
X115880466Y-101388066D01*
X115880466Y-101288066D01*
X115913800Y-101154733D01*
X115947133Y-101088066D01*
X116013800Y-101021400D01*
X116113800Y-100988066D01*
X116180466Y-100988066D01*
X116280466Y-101021400D01*
X116313800Y-101054733D01*
X116913800Y-101221400D02*
X116913800Y-101688066D01*
X116747133Y-100954733D02*
X116580466Y-101454733D01*
X117013800Y-101454733D01*
X117647133Y-101688066D02*
X117247133Y-101688066D01*
X117447133Y-101688066D02*
X117447133Y-100988066D01*
X117380466Y-101088066D01*
X117313800Y-101154733D01*
X117247133Y-101188066D01*
X116339200Y-102637400D02*
X116305866Y-102670733D01*
X116205866Y-102704066D01*
X116139200Y-102704066D01*
X116039200Y-102670733D01*
X115972533Y-102604066D01*
X115939200Y-102537400D01*
X115905866Y-102404066D01*
X115905866Y-102304066D01*
X115939200Y-102170733D01*
X115972533Y-102104066D01*
X116039200Y-102037400D01*
X116139200Y-102004066D01*
X116205866Y-102004066D01*
X116305866Y-102037400D01*
X116339200Y-102070733D01*
X116572533Y-102004066D02*
X117005866Y-102004066D01*
X116772533Y-102270733D01*
X116872533Y-102270733D01*
X116939200Y-102304066D01*
X116972533Y-102337400D01*
X117005866Y-102404066D01*
X117005866Y-102570733D01*
X116972533Y-102637400D01*
X116939200Y-102670733D01*
X116872533Y-102704066D01*
X116672533Y-102704066D01*
X116605866Y-102670733D01*
X116572533Y-102637400D01*
X117672533Y-102704066D02*
X117272533Y-102704066D01*
X117472533Y-102704066D02*
X117472533Y-102004066D01*
X117405866Y-102104066D01*
X117339200Y-102170733D01*
X117272533Y-102204066D01*
X127515200Y-98243200D02*
X127481866Y-98276533D01*
X127381866Y-98309866D01*
X127315200Y-98309866D01*
X127215200Y-98276533D01*
X127148533Y-98209866D01*
X127115200Y-98143200D01*
X127081866Y-98009866D01*
X127081866Y-97909866D01*
X127115200Y-97776533D01*
X127148533Y-97709866D01*
X127215200Y-97643200D01*
X127315200Y-97609866D01*
X127381866Y-97609866D01*
X127481866Y-97643200D01*
X127515200Y-97676533D01*
X127781866Y-97676533D02*
X127815200Y-97643200D01*
X127881866Y-97609866D01*
X128048533Y-97609866D01*
X128115200Y-97643200D01*
X128148533Y-97676533D01*
X128181866Y-97743200D01*
X128181866Y-97809866D01*
X128148533Y-97909866D01*
X127748533Y-98309866D01*
X128181866Y-98309866D01*
X128781866Y-97609866D02*
X128648533Y-97609866D01*
X128581866Y-97643200D01*
X128548533Y-97676533D01*
X128481866Y-97776533D01*
X128448533Y-97909866D01*
X128448533Y-98176533D01*
X128481866Y-98243200D01*
X128515200Y-98276533D01*
X128581866Y-98309866D01*
X128715200Y-98309866D01*
X128781866Y-98276533D01*
X128815200Y-98243200D01*
X128848533Y-98176533D01*
X128848533Y-98009866D01*
X128815200Y-97943200D01*
X128781866Y-97909866D01*
X128715200Y-97876533D01*
X128581866Y-97876533D01*
X128515200Y-97909866D01*
X128481866Y-97943200D01*
X128448533Y-98009866D01*
X126905600Y-95957200D02*
X126872266Y-95990533D01*
X126772266Y-96023866D01*
X126705600Y-96023866D01*
X126605600Y-95990533D01*
X126538933Y-95923866D01*
X126505600Y-95857200D01*
X126472266Y-95723866D01*
X126472266Y-95623866D01*
X126505600Y-95490533D01*
X126538933Y-95423866D01*
X126605600Y-95357200D01*
X126705600Y-95323866D01*
X126772266Y-95323866D01*
X126872266Y-95357200D01*
X126905600Y-95390533D01*
X127172266Y-95390533D02*
X127205600Y-95357200D01*
X127272266Y-95323866D01*
X127438933Y-95323866D01*
X127505600Y-95357200D01*
X127538933Y-95390533D01*
X127572266Y-95457200D01*
X127572266Y-95523866D01*
X127538933Y-95623866D01*
X127138933Y-96023866D01*
X127572266Y-96023866D01*
X128205600Y-95323866D02*
X127872266Y-95323866D01*
X127838933Y-95657200D01*
X127872266Y-95623866D01*
X127938933Y-95590533D01*
X128105600Y-95590533D01*
X128172266Y-95623866D01*
X128205600Y-95657200D01*
X128238933Y-95723866D01*
X128238933Y-95890533D01*
X128205600Y-95957200D01*
X128172266Y-95990533D01*
X128105600Y-96023866D01*
X127938933Y-96023866D01*
X127872266Y-95990533D01*
X127838933Y-95957200D01*
X130143060Y-104183600D02*
X130176393Y-104216933D01*
X130209726Y-104316933D01*
X130209726Y-104383600D01*
X130176393Y-104483600D01*
X130109726Y-104550266D01*
X130043060Y-104583600D01*
X129909726Y-104616933D01*
X129809726Y-104616933D01*
X129676393Y-104583600D01*
X129609726Y-104550266D01*
X129543060Y-104483600D01*
X129509726Y-104383600D01*
X129509726Y-104316933D01*
X129543060Y-104216933D01*
X129576393Y-104183600D01*
X129576393Y-103916933D02*
X129543060Y-103883600D01*
X129509726Y-103816933D01*
X129509726Y-103650266D01*
X129543060Y-103583600D01*
X129576393Y-103550266D01*
X129643060Y-103516933D01*
X129709726Y-103516933D01*
X129809726Y-103550266D01*
X130209726Y-103950266D01*
X130209726Y-103516933D01*
X129743060Y-102916933D02*
X130209726Y-102916933D01*
X129476393Y-103083600D02*
X129976393Y-103250266D01*
X129976393Y-102816933D01*
X125534000Y-101773800D02*
X125500666Y-101807133D01*
X125400666Y-101840466D01*
X125334000Y-101840466D01*
X125234000Y-101807133D01*
X125167333Y-101740466D01*
X125134000Y-101673800D01*
X125100666Y-101540466D01*
X125100666Y-101440466D01*
X125134000Y-101307133D01*
X125167333Y-101240466D01*
X125234000Y-101173800D01*
X125334000Y-101140466D01*
X125400666Y-101140466D01*
X125500666Y-101173800D01*
X125534000Y-101207133D01*
X125800666Y-101207133D02*
X125834000Y-101173800D01*
X125900666Y-101140466D01*
X126067333Y-101140466D01*
X126134000Y-101173800D01*
X126167333Y-101207133D01*
X126200666Y-101273800D01*
X126200666Y-101340466D01*
X126167333Y-101440466D01*
X125767333Y-101840466D01*
X126200666Y-101840466D01*
X126634000Y-101140466D02*
X126700666Y-101140466D01*
X126767333Y-101173800D01*
X126800666Y-101207133D01*
X126834000Y-101273800D01*
X126867333Y-101407133D01*
X126867333Y-101573800D01*
X126834000Y-101707133D01*
X126800666Y-101773800D01*
X126767333Y-101807133D01*
X126700666Y-101840466D01*
X126634000Y-101840466D01*
X126567333Y-101807133D01*
X126534000Y-101773800D01*
X126500666Y-101707133D01*
X126467333Y-101573800D01*
X126467333Y-101407133D01*
X126500666Y-101273800D01*
X126534000Y-101207133D01*
X126567333Y-101173800D01*
X126634000Y-101140466D01*
X128531200Y-99513200D02*
X128497866Y-99546533D01*
X128397866Y-99579866D01*
X128331200Y-99579866D01*
X128231200Y-99546533D01*
X128164533Y-99479866D01*
X128131200Y-99413200D01*
X128097866Y-99279866D01*
X128097866Y-99179866D01*
X128131200Y-99046533D01*
X128164533Y-98979866D01*
X128231200Y-98913200D01*
X128331200Y-98879866D01*
X128397866Y-98879866D01*
X128497866Y-98913200D01*
X128531200Y-98946533D01*
X129197866Y-99579866D02*
X128797866Y-99579866D01*
X128997866Y-99579866D02*
X128997866Y-98879866D01*
X128931200Y-98979866D01*
X128864533Y-99046533D01*
X128797866Y-99079866D01*
X129431200Y-98879866D02*
X129897866Y-98879866D01*
X129597866Y-99579866D01*
X131530000Y-104130000D02*
X131563333Y-104163333D01*
X131596666Y-104263333D01*
X131596666Y-104330000D01*
X131563333Y-104430000D01*
X131496666Y-104496666D01*
X131430000Y-104530000D01*
X131296666Y-104563333D01*
X131196666Y-104563333D01*
X131063333Y-104530000D01*
X130996666Y-104496666D01*
X130930000Y-104430000D01*
X130896666Y-104330000D01*
X130896666Y-104263333D01*
X130930000Y-104163333D01*
X130963333Y-104130000D01*
X131596666Y-103463333D02*
X131596666Y-103863333D01*
X131596666Y-103663333D02*
X130896666Y-103663333D01*
X130996666Y-103730000D01*
X131063333Y-103796666D01*
X131096666Y-103863333D01*
X130896666Y-102863333D02*
X130896666Y-102996666D01*
X130930000Y-103063333D01*
X130963333Y-103096666D01*
X131063333Y-103163333D01*
X131196666Y-103196666D01*
X131463333Y-103196666D01*
X131530000Y-103163333D01*
X131563333Y-103130000D01*
X131596666Y-103063333D01*
X131596666Y-102930000D01*
X131563333Y-102863333D01*
X131530000Y-102830000D01*
X131463333Y-102796666D01*
X131296666Y-102796666D01*
X131230000Y-102830000D01*
X131196666Y-102863333D01*
X131163333Y-102930000D01*
X131163333Y-103063333D01*
X131196666Y-103130000D01*
X131230000Y-103163333D01*
X131296666Y-103196666D01*
X131568000Y-106114000D02*
X131601333Y-106147333D01*
X131634666Y-106247333D01*
X131634666Y-106314000D01*
X131601333Y-106414000D01*
X131534666Y-106480666D01*
X131468000Y-106514000D01*
X131334666Y-106547333D01*
X131234666Y-106547333D01*
X131101333Y-106514000D01*
X131034666Y-106480666D01*
X130968000Y-106414000D01*
X130934666Y-106314000D01*
X130934666Y-106247333D01*
X130968000Y-106147333D01*
X131001333Y-106114000D01*
X131634666Y-105447333D02*
X131634666Y-105847333D01*
X131634666Y-105647333D02*
X130934666Y-105647333D01*
X131034666Y-105714000D01*
X131101333Y-105780666D01*
X131134666Y-105847333D01*
X130934666Y-104814000D02*
X130934666Y-105147333D01*
X131268000Y-105180666D01*
X131234666Y-105147333D01*
X131201333Y-105080666D01*
X131201333Y-104914000D01*
X131234666Y-104847333D01*
X131268000Y-104814000D01*
X131334666Y-104780666D01*
X131501333Y-104780666D01*
X131568000Y-104814000D01*
X131601333Y-104847333D01*
X131634666Y-104914000D01*
X131634666Y-105080666D01*
X131601333Y-105147333D01*
X131568000Y-105180666D01*
X131568000Y-108400000D02*
X131601333Y-108433333D01*
X131634666Y-108533333D01*
X131634666Y-108600000D01*
X131601333Y-108700000D01*
X131534666Y-108766666D01*
X131468000Y-108800000D01*
X131334666Y-108833333D01*
X131234666Y-108833333D01*
X131101333Y-108800000D01*
X131034666Y-108766666D01*
X130968000Y-108700000D01*
X130934666Y-108600000D01*
X130934666Y-108533333D01*
X130968000Y-108433333D01*
X131001333Y-108400000D01*
X131634666Y-107733333D02*
X131634666Y-108133333D01*
X131634666Y-107933333D02*
X130934666Y-107933333D01*
X131034666Y-108000000D01*
X131101333Y-108066666D01*
X131134666Y-108133333D01*
X131168000Y-107133333D02*
X131634666Y-107133333D01*
X130901333Y-107300000D02*
X131401333Y-107466666D01*
X131401333Y-107033333D01*
X131568000Y-110940000D02*
X131601333Y-110973333D01*
X131634666Y-111073333D01*
X131634666Y-111140000D01*
X131601333Y-111240000D01*
X131534666Y-111306666D01*
X131468000Y-111340000D01*
X131334666Y-111373333D01*
X131234666Y-111373333D01*
X131101333Y-111340000D01*
X131034666Y-111306666D01*
X130968000Y-111240000D01*
X130934666Y-111140000D01*
X130934666Y-111073333D01*
X130968000Y-110973333D01*
X131001333Y-110940000D01*
X131634666Y-110273333D02*
X131634666Y-110673333D01*
X131634666Y-110473333D02*
X130934666Y-110473333D01*
X131034666Y-110540000D01*
X131101333Y-110606666D01*
X131134666Y-110673333D01*
X130934666Y-110040000D02*
X130934666Y-109606666D01*
X131201333Y-109840000D01*
X131201333Y-109740000D01*
X131234666Y-109673333D01*
X131268000Y-109640000D01*
X131334666Y-109606666D01*
X131501333Y-109606666D01*
X131568000Y-109640000D01*
X131601333Y-109673333D01*
X131634666Y-109740000D01*
X131634666Y-109940000D01*
X131601333Y-110006666D01*
X131568000Y-110040000D01*
X135567000Y-104136000D02*
X135533666Y-104169333D01*
X135433666Y-104202666D01*
X135367000Y-104202666D01*
X135267000Y-104169333D01*
X135200333Y-104102666D01*
X135167000Y-104036000D01*
X135133666Y-103902666D01*
X135133666Y-103802666D01*
X135167000Y-103669333D01*
X135200333Y-103602666D01*
X135267000Y-103536000D01*
X135367000Y-103502666D01*
X135433666Y-103502666D01*
X135533666Y-103536000D01*
X135567000Y-103569333D01*
X136233666Y-104202666D02*
X135833666Y-104202666D01*
X136033666Y-104202666D02*
X136033666Y-103502666D01*
X135967000Y-103602666D01*
X135900333Y-103669333D01*
X135833666Y-103702666D01*
X136500333Y-103569333D02*
X136533666Y-103536000D01*
X136600333Y-103502666D01*
X136767000Y-103502666D01*
X136833666Y-103536000D01*
X136867000Y-103569333D01*
X136900333Y-103636000D01*
X136900333Y-103702666D01*
X136867000Y-103802666D01*
X136467000Y-104202666D01*
X136900333Y-104202666D01*
X135694000Y-106422000D02*
X135660666Y-106455333D01*
X135560666Y-106488666D01*
X135494000Y-106488666D01*
X135394000Y-106455333D01*
X135327333Y-106388666D01*
X135294000Y-106322000D01*
X135260666Y-106188666D01*
X135260666Y-106088666D01*
X135294000Y-105955333D01*
X135327333Y-105888666D01*
X135394000Y-105822000D01*
X135494000Y-105788666D01*
X135560666Y-105788666D01*
X135660666Y-105822000D01*
X135694000Y-105855333D01*
X136360666Y-106488666D02*
X135960666Y-106488666D01*
X136160666Y-106488666D02*
X136160666Y-105788666D01*
X136094000Y-105888666D01*
X136027333Y-105955333D01*
X135960666Y-105988666D01*
X137027333Y-106488666D02*
X136627333Y-106488666D01*
X136827333Y-106488666D02*
X136827333Y-105788666D01*
X136760666Y-105888666D01*
X136694000Y-105955333D01*
X136627333Y-105988666D01*
X135694000Y-108835000D02*
X135660666Y-108868333D01*
X135560666Y-108901666D01*
X135494000Y-108901666D01*
X135394000Y-108868333D01*
X135327333Y-108801666D01*
X135294000Y-108735000D01*
X135260666Y-108601666D01*
X135260666Y-108501666D01*
X135294000Y-108368333D01*
X135327333Y-108301666D01*
X135394000Y-108235000D01*
X135494000Y-108201666D01*
X135560666Y-108201666D01*
X135660666Y-108235000D01*
X135694000Y-108268333D01*
X136360666Y-108901666D02*
X135960666Y-108901666D01*
X136160666Y-108901666D02*
X136160666Y-108201666D01*
X136094000Y-108301666D01*
X136027333Y-108368333D01*
X135960666Y-108401666D01*
X136794000Y-108201666D02*
X136860666Y-108201666D01*
X136927333Y-108235000D01*
X136960666Y-108268333D01*
X136994000Y-108335000D01*
X137027333Y-108468333D01*
X137027333Y-108635000D01*
X136994000Y-108768333D01*
X136960666Y-108835000D01*
X136927333Y-108868333D01*
X136860666Y-108901666D01*
X136794000Y-108901666D01*
X136727333Y-108868333D01*
X136694000Y-108835000D01*
X136660666Y-108768333D01*
X136627333Y-108635000D01*
X136627333Y-108468333D01*
X136660666Y-108335000D01*
X136694000Y-108268333D01*
X136727333Y-108235000D01*
X136794000Y-108201666D01*
X135773333Y-111375000D02*
X135740000Y-111408333D01*
X135640000Y-111441666D01*
X135573333Y-111441666D01*
X135473333Y-111408333D01*
X135406666Y-111341666D01*
X135373333Y-111275000D01*
X135340000Y-111141666D01*
X135340000Y-111041666D01*
X135373333Y-110908333D01*
X135406666Y-110841666D01*
X135473333Y-110775000D01*
X135573333Y-110741666D01*
X135640000Y-110741666D01*
X135740000Y-110775000D01*
X135773333Y-110808333D01*
X136106666Y-111441666D02*
X136240000Y-111441666D01*
X136306666Y-111408333D01*
X136340000Y-111375000D01*
X136406666Y-111275000D01*
X136440000Y-111141666D01*
X136440000Y-110875000D01*
X136406666Y-110808333D01*
X136373333Y-110775000D01*
X136306666Y-110741666D01*
X136173333Y-110741666D01*
X136106666Y-110775000D01*
X136073333Y-110808333D01*
X136040000Y-110875000D01*
X136040000Y-111041666D01*
X136073333Y-111108333D01*
X136106666Y-111141666D01*
X136173333Y-111175000D01*
X136306666Y-111175000D01*
X136373333Y-111141666D01*
X136406666Y-111108333D01*
X136440000Y-111041666D01*
X135519333Y-102993000D02*
X135486000Y-103026333D01*
X135386000Y-103059666D01*
X135319333Y-103059666D01*
X135219333Y-103026333D01*
X135152666Y-102959666D01*
X135119333Y-102893000D01*
X135086000Y-102759666D01*
X135086000Y-102659666D01*
X135119333Y-102526333D01*
X135152666Y-102459666D01*
X135219333Y-102393000D01*
X135319333Y-102359666D01*
X135386000Y-102359666D01*
X135486000Y-102393000D01*
X135519333Y-102426333D01*
X135919333Y-102659666D02*
X135852666Y-102626333D01*
X135819333Y-102593000D01*
X135786000Y-102526333D01*
X135786000Y-102493000D01*
X135819333Y-102426333D01*
X135852666Y-102393000D01*
X135919333Y-102359666D01*
X136052666Y-102359666D01*
X136119333Y-102393000D01*
X136152666Y-102426333D01*
X136186000Y-102493000D01*
X136186000Y-102526333D01*
X136152666Y-102593000D01*
X136119333Y-102626333D01*
X136052666Y-102659666D01*
X135919333Y-102659666D01*
X135852666Y-102693000D01*
X135819333Y-102726333D01*
X135786000Y-102793000D01*
X135786000Y-102926333D01*
X135819333Y-102993000D01*
X135852666Y-103026333D01*
X135919333Y-103059666D01*
X136052666Y-103059666D01*
X136119333Y-103026333D01*
X136152666Y-102993000D01*
X136186000Y-102926333D01*
X136186000Y-102793000D01*
X136152666Y-102726333D01*
X136119333Y-102693000D01*
X136052666Y-102659666D01*
X135773333Y-105279000D02*
X135740000Y-105312333D01*
X135640000Y-105345666D01*
X135573333Y-105345666D01*
X135473333Y-105312333D01*
X135406666Y-105245666D01*
X135373333Y-105179000D01*
X135340000Y-105045666D01*
X135340000Y-104945666D01*
X135373333Y-104812333D01*
X135406666Y-104745666D01*
X135473333Y-104679000D01*
X135573333Y-104645666D01*
X135640000Y-104645666D01*
X135740000Y-104679000D01*
X135773333Y-104712333D01*
X136006666Y-104645666D02*
X136473333Y-104645666D01*
X136173333Y-105345666D01*
X135646333Y-107565000D02*
X135613000Y-107598333D01*
X135513000Y-107631666D01*
X135446333Y-107631666D01*
X135346333Y-107598333D01*
X135279666Y-107531666D01*
X135246333Y-107465000D01*
X135213000Y-107331666D01*
X135213000Y-107231666D01*
X135246333Y-107098333D01*
X135279666Y-107031666D01*
X135346333Y-106965000D01*
X135446333Y-106931666D01*
X135513000Y-106931666D01*
X135613000Y-106965000D01*
X135646333Y-106998333D01*
X136246333Y-106931666D02*
X136113000Y-106931666D01*
X136046333Y-106965000D01*
X136013000Y-106998333D01*
X135946333Y-107098333D01*
X135913000Y-107231666D01*
X135913000Y-107498333D01*
X135946333Y-107565000D01*
X135979666Y-107598333D01*
X136046333Y-107631666D01*
X136179666Y-107631666D01*
X136246333Y-107598333D01*
X136279666Y-107565000D01*
X136313000Y-107498333D01*
X136313000Y-107331666D01*
X136279666Y-107265000D01*
X136246333Y-107231666D01*
X136179666Y-107198333D01*
X136046333Y-107198333D01*
X135979666Y-107231666D01*
X135946333Y-107265000D01*
X135913000Y-107331666D01*
X135773333Y-110105000D02*
X135740000Y-110138333D01*
X135640000Y-110171666D01*
X135573333Y-110171666D01*
X135473333Y-110138333D01*
X135406666Y-110071666D01*
X135373333Y-110005000D01*
X135340000Y-109871666D01*
X135340000Y-109771666D01*
X135373333Y-109638333D01*
X135406666Y-109571666D01*
X135473333Y-109505000D01*
X135573333Y-109471666D01*
X135640000Y-109471666D01*
X135740000Y-109505000D01*
X135773333Y-109538333D01*
X136406666Y-109471666D02*
X136073333Y-109471666D01*
X136040000Y-109805000D01*
X136073333Y-109771666D01*
X136140000Y-109738333D01*
X136306666Y-109738333D01*
X136373333Y-109771666D01*
X136406666Y-109805000D01*
X136440000Y-109871666D01*
X136440000Y-110038333D01*
X136406666Y-110105000D01*
X136373333Y-110138333D01*
X136306666Y-110171666D01*
X136140000Y-110171666D01*
X136073333Y-110138333D01*
X136040000Y-110105000D01*
M02*
