M48
; DRILL file {KiCad (5.1.5)-3} date 1/5/2020 10:56:22 AM
; FORMAT={-:-/ absolute / inch / decimal}
; #@! TF.CreationDate,2020-01-05T10:56:22-07:00
; #@! TF.GenerationSoftware,Kicad,Pcbnew,(5.1.5)-3
; #@! TF.FileFunction,Plated,1,4,PTH
FMAT,2
INCH
T1C0.0118
T2C0.0157
T3C0.0866
%
G90
G05
T1
X4.5Y-4.96
X4.51Y-3.41
X4.51Y-3.48
X4.51Y-3.68
X4.51Y-3.73
X4.51Y-3.79
X4.51Y-3.88
X4.51Y-3.94
X4.51Y-4.0
X4.52Y-4.17
X4.52Y-4.2
X4.52Y-4.23
X4.52Y-4.26
X4.52Y-4.29
X4.52Y-4.32
X4.52Y-4.35
X4.52Y-5.0
X4.522Y-4.39
X4.522Y-4.4294
X4.522Y-4.5869
X4.522Y-4.6262
X4.522Y-4.6656
X4.522Y-4.705
X4.522Y-4.7443
X4.548Y-4.065
X4.55Y-4.21
X4.55Y-4.25
X4.56Y-3.4
X4.56Y-4.29
X4.56Y-4.32
X4.56Y-4.35
X4.5614Y-4.39
X4.5614Y-4.4294
X4.5614Y-4.5869
X4.5614Y-4.6262
X4.5614Y-4.6656
X4.5614Y-4.7443
X4.57Y-5.01
X4.5725Y-4.1885
X4.576Y-4.232
X4.58Y-3.67
X4.58Y-3.73
X4.58Y-3.76
X4.6Y-4.35
X4.6007Y-4.39
X4.6007Y-4.4294
X4.6007Y-4.5869
X4.6007Y-4.6262
X4.6007Y-4.6656
X4.6007Y-4.7443
X4.63Y-3.67
X4.63Y-3.73
X4.63Y-3.76
X4.64Y-3.4
X4.64Y-4.35
X4.64Y-5.01
X4.6401Y-4.39
X4.6401Y-4.4294
X4.6401Y-4.5869
X4.6401Y-4.6262
X4.6401Y-4.6656
X4.6401Y-4.705
X4.6401Y-4.7443
X4.655Y-3.8275
X4.666Y-4.064
X4.666Y-4.108
X4.668Y-3.956
X4.67Y-4.15
X4.68Y-4.58
X4.68Y-4.99
X4.69Y-4.26
X4.69Y-4.65
X4.69Y-4.68
X4.698Y-4.202
X4.7Y-4.13
X4.7188Y-4.2792
X4.72Y-4.61
X4.7254Y-4.3099
X4.73Y-4.57
X4.73Y-4.66
X4.7359Y-4.0425
X4.749Y-4.3103
X4.75Y-3.887
X4.78Y-4.87
X4.804Y-3.894
X4.8201Y-4.0183
X4.823Y-4.1805
X4.823Y-4.2278
X4.84Y-3.46
X4.844Y-3.986
X4.8667Y-3.826
X4.8702Y-4.1333
X4.8702Y-4.1805
X4.8702Y-4.2278
X4.8702Y-4.275
X4.8885Y-4.4372
X4.89Y-4.39
X4.8925Y-4.86
X4.894Y-4.002
X4.894Y-4.064
X4.915Y-4.485
X4.9175Y-4.1333
X4.9175Y-4.1805
X4.9175Y-4.2278
X4.9175Y-4.275
X4.93Y-4.4
X4.9418Y-4.5362
X4.9461Y-4.1035
X4.95Y-4.96
X4.9647Y-4.1805
X4.9647Y-4.2278
X4.995Y-4.86
X5.0248Y-4.0859
X5.0327Y-4.0201
X5.034Y-3.832
X5.04Y-4.96
X5.0402Y-4.3898
X5.0425Y-3.8825
X5.055Y-4.4525
X5.056Y-4.022
X5.06Y-4.5175
X5.06Y-4.55
X5.08Y-4.4775
X5.084Y-4.196
X5.09Y-4.244
X5.095Y-4.86
X5.096Y-3.99
X5.1Y-4.55
X5.1Y-4.59
X5.13Y-4.48
X5.13Y-4.5175
X5.1331Y-3.9953
X5.14Y-4.56
X5.14Y-4.96
X5.1454Y-4.4175
X5.1525Y-4.395
X5.16Y-4.62
X5.19Y-4.64
X5.23Y-4.65
X5.24Y-4.8
X5.24Y-4.96
X5.2425Y-4.86
X5.27Y-4.65
X5.3175Y-4.64
X5.34Y-4.77
X5.35Y-4.45
X5.36Y-4.61
X5.37Y-4.48
X5.37Y-4.55
X5.395Y-4.8625
X5.44Y-4.205
X5.44Y-4.3
X5.45Y-3.768
X5.45Y-3.85
X5.45Y-3.925
X5.45Y-4.0
X5.45Y-4.1175
X5.45Y-4.46
X5.45Y-4.52
X5.45Y-4.58
X5.45Y-4.6313
X5.49Y-4.39
X5.4917Y-4.205
X5.4917Y-4.3
X5.4925Y-4.875
X5.5Y-3.766
X5.5Y-4.52
X5.5Y-4.58
X5.5Y-4.631
X5.525Y-3.85
X5.525Y-3.925
X5.525Y-4.0
X5.525Y-4.1175
X5.54Y-4.39
X5.5433Y-4.205
X5.5433Y-4.3
X5.5482Y-4.805
X5.55Y-3.7653
X5.55Y-4.58
X5.5575Y-4.6525
X5.58Y-4.39
X5.58Y-4.45
X5.59Y-4.48
X5.595Y-4.205
X5.595Y-4.3
X5.6Y-3.7663
X5.6Y-3.85
X5.6Y-3.925
X5.6Y-4.0
X5.6Y-4.1175
X5.6Y-4.63
X5.62Y-4.51
X5.6392Y-4.77
X5.64Y-4.39
X5.64Y-4.45
X5.64Y-4.48
X5.64Y-4.54
X5.645Y-4.9625
X5.6467Y-4.205
X5.6467Y-4.3
X5.655Y-3.555
X5.66Y-4.51
X5.675Y-3.85
X5.675Y-3.925
X5.675Y-4.0
X5.675Y-4.1175
X5.68Y-4.39
X5.68Y-4.45
X5.68Y-4.48
X5.6983Y-4.205
X5.6983Y-4.3
X5.71Y-4.48
X5.72Y-4.45
X5.7375Y-4.5975
X5.74Y-4.8975
X5.7475Y-4.1175
X5.75Y-3.6456
X5.75Y-3.85
X5.75Y-3.925
X5.75Y-4.0
X5.75Y-4.205
X5.75Y-4.3
X5.75Y-4.39
X5.7725Y-4.5575
X5.785Y-4.6372
X5.8075Y-4.5225
X5.8075Y-4.58
X5.825Y-3.925
X5.825Y-4.0
X5.825Y-4.1175
X5.8293Y-3.6175
X5.835Y-3.455
X5.845Y-4.795
X5.8516Y-4.6252
X5.8775Y-4.4675
X5.9Y-4.6321
X5.9025Y-4.1175
X5.9025Y-4.5025
X5.9025Y-4.545
X5.9025Y-4.5875
X5.9177Y-3.7667
X5.9225Y-4.4125
X5.925Y-4.4475
X5.935Y-3.455
X5.94Y-4.795
X5.9543Y-4.5
X5.9543Y-4.575
X5.99Y-4.015
X5.9957Y-4.5
X5.9957Y-4.575
X6.0325Y-4.5
X6.035Y-3.45
X6.035Y-4.26
X6.0375Y-4.1675
X6.04Y-4.795
X6.045Y-4.59
X6.05Y-3.7659
X6.05Y-4.6322
X6.07Y-4.545
X6.0775Y-3.7925
X6.095Y-3.5725
X6.1031Y-3.8488
X6.1031Y-3.9388
X6.105Y-4.2225
X6.105Y-4.31
X6.14Y-4.795
X6.1445Y-3.8488
X6.1445Y-3.9388
X6.17Y-3.82
X6.17Y-4.3425
X6.1725Y-4.41
X6.1775Y-4.6025
X6.19Y-4.5525
X6.195Y-3.55
X6.195Y-3.875
X6.195Y-3.915
X6.195Y-3.98
X6.195Y-4.02
X6.2Y-3.7659
X6.2Y-4.6338
X6.205Y-4.4425
X6.2152Y-3.8939
X6.2156Y-4.0009
X6.235Y-3.875
X6.235Y-3.915
X6.235Y-3.98
X6.235Y-4.02
X6.235Y-4.795
X6.24Y-3.46
X6.2625Y-4.23
X6.29Y-4.475
X6.29Y-4.58
X6.29Y-4.63
X6.29Y-4.66
X6.2925Y-3.75
X6.295Y-3.5675
X6.3125Y-4.5
X6.335Y-4.3175
X6.335Y-4.5275
X6.34Y-4.795
X6.35Y-4.58
X6.35Y-4.63
X6.35Y-4.66
X6.3793Y-3.8967
X6.3793Y-3.9987
X6.3925Y-3.58
X6.3925Y-3.77
X6.395Y-3.88
X6.395Y-3.915
X6.395Y-3.98
X6.395Y-4.015
X6.41Y-4.58
X6.41Y-4.63
X6.41Y-4.66
X6.418Y-4.456
X6.435Y-3.46
X6.44Y-4.795
X6.45Y-3.81
X6.46Y-3.86
X6.46Y-4.58
X6.46Y-4.63
X6.46Y-4.66
X6.47Y-3.77
X6.47Y-3.91
X6.47Y-4.0
X6.47Y-4.05
X6.48Y-3.96
X6.49Y-3.82
X6.495Y-3.5675
X6.495Y-4.4775
X6.4966Y-4.1783
X6.498Y-4.114
X6.5Y-4.04
X6.51Y-3.78
X6.52Y-3.86
X6.53Y-3.91
X6.53Y-3.96
X6.53Y-4.63
X6.53Y-4.66
X6.54Y-4.795
X6.55Y-3.81
X6.5513Y-4.2208
X6.57Y-3.86
X6.57Y-4.63
X6.57Y-4.66
X6.581Y-4.5084
X6.5825Y-3.9125
X6.5825Y-3.9525
X6.5825Y-3.9925
X6.5825Y-4.0325
X6.5825Y-4.0725
X6.595Y-3.5675
X6.6Y-3.77
X6.6Y-3.85
X6.6046Y-3.9271
X6.6046Y-3.9927
X6.605Y-4.0327
X6.605Y-4.0557
X6.6055Y-3.9526
X6.61Y-3.81
X6.61Y-4.53
X6.61Y-4.58
X6.61Y-4.63
X6.61Y-4.66
X6.611Y-4.364
X6.6111Y-4.2647
X6.622Y-4.114
X6.627Y-4.2923
X6.6275Y-3.9125
X6.6275Y-3.9525
X6.6275Y-3.9925
X6.6275Y-4.0325
X6.6275Y-4.0725
X6.6291Y-4.3184
X6.645Y-4.795
X6.6575Y-4.184
X6.6775Y-3.985
X6.69Y-4.65
X6.6925Y-3.5675
X6.7325Y-3.9025
X6.735Y-3.46
X6.74Y-4.65
X6.75Y-4.59
X6.7725Y-4.085
X6.774Y-4.488
X6.7866Y-3.8884
X6.79Y-4.55
X6.8Y-3.42
X6.8Y-3.52
X6.8Y-3.61
X6.8Y-3.74
X6.8Y-4.6
X6.8Y-4.66
X6.8Y-4.72
X6.8Y-4.78
X6.8Y-4.83
X6.8Y-4.87
X6.8Y-4.92
X6.8Y-4.97
X6.8Y-5.01
X6.8075Y-3.8325
X6.81Y-3.68
X6.83Y-4.54
X6.8325Y-4.0135
X6.84Y-4.2525
X6.84Y-4.72
X6.84Y-4.78
X6.85Y-3.4
X6.86Y-3.68
X6.86Y-4.5
X6.87Y-3.73
X6.87Y-4.6
X6.87Y-4.66
X6.87Y-4.72
X6.87Y-4.97
X6.87Y-5.01
X6.88Y-4.45
X6.885Y-4.1487
X6.8925Y-3.9275
X6.9Y-3.43
X6.9Y-4.51
X6.9Y-4.56
X6.91Y-3.68
X6.93Y-3.72
X6.93Y-5.01
X6.938Y-4.38
X6.94Y-3.4
X6.94Y-4.46
X6.94Y-4.54
X6.94Y-4.6
X6.94Y-4.66
X6.94Y-4.72
X6.96Y-4.5
X6.96Y-3.78
X6.98Y-3.45
X6.99Y-5.01
X7.0Y-4.6
X7.0Y-4.66
X7.0Y-4.72
X7.014Y-3.9052
X7.02Y-3.63
X7.02Y-4.3
X7.03Y-3.43
X7.03Y-4.98
X7.04Y-3.52
X7.05Y-3.57
X7.05Y-3.74
X7.05Y-4.63
X7.05Y-4.69
X7.05Y-4.73
X7.05Y-4.77
X7.05Y-4.82
X7.05Y-4.88
X7.05Y-4.93
X7.0516Y-3.9044
X7.054Y-4.5844
X7.0585Y-4.4035
X7.06Y-3.61
T2
X6.8594Y-4.865
X6.8785Y-4.8191
X6.8785Y-4.9109
X6.9244Y-4.8
X6.9244Y-4.93
X6.9703Y-4.8191
X6.9703Y-4.9109
X6.9894Y-4.865
X5.185Y-3.9
X5.2041Y-3.8541
X5.2041Y-3.9459
X5.25Y-3.835
X5.25Y-3.965
X5.2959Y-3.8541
X5.2959Y-3.9459
X5.315Y-3.9
X4.5366Y-4.865
X4.5556Y-4.8191
X4.5556Y-4.9109
X4.6016Y-4.8
X4.6016Y-4.93
X4.6475Y-4.8191
X4.6475Y-4.9109
X4.6665Y-4.865
X6.8594Y-3.5622
X6.8785Y-3.5163
X6.8785Y-3.6081
X6.9244Y-3.4972
X6.9244Y-3.6272
X6.9703Y-3.5163
X6.9703Y-3.6081
X6.9894Y-3.5622
X4.5366Y-3.5622
X4.5556Y-3.5163
X4.5556Y-3.6081
X4.6016Y-3.4972
X4.6016Y-3.6272
X4.6475Y-3.5163
X4.6475Y-3.6081
X4.6665Y-3.5622
X5.185Y-4.5233
X5.2041Y-4.4773
X5.2041Y-4.5692
X5.25Y-4.4583
X5.25Y-4.5882
X5.2959Y-4.4773
X5.2959Y-4.5692
X5.315Y-4.5233
T3
X6.9244Y-4.865
X4.6016Y-4.865
X6.9244Y-3.5622
X4.6016Y-3.5622
X5.25Y-4.5233
X5.25Y-3.9
T0
M30
