G04 #@! TF.GenerationSoftware,KiCad,Pcbnew,(5.1.2)-2*
G04 #@! TF.CreationDate,2019-11-16T13:35:15-06:00*
G04 #@! TF.ProjectId,spi_control,7370695f-636f-46e7-9472-6f6c2e6b6963,rev?*
G04 #@! TF.SameCoordinates,Original*
G04 #@! TF.FileFunction,Paste,Bot*
G04 #@! TF.FilePolarity,Positive*
%FSLAX46Y46*%
G04 Gerber Fmt 4.6, Leading zero omitted, Abs format (unit mm)*
G04 Created by KiCad (PCBNEW (5.1.2)-2) date 2019-11-16 13:35:15*
%MOMM*%
%LPD*%
G04 APERTURE LIST*
%ADD10C,0.100000*%
%ADD11C,0.590000*%
%ADD12R,1.200000X1.400000*%
%ADD13R,1.900000X1.175000*%
%ADD14R,1.900000X2.375000*%
%ADD15R,2.100000X1.475000*%
%ADD16R,1.380000X0.450000*%
%ADD17R,1.000000X3.000000*%
%ADD18C,1.350000*%
%ADD19C,0.300000*%
%ADD20R,0.700000X0.250000*%
%ADD21R,0.500000X0.590000*%
%ADD22C,0.875000*%
%ADD23R,1.400000X1.000000*%
%ADD24R,1.400000X1.200000*%
G04 APERTURE END LIST*
D10*
G36*
X60700458Y-74636110D02*
G01*
X60714776Y-74638234D01*
X60728817Y-74641751D01*
X60742446Y-74646628D01*
X60755531Y-74652817D01*
X60767947Y-74660258D01*
X60779573Y-74668881D01*
X60790298Y-74678602D01*
X60800019Y-74689327D01*
X60808642Y-74700953D01*
X60816083Y-74713369D01*
X60822272Y-74726454D01*
X60827149Y-74740083D01*
X60830666Y-74754124D01*
X60832790Y-74768442D01*
X60833500Y-74782900D01*
X60833500Y-75127900D01*
X60832790Y-75142358D01*
X60830666Y-75156676D01*
X60827149Y-75170717D01*
X60822272Y-75184346D01*
X60816083Y-75197431D01*
X60808642Y-75209847D01*
X60800019Y-75221473D01*
X60790298Y-75232198D01*
X60779573Y-75241919D01*
X60767947Y-75250542D01*
X60755531Y-75257983D01*
X60742446Y-75264172D01*
X60728817Y-75269049D01*
X60714776Y-75272566D01*
X60700458Y-75274690D01*
X60686000Y-75275400D01*
X60391000Y-75275400D01*
X60376542Y-75274690D01*
X60362224Y-75272566D01*
X60348183Y-75269049D01*
X60334554Y-75264172D01*
X60321469Y-75257983D01*
X60309053Y-75250542D01*
X60297427Y-75241919D01*
X60286702Y-75232198D01*
X60276981Y-75221473D01*
X60268358Y-75209847D01*
X60260917Y-75197431D01*
X60254728Y-75184346D01*
X60249851Y-75170717D01*
X60246334Y-75156676D01*
X60244210Y-75142358D01*
X60243500Y-75127900D01*
X60243500Y-74782900D01*
X60244210Y-74768442D01*
X60246334Y-74754124D01*
X60249851Y-74740083D01*
X60254728Y-74726454D01*
X60260917Y-74713369D01*
X60268358Y-74700953D01*
X60276981Y-74689327D01*
X60286702Y-74678602D01*
X60297427Y-74668881D01*
X60309053Y-74660258D01*
X60321469Y-74652817D01*
X60334554Y-74646628D01*
X60348183Y-74641751D01*
X60362224Y-74638234D01*
X60376542Y-74636110D01*
X60391000Y-74635400D01*
X60686000Y-74635400D01*
X60700458Y-74636110D01*
X60700458Y-74636110D01*
G37*
D11*
X60538500Y-74955400D03*
D10*
G36*
X61670458Y-74636110D02*
G01*
X61684776Y-74638234D01*
X61698817Y-74641751D01*
X61712446Y-74646628D01*
X61725531Y-74652817D01*
X61737947Y-74660258D01*
X61749573Y-74668881D01*
X61760298Y-74678602D01*
X61770019Y-74689327D01*
X61778642Y-74700953D01*
X61786083Y-74713369D01*
X61792272Y-74726454D01*
X61797149Y-74740083D01*
X61800666Y-74754124D01*
X61802790Y-74768442D01*
X61803500Y-74782900D01*
X61803500Y-75127900D01*
X61802790Y-75142358D01*
X61800666Y-75156676D01*
X61797149Y-75170717D01*
X61792272Y-75184346D01*
X61786083Y-75197431D01*
X61778642Y-75209847D01*
X61770019Y-75221473D01*
X61760298Y-75232198D01*
X61749573Y-75241919D01*
X61737947Y-75250542D01*
X61725531Y-75257983D01*
X61712446Y-75264172D01*
X61698817Y-75269049D01*
X61684776Y-75272566D01*
X61670458Y-75274690D01*
X61656000Y-75275400D01*
X61361000Y-75275400D01*
X61346542Y-75274690D01*
X61332224Y-75272566D01*
X61318183Y-75269049D01*
X61304554Y-75264172D01*
X61291469Y-75257983D01*
X61279053Y-75250542D01*
X61267427Y-75241919D01*
X61256702Y-75232198D01*
X61246981Y-75221473D01*
X61238358Y-75209847D01*
X61230917Y-75197431D01*
X61224728Y-75184346D01*
X61219851Y-75170717D01*
X61216334Y-75156676D01*
X61214210Y-75142358D01*
X61213500Y-75127900D01*
X61213500Y-74782900D01*
X61214210Y-74768442D01*
X61216334Y-74754124D01*
X61219851Y-74740083D01*
X61224728Y-74726454D01*
X61230917Y-74713369D01*
X61238358Y-74700953D01*
X61246981Y-74689327D01*
X61256702Y-74678602D01*
X61267427Y-74668881D01*
X61279053Y-74660258D01*
X61291469Y-74652817D01*
X61304554Y-74646628D01*
X61318183Y-74641751D01*
X61332224Y-74638234D01*
X61346542Y-74636110D01*
X61361000Y-74635400D01*
X61656000Y-74635400D01*
X61670458Y-74636110D01*
X61670458Y-74636110D01*
G37*
D11*
X61508500Y-74955400D03*
D12*
X113323000Y-81069000D03*
X113323000Y-83269000D03*
X115023000Y-83269000D03*
X115023000Y-81069000D03*
D10*
G36*
X114802458Y-77468210D02*
G01*
X114816776Y-77470334D01*
X114830817Y-77473851D01*
X114844446Y-77478728D01*
X114857531Y-77484917D01*
X114869947Y-77492358D01*
X114881573Y-77500981D01*
X114892298Y-77510702D01*
X114902019Y-77521427D01*
X114910642Y-77533053D01*
X114918083Y-77545469D01*
X114924272Y-77558554D01*
X114929149Y-77572183D01*
X114932666Y-77586224D01*
X114934790Y-77600542D01*
X114935500Y-77615000D01*
X114935500Y-77960000D01*
X114934790Y-77974458D01*
X114932666Y-77988776D01*
X114929149Y-78002817D01*
X114924272Y-78016446D01*
X114918083Y-78029531D01*
X114910642Y-78041947D01*
X114902019Y-78053573D01*
X114892298Y-78064298D01*
X114881573Y-78074019D01*
X114869947Y-78082642D01*
X114857531Y-78090083D01*
X114844446Y-78096272D01*
X114830817Y-78101149D01*
X114816776Y-78104666D01*
X114802458Y-78106790D01*
X114788000Y-78107500D01*
X114493000Y-78107500D01*
X114478542Y-78106790D01*
X114464224Y-78104666D01*
X114450183Y-78101149D01*
X114436554Y-78096272D01*
X114423469Y-78090083D01*
X114411053Y-78082642D01*
X114399427Y-78074019D01*
X114388702Y-78064298D01*
X114378981Y-78053573D01*
X114370358Y-78041947D01*
X114362917Y-78029531D01*
X114356728Y-78016446D01*
X114351851Y-78002817D01*
X114348334Y-77988776D01*
X114346210Y-77974458D01*
X114345500Y-77960000D01*
X114345500Y-77615000D01*
X114346210Y-77600542D01*
X114348334Y-77586224D01*
X114351851Y-77572183D01*
X114356728Y-77558554D01*
X114362917Y-77545469D01*
X114370358Y-77533053D01*
X114378981Y-77521427D01*
X114388702Y-77510702D01*
X114399427Y-77500981D01*
X114411053Y-77492358D01*
X114423469Y-77484917D01*
X114436554Y-77478728D01*
X114450183Y-77473851D01*
X114464224Y-77470334D01*
X114478542Y-77468210D01*
X114493000Y-77467500D01*
X114788000Y-77467500D01*
X114802458Y-77468210D01*
X114802458Y-77468210D01*
G37*
D11*
X114640500Y-77787500D03*
D10*
G36*
X115772458Y-77468210D02*
G01*
X115786776Y-77470334D01*
X115800817Y-77473851D01*
X115814446Y-77478728D01*
X115827531Y-77484917D01*
X115839947Y-77492358D01*
X115851573Y-77500981D01*
X115862298Y-77510702D01*
X115872019Y-77521427D01*
X115880642Y-77533053D01*
X115888083Y-77545469D01*
X115894272Y-77558554D01*
X115899149Y-77572183D01*
X115902666Y-77586224D01*
X115904790Y-77600542D01*
X115905500Y-77615000D01*
X115905500Y-77960000D01*
X115904790Y-77974458D01*
X115902666Y-77988776D01*
X115899149Y-78002817D01*
X115894272Y-78016446D01*
X115888083Y-78029531D01*
X115880642Y-78041947D01*
X115872019Y-78053573D01*
X115862298Y-78064298D01*
X115851573Y-78074019D01*
X115839947Y-78082642D01*
X115827531Y-78090083D01*
X115814446Y-78096272D01*
X115800817Y-78101149D01*
X115786776Y-78104666D01*
X115772458Y-78106790D01*
X115758000Y-78107500D01*
X115463000Y-78107500D01*
X115448542Y-78106790D01*
X115434224Y-78104666D01*
X115420183Y-78101149D01*
X115406554Y-78096272D01*
X115393469Y-78090083D01*
X115381053Y-78082642D01*
X115369427Y-78074019D01*
X115358702Y-78064298D01*
X115348981Y-78053573D01*
X115340358Y-78041947D01*
X115332917Y-78029531D01*
X115326728Y-78016446D01*
X115321851Y-78002817D01*
X115318334Y-77988776D01*
X115316210Y-77974458D01*
X115315500Y-77960000D01*
X115315500Y-77615000D01*
X115316210Y-77600542D01*
X115318334Y-77586224D01*
X115321851Y-77572183D01*
X115326728Y-77558554D01*
X115332917Y-77545469D01*
X115340358Y-77533053D01*
X115348981Y-77521427D01*
X115358702Y-77510702D01*
X115369427Y-77500981D01*
X115381053Y-77492358D01*
X115393469Y-77484917D01*
X115406554Y-77478728D01*
X115420183Y-77473851D01*
X115434224Y-77470334D01*
X115448542Y-77468210D01*
X115463000Y-77467500D01*
X115758000Y-77467500D01*
X115772458Y-77468210D01*
X115772458Y-77468210D01*
G37*
D11*
X115610500Y-77787500D03*
D10*
G36*
X114802458Y-78611210D02*
G01*
X114816776Y-78613334D01*
X114830817Y-78616851D01*
X114844446Y-78621728D01*
X114857531Y-78627917D01*
X114869947Y-78635358D01*
X114881573Y-78643981D01*
X114892298Y-78653702D01*
X114902019Y-78664427D01*
X114910642Y-78676053D01*
X114918083Y-78688469D01*
X114924272Y-78701554D01*
X114929149Y-78715183D01*
X114932666Y-78729224D01*
X114934790Y-78743542D01*
X114935500Y-78758000D01*
X114935500Y-79103000D01*
X114934790Y-79117458D01*
X114932666Y-79131776D01*
X114929149Y-79145817D01*
X114924272Y-79159446D01*
X114918083Y-79172531D01*
X114910642Y-79184947D01*
X114902019Y-79196573D01*
X114892298Y-79207298D01*
X114881573Y-79217019D01*
X114869947Y-79225642D01*
X114857531Y-79233083D01*
X114844446Y-79239272D01*
X114830817Y-79244149D01*
X114816776Y-79247666D01*
X114802458Y-79249790D01*
X114788000Y-79250500D01*
X114493000Y-79250500D01*
X114478542Y-79249790D01*
X114464224Y-79247666D01*
X114450183Y-79244149D01*
X114436554Y-79239272D01*
X114423469Y-79233083D01*
X114411053Y-79225642D01*
X114399427Y-79217019D01*
X114388702Y-79207298D01*
X114378981Y-79196573D01*
X114370358Y-79184947D01*
X114362917Y-79172531D01*
X114356728Y-79159446D01*
X114351851Y-79145817D01*
X114348334Y-79131776D01*
X114346210Y-79117458D01*
X114345500Y-79103000D01*
X114345500Y-78758000D01*
X114346210Y-78743542D01*
X114348334Y-78729224D01*
X114351851Y-78715183D01*
X114356728Y-78701554D01*
X114362917Y-78688469D01*
X114370358Y-78676053D01*
X114378981Y-78664427D01*
X114388702Y-78653702D01*
X114399427Y-78643981D01*
X114411053Y-78635358D01*
X114423469Y-78627917D01*
X114436554Y-78621728D01*
X114450183Y-78616851D01*
X114464224Y-78613334D01*
X114478542Y-78611210D01*
X114493000Y-78610500D01*
X114788000Y-78610500D01*
X114802458Y-78611210D01*
X114802458Y-78611210D01*
G37*
D11*
X114640500Y-78930500D03*
D10*
G36*
X115772458Y-78611210D02*
G01*
X115786776Y-78613334D01*
X115800817Y-78616851D01*
X115814446Y-78621728D01*
X115827531Y-78627917D01*
X115839947Y-78635358D01*
X115851573Y-78643981D01*
X115862298Y-78653702D01*
X115872019Y-78664427D01*
X115880642Y-78676053D01*
X115888083Y-78688469D01*
X115894272Y-78701554D01*
X115899149Y-78715183D01*
X115902666Y-78729224D01*
X115904790Y-78743542D01*
X115905500Y-78758000D01*
X115905500Y-79103000D01*
X115904790Y-79117458D01*
X115902666Y-79131776D01*
X115899149Y-79145817D01*
X115894272Y-79159446D01*
X115888083Y-79172531D01*
X115880642Y-79184947D01*
X115872019Y-79196573D01*
X115862298Y-79207298D01*
X115851573Y-79217019D01*
X115839947Y-79225642D01*
X115827531Y-79233083D01*
X115814446Y-79239272D01*
X115800817Y-79244149D01*
X115786776Y-79247666D01*
X115772458Y-79249790D01*
X115758000Y-79250500D01*
X115463000Y-79250500D01*
X115448542Y-79249790D01*
X115434224Y-79247666D01*
X115420183Y-79244149D01*
X115406554Y-79239272D01*
X115393469Y-79233083D01*
X115381053Y-79225642D01*
X115369427Y-79217019D01*
X115358702Y-79207298D01*
X115348981Y-79196573D01*
X115340358Y-79184947D01*
X115332917Y-79172531D01*
X115326728Y-79159446D01*
X115321851Y-79145817D01*
X115318334Y-79131776D01*
X115316210Y-79117458D01*
X115315500Y-79103000D01*
X115315500Y-78758000D01*
X115316210Y-78743542D01*
X115318334Y-78729224D01*
X115321851Y-78715183D01*
X115326728Y-78701554D01*
X115332917Y-78688469D01*
X115340358Y-78676053D01*
X115348981Y-78664427D01*
X115358702Y-78653702D01*
X115369427Y-78643981D01*
X115381053Y-78635358D01*
X115393469Y-78627917D01*
X115406554Y-78621728D01*
X115420183Y-78616851D01*
X115434224Y-78613334D01*
X115448542Y-78611210D01*
X115463000Y-78610500D01*
X115758000Y-78610500D01*
X115772458Y-78611210D01*
X115772458Y-78611210D01*
G37*
D11*
X115610500Y-78930500D03*
D13*
X122802500Y-74436500D03*
X122802500Y-72756500D03*
D14*
X122802500Y-76506500D03*
X122802500Y-70686500D03*
D15*
X120502500Y-76059000D03*
X120502500Y-71134000D03*
D16*
X120142500Y-74896500D03*
X120142500Y-74246500D03*
X120142500Y-73596500D03*
X120142500Y-72946500D03*
X120142500Y-72296500D03*
D17*
X114130000Y-57480000D03*
X114130000Y-62520000D03*
X111590000Y-57480000D03*
X111590000Y-62520000D03*
X109050000Y-57480000D03*
X109050000Y-62520000D03*
X106510000Y-57480000D03*
X106510000Y-62520000D03*
X103970000Y-57480000D03*
X103970000Y-62520000D03*
X101430000Y-57480000D03*
X101430000Y-62520000D03*
X98890000Y-57480000D03*
X98890000Y-62520000D03*
X96350000Y-57480000D03*
X96350000Y-62520000D03*
X93810000Y-57480000D03*
X93810000Y-62520000D03*
X91270000Y-57480000D03*
X91270000Y-62520000D03*
X88730000Y-57480000D03*
X88730000Y-62520000D03*
X86190000Y-57480000D03*
X86190000Y-62520000D03*
X83650000Y-57480000D03*
X83650000Y-62520000D03*
X81110000Y-57480000D03*
X81110000Y-62520000D03*
X78570000Y-57480000D03*
X78570000Y-62520000D03*
X76030000Y-57480000D03*
X76030000Y-62520000D03*
X73490000Y-57480000D03*
X73490000Y-62520000D03*
X70950000Y-57480000D03*
X70950000Y-62520000D03*
X68410000Y-57480000D03*
X68410000Y-62520000D03*
X65870000Y-57480000D03*
X65870000Y-62520000D03*
X65870000Y-95514600D03*
X65870000Y-90474600D03*
X68410000Y-95514600D03*
X68410000Y-90474600D03*
X70950000Y-95514600D03*
X70950000Y-90474600D03*
X73490000Y-95514600D03*
X73490000Y-90474600D03*
X76030000Y-95514600D03*
X76030000Y-90474600D03*
X78570000Y-95514600D03*
X78570000Y-90474600D03*
X81110000Y-95514600D03*
X81110000Y-90474600D03*
X83650000Y-95514600D03*
X83650000Y-90474600D03*
X86190000Y-95514600D03*
X86190000Y-90474600D03*
X88730000Y-95514600D03*
X88730000Y-90474600D03*
X91270000Y-95514600D03*
X91270000Y-90474600D03*
X93810000Y-95514600D03*
X93810000Y-90474600D03*
X96350000Y-95514600D03*
X96350000Y-90474600D03*
X98890000Y-95514600D03*
X98890000Y-90474600D03*
X101430000Y-95514600D03*
X101430000Y-90474600D03*
X103970000Y-95514600D03*
X103970000Y-90474600D03*
X106510000Y-95514600D03*
X106510000Y-90474600D03*
X109050000Y-95514600D03*
X109050000Y-90474600D03*
X111590000Y-95514600D03*
X111590000Y-90474600D03*
X114130000Y-95514600D03*
X114130000Y-90474600D03*
D10*
G36*
X109747505Y-79350704D02*
G01*
X109771773Y-79354304D01*
X109795572Y-79360265D01*
X109818671Y-79368530D01*
X109840850Y-79379020D01*
X109861893Y-79391632D01*
X109881599Y-79406247D01*
X109899777Y-79422723D01*
X109916253Y-79440901D01*
X109930868Y-79460607D01*
X109943480Y-79481650D01*
X109953970Y-79503829D01*
X109962235Y-79526928D01*
X109968196Y-79550727D01*
X109971796Y-79574995D01*
X109973000Y-79599499D01*
X109973000Y-80449501D01*
X109971796Y-80474005D01*
X109968196Y-80498273D01*
X109962235Y-80522072D01*
X109953970Y-80545171D01*
X109943480Y-80567350D01*
X109930868Y-80588393D01*
X109916253Y-80608099D01*
X109899777Y-80626277D01*
X109881599Y-80642753D01*
X109861893Y-80657368D01*
X109840850Y-80669980D01*
X109818671Y-80680470D01*
X109795572Y-80688735D01*
X109771773Y-80694696D01*
X109747505Y-80698296D01*
X109723001Y-80699500D01*
X108872999Y-80699500D01*
X108848495Y-80698296D01*
X108824227Y-80694696D01*
X108800428Y-80688735D01*
X108777329Y-80680470D01*
X108755150Y-80669980D01*
X108734107Y-80657368D01*
X108714401Y-80642753D01*
X108696223Y-80626277D01*
X108679747Y-80608099D01*
X108665132Y-80588393D01*
X108652520Y-80567350D01*
X108642030Y-80545171D01*
X108633765Y-80522072D01*
X108627804Y-80498273D01*
X108624204Y-80474005D01*
X108623000Y-80449501D01*
X108623000Y-79599499D01*
X108624204Y-79574995D01*
X108627804Y-79550727D01*
X108633765Y-79526928D01*
X108642030Y-79503829D01*
X108652520Y-79481650D01*
X108665132Y-79460607D01*
X108679747Y-79440901D01*
X108696223Y-79422723D01*
X108714401Y-79406247D01*
X108734107Y-79391632D01*
X108755150Y-79379020D01*
X108777329Y-79368530D01*
X108800428Y-79360265D01*
X108824227Y-79354304D01*
X108848495Y-79350704D01*
X108872999Y-79349500D01*
X109723001Y-79349500D01*
X109747505Y-79350704D01*
X109747505Y-79350704D01*
G37*
D18*
X109298000Y-80024500D03*
D10*
G36*
X108067505Y-79350704D02*
G01*
X108091773Y-79354304D01*
X108115572Y-79360265D01*
X108138671Y-79368530D01*
X108160850Y-79379020D01*
X108181893Y-79391632D01*
X108201599Y-79406247D01*
X108219777Y-79422723D01*
X108236253Y-79440901D01*
X108250868Y-79460607D01*
X108263480Y-79481650D01*
X108273970Y-79503829D01*
X108282235Y-79526928D01*
X108288196Y-79550727D01*
X108291796Y-79574995D01*
X108293000Y-79599499D01*
X108293000Y-80449501D01*
X108291796Y-80474005D01*
X108288196Y-80498273D01*
X108282235Y-80522072D01*
X108273970Y-80545171D01*
X108263480Y-80567350D01*
X108250868Y-80588393D01*
X108236253Y-80608099D01*
X108219777Y-80626277D01*
X108201599Y-80642753D01*
X108181893Y-80657368D01*
X108160850Y-80669980D01*
X108138671Y-80680470D01*
X108115572Y-80688735D01*
X108091773Y-80694696D01*
X108067505Y-80698296D01*
X108043001Y-80699500D01*
X107192999Y-80699500D01*
X107168495Y-80698296D01*
X107144227Y-80694696D01*
X107120428Y-80688735D01*
X107097329Y-80680470D01*
X107075150Y-80669980D01*
X107054107Y-80657368D01*
X107034401Y-80642753D01*
X107016223Y-80626277D01*
X106999747Y-80608099D01*
X106985132Y-80588393D01*
X106972520Y-80567350D01*
X106962030Y-80545171D01*
X106953765Y-80522072D01*
X106947804Y-80498273D01*
X106944204Y-80474005D01*
X106943000Y-80449501D01*
X106943000Y-79599499D01*
X106944204Y-79574995D01*
X106947804Y-79550727D01*
X106953765Y-79526928D01*
X106962030Y-79503829D01*
X106972520Y-79481650D01*
X106985132Y-79460607D01*
X106999747Y-79440901D01*
X107016223Y-79422723D01*
X107034401Y-79406247D01*
X107054107Y-79391632D01*
X107075150Y-79379020D01*
X107097329Y-79368530D01*
X107120428Y-79360265D01*
X107144227Y-79354304D01*
X107168495Y-79350704D01*
X107192999Y-79349500D01*
X108043001Y-79349500D01*
X108067505Y-79350704D01*
X108067505Y-79350704D01*
G37*
D18*
X107618000Y-80024500D03*
D10*
G36*
X109747505Y-77670704D02*
G01*
X109771773Y-77674304D01*
X109795572Y-77680265D01*
X109818671Y-77688530D01*
X109840850Y-77699020D01*
X109861893Y-77711632D01*
X109881599Y-77726247D01*
X109899777Y-77742723D01*
X109916253Y-77760901D01*
X109930868Y-77780607D01*
X109943480Y-77801650D01*
X109953970Y-77823829D01*
X109962235Y-77846928D01*
X109968196Y-77870727D01*
X109971796Y-77894995D01*
X109973000Y-77919499D01*
X109973000Y-78769501D01*
X109971796Y-78794005D01*
X109968196Y-78818273D01*
X109962235Y-78842072D01*
X109953970Y-78865171D01*
X109943480Y-78887350D01*
X109930868Y-78908393D01*
X109916253Y-78928099D01*
X109899777Y-78946277D01*
X109881599Y-78962753D01*
X109861893Y-78977368D01*
X109840850Y-78989980D01*
X109818671Y-79000470D01*
X109795572Y-79008735D01*
X109771773Y-79014696D01*
X109747505Y-79018296D01*
X109723001Y-79019500D01*
X108872999Y-79019500D01*
X108848495Y-79018296D01*
X108824227Y-79014696D01*
X108800428Y-79008735D01*
X108777329Y-79000470D01*
X108755150Y-78989980D01*
X108734107Y-78977368D01*
X108714401Y-78962753D01*
X108696223Y-78946277D01*
X108679747Y-78928099D01*
X108665132Y-78908393D01*
X108652520Y-78887350D01*
X108642030Y-78865171D01*
X108633765Y-78842072D01*
X108627804Y-78818273D01*
X108624204Y-78794005D01*
X108623000Y-78769501D01*
X108623000Y-77919499D01*
X108624204Y-77894995D01*
X108627804Y-77870727D01*
X108633765Y-77846928D01*
X108642030Y-77823829D01*
X108652520Y-77801650D01*
X108665132Y-77780607D01*
X108679747Y-77760901D01*
X108696223Y-77742723D01*
X108714401Y-77726247D01*
X108734107Y-77711632D01*
X108755150Y-77699020D01*
X108777329Y-77688530D01*
X108800428Y-77680265D01*
X108824227Y-77674304D01*
X108848495Y-77670704D01*
X108872999Y-77669500D01*
X109723001Y-77669500D01*
X109747505Y-77670704D01*
X109747505Y-77670704D01*
G37*
D18*
X109298000Y-78344500D03*
D10*
G36*
X108067505Y-77670704D02*
G01*
X108091773Y-77674304D01*
X108115572Y-77680265D01*
X108138671Y-77688530D01*
X108160850Y-77699020D01*
X108181893Y-77711632D01*
X108201599Y-77726247D01*
X108219777Y-77742723D01*
X108236253Y-77760901D01*
X108250868Y-77780607D01*
X108263480Y-77801650D01*
X108273970Y-77823829D01*
X108282235Y-77846928D01*
X108288196Y-77870727D01*
X108291796Y-77894995D01*
X108293000Y-77919499D01*
X108293000Y-78769501D01*
X108291796Y-78794005D01*
X108288196Y-78818273D01*
X108282235Y-78842072D01*
X108273970Y-78865171D01*
X108263480Y-78887350D01*
X108250868Y-78908393D01*
X108236253Y-78928099D01*
X108219777Y-78946277D01*
X108201599Y-78962753D01*
X108181893Y-78977368D01*
X108160850Y-78989980D01*
X108138671Y-79000470D01*
X108115572Y-79008735D01*
X108091773Y-79014696D01*
X108067505Y-79018296D01*
X108043001Y-79019500D01*
X107192999Y-79019500D01*
X107168495Y-79018296D01*
X107144227Y-79014696D01*
X107120428Y-79008735D01*
X107097329Y-79000470D01*
X107075150Y-78989980D01*
X107054107Y-78977368D01*
X107034401Y-78962753D01*
X107016223Y-78946277D01*
X106999747Y-78928099D01*
X106985132Y-78908393D01*
X106972520Y-78887350D01*
X106962030Y-78865171D01*
X106953765Y-78842072D01*
X106947804Y-78818273D01*
X106944204Y-78794005D01*
X106943000Y-78769501D01*
X106943000Y-77919499D01*
X106944204Y-77894995D01*
X106947804Y-77870727D01*
X106953765Y-77846928D01*
X106962030Y-77823829D01*
X106972520Y-77801650D01*
X106985132Y-77780607D01*
X106999747Y-77760901D01*
X107016223Y-77742723D01*
X107034401Y-77726247D01*
X107054107Y-77711632D01*
X107075150Y-77699020D01*
X107097329Y-77688530D01*
X107120428Y-77680265D01*
X107144227Y-77674304D01*
X107168495Y-77670704D01*
X107192999Y-77669500D01*
X108043001Y-77669500D01*
X108067505Y-77670704D01*
X108067505Y-77670704D01*
G37*
D18*
X107618000Y-78344500D03*
D10*
G36*
X109840351Y-81234861D02*
G01*
X109847632Y-81235941D01*
X109854771Y-81237729D01*
X109861701Y-81240209D01*
X109868355Y-81243356D01*
X109874668Y-81247140D01*
X109880579Y-81251524D01*
X109886033Y-81256467D01*
X109890976Y-81261921D01*
X109895360Y-81267832D01*
X109899144Y-81274145D01*
X109902291Y-81280799D01*
X109904771Y-81287729D01*
X109906559Y-81294868D01*
X109907639Y-81302149D01*
X109908000Y-81309500D01*
X109908000Y-81959500D01*
X109907639Y-81966851D01*
X109906559Y-81974132D01*
X109904771Y-81981271D01*
X109902291Y-81988201D01*
X109899144Y-81994855D01*
X109895360Y-82001168D01*
X109890976Y-82007079D01*
X109886033Y-82012533D01*
X109880579Y-82017476D01*
X109874668Y-82021860D01*
X109868355Y-82025644D01*
X109861701Y-82028791D01*
X109854771Y-82031271D01*
X109847632Y-82033059D01*
X109840351Y-82034139D01*
X109833000Y-82034500D01*
X109683000Y-82034500D01*
X109675649Y-82034139D01*
X109668368Y-82033059D01*
X109661229Y-82031271D01*
X109654299Y-82028791D01*
X109647645Y-82025644D01*
X109641332Y-82021860D01*
X109635421Y-82017476D01*
X109629967Y-82012533D01*
X109625024Y-82007079D01*
X109620640Y-82001168D01*
X109616856Y-81994855D01*
X109613709Y-81988201D01*
X109611229Y-81981271D01*
X109609441Y-81974132D01*
X109608361Y-81966851D01*
X109608000Y-81959500D01*
X109608000Y-81309500D01*
X109608361Y-81302149D01*
X109609441Y-81294868D01*
X109611229Y-81287729D01*
X109613709Y-81280799D01*
X109616856Y-81274145D01*
X109620640Y-81267832D01*
X109625024Y-81261921D01*
X109629967Y-81256467D01*
X109635421Y-81251524D01*
X109641332Y-81247140D01*
X109647645Y-81243356D01*
X109654299Y-81240209D01*
X109661229Y-81237729D01*
X109668368Y-81235941D01*
X109675649Y-81234861D01*
X109683000Y-81234500D01*
X109833000Y-81234500D01*
X109840351Y-81234861D01*
X109840351Y-81234861D01*
G37*
D19*
X109758000Y-81634500D03*
D10*
G36*
X109190351Y-81234861D02*
G01*
X109197632Y-81235941D01*
X109204771Y-81237729D01*
X109211701Y-81240209D01*
X109218355Y-81243356D01*
X109224668Y-81247140D01*
X109230579Y-81251524D01*
X109236033Y-81256467D01*
X109240976Y-81261921D01*
X109245360Y-81267832D01*
X109249144Y-81274145D01*
X109252291Y-81280799D01*
X109254771Y-81287729D01*
X109256559Y-81294868D01*
X109257639Y-81302149D01*
X109258000Y-81309500D01*
X109258000Y-81959500D01*
X109257639Y-81966851D01*
X109256559Y-81974132D01*
X109254771Y-81981271D01*
X109252291Y-81988201D01*
X109249144Y-81994855D01*
X109245360Y-82001168D01*
X109240976Y-82007079D01*
X109236033Y-82012533D01*
X109230579Y-82017476D01*
X109224668Y-82021860D01*
X109218355Y-82025644D01*
X109211701Y-82028791D01*
X109204771Y-82031271D01*
X109197632Y-82033059D01*
X109190351Y-82034139D01*
X109183000Y-82034500D01*
X109033000Y-82034500D01*
X109025649Y-82034139D01*
X109018368Y-82033059D01*
X109011229Y-82031271D01*
X109004299Y-82028791D01*
X108997645Y-82025644D01*
X108991332Y-82021860D01*
X108985421Y-82017476D01*
X108979967Y-82012533D01*
X108975024Y-82007079D01*
X108970640Y-82001168D01*
X108966856Y-81994855D01*
X108963709Y-81988201D01*
X108961229Y-81981271D01*
X108959441Y-81974132D01*
X108958361Y-81966851D01*
X108958000Y-81959500D01*
X108958000Y-81309500D01*
X108958361Y-81302149D01*
X108959441Y-81294868D01*
X108961229Y-81287729D01*
X108963709Y-81280799D01*
X108966856Y-81274145D01*
X108970640Y-81267832D01*
X108975024Y-81261921D01*
X108979967Y-81256467D01*
X108985421Y-81251524D01*
X108991332Y-81247140D01*
X108997645Y-81243356D01*
X109004299Y-81240209D01*
X109011229Y-81237729D01*
X109018368Y-81235941D01*
X109025649Y-81234861D01*
X109033000Y-81234500D01*
X109183000Y-81234500D01*
X109190351Y-81234861D01*
X109190351Y-81234861D01*
G37*
D19*
X109108000Y-81634500D03*
D10*
G36*
X108540351Y-81234861D02*
G01*
X108547632Y-81235941D01*
X108554771Y-81237729D01*
X108561701Y-81240209D01*
X108568355Y-81243356D01*
X108574668Y-81247140D01*
X108580579Y-81251524D01*
X108586033Y-81256467D01*
X108590976Y-81261921D01*
X108595360Y-81267832D01*
X108599144Y-81274145D01*
X108602291Y-81280799D01*
X108604771Y-81287729D01*
X108606559Y-81294868D01*
X108607639Y-81302149D01*
X108608000Y-81309500D01*
X108608000Y-81959500D01*
X108607639Y-81966851D01*
X108606559Y-81974132D01*
X108604771Y-81981271D01*
X108602291Y-81988201D01*
X108599144Y-81994855D01*
X108595360Y-82001168D01*
X108590976Y-82007079D01*
X108586033Y-82012533D01*
X108580579Y-82017476D01*
X108574668Y-82021860D01*
X108568355Y-82025644D01*
X108561701Y-82028791D01*
X108554771Y-82031271D01*
X108547632Y-82033059D01*
X108540351Y-82034139D01*
X108533000Y-82034500D01*
X108383000Y-82034500D01*
X108375649Y-82034139D01*
X108368368Y-82033059D01*
X108361229Y-82031271D01*
X108354299Y-82028791D01*
X108347645Y-82025644D01*
X108341332Y-82021860D01*
X108335421Y-82017476D01*
X108329967Y-82012533D01*
X108325024Y-82007079D01*
X108320640Y-82001168D01*
X108316856Y-81994855D01*
X108313709Y-81988201D01*
X108311229Y-81981271D01*
X108309441Y-81974132D01*
X108308361Y-81966851D01*
X108308000Y-81959500D01*
X108308000Y-81309500D01*
X108308361Y-81302149D01*
X108309441Y-81294868D01*
X108311229Y-81287729D01*
X108313709Y-81280799D01*
X108316856Y-81274145D01*
X108320640Y-81267832D01*
X108325024Y-81261921D01*
X108329967Y-81256467D01*
X108335421Y-81251524D01*
X108341332Y-81247140D01*
X108347645Y-81243356D01*
X108354299Y-81240209D01*
X108361229Y-81237729D01*
X108368368Y-81235941D01*
X108375649Y-81234861D01*
X108383000Y-81234500D01*
X108533000Y-81234500D01*
X108540351Y-81234861D01*
X108540351Y-81234861D01*
G37*
D19*
X108458000Y-81634500D03*
D10*
G36*
X107890351Y-81234861D02*
G01*
X107897632Y-81235941D01*
X107904771Y-81237729D01*
X107911701Y-81240209D01*
X107918355Y-81243356D01*
X107924668Y-81247140D01*
X107930579Y-81251524D01*
X107936033Y-81256467D01*
X107940976Y-81261921D01*
X107945360Y-81267832D01*
X107949144Y-81274145D01*
X107952291Y-81280799D01*
X107954771Y-81287729D01*
X107956559Y-81294868D01*
X107957639Y-81302149D01*
X107958000Y-81309500D01*
X107958000Y-81959500D01*
X107957639Y-81966851D01*
X107956559Y-81974132D01*
X107954771Y-81981271D01*
X107952291Y-81988201D01*
X107949144Y-81994855D01*
X107945360Y-82001168D01*
X107940976Y-82007079D01*
X107936033Y-82012533D01*
X107930579Y-82017476D01*
X107924668Y-82021860D01*
X107918355Y-82025644D01*
X107911701Y-82028791D01*
X107904771Y-82031271D01*
X107897632Y-82033059D01*
X107890351Y-82034139D01*
X107883000Y-82034500D01*
X107733000Y-82034500D01*
X107725649Y-82034139D01*
X107718368Y-82033059D01*
X107711229Y-82031271D01*
X107704299Y-82028791D01*
X107697645Y-82025644D01*
X107691332Y-82021860D01*
X107685421Y-82017476D01*
X107679967Y-82012533D01*
X107675024Y-82007079D01*
X107670640Y-82001168D01*
X107666856Y-81994855D01*
X107663709Y-81988201D01*
X107661229Y-81981271D01*
X107659441Y-81974132D01*
X107658361Y-81966851D01*
X107658000Y-81959500D01*
X107658000Y-81309500D01*
X107658361Y-81302149D01*
X107659441Y-81294868D01*
X107661229Y-81287729D01*
X107663709Y-81280799D01*
X107666856Y-81274145D01*
X107670640Y-81267832D01*
X107675024Y-81261921D01*
X107679967Y-81256467D01*
X107685421Y-81251524D01*
X107691332Y-81247140D01*
X107697645Y-81243356D01*
X107704299Y-81240209D01*
X107711229Y-81237729D01*
X107718368Y-81235941D01*
X107725649Y-81234861D01*
X107733000Y-81234500D01*
X107883000Y-81234500D01*
X107890351Y-81234861D01*
X107890351Y-81234861D01*
G37*
D19*
X107808000Y-81634500D03*
D10*
G36*
X107240351Y-81234861D02*
G01*
X107247632Y-81235941D01*
X107254771Y-81237729D01*
X107261701Y-81240209D01*
X107268355Y-81243356D01*
X107274668Y-81247140D01*
X107280579Y-81251524D01*
X107286033Y-81256467D01*
X107290976Y-81261921D01*
X107295360Y-81267832D01*
X107299144Y-81274145D01*
X107302291Y-81280799D01*
X107304771Y-81287729D01*
X107306559Y-81294868D01*
X107307639Y-81302149D01*
X107308000Y-81309500D01*
X107308000Y-81959500D01*
X107307639Y-81966851D01*
X107306559Y-81974132D01*
X107304771Y-81981271D01*
X107302291Y-81988201D01*
X107299144Y-81994855D01*
X107295360Y-82001168D01*
X107290976Y-82007079D01*
X107286033Y-82012533D01*
X107280579Y-82017476D01*
X107274668Y-82021860D01*
X107268355Y-82025644D01*
X107261701Y-82028791D01*
X107254771Y-82031271D01*
X107247632Y-82033059D01*
X107240351Y-82034139D01*
X107233000Y-82034500D01*
X107083000Y-82034500D01*
X107075649Y-82034139D01*
X107068368Y-82033059D01*
X107061229Y-82031271D01*
X107054299Y-82028791D01*
X107047645Y-82025644D01*
X107041332Y-82021860D01*
X107035421Y-82017476D01*
X107029967Y-82012533D01*
X107025024Y-82007079D01*
X107020640Y-82001168D01*
X107016856Y-81994855D01*
X107013709Y-81988201D01*
X107011229Y-81981271D01*
X107009441Y-81974132D01*
X107008361Y-81966851D01*
X107008000Y-81959500D01*
X107008000Y-81309500D01*
X107008361Y-81302149D01*
X107009441Y-81294868D01*
X107011229Y-81287729D01*
X107013709Y-81280799D01*
X107016856Y-81274145D01*
X107020640Y-81267832D01*
X107025024Y-81261921D01*
X107029967Y-81256467D01*
X107035421Y-81251524D01*
X107041332Y-81247140D01*
X107047645Y-81243356D01*
X107054299Y-81240209D01*
X107061229Y-81237729D01*
X107068368Y-81235941D01*
X107075649Y-81234861D01*
X107083000Y-81234500D01*
X107233000Y-81234500D01*
X107240351Y-81234861D01*
X107240351Y-81234861D01*
G37*
D19*
X107158000Y-81634500D03*
D10*
G36*
X106340351Y-80334861D02*
G01*
X106347632Y-80335941D01*
X106354771Y-80337729D01*
X106361701Y-80340209D01*
X106368355Y-80343356D01*
X106374668Y-80347140D01*
X106380579Y-80351524D01*
X106386033Y-80356467D01*
X106390976Y-80361921D01*
X106395360Y-80367832D01*
X106399144Y-80374145D01*
X106402291Y-80380799D01*
X106404771Y-80387729D01*
X106406559Y-80394868D01*
X106407639Y-80402149D01*
X106408000Y-80409500D01*
X106408000Y-80559500D01*
X106407639Y-80566851D01*
X106406559Y-80574132D01*
X106404771Y-80581271D01*
X106402291Y-80588201D01*
X106399144Y-80594855D01*
X106395360Y-80601168D01*
X106390976Y-80607079D01*
X106386033Y-80612533D01*
X106380579Y-80617476D01*
X106374668Y-80621860D01*
X106368355Y-80625644D01*
X106361701Y-80628791D01*
X106354771Y-80631271D01*
X106347632Y-80633059D01*
X106340351Y-80634139D01*
X106333000Y-80634500D01*
X105683000Y-80634500D01*
X105675649Y-80634139D01*
X105668368Y-80633059D01*
X105661229Y-80631271D01*
X105654299Y-80628791D01*
X105647645Y-80625644D01*
X105641332Y-80621860D01*
X105635421Y-80617476D01*
X105629967Y-80612533D01*
X105625024Y-80607079D01*
X105620640Y-80601168D01*
X105616856Y-80594855D01*
X105613709Y-80588201D01*
X105611229Y-80581271D01*
X105609441Y-80574132D01*
X105608361Y-80566851D01*
X105608000Y-80559500D01*
X105608000Y-80409500D01*
X105608361Y-80402149D01*
X105609441Y-80394868D01*
X105611229Y-80387729D01*
X105613709Y-80380799D01*
X105616856Y-80374145D01*
X105620640Y-80367832D01*
X105625024Y-80361921D01*
X105629967Y-80356467D01*
X105635421Y-80351524D01*
X105641332Y-80347140D01*
X105647645Y-80343356D01*
X105654299Y-80340209D01*
X105661229Y-80337729D01*
X105668368Y-80335941D01*
X105675649Y-80334861D01*
X105683000Y-80334500D01*
X106333000Y-80334500D01*
X106340351Y-80334861D01*
X106340351Y-80334861D01*
G37*
D19*
X106008000Y-80484500D03*
D10*
G36*
X106340351Y-79684861D02*
G01*
X106347632Y-79685941D01*
X106354771Y-79687729D01*
X106361701Y-79690209D01*
X106368355Y-79693356D01*
X106374668Y-79697140D01*
X106380579Y-79701524D01*
X106386033Y-79706467D01*
X106390976Y-79711921D01*
X106395360Y-79717832D01*
X106399144Y-79724145D01*
X106402291Y-79730799D01*
X106404771Y-79737729D01*
X106406559Y-79744868D01*
X106407639Y-79752149D01*
X106408000Y-79759500D01*
X106408000Y-79909500D01*
X106407639Y-79916851D01*
X106406559Y-79924132D01*
X106404771Y-79931271D01*
X106402291Y-79938201D01*
X106399144Y-79944855D01*
X106395360Y-79951168D01*
X106390976Y-79957079D01*
X106386033Y-79962533D01*
X106380579Y-79967476D01*
X106374668Y-79971860D01*
X106368355Y-79975644D01*
X106361701Y-79978791D01*
X106354771Y-79981271D01*
X106347632Y-79983059D01*
X106340351Y-79984139D01*
X106333000Y-79984500D01*
X105683000Y-79984500D01*
X105675649Y-79984139D01*
X105668368Y-79983059D01*
X105661229Y-79981271D01*
X105654299Y-79978791D01*
X105647645Y-79975644D01*
X105641332Y-79971860D01*
X105635421Y-79967476D01*
X105629967Y-79962533D01*
X105625024Y-79957079D01*
X105620640Y-79951168D01*
X105616856Y-79944855D01*
X105613709Y-79938201D01*
X105611229Y-79931271D01*
X105609441Y-79924132D01*
X105608361Y-79916851D01*
X105608000Y-79909500D01*
X105608000Y-79759500D01*
X105608361Y-79752149D01*
X105609441Y-79744868D01*
X105611229Y-79737729D01*
X105613709Y-79730799D01*
X105616856Y-79724145D01*
X105620640Y-79717832D01*
X105625024Y-79711921D01*
X105629967Y-79706467D01*
X105635421Y-79701524D01*
X105641332Y-79697140D01*
X105647645Y-79693356D01*
X105654299Y-79690209D01*
X105661229Y-79687729D01*
X105668368Y-79685941D01*
X105675649Y-79684861D01*
X105683000Y-79684500D01*
X106333000Y-79684500D01*
X106340351Y-79684861D01*
X106340351Y-79684861D01*
G37*
D19*
X106008000Y-79834500D03*
D10*
G36*
X106340351Y-79034861D02*
G01*
X106347632Y-79035941D01*
X106354771Y-79037729D01*
X106361701Y-79040209D01*
X106368355Y-79043356D01*
X106374668Y-79047140D01*
X106380579Y-79051524D01*
X106386033Y-79056467D01*
X106390976Y-79061921D01*
X106395360Y-79067832D01*
X106399144Y-79074145D01*
X106402291Y-79080799D01*
X106404771Y-79087729D01*
X106406559Y-79094868D01*
X106407639Y-79102149D01*
X106408000Y-79109500D01*
X106408000Y-79259500D01*
X106407639Y-79266851D01*
X106406559Y-79274132D01*
X106404771Y-79281271D01*
X106402291Y-79288201D01*
X106399144Y-79294855D01*
X106395360Y-79301168D01*
X106390976Y-79307079D01*
X106386033Y-79312533D01*
X106380579Y-79317476D01*
X106374668Y-79321860D01*
X106368355Y-79325644D01*
X106361701Y-79328791D01*
X106354771Y-79331271D01*
X106347632Y-79333059D01*
X106340351Y-79334139D01*
X106333000Y-79334500D01*
X105683000Y-79334500D01*
X105675649Y-79334139D01*
X105668368Y-79333059D01*
X105661229Y-79331271D01*
X105654299Y-79328791D01*
X105647645Y-79325644D01*
X105641332Y-79321860D01*
X105635421Y-79317476D01*
X105629967Y-79312533D01*
X105625024Y-79307079D01*
X105620640Y-79301168D01*
X105616856Y-79294855D01*
X105613709Y-79288201D01*
X105611229Y-79281271D01*
X105609441Y-79274132D01*
X105608361Y-79266851D01*
X105608000Y-79259500D01*
X105608000Y-79109500D01*
X105608361Y-79102149D01*
X105609441Y-79094868D01*
X105611229Y-79087729D01*
X105613709Y-79080799D01*
X105616856Y-79074145D01*
X105620640Y-79067832D01*
X105625024Y-79061921D01*
X105629967Y-79056467D01*
X105635421Y-79051524D01*
X105641332Y-79047140D01*
X105647645Y-79043356D01*
X105654299Y-79040209D01*
X105661229Y-79037729D01*
X105668368Y-79035941D01*
X105675649Y-79034861D01*
X105683000Y-79034500D01*
X106333000Y-79034500D01*
X106340351Y-79034861D01*
X106340351Y-79034861D01*
G37*
D19*
X106008000Y-79184500D03*
D10*
G36*
X106340351Y-78384861D02*
G01*
X106347632Y-78385941D01*
X106354771Y-78387729D01*
X106361701Y-78390209D01*
X106368355Y-78393356D01*
X106374668Y-78397140D01*
X106380579Y-78401524D01*
X106386033Y-78406467D01*
X106390976Y-78411921D01*
X106395360Y-78417832D01*
X106399144Y-78424145D01*
X106402291Y-78430799D01*
X106404771Y-78437729D01*
X106406559Y-78444868D01*
X106407639Y-78452149D01*
X106408000Y-78459500D01*
X106408000Y-78609500D01*
X106407639Y-78616851D01*
X106406559Y-78624132D01*
X106404771Y-78631271D01*
X106402291Y-78638201D01*
X106399144Y-78644855D01*
X106395360Y-78651168D01*
X106390976Y-78657079D01*
X106386033Y-78662533D01*
X106380579Y-78667476D01*
X106374668Y-78671860D01*
X106368355Y-78675644D01*
X106361701Y-78678791D01*
X106354771Y-78681271D01*
X106347632Y-78683059D01*
X106340351Y-78684139D01*
X106333000Y-78684500D01*
X105683000Y-78684500D01*
X105675649Y-78684139D01*
X105668368Y-78683059D01*
X105661229Y-78681271D01*
X105654299Y-78678791D01*
X105647645Y-78675644D01*
X105641332Y-78671860D01*
X105635421Y-78667476D01*
X105629967Y-78662533D01*
X105625024Y-78657079D01*
X105620640Y-78651168D01*
X105616856Y-78644855D01*
X105613709Y-78638201D01*
X105611229Y-78631271D01*
X105609441Y-78624132D01*
X105608361Y-78616851D01*
X105608000Y-78609500D01*
X105608000Y-78459500D01*
X105608361Y-78452149D01*
X105609441Y-78444868D01*
X105611229Y-78437729D01*
X105613709Y-78430799D01*
X105616856Y-78424145D01*
X105620640Y-78417832D01*
X105625024Y-78411921D01*
X105629967Y-78406467D01*
X105635421Y-78401524D01*
X105641332Y-78397140D01*
X105647645Y-78393356D01*
X105654299Y-78390209D01*
X105661229Y-78387729D01*
X105668368Y-78385941D01*
X105675649Y-78384861D01*
X105683000Y-78384500D01*
X106333000Y-78384500D01*
X106340351Y-78384861D01*
X106340351Y-78384861D01*
G37*
D19*
X106008000Y-78534500D03*
D10*
G36*
X106340351Y-77734861D02*
G01*
X106347632Y-77735941D01*
X106354771Y-77737729D01*
X106361701Y-77740209D01*
X106368355Y-77743356D01*
X106374668Y-77747140D01*
X106380579Y-77751524D01*
X106386033Y-77756467D01*
X106390976Y-77761921D01*
X106395360Y-77767832D01*
X106399144Y-77774145D01*
X106402291Y-77780799D01*
X106404771Y-77787729D01*
X106406559Y-77794868D01*
X106407639Y-77802149D01*
X106408000Y-77809500D01*
X106408000Y-77959500D01*
X106407639Y-77966851D01*
X106406559Y-77974132D01*
X106404771Y-77981271D01*
X106402291Y-77988201D01*
X106399144Y-77994855D01*
X106395360Y-78001168D01*
X106390976Y-78007079D01*
X106386033Y-78012533D01*
X106380579Y-78017476D01*
X106374668Y-78021860D01*
X106368355Y-78025644D01*
X106361701Y-78028791D01*
X106354771Y-78031271D01*
X106347632Y-78033059D01*
X106340351Y-78034139D01*
X106333000Y-78034500D01*
X105683000Y-78034500D01*
X105675649Y-78034139D01*
X105668368Y-78033059D01*
X105661229Y-78031271D01*
X105654299Y-78028791D01*
X105647645Y-78025644D01*
X105641332Y-78021860D01*
X105635421Y-78017476D01*
X105629967Y-78012533D01*
X105625024Y-78007079D01*
X105620640Y-78001168D01*
X105616856Y-77994855D01*
X105613709Y-77988201D01*
X105611229Y-77981271D01*
X105609441Y-77974132D01*
X105608361Y-77966851D01*
X105608000Y-77959500D01*
X105608000Y-77809500D01*
X105608361Y-77802149D01*
X105609441Y-77794868D01*
X105611229Y-77787729D01*
X105613709Y-77780799D01*
X105616856Y-77774145D01*
X105620640Y-77767832D01*
X105625024Y-77761921D01*
X105629967Y-77756467D01*
X105635421Y-77751524D01*
X105641332Y-77747140D01*
X105647645Y-77743356D01*
X105654299Y-77740209D01*
X105661229Y-77737729D01*
X105668368Y-77735941D01*
X105675649Y-77734861D01*
X105683000Y-77734500D01*
X106333000Y-77734500D01*
X106340351Y-77734861D01*
X106340351Y-77734861D01*
G37*
D19*
X106008000Y-77884500D03*
D10*
G36*
X107240351Y-76334861D02*
G01*
X107247632Y-76335941D01*
X107254771Y-76337729D01*
X107261701Y-76340209D01*
X107268355Y-76343356D01*
X107274668Y-76347140D01*
X107280579Y-76351524D01*
X107286033Y-76356467D01*
X107290976Y-76361921D01*
X107295360Y-76367832D01*
X107299144Y-76374145D01*
X107302291Y-76380799D01*
X107304771Y-76387729D01*
X107306559Y-76394868D01*
X107307639Y-76402149D01*
X107308000Y-76409500D01*
X107308000Y-77059500D01*
X107307639Y-77066851D01*
X107306559Y-77074132D01*
X107304771Y-77081271D01*
X107302291Y-77088201D01*
X107299144Y-77094855D01*
X107295360Y-77101168D01*
X107290976Y-77107079D01*
X107286033Y-77112533D01*
X107280579Y-77117476D01*
X107274668Y-77121860D01*
X107268355Y-77125644D01*
X107261701Y-77128791D01*
X107254771Y-77131271D01*
X107247632Y-77133059D01*
X107240351Y-77134139D01*
X107233000Y-77134500D01*
X107083000Y-77134500D01*
X107075649Y-77134139D01*
X107068368Y-77133059D01*
X107061229Y-77131271D01*
X107054299Y-77128791D01*
X107047645Y-77125644D01*
X107041332Y-77121860D01*
X107035421Y-77117476D01*
X107029967Y-77112533D01*
X107025024Y-77107079D01*
X107020640Y-77101168D01*
X107016856Y-77094855D01*
X107013709Y-77088201D01*
X107011229Y-77081271D01*
X107009441Y-77074132D01*
X107008361Y-77066851D01*
X107008000Y-77059500D01*
X107008000Y-76409500D01*
X107008361Y-76402149D01*
X107009441Y-76394868D01*
X107011229Y-76387729D01*
X107013709Y-76380799D01*
X107016856Y-76374145D01*
X107020640Y-76367832D01*
X107025024Y-76361921D01*
X107029967Y-76356467D01*
X107035421Y-76351524D01*
X107041332Y-76347140D01*
X107047645Y-76343356D01*
X107054299Y-76340209D01*
X107061229Y-76337729D01*
X107068368Y-76335941D01*
X107075649Y-76334861D01*
X107083000Y-76334500D01*
X107233000Y-76334500D01*
X107240351Y-76334861D01*
X107240351Y-76334861D01*
G37*
D19*
X107158000Y-76734500D03*
D10*
G36*
X107890351Y-76334861D02*
G01*
X107897632Y-76335941D01*
X107904771Y-76337729D01*
X107911701Y-76340209D01*
X107918355Y-76343356D01*
X107924668Y-76347140D01*
X107930579Y-76351524D01*
X107936033Y-76356467D01*
X107940976Y-76361921D01*
X107945360Y-76367832D01*
X107949144Y-76374145D01*
X107952291Y-76380799D01*
X107954771Y-76387729D01*
X107956559Y-76394868D01*
X107957639Y-76402149D01*
X107958000Y-76409500D01*
X107958000Y-77059500D01*
X107957639Y-77066851D01*
X107956559Y-77074132D01*
X107954771Y-77081271D01*
X107952291Y-77088201D01*
X107949144Y-77094855D01*
X107945360Y-77101168D01*
X107940976Y-77107079D01*
X107936033Y-77112533D01*
X107930579Y-77117476D01*
X107924668Y-77121860D01*
X107918355Y-77125644D01*
X107911701Y-77128791D01*
X107904771Y-77131271D01*
X107897632Y-77133059D01*
X107890351Y-77134139D01*
X107883000Y-77134500D01*
X107733000Y-77134500D01*
X107725649Y-77134139D01*
X107718368Y-77133059D01*
X107711229Y-77131271D01*
X107704299Y-77128791D01*
X107697645Y-77125644D01*
X107691332Y-77121860D01*
X107685421Y-77117476D01*
X107679967Y-77112533D01*
X107675024Y-77107079D01*
X107670640Y-77101168D01*
X107666856Y-77094855D01*
X107663709Y-77088201D01*
X107661229Y-77081271D01*
X107659441Y-77074132D01*
X107658361Y-77066851D01*
X107658000Y-77059500D01*
X107658000Y-76409500D01*
X107658361Y-76402149D01*
X107659441Y-76394868D01*
X107661229Y-76387729D01*
X107663709Y-76380799D01*
X107666856Y-76374145D01*
X107670640Y-76367832D01*
X107675024Y-76361921D01*
X107679967Y-76356467D01*
X107685421Y-76351524D01*
X107691332Y-76347140D01*
X107697645Y-76343356D01*
X107704299Y-76340209D01*
X107711229Y-76337729D01*
X107718368Y-76335941D01*
X107725649Y-76334861D01*
X107733000Y-76334500D01*
X107883000Y-76334500D01*
X107890351Y-76334861D01*
X107890351Y-76334861D01*
G37*
D19*
X107808000Y-76734500D03*
D10*
G36*
X108540351Y-76334861D02*
G01*
X108547632Y-76335941D01*
X108554771Y-76337729D01*
X108561701Y-76340209D01*
X108568355Y-76343356D01*
X108574668Y-76347140D01*
X108580579Y-76351524D01*
X108586033Y-76356467D01*
X108590976Y-76361921D01*
X108595360Y-76367832D01*
X108599144Y-76374145D01*
X108602291Y-76380799D01*
X108604771Y-76387729D01*
X108606559Y-76394868D01*
X108607639Y-76402149D01*
X108608000Y-76409500D01*
X108608000Y-77059500D01*
X108607639Y-77066851D01*
X108606559Y-77074132D01*
X108604771Y-77081271D01*
X108602291Y-77088201D01*
X108599144Y-77094855D01*
X108595360Y-77101168D01*
X108590976Y-77107079D01*
X108586033Y-77112533D01*
X108580579Y-77117476D01*
X108574668Y-77121860D01*
X108568355Y-77125644D01*
X108561701Y-77128791D01*
X108554771Y-77131271D01*
X108547632Y-77133059D01*
X108540351Y-77134139D01*
X108533000Y-77134500D01*
X108383000Y-77134500D01*
X108375649Y-77134139D01*
X108368368Y-77133059D01*
X108361229Y-77131271D01*
X108354299Y-77128791D01*
X108347645Y-77125644D01*
X108341332Y-77121860D01*
X108335421Y-77117476D01*
X108329967Y-77112533D01*
X108325024Y-77107079D01*
X108320640Y-77101168D01*
X108316856Y-77094855D01*
X108313709Y-77088201D01*
X108311229Y-77081271D01*
X108309441Y-77074132D01*
X108308361Y-77066851D01*
X108308000Y-77059500D01*
X108308000Y-76409500D01*
X108308361Y-76402149D01*
X108309441Y-76394868D01*
X108311229Y-76387729D01*
X108313709Y-76380799D01*
X108316856Y-76374145D01*
X108320640Y-76367832D01*
X108325024Y-76361921D01*
X108329967Y-76356467D01*
X108335421Y-76351524D01*
X108341332Y-76347140D01*
X108347645Y-76343356D01*
X108354299Y-76340209D01*
X108361229Y-76337729D01*
X108368368Y-76335941D01*
X108375649Y-76334861D01*
X108383000Y-76334500D01*
X108533000Y-76334500D01*
X108540351Y-76334861D01*
X108540351Y-76334861D01*
G37*
D19*
X108458000Y-76734500D03*
D10*
G36*
X109190351Y-76334861D02*
G01*
X109197632Y-76335941D01*
X109204771Y-76337729D01*
X109211701Y-76340209D01*
X109218355Y-76343356D01*
X109224668Y-76347140D01*
X109230579Y-76351524D01*
X109236033Y-76356467D01*
X109240976Y-76361921D01*
X109245360Y-76367832D01*
X109249144Y-76374145D01*
X109252291Y-76380799D01*
X109254771Y-76387729D01*
X109256559Y-76394868D01*
X109257639Y-76402149D01*
X109258000Y-76409500D01*
X109258000Y-77059500D01*
X109257639Y-77066851D01*
X109256559Y-77074132D01*
X109254771Y-77081271D01*
X109252291Y-77088201D01*
X109249144Y-77094855D01*
X109245360Y-77101168D01*
X109240976Y-77107079D01*
X109236033Y-77112533D01*
X109230579Y-77117476D01*
X109224668Y-77121860D01*
X109218355Y-77125644D01*
X109211701Y-77128791D01*
X109204771Y-77131271D01*
X109197632Y-77133059D01*
X109190351Y-77134139D01*
X109183000Y-77134500D01*
X109033000Y-77134500D01*
X109025649Y-77134139D01*
X109018368Y-77133059D01*
X109011229Y-77131271D01*
X109004299Y-77128791D01*
X108997645Y-77125644D01*
X108991332Y-77121860D01*
X108985421Y-77117476D01*
X108979967Y-77112533D01*
X108975024Y-77107079D01*
X108970640Y-77101168D01*
X108966856Y-77094855D01*
X108963709Y-77088201D01*
X108961229Y-77081271D01*
X108959441Y-77074132D01*
X108958361Y-77066851D01*
X108958000Y-77059500D01*
X108958000Y-76409500D01*
X108958361Y-76402149D01*
X108959441Y-76394868D01*
X108961229Y-76387729D01*
X108963709Y-76380799D01*
X108966856Y-76374145D01*
X108970640Y-76367832D01*
X108975024Y-76361921D01*
X108979967Y-76356467D01*
X108985421Y-76351524D01*
X108991332Y-76347140D01*
X108997645Y-76343356D01*
X109004299Y-76340209D01*
X109011229Y-76337729D01*
X109018368Y-76335941D01*
X109025649Y-76334861D01*
X109033000Y-76334500D01*
X109183000Y-76334500D01*
X109190351Y-76334861D01*
X109190351Y-76334861D01*
G37*
D19*
X109108000Y-76734500D03*
D10*
G36*
X109840351Y-76334861D02*
G01*
X109847632Y-76335941D01*
X109854771Y-76337729D01*
X109861701Y-76340209D01*
X109868355Y-76343356D01*
X109874668Y-76347140D01*
X109880579Y-76351524D01*
X109886033Y-76356467D01*
X109890976Y-76361921D01*
X109895360Y-76367832D01*
X109899144Y-76374145D01*
X109902291Y-76380799D01*
X109904771Y-76387729D01*
X109906559Y-76394868D01*
X109907639Y-76402149D01*
X109908000Y-76409500D01*
X109908000Y-77059500D01*
X109907639Y-77066851D01*
X109906559Y-77074132D01*
X109904771Y-77081271D01*
X109902291Y-77088201D01*
X109899144Y-77094855D01*
X109895360Y-77101168D01*
X109890976Y-77107079D01*
X109886033Y-77112533D01*
X109880579Y-77117476D01*
X109874668Y-77121860D01*
X109868355Y-77125644D01*
X109861701Y-77128791D01*
X109854771Y-77131271D01*
X109847632Y-77133059D01*
X109840351Y-77134139D01*
X109833000Y-77134500D01*
X109683000Y-77134500D01*
X109675649Y-77134139D01*
X109668368Y-77133059D01*
X109661229Y-77131271D01*
X109654299Y-77128791D01*
X109647645Y-77125644D01*
X109641332Y-77121860D01*
X109635421Y-77117476D01*
X109629967Y-77112533D01*
X109625024Y-77107079D01*
X109620640Y-77101168D01*
X109616856Y-77094855D01*
X109613709Y-77088201D01*
X109611229Y-77081271D01*
X109609441Y-77074132D01*
X109608361Y-77066851D01*
X109608000Y-77059500D01*
X109608000Y-76409500D01*
X109608361Y-76402149D01*
X109609441Y-76394868D01*
X109611229Y-76387729D01*
X109613709Y-76380799D01*
X109616856Y-76374145D01*
X109620640Y-76367832D01*
X109625024Y-76361921D01*
X109629967Y-76356467D01*
X109635421Y-76351524D01*
X109641332Y-76347140D01*
X109647645Y-76343356D01*
X109654299Y-76340209D01*
X109661229Y-76337729D01*
X109668368Y-76335941D01*
X109675649Y-76334861D01*
X109683000Y-76334500D01*
X109833000Y-76334500D01*
X109840351Y-76334861D01*
X109840351Y-76334861D01*
G37*
D19*
X109758000Y-76734500D03*
D10*
G36*
X111240351Y-77734861D02*
G01*
X111247632Y-77735941D01*
X111254771Y-77737729D01*
X111261701Y-77740209D01*
X111268355Y-77743356D01*
X111274668Y-77747140D01*
X111280579Y-77751524D01*
X111286033Y-77756467D01*
X111290976Y-77761921D01*
X111295360Y-77767832D01*
X111299144Y-77774145D01*
X111302291Y-77780799D01*
X111304771Y-77787729D01*
X111306559Y-77794868D01*
X111307639Y-77802149D01*
X111308000Y-77809500D01*
X111308000Y-77959500D01*
X111307639Y-77966851D01*
X111306559Y-77974132D01*
X111304771Y-77981271D01*
X111302291Y-77988201D01*
X111299144Y-77994855D01*
X111295360Y-78001168D01*
X111290976Y-78007079D01*
X111286033Y-78012533D01*
X111280579Y-78017476D01*
X111274668Y-78021860D01*
X111268355Y-78025644D01*
X111261701Y-78028791D01*
X111254771Y-78031271D01*
X111247632Y-78033059D01*
X111240351Y-78034139D01*
X111233000Y-78034500D01*
X110583000Y-78034500D01*
X110575649Y-78034139D01*
X110568368Y-78033059D01*
X110561229Y-78031271D01*
X110554299Y-78028791D01*
X110547645Y-78025644D01*
X110541332Y-78021860D01*
X110535421Y-78017476D01*
X110529967Y-78012533D01*
X110525024Y-78007079D01*
X110520640Y-78001168D01*
X110516856Y-77994855D01*
X110513709Y-77988201D01*
X110511229Y-77981271D01*
X110509441Y-77974132D01*
X110508361Y-77966851D01*
X110508000Y-77959500D01*
X110508000Y-77809500D01*
X110508361Y-77802149D01*
X110509441Y-77794868D01*
X110511229Y-77787729D01*
X110513709Y-77780799D01*
X110516856Y-77774145D01*
X110520640Y-77767832D01*
X110525024Y-77761921D01*
X110529967Y-77756467D01*
X110535421Y-77751524D01*
X110541332Y-77747140D01*
X110547645Y-77743356D01*
X110554299Y-77740209D01*
X110561229Y-77737729D01*
X110568368Y-77735941D01*
X110575649Y-77734861D01*
X110583000Y-77734500D01*
X111233000Y-77734500D01*
X111240351Y-77734861D01*
X111240351Y-77734861D01*
G37*
D19*
X110908000Y-77884500D03*
D10*
G36*
X111240351Y-78384861D02*
G01*
X111247632Y-78385941D01*
X111254771Y-78387729D01*
X111261701Y-78390209D01*
X111268355Y-78393356D01*
X111274668Y-78397140D01*
X111280579Y-78401524D01*
X111286033Y-78406467D01*
X111290976Y-78411921D01*
X111295360Y-78417832D01*
X111299144Y-78424145D01*
X111302291Y-78430799D01*
X111304771Y-78437729D01*
X111306559Y-78444868D01*
X111307639Y-78452149D01*
X111308000Y-78459500D01*
X111308000Y-78609500D01*
X111307639Y-78616851D01*
X111306559Y-78624132D01*
X111304771Y-78631271D01*
X111302291Y-78638201D01*
X111299144Y-78644855D01*
X111295360Y-78651168D01*
X111290976Y-78657079D01*
X111286033Y-78662533D01*
X111280579Y-78667476D01*
X111274668Y-78671860D01*
X111268355Y-78675644D01*
X111261701Y-78678791D01*
X111254771Y-78681271D01*
X111247632Y-78683059D01*
X111240351Y-78684139D01*
X111233000Y-78684500D01*
X110583000Y-78684500D01*
X110575649Y-78684139D01*
X110568368Y-78683059D01*
X110561229Y-78681271D01*
X110554299Y-78678791D01*
X110547645Y-78675644D01*
X110541332Y-78671860D01*
X110535421Y-78667476D01*
X110529967Y-78662533D01*
X110525024Y-78657079D01*
X110520640Y-78651168D01*
X110516856Y-78644855D01*
X110513709Y-78638201D01*
X110511229Y-78631271D01*
X110509441Y-78624132D01*
X110508361Y-78616851D01*
X110508000Y-78609500D01*
X110508000Y-78459500D01*
X110508361Y-78452149D01*
X110509441Y-78444868D01*
X110511229Y-78437729D01*
X110513709Y-78430799D01*
X110516856Y-78424145D01*
X110520640Y-78417832D01*
X110525024Y-78411921D01*
X110529967Y-78406467D01*
X110535421Y-78401524D01*
X110541332Y-78397140D01*
X110547645Y-78393356D01*
X110554299Y-78390209D01*
X110561229Y-78387729D01*
X110568368Y-78385941D01*
X110575649Y-78384861D01*
X110583000Y-78384500D01*
X111233000Y-78384500D01*
X111240351Y-78384861D01*
X111240351Y-78384861D01*
G37*
D19*
X110908000Y-78534500D03*
D10*
G36*
X111240351Y-79034861D02*
G01*
X111247632Y-79035941D01*
X111254771Y-79037729D01*
X111261701Y-79040209D01*
X111268355Y-79043356D01*
X111274668Y-79047140D01*
X111280579Y-79051524D01*
X111286033Y-79056467D01*
X111290976Y-79061921D01*
X111295360Y-79067832D01*
X111299144Y-79074145D01*
X111302291Y-79080799D01*
X111304771Y-79087729D01*
X111306559Y-79094868D01*
X111307639Y-79102149D01*
X111308000Y-79109500D01*
X111308000Y-79259500D01*
X111307639Y-79266851D01*
X111306559Y-79274132D01*
X111304771Y-79281271D01*
X111302291Y-79288201D01*
X111299144Y-79294855D01*
X111295360Y-79301168D01*
X111290976Y-79307079D01*
X111286033Y-79312533D01*
X111280579Y-79317476D01*
X111274668Y-79321860D01*
X111268355Y-79325644D01*
X111261701Y-79328791D01*
X111254771Y-79331271D01*
X111247632Y-79333059D01*
X111240351Y-79334139D01*
X111233000Y-79334500D01*
X110583000Y-79334500D01*
X110575649Y-79334139D01*
X110568368Y-79333059D01*
X110561229Y-79331271D01*
X110554299Y-79328791D01*
X110547645Y-79325644D01*
X110541332Y-79321860D01*
X110535421Y-79317476D01*
X110529967Y-79312533D01*
X110525024Y-79307079D01*
X110520640Y-79301168D01*
X110516856Y-79294855D01*
X110513709Y-79288201D01*
X110511229Y-79281271D01*
X110509441Y-79274132D01*
X110508361Y-79266851D01*
X110508000Y-79259500D01*
X110508000Y-79109500D01*
X110508361Y-79102149D01*
X110509441Y-79094868D01*
X110511229Y-79087729D01*
X110513709Y-79080799D01*
X110516856Y-79074145D01*
X110520640Y-79067832D01*
X110525024Y-79061921D01*
X110529967Y-79056467D01*
X110535421Y-79051524D01*
X110541332Y-79047140D01*
X110547645Y-79043356D01*
X110554299Y-79040209D01*
X110561229Y-79037729D01*
X110568368Y-79035941D01*
X110575649Y-79034861D01*
X110583000Y-79034500D01*
X111233000Y-79034500D01*
X111240351Y-79034861D01*
X111240351Y-79034861D01*
G37*
D19*
X110908000Y-79184500D03*
D10*
G36*
X111240351Y-79684861D02*
G01*
X111247632Y-79685941D01*
X111254771Y-79687729D01*
X111261701Y-79690209D01*
X111268355Y-79693356D01*
X111274668Y-79697140D01*
X111280579Y-79701524D01*
X111286033Y-79706467D01*
X111290976Y-79711921D01*
X111295360Y-79717832D01*
X111299144Y-79724145D01*
X111302291Y-79730799D01*
X111304771Y-79737729D01*
X111306559Y-79744868D01*
X111307639Y-79752149D01*
X111308000Y-79759500D01*
X111308000Y-79909500D01*
X111307639Y-79916851D01*
X111306559Y-79924132D01*
X111304771Y-79931271D01*
X111302291Y-79938201D01*
X111299144Y-79944855D01*
X111295360Y-79951168D01*
X111290976Y-79957079D01*
X111286033Y-79962533D01*
X111280579Y-79967476D01*
X111274668Y-79971860D01*
X111268355Y-79975644D01*
X111261701Y-79978791D01*
X111254771Y-79981271D01*
X111247632Y-79983059D01*
X111240351Y-79984139D01*
X111233000Y-79984500D01*
X110583000Y-79984500D01*
X110575649Y-79984139D01*
X110568368Y-79983059D01*
X110561229Y-79981271D01*
X110554299Y-79978791D01*
X110547645Y-79975644D01*
X110541332Y-79971860D01*
X110535421Y-79967476D01*
X110529967Y-79962533D01*
X110525024Y-79957079D01*
X110520640Y-79951168D01*
X110516856Y-79944855D01*
X110513709Y-79938201D01*
X110511229Y-79931271D01*
X110509441Y-79924132D01*
X110508361Y-79916851D01*
X110508000Y-79909500D01*
X110508000Y-79759500D01*
X110508361Y-79752149D01*
X110509441Y-79744868D01*
X110511229Y-79737729D01*
X110513709Y-79730799D01*
X110516856Y-79724145D01*
X110520640Y-79717832D01*
X110525024Y-79711921D01*
X110529967Y-79706467D01*
X110535421Y-79701524D01*
X110541332Y-79697140D01*
X110547645Y-79693356D01*
X110554299Y-79690209D01*
X110561229Y-79687729D01*
X110568368Y-79685941D01*
X110575649Y-79684861D01*
X110583000Y-79684500D01*
X111233000Y-79684500D01*
X111240351Y-79684861D01*
X111240351Y-79684861D01*
G37*
D19*
X110908000Y-79834500D03*
D10*
G36*
X111240351Y-80334861D02*
G01*
X111247632Y-80335941D01*
X111254771Y-80337729D01*
X111261701Y-80340209D01*
X111268355Y-80343356D01*
X111274668Y-80347140D01*
X111280579Y-80351524D01*
X111286033Y-80356467D01*
X111290976Y-80361921D01*
X111295360Y-80367832D01*
X111299144Y-80374145D01*
X111302291Y-80380799D01*
X111304771Y-80387729D01*
X111306559Y-80394868D01*
X111307639Y-80402149D01*
X111308000Y-80409500D01*
X111308000Y-80559500D01*
X111307639Y-80566851D01*
X111306559Y-80574132D01*
X111304771Y-80581271D01*
X111302291Y-80588201D01*
X111299144Y-80594855D01*
X111295360Y-80601168D01*
X111290976Y-80607079D01*
X111286033Y-80612533D01*
X111280579Y-80617476D01*
X111274668Y-80621860D01*
X111268355Y-80625644D01*
X111261701Y-80628791D01*
X111254771Y-80631271D01*
X111247632Y-80633059D01*
X111240351Y-80634139D01*
X111233000Y-80634500D01*
X110583000Y-80634500D01*
X110575649Y-80634139D01*
X110568368Y-80633059D01*
X110561229Y-80631271D01*
X110554299Y-80628791D01*
X110547645Y-80625644D01*
X110541332Y-80621860D01*
X110535421Y-80617476D01*
X110529967Y-80612533D01*
X110525024Y-80607079D01*
X110520640Y-80601168D01*
X110516856Y-80594855D01*
X110513709Y-80588201D01*
X110511229Y-80581271D01*
X110509441Y-80574132D01*
X110508361Y-80566851D01*
X110508000Y-80559500D01*
X110508000Y-80409500D01*
X110508361Y-80402149D01*
X110509441Y-80394868D01*
X110511229Y-80387729D01*
X110513709Y-80380799D01*
X110516856Y-80374145D01*
X110520640Y-80367832D01*
X110525024Y-80361921D01*
X110529967Y-80356467D01*
X110535421Y-80351524D01*
X110541332Y-80347140D01*
X110547645Y-80343356D01*
X110554299Y-80340209D01*
X110561229Y-80337729D01*
X110568368Y-80335941D01*
X110575649Y-80334861D01*
X110583000Y-80334500D01*
X111233000Y-80334500D01*
X111240351Y-80334861D01*
X111240351Y-80334861D01*
G37*
D19*
X110908000Y-80484500D03*
D20*
X116685500Y-69925500D03*
X116685500Y-70425500D03*
X116685500Y-70925500D03*
X116685500Y-71425500D03*
X114835500Y-71425500D03*
X114835500Y-70925500D03*
X114835500Y-70425500D03*
X114835500Y-69925500D03*
D21*
X115760500Y-69941500D03*
X115760500Y-70675500D03*
X115760500Y-71409500D03*
D10*
G36*
X73082583Y-78836883D02*
G01*
X73096901Y-78839007D01*
X73110942Y-78842524D01*
X73124571Y-78847401D01*
X73137656Y-78853590D01*
X73150072Y-78861031D01*
X73161698Y-78869654D01*
X73172423Y-78879375D01*
X73381019Y-79087971D01*
X73390740Y-79098696D01*
X73399363Y-79110322D01*
X73406804Y-79122738D01*
X73412993Y-79135823D01*
X73417870Y-79149452D01*
X73421387Y-79163493D01*
X73423511Y-79177811D01*
X73424221Y-79192269D01*
X73423511Y-79206727D01*
X73421387Y-79221045D01*
X73417870Y-79235086D01*
X73412993Y-79248715D01*
X73406804Y-79261800D01*
X73399363Y-79274216D01*
X73390740Y-79285842D01*
X73381019Y-79296567D01*
X73137067Y-79540519D01*
X73126342Y-79550240D01*
X73114716Y-79558863D01*
X73102300Y-79566304D01*
X73089215Y-79572493D01*
X73075586Y-79577370D01*
X73061545Y-79580887D01*
X73047227Y-79583011D01*
X73032769Y-79583721D01*
X73018311Y-79583011D01*
X73003993Y-79580887D01*
X72989952Y-79577370D01*
X72976323Y-79572493D01*
X72963238Y-79566304D01*
X72950822Y-79558863D01*
X72939196Y-79550240D01*
X72928471Y-79540519D01*
X72719875Y-79331923D01*
X72710154Y-79321198D01*
X72701531Y-79309572D01*
X72694090Y-79297156D01*
X72687901Y-79284071D01*
X72683024Y-79270442D01*
X72679507Y-79256401D01*
X72677383Y-79242083D01*
X72676673Y-79227625D01*
X72677383Y-79213167D01*
X72679507Y-79198849D01*
X72683024Y-79184808D01*
X72687901Y-79171179D01*
X72694090Y-79158094D01*
X72701531Y-79145678D01*
X72710154Y-79134052D01*
X72719875Y-79123327D01*
X72963827Y-78879375D01*
X72974552Y-78869654D01*
X72986178Y-78861031D01*
X72998594Y-78853590D01*
X73011679Y-78847401D01*
X73025308Y-78842524D01*
X73039349Y-78839007D01*
X73053667Y-78836883D01*
X73068125Y-78836173D01*
X73082583Y-78836883D01*
X73082583Y-78836883D01*
G37*
D11*
X73050447Y-79209947D03*
D10*
G36*
X72396689Y-78150989D02*
G01*
X72411007Y-78153113D01*
X72425048Y-78156630D01*
X72438677Y-78161507D01*
X72451762Y-78167696D01*
X72464178Y-78175137D01*
X72475804Y-78183760D01*
X72486529Y-78193481D01*
X72695125Y-78402077D01*
X72704846Y-78412802D01*
X72713469Y-78424428D01*
X72720910Y-78436844D01*
X72727099Y-78449929D01*
X72731976Y-78463558D01*
X72735493Y-78477599D01*
X72737617Y-78491917D01*
X72738327Y-78506375D01*
X72737617Y-78520833D01*
X72735493Y-78535151D01*
X72731976Y-78549192D01*
X72727099Y-78562821D01*
X72720910Y-78575906D01*
X72713469Y-78588322D01*
X72704846Y-78599948D01*
X72695125Y-78610673D01*
X72451173Y-78854625D01*
X72440448Y-78864346D01*
X72428822Y-78872969D01*
X72416406Y-78880410D01*
X72403321Y-78886599D01*
X72389692Y-78891476D01*
X72375651Y-78894993D01*
X72361333Y-78897117D01*
X72346875Y-78897827D01*
X72332417Y-78897117D01*
X72318099Y-78894993D01*
X72304058Y-78891476D01*
X72290429Y-78886599D01*
X72277344Y-78880410D01*
X72264928Y-78872969D01*
X72253302Y-78864346D01*
X72242577Y-78854625D01*
X72033981Y-78646029D01*
X72024260Y-78635304D01*
X72015637Y-78623678D01*
X72008196Y-78611262D01*
X72002007Y-78598177D01*
X71997130Y-78584548D01*
X71993613Y-78570507D01*
X71991489Y-78556189D01*
X71990779Y-78541731D01*
X71991489Y-78527273D01*
X71993613Y-78512955D01*
X71997130Y-78498914D01*
X72002007Y-78485285D01*
X72008196Y-78472200D01*
X72015637Y-78459784D01*
X72024260Y-78448158D01*
X72033981Y-78437433D01*
X72277933Y-78193481D01*
X72288658Y-78183760D01*
X72300284Y-78175137D01*
X72312700Y-78167696D01*
X72325785Y-78161507D01*
X72339414Y-78156630D01*
X72353455Y-78153113D01*
X72367773Y-78150989D01*
X72382231Y-78150279D01*
X72396689Y-78150989D01*
X72396689Y-78150989D01*
G37*
D11*
X72364553Y-78524053D03*
D10*
G36*
X72320583Y-79598883D02*
G01*
X72334901Y-79601007D01*
X72348942Y-79604524D01*
X72362571Y-79609401D01*
X72375656Y-79615590D01*
X72388072Y-79623031D01*
X72399698Y-79631654D01*
X72410423Y-79641375D01*
X72619019Y-79849971D01*
X72628740Y-79860696D01*
X72637363Y-79872322D01*
X72644804Y-79884738D01*
X72650993Y-79897823D01*
X72655870Y-79911452D01*
X72659387Y-79925493D01*
X72661511Y-79939811D01*
X72662221Y-79954269D01*
X72661511Y-79968727D01*
X72659387Y-79983045D01*
X72655870Y-79997086D01*
X72650993Y-80010715D01*
X72644804Y-80023800D01*
X72637363Y-80036216D01*
X72628740Y-80047842D01*
X72619019Y-80058567D01*
X72375067Y-80302519D01*
X72364342Y-80312240D01*
X72352716Y-80320863D01*
X72340300Y-80328304D01*
X72327215Y-80334493D01*
X72313586Y-80339370D01*
X72299545Y-80342887D01*
X72285227Y-80345011D01*
X72270769Y-80345721D01*
X72256311Y-80345011D01*
X72241993Y-80342887D01*
X72227952Y-80339370D01*
X72214323Y-80334493D01*
X72201238Y-80328304D01*
X72188822Y-80320863D01*
X72177196Y-80312240D01*
X72166471Y-80302519D01*
X71957875Y-80093923D01*
X71948154Y-80083198D01*
X71939531Y-80071572D01*
X71932090Y-80059156D01*
X71925901Y-80046071D01*
X71921024Y-80032442D01*
X71917507Y-80018401D01*
X71915383Y-80004083D01*
X71914673Y-79989625D01*
X71915383Y-79975167D01*
X71917507Y-79960849D01*
X71921024Y-79946808D01*
X71925901Y-79933179D01*
X71932090Y-79920094D01*
X71939531Y-79907678D01*
X71948154Y-79896052D01*
X71957875Y-79885327D01*
X72201827Y-79641375D01*
X72212552Y-79631654D01*
X72224178Y-79623031D01*
X72236594Y-79615590D01*
X72249679Y-79609401D01*
X72263308Y-79604524D01*
X72277349Y-79601007D01*
X72291667Y-79598883D01*
X72306125Y-79598173D01*
X72320583Y-79598883D01*
X72320583Y-79598883D01*
G37*
D11*
X72288447Y-79971947D03*
D10*
G36*
X71634689Y-78912989D02*
G01*
X71649007Y-78915113D01*
X71663048Y-78918630D01*
X71676677Y-78923507D01*
X71689762Y-78929696D01*
X71702178Y-78937137D01*
X71713804Y-78945760D01*
X71724529Y-78955481D01*
X71933125Y-79164077D01*
X71942846Y-79174802D01*
X71951469Y-79186428D01*
X71958910Y-79198844D01*
X71965099Y-79211929D01*
X71969976Y-79225558D01*
X71973493Y-79239599D01*
X71975617Y-79253917D01*
X71976327Y-79268375D01*
X71975617Y-79282833D01*
X71973493Y-79297151D01*
X71969976Y-79311192D01*
X71965099Y-79324821D01*
X71958910Y-79337906D01*
X71951469Y-79350322D01*
X71942846Y-79361948D01*
X71933125Y-79372673D01*
X71689173Y-79616625D01*
X71678448Y-79626346D01*
X71666822Y-79634969D01*
X71654406Y-79642410D01*
X71641321Y-79648599D01*
X71627692Y-79653476D01*
X71613651Y-79656993D01*
X71599333Y-79659117D01*
X71584875Y-79659827D01*
X71570417Y-79659117D01*
X71556099Y-79656993D01*
X71542058Y-79653476D01*
X71528429Y-79648599D01*
X71515344Y-79642410D01*
X71502928Y-79634969D01*
X71491302Y-79626346D01*
X71480577Y-79616625D01*
X71271981Y-79408029D01*
X71262260Y-79397304D01*
X71253637Y-79385678D01*
X71246196Y-79373262D01*
X71240007Y-79360177D01*
X71235130Y-79346548D01*
X71231613Y-79332507D01*
X71229489Y-79318189D01*
X71228779Y-79303731D01*
X71229489Y-79289273D01*
X71231613Y-79274955D01*
X71235130Y-79260914D01*
X71240007Y-79247285D01*
X71246196Y-79234200D01*
X71253637Y-79221784D01*
X71262260Y-79210158D01*
X71271981Y-79199433D01*
X71515933Y-78955481D01*
X71526658Y-78945760D01*
X71538284Y-78937137D01*
X71550700Y-78929696D01*
X71563785Y-78923507D01*
X71577414Y-78918630D01*
X71591455Y-78915113D01*
X71605773Y-78912989D01*
X71620231Y-78912279D01*
X71634689Y-78912989D01*
X71634689Y-78912989D01*
G37*
D11*
X71602553Y-79286053D03*
D10*
G36*
X70087758Y-67648310D02*
G01*
X70102076Y-67650434D01*
X70116117Y-67653951D01*
X70129746Y-67658828D01*
X70142831Y-67665017D01*
X70155247Y-67672458D01*
X70166873Y-67681081D01*
X70177598Y-67690802D01*
X70187319Y-67701527D01*
X70195942Y-67713153D01*
X70203383Y-67725569D01*
X70209572Y-67738654D01*
X70214449Y-67752283D01*
X70217966Y-67766324D01*
X70220090Y-67780642D01*
X70220800Y-67795100D01*
X70220800Y-68090100D01*
X70220090Y-68104558D01*
X70217966Y-68118876D01*
X70214449Y-68132917D01*
X70209572Y-68146546D01*
X70203383Y-68159631D01*
X70195942Y-68172047D01*
X70187319Y-68183673D01*
X70177598Y-68194398D01*
X70166873Y-68204119D01*
X70155247Y-68212742D01*
X70142831Y-68220183D01*
X70129746Y-68226372D01*
X70116117Y-68231249D01*
X70102076Y-68234766D01*
X70087758Y-68236890D01*
X70073300Y-68237600D01*
X69728300Y-68237600D01*
X69713842Y-68236890D01*
X69699524Y-68234766D01*
X69685483Y-68231249D01*
X69671854Y-68226372D01*
X69658769Y-68220183D01*
X69646353Y-68212742D01*
X69634727Y-68204119D01*
X69624002Y-68194398D01*
X69614281Y-68183673D01*
X69605658Y-68172047D01*
X69598217Y-68159631D01*
X69592028Y-68146546D01*
X69587151Y-68132917D01*
X69583634Y-68118876D01*
X69581510Y-68104558D01*
X69580800Y-68090100D01*
X69580800Y-67795100D01*
X69581510Y-67780642D01*
X69583634Y-67766324D01*
X69587151Y-67752283D01*
X69592028Y-67738654D01*
X69598217Y-67725569D01*
X69605658Y-67713153D01*
X69614281Y-67701527D01*
X69624002Y-67690802D01*
X69634727Y-67681081D01*
X69646353Y-67672458D01*
X69658769Y-67665017D01*
X69671854Y-67658828D01*
X69685483Y-67653951D01*
X69699524Y-67650434D01*
X69713842Y-67648310D01*
X69728300Y-67647600D01*
X70073300Y-67647600D01*
X70087758Y-67648310D01*
X70087758Y-67648310D01*
G37*
D11*
X69900800Y-67942600D03*
D10*
G36*
X70087758Y-68618310D02*
G01*
X70102076Y-68620434D01*
X70116117Y-68623951D01*
X70129746Y-68628828D01*
X70142831Y-68635017D01*
X70155247Y-68642458D01*
X70166873Y-68651081D01*
X70177598Y-68660802D01*
X70187319Y-68671527D01*
X70195942Y-68683153D01*
X70203383Y-68695569D01*
X70209572Y-68708654D01*
X70214449Y-68722283D01*
X70217966Y-68736324D01*
X70220090Y-68750642D01*
X70220800Y-68765100D01*
X70220800Y-69060100D01*
X70220090Y-69074558D01*
X70217966Y-69088876D01*
X70214449Y-69102917D01*
X70209572Y-69116546D01*
X70203383Y-69129631D01*
X70195942Y-69142047D01*
X70187319Y-69153673D01*
X70177598Y-69164398D01*
X70166873Y-69174119D01*
X70155247Y-69182742D01*
X70142831Y-69190183D01*
X70129746Y-69196372D01*
X70116117Y-69201249D01*
X70102076Y-69204766D01*
X70087758Y-69206890D01*
X70073300Y-69207600D01*
X69728300Y-69207600D01*
X69713842Y-69206890D01*
X69699524Y-69204766D01*
X69685483Y-69201249D01*
X69671854Y-69196372D01*
X69658769Y-69190183D01*
X69646353Y-69182742D01*
X69634727Y-69174119D01*
X69624002Y-69164398D01*
X69614281Y-69153673D01*
X69605658Y-69142047D01*
X69598217Y-69129631D01*
X69592028Y-69116546D01*
X69587151Y-69102917D01*
X69583634Y-69088876D01*
X69581510Y-69074558D01*
X69580800Y-69060100D01*
X69580800Y-68765100D01*
X69581510Y-68750642D01*
X69583634Y-68736324D01*
X69587151Y-68722283D01*
X69592028Y-68708654D01*
X69598217Y-68695569D01*
X69605658Y-68683153D01*
X69614281Y-68671527D01*
X69624002Y-68660802D01*
X69634727Y-68651081D01*
X69646353Y-68642458D01*
X69658769Y-68635017D01*
X69671854Y-68628828D01*
X69685483Y-68623951D01*
X69699524Y-68620434D01*
X69713842Y-68618310D01*
X69728300Y-68617600D01*
X70073300Y-68617600D01*
X70087758Y-68618310D01*
X70087758Y-68618310D01*
G37*
D11*
X69900800Y-68912600D03*
D10*
G36*
X71533136Y-80335436D02*
G01*
X71547454Y-80337560D01*
X71561495Y-80341077D01*
X71575124Y-80345954D01*
X71588209Y-80352143D01*
X71600625Y-80359584D01*
X71612251Y-80368207D01*
X71622976Y-80377928D01*
X71831572Y-80586524D01*
X71841293Y-80597249D01*
X71849916Y-80608875D01*
X71857357Y-80621291D01*
X71863546Y-80634376D01*
X71868423Y-80648005D01*
X71871940Y-80662046D01*
X71874064Y-80676364D01*
X71874774Y-80690822D01*
X71874064Y-80705280D01*
X71871940Y-80719598D01*
X71868423Y-80733639D01*
X71863546Y-80747268D01*
X71857357Y-80760353D01*
X71849916Y-80772769D01*
X71841293Y-80784395D01*
X71831572Y-80795120D01*
X71587620Y-81039072D01*
X71576895Y-81048793D01*
X71565269Y-81057416D01*
X71552853Y-81064857D01*
X71539768Y-81071046D01*
X71526139Y-81075923D01*
X71512098Y-81079440D01*
X71497780Y-81081564D01*
X71483322Y-81082274D01*
X71468864Y-81081564D01*
X71454546Y-81079440D01*
X71440505Y-81075923D01*
X71426876Y-81071046D01*
X71413791Y-81064857D01*
X71401375Y-81057416D01*
X71389749Y-81048793D01*
X71379024Y-81039072D01*
X71170428Y-80830476D01*
X71160707Y-80819751D01*
X71152084Y-80808125D01*
X71144643Y-80795709D01*
X71138454Y-80782624D01*
X71133577Y-80768995D01*
X71130060Y-80754954D01*
X71127936Y-80740636D01*
X71127226Y-80726178D01*
X71127936Y-80711720D01*
X71130060Y-80697402D01*
X71133577Y-80683361D01*
X71138454Y-80669732D01*
X71144643Y-80656647D01*
X71152084Y-80644231D01*
X71160707Y-80632605D01*
X71170428Y-80621880D01*
X71414380Y-80377928D01*
X71425105Y-80368207D01*
X71436731Y-80359584D01*
X71449147Y-80352143D01*
X71462232Y-80345954D01*
X71475861Y-80341077D01*
X71489902Y-80337560D01*
X71504220Y-80335436D01*
X71518678Y-80334726D01*
X71533136Y-80335436D01*
X71533136Y-80335436D01*
G37*
D11*
X71501000Y-80708500D03*
D10*
G36*
X70847242Y-79649542D02*
G01*
X70861560Y-79651666D01*
X70875601Y-79655183D01*
X70889230Y-79660060D01*
X70902315Y-79666249D01*
X70914731Y-79673690D01*
X70926357Y-79682313D01*
X70937082Y-79692034D01*
X71145678Y-79900630D01*
X71155399Y-79911355D01*
X71164022Y-79922981D01*
X71171463Y-79935397D01*
X71177652Y-79948482D01*
X71182529Y-79962111D01*
X71186046Y-79976152D01*
X71188170Y-79990470D01*
X71188880Y-80004928D01*
X71188170Y-80019386D01*
X71186046Y-80033704D01*
X71182529Y-80047745D01*
X71177652Y-80061374D01*
X71171463Y-80074459D01*
X71164022Y-80086875D01*
X71155399Y-80098501D01*
X71145678Y-80109226D01*
X70901726Y-80353178D01*
X70891001Y-80362899D01*
X70879375Y-80371522D01*
X70866959Y-80378963D01*
X70853874Y-80385152D01*
X70840245Y-80390029D01*
X70826204Y-80393546D01*
X70811886Y-80395670D01*
X70797428Y-80396380D01*
X70782970Y-80395670D01*
X70768652Y-80393546D01*
X70754611Y-80390029D01*
X70740982Y-80385152D01*
X70727897Y-80378963D01*
X70715481Y-80371522D01*
X70703855Y-80362899D01*
X70693130Y-80353178D01*
X70484534Y-80144582D01*
X70474813Y-80133857D01*
X70466190Y-80122231D01*
X70458749Y-80109815D01*
X70452560Y-80096730D01*
X70447683Y-80083101D01*
X70444166Y-80069060D01*
X70442042Y-80054742D01*
X70441332Y-80040284D01*
X70442042Y-80025826D01*
X70444166Y-80011508D01*
X70447683Y-79997467D01*
X70452560Y-79983838D01*
X70458749Y-79970753D01*
X70466190Y-79958337D01*
X70474813Y-79946711D01*
X70484534Y-79935986D01*
X70728486Y-79692034D01*
X70739211Y-79682313D01*
X70750837Y-79673690D01*
X70763253Y-79666249D01*
X70776338Y-79660060D01*
X70789967Y-79655183D01*
X70804008Y-79651666D01*
X70818326Y-79649542D01*
X70832784Y-79648832D01*
X70847242Y-79649542D01*
X70847242Y-79649542D01*
G37*
D11*
X70815106Y-80022606D03*
D10*
G36*
X121804958Y-79335110D02*
G01*
X121819276Y-79337234D01*
X121833317Y-79340751D01*
X121846946Y-79345628D01*
X121860031Y-79351817D01*
X121872447Y-79359258D01*
X121884073Y-79367881D01*
X121894798Y-79377602D01*
X121904519Y-79388327D01*
X121913142Y-79399953D01*
X121920583Y-79412369D01*
X121926772Y-79425454D01*
X121931649Y-79439083D01*
X121935166Y-79453124D01*
X121937290Y-79467442D01*
X121938000Y-79481900D01*
X121938000Y-79826900D01*
X121937290Y-79841358D01*
X121935166Y-79855676D01*
X121931649Y-79869717D01*
X121926772Y-79883346D01*
X121920583Y-79896431D01*
X121913142Y-79908847D01*
X121904519Y-79920473D01*
X121894798Y-79931198D01*
X121884073Y-79940919D01*
X121872447Y-79949542D01*
X121860031Y-79956983D01*
X121846946Y-79963172D01*
X121833317Y-79968049D01*
X121819276Y-79971566D01*
X121804958Y-79973690D01*
X121790500Y-79974400D01*
X121495500Y-79974400D01*
X121481042Y-79973690D01*
X121466724Y-79971566D01*
X121452683Y-79968049D01*
X121439054Y-79963172D01*
X121425969Y-79956983D01*
X121413553Y-79949542D01*
X121401927Y-79940919D01*
X121391202Y-79931198D01*
X121381481Y-79920473D01*
X121372858Y-79908847D01*
X121365417Y-79896431D01*
X121359228Y-79883346D01*
X121354351Y-79869717D01*
X121350834Y-79855676D01*
X121348710Y-79841358D01*
X121348000Y-79826900D01*
X121348000Y-79481900D01*
X121348710Y-79467442D01*
X121350834Y-79453124D01*
X121354351Y-79439083D01*
X121359228Y-79425454D01*
X121365417Y-79412369D01*
X121372858Y-79399953D01*
X121381481Y-79388327D01*
X121391202Y-79377602D01*
X121401927Y-79367881D01*
X121413553Y-79359258D01*
X121425969Y-79351817D01*
X121439054Y-79345628D01*
X121452683Y-79340751D01*
X121466724Y-79337234D01*
X121481042Y-79335110D01*
X121495500Y-79334400D01*
X121790500Y-79334400D01*
X121804958Y-79335110D01*
X121804958Y-79335110D01*
G37*
D11*
X121643000Y-79654400D03*
D10*
G36*
X120834958Y-79335110D02*
G01*
X120849276Y-79337234D01*
X120863317Y-79340751D01*
X120876946Y-79345628D01*
X120890031Y-79351817D01*
X120902447Y-79359258D01*
X120914073Y-79367881D01*
X120924798Y-79377602D01*
X120934519Y-79388327D01*
X120943142Y-79399953D01*
X120950583Y-79412369D01*
X120956772Y-79425454D01*
X120961649Y-79439083D01*
X120965166Y-79453124D01*
X120967290Y-79467442D01*
X120968000Y-79481900D01*
X120968000Y-79826900D01*
X120967290Y-79841358D01*
X120965166Y-79855676D01*
X120961649Y-79869717D01*
X120956772Y-79883346D01*
X120950583Y-79896431D01*
X120943142Y-79908847D01*
X120934519Y-79920473D01*
X120924798Y-79931198D01*
X120914073Y-79940919D01*
X120902447Y-79949542D01*
X120890031Y-79956983D01*
X120876946Y-79963172D01*
X120863317Y-79968049D01*
X120849276Y-79971566D01*
X120834958Y-79973690D01*
X120820500Y-79974400D01*
X120525500Y-79974400D01*
X120511042Y-79973690D01*
X120496724Y-79971566D01*
X120482683Y-79968049D01*
X120469054Y-79963172D01*
X120455969Y-79956983D01*
X120443553Y-79949542D01*
X120431927Y-79940919D01*
X120421202Y-79931198D01*
X120411481Y-79920473D01*
X120402858Y-79908847D01*
X120395417Y-79896431D01*
X120389228Y-79883346D01*
X120384351Y-79869717D01*
X120380834Y-79855676D01*
X120378710Y-79841358D01*
X120378000Y-79826900D01*
X120378000Y-79481900D01*
X120378710Y-79467442D01*
X120380834Y-79453124D01*
X120384351Y-79439083D01*
X120389228Y-79425454D01*
X120395417Y-79412369D01*
X120402858Y-79399953D01*
X120411481Y-79388327D01*
X120421202Y-79377602D01*
X120431927Y-79367881D01*
X120443553Y-79359258D01*
X120455969Y-79351817D01*
X120469054Y-79345628D01*
X120482683Y-79340751D01*
X120496724Y-79337234D01*
X120511042Y-79335110D01*
X120525500Y-79334400D01*
X120820500Y-79334400D01*
X120834958Y-79335110D01*
X120834958Y-79335110D01*
G37*
D11*
X120673000Y-79654400D03*
D10*
G36*
X110676958Y-83756710D02*
G01*
X110691276Y-83758834D01*
X110705317Y-83762351D01*
X110718946Y-83767228D01*
X110732031Y-83773417D01*
X110744447Y-83780858D01*
X110756073Y-83789481D01*
X110766798Y-83799202D01*
X110776519Y-83809927D01*
X110785142Y-83821553D01*
X110792583Y-83833969D01*
X110798772Y-83847054D01*
X110803649Y-83860683D01*
X110807166Y-83874724D01*
X110809290Y-83889042D01*
X110810000Y-83903500D01*
X110810000Y-84198500D01*
X110809290Y-84212958D01*
X110807166Y-84227276D01*
X110803649Y-84241317D01*
X110798772Y-84254946D01*
X110792583Y-84268031D01*
X110785142Y-84280447D01*
X110776519Y-84292073D01*
X110766798Y-84302798D01*
X110756073Y-84312519D01*
X110744447Y-84321142D01*
X110732031Y-84328583D01*
X110718946Y-84334772D01*
X110705317Y-84339649D01*
X110691276Y-84343166D01*
X110676958Y-84345290D01*
X110662500Y-84346000D01*
X110317500Y-84346000D01*
X110303042Y-84345290D01*
X110288724Y-84343166D01*
X110274683Y-84339649D01*
X110261054Y-84334772D01*
X110247969Y-84328583D01*
X110235553Y-84321142D01*
X110223927Y-84312519D01*
X110213202Y-84302798D01*
X110203481Y-84292073D01*
X110194858Y-84280447D01*
X110187417Y-84268031D01*
X110181228Y-84254946D01*
X110176351Y-84241317D01*
X110172834Y-84227276D01*
X110170710Y-84212958D01*
X110170000Y-84198500D01*
X110170000Y-83903500D01*
X110170710Y-83889042D01*
X110172834Y-83874724D01*
X110176351Y-83860683D01*
X110181228Y-83847054D01*
X110187417Y-83833969D01*
X110194858Y-83821553D01*
X110203481Y-83809927D01*
X110213202Y-83799202D01*
X110223927Y-83789481D01*
X110235553Y-83780858D01*
X110247969Y-83773417D01*
X110261054Y-83767228D01*
X110274683Y-83762351D01*
X110288724Y-83758834D01*
X110303042Y-83756710D01*
X110317500Y-83756000D01*
X110662500Y-83756000D01*
X110676958Y-83756710D01*
X110676958Y-83756710D01*
G37*
D11*
X110490000Y-84051000D03*
D10*
G36*
X110676958Y-82786710D02*
G01*
X110691276Y-82788834D01*
X110705317Y-82792351D01*
X110718946Y-82797228D01*
X110732031Y-82803417D01*
X110744447Y-82810858D01*
X110756073Y-82819481D01*
X110766798Y-82829202D01*
X110776519Y-82839927D01*
X110785142Y-82851553D01*
X110792583Y-82863969D01*
X110798772Y-82877054D01*
X110803649Y-82890683D01*
X110807166Y-82904724D01*
X110809290Y-82919042D01*
X110810000Y-82933500D01*
X110810000Y-83228500D01*
X110809290Y-83242958D01*
X110807166Y-83257276D01*
X110803649Y-83271317D01*
X110798772Y-83284946D01*
X110792583Y-83298031D01*
X110785142Y-83310447D01*
X110776519Y-83322073D01*
X110766798Y-83332798D01*
X110756073Y-83342519D01*
X110744447Y-83351142D01*
X110732031Y-83358583D01*
X110718946Y-83364772D01*
X110705317Y-83369649D01*
X110691276Y-83373166D01*
X110676958Y-83375290D01*
X110662500Y-83376000D01*
X110317500Y-83376000D01*
X110303042Y-83375290D01*
X110288724Y-83373166D01*
X110274683Y-83369649D01*
X110261054Y-83364772D01*
X110247969Y-83358583D01*
X110235553Y-83351142D01*
X110223927Y-83342519D01*
X110213202Y-83332798D01*
X110203481Y-83322073D01*
X110194858Y-83310447D01*
X110187417Y-83298031D01*
X110181228Y-83284946D01*
X110176351Y-83271317D01*
X110172834Y-83257276D01*
X110170710Y-83242958D01*
X110170000Y-83228500D01*
X110170000Y-82933500D01*
X110170710Y-82919042D01*
X110172834Y-82904724D01*
X110176351Y-82890683D01*
X110181228Y-82877054D01*
X110187417Y-82863969D01*
X110194858Y-82851553D01*
X110203481Y-82839927D01*
X110213202Y-82829202D01*
X110223927Y-82819481D01*
X110235553Y-82810858D01*
X110247969Y-82803417D01*
X110261054Y-82797228D01*
X110274683Y-82792351D01*
X110288724Y-82788834D01*
X110303042Y-82786710D01*
X110317500Y-82786000D01*
X110662500Y-82786000D01*
X110676958Y-82786710D01*
X110676958Y-82786710D01*
G37*
D11*
X110490000Y-83081000D03*
D10*
G36*
X122358958Y-65212710D02*
G01*
X122373276Y-65214834D01*
X122387317Y-65218351D01*
X122400946Y-65223228D01*
X122414031Y-65229417D01*
X122426447Y-65236858D01*
X122438073Y-65245481D01*
X122448798Y-65255202D01*
X122458519Y-65265927D01*
X122467142Y-65277553D01*
X122474583Y-65289969D01*
X122480772Y-65303054D01*
X122485649Y-65316683D01*
X122489166Y-65330724D01*
X122491290Y-65345042D01*
X122492000Y-65359500D01*
X122492000Y-65704500D01*
X122491290Y-65718958D01*
X122489166Y-65733276D01*
X122485649Y-65747317D01*
X122480772Y-65760946D01*
X122474583Y-65774031D01*
X122467142Y-65786447D01*
X122458519Y-65798073D01*
X122448798Y-65808798D01*
X122438073Y-65818519D01*
X122426447Y-65827142D01*
X122414031Y-65834583D01*
X122400946Y-65840772D01*
X122387317Y-65845649D01*
X122373276Y-65849166D01*
X122358958Y-65851290D01*
X122344500Y-65852000D01*
X122049500Y-65852000D01*
X122035042Y-65851290D01*
X122020724Y-65849166D01*
X122006683Y-65845649D01*
X121993054Y-65840772D01*
X121979969Y-65834583D01*
X121967553Y-65827142D01*
X121955927Y-65818519D01*
X121945202Y-65808798D01*
X121935481Y-65798073D01*
X121926858Y-65786447D01*
X121919417Y-65774031D01*
X121913228Y-65760946D01*
X121908351Y-65747317D01*
X121904834Y-65733276D01*
X121902710Y-65718958D01*
X121902000Y-65704500D01*
X121902000Y-65359500D01*
X121902710Y-65345042D01*
X121904834Y-65330724D01*
X121908351Y-65316683D01*
X121913228Y-65303054D01*
X121919417Y-65289969D01*
X121926858Y-65277553D01*
X121935481Y-65265927D01*
X121945202Y-65255202D01*
X121955927Y-65245481D01*
X121967553Y-65236858D01*
X121979969Y-65229417D01*
X121993054Y-65223228D01*
X122006683Y-65218351D01*
X122020724Y-65214834D01*
X122035042Y-65212710D01*
X122049500Y-65212000D01*
X122344500Y-65212000D01*
X122358958Y-65212710D01*
X122358958Y-65212710D01*
G37*
D11*
X122197000Y-65532000D03*
D10*
G36*
X123328958Y-65212710D02*
G01*
X123343276Y-65214834D01*
X123357317Y-65218351D01*
X123370946Y-65223228D01*
X123384031Y-65229417D01*
X123396447Y-65236858D01*
X123408073Y-65245481D01*
X123418798Y-65255202D01*
X123428519Y-65265927D01*
X123437142Y-65277553D01*
X123444583Y-65289969D01*
X123450772Y-65303054D01*
X123455649Y-65316683D01*
X123459166Y-65330724D01*
X123461290Y-65345042D01*
X123462000Y-65359500D01*
X123462000Y-65704500D01*
X123461290Y-65718958D01*
X123459166Y-65733276D01*
X123455649Y-65747317D01*
X123450772Y-65760946D01*
X123444583Y-65774031D01*
X123437142Y-65786447D01*
X123428519Y-65798073D01*
X123418798Y-65808798D01*
X123408073Y-65818519D01*
X123396447Y-65827142D01*
X123384031Y-65834583D01*
X123370946Y-65840772D01*
X123357317Y-65845649D01*
X123343276Y-65849166D01*
X123328958Y-65851290D01*
X123314500Y-65852000D01*
X123019500Y-65852000D01*
X123005042Y-65851290D01*
X122990724Y-65849166D01*
X122976683Y-65845649D01*
X122963054Y-65840772D01*
X122949969Y-65834583D01*
X122937553Y-65827142D01*
X122925927Y-65818519D01*
X122915202Y-65808798D01*
X122905481Y-65798073D01*
X122896858Y-65786447D01*
X122889417Y-65774031D01*
X122883228Y-65760946D01*
X122878351Y-65747317D01*
X122874834Y-65733276D01*
X122872710Y-65718958D01*
X122872000Y-65704500D01*
X122872000Y-65359500D01*
X122872710Y-65345042D01*
X122874834Y-65330724D01*
X122878351Y-65316683D01*
X122883228Y-65303054D01*
X122889417Y-65289969D01*
X122896858Y-65277553D01*
X122905481Y-65265927D01*
X122915202Y-65255202D01*
X122925927Y-65245481D01*
X122937553Y-65236858D01*
X122949969Y-65229417D01*
X122963054Y-65223228D01*
X122976683Y-65218351D01*
X122990724Y-65214834D01*
X123005042Y-65212710D01*
X123019500Y-65212000D01*
X123314500Y-65212000D01*
X123328958Y-65212710D01*
X123328958Y-65212710D01*
G37*
D11*
X123167000Y-65532000D03*
D10*
G36*
X120328958Y-67500710D02*
G01*
X120343276Y-67502834D01*
X120357317Y-67506351D01*
X120370946Y-67511228D01*
X120384031Y-67517417D01*
X120396447Y-67524858D01*
X120408073Y-67533481D01*
X120418798Y-67543202D01*
X120428519Y-67553927D01*
X120437142Y-67565553D01*
X120444583Y-67577969D01*
X120450772Y-67591054D01*
X120455649Y-67604683D01*
X120459166Y-67618724D01*
X120461290Y-67633042D01*
X120462000Y-67647500D01*
X120462000Y-67942500D01*
X120461290Y-67956958D01*
X120459166Y-67971276D01*
X120455649Y-67985317D01*
X120450772Y-67998946D01*
X120444583Y-68012031D01*
X120437142Y-68024447D01*
X120428519Y-68036073D01*
X120418798Y-68046798D01*
X120408073Y-68056519D01*
X120396447Y-68065142D01*
X120384031Y-68072583D01*
X120370946Y-68078772D01*
X120357317Y-68083649D01*
X120343276Y-68087166D01*
X120328958Y-68089290D01*
X120314500Y-68090000D01*
X119969500Y-68090000D01*
X119955042Y-68089290D01*
X119940724Y-68087166D01*
X119926683Y-68083649D01*
X119913054Y-68078772D01*
X119899969Y-68072583D01*
X119887553Y-68065142D01*
X119875927Y-68056519D01*
X119865202Y-68046798D01*
X119855481Y-68036073D01*
X119846858Y-68024447D01*
X119839417Y-68012031D01*
X119833228Y-67998946D01*
X119828351Y-67985317D01*
X119824834Y-67971276D01*
X119822710Y-67956958D01*
X119822000Y-67942500D01*
X119822000Y-67647500D01*
X119822710Y-67633042D01*
X119824834Y-67618724D01*
X119828351Y-67604683D01*
X119833228Y-67591054D01*
X119839417Y-67577969D01*
X119846858Y-67565553D01*
X119855481Y-67553927D01*
X119865202Y-67543202D01*
X119875927Y-67533481D01*
X119887553Y-67524858D01*
X119899969Y-67517417D01*
X119913054Y-67511228D01*
X119926683Y-67506351D01*
X119940724Y-67502834D01*
X119955042Y-67500710D01*
X119969500Y-67500000D01*
X120314500Y-67500000D01*
X120328958Y-67500710D01*
X120328958Y-67500710D01*
G37*
D11*
X120142000Y-67795000D03*
D10*
G36*
X120328958Y-66530710D02*
G01*
X120343276Y-66532834D01*
X120357317Y-66536351D01*
X120370946Y-66541228D01*
X120384031Y-66547417D01*
X120396447Y-66554858D01*
X120408073Y-66563481D01*
X120418798Y-66573202D01*
X120428519Y-66583927D01*
X120437142Y-66595553D01*
X120444583Y-66607969D01*
X120450772Y-66621054D01*
X120455649Y-66634683D01*
X120459166Y-66648724D01*
X120461290Y-66663042D01*
X120462000Y-66677500D01*
X120462000Y-66972500D01*
X120461290Y-66986958D01*
X120459166Y-67001276D01*
X120455649Y-67015317D01*
X120450772Y-67028946D01*
X120444583Y-67042031D01*
X120437142Y-67054447D01*
X120428519Y-67066073D01*
X120418798Y-67076798D01*
X120408073Y-67086519D01*
X120396447Y-67095142D01*
X120384031Y-67102583D01*
X120370946Y-67108772D01*
X120357317Y-67113649D01*
X120343276Y-67117166D01*
X120328958Y-67119290D01*
X120314500Y-67120000D01*
X119969500Y-67120000D01*
X119955042Y-67119290D01*
X119940724Y-67117166D01*
X119926683Y-67113649D01*
X119913054Y-67108772D01*
X119899969Y-67102583D01*
X119887553Y-67095142D01*
X119875927Y-67086519D01*
X119865202Y-67076798D01*
X119855481Y-67066073D01*
X119846858Y-67054447D01*
X119839417Y-67042031D01*
X119833228Y-67028946D01*
X119828351Y-67015317D01*
X119824834Y-67001276D01*
X119822710Y-66986958D01*
X119822000Y-66972500D01*
X119822000Y-66677500D01*
X119822710Y-66663042D01*
X119824834Y-66648724D01*
X119828351Y-66634683D01*
X119833228Y-66621054D01*
X119839417Y-66607969D01*
X119846858Y-66595553D01*
X119855481Y-66583927D01*
X119865202Y-66573202D01*
X119875927Y-66563481D01*
X119887553Y-66554858D01*
X119899969Y-66547417D01*
X119913054Y-66541228D01*
X119926683Y-66536351D01*
X119940724Y-66532834D01*
X119955042Y-66530710D01*
X119969500Y-66530000D01*
X120314500Y-66530000D01*
X120328958Y-66530710D01*
X120328958Y-66530710D01*
G37*
D11*
X120142000Y-66825000D03*
D10*
G36*
X105396191Y-67979053D02*
G01*
X105417426Y-67982203D01*
X105438250Y-67987419D01*
X105458462Y-67994651D01*
X105477868Y-68003830D01*
X105496281Y-68014866D01*
X105513524Y-68027654D01*
X105529430Y-68042070D01*
X105543846Y-68057976D01*
X105556634Y-68075219D01*
X105567670Y-68093632D01*
X105576849Y-68113038D01*
X105584081Y-68133250D01*
X105589297Y-68154074D01*
X105592447Y-68175309D01*
X105593500Y-68196750D01*
X105593500Y-68709250D01*
X105592447Y-68730691D01*
X105589297Y-68751926D01*
X105584081Y-68772750D01*
X105576849Y-68792962D01*
X105567670Y-68812368D01*
X105556634Y-68830781D01*
X105543846Y-68848024D01*
X105529430Y-68863930D01*
X105513524Y-68878346D01*
X105496281Y-68891134D01*
X105477868Y-68902170D01*
X105458462Y-68911349D01*
X105438250Y-68918581D01*
X105417426Y-68923797D01*
X105396191Y-68926947D01*
X105374750Y-68928000D01*
X104937250Y-68928000D01*
X104915809Y-68926947D01*
X104894574Y-68923797D01*
X104873750Y-68918581D01*
X104853538Y-68911349D01*
X104834132Y-68902170D01*
X104815719Y-68891134D01*
X104798476Y-68878346D01*
X104782570Y-68863930D01*
X104768154Y-68848024D01*
X104755366Y-68830781D01*
X104744330Y-68812368D01*
X104735151Y-68792962D01*
X104727919Y-68772750D01*
X104722703Y-68751926D01*
X104719553Y-68730691D01*
X104718500Y-68709250D01*
X104718500Y-68196750D01*
X104719553Y-68175309D01*
X104722703Y-68154074D01*
X104727919Y-68133250D01*
X104735151Y-68113038D01*
X104744330Y-68093632D01*
X104755366Y-68075219D01*
X104768154Y-68057976D01*
X104782570Y-68042070D01*
X104798476Y-68027654D01*
X104815719Y-68014866D01*
X104834132Y-68003830D01*
X104853538Y-67994651D01*
X104873750Y-67987419D01*
X104894574Y-67982203D01*
X104915809Y-67979053D01*
X104937250Y-67978000D01*
X105374750Y-67978000D01*
X105396191Y-67979053D01*
X105396191Y-67979053D01*
G37*
D22*
X105156000Y-68453000D03*
D10*
G36*
X103821191Y-67979053D02*
G01*
X103842426Y-67982203D01*
X103863250Y-67987419D01*
X103883462Y-67994651D01*
X103902868Y-68003830D01*
X103921281Y-68014866D01*
X103938524Y-68027654D01*
X103954430Y-68042070D01*
X103968846Y-68057976D01*
X103981634Y-68075219D01*
X103992670Y-68093632D01*
X104001849Y-68113038D01*
X104009081Y-68133250D01*
X104014297Y-68154074D01*
X104017447Y-68175309D01*
X104018500Y-68196750D01*
X104018500Y-68709250D01*
X104017447Y-68730691D01*
X104014297Y-68751926D01*
X104009081Y-68772750D01*
X104001849Y-68792962D01*
X103992670Y-68812368D01*
X103981634Y-68830781D01*
X103968846Y-68848024D01*
X103954430Y-68863930D01*
X103938524Y-68878346D01*
X103921281Y-68891134D01*
X103902868Y-68902170D01*
X103883462Y-68911349D01*
X103863250Y-68918581D01*
X103842426Y-68923797D01*
X103821191Y-68926947D01*
X103799750Y-68928000D01*
X103362250Y-68928000D01*
X103340809Y-68926947D01*
X103319574Y-68923797D01*
X103298750Y-68918581D01*
X103278538Y-68911349D01*
X103259132Y-68902170D01*
X103240719Y-68891134D01*
X103223476Y-68878346D01*
X103207570Y-68863930D01*
X103193154Y-68848024D01*
X103180366Y-68830781D01*
X103169330Y-68812368D01*
X103160151Y-68792962D01*
X103152919Y-68772750D01*
X103147703Y-68751926D01*
X103144553Y-68730691D01*
X103143500Y-68709250D01*
X103143500Y-68196750D01*
X103144553Y-68175309D01*
X103147703Y-68154074D01*
X103152919Y-68133250D01*
X103160151Y-68113038D01*
X103169330Y-68093632D01*
X103180366Y-68075219D01*
X103193154Y-68057976D01*
X103207570Y-68042070D01*
X103223476Y-68027654D01*
X103240719Y-68014866D01*
X103259132Y-68003830D01*
X103278538Y-67994651D01*
X103298750Y-67987419D01*
X103319574Y-67982203D01*
X103340809Y-67979053D01*
X103362250Y-67978000D01*
X103799750Y-67978000D01*
X103821191Y-67979053D01*
X103821191Y-67979053D01*
G37*
D22*
X103581000Y-68453000D03*
D10*
G36*
X105421691Y-70646053D02*
G01*
X105442926Y-70649203D01*
X105463750Y-70654419D01*
X105483962Y-70661651D01*
X105503368Y-70670830D01*
X105521781Y-70681866D01*
X105539024Y-70694654D01*
X105554930Y-70709070D01*
X105569346Y-70724976D01*
X105582134Y-70742219D01*
X105593170Y-70760632D01*
X105602349Y-70780038D01*
X105609581Y-70800250D01*
X105614797Y-70821074D01*
X105617947Y-70842309D01*
X105619000Y-70863750D01*
X105619000Y-71376250D01*
X105617947Y-71397691D01*
X105614797Y-71418926D01*
X105609581Y-71439750D01*
X105602349Y-71459962D01*
X105593170Y-71479368D01*
X105582134Y-71497781D01*
X105569346Y-71515024D01*
X105554930Y-71530930D01*
X105539024Y-71545346D01*
X105521781Y-71558134D01*
X105503368Y-71569170D01*
X105483962Y-71578349D01*
X105463750Y-71585581D01*
X105442926Y-71590797D01*
X105421691Y-71593947D01*
X105400250Y-71595000D01*
X104962750Y-71595000D01*
X104941309Y-71593947D01*
X104920074Y-71590797D01*
X104899250Y-71585581D01*
X104879038Y-71578349D01*
X104859632Y-71569170D01*
X104841219Y-71558134D01*
X104823976Y-71545346D01*
X104808070Y-71530930D01*
X104793654Y-71515024D01*
X104780866Y-71497781D01*
X104769830Y-71479368D01*
X104760651Y-71459962D01*
X104753419Y-71439750D01*
X104748203Y-71418926D01*
X104745053Y-71397691D01*
X104744000Y-71376250D01*
X104744000Y-70863750D01*
X104745053Y-70842309D01*
X104748203Y-70821074D01*
X104753419Y-70800250D01*
X104760651Y-70780038D01*
X104769830Y-70760632D01*
X104780866Y-70742219D01*
X104793654Y-70724976D01*
X104808070Y-70709070D01*
X104823976Y-70694654D01*
X104841219Y-70681866D01*
X104859632Y-70670830D01*
X104879038Y-70661651D01*
X104899250Y-70654419D01*
X104920074Y-70649203D01*
X104941309Y-70646053D01*
X104962750Y-70645000D01*
X105400250Y-70645000D01*
X105421691Y-70646053D01*
X105421691Y-70646053D01*
G37*
D22*
X105181500Y-71120000D03*
D10*
G36*
X103846691Y-70646053D02*
G01*
X103867926Y-70649203D01*
X103888750Y-70654419D01*
X103908962Y-70661651D01*
X103928368Y-70670830D01*
X103946781Y-70681866D01*
X103964024Y-70694654D01*
X103979930Y-70709070D01*
X103994346Y-70724976D01*
X104007134Y-70742219D01*
X104018170Y-70760632D01*
X104027349Y-70780038D01*
X104034581Y-70800250D01*
X104039797Y-70821074D01*
X104042947Y-70842309D01*
X104044000Y-70863750D01*
X104044000Y-71376250D01*
X104042947Y-71397691D01*
X104039797Y-71418926D01*
X104034581Y-71439750D01*
X104027349Y-71459962D01*
X104018170Y-71479368D01*
X104007134Y-71497781D01*
X103994346Y-71515024D01*
X103979930Y-71530930D01*
X103964024Y-71545346D01*
X103946781Y-71558134D01*
X103928368Y-71569170D01*
X103908962Y-71578349D01*
X103888750Y-71585581D01*
X103867926Y-71590797D01*
X103846691Y-71593947D01*
X103825250Y-71595000D01*
X103387750Y-71595000D01*
X103366309Y-71593947D01*
X103345074Y-71590797D01*
X103324250Y-71585581D01*
X103304038Y-71578349D01*
X103284632Y-71569170D01*
X103266219Y-71558134D01*
X103248976Y-71545346D01*
X103233070Y-71530930D01*
X103218654Y-71515024D01*
X103205866Y-71497781D01*
X103194830Y-71479368D01*
X103185651Y-71459962D01*
X103178419Y-71439750D01*
X103173203Y-71418926D01*
X103170053Y-71397691D01*
X103169000Y-71376250D01*
X103169000Y-70863750D01*
X103170053Y-70842309D01*
X103173203Y-70821074D01*
X103178419Y-70800250D01*
X103185651Y-70780038D01*
X103194830Y-70760632D01*
X103205866Y-70742219D01*
X103218654Y-70724976D01*
X103233070Y-70709070D01*
X103248976Y-70694654D01*
X103266219Y-70681866D01*
X103284632Y-70670830D01*
X103304038Y-70661651D01*
X103324250Y-70654419D01*
X103345074Y-70649203D01*
X103366309Y-70646053D01*
X103387750Y-70645000D01*
X103825250Y-70645000D01*
X103846691Y-70646053D01*
X103846691Y-70646053D01*
G37*
D22*
X103606500Y-71120000D03*
D23*
X116860500Y-76324500D03*
X116860500Y-74424500D03*
X114660500Y-74424500D03*
D24*
X114660500Y-76144500D03*
D10*
G36*
X64551958Y-68730710D02*
G01*
X64566276Y-68732834D01*
X64580317Y-68736351D01*
X64593946Y-68741228D01*
X64607031Y-68747417D01*
X64619447Y-68754858D01*
X64631073Y-68763481D01*
X64641798Y-68773202D01*
X64651519Y-68783927D01*
X64660142Y-68795553D01*
X64667583Y-68807969D01*
X64673772Y-68821054D01*
X64678649Y-68834683D01*
X64682166Y-68848724D01*
X64684290Y-68863042D01*
X64685000Y-68877500D01*
X64685000Y-69222500D01*
X64684290Y-69236958D01*
X64682166Y-69251276D01*
X64678649Y-69265317D01*
X64673772Y-69278946D01*
X64667583Y-69292031D01*
X64660142Y-69304447D01*
X64651519Y-69316073D01*
X64641798Y-69326798D01*
X64631073Y-69336519D01*
X64619447Y-69345142D01*
X64607031Y-69352583D01*
X64593946Y-69358772D01*
X64580317Y-69363649D01*
X64566276Y-69367166D01*
X64551958Y-69369290D01*
X64537500Y-69370000D01*
X64242500Y-69370000D01*
X64228042Y-69369290D01*
X64213724Y-69367166D01*
X64199683Y-69363649D01*
X64186054Y-69358772D01*
X64172969Y-69352583D01*
X64160553Y-69345142D01*
X64148927Y-69336519D01*
X64138202Y-69326798D01*
X64128481Y-69316073D01*
X64119858Y-69304447D01*
X64112417Y-69292031D01*
X64106228Y-69278946D01*
X64101351Y-69265317D01*
X64097834Y-69251276D01*
X64095710Y-69236958D01*
X64095000Y-69222500D01*
X64095000Y-68877500D01*
X64095710Y-68863042D01*
X64097834Y-68848724D01*
X64101351Y-68834683D01*
X64106228Y-68821054D01*
X64112417Y-68807969D01*
X64119858Y-68795553D01*
X64128481Y-68783927D01*
X64138202Y-68773202D01*
X64148927Y-68763481D01*
X64160553Y-68754858D01*
X64172969Y-68747417D01*
X64186054Y-68741228D01*
X64199683Y-68736351D01*
X64213724Y-68732834D01*
X64228042Y-68730710D01*
X64242500Y-68730000D01*
X64537500Y-68730000D01*
X64551958Y-68730710D01*
X64551958Y-68730710D01*
G37*
D11*
X64390000Y-69050000D03*
D10*
G36*
X65521958Y-68730710D02*
G01*
X65536276Y-68732834D01*
X65550317Y-68736351D01*
X65563946Y-68741228D01*
X65577031Y-68747417D01*
X65589447Y-68754858D01*
X65601073Y-68763481D01*
X65611798Y-68773202D01*
X65621519Y-68783927D01*
X65630142Y-68795553D01*
X65637583Y-68807969D01*
X65643772Y-68821054D01*
X65648649Y-68834683D01*
X65652166Y-68848724D01*
X65654290Y-68863042D01*
X65655000Y-68877500D01*
X65655000Y-69222500D01*
X65654290Y-69236958D01*
X65652166Y-69251276D01*
X65648649Y-69265317D01*
X65643772Y-69278946D01*
X65637583Y-69292031D01*
X65630142Y-69304447D01*
X65621519Y-69316073D01*
X65611798Y-69326798D01*
X65601073Y-69336519D01*
X65589447Y-69345142D01*
X65577031Y-69352583D01*
X65563946Y-69358772D01*
X65550317Y-69363649D01*
X65536276Y-69367166D01*
X65521958Y-69369290D01*
X65507500Y-69370000D01*
X65212500Y-69370000D01*
X65198042Y-69369290D01*
X65183724Y-69367166D01*
X65169683Y-69363649D01*
X65156054Y-69358772D01*
X65142969Y-69352583D01*
X65130553Y-69345142D01*
X65118927Y-69336519D01*
X65108202Y-69326798D01*
X65098481Y-69316073D01*
X65089858Y-69304447D01*
X65082417Y-69292031D01*
X65076228Y-69278946D01*
X65071351Y-69265317D01*
X65067834Y-69251276D01*
X65065710Y-69236958D01*
X65065000Y-69222500D01*
X65065000Y-68877500D01*
X65065710Y-68863042D01*
X65067834Y-68848724D01*
X65071351Y-68834683D01*
X65076228Y-68821054D01*
X65082417Y-68807969D01*
X65089858Y-68795553D01*
X65098481Y-68783927D01*
X65108202Y-68773202D01*
X65118927Y-68763481D01*
X65130553Y-68754858D01*
X65142969Y-68747417D01*
X65156054Y-68741228D01*
X65169683Y-68736351D01*
X65183724Y-68732834D01*
X65198042Y-68730710D01*
X65212500Y-68730000D01*
X65507500Y-68730000D01*
X65521958Y-68730710D01*
X65521958Y-68730710D01*
G37*
D11*
X65360000Y-69050000D03*
D10*
G36*
X69351433Y-82011883D02*
G01*
X69365751Y-82014007D01*
X69379792Y-82017524D01*
X69393421Y-82022401D01*
X69406506Y-82028590D01*
X69418922Y-82036031D01*
X69430548Y-82044654D01*
X69441273Y-82054375D01*
X69685225Y-82298327D01*
X69694946Y-82309052D01*
X69703569Y-82320678D01*
X69711010Y-82333094D01*
X69717199Y-82346179D01*
X69722076Y-82359808D01*
X69725593Y-82373849D01*
X69727717Y-82388167D01*
X69728427Y-82402625D01*
X69727717Y-82417083D01*
X69725593Y-82431401D01*
X69722076Y-82445442D01*
X69717199Y-82459071D01*
X69711010Y-82472156D01*
X69703569Y-82484572D01*
X69694946Y-82496198D01*
X69685225Y-82506923D01*
X69476629Y-82715519D01*
X69465904Y-82725240D01*
X69454278Y-82733863D01*
X69441862Y-82741304D01*
X69428777Y-82747493D01*
X69415148Y-82752370D01*
X69401107Y-82755887D01*
X69386789Y-82758011D01*
X69372331Y-82758721D01*
X69357873Y-82758011D01*
X69343555Y-82755887D01*
X69329514Y-82752370D01*
X69315885Y-82747493D01*
X69302800Y-82741304D01*
X69290384Y-82733863D01*
X69278758Y-82725240D01*
X69268033Y-82715519D01*
X69024081Y-82471567D01*
X69014360Y-82460842D01*
X69005737Y-82449216D01*
X68998296Y-82436800D01*
X68992107Y-82423715D01*
X68987230Y-82410086D01*
X68983713Y-82396045D01*
X68981589Y-82381727D01*
X68980879Y-82367269D01*
X68981589Y-82352811D01*
X68983713Y-82338493D01*
X68987230Y-82324452D01*
X68992107Y-82310823D01*
X68998296Y-82297738D01*
X69005737Y-82285322D01*
X69014360Y-82273696D01*
X69024081Y-82262971D01*
X69232677Y-82054375D01*
X69243402Y-82044654D01*
X69255028Y-82036031D01*
X69267444Y-82028590D01*
X69280529Y-82022401D01*
X69294158Y-82017524D01*
X69308199Y-82014007D01*
X69322517Y-82011883D01*
X69336975Y-82011173D01*
X69351433Y-82011883D01*
X69351433Y-82011883D01*
G37*
D11*
X69354653Y-82384947D03*
D10*
G36*
X70037327Y-81325989D02*
G01*
X70051645Y-81328113D01*
X70065686Y-81331630D01*
X70079315Y-81336507D01*
X70092400Y-81342696D01*
X70104816Y-81350137D01*
X70116442Y-81358760D01*
X70127167Y-81368481D01*
X70371119Y-81612433D01*
X70380840Y-81623158D01*
X70389463Y-81634784D01*
X70396904Y-81647200D01*
X70403093Y-81660285D01*
X70407970Y-81673914D01*
X70411487Y-81687955D01*
X70413611Y-81702273D01*
X70414321Y-81716731D01*
X70413611Y-81731189D01*
X70411487Y-81745507D01*
X70407970Y-81759548D01*
X70403093Y-81773177D01*
X70396904Y-81786262D01*
X70389463Y-81798678D01*
X70380840Y-81810304D01*
X70371119Y-81821029D01*
X70162523Y-82029625D01*
X70151798Y-82039346D01*
X70140172Y-82047969D01*
X70127756Y-82055410D01*
X70114671Y-82061599D01*
X70101042Y-82066476D01*
X70087001Y-82069993D01*
X70072683Y-82072117D01*
X70058225Y-82072827D01*
X70043767Y-82072117D01*
X70029449Y-82069993D01*
X70015408Y-82066476D01*
X70001779Y-82061599D01*
X69988694Y-82055410D01*
X69976278Y-82047969D01*
X69964652Y-82039346D01*
X69953927Y-82029625D01*
X69709975Y-81785673D01*
X69700254Y-81774948D01*
X69691631Y-81763322D01*
X69684190Y-81750906D01*
X69678001Y-81737821D01*
X69673124Y-81724192D01*
X69669607Y-81710151D01*
X69667483Y-81695833D01*
X69666773Y-81681375D01*
X69667483Y-81666917D01*
X69669607Y-81652599D01*
X69673124Y-81638558D01*
X69678001Y-81624929D01*
X69684190Y-81611844D01*
X69691631Y-81599428D01*
X69700254Y-81587802D01*
X69709975Y-81577077D01*
X69918571Y-81368481D01*
X69929296Y-81358760D01*
X69940922Y-81350137D01*
X69953338Y-81342696D01*
X69966423Y-81336507D01*
X69980052Y-81331630D01*
X69994093Y-81328113D01*
X70008411Y-81325989D01*
X70022869Y-81325279D01*
X70037327Y-81325989D01*
X70037327Y-81325989D01*
G37*
D11*
X70040547Y-81699053D03*
D10*
G36*
X64551958Y-69805710D02*
G01*
X64566276Y-69807834D01*
X64580317Y-69811351D01*
X64593946Y-69816228D01*
X64607031Y-69822417D01*
X64619447Y-69829858D01*
X64631073Y-69838481D01*
X64641798Y-69848202D01*
X64651519Y-69858927D01*
X64660142Y-69870553D01*
X64667583Y-69882969D01*
X64673772Y-69896054D01*
X64678649Y-69909683D01*
X64682166Y-69923724D01*
X64684290Y-69938042D01*
X64685000Y-69952500D01*
X64685000Y-70297500D01*
X64684290Y-70311958D01*
X64682166Y-70326276D01*
X64678649Y-70340317D01*
X64673772Y-70353946D01*
X64667583Y-70367031D01*
X64660142Y-70379447D01*
X64651519Y-70391073D01*
X64641798Y-70401798D01*
X64631073Y-70411519D01*
X64619447Y-70420142D01*
X64607031Y-70427583D01*
X64593946Y-70433772D01*
X64580317Y-70438649D01*
X64566276Y-70442166D01*
X64551958Y-70444290D01*
X64537500Y-70445000D01*
X64242500Y-70445000D01*
X64228042Y-70444290D01*
X64213724Y-70442166D01*
X64199683Y-70438649D01*
X64186054Y-70433772D01*
X64172969Y-70427583D01*
X64160553Y-70420142D01*
X64148927Y-70411519D01*
X64138202Y-70401798D01*
X64128481Y-70391073D01*
X64119858Y-70379447D01*
X64112417Y-70367031D01*
X64106228Y-70353946D01*
X64101351Y-70340317D01*
X64097834Y-70326276D01*
X64095710Y-70311958D01*
X64095000Y-70297500D01*
X64095000Y-69952500D01*
X64095710Y-69938042D01*
X64097834Y-69923724D01*
X64101351Y-69909683D01*
X64106228Y-69896054D01*
X64112417Y-69882969D01*
X64119858Y-69870553D01*
X64128481Y-69858927D01*
X64138202Y-69848202D01*
X64148927Y-69838481D01*
X64160553Y-69829858D01*
X64172969Y-69822417D01*
X64186054Y-69816228D01*
X64199683Y-69811351D01*
X64213724Y-69807834D01*
X64228042Y-69805710D01*
X64242500Y-69805000D01*
X64537500Y-69805000D01*
X64551958Y-69805710D01*
X64551958Y-69805710D01*
G37*
D11*
X64390000Y-70125000D03*
D10*
G36*
X65521958Y-69805710D02*
G01*
X65536276Y-69807834D01*
X65550317Y-69811351D01*
X65563946Y-69816228D01*
X65577031Y-69822417D01*
X65589447Y-69829858D01*
X65601073Y-69838481D01*
X65611798Y-69848202D01*
X65621519Y-69858927D01*
X65630142Y-69870553D01*
X65637583Y-69882969D01*
X65643772Y-69896054D01*
X65648649Y-69909683D01*
X65652166Y-69923724D01*
X65654290Y-69938042D01*
X65655000Y-69952500D01*
X65655000Y-70297500D01*
X65654290Y-70311958D01*
X65652166Y-70326276D01*
X65648649Y-70340317D01*
X65643772Y-70353946D01*
X65637583Y-70367031D01*
X65630142Y-70379447D01*
X65621519Y-70391073D01*
X65611798Y-70401798D01*
X65601073Y-70411519D01*
X65589447Y-70420142D01*
X65577031Y-70427583D01*
X65563946Y-70433772D01*
X65550317Y-70438649D01*
X65536276Y-70442166D01*
X65521958Y-70444290D01*
X65507500Y-70445000D01*
X65212500Y-70445000D01*
X65198042Y-70444290D01*
X65183724Y-70442166D01*
X65169683Y-70438649D01*
X65156054Y-70433772D01*
X65142969Y-70427583D01*
X65130553Y-70420142D01*
X65118927Y-70411519D01*
X65108202Y-70401798D01*
X65098481Y-70391073D01*
X65089858Y-70379447D01*
X65082417Y-70367031D01*
X65076228Y-70353946D01*
X65071351Y-70340317D01*
X65067834Y-70326276D01*
X65065710Y-70311958D01*
X65065000Y-70297500D01*
X65065000Y-69952500D01*
X65065710Y-69938042D01*
X65067834Y-69923724D01*
X65071351Y-69909683D01*
X65076228Y-69896054D01*
X65082417Y-69882969D01*
X65089858Y-69870553D01*
X65098481Y-69858927D01*
X65108202Y-69848202D01*
X65118927Y-69838481D01*
X65130553Y-69829858D01*
X65142969Y-69822417D01*
X65156054Y-69816228D01*
X65169683Y-69811351D01*
X65183724Y-69807834D01*
X65198042Y-69805710D01*
X65212500Y-69805000D01*
X65507500Y-69805000D01*
X65521958Y-69805710D01*
X65521958Y-69805710D01*
G37*
D11*
X65360000Y-70125000D03*
D10*
G36*
X60700458Y-73493110D02*
G01*
X60714776Y-73495234D01*
X60728817Y-73498751D01*
X60742446Y-73503628D01*
X60755531Y-73509817D01*
X60767947Y-73517258D01*
X60779573Y-73525881D01*
X60790298Y-73535602D01*
X60800019Y-73546327D01*
X60808642Y-73557953D01*
X60816083Y-73570369D01*
X60822272Y-73583454D01*
X60827149Y-73597083D01*
X60830666Y-73611124D01*
X60832790Y-73625442D01*
X60833500Y-73639900D01*
X60833500Y-73984900D01*
X60832790Y-73999358D01*
X60830666Y-74013676D01*
X60827149Y-74027717D01*
X60822272Y-74041346D01*
X60816083Y-74054431D01*
X60808642Y-74066847D01*
X60800019Y-74078473D01*
X60790298Y-74089198D01*
X60779573Y-74098919D01*
X60767947Y-74107542D01*
X60755531Y-74114983D01*
X60742446Y-74121172D01*
X60728817Y-74126049D01*
X60714776Y-74129566D01*
X60700458Y-74131690D01*
X60686000Y-74132400D01*
X60391000Y-74132400D01*
X60376542Y-74131690D01*
X60362224Y-74129566D01*
X60348183Y-74126049D01*
X60334554Y-74121172D01*
X60321469Y-74114983D01*
X60309053Y-74107542D01*
X60297427Y-74098919D01*
X60286702Y-74089198D01*
X60276981Y-74078473D01*
X60268358Y-74066847D01*
X60260917Y-74054431D01*
X60254728Y-74041346D01*
X60249851Y-74027717D01*
X60246334Y-74013676D01*
X60244210Y-73999358D01*
X60243500Y-73984900D01*
X60243500Y-73639900D01*
X60244210Y-73625442D01*
X60246334Y-73611124D01*
X60249851Y-73597083D01*
X60254728Y-73583454D01*
X60260917Y-73570369D01*
X60268358Y-73557953D01*
X60276981Y-73546327D01*
X60286702Y-73535602D01*
X60297427Y-73525881D01*
X60309053Y-73517258D01*
X60321469Y-73509817D01*
X60334554Y-73503628D01*
X60348183Y-73498751D01*
X60362224Y-73495234D01*
X60376542Y-73493110D01*
X60391000Y-73492400D01*
X60686000Y-73492400D01*
X60700458Y-73493110D01*
X60700458Y-73493110D01*
G37*
D11*
X60538500Y-73812400D03*
D10*
G36*
X61670458Y-73493110D02*
G01*
X61684776Y-73495234D01*
X61698817Y-73498751D01*
X61712446Y-73503628D01*
X61725531Y-73509817D01*
X61737947Y-73517258D01*
X61749573Y-73525881D01*
X61760298Y-73535602D01*
X61770019Y-73546327D01*
X61778642Y-73557953D01*
X61786083Y-73570369D01*
X61792272Y-73583454D01*
X61797149Y-73597083D01*
X61800666Y-73611124D01*
X61802790Y-73625442D01*
X61803500Y-73639900D01*
X61803500Y-73984900D01*
X61802790Y-73999358D01*
X61800666Y-74013676D01*
X61797149Y-74027717D01*
X61792272Y-74041346D01*
X61786083Y-74054431D01*
X61778642Y-74066847D01*
X61770019Y-74078473D01*
X61760298Y-74089198D01*
X61749573Y-74098919D01*
X61737947Y-74107542D01*
X61725531Y-74114983D01*
X61712446Y-74121172D01*
X61698817Y-74126049D01*
X61684776Y-74129566D01*
X61670458Y-74131690D01*
X61656000Y-74132400D01*
X61361000Y-74132400D01*
X61346542Y-74131690D01*
X61332224Y-74129566D01*
X61318183Y-74126049D01*
X61304554Y-74121172D01*
X61291469Y-74114983D01*
X61279053Y-74107542D01*
X61267427Y-74098919D01*
X61256702Y-74089198D01*
X61246981Y-74078473D01*
X61238358Y-74066847D01*
X61230917Y-74054431D01*
X61224728Y-74041346D01*
X61219851Y-74027717D01*
X61216334Y-74013676D01*
X61214210Y-73999358D01*
X61213500Y-73984900D01*
X61213500Y-73639900D01*
X61214210Y-73625442D01*
X61216334Y-73611124D01*
X61219851Y-73597083D01*
X61224728Y-73583454D01*
X61230917Y-73570369D01*
X61238358Y-73557953D01*
X61246981Y-73546327D01*
X61256702Y-73535602D01*
X61267427Y-73525881D01*
X61279053Y-73517258D01*
X61291469Y-73509817D01*
X61304554Y-73503628D01*
X61318183Y-73498751D01*
X61332224Y-73495234D01*
X61346542Y-73493110D01*
X61361000Y-73492400D01*
X61656000Y-73492400D01*
X61670458Y-73493110D01*
X61670458Y-73493110D01*
G37*
D11*
X61508500Y-73812400D03*
D10*
G36*
X70095833Y-82775883D02*
G01*
X70110151Y-82778007D01*
X70124192Y-82781524D01*
X70137821Y-82786401D01*
X70150906Y-82792590D01*
X70163322Y-82800031D01*
X70174948Y-82808654D01*
X70185673Y-82818375D01*
X70429625Y-83062327D01*
X70439346Y-83073052D01*
X70447969Y-83084678D01*
X70455410Y-83097094D01*
X70461599Y-83110179D01*
X70466476Y-83123808D01*
X70469993Y-83137849D01*
X70472117Y-83152167D01*
X70472827Y-83166625D01*
X70472117Y-83181083D01*
X70469993Y-83195401D01*
X70466476Y-83209442D01*
X70461599Y-83223071D01*
X70455410Y-83236156D01*
X70447969Y-83248572D01*
X70439346Y-83260198D01*
X70429625Y-83270923D01*
X70221029Y-83479519D01*
X70210304Y-83489240D01*
X70198678Y-83497863D01*
X70186262Y-83505304D01*
X70173177Y-83511493D01*
X70159548Y-83516370D01*
X70145507Y-83519887D01*
X70131189Y-83522011D01*
X70116731Y-83522721D01*
X70102273Y-83522011D01*
X70087955Y-83519887D01*
X70073914Y-83516370D01*
X70060285Y-83511493D01*
X70047200Y-83505304D01*
X70034784Y-83497863D01*
X70023158Y-83489240D01*
X70012433Y-83479519D01*
X69768481Y-83235567D01*
X69758760Y-83224842D01*
X69750137Y-83213216D01*
X69742696Y-83200800D01*
X69736507Y-83187715D01*
X69731630Y-83174086D01*
X69728113Y-83160045D01*
X69725989Y-83145727D01*
X69725279Y-83131269D01*
X69725989Y-83116811D01*
X69728113Y-83102493D01*
X69731630Y-83088452D01*
X69736507Y-83074823D01*
X69742696Y-83061738D01*
X69750137Y-83049322D01*
X69758760Y-83037696D01*
X69768481Y-83026971D01*
X69977077Y-82818375D01*
X69987802Y-82808654D01*
X69999428Y-82800031D01*
X70011844Y-82792590D01*
X70024929Y-82786401D01*
X70038558Y-82781524D01*
X70052599Y-82778007D01*
X70066917Y-82775883D01*
X70081375Y-82775173D01*
X70095833Y-82775883D01*
X70095833Y-82775883D01*
G37*
D11*
X70099053Y-83148947D03*
D10*
G36*
X70781727Y-82089989D02*
G01*
X70796045Y-82092113D01*
X70810086Y-82095630D01*
X70823715Y-82100507D01*
X70836800Y-82106696D01*
X70849216Y-82114137D01*
X70860842Y-82122760D01*
X70871567Y-82132481D01*
X71115519Y-82376433D01*
X71125240Y-82387158D01*
X71133863Y-82398784D01*
X71141304Y-82411200D01*
X71147493Y-82424285D01*
X71152370Y-82437914D01*
X71155887Y-82451955D01*
X71158011Y-82466273D01*
X71158721Y-82480731D01*
X71158011Y-82495189D01*
X71155887Y-82509507D01*
X71152370Y-82523548D01*
X71147493Y-82537177D01*
X71141304Y-82550262D01*
X71133863Y-82562678D01*
X71125240Y-82574304D01*
X71115519Y-82585029D01*
X70906923Y-82793625D01*
X70896198Y-82803346D01*
X70884572Y-82811969D01*
X70872156Y-82819410D01*
X70859071Y-82825599D01*
X70845442Y-82830476D01*
X70831401Y-82833993D01*
X70817083Y-82836117D01*
X70802625Y-82836827D01*
X70788167Y-82836117D01*
X70773849Y-82833993D01*
X70759808Y-82830476D01*
X70746179Y-82825599D01*
X70733094Y-82819410D01*
X70720678Y-82811969D01*
X70709052Y-82803346D01*
X70698327Y-82793625D01*
X70454375Y-82549673D01*
X70444654Y-82538948D01*
X70436031Y-82527322D01*
X70428590Y-82514906D01*
X70422401Y-82501821D01*
X70417524Y-82488192D01*
X70414007Y-82474151D01*
X70411883Y-82459833D01*
X70411173Y-82445375D01*
X70411883Y-82430917D01*
X70414007Y-82416599D01*
X70417524Y-82402558D01*
X70422401Y-82388929D01*
X70428590Y-82375844D01*
X70436031Y-82363428D01*
X70444654Y-82351802D01*
X70454375Y-82341077D01*
X70662971Y-82132481D01*
X70673696Y-82122760D01*
X70685322Y-82114137D01*
X70697738Y-82106696D01*
X70710823Y-82100507D01*
X70724452Y-82095630D01*
X70738493Y-82092113D01*
X70752811Y-82089989D01*
X70767269Y-82089279D01*
X70781727Y-82089989D01*
X70781727Y-82089989D01*
G37*
D11*
X70784947Y-82463053D03*
D10*
G36*
X70519927Y-71394589D02*
G01*
X70534245Y-71396713D01*
X70548286Y-71400230D01*
X70561915Y-71405107D01*
X70575000Y-71411296D01*
X70587416Y-71418737D01*
X70599042Y-71427360D01*
X70609767Y-71437081D01*
X70853719Y-71681033D01*
X70863440Y-71691758D01*
X70872063Y-71703384D01*
X70879504Y-71715800D01*
X70885693Y-71728885D01*
X70890570Y-71742514D01*
X70894087Y-71756555D01*
X70896211Y-71770873D01*
X70896921Y-71785331D01*
X70896211Y-71799789D01*
X70894087Y-71814107D01*
X70890570Y-71828148D01*
X70885693Y-71841777D01*
X70879504Y-71854862D01*
X70872063Y-71867278D01*
X70863440Y-71878904D01*
X70853719Y-71889629D01*
X70645123Y-72098225D01*
X70634398Y-72107946D01*
X70622772Y-72116569D01*
X70610356Y-72124010D01*
X70597271Y-72130199D01*
X70583642Y-72135076D01*
X70569601Y-72138593D01*
X70555283Y-72140717D01*
X70540825Y-72141427D01*
X70526367Y-72140717D01*
X70512049Y-72138593D01*
X70498008Y-72135076D01*
X70484379Y-72130199D01*
X70471294Y-72124010D01*
X70458878Y-72116569D01*
X70447252Y-72107946D01*
X70436527Y-72098225D01*
X70192575Y-71854273D01*
X70182854Y-71843548D01*
X70174231Y-71831922D01*
X70166790Y-71819506D01*
X70160601Y-71806421D01*
X70155724Y-71792792D01*
X70152207Y-71778751D01*
X70150083Y-71764433D01*
X70149373Y-71749975D01*
X70150083Y-71735517D01*
X70152207Y-71721199D01*
X70155724Y-71707158D01*
X70160601Y-71693529D01*
X70166790Y-71680444D01*
X70174231Y-71668028D01*
X70182854Y-71656402D01*
X70192575Y-71645677D01*
X70401171Y-71437081D01*
X70411896Y-71427360D01*
X70423522Y-71418737D01*
X70435938Y-71411296D01*
X70449023Y-71405107D01*
X70462652Y-71400230D01*
X70476693Y-71396713D01*
X70491011Y-71394589D01*
X70505469Y-71393879D01*
X70519927Y-71394589D01*
X70519927Y-71394589D01*
G37*
D11*
X70523147Y-71767653D03*
D10*
G36*
X69834033Y-72080483D02*
G01*
X69848351Y-72082607D01*
X69862392Y-72086124D01*
X69876021Y-72091001D01*
X69889106Y-72097190D01*
X69901522Y-72104631D01*
X69913148Y-72113254D01*
X69923873Y-72122975D01*
X70167825Y-72366927D01*
X70177546Y-72377652D01*
X70186169Y-72389278D01*
X70193610Y-72401694D01*
X70199799Y-72414779D01*
X70204676Y-72428408D01*
X70208193Y-72442449D01*
X70210317Y-72456767D01*
X70211027Y-72471225D01*
X70210317Y-72485683D01*
X70208193Y-72500001D01*
X70204676Y-72514042D01*
X70199799Y-72527671D01*
X70193610Y-72540756D01*
X70186169Y-72553172D01*
X70177546Y-72564798D01*
X70167825Y-72575523D01*
X69959229Y-72784119D01*
X69948504Y-72793840D01*
X69936878Y-72802463D01*
X69924462Y-72809904D01*
X69911377Y-72816093D01*
X69897748Y-72820970D01*
X69883707Y-72824487D01*
X69869389Y-72826611D01*
X69854931Y-72827321D01*
X69840473Y-72826611D01*
X69826155Y-72824487D01*
X69812114Y-72820970D01*
X69798485Y-72816093D01*
X69785400Y-72809904D01*
X69772984Y-72802463D01*
X69761358Y-72793840D01*
X69750633Y-72784119D01*
X69506681Y-72540167D01*
X69496960Y-72529442D01*
X69488337Y-72517816D01*
X69480896Y-72505400D01*
X69474707Y-72492315D01*
X69469830Y-72478686D01*
X69466313Y-72464645D01*
X69464189Y-72450327D01*
X69463479Y-72435869D01*
X69464189Y-72421411D01*
X69466313Y-72407093D01*
X69469830Y-72393052D01*
X69474707Y-72379423D01*
X69480896Y-72366338D01*
X69488337Y-72353922D01*
X69496960Y-72342296D01*
X69506681Y-72331571D01*
X69715277Y-72122975D01*
X69726002Y-72113254D01*
X69737628Y-72104631D01*
X69750044Y-72097190D01*
X69763129Y-72091001D01*
X69776758Y-72086124D01*
X69790799Y-72082607D01*
X69805117Y-72080483D01*
X69819575Y-72079773D01*
X69834033Y-72080483D01*
X69834033Y-72080483D01*
G37*
D11*
X69837253Y-72453547D03*
D10*
G36*
X64576958Y-70880710D02*
G01*
X64591276Y-70882834D01*
X64605317Y-70886351D01*
X64618946Y-70891228D01*
X64632031Y-70897417D01*
X64644447Y-70904858D01*
X64656073Y-70913481D01*
X64666798Y-70923202D01*
X64676519Y-70933927D01*
X64685142Y-70945553D01*
X64692583Y-70957969D01*
X64698772Y-70971054D01*
X64703649Y-70984683D01*
X64707166Y-70998724D01*
X64709290Y-71013042D01*
X64710000Y-71027500D01*
X64710000Y-71372500D01*
X64709290Y-71386958D01*
X64707166Y-71401276D01*
X64703649Y-71415317D01*
X64698772Y-71428946D01*
X64692583Y-71442031D01*
X64685142Y-71454447D01*
X64676519Y-71466073D01*
X64666798Y-71476798D01*
X64656073Y-71486519D01*
X64644447Y-71495142D01*
X64632031Y-71502583D01*
X64618946Y-71508772D01*
X64605317Y-71513649D01*
X64591276Y-71517166D01*
X64576958Y-71519290D01*
X64562500Y-71520000D01*
X64267500Y-71520000D01*
X64253042Y-71519290D01*
X64238724Y-71517166D01*
X64224683Y-71513649D01*
X64211054Y-71508772D01*
X64197969Y-71502583D01*
X64185553Y-71495142D01*
X64173927Y-71486519D01*
X64163202Y-71476798D01*
X64153481Y-71466073D01*
X64144858Y-71454447D01*
X64137417Y-71442031D01*
X64131228Y-71428946D01*
X64126351Y-71415317D01*
X64122834Y-71401276D01*
X64120710Y-71386958D01*
X64120000Y-71372500D01*
X64120000Y-71027500D01*
X64120710Y-71013042D01*
X64122834Y-70998724D01*
X64126351Y-70984683D01*
X64131228Y-70971054D01*
X64137417Y-70957969D01*
X64144858Y-70945553D01*
X64153481Y-70933927D01*
X64163202Y-70923202D01*
X64173927Y-70913481D01*
X64185553Y-70904858D01*
X64197969Y-70897417D01*
X64211054Y-70891228D01*
X64224683Y-70886351D01*
X64238724Y-70882834D01*
X64253042Y-70880710D01*
X64267500Y-70880000D01*
X64562500Y-70880000D01*
X64576958Y-70880710D01*
X64576958Y-70880710D01*
G37*
D11*
X64415000Y-71200000D03*
D10*
G36*
X65546958Y-70880710D02*
G01*
X65561276Y-70882834D01*
X65575317Y-70886351D01*
X65588946Y-70891228D01*
X65602031Y-70897417D01*
X65614447Y-70904858D01*
X65626073Y-70913481D01*
X65636798Y-70923202D01*
X65646519Y-70933927D01*
X65655142Y-70945553D01*
X65662583Y-70957969D01*
X65668772Y-70971054D01*
X65673649Y-70984683D01*
X65677166Y-70998724D01*
X65679290Y-71013042D01*
X65680000Y-71027500D01*
X65680000Y-71372500D01*
X65679290Y-71386958D01*
X65677166Y-71401276D01*
X65673649Y-71415317D01*
X65668772Y-71428946D01*
X65662583Y-71442031D01*
X65655142Y-71454447D01*
X65646519Y-71466073D01*
X65636798Y-71476798D01*
X65626073Y-71486519D01*
X65614447Y-71495142D01*
X65602031Y-71502583D01*
X65588946Y-71508772D01*
X65575317Y-71513649D01*
X65561276Y-71517166D01*
X65546958Y-71519290D01*
X65532500Y-71520000D01*
X65237500Y-71520000D01*
X65223042Y-71519290D01*
X65208724Y-71517166D01*
X65194683Y-71513649D01*
X65181054Y-71508772D01*
X65167969Y-71502583D01*
X65155553Y-71495142D01*
X65143927Y-71486519D01*
X65133202Y-71476798D01*
X65123481Y-71466073D01*
X65114858Y-71454447D01*
X65107417Y-71442031D01*
X65101228Y-71428946D01*
X65096351Y-71415317D01*
X65092834Y-71401276D01*
X65090710Y-71386958D01*
X65090000Y-71372500D01*
X65090000Y-71027500D01*
X65090710Y-71013042D01*
X65092834Y-70998724D01*
X65096351Y-70984683D01*
X65101228Y-70971054D01*
X65107417Y-70957969D01*
X65114858Y-70945553D01*
X65123481Y-70933927D01*
X65133202Y-70923202D01*
X65143927Y-70913481D01*
X65155553Y-70904858D01*
X65167969Y-70897417D01*
X65181054Y-70891228D01*
X65194683Y-70886351D01*
X65208724Y-70882834D01*
X65223042Y-70880710D01*
X65237500Y-70880000D01*
X65532500Y-70880000D01*
X65546958Y-70880710D01*
X65546958Y-70880710D01*
G37*
D11*
X65385000Y-71200000D03*
D10*
G36*
X61502558Y-76746310D02*
G01*
X61516876Y-76748434D01*
X61530917Y-76751951D01*
X61544546Y-76756828D01*
X61557631Y-76763017D01*
X61570047Y-76770458D01*
X61581673Y-76779081D01*
X61592398Y-76788802D01*
X61602119Y-76799527D01*
X61610742Y-76811153D01*
X61618183Y-76823569D01*
X61624372Y-76836654D01*
X61629249Y-76850283D01*
X61632766Y-76864324D01*
X61634890Y-76878642D01*
X61635600Y-76893100D01*
X61635600Y-77188100D01*
X61634890Y-77202558D01*
X61632766Y-77216876D01*
X61629249Y-77230917D01*
X61624372Y-77244546D01*
X61618183Y-77257631D01*
X61610742Y-77270047D01*
X61602119Y-77281673D01*
X61592398Y-77292398D01*
X61581673Y-77302119D01*
X61570047Y-77310742D01*
X61557631Y-77318183D01*
X61544546Y-77324372D01*
X61530917Y-77329249D01*
X61516876Y-77332766D01*
X61502558Y-77334890D01*
X61488100Y-77335600D01*
X61143100Y-77335600D01*
X61128642Y-77334890D01*
X61114324Y-77332766D01*
X61100283Y-77329249D01*
X61086654Y-77324372D01*
X61073569Y-77318183D01*
X61061153Y-77310742D01*
X61049527Y-77302119D01*
X61038802Y-77292398D01*
X61029081Y-77281673D01*
X61020458Y-77270047D01*
X61013017Y-77257631D01*
X61006828Y-77244546D01*
X61001951Y-77230917D01*
X60998434Y-77216876D01*
X60996310Y-77202558D01*
X60995600Y-77188100D01*
X60995600Y-76893100D01*
X60996310Y-76878642D01*
X60998434Y-76864324D01*
X61001951Y-76850283D01*
X61006828Y-76836654D01*
X61013017Y-76823569D01*
X61020458Y-76811153D01*
X61029081Y-76799527D01*
X61038802Y-76788802D01*
X61049527Y-76779081D01*
X61061153Y-76770458D01*
X61073569Y-76763017D01*
X61086654Y-76756828D01*
X61100283Y-76751951D01*
X61114324Y-76748434D01*
X61128642Y-76746310D01*
X61143100Y-76745600D01*
X61488100Y-76745600D01*
X61502558Y-76746310D01*
X61502558Y-76746310D01*
G37*
D11*
X61315600Y-77040600D03*
D10*
G36*
X61502558Y-75776310D02*
G01*
X61516876Y-75778434D01*
X61530917Y-75781951D01*
X61544546Y-75786828D01*
X61557631Y-75793017D01*
X61570047Y-75800458D01*
X61581673Y-75809081D01*
X61592398Y-75818802D01*
X61602119Y-75829527D01*
X61610742Y-75841153D01*
X61618183Y-75853569D01*
X61624372Y-75866654D01*
X61629249Y-75880283D01*
X61632766Y-75894324D01*
X61634890Y-75908642D01*
X61635600Y-75923100D01*
X61635600Y-76218100D01*
X61634890Y-76232558D01*
X61632766Y-76246876D01*
X61629249Y-76260917D01*
X61624372Y-76274546D01*
X61618183Y-76287631D01*
X61610742Y-76300047D01*
X61602119Y-76311673D01*
X61592398Y-76322398D01*
X61581673Y-76332119D01*
X61570047Y-76340742D01*
X61557631Y-76348183D01*
X61544546Y-76354372D01*
X61530917Y-76359249D01*
X61516876Y-76362766D01*
X61502558Y-76364890D01*
X61488100Y-76365600D01*
X61143100Y-76365600D01*
X61128642Y-76364890D01*
X61114324Y-76362766D01*
X61100283Y-76359249D01*
X61086654Y-76354372D01*
X61073569Y-76348183D01*
X61061153Y-76340742D01*
X61049527Y-76332119D01*
X61038802Y-76322398D01*
X61029081Y-76311673D01*
X61020458Y-76300047D01*
X61013017Y-76287631D01*
X61006828Y-76274546D01*
X61001951Y-76260917D01*
X60998434Y-76246876D01*
X60996310Y-76232558D01*
X60995600Y-76218100D01*
X60995600Y-75923100D01*
X60996310Y-75908642D01*
X60998434Y-75894324D01*
X61001951Y-75880283D01*
X61006828Y-75866654D01*
X61013017Y-75853569D01*
X61020458Y-75841153D01*
X61029081Y-75829527D01*
X61038802Y-75818802D01*
X61049527Y-75809081D01*
X61061153Y-75800458D01*
X61073569Y-75793017D01*
X61086654Y-75786828D01*
X61100283Y-75781951D01*
X61114324Y-75778434D01*
X61128642Y-75776310D01*
X61143100Y-75775600D01*
X61488100Y-75775600D01*
X61502558Y-75776310D01*
X61502558Y-75776310D01*
G37*
D11*
X61315600Y-76070600D03*
D10*
G36*
X60700458Y-72413610D02*
G01*
X60714776Y-72415734D01*
X60728817Y-72419251D01*
X60742446Y-72424128D01*
X60755531Y-72430317D01*
X60767947Y-72437758D01*
X60779573Y-72446381D01*
X60790298Y-72456102D01*
X60800019Y-72466827D01*
X60808642Y-72478453D01*
X60816083Y-72490869D01*
X60822272Y-72503954D01*
X60827149Y-72517583D01*
X60830666Y-72531624D01*
X60832790Y-72545942D01*
X60833500Y-72560400D01*
X60833500Y-72905400D01*
X60832790Y-72919858D01*
X60830666Y-72934176D01*
X60827149Y-72948217D01*
X60822272Y-72961846D01*
X60816083Y-72974931D01*
X60808642Y-72987347D01*
X60800019Y-72998973D01*
X60790298Y-73009698D01*
X60779573Y-73019419D01*
X60767947Y-73028042D01*
X60755531Y-73035483D01*
X60742446Y-73041672D01*
X60728817Y-73046549D01*
X60714776Y-73050066D01*
X60700458Y-73052190D01*
X60686000Y-73052900D01*
X60391000Y-73052900D01*
X60376542Y-73052190D01*
X60362224Y-73050066D01*
X60348183Y-73046549D01*
X60334554Y-73041672D01*
X60321469Y-73035483D01*
X60309053Y-73028042D01*
X60297427Y-73019419D01*
X60286702Y-73009698D01*
X60276981Y-72998973D01*
X60268358Y-72987347D01*
X60260917Y-72974931D01*
X60254728Y-72961846D01*
X60249851Y-72948217D01*
X60246334Y-72934176D01*
X60244210Y-72919858D01*
X60243500Y-72905400D01*
X60243500Y-72560400D01*
X60244210Y-72545942D01*
X60246334Y-72531624D01*
X60249851Y-72517583D01*
X60254728Y-72503954D01*
X60260917Y-72490869D01*
X60268358Y-72478453D01*
X60276981Y-72466827D01*
X60286702Y-72456102D01*
X60297427Y-72446381D01*
X60309053Y-72437758D01*
X60321469Y-72430317D01*
X60334554Y-72424128D01*
X60348183Y-72419251D01*
X60362224Y-72415734D01*
X60376542Y-72413610D01*
X60391000Y-72412900D01*
X60686000Y-72412900D01*
X60700458Y-72413610D01*
X60700458Y-72413610D01*
G37*
D11*
X60538500Y-72732900D03*
D10*
G36*
X61670458Y-72413610D02*
G01*
X61684776Y-72415734D01*
X61698817Y-72419251D01*
X61712446Y-72424128D01*
X61725531Y-72430317D01*
X61737947Y-72437758D01*
X61749573Y-72446381D01*
X61760298Y-72456102D01*
X61770019Y-72466827D01*
X61778642Y-72478453D01*
X61786083Y-72490869D01*
X61792272Y-72503954D01*
X61797149Y-72517583D01*
X61800666Y-72531624D01*
X61802790Y-72545942D01*
X61803500Y-72560400D01*
X61803500Y-72905400D01*
X61802790Y-72919858D01*
X61800666Y-72934176D01*
X61797149Y-72948217D01*
X61792272Y-72961846D01*
X61786083Y-72974931D01*
X61778642Y-72987347D01*
X61770019Y-72998973D01*
X61760298Y-73009698D01*
X61749573Y-73019419D01*
X61737947Y-73028042D01*
X61725531Y-73035483D01*
X61712446Y-73041672D01*
X61698817Y-73046549D01*
X61684776Y-73050066D01*
X61670458Y-73052190D01*
X61656000Y-73052900D01*
X61361000Y-73052900D01*
X61346542Y-73052190D01*
X61332224Y-73050066D01*
X61318183Y-73046549D01*
X61304554Y-73041672D01*
X61291469Y-73035483D01*
X61279053Y-73028042D01*
X61267427Y-73019419D01*
X61256702Y-73009698D01*
X61246981Y-72998973D01*
X61238358Y-72987347D01*
X61230917Y-72974931D01*
X61224728Y-72961846D01*
X61219851Y-72948217D01*
X61216334Y-72934176D01*
X61214210Y-72919858D01*
X61213500Y-72905400D01*
X61213500Y-72560400D01*
X61214210Y-72545942D01*
X61216334Y-72531624D01*
X61219851Y-72517583D01*
X61224728Y-72503954D01*
X61230917Y-72490869D01*
X61238358Y-72478453D01*
X61246981Y-72466827D01*
X61256702Y-72456102D01*
X61267427Y-72446381D01*
X61279053Y-72437758D01*
X61291469Y-72430317D01*
X61304554Y-72424128D01*
X61318183Y-72419251D01*
X61332224Y-72415734D01*
X61346542Y-72413610D01*
X61361000Y-72412900D01*
X61656000Y-72412900D01*
X61670458Y-72413610D01*
X61670458Y-72413610D01*
G37*
D11*
X61508500Y-72732900D03*
D10*
G36*
X74619189Y-74366389D02*
G01*
X74633507Y-74368513D01*
X74647548Y-74372030D01*
X74661177Y-74376907D01*
X74674262Y-74383096D01*
X74686678Y-74390537D01*
X74698304Y-74399160D01*
X74709029Y-74408881D01*
X74917625Y-74617477D01*
X74927346Y-74628202D01*
X74935969Y-74639828D01*
X74943410Y-74652244D01*
X74949599Y-74665329D01*
X74954476Y-74678958D01*
X74957993Y-74692999D01*
X74960117Y-74707317D01*
X74960827Y-74721775D01*
X74960117Y-74736233D01*
X74957993Y-74750551D01*
X74954476Y-74764592D01*
X74949599Y-74778221D01*
X74943410Y-74791306D01*
X74935969Y-74803722D01*
X74927346Y-74815348D01*
X74917625Y-74826073D01*
X74673673Y-75070025D01*
X74662948Y-75079746D01*
X74651322Y-75088369D01*
X74638906Y-75095810D01*
X74625821Y-75101999D01*
X74612192Y-75106876D01*
X74598151Y-75110393D01*
X74583833Y-75112517D01*
X74569375Y-75113227D01*
X74554917Y-75112517D01*
X74540599Y-75110393D01*
X74526558Y-75106876D01*
X74512929Y-75101999D01*
X74499844Y-75095810D01*
X74487428Y-75088369D01*
X74475802Y-75079746D01*
X74465077Y-75070025D01*
X74256481Y-74861429D01*
X74246760Y-74850704D01*
X74238137Y-74839078D01*
X74230696Y-74826662D01*
X74224507Y-74813577D01*
X74219630Y-74799948D01*
X74216113Y-74785907D01*
X74213989Y-74771589D01*
X74213279Y-74757131D01*
X74213989Y-74742673D01*
X74216113Y-74728355D01*
X74219630Y-74714314D01*
X74224507Y-74700685D01*
X74230696Y-74687600D01*
X74238137Y-74675184D01*
X74246760Y-74663558D01*
X74256481Y-74652833D01*
X74500433Y-74408881D01*
X74511158Y-74399160D01*
X74522784Y-74390537D01*
X74535200Y-74383096D01*
X74548285Y-74376907D01*
X74561914Y-74372030D01*
X74575955Y-74368513D01*
X74590273Y-74366389D01*
X74604731Y-74365679D01*
X74619189Y-74366389D01*
X74619189Y-74366389D01*
G37*
D11*
X74587053Y-74739453D03*
D10*
G36*
X75305083Y-75052283D02*
G01*
X75319401Y-75054407D01*
X75333442Y-75057924D01*
X75347071Y-75062801D01*
X75360156Y-75068990D01*
X75372572Y-75076431D01*
X75384198Y-75085054D01*
X75394923Y-75094775D01*
X75603519Y-75303371D01*
X75613240Y-75314096D01*
X75621863Y-75325722D01*
X75629304Y-75338138D01*
X75635493Y-75351223D01*
X75640370Y-75364852D01*
X75643887Y-75378893D01*
X75646011Y-75393211D01*
X75646721Y-75407669D01*
X75646011Y-75422127D01*
X75643887Y-75436445D01*
X75640370Y-75450486D01*
X75635493Y-75464115D01*
X75629304Y-75477200D01*
X75621863Y-75489616D01*
X75613240Y-75501242D01*
X75603519Y-75511967D01*
X75359567Y-75755919D01*
X75348842Y-75765640D01*
X75337216Y-75774263D01*
X75324800Y-75781704D01*
X75311715Y-75787893D01*
X75298086Y-75792770D01*
X75284045Y-75796287D01*
X75269727Y-75798411D01*
X75255269Y-75799121D01*
X75240811Y-75798411D01*
X75226493Y-75796287D01*
X75212452Y-75792770D01*
X75198823Y-75787893D01*
X75185738Y-75781704D01*
X75173322Y-75774263D01*
X75161696Y-75765640D01*
X75150971Y-75755919D01*
X74942375Y-75547323D01*
X74932654Y-75536598D01*
X74924031Y-75524972D01*
X74916590Y-75512556D01*
X74910401Y-75499471D01*
X74905524Y-75485842D01*
X74902007Y-75471801D01*
X74899883Y-75457483D01*
X74899173Y-75443025D01*
X74899883Y-75428567D01*
X74902007Y-75414249D01*
X74905524Y-75400208D01*
X74910401Y-75386579D01*
X74916590Y-75373494D01*
X74924031Y-75361078D01*
X74932654Y-75349452D01*
X74942375Y-75338727D01*
X75186327Y-75094775D01*
X75197052Y-75085054D01*
X75208678Y-75076431D01*
X75221094Y-75068990D01*
X75234179Y-75062801D01*
X75247808Y-75057924D01*
X75261849Y-75054407D01*
X75276167Y-75052283D01*
X75290625Y-75051573D01*
X75305083Y-75052283D01*
X75305083Y-75052283D01*
G37*
D11*
X75272947Y-75425347D03*
D10*
G36*
X62569358Y-76746310D02*
G01*
X62583676Y-76748434D01*
X62597717Y-76751951D01*
X62611346Y-76756828D01*
X62624431Y-76763017D01*
X62636847Y-76770458D01*
X62648473Y-76779081D01*
X62659198Y-76788802D01*
X62668919Y-76799527D01*
X62677542Y-76811153D01*
X62684983Y-76823569D01*
X62691172Y-76836654D01*
X62696049Y-76850283D01*
X62699566Y-76864324D01*
X62701690Y-76878642D01*
X62702400Y-76893100D01*
X62702400Y-77188100D01*
X62701690Y-77202558D01*
X62699566Y-77216876D01*
X62696049Y-77230917D01*
X62691172Y-77244546D01*
X62684983Y-77257631D01*
X62677542Y-77270047D01*
X62668919Y-77281673D01*
X62659198Y-77292398D01*
X62648473Y-77302119D01*
X62636847Y-77310742D01*
X62624431Y-77318183D01*
X62611346Y-77324372D01*
X62597717Y-77329249D01*
X62583676Y-77332766D01*
X62569358Y-77334890D01*
X62554900Y-77335600D01*
X62209900Y-77335600D01*
X62195442Y-77334890D01*
X62181124Y-77332766D01*
X62167083Y-77329249D01*
X62153454Y-77324372D01*
X62140369Y-77318183D01*
X62127953Y-77310742D01*
X62116327Y-77302119D01*
X62105602Y-77292398D01*
X62095881Y-77281673D01*
X62087258Y-77270047D01*
X62079817Y-77257631D01*
X62073628Y-77244546D01*
X62068751Y-77230917D01*
X62065234Y-77216876D01*
X62063110Y-77202558D01*
X62062400Y-77188100D01*
X62062400Y-76893100D01*
X62063110Y-76878642D01*
X62065234Y-76864324D01*
X62068751Y-76850283D01*
X62073628Y-76836654D01*
X62079817Y-76823569D01*
X62087258Y-76811153D01*
X62095881Y-76799527D01*
X62105602Y-76788802D01*
X62116327Y-76779081D01*
X62127953Y-76770458D01*
X62140369Y-76763017D01*
X62153454Y-76756828D01*
X62167083Y-76751951D01*
X62181124Y-76748434D01*
X62195442Y-76746310D01*
X62209900Y-76745600D01*
X62554900Y-76745600D01*
X62569358Y-76746310D01*
X62569358Y-76746310D01*
G37*
D11*
X62382400Y-77040600D03*
D10*
G36*
X62569358Y-75776310D02*
G01*
X62583676Y-75778434D01*
X62597717Y-75781951D01*
X62611346Y-75786828D01*
X62624431Y-75793017D01*
X62636847Y-75800458D01*
X62648473Y-75809081D01*
X62659198Y-75818802D01*
X62668919Y-75829527D01*
X62677542Y-75841153D01*
X62684983Y-75853569D01*
X62691172Y-75866654D01*
X62696049Y-75880283D01*
X62699566Y-75894324D01*
X62701690Y-75908642D01*
X62702400Y-75923100D01*
X62702400Y-76218100D01*
X62701690Y-76232558D01*
X62699566Y-76246876D01*
X62696049Y-76260917D01*
X62691172Y-76274546D01*
X62684983Y-76287631D01*
X62677542Y-76300047D01*
X62668919Y-76311673D01*
X62659198Y-76322398D01*
X62648473Y-76332119D01*
X62636847Y-76340742D01*
X62624431Y-76348183D01*
X62611346Y-76354372D01*
X62597717Y-76359249D01*
X62583676Y-76362766D01*
X62569358Y-76364890D01*
X62554900Y-76365600D01*
X62209900Y-76365600D01*
X62195442Y-76364890D01*
X62181124Y-76362766D01*
X62167083Y-76359249D01*
X62153454Y-76354372D01*
X62140369Y-76348183D01*
X62127953Y-76340742D01*
X62116327Y-76332119D01*
X62105602Y-76322398D01*
X62095881Y-76311673D01*
X62087258Y-76300047D01*
X62079817Y-76287631D01*
X62073628Y-76274546D01*
X62068751Y-76260917D01*
X62065234Y-76246876D01*
X62063110Y-76232558D01*
X62062400Y-76218100D01*
X62062400Y-75923100D01*
X62063110Y-75908642D01*
X62065234Y-75894324D01*
X62068751Y-75880283D01*
X62073628Y-75866654D01*
X62079817Y-75853569D01*
X62087258Y-75841153D01*
X62095881Y-75829527D01*
X62105602Y-75818802D01*
X62116327Y-75809081D01*
X62127953Y-75800458D01*
X62140369Y-75793017D01*
X62153454Y-75786828D01*
X62167083Y-75781951D01*
X62181124Y-75778434D01*
X62195442Y-75776310D01*
X62209900Y-75775600D01*
X62554900Y-75775600D01*
X62569358Y-75776310D01*
X62569358Y-75776310D01*
G37*
D11*
X62382400Y-76070600D03*
D10*
G36*
X69732527Y-70657989D02*
G01*
X69746845Y-70660113D01*
X69760886Y-70663630D01*
X69774515Y-70668507D01*
X69787600Y-70674696D01*
X69800016Y-70682137D01*
X69811642Y-70690760D01*
X69822367Y-70700481D01*
X70066319Y-70944433D01*
X70076040Y-70955158D01*
X70084663Y-70966784D01*
X70092104Y-70979200D01*
X70098293Y-70992285D01*
X70103170Y-71005914D01*
X70106687Y-71019955D01*
X70108811Y-71034273D01*
X70109521Y-71048731D01*
X70108811Y-71063189D01*
X70106687Y-71077507D01*
X70103170Y-71091548D01*
X70098293Y-71105177D01*
X70092104Y-71118262D01*
X70084663Y-71130678D01*
X70076040Y-71142304D01*
X70066319Y-71153029D01*
X69857723Y-71361625D01*
X69846998Y-71371346D01*
X69835372Y-71379969D01*
X69822956Y-71387410D01*
X69809871Y-71393599D01*
X69796242Y-71398476D01*
X69782201Y-71401993D01*
X69767883Y-71404117D01*
X69753425Y-71404827D01*
X69738967Y-71404117D01*
X69724649Y-71401993D01*
X69710608Y-71398476D01*
X69696979Y-71393599D01*
X69683894Y-71387410D01*
X69671478Y-71379969D01*
X69659852Y-71371346D01*
X69649127Y-71361625D01*
X69405175Y-71117673D01*
X69395454Y-71106948D01*
X69386831Y-71095322D01*
X69379390Y-71082906D01*
X69373201Y-71069821D01*
X69368324Y-71056192D01*
X69364807Y-71042151D01*
X69362683Y-71027833D01*
X69361973Y-71013375D01*
X69362683Y-70998917D01*
X69364807Y-70984599D01*
X69368324Y-70970558D01*
X69373201Y-70956929D01*
X69379390Y-70943844D01*
X69386831Y-70931428D01*
X69395454Y-70919802D01*
X69405175Y-70909077D01*
X69613771Y-70700481D01*
X69624496Y-70690760D01*
X69636122Y-70682137D01*
X69648538Y-70674696D01*
X69661623Y-70668507D01*
X69675252Y-70663630D01*
X69689293Y-70660113D01*
X69703611Y-70657989D01*
X69718069Y-70657279D01*
X69732527Y-70657989D01*
X69732527Y-70657989D01*
G37*
D11*
X69735747Y-71031053D03*
D10*
G36*
X69046633Y-71343883D02*
G01*
X69060951Y-71346007D01*
X69074992Y-71349524D01*
X69088621Y-71354401D01*
X69101706Y-71360590D01*
X69114122Y-71368031D01*
X69125748Y-71376654D01*
X69136473Y-71386375D01*
X69380425Y-71630327D01*
X69390146Y-71641052D01*
X69398769Y-71652678D01*
X69406210Y-71665094D01*
X69412399Y-71678179D01*
X69417276Y-71691808D01*
X69420793Y-71705849D01*
X69422917Y-71720167D01*
X69423627Y-71734625D01*
X69422917Y-71749083D01*
X69420793Y-71763401D01*
X69417276Y-71777442D01*
X69412399Y-71791071D01*
X69406210Y-71804156D01*
X69398769Y-71816572D01*
X69390146Y-71828198D01*
X69380425Y-71838923D01*
X69171829Y-72047519D01*
X69161104Y-72057240D01*
X69149478Y-72065863D01*
X69137062Y-72073304D01*
X69123977Y-72079493D01*
X69110348Y-72084370D01*
X69096307Y-72087887D01*
X69081989Y-72090011D01*
X69067531Y-72090721D01*
X69053073Y-72090011D01*
X69038755Y-72087887D01*
X69024714Y-72084370D01*
X69011085Y-72079493D01*
X68998000Y-72073304D01*
X68985584Y-72065863D01*
X68973958Y-72057240D01*
X68963233Y-72047519D01*
X68719281Y-71803567D01*
X68709560Y-71792842D01*
X68700937Y-71781216D01*
X68693496Y-71768800D01*
X68687307Y-71755715D01*
X68682430Y-71742086D01*
X68678913Y-71728045D01*
X68676789Y-71713727D01*
X68676079Y-71699269D01*
X68676789Y-71684811D01*
X68678913Y-71670493D01*
X68682430Y-71656452D01*
X68687307Y-71642823D01*
X68693496Y-71629738D01*
X68700937Y-71617322D01*
X68709560Y-71605696D01*
X68719281Y-71594971D01*
X68927877Y-71386375D01*
X68938602Y-71376654D01*
X68950228Y-71368031D01*
X68962644Y-71360590D01*
X68975729Y-71354401D01*
X68989358Y-71349524D01*
X69003399Y-71346007D01*
X69017717Y-71343883D01*
X69032175Y-71343173D01*
X69046633Y-71343883D01*
X69046633Y-71343883D01*
G37*
D11*
X69049853Y-71716947D03*
D10*
G36*
X68922158Y-67498710D02*
G01*
X68936476Y-67500834D01*
X68950517Y-67504351D01*
X68964146Y-67509228D01*
X68977231Y-67515417D01*
X68989647Y-67522858D01*
X69001273Y-67531481D01*
X69011998Y-67541202D01*
X69021719Y-67551927D01*
X69030342Y-67563553D01*
X69037783Y-67575969D01*
X69043972Y-67589054D01*
X69048849Y-67602683D01*
X69052366Y-67616724D01*
X69054490Y-67631042D01*
X69055200Y-67645500D01*
X69055200Y-67990500D01*
X69054490Y-68004958D01*
X69052366Y-68019276D01*
X69048849Y-68033317D01*
X69043972Y-68046946D01*
X69037783Y-68060031D01*
X69030342Y-68072447D01*
X69021719Y-68084073D01*
X69011998Y-68094798D01*
X69001273Y-68104519D01*
X68989647Y-68113142D01*
X68977231Y-68120583D01*
X68964146Y-68126772D01*
X68950517Y-68131649D01*
X68936476Y-68135166D01*
X68922158Y-68137290D01*
X68907700Y-68138000D01*
X68612700Y-68138000D01*
X68598242Y-68137290D01*
X68583924Y-68135166D01*
X68569883Y-68131649D01*
X68556254Y-68126772D01*
X68543169Y-68120583D01*
X68530753Y-68113142D01*
X68519127Y-68104519D01*
X68508402Y-68094798D01*
X68498681Y-68084073D01*
X68490058Y-68072447D01*
X68482617Y-68060031D01*
X68476428Y-68046946D01*
X68471551Y-68033317D01*
X68468034Y-68019276D01*
X68465910Y-68004958D01*
X68465200Y-67990500D01*
X68465200Y-67645500D01*
X68465910Y-67631042D01*
X68468034Y-67616724D01*
X68471551Y-67602683D01*
X68476428Y-67589054D01*
X68482617Y-67575969D01*
X68490058Y-67563553D01*
X68498681Y-67551927D01*
X68508402Y-67541202D01*
X68519127Y-67531481D01*
X68530753Y-67522858D01*
X68543169Y-67515417D01*
X68556254Y-67509228D01*
X68569883Y-67504351D01*
X68583924Y-67500834D01*
X68598242Y-67498710D01*
X68612700Y-67498000D01*
X68907700Y-67498000D01*
X68922158Y-67498710D01*
X68922158Y-67498710D01*
G37*
D11*
X68760200Y-67818000D03*
D10*
G36*
X67952158Y-67498710D02*
G01*
X67966476Y-67500834D01*
X67980517Y-67504351D01*
X67994146Y-67509228D01*
X68007231Y-67515417D01*
X68019647Y-67522858D01*
X68031273Y-67531481D01*
X68041998Y-67541202D01*
X68051719Y-67551927D01*
X68060342Y-67563553D01*
X68067783Y-67575969D01*
X68073972Y-67589054D01*
X68078849Y-67602683D01*
X68082366Y-67616724D01*
X68084490Y-67631042D01*
X68085200Y-67645500D01*
X68085200Y-67990500D01*
X68084490Y-68004958D01*
X68082366Y-68019276D01*
X68078849Y-68033317D01*
X68073972Y-68046946D01*
X68067783Y-68060031D01*
X68060342Y-68072447D01*
X68051719Y-68084073D01*
X68041998Y-68094798D01*
X68031273Y-68104519D01*
X68019647Y-68113142D01*
X68007231Y-68120583D01*
X67994146Y-68126772D01*
X67980517Y-68131649D01*
X67966476Y-68135166D01*
X67952158Y-68137290D01*
X67937700Y-68138000D01*
X67642700Y-68138000D01*
X67628242Y-68137290D01*
X67613924Y-68135166D01*
X67599883Y-68131649D01*
X67586254Y-68126772D01*
X67573169Y-68120583D01*
X67560753Y-68113142D01*
X67549127Y-68104519D01*
X67538402Y-68094798D01*
X67528681Y-68084073D01*
X67520058Y-68072447D01*
X67512617Y-68060031D01*
X67506428Y-68046946D01*
X67501551Y-68033317D01*
X67498034Y-68019276D01*
X67495910Y-68004958D01*
X67495200Y-67990500D01*
X67495200Y-67645500D01*
X67495910Y-67631042D01*
X67498034Y-67616724D01*
X67501551Y-67602683D01*
X67506428Y-67589054D01*
X67512617Y-67575969D01*
X67520058Y-67563553D01*
X67528681Y-67551927D01*
X67538402Y-67541202D01*
X67549127Y-67531481D01*
X67560753Y-67522858D01*
X67573169Y-67515417D01*
X67586254Y-67509228D01*
X67599883Y-67504351D01*
X67613924Y-67500834D01*
X67628242Y-67498710D01*
X67642700Y-67498000D01*
X67937700Y-67498000D01*
X67952158Y-67498710D01*
X67952158Y-67498710D01*
G37*
D11*
X67790200Y-67818000D03*
D10*
G36*
X73869842Y-75141042D02*
G01*
X73884160Y-75143166D01*
X73898201Y-75146683D01*
X73911830Y-75151560D01*
X73924915Y-75157749D01*
X73937331Y-75165190D01*
X73948957Y-75173813D01*
X73959682Y-75183534D01*
X74168278Y-75392130D01*
X74177999Y-75402855D01*
X74186622Y-75414481D01*
X74194063Y-75426897D01*
X74200252Y-75439982D01*
X74205129Y-75453611D01*
X74208646Y-75467652D01*
X74210770Y-75481970D01*
X74211480Y-75496428D01*
X74210770Y-75510886D01*
X74208646Y-75525204D01*
X74205129Y-75539245D01*
X74200252Y-75552874D01*
X74194063Y-75565959D01*
X74186622Y-75578375D01*
X74177999Y-75590001D01*
X74168278Y-75600726D01*
X73924326Y-75844678D01*
X73913601Y-75854399D01*
X73901975Y-75863022D01*
X73889559Y-75870463D01*
X73876474Y-75876652D01*
X73862845Y-75881529D01*
X73848804Y-75885046D01*
X73834486Y-75887170D01*
X73820028Y-75887880D01*
X73805570Y-75887170D01*
X73791252Y-75885046D01*
X73777211Y-75881529D01*
X73763582Y-75876652D01*
X73750497Y-75870463D01*
X73738081Y-75863022D01*
X73726455Y-75854399D01*
X73715730Y-75844678D01*
X73507134Y-75636082D01*
X73497413Y-75625357D01*
X73488790Y-75613731D01*
X73481349Y-75601315D01*
X73475160Y-75588230D01*
X73470283Y-75574601D01*
X73466766Y-75560560D01*
X73464642Y-75546242D01*
X73463932Y-75531784D01*
X73464642Y-75517326D01*
X73466766Y-75503008D01*
X73470283Y-75488967D01*
X73475160Y-75475338D01*
X73481349Y-75462253D01*
X73488790Y-75449837D01*
X73497413Y-75438211D01*
X73507134Y-75427486D01*
X73751086Y-75183534D01*
X73761811Y-75173813D01*
X73773437Y-75165190D01*
X73785853Y-75157749D01*
X73798938Y-75151560D01*
X73812567Y-75146683D01*
X73826608Y-75143166D01*
X73840926Y-75141042D01*
X73855384Y-75140332D01*
X73869842Y-75141042D01*
X73869842Y-75141042D01*
G37*
D11*
X73837706Y-75514106D03*
D10*
G36*
X74555736Y-75826936D02*
G01*
X74570054Y-75829060D01*
X74584095Y-75832577D01*
X74597724Y-75837454D01*
X74610809Y-75843643D01*
X74623225Y-75851084D01*
X74634851Y-75859707D01*
X74645576Y-75869428D01*
X74854172Y-76078024D01*
X74863893Y-76088749D01*
X74872516Y-76100375D01*
X74879957Y-76112791D01*
X74886146Y-76125876D01*
X74891023Y-76139505D01*
X74894540Y-76153546D01*
X74896664Y-76167864D01*
X74897374Y-76182322D01*
X74896664Y-76196780D01*
X74894540Y-76211098D01*
X74891023Y-76225139D01*
X74886146Y-76238768D01*
X74879957Y-76251853D01*
X74872516Y-76264269D01*
X74863893Y-76275895D01*
X74854172Y-76286620D01*
X74610220Y-76530572D01*
X74599495Y-76540293D01*
X74587869Y-76548916D01*
X74575453Y-76556357D01*
X74562368Y-76562546D01*
X74548739Y-76567423D01*
X74534698Y-76570940D01*
X74520380Y-76573064D01*
X74505922Y-76573774D01*
X74491464Y-76573064D01*
X74477146Y-76570940D01*
X74463105Y-76567423D01*
X74449476Y-76562546D01*
X74436391Y-76556357D01*
X74423975Y-76548916D01*
X74412349Y-76540293D01*
X74401624Y-76530572D01*
X74193028Y-76321976D01*
X74183307Y-76311251D01*
X74174684Y-76299625D01*
X74167243Y-76287209D01*
X74161054Y-76274124D01*
X74156177Y-76260495D01*
X74152660Y-76246454D01*
X74150536Y-76232136D01*
X74149826Y-76217678D01*
X74150536Y-76203220D01*
X74152660Y-76188902D01*
X74156177Y-76174861D01*
X74161054Y-76161232D01*
X74167243Y-76148147D01*
X74174684Y-76135731D01*
X74183307Y-76124105D01*
X74193028Y-76113380D01*
X74436980Y-75869428D01*
X74447705Y-75859707D01*
X74459331Y-75851084D01*
X74471747Y-75843643D01*
X74484832Y-75837454D01*
X74498461Y-75832577D01*
X74512502Y-75829060D01*
X74526820Y-75826936D01*
X74541278Y-75826226D01*
X74555736Y-75826936D01*
X74555736Y-75826936D01*
G37*
D11*
X74523600Y-76200000D03*
D10*
G36*
X68922158Y-68768710D02*
G01*
X68936476Y-68770834D01*
X68950517Y-68774351D01*
X68964146Y-68779228D01*
X68977231Y-68785417D01*
X68989647Y-68792858D01*
X69001273Y-68801481D01*
X69011998Y-68811202D01*
X69021719Y-68821927D01*
X69030342Y-68833553D01*
X69037783Y-68845969D01*
X69043972Y-68859054D01*
X69048849Y-68872683D01*
X69052366Y-68886724D01*
X69054490Y-68901042D01*
X69055200Y-68915500D01*
X69055200Y-69260500D01*
X69054490Y-69274958D01*
X69052366Y-69289276D01*
X69048849Y-69303317D01*
X69043972Y-69316946D01*
X69037783Y-69330031D01*
X69030342Y-69342447D01*
X69021719Y-69354073D01*
X69011998Y-69364798D01*
X69001273Y-69374519D01*
X68989647Y-69383142D01*
X68977231Y-69390583D01*
X68964146Y-69396772D01*
X68950517Y-69401649D01*
X68936476Y-69405166D01*
X68922158Y-69407290D01*
X68907700Y-69408000D01*
X68612700Y-69408000D01*
X68598242Y-69407290D01*
X68583924Y-69405166D01*
X68569883Y-69401649D01*
X68556254Y-69396772D01*
X68543169Y-69390583D01*
X68530753Y-69383142D01*
X68519127Y-69374519D01*
X68508402Y-69364798D01*
X68498681Y-69354073D01*
X68490058Y-69342447D01*
X68482617Y-69330031D01*
X68476428Y-69316946D01*
X68471551Y-69303317D01*
X68468034Y-69289276D01*
X68465910Y-69274958D01*
X68465200Y-69260500D01*
X68465200Y-68915500D01*
X68465910Y-68901042D01*
X68468034Y-68886724D01*
X68471551Y-68872683D01*
X68476428Y-68859054D01*
X68482617Y-68845969D01*
X68490058Y-68833553D01*
X68498681Y-68821927D01*
X68508402Y-68811202D01*
X68519127Y-68801481D01*
X68530753Y-68792858D01*
X68543169Y-68785417D01*
X68556254Y-68779228D01*
X68569883Y-68774351D01*
X68583924Y-68770834D01*
X68598242Y-68768710D01*
X68612700Y-68768000D01*
X68907700Y-68768000D01*
X68922158Y-68768710D01*
X68922158Y-68768710D01*
G37*
D11*
X68760200Y-69088000D03*
D10*
G36*
X67952158Y-68768710D02*
G01*
X67966476Y-68770834D01*
X67980517Y-68774351D01*
X67994146Y-68779228D01*
X68007231Y-68785417D01*
X68019647Y-68792858D01*
X68031273Y-68801481D01*
X68041998Y-68811202D01*
X68051719Y-68821927D01*
X68060342Y-68833553D01*
X68067783Y-68845969D01*
X68073972Y-68859054D01*
X68078849Y-68872683D01*
X68082366Y-68886724D01*
X68084490Y-68901042D01*
X68085200Y-68915500D01*
X68085200Y-69260500D01*
X68084490Y-69274958D01*
X68082366Y-69289276D01*
X68078849Y-69303317D01*
X68073972Y-69316946D01*
X68067783Y-69330031D01*
X68060342Y-69342447D01*
X68051719Y-69354073D01*
X68041998Y-69364798D01*
X68031273Y-69374519D01*
X68019647Y-69383142D01*
X68007231Y-69390583D01*
X67994146Y-69396772D01*
X67980517Y-69401649D01*
X67966476Y-69405166D01*
X67952158Y-69407290D01*
X67937700Y-69408000D01*
X67642700Y-69408000D01*
X67628242Y-69407290D01*
X67613924Y-69405166D01*
X67599883Y-69401649D01*
X67586254Y-69396772D01*
X67573169Y-69390583D01*
X67560753Y-69383142D01*
X67549127Y-69374519D01*
X67538402Y-69364798D01*
X67528681Y-69354073D01*
X67520058Y-69342447D01*
X67512617Y-69330031D01*
X67506428Y-69316946D01*
X67501551Y-69303317D01*
X67498034Y-69289276D01*
X67495910Y-69274958D01*
X67495200Y-69260500D01*
X67495200Y-68915500D01*
X67495910Y-68901042D01*
X67498034Y-68886724D01*
X67501551Y-68872683D01*
X67506428Y-68859054D01*
X67512617Y-68845969D01*
X67520058Y-68833553D01*
X67528681Y-68821927D01*
X67538402Y-68811202D01*
X67549127Y-68801481D01*
X67560753Y-68792858D01*
X67573169Y-68785417D01*
X67586254Y-68779228D01*
X67599883Y-68774351D01*
X67613924Y-68770834D01*
X67628242Y-68768710D01*
X67642700Y-68768000D01*
X67937700Y-68768000D01*
X67952158Y-68768710D01*
X67952158Y-68768710D01*
G37*
D11*
X67790200Y-69088000D03*
D10*
G36*
X113903158Y-84567510D02*
G01*
X113917476Y-84569634D01*
X113931517Y-84573151D01*
X113945146Y-84578028D01*
X113958231Y-84584217D01*
X113970647Y-84591658D01*
X113982273Y-84600281D01*
X113992998Y-84610002D01*
X114002719Y-84620727D01*
X114011342Y-84632353D01*
X114018783Y-84644769D01*
X114024972Y-84657854D01*
X114029849Y-84671483D01*
X114033366Y-84685524D01*
X114035490Y-84699842D01*
X114036200Y-84714300D01*
X114036200Y-85059300D01*
X114035490Y-85073758D01*
X114033366Y-85088076D01*
X114029849Y-85102117D01*
X114024972Y-85115746D01*
X114018783Y-85128831D01*
X114011342Y-85141247D01*
X114002719Y-85152873D01*
X113992998Y-85163598D01*
X113982273Y-85173319D01*
X113970647Y-85181942D01*
X113958231Y-85189383D01*
X113945146Y-85195572D01*
X113931517Y-85200449D01*
X113917476Y-85203966D01*
X113903158Y-85206090D01*
X113888700Y-85206800D01*
X113593700Y-85206800D01*
X113579242Y-85206090D01*
X113564924Y-85203966D01*
X113550883Y-85200449D01*
X113537254Y-85195572D01*
X113524169Y-85189383D01*
X113511753Y-85181942D01*
X113500127Y-85173319D01*
X113489402Y-85163598D01*
X113479681Y-85152873D01*
X113471058Y-85141247D01*
X113463617Y-85128831D01*
X113457428Y-85115746D01*
X113452551Y-85102117D01*
X113449034Y-85088076D01*
X113446910Y-85073758D01*
X113446200Y-85059300D01*
X113446200Y-84714300D01*
X113446910Y-84699842D01*
X113449034Y-84685524D01*
X113452551Y-84671483D01*
X113457428Y-84657854D01*
X113463617Y-84644769D01*
X113471058Y-84632353D01*
X113479681Y-84620727D01*
X113489402Y-84610002D01*
X113500127Y-84600281D01*
X113511753Y-84591658D01*
X113524169Y-84584217D01*
X113537254Y-84578028D01*
X113550883Y-84573151D01*
X113564924Y-84569634D01*
X113579242Y-84567510D01*
X113593700Y-84566800D01*
X113888700Y-84566800D01*
X113903158Y-84567510D01*
X113903158Y-84567510D01*
G37*
D11*
X113741200Y-84886800D03*
D10*
G36*
X114873158Y-84567510D02*
G01*
X114887476Y-84569634D01*
X114901517Y-84573151D01*
X114915146Y-84578028D01*
X114928231Y-84584217D01*
X114940647Y-84591658D01*
X114952273Y-84600281D01*
X114962998Y-84610002D01*
X114972719Y-84620727D01*
X114981342Y-84632353D01*
X114988783Y-84644769D01*
X114994972Y-84657854D01*
X114999849Y-84671483D01*
X115003366Y-84685524D01*
X115005490Y-84699842D01*
X115006200Y-84714300D01*
X115006200Y-85059300D01*
X115005490Y-85073758D01*
X115003366Y-85088076D01*
X114999849Y-85102117D01*
X114994972Y-85115746D01*
X114988783Y-85128831D01*
X114981342Y-85141247D01*
X114972719Y-85152873D01*
X114962998Y-85163598D01*
X114952273Y-85173319D01*
X114940647Y-85181942D01*
X114928231Y-85189383D01*
X114915146Y-85195572D01*
X114901517Y-85200449D01*
X114887476Y-85203966D01*
X114873158Y-85206090D01*
X114858700Y-85206800D01*
X114563700Y-85206800D01*
X114549242Y-85206090D01*
X114534924Y-85203966D01*
X114520883Y-85200449D01*
X114507254Y-85195572D01*
X114494169Y-85189383D01*
X114481753Y-85181942D01*
X114470127Y-85173319D01*
X114459402Y-85163598D01*
X114449681Y-85152873D01*
X114441058Y-85141247D01*
X114433617Y-85128831D01*
X114427428Y-85115746D01*
X114422551Y-85102117D01*
X114419034Y-85088076D01*
X114416910Y-85073758D01*
X114416200Y-85059300D01*
X114416200Y-84714300D01*
X114416910Y-84699842D01*
X114419034Y-84685524D01*
X114422551Y-84671483D01*
X114427428Y-84657854D01*
X114433617Y-84644769D01*
X114441058Y-84632353D01*
X114449681Y-84620727D01*
X114459402Y-84610002D01*
X114470127Y-84600281D01*
X114481753Y-84591658D01*
X114494169Y-84584217D01*
X114507254Y-84578028D01*
X114520883Y-84573151D01*
X114534924Y-84569634D01*
X114549242Y-84567510D01*
X114563700Y-84566800D01*
X114858700Y-84566800D01*
X114873158Y-84567510D01*
X114873158Y-84567510D01*
G37*
D11*
X114711200Y-84886800D03*
D10*
G36*
X72744858Y-72111350D02*
G01*
X72759176Y-72113474D01*
X72773217Y-72116991D01*
X72786846Y-72121868D01*
X72799931Y-72128057D01*
X72812347Y-72135498D01*
X72823973Y-72144121D01*
X72834698Y-72153842D01*
X72844419Y-72164567D01*
X72853042Y-72176193D01*
X72860483Y-72188609D01*
X72866672Y-72201694D01*
X72871549Y-72215323D01*
X72875066Y-72229364D01*
X72877190Y-72243682D01*
X72877900Y-72258140D01*
X72877900Y-72603140D01*
X72877190Y-72617598D01*
X72875066Y-72631916D01*
X72871549Y-72645957D01*
X72866672Y-72659586D01*
X72860483Y-72672671D01*
X72853042Y-72685087D01*
X72844419Y-72696713D01*
X72834698Y-72707438D01*
X72823973Y-72717159D01*
X72812347Y-72725782D01*
X72799931Y-72733223D01*
X72786846Y-72739412D01*
X72773217Y-72744289D01*
X72759176Y-72747806D01*
X72744858Y-72749930D01*
X72730400Y-72750640D01*
X72435400Y-72750640D01*
X72420942Y-72749930D01*
X72406624Y-72747806D01*
X72392583Y-72744289D01*
X72378954Y-72739412D01*
X72365869Y-72733223D01*
X72353453Y-72725782D01*
X72341827Y-72717159D01*
X72331102Y-72707438D01*
X72321381Y-72696713D01*
X72312758Y-72685087D01*
X72305317Y-72672671D01*
X72299128Y-72659586D01*
X72294251Y-72645957D01*
X72290734Y-72631916D01*
X72288610Y-72617598D01*
X72287900Y-72603140D01*
X72287900Y-72258140D01*
X72288610Y-72243682D01*
X72290734Y-72229364D01*
X72294251Y-72215323D01*
X72299128Y-72201694D01*
X72305317Y-72188609D01*
X72312758Y-72176193D01*
X72321381Y-72164567D01*
X72331102Y-72153842D01*
X72341827Y-72144121D01*
X72353453Y-72135498D01*
X72365869Y-72128057D01*
X72378954Y-72121868D01*
X72392583Y-72116991D01*
X72406624Y-72113474D01*
X72420942Y-72111350D01*
X72435400Y-72110640D01*
X72730400Y-72110640D01*
X72744858Y-72111350D01*
X72744858Y-72111350D01*
G37*
D11*
X72582900Y-72430640D03*
D10*
G36*
X71774858Y-72111350D02*
G01*
X71789176Y-72113474D01*
X71803217Y-72116991D01*
X71816846Y-72121868D01*
X71829931Y-72128057D01*
X71842347Y-72135498D01*
X71853973Y-72144121D01*
X71864698Y-72153842D01*
X71874419Y-72164567D01*
X71883042Y-72176193D01*
X71890483Y-72188609D01*
X71896672Y-72201694D01*
X71901549Y-72215323D01*
X71905066Y-72229364D01*
X71907190Y-72243682D01*
X71907900Y-72258140D01*
X71907900Y-72603140D01*
X71907190Y-72617598D01*
X71905066Y-72631916D01*
X71901549Y-72645957D01*
X71896672Y-72659586D01*
X71890483Y-72672671D01*
X71883042Y-72685087D01*
X71874419Y-72696713D01*
X71864698Y-72707438D01*
X71853973Y-72717159D01*
X71842347Y-72725782D01*
X71829931Y-72733223D01*
X71816846Y-72739412D01*
X71803217Y-72744289D01*
X71789176Y-72747806D01*
X71774858Y-72749930D01*
X71760400Y-72750640D01*
X71465400Y-72750640D01*
X71450942Y-72749930D01*
X71436624Y-72747806D01*
X71422583Y-72744289D01*
X71408954Y-72739412D01*
X71395869Y-72733223D01*
X71383453Y-72725782D01*
X71371827Y-72717159D01*
X71361102Y-72707438D01*
X71351381Y-72696713D01*
X71342758Y-72685087D01*
X71335317Y-72672671D01*
X71329128Y-72659586D01*
X71324251Y-72645957D01*
X71320734Y-72631916D01*
X71318610Y-72617598D01*
X71317900Y-72603140D01*
X71317900Y-72258140D01*
X71318610Y-72243682D01*
X71320734Y-72229364D01*
X71324251Y-72215323D01*
X71329128Y-72201694D01*
X71335317Y-72188609D01*
X71342758Y-72176193D01*
X71351381Y-72164567D01*
X71361102Y-72153842D01*
X71371827Y-72144121D01*
X71383453Y-72135498D01*
X71395869Y-72128057D01*
X71408954Y-72121868D01*
X71422583Y-72116991D01*
X71436624Y-72113474D01*
X71450942Y-72111350D01*
X71465400Y-72110640D01*
X71760400Y-72110640D01*
X71774858Y-72111350D01*
X71774858Y-72111350D01*
G37*
D11*
X71612900Y-72430640D03*
D10*
G36*
X116722158Y-81313510D02*
G01*
X116736476Y-81315634D01*
X116750517Y-81319151D01*
X116764146Y-81324028D01*
X116777231Y-81330217D01*
X116789647Y-81337658D01*
X116801273Y-81346281D01*
X116811998Y-81356002D01*
X116821719Y-81366727D01*
X116830342Y-81378353D01*
X116837783Y-81390769D01*
X116843972Y-81403854D01*
X116848849Y-81417483D01*
X116852366Y-81431524D01*
X116854490Y-81445842D01*
X116855200Y-81460300D01*
X116855200Y-81755300D01*
X116854490Y-81769758D01*
X116852366Y-81784076D01*
X116848849Y-81798117D01*
X116843972Y-81811746D01*
X116837783Y-81824831D01*
X116830342Y-81837247D01*
X116821719Y-81848873D01*
X116811998Y-81859598D01*
X116801273Y-81869319D01*
X116789647Y-81877942D01*
X116777231Y-81885383D01*
X116764146Y-81891572D01*
X116750517Y-81896449D01*
X116736476Y-81899966D01*
X116722158Y-81902090D01*
X116707700Y-81902800D01*
X116362700Y-81902800D01*
X116348242Y-81902090D01*
X116333924Y-81899966D01*
X116319883Y-81896449D01*
X116306254Y-81891572D01*
X116293169Y-81885383D01*
X116280753Y-81877942D01*
X116269127Y-81869319D01*
X116258402Y-81859598D01*
X116248681Y-81848873D01*
X116240058Y-81837247D01*
X116232617Y-81824831D01*
X116226428Y-81811746D01*
X116221551Y-81798117D01*
X116218034Y-81784076D01*
X116215910Y-81769758D01*
X116215200Y-81755300D01*
X116215200Y-81460300D01*
X116215910Y-81445842D01*
X116218034Y-81431524D01*
X116221551Y-81417483D01*
X116226428Y-81403854D01*
X116232617Y-81390769D01*
X116240058Y-81378353D01*
X116248681Y-81366727D01*
X116258402Y-81356002D01*
X116269127Y-81346281D01*
X116280753Y-81337658D01*
X116293169Y-81330217D01*
X116306254Y-81324028D01*
X116319883Y-81319151D01*
X116333924Y-81315634D01*
X116348242Y-81313510D01*
X116362700Y-81312800D01*
X116707700Y-81312800D01*
X116722158Y-81313510D01*
X116722158Y-81313510D01*
G37*
D11*
X116535200Y-81607800D03*
D10*
G36*
X116722158Y-82283510D02*
G01*
X116736476Y-82285634D01*
X116750517Y-82289151D01*
X116764146Y-82294028D01*
X116777231Y-82300217D01*
X116789647Y-82307658D01*
X116801273Y-82316281D01*
X116811998Y-82326002D01*
X116821719Y-82336727D01*
X116830342Y-82348353D01*
X116837783Y-82360769D01*
X116843972Y-82373854D01*
X116848849Y-82387483D01*
X116852366Y-82401524D01*
X116854490Y-82415842D01*
X116855200Y-82430300D01*
X116855200Y-82725300D01*
X116854490Y-82739758D01*
X116852366Y-82754076D01*
X116848849Y-82768117D01*
X116843972Y-82781746D01*
X116837783Y-82794831D01*
X116830342Y-82807247D01*
X116821719Y-82818873D01*
X116811998Y-82829598D01*
X116801273Y-82839319D01*
X116789647Y-82847942D01*
X116777231Y-82855383D01*
X116764146Y-82861572D01*
X116750517Y-82866449D01*
X116736476Y-82869966D01*
X116722158Y-82872090D01*
X116707700Y-82872800D01*
X116362700Y-82872800D01*
X116348242Y-82872090D01*
X116333924Y-82869966D01*
X116319883Y-82866449D01*
X116306254Y-82861572D01*
X116293169Y-82855383D01*
X116280753Y-82847942D01*
X116269127Y-82839319D01*
X116258402Y-82829598D01*
X116248681Y-82818873D01*
X116240058Y-82807247D01*
X116232617Y-82794831D01*
X116226428Y-82781746D01*
X116221551Y-82768117D01*
X116218034Y-82754076D01*
X116215910Y-82739758D01*
X116215200Y-82725300D01*
X116215200Y-82430300D01*
X116215910Y-82415842D01*
X116218034Y-82401524D01*
X116221551Y-82387483D01*
X116226428Y-82373854D01*
X116232617Y-82360769D01*
X116240058Y-82348353D01*
X116248681Y-82336727D01*
X116258402Y-82326002D01*
X116269127Y-82316281D01*
X116280753Y-82307658D01*
X116293169Y-82300217D01*
X116306254Y-82294028D01*
X116319883Y-82289151D01*
X116333924Y-82285634D01*
X116348242Y-82283510D01*
X116362700Y-82282800D01*
X116707700Y-82282800D01*
X116722158Y-82283510D01*
X116722158Y-82283510D01*
G37*
D11*
X116535200Y-82577800D03*
D10*
G36*
X111388158Y-73744310D02*
G01*
X111402476Y-73746434D01*
X111416517Y-73749951D01*
X111430146Y-73754828D01*
X111443231Y-73761017D01*
X111455647Y-73768458D01*
X111467273Y-73777081D01*
X111477998Y-73786802D01*
X111487719Y-73797527D01*
X111496342Y-73809153D01*
X111503783Y-73821569D01*
X111509972Y-73834654D01*
X111514849Y-73848283D01*
X111518366Y-73862324D01*
X111520490Y-73876642D01*
X111521200Y-73891100D01*
X111521200Y-74186100D01*
X111520490Y-74200558D01*
X111518366Y-74214876D01*
X111514849Y-74228917D01*
X111509972Y-74242546D01*
X111503783Y-74255631D01*
X111496342Y-74268047D01*
X111487719Y-74279673D01*
X111477998Y-74290398D01*
X111467273Y-74300119D01*
X111455647Y-74308742D01*
X111443231Y-74316183D01*
X111430146Y-74322372D01*
X111416517Y-74327249D01*
X111402476Y-74330766D01*
X111388158Y-74332890D01*
X111373700Y-74333600D01*
X111028700Y-74333600D01*
X111014242Y-74332890D01*
X110999924Y-74330766D01*
X110985883Y-74327249D01*
X110972254Y-74322372D01*
X110959169Y-74316183D01*
X110946753Y-74308742D01*
X110935127Y-74300119D01*
X110924402Y-74290398D01*
X110914681Y-74279673D01*
X110906058Y-74268047D01*
X110898617Y-74255631D01*
X110892428Y-74242546D01*
X110887551Y-74228917D01*
X110884034Y-74214876D01*
X110881910Y-74200558D01*
X110881200Y-74186100D01*
X110881200Y-73891100D01*
X110881910Y-73876642D01*
X110884034Y-73862324D01*
X110887551Y-73848283D01*
X110892428Y-73834654D01*
X110898617Y-73821569D01*
X110906058Y-73809153D01*
X110914681Y-73797527D01*
X110924402Y-73786802D01*
X110935127Y-73777081D01*
X110946753Y-73768458D01*
X110959169Y-73761017D01*
X110972254Y-73754828D01*
X110985883Y-73749951D01*
X110999924Y-73746434D01*
X111014242Y-73744310D01*
X111028700Y-73743600D01*
X111373700Y-73743600D01*
X111388158Y-73744310D01*
X111388158Y-73744310D01*
G37*
D11*
X111201200Y-74038600D03*
D10*
G36*
X111388158Y-74714310D02*
G01*
X111402476Y-74716434D01*
X111416517Y-74719951D01*
X111430146Y-74724828D01*
X111443231Y-74731017D01*
X111455647Y-74738458D01*
X111467273Y-74747081D01*
X111477998Y-74756802D01*
X111487719Y-74767527D01*
X111496342Y-74779153D01*
X111503783Y-74791569D01*
X111509972Y-74804654D01*
X111514849Y-74818283D01*
X111518366Y-74832324D01*
X111520490Y-74846642D01*
X111521200Y-74861100D01*
X111521200Y-75156100D01*
X111520490Y-75170558D01*
X111518366Y-75184876D01*
X111514849Y-75198917D01*
X111509972Y-75212546D01*
X111503783Y-75225631D01*
X111496342Y-75238047D01*
X111487719Y-75249673D01*
X111477998Y-75260398D01*
X111467273Y-75270119D01*
X111455647Y-75278742D01*
X111443231Y-75286183D01*
X111430146Y-75292372D01*
X111416517Y-75297249D01*
X111402476Y-75300766D01*
X111388158Y-75302890D01*
X111373700Y-75303600D01*
X111028700Y-75303600D01*
X111014242Y-75302890D01*
X110999924Y-75300766D01*
X110985883Y-75297249D01*
X110972254Y-75292372D01*
X110959169Y-75286183D01*
X110946753Y-75278742D01*
X110935127Y-75270119D01*
X110924402Y-75260398D01*
X110914681Y-75249673D01*
X110906058Y-75238047D01*
X110898617Y-75225631D01*
X110892428Y-75212546D01*
X110887551Y-75198917D01*
X110884034Y-75184876D01*
X110881910Y-75170558D01*
X110881200Y-75156100D01*
X110881200Y-74861100D01*
X110881910Y-74846642D01*
X110884034Y-74832324D01*
X110887551Y-74818283D01*
X110892428Y-74804654D01*
X110898617Y-74791569D01*
X110906058Y-74779153D01*
X110914681Y-74767527D01*
X110924402Y-74756802D01*
X110935127Y-74747081D01*
X110946753Y-74738458D01*
X110959169Y-74731017D01*
X110972254Y-74724828D01*
X110985883Y-74719951D01*
X110999924Y-74716434D01*
X111014242Y-74714310D01*
X111028700Y-74713600D01*
X111373700Y-74713600D01*
X111388158Y-74714310D01*
X111388158Y-74714310D01*
G37*
D11*
X111201200Y-75008600D03*
D10*
G36*
X110270558Y-73744310D02*
G01*
X110284876Y-73746434D01*
X110298917Y-73749951D01*
X110312546Y-73754828D01*
X110325631Y-73761017D01*
X110338047Y-73768458D01*
X110349673Y-73777081D01*
X110360398Y-73786802D01*
X110370119Y-73797527D01*
X110378742Y-73809153D01*
X110386183Y-73821569D01*
X110392372Y-73834654D01*
X110397249Y-73848283D01*
X110400766Y-73862324D01*
X110402890Y-73876642D01*
X110403600Y-73891100D01*
X110403600Y-74186100D01*
X110402890Y-74200558D01*
X110400766Y-74214876D01*
X110397249Y-74228917D01*
X110392372Y-74242546D01*
X110386183Y-74255631D01*
X110378742Y-74268047D01*
X110370119Y-74279673D01*
X110360398Y-74290398D01*
X110349673Y-74300119D01*
X110338047Y-74308742D01*
X110325631Y-74316183D01*
X110312546Y-74322372D01*
X110298917Y-74327249D01*
X110284876Y-74330766D01*
X110270558Y-74332890D01*
X110256100Y-74333600D01*
X109911100Y-74333600D01*
X109896642Y-74332890D01*
X109882324Y-74330766D01*
X109868283Y-74327249D01*
X109854654Y-74322372D01*
X109841569Y-74316183D01*
X109829153Y-74308742D01*
X109817527Y-74300119D01*
X109806802Y-74290398D01*
X109797081Y-74279673D01*
X109788458Y-74268047D01*
X109781017Y-74255631D01*
X109774828Y-74242546D01*
X109769951Y-74228917D01*
X109766434Y-74214876D01*
X109764310Y-74200558D01*
X109763600Y-74186100D01*
X109763600Y-73891100D01*
X109764310Y-73876642D01*
X109766434Y-73862324D01*
X109769951Y-73848283D01*
X109774828Y-73834654D01*
X109781017Y-73821569D01*
X109788458Y-73809153D01*
X109797081Y-73797527D01*
X109806802Y-73786802D01*
X109817527Y-73777081D01*
X109829153Y-73768458D01*
X109841569Y-73761017D01*
X109854654Y-73754828D01*
X109868283Y-73749951D01*
X109882324Y-73746434D01*
X109896642Y-73744310D01*
X109911100Y-73743600D01*
X110256100Y-73743600D01*
X110270558Y-73744310D01*
X110270558Y-73744310D01*
G37*
D11*
X110083600Y-74038600D03*
D10*
G36*
X110270558Y-74714310D02*
G01*
X110284876Y-74716434D01*
X110298917Y-74719951D01*
X110312546Y-74724828D01*
X110325631Y-74731017D01*
X110338047Y-74738458D01*
X110349673Y-74747081D01*
X110360398Y-74756802D01*
X110370119Y-74767527D01*
X110378742Y-74779153D01*
X110386183Y-74791569D01*
X110392372Y-74804654D01*
X110397249Y-74818283D01*
X110400766Y-74832324D01*
X110402890Y-74846642D01*
X110403600Y-74861100D01*
X110403600Y-75156100D01*
X110402890Y-75170558D01*
X110400766Y-75184876D01*
X110397249Y-75198917D01*
X110392372Y-75212546D01*
X110386183Y-75225631D01*
X110378742Y-75238047D01*
X110370119Y-75249673D01*
X110360398Y-75260398D01*
X110349673Y-75270119D01*
X110338047Y-75278742D01*
X110325631Y-75286183D01*
X110312546Y-75292372D01*
X110298917Y-75297249D01*
X110284876Y-75300766D01*
X110270558Y-75302890D01*
X110256100Y-75303600D01*
X109911100Y-75303600D01*
X109896642Y-75302890D01*
X109882324Y-75300766D01*
X109868283Y-75297249D01*
X109854654Y-75292372D01*
X109841569Y-75286183D01*
X109829153Y-75278742D01*
X109817527Y-75270119D01*
X109806802Y-75260398D01*
X109797081Y-75249673D01*
X109788458Y-75238047D01*
X109781017Y-75225631D01*
X109774828Y-75212546D01*
X109769951Y-75198917D01*
X109766434Y-75184876D01*
X109764310Y-75170558D01*
X109763600Y-75156100D01*
X109763600Y-74861100D01*
X109764310Y-74846642D01*
X109766434Y-74832324D01*
X109769951Y-74818283D01*
X109774828Y-74804654D01*
X109781017Y-74791569D01*
X109788458Y-74779153D01*
X109797081Y-74767527D01*
X109806802Y-74756802D01*
X109817527Y-74747081D01*
X109829153Y-74738458D01*
X109841569Y-74731017D01*
X109854654Y-74724828D01*
X109868283Y-74719951D01*
X109882324Y-74716434D01*
X109896642Y-74714310D01*
X109911100Y-74713600D01*
X110256100Y-74713600D01*
X110270558Y-74714310D01*
X110270558Y-74714310D01*
G37*
D11*
X110083600Y-75008600D03*
D10*
G36*
X113788458Y-68626210D02*
G01*
X113802776Y-68628334D01*
X113816817Y-68631851D01*
X113830446Y-68636728D01*
X113843531Y-68642917D01*
X113855947Y-68650358D01*
X113867573Y-68658981D01*
X113878298Y-68668702D01*
X113888019Y-68679427D01*
X113896642Y-68691053D01*
X113904083Y-68703469D01*
X113910272Y-68716554D01*
X113915149Y-68730183D01*
X113918666Y-68744224D01*
X113920790Y-68758542D01*
X113921500Y-68773000D01*
X113921500Y-69068000D01*
X113920790Y-69082458D01*
X113918666Y-69096776D01*
X113915149Y-69110817D01*
X113910272Y-69124446D01*
X113904083Y-69137531D01*
X113896642Y-69149947D01*
X113888019Y-69161573D01*
X113878298Y-69172298D01*
X113867573Y-69182019D01*
X113855947Y-69190642D01*
X113843531Y-69198083D01*
X113830446Y-69204272D01*
X113816817Y-69209149D01*
X113802776Y-69212666D01*
X113788458Y-69214790D01*
X113774000Y-69215500D01*
X113429000Y-69215500D01*
X113414542Y-69214790D01*
X113400224Y-69212666D01*
X113386183Y-69209149D01*
X113372554Y-69204272D01*
X113359469Y-69198083D01*
X113347053Y-69190642D01*
X113335427Y-69182019D01*
X113324702Y-69172298D01*
X113314981Y-69161573D01*
X113306358Y-69149947D01*
X113298917Y-69137531D01*
X113292728Y-69124446D01*
X113287851Y-69110817D01*
X113284334Y-69096776D01*
X113282210Y-69082458D01*
X113281500Y-69068000D01*
X113281500Y-68773000D01*
X113282210Y-68758542D01*
X113284334Y-68744224D01*
X113287851Y-68730183D01*
X113292728Y-68716554D01*
X113298917Y-68703469D01*
X113306358Y-68691053D01*
X113314981Y-68679427D01*
X113324702Y-68668702D01*
X113335427Y-68658981D01*
X113347053Y-68650358D01*
X113359469Y-68642917D01*
X113372554Y-68636728D01*
X113386183Y-68631851D01*
X113400224Y-68628334D01*
X113414542Y-68626210D01*
X113429000Y-68625500D01*
X113774000Y-68625500D01*
X113788458Y-68626210D01*
X113788458Y-68626210D01*
G37*
D11*
X113601500Y-68920500D03*
D10*
G36*
X113788458Y-69596210D02*
G01*
X113802776Y-69598334D01*
X113816817Y-69601851D01*
X113830446Y-69606728D01*
X113843531Y-69612917D01*
X113855947Y-69620358D01*
X113867573Y-69628981D01*
X113878298Y-69638702D01*
X113888019Y-69649427D01*
X113896642Y-69661053D01*
X113904083Y-69673469D01*
X113910272Y-69686554D01*
X113915149Y-69700183D01*
X113918666Y-69714224D01*
X113920790Y-69728542D01*
X113921500Y-69743000D01*
X113921500Y-70038000D01*
X113920790Y-70052458D01*
X113918666Y-70066776D01*
X113915149Y-70080817D01*
X113910272Y-70094446D01*
X113904083Y-70107531D01*
X113896642Y-70119947D01*
X113888019Y-70131573D01*
X113878298Y-70142298D01*
X113867573Y-70152019D01*
X113855947Y-70160642D01*
X113843531Y-70168083D01*
X113830446Y-70174272D01*
X113816817Y-70179149D01*
X113802776Y-70182666D01*
X113788458Y-70184790D01*
X113774000Y-70185500D01*
X113429000Y-70185500D01*
X113414542Y-70184790D01*
X113400224Y-70182666D01*
X113386183Y-70179149D01*
X113372554Y-70174272D01*
X113359469Y-70168083D01*
X113347053Y-70160642D01*
X113335427Y-70152019D01*
X113324702Y-70142298D01*
X113314981Y-70131573D01*
X113306358Y-70119947D01*
X113298917Y-70107531D01*
X113292728Y-70094446D01*
X113287851Y-70080817D01*
X113284334Y-70066776D01*
X113282210Y-70052458D01*
X113281500Y-70038000D01*
X113281500Y-69743000D01*
X113282210Y-69728542D01*
X113284334Y-69714224D01*
X113287851Y-69700183D01*
X113292728Y-69686554D01*
X113298917Y-69673469D01*
X113306358Y-69661053D01*
X113314981Y-69649427D01*
X113324702Y-69638702D01*
X113335427Y-69628981D01*
X113347053Y-69620358D01*
X113359469Y-69612917D01*
X113372554Y-69606728D01*
X113386183Y-69601851D01*
X113400224Y-69598334D01*
X113414542Y-69596210D01*
X113429000Y-69595500D01*
X113774000Y-69595500D01*
X113788458Y-69596210D01*
X113788458Y-69596210D01*
G37*
D11*
X113601500Y-69890500D03*
D10*
G36*
X119185958Y-66530710D02*
G01*
X119200276Y-66532834D01*
X119214317Y-66536351D01*
X119227946Y-66541228D01*
X119241031Y-66547417D01*
X119253447Y-66554858D01*
X119265073Y-66563481D01*
X119275798Y-66573202D01*
X119285519Y-66583927D01*
X119294142Y-66595553D01*
X119301583Y-66607969D01*
X119307772Y-66621054D01*
X119312649Y-66634683D01*
X119316166Y-66648724D01*
X119318290Y-66663042D01*
X119319000Y-66677500D01*
X119319000Y-66972500D01*
X119318290Y-66986958D01*
X119316166Y-67001276D01*
X119312649Y-67015317D01*
X119307772Y-67028946D01*
X119301583Y-67042031D01*
X119294142Y-67054447D01*
X119285519Y-67066073D01*
X119275798Y-67076798D01*
X119265073Y-67086519D01*
X119253447Y-67095142D01*
X119241031Y-67102583D01*
X119227946Y-67108772D01*
X119214317Y-67113649D01*
X119200276Y-67117166D01*
X119185958Y-67119290D01*
X119171500Y-67120000D01*
X118826500Y-67120000D01*
X118812042Y-67119290D01*
X118797724Y-67117166D01*
X118783683Y-67113649D01*
X118770054Y-67108772D01*
X118756969Y-67102583D01*
X118744553Y-67095142D01*
X118732927Y-67086519D01*
X118722202Y-67076798D01*
X118712481Y-67066073D01*
X118703858Y-67054447D01*
X118696417Y-67042031D01*
X118690228Y-67028946D01*
X118685351Y-67015317D01*
X118681834Y-67001276D01*
X118679710Y-66986958D01*
X118679000Y-66972500D01*
X118679000Y-66677500D01*
X118679710Y-66663042D01*
X118681834Y-66648724D01*
X118685351Y-66634683D01*
X118690228Y-66621054D01*
X118696417Y-66607969D01*
X118703858Y-66595553D01*
X118712481Y-66583927D01*
X118722202Y-66573202D01*
X118732927Y-66563481D01*
X118744553Y-66554858D01*
X118756969Y-66547417D01*
X118770054Y-66541228D01*
X118783683Y-66536351D01*
X118797724Y-66532834D01*
X118812042Y-66530710D01*
X118826500Y-66530000D01*
X119171500Y-66530000D01*
X119185958Y-66530710D01*
X119185958Y-66530710D01*
G37*
D11*
X118999000Y-66825000D03*
D10*
G36*
X119185958Y-67500710D02*
G01*
X119200276Y-67502834D01*
X119214317Y-67506351D01*
X119227946Y-67511228D01*
X119241031Y-67517417D01*
X119253447Y-67524858D01*
X119265073Y-67533481D01*
X119275798Y-67543202D01*
X119285519Y-67553927D01*
X119294142Y-67565553D01*
X119301583Y-67577969D01*
X119307772Y-67591054D01*
X119312649Y-67604683D01*
X119316166Y-67618724D01*
X119318290Y-67633042D01*
X119319000Y-67647500D01*
X119319000Y-67942500D01*
X119318290Y-67956958D01*
X119316166Y-67971276D01*
X119312649Y-67985317D01*
X119307772Y-67998946D01*
X119301583Y-68012031D01*
X119294142Y-68024447D01*
X119285519Y-68036073D01*
X119275798Y-68046798D01*
X119265073Y-68056519D01*
X119253447Y-68065142D01*
X119241031Y-68072583D01*
X119227946Y-68078772D01*
X119214317Y-68083649D01*
X119200276Y-68087166D01*
X119185958Y-68089290D01*
X119171500Y-68090000D01*
X118826500Y-68090000D01*
X118812042Y-68089290D01*
X118797724Y-68087166D01*
X118783683Y-68083649D01*
X118770054Y-68078772D01*
X118756969Y-68072583D01*
X118744553Y-68065142D01*
X118732927Y-68056519D01*
X118722202Y-68046798D01*
X118712481Y-68036073D01*
X118703858Y-68024447D01*
X118696417Y-68012031D01*
X118690228Y-67998946D01*
X118685351Y-67985317D01*
X118681834Y-67971276D01*
X118679710Y-67956958D01*
X118679000Y-67942500D01*
X118679000Y-67647500D01*
X118679710Y-67633042D01*
X118681834Y-67618724D01*
X118685351Y-67604683D01*
X118690228Y-67591054D01*
X118696417Y-67577969D01*
X118703858Y-67565553D01*
X118712481Y-67553927D01*
X118722202Y-67543202D01*
X118732927Y-67533481D01*
X118744553Y-67524858D01*
X118756969Y-67517417D01*
X118770054Y-67511228D01*
X118783683Y-67506351D01*
X118797724Y-67502834D01*
X118812042Y-67500710D01*
X118826500Y-67500000D01*
X119171500Y-67500000D01*
X119185958Y-67500710D01*
X119185958Y-67500710D01*
G37*
D11*
X118999000Y-67795000D03*
D10*
G36*
X118042958Y-66530710D02*
G01*
X118057276Y-66532834D01*
X118071317Y-66536351D01*
X118084946Y-66541228D01*
X118098031Y-66547417D01*
X118110447Y-66554858D01*
X118122073Y-66563481D01*
X118132798Y-66573202D01*
X118142519Y-66583927D01*
X118151142Y-66595553D01*
X118158583Y-66607969D01*
X118164772Y-66621054D01*
X118169649Y-66634683D01*
X118173166Y-66648724D01*
X118175290Y-66663042D01*
X118176000Y-66677500D01*
X118176000Y-66972500D01*
X118175290Y-66986958D01*
X118173166Y-67001276D01*
X118169649Y-67015317D01*
X118164772Y-67028946D01*
X118158583Y-67042031D01*
X118151142Y-67054447D01*
X118142519Y-67066073D01*
X118132798Y-67076798D01*
X118122073Y-67086519D01*
X118110447Y-67095142D01*
X118098031Y-67102583D01*
X118084946Y-67108772D01*
X118071317Y-67113649D01*
X118057276Y-67117166D01*
X118042958Y-67119290D01*
X118028500Y-67120000D01*
X117683500Y-67120000D01*
X117669042Y-67119290D01*
X117654724Y-67117166D01*
X117640683Y-67113649D01*
X117627054Y-67108772D01*
X117613969Y-67102583D01*
X117601553Y-67095142D01*
X117589927Y-67086519D01*
X117579202Y-67076798D01*
X117569481Y-67066073D01*
X117560858Y-67054447D01*
X117553417Y-67042031D01*
X117547228Y-67028946D01*
X117542351Y-67015317D01*
X117538834Y-67001276D01*
X117536710Y-66986958D01*
X117536000Y-66972500D01*
X117536000Y-66677500D01*
X117536710Y-66663042D01*
X117538834Y-66648724D01*
X117542351Y-66634683D01*
X117547228Y-66621054D01*
X117553417Y-66607969D01*
X117560858Y-66595553D01*
X117569481Y-66583927D01*
X117579202Y-66573202D01*
X117589927Y-66563481D01*
X117601553Y-66554858D01*
X117613969Y-66547417D01*
X117627054Y-66541228D01*
X117640683Y-66536351D01*
X117654724Y-66532834D01*
X117669042Y-66530710D01*
X117683500Y-66530000D01*
X118028500Y-66530000D01*
X118042958Y-66530710D01*
X118042958Y-66530710D01*
G37*
D11*
X117856000Y-66825000D03*
D10*
G36*
X118042958Y-67500710D02*
G01*
X118057276Y-67502834D01*
X118071317Y-67506351D01*
X118084946Y-67511228D01*
X118098031Y-67517417D01*
X118110447Y-67524858D01*
X118122073Y-67533481D01*
X118132798Y-67543202D01*
X118142519Y-67553927D01*
X118151142Y-67565553D01*
X118158583Y-67577969D01*
X118164772Y-67591054D01*
X118169649Y-67604683D01*
X118173166Y-67618724D01*
X118175290Y-67633042D01*
X118176000Y-67647500D01*
X118176000Y-67942500D01*
X118175290Y-67956958D01*
X118173166Y-67971276D01*
X118169649Y-67985317D01*
X118164772Y-67998946D01*
X118158583Y-68012031D01*
X118151142Y-68024447D01*
X118142519Y-68036073D01*
X118132798Y-68046798D01*
X118122073Y-68056519D01*
X118110447Y-68065142D01*
X118098031Y-68072583D01*
X118084946Y-68078772D01*
X118071317Y-68083649D01*
X118057276Y-68087166D01*
X118042958Y-68089290D01*
X118028500Y-68090000D01*
X117683500Y-68090000D01*
X117669042Y-68089290D01*
X117654724Y-68087166D01*
X117640683Y-68083649D01*
X117627054Y-68078772D01*
X117613969Y-68072583D01*
X117601553Y-68065142D01*
X117589927Y-68056519D01*
X117579202Y-68046798D01*
X117569481Y-68036073D01*
X117560858Y-68024447D01*
X117553417Y-68012031D01*
X117547228Y-67998946D01*
X117542351Y-67985317D01*
X117538834Y-67971276D01*
X117536710Y-67956958D01*
X117536000Y-67942500D01*
X117536000Y-67647500D01*
X117536710Y-67633042D01*
X117538834Y-67618724D01*
X117542351Y-67604683D01*
X117547228Y-67591054D01*
X117553417Y-67577969D01*
X117560858Y-67565553D01*
X117569481Y-67553927D01*
X117579202Y-67543202D01*
X117589927Y-67533481D01*
X117601553Y-67524858D01*
X117613969Y-67517417D01*
X117627054Y-67511228D01*
X117640683Y-67506351D01*
X117654724Y-67502834D01*
X117669042Y-67500710D01*
X117683500Y-67500000D01*
X118028500Y-67500000D01*
X118042958Y-67500710D01*
X118042958Y-67500710D01*
G37*
D11*
X117856000Y-67795000D03*
M02*
