M48
; DRILL file {KiCad (5.1.2)-2} date 11/16/2019 1:35:18 PM
; FORMAT={-:-/ absolute / metric / decimal}
; #@! TF.CreationDate,2019-11-16T13:35:18-06:00
; #@! TF.GenerationSoftware,Kicad,Pcbnew,(5.1.2)-2
; #@! TF.FileFunction,Plated,1,4,PTH
FMAT,2
METRIC
T1C0.300
T2C0.400
T3C2.200
%
G90
G05
T1
X59.639Y-72.771
X60.261Y-75.908
X60.35Y-77.013
X62.23Y-70.002
X62.357Y-66.739
X62.636Y-72.746
X62.636Y-73.863
X62.738Y-74.93
X63.246Y-77.724
X63.449Y-76.251
X63.5Y-74.422
X63.976Y-78.212
X64.145Y-78.992
X64.413Y-72.198
X64.745Y-79.001
X64.77Y-68.25
X66.142Y-68.428
X66.55Y-71.585
X66.624Y-75.705
X66.624Y-76.905
X66.802Y-68.478
X67.158Y-70.764
X67.767Y-66.7
X67.824Y-74.505
X67.824Y-75.705
X67.824Y-76.905
X67.824Y-78.105
X68.326Y-81.026
X68.428Y-71.171
X68.428Y-72.746
X69.024Y-74.505
X69.024Y-75.705
X69.024Y-76.905
X69.024Y-78.105
X69.342Y-81.28
X69.75Y-73.75
X69.85Y-95.504
X70.224Y-75.705
X70.224Y-76.905
X70.968Y-67.869
X71.75Y-73.25
X71.952Y-71.631
X71.984Y-66.853
X72.136Y-95.504
X72.14Y-81.022
X72.542Y-71.679
X73.254Y-76.098
X73.406Y-77.318
X73.558Y-70.866
X74.5Y-71.0
X74.676Y-95.504
X74.812Y-81.725
X74.994Y-81.153
X77.216Y-91.44
X77.216Y-95.504
X79.756Y-90.678
X81.153Y-93.027
X82.55Y-65.227
X82.55Y-87.155
X83.63Y-93.345
X83.82Y-65.176
X83.82Y-87.147
X85.044Y-91.568
X85.09Y-65.159
X85.28Y-87.694
X86.36Y-65.184
X86.36Y-87.122
X87.356Y-90.678
X87.503Y-95.567
X89.916Y-93.916
X90.17Y-62.118
X91.059Y-87.306
X92.185Y-61.404
X92.75Y-87.0
X93.408Y-82.995
X93.98Y-87.175
X94.43Y-65.194
X94.551Y-81.597
X94.615Y-82.486
X95.36Y-83.82
X95.36Y-85.725
X96.266Y-71.501
X96.41Y-83.82
X96.41Y-85.725
X97.79Y-65.174
X97.79Y-87.178
X98.488Y-65.849
X98.933Y-60.261
X99.14Y-67.28
X99.14Y-69.566
X100.19Y-67.28
X100.19Y-69.566
X100.838Y-66.548
X100.838Y-79.819
X101.473Y-59.69
X101.473Y-67.945
X101.473Y-68.961
X101.473Y-70.612
X101.473Y-71.628
X101.6Y-65.174
X101.6Y-87.219
X101.986Y-68.425
X101.996Y-71.143
X102.489Y-67.945
X102.489Y-68.961
X102.489Y-70.612
X102.489Y-71.628
X103.188Y-76.962
X103.886Y-83.185
X103.949Y-64.77
X104.458Y-83.82
X105.029Y-79.184
X105.029Y-84.519
X106.154Y-68.496
X106.154Y-71.087
X106.489Y-60.452
X106.489Y-65.278
X106.553Y-68.072
X106.553Y-68.961
X106.553Y-70.612
X106.553Y-71.501
X107.137Y-82.702
X109.093Y-83.248
X109.134Y-75.649
X109.169Y-74.016
X110.523Y-76.728
X111.277Y-84.033
X111.316Y-68.897
X111.316Y-69.913
X111.316Y-70.929
X111.316Y-71.945
X111.316Y-72.962
X111.877Y-69.268
X111.877Y-70.935
X111.887Y-71.951
X111.887Y-72.535
X111.9Y-69.916
X112.039Y-80.806
X112.042Y-77.843
X112.319Y-74.016
X112.446Y-78.544
X112.459Y-68.897
X112.459Y-69.913
X112.459Y-70.929
X112.459Y-71.945
X112.459Y-72.962
X112.499Y-79.207
X113.221Y-75.792
X113.729Y-70.739
X115.125Y-68.644
X116.141Y-73.279
X116.18Y-83.515
X116.499Y-68.285
X117.03Y-66.865
X117.665Y-71.464
X117.856Y-77.533
X119.189Y-69.278
X120.345Y-80.772
X120.904Y-65.532
X122.276Y-68.712
X122.428Y-78.74
X123.19Y-64.516
X123.23Y-68.692
X123.292Y-85.963
X123.406Y-81.369
T2
X75.82Y-68.58
X76.303Y-67.413
X76.303Y-69.747
X77.47Y-66.93
X77.47Y-70.23
X78.637Y-67.413
X78.637Y-69.747
X79.12Y-68.58
X75.82Y-84.411
X76.303Y-83.244
X76.303Y-85.578
X77.47Y-82.761
X77.47Y-86.061
X78.637Y-83.244
X78.637Y-85.578
X79.12Y-84.411
X59.35Y-60.0
X59.833Y-58.833
X59.833Y-61.167
X61.0Y-58.35
X61.0Y-61.65
X62.167Y-58.833
X62.167Y-61.167
X62.65Y-60.0
X118.35Y-92.995
X118.833Y-91.828
X118.833Y-94.161
X120.0Y-91.345
X120.0Y-94.645
X121.167Y-91.828
X121.167Y-94.161
X121.65Y-92.995
X118.35Y-60.0
X118.833Y-58.833
X118.833Y-61.167
X120.0Y-58.35
X120.0Y-61.65
X121.167Y-58.833
X121.167Y-61.167
X121.65Y-60.0
X59.35Y-93.091
X59.833Y-91.924
X59.833Y-94.258
X61.0Y-91.441
X61.0Y-94.741
X62.167Y-91.924
X62.167Y-94.258
X62.65Y-93.091
T3
X77.47Y-68.58
X77.47Y-84.411
X61.0Y-60.0
X120.0Y-92.995
X120.0Y-60.0
X61.0Y-92.995
T0
M30
