G04 #@! TF.GenerationSoftware,KiCad,Pcbnew,(5.1.2)-2*
G04 #@! TF.CreationDate,2019-11-16T13:35:15-06:00*
G04 #@! TF.ProjectId,spi_control,7370695f-636f-46e7-9472-6f6c2e6b6963,rev?*
G04 #@! TF.SameCoordinates,Original*
G04 #@! TF.FileFunction,Paste,Top*
G04 #@! TF.FilePolarity,Positive*
%FSLAX46Y46*%
G04 Gerber Fmt 4.6, Leading zero omitted, Abs format (unit mm)*
G04 Created by KiCad (PCBNEW (5.1.2)-2) date 2019-11-16 13:35:15*
%MOMM*%
%LPD*%
G04 APERTURE LIST*
%ADD10C,0.100000*%
%ADD11C,0.250000*%
%ADD12C,1.100000*%
%ADD13R,1.000000X2.000000*%
%ADD14R,1.300000X1.100000*%
%ADD15C,0.590000*%
G04 APERTURE END LIST*
D10*
G36*
X72635709Y-76410871D02*
G01*
X72641776Y-76411771D01*
X72647726Y-76413261D01*
X72653501Y-76415328D01*
X72659045Y-76417950D01*
X72664306Y-76421103D01*
X72669233Y-76424757D01*
X72673777Y-76428876D01*
X73151074Y-76906173D01*
X73155193Y-76910717D01*
X73158847Y-76915644D01*
X73162000Y-76920905D01*
X73164622Y-76926449D01*
X73166689Y-76932224D01*
X73168179Y-76938174D01*
X73169079Y-76944241D01*
X73169380Y-76950367D01*
X73169079Y-76956493D01*
X73168179Y-76962560D01*
X73166689Y-76968510D01*
X73164622Y-76974285D01*
X73162000Y-76979829D01*
X73158847Y-76985090D01*
X73155193Y-76990017D01*
X73151074Y-76994561D01*
X73062685Y-77082950D01*
X73058141Y-77087069D01*
X73053214Y-77090723D01*
X73047953Y-77093876D01*
X73042409Y-77096498D01*
X73036634Y-77098565D01*
X73030684Y-77100055D01*
X73024617Y-77100955D01*
X73018491Y-77101256D01*
X73012365Y-77100955D01*
X73006298Y-77100055D01*
X73000348Y-77098565D01*
X72994573Y-77096498D01*
X72989029Y-77093876D01*
X72983768Y-77090723D01*
X72978841Y-77087069D01*
X72974297Y-77082950D01*
X72497000Y-76605653D01*
X72492881Y-76601109D01*
X72489227Y-76596182D01*
X72486074Y-76590921D01*
X72483452Y-76585377D01*
X72481385Y-76579602D01*
X72479895Y-76573652D01*
X72478995Y-76567585D01*
X72478694Y-76561459D01*
X72478995Y-76555333D01*
X72479895Y-76549266D01*
X72481385Y-76543316D01*
X72483452Y-76537541D01*
X72486074Y-76531997D01*
X72489227Y-76526736D01*
X72492881Y-76521809D01*
X72497000Y-76517265D01*
X72585389Y-76428876D01*
X72589933Y-76424757D01*
X72594860Y-76421103D01*
X72600121Y-76417950D01*
X72605665Y-76415328D01*
X72611440Y-76413261D01*
X72617390Y-76411771D01*
X72623457Y-76410871D01*
X72629583Y-76410570D01*
X72635709Y-76410871D01*
X72635709Y-76410871D01*
G37*
D11*
X72824037Y-76755913D03*
D10*
G36*
X72282156Y-76764424D02*
G01*
X72288223Y-76765324D01*
X72294173Y-76766814D01*
X72299948Y-76768881D01*
X72305492Y-76771503D01*
X72310753Y-76774656D01*
X72315680Y-76778310D01*
X72320224Y-76782429D01*
X72797521Y-77259726D01*
X72801640Y-77264270D01*
X72805294Y-77269197D01*
X72808447Y-77274458D01*
X72811069Y-77280002D01*
X72813136Y-77285777D01*
X72814626Y-77291727D01*
X72815526Y-77297794D01*
X72815827Y-77303920D01*
X72815526Y-77310046D01*
X72814626Y-77316113D01*
X72813136Y-77322063D01*
X72811069Y-77327838D01*
X72808447Y-77333382D01*
X72805294Y-77338643D01*
X72801640Y-77343570D01*
X72797521Y-77348114D01*
X72709132Y-77436503D01*
X72704588Y-77440622D01*
X72699661Y-77444276D01*
X72694400Y-77447429D01*
X72688856Y-77450051D01*
X72683081Y-77452118D01*
X72677131Y-77453608D01*
X72671064Y-77454508D01*
X72664938Y-77454809D01*
X72658812Y-77454508D01*
X72652745Y-77453608D01*
X72646795Y-77452118D01*
X72641020Y-77450051D01*
X72635476Y-77447429D01*
X72630215Y-77444276D01*
X72625288Y-77440622D01*
X72620744Y-77436503D01*
X72143447Y-76959206D01*
X72139328Y-76954662D01*
X72135674Y-76949735D01*
X72132521Y-76944474D01*
X72129899Y-76938930D01*
X72127832Y-76933155D01*
X72126342Y-76927205D01*
X72125442Y-76921138D01*
X72125141Y-76915012D01*
X72125442Y-76908886D01*
X72126342Y-76902819D01*
X72127832Y-76896869D01*
X72129899Y-76891094D01*
X72132521Y-76885550D01*
X72135674Y-76880289D01*
X72139328Y-76875362D01*
X72143447Y-76870818D01*
X72231836Y-76782429D01*
X72236380Y-76778310D01*
X72241307Y-76774656D01*
X72246568Y-76771503D01*
X72252112Y-76768881D01*
X72257887Y-76766814D01*
X72263837Y-76765324D01*
X72269904Y-76764424D01*
X72276030Y-76764123D01*
X72282156Y-76764424D01*
X72282156Y-76764424D01*
G37*
D11*
X72470484Y-77109466D03*
D10*
G36*
X71928602Y-77117978D02*
G01*
X71934669Y-77118878D01*
X71940619Y-77120368D01*
X71946394Y-77122435D01*
X71951938Y-77125057D01*
X71957199Y-77128210D01*
X71962126Y-77131864D01*
X71966670Y-77135983D01*
X72443967Y-77613280D01*
X72448086Y-77617824D01*
X72451740Y-77622751D01*
X72454893Y-77628012D01*
X72457515Y-77633556D01*
X72459582Y-77639331D01*
X72461072Y-77645281D01*
X72461972Y-77651348D01*
X72462273Y-77657474D01*
X72461972Y-77663600D01*
X72461072Y-77669667D01*
X72459582Y-77675617D01*
X72457515Y-77681392D01*
X72454893Y-77686936D01*
X72451740Y-77692197D01*
X72448086Y-77697124D01*
X72443967Y-77701668D01*
X72355578Y-77790057D01*
X72351034Y-77794176D01*
X72346107Y-77797830D01*
X72340846Y-77800983D01*
X72335302Y-77803605D01*
X72329527Y-77805672D01*
X72323577Y-77807162D01*
X72317510Y-77808062D01*
X72311384Y-77808363D01*
X72305258Y-77808062D01*
X72299191Y-77807162D01*
X72293241Y-77805672D01*
X72287466Y-77803605D01*
X72281922Y-77800983D01*
X72276661Y-77797830D01*
X72271734Y-77794176D01*
X72267190Y-77790057D01*
X71789893Y-77312760D01*
X71785774Y-77308216D01*
X71782120Y-77303289D01*
X71778967Y-77298028D01*
X71776345Y-77292484D01*
X71774278Y-77286709D01*
X71772788Y-77280759D01*
X71771888Y-77274692D01*
X71771587Y-77268566D01*
X71771888Y-77262440D01*
X71772788Y-77256373D01*
X71774278Y-77250423D01*
X71776345Y-77244648D01*
X71778967Y-77239104D01*
X71782120Y-77233843D01*
X71785774Y-77228916D01*
X71789893Y-77224372D01*
X71878282Y-77135983D01*
X71882826Y-77131864D01*
X71887753Y-77128210D01*
X71893014Y-77125057D01*
X71898558Y-77122435D01*
X71904333Y-77120368D01*
X71910283Y-77118878D01*
X71916350Y-77117978D01*
X71922476Y-77117677D01*
X71928602Y-77117978D01*
X71928602Y-77117978D01*
G37*
D11*
X72116930Y-77463020D03*
D10*
G36*
X71575049Y-77471531D02*
G01*
X71581116Y-77472431D01*
X71587066Y-77473921D01*
X71592841Y-77475988D01*
X71598385Y-77478610D01*
X71603646Y-77481763D01*
X71608573Y-77485417D01*
X71613117Y-77489536D01*
X72090414Y-77966833D01*
X72094533Y-77971377D01*
X72098187Y-77976304D01*
X72101340Y-77981565D01*
X72103962Y-77987109D01*
X72106029Y-77992884D01*
X72107519Y-77998834D01*
X72108419Y-78004901D01*
X72108720Y-78011027D01*
X72108419Y-78017153D01*
X72107519Y-78023220D01*
X72106029Y-78029170D01*
X72103962Y-78034945D01*
X72101340Y-78040489D01*
X72098187Y-78045750D01*
X72094533Y-78050677D01*
X72090414Y-78055221D01*
X72002025Y-78143610D01*
X71997481Y-78147729D01*
X71992554Y-78151383D01*
X71987293Y-78154536D01*
X71981749Y-78157158D01*
X71975974Y-78159225D01*
X71970024Y-78160715D01*
X71963957Y-78161615D01*
X71957831Y-78161916D01*
X71951705Y-78161615D01*
X71945638Y-78160715D01*
X71939688Y-78159225D01*
X71933913Y-78157158D01*
X71928369Y-78154536D01*
X71923108Y-78151383D01*
X71918181Y-78147729D01*
X71913637Y-78143610D01*
X71436340Y-77666313D01*
X71432221Y-77661769D01*
X71428567Y-77656842D01*
X71425414Y-77651581D01*
X71422792Y-77646037D01*
X71420725Y-77640262D01*
X71419235Y-77634312D01*
X71418335Y-77628245D01*
X71418034Y-77622119D01*
X71418335Y-77615993D01*
X71419235Y-77609926D01*
X71420725Y-77603976D01*
X71422792Y-77598201D01*
X71425414Y-77592657D01*
X71428567Y-77587396D01*
X71432221Y-77582469D01*
X71436340Y-77577925D01*
X71524729Y-77489536D01*
X71529273Y-77485417D01*
X71534200Y-77481763D01*
X71539461Y-77478610D01*
X71545005Y-77475988D01*
X71550780Y-77473921D01*
X71556730Y-77472431D01*
X71562797Y-77471531D01*
X71568923Y-77471230D01*
X71575049Y-77471531D01*
X71575049Y-77471531D01*
G37*
D11*
X71763377Y-77816573D03*
D10*
G36*
X71221495Y-77825084D02*
G01*
X71227562Y-77825984D01*
X71233512Y-77827474D01*
X71239287Y-77829541D01*
X71244831Y-77832163D01*
X71250092Y-77835316D01*
X71255019Y-77838970D01*
X71259563Y-77843089D01*
X71736860Y-78320386D01*
X71740979Y-78324930D01*
X71744633Y-78329857D01*
X71747786Y-78335118D01*
X71750408Y-78340662D01*
X71752475Y-78346437D01*
X71753965Y-78352387D01*
X71754865Y-78358454D01*
X71755166Y-78364580D01*
X71754865Y-78370706D01*
X71753965Y-78376773D01*
X71752475Y-78382723D01*
X71750408Y-78388498D01*
X71747786Y-78394042D01*
X71744633Y-78399303D01*
X71740979Y-78404230D01*
X71736860Y-78408774D01*
X71648471Y-78497163D01*
X71643927Y-78501282D01*
X71639000Y-78504936D01*
X71633739Y-78508089D01*
X71628195Y-78510711D01*
X71622420Y-78512778D01*
X71616470Y-78514268D01*
X71610403Y-78515168D01*
X71604277Y-78515469D01*
X71598151Y-78515168D01*
X71592084Y-78514268D01*
X71586134Y-78512778D01*
X71580359Y-78510711D01*
X71574815Y-78508089D01*
X71569554Y-78504936D01*
X71564627Y-78501282D01*
X71560083Y-78497163D01*
X71082786Y-78019866D01*
X71078667Y-78015322D01*
X71075013Y-78010395D01*
X71071860Y-78005134D01*
X71069238Y-77999590D01*
X71067171Y-77993815D01*
X71065681Y-77987865D01*
X71064781Y-77981798D01*
X71064480Y-77975672D01*
X71064781Y-77969546D01*
X71065681Y-77963479D01*
X71067171Y-77957529D01*
X71069238Y-77951754D01*
X71071860Y-77946210D01*
X71075013Y-77940949D01*
X71078667Y-77936022D01*
X71082786Y-77931478D01*
X71171175Y-77843089D01*
X71175719Y-77838970D01*
X71180646Y-77835316D01*
X71185907Y-77832163D01*
X71191451Y-77829541D01*
X71197226Y-77827474D01*
X71203176Y-77825984D01*
X71209243Y-77825084D01*
X71215369Y-77824783D01*
X71221495Y-77825084D01*
X71221495Y-77825084D01*
G37*
D11*
X71409823Y-78170126D03*
D10*
G36*
X70867942Y-78178638D02*
G01*
X70874009Y-78179538D01*
X70879959Y-78181028D01*
X70885734Y-78183095D01*
X70891278Y-78185717D01*
X70896539Y-78188870D01*
X70901466Y-78192524D01*
X70906010Y-78196643D01*
X71383307Y-78673940D01*
X71387426Y-78678484D01*
X71391080Y-78683411D01*
X71394233Y-78688672D01*
X71396855Y-78694216D01*
X71398922Y-78699991D01*
X71400412Y-78705941D01*
X71401312Y-78712008D01*
X71401613Y-78718134D01*
X71401312Y-78724260D01*
X71400412Y-78730327D01*
X71398922Y-78736277D01*
X71396855Y-78742052D01*
X71394233Y-78747596D01*
X71391080Y-78752857D01*
X71387426Y-78757784D01*
X71383307Y-78762328D01*
X71294918Y-78850717D01*
X71290374Y-78854836D01*
X71285447Y-78858490D01*
X71280186Y-78861643D01*
X71274642Y-78864265D01*
X71268867Y-78866332D01*
X71262917Y-78867822D01*
X71256850Y-78868722D01*
X71250724Y-78869023D01*
X71244598Y-78868722D01*
X71238531Y-78867822D01*
X71232581Y-78866332D01*
X71226806Y-78864265D01*
X71221262Y-78861643D01*
X71216001Y-78858490D01*
X71211074Y-78854836D01*
X71206530Y-78850717D01*
X70729233Y-78373420D01*
X70725114Y-78368876D01*
X70721460Y-78363949D01*
X70718307Y-78358688D01*
X70715685Y-78353144D01*
X70713618Y-78347369D01*
X70712128Y-78341419D01*
X70711228Y-78335352D01*
X70710927Y-78329226D01*
X70711228Y-78323100D01*
X70712128Y-78317033D01*
X70713618Y-78311083D01*
X70715685Y-78305308D01*
X70718307Y-78299764D01*
X70721460Y-78294503D01*
X70725114Y-78289576D01*
X70729233Y-78285032D01*
X70817622Y-78196643D01*
X70822166Y-78192524D01*
X70827093Y-78188870D01*
X70832354Y-78185717D01*
X70837898Y-78183095D01*
X70843673Y-78181028D01*
X70849623Y-78179538D01*
X70855690Y-78178638D01*
X70861816Y-78178337D01*
X70867942Y-78178638D01*
X70867942Y-78178638D01*
G37*
D11*
X71056270Y-78523680D03*
D10*
G36*
X70514389Y-78532191D02*
G01*
X70520456Y-78533091D01*
X70526406Y-78534581D01*
X70532181Y-78536648D01*
X70537725Y-78539270D01*
X70542986Y-78542423D01*
X70547913Y-78546077D01*
X70552457Y-78550196D01*
X71029754Y-79027493D01*
X71033873Y-79032037D01*
X71037527Y-79036964D01*
X71040680Y-79042225D01*
X71043302Y-79047769D01*
X71045369Y-79053544D01*
X71046859Y-79059494D01*
X71047759Y-79065561D01*
X71048060Y-79071687D01*
X71047759Y-79077813D01*
X71046859Y-79083880D01*
X71045369Y-79089830D01*
X71043302Y-79095605D01*
X71040680Y-79101149D01*
X71037527Y-79106410D01*
X71033873Y-79111337D01*
X71029754Y-79115881D01*
X70941365Y-79204270D01*
X70936821Y-79208389D01*
X70931894Y-79212043D01*
X70926633Y-79215196D01*
X70921089Y-79217818D01*
X70915314Y-79219885D01*
X70909364Y-79221375D01*
X70903297Y-79222275D01*
X70897171Y-79222576D01*
X70891045Y-79222275D01*
X70884978Y-79221375D01*
X70879028Y-79219885D01*
X70873253Y-79217818D01*
X70867709Y-79215196D01*
X70862448Y-79212043D01*
X70857521Y-79208389D01*
X70852977Y-79204270D01*
X70375680Y-78726973D01*
X70371561Y-78722429D01*
X70367907Y-78717502D01*
X70364754Y-78712241D01*
X70362132Y-78706697D01*
X70360065Y-78700922D01*
X70358575Y-78694972D01*
X70357675Y-78688905D01*
X70357374Y-78682779D01*
X70357675Y-78676653D01*
X70358575Y-78670586D01*
X70360065Y-78664636D01*
X70362132Y-78658861D01*
X70364754Y-78653317D01*
X70367907Y-78648056D01*
X70371561Y-78643129D01*
X70375680Y-78638585D01*
X70464069Y-78550196D01*
X70468613Y-78546077D01*
X70473540Y-78542423D01*
X70478801Y-78539270D01*
X70484345Y-78536648D01*
X70490120Y-78534581D01*
X70496070Y-78533091D01*
X70502137Y-78532191D01*
X70508263Y-78531890D01*
X70514389Y-78532191D01*
X70514389Y-78532191D01*
G37*
D11*
X70702717Y-78877233D03*
D10*
G36*
X70160835Y-78885744D02*
G01*
X70166902Y-78886644D01*
X70172852Y-78888134D01*
X70178627Y-78890201D01*
X70184171Y-78892823D01*
X70189432Y-78895976D01*
X70194359Y-78899630D01*
X70198903Y-78903749D01*
X70676200Y-79381046D01*
X70680319Y-79385590D01*
X70683973Y-79390517D01*
X70687126Y-79395778D01*
X70689748Y-79401322D01*
X70691815Y-79407097D01*
X70693305Y-79413047D01*
X70694205Y-79419114D01*
X70694506Y-79425240D01*
X70694205Y-79431366D01*
X70693305Y-79437433D01*
X70691815Y-79443383D01*
X70689748Y-79449158D01*
X70687126Y-79454702D01*
X70683973Y-79459963D01*
X70680319Y-79464890D01*
X70676200Y-79469434D01*
X70587811Y-79557823D01*
X70583267Y-79561942D01*
X70578340Y-79565596D01*
X70573079Y-79568749D01*
X70567535Y-79571371D01*
X70561760Y-79573438D01*
X70555810Y-79574928D01*
X70549743Y-79575828D01*
X70543617Y-79576129D01*
X70537491Y-79575828D01*
X70531424Y-79574928D01*
X70525474Y-79573438D01*
X70519699Y-79571371D01*
X70514155Y-79568749D01*
X70508894Y-79565596D01*
X70503967Y-79561942D01*
X70499423Y-79557823D01*
X70022126Y-79080526D01*
X70018007Y-79075982D01*
X70014353Y-79071055D01*
X70011200Y-79065794D01*
X70008578Y-79060250D01*
X70006511Y-79054475D01*
X70005021Y-79048525D01*
X70004121Y-79042458D01*
X70003820Y-79036332D01*
X70004121Y-79030206D01*
X70005021Y-79024139D01*
X70006511Y-79018189D01*
X70008578Y-79012414D01*
X70011200Y-79006870D01*
X70014353Y-79001609D01*
X70018007Y-78996682D01*
X70022126Y-78992138D01*
X70110515Y-78903749D01*
X70115059Y-78899630D01*
X70119986Y-78895976D01*
X70125247Y-78892823D01*
X70130791Y-78890201D01*
X70136566Y-78888134D01*
X70142516Y-78886644D01*
X70148583Y-78885744D01*
X70154709Y-78885443D01*
X70160835Y-78885744D01*
X70160835Y-78885744D01*
G37*
D11*
X70349163Y-79230786D03*
D10*
G36*
X69807282Y-79239298D02*
G01*
X69813349Y-79240198D01*
X69819299Y-79241688D01*
X69825074Y-79243755D01*
X69830618Y-79246377D01*
X69835879Y-79249530D01*
X69840806Y-79253184D01*
X69845350Y-79257303D01*
X70322647Y-79734600D01*
X70326766Y-79739144D01*
X70330420Y-79744071D01*
X70333573Y-79749332D01*
X70336195Y-79754876D01*
X70338262Y-79760651D01*
X70339752Y-79766601D01*
X70340652Y-79772668D01*
X70340953Y-79778794D01*
X70340652Y-79784920D01*
X70339752Y-79790987D01*
X70338262Y-79796937D01*
X70336195Y-79802712D01*
X70333573Y-79808256D01*
X70330420Y-79813517D01*
X70326766Y-79818444D01*
X70322647Y-79822988D01*
X70234258Y-79911377D01*
X70229714Y-79915496D01*
X70224787Y-79919150D01*
X70219526Y-79922303D01*
X70213982Y-79924925D01*
X70208207Y-79926992D01*
X70202257Y-79928482D01*
X70196190Y-79929382D01*
X70190064Y-79929683D01*
X70183938Y-79929382D01*
X70177871Y-79928482D01*
X70171921Y-79926992D01*
X70166146Y-79924925D01*
X70160602Y-79922303D01*
X70155341Y-79919150D01*
X70150414Y-79915496D01*
X70145870Y-79911377D01*
X69668573Y-79434080D01*
X69664454Y-79429536D01*
X69660800Y-79424609D01*
X69657647Y-79419348D01*
X69655025Y-79413804D01*
X69652958Y-79408029D01*
X69651468Y-79402079D01*
X69650568Y-79396012D01*
X69650267Y-79389886D01*
X69650568Y-79383760D01*
X69651468Y-79377693D01*
X69652958Y-79371743D01*
X69655025Y-79365968D01*
X69657647Y-79360424D01*
X69660800Y-79355163D01*
X69664454Y-79350236D01*
X69668573Y-79345692D01*
X69756962Y-79257303D01*
X69761506Y-79253184D01*
X69766433Y-79249530D01*
X69771694Y-79246377D01*
X69777238Y-79243755D01*
X69783013Y-79241688D01*
X69788963Y-79240198D01*
X69795030Y-79239298D01*
X69801156Y-79238997D01*
X69807282Y-79239298D01*
X69807282Y-79239298D01*
G37*
D11*
X69995610Y-79584340D03*
D10*
G36*
X69453729Y-79592851D02*
G01*
X69459796Y-79593751D01*
X69465746Y-79595241D01*
X69471521Y-79597308D01*
X69477065Y-79599930D01*
X69482326Y-79603083D01*
X69487253Y-79606737D01*
X69491797Y-79610856D01*
X69969094Y-80088153D01*
X69973213Y-80092697D01*
X69976867Y-80097624D01*
X69980020Y-80102885D01*
X69982642Y-80108429D01*
X69984709Y-80114204D01*
X69986199Y-80120154D01*
X69987099Y-80126221D01*
X69987400Y-80132347D01*
X69987099Y-80138473D01*
X69986199Y-80144540D01*
X69984709Y-80150490D01*
X69982642Y-80156265D01*
X69980020Y-80161809D01*
X69976867Y-80167070D01*
X69973213Y-80171997D01*
X69969094Y-80176541D01*
X69880705Y-80264930D01*
X69876161Y-80269049D01*
X69871234Y-80272703D01*
X69865973Y-80275856D01*
X69860429Y-80278478D01*
X69854654Y-80280545D01*
X69848704Y-80282035D01*
X69842637Y-80282935D01*
X69836511Y-80283236D01*
X69830385Y-80282935D01*
X69824318Y-80282035D01*
X69818368Y-80280545D01*
X69812593Y-80278478D01*
X69807049Y-80275856D01*
X69801788Y-80272703D01*
X69796861Y-80269049D01*
X69792317Y-80264930D01*
X69315020Y-79787633D01*
X69310901Y-79783089D01*
X69307247Y-79778162D01*
X69304094Y-79772901D01*
X69301472Y-79767357D01*
X69299405Y-79761582D01*
X69297915Y-79755632D01*
X69297015Y-79749565D01*
X69296714Y-79743439D01*
X69297015Y-79737313D01*
X69297915Y-79731246D01*
X69299405Y-79725296D01*
X69301472Y-79719521D01*
X69304094Y-79713977D01*
X69307247Y-79708716D01*
X69310901Y-79703789D01*
X69315020Y-79699245D01*
X69403409Y-79610856D01*
X69407953Y-79606737D01*
X69412880Y-79603083D01*
X69418141Y-79599930D01*
X69423685Y-79597308D01*
X69429460Y-79595241D01*
X69435410Y-79593751D01*
X69441477Y-79592851D01*
X69447603Y-79592550D01*
X69453729Y-79592851D01*
X69453729Y-79592851D01*
G37*
D11*
X69642057Y-79937893D03*
D10*
G36*
X69100175Y-79946405D02*
G01*
X69106242Y-79947305D01*
X69112192Y-79948795D01*
X69117967Y-79950862D01*
X69123511Y-79953484D01*
X69128772Y-79956637D01*
X69133699Y-79960291D01*
X69138243Y-79964410D01*
X69615540Y-80441707D01*
X69619659Y-80446251D01*
X69623313Y-80451178D01*
X69626466Y-80456439D01*
X69629088Y-80461983D01*
X69631155Y-80467758D01*
X69632645Y-80473708D01*
X69633545Y-80479775D01*
X69633846Y-80485901D01*
X69633545Y-80492027D01*
X69632645Y-80498094D01*
X69631155Y-80504044D01*
X69629088Y-80509819D01*
X69626466Y-80515363D01*
X69623313Y-80520624D01*
X69619659Y-80525551D01*
X69615540Y-80530095D01*
X69527151Y-80618484D01*
X69522607Y-80622603D01*
X69517680Y-80626257D01*
X69512419Y-80629410D01*
X69506875Y-80632032D01*
X69501100Y-80634099D01*
X69495150Y-80635589D01*
X69489083Y-80636489D01*
X69482957Y-80636790D01*
X69476831Y-80636489D01*
X69470764Y-80635589D01*
X69464814Y-80634099D01*
X69459039Y-80632032D01*
X69453495Y-80629410D01*
X69448234Y-80626257D01*
X69443307Y-80622603D01*
X69438763Y-80618484D01*
X68961466Y-80141187D01*
X68957347Y-80136643D01*
X68953693Y-80131716D01*
X68950540Y-80126455D01*
X68947918Y-80120911D01*
X68945851Y-80115136D01*
X68944361Y-80109186D01*
X68943461Y-80103119D01*
X68943160Y-80096993D01*
X68943461Y-80090867D01*
X68944361Y-80084800D01*
X68945851Y-80078850D01*
X68947918Y-80073075D01*
X68950540Y-80067531D01*
X68953693Y-80062270D01*
X68957347Y-80057343D01*
X68961466Y-80052799D01*
X69049855Y-79964410D01*
X69054399Y-79960291D01*
X69059326Y-79956637D01*
X69064587Y-79953484D01*
X69070131Y-79950862D01*
X69075906Y-79948795D01*
X69081856Y-79947305D01*
X69087923Y-79946405D01*
X69094049Y-79946104D01*
X69100175Y-79946405D01*
X69100175Y-79946405D01*
G37*
D11*
X69288503Y-80291447D03*
D10*
G36*
X68746622Y-80299958D02*
G01*
X68752689Y-80300858D01*
X68758639Y-80302348D01*
X68764414Y-80304415D01*
X68769958Y-80307037D01*
X68775219Y-80310190D01*
X68780146Y-80313844D01*
X68784690Y-80317963D01*
X69261987Y-80795260D01*
X69266106Y-80799804D01*
X69269760Y-80804731D01*
X69272913Y-80809992D01*
X69275535Y-80815536D01*
X69277602Y-80821311D01*
X69279092Y-80827261D01*
X69279992Y-80833328D01*
X69280293Y-80839454D01*
X69279992Y-80845580D01*
X69279092Y-80851647D01*
X69277602Y-80857597D01*
X69275535Y-80863372D01*
X69272913Y-80868916D01*
X69269760Y-80874177D01*
X69266106Y-80879104D01*
X69261987Y-80883648D01*
X69173598Y-80972037D01*
X69169054Y-80976156D01*
X69164127Y-80979810D01*
X69158866Y-80982963D01*
X69153322Y-80985585D01*
X69147547Y-80987652D01*
X69141597Y-80989142D01*
X69135530Y-80990042D01*
X69129404Y-80990343D01*
X69123278Y-80990042D01*
X69117211Y-80989142D01*
X69111261Y-80987652D01*
X69105486Y-80985585D01*
X69099942Y-80982963D01*
X69094681Y-80979810D01*
X69089754Y-80976156D01*
X69085210Y-80972037D01*
X68607913Y-80494740D01*
X68603794Y-80490196D01*
X68600140Y-80485269D01*
X68596987Y-80480008D01*
X68594365Y-80474464D01*
X68592298Y-80468689D01*
X68590808Y-80462739D01*
X68589908Y-80456672D01*
X68589607Y-80450546D01*
X68589908Y-80444420D01*
X68590808Y-80438353D01*
X68592298Y-80432403D01*
X68594365Y-80426628D01*
X68596987Y-80421084D01*
X68600140Y-80415823D01*
X68603794Y-80410896D01*
X68607913Y-80406352D01*
X68696302Y-80317963D01*
X68700846Y-80313844D01*
X68705773Y-80310190D01*
X68711034Y-80307037D01*
X68716578Y-80304415D01*
X68722353Y-80302348D01*
X68728303Y-80300858D01*
X68734370Y-80299958D01*
X68740496Y-80299657D01*
X68746622Y-80299958D01*
X68746622Y-80299958D01*
G37*
D11*
X68934950Y-80645000D03*
D10*
G36*
X68145580Y-80299958D02*
G01*
X68151647Y-80300858D01*
X68157597Y-80302348D01*
X68163372Y-80304415D01*
X68168916Y-80307037D01*
X68174177Y-80310190D01*
X68179104Y-80313844D01*
X68183648Y-80317963D01*
X68272037Y-80406352D01*
X68276156Y-80410896D01*
X68279810Y-80415823D01*
X68282963Y-80421084D01*
X68285585Y-80426628D01*
X68287652Y-80432403D01*
X68289142Y-80438353D01*
X68290042Y-80444420D01*
X68290343Y-80450546D01*
X68290042Y-80456672D01*
X68289142Y-80462739D01*
X68287652Y-80468689D01*
X68285585Y-80474464D01*
X68282963Y-80480008D01*
X68279810Y-80485269D01*
X68276156Y-80490196D01*
X68272037Y-80494740D01*
X67794740Y-80972037D01*
X67790196Y-80976156D01*
X67785269Y-80979810D01*
X67780008Y-80982963D01*
X67774464Y-80985585D01*
X67768689Y-80987652D01*
X67762739Y-80989142D01*
X67756672Y-80990042D01*
X67750546Y-80990343D01*
X67744420Y-80990042D01*
X67738353Y-80989142D01*
X67732403Y-80987652D01*
X67726628Y-80985585D01*
X67721084Y-80982963D01*
X67715823Y-80979810D01*
X67710896Y-80976156D01*
X67706352Y-80972037D01*
X67617963Y-80883648D01*
X67613844Y-80879104D01*
X67610190Y-80874177D01*
X67607037Y-80868916D01*
X67604415Y-80863372D01*
X67602348Y-80857597D01*
X67600858Y-80851647D01*
X67599958Y-80845580D01*
X67599657Y-80839454D01*
X67599958Y-80833328D01*
X67600858Y-80827261D01*
X67602348Y-80821311D01*
X67604415Y-80815536D01*
X67607037Y-80809992D01*
X67610190Y-80804731D01*
X67613844Y-80799804D01*
X67617963Y-80795260D01*
X68095260Y-80317963D01*
X68099804Y-80313844D01*
X68104731Y-80310190D01*
X68109992Y-80307037D01*
X68115536Y-80304415D01*
X68121311Y-80302348D01*
X68127261Y-80300858D01*
X68133328Y-80299958D01*
X68139454Y-80299657D01*
X68145580Y-80299958D01*
X68145580Y-80299958D01*
G37*
D11*
X67945000Y-80645000D03*
D10*
G36*
X67792027Y-79946405D02*
G01*
X67798094Y-79947305D01*
X67804044Y-79948795D01*
X67809819Y-79950862D01*
X67815363Y-79953484D01*
X67820624Y-79956637D01*
X67825551Y-79960291D01*
X67830095Y-79964410D01*
X67918484Y-80052799D01*
X67922603Y-80057343D01*
X67926257Y-80062270D01*
X67929410Y-80067531D01*
X67932032Y-80073075D01*
X67934099Y-80078850D01*
X67935589Y-80084800D01*
X67936489Y-80090867D01*
X67936790Y-80096993D01*
X67936489Y-80103119D01*
X67935589Y-80109186D01*
X67934099Y-80115136D01*
X67932032Y-80120911D01*
X67929410Y-80126455D01*
X67926257Y-80131716D01*
X67922603Y-80136643D01*
X67918484Y-80141187D01*
X67441187Y-80618484D01*
X67436643Y-80622603D01*
X67431716Y-80626257D01*
X67426455Y-80629410D01*
X67420911Y-80632032D01*
X67415136Y-80634099D01*
X67409186Y-80635589D01*
X67403119Y-80636489D01*
X67396993Y-80636790D01*
X67390867Y-80636489D01*
X67384800Y-80635589D01*
X67378850Y-80634099D01*
X67373075Y-80632032D01*
X67367531Y-80629410D01*
X67362270Y-80626257D01*
X67357343Y-80622603D01*
X67352799Y-80618484D01*
X67264410Y-80530095D01*
X67260291Y-80525551D01*
X67256637Y-80520624D01*
X67253484Y-80515363D01*
X67250862Y-80509819D01*
X67248795Y-80504044D01*
X67247305Y-80498094D01*
X67246405Y-80492027D01*
X67246104Y-80485901D01*
X67246405Y-80479775D01*
X67247305Y-80473708D01*
X67248795Y-80467758D01*
X67250862Y-80461983D01*
X67253484Y-80456439D01*
X67256637Y-80451178D01*
X67260291Y-80446251D01*
X67264410Y-80441707D01*
X67741707Y-79964410D01*
X67746251Y-79960291D01*
X67751178Y-79956637D01*
X67756439Y-79953484D01*
X67761983Y-79950862D01*
X67767758Y-79948795D01*
X67773708Y-79947305D01*
X67779775Y-79946405D01*
X67785901Y-79946104D01*
X67792027Y-79946405D01*
X67792027Y-79946405D01*
G37*
D11*
X67591447Y-80291447D03*
D10*
G36*
X67438473Y-79592851D02*
G01*
X67444540Y-79593751D01*
X67450490Y-79595241D01*
X67456265Y-79597308D01*
X67461809Y-79599930D01*
X67467070Y-79603083D01*
X67471997Y-79606737D01*
X67476541Y-79610856D01*
X67564930Y-79699245D01*
X67569049Y-79703789D01*
X67572703Y-79708716D01*
X67575856Y-79713977D01*
X67578478Y-79719521D01*
X67580545Y-79725296D01*
X67582035Y-79731246D01*
X67582935Y-79737313D01*
X67583236Y-79743439D01*
X67582935Y-79749565D01*
X67582035Y-79755632D01*
X67580545Y-79761582D01*
X67578478Y-79767357D01*
X67575856Y-79772901D01*
X67572703Y-79778162D01*
X67569049Y-79783089D01*
X67564930Y-79787633D01*
X67087633Y-80264930D01*
X67083089Y-80269049D01*
X67078162Y-80272703D01*
X67072901Y-80275856D01*
X67067357Y-80278478D01*
X67061582Y-80280545D01*
X67055632Y-80282035D01*
X67049565Y-80282935D01*
X67043439Y-80283236D01*
X67037313Y-80282935D01*
X67031246Y-80282035D01*
X67025296Y-80280545D01*
X67019521Y-80278478D01*
X67013977Y-80275856D01*
X67008716Y-80272703D01*
X67003789Y-80269049D01*
X66999245Y-80264930D01*
X66910856Y-80176541D01*
X66906737Y-80171997D01*
X66903083Y-80167070D01*
X66899930Y-80161809D01*
X66897308Y-80156265D01*
X66895241Y-80150490D01*
X66893751Y-80144540D01*
X66892851Y-80138473D01*
X66892550Y-80132347D01*
X66892851Y-80126221D01*
X66893751Y-80120154D01*
X66895241Y-80114204D01*
X66897308Y-80108429D01*
X66899930Y-80102885D01*
X66903083Y-80097624D01*
X66906737Y-80092697D01*
X66910856Y-80088153D01*
X67388153Y-79610856D01*
X67392697Y-79606737D01*
X67397624Y-79603083D01*
X67402885Y-79599930D01*
X67408429Y-79597308D01*
X67414204Y-79595241D01*
X67420154Y-79593751D01*
X67426221Y-79592851D01*
X67432347Y-79592550D01*
X67438473Y-79592851D01*
X67438473Y-79592851D01*
G37*
D11*
X67237893Y-79937893D03*
D10*
G36*
X67084920Y-79239298D02*
G01*
X67090987Y-79240198D01*
X67096937Y-79241688D01*
X67102712Y-79243755D01*
X67108256Y-79246377D01*
X67113517Y-79249530D01*
X67118444Y-79253184D01*
X67122988Y-79257303D01*
X67211377Y-79345692D01*
X67215496Y-79350236D01*
X67219150Y-79355163D01*
X67222303Y-79360424D01*
X67224925Y-79365968D01*
X67226992Y-79371743D01*
X67228482Y-79377693D01*
X67229382Y-79383760D01*
X67229683Y-79389886D01*
X67229382Y-79396012D01*
X67228482Y-79402079D01*
X67226992Y-79408029D01*
X67224925Y-79413804D01*
X67222303Y-79419348D01*
X67219150Y-79424609D01*
X67215496Y-79429536D01*
X67211377Y-79434080D01*
X66734080Y-79911377D01*
X66729536Y-79915496D01*
X66724609Y-79919150D01*
X66719348Y-79922303D01*
X66713804Y-79924925D01*
X66708029Y-79926992D01*
X66702079Y-79928482D01*
X66696012Y-79929382D01*
X66689886Y-79929683D01*
X66683760Y-79929382D01*
X66677693Y-79928482D01*
X66671743Y-79926992D01*
X66665968Y-79924925D01*
X66660424Y-79922303D01*
X66655163Y-79919150D01*
X66650236Y-79915496D01*
X66645692Y-79911377D01*
X66557303Y-79822988D01*
X66553184Y-79818444D01*
X66549530Y-79813517D01*
X66546377Y-79808256D01*
X66543755Y-79802712D01*
X66541688Y-79796937D01*
X66540198Y-79790987D01*
X66539298Y-79784920D01*
X66538997Y-79778794D01*
X66539298Y-79772668D01*
X66540198Y-79766601D01*
X66541688Y-79760651D01*
X66543755Y-79754876D01*
X66546377Y-79749332D01*
X66549530Y-79744071D01*
X66553184Y-79739144D01*
X66557303Y-79734600D01*
X67034600Y-79257303D01*
X67039144Y-79253184D01*
X67044071Y-79249530D01*
X67049332Y-79246377D01*
X67054876Y-79243755D01*
X67060651Y-79241688D01*
X67066601Y-79240198D01*
X67072668Y-79239298D01*
X67078794Y-79238997D01*
X67084920Y-79239298D01*
X67084920Y-79239298D01*
G37*
D11*
X66884340Y-79584340D03*
D10*
G36*
X66731367Y-78885744D02*
G01*
X66737434Y-78886644D01*
X66743384Y-78888134D01*
X66749159Y-78890201D01*
X66754703Y-78892823D01*
X66759964Y-78895976D01*
X66764891Y-78899630D01*
X66769435Y-78903749D01*
X66857824Y-78992138D01*
X66861943Y-78996682D01*
X66865597Y-79001609D01*
X66868750Y-79006870D01*
X66871372Y-79012414D01*
X66873439Y-79018189D01*
X66874929Y-79024139D01*
X66875829Y-79030206D01*
X66876130Y-79036332D01*
X66875829Y-79042458D01*
X66874929Y-79048525D01*
X66873439Y-79054475D01*
X66871372Y-79060250D01*
X66868750Y-79065794D01*
X66865597Y-79071055D01*
X66861943Y-79075982D01*
X66857824Y-79080526D01*
X66380527Y-79557823D01*
X66375983Y-79561942D01*
X66371056Y-79565596D01*
X66365795Y-79568749D01*
X66360251Y-79571371D01*
X66354476Y-79573438D01*
X66348526Y-79574928D01*
X66342459Y-79575828D01*
X66336333Y-79576129D01*
X66330207Y-79575828D01*
X66324140Y-79574928D01*
X66318190Y-79573438D01*
X66312415Y-79571371D01*
X66306871Y-79568749D01*
X66301610Y-79565596D01*
X66296683Y-79561942D01*
X66292139Y-79557823D01*
X66203750Y-79469434D01*
X66199631Y-79464890D01*
X66195977Y-79459963D01*
X66192824Y-79454702D01*
X66190202Y-79449158D01*
X66188135Y-79443383D01*
X66186645Y-79437433D01*
X66185745Y-79431366D01*
X66185444Y-79425240D01*
X66185745Y-79419114D01*
X66186645Y-79413047D01*
X66188135Y-79407097D01*
X66190202Y-79401322D01*
X66192824Y-79395778D01*
X66195977Y-79390517D01*
X66199631Y-79385590D01*
X66203750Y-79381046D01*
X66681047Y-78903749D01*
X66685591Y-78899630D01*
X66690518Y-78895976D01*
X66695779Y-78892823D01*
X66701323Y-78890201D01*
X66707098Y-78888134D01*
X66713048Y-78886644D01*
X66719115Y-78885744D01*
X66725241Y-78885443D01*
X66731367Y-78885744D01*
X66731367Y-78885744D01*
G37*
D11*
X66530787Y-79230786D03*
D10*
G36*
X66377813Y-78532191D02*
G01*
X66383880Y-78533091D01*
X66389830Y-78534581D01*
X66395605Y-78536648D01*
X66401149Y-78539270D01*
X66406410Y-78542423D01*
X66411337Y-78546077D01*
X66415881Y-78550196D01*
X66504270Y-78638585D01*
X66508389Y-78643129D01*
X66512043Y-78648056D01*
X66515196Y-78653317D01*
X66517818Y-78658861D01*
X66519885Y-78664636D01*
X66521375Y-78670586D01*
X66522275Y-78676653D01*
X66522576Y-78682779D01*
X66522275Y-78688905D01*
X66521375Y-78694972D01*
X66519885Y-78700922D01*
X66517818Y-78706697D01*
X66515196Y-78712241D01*
X66512043Y-78717502D01*
X66508389Y-78722429D01*
X66504270Y-78726973D01*
X66026973Y-79204270D01*
X66022429Y-79208389D01*
X66017502Y-79212043D01*
X66012241Y-79215196D01*
X66006697Y-79217818D01*
X66000922Y-79219885D01*
X65994972Y-79221375D01*
X65988905Y-79222275D01*
X65982779Y-79222576D01*
X65976653Y-79222275D01*
X65970586Y-79221375D01*
X65964636Y-79219885D01*
X65958861Y-79217818D01*
X65953317Y-79215196D01*
X65948056Y-79212043D01*
X65943129Y-79208389D01*
X65938585Y-79204270D01*
X65850196Y-79115881D01*
X65846077Y-79111337D01*
X65842423Y-79106410D01*
X65839270Y-79101149D01*
X65836648Y-79095605D01*
X65834581Y-79089830D01*
X65833091Y-79083880D01*
X65832191Y-79077813D01*
X65831890Y-79071687D01*
X65832191Y-79065561D01*
X65833091Y-79059494D01*
X65834581Y-79053544D01*
X65836648Y-79047769D01*
X65839270Y-79042225D01*
X65842423Y-79036964D01*
X65846077Y-79032037D01*
X65850196Y-79027493D01*
X66327493Y-78550196D01*
X66332037Y-78546077D01*
X66336964Y-78542423D01*
X66342225Y-78539270D01*
X66347769Y-78536648D01*
X66353544Y-78534581D01*
X66359494Y-78533091D01*
X66365561Y-78532191D01*
X66371687Y-78531890D01*
X66377813Y-78532191D01*
X66377813Y-78532191D01*
G37*
D11*
X66177233Y-78877233D03*
D10*
G36*
X66024260Y-78178638D02*
G01*
X66030327Y-78179538D01*
X66036277Y-78181028D01*
X66042052Y-78183095D01*
X66047596Y-78185717D01*
X66052857Y-78188870D01*
X66057784Y-78192524D01*
X66062328Y-78196643D01*
X66150717Y-78285032D01*
X66154836Y-78289576D01*
X66158490Y-78294503D01*
X66161643Y-78299764D01*
X66164265Y-78305308D01*
X66166332Y-78311083D01*
X66167822Y-78317033D01*
X66168722Y-78323100D01*
X66169023Y-78329226D01*
X66168722Y-78335352D01*
X66167822Y-78341419D01*
X66166332Y-78347369D01*
X66164265Y-78353144D01*
X66161643Y-78358688D01*
X66158490Y-78363949D01*
X66154836Y-78368876D01*
X66150717Y-78373420D01*
X65673420Y-78850717D01*
X65668876Y-78854836D01*
X65663949Y-78858490D01*
X65658688Y-78861643D01*
X65653144Y-78864265D01*
X65647369Y-78866332D01*
X65641419Y-78867822D01*
X65635352Y-78868722D01*
X65629226Y-78869023D01*
X65623100Y-78868722D01*
X65617033Y-78867822D01*
X65611083Y-78866332D01*
X65605308Y-78864265D01*
X65599764Y-78861643D01*
X65594503Y-78858490D01*
X65589576Y-78854836D01*
X65585032Y-78850717D01*
X65496643Y-78762328D01*
X65492524Y-78757784D01*
X65488870Y-78752857D01*
X65485717Y-78747596D01*
X65483095Y-78742052D01*
X65481028Y-78736277D01*
X65479538Y-78730327D01*
X65478638Y-78724260D01*
X65478337Y-78718134D01*
X65478638Y-78712008D01*
X65479538Y-78705941D01*
X65481028Y-78699991D01*
X65483095Y-78694216D01*
X65485717Y-78688672D01*
X65488870Y-78683411D01*
X65492524Y-78678484D01*
X65496643Y-78673940D01*
X65973940Y-78196643D01*
X65978484Y-78192524D01*
X65983411Y-78188870D01*
X65988672Y-78185717D01*
X65994216Y-78183095D01*
X65999991Y-78181028D01*
X66005941Y-78179538D01*
X66012008Y-78178638D01*
X66018134Y-78178337D01*
X66024260Y-78178638D01*
X66024260Y-78178638D01*
G37*
D11*
X65823680Y-78523680D03*
D10*
G36*
X65670707Y-77825084D02*
G01*
X65676774Y-77825984D01*
X65682724Y-77827474D01*
X65688499Y-77829541D01*
X65694043Y-77832163D01*
X65699304Y-77835316D01*
X65704231Y-77838970D01*
X65708775Y-77843089D01*
X65797164Y-77931478D01*
X65801283Y-77936022D01*
X65804937Y-77940949D01*
X65808090Y-77946210D01*
X65810712Y-77951754D01*
X65812779Y-77957529D01*
X65814269Y-77963479D01*
X65815169Y-77969546D01*
X65815470Y-77975672D01*
X65815169Y-77981798D01*
X65814269Y-77987865D01*
X65812779Y-77993815D01*
X65810712Y-77999590D01*
X65808090Y-78005134D01*
X65804937Y-78010395D01*
X65801283Y-78015322D01*
X65797164Y-78019866D01*
X65319867Y-78497163D01*
X65315323Y-78501282D01*
X65310396Y-78504936D01*
X65305135Y-78508089D01*
X65299591Y-78510711D01*
X65293816Y-78512778D01*
X65287866Y-78514268D01*
X65281799Y-78515168D01*
X65275673Y-78515469D01*
X65269547Y-78515168D01*
X65263480Y-78514268D01*
X65257530Y-78512778D01*
X65251755Y-78510711D01*
X65246211Y-78508089D01*
X65240950Y-78504936D01*
X65236023Y-78501282D01*
X65231479Y-78497163D01*
X65143090Y-78408774D01*
X65138971Y-78404230D01*
X65135317Y-78399303D01*
X65132164Y-78394042D01*
X65129542Y-78388498D01*
X65127475Y-78382723D01*
X65125985Y-78376773D01*
X65125085Y-78370706D01*
X65124784Y-78364580D01*
X65125085Y-78358454D01*
X65125985Y-78352387D01*
X65127475Y-78346437D01*
X65129542Y-78340662D01*
X65132164Y-78335118D01*
X65135317Y-78329857D01*
X65138971Y-78324930D01*
X65143090Y-78320386D01*
X65620387Y-77843089D01*
X65624931Y-77838970D01*
X65629858Y-77835316D01*
X65635119Y-77832163D01*
X65640663Y-77829541D01*
X65646438Y-77827474D01*
X65652388Y-77825984D01*
X65658455Y-77825084D01*
X65664581Y-77824783D01*
X65670707Y-77825084D01*
X65670707Y-77825084D01*
G37*
D11*
X65470127Y-78170126D03*
D10*
G36*
X65317153Y-77471531D02*
G01*
X65323220Y-77472431D01*
X65329170Y-77473921D01*
X65334945Y-77475988D01*
X65340489Y-77478610D01*
X65345750Y-77481763D01*
X65350677Y-77485417D01*
X65355221Y-77489536D01*
X65443610Y-77577925D01*
X65447729Y-77582469D01*
X65451383Y-77587396D01*
X65454536Y-77592657D01*
X65457158Y-77598201D01*
X65459225Y-77603976D01*
X65460715Y-77609926D01*
X65461615Y-77615993D01*
X65461916Y-77622119D01*
X65461615Y-77628245D01*
X65460715Y-77634312D01*
X65459225Y-77640262D01*
X65457158Y-77646037D01*
X65454536Y-77651581D01*
X65451383Y-77656842D01*
X65447729Y-77661769D01*
X65443610Y-77666313D01*
X64966313Y-78143610D01*
X64961769Y-78147729D01*
X64956842Y-78151383D01*
X64951581Y-78154536D01*
X64946037Y-78157158D01*
X64940262Y-78159225D01*
X64934312Y-78160715D01*
X64928245Y-78161615D01*
X64922119Y-78161916D01*
X64915993Y-78161615D01*
X64909926Y-78160715D01*
X64903976Y-78159225D01*
X64898201Y-78157158D01*
X64892657Y-78154536D01*
X64887396Y-78151383D01*
X64882469Y-78147729D01*
X64877925Y-78143610D01*
X64789536Y-78055221D01*
X64785417Y-78050677D01*
X64781763Y-78045750D01*
X64778610Y-78040489D01*
X64775988Y-78034945D01*
X64773921Y-78029170D01*
X64772431Y-78023220D01*
X64771531Y-78017153D01*
X64771230Y-78011027D01*
X64771531Y-78004901D01*
X64772431Y-77998834D01*
X64773921Y-77992884D01*
X64775988Y-77987109D01*
X64778610Y-77981565D01*
X64781763Y-77976304D01*
X64785417Y-77971377D01*
X64789536Y-77966833D01*
X65266833Y-77489536D01*
X65271377Y-77485417D01*
X65276304Y-77481763D01*
X65281565Y-77478610D01*
X65287109Y-77475988D01*
X65292884Y-77473921D01*
X65298834Y-77472431D01*
X65304901Y-77471531D01*
X65311027Y-77471230D01*
X65317153Y-77471531D01*
X65317153Y-77471531D01*
G37*
D11*
X65116573Y-77816573D03*
D10*
G36*
X64963600Y-77117978D02*
G01*
X64969667Y-77118878D01*
X64975617Y-77120368D01*
X64981392Y-77122435D01*
X64986936Y-77125057D01*
X64992197Y-77128210D01*
X64997124Y-77131864D01*
X65001668Y-77135983D01*
X65090057Y-77224372D01*
X65094176Y-77228916D01*
X65097830Y-77233843D01*
X65100983Y-77239104D01*
X65103605Y-77244648D01*
X65105672Y-77250423D01*
X65107162Y-77256373D01*
X65108062Y-77262440D01*
X65108363Y-77268566D01*
X65108062Y-77274692D01*
X65107162Y-77280759D01*
X65105672Y-77286709D01*
X65103605Y-77292484D01*
X65100983Y-77298028D01*
X65097830Y-77303289D01*
X65094176Y-77308216D01*
X65090057Y-77312760D01*
X64612760Y-77790057D01*
X64608216Y-77794176D01*
X64603289Y-77797830D01*
X64598028Y-77800983D01*
X64592484Y-77803605D01*
X64586709Y-77805672D01*
X64580759Y-77807162D01*
X64574692Y-77808062D01*
X64568566Y-77808363D01*
X64562440Y-77808062D01*
X64556373Y-77807162D01*
X64550423Y-77805672D01*
X64544648Y-77803605D01*
X64539104Y-77800983D01*
X64533843Y-77797830D01*
X64528916Y-77794176D01*
X64524372Y-77790057D01*
X64435983Y-77701668D01*
X64431864Y-77697124D01*
X64428210Y-77692197D01*
X64425057Y-77686936D01*
X64422435Y-77681392D01*
X64420368Y-77675617D01*
X64418878Y-77669667D01*
X64417978Y-77663600D01*
X64417677Y-77657474D01*
X64417978Y-77651348D01*
X64418878Y-77645281D01*
X64420368Y-77639331D01*
X64422435Y-77633556D01*
X64425057Y-77628012D01*
X64428210Y-77622751D01*
X64431864Y-77617824D01*
X64435983Y-77613280D01*
X64913280Y-77135983D01*
X64917824Y-77131864D01*
X64922751Y-77128210D01*
X64928012Y-77125057D01*
X64933556Y-77122435D01*
X64939331Y-77120368D01*
X64945281Y-77118878D01*
X64951348Y-77117978D01*
X64957474Y-77117677D01*
X64963600Y-77117978D01*
X64963600Y-77117978D01*
G37*
D11*
X64763020Y-77463020D03*
D10*
G36*
X64610046Y-76764424D02*
G01*
X64616113Y-76765324D01*
X64622063Y-76766814D01*
X64627838Y-76768881D01*
X64633382Y-76771503D01*
X64638643Y-76774656D01*
X64643570Y-76778310D01*
X64648114Y-76782429D01*
X64736503Y-76870818D01*
X64740622Y-76875362D01*
X64744276Y-76880289D01*
X64747429Y-76885550D01*
X64750051Y-76891094D01*
X64752118Y-76896869D01*
X64753608Y-76902819D01*
X64754508Y-76908886D01*
X64754809Y-76915012D01*
X64754508Y-76921138D01*
X64753608Y-76927205D01*
X64752118Y-76933155D01*
X64750051Y-76938930D01*
X64747429Y-76944474D01*
X64744276Y-76949735D01*
X64740622Y-76954662D01*
X64736503Y-76959206D01*
X64259206Y-77436503D01*
X64254662Y-77440622D01*
X64249735Y-77444276D01*
X64244474Y-77447429D01*
X64238930Y-77450051D01*
X64233155Y-77452118D01*
X64227205Y-77453608D01*
X64221138Y-77454508D01*
X64215012Y-77454809D01*
X64208886Y-77454508D01*
X64202819Y-77453608D01*
X64196869Y-77452118D01*
X64191094Y-77450051D01*
X64185550Y-77447429D01*
X64180289Y-77444276D01*
X64175362Y-77440622D01*
X64170818Y-77436503D01*
X64082429Y-77348114D01*
X64078310Y-77343570D01*
X64074656Y-77338643D01*
X64071503Y-77333382D01*
X64068881Y-77327838D01*
X64066814Y-77322063D01*
X64065324Y-77316113D01*
X64064424Y-77310046D01*
X64064123Y-77303920D01*
X64064424Y-77297794D01*
X64065324Y-77291727D01*
X64066814Y-77285777D01*
X64068881Y-77280002D01*
X64071503Y-77274458D01*
X64074656Y-77269197D01*
X64078310Y-77264270D01*
X64082429Y-77259726D01*
X64559726Y-76782429D01*
X64564270Y-76778310D01*
X64569197Y-76774656D01*
X64574458Y-76771503D01*
X64580002Y-76768881D01*
X64585777Y-76766814D01*
X64591727Y-76765324D01*
X64597794Y-76764424D01*
X64603920Y-76764123D01*
X64610046Y-76764424D01*
X64610046Y-76764424D01*
G37*
D11*
X64409466Y-77109466D03*
D10*
G36*
X64256493Y-76410871D02*
G01*
X64262560Y-76411771D01*
X64268510Y-76413261D01*
X64274285Y-76415328D01*
X64279829Y-76417950D01*
X64285090Y-76421103D01*
X64290017Y-76424757D01*
X64294561Y-76428876D01*
X64382950Y-76517265D01*
X64387069Y-76521809D01*
X64390723Y-76526736D01*
X64393876Y-76531997D01*
X64396498Y-76537541D01*
X64398565Y-76543316D01*
X64400055Y-76549266D01*
X64400955Y-76555333D01*
X64401256Y-76561459D01*
X64400955Y-76567585D01*
X64400055Y-76573652D01*
X64398565Y-76579602D01*
X64396498Y-76585377D01*
X64393876Y-76590921D01*
X64390723Y-76596182D01*
X64387069Y-76601109D01*
X64382950Y-76605653D01*
X63905653Y-77082950D01*
X63901109Y-77087069D01*
X63896182Y-77090723D01*
X63890921Y-77093876D01*
X63885377Y-77096498D01*
X63879602Y-77098565D01*
X63873652Y-77100055D01*
X63867585Y-77100955D01*
X63861459Y-77101256D01*
X63855333Y-77100955D01*
X63849266Y-77100055D01*
X63843316Y-77098565D01*
X63837541Y-77096498D01*
X63831997Y-77093876D01*
X63826736Y-77090723D01*
X63821809Y-77087069D01*
X63817265Y-77082950D01*
X63728876Y-76994561D01*
X63724757Y-76990017D01*
X63721103Y-76985090D01*
X63717950Y-76979829D01*
X63715328Y-76974285D01*
X63713261Y-76968510D01*
X63711771Y-76962560D01*
X63710871Y-76956493D01*
X63710570Y-76950367D01*
X63710871Y-76944241D01*
X63711771Y-76938174D01*
X63713261Y-76932224D01*
X63715328Y-76926449D01*
X63717950Y-76920905D01*
X63721103Y-76915644D01*
X63724757Y-76910717D01*
X63728876Y-76906173D01*
X64206173Y-76428876D01*
X64210717Y-76424757D01*
X64215644Y-76421103D01*
X64220905Y-76417950D01*
X64226449Y-76415328D01*
X64232224Y-76413261D01*
X64238174Y-76411771D01*
X64244241Y-76410871D01*
X64250367Y-76410570D01*
X64256493Y-76410871D01*
X64256493Y-76410871D01*
G37*
D11*
X64055913Y-76755913D03*
D10*
G36*
X63867585Y-75420921D02*
G01*
X63873652Y-75421821D01*
X63879602Y-75423311D01*
X63885377Y-75425378D01*
X63890921Y-75428000D01*
X63896182Y-75431153D01*
X63901109Y-75434807D01*
X63905653Y-75438926D01*
X64382950Y-75916223D01*
X64387069Y-75920767D01*
X64390723Y-75925694D01*
X64393876Y-75930955D01*
X64396498Y-75936499D01*
X64398565Y-75942274D01*
X64400055Y-75948224D01*
X64400955Y-75954291D01*
X64401256Y-75960417D01*
X64400955Y-75966543D01*
X64400055Y-75972610D01*
X64398565Y-75978560D01*
X64396498Y-75984335D01*
X64393876Y-75989879D01*
X64390723Y-75995140D01*
X64387069Y-76000067D01*
X64382950Y-76004611D01*
X64294561Y-76093000D01*
X64290017Y-76097119D01*
X64285090Y-76100773D01*
X64279829Y-76103926D01*
X64274285Y-76106548D01*
X64268510Y-76108615D01*
X64262560Y-76110105D01*
X64256493Y-76111005D01*
X64250367Y-76111306D01*
X64244241Y-76111005D01*
X64238174Y-76110105D01*
X64232224Y-76108615D01*
X64226449Y-76106548D01*
X64220905Y-76103926D01*
X64215644Y-76100773D01*
X64210717Y-76097119D01*
X64206173Y-76093000D01*
X63728876Y-75615703D01*
X63724757Y-75611159D01*
X63721103Y-75606232D01*
X63717950Y-75600971D01*
X63715328Y-75595427D01*
X63713261Y-75589652D01*
X63711771Y-75583702D01*
X63710871Y-75577635D01*
X63710570Y-75571509D01*
X63710871Y-75565383D01*
X63711771Y-75559316D01*
X63713261Y-75553366D01*
X63715328Y-75547591D01*
X63717950Y-75542047D01*
X63721103Y-75536786D01*
X63724757Y-75531859D01*
X63728876Y-75527315D01*
X63817265Y-75438926D01*
X63821809Y-75434807D01*
X63826736Y-75431153D01*
X63831997Y-75428000D01*
X63837541Y-75425378D01*
X63843316Y-75423311D01*
X63849266Y-75421821D01*
X63855333Y-75420921D01*
X63861459Y-75420620D01*
X63867585Y-75420921D01*
X63867585Y-75420921D01*
G37*
D11*
X64055913Y-75765963D03*
D10*
G36*
X64221138Y-75067368D02*
G01*
X64227205Y-75068268D01*
X64233155Y-75069758D01*
X64238930Y-75071825D01*
X64244474Y-75074447D01*
X64249735Y-75077600D01*
X64254662Y-75081254D01*
X64259206Y-75085373D01*
X64736503Y-75562670D01*
X64740622Y-75567214D01*
X64744276Y-75572141D01*
X64747429Y-75577402D01*
X64750051Y-75582946D01*
X64752118Y-75588721D01*
X64753608Y-75594671D01*
X64754508Y-75600738D01*
X64754809Y-75606864D01*
X64754508Y-75612990D01*
X64753608Y-75619057D01*
X64752118Y-75625007D01*
X64750051Y-75630782D01*
X64747429Y-75636326D01*
X64744276Y-75641587D01*
X64740622Y-75646514D01*
X64736503Y-75651058D01*
X64648114Y-75739447D01*
X64643570Y-75743566D01*
X64638643Y-75747220D01*
X64633382Y-75750373D01*
X64627838Y-75752995D01*
X64622063Y-75755062D01*
X64616113Y-75756552D01*
X64610046Y-75757452D01*
X64603920Y-75757753D01*
X64597794Y-75757452D01*
X64591727Y-75756552D01*
X64585777Y-75755062D01*
X64580002Y-75752995D01*
X64574458Y-75750373D01*
X64569197Y-75747220D01*
X64564270Y-75743566D01*
X64559726Y-75739447D01*
X64082429Y-75262150D01*
X64078310Y-75257606D01*
X64074656Y-75252679D01*
X64071503Y-75247418D01*
X64068881Y-75241874D01*
X64066814Y-75236099D01*
X64065324Y-75230149D01*
X64064424Y-75224082D01*
X64064123Y-75217956D01*
X64064424Y-75211830D01*
X64065324Y-75205763D01*
X64066814Y-75199813D01*
X64068881Y-75194038D01*
X64071503Y-75188494D01*
X64074656Y-75183233D01*
X64078310Y-75178306D01*
X64082429Y-75173762D01*
X64170818Y-75085373D01*
X64175362Y-75081254D01*
X64180289Y-75077600D01*
X64185550Y-75074447D01*
X64191094Y-75071825D01*
X64196869Y-75069758D01*
X64202819Y-75068268D01*
X64208886Y-75067368D01*
X64215012Y-75067067D01*
X64221138Y-75067368D01*
X64221138Y-75067368D01*
G37*
D11*
X64409466Y-75412410D03*
D10*
G36*
X64574692Y-74713814D02*
G01*
X64580759Y-74714714D01*
X64586709Y-74716204D01*
X64592484Y-74718271D01*
X64598028Y-74720893D01*
X64603289Y-74724046D01*
X64608216Y-74727700D01*
X64612760Y-74731819D01*
X65090057Y-75209116D01*
X65094176Y-75213660D01*
X65097830Y-75218587D01*
X65100983Y-75223848D01*
X65103605Y-75229392D01*
X65105672Y-75235167D01*
X65107162Y-75241117D01*
X65108062Y-75247184D01*
X65108363Y-75253310D01*
X65108062Y-75259436D01*
X65107162Y-75265503D01*
X65105672Y-75271453D01*
X65103605Y-75277228D01*
X65100983Y-75282772D01*
X65097830Y-75288033D01*
X65094176Y-75292960D01*
X65090057Y-75297504D01*
X65001668Y-75385893D01*
X64997124Y-75390012D01*
X64992197Y-75393666D01*
X64986936Y-75396819D01*
X64981392Y-75399441D01*
X64975617Y-75401508D01*
X64969667Y-75402998D01*
X64963600Y-75403898D01*
X64957474Y-75404199D01*
X64951348Y-75403898D01*
X64945281Y-75402998D01*
X64939331Y-75401508D01*
X64933556Y-75399441D01*
X64928012Y-75396819D01*
X64922751Y-75393666D01*
X64917824Y-75390012D01*
X64913280Y-75385893D01*
X64435983Y-74908596D01*
X64431864Y-74904052D01*
X64428210Y-74899125D01*
X64425057Y-74893864D01*
X64422435Y-74888320D01*
X64420368Y-74882545D01*
X64418878Y-74876595D01*
X64417978Y-74870528D01*
X64417677Y-74864402D01*
X64417978Y-74858276D01*
X64418878Y-74852209D01*
X64420368Y-74846259D01*
X64422435Y-74840484D01*
X64425057Y-74834940D01*
X64428210Y-74829679D01*
X64431864Y-74824752D01*
X64435983Y-74820208D01*
X64524372Y-74731819D01*
X64528916Y-74727700D01*
X64533843Y-74724046D01*
X64539104Y-74720893D01*
X64544648Y-74718271D01*
X64550423Y-74716204D01*
X64556373Y-74714714D01*
X64562440Y-74713814D01*
X64568566Y-74713513D01*
X64574692Y-74713814D01*
X64574692Y-74713814D01*
G37*
D11*
X64763020Y-75058856D03*
D10*
G36*
X64928245Y-74360261D02*
G01*
X64934312Y-74361161D01*
X64940262Y-74362651D01*
X64946037Y-74364718D01*
X64951581Y-74367340D01*
X64956842Y-74370493D01*
X64961769Y-74374147D01*
X64966313Y-74378266D01*
X65443610Y-74855563D01*
X65447729Y-74860107D01*
X65451383Y-74865034D01*
X65454536Y-74870295D01*
X65457158Y-74875839D01*
X65459225Y-74881614D01*
X65460715Y-74887564D01*
X65461615Y-74893631D01*
X65461916Y-74899757D01*
X65461615Y-74905883D01*
X65460715Y-74911950D01*
X65459225Y-74917900D01*
X65457158Y-74923675D01*
X65454536Y-74929219D01*
X65451383Y-74934480D01*
X65447729Y-74939407D01*
X65443610Y-74943951D01*
X65355221Y-75032340D01*
X65350677Y-75036459D01*
X65345750Y-75040113D01*
X65340489Y-75043266D01*
X65334945Y-75045888D01*
X65329170Y-75047955D01*
X65323220Y-75049445D01*
X65317153Y-75050345D01*
X65311027Y-75050646D01*
X65304901Y-75050345D01*
X65298834Y-75049445D01*
X65292884Y-75047955D01*
X65287109Y-75045888D01*
X65281565Y-75043266D01*
X65276304Y-75040113D01*
X65271377Y-75036459D01*
X65266833Y-75032340D01*
X64789536Y-74555043D01*
X64785417Y-74550499D01*
X64781763Y-74545572D01*
X64778610Y-74540311D01*
X64775988Y-74534767D01*
X64773921Y-74528992D01*
X64772431Y-74523042D01*
X64771531Y-74516975D01*
X64771230Y-74510849D01*
X64771531Y-74504723D01*
X64772431Y-74498656D01*
X64773921Y-74492706D01*
X64775988Y-74486931D01*
X64778610Y-74481387D01*
X64781763Y-74476126D01*
X64785417Y-74471199D01*
X64789536Y-74466655D01*
X64877925Y-74378266D01*
X64882469Y-74374147D01*
X64887396Y-74370493D01*
X64892657Y-74367340D01*
X64898201Y-74364718D01*
X64903976Y-74362651D01*
X64909926Y-74361161D01*
X64915993Y-74360261D01*
X64922119Y-74359960D01*
X64928245Y-74360261D01*
X64928245Y-74360261D01*
G37*
D11*
X65116573Y-74705303D03*
D10*
G36*
X65281799Y-74006708D02*
G01*
X65287866Y-74007608D01*
X65293816Y-74009098D01*
X65299591Y-74011165D01*
X65305135Y-74013787D01*
X65310396Y-74016940D01*
X65315323Y-74020594D01*
X65319867Y-74024713D01*
X65797164Y-74502010D01*
X65801283Y-74506554D01*
X65804937Y-74511481D01*
X65808090Y-74516742D01*
X65810712Y-74522286D01*
X65812779Y-74528061D01*
X65814269Y-74534011D01*
X65815169Y-74540078D01*
X65815470Y-74546204D01*
X65815169Y-74552330D01*
X65814269Y-74558397D01*
X65812779Y-74564347D01*
X65810712Y-74570122D01*
X65808090Y-74575666D01*
X65804937Y-74580927D01*
X65801283Y-74585854D01*
X65797164Y-74590398D01*
X65708775Y-74678787D01*
X65704231Y-74682906D01*
X65699304Y-74686560D01*
X65694043Y-74689713D01*
X65688499Y-74692335D01*
X65682724Y-74694402D01*
X65676774Y-74695892D01*
X65670707Y-74696792D01*
X65664581Y-74697093D01*
X65658455Y-74696792D01*
X65652388Y-74695892D01*
X65646438Y-74694402D01*
X65640663Y-74692335D01*
X65635119Y-74689713D01*
X65629858Y-74686560D01*
X65624931Y-74682906D01*
X65620387Y-74678787D01*
X65143090Y-74201490D01*
X65138971Y-74196946D01*
X65135317Y-74192019D01*
X65132164Y-74186758D01*
X65129542Y-74181214D01*
X65127475Y-74175439D01*
X65125985Y-74169489D01*
X65125085Y-74163422D01*
X65124784Y-74157296D01*
X65125085Y-74151170D01*
X65125985Y-74145103D01*
X65127475Y-74139153D01*
X65129542Y-74133378D01*
X65132164Y-74127834D01*
X65135317Y-74122573D01*
X65138971Y-74117646D01*
X65143090Y-74113102D01*
X65231479Y-74024713D01*
X65236023Y-74020594D01*
X65240950Y-74016940D01*
X65246211Y-74013787D01*
X65251755Y-74011165D01*
X65257530Y-74009098D01*
X65263480Y-74007608D01*
X65269547Y-74006708D01*
X65275673Y-74006407D01*
X65281799Y-74006708D01*
X65281799Y-74006708D01*
G37*
D11*
X65470127Y-74351750D03*
D10*
G36*
X65635352Y-73653154D02*
G01*
X65641419Y-73654054D01*
X65647369Y-73655544D01*
X65653144Y-73657611D01*
X65658688Y-73660233D01*
X65663949Y-73663386D01*
X65668876Y-73667040D01*
X65673420Y-73671159D01*
X66150717Y-74148456D01*
X66154836Y-74153000D01*
X66158490Y-74157927D01*
X66161643Y-74163188D01*
X66164265Y-74168732D01*
X66166332Y-74174507D01*
X66167822Y-74180457D01*
X66168722Y-74186524D01*
X66169023Y-74192650D01*
X66168722Y-74198776D01*
X66167822Y-74204843D01*
X66166332Y-74210793D01*
X66164265Y-74216568D01*
X66161643Y-74222112D01*
X66158490Y-74227373D01*
X66154836Y-74232300D01*
X66150717Y-74236844D01*
X66062328Y-74325233D01*
X66057784Y-74329352D01*
X66052857Y-74333006D01*
X66047596Y-74336159D01*
X66042052Y-74338781D01*
X66036277Y-74340848D01*
X66030327Y-74342338D01*
X66024260Y-74343238D01*
X66018134Y-74343539D01*
X66012008Y-74343238D01*
X66005941Y-74342338D01*
X65999991Y-74340848D01*
X65994216Y-74338781D01*
X65988672Y-74336159D01*
X65983411Y-74333006D01*
X65978484Y-74329352D01*
X65973940Y-74325233D01*
X65496643Y-73847936D01*
X65492524Y-73843392D01*
X65488870Y-73838465D01*
X65485717Y-73833204D01*
X65483095Y-73827660D01*
X65481028Y-73821885D01*
X65479538Y-73815935D01*
X65478638Y-73809868D01*
X65478337Y-73803742D01*
X65478638Y-73797616D01*
X65479538Y-73791549D01*
X65481028Y-73785599D01*
X65483095Y-73779824D01*
X65485717Y-73774280D01*
X65488870Y-73769019D01*
X65492524Y-73764092D01*
X65496643Y-73759548D01*
X65585032Y-73671159D01*
X65589576Y-73667040D01*
X65594503Y-73663386D01*
X65599764Y-73660233D01*
X65605308Y-73657611D01*
X65611083Y-73655544D01*
X65617033Y-73654054D01*
X65623100Y-73653154D01*
X65629226Y-73652853D01*
X65635352Y-73653154D01*
X65635352Y-73653154D01*
G37*
D11*
X65823680Y-73998196D03*
D10*
G36*
X65988905Y-73299601D02*
G01*
X65994972Y-73300501D01*
X66000922Y-73301991D01*
X66006697Y-73304058D01*
X66012241Y-73306680D01*
X66017502Y-73309833D01*
X66022429Y-73313487D01*
X66026973Y-73317606D01*
X66504270Y-73794903D01*
X66508389Y-73799447D01*
X66512043Y-73804374D01*
X66515196Y-73809635D01*
X66517818Y-73815179D01*
X66519885Y-73820954D01*
X66521375Y-73826904D01*
X66522275Y-73832971D01*
X66522576Y-73839097D01*
X66522275Y-73845223D01*
X66521375Y-73851290D01*
X66519885Y-73857240D01*
X66517818Y-73863015D01*
X66515196Y-73868559D01*
X66512043Y-73873820D01*
X66508389Y-73878747D01*
X66504270Y-73883291D01*
X66415881Y-73971680D01*
X66411337Y-73975799D01*
X66406410Y-73979453D01*
X66401149Y-73982606D01*
X66395605Y-73985228D01*
X66389830Y-73987295D01*
X66383880Y-73988785D01*
X66377813Y-73989685D01*
X66371687Y-73989986D01*
X66365561Y-73989685D01*
X66359494Y-73988785D01*
X66353544Y-73987295D01*
X66347769Y-73985228D01*
X66342225Y-73982606D01*
X66336964Y-73979453D01*
X66332037Y-73975799D01*
X66327493Y-73971680D01*
X65850196Y-73494383D01*
X65846077Y-73489839D01*
X65842423Y-73484912D01*
X65839270Y-73479651D01*
X65836648Y-73474107D01*
X65834581Y-73468332D01*
X65833091Y-73462382D01*
X65832191Y-73456315D01*
X65831890Y-73450189D01*
X65832191Y-73444063D01*
X65833091Y-73437996D01*
X65834581Y-73432046D01*
X65836648Y-73426271D01*
X65839270Y-73420727D01*
X65842423Y-73415466D01*
X65846077Y-73410539D01*
X65850196Y-73405995D01*
X65938585Y-73317606D01*
X65943129Y-73313487D01*
X65948056Y-73309833D01*
X65953317Y-73306680D01*
X65958861Y-73304058D01*
X65964636Y-73301991D01*
X65970586Y-73300501D01*
X65976653Y-73299601D01*
X65982779Y-73299300D01*
X65988905Y-73299601D01*
X65988905Y-73299601D01*
G37*
D11*
X66177233Y-73644643D03*
D10*
G36*
X66342459Y-72946048D02*
G01*
X66348526Y-72946948D01*
X66354476Y-72948438D01*
X66360251Y-72950505D01*
X66365795Y-72953127D01*
X66371056Y-72956280D01*
X66375983Y-72959934D01*
X66380527Y-72964053D01*
X66857824Y-73441350D01*
X66861943Y-73445894D01*
X66865597Y-73450821D01*
X66868750Y-73456082D01*
X66871372Y-73461626D01*
X66873439Y-73467401D01*
X66874929Y-73473351D01*
X66875829Y-73479418D01*
X66876130Y-73485544D01*
X66875829Y-73491670D01*
X66874929Y-73497737D01*
X66873439Y-73503687D01*
X66871372Y-73509462D01*
X66868750Y-73515006D01*
X66865597Y-73520267D01*
X66861943Y-73525194D01*
X66857824Y-73529738D01*
X66769435Y-73618127D01*
X66764891Y-73622246D01*
X66759964Y-73625900D01*
X66754703Y-73629053D01*
X66749159Y-73631675D01*
X66743384Y-73633742D01*
X66737434Y-73635232D01*
X66731367Y-73636132D01*
X66725241Y-73636433D01*
X66719115Y-73636132D01*
X66713048Y-73635232D01*
X66707098Y-73633742D01*
X66701323Y-73631675D01*
X66695779Y-73629053D01*
X66690518Y-73625900D01*
X66685591Y-73622246D01*
X66681047Y-73618127D01*
X66203750Y-73140830D01*
X66199631Y-73136286D01*
X66195977Y-73131359D01*
X66192824Y-73126098D01*
X66190202Y-73120554D01*
X66188135Y-73114779D01*
X66186645Y-73108829D01*
X66185745Y-73102762D01*
X66185444Y-73096636D01*
X66185745Y-73090510D01*
X66186645Y-73084443D01*
X66188135Y-73078493D01*
X66190202Y-73072718D01*
X66192824Y-73067174D01*
X66195977Y-73061913D01*
X66199631Y-73056986D01*
X66203750Y-73052442D01*
X66292139Y-72964053D01*
X66296683Y-72959934D01*
X66301610Y-72956280D01*
X66306871Y-72953127D01*
X66312415Y-72950505D01*
X66318190Y-72948438D01*
X66324140Y-72946948D01*
X66330207Y-72946048D01*
X66336333Y-72945747D01*
X66342459Y-72946048D01*
X66342459Y-72946048D01*
G37*
D11*
X66530787Y-73291090D03*
D10*
G36*
X66696012Y-72592494D02*
G01*
X66702079Y-72593394D01*
X66708029Y-72594884D01*
X66713804Y-72596951D01*
X66719348Y-72599573D01*
X66724609Y-72602726D01*
X66729536Y-72606380D01*
X66734080Y-72610499D01*
X67211377Y-73087796D01*
X67215496Y-73092340D01*
X67219150Y-73097267D01*
X67222303Y-73102528D01*
X67224925Y-73108072D01*
X67226992Y-73113847D01*
X67228482Y-73119797D01*
X67229382Y-73125864D01*
X67229683Y-73131990D01*
X67229382Y-73138116D01*
X67228482Y-73144183D01*
X67226992Y-73150133D01*
X67224925Y-73155908D01*
X67222303Y-73161452D01*
X67219150Y-73166713D01*
X67215496Y-73171640D01*
X67211377Y-73176184D01*
X67122988Y-73264573D01*
X67118444Y-73268692D01*
X67113517Y-73272346D01*
X67108256Y-73275499D01*
X67102712Y-73278121D01*
X67096937Y-73280188D01*
X67090987Y-73281678D01*
X67084920Y-73282578D01*
X67078794Y-73282879D01*
X67072668Y-73282578D01*
X67066601Y-73281678D01*
X67060651Y-73280188D01*
X67054876Y-73278121D01*
X67049332Y-73275499D01*
X67044071Y-73272346D01*
X67039144Y-73268692D01*
X67034600Y-73264573D01*
X66557303Y-72787276D01*
X66553184Y-72782732D01*
X66549530Y-72777805D01*
X66546377Y-72772544D01*
X66543755Y-72767000D01*
X66541688Y-72761225D01*
X66540198Y-72755275D01*
X66539298Y-72749208D01*
X66538997Y-72743082D01*
X66539298Y-72736956D01*
X66540198Y-72730889D01*
X66541688Y-72724939D01*
X66543755Y-72719164D01*
X66546377Y-72713620D01*
X66549530Y-72708359D01*
X66553184Y-72703432D01*
X66557303Y-72698888D01*
X66645692Y-72610499D01*
X66650236Y-72606380D01*
X66655163Y-72602726D01*
X66660424Y-72599573D01*
X66665968Y-72596951D01*
X66671743Y-72594884D01*
X66677693Y-72593394D01*
X66683760Y-72592494D01*
X66689886Y-72592193D01*
X66696012Y-72592494D01*
X66696012Y-72592494D01*
G37*
D11*
X66884340Y-72937536D03*
D10*
G36*
X67049565Y-72238941D02*
G01*
X67055632Y-72239841D01*
X67061582Y-72241331D01*
X67067357Y-72243398D01*
X67072901Y-72246020D01*
X67078162Y-72249173D01*
X67083089Y-72252827D01*
X67087633Y-72256946D01*
X67564930Y-72734243D01*
X67569049Y-72738787D01*
X67572703Y-72743714D01*
X67575856Y-72748975D01*
X67578478Y-72754519D01*
X67580545Y-72760294D01*
X67582035Y-72766244D01*
X67582935Y-72772311D01*
X67583236Y-72778437D01*
X67582935Y-72784563D01*
X67582035Y-72790630D01*
X67580545Y-72796580D01*
X67578478Y-72802355D01*
X67575856Y-72807899D01*
X67572703Y-72813160D01*
X67569049Y-72818087D01*
X67564930Y-72822631D01*
X67476541Y-72911020D01*
X67471997Y-72915139D01*
X67467070Y-72918793D01*
X67461809Y-72921946D01*
X67456265Y-72924568D01*
X67450490Y-72926635D01*
X67444540Y-72928125D01*
X67438473Y-72929025D01*
X67432347Y-72929326D01*
X67426221Y-72929025D01*
X67420154Y-72928125D01*
X67414204Y-72926635D01*
X67408429Y-72924568D01*
X67402885Y-72921946D01*
X67397624Y-72918793D01*
X67392697Y-72915139D01*
X67388153Y-72911020D01*
X66910856Y-72433723D01*
X66906737Y-72429179D01*
X66903083Y-72424252D01*
X66899930Y-72418991D01*
X66897308Y-72413447D01*
X66895241Y-72407672D01*
X66893751Y-72401722D01*
X66892851Y-72395655D01*
X66892550Y-72389529D01*
X66892851Y-72383403D01*
X66893751Y-72377336D01*
X66895241Y-72371386D01*
X66897308Y-72365611D01*
X66899930Y-72360067D01*
X66903083Y-72354806D01*
X66906737Y-72349879D01*
X66910856Y-72345335D01*
X66999245Y-72256946D01*
X67003789Y-72252827D01*
X67008716Y-72249173D01*
X67013977Y-72246020D01*
X67019521Y-72243398D01*
X67025296Y-72241331D01*
X67031246Y-72239841D01*
X67037313Y-72238941D01*
X67043439Y-72238640D01*
X67049565Y-72238941D01*
X67049565Y-72238941D01*
G37*
D11*
X67237893Y-72583983D03*
D10*
G36*
X67403119Y-71885387D02*
G01*
X67409186Y-71886287D01*
X67415136Y-71887777D01*
X67420911Y-71889844D01*
X67426455Y-71892466D01*
X67431716Y-71895619D01*
X67436643Y-71899273D01*
X67441187Y-71903392D01*
X67918484Y-72380689D01*
X67922603Y-72385233D01*
X67926257Y-72390160D01*
X67929410Y-72395421D01*
X67932032Y-72400965D01*
X67934099Y-72406740D01*
X67935589Y-72412690D01*
X67936489Y-72418757D01*
X67936790Y-72424883D01*
X67936489Y-72431009D01*
X67935589Y-72437076D01*
X67934099Y-72443026D01*
X67932032Y-72448801D01*
X67929410Y-72454345D01*
X67926257Y-72459606D01*
X67922603Y-72464533D01*
X67918484Y-72469077D01*
X67830095Y-72557466D01*
X67825551Y-72561585D01*
X67820624Y-72565239D01*
X67815363Y-72568392D01*
X67809819Y-72571014D01*
X67804044Y-72573081D01*
X67798094Y-72574571D01*
X67792027Y-72575471D01*
X67785901Y-72575772D01*
X67779775Y-72575471D01*
X67773708Y-72574571D01*
X67767758Y-72573081D01*
X67761983Y-72571014D01*
X67756439Y-72568392D01*
X67751178Y-72565239D01*
X67746251Y-72561585D01*
X67741707Y-72557466D01*
X67264410Y-72080169D01*
X67260291Y-72075625D01*
X67256637Y-72070698D01*
X67253484Y-72065437D01*
X67250862Y-72059893D01*
X67248795Y-72054118D01*
X67247305Y-72048168D01*
X67246405Y-72042101D01*
X67246104Y-72035975D01*
X67246405Y-72029849D01*
X67247305Y-72023782D01*
X67248795Y-72017832D01*
X67250862Y-72012057D01*
X67253484Y-72006513D01*
X67256637Y-72001252D01*
X67260291Y-71996325D01*
X67264410Y-71991781D01*
X67352799Y-71903392D01*
X67357343Y-71899273D01*
X67362270Y-71895619D01*
X67367531Y-71892466D01*
X67373075Y-71889844D01*
X67378850Y-71887777D01*
X67384800Y-71886287D01*
X67390867Y-71885387D01*
X67396993Y-71885086D01*
X67403119Y-71885387D01*
X67403119Y-71885387D01*
G37*
D11*
X67591447Y-72230429D03*
D10*
G36*
X67756672Y-71531834D02*
G01*
X67762739Y-71532734D01*
X67768689Y-71534224D01*
X67774464Y-71536291D01*
X67780008Y-71538913D01*
X67785269Y-71542066D01*
X67790196Y-71545720D01*
X67794740Y-71549839D01*
X68272037Y-72027136D01*
X68276156Y-72031680D01*
X68279810Y-72036607D01*
X68282963Y-72041868D01*
X68285585Y-72047412D01*
X68287652Y-72053187D01*
X68289142Y-72059137D01*
X68290042Y-72065204D01*
X68290343Y-72071330D01*
X68290042Y-72077456D01*
X68289142Y-72083523D01*
X68287652Y-72089473D01*
X68285585Y-72095248D01*
X68282963Y-72100792D01*
X68279810Y-72106053D01*
X68276156Y-72110980D01*
X68272037Y-72115524D01*
X68183648Y-72203913D01*
X68179104Y-72208032D01*
X68174177Y-72211686D01*
X68168916Y-72214839D01*
X68163372Y-72217461D01*
X68157597Y-72219528D01*
X68151647Y-72221018D01*
X68145580Y-72221918D01*
X68139454Y-72222219D01*
X68133328Y-72221918D01*
X68127261Y-72221018D01*
X68121311Y-72219528D01*
X68115536Y-72217461D01*
X68109992Y-72214839D01*
X68104731Y-72211686D01*
X68099804Y-72208032D01*
X68095260Y-72203913D01*
X67617963Y-71726616D01*
X67613844Y-71722072D01*
X67610190Y-71717145D01*
X67607037Y-71711884D01*
X67604415Y-71706340D01*
X67602348Y-71700565D01*
X67600858Y-71694615D01*
X67599958Y-71688548D01*
X67599657Y-71682422D01*
X67599958Y-71676296D01*
X67600858Y-71670229D01*
X67602348Y-71664279D01*
X67604415Y-71658504D01*
X67607037Y-71652960D01*
X67610190Y-71647699D01*
X67613844Y-71642772D01*
X67617963Y-71638228D01*
X67706352Y-71549839D01*
X67710896Y-71545720D01*
X67715823Y-71542066D01*
X67721084Y-71538913D01*
X67726628Y-71536291D01*
X67732403Y-71534224D01*
X67738353Y-71532734D01*
X67744420Y-71531834D01*
X67750546Y-71531533D01*
X67756672Y-71531834D01*
X67756672Y-71531834D01*
G37*
D11*
X67945000Y-71876876D03*
D10*
G36*
X69135530Y-71531834D02*
G01*
X69141597Y-71532734D01*
X69147547Y-71534224D01*
X69153322Y-71536291D01*
X69158866Y-71538913D01*
X69164127Y-71542066D01*
X69169054Y-71545720D01*
X69173598Y-71549839D01*
X69261987Y-71638228D01*
X69266106Y-71642772D01*
X69269760Y-71647699D01*
X69272913Y-71652960D01*
X69275535Y-71658504D01*
X69277602Y-71664279D01*
X69279092Y-71670229D01*
X69279992Y-71676296D01*
X69280293Y-71682422D01*
X69279992Y-71688548D01*
X69279092Y-71694615D01*
X69277602Y-71700565D01*
X69275535Y-71706340D01*
X69272913Y-71711884D01*
X69269760Y-71717145D01*
X69266106Y-71722072D01*
X69261987Y-71726616D01*
X68784690Y-72203913D01*
X68780146Y-72208032D01*
X68775219Y-72211686D01*
X68769958Y-72214839D01*
X68764414Y-72217461D01*
X68758639Y-72219528D01*
X68752689Y-72221018D01*
X68746622Y-72221918D01*
X68740496Y-72222219D01*
X68734370Y-72221918D01*
X68728303Y-72221018D01*
X68722353Y-72219528D01*
X68716578Y-72217461D01*
X68711034Y-72214839D01*
X68705773Y-72211686D01*
X68700846Y-72208032D01*
X68696302Y-72203913D01*
X68607913Y-72115524D01*
X68603794Y-72110980D01*
X68600140Y-72106053D01*
X68596987Y-72100792D01*
X68594365Y-72095248D01*
X68592298Y-72089473D01*
X68590808Y-72083523D01*
X68589908Y-72077456D01*
X68589607Y-72071330D01*
X68589908Y-72065204D01*
X68590808Y-72059137D01*
X68592298Y-72053187D01*
X68594365Y-72047412D01*
X68596987Y-72041868D01*
X68600140Y-72036607D01*
X68603794Y-72031680D01*
X68607913Y-72027136D01*
X69085210Y-71549839D01*
X69089754Y-71545720D01*
X69094681Y-71542066D01*
X69099942Y-71538913D01*
X69105486Y-71536291D01*
X69111261Y-71534224D01*
X69117211Y-71532734D01*
X69123278Y-71531834D01*
X69129404Y-71531533D01*
X69135530Y-71531834D01*
X69135530Y-71531834D01*
G37*
D11*
X68934950Y-71876876D03*
D10*
G36*
X69489083Y-71885387D02*
G01*
X69495150Y-71886287D01*
X69501100Y-71887777D01*
X69506875Y-71889844D01*
X69512419Y-71892466D01*
X69517680Y-71895619D01*
X69522607Y-71899273D01*
X69527151Y-71903392D01*
X69615540Y-71991781D01*
X69619659Y-71996325D01*
X69623313Y-72001252D01*
X69626466Y-72006513D01*
X69629088Y-72012057D01*
X69631155Y-72017832D01*
X69632645Y-72023782D01*
X69633545Y-72029849D01*
X69633846Y-72035975D01*
X69633545Y-72042101D01*
X69632645Y-72048168D01*
X69631155Y-72054118D01*
X69629088Y-72059893D01*
X69626466Y-72065437D01*
X69623313Y-72070698D01*
X69619659Y-72075625D01*
X69615540Y-72080169D01*
X69138243Y-72557466D01*
X69133699Y-72561585D01*
X69128772Y-72565239D01*
X69123511Y-72568392D01*
X69117967Y-72571014D01*
X69112192Y-72573081D01*
X69106242Y-72574571D01*
X69100175Y-72575471D01*
X69094049Y-72575772D01*
X69087923Y-72575471D01*
X69081856Y-72574571D01*
X69075906Y-72573081D01*
X69070131Y-72571014D01*
X69064587Y-72568392D01*
X69059326Y-72565239D01*
X69054399Y-72561585D01*
X69049855Y-72557466D01*
X68961466Y-72469077D01*
X68957347Y-72464533D01*
X68953693Y-72459606D01*
X68950540Y-72454345D01*
X68947918Y-72448801D01*
X68945851Y-72443026D01*
X68944361Y-72437076D01*
X68943461Y-72431009D01*
X68943160Y-72424883D01*
X68943461Y-72418757D01*
X68944361Y-72412690D01*
X68945851Y-72406740D01*
X68947918Y-72400965D01*
X68950540Y-72395421D01*
X68953693Y-72390160D01*
X68957347Y-72385233D01*
X68961466Y-72380689D01*
X69438763Y-71903392D01*
X69443307Y-71899273D01*
X69448234Y-71895619D01*
X69453495Y-71892466D01*
X69459039Y-71889844D01*
X69464814Y-71887777D01*
X69470764Y-71886287D01*
X69476831Y-71885387D01*
X69482957Y-71885086D01*
X69489083Y-71885387D01*
X69489083Y-71885387D01*
G37*
D11*
X69288503Y-72230429D03*
D10*
G36*
X69842637Y-72238941D02*
G01*
X69848704Y-72239841D01*
X69854654Y-72241331D01*
X69860429Y-72243398D01*
X69865973Y-72246020D01*
X69871234Y-72249173D01*
X69876161Y-72252827D01*
X69880705Y-72256946D01*
X69969094Y-72345335D01*
X69973213Y-72349879D01*
X69976867Y-72354806D01*
X69980020Y-72360067D01*
X69982642Y-72365611D01*
X69984709Y-72371386D01*
X69986199Y-72377336D01*
X69987099Y-72383403D01*
X69987400Y-72389529D01*
X69987099Y-72395655D01*
X69986199Y-72401722D01*
X69984709Y-72407672D01*
X69982642Y-72413447D01*
X69980020Y-72418991D01*
X69976867Y-72424252D01*
X69973213Y-72429179D01*
X69969094Y-72433723D01*
X69491797Y-72911020D01*
X69487253Y-72915139D01*
X69482326Y-72918793D01*
X69477065Y-72921946D01*
X69471521Y-72924568D01*
X69465746Y-72926635D01*
X69459796Y-72928125D01*
X69453729Y-72929025D01*
X69447603Y-72929326D01*
X69441477Y-72929025D01*
X69435410Y-72928125D01*
X69429460Y-72926635D01*
X69423685Y-72924568D01*
X69418141Y-72921946D01*
X69412880Y-72918793D01*
X69407953Y-72915139D01*
X69403409Y-72911020D01*
X69315020Y-72822631D01*
X69310901Y-72818087D01*
X69307247Y-72813160D01*
X69304094Y-72807899D01*
X69301472Y-72802355D01*
X69299405Y-72796580D01*
X69297915Y-72790630D01*
X69297015Y-72784563D01*
X69296714Y-72778437D01*
X69297015Y-72772311D01*
X69297915Y-72766244D01*
X69299405Y-72760294D01*
X69301472Y-72754519D01*
X69304094Y-72748975D01*
X69307247Y-72743714D01*
X69310901Y-72738787D01*
X69315020Y-72734243D01*
X69792317Y-72256946D01*
X69796861Y-72252827D01*
X69801788Y-72249173D01*
X69807049Y-72246020D01*
X69812593Y-72243398D01*
X69818368Y-72241331D01*
X69824318Y-72239841D01*
X69830385Y-72238941D01*
X69836511Y-72238640D01*
X69842637Y-72238941D01*
X69842637Y-72238941D01*
G37*
D11*
X69642057Y-72583983D03*
D10*
G36*
X70196190Y-72592494D02*
G01*
X70202257Y-72593394D01*
X70208207Y-72594884D01*
X70213982Y-72596951D01*
X70219526Y-72599573D01*
X70224787Y-72602726D01*
X70229714Y-72606380D01*
X70234258Y-72610499D01*
X70322647Y-72698888D01*
X70326766Y-72703432D01*
X70330420Y-72708359D01*
X70333573Y-72713620D01*
X70336195Y-72719164D01*
X70338262Y-72724939D01*
X70339752Y-72730889D01*
X70340652Y-72736956D01*
X70340953Y-72743082D01*
X70340652Y-72749208D01*
X70339752Y-72755275D01*
X70338262Y-72761225D01*
X70336195Y-72767000D01*
X70333573Y-72772544D01*
X70330420Y-72777805D01*
X70326766Y-72782732D01*
X70322647Y-72787276D01*
X69845350Y-73264573D01*
X69840806Y-73268692D01*
X69835879Y-73272346D01*
X69830618Y-73275499D01*
X69825074Y-73278121D01*
X69819299Y-73280188D01*
X69813349Y-73281678D01*
X69807282Y-73282578D01*
X69801156Y-73282879D01*
X69795030Y-73282578D01*
X69788963Y-73281678D01*
X69783013Y-73280188D01*
X69777238Y-73278121D01*
X69771694Y-73275499D01*
X69766433Y-73272346D01*
X69761506Y-73268692D01*
X69756962Y-73264573D01*
X69668573Y-73176184D01*
X69664454Y-73171640D01*
X69660800Y-73166713D01*
X69657647Y-73161452D01*
X69655025Y-73155908D01*
X69652958Y-73150133D01*
X69651468Y-73144183D01*
X69650568Y-73138116D01*
X69650267Y-73131990D01*
X69650568Y-73125864D01*
X69651468Y-73119797D01*
X69652958Y-73113847D01*
X69655025Y-73108072D01*
X69657647Y-73102528D01*
X69660800Y-73097267D01*
X69664454Y-73092340D01*
X69668573Y-73087796D01*
X70145870Y-72610499D01*
X70150414Y-72606380D01*
X70155341Y-72602726D01*
X70160602Y-72599573D01*
X70166146Y-72596951D01*
X70171921Y-72594884D01*
X70177871Y-72593394D01*
X70183938Y-72592494D01*
X70190064Y-72592193D01*
X70196190Y-72592494D01*
X70196190Y-72592494D01*
G37*
D11*
X69995610Y-72937536D03*
D10*
G36*
X70549743Y-72946048D02*
G01*
X70555810Y-72946948D01*
X70561760Y-72948438D01*
X70567535Y-72950505D01*
X70573079Y-72953127D01*
X70578340Y-72956280D01*
X70583267Y-72959934D01*
X70587811Y-72964053D01*
X70676200Y-73052442D01*
X70680319Y-73056986D01*
X70683973Y-73061913D01*
X70687126Y-73067174D01*
X70689748Y-73072718D01*
X70691815Y-73078493D01*
X70693305Y-73084443D01*
X70694205Y-73090510D01*
X70694506Y-73096636D01*
X70694205Y-73102762D01*
X70693305Y-73108829D01*
X70691815Y-73114779D01*
X70689748Y-73120554D01*
X70687126Y-73126098D01*
X70683973Y-73131359D01*
X70680319Y-73136286D01*
X70676200Y-73140830D01*
X70198903Y-73618127D01*
X70194359Y-73622246D01*
X70189432Y-73625900D01*
X70184171Y-73629053D01*
X70178627Y-73631675D01*
X70172852Y-73633742D01*
X70166902Y-73635232D01*
X70160835Y-73636132D01*
X70154709Y-73636433D01*
X70148583Y-73636132D01*
X70142516Y-73635232D01*
X70136566Y-73633742D01*
X70130791Y-73631675D01*
X70125247Y-73629053D01*
X70119986Y-73625900D01*
X70115059Y-73622246D01*
X70110515Y-73618127D01*
X70022126Y-73529738D01*
X70018007Y-73525194D01*
X70014353Y-73520267D01*
X70011200Y-73515006D01*
X70008578Y-73509462D01*
X70006511Y-73503687D01*
X70005021Y-73497737D01*
X70004121Y-73491670D01*
X70003820Y-73485544D01*
X70004121Y-73479418D01*
X70005021Y-73473351D01*
X70006511Y-73467401D01*
X70008578Y-73461626D01*
X70011200Y-73456082D01*
X70014353Y-73450821D01*
X70018007Y-73445894D01*
X70022126Y-73441350D01*
X70499423Y-72964053D01*
X70503967Y-72959934D01*
X70508894Y-72956280D01*
X70514155Y-72953127D01*
X70519699Y-72950505D01*
X70525474Y-72948438D01*
X70531424Y-72946948D01*
X70537491Y-72946048D01*
X70543617Y-72945747D01*
X70549743Y-72946048D01*
X70549743Y-72946048D01*
G37*
D11*
X70349163Y-73291090D03*
D10*
G36*
X70903297Y-73299601D02*
G01*
X70909364Y-73300501D01*
X70915314Y-73301991D01*
X70921089Y-73304058D01*
X70926633Y-73306680D01*
X70931894Y-73309833D01*
X70936821Y-73313487D01*
X70941365Y-73317606D01*
X71029754Y-73405995D01*
X71033873Y-73410539D01*
X71037527Y-73415466D01*
X71040680Y-73420727D01*
X71043302Y-73426271D01*
X71045369Y-73432046D01*
X71046859Y-73437996D01*
X71047759Y-73444063D01*
X71048060Y-73450189D01*
X71047759Y-73456315D01*
X71046859Y-73462382D01*
X71045369Y-73468332D01*
X71043302Y-73474107D01*
X71040680Y-73479651D01*
X71037527Y-73484912D01*
X71033873Y-73489839D01*
X71029754Y-73494383D01*
X70552457Y-73971680D01*
X70547913Y-73975799D01*
X70542986Y-73979453D01*
X70537725Y-73982606D01*
X70532181Y-73985228D01*
X70526406Y-73987295D01*
X70520456Y-73988785D01*
X70514389Y-73989685D01*
X70508263Y-73989986D01*
X70502137Y-73989685D01*
X70496070Y-73988785D01*
X70490120Y-73987295D01*
X70484345Y-73985228D01*
X70478801Y-73982606D01*
X70473540Y-73979453D01*
X70468613Y-73975799D01*
X70464069Y-73971680D01*
X70375680Y-73883291D01*
X70371561Y-73878747D01*
X70367907Y-73873820D01*
X70364754Y-73868559D01*
X70362132Y-73863015D01*
X70360065Y-73857240D01*
X70358575Y-73851290D01*
X70357675Y-73845223D01*
X70357374Y-73839097D01*
X70357675Y-73832971D01*
X70358575Y-73826904D01*
X70360065Y-73820954D01*
X70362132Y-73815179D01*
X70364754Y-73809635D01*
X70367907Y-73804374D01*
X70371561Y-73799447D01*
X70375680Y-73794903D01*
X70852977Y-73317606D01*
X70857521Y-73313487D01*
X70862448Y-73309833D01*
X70867709Y-73306680D01*
X70873253Y-73304058D01*
X70879028Y-73301991D01*
X70884978Y-73300501D01*
X70891045Y-73299601D01*
X70897171Y-73299300D01*
X70903297Y-73299601D01*
X70903297Y-73299601D01*
G37*
D11*
X70702717Y-73644643D03*
D10*
G36*
X71256850Y-73653154D02*
G01*
X71262917Y-73654054D01*
X71268867Y-73655544D01*
X71274642Y-73657611D01*
X71280186Y-73660233D01*
X71285447Y-73663386D01*
X71290374Y-73667040D01*
X71294918Y-73671159D01*
X71383307Y-73759548D01*
X71387426Y-73764092D01*
X71391080Y-73769019D01*
X71394233Y-73774280D01*
X71396855Y-73779824D01*
X71398922Y-73785599D01*
X71400412Y-73791549D01*
X71401312Y-73797616D01*
X71401613Y-73803742D01*
X71401312Y-73809868D01*
X71400412Y-73815935D01*
X71398922Y-73821885D01*
X71396855Y-73827660D01*
X71394233Y-73833204D01*
X71391080Y-73838465D01*
X71387426Y-73843392D01*
X71383307Y-73847936D01*
X70906010Y-74325233D01*
X70901466Y-74329352D01*
X70896539Y-74333006D01*
X70891278Y-74336159D01*
X70885734Y-74338781D01*
X70879959Y-74340848D01*
X70874009Y-74342338D01*
X70867942Y-74343238D01*
X70861816Y-74343539D01*
X70855690Y-74343238D01*
X70849623Y-74342338D01*
X70843673Y-74340848D01*
X70837898Y-74338781D01*
X70832354Y-74336159D01*
X70827093Y-74333006D01*
X70822166Y-74329352D01*
X70817622Y-74325233D01*
X70729233Y-74236844D01*
X70725114Y-74232300D01*
X70721460Y-74227373D01*
X70718307Y-74222112D01*
X70715685Y-74216568D01*
X70713618Y-74210793D01*
X70712128Y-74204843D01*
X70711228Y-74198776D01*
X70710927Y-74192650D01*
X70711228Y-74186524D01*
X70712128Y-74180457D01*
X70713618Y-74174507D01*
X70715685Y-74168732D01*
X70718307Y-74163188D01*
X70721460Y-74157927D01*
X70725114Y-74153000D01*
X70729233Y-74148456D01*
X71206530Y-73671159D01*
X71211074Y-73667040D01*
X71216001Y-73663386D01*
X71221262Y-73660233D01*
X71226806Y-73657611D01*
X71232581Y-73655544D01*
X71238531Y-73654054D01*
X71244598Y-73653154D01*
X71250724Y-73652853D01*
X71256850Y-73653154D01*
X71256850Y-73653154D01*
G37*
D11*
X71056270Y-73998196D03*
D10*
G36*
X71610403Y-74006708D02*
G01*
X71616470Y-74007608D01*
X71622420Y-74009098D01*
X71628195Y-74011165D01*
X71633739Y-74013787D01*
X71639000Y-74016940D01*
X71643927Y-74020594D01*
X71648471Y-74024713D01*
X71736860Y-74113102D01*
X71740979Y-74117646D01*
X71744633Y-74122573D01*
X71747786Y-74127834D01*
X71750408Y-74133378D01*
X71752475Y-74139153D01*
X71753965Y-74145103D01*
X71754865Y-74151170D01*
X71755166Y-74157296D01*
X71754865Y-74163422D01*
X71753965Y-74169489D01*
X71752475Y-74175439D01*
X71750408Y-74181214D01*
X71747786Y-74186758D01*
X71744633Y-74192019D01*
X71740979Y-74196946D01*
X71736860Y-74201490D01*
X71259563Y-74678787D01*
X71255019Y-74682906D01*
X71250092Y-74686560D01*
X71244831Y-74689713D01*
X71239287Y-74692335D01*
X71233512Y-74694402D01*
X71227562Y-74695892D01*
X71221495Y-74696792D01*
X71215369Y-74697093D01*
X71209243Y-74696792D01*
X71203176Y-74695892D01*
X71197226Y-74694402D01*
X71191451Y-74692335D01*
X71185907Y-74689713D01*
X71180646Y-74686560D01*
X71175719Y-74682906D01*
X71171175Y-74678787D01*
X71082786Y-74590398D01*
X71078667Y-74585854D01*
X71075013Y-74580927D01*
X71071860Y-74575666D01*
X71069238Y-74570122D01*
X71067171Y-74564347D01*
X71065681Y-74558397D01*
X71064781Y-74552330D01*
X71064480Y-74546204D01*
X71064781Y-74540078D01*
X71065681Y-74534011D01*
X71067171Y-74528061D01*
X71069238Y-74522286D01*
X71071860Y-74516742D01*
X71075013Y-74511481D01*
X71078667Y-74506554D01*
X71082786Y-74502010D01*
X71560083Y-74024713D01*
X71564627Y-74020594D01*
X71569554Y-74016940D01*
X71574815Y-74013787D01*
X71580359Y-74011165D01*
X71586134Y-74009098D01*
X71592084Y-74007608D01*
X71598151Y-74006708D01*
X71604277Y-74006407D01*
X71610403Y-74006708D01*
X71610403Y-74006708D01*
G37*
D11*
X71409823Y-74351750D03*
D10*
G36*
X71963957Y-74360261D02*
G01*
X71970024Y-74361161D01*
X71975974Y-74362651D01*
X71981749Y-74364718D01*
X71987293Y-74367340D01*
X71992554Y-74370493D01*
X71997481Y-74374147D01*
X72002025Y-74378266D01*
X72090414Y-74466655D01*
X72094533Y-74471199D01*
X72098187Y-74476126D01*
X72101340Y-74481387D01*
X72103962Y-74486931D01*
X72106029Y-74492706D01*
X72107519Y-74498656D01*
X72108419Y-74504723D01*
X72108720Y-74510849D01*
X72108419Y-74516975D01*
X72107519Y-74523042D01*
X72106029Y-74528992D01*
X72103962Y-74534767D01*
X72101340Y-74540311D01*
X72098187Y-74545572D01*
X72094533Y-74550499D01*
X72090414Y-74555043D01*
X71613117Y-75032340D01*
X71608573Y-75036459D01*
X71603646Y-75040113D01*
X71598385Y-75043266D01*
X71592841Y-75045888D01*
X71587066Y-75047955D01*
X71581116Y-75049445D01*
X71575049Y-75050345D01*
X71568923Y-75050646D01*
X71562797Y-75050345D01*
X71556730Y-75049445D01*
X71550780Y-75047955D01*
X71545005Y-75045888D01*
X71539461Y-75043266D01*
X71534200Y-75040113D01*
X71529273Y-75036459D01*
X71524729Y-75032340D01*
X71436340Y-74943951D01*
X71432221Y-74939407D01*
X71428567Y-74934480D01*
X71425414Y-74929219D01*
X71422792Y-74923675D01*
X71420725Y-74917900D01*
X71419235Y-74911950D01*
X71418335Y-74905883D01*
X71418034Y-74899757D01*
X71418335Y-74893631D01*
X71419235Y-74887564D01*
X71420725Y-74881614D01*
X71422792Y-74875839D01*
X71425414Y-74870295D01*
X71428567Y-74865034D01*
X71432221Y-74860107D01*
X71436340Y-74855563D01*
X71913637Y-74378266D01*
X71918181Y-74374147D01*
X71923108Y-74370493D01*
X71928369Y-74367340D01*
X71933913Y-74364718D01*
X71939688Y-74362651D01*
X71945638Y-74361161D01*
X71951705Y-74360261D01*
X71957831Y-74359960D01*
X71963957Y-74360261D01*
X71963957Y-74360261D01*
G37*
D11*
X71763377Y-74705303D03*
D10*
G36*
X72317510Y-74713814D02*
G01*
X72323577Y-74714714D01*
X72329527Y-74716204D01*
X72335302Y-74718271D01*
X72340846Y-74720893D01*
X72346107Y-74724046D01*
X72351034Y-74727700D01*
X72355578Y-74731819D01*
X72443967Y-74820208D01*
X72448086Y-74824752D01*
X72451740Y-74829679D01*
X72454893Y-74834940D01*
X72457515Y-74840484D01*
X72459582Y-74846259D01*
X72461072Y-74852209D01*
X72461972Y-74858276D01*
X72462273Y-74864402D01*
X72461972Y-74870528D01*
X72461072Y-74876595D01*
X72459582Y-74882545D01*
X72457515Y-74888320D01*
X72454893Y-74893864D01*
X72451740Y-74899125D01*
X72448086Y-74904052D01*
X72443967Y-74908596D01*
X71966670Y-75385893D01*
X71962126Y-75390012D01*
X71957199Y-75393666D01*
X71951938Y-75396819D01*
X71946394Y-75399441D01*
X71940619Y-75401508D01*
X71934669Y-75402998D01*
X71928602Y-75403898D01*
X71922476Y-75404199D01*
X71916350Y-75403898D01*
X71910283Y-75402998D01*
X71904333Y-75401508D01*
X71898558Y-75399441D01*
X71893014Y-75396819D01*
X71887753Y-75393666D01*
X71882826Y-75390012D01*
X71878282Y-75385893D01*
X71789893Y-75297504D01*
X71785774Y-75292960D01*
X71782120Y-75288033D01*
X71778967Y-75282772D01*
X71776345Y-75277228D01*
X71774278Y-75271453D01*
X71772788Y-75265503D01*
X71771888Y-75259436D01*
X71771587Y-75253310D01*
X71771888Y-75247184D01*
X71772788Y-75241117D01*
X71774278Y-75235167D01*
X71776345Y-75229392D01*
X71778967Y-75223848D01*
X71782120Y-75218587D01*
X71785774Y-75213660D01*
X71789893Y-75209116D01*
X72267190Y-74731819D01*
X72271734Y-74727700D01*
X72276661Y-74724046D01*
X72281922Y-74720893D01*
X72287466Y-74718271D01*
X72293241Y-74716204D01*
X72299191Y-74714714D01*
X72305258Y-74713814D01*
X72311384Y-74713513D01*
X72317510Y-74713814D01*
X72317510Y-74713814D01*
G37*
D11*
X72116930Y-75058856D03*
D10*
G36*
X72671064Y-75067368D02*
G01*
X72677131Y-75068268D01*
X72683081Y-75069758D01*
X72688856Y-75071825D01*
X72694400Y-75074447D01*
X72699661Y-75077600D01*
X72704588Y-75081254D01*
X72709132Y-75085373D01*
X72797521Y-75173762D01*
X72801640Y-75178306D01*
X72805294Y-75183233D01*
X72808447Y-75188494D01*
X72811069Y-75194038D01*
X72813136Y-75199813D01*
X72814626Y-75205763D01*
X72815526Y-75211830D01*
X72815827Y-75217956D01*
X72815526Y-75224082D01*
X72814626Y-75230149D01*
X72813136Y-75236099D01*
X72811069Y-75241874D01*
X72808447Y-75247418D01*
X72805294Y-75252679D01*
X72801640Y-75257606D01*
X72797521Y-75262150D01*
X72320224Y-75739447D01*
X72315680Y-75743566D01*
X72310753Y-75747220D01*
X72305492Y-75750373D01*
X72299948Y-75752995D01*
X72294173Y-75755062D01*
X72288223Y-75756552D01*
X72282156Y-75757452D01*
X72276030Y-75757753D01*
X72269904Y-75757452D01*
X72263837Y-75756552D01*
X72257887Y-75755062D01*
X72252112Y-75752995D01*
X72246568Y-75750373D01*
X72241307Y-75747220D01*
X72236380Y-75743566D01*
X72231836Y-75739447D01*
X72143447Y-75651058D01*
X72139328Y-75646514D01*
X72135674Y-75641587D01*
X72132521Y-75636326D01*
X72129899Y-75630782D01*
X72127832Y-75625007D01*
X72126342Y-75619057D01*
X72125442Y-75612990D01*
X72125141Y-75606864D01*
X72125442Y-75600738D01*
X72126342Y-75594671D01*
X72127832Y-75588721D01*
X72129899Y-75582946D01*
X72132521Y-75577402D01*
X72135674Y-75572141D01*
X72139328Y-75567214D01*
X72143447Y-75562670D01*
X72620744Y-75085373D01*
X72625288Y-75081254D01*
X72630215Y-75077600D01*
X72635476Y-75074447D01*
X72641020Y-75071825D01*
X72646795Y-75069758D01*
X72652745Y-75068268D01*
X72658812Y-75067368D01*
X72664938Y-75067067D01*
X72671064Y-75067368D01*
X72671064Y-75067368D01*
G37*
D11*
X72470484Y-75412410D03*
D10*
G36*
X73024617Y-75420921D02*
G01*
X73030684Y-75421821D01*
X73036634Y-75423311D01*
X73042409Y-75425378D01*
X73047953Y-75428000D01*
X73053214Y-75431153D01*
X73058141Y-75434807D01*
X73062685Y-75438926D01*
X73151074Y-75527315D01*
X73155193Y-75531859D01*
X73158847Y-75536786D01*
X73162000Y-75542047D01*
X73164622Y-75547591D01*
X73166689Y-75553366D01*
X73168179Y-75559316D01*
X73169079Y-75565383D01*
X73169380Y-75571509D01*
X73169079Y-75577635D01*
X73168179Y-75583702D01*
X73166689Y-75589652D01*
X73164622Y-75595427D01*
X73162000Y-75600971D01*
X73158847Y-75606232D01*
X73155193Y-75611159D01*
X73151074Y-75615703D01*
X72673777Y-76093000D01*
X72669233Y-76097119D01*
X72664306Y-76100773D01*
X72659045Y-76103926D01*
X72653501Y-76106548D01*
X72647726Y-76108615D01*
X72641776Y-76110105D01*
X72635709Y-76111005D01*
X72629583Y-76111306D01*
X72623457Y-76111005D01*
X72617390Y-76110105D01*
X72611440Y-76108615D01*
X72605665Y-76106548D01*
X72600121Y-76103926D01*
X72594860Y-76100773D01*
X72589933Y-76097119D01*
X72585389Y-76093000D01*
X72497000Y-76004611D01*
X72492881Y-76000067D01*
X72489227Y-75995140D01*
X72486074Y-75989879D01*
X72483452Y-75984335D01*
X72481385Y-75978560D01*
X72479895Y-75972610D01*
X72478995Y-75966543D01*
X72478694Y-75960417D01*
X72478995Y-75954291D01*
X72479895Y-75948224D01*
X72481385Y-75942274D01*
X72483452Y-75936499D01*
X72486074Y-75930955D01*
X72489227Y-75925694D01*
X72492881Y-75920767D01*
X72497000Y-75916223D01*
X72974297Y-75438926D01*
X72978841Y-75434807D01*
X72983768Y-75431153D01*
X72989029Y-75428000D01*
X72994573Y-75425378D01*
X73000348Y-75423311D01*
X73006298Y-75421821D01*
X73012365Y-75420921D01*
X73018491Y-75420620D01*
X73024617Y-75420921D01*
X73024617Y-75420921D01*
G37*
D11*
X72824037Y-75765963D03*
D10*
G36*
X66527006Y-75587878D02*
G01*
X66551275Y-75591478D01*
X66575073Y-75597439D01*
X66598173Y-75605704D01*
X66620351Y-75616194D01*
X66641395Y-75628807D01*
X66661100Y-75643421D01*
X66679279Y-75659897D01*
X67103543Y-76084161D01*
X67120019Y-76102340D01*
X67134633Y-76122045D01*
X67147246Y-76143089D01*
X67157736Y-76165267D01*
X67166001Y-76188367D01*
X67171962Y-76212165D01*
X67175562Y-76236434D01*
X67176766Y-76260938D01*
X67175562Y-76285442D01*
X67171962Y-76309711D01*
X67166001Y-76333509D01*
X67157736Y-76356609D01*
X67147246Y-76378787D01*
X67134633Y-76399831D01*
X67120019Y-76419536D01*
X67103543Y-76437715D01*
X66679279Y-76861979D01*
X66661100Y-76878455D01*
X66641395Y-76893069D01*
X66620351Y-76905682D01*
X66598173Y-76916172D01*
X66575073Y-76924437D01*
X66551275Y-76930398D01*
X66527006Y-76933998D01*
X66502502Y-76935202D01*
X66477998Y-76933998D01*
X66453729Y-76930398D01*
X66429931Y-76924437D01*
X66406831Y-76916172D01*
X66384653Y-76905682D01*
X66363609Y-76893069D01*
X66343904Y-76878455D01*
X66325725Y-76861979D01*
X65901461Y-76437715D01*
X65884985Y-76419536D01*
X65870371Y-76399831D01*
X65857758Y-76378787D01*
X65847268Y-76356609D01*
X65839003Y-76333509D01*
X65833042Y-76309711D01*
X65829442Y-76285442D01*
X65828238Y-76260938D01*
X65829442Y-76236434D01*
X65833042Y-76212165D01*
X65839003Y-76188367D01*
X65847268Y-76165267D01*
X65857758Y-76143089D01*
X65870371Y-76122045D01*
X65884985Y-76102340D01*
X65901461Y-76084161D01*
X66325725Y-75659897D01*
X66343904Y-75643421D01*
X66363609Y-75628807D01*
X66384653Y-75616194D01*
X66406831Y-75605704D01*
X66429931Y-75597439D01*
X66453729Y-75591478D01*
X66477998Y-75587878D01*
X66502502Y-75586674D01*
X66527006Y-75587878D01*
X66527006Y-75587878D01*
G37*
D12*
X66502502Y-76260938D03*
D10*
G36*
X67495743Y-76556614D02*
G01*
X67520012Y-76560214D01*
X67543810Y-76566175D01*
X67566910Y-76574440D01*
X67589088Y-76584930D01*
X67610132Y-76597543D01*
X67629837Y-76612157D01*
X67648016Y-76628633D01*
X68072280Y-77052897D01*
X68088756Y-77071076D01*
X68103370Y-77090781D01*
X68115983Y-77111825D01*
X68126473Y-77134003D01*
X68134738Y-77157103D01*
X68140699Y-77180901D01*
X68144299Y-77205170D01*
X68145503Y-77229674D01*
X68144299Y-77254178D01*
X68140699Y-77278447D01*
X68134738Y-77302245D01*
X68126473Y-77325345D01*
X68115983Y-77347523D01*
X68103370Y-77368567D01*
X68088756Y-77388272D01*
X68072280Y-77406451D01*
X67648016Y-77830715D01*
X67629837Y-77847191D01*
X67610132Y-77861805D01*
X67589088Y-77874418D01*
X67566910Y-77884908D01*
X67543810Y-77893173D01*
X67520012Y-77899134D01*
X67495743Y-77902734D01*
X67471239Y-77903938D01*
X67446735Y-77902734D01*
X67422466Y-77899134D01*
X67398668Y-77893173D01*
X67375568Y-77884908D01*
X67353390Y-77874418D01*
X67332346Y-77861805D01*
X67312641Y-77847191D01*
X67294462Y-77830715D01*
X66870198Y-77406451D01*
X66853722Y-77388272D01*
X66839108Y-77368567D01*
X66826495Y-77347523D01*
X66816005Y-77325345D01*
X66807740Y-77302245D01*
X66801779Y-77278447D01*
X66798179Y-77254178D01*
X66796975Y-77229674D01*
X66798179Y-77205170D01*
X66801779Y-77180901D01*
X66807740Y-77157103D01*
X66816005Y-77134003D01*
X66826495Y-77111825D01*
X66839108Y-77090781D01*
X66853722Y-77071076D01*
X66870198Y-77052897D01*
X67294462Y-76628633D01*
X67312641Y-76612157D01*
X67332346Y-76597543D01*
X67353390Y-76584930D01*
X67375568Y-76574440D01*
X67398668Y-76566175D01*
X67422466Y-76560214D01*
X67446735Y-76556614D01*
X67471239Y-76555410D01*
X67495743Y-76556614D01*
X67495743Y-76556614D01*
G37*
D12*
X67471239Y-77229674D03*
D10*
G36*
X68464479Y-77525351D02*
G01*
X68488748Y-77528951D01*
X68512546Y-77534912D01*
X68535646Y-77543177D01*
X68557824Y-77553667D01*
X68578868Y-77566280D01*
X68598573Y-77580894D01*
X68616752Y-77597370D01*
X69041016Y-78021634D01*
X69057492Y-78039813D01*
X69072106Y-78059518D01*
X69084719Y-78080562D01*
X69095209Y-78102740D01*
X69103474Y-78125840D01*
X69109435Y-78149638D01*
X69113035Y-78173907D01*
X69114239Y-78198411D01*
X69113035Y-78222915D01*
X69109435Y-78247184D01*
X69103474Y-78270982D01*
X69095209Y-78294082D01*
X69084719Y-78316260D01*
X69072106Y-78337304D01*
X69057492Y-78357009D01*
X69041016Y-78375188D01*
X68616752Y-78799452D01*
X68598573Y-78815928D01*
X68578868Y-78830542D01*
X68557824Y-78843155D01*
X68535646Y-78853645D01*
X68512546Y-78861910D01*
X68488748Y-78867871D01*
X68464479Y-78871471D01*
X68439975Y-78872675D01*
X68415471Y-78871471D01*
X68391202Y-78867871D01*
X68367404Y-78861910D01*
X68344304Y-78853645D01*
X68322126Y-78843155D01*
X68301082Y-78830542D01*
X68281377Y-78815928D01*
X68263198Y-78799452D01*
X67838934Y-78375188D01*
X67822458Y-78357009D01*
X67807844Y-78337304D01*
X67795231Y-78316260D01*
X67784741Y-78294082D01*
X67776476Y-78270982D01*
X67770515Y-78247184D01*
X67766915Y-78222915D01*
X67765711Y-78198411D01*
X67766915Y-78173907D01*
X67770515Y-78149638D01*
X67776476Y-78125840D01*
X67784741Y-78102740D01*
X67795231Y-78080562D01*
X67807844Y-78059518D01*
X67822458Y-78039813D01*
X67838934Y-78021634D01*
X68263198Y-77597370D01*
X68281377Y-77580894D01*
X68301082Y-77566280D01*
X68322126Y-77553667D01*
X68344304Y-77543177D01*
X68367404Y-77534912D01*
X68391202Y-77528951D01*
X68415471Y-77525351D01*
X68439975Y-77524147D01*
X68464479Y-77525351D01*
X68464479Y-77525351D01*
G37*
D12*
X68439975Y-78198411D03*
D10*
G36*
X67495743Y-74619142D02*
G01*
X67520012Y-74622742D01*
X67543810Y-74628703D01*
X67566910Y-74636968D01*
X67589088Y-74647458D01*
X67610132Y-74660071D01*
X67629837Y-74674685D01*
X67648016Y-74691161D01*
X68072280Y-75115425D01*
X68088756Y-75133604D01*
X68103370Y-75153309D01*
X68115983Y-75174353D01*
X68126473Y-75196531D01*
X68134738Y-75219631D01*
X68140699Y-75243429D01*
X68144299Y-75267698D01*
X68145503Y-75292202D01*
X68144299Y-75316706D01*
X68140699Y-75340975D01*
X68134738Y-75364773D01*
X68126473Y-75387873D01*
X68115983Y-75410051D01*
X68103370Y-75431095D01*
X68088756Y-75450800D01*
X68072280Y-75468979D01*
X67648016Y-75893243D01*
X67629837Y-75909719D01*
X67610132Y-75924333D01*
X67589088Y-75936946D01*
X67566910Y-75947436D01*
X67543810Y-75955701D01*
X67520012Y-75961662D01*
X67495743Y-75965262D01*
X67471239Y-75966466D01*
X67446735Y-75965262D01*
X67422466Y-75961662D01*
X67398668Y-75955701D01*
X67375568Y-75947436D01*
X67353390Y-75936946D01*
X67332346Y-75924333D01*
X67312641Y-75909719D01*
X67294462Y-75893243D01*
X66870198Y-75468979D01*
X66853722Y-75450800D01*
X66839108Y-75431095D01*
X66826495Y-75410051D01*
X66816005Y-75387873D01*
X66807740Y-75364773D01*
X66801779Y-75340975D01*
X66798179Y-75316706D01*
X66796975Y-75292202D01*
X66798179Y-75267698D01*
X66801779Y-75243429D01*
X66807740Y-75219631D01*
X66816005Y-75196531D01*
X66826495Y-75174353D01*
X66839108Y-75153309D01*
X66853722Y-75133604D01*
X66870198Y-75115425D01*
X67294462Y-74691161D01*
X67312641Y-74674685D01*
X67332346Y-74660071D01*
X67353390Y-74647458D01*
X67375568Y-74636968D01*
X67398668Y-74628703D01*
X67422466Y-74622742D01*
X67446735Y-74619142D01*
X67471239Y-74617938D01*
X67495743Y-74619142D01*
X67495743Y-74619142D01*
G37*
D12*
X67471239Y-75292202D03*
D10*
G36*
X68464479Y-75587878D02*
G01*
X68488748Y-75591478D01*
X68512546Y-75597439D01*
X68535646Y-75605704D01*
X68557824Y-75616194D01*
X68578868Y-75628807D01*
X68598573Y-75643421D01*
X68616752Y-75659897D01*
X69041016Y-76084161D01*
X69057492Y-76102340D01*
X69072106Y-76122045D01*
X69084719Y-76143089D01*
X69095209Y-76165267D01*
X69103474Y-76188367D01*
X69109435Y-76212165D01*
X69113035Y-76236434D01*
X69114239Y-76260938D01*
X69113035Y-76285442D01*
X69109435Y-76309711D01*
X69103474Y-76333509D01*
X69095209Y-76356609D01*
X69084719Y-76378787D01*
X69072106Y-76399831D01*
X69057492Y-76419536D01*
X69041016Y-76437715D01*
X68616752Y-76861979D01*
X68598573Y-76878455D01*
X68578868Y-76893069D01*
X68557824Y-76905682D01*
X68535646Y-76916172D01*
X68512546Y-76924437D01*
X68488748Y-76930398D01*
X68464479Y-76933998D01*
X68439975Y-76935202D01*
X68415471Y-76933998D01*
X68391202Y-76930398D01*
X68367404Y-76924437D01*
X68344304Y-76916172D01*
X68322126Y-76905682D01*
X68301082Y-76893069D01*
X68281377Y-76878455D01*
X68263198Y-76861979D01*
X67838934Y-76437715D01*
X67822458Y-76419536D01*
X67807844Y-76399831D01*
X67795231Y-76378787D01*
X67784741Y-76356609D01*
X67776476Y-76333509D01*
X67770515Y-76309711D01*
X67766915Y-76285442D01*
X67765711Y-76260938D01*
X67766915Y-76236434D01*
X67770515Y-76212165D01*
X67776476Y-76188367D01*
X67784741Y-76165267D01*
X67795231Y-76143089D01*
X67807844Y-76122045D01*
X67822458Y-76102340D01*
X67838934Y-76084161D01*
X68263198Y-75659897D01*
X68281377Y-75643421D01*
X68301082Y-75628807D01*
X68322126Y-75616194D01*
X68344304Y-75605704D01*
X68367404Y-75597439D01*
X68391202Y-75591478D01*
X68415471Y-75587878D01*
X68439975Y-75586674D01*
X68464479Y-75587878D01*
X68464479Y-75587878D01*
G37*
D12*
X68439975Y-76260938D03*
D10*
G36*
X69433215Y-76556614D02*
G01*
X69457484Y-76560214D01*
X69481282Y-76566175D01*
X69504382Y-76574440D01*
X69526560Y-76584930D01*
X69547604Y-76597543D01*
X69567309Y-76612157D01*
X69585488Y-76628633D01*
X70009752Y-77052897D01*
X70026228Y-77071076D01*
X70040842Y-77090781D01*
X70053455Y-77111825D01*
X70063945Y-77134003D01*
X70072210Y-77157103D01*
X70078171Y-77180901D01*
X70081771Y-77205170D01*
X70082975Y-77229674D01*
X70081771Y-77254178D01*
X70078171Y-77278447D01*
X70072210Y-77302245D01*
X70063945Y-77325345D01*
X70053455Y-77347523D01*
X70040842Y-77368567D01*
X70026228Y-77388272D01*
X70009752Y-77406451D01*
X69585488Y-77830715D01*
X69567309Y-77847191D01*
X69547604Y-77861805D01*
X69526560Y-77874418D01*
X69504382Y-77884908D01*
X69481282Y-77893173D01*
X69457484Y-77899134D01*
X69433215Y-77902734D01*
X69408711Y-77903938D01*
X69384207Y-77902734D01*
X69359938Y-77899134D01*
X69336140Y-77893173D01*
X69313040Y-77884908D01*
X69290862Y-77874418D01*
X69269818Y-77861805D01*
X69250113Y-77847191D01*
X69231934Y-77830715D01*
X68807670Y-77406451D01*
X68791194Y-77388272D01*
X68776580Y-77368567D01*
X68763967Y-77347523D01*
X68753477Y-77325345D01*
X68745212Y-77302245D01*
X68739251Y-77278447D01*
X68735651Y-77254178D01*
X68734447Y-77229674D01*
X68735651Y-77205170D01*
X68739251Y-77180901D01*
X68745212Y-77157103D01*
X68753477Y-77134003D01*
X68763967Y-77111825D01*
X68776580Y-77090781D01*
X68791194Y-77071076D01*
X68807670Y-77052897D01*
X69231934Y-76628633D01*
X69250113Y-76612157D01*
X69269818Y-76597543D01*
X69290862Y-76584930D01*
X69313040Y-76574440D01*
X69336140Y-76566175D01*
X69359938Y-76560214D01*
X69384207Y-76556614D01*
X69408711Y-76555410D01*
X69433215Y-76556614D01*
X69433215Y-76556614D01*
G37*
D12*
X69408711Y-77229674D03*
D10*
G36*
X68464479Y-73650405D02*
G01*
X68488748Y-73654005D01*
X68512546Y-73659966D01*
X68535646Y-73668231D01*
X68557824Y-73678721D01*
X68578868Y-73691334D01*
X68598573Y-73705948D01*
X68616752Y-73722424D01*
X69041016Y-74146688D01*
X69057492Y-74164867D01*
X69072106Y-74184572D01*
X69084719Y-74205616D01*
X69095209Y-74227794D01*
X69103474Y-74250894D01*
X69109435Y-74274692D01*
X69113035Y-74298961D01*
X69114239Y-74323465D01*
X69113035Y-74347969D01*
X69109435Y-74372238D01*
X69103474Y-74396036D01*
X69095209Y-74419136D01*
X69084719Y-74441314D01*
X69072106Y-74462358D01*
X69057492Y-74482063D01*
X69041016Y-74500242D01*
X68616752Y-74924506D01*
X68598573Y-74940982D01*
X68578868Y-74955596D01*
X68557824Y-74968209D01*
X68535646Y-74978699D01*
X68512546Y-74986964D01*
X68488748Y-74992925D01*
X68464479Y-74996525D01*
X68439975Y-74997729D01*
X68415471Y-74996525D01*
X68391202Y-74992925D01*
X68367404Y-74986964D01*
X68344304Y-74978699D01*
X68322126Y-74968209D01*
X68301082Y-74955596D01*
X68281377Y-74940982D01*
X68263198Y-74924506D01*
X67838934Y-74500242D01*
X67822458Y-74482063D01*
X67807844Y-74462358D01*
X67795231Y-74441314D01*
X67784741Y-74419136D01*
X67776476Y-74396036D01*
X67770515Y-74372238D01*
X67766915Y-74347969D01*
X67765711Y-74323465D01*
X67766915Y-74298961D01*
X67770515Y-74274692D01*
X67776476Y-74250894D01*
X67784741Y-74227794D01*
X67795231Y-74205616D01*
X67807844Y-74184572D01*
X67822458Y-74164867D01*
X67838934Y-74146688D01*
X68263198Y-73722424D01*
X68281377Y-73705948D01*
X68301082Y-73691334D01*
X68322126Y-73678721D01*
X68344304Y-73668231D01*
X68367404Y-73659966D01*
X68391202Y-73654005D01*
X68415471Y-73650405D01*
X68439975Y-73649201D01*
X68464479Y-73650405D01*
X68464479Y-73650405D01*
G37*
D12*
X68439975Y-74323465D03*
D10*
G36*
X69433215Y-74619142D02*
G01*
X69457484Y-74622742D01*
X69481282Y-74628703D01*
X69504382Y-74636968D01*
X69526560Y-74647458D01*
X69547604Y-74660071D01*
X69567309Y-74674685D01*
X69585488Y-74691161D01*
X70009752Y-75115425D01*
X70026228Y-75133604D01*
X70040842Y-75153309D01*
X70053455Y-75174353D01*
X70063945Y-75196531D01*
X70072210Y-75219631D01*
X70078171Y-75243429D01*
X70081771Y-75267698D01*
X70082975Y-75292202D01*
X70081771Y-75316706D01*
X70078171Y-75340975D01*
X70072210Y-75364773D01*
X70063945Y-75387873D01*
X70053455Y-75410051D01*
X70040842Y-75431095D01*
X70026228Y-75450800D01*
X70009752Y-75468979D01*
X69585488Y-75893243D01*
X69567309Y-75909719D01*
X69547604Y-75924333D01*
X69526560Y-75936946D01*
X69504382Y-75947436D01*
X69481282Y-75955701D01*
X69457484Y-75961662D01*
X69433215Y-75965262D01*
X69408711Y-75966466D01*
X69384207Y-75965262D01*
X69359938Y-75961662D01*
X69336140Y-75955701D01*
X69313040Y-75947436D01*
X69290862Y-75936946D01*
X69269818Y-75924333D01*
X69250113Y-75909719D01*
X69231934Y-75893243D01*
X68807670Y-75468979D01*
X68791194Y-75450800D01*
X68776580Y-75431095D01*
X68763967Y-75410051D01*
X68753477Y-75387873D01*
X68745212Y-75364773D01*
X68739251Y-75340975D01*
X68735651Y-75316706D01*
X68734447Y-75292202D01*
X68735651Y-75267698D01*
X68739251Y-75243429D01*
X68745212Y-75219631D01*
X68753477Y-75196531D01*
X68763967Y-75174353D01*
X68776580Y-75153309D01*
X68791194Y-75133604D01*
X68807670Y-75115425D01*
X69231934Y-74691161D01*
X69250113Y-74674685D01*
X69269818Y-74660071D01*
X69290862Y-74647458D01*
X69313040Y-74636968D01*
X69336140Y-74628703D01*
X69359938Y-74622742D01*
X69384207Y-74619142D01*
X69408711Y-74617938D01*
X69433215Y-74619142D01*
X69433215Y-74619142D01*
G37*
D12*
X69408711Y-75292202D03*
D10*
G36*
X70401952Y-75587878D02*
G01*
X70426221Y-75591478D01*
X70450019Y-75597439D01*
X70473119Y-75605704D01*
X70495297Y-75616194D01*
X70516341Y-75628807D01*
X70536046Y-75643421D01*
X70554225Y-75659897D01*
X70978489Y-76084161D01*
X70994965Y-76102340D01*
X71009579Y-76122045D01*
X71022192Y-76143089D01*
X71032682Y-76165267D01*
X71040947Y-76188367D01*
X71046908Y-76212165D01*
X71050508Y-76236434D01*
X71051712Y-76260938D01*
X71050508Y-76285442D01*
X71046908Y-76309711D01*
X71040947Y-76333509D01*
X71032682Y-76356609D01*
X71022192Y-76378787D01*
X71009579Y-76399831D01*
X70994965Y-76419536D01*
X70978489Y-76437715D01*
X70554225Y-76861979D01*
X70536046Y-76878455D01*
X70516341Y-76893069D01*
X70495297Y-76905682D01*
X70473119Y-76916172D01*
X70450019Y-76924437D01*
X70426221Y-76930398D01*
X70401952Y-76933998D01*
X70377448Y-76935202D01*
X70352944Y-76933998D01*
X70328675Y-76930398D01*
X70304877Y-76924437D01*
X70281777Y-76916172D01*
X70259599Y-76905682D01*
X70238555Y-76893069D01*
X70218850Y-76878455D01*
X70200671Y-76861979D01*
X69776407Y-76437715D01*
X69759931Y-76419536D01*
X69745317Y-76399831D01*
X69732704Y-76378787D01*
X69722214Y-76356609D01*
X69713949Y-76333509D01*
X69707988Y-76309711D01*
X69704388Y-76285442D01*
X69703184Y-76260938D01*
X69704388Y-76236434D01*
X69707988Y-76212165D01*
X69713949Y-76188367D01*
X69722214Y-76165267D01*
X69732704Y-76143089D01*
X69745317Y-76122045D01*
X69759931Y-76102340D01*
X69776407Y-76084161D01*
X70200671Y-75659897D01*
X70218850Y-75643421D01*
X70238555Y-75628807D01*
X70259599Y-75616194D01*
X70281777Y-75605704D01*
X70304877Y-75597439D01*
X70328675Y-75591478D01*
X70352944Y-75587878D01*
X70377448Y-75586674D01*
X70401952Y-75587878D01*
X70401952Y-75587878D01*
G37*
D12*
X70377448Y-76260938D03*
D13*
X82550000Y-63754000D03*
X83820000Y-63754000D03*
X85090000Y-63754000D03*
X86360000Y-63754000D03*
X87630000Y-63754000D03*
X88900000Y-63754000D03*
X90170000Y-63754000D03*
X91440000Y-63754000D03*
X92710000Y-63754000D03*
X93980000Y-63754000D03*
X95250000Y-63754000D03*
X96520000Y-63754000D03*
X97790000Y-63754000D03*
X99060000Y-63754000D03*
X100330000Y-63754000D03*
X101600000Y-89154000D03*
X100330000Y-89154000D03*
X99060000Y-89154000D03*
X97790000Y-89154000D03*
X96520000Y-89154000D03*
X95250000Y-89154000D03*
X93980000Y-89154000D03*
X92710000Y-89154000D03*
X91440000Y-89154000D03*
X90170000Y-89154000D03*
X88900000Y-89154000D03*
X87630000Y-89154000D03*
X86360000Y-89154000D03*
X85090000Y-89154000D03*
X83820000Y-89154000D03*
X82550000Y-89154000D03*
X101600000Y-63754000D03*
D14*
X69884000Y-69303400D03*
X67784000Y-69303400D03*
X67784000Y-67653400D03*
X69884000Y-67653400D03*
D10*
G36*
X65361358Y-69073510D02*
G01*
X65375676Y-69075634D01*
X65389717Y-69079151D01*
X65403346Y-69084028D01*
X65416431Y-69090217D01*
X65428847Y-69097658D01*
X65440473Y-69106281D01*
X65451198Y-69116002D01*
X65460919Y-69126727D01*
X65469542Y-69138353D01*
X65476983Y-69150769D01*
X65483172Y-69163854D01*
X65488049Y-69177483D01*
X65491566Y-69191524D01*
X65493690Y-69205842D01*
X65494400Y-69220300D01*
X65494400Y-69565300D01*
X65493690Y-69579758D01*
X65491566Y-69594076D01*
X65488049Y-69608117D01*
X65483172Y-69621746D01*
X65476983Y-69634831D01*
X65469542Y-69647247D01*
X65460919Y-69658873D01*
X65451198Y-69669598D01*
X65440473Y-69679319D01*
X65428847Y-69687942D01*
X65416431Y-69695383D01*
X65403346Y-69701572D01*
X65389717Y-69706449D01*
X65375676Y-69709966D01*
X65361358Y-69712090D01*
X65346900Y-69712800D01*
X65051900Y-69712800D01*
X65037442Y-69712090D01*
X65023124Y-69709966D01*
X65009083Y-69706449D01*
X64995454Y-69701572D01*
X64982369Y-69695383D01*
X64969953Y-69687942D01*
X64958327Y-69679319D01*
X64947602Y-69669598D01*
X64937881Y-69658873D01*
X64929258Y-69647247D01*
X64921817Y-69634831D01*
X64915628Y-69621746D01*
X64910751Y-69608117D01*
X64907234Y-69594076D01*
X64905110Y-69579758D01*
X64904400Y-69565300D01*
X64904400Y-69220300D01*
X64905110Y-69205842D01*
X64907234Y-69191524D01*
X64910751Y-69177483D01*
X64915628Y-69163854D01*
X64921817Y-69150769D01*
X64929258Y-69138353D01*
X64937881Y-69126727D01*
X64947602Y-69116002D01*
X64958327Y-69106281D01*
X64969953Y-69097658D01*
X64982369Y-69090217D01*
X64995454Y-69084028D01*
X65009083Y-69079151D01*
X65023124Y-69075634D01*
X65037442Y-69073510D01*
X65051900Y-69072800D01*
X65346900Y-69072800D01*
X65361358Y-69073510D01*
X65361358Y-69073510D01*
G37*
D15*
X65199400Y-69392800D03*
D10*
G36*
X66331358Y-69073510D02*
G01*
X66345676Y-69075634D01*
X66359717Y-69079151D01*
X66373346Y-69084028D01*
X66386431Y-69090217D01*
X66398847Y-69097658D01*
X66410473Y-69106281D01*
X66421198Y-69116002D01*
X66430919Y-69126727D01*
X66439542Y-69138353D01*
X66446983Y-69150769D01*
X66453172Y-69163854D01*
X66458049Y-69177483D01*
X66461566Y-69191524D01*
X66463690Y-69205842D01*
X66464400Y-69220300D01*
X66464400Y-69565300D01*
X66463690Y-69579758D01*
X66461566Y-69594076D01*
X66458049Y-69608117D01*
X66453172Y-69621746D01*
X66446983Y-69634831D01*
X66439542Y-69647247D01*
X66430919Y-69658873D01*
X66421198Y-69669598D01*
X66410473Y-69679319D01*
X66398847Y-69687942D01*
X66386431Y-69695383D01*
X66373346Y-69701572D01*
X66359717Y-69706449D01*
X66345676Y-69709966D01*
X66331358Y-69712090D01*
X66316900Y-69712800D01*
X66021900Y-69712800D01*
X66007442Y-69712090D01*
X65993124Y-69709966D01*
X65979083Y-69706449D01*
X65965454Y-69701572D01*
X65952369Y-69695383D01*
X65939953Y-69687942D01*
X65928327Y-69679319D01*
X65917602Y-69669598D01*
X65907881Y-69658873D01*
X65899258Y-69647247D01*
X65891817Y-69634831D01*
X65885628Y-69621746D01*
X65880751Y-69608117D01*
X65877234Y-69594076D01*
X65875110Y-69579758D01*
X65874400Y-69565300D01*
X65874400Y-69220300D01*
X65875110Y-69205842D01*
X65877234Y-69191524D01*
X65880751Y-69177483D01*
X65885628Y-69163854D01*
X65891817Y-69150769D01*
X65899258Y-69138353D01*
X65907881Y-69126727D01*
X65917602Y-69116002D01*
X65928327Y-69106281D01*
X65939953Y-69097658D01*
X65952369Y-69090217D01*
X65965454Y-69084028D01*
X65979083Y-69079151D01*
X65993124Y-69075634D01*
X66007442Y-69073510D01*
X66021900Y-69072800D01*
X66316900Y-69072800D01*
X66331358Y-69073510D01*
X66331358Y-69073510D01*
G37*
D15*
X66169400Y-69392800D03*
D10*
G36*
X65361358Y-65923910D02*
G01*
X65375676Y-65926034D01*
X65389717Y-65929551D01*
X65403346Y-65934428D01*
X65416431Y-65940617D01*
X65428847Y-65948058D01*
X65440473Y-65956681D01*
X65451198Y-65966402D01*
X65460919Y-65977127D01*
X65469542Y-65988753D01*
X65476983Y-66001169D01*
X65483172Y-66014254D01*
X65488049Y-66027883D01*
X65491566Y-66041924D01*
X65493690Y-66056242D01*
X65494400Y-66070700D01*
X65494400Y-66415700D01*
X65493690Y-66430158D01*
X65491566Y-66444476D01*
X65488049Y-66458517D01*
X65483172Y-66472146D01*
X65476983Y-66485231D01*
X65469542Y-66497647D01*
X65460919Y-66509273D01*
X65451198Y-66519998D01*
X65440473Y-66529719D01*
X65428847Y-66538342D01*
X65416431Y-66545783D01*
X65403346Y-66551972D01*
X65389717Y-66556849D01*
X65375676Y-66560366D01*
X65361358Y-66562490D01*
X65346900Y-66563200D01*
X65051900Y-66563200D01*
X65037442Y-66562490D01*
X65023124Y-66560366D01*
X65009083Y-66556849D01*
X64995454Y-66551972D01*
X64982369Y-66545783D01*
X64969953Y-66538342D01*
X64958327Y-66529719D01*
X64947602Y-66519998D01*
X64937881Y-66509273D01*
X64929258Y-66497647D01*
X64921817Y-66485231D01*
X64915628Y-66472146D01*
X64910751Y-66458517D01*
X64907234Y-66444476D01*
X64905110Y-66430158D01*
X64904400Y-66415700D01*
X64904400Y-66070700D01*
X64905110Y-66056242D01*
X64907234Y-66041924D01*
X64910751Y-66027883D01*
X64915628Y-66014254D01*
X64921817Y-66001169D01*
X64929258Y-65988753D01*
X64937881Y-65977127D01*
X64947602Y-65966402D01*
X64958327Y-65956681D01*
X64969953Y-65948058D01*
X64982369Y-65940617D01*
X64995454Y-65934428D01*
X65009083Y-65929551D01*
X65023124Y-65926034D01*
X65037442Y-65923910D01*
X65051900Y-65923200D01*
X65346900Y-65923200D01*
X65361358Y-65923910D01*
X65361358Y-65923910D01*
G37*
D15*
X65199400Y-66243200D03*
D10*
G36*
X66331358Y-65923910D02*
G01*
X66345676Y-65926034D01*
X66359717Y-65929551D01*
X66373346Y-65934428D01*
X66386431Y-65940617D01*
X66398847Y-65948058D01*
X66410473Y-65956681D01*
X66421198Y-65966402D01*
X66430919Y-65977127D01*
X66439542Y-65988753D01*
X66446983Y-66001169D01*
X66453172Y-66014254D01*
X66458049Y-66027883D01*
X66461566Y-66041924D01*
X66463690Y-66056242D01*
X66464400Y-66070700D01*
X66464400Y-66415700D01*
X66463690Y-66430158D01*
X66461566Y-66444476D01*
X66458049Y-66458517D01*
X66453172Y-66472146D01*
X66446983Y-66485231D01*
X66439542Y-66497647D01*
X66430919Y-66509273D01*
X66421198Y-66519998D01*
X66410473Y-66529719D01*
X66398847Y-66538342D01*
X66386431Y-66545783D01*
X66373346Y-66551972D01*
X66359717Y-66556849D01*
X66345676Y-66560366D01*
X66331358Y-66562490D01*
X66316900Y-66563200D01*
X66021900Y-66563200D01*
X66007442Y-66562490D01*
X65993124Y-66560366D01*
X65979083Y-66556849D01*
X65965454Y-66551972D01*
X65952369Y-66545783D01*
X65939953Y-66538342D01*
X65928327Y-66529719D01*
X65917602Y-66519998D01*
X65907881Y-66509273D01*
X65899258Y-66497647D01*
X65891817Y-66485231D01*
X65885628Y-66472146D01*
X65880751Y-66458517D01*
X65877234Y-66444476D01*
X65875110Y-66430158D01*
X65874400Y-66415700D01*
X65874400Y-66070700D01*
X65875110Y-66056242D01*
X65877234Y-66041924D01*
X65880751Y-66027883D01*
X65885628Y-66014254D01*
X65891817Y-66001169D01*
X65899258Y-65988753D01*
X65907881Y-65977127D01*
X65917602Y-65966402D01*
X65928327Y-65956681D01*
X65939953Y-65948058D01*
X65952369Y-65940617D01*
X65965454Y-65934428D01*
X65979083Y-65929551D01*
X65993124Y-65926034D01*
X66007442Y-65923910D01*
X66021900Y-65923200D01*
X66316900Y-65923200D01*
X66331358Y-65923910D01*
X66331358Y-65923910D01*
G37*
D15*
X66169400Y-66243200D03*
D10*
G36*
X66331358Y-67193910D02*
G01*
X66345676Y-67196034D01*
X66359717Y-67199551D01*
X66373346Y-67204428D01*
X66386431Y-67210617D01*
X66398847Y-67218058D01*
X66410473Y-67226681D01*
X66421198Y-67236402D01*
X66430919Y-67247127D01*
X66439542Y-67258753D01*
X66446983Y-67271169D01*
X66453172Y-67284254D01*
X66458049Y-67297883D01*
X66461566Y-67311924D01*
X66463690Y-67326242D01*
X66464400Y-67340700D01*
X66464400Y-67685700D01*
X66463690Y-67700158D01*
X66461566Y-67714476D01*
X66458049Y-67728517D01*
X66453172Y-67742146D01*
X66446983Y-67755231D01*
X66439542Y-67767647D01*
X66430919Y-67779273D01*
X66421198Y-67789998D01*
X66410473Y-67799719D01*
X66398847Y-67808342D01*
X66386431Y-67815783D01*
X66373346Y-67821972D01*
X66359717Y-67826849D01*
X66345676Y-67830366D01*
X66331358Y-67832490D01*
X66316900Y-67833200D01*
X66021900Y-67833200D01*
X66007442Y-67832490D01*
X65993124Y-67830366D01*
X65979083Y-67826849D01*
X65965454Y-67821972D01*
X65952369Y-67815783D01*
X65939953Y-67808342D01*
X65928327Y-67799719D01*
X65917602Y-67789998D01*
X65907881Y-67779273D01*
X65899258Y-67767647D01*
X65891817Y-67755231D01*
X65885628Y-67742146D01*
X65880751Y-67728517D01*
X65877234Y-67714476D01*
X65875110Y-67700158D01*
X65874400Y-67685700D01*
X65874400Y-67340700D01*
X65875110Y-67326242D01*
X65877234Y-67311924D01*
X65880751Y-67297883D01*
X65885628Y-67284254D01*
X65891817Y-67271169D01*
X65899258Y-67258753D01*
X65907881Y-67247127D01*
X65917602Y-67236402D01*
X65928327Y-67226681D01*
X65939953Y-67218058D01*
X65952369Y-67210617D01*
X65965454Y-67204428D01*
X65979083Y-67199551D01*
X65993124Y-67196034D01*
X66007442Y-67193910D01*
X66021900Y-67193200D01*
X66316900Y-67193200D01*
X66331358Y-67193910D01*
X66331358Y-67193910D01*
G37*
D15*
X66169400Y-67513200D03*
D10*
G36*
X65361358Y-67193910D02*
G01*
X65375676Y-67196034D01*
X65389717Y-67199551D01*
X65403346Y-67204428D01*
X65416431Y-67210617D01*
X65428847Y-67218058D01*
X65440473Y-67226681D01*
X65451198Y-67236402D01*
X65460919Y-67247127D01*
X65469542Y-67258753D01*
X65476983Y-67271169D01*
X65483172Y-67284254D01*
X65488049Y-67297883D01*
X65491566Y-67311924D01*
X65493690Y-67326242D01*
X65494400Y-67340700D01*
X65494400Y-67685700D01*
X65493690Y-67700158D01*
X65491566Y-67714476D01*
X65488049Y-67728517D01*
X65483172Y-67742146D01*
X65476983Y-67755231D01*
X65469542Y-67767647D01*
X65460919Y-67779273D01*
X65451198Y-67789998D01*
X65440473Y-67799719D01*
X65428847Y-67808342D01*
X65416431Y-67815783D01*
X65403346Y-67821972D01*
X65389717Y-67826849D01*
X65375676Y-67830366D01*
X65361358Y-67832490D01*
X65346900Y-67833200D01*
X65051900Y-67833200D01*
X65037442Y-67832490D01*
X65023124Y-67830366D01*
X65009083Y-67826849D01*
X64995454Y-67821972D01*
X64982369Y-67815783D01*
X64969953Y-67808342D01*
X64958327Y-67799719D01*
X64947602Y-67789998D01*
X64937881Y-67779273D01*
X64929258Y-67767647D01*
X64921817Y-67755231D01*
X64915628Y-67742146D01*
X64910751Y-67728517D01*
X64907234Y-67714476D01*
X64905110Y-67700158D01*
X64904400Y-67685700D01*
X64904400Y-67340700D01*
X64905110Y-67326242D01*
X64907234Y-67311924D01*
X64910751Y-67297883D01*
X64915628Y-67284254D01*
X64921817Y-67271169D01*
X64929258Y-67258753D01*
X64937881Y-67247127D01*
X64947602Y-67236402D01*
X64958327Y-67226681D01*
X64969953Y-67218058D01*
X64982369Y-67210617D01*
X64995454Y-67204428D01*
X65009083Y-67199551D01*
X65023124Y-67196034D01*
X65037442Y-67193910D01*
X65051900Y-67193200D01*
X65346900Y-67193200D01*
X65361358Y-67193910D01*
X65361358Y-67193910D01*
G37*
D15*
X65199400Y-67513200D03*
D10*
G36*
X122562158Y-79335110D02*
G01*
X122576476Y-79337234D01*
X122590517Y-79340751D01*
X122604146Y-79345628D01*
X122617231Y-79351817D01*
X122629647Y-79359258D01*
X122641273Y-79367881D01*
X122651998Y-79377602D01*
X122661719Y-79388327D01*
X122670342Y-79399953D01*
X122677783Y-79412369D01*
X122683972Y-79425454D01*
X122688849Y-79439083D01*
X122692366Y-79453124D01*
X122694490Y-79467442D01*
X122695200Y-79481900D01*
X122695200Y-79826900D01*
X122694490Y-79841358D01*
X122692366Y-79855676D01*
X122688849Y-79869717D01*
X122683972Y-79883346D01*
X122677783Y-79896431D01*
X122670342Y-79908847D01*
X122661719Y-79920473D01*
X122651998Y-79931198D01*
X122641273Y-79940919D01*
X122629647Y-79949542D01*
X122617231Y-79956983D01*
X122604146Y-79963172D01*
X122590517Y-79968049D01*
X122576476Y-79971566D01*
X122562158Y-79973690D01*
X122547700Y-79974400D01*
X122252700Y-79974400D01*
X122238242Y-79973690D01*
X122223924Y-79971566D01*
X122209883Y-79968049D01*
X122196254Y-79963172D01*
X122183169Y-79956983D01*
X122170753Y-79949542D01*
X122159127Y-79940919D01*
X122148402Y-79931198D01*
X122138681Y-79920473D01*
X122130058Y-79908847D01*
X122122617Y-79896431D01*
X122116428Y-79883346D01*
X122111551Y-79869717D01*
X122108034Y-79855676D01*
X122105910Y-79841358D01*
X122105200Y-79826900D01*
X122105200Y-79481900D01*
X122105910Y-79467442D01*
X122108034Y-79453124D01*
X122111551Y-79439083D01*
X122116428Y-79425454D01*
X122122617Y-79412369D01*
X122130058Y-79399953D01*
X122138681Y-79388327D01*
X122148402Y-79377602D01*
X122159127Y-79367881D01*
X122170753Y-79359258D01*
X122183169Y-79351817D01*
X122196254Y-79345628D01*
X122209883Y-79340751D01*
X122223924Y-79337234D01*
X122238242Y-79335110D01*
X122252700Y-79334400D01*
X122547700Y-79334400D01*
X122562158Y-79335110D01*
X122562158Y-79335110D01*
G37*
D15*
X122400200Y-79654400D03*
D10*
G36*
X123532158Y-79335110D02*
G01*
X123546476Y-79337234D01*
X123560517Y-79340751D01*
X123574146Y-79345628D01*
X123587231Y-79351817D01*
X123599647Y-79359258D01*
X123611273Y-79367881D01*
X123621998Y-79377602D01*
X123631719Y-79388327D01*
X123640342Y-79399953D01*
X123647783Y-79412369D01*
X123653972Y-79425454D01*
X123658849Y-79439083D01*
X123662366Y-79453124D01*
X123664490Y-79467442D01*
X123665200Y-79481900D01*
X123665200Y-79826900D01*
X123664490Y-79841358D01*
X123662366Y-79855676D01*
X123658849Y-79869717D01*
X123653972Y-79883346D01*
X123647783Y-79896431D01*
X123640342Y-79908847D01*
X123631719Y-79920473D01*
X123621998Y-79931198D01*
X123611273Y-79940919D01*
X123599647Y-79949542D01*
X123587231Y-79956983D01*
X123574146Y-79963172D01*
X123560517Y-79968049D01*
X123546476Y-79971566D01*
X123532158Y-79973690D01*
X123517700Y-79974400D01*
X123222700Y-79974400D01*
X123208242Y-79973690D01*
X123193924Y-79971566D01*
X123179883Y-79968049D01*
X123166254Y-79963172D01*
X123153169Y-79956983D01*
X123140753Y-79949542D01*
X123129127Y-79940919D01*
X123118402Y-79931198D01*
X123108681Y-79920473D01*
X123100058Y-79908847D01*
X123092617Y-79896431D01*
X123086428Y-79883346D01*
X123081551Y-79869717D01*
X123078034Y-79855676D01*
X123075910Y-79841358D01*
X123075200Y-79826900D01*
X123075200Y-79481900D01*
X123075910Y-79467442D01*
X123078034Y-79453124D01*
X123081551Y-79439083D01*
X123086428Y-79425454D01*
X123092617Y-79412369D01*
X123100058Y-79399953D01*
X123108681Y-79388327D01*
X123118402Y-79377602D01*
X123129127Y-79367881D01*
X123140753Y-79359258D01*
X123153169Y-79351817D01*
X123166254Y-79345628D01*
X123179883Y-79340751D01*
X123193924Y-79337234D01*
X123208242Y-79335110D01*
X123222700Y-79334400D01*
X123517700Y-79334400D01*
X123532158Y-79335110D01*
X123532158Y-79335110D01*
G37*
D15*
X123370200Y-79654400D03*
D10*
G36*
X122445458Y-66355710D02*
G01*
X122459776Y-66357834D01*
X122473817Y-66361351D01*
X122487446Y-66366228D01*
X122500531Y-66372417D01*
X122512947Y-66379858D01*
X122524573Y-66388481D01*
X122535298Y-66398202D01*
X122545019Y-66408927D01*
X122553642Y-66420553D01*
X122561083Y-66432969D01*
X122567272Y-66446054D01*
X122572149Y-66459683D01*
X122575666Y-66473724D01*
X122577790Y-66488042D01*
X122578500Y-66502500D01*
X122578500Y-66847500D01*
X122577790Y-66861958D01*
X122575666Y-66876276D01*
X122572149Y-66890317D01*
X122567272Y-66903946D01*
X122561083Y-66917031D01*
X122553642Y-66929447D01*
X122545019Y-66941073D01*
X122535298Y-66951798D01*
X122524573Y-66961519D01*
X122512947Y-66970142D01*
X122500531Y-66977583D01*
X122487446Y-66983772D01*
X122473817Y-66988649D01*
X122459776Y-66992166D01*
X122445458Y-66994290D01*
X122431000Y-66995000D01*
X122136000Y-66995000D01*
X122121542Y-66994290D01*
X122107224Y-66992166D01*
X122093183Y-66988649D01*
X122079554Y-66983772D01*
X122066469Y-66977583D01*
X122054053Y-66970142D01*
X122042427Y-66961519D01*
X122031702Y-66951798D01*
X122021981Y-66941073D01*
X122013358Y-66929447D01*
X122005917Y-66917031D01*
X121999728Y-66903946D01*
X121994851Y-66890317D01*
X121991334Y-66876276D01*
X121989210Y-66861958D01*
X121988500Y-66847500D01*
X121988500Y-66502500D01*
X121989210Y-66488042D01*
X121991334Y-66473724D01*
X121994851Y-66459683D01*
X121999728Y-66446054D01*
X122005917Y-66432969D01*
X122013358Y-66420553D01*
X122021981Y-66408927D01*
X122031702Y-66398202D01*
X122042427Y-66388481D01*
X122054053Y-66379858D01*
X122066469Y-66372417D01*
X122079554Y-66366228D01*
X122093183Y-66361351D01*
X122107224Y-66357834D01*
X122121542Y-66355710D01*
X122136000Y-66355000D01*
X122431000Y-66355000D01*
X122445458Y-66355710D01*
X122445458Y-66355710D01*
G37*
D15*
X122283500Y-66675000D03*
D10*
G36*
X123415458Y-66355710D02*
G01*
X123429776Y-66357834D01*
X123443817Y-66361351D01*
X123457446Y-66366228D01*
X123470531Y-66372417D01*
X123482947Y-66379858D01*
X123494573Y-66388481D01*
X123505298Y-66398202D01*
X123515019Y-66408927D01*
X123523642Y-66420553D01*
X123531083Y-66432969D01*
X123537272Y-66446054D01*
X123542149Y-66459683D01*
X123545666Y-66473724D01*
X123547790Y-66488042D01*
X123548500Y-66502500D01*
X123548500Y-66847500D01*
X123547790Y-66861958D01*
X123545666Y-66876276D01*
X123542149Y-66890317D01*
X123537272Y-66903946D01*
X123531083Y-66917031D01*
X123523642Y-66929447D01*
X123515019Y-66941073D01*
X123505298Y-66951798D01*
X123494573Y-66961519D01*
X123482947Y-66970142D01*
X123470531Y-66977583D01*
X123457446Y-66983772D01*
X123443817Y-66988649D01*
X123429776Y-66992166D01*
X123415458Y-66994290D01*
X123401000Y-66995000D01*
X123106000Y-66995000D01*
X123091542Y-66994290D01*
X123077224Y-66992166D01*
X123063183Y-66988649D01*
X123049554Y-66983772D01*
X123036469Y-66977583D01*
X123024053Y-66970142D01*
X123012427Y-66961519D01*
X123001702Y-66951798D01*
X122991981Y-66941073D01*
X122983358Y-66929447D01*
X122975917Y-66917031D01*
X122969728Y-66903946D01*
X122964851Y-66890317D01*
X122961334Y-66876276D01*
X122959210Y-66861958D01*
X122958500Y-66847500D01*
X122958500Y-66502500D01*
X122959210Y-66488042D01*
X122961334Y-66473724D01*
X122964851Y-66459683D01*
X122969728Y-66446054D01*
X122975917Y-66432969D01*
X122983358Y-66420553D01*
X122991981Y-66408927D01*
X123001702Y-66398202D01*
X123012427Y-66388481D01*
X123024053Y-66379858D01*
X123036469Y-66372417D01*
X123049554Y-66366228D01*
X123063183Y-66361351D01*
X123077224Y-66357834D01*
X123091542Y-66355710D01*
X123106000Y-66355000D01*
X123401000Y-66355000D01*
X123415458Y-66355710D01*
X123415458Y-66355710D01*
G37*
D15*
X123253500Y-66675000D03*
D10*
G36*
X122422458Y-67562210D02*
G01*
X122436776Y-67564334D01*
X122450817Y-67567851D01*
X122464446Y-67572728D01*
X122477531Y-67578917D01*
X122489947Y-67586358D01*
X122501573Y-67594981D01*
X122512298Y-67604702D01*
X122522019Y-67615427D01*
X122530642Y-67627053D01*
X122538083Y-67639469D01*
X122544272Y-67652554D01*
X122549149Y-67666183D01*
X122552666Y-67680224D01*
X122554790Y-67694542D01*
X122555500Y-67709000D01*
X122555500Y-68054000D01*
X122554790Y-68068458D01*
X122552666Y-68082776D01*
X122549149Y-68096817D01*
X122544272Y-68110446D01*
X122538083Y-68123531D01*
X122530642Y-68135947D01*
X122522019Y-68147573D01*
X122512298Y-68158298D01*
X122501573Y-68168019D01*
X122489947Y-68176642D01*
X122477531Y-68184083D01*
X122464446Y-68190272D01*
X122450817Y-68195149D01*
X122436776Y-68198666D01*
X122422458Y-68200790D01*
X122408000Y-68201500D01*
X122113000Y-68201500D01*
X122098542Y-68200790D01*
X122084224Y-68198666D01*
X122070183Y-68195149D01*
X122056554Y-68190272D01*
X122043469Y-68184083D01*
X122031053Y-68176642D01*
X122019427Y-68168019D01*
X122008702Y-68158298D01*
X121998981Y-68147573D01*
X121990358Y-68135947D01*
X121982917Y-68123531D01*
X121976728Y-68110446D01*
X121971851Y-68096817D01*
X121968334Y-68082776D01*
X121966210Y-68068458D01*
X121965500Y-68054000D01*
X121965500Y-67709000D01*
X121966210Y-67694542D01*
X121968334Y-67680224D01*
X121971851Y-67666183D01*
X121976728Y-67652554D01*
X121982917Y-67639469D01*
X121990358Y-67627053D01*
X121998981Y-67615427D01*
X122008702Y-67604702D01*
X122019427Y-67594981D01*
X122031053Y-67586358D01*
X122043469Y-67578917D01*
X122056554Y-67572728D01*
X122070183Y-67567851D01*
X122084224Y-67564334D01*
X122098542Y-67562210D01*
X122113000Y-67561500D01*
X122408000Y-67561500D01*
X122422458Y-67562210D01*
X122422458Y-67562210D01*
G37*
D15*
X122260500Y-67881500D03*
D10*
G36*
X123392458Y-67562210D02*
G01*
X123406776Y-67564334D01*
X123420817Y-67567851D01*
X123434446Y-67572728D01*
X123447531Y-67578917D01*
X123459947Y-67586358D01*
X123471573Y-67594981D01*
X123482298Y-67604702D01*
X123492019Y-67615427D01*
X123500642Y-67627053D01*
X123508083Y-67639469D01*
X123514272Y-67652554D01*
X123519149Y-67666183D01*
X123522666Y-67680224D01*
X123524790Y-67694542D01*
X123525500Y-67709000D01*
X123525500Y-68054000D01*
X123524790Y-68068458D01*
X123522666Y-68082776D01*
X123519149Y-68096817D01*
X123514272Y-68110446D01*
X123508083Y-68123531D01*
X123500642Y-68135947D01*
X123492019Y-68147573D01*
X123482298Y-68158298D01*
X123471573Y-68168019D01*
X123459947Y-68176642D01*
X123447531Y-68184083D01*
X123434446Y-68190272D01*
X123420817Y-68195149D01*
X123406776Y-68198666D01*
X123392458Y-68200790D01*
X123378000Y-68201500D01*
X123083000Y-68201500D01*
X123068542Y-68200790D01*
X123054224Y-68198666D01*
X123040183Y-68195149D01*
X123026554Y-68190272D01*
X123013469Y-68184083D01*
X123001053Y-68176642D01*
X122989427Y-68168019D01*
X122978702Y-68158298D01*
X122968981Y-68147573D01*
X122960358Y-68135947D01*
X122952917Y-68123531D01*
X122946728Y-68110446D01*
X122941851Y-68096817D01*
X122938334Y-68082776D01*
X122936210Y-68068458D01*
X122935500Y-68054000D01*
X122935500Y-67709000D01*
X122936210Y-67694542D01*
X122938334Y-67680224D01*
X122941851Y-67666183D01*
X122946728Y-67652554D01*
X122952917Y-67639469D01*
X122960358Y-67627053D01*
X122968981Y-67615427D01*
X122978702Y-67604702D01*
X122989427Y-67594981D01*
X123001053Y-67586358D01*
X123013469Y-67578917D01*
X123026554Y-67572728D01*
X123040183Y-67567851D01*
X123054224Y-67564334D01*
X123068542Y-67562210D01*
X123083000Y-67561500D01*
X123378000Y-67561500D01*
X123392458Y-67562210D01*
X123392458Y-67562210D01*
G37*
D15*
X123230500Y-67881500D03*
D10*
G36*
X62595158Y-70572110D02*
G01*
X62609476Y-70574234D01*
X62623517Y-70577751D01*
X62637146Y-70582628D01*
X62650231Y-70588817D01*
X62662647Y-70596258D01*
X62674273Y-70604881D01*
X62684998Y-70614602D01*
X62694719Y-70625327D01*
X62703342Y-70636953D01*
X62710783Y-70649369D01*
X62716972Y-70662454D01*
X62721849Y-70676083D01*
X62725366Y-70690124D01*
X62727490Y-70704442D01*
X62728200Y-70718900D01*
X62728200Y-71063900D01*
X62727490Y-71078358D01*
X62725366Y-71092676D01*
X62721849Y-71106717D01*
X62716972Y-71120346D01*
X62710783Y-71133431D01*
X62703342Y-71145847D01*
X62694719Y-71157473D01*
X62684998Y-71168198D01*
X62674273Y-71177919D01*
X62662647Y-71186542D01*
X62650231Y-71193983D01*
X62637146Y-71200172D01*
X62623517Y-71205049D01*
X62609476Y-71208566D01*
X62595158Y-71210690D01*
X62580700Y-71211400D01*
X62285700Y-71211400D01*
X62271242Y-71210690D01*
X62256924Y-71208566D01*
X62242883Y-71205049D01*
X62229254Y-71200172D01*
X62216169Y-71193983D01*
X62203753Y-71186542D01*
X62192127Y-71177919D01*
X62181402Y-71168198D01*
X62171681Y-71157473D01*
X62163058Y-71145847D01*
X62155617Y-71133431D01*
X62149428Y-71120346D01*
X62144551Y-71106717D01*
X62141034Y-71092676D01*
X62138910Y-71078358D01*
X62138200Y-71063900D01*
X62138200Y-70718900D01*
X62138910Y-70704442D01*
X62141034Y-70690124D01*
X62144551Y-70676083D01*
X62149428Y-70662454D01*
X62155617Y-70649369D01*
X62163058Y-70636953D01*
X62171681Y-70625327D01*
X62181402Y-70614602D01*
X62192127Y-70604881D01*
X62203753Y-70596258D01*
X62216169Y-70588817D01*
X62229254Y-70582628D01*
X62242883Y-70577751D01*
X62256924Y-70574234D01*
X62271242Y-70572110D01*
X62285700Y-70571400D01*
X62580700Y-70571400D01*
X62595158Y-70572110D01*
X62595158Y-70572110D01*
G37*
D15*
X62433200Y-70891400D03*
D10*
G36*
X63565158Y-70572110D02*
G01*
X63579476Y-70574234D01*
X63593517Y-70577751D01*
X63607146Y-70582628D01*
X63620231Y-70588817D01*
X63632647Y-70596258D01*
X63644273Y-70604881D01*
X63654998Y-70614602D01*
X63664719Y-70625327D01*
X63673342Y-70636953D01*
X63680783Y-70649369D01*
X63686972Y-70662454D01*
X63691849Y-70676083D01*
X63695366Y-70690124D01*
X63697490Y-70704442D01*
X63698200Y-70718900D01*
X63698200Y-71063900D01*
X63697490Y-71078358D01*
X63695366Y-71092676D01*
X63691849Y-71106717D01*
X63686972Y-71120346D01*
X63680783Y-71133431D01*
X63673342Y-71145847D01*
X63664719Y-71157473D01*
X63654998Y-71168198D01*
X63644273Y-71177919D01*
X63632647Y-71186542D01*
X63620231Y-71193983D01*
X63607146Y-71200172D01*
X63593517Y-71205049D01*
X63579476Y-71208566D01*
X63565158Y-71210690D01*
X63550700Y-71211400D01*
X63255700Y-71211400D01*
X63241242Y-71210690D01*
X63226924Y-71208566D01*
X63212883Y-71205049D01*
X63199254Y-71200172D01*
X63186169Y-71193983D01*
X63173753Y-71186542D01*
X63162127Y-71177919D01*
X63151402Y-71168198D01*
X63141681Y-71157473D01*
X63133058Y-71145847D01*
X63125617Y-71133431D01*
X63119428Y-71120346D01*
X63114551Y-71106717D01*
X63111034Y-71092676D01*
X63108910Y-71078358D01*
X63108200Y-71063900D01*
X63108200Y-70718900D01*
X63108910Y-70704442D01*
X63111034Y-70690124D01*
X63114551Y-70676083D01*
X63119428Y-70662454D01*
X63125617Y-70649369D01*
X63133058Y-70636953D01*
X63141681Y-70625327D01*
X63151402Y-70614602D01*
X63162127Y-70604881D01*
X63173753Y-70596258D01*
X63186169Y-70588817D01*
X63199254Y-70582628D01*
X63212883Y-70577751D01*
X63226924Y-70574234D01*
X63241242Y-70572110D01*
X63255700Y-70571400D01*
X63550700Y-70571400D01*
X63565158Y-70572110D01*
X63565158Y-70572110D01*
G37*
D15*
X63403200Y-70891400D03*
D10*
G36*
X62592758Y-71638910D02*
G01*
X62607076Y-71641034D01*
X62621117Y-71644551D01*
X62634746Y-71649428D01*
X62647831Y-71655617D01*
X62660247Y-71663058D01*
X62671873Y-71671681D01*
X62682598Y-71681402D01*
X62692319Y-71692127D01*
X62700942Y-71703753D01*
X62708383Y-71716169D01*
X62714572Y-71729254D01*
X62719449Y-71742883D01*
X62722966Y-71756924D01*
X62725090Y-71771242D01*
X62725800Y-71785700D01*
X62725800Y-72130700D01*
X62725090Y-72145158D01*
X62722966Y-72159476D01*
X62719449Y-72173517D01*
X62714572Y-72187146D01*
X62708383Y-72200231D01*
X62700942Y-72212647D01*
X62692319Y-72224273D01*
X62682598Y-72234998D01*
X62671873Y-72244719D01*
X62660247Y-72253342D01*
X62647831Y-72260783D01*
X62634746Y-72266972D01*
X62621117Y-72271849D01*
X62607076Y-72275366D01*
X62592758Y-72277490D01*
X62578300Y-72278200D01*
X62283300Y-72278200D01*
X62268842Y-72277490D01*
X62254524Y-72275366D01*
X62240483Y-72271849D01*
X62226854Y-72266972D01*
X62213769Y-72260783D01*
X62201353Y-72253342D01*
X62189727Y-72244719D01*
X62179002Y-72234998D01*
X62169281Y-72224273D01*
X62160658Y-72212647D01*
X62153217Y-72200231D01*
X62147028Y-72187146D01*
X62142151Y-72173517D01*
X62138634Y-72159476D01*
X62136510Y-72145158D01*
X62135800Y-72130700D01*
X62135800Y-71785700D01*
X62136510Y-71771242D01*
X62138634Y-71756924D01*
X62142151Y-71742883D01*
X62147028Y-71729254D01*
X62153217Y-71716169D01*
X62160658Y-71703753D01*
X62169281Y-71692127D01*
X62179002Y-71681402D01*
X62189727Y-71671681D01*
X62201353Y-71663058D01*
X62213769Y-71655617D01*
X62226854Y-71649428D01*
X62240483Y-71644551D01*
X62254524Y-71641034D01*
X62268842Y-71638910D01*
X62283300Y-71638200D01*
X62578300Y-71638200D01*
X62592758Y-71638910D01*
X62592758Y-71638910D01*
G37*
D15*
X62430800Y-71958200D03*
D10*
G36*
X63562758Y-71638910D02*
G01*
X63577076Y-71641034D01*
X63591117Y-71644551D01*
X63604746Y-71649428D01*
X63617831Y-71655617D01*
X63630247Y-71663058D01*
X63641873Y-71671681D01*
X63652598Y-71681402D01*
X63662319Y-71692127D01*
X63670942Y-71703753D01*
X63678383Y-71716169D01*
X63684572Y-71729254D01*
X63689449Y-71742883D01*
X63692966Y-71756924D01*
X63695090Y-71771242D01*
X63695800Y-71785700D01*
X63695800Y-72130700D01*
X63695090Y-72145158D01*
X63692966Y-72159476D01*
X63689449Y-72173517D01*
X63684572Y-72187146D01*
X63678383Y-72200231D01*
X63670942Y-72212647D01*
X63662319Y-72224273D01*
X63652598Y-72234998D01*
X63641873Y-72244719D01*
X63630247Y-72253342D01*
X63617831Y-72260783D01*
X63604746Y-72266972D01*
X63591117Y-72271849D01*
X63577076Y-72275366D01*
X63562758Y-72277490D01*
X63548300Y-72278200D01*
X63253300Y-72278200D01*
X63238842Y-72277490D01*
X63224524Y-72275366D01*
X63210483Y-72271849D01*
X63196854Y-72266972D01*
X63183769Y-72260783D01*
X63171353Y-72253342D01*
X63159727Y-72244719D01*
X63149002Y-72234998D01*
X63139281Y-72224273D01*
X63130658Y-72212647D01*
X63123217Y-72200231D01*
X63117028Y-72187146D01*
X63112151Y-72173517D01*
X63108634Y-72159476D01*
X63106510Y-72145158D01*
X63105800Y-72130700D01*
X63105800Y-71785700D01*
X63106510Y-71771242D01*
X63108634Y-71756924D01*
X63112151Y-71742883D01*
X63117028Y-71729254D01*
X63123217Y-71716169D01*
X63130658Y-71703753D01*
X63139281Y-71692127D01*
X63149002Y-71681402D01*
X63159727Y-71671681D01*
X63171353Y-71663058D01*
X63183769Y-71655617D01*
X63196854Y-71649428D01*
X63210483Y-71644551D01*
X63224524Y-71641034D01*
X63238842Y-71638910D01*
X63253300Y-71638200D01*
X63548300Y-71638200D01*
X63562758Y-71638910D01*
X63562758Y-71638910D01*
G37*
D15*
X63400800Y-71958200D03*
D10*
G36*
X71662558Y-69177110D02*
G01*
X71676876Y-69179234D01*
X71690917Y-69182751D01*
X71704546Y-69187628D01*
X71717631Y-69193817D01*
X71730047Y-69201258D01*
X71741673Y-69209881D01*
X71752398Y-69219602D01*
X71762119Y-69230327D01*
X71770742Y-69241953D01*
X71778183Y-69254369D01*
X71784372Y-69267454D01*
X71789249Y-69281083D01*
X71792766Y-69295124D01*
X71794890Y-69309442D01*
X71795600Y-69323900D01*
X71795600Y-69618900D01*
X71794890Y-69633358D01*
X71792766Y-69647676D01*
X71789249Y-69661717D01*
X71784372Y-69675346D01*
X71778183Y-69688431D01*
X71770742Y-69700847D01*
X71762119Y-69712473D01*
X71752398Y-69723198D01*
X71741673Y-69732919D01*
X71730047Y-69741542D01*
X71717631Y-69748983D01*
X71704546Y-69755172D01*
X71690917Y-69760049D01*
X71676876Y-69763566D01*
X71662558Y-69765690D01*
X71648100Y-69766400D01*
X71303100Y-69766400D01*
X71288642Y-69765690D01*
X71274324Y-69763566D01*
X71260283Y-69760049D01*
X71246654Y-69755172D01*
X71233569Y-69748983D01*
X71221153Y-69741542D01*
X71209527Y-69732919D01*
X71198802Y-69723198D01*
X71189081Y-69712473D01*
X71180458Y-69700847D01*
X71173017Y-69688431D01*
X71166828Y-69675346D01*
X71161951Y-69661717D01*
X71158434Y-69647676D01*
X71156310Y-69633358D01*
X71155600Y-69618900D01*
X71155600Y-69323900D01*
X71156310Y-69309442D01*
X71158434Y-69295124D01*
X71161951Y-69281083D01*
X71166828Y-69267454D01*
X71173017Y-69254369D01*
X71180458Y-69241953D01*
X71189081Y-69230327D01*
X71198802Y-69219602D01*
X71209527Y-69209881D01*
X71221153Y-69201258D01*
X71233569Y-69193817D01*
X71246654Y-69187628D01*
X71260283Y-69182751D01*
X71274324Y-69179234D01*
X71288642Y-69177110D01*
X71303100Y-69176400D01*
X71648100Y-69176400D01*
X71662558Y-69177110D01*
X71662558Y-69177110D01*
G37*
D15*
X71475600Y-69471400D03*
D10*
G36*
X71662558Y-68207110D02*
G01*
X71676876Y-68209234D01*
X71690917Y-68212751D01*
X71704546Y-68217628D01*
X71717631Y-68223817D01*
X71730047Y-68231258D01*
X71741673Y-68239881D01*
X71752398Y-68249602D01*
X71762119Y-68260327D01*
X71770742Y-68271953D01*
X71778183Y-68284369D01*
X71784372Y-68297454D01*
X71789249Y-68311083D01*
X71792766Y-68325124D01*
X71794890Y-68339442D01*
X71795600Y-68353900D01*
X71795600Y-68648900D01*
X71794890Y-68663358D01*
X71792766Y-68677676D01*
X71789249Y-68691717D01*
X71784372Y-68705346D01*
X71778183Y-68718431D01*
X71770742Y-68730847D01*
X71762119Y-68742473D01*
X71752398Y-68753198D01*
X71741673Y-68762919D01*
X71730047Y-68771542D01*
X71717631Y-68778983D01*
X71704546Y-68785172D01*
X71690917Y-68790049D01*
X71676876Y-68793566D01*
X71662558Y-68795690D01*
X71648100Y-68796400D01*
X71303100Y-68796400D01*
X71288642Y-68795690D01*
X71274324Y-68793566D01*
X71260283Y-68790049D01*
X71246654Y-68785172D01*
X71233569Y-68778983D01*
X71221153Y-68771542D01*
X71209527Y-68762919D01*
X71198802Y-68753198D01*
X71189081Y-68742473D01*
X71180458Y-68730847D01*
X71173017Y-68718431D01*
X71166828Y-68705346D01*
X71161951Y-68691717D01*
X71158434Y-68677676D01*
X71156310Y-68663358D01*
X71155600Y-68648900D01*
X71155600Y-68353900D01*
X71156310Y-68339442D01*
X71158434Y-68325124D01*
X71161951Y-68311083D01*
X71166828Y-68297454D01*
X71173017Y-68284369D01*
X71180458Y-68271953D01*
X71189081Y-68260327D01*
X71198802Y-68249602D01*
X71209527Y-68239881D01*
X71221153Y-68231258D01*
X71233569Y-68223817D01*
X71246654Y-68217628D01*
X71260283Y-68212751D01*
X71274324Y-68209234D01*
X71288642Y-68207110D01*
X71303100Y-68206400D01*
X71648100Y-68206400D01*
X71662558Y-68207110D01*
X71662558Y-68207110D01*
G37*
D15*
X71475600Y-68501400D03*
D10*
G36*
X71152558Y-65873110D02*
G01*
X71166876Y-65875234D01*
X71180917Y-65878751D01*
X71194546Y-65883628D01*
X71207631Y-65889817D01*
X71220047Y-65897258D01*
X71231673Y-65905881D01*
X71242398Y-65915602D01*
X71252119Y-65926327D01*
X71260742Y-65937953D01*
X71268183Y-65950369D01*
X71274372Y-65963454D01*
X71279249Y-65977083D01*
X71282766Y-65991124D01*
X71284890Y-66005442D01*
X71285600Y-66019900D01*
X71285600Y-66364900D01*
X71284890Y-66379358D01*
X71282766Y-66393676D01*
X71279249Y-66407717D01*
X71274372Y-66421346D01*
X71268183Y-66434431D01*
X71260742Y-66446847D01*
X71252119Y-66458473D01*
X71242398Y-66469198D01*
X71231673Y-66478919D01*
X71220047Y-66487542D01*
X71207631Y-66494983D01*
X71194546Y-66501172D01*
X71180917Y-66506049D01*
X71166876Y-66509566D01*
X71152558Y-66511690D01*
X71138100Y-66512400D01*
X70843100Y-66512400D01*
X70828642Y-66511690D01*
X70814324Y-66509566D01*
X70800283Y-66506049D01*
X70786654Y-66501172D01*
X70773569Y-66494983D01*
X70761153Y-66487542D01*
X70749527Y-66478919D01*
X70738802Y-66469198D01*
X70729081Y-66458473D01*
X70720458Y-66446847D01*
X70713017Y-66434431D01*
X70706828Y-66421346D01*
X70701951Y-66407717D01*
X70698434Y-66393676D01*
X70696310Y-66379358D01*
X70695600Y-66364900D01*
X70695600Y-66019900D01*
X70696310Y-66005442D01*
X70698434Y-65991124D01*
X70701951Y-65977083D01*
X70706828Y-65963454D01*
X70713017Y-65950369D01*
X70720458Y-65937953D01*
X70729081Y-65926327D01*
X70738802Y-65915602D01*
X70749527Y-65905881D01*
X70761153Y-65897258D01*
X70773569Y-65889817D01*
X70786654Y-65883628D01*
X70800283Y-65878751D01*
X70814324Y-65875234D01*
X70828642Y-65873110D01*
X70843100Y-65872400D01*
X71138100Y-65872400D01*
X71152558Y-65873110D01*
X71152558Y-65873110D01*
G37*
D15*
X70990600Y-66192400D03*
D10*
G36*
X72122558Y-65873110D02*
G01*
X72136876Y-65875234D01*
X72150917Y-65878751D01*
X72164546Y-65883628D01*
X72177631Y-65889817D01*
X72190047Y-65897258D01*
X72201673Y-65905881D01*
X72212398Y-65915602D01*
X72222119Y-65926327D01*
X72230742Y-65937953D01*
X72238183Y-65950369D01*
X72244372Y-65963454D01*
X72249249Y-65977083D01*
X72252766Y-65991124D01*
X72254890Y-66005442D01*
X72255600Y-66019900D01*
X72255600Y-66364900D01*
X72254890Y-66379358D01*
X72252766Y-66393676D01*
X72249249Y-66407717D01*
X72244372Y-66421346D01*
X72238183Y-66434431D01*
X72230742Y-66446847D01*
X72222119Y-66458473D01*
X72212398Y-66469198D01*
X72201673Y-66478919D01*
X72190047Y-66487542D01*
X72177631Y-66494983D01*
X72164546Y-66501172D01*
X72150917Y-66506049D01*
X72136876Y-66509566D01*
X72122558Y-66511690D01*
X72108100Y-66512400D01*
X71813100Y-66512400D01*
X71798642Y-66511690D01*
X71784324Y-66509566D01*
X71770283Y-66506049D01*
X71756654Y-66501172D01*
X71743569Y-66494983D01*
X71731153Y-66487542D01*
X71719527Y-66478919D01*
X71708802Y-66469198D01*
X71699081Y-66458473D01*
X71690458Y-66446847D01*
X71683017Y-66434431D01*
X71676828Y-66421346D01*
X71671951Y-66407717D01*
X71668434Y-66393676D01*
X71666310Y-66379358D01*
X71665600Y-66364900D01*
X71665600Y-66019900D01*
X71666310Y-66005442D01*
X71668434Y-65991124D01*
X71671951Y-65977083D01*
X71676828Y-65963454D01*
X71683017Y-65950369D01*
X71690458Y-65937953D01*
X71699081Y-65926327D01*
X71708802Y-65915602D01*
X71719527Y-65905881D01*
X71731153Y-65897258D01*
X71743569Y-65889817D01*
X71756654Y-65883628D01*
X71770283Y-65878751D01*
X71784324Y-65875234D01*
X71798642Y-65873110D01*
X71813100Y-65872400D01*
X72108100Y-65872400D01*
X72122558Y-65873110D01*
X72122558Y-65873110D01*
G37*
D15*
X71960600Y-66192400D03*
D10*
G36*
X74660018Y-71458570D02*
G01*
X74674336Y-71460694D01*
X74688377Y-71464211D01*
X74702006Y-71469088D01*
X74715091Y-71475277D01*
X74727507Y-71482718D01*
X74739133Y-71491341D01*
X74749858Y-71501062D01*
X74759579Y-71511787D01*
X74768202Y-71523413D01*
X74775643Y-71535829D01*
X74781832Y-71548914D01*
X74786709Y-71562543D01*
X74790226Y-71576584D01*
X74792350Y-71590902D01*
X74793060Y-71605360D01*
X74793060Y-71950360D01*
X74792350Y-71964818D01*
X74790226Y-71979136D01*
X74786709Y-71993177D01*
X74781832Y-72006806D01*
X74775643Y-72019891D01*
X74768202Y-72032307D01*
X74759579Y-72043933D01*
X74749858Y-72054658D01*
X74739133Y-72064379D01*
X74727507Y-72073002D01*
X74715091Y-72080443D01*
X74702006Y-72086632D01*
X74688377Y-72091509D01*
X74674336Y-72095026D01*
X74660018Y-72097150D01*
X74645560Y-72097860D01*
X74350560Y-72097860D01*
X74336102Y-72097150D01*
X74321784Y-72095026D01*
X74307743Y-72091509D01*
X74294114Y-72086632D01*
X74281029Y-72080443D01*
X74268613Y-72073002D01*
X74256987Y-72064379D01*
X74246262Y-72054658D01*
X74236541Y-72043933D01*
X74227918Y-72032307D01*
X74220477Y-72019891D01*
X74214288Y-72006806D01*
X74209411Y-71993177D01*
X74205894Y-71979136D01*
X74203770Y-71964818D01*
X74203060Y-71950360D01*
X74203060Y-71605360D01*
X74203770Y-71590902D01*
X74205894Y-71576584D01*
X74209411Y-71562543D01*
X74214288Y-71548914D01*
X74220477Y-71535829D01*
X74227918Y-71523413D01*
X74236541Y-71511787D01*
X74246262Y-71501062D01*
X74256987Y-71491341D01*
X74268613Y-71482718D01*
X74281029Y-71475277D01*
X74294114Y-71469088D01*
X74307743Y-71464211D01*
X74321784Y-71460694D01*
X74336102Y-71458570D01*
X74350560Y-71457860D01*
X74645560Y-71457860D01*
X74660018Y-71458570D01*
X74660018Y-71458570D01*
G37*
D15*
X74498060Y-71777860D03*
D10*
G36*
X73690018Y-71458570D02*
G01*
X73704336Y-71460694D01*
X73718377Y-71464211D01*
X73732006Y-71469088D01*
X73745091Y-71475277D01*
X73757507Y-71482718D01*
X73769133Y-71491341D01*
X73779858Y-71501062D01*
X73789579Y-71511787D01*
X73798202Y-71523413D01*
X73805643Y-71535829D01*
X73811832Y-71548914D01*
X73816709Y-71562543D01*
X73820226Y-71576584D01*
X73822350Y-71590902D01*
X73823060Y-71605360D01*
X73823060Y-71950360D01*
X73822350Y-71964818D01*
X73820226Y-71979136D01*
X73816709Y-71993177D01*
X73811832Y-72006806D01*
X73805643Y-72019891D01*
X73798202Y-72032307D01*
X73789579Y-72043933D01*
X73779858Y-72054658D01*
X73769133Y-72064379D01*
X73757507Y-72073002D01*
X73745091Y-72080443D01*
X73732006Y-72086632D01*
X73718377Y-72091509D01*
X73704336Y-72095026D01*
X73690018Y-72097150D01*
X73675560Y-72097860D01*
X73380560Y-72097860D01*
X73366102Y-72097150D01*
X73351784Y-72095026D01*
X73337743Y-72091509D01*
X73324114Y-72086632D01*
X73311029Y-72080443D01*
X73298613Y-72073002D01*
X73286987Y-72064379D01*
X73276262Y-72054658D01*
X73266541Y-72043933D01*
X73257918Y-72032307D01*
X73250477Y-72019891D01*
X73244288Y-72006806D01*
X73239411Y-71993177D01*
X73235894Y-71979136D01*
X73233770Y-71964818D01*
X73233060Y-71950360D01*
X73233060Y-71605360D01*
X73233770Y-71590902D01*
X73235894Y-71576584D01*
X73239411Y-71562543D01*
X73244288Y-71548914D01*
X73250477Y-71535829D01*
X73257918Y-71523413D01*
X73266541Y-71511787D01*
X73276262Y-71501062D01*
X73286987Y-71491341D01*
X73298613Y-71482718D01*
X73311029Y-71475277D01*
X73324114Y-71469088D01*
X73337743Y-71464211D01*
X73351784Y-71460694D01*
X73366102Y-71458570D01*
X73380560Y-71457860D01*
X73675560Y-71457860D01*
X73690018Y-71458570D01*
X73690018Y-71458570D01*
G37*
D15*
X73528060Y-71777860D03*
D10*
G36*
X72732158Y-70597510D02*
G01*
X72746476Y-70599634D01*
X72760517Y-70603151D01*
X72774146Y-70608028D01*
X72787231Y-70614217D01*
X72799647Y-70621658D01*
X72811273Y-70630281D01*
X72821998Y-70640002D01*
X72831719Y-70650727D01*
X72840342Y-70662353D01*
X72847783Y-70674769D01*
X72853972Y-70687854D01*
X72858849Y-70701483D01*
X72862366Y-70715524D01*
X72864490Y-70729842D01*
X72865200Y-70744300D01*
X72865200Y-71089300D01*
X72864490Y-71103758D01*
X72862366Y-71118076D01*
X72858849Y-71132117D01*
X72853972Y-71145746D01*
X72847783Y-71158831D01*
X72840342Y-71171247D01*
X72831719Y-71182873D01*
X72821998Y-71193598D01*
X72811273Y-71203319D01*
X72799647Y-71211942D01*
X72787231Y-71219383D01*
X72774146Y-71225572D01*
X72760517Y-71230449D01*
X72746476Y-71233966D01*
X72732158Y-71236090D01*
X72717700Y-71236800D01*
X72422700Y-71236800D01*
X72408242Y-71236090D01*
X72393924Y-71233966D01*
X72379883Y-71230449D01*
X72366254Y-71225572D01*
X72353169Y-71219383D01*
X72340753Y-71211942D01*
X72329127Y-71203319D01*
X72318402Y-71193598D01*
X72308681Y-71182873D01*
X72300058Y-71171247D01*
X72292617Y-71158831D01*
X72286428Y-71145746D01*
X72281551Y-71132117D01*
X72278034Y-71118076D01*
X72275910Y-71103758D01*
X72275200Y-71089300D01*
X72275200Y-70744300D01*
X72275910Y-70729842D01*
X72278034Y-70715524D01*
X72281551Y-70701483D01*
X72286428Y-70687854D01*
X72292617Y-70674769D01*
X72300058Y-70662353D01*
X72308681Y-70650727D01*
X72318402Y-70640002D01*
X72329127Y-70630281D01*
X72340753Y-70621658D01*
X72353169Y-70614217D01*
X72366254Y-70608028D01*
X72379883Y-70603151D01*
X72393924Y-70599634D01*
X72408242Y-70597510D01*
X72422700Y-70596800D01*
X72717700Y-70596800D01*
X72732158Y-70597510D01*
X72732158Y-70597510D01*
G37*
D15*
X72570200Y-70916800D03*
D10*
G36*
X71762158Y-70597510D02*
G01*
X71776476Y-70599634D01*
X71790517Y-70603151D01*
X71804146Y-70608028D01*
X71817231Y-70614217D01*
X71829647Y-70621658D01*
X71841273Y-70630281D01*
X71851998Y-70640002D01*
X71861719Y-70650727D01*
X71870342Y-70662353D01*
X71877783Y-70674769D01*
X71883972Y-70687854D01*
X71888849Y-70701483D01*
X71892366Y-70715524D01*
X71894490Y-70729842D01*
X71895200Y-70744300D01*
X71895200Y-71089300D01*
X71894490Y-71103758D01*
X71892366Y-71118076D01*
X71888849Y-71132117D01*
X71883972Y-71145746D01*
X71877783Y-71158831D01*
X71870342Y-71171247D01*
X71861719Y-71182873D01*
X71851998Y-71193598D01*
X71841273Y-71203319D01*
X71829647Y-71211942D01*
X71817231Y-71219383D01*
X71804146Y-71225572D01*
X71790517Y-71230449D01*
X71776476Y-71233966D01*
X71762158Y-71236090D01*
X71747700Y-71236800D01*
X71452700Y-71236800D01*
X71438242Y-71236090D01*
X71423924Y-71233966D01*
X71409883Y-71230449D01*
X71396254Y-71225572D01*
X71383169Y-71219383D01*
X71370753Y-71211942D01*
X71359127Y-71203319D01*
X71348402Y-71193598D01*
X71338681Y-71182873D01*
X71330058Y-71171247D01*
X71322617Y-71158831D01*
X71316428Y-71145746D01*
X71311551Y-71132117D01*
X71308034Y-71118076D01*
X71305910Y-71103758D01*
X71305200Y-71089300D01*
X71305200Y-70744300D01*
X71305910Y-70729842D01*
X71308034Y-70715524D01*
X71311551Y-70701483D01*
X71316428Y-70687854D01*
X71322617Y-70674769D01*
X71330058Y-70662353D01*
X71338681Y-70650727D01*
X71348402Y-70640002D01*
X71359127Y-70630281D01*
X71370753Y-70621658D01*
X71383169Y-70614217D01*
X71396254Y-70608028D01*
X71409883Y-70603151D01*
X71423924Y-70599634D01*
X71438242Y-70597510D01*
X71452700Y-70596800D01*
X71747700Y-70596800D01*
X71762158Y-70597510D01*
X71762158Y-70597510D01*
G37*
D15*
X71600200Y-70916800D03*
D10*
G36*
X73748158Y-69479910D02*
G01*
X73762476Y-69482034D01*
X73776517Y-69485551D01*
X73790146Y-69490428D01*
X73803231Y-69496617D01*
X73815647Y-69504058D01*
X73827273Y-69512681D01*
X73837998Y-69522402D01*
X73847719Y-69533127D01*
X73856342Y-69544753D01*
X73863783Y-69557169D01*
X73869972Y-69570254D01*
X73874849Y-69583883D01*
X73878366Y-69597924D01*
X73880490Y-69612242D01*
X73881200Y-69626700D01*
X73881200Y-69971700D01*
X73880490Y-69986158D01*
X73878366Y-70000476D01*
X73874849Y-70014517D01*
X73869972Y-70028146D01*
X73863783Y-70041231D01*
X73856342Y-70053647D01*
X73847719Y-70065273D01*
X73837998Y-70075998D01*
X73827273Y-70085719D01*
X73815647Y-70094342D01*
X73803231Y-70101783D01*
X73790146Y-70107972D01*
X73776517Y-70112849D01*
X73762476Y-70116366D01*
X73748158Y-70118490D01*
X73733700Y-70119200D01*
X73438700Y-70119200D01*
X73424242Y-70118490D01*
X73409924Y-70116366D01*
X73395883Y-70112849D01*
X73382254Y-70107972D01*
X73369169Y-70101783D01*
X73356753Y-70094342D01*
X73345127Y-70085719D01*
X73334402Y-70075998D01*
X73324681Y-70065273D01*
X73316058Y-70053647D01*
X73308617Y-70041231D01*
X73302428Y-70028146D01*
X73297551Y-70014517D01*
X73294034Y-70000476D01*
X73291910Y-69986158D01*
X73291200Y-69971700D01*
X73291200Y-69626700D01*
X73291910Y-69612242D01*
X73294034Y-69597924D01*
X73297551Y-69583883D01*
X73302428Y-69570254D01*
X73308617Y-69557169D01*
X73316058Y-69544753D01*
X73324681Y-69533127D01*
X73334402Y-69522402D01*
X73345127Y-69512681D01*
X73356753Y-69504058D01*
X73369169Y-69496617D01*
X73382254Y-69490428D01*
X73395883Y-69485551D01*
X73409924Y-69482034D01*
X73424242Y-69479910D01*
X73438700Y-69479200D01*
X73733700Y-69479200D01*
X73748158Y-69479910D01*
X73748158Y-69479910D01*
G37*
D15*
X73586200Y-69799200D03*
D10*
G36*
X72778158Y-69479910D02*
G01*
X72792476Y-69482034D01*
X72806517Y-69485551D01*
X72820146Y-69490428D01*
X72833231Y-69496617D01*
X72845647Y-69504058D01*
X72857273Y-69512681D01*
X72867998Y-69522402D01*
X72877719Y-69533127D01*
X72886342Y-69544753D01*
X72893783Y-69557169D01*
X72899972Y-69570254D01*
X72904849Y-69583883D01*
X72908366Y-69597924D01*
X72910490Y-69612242D01*
X72911200Y-69626700D01*
X72911200Y-69971700D01*
X72910490Y-69986158D01*
X72908366Y-70000476D01*
X72904849Y-70014517D01*
X72899972Y-70028146D01*
X72893783Y-70041231D01*
X72886342Y-70053647D01*
X72877719Y-70065273D01*
X72867998Y-70075998D01*
X72857273Y-70085719D01*
X72845647Y-70094342D01*
X72833231Y-70101783D01*
X72820146Y-70107972D01*
X72806517Y-70112849D01*
X72792476Y-70116366D01*
X72778158Y-70118490D01*
X72763700Y-70119200D01*
X72468700Y-70119200D01*
X72454242Y-70118490D01*
X72439924Y-70116366D01*
X72425883Y-70112849D01*
X72412254Y-70107972D01*
X72399169Y-70101783D01*
X72386753Y-70094342D01*
X72375127Y-70085719D01*
X72364402Y-70075998D01*
X72354681Y-70065273D01*
X72346058Y-70053647D01*
X72338617Y-70041231D01*
X72332428Y-70028146D01*
X72327551Y-70014517D01*
X72324034Y-70000476D01*
X72321910Y-69986158D01*
X72321200Y-69971700D01*
X72321200Y-69626700D01*
X72321910Y-69612242D01*
X72324034Y-69597924D01*
X72327551Y-69583883D01*
X72332428Y-69570254D01*
X72338617Y-69557169D01*
X72346058Y-69544753D01*
X72354681Y-69533127D01*
X72364402Y-69522402D01*
X72375127Y-69512681D01*
X72386753Y-69504058D01*
X72399169Y-69496617D01*
X72412254Y-69490428D01*
X72425883Y-69485551D01*
X72439924Y-69482034D01*
X72454242Y-69479910D01*
X72468700Y-69479200D01*
X72763700Y-69479200D01*
X72778158Y-69479910D01*
X72778158Y-69479910D01*
G37*
D15*
X72616200Y-69799200D03*
D10*
G36*
X76640958Y-72961710D02*
G01*
X76655276Y-72963834D01*
X76669317Y-72967351D01*
X76682946Y-72972228D01*
X76696031Y-72978417D01*
X76708447Y-72985858D01*
X76720073Y-72994481D01*
X76730798Y-73004202D01*
X76740519Y-73014927D01*
X76749142Y-73026553D01*
X76756583Y-73038969D01*
X76762772Y-73052054D01*
X76767649Y-73065683D01*
X76771166Y-73079724D01*
X76773290Y-73094042D01*
X76774000Y-73108500D01*
X76774000Y-73403500D01*
X76773290Y-73417958D01*
X76771166Y-73432276D01*
X76767649Y-73446317D01*
X76762772Y-73459946D01*
X76756583Y-73473031D01*
X76749142Y-73485447D01*
X76740519Y-73497073D01*
X76730798Y-73507798D01*
X76720073Y-73517519D01*
X76708447Y-73526142D01*
X76696031Y-73533583D01*
X76682946Y-73539772D01*
X76669317Y-73544649D01*
X76655276Y-73548166D01*
X76640958Y-73550290D01*
X76626500Y-73551000D01*
X76281500Y-73551000D01*
X76267042Y-73550290D01*
X76252724Y-73548166D01*
X76238683Y-73544649D01*
X76225054Y-73539772D01*
X76211969Y-73533583D01*
X76199553Y-73526142D01*
X76187927Y-73517519D01*
X76177202Y-73507798D01*
X76167481Y-73497073D01*
X76158858Y-73485447D01*
X76151417Y-73473031D01*
X76145228Y-73459946D01*
X76140351Y-73446317D01*
X76136834Y-73432276D01*
X76134710Y-73417958D01*
X76134000Y-73403500D01*
X76134000Y-73108500D01*
X76134710Y-73094042D01*
X76136834Y-73079724D01*
X76140351Y-73065683D01*
X76145228Y-73052054D01*
X76151417Y-73038969D01*
X76158858Y-73026553D01*
X76167481Y-73014927D01*
X76177202Y-73004202D01*
X76187927Y-72994481D01*
X76199553Y-72985858D01*
X76211969Y-72978417D01*
X76225054Y-72972228D01*
X76238683Y-72967351D01*
X76252724Y-72963834D01*
X76267042Y-72961710D01*
X76281500Y-72961000D01*
X76626500Y-72961000D01*
X76640958Y-72961710D01*
X76640958Y-72961710D01*
G37*
D15*
X76454000Y-73256000D03*
D10*
G36*
X76640958Y-71991710D02*
G01*
X76655276Y-71993834D01*
X76669317Y-71997351D01*
X76682946Y-72002228D01*
X76696031Y-72008417D01*
X76708447Y-72015858D01*
X76720073Y-72024481D01*
X76730798Y-72034202D01*
X76740519Y-72044927D01*
X76749142Y-72056553D01*
X76756583Y-72068969D01*
X76762772Y-72082054D01*
X76767649Y-72095683D01*
X76771166Y-72109724D01*
X76773290Y-72124042D01*
X76774000Y-72138500D01*
X76774000Y-72433500D01*
X76773290Y-72447958D01*
X76771166Y-72462276D01*
X76767649Y-72476317D01*
X76762772Y-72489946D01*
X76756583Y-72503031D01*
X76749142Y-72515447D01*
X76740519Y-72527073D01*
X76730798Y-72537798D01*
X76720073Y-72547519D01*
X76708447Y-72556142D01*
X76696031Y-72563583D01*
X76682946Y-72569772D01*
X76669317Y-72574649D01*
X76655276Y-72578166D01*
X76640958Y-72580290D01*
X76626500Y-72581000D01*
X76281500Y-72581000D01*
X76267042Y-72580290D01*
X76252724Y-72578166D01*
X76238683Y-72574649D01*
X76225054Y-72569772D01*
X76211969Y-72563583D01*
X76199553Y-72556142D01*
X76187927Y-72547519D01*
X76177202Y-72537798D01*
X76167481Y-72527073D01*
X76158858Y-72515447D01*
X76151417Y-72503031D01*
X76145228Y-72489946D01*
X76140351Y-72476317D01*
X76136834Y-72462276D01*
X76134710Y-72447958D01*
X76134000Y-72433500D01*
X76134000Y-72138500D01*
X76134710Y-72124042D01*
X76136834Y-72109724D01*
X76140351Y-72095683D01*
X76145228Y-72082054D01*
X76151417Y-72068969D01*
X76158858Y-72056553D01*
X76167481Y-72044927D01*
X76177202Y-72034202D01*
X76187927Y-72024481D01*
X76199553Y-72015858D01*
X76211969Y-72008417D01*
X76225054Y-72002228D01*
X76238683Y-71997351D01*
X76252724Y-71993834D01*
X76267042Y-71991710D01*
X76281500Y-71991000D01*
X76626500Y-71991000D01*
X76640958Y-71991710D01*
X76640958Y-71991710D01*
G37*
D15*
X76454000Y-72286000D03*
D10*
G36*
X76640958Y-75374710D02*
G01*
X76655276Y-75376834D01*
X76669317Y-75380351D01*
X76682946Y-75385228D01*
X76696031Y-75391417D01*
X76708447Y-75398858D01*
X76720073Y-75407481D01*
X76730798Y-75417202D01*
X76740519Y-75427927D01*
X76749142Y-75439553D01*
X76756583Y-75451969D01*
X76762772Y-75465054D01*
X76767649Y-75478683D01*
X76771166Y-75492724D01*
X76773290Y-75507042D01*
X76774000Y-75521500D01*
X76774000Y-75816500D01*
X76773290Y-75830958D01*
X76771166Y-75845276D01*
X76767649Y-75859317D01*
X76762772Y-75872946D01*
X76756583Y-75886031D01*
X76749142Y-75898447D01*
X76740519Y-75910073D01*
X76730798Y-75920798D01*
X76720073Y-75930519D01*
X76708447Y-75939142D01*
X76696031Y-75946583D01*
X76682946Y-75952772D01*
X76669317Y-75957649D01*
X76655276Y-75961166D01*
X76640958Y-75963290D01*
X76626500Y-75964000D01*
X76281500Y-75964000D01*
X76267042Y-75963290D01*
X76252724Y-75961166D01*
X76238683Y-75957649D01*
X76225054Y-75952772D01*
X76211969Y-75946583D01*
X76199553Y-75939142D01*
X76187927Y-75930519D01*
X76177202Y-75920798D01*
X76167481Y-75910073D01*
X76158858Y-75898447D01*
X76151417Y-75886031D01*
X76145228Y-75872946D01*
X76140351Y-75859317D01*
X76136834Y-75845276D01*
X76134710Y-75830958D01*
X76134000Y-75816500D01*
X76134000Y-75521500D01*
X76134710Y-75507042D01*
X76136834Y-75492724D01*
X76140351Y-75478683D01*
X76145228Y-75465054D01*
X76151417Y-75451969D01*
X76158858Y-75439553D01*
X76167481Y-75427927D01*
X76177202Y-75417202D01*
X76187927Y-75407481D01*
X76199553Y-75398858D01*
X76211969Y-75391417D01*
X76225054Y-75385228D01*
X76238683Y-75380351D01*
X76252724Y-75376834D01*
X76267042Y-75374710D01*
X76281500Y-75374000D01*
X76626500Y-75374000D01*
X76640958Y-75374710D01*
X76640958Y-75374710D01*
G37*
D15*
X76454000Y-75669000D03*
D10*
G36*
X76640958Y-74404710D02*
G01*
X76655276Y-74406834D01*
X76669317Y-74410351D01*
X76682946Y-74415228D01*
X76696031Y-74421417D01*
X76708447Y-74428858D01*
X76720073Y-74437481D01*
X76730798Y-74447202D01*
X76740519Y-74457927D01*
X76749142Y-74469553D01*
X76756583Y-74481969D01*
X76762772Y-74495054D01*
X76767649Y-74508683D01*
X76771166Y-74522724D01*
X76773290Y-74537042D01*
X76774000Y-74551500D01*
X76774000Y-74846500D01*
X76773290Y-74860958D01*
X76771166Y-74875276D01*
X76767649Y-74889317D01*
X76762772Y-74902946D01*
X76756583Y-74916031D01*
X76749142Y-74928447D01*
X76740519Y-74940073D01*
X76730798Y-74950798D01*
X76720073Y-74960519D01*
X76708447Y-74969142D01*
X76696031Y-74976583D01*
X76682946Y-74982772D01*
X76669317Y-74987649D01*
X76655276Y-74991166D01*
X76640958Y-74993290D01*
X76626500Y-74994000D01*
X76281500Y-74994000D01*
X76267042Y-74993290D01*
X76252724Y-74991166D01*
X76238683Y-74987649D01*
X76225054Y-74982772D01*
X76211969Y-74976583D01*
X76199553Y-74969142D01*
X76187927Y-74960519D01*
X76177202Y-74950798D01*
X76167481Y-74940073D01*
X76158858Y-74928447D01*
X76151417Y-74916031D01*
X76145228Y-74902946D01*
X76140351Y-74889317D01*
X76136834Y-74875276D01*
X76134710Y-74860958D01*
X76134000Y-74846500D01*
X76134000Y-74551500D01*
X76134710Y-74537042D01*
X76136834Y-74522724D01*
X76140351Y-74508683D01*
X76145228Y-74495054D01*
X76151417Y-74481969D01*
X76158858Y-74469553D01*
X76167481Y-74457927D01*
X76177202Y-74447202D01*
X76187927Y-74437481D01*
X76199553Y-74428858D01*
X76211969Y-74421417D01*
X76225054Y-74415228D01*
X76238683Y-74410351D01*
X76252724Y-74406834D01*
X76267042Y-74404710D01*
X76281500Y-74404000D01*
X76626500Y-74404000D01*
X76640958Y-74404710D01*
X76640958Y-74404710D01*
G37*
D15*
X76454000Y-74699000D03*
D10*
G36*
X76640958Y-77660710D02*
G01*
X76655276Y-77662834D01*
X76669317Y-77666351D01*
X76682946Y-77671228D01*
X76696031Y-77677417D01*
X76708447Y-77684858D01*
X76720073Y-77693481D01*
X76730798Y-77703202D01*
X76740519Y-77713927D01*
X76749142Y-77725553D01*
X76756583Y-77737969D01*
X76762772Y-77751054D01*
X76767649Y-77764683D01*
X76771166Y-77778724D01*
X76773290Y-77793042D01*
X76774000Y-77807500D01*
X76774000Y-78102500D01*
X76773290Y-78116958D01*
X76771166Y-78131276D01*
X76767649Y-78145317D01*
X76762772Y-78158946D01*
X76756583Y-78172031D01*
X76749142Y-78184447D01*
X76740519Y-78196073D01*
X76730798Y-78206798D01*
X76720073Y-78216519D01*
X76708447Y-78225142D01*
X76696031Y-78232583D01*
X76682946Y-78238772D01*
X76669317Y-78243649D01*
X76655276Y-78247166D01*
X76640958Y-78249290D01*
X76626500Y-78250000D01*
X76281500Y-78250000D01*
X76267042Y-78249290D01*
X76252724Y-78247166D01*
X76238683Y-78243649D01*
X76225054Y-78238772D01*
X76211969Y-78232583D01*
X76199553Y-78225142D01*
X76187927Y-78216519D01*
X76177202Y-78206798D01*
X76167481Y-78196073D01*
X76158858Y-78184447D01*
X76151417Y-78172031D01*
X76145228Y-78158946D01*
X76140351Y-78145317D01*
X76136834Y-78131276D01*
X76134710Y-78116958D01*
X76134000Y-78102500D01*
X76134000Y-77807500D01*
X76134710Y-77793042D01*
X76136834Y-77778724D01*
X76140351Y-77764683D01*
X76145228Y-77751054D01*
X76151417Y-77737969D01*
X76158858Y-77725553D01*
X76167481Y-77713927D01*
X76177202Y-77703202D01*
X76187927Y-77693481D01*
X76199553Y-77684858D01*
X76211969Y-77677417D01*
X76225054Y-77671228D01*
X76238683Y-77666351D01*
X76252724Y-77662834D01*
X76267042Y-77660710D01*
X76281500Y-77660000D01*
X76626500Y-77660000D01*
X76640958Y-77660710D01*
X76640958Y-77660710D01*
G37*
D15*
X76454000Y-77955000D03*
D10*
G36*
X76640958Y-76690710D02*
G01*
X76655276Y-76692834D01*
X76669317Y-76696351D01*
X76682946Y-76701228D01*
X76696031Y-76707417D01*
X76708447Y-76714858D01*
X76720073Y-76723481D01*
X76730798Y-76733202D01*
X76740519Y-76743927D01*
X76749142Y-76755553D01*
X76756583Y-76767969D01*
X76762772Y-76781054D01*
X76767649Y-76794683D01*
X76771166Y-76808724D01*
X76773290Y-76823042D01*
X76774000Y-76837500D01*
X76774000Y-77132500D01*
X76773290Y-77146958D01*
X76771166Y-77161276D01*
X76767649Y-77175317D01*
X76762772Y-77188946D01*
X76756583Y-77202031D01*
X76749142Y-77214447D01*
X76740519Y-77226073D01*
X76730798Y-77236798D01*
X76720073Y-77246519D01*
X76708447Y-77255142D01*
X76696031Y-77262583D01*
X76682946Y-77268772D01*
X76669317Y-77273649D01*
X76655276Y-77277166D01*
X76640958Y-77279290D01*
X76626500Y-77280000D01*
X76281500Y-77280000D01*
X76267042Y-77279290D01*
X76252724Y-77277166D01*
X76238683Y-77273649D01*
X76225054Y-77268772D01*
X76211969Y-77262583D01*
X76199553Y-77255142D01*
X76187927Y-77246519D01*
X76177202Y-77236798D01*
X76167481Y-77226073D01*
X76158858Y-77214447D01*
X76151417Y-77202031D01*
X76145228Y-77188946D01*
X76140351Y-77175317D01*
X76136834Y-77161276D01*
X76134710Y-77146958D01*
X76134000Y-77132500D01*
X76134000Y-76837500D01*
X76134710Y-76823042D01*
X76136834Y-76808724D01*
X76140351Y-76794683D01*
X76145228Y-76781054D01*
X76151417Y-76767969D01*
X76158858Y-76755553D01*
X76167481Y-76743927D01*
X76177202Y-76733202D01*
X76187927Y-76723481D01*
X76199553Y-76714858D01*
X76211969Y-76707417D01*
X76225054Y-76701228D01*
X76238683Y-76696351D01*
X76252724Y-76692834D01*
X76267042Y-76690710D01*
X76281500Y-76690000D01*
X76626500Y-76690000D01*
X76640958Y-76690710D01*
X76640958Y-76690710D01*
G37*
D15*
X76454000Y-76985000D03*
D10*
G36*
X76640958Y-80200710D02*
G01*
X76655276Y-80202834D01*
X76669317Y-80206351D01*
X76682946Y-80211228D01*
X76696031Y-80217417D01*
X76708447Y-80224858D01*
X76720073Y-80233481D01*
X76730798Y-80243202D01*
X76740519Y-80253927D01*
X76749142Y-80265553D01*
X76756583Y-80277969D01*
X76762772Y-80291054D01*
X76767649Y-80304683D01*
X76771166Y-80318724D01*
X76773290Y-80333042D01*
X76774000Y-80347500D01*
X76774000Y-80642500D01*
X76773290Y-80656958D01*
X76771166Y-80671276D01*
X76767649Y-80685317D01*
X76762772Y-80698946D01*
X76756583Y-80712031D01*
X76749142Y-80724447D01*
X76740519Y-80736073D01*
X76730798Y-80746798D01*
X76720073Y-80756519D01*
X76708447Y-80765142D01*
X76696031Y-80772583D01*
X76682946Y-80778772D01*
X76669317Y-80783649D01*
X76655276Y-80787166D01*
X76640958Y-80789290D01*
X76626500Y-80790000D01*
X76281500Y-80790000D01*
X76267042Y-80789290D01*
X76252724Y-80787166D01*
X76238683Y-80783649D01*
X76225054Y-80778772D01*
X76211969Y-80772583D01*
X76199553Y-80765142D01*
X76187927Y-80756519D01*
X76177202Y-80746798D01*
X76167481Y-80736073D01*
X76158858Y-80724447D01*
X76151417Y-80712031D01*
X76145228Y-80698946D01*
X76140351Y-80685317D01*
X76136834Y-80671276D01*
X76134710Y-80656958D01*
X76134000Y-80642500D01*
X76134000Y-80347500D01*
X76134710Y-80333042D01*
X76136834Y-80318724D01*
X76140351Y-80304683D01*
X76145228Y-80291054D01*
X76151417Y-80277969D01*
X76158858Y-80265553D01*
X76167481Y-80253927D01*
X76177202Y-80243202D01*
X76187927Y-80233481D01*
X76199553Y-80224858D01*
X76211969Y-80217417D01*
X76225054Y-80211228D01*
X76238683Y-80206351D01*
X76252724Y-80202834D01*
X76267042Y-80200710D01*
X76281500Y-80200000D01*
X76626500Y-80200000D01*
X76640958Y-80200710D01*
X76640958Y-80200710D01*
G37*
D15*
X76454000Y-80495000D03*
D10*
G36*
X76640958Y-79230710D02*
G01*
X76655276Y-79232834D01*
X76669317Y-79236351D01*
X76682946Y-79241228D01*
X76696031Y-79247417D01*
X76708447Y-79254858D01*
X76720073Y-79263481D01*
X76730798Y-79273202D01*
X76740519Y-79283927D01*
X76749142Y-79295553D01*
X76756583Y-79307969D01*
X76762772Y-79321054D01*
X76767649Y-79334683D01*
X76771166Y-79348724D01*
X76773290Y-79363042D01*
X76774000Y-79377500D01*
X76774000Y-79672500D01*
X76773290Y-79686958D01*
X76771166Y-79701276D01*
X76767649Y-79715317D01*
X76762772Y-79728946D01*
X76756583Y-79742031D01*
X76749142Y-79754447D01*
X76740519Y-79766073D01*
X76730798Y-79776798D01*
X76720073Y-79786519D01*
X76708447Y-79795142D01*
X76696031Y-79802583D01*
X76682946Y-79808772D01*
X76669317Y-79813649D01*
X76655276Y-79817166D01*
X76640958Y-79819290D01*
X76626500Y-79820000D01*
X76281500Y-79820000D01*
X76267042Y-79819290D01*
X76252724Y-79817166D01*
X76238683Y-79813649D01*
X76225054Y-79808772D01*
X76211969Y-79802583D01*
X76199553Y-79795142D01*
X76187927Y-79786519D01*
X76177202Y-79776798D01*
X76167481Y-79766073D01*
X76158858Y-79754447D01*
X76151417Y-79742031D01*
X76145228Y-79728946D01*
X76140351Y-79715317D01*
X76136834Y-79701276D01*
X76134710Y-79686958D01*
X76134000Y-79672500D01*
X76134000Y-79377500D01*
X76134710Y-79363042D01*
X76136834Y-79348724D01*
X76140351Y-79334683D01*
X76145228Y-79321054D01*
X76151417Y-79307969D01*
X76158858Y-79295553D01*
X76167481Y-79283927D01*
X76177202Y-79273202D01*
X76187927Y-79263481D01*
X76199553Y-79254858D01*
X76211969Y-79247417D01*
X76225054Y-79241228D01*
X76238683Y-79236351D01*
X76252724Y-79232834D01*
X76267042Y-79230710D01*
X76281500Y-79230000D01*
X76626500Y-79230000D01*
X76640958Y-79230710D01*
X76640958Y-79230710D01*
G37*
D15*
X76454000Y-79525000D03*
D10*
G36*
X77758958Y-73086710D02*
G01*
X77773276Y-73088834D01*
X77787317Y-73092351D01*
X77800946Y-73097228D01*
X77814031Y-73103417D01*
X77826447Y-73110858D01*
X77838073Y-73119481D01*
X77848798Y-73129202D01*
X77858519Y-73139927D01*
X77867142Y-73151553D01*
X77874583Y-73163969D01*
X77880772Y-73177054D01*
X77885649Y-73190683D01*
X77889166Y-73204724D01*
X77891290Y-73219042D01*
X77892000Y-73233500D01*
X77892000Y-73578500D01*
X77891290Y-73592958D01*
X77889166Y-73607276D01*
X77885649Y-73621317D01*
X77880772Y-73634946D01*
X77874583Y-73648031D01*
X77867142Y-73660447D01*
X77858519Y-73672073D01*
X77848798Y-73682798D01*
X77838073Y-73692519D01*
X77826447Y-73701142D01*
X77814031Y-73708583D01*
X77800946Y-73714772D01*
X77787317Y-73719649D01*
X77773276Y-73723166D01*
X77758958Y-73725290D01*
X77744500Y-73726000D01*
X77449500Y-73726000D01*
X77435042Y-73725290D01*
X77420724Y-73723166D01*
X77406683Y-73719649D01*
X77393054Y-73714772D01*
X77379969Y-73708583D01*
X77367553Y-73701142D01*
X77355927Y-73692519D01*
X77345202Y-73682798D01*
X77335481Y-73672073D01*
X77326858Y-73660447D01*
X77319417Y-73648031D01*
X77313228Y-73634946D01*
X77308351Y-73621317D01*
X77304834Y-73607276D01*
X77302710Y-73592958D01*
X77302000Y-73578500D01*
X77302000Y-73233500D01*
X77302710Y-73219042D01*
X77304834Y-73204724D01*
X77308351Y-73190683D01*
X77313228Y-73177054D01*
X77319417Y-73163969D01*
X77326858Y-73151553D01*
X77335481Y-73139927D01*
X77345202Y-73129202D01*
X77355927Y-73119481D01*
X77367553Y-73110858D01*
X77379969Y-73103417D01*
X77393054Y-73097228D01*
X77406683Y-73092351D01*
X77420724Y-73088834D01*
X77435042Y-73086710D01*
X77449500Y-73086000D01*
X77744500Y-73086000D01*
X77758958Y-73086710D01*
X77758958Y-73086710D01*
G37*
D15*
X77597000Y-73406000D03*
D10*
G36*
X78728958Y-73086710D02*
G01*
X78743276Y-73088834D01*
X78757317Y-73092351D01*
X78770946Y-73097228D01*
X78784031Y-73103417D01*
X78796447Y-73110858D01*
X78808073Y-73119481D01*
X78818798Y-73129202D01*
X78828519Y-73139927D01*
X78837142Y-73151553D01*
X78844583Y-73163969D01*
X78850772Y-73177054D01*
X78855649Y-73190683D01*
X78859166Y-73204724D01*
X78861290Y-73219042D01*
X78862000Y-73233500D01*
X78862000Y-73578500D01*
X78861290Y-73592958D01*
X78859166Y-73607276D01*
X78855649Y-73621317D01*
X78850772Y-73634946D01*
X78844583Y-73648031D01*
X78837142Y-73660447D01*
X78828519Y-73672073D01*
X78818798Y-73682798D01*
X78808073Y-73692519D01*
X78796447Y-73701142D01*
X78784031Y-73708583D01*
X78770946Y-73714772D01*
X78757317Y-73719649D01*
X78743276Y-73723166D01*
X78728958Y-73725290D01*
X78714500Y-73726000D01*
X78419500Y-73726000D01*
X78405042Y-73725290D01*
X78390724Y-73723166D01*
X78376683Y-73719649D01*
X78363054Y-73714772D01*
X78349969Y-73708583D01*
X78337553Y-73701142D01*
X78325927Y-73692519D01*
X78315202Y-73682798D01*
X78305481Y-73672073D01*
X78296858Y-73660447D01*
X78289417Y-73648031D01*
X78283228Y-73634946D01*
X78278351Y-73621317D01*
X78274834Y-73607276D01*
X78272710Y-73592958D01*
X78272000Y-73578500D01*
X78272000Y-73233500D01*
X78272710Y-73219042D01*
X78274834Y-73204724D01*
X78278351Y-73190683D01*
X78283228Y-73177054D01*
X78289417Y-73163969D01*
X78296858Y-73151553D01*
X78305481Y-73139927D01*
X78315202Y-73129202D01*
X78325927Y-73119481D01*
X78337553Y-73110858D01*
X78349969Y-73103417D01*
X78363054Y-73097228D01*
X78376683Y-73092351D01*
X78390724Y-73088834D01*
X78405042Y-73086710D01*
X78419500Y-73086000D01*
X78714500Y-73086000D01*
X78728958Y-73086710D01*
X78728958Y-73086710D01*
G37*
D15*
X78567000Y-73406000D03*
D10*
G36*
X77781958Y-75372710D02*
G01*
X77796276Y-75374834D01*
X77810317Y-75378351D01*
X77823946Y-75383228D01*
X77837031Y-75389417D01*
X77849447Y-75396858D01*
X77861073Y-75405481D01*
X77871798Y-75415202D01*
X77881519Y-75425927D01*
X77890142Y-75437553D01*
X77897583Y-75449969D01*
X77903772Y-75463054D01*
X77908649Y-75476683D01*
X77912166Y-75490724D01*
X77914290Y-75505042D01*
X77915000Y-75519500D01*
X77915000Y-75864500D01*
X77914290Y-75878958D01*
X77912166Y-75893276D01*
X77908649Y-75907317D01*
X77903772Y-75920946D01*
X77897583Y-75934031D01*
X77890142Y-75946447D01*
X77881519Y-75958073D01*
X77871798Y-75968798D01*
X77861073Y-75978519D01*
X77849447Y-75987142D01*
X77837031Y-75994583D01*
X77823946Y-76000772D01*
X77810317Y-76005649D01*
X77796276Y-76009166D01*
X77781958Y-76011290D01*
X77767500Y-76012000D01*
X77472500Y-76012000D01*
X77458042Y-76011290D01*
X77443724Y-76009166D01*
X77429683Y-76005649D01*
X77416054Y-76000772D01*
X77402969Y-75994583D01*
X77390553Y-75987142D01*
X77378927Y-75978519D01*
X77368202Y-75968798D01*
X77358481Y-75958073D01*
X77349858Y-75946447D01*
X77342417Y-75934031D01*
X77336228Y-75920946D01*
X77331351Y-75907317D01*
X77327834Y-75893276D01*
X77325710Y-75878958D01*
X77325000Y-75864500D01*
X77325000Y-75519500D01*
X77325710Y-75505042D01*
X77327834Y-75490724D01*
X77331351Y-75476683D01*
X77336228Y-75463054D01*
X77342417Y-75449969D01*
X77349858Y-75437553D01*
X77358481Y-75425927D01*
X77368202Y-75415202D01*
X77378927Y-75405481D01*
X77390553Y-75396858D01*
X77402969Y-75389417D01*
X77416054Y-75383228D01*
X77429683Y-75378351D01*
X77443724Y-75374834D01*
X77458042Y-75372710D01*
X77472500Y-75372000D01*
X77767500Y-75372000D01*
X77781958Y-75372710D01*
X77781958Y-75372710D01*
G37*
D15*
X77620000Y-75692000D03*
D10*
G36*
X78751958Y-75372710D02*
G01*
X78766276Y-75374834D01*
X78780317Y-75378351D01*
X78793946Y-75383228D01*
X78807031Y-75389417D01*
X78819447Y-75396858D01*
X78831073Y-75405481D01*
X78841798Y-75415202D01*
X78851519Y-75425927D01*
X78860142Y-75437553D01*
X78867583Y-75449969D01*
X78873772Y-75463054D01*
X78878649Y-75476683D01*
X78882166Y-75490724D01*
X78884290Y-75505042D01*
X78885000Y-75519500D01*
X78885000Y-75864500D01*
X78884290Y-75878958D01*
X78882166Y-75893276D01*
X78878649Y-75907317D01*
X78873772Y-75920946D01*
X78867583Y-75934031D01*
X78860142Y-75946447D01*
X78851519Y-75958073D01*
X78841798Y-75968798D01*
X78831073Y-75978519D01*
X78819447Y-75987142D01*
X78807031Y-75994583D01*
X78793946Y-76000772D01*
X78780317Y-76005649D01*
X78766276Y-76009166D01*
X78751958Y-76011290D01*
X78737500Y-76012000D01*
X78442500Y-76012000D01*
X78428042Y-76011290D01*
X78413724Y-76009166D01*
X78399683Y-76005649D01*
X78386054Y-76000772D01*
X78372969Y-75994583D01*
X78360553Y-75987142D01*
X78348927Y-75978519D01*
X78338202Y-75968798D01*
X78328481Y-75958073D01*
X78319858Y-75946447D01*
X78312417Y-75934031D01*
X78306228Y-75920946D01*
X78301351Y-75907317D01*
X78297834Y-75893276D01*
X78295710Y-75878958D01*
X78295000Y-75864500D01*
X78295000Y-75519500D01*
X78295710Y-75505042D01*
X78297834Y-75490724D01*
X78301351Y-75476683D01*
X78306228Y-75463054D01*
X78312417Y-75449969D01*
X78319858Y-75437553D01*
X78328481Y-75425927D01*
X78338202Y-75415202D01*
X78348927Y-75405481D01*
X78360553Y-75396858D01*
X78372969Y-75389417D01*
X78386054Y-75383228D01*
X78399683Y-75378351D01*
X78413724Y-75374834D01*
X78428042Y-75372710D01*
X78442500Y-75372000D01*
X78737500Y-75372000D01*
X78751958Y-75372710D01*
X78751958Y-75372710D01*
G37*
D15*
X78590000Y-75692000D03*
D10*
G36*
X77804958Y-77785710D02*
G01*
X77819276Y-77787834D01*
X77833317Y-77791351D01*
X77846946Y-77796228D01*
X77860031Y-77802417D01*
X77872447Y-77809858D01*
X77884073Y-77818481D01*
X77894798Y-77828202D01*
X77904519Y-77838927D01*
X77913142Y-77850553D01*
X77920583Y-77862969D01*
X77926772Y-77876054D01*
X77931649Y-77889683D01*
X77935166Y-77903724D01*
X77937290Y-77918042D01*
X77938000Y-77932500D01*
X77938000Y-78277500D01*
X77937290Y-78291958D01*
X77935166Y-78306276D01*
X77931649Y-78320317D01*
X77926772Y-78333946D01*
X77920583Y-78347031D01*
X77913142Y-78359447D01*
X77904519Y-78371073D01*
X77894798Y-78381798D01*
X77884073Y-78391519D01*
X77872447Y-78400142D01*
X77860031Y-78407583D01*
X77846946Y-78413772D01*
X77833317Y-78418649D01*
X77819276Y-78422166D01*
X77804958Y-78424290D01*
X77790500Y-78425000D01*
X77495500Y-78425000D01*
X77481042Y-78424290D01*
X77466724Y-78422166D01*
X77452683Y-78418649D01*
X77439054Y-78413772D01*
X77425969Y-78407583D01*
X77413553Y-78400142D01*
X77401927Y-78391519D01*
X77391202Y-78381798D01*
X77381481Y-78371073D01*
X77372858Y-78359447D01*
X77365417Y-78347031D01*
X77359228Y-78333946D01*
X77354351Y-78320317D01*
X77350834Y-78306276D01*
X77348710Y-78291958D01*
X77348000Y-78277500D01*
X77348000Y-77932500D01*
X77348710Y-77918042D01*
X77350834Y-77903724D01*
X77354351Y-77889683D01*
X77359228Y-77876054D01*
X77365417Y-77862969D01*
X77372858Y-77850553D01*
X77381481Y-77838927D01*
X77391202Y-77828202D01*
X77401927Y-77818481D01*
X77413553Y-77809858D01*
X77425969Y-77802417D01*
X77439054Y-77796228D01*
X77452683Y-77791351D01*
X77466724Y-77787834D01*
X77481042Y-77785710D01*
X77495500Y-77785000D01*
X77790500Y-77785000D01*
X77804958Y-77785710D01*
X77804958Y-77785710D01*
G37*
D15*
X77643000Y-78105000D03*
D10*
G36*
X78774958Y-77785710D02*
G01*
X78789276Y-77787834D01*
X78803317Y-77791351D01*
X78816946Y-77796228D01*
X78830031Y-77802417D01*
X78842447Y-77809858D01*
X78854073Y-77818481D01*
X78864798Y-77828202D01*
X78874519Y-77838927D01*
X78883142Y-77850553D01*
X78890583Y-77862969D01*
X78896772Y-77876054D01*
X78901649Y-77889683D01*
X78905166Y-77903724D01*
X78907290Y-77918042D01*
X78908000Y-77932500D01*
X78908000Y-78277500D01*
X78907290Y-78291958D01*
X78905166Y-78306276D01*
X78901649Y-78320317D01*
X78896772Y-78333946D01*
X78890583Y-78347031D01*
X78883142Y-78359447D01*
X78874519Y-78371073D01*
X78864798Y-78381798D01*
X78854073Y-78391519D01*
X78842447Y-78400142D01*
X78830031Y-78407583D01*
X78816946Y-78413772D01*
X78803317Y-78418649D01*
X78789276Y-78422166D01*
X78774958Y-78424290D01*
X78760500Y-78425000D01*
X78465500Y-78425000D01*
X78451042Y-78424290D01*
X78436724Y-78422166D01*
X78422683Y-78418649D01*
X78409054Y-78413772D01*
X78395969Y-78407583D01*
X78383553Y-78400142D01*
X78371927Y-78391519D01*
X78361202Y-78381798D01*
X78351481Y-78371073D01*
X78342858Y-78359447D01*
X78335417Y-78347031D01*
X78329228Y-78333946D01*
X78324351Y-78320317D01*
X78320834Y-78306276D01*
X78318710Y-78291958D01*
X78318000Y-78277500D01*
X78318000Y-77932500D01*
X78318710Y-77918042D01*
X78320834Y-77903724D01*
X78324351Y-77889683D01*
X78329228Y-77876054D01*
X78335417Y-77862969D01*
X78342858Y-77850553D01*
X78351481Y-77838927D01*
X78361202Y-77828202D01*
X78371927Y-77818481D01*
X78383553Y-77809858D01*
X78395969Y-77802417D01*
X78409054Y-77796228D01*
X78422683Y-77791351D01*
X78436724Y-77787834D01*
X78451042Y-77785710D01*
X78465500Y-77785000D01*
X78760500Y-77785000D01*
X78774958Y-77785710D01*
X78774958Y-77785710D01*
G37*
D15*
X78613000Y-78105000D03*
D10*
G36*
X77781958Y-80325710D02*
G01*
X77796276Y-80327834D01*
X77810317Y-80331351D01*
X77823946Y-80336228D01*
X77837031Y-80342417D01*
X77849447Y-80349858D01*
X77861073Y-80358481D01*
X77871798Y-80368202D01*
X77881519Y-80378927D01*
X77890142Y-80390553D01*
X77897583Y-80402969D01*
X77903772Y-80416054D01*
X77908649Y-80429683D01*
X77912166Y-80443724D01*
X77914290Y-80458042D01*
X77915000Y-80472500D01*
X77915000Y-80817500D01*
X77914290Y-80831958D01*
X77912166Y-80846276D01*
X77908649Y-80860317D01*
X77903772Y-80873946D01*
X77897583Y-80887031D01*
X77890142Y-80899447D01*
X77881519Y-80911073D01*
X77871798Y-80921798D01*
X77861073Y-80931519D01*
X77849447Y-80940142D01*
X77837031Y-80947583D01*
X77823946Y-80953772D01*
X77810317Y-80958649D01*
X77796276Y-80962166D01*
X77781958Y-80964290D01*
X77767500Y-80965000D01*
X77472500Y-80965000D01*
X77458042Y-80964290D01*
X77443724Y-80962166D01*
X77429683Y-80958649D01*
X77416054Y-80953772D01*
X77402969Y-80947583D01*
X77390553Y-80940142D01*
X77378927Y-80931519D01*
X77368202Y-80921798D01*
X77358481Y-80911073D01*
X77349858Y-80899447D01*
X77342417Y-80887031D01*
X77336228Y-80873946D01*
X77331351Y-80860317D01*
X77327834Y-80846276D01*
X77325710Y-80831958D01*
X77325000Y-80817500D01*
X77325000Y-80472500D01*
X77325710Y-80458042D01*
X77327834Y-80443724D01*
X77331351Y-80429683D01*
X77336228Y-80416054D01*
X77342417Y-80402969D01*
X77349858Y-80390553D01*
X77358481Y-80378927D01*
X77368202Y-80368202D01*
X77378927Y-80358481D01*
X77390553Y-80349858D01*
X77402969Y-80342417D01*
X77416054Y-80336228D01*
X77429683Y-80331351D01*
X77443724Y-80327834D01*
X77458042Y-80325710D01*
X77472500Y-80325000D01*
X77767500Y-80325000D01*
X77781958Y-80325710D01*
X77781958Y-80325710D01*
G37*
D15*
X77620000Y-80645000D03*
D10*
G36*
X78751958Y-80325710D02*
G01*
X78766276Y-80327834D01*
X78780317Y-80331351D01*
X78793946Y-80336228D01*
X78807031Y-80342417D01*
X78819447Y-80349858D01*
X78831073Y-80358481D01*
X78841798Y-80368202D01*
X78851519Y-80378927D01*
X78860142Y-80390553D01*
X78867583Y-80402969D01*
X78873772Y-80416054D01*
X78878649Y-80429683D01*
X78882166Y-80443724D01*
X78884290Y-80458042D01*
X78885000Y-80472500D01*
X78885000Y-80817500D01*
X78884290Y-80831958D01*
X78882166Y-80846276D01*
X78878649Y-80860317D01*
X78873772Y-80873946D01*
X78867583Y-80887031D01*
X78860142Y-80899447D01*
X78851519Y-80911073D01*
X78841798Y-80921798D01*
X78831073Y-80931519D01*
X78819447Y-80940142D01*
X78807031Y-80947583D01*
X78793946Y-80953772D01*
X78780317Y-80958649D01*
X78766276Y-80962166D01*
X78751958Y-80964290D01*
X78737500Y-80965000D01*
X78442500Y-80965000D01*
X78428042Y-80964290D01*
X78413724Y-80962166D01*
X78399683Y-80958649D01*
X78386054Y-80953772D01*
X78372969Y-80947583D01*
X78360553Y-80940142D01*
X78348927Y-80931519D01*
X78338202Y-80921798D01*
X78328481Y-80911073D01*
X78319858Y-80899447D01*
X78312417Y-80887031D01*
X78306228Y-80873946D01*
X78301351Y-80860317D01*
X78297834Y-80846276D01*
X78295710Y-80831958D01*
X78295000Y-80817500D01*
X78295000Y-80472500D01*
X78295710Y-80458042D01*
X78297834Y-80443724D01*
X78301351Y-80429683D01*
X78306228Y-80416054D01*
X78312417Y-80402969D01*
X78319858Y-80390553D01*
X78328481Y-80378927D01*
X78338202Y-80368202D01*
X78348927Y-80358481D01*
X78360553Y-80349858D01*
X78372969Y-80342417D01*
X78386054Y-80336228D01*
X78399683Y-80331351D01*
X78413724Y-80327834D01*
X78428042Y-80325710D01*
X78442500Y-80325000D01*
X78737500Y-80325000D01*
X78751958Y-80325710D01*
X78751958Y-80325710D01*
G37*
D15*
X78590000Y-80645000D03*
D10*
G36*
X77781958Y-71943710D02*
G01*
X77796276Y-71945834D01*
X77810317Y-71949351D01*
X77823946Y-71954228D01*
X77837031Y-71960417D01*
X77849447Y-71967858D01*
X77861073Y-71976481D01*
X77871798Y-71986202D01*
X77881519Y-71996927D01*
X77890142Y-72008553D01*
X77897583Y-72020969D01*
X77903772Y-72034054D01*
X77908649Y-72047683D01*
X77912166Y-72061724D01*
X77914290Y-72076042D01*
X77915000Y-72090500D01*
X77915000Y-72435500D01*
X77914290Y-72449958D01*
X77912166Y-72464276D01*
X77908649Y-72478317D01*
X77903772Y-72491946D01*
X77897583Y-72505031D01*
X77890142Y-72517447D01*
X77881519Y-72529073D01*
X77871798Y-72539798D01*
X77861073Y-72549519D01*
X77849447Y-72558142D01*
X77837031Y-72565583D01*
X77823946Y-72571772D01*
X77810317Y-72576649D01*
X77796276Y-72580166D01*
X77781958Y-72582290D01*
X77767500Y-72583000D01*
X77472500Y-72583000D01*
X77458042Y-72582290D01*
X77443724Y-72580166D01*
X77429683Y-72576649D01*
X77416054Y-72571772D01*
X77402969Y-72565583D01*
X77390553Y-72558142D01*
X77378927Y-72549519D01*
X77368202Y-72539798D01*
X77358481Y-72529073D01*
X77349858Y-72517447D01*
X77342417Y-72505031D01*
X77336228Y-72491946D01*
X77331351Y-72478317D01*
X77327834Y-72464276D01*
X77325710Y-72449958D01*
X77325000Y-72435500D01*
X77325000Y-72090500D01*
X77325710Y-72076042D01*
X77327834Y-72061724D01*
X77331351Y-72047683D01*
X77336228Y-72034054D01*
X77342417Y-72020969D01*
X77349858Y-72008553D01*
X77358481Y-71996927D01*
X77368202Y-71986202D01*
X77378927Y-71976481D01*
X77390553Y-71967858D01*
X77402969Y-71960417D01*
X77416054Y-71954228D01*
X77429683Y-71949351D01*
X77443724Y-71945834D01*
X77458042Y-71943710D01*
X77472500Y-71943000D01*
X77767500Y-71943000D01*
X77781958Y-71943710D01*
X77781958Y-71943710D01*
G37*
D15*
X77620000Y-72263000D03*
D10*
G36*
X78751958Y-71943710D02*
G01*
X78766276Y-71945834D01*
X78780317Y-71949351D01*
X78793946Y-71954228D01*
X78807031Y-71960417D01*
X78819447Y-71967858D01*
X78831073Y-71976481D01*
X78841798Y-71986202D01*
X78851519Y-71996927D01*
X78860142Y-72008553D01*
X78867583Y-72020969D01*
X78873772Y-72034054D01*
X78878649Y-72047683D01*
X78882166Y-72061724D01*
X78884290Y-72076042D01*
X78885000Y-72090500D01*
X78885000Y-72435500D01*
X78884290Y-72449958D01*
X78882166Y-72464276D01*
X78878649Y-72478317D01*
X78873772Y-72491946D01*
X78867583Y-72505031D01*
X78860142Y-72517447D01*
X78851519Y-72529073D01*
X78841798Y-72539798D01*
X78831073Y-72549519D01*
X78819447Y-72558142D01*
X78807031Y-72565583D01*
X78793946Y-72571772D01*
X78780317Y-72576649D01*
X78766276Y-72580166D01*
X78751958Y-72582290D01*
X78737500Y-72583000D01*
X78442500Y-72583000D01*
X78428042Y-72582290D01*
X78413724Y-72580166D01*
X78399683Y-72576649D01*
X78386054Y-72571772D01*
X78372969Y-72565583D01*
X78360553Y-72558142D01*
X78348927Y-72549519D01*
X78338202Y-72539798D01*
X78328481Y-72529073D01*
X78319858Y-72517447D01*
X78312417Y-72505031D01*
X78306228Y-72491946D01*
X78301351Y-72478317D01*
X78297834Y-72464276D01*
X78295710Y-72449958D01*
X78295000Y-72435500D01*
X78295000Y-72090500D01*
X78295710Y-72076042D01*
X78297834Y-72061724D01*
X78301351Y-72047683D01*
X78306228Y-72034054D01*
X78312417Y-72020969D01*
X78319858Y-72008553D01*
X78328481Y-71996927D01*
X78338202Y-71986202D01*
X78348927Y-71976481D01*
X78360553Y-71967858D01*
X78372969Y-71960417D01*
X78386054Y-71954228D01*
X78399683Y-71949351D01*
X78413724Y-71945834D01*
X78428042Y-71943710D01*
X78442500Y-71943000D01*
X78737500Y-71943000D01*
X78751958Y-71943710D01*
X78751958Y-71943710D01*
G37*
D15*
X78590000Y-72263000D03*
D10*
G36*
X77781958Y-74229710D02*
G01*
X77796276Y-74231834D01*
X77810317Y-74235351D01*
X77823946Y-74240228D01*
X77837031Y-74246417D01*
X77849447Y-74253858D01*
X77861073Y-74262481D01*
X77871798Y-74272202D01*
X77881519Y-74282927D01*
X77890142Y-74294553D01*
X77897583Y-74306969D01*
X77903772Y-74320054D01*
X77908649Y-74333683D01*
X77912166Y-74347724D01*
X77914290Y-74362042D01*
X77915000Y-74376500D01*
X77915000Y-74721500D01*
X77914290Y-74735958D01*
X77912166Y-74750276D01*
X77908649Y-74764317D01*
X77903772Y-74777946D01*
X77897583Y-74791031D01*
X77890142Y-74803447D01*
X77881519Y-74815073D01*
X77871798Y-74825798D01*
X77861073Y-74835519D01*
X77849447Y-74844142D01*
X77837031Y-74851583D01*
X77823946Y-74857772D01*
X77810317Y-74862649D01*
X77796276Y-74866166D01*
X77781958Y-74868290D01*
X77767500Y-74869000D01*
X77472500Y-74869000D01*
X77458042Y-74868290D01*
X77443724Y-74866166D01*
X77429683Y-74862649D01*
X77416054Y-74857772D01*
X77402969Y-74851583D01*
X77390553Y-74844142D01*
X77378927Y-74835519D01*
X77368202Y-74825798D01*
X77358481Y-74815073D01*
X77349858Y-74803447D01*
X77342417Y-74791031D01*
X77336228Y-74777946D01*
X77331351Y-74764317D01*
X77327834Y-74750276D01*
X77325710Y-74735958D01*
X77325000Y-74721500D01*
X77325000Y-74376500D01*
X77325710Y-74362042D01*
X77327834Y-74347724D01*
X77331351Y-74333683D01*
X77336228Y-74320054D01*
X77342417Y-74306969D01*
X77349858Y-74294553D01*
X77358481Y-74282927D01*
X77368202Y-74272202D01*
X77378927Y-74262481D01*
X77390553Y-74253858D01*
X77402969Y-74246417D01*
X77416054Y-74240228D01*
X77429683Y-74235351D01*
X77443724Y-74231834D01*
X77458042Y-74229710D01*
X77472500Y-74229000D01*
X77767500Y-74229000D01*
X77781958Y-74229710D01*
X77781958Y-74229710D01*
G37*
D15*
X77620000Y-74549000D03*
D10*
G36*
X78751958Y-74229710D02*
G01*
X78766276Y-74231834D01*
X78780317Y-74235351D01*
X78793946Y-74240228D01*
X78807031Y-74246417D01*
X78819447Y-74253858D01*
X78831073Y-74262481D01*
X78841798Y-74272202D01*
X78851519Y-74282927D01*
X78860142Y-74294553D01*
X78867583Y-74306969D01*
X78873772Y-74320054D01*
X78878649Y-74333683D01*
X78882166Y-74347724D01*
X78884290Y-74362042D01*
X78885000Y-74376500D01*
X78885000Y-74721500D01*
X78884290Y-74735958D01*
X78882166Y-74750276D01*
X78878649Y-74764317D01*
X78873772Y-74777946D01*
X78867583Y-74791031D01*
X78860142Y-74803447D01*
X78851519Y-74815073D01*
X78841798Y-74825798D01*
X78831073Y-74835519D01*
X78819447Y-74844142D01*
X78807031Y-74851583D01*
X78793946Y-74857772D01*
X78780317Y-74862649D01*
X78766276Y-74866166D01*
X78751958Y-74868290D01*
X78737500Y-74869000D01*
X78442500Y-74869000D01*
X78428042Y-74868290D01*
X78413724Y-74866166D01*
X78399683Y-74862649D01*
X78386054Y-74857772D01*
X78372969Y-74851583D01*
X78360553Y-74844142D01*
X78348927Y-74835519D01*
X78338202Y-74825798D01*
X78328481Y-74815073D01*
X78319858Y-74803447D01*
X78312417Y-74791031D01*
X78306228Y-74777946D01*
X78301351Y-74764317D01*
X78297834Y-74750276D01*
X78295710Y-74735958D01*
X78295000Y-74721500D01*
X78295000Y-74376500D01*
X78295710Y-74362042D01*
X78297834Y-74347724D01*
X78301351Y-74333683D01*
X78306228Y-74320054D01*
X78312417Y-74306969D01*
X78319858Y-74294553D01*
X78328481Y-74282927D01*
X78338202Y-74272202D01*
X78348927Y-74262481D01*
X78360553Y-74253858D01*
X78372969Y-74246417D01*
X78386054Y-74240228D01*
X78399683Y-74235351D01*
X78413724Y-74231834D01*
X78428042Y-74229710D01*
X78442500Y-74229000D01*
X78737500Y-74229000D01*
X78751958Y-74229710D01*
X78751958Y-74229710D01*
G37*
D15*
X78590000Y-74549000D03*
D10*
G36*
X77804958Y-76515710D02*
G01*
X77819276Y-76517834D01*
X77833317Y-76521351D01*
X77846946Y-76526228D01*
X77860031Y-76532417D01*
X77872447Y-76539858D01*
X77884073Y-76548481D01*
X77894798Y-76558202D01*
X77904519Y-76568927D01*
X77913142Y-76580553D01*
X77920583Y-76592969D01*
X77926772Y-76606054D01*
X77931649Y-76619683D01*
X77935166Y-76633724D01*
X77937290Y-76648042D01*
X77938000Y-76662500D01*
X77938000Y-77007500D01*
X77937290Y-77021958D01*
X77935166Y-77036276D01*
X77931649Y-77050317D01*
X77926772Y-77063946D01*
X77920583Y-77077031D01*
X77913142Y-77089447D01*
X77904519Y-77101073D01*
X77894798Y-77111798D01*
X77884073Y-77121519D01*
X77872447Y-77130142D01*
X77860031Y-77137583D01*
X77846946Y-77143772D01*
X77833317Y-77148649D01*
X77819276Y-77152166D01*
X77804958Y-77154290D01*
X77790500Y-77155000D01*
X77495500Y-77155000D01*
X77481042Y-77154290D01*
X77466724Y-77152166D01*
X77452683Y-77148649D01*
X77439054Y-77143772D01*
X77425969Y-77137583D01*
X77413553Y-77130142D01*
X77401927Y-77121519D01*
X77391202Y-77111798D01*
X77381481Y-77101073D01*
X77372858Y-77089447D01*
X77365417Y-77077031D01*
X77359228Y-77063946D01*
X77354351Y-77050317D01*
X77350834Y-77036276D01*
X77348710Y-77021958D01*
X77348000Y-77007500D01*
X77348000Y-76662500D01*
X77348710Y-76648042D01*
X77350834Y-76633724D01*
X77354351Y-76619683D01*
X77359228Y-76606054D01*
X77365417Y-76592969D01*
X77372858Y-76580553D01*
X77381481Y-76568927D01*
X77391202Y-76558202D01*
X77401927Y-76548481D01*
X77413553Y-76539858D01*
X77425969Y-76532417D01*
X77439054Y-76526228D01*
X77452683Y-76521351D01*
X77466724Y-76517834D01*
X77481042Y-76515710D01*
X77495500Y-76515000D01*
X77790500Y-76515000D01*
X77804958Y-76515710D01*
X77804958Y-76515710D01*
G37*
D15*
X77643000Y-76835000D03*
D10*
G36*
X78774958Y-76515710D02*
G01*
X78789276Y-76517834D01*
X78803317Y-76521351D01*
X78816946Y-76526228D01*
X78830031Y-76532417D01*
X78842447Y-76539858D01*
X78854073Y-76548481D01*
X78864798Y-76558202D01*
X78874519Y-76568927D01*
X78883142Y-76580553D01*
X78890583Y-76592969D01*
X78896772Y-76606054D01*
X78901649Y-76619683D01*
X78905166Y-76633724D01*
X78907290Y-76648042D01*
X78908000Y-76662500D01*
X78908000Y-77007500D01*
X78907290Y-77021958D01*
X78905166Y-77036276D01*
X78901649Y-77050317D01*
X78896772Y-77063946D01*
X78890583Y-77077031D01*
X78883142Y-77089447D01*
X78874519Y-77101073D01*
X78864798Y-77111798D01*
X78854073Y-77121519D01*
X78842447Y-77130142D01*
X78830031Y-77137583D01*
X78816946Y-77143772D01*
X78803317Y-77148649D01*
X78789276Y-77152166D01*
X78774958Y-77154290D01*
X78760500Y-77155000D01*
X78465500Y-77155000D01*
X78451042Y-77154290D01*
X78436724Y-77152166D01*
X78422683Y-77148649D01*
X78409054Y-77143772D01*
X78395969Y-77137583D01*
X78383553Y-77130142D01*
X78371927Y-77121519D01*
X78361202Y-77111798D01*
X78351481Y-77101073D01*
X78342858Y-77089447D01*
X78335417Y-77077031D01*
X78329228Y-77063946D01*
X78324351Y-77050317D01*
X78320834Y-77036276D01*
X78318710Y-77021958D01*
X78318000Y-77007500D01*
X78318000Y-76662500D01*
X78318710Y-76648042D01*
X78320834Y-76633724D01*
X78324351Y-76619683D01*
X78329228Y-76606054D01*
X78335417Y-76592969D01*
X78342858Y-76580553D01*
X78351481Y-76568927D01*
X78361202Y-76558202D01*
X78371927Y-76548481D01*
X78383553Y-76539858D01*
X78395969Y-76532417D01*
X78409054Y-76526228D01*
X78422683Y-76521351D01*
X78436724Y-76517834D01*
X78451042Y-76515710D01*
X78465500Y-76515000D01*
X78760500Y-76515000D01*
X78774958Y-76515710D01*
X78774958Y-76515710D01*
G37*
D15*
X78613000Y-76835000D03*
D10*
G36*
X77781958Y-79055710D02*
G01*
X77796276Y-79057834D01*
X77810317Y-79061351D01*
X77823946Y-79066228D01*
X77837031Y-79072417D01*
X77849447Y-79079858D01*
X77861073Y-79088481D01*
X77871798Y-79098202D01*
X77881519Y-79108927D01*
X77890142Y-79120553D01*
X77897583Y-79132969D01*
X77903772Y-79146054D01*
X77908649Y-79159683D01*
X77912166Y-79173724D01*
X77914290Y-79188042D01*
X77915000Y-79202500D01*
X77915000Y-79547500D01*
X77914290Y-79561958D01*
X77912166Y-79576276D01*
X77908649Y-79590317D01*
X77903772Y-79603946D01*
X77897583Y-79617031D01*
X77890142Y-79629447D01*
X77881519Y-79641073D01*
X77871798Y-79651798D01*
X77861073Y-79661519D01*
X77849447Y-79670142D01*
X77837031Y-79677583D01*
X77823946Y-79683772D01*
X77810317Y-79688649D01*
X77796276Y-79692166D01*
X77781958Y-79694290D01*
X77767500Y-79695000D01*
X77472500Y-79695000D01*
X77458042Y-79694290D01*
X77443724Y-79692166D01*
X77429683Y-79688649D01*
X77416054Y-79683772D01*
X77402969Y-79677583D01*
X77390553Y-79670142D01*
X77378927Y-79661519D01*
X77368202Y-79651798D01*
X77358481Y-79641073D01*
X77349858Y-79629447D01*
X77342417Y-79617031D01*
X77336228Y-79603946D01*
X77331351Y-79590317D01*
X77327834Y-79576276D01*
X77325710Y-79561958D01*
X77325000Y-79547500D01*
X77325000Y-79202500D01*
X77325710Y-79188042D01*
X77327834Y-79173724D01*
X77331351Y-79159683D01*
X77336228Y-79146054D01*
X77342417Y-79132969D01*
X77349858Y-79120553D01*
X77358481Y-79108927D01*
X77368202Y-79098202D01*
X77378927Y-79088481D01*
X77390553Y-79079858D01*
X77402969Y-79072417D01*
X77416054Y-79066228D01*
X77429683Y-79061351D01*
X77443724Y-79057834D01*
X77458042Y-79055710D01*
X77472500Y-79055000D01*
X77767500Y-79055000D01*
X77781958Y-79055710D01*
X77781958Y-79055710D01*
G37*
D15*
X77620000Y-79375000D03*
D10*
G36*
X78751958Y-79055710D02*
G01*
X78766276Y-79057834D01*
X78780317Y-79061351D01*
X78793946Y-79066228D01*
X78807031Y-79072417D01*
X78819447Y-79079858D01*
X78831073Y-79088481D01*
X78841798Y-79098202D01*
X78851519Y-79108927D01*
X78860142Y-79120553D01*
X78867583Y-79132969D01*
X78873772Y-79146054D01*
X78878649Y-79159683D01*
X78882166Y-79173724D01*
X78884290Y-79188042D01*
X78885000Y-79202500D01*
X78885000Y-79547500D01*
X78884290Y-79561958D01*
X78882166Y-79576276D01*
X78878649Y-79590317D01*
X78873772Y-79603946D01*
X78867583Y-79617031D01*
X78860142Y-79629447D01*
X78851519Y-79641073D01*
X78841798Y-79651798D01*
X78831073Y-79661519D01*
X78819447Y-79670142D01*
X78807031Y-79677583D01*
X78793946Y-79683772D01*
X78780317Y-79688649D01*
X78766276Y-79692166D01*
X78751958Y-79694290D01*
X78737500Y-79695000D01*
X78442500Y-79695000D01*
X78428042Y-79694290D01*
X78413724Y-79692166D01*
X78399683Y-79688649D01*
X78386054Y-79683772D01*
X78372969Y-79677583D01*
X78360553Y-79670142D01*
X78348927Y-79661519D01*
X78338202Y-79651798D01*
X78328481Y-79641073D01*
X78319858Y-79629447D01*
X78312417Y-79617031D01*
X78306228Y-79603946D01*
X78301351Y-79590317D01*
X78297834Y-79576276D01*
X78295710Y-79561958D01*
X78295000Y-79547500D01*
X78295000Y-79202500D01*
X78295710Y-79188042D01*
X78297834Y-79173724D01*
X78301351Y-79159683D01*
X78306228Y-79146054D01*
X78312417Y-79132969D01*
X78319858Y-79120553D01*
X78328481Y-79108927D01*
X78338202Y-79098202D01*
X78348927Y-79088481D01*
X78360553Y-79079858D01*
X78372969Y-79072417D01*
X78386054Y-79066228D01*
X78399683Y-79061351D01*
X78413724Y-79057834D01*
X78428042Y-79055710D01*
X78442500Y-79055000D01*
X78737500Y-79055000D01*
X78751958Y-79055710D01*
X78751958Y-79055710D01*
G37*
D15*
X78590000Y-79375000D03*
M02*
