G04 #@! TF.GenerationSoftware,KiCad,Pcbnew,(5.1.2)-2*
G04 #@! TF.CreationDate,2019-11-16T13:35:15-06:00*
G04 #@! TF.ProjectId,spi_control,7370695f-636f-46e7-9472-6f6c2e6b6963,rev?*
G04 #@! TF.SameCoordinates,Original*
G04 #@! TF.FileFunction,Soldermask,Top*
G04 #@! TF.FilePolarity,Negative*
%FSLAX46Y46*%
G04 Gerber Fmt 4.6, Leading zero omitted, Abs format (unit mm)*
G04 Created by KiCad (PCBNEW (5.1.2)-2) date 2019-11-16 13:35:15*
%MOMM*%
%LPD*%
G04 APERTURE LIST*
%ADD10C,0.101600*%
%ADD11C,0.127000*%
%ADD12C,0.100000*%
G04 APERTURE END LIST*
D10*
G36*
X71544427Y-62532110D02*
G01*
X71549566Y-62534060D01*
X71556761Y-62537054D01*
X71565513Y-62540881D01*
X71575323Y-62545330D01*
X71579596Y-62547315D01*
X71678634Y-62591920D01*
X71778783Y-62633628D01*
X71880115Y-62672458D01*
X71982704Y-62708427D01*
X72086623Y-62741551D01*
X72191943Y-62771847D01*
X72298737Y-62799333D01*
X72407078Y-62824026D01*
X72517038Y-62845942D01*
X72628691Y-62865100D01*
X72742109Y-62881515D01*
X72857363Y-62895206D01*
X72974528Y-62906189D01*
X73093675Y-62914482D01*
X73150306Y-62917451D01*
X73202198Y-62919553D01*
X73256785Y-62921121D01*
X73313417Y-62922157D01*
X73371446Y-62922663D01*
X73430222Y-62922638D01*
X73489095Y-62922085D01*
X73547416Y-62921004D01*
X73604536Y-62919397D01*
X73659806Y-62917264D01*
X73674393Y-62916595D01*
X73789904Y-62909783D01*
X73903326Y-62900401D01*
X74014815Y-62888410D01*
X74124530Y-62873773D01*
X74232629Y-62856452D01*
X74339269Y-62836409D01*
X74444608Y-62813607D01*
X74548804Y-62788009D01*
X74652015Y-62759575D01*
X74754398Y-62728270D01*
X74856112Y-62694055D01*
X74957314Y-62656892D01*
X75058162Y-62616744D01*
X75158814Y-62573574D01*
X75211579Y-62549710D01*
X75224290Y-62543903D01*
X75234317Y-62539435D01*
X75242025Y-62536166D01*
X75247776Y-62533956D01*
X75251934Y-62532666D01*
X75254862Y-62532155D01*
X75256874Y-62532273D01*
X75262498Y-62534953D01*
X75265898Y-62539501D01*
X75266881Y-62545073D01*
X75265252Y-62550824D01*
X75262075Y-62554863D01*
X75259386Y-62556805D01*
X75254072Y-62560185D01*
X75246473Y-62564810D01*
X75236927Y-62570482D01*
X75225777Y-62577006D01*
X75213361Y-62584188D01*
X75200021Y-62591830D01*
X75186096Y-62599738D01*
X75171926Y-62607716D01*
X75157852Y-62615569D01*
X75144213Y-62623100D01*
X75131350Y-62630114D01*
X75128966Y-62631403D01*
X75030165Y-62682798D01*
X74930078Y-62731083D01*
X74828772Y-62776238D01*
X74726312Y-62818244D01*
X74622765Y-62857084D01*
X74518198Y-62892738D01*
X74412676Y-62925187D01*
X74306266Y-62954413D01*
X74199034Y-62980397D01*
X74091048Y-63003120D01*
X73982372Y-63022564D01*
X73873074Y-63038709D01*
X73763219Y-63051538D01*
X73652875Y-63061031D01*
X73593113Y-63064764D01*
X73561796Y-63066261D01*
X73528191Y-63067502D01*
X73492978Y-63068479D01*
X73456835Y-63069185D01*
X73420443Y-63069613D01*
X73384480Y-63069756D01*
X73349626Y-63069607D01*
X73316559Y-63069158D01*
X73285960Y-63068403D01*
X73276460Y-63068083D01*
X73164581Y-63062389D01*
X73053591Y-63053433D01*
X72943434Y-63041204D01*
X72834056Y-63025693D01*
X72725401Y-63006890D01*
X72617415Y-62984785D01*
X72510043Y-62959367D01*
X72403230Y-62930628D01*
X72296922Y-62898558D01*
X72251146Y-62883673D01*
X72147389Y-62847421D01*
X72044520Y-62807920D01*
X71942649Y-62765219D01*
X71841882Y-62719366D01*
X71742328Y-62670406D01*
X71644095Y-62618389D01*
X71632233Y-62611850D01*
X71617654Y-62603728D01*
X71603245Y-62595605D01*
X71589332Y-62587671D01*
X71576243Y-62580121D01*
X71564307Y-62573145D01*
X71553851Y-62566936D01*
X71545201Y-62561686D01*
X71538687Y-62557587D01*
X71534635Y-62554833D01*
X71533596Y-62553981D01*
X71530350Y-62548631D01*
X71530076Y-62542627D01*
X71532756Y-62536904D01*
X71533943Y-62535569D01*
X71537853Y-62532700D01*
X71541659Y-62531418D01*
X71541842Y-62531413D01*
X71544427Y-62532110D01*
X71544427Y-62532110D01*
G37*
X71544427Y-62532110D02*
X71549566Y-62534060D01*
X71556761Y-62537054D01*
X71565513Y-62540881D01*
X71575323Y-62545330D01*
X71579596Y-62547315D01*
X71678634Y-62591920D01*
X71778783Y-62633628D01*
X71880115Y-62672458D01*
X71982704Y-62708427D01*
X72086623Y-62741551D01*
X72191943Y-62771847D01*
X72298737Y-62799333D01*
X72407078Y-62824026D01*
X72517038Y-62845942D01*
X72628691Y-62865100D01*
X72742109Y-62881515D01*
X72857363Y-62895206D01*
X72974528Y-62906189D01*
X73093675Y-62914482D01*
X73150306Y-62917451D01*
X73202198Y-62919553D01*
X73256785Y-62921121D01*
X73313417Y-62922157D01*
X73371446Y-62922663D01*
X73430222Y-62922638D01*
X73489095Y-62922085D01*
X73547416Y-62921004D01*
X73604536Y-62919397D01*
X73659806Y-62917264D01*
X73674393Y-62916595D01*
X73789904Y-62909783D01*
X73903326Y-62900401D01*
X74014815Y-62888410D01*
X74124530Y-62873773D01*
X74232629Y-62856452D01*
X74339269Y-62836409D01*
X74444608Y-62813607D01*
X74548804Y-62788009D01*
X74652015Y-62759575D01*
X74754398Y-62728270D01*
X74856112Y-62694055D01*
X74957314Y-62656892D01*
X75058162Y-62616744D01*
X75158814Y-62573574D01*
X75211579Y-62549710D01*
X75224290Y-62543903D01*
X75234317Y-62539435D01*
X75242025Y-62536166D01*
X75247776Y-62533956D01*
X75251934Y-62532666D01*
X75254862Y-62532155D01*
X75256874Y-62532273D01*
X75262498Y-62534953D01*
X75265898Y-62539501D01*
X75266881Y-62545073D01*
X75265252Y-62550824D01*
X75262075Y-62554863D01*
X75259386Y-62556805D01*
X75254072Y-62560185D01*
X75246473Y-62564810D01*
X75236927Y-62570482D01*
X75225777Y-62577006D01*
X75213361Y-62584188D01*
X75200021Y-62591830D01*
X75186096Y-62599738D01*
X75171926Y-62607716D01*
X75157852Y-62615569D01*
X75144213Y-62623100D01*
X75131350Y-62630114D01*
X75128966Y-62631403D01*
X75030165Y-62682798D01*
X74930078Y-62731083D01*
X74828772Y-62776238D01*
X74726312Y-62818244D01*
X74622765Y-62857084D01*
X74518198Y-62892738D01*
X74412676Y-62925187D01*
X74306266Y-62954413D01*
X74199034Y-62980397D01*
X74091048Y-63003120D01*
X73982372Y-63022564D01*
X73873074Y-63038709D01*
X73763219Y-63051538D01*
X73652875Y-63061031D01*
X73593113Y-63064764D01*
X73561796Y-63066261D01*
X73528191Y-63067502D01*
X73492978Y-63068479D01*
X73456835Y-63069185D01*
X73420443Y-63069613D01*
X73384480Y-63069756D01*
X73349626Y-63069607D01*
X73316559Y-63069158D01*
X73285960Y-63068403D01*
X73276460Y-63068083D01*
X73164581Y-63062389D01*
X73053591Y-63053433D01*
X72943434Y-63041204D01*
X72834056Y-63025693D01*
X72725401Y-63006890D01*
X72617415Y-62984785D01*
X72510043Y-62959367D01*
X72403230Y-62930628D01*
X72296922Y-62898558D01*
X72251146Y-62883673D01*
X72147389Y-62847421D01*
X72044520Y-62807920D01*
X71942649Y-62765219D01*
X71841882Y-62719366D01*
X71742328Y-62670406D01*
X71644095Y-62618389D01*
X71632233Y-62611850D01*
X71617654Y-62603728D01*
X71603245Y-62595605D01*
X71589332Y-62587671D01*
X71576243Y-62580121D01*
X71564307Y-62573145D01*
X71553851Y-62566936D01*
X71545201Y-62561686D01*
X71538687Y-62557587D01*
X71534635Y-62554833D01*
X71533596Y-62553981D01*
X71530350Y-62548631D01*
X71530076Y-62542627D01*
X71532756Y-62536904D01*
X71533943Y-62535569D01*
X71537853Y-62532700D01*
X71541659Y-62531418D01*
X71541842Y-62531413D01*
X71544427Y-62532110D01*
G36*
X72028686Y-62019013D02*
G01*
X72033559Y-62020910D01*
X72040494Y-62023814D01*
X72048988Y-62027512D01*
X72058536Y-62031791D01*
X72060959Y-62032895D01*
X72146373Y-62070319D01*
X72232437Y-62104790D01*
X72319342Y-62136361D01*
X72407276Y-62165084D01*
X72496429Y-62191013D01*
X72586990Y-62214199D01*
X72679150Y-62234697D01*
X72773096Y-62252559D01*
X72869019Y-62267838D01*
X72932713Y-62276434D01*
X73012311Y-62285394D01*
X73094311Y-62292613D01*
X73178207Y-62298084D01*
X73263493Y-62301803D01*
X73349663Y-62303765D01*
X73436210Y-62303962D01*
X73522630Y-62302390D01*
X73608415Y-62299044D01*
X73693060Y-62293918D01*
X73776059Y-62287006D01*
X73788693Y-62285779D01*
X73887808Y-62274425D01*
X73985358Y-62260121D01*
X74081515Y-62242818D01*
X74176457Y-62222470D01*
X74270358Y-62199031D01*
X74363394Y-62172453D01*
X74455739Y-62142690D01*
X74547570Y-62109695D01*
X74639061Y-62073420D01*
X74728001Y-62034898D01*
X74740918Y-62029127D01*
X74751134Y-62024741D01*
X74759001Y-62021665D01*
X74764874Y-62019823D01*
X74769106Y-62019138D01*
X74772049Y-62019533D01*
X74774058Y-62020934D01*
X74775486Y-62023262D01*
X74776011Y-62024535D01*
X74776759Y-62026724D01*
X74777058Y-62028714D01*
X74776665Y-62030683D01*
X74775339Y-62032808D01*
X74772836Y-62035268D01*
X74768915Y-62038239D01*
X74763334Y-62041900D01*
X74755850Y-62046426D01*
X74746221Y-62051997D01*
X74734205Y-62058789D01*
X74719560Y-62066980D01*
X74713381Y-62070426D01*
X74631713Y-62114058D01*
X74548117Y-62154988D01*
X74462807Y-62193141D01*
X74375995Y-62228439D01*
X74287895Y-62260805D01*
X74198719Y-62290162D01*
X74108681Y-62316434D01*
X74017995Y-62339543D01*
X73926872Y-62359412D01*
X73896220Y-62365343D01*
X73820724Y-62378412D01*
X73745383Y-62389335D01*
X73670662Y-62398063D01*
X73597028Y-62404547D01*
X73524949Y-62408738D01*
X73466960Y-62410435D01*
X73453362Y-62410655D01*
X73440436Y-62410881D01*
X73428684Y-62411102D01*
X73418610Y-62411309D01*
X73410717Y-62411492D01*
X73405510Y-62411640D01*
X73404306Y-62411687D01*
X73400383Y-62411756D01*
X73393551Y-62411758D01*
X73384287Y-62411697D01*
X73373068Y-62411577D01*
X73360371Y-62411405D01*
X73346674Y-62411184D01*
X73337420Y-62411015D01*
X73249480Y-62407816D01*
X73161039Y-62401536D01*
X73071805Y-62392153D01*
X73016533Y-62384849D01*
X72921731Y-62369663D01*
X72827773Y-62351199D01*
X72734696Y-62329470D01*
X72642540Y-62304487D01*
X72551341Y-62276263D01*
X72461140Y-62244810D01*
X72371974Y-62210139D01*
X72283882Y-62172263D01*
X72196901Y-62131194D01*
X72175793Y-62120661D01*
X72160668Y-62112962D01*
X72144881Y-62104798D01*
X72128755Y-62096346D01*
X72112612Y-62087781D01*
X72096774Y-62079282D01*
X72081564Y-62071023D01*
X72067303Y-62063182D01*
X72054314Y-62055934D01*
X72042918Y-62049457D01*
X72033439Y-62043926D01*
X72026199Y-62039519D01*
X72021519Y-62036412D01*
X72020430Y-62035567D01*
X72017960Y-62031597D01*
X72017827Y-62026810D01*
X72019655Y-62022296D01*
X72023067Y-62019146D01*
X72026379Y-62018333D01*
X72028686Y-62019013D01*
X72028686Y-62019013D01*
G37*
X72028686Y-62019013D02*
X72033559Y-62020910D01*
X72040494Y-62023814D01*
X72048988Y-62027512D01*
X72058536Y-62031791D01*
X72060959Y-62032895D01*
X72146373Y-62070319D01*
X72232437Y-62104790D01*
X72319342Y-62136361D01*
X72407276Y-62165084D01*
X72496429Y-62191013D01*
X72586990Y-62214199D01*
X72679150Y-62234697D01*
X72773096Y-62252559D01*
X72869019Y-62267838D01*
X72932713Y-62276434D01*
X73012311Y-62285394D01*
X73094311Y-62292613D01*
X73178207Y-62298084D01*
X73263493Y-62301803D01*
X73349663Y-62303765D01*
X73436210Y-62303962D01*
X73522630Y-62302390D01*
X73608415Y-62299044D01*
X73693060Y-62293918D01*
X73776059Y-62287006D01*
X73788693Y-62285779D01*
X73887808Y-62274425D01*
X73985358Y-62260121D01*
X74081515Y-62242818D01*
X74176457Y-62222470D01*
X74270358Y-62199031D01*
X74363394Y-62172453D01*
X74455739Y-62142690D01*
X74547570Y-62109695D01*
X74639061Y-62073420D01*
X74728001Y-62034898D01*
X74740918Y-62029127D01*
X74751134Y-62024741D01*
X74759001Y-62021665D01*
X74764874Y-62019823D01*
X74769106Y-62019138D01*
X74772049Y-62019533D01*
X74774058Y-62020934D01*
X74775486Y-62023262D01*
X74776011Y-62024535D01*
X74776759Y-62026724D01*
X74777058Y-62028714D01*
X74776665Y-62030683D01*
X74775339Y-62032808D01*
X74772836Y-62035268D01*
X74768915Y-62038239D01*
X74763334Y-62041900D01*
X74755850Y-62046426D01*
X74746221Y-62051997D01*
X74734205Y-62058789D01*
X74719560Y-62066980D01*
X74713381Y-62070426D01*
X74631713Y-62114058D01*
X74548117Y-62154988D01*
X74462807Y-62193141D01*
X74375995Y-62228439D01*
X74287895Y-62260805D01*
X74198719Y-62290162D01*
X74108681Y-62316434D01*
X74017995Y-62339543D01*
X73926872Y-62359412D01*
X73896220Y-62365343D01*
X73820724Y-62378412D01*
X73745383Y-62389335D01*
X73670662Y-62398063D01*
X73597028Y-62404547D01*
X73524949Y-62408738D01*
X73466960Y-62410435D01*
X73453362Y-62410655D01*
X73440436Y-62410881D01*
X73428684Y-62411102D01*
X73418610Y-62411309D01*
X73410717Y-62411492D01*
X73405510Y-62411640D01*
X73404306Y-62411687D01*
X73400383Y-62411756D01*
X73393551Y-62411758D01*
X73384287Y-62411697D01*
X73373068Y-62411577D01*
X73360371Y-62411405D01*
X73346674Y-62411184D01*
X73337420Y-62411015D01*
X73249480Y-62407816D01*
X73161039Y-62401536D01*
X73071805Y-62392153D01*
X73016533Y-62384849D01*
X72921731Y-62369663D01*
X72827773Y-62351199D01*
X72734696Y-62329470D01*
X72642540Y-62304487D01*
X72551341Y-62276263D01*
X72461140Y-62244810D01*
X72371974Y-62210139D01*
X72283882Y-62172263D01*
X72196901Y-62131194D01*
X72175793Y-62120661D01*
X72160668Y-62112962D01*
X72144881Y-62104798D01*
X72128755Y-62096346D01*
X72112612Y-62087781D01*
X72096774Y-62079282D01*
X72081564Y-62071023D01*
X72067303Y-62063182D01*
X72054314Y-62055934D01*
X72042918Y-62049457D01*
X72033439Y-62043926D01*
X72026199Y-62039519D01*
X72021519Y-62036412D01*
X72020430Y-62035567D01*
X72017960Y-62031597D01*
X72017827Y-62026810D01*
X72019655Y-62022296D01*
X72023067Y-62019146D01*
X72026379Y-62018333D01*
X72028686Y-62019013D01*
G36*
X74370270Y-61577422D02*
G01*
X74373834Y-61580371D01*
X74375653Y-61584907D01*
X74375433Y-61588226D01*
X74373509Y-61590307D01*
X74368809Y-61593681D01*
X74361620Y-61598198D01*
X74352228Y-61603707D01*
X74340921Y-61610061D01*
X74327986Y-61617107D01*
X74313711Y-61624697D01*
X74298382Y-61632680D01*
X74282287Y-61640906D01*
X74265713Y-61649226D01*
X74248948Y-61657490D01*
X74232278Y-61665547D01*
X74215990Y-61673248D01*
X74200372Y-61680443D01*
X74189166Y-61685463D01*
X74118962Y-61714847D01*
X74047554Y-61741544D01*
X73975195Y-61765499D01*
X73902137Y-61786652D01*
X73828634Y-61804947D01*
X73754937Y-61820327D01*
X73681301Y-61832733D01*
X73607977Y-61842108D01*
X73535219Y-61848395D01*
X73463280Y-61851536D01*
X73458493Y-61851633D01*
X73445999Y-61851877D01*
X73434182Y-61852128D01*
X73423600Y-61852372D01*
X73414811Y-61852596D01*
X73408372Y-61852787D01*
X73405153Y-61852913D01*
X73401290Y-61852987D01*
X73394559Y-61852977D01*
X73385475Y-61852891D01*
X73374557Y-61852734D01*
X73362320Y-61852513D01*
X73349282Y-61852235D01*
X73346733Y-61852176D01*
X73267207Y-61848612D01*
X73187804Y-61841697D01*
X73108665Y-61831467D01*
X73029930Y-61817955D01*
X72951739Y-61801199D01*
X72874232Y-61781233D01*
X72797551Y-61758092D01*
X72721834Y-61731812D01*
X72647224Y-61702429D01*
X72573860Y-61669977D01*
X72520386Y-61643974D01*
X72504252Y-61635741D01*
X72488749Y-61627685D01*
X72474167Y-61619966D01*
X72460794Y-61612745D01*
X72448920Y-61606181D01*
X72438834Y-61600436D01*
X72430824Y-61595670D01*
X72425181Y-61592043D01*
X72422192Y-61589715D01*
X72421854Y-61589290D01*
X72421054Y-61584792D01*
X72422882Y-61580384D01*
X72425635Y-61578026D01*
X72427275Y-61577702D01*
X72430018Y-61578114D01*
X72434224Y-61579389D01*
X72440253Y-61581660D01*
X72448466Y-61585055D01*
X72459224Y-61589705D01*
X72464891Y-61592197D01*
X72538518Y-61623029D01*
X72613092Y-61650921D01*
X72688752Y-61675907D01*
X72765635Y-61698018D01*
X72843880Y-61717290D01*
X72923623Y-61733754D01*
X73005003Y-61747445D01*
X73088158Y-61758394D01*
X73173226Y-61766636D01*
X73197720Y-61768485D01*
X73249527Y-61771576D01*
X73303735Y-61773714D01*
X73359490Y-61774900D01*
X73415944Y-61775133D01*
X73472245Y-61774413D01*
X73527542Y-61772741D01*
X73580985Y-61770117D01*
X73605813Y-61768512D01*
X73689591Y-61761243D01*
X73771475Y-61751275D01*
X73851685Y-61738557D01*
X73930444Y-61723033D01*
X74007973Y-61704650D01*
X74084495Y-61683353D01*
X74160231Y-61659090D01*
X74235404Y-61631805D01*
X74310235Y-61601445D01*
X74332635Y-61591736D01*
X74343685Y-61586974D01*
X74353333Y-61583008D01*
X74361187Y-61579988D01*
X74366854Y-61578062D01*
X74369943Y-61577380D01*
X74370270Y-61577422D01*
X74370270Y-61577422D01*
G37*
X74370270Y-61577422D02*
X74373834Y-61580371D01*
X74375653Y-61584907D01*
X74375433Y-61588226D01*
X74373509Y-61590307D01*
X74368809Y-61593681D01*
X74361620Y-61598198D01*
X74352228Y-61603707D01*
X74340921Y-61610061D01*
X74327986Y-61617107D01*
X74313711Y-61624697D01*
X74298382Y-61632680D01*
X74282287Y-61640906D01*
X74265713Y-61649226D01*
X74248948Y-61657490D01*
X74232278Y-61665547D01*
X74215990Y-61673248D01*
X74200372Y-61680443D01*
X74189166Y-61685463D01*
X74118962Y-61714847D01*
X74047554Y-61741544D01*
X73975195Y-61765499D01*
X73902137Y-61786652D01*
X73828634Y-61804947D01*
X73754937Y-61820327D01*
X73681301Y-61832733D01*
X73607977Y-61842108D01*
X73535219Y-61848395D01*
X73463280Y-61851536D01*
X73458493Y-61851633D01*
X73445999Y-61851877D01*
X73434182Y-61852128D01*
X73423600Y-61852372D01*
X73414811Y-61852596D01*
X73408372Y-61852787D01*
X73405153Y-61852913D01*
X73401290Y-61852987D01*
X73394559Y-61852977D01*
X73385475Y-61852891D01*
X73374557Y-61852734D01*
X73362320Y-61852513D01*
X73349282Y-61852235D01*
X73346733Y-61852176D01*
X73267207Y-61848612D01*
X73187804Y-61841697D01*
X73108665Y-61831467D01*
X73029930Y-61817955D01*
X72951739Y-61801199D01*
X72874232Y-61781233D01*
X72797551Y-61758092D01*
X72721834Y-61731812D01*
X72647224Y-61702429D01*
X72573860Y-61669977D01*
X72520386Y-61643974D01*
X72504252Y-61635741D01*
X72488749Y-61627685D01*
X72474167Y-61619966D01*
X72460794Y-61612745D01*
X72448920Y-61606181D01*
X72438834Y-61600436D01*
X72430824Y-61595670D01*
X72425181Y-61592043D01*
X72422192Y-61589715D01*
X72421854Y-61589290D01*
X72421054Y-61584792D01*
X72422882Y-61580384D01*
X72425635Y-61578026D01*
X72427275Y-61577702D01*
X72430018Y-61578114D01*
X72434224Y-61579389D01*
X72440253Y-61581660D01*
X72448466Y-61585055D01*
X72459224Y-61589705D01*
X72464891Y-61592197D01*
X72538518Y-61623029D01*
X72613092Y-61650921D01*
X72688752Y-61675907D01*
X72765635Y-61698018D01*
X72843880Y-61717290D01*
X72923623Y-61733754D01*
X73005003Y-61747445D01*
X73088158Y-61758394D01*
X73173226Y-61766636D01*
X73197720Y-61768485D01*
X73249527Y-61771576D01*
X73303735Y-61773714D01*
X73359490Y-61774900D01*
X73415944Y-61775133D01*
X73472245Y-61774413D01*
X73527542Y-61772741D01*
X73580985Y-61770117D01*
X73605813Y-61768512D01*
X73689591Y-61761243D01*
X73771475Y-61751275D01*
X73851685Y-61738557D01*
X73930444Y-61723033D01*
X74007973Y-61704650D01*
X74084495Y-61683353D01*
X74160231Y-61659090D01*
X74235404Y-61631805D01*
X74310235Y-61601445D01*
X74332635Y-61591736D01*
X74343685Y-61586974D01*
X74353333Y-61583008D01*
X74361187Y-61579988D01*
X74366854Y-61578062D01*
X74369943Y-61577380D01*
X74370270Y-61577422D01*
D11*
G36*
X73422673Y-58039889D02*
G01*
X73443203Y-58039974D01*
X73461289Y-58040133D01*
X73477399Y-58040385D01*
X73492005Y-58040748D01*
X73505578Y-58041241D01*
X73518587Y-58041880D01*
X73531504Y-58042684D01*
X73544798Y-58043672D01*
X73558941Y-58044860D01*
X73574403Y-58046268D01*
X73579566Y-58046754D01*
X73660721Y-58056135D01*
X73741174Y-58068827D01*
X73820873Y-58084815D01*
X73899767Y-58104087D01*
X73977803Y-58126628D01*
X74054931Y-58152426D01*
X74131097Y-58181466D01*
X74186693Y-58204983D01*
X74200197Y-58211062D01*
X74215087Y-58217983D01*
X74231007Y-58225562D01*
X74247599Y-58233618D01*
X74264506Y-58241968D01*
X74281373Y-58250429D01*
X74297842Y-58258819D01*
X74313556Y-58266956D01*
X74328158Y-58274657D01*
X74341292Y-58281739D01*
X74352601Y-58288020D01*
X74361728Y-58293318D01*
X74368316Y-58297450D01*
X74370475Y-58298968D01*
X74373646Y-58302121D01*
X74374112Y-58305247D01*
X74373910Y-58306009D01*
X74371923Y-58309339D01*
X74370212Y-58310599D01*
X74367891Y-58310252D01*
X74363066Y-58308673D01*
X74356294Y-58306076D01*
X74348135Y-58302672D01*
X74341187Y-58299601D01*
X74269469Y-58268944D01*
X74195740Y-58240941D01*
X74120137Y-58215629D01*
X74042798Y-58193043D01*
X73963858Y-58173218D01*
X73883454Y-58156189D01*
X73801722Y-58141993D01*
X73718799Y-58130665D01*
X73670160Y-58125417D01*
X73636324Y-58122293D01*
X73603931Y-58119679D01*
X73572303Y-58117545D01*
X73540768Y-58115860D01*
X73508649Y-58114593D01*
X73475272Y-58113714D01*
X73439962Y-58113192D01*
X73402043Y-58112996D01*
X73396686Y-58112992D01*
X73340217Y-58113382D01*
X73286544Y-58114586D01*
X73235169Y-58116642D01*
X73185591Y-58119589D01*
X73137311Y-58123465D01*
X73089829Y-58128307D01*
X73042647Y-58134153D01*
X72995263Y-58141042D01*
X72966580Y-58145683D01*
X72895251Y-58158823D01*
X72825470Y-58174102D01*
X72756785Y-58191658D01*
X72688745Y-58211630D01*
X72620898Y-58234154D01*
X72552793Y-58259371D01*
X72483978Y-58287417D01*
X72438635Y-58307238D01*
X72433017Y-58309754D01*
X72429668Y-58311064D01*
X72427732Y-58311273D01*
X72426357Y-58310489D01*
X72424834Y-58308965D01*
X72422963Y-58306855D01*
X72422097Y-58304919D01*
X72422517Y-58302904D01*
X72424504Y-58300558D01*
X72428339Y-58297631D01*
X72434302Y-58293870D01*
X72442675Y-58289024D01*
X72453737Y-58282840D01*
X72454346Y-58282502D01*
X72525868Y-58244762D01*
X72598818Y-58210072D01*
X72673085Y-58178468D01*
X72748557Y-58149988D01*
X72825124Y-58124666D01*
X72902675Y-58102540D01*
X72981099Y-58083645D01*
X73060285Y-58068019D01*
X73140122Y-58055697D01*
X73150306Y-58054370D01*
X73174411Y-58051368D01*
X73196489Y-58048794D01*
X73217069Y-58046618D01*
X73236675Y-58044810D01*
X73255833Y-58043338D01*
X73275071Y-58042173D01*
X73294913Y-58041283D01*
X73315887Y-58040638D01*
X73338518Y-58040208D01*
X73363332Y-58039960D01*
X73390856Y-58039866D01*
X73399226Y-58039863D01*
X73422673Y-58039889D01*
X73422673Y-58039889D01*
G37*
X73422673Y-58039889D02*
X73443203Y-58039974D01*
X73461289Y-58040133D01*
X73477399Y-58040385D01*
X73492005Y-58040748D01*
X73505578Y-58041241D01*
X73518587Y-58041880D01*
X73531504Y-58042684D01*
X73544798Y-58043672D01*
X73558941Y-58044860D01*
X73574403Y-58046268D01*
X73579566Y-58046754D01*
X73660721Y-58056135D01*
X73741174Y-58068827D01*
X73820873Y-58084815D01*
X73899767Y-58104087D01*
X73977803Y-58126628D01*
X74054931Y-58152426D01*
X74131097Y-58181466D01*
X74186693Y-58204983D01*
X74200197Y-58211062D01*
X74215087Y-58217983D01*
X74231007Y-58225562D01*
X74247599Y-58233618D01*
X74264506Y-58241968D01*
X74281373Y-58250429D01*
X74297842Y-58258819D01*
X74313556Y-58266956D01*
X74328158Y-58274657D01*
X74341292Y-58281739D01*
X74352601Y-58288020D01*
X74361728Y-58293318D01*
X74368316Y-58297450D01*
X74370475Y-58298968D01*
X74373646Y-58302121D01*
X74374112Y-58305247D01*
X74373910Y-58306009D01*
X74371923Y-58309339D01*
X74370212Y-58310599D01*
X74367891Y-58310252D01*
X74363066Y-58308673D01*
X74356294Y-58306076D01*
X74348135Y-58302672D01*
X74341187Y-58299601D01*
X74269469Y-58268944D01*
X74195740Y-58240941D01*
X74120137Y-58215629D01*
X74042798Y-58193043D01*
X73963858Y-58173218D01*
X73883454Y-58156189D01*
X73801722Y-58141993D01*
X73718799Y-58130665D01*
X73670160Y-58125417D01*
X73636324Y-58122293D01*
X73603931Y-58119679D01*
X73572303Y-58117545D01*
X73540768Y-58115860D01*
X73508649Y-58114593D01*
X73475272Y-58113714D01*
X73439962Y-58113192D01*
X73402043Y-58112996D01*
X73396686Y-58112992D01*
X73340217Y-58113382D01*
X73286544Y-58114586D01*
X73235169Y-58116642D01*
X73185591Y-58119589D01*
X73137311Y-58123465D01*
X73089829Y-58128307D01*
X73042647Y-58134153D01*
X72995263Y-58141042D01*
X72966580Y-58145683D01*
X72895251Y-58158823D01*
X72825470Y-58174102D01*
X72756785Y-58191658D01*
X72688745Y-58211630D01*
X72620898Y-58234154D01*
X72552793Y-58259371D01*
X72483978Y-58287417D01*
X72438635Y-58307238D01*
X72433017Y-58309754D01*
X72429668Y-58311064D01*
X72427732Y-58311273D01*
X72426357Y-58310489D01*
X72424834Y-58308965D01*
X72422963Y-58306855D01*
X72422097Y-58304919D01*
X72422517Y-58302904D01*
X72424504Y-58300558D01*
X72428339Y-58297631D01*
X72434302Y-58293870D01*
X72442675Y-58289024D01*
X72453737Y-58282840D01*
X72454346Y-58282502D01*
X72525868Y-58244762D01*
X72598818Y-58210072D01*
X72673085Y-58178468D01*
X72748557Y-58149988D01*
X72825124Y-58124666D01*
X72902675Y-58102540D01*
X72981099Y-58083645D01*
X73060285Y-58068019D01*
X73140122Y-58055697D01*
X73150306Y-58054370D01*
X73174411Y-58051368D01*
X73196489Y-58048794D01*
X73217069Y-58046618D01*
X73236675Y-58044810D01*
X73255833Y-58043338D01*
X73275071Y-58042173D01*
X73294913Y-58041283D01*
X73315887Y-58040638D01*
X73338518Y-58040208D01*
X73363332Y-58039960D01*
X73390856Y-58039866D01*
X73399226Y-58039863D01*
X73422673Y-58039889D01*
G36*
X73428647Y-57479435D02*
G01*
X73452604Y-57479532D01*
X73474098Y-57479710D01*
X73493590Y-57479987D01*
X73511542Y-57480382D01*
X73528416Y-57480914D01*
X73544674Y-57481603D01*
X73560777Y-57482467D01*
X73577186Y-57483525D01*
X73594365Y-57484797D01*
X73612773Y-57486300D01*
X73632873Y-57488055D01*
X73649840Y-57489593D01*
X73743893Y-57499917D01*
X73837555Y-57513583D01*
X73930721Y-57530560D01*
X74023289Y-57550815D01*
X74115154Y-57574316D01*
X74206215Y-57601032D01*
X74296367Y-57630930D01*
X74385507Y-57663978D01*
X74473533Y-57700145D01*
X74560342Y-57739399D01*
X74645829Y-57781706D01*
X74719180Y-57821047D01*
X74734122Y-57829382D01*
X74746356Y-57836279D01*
X74756152Y-57841911D01*
X74763778Y-57846456D01*
X74769504Y-57850088D01*
X74773598Y-57852984D01*
X74776330Y-57855318D01*
X74777969Y-57857268D01*
X74778784Y-57859007D01*
X74778996Y-57860079D01*
X74778289Y-57865077D01*
X74775558Y-57869185D01*
X74771630Y-57871280D01*
X74770690Y-57871360D01*
X74768240Y-57870669D01*
X74763288Y-57868752D01*
X74756385Y-57865841D01*
X74748085Y-57862168D01*
X74740049Y-57858484D01*
X74655585Y-57820963D01*
X74569135Y-57786150D01*
X74480770Y-57754065D01*
X74390559Y-57724725D01*
X74298574Y-57698147D01*
X74204885Y-57674351D01*
X74109563Y-57653354D01*
X74012677Y-57635174D01*
X73914299Y-57619830D01*
X73814499Y-57607339D01*
X73726886Y-57598833D01*
X73694293Y-57596195D01*
X73663203Y-57593917D01*
X73633088Y-57591979D01*
X73603418Y-57590360D01*
X73573665Y-57589041D01*
X73543298Y-57588000D01*
X73511789Y-57587218D01*
X73478608Y-57586675D01*
X73443226Y-57586351D01*
X73405113Y-57586225D01*
X73395840Y-57586222D01*
X73348463Y-57586390D01*
X73303936Y-57586891D01*
X73261734Y-57587752D01*
X73221334Y-57588995D01*
X73182213Y-57590645D01*
X73143846Y-57592727D01*
X73105711Y-57595265D01*
X73067284Y-57598284D01*
X73028041Y-57601807D01*
X72997906Y-57604781D01*
X72897149Y-57616715D01*
X72797603Y-57631809D01*
X72699238Y-57650069D01*
X72602022Y-57671506D01*
X72505925Y-57696126D01*
X72410916Y-57723939D01*
X72316964Y-57754953D01*
X72224038Y-57789175D01*
X72132108Y-57826616D01*
X72058240Y-57859358D01*
X72049422Y-57863337D01*
X72041531Y-57866759D01*
X72035140Y-57869386D01*
X72030820Y-57870982D01*
X72029293Y-57871360D01*
X72026003Y-57870180D01*
X72023655Y-57868263D01*
X72021248Y-57863537D01*
X72021288Y-57858339D01*
X72023759Y-57854080D01*
X72023816Y-57854029D01*
X72026129Y-57852439D01*
X72030915Y-57849478D01*
X72037693Y-57845431D01*
X72045983Y-57840583D01*
X72055306Y-57835220D01*
X72058602Y-57833343D01*
X72143022Y-57787341D01*
X72228862Y-57744395D01*
X72316043Y-57704535D01*
X72404487Y-57667793D01*
X72494114Y-57634199D01*
X72584847Y-57603784D01*
X72676607Y-57576580D01*
X72769314Y-57552617D01*
X72781343Y-57549762D01*
X72874565Y-57529565D01*
X72968071Y-57512702D01*
X73061758Y-57499189D01*
X73155528Y-57489041D01*
X73188406Y-57486282D01*
X73206351Y-57484910D01*
X73222497Y-57483730D01*
X73237284Y-57482729D01*
X73251151Y-57481891D01*
X73264537Y-57481204D01*
X73277882Y-57480652D01*
X73291624Y-57480222D01*
X73306204Y-57479899D01*
X73322061Y-57479670D01*
X73339634Y-57479520D01*
X73359362Y-57479434D01*
X73381685Y-57479400D01*
X73401766Y-57479399D01*
X73428647Y-57479435D01*
X73428647Y-57479435D01*
G37*
X73428647Y-57479435D02*
X73452604Y-57479532D01*
X73474098Y-57479710D01*
X73493590Y-57479987D01*
X73511542Y-57480382D01*
X73528416Y-57480914D01*
X73544674Y-57481603D01*
X73560777Y-57482467D01*
X73577186Y-57483525D01*
X73594365Y-57484797D01*
X73612773Y-57486300D01*
X73632873Y-57488055D01*
X73649840Y-57489593D01*
X73743893Y-57499917D01*
X73837555Y-57513583D01*
X73930721Y-57530560D01*
X74023289Y-57550815D01*
X74115154Y-57574316D01*
X74206215Y-57601032D01*
X74296367Y-57630930D01*
X74385507Y-57663978D01*
X74473533Y-57700145D01*
X74560342Y-57739399D01*
X74645829Y-57781706D01*
X74719180Y-57821047D01*
X74734122Y-57829382D01*
X74746356Y-57836279D01*
X74756152Y-57841911D01*
X74763778Y-57846456D01*
X74769504Y-57850088D01*
X74773598Y-57852984D01*
X74776330Y-57855318D01*
X74777969Y-57857268D01*
X74778784Y-57859007D01*
X74778996Y-57860079D01*
X74778289Y-57865077D01*
X74775558Y-57869185D01*
X74771630Y-57871280D01*
X74770690Y-57871360D01*
X74768240Y-57870669D01*
X74763288Y-57868752D01*
X74756385Y-57865841D01*
X74748085Y-57862168D01*
X74740049Y-57858484D01*
X74655585Y-57820963D01*
X74569135Y-57786150D01*
X74480770Y-57754065D01*
X74390559Y-57724725D01*
X74298574Y-57698147D01*
X74204885Y-57674351D01*
X74109563Y-57653354D01*
X74012677Y-57635174D01*
X73914299Y-57619830D01*
X73814499Y-57607339D01*
X73726886Y-57598833D01*
X73694293Y-57596195D01*
X73663203Y-57593917D01*
X73633088Y-57591979D01*
X73603418Y-57590360D01*
X73573665Y-57589041D01*
X73543298Y-57588000D01*
X73511789Y-57587218D01*
X73478608Y-57586675D01*
X73443226Y-57586351D01*
X73405113Y-57586225D01*
X73395840Y-57586222D01*
X73348463Y-57586390D01*
X73303936Y-57586891D01*
X73261734Y-57587752D01*
X73221334Y-57588995D01*
X73182213Y-57590645D01*
X73143846Y-57592727D01*
X73105711Y-57595265D01*
X73067284Y-57598284D01*
X73028041Y-57601807D01*
X72997906Y-57604781D01*
X72897149Y-57616715D01*
X72797603Y-57631809D01*
X72699238Y-57650069D01*
X72602022Y-57671506D01*
X72505925Y-57696126D01*
X72410916Y-57723939D01*
X72316964Y-57754953D01*
X72224038Y-57789175D01*
X72132108Y-57826616D01*
X72058240Y-57859358D01*
X72049422Y-57863337D01*
X72041531Y-57866759D01*
X72035140Y-57869386D01*
X72030820Y-57870982D01*
X72029293Y-57871360D01*
X72026003Y-57870180D01*
X72023655Y-57868263D01*
X72021248Y-57863537D01*
X72021288Y-57858339D01*
X72023759Y-57854080D01*
X72023816Y-57854029D01*
X72026129Y-57852439D01*
X72030915Y-57849478D01*
X72037693Y-57845431D01*
X72045983Y-57840583D01*
X72055306Y-57835220D01*
X72058602Y-57833343D01*
X72143022Y-57787341D01*
X72228862Y-57744395D01*
X72316043Y-57704535D01*
X72404487Y-57667793D01*
X72494114Y-57634199D01*
X72584847Y-57603784D01*
X72676607Y-57576580D01*
X72769314Y-57552617D01*
X72781343Y-57549762D01*
X72874565Y-57529565D01*
X72968071Y-57512702D01*
X73061758Y-57499189D01*
X73155528Y-57489041D01*
X73188406Y-57486282D01*
X73206351Y-57484910D01*
X73222497Y-57483730D01*
X73237284Y-57482729D01*
X73251151Y-57481891D01*
X73264537Y-57481204D01*
X73277882Y-57480652D01*
X73291624Y-57480222D01*
X73306204Y-57479899D01*
X73322061Y-57479670D01*
X73339634Y-57479520D01*
X73359362Y-57479434D01*
X73381685Y-57479400D01*
X73401766Y-57479399D01*
X73428647Y-57479435D01*
G36*
X73456668Y-56820381D02*
G01*
X73566617Y-56823841D01*
X73676641Y-56830651D01*
X73786672Y-56840827D01*
X73839493Y-56846914D01*
X73949058Y-56862053D01*
X74058027Y-56880512D01*
X74166323Y-56902265D01*
X74273868Y-56927286D01*
X74380582Y-56955548D01*
X74486389Y-56987024D01*
X74591210Y-57021688D01*
X74694966Y-57059514D01*
X74797580Y-57100475D01*
X74898973Y-57144544D01*
X74999067Y-57191695D01*
X75097783Y-57241901D01*
X75195045Y-57295137D01*
X75242039Y-57322255D01*
X75249814Y-57326958D01*
X75256582Y-57331310D01*
X75261775Y-57334928D01*
X75264823Y-57337425D01*
X75265322Y-57338039D01*
X75266820Y-57344026D01*
X75265470Y-57349901D01*
X75261709Y-57354729D01*
X75256173Y-57357532D01*
X75253727Y-57357364D01*
X75249278Y-57356037D01*
X75242606Y-57353465D01*
X75233492Y-57349560D01*
X75221717Y-57344232D01*
X75213755Y-57340538D01*
X75112135Y-57294896D01*
X75009050Y-57252246D01*
X74904484Y-57212584D01*
X74798419Y-57175905D01*
X74690838Y-57142207D01*
X74581723Y-57111484D01*
X74471058Y-57083732D01*
X74358824Y-57058947D01*
X74245006Y-57037125D01*
X74129585Y-57018262D01*
X74012544Y-57002354D01*
X73893866Y-56989396D01*
X73773535Y-56979384D01*
X73701486Y-56974843D01*
X73680964Y-56973714D01*
X73662151Y-56972715D01*
X73644699Y-56971838D01*
X73628259Y-56971075D01*
X73612485Y-56970418D01*
X73597028Y-56969859D01*
X73581539Y-56969391D01*
X73565672Y-56969006D01*
X73549077Y-56968696D01*
X73531407Y-56968454D01*
X73512313Y-56968270D01*
X73491448Y-56968139D01*
X73468463Y-56968051D01*
X73443011Y-56967999D01*
X73414743Y-56967975D01*
X73394993Y-56967971D01*
X73363925Y-56967982D01*
X73335893Y-56968020D01*
X73310550Y-56968094D01*
X73287545Y-56968211D01*
X73266530Y-56968379D01*
X73247153Y-56968606D01*
X73229067Y-56968898D01*
X73211922Y-56969265D01*
X73195369Y-56969713D01*
X73179057Y-56970250D01*
X73162638Y-56970885D01*
X73145762Y-56971623D01*
X73128081Y-56972475D01*
X73109243Y-56973446D01*
X73088901Y-56974544D01*
X73084266Y-56974800D01*
X72969907Y-56982431D01*
X72857668Y-56992595D01*
X72747372Y-57005333D01*
X72638842Y-57020688D01*
X72531901Y-57038705D01*
X72426371Y-57059425D01*
X72322077Y-57082892D01*
X72218840Y-57109149D01*
X72116484Y-57138239D01*
X72014832Y-57170206D01*
X71913707Y-57205091D01*
X71812931Y-57242939D01*
X71712327Y-57283792D01*
X71611720Y-57327693D01*
X71586846Y-57339012D01*
X71575718Y-57344082D01*
X71565549Y-57348649D01*
X71556759Y-57352530D01*
X71549765Y-57355542D01*
X71544988Y-57357502D01*
X71542846Y-57358227D01*
X71542819Y-57358228D01*
X71539811Y-57357396D01*
X71537406Y-57356234D01*
X71532193Y-57351662D01*
X71529882Y-57345935D01*
X71530682Y-57339691D01*
X71531468Y-57337981D01*
X71533372Y-57336253D01*
X71537780Y-57333139D01*
X71544251Y-57328925D01*
X71552343Y-57323895D01*
X71561613Y-57318332D01*
X71566605Y-57315408D01*
X71663765Y-57260910D01*
X71762205Y-57209513D01*
X71861858Y-57161233D01*
X71962658Y-57116083D01*
X72064536Y-57074077D01*
X72167427Y-57035228D01*
X72271263Y-56999552D01*
X72375977Y-56967060D01*
X72481502Y-56937768D01*
X72587771Y-56911689D01*
X72694717Y-56888836D01*
X72802274Y-56869225D01*
X72910373Y-56852867D01*
X73018948Y-56839778D01*
X73127932Y-56829972D01*
X73237258Y-56823460D01*
X73346859Y-56820259D01*
X73456668Y-56820381D01*
X73456668Y-56820381D01*
G37*
X73456668Y-56820381D02*
X73566617Y-56823841D01*
X73676641Y-56830651D01*
X73786672Y-56840827D01*
X73839493Y-56846914D01*
X73949058Y-56862053D01*
X74058027Y-56880512D01*
X74166323Y-56902265D01*
X74273868Y-56927286D01*
X74380582Y-56955548D01*
X74486389Y-56987024D01*
X74591210Y-57021688D01*
X74694966Y-57059514D01*
X74797580Y-57100475D01*
X74898973Y-57144544D01*
X74999067Y-57191695D01*
X75097783Y-57241901D01*
X75195045Y-57295137D01*
X75242039Y-57322255D01*
X75249814Y-57326958D01*
X75256582Y-57331310D01*
X75261775Y-57334928D01*
X75264823Y-57337425D01*
X75265322Y-57338039D01*
X75266820Y-57344026D01*
X75265470Y-57349901D01*
X75261709Y-57354729D01*
X75256173Y-57357532D01*
X75253727Y-57357364D01*
X75249278Y-57356037D01*
X75242606Y-57353465D01*
X75233492Y-57349560D01*
X75221717Y-57344232D01*
X75213755Y-57340538D01*
X75112135Y-57294896D01*
X75009050Y-57252246D01*
X74904484Y-57212584D01*
X74798419Y-57175905D01*
X74690838Y-57142207D01*
X74581723Y-57111484D01*
X74471058Y-57083732D01*
X74358824Y-57058947D01*
X74245006Y-57037125D01*
X74129585Y-57018262D01*
X74012544Y-57002354D01*
X73893866Y-56989396D01*
X73773535Y-56979384D01*
X73701486Y-56974843D01*
X73680964Y-56973714D01*
X73662151Y-56972715D01*
X73644699Y-56971838D01*
X73628259Y-56971075D01*
X73612485Y-56970418D01*
X73597028Y-56969859D01*
X73581539Y-56969391D01*
X73565672Y-56969006D01*
X73549077Y-56968696D01*
X73531407Y-56968454D01*
X73512313Y-56968270D01*
X73491448Y-56968139D01*
X73468463Y-56968051D01*
X73443011Y-56967999D01*
X73414743Y-56967975D01*
X73394993Y-56967971D01*
X73363925Y-56967982D01*
X73335893Y-56968020D01*
X73310550Y-56968094D01*
X73287545Y-56968211D01*
X73266530Y-56968379D01*
X73247153Y-56968606D01*
X73229067Y-56968898D01*
X73211922Y-56969265D01*
X73195369Y-56969713D01*
X73179057Y-56970250D01*
X73162638Y-56970885D01*
X73145762Y-56971623D01*
X73128081Y-56972475D01*
X73109243Y-56973446D01*
X73088901Y-56974544D01*
X73084266Y-56974800D01*
X72969907Y-56982431D01*
X72857668Y-56992595D01*
X72747372Y-57005333D01*
X72638842Y-57020688D01*
X72531901Y-57038705D01*
X72426371Y-57059425D01*
X72322077Y-57082892D01*
X72218840Y-57109149D01*
X72116484Y-57138239D01*
X72014832Y-57170206D01*
X71913707Y-57205091D01*
X71812931Y-57242939D01*
X71712327Y-57283792D01*
X71611720Y-57327693D01*
X71586846Y-57339012D01*
X71575718Y-57344082D01*
X71565549Y-57348649D01*
X71556759Y-57352530D01*
X71549765Y-57355542D01*
X71544988Y-57357502D01*
X71542846Y-57358227D01*
X71542819Y-57358228D01*
X71539811Y-57357396D01*
X71537406Y-57356234D01*
X71532193Y-57351662D01*
X71529882Y-57345935D01*
X71530682Y-57339691D01*
X71531468Y-57337981D01*
X71533372Y-57336253D01*
X71537780Y-57333139D01*
X71544251Y-57328925D01*
X71552343Y-57323895D01*
X71561613Y-57318332D01*
X71566605Y-57315408D01*
X71663765Y-57260910D01*
X71762205Y-57209513D01*
X71861858Y-57161233D01*
X71962658Y-57116083D01*
X72064536Y-57074077D01*
X72167427Y-57035228D01*
X72271263Y-56999552D01*
X72375977Y-56967060D01*
X72481502Y-56937768D01*
X72587771Y-56911689D01*
X72694717Y-56888836D01*
X72802274Y-56869225D01*
X72910373Y-56852867D01*
X73018948Y-56839778D01*
X73127932Y-56829972D01*
X73237258Y-56823460D01*
X73346859Y-56820259D01*
X73456668Y-56820381D01*
D12*
G36*
X120275880Y-90754376D02*
G01*
X120656593Y-90830104D01*
X121066249Y-90999789D01*
X121434929Y-91246134D01*
X121748466Y-91559671D01*
X121994811Y-91928351D01*
X122164496Y-92338007D01*
X122251000Y-92772896D01*
X122251000Y-93216304D01*
X122164496Y-93651193D01*
X121994811Y-94060849D01*
X121748466Y-94429529D01*
X121434929Y-94743066D01*
X121066249Y-94989411D01*
X120656593Y-95159096D01*
X120275880Y-95234824D01*
X120221705Y-95245600D01*
X119778295Y-95245600D01*
X119724120Y-95234824D01*
X119343407Y-95159096D01*
X118933751Y-94989411D01*
X118565071Y-94743066D01*
X118251534Y-94429529D01*
X118005189Y-94060849D01*
X117835504Y-93651193D01*
X117749000Y-93216304D01*
X117749000Y-92772896D01*
X117835504Y-92338007D01*
X118005189Y-91928351D01*
X118251534Y-91559671D01*
X118565071Y-91246134D01*
X118933751Y-90999789D01*
X119343407Y-90830104D01*
X119724120Y-90754376D01*
X119778295Y-90743600D01*
X120221705Y-90743600D01*
X120275880Y-90754376D01*
X120275880Y-90754376D01*
G37*
G36*
X61275880Y-90754376D02*
G01*
X61656593Y-90830104D01*
X62066249Y-90999789D01*
X62434929Y-91246134D01*
X62748466Y-91559671D01*
X62994811Y-91928351D01*
X63164496Y-92338007D01*
X63251000Y-92772896D01*
X63251000Y-93216304D01*
X63164496Y-93651193D01*
X62994811Y-94060849D01*
X62748466Y-94429529D01*
X62434929Y-94743066D01*
X62066249Y-94989411D01*
X61656593Y-95159096D01*
X61275880Y-95234824D01*
X61221705Y-95245600D01*
X60778295Y-95245600D01*
X60724120Y-95234824D01*
X60343407Y-95159096D01*
X59933751Y-94989411D01*
X59565071Y-94743066D01*
X59251534Y-94429529D01*
X59005189Y-94060849D01*
X58835504Y-93651193D01*
X58749000Y-93216304D01*
X58749000Y-92772896D01*
X58835504Y-92338007D01*
X59005189Y-91928351D01*
X59251534Y-91559671D01*
X59565071Y-91246134D01*
X59933751Y-90999789D01*
X60343407Y-90830104D01*
X60724120Y-90754376D01*
X60778295Y-90743600D01*
X61221705Y-90743600D01*
X61275880Y-90754376D01*
X61275880Y-90754376D01*
G37*
G36*
X102151000Y-90205000D02*
G01*
X81999000Y-90205000D01*
X81999000Y-88103000D01*
X102151000Y-88103000D01*
X102151000Y-90205000D01*
X102151000Y-90205000D01*
G37*
G36*
X77745880Y-82170776D02*
G01*
X78126593Y-82246504D01*
X78536249Y-82416189D01*
X78904929Y-82662534D01*
X79218466Y-82976071D01*
X79464811Y-83344751D01*
X79634496Y-83754407D01*
X79721000Y-84189296D01*
X79721000Y-84632704D01*
X79634496Y-85067593D01*
X79464811Y-85477249D01*
X79218466Y-85845929D01*
X78904929Y-86159466D01*
X78536249Y-86405811D01*
X78126593Y-86575496D01*
X77745880Y-86651224D01*
X77691705Y-86662000D01*
X77248295Y-86662000D01*
X77194120Y-86651224D01*
X76813407Y-86575496D01*
X76403751Y-86405811D01*
X76035071Y-86159466D01*
X75721534Y-85845929D01*
X75475189Y-85477249D01*
X75305504Y-85067593D01*
X75219000Y-84632704D01*
X75219000Y-84189296D01*
X75305504Y-83754407D01*
X75475189Y-83344751D01*
X75721534Y-82976071D01*
X76035071Y-82662534D01*
X76403751Y-82416189D01*
X76813407Y-82246504D01*
X77194120Y-82170776D01*
X77248295Y-82160000D01*
X77691705Y-82160000D01*
X77745880Y-82170776D01*
X77745880Y-82170776D01*
G37*
G36*
X123452321Y-84213874D02*
G01*
X123552595Y-84255409D01*
X123552596Y-84255410D01*
X123642842Y-84315710D01*
X123719590Y-84392458D01*
X123719591Y-84392460D01*
X123779891Y-84482705D01*
X123821426Y-84582979D01*
X123842600Y-84689430D01*
X123842600Y-84797970D01*
X123821426Y-84904421D01*
X123779891Y-85004695D01*
X123779890Y-85004696D01*
X123719590Y-85094942D01*
X123642842Y-85171690D01*
X123635305Y-85176726D01*
X123552595Y-85231991D01*
X123452321Y-85273526D01*
X123345870Y-85294700D01*
X123237330Y-85294700D01*
X123130879Y-85273526D01*
X123030605Y-85231991D01*
X122947895Y-85176726D01*
X122940358Y-85171690D01*
X122863610Y-85094942D01*
X122803310Y-85004696D01*
X122803309Y-85004695D01*
X122761774Y-84904421D01*
X122740600Y-84797970D01*
X122740600Y-84689430D01*
X122761774Y-84582979D01*
X122803309Y-84482705D01*
X122863609Y-84392460D01*
X122863610Y-84392458D01*
X122940358Y-84315710D01*
X123030604Y-84255410D01*
X123030605Y-84255409D01*
X123130879Y-84213874D01*
X123237330Y-84192700D01*
X123345870Y-84192700D01*
X123452321Y-84213874D01*
X123452321Y-84213874D01*
G37*
G36*
X123516321Y-82159374D02*
G01*
X123616595Y-82200909D01*
X123616596Y-82200910D01*
X123706842Y-82261210D01*
X123783590Y-82337958D01*
X123783591Y-82337960D01*
X123843891Y-82428205D01*
X123885426Y-82528479D01*
X123906600Y-82634930D01*
X123906600Y-82743470D01*
X123885426Y-82849921D01*
X123843891Y-82950195D01*
X123843890Y-82950196D01*
X123783590Y-83040442D01*
X123706842Y-83117190D01*
X123662841Y-83146590D01*
X123616595Y-83177491D01*
X123516321Y-83219026D01*
X123409870Y-83240200D01*
X123301330Y-83240200D01*
X123194879Y-83219026D01*
X123094605Y-83177491D01*
X123048359Y-83146590D01*
X123004358Y-83117190D01*
X122927610Y-83040442D01*
X122867310Y-82950196D01*
X122867309Y-82950195D01*
X122825774Y-82849921D01*
X122804600Y-82743470D01*
X122804600Y-82634930D01*
X122825774Y-82528479D01*
X122867309Y-82428205D01*
X122927609Y-82337960D01*
X122927610Y-82337958D01*
X123004358Y-82261210D01*
X123094604Y-82200910D01*
X123094605Y-82200909D01*
X123194879Y-82159374D01*
X123301330Y-82138200D01*
X123409870Y-82138200D01*
X123516321Y-82159374D01*
X123516321Y-82159374D01*
G37*
G36*
X69134259Y-71445165D02*
G01*
X69138933Y-71446583D01*
X69143235Y-71448882D01*
X69151774Y-71455890D01*
X69355936Y-71660052D01*
X69362944Y-71668591D01*
X69365243Y-71672893D01*
X69366661Y-71677567D01*
X69367469Y-71685769D01*
X69372251Y-71709802D01*
X69381629Y-71732441D01*
X69395243Y-71752815D01*
X69412571Y-71770141D01*
X69432945Y-71783754D01*
X69455584Y-71793131D01*
X69479610Y-71797910D01*
X69487812Y-71798718D01*
X69492486Y-71800136D01*
X69496788Y-71802435D01*
X69505327Y-71809443D01*
X69709489Y-72013605D01*
X69716497Y-72022144D01*
X69718796Y-72026446D01*
X69720214Y-72031120D01*
X69721022Y-72039322D01*
X69725803Y-72063356D01*
X69735181Y-72085994D01*
X69748796Y-72106368D01*
X69766123Y-72123695D01*
X69786498Y-72137308D01*
X69809137Y-72146685D01*
X69833164Y-72151464D01*
X69841366Y-72152272D01*
X69846040Y-72153690D01*
X69850342Y-72155989D01*
X69858881Y-72162997D01*
X70063043Y-72367159D01*
X70070051Y-72375698D01*
X70072350Y-72380000D01*
X70073768Y-72384674D01*
X70074576Y-72392876D01*
X70079358Y-72416909D01*
X70088736Y-72439548D01*
X70102350Y-72459922D01*
X70119678Y-72477248D01*
X70140052Y-72490861D01*
X70162691Y-72500238D01*
X70186717Y-72505017D01*
X70194919Y-72505825D01*
X70199593Y-72507243D01*
X70203895Y-72509542D01*
X70212434Y-72516550D01*
X70416596Y-72720712D01*
X70423604Y-72729251D01*
X70425903Y-72733553D01*
X70427321Y-72738227D01*
X70428129Y-72746429D01*
X70432910Y-72770463D01*
X70442288Y-72793101D01*
X70455903Y-72813475D01*
X70473230Y-72830802D01*
X70493605Y-72844415D01*
X70516244Y-72853792D01*
X70540270Y-72858571D01*
X70548472Y-72859379D01*
X70553146Y-72860797D01*
X70557448Y-72863096D01*
X70565987Y-72870104D01*
X70770149Y-73074266D01*
X70777157Y-73082805D01*
X70779456Y-73087107D01*
X70780874Y-73091781D01*
X70781682Y-73099983D01*
X70786464Y-73124016D01*
X70795842Y-73146655D01*
X70809456Y-73167029D01*
X70826784Y-73184355D01*
X70847158Y-73197968D01*
X70869797Y-73207345D01*
X70893824Y-73212124D01*
X70902026Y-73212932D01*
X70906700Y-73214350D01*
X70911002Y-73216649D01*
X70919541Y-73223657D01*
X71123703Y-73427819D01*
X71130711Y-73436358D01*
X71133010Y-73440660D01*
X71134428Y-73445334D01*
X71135236Y-73453536D01*
X71140018Y-73477569D01*
X71149396Y-73500208D01*
X71163010Y-73520582D01*
X71180338Y-73537908D01*
X71200712Y-73551521D01*
X71223351Y-73560898D01*
X71247377Y-73565677D01*
X71255579Y-73566485D01*
X71260253Y-73567903D01*
X71264555Y-73570202D01*
X71273094Y-73577210D01*
X71477256Y-73781372D01*
X71484264Y-73789911D01*
X71486563Y-73794213D01*
X71487981Y-73798887D01*
X71488789Y-73807089D01*
X71493570Y-73831123D01*
X71502948Y-73853761D01*
X71516563Y-73874135D01*
X71533890Y-73891462D01*
X71554265Y-73905075D01*
X71576904Y-73914452D01*
X71600930Y-73919231D01*
X71609132Y-73920039D01*
X71613806Y-73921457D01*
X71618108Y-73923756D01*
X71626647Y-73930764D01*
X71830809Y-74134926D01*
X71837817Y-74143465D01*
X71840116Y-74147767D01*
X71841534Y-74152441D01*
X71842342Y-74160643D01*
X71847124Y-74184676D01*
X71856502Y-74207315D01*
X71870116Y-74227689D01*
X71887444Y-74245015D01*
X71907818Y-74258628D01*
X71930457Y-74268005D01*
X71954484Y-74272784D01*
X71962686Y-74273592D01*
X71967360Y-74275010D01*
X71971662Y-74277309D01*
X71980201Y-74284317D01*
X72184363Y-74488479D01*
X72191371Y-74497018D01*
X72193670Y-74501320D01*
X72195088Y-74505994D01*
X72195896Y-74514196D01*
X72200678Y-74538229D01*
X72210056Y-74560868D01*
X72223670Y-74581242D01*
X72240998Y-74598568D01*
X72261372Y-74612181D01*
X72284011Y-74621558D01*
X72308037Y-74626337D01*
X72316239Y-74627145D01*
X72320913Y-74628563D01*
X72325215Y-74630862D01*
X72333754Y-74637870D01*
X72537916Y-74842032D01*
X72544924Y-74850571D01*
X72547223Y-74854873D01*
X72548641Y-74859547D01*
X72549449Y-74867749D01*
X72554230Y-74891783D01*
X72563608Y-74914421D01*
X72577223Y-74934795D01*
X72594550Y-74952122D01*
X72614925Y-74965735D01*
X72637564Y-74975112D01*
X72661591Y-74979891D01*
X72669793Y-74980699D01*
X72674467Y-74982117D01*
X72678769Y-74984416D01*
X72687308Y-74991424D01*
X72891470Y-75195586D01*
X72898478Y-75204125D01*
X72900777Y-75208427D01*
X72902195Y-75213101D01*
X72903003Y-75221303D01*
X72907785Y-75245336D01*
X72917163Y-75267975D01*
X72930777Y-75288349D01*
X72948105Y-75305675D01*
X72968479Y-75319288D01*
X72991118Y-75328665D01*
X73015144Y-75333444D01*
X73023346Y-75334252D01*
X73028020Y-75335670D01*
X73032322Y-75337969D01*
X73040861Y-75344977D01*
X73245023Y-75549139D01*
X73252031Y-75557678D01*
X73254330Y-75561980D01*
X73255748Y-75566654D01*
X73256226Y-75571509D01*
X73255748Y-75576364D01*
X73254330Y-75581038D01*
X73252031Y-75585340D01*
X73245023Y-75593879D01*
X72666352Y-76172550D01*
X72650807Y-76191492D01*
X72639256Y-76213103D01*
X72632143Y-76236552D01*
X72629741Y-76260938D01*
X72632143Y-76285324D01*
X72639256Y-76308773D01*
X72650807Y-76330384D01*
X72666352Y-76349326D01*
X73245023Y-76927997D01*
X73252031Y-76936536D01*
X73254330Y-76940838D01*
X73255748Y-76945512D01*
X73256226Y-76950367D01*
X73255748Y-76955222D01*
X73254330Y-76959896D01*
X73252031Y-76964198D01*
X73245023Y-76972737D01*
X73040861Y-77176899D01*
X73032322Y-77183907D01*
X73028020Y-77186206D01*
X73023346Y-77187624D01*
X73015144Y-77188432D01*
X72991111Y-77193214D01*
X72968472Y-77202592D01*
X72948098Y-77216206D01*
X72930772Y-77233534D01*
X72917159Y-77253908D01*
X72907782Y-77276547D01*
X72903003Y-77300573D01*
X72902195Y-77308775D01*
X72900777Y-77313449D01*
X72898478Y-77317751D01*
X72891470Y-77326290D01*
X72687308Y-77530452D01*
X72678769Y-77537460D01*
X72674467Y-77539759D01*
X72669793Y-77541177D01*
X72661591Y-77541985D01*
X72637557Y-77546766D01*
X72614919Y-77556144D01*
X72594545Y-77569759D01*
X72577218Y-77587086D01*
X72563605Y-77607461D01*
X72554228Y-77630100D01*
X72549449Y-77654127D01*
X72548641Y-77662329D01*
X72547223Y-77667003D01*
X72544924Y-77671305D01*
X72537916Y-77679844D01*
X72333754Y-77884006D01*
X72325215Y-77891014D01*
X72320913Y-77893313D01*
X72316239Y-77894731D01*
X72308037Y-77895539D01*
X72284004Y-77900321D01*
X72261365Y-77909699D01*
X72240991Y-77923313D01*
X72223665Y-77940641D01*
X72210052Y-77961015D01*
X72200675Y-77983654D01*
X72195896Y-78007680D01*
X72195088Y-78015882D01*
X72193670Y-78020556D01*
X72191371Y-78024858D01*
X72184363Y-78033397D01*
X71980201Y-78237559D01*
X71971662Y-78244567D01*
X71967360Y-78246866D01*
X71962686Y-78248284D01*
X71954484Y-78249092D01*
X71930450Y-78253873D01*
X71907812Y-78263251D01*
X71887438Y-78276866D01*
X71870111Y-78294193D01*
X71856498Y-78314568D01*
X71847121Y-78337207D01*
X71842342Y-78361233D01*
X71841534Y-78369435D01*
X71840116Y-78374109D01*
X71837817Y-78378411D01*
X71830809Y-78386950D01*
X71626647Y-78591112D01*
X71618108Y-78598120D01*
X71613806Y-78600419D01*
X71609132Y-78601837D01*
X71600930Y-78602645D01*
X71576897Y-78607427D01*
X71554258Y-78616805D01*
X71533884Y-78630419D01*
X71516558Y-78647747D01*
X71502945Y-78668121D01*
X71493568Y-78690760D01*
X71488789Y-78714787D01*
X71487981Y-78722989D01*
X71486563Y-78727663D01*
X71484264Y-78731965D01*
X71477256Y-78740504D01*
X71273094Y-78944666D01*
X71264555Y-78951674D01*
X71260253Y-78953973D01*
X71255579Y-78955391D01*
X71247377Y-78956199D01*
X71223344Y-78960981D01*
X71200705Y-78970359D01*
X71180331Y-78983973D01*
X71163005Y-79001301D01*
X71149392Y-79021675D01*
X71140015Y-79044314D01*
X71135236Y-79068340D01*
X71134428Y-79076542D01*
X71133010Y-79081216D01*
X71130711Y-79085518D01*
X71123703Y-79094057D01*
X70919541Y-79298219D01*
X70911002Y-79305227D01*
X70906700Y-79307526D01*
X70902026Y-79308944D01*
X70893824Y-79309752D01*
X70869790Y-79314533D01*
X70847152Y-79323911D01*
X70826778Y-79337526D01*
X70809451Y-79354853D01*
X70795838Y-79375228D01*
X70786461Y-79397867D01*
X70781682Y-79421893D01*
X70780874Y-79430095D01*
X70779456Y-79434769D01*
X70777157Y-79439071D01*
X70770149Y-79447610D01*
X70565987Y-79651772D01*
X70557448Y-79658780D01*
X70553146Y-79661079D01*
X70548472Y-79662497D01*
X70540270Y-79663305D01*
X70516237Y-79668087D01*
X70493598Y-79677465D01*
X70473224Y-79691079D01*
X70455898Y-79708407D01*
X70442285Y-79728781D01*
X70432908Y-79751420D01*
X70428129Y-79775447D01*
X70427321Y-79783649D01*
X70425903Y-79788323D01*
X70423604Y-79792625D01*
X70416596Y-79801164D01*
X70212434Y-80005326D01*
X70203895Y-80012334D01*
X70199593Y-80014633D01*
X70194919Y-80016051D01*
X70186717Y-80016859D01*
X70162684Y-80021641D01*
X70140045Y-80031019D01*
X70119671Y-80044633D01*
X70102345Y-80061961D01*
X70088732Y-80082335D01*
X70079355Y-80104974D01*
X70074576Y-80129000D01*
X70073768Y-80137202D01*
X70072350Y-80141876D01*
X70070051Y-80146178D01*
X70063043Y-80154717D01*
X69858881Y-80358879D01*
X69850342Y-80365887D01*
X69846040Y-80368186D01*
X69841366Y-80369604D01*
X69833164Y-80370412D01*
X69809130Y-80375193D01*
X69786492Y-80384571D01*
X69766118Y-80398186D01*
X69748791Y-80415513D01*
X69735178Y-80435888D01*
X69725801Y-80458527D01*
X69721022Y-80482554D01*
X69720214Y-80490756D01*
X69718796Y-80495430D01*
X69716497Y-80499732D01*
X69709489Y-80508271D01*
X69505327Y-80712433D01*
X69496788Y-80719441D01*
X69492486Y-80721740D01*
X69487812Y-80723158D01*
X69479610Y-80723966D01*
X69455577Y-80728748D01*
X69432938Y-80738126D01*
X69412564Y-80751740D01*
X69395238Y-80769068D01*
X69381625Y-80789442D01*
X69372248Y-80812081D01*
X69367469Y-80836107D01*
X69366661Y-80844309D01*
X69365243Y-80848983D01*
X69362944Y-80853285D01*
X69355936Y-80861824D01*
X69151774Y-81065986D01*
X69143235Y-81072994D01*
X69138933Y-81075293D01*
X69134259Y-81076711D01*
X69129404Y-81077189D01*
X69124549Y-81076711D01*
X69119875Y-81075293D01*
X69115573Y-81072994D01*
X69107034Y-81065986D01*
X68528363Y-80487315D01*
X68509421Y-80471770D01*
X68487810Y-80460219D01*
X68464361Y-80453106D01*
X68439975Y-80450704D01*
X68415589Y-80453106D01*
X68392140Y-80460219D01*
X68370529Y-80471770D01*
X68351587Y-80487315D01*
X67772916Y-81065986D01*
X67764377Y-81072994D01*
X67760075Y-81075293D01*
X67755401Y-81076711D01*
X67750546Y-81077189D01*
X67745691Y-81076711D01*
X67741017Y-81075293D01*
X67736715Y-81072994D01*
X67728176Y-81065986D01*
X67524014Y-80861824D01*
X67517006Y-80853285D01*
X67514707Y-80848983D01*
X67513289Y-80844309D01*
X67512481Y-80836107D01*
X67507699Y-80812074D01*
X67498321Y-80789435D01*
X67484707Y-80769061D01*
X67467379Y-80751735D01*
X67447005Y-80738122D01*
X67424366Y-80728745D01*
X67400340Y-80723966D01*
X67392138Y-80723158D01*
X67387464Y-80721740D01*
X67383162Y-80719441D01*
X67374623Y-80712433D01*
X67170461Y-80508271D01*
X67163453Y-80499732D01*
X67161154Y-80495430D01*
X67159736Y-80490756D01*
X67158928Y-80482554D01*
X67154147Y-80458520D01*
X67144769Y-80435882D01*
X67131154Y-80415508D01*
X67113827Y-80398181D01*
X67093452Y-80384568D01*
X67070813Y-80375191D01*
X67046786Y-80370412D01*
X67038584Y-80369604D01*
X67033910Y-80368186D01*
X67029608Y-80365887D01*
X67021069Y-80358879D01*
X66816907Y-80154717D01*
X66809899Y-80146178D01*
X66807600Y-80141876D01*
X66806182Y-80137202D01*
X66805374Y-80129000D01*
X66800592Y-80104967D01*
X66791214Y-80082328D01*
X66777600Y-80061954D01*
X66760272Y-80044628D01*
X66739898Y-80031015D01*
X66717259Y-80021638D01*
X66693233Y-80016859D01*
X66685031Y-80016051D01*
X66680357Y-80014633D01*
X66676055Y-80012334D01*
X66667516Y-80005326D01*
X66463354Y-79801164D01*
X66456346Y-79792625D01*
X66454047Y-79788323D01*
X66452629Y-79783649D01*
X66451821Y-79775447D01*
X66447040Y-79751413D01*
X66437662Y-79728775D01*
X66424047Y-79708401D01*
X66406720Y-79691074D01*
X66386345Y-79677461D01*
X66363706Y-79668084D01*
X66339680Y-79663305D01*
X66331478Y-79662497D01*
X66326804Y-79661079D01*
X66322502Y-79658780D01*
X66313963Y-79651772D01*
X66109801Y-79447610D01*
X66102793Y-79439071D01*
X66100494Y-79434769D01*
X66099076Y-79430095D01*
X66098268Y-79421893D01*
X66093486Y-79397860D01*
X66084108Y-79375221D01*
X66070494Y-79354847D01*
X66053166Y-79337521D01*
X66032792Y-79323908D01*
X66010153Y-79314531D01*
X65986126Y-79309752D01*
X65977924Y-79308944D01*
X65973250Y-79307526D01*
X65968948Y-79305227D01*
X65960409Y-79298219D01*
X65756247Y-79094057D01*
X65749239Y-79085518D01*
X65746940Y-79081216D01*
X65745522Y-79076542D01*
X65744714Y-79068340D01*
X65739932Y-79044307D01*
X65730554Y-79021668D01*
X65716940Y-79001294D01*
X65699612Y-78983968D01*
X65679238Y-78970355D01*
X65656599Y-78960978D01*
X65632573Y-78956199D01*
X65624371Y-78955391D01*
X65619697Y-78953973D01*
X65615395Y-78951674D01*
X65606856Y-78944666D01*
X65402694Y-78740504D01*
X65395686Y-78731965D01*
X65393387Y-78727663D01*
X65391969Y-78722989D01*
X65391161Y-78714787D01*
X65386380Y-78690753D01*
X65377002Y-78668115D01*
X65363387Y-78647741D01*
X65346060Y-78630414D01*
X65325685Y-78616801D01*
X65303046Y-78607424D01*
X65279020Y-78602645D01*
X65270818Y-78601837D01*
X65266144Y-78600419D01*
X65261842Y-78598120D01*
X65253303Y-78591112D01*
X65049141Y-78386950D01*
X65042133Y-78378411D01*
X65039834Y-78374109D01*
X65038416Y-78369435D01*
X65037608Y-78361233D01*
X65032826Y-78337200D01*
X65023448Y-78314561D01*
X65009834Y-78294187D01*
X64992506Y-78276861D01*
X64972132Y-78263248D01*
X64949493Y-78253871D01*
X64925466Y-78249092D01*
X64917264Y-78248284D01*
X64912590Y-78246866D01*
X64908288Y-78244567D01*
X64899749Y-78237559D01*
X64695587Y-78033397D01*
X64688579Y-78024858D01*
X64686280Y-78020556D01*
X64684862Y-78015882D01*
X64684054Y-78007680D01*
X64679272Y-77983647D01*
X64669894Y-77961008D01*
X64656280Y-77940634D01*
X64638952Y-77923308D01*
X64618578Y-77909695D01*
X64595939Y-77900318D01*
X64571913Y-77895539D01*
X64563711Y-77894731D01*
X64559037Y-77893313D01*
X64554735Y-77891014D01*
X64546196Y-77884006D01*
X64342034Y-77679844D01*
X64335026Y-77671305D01*
X64332727Y-77667003D01*
X64331309Y-77662329D01*
X64330501Y-77654127D01*
X64325720Y-77630093D01*
X64316342Y-77607455D01*
X64302727Y-77587081D01*
X64285400Y-77569754D01*
X64265025Y-77556141D01*
X64242386Y-77546764D01*
X64218359Y-77541985D01*
X64210157Y-77541177D01*
X64205483Y-77539759D01*
X64201181Y-77537460D01*
X64192642Y-77530452D01*
X63988480Y-77326290D01*
X63981472Y-77317751D01*
X63979173Y-77313449D01*
X63977755Y-77308775D01*
X63976947Y-77300573D01*
X63972165Y-77276540D01*
X63962787Y-77253901D01*
X63949173Y-77233527D01*
X63931845Y-77216201D01*
X63911471Y-77202588D01*
X63888832Y-77193211D01*
X63864806Y-77188432D01*
X63856604Y-77187624D01*
X63851930Y-77186206D01*
X63847628Y-77183907D01*
X63839089Y-77176899D01*
X63634927Y-76972737D01*
X63627919Y-76964198D01*
X63625620Y-76959896D01*
X63624202Y-76955222D01*
X63623724Y-76950367D01*
X63624202Y-76945512D01*
X63625620Y-76940838D01*
X63627919Y-76936536D01*
X63634927Y-76927997D01*
X64213598Y-76349326D01*
X64229143Y-76330384D01*
X64240694Y-76308773D01*
X64247807Y-76285324D01*
X64250209Y-76260938D01*
X64250525Y-76260938D01*
X64252927Y-76285324D01*
X64260040Y-76308773D01*
X64271591Y-76330384D01*
X64287136Y-76349326D01*
X64476899Y-76539089D01*
X64483907Y-76547628D01*
X64486206Y-76551930D01*
X64487624Y-76556604D01*
X64488432Y-76564806D01*
X64493214Y-76588839D01*
X64502592Y-76611478D01*
X64516206Y-76631852D01*
X64533534Y-76649178D01*
X64553908Y-76662791D01*
X64576547Y-76672168D01*
X64600573Y-76676947D01*
X64608775Y-76677755D01*
X64613449Y-76679173D01*
X64617751Y-76681472D01*
X64626290Y-76688480D01*
X64830452Y-76892642D01*
X64837460Y-76901181D01*
X64839759Y-76905483D01*
X64841177Y-76910157D01*
X64841985Y-76918359D01*
X64846766Y-76942393D01*
X64856144Y-76965031D01*
X64869759Y-76985405D01*
X64887086Y-77002732D01*
X64907461Y-77016345D01*
X64930100Y-77025722D01*
X64954127Y-77030501D01*
X64962329Y-77031309D01*
X64967003Y-77032727D01*
X64971305Y-77035026D01*
X64979844Y-77042034D01*
X65184006Y-77246196D01*
X65191014Y-77254735D01*
X65193313Y-77259037D01*
X65194731Y-77263711D01*
X65195539Y-77271913D01*
X65200321Y-77295946D01*
X65209699Y-77318585D01*
X65223313Y-77338959D01*
X65240641Y-77356285D01*
X65261015Y-77369898D01*
X65283654Y-77379275D01*
X65307680Y-77384054D01*
X65315882Y-77384862D01*
X65320556Y-77386280D01*
X65324858Y-77388579D01*
X65333397Y-77395587D01*
X65537559Y-77599749D01*
X65544567Y-77608288D01*
X65546866Y-77612590D01*
X65548284Y-77617264D01*
X65549092Y-77625466D01*
X65553874Y-77649499D01*
X65563252Y-77672138D01*
X65576866Y-77692512D01*
X65594194Y-77709838D01*
X65614568Y-77723451D01*
X65637207Y-77732828D01*
X65661234Y-77737607D01*
X65669436Y-77738415D01*
X65674110Y-77739833D01*
X65678412Y-77742132D01*
X65686951Y-77749140D01*
X65891113Y-77953302D01*
X65898121Y-77961841D01*
X65900420Y-77966143D01*
X65901838Y-77970817D01*
X65902646Y-77979019D01*
X65907427Y-78003053D01*
X65916805Y-78025691D01*
X65930420Y-78046065D01*
X65947747Y-78063392D01*
X65968122Y-78077005D01*
X65990761Y-78086382D01*
X66014787Y-78091161D01*
X66022989Y-78091969D01*
X66027663Y-78093387D01*
X66031965Y-78095686D01*
X66040504Y-78102694D01*
X66244666Y-78306856D01*
X66251674Y-78315395D01*
X66253973Y-78319697D01*
X66255391Y-78324371D01*
X66256199Y-78332573D01*
X66260981Y-78356606D01*
X66270359Y-78379245D01*
X66283973Y-78399619D01*
X66301301Y-78416945D01*
X66321675Y-78430558D01*
X66344314Y-78439935D01*
X66368340Y-78444714D01*
X66376542Y-78445522D01*
X66381216Y-78446940D01*
X66385518Y-78449239D01*
X66394057Y-78456247D01*
X66598219Y-78660409D01*
X66605227Y-78668948D01*
X66607526Y-78673250D01*
X66608944Y-78677924D01*
X66609752Y-78686126D01*
X66614534Y-78710159D01*
X66623912Y-78732798D01*
X66637526Y-78753172D01*
X66654854Y-78770498D01*
X66675228Y-78784111D01*
X66697867Y-78793488D01*
X66721894Y-78798267D01*
X66730096Y-78799075D01*
X66734770Y-78800493D01*
X66739072Y-78802792D01*
X66747611Y-78809800D01*
X66951773Y-79013962D01*
X66958781Y-79022501D01*
X66961080Y-79026803D01*
X66962498Y-79031477D01*
X66963306Y-79039679D01*
X66968087Y-79063713D01*
X66977465Y-79086351D01*
X66991080Y-79106725D01*
X67008407Y-79124052D01*
X67028782Y-79137665D01*
X67051421Y-79147042D01*
X67075447Y-79151821D01*
X67083649Y-79152629D01*
X67088323Y-79154047D01*
X67092625Y-79156346D01*
X67101164Y-79163354D01*
X67305326Y-79367516D01*
X67312334Y-79376055D01*
X67314633Y-79380357D01*
X67316051Y-79385031D01*
X67316859Y-79393233D01*
X67321641Y-79417266D01*
X67331019Y-79439905D01*
X67344633Y-79460279D01*
X67361961Y-79477605D01*
X67382335Y-79491218D01*
X67404974Y-79500595D01*
X67429000Y-79505374D01*
X67437202Y-79506182D01*
X67441876Y-79507600D01*
X67446178Y-79509899D01*
X67454717Y-79516907D01*
X67658879Y-79721069D01*
X67665887Y-79729608D01*
X67668186Y-79733910D01*
X67669604Y-79738584D01*
X67670412Y-79746786D01*
X67675193Y-79770820D01*
X67684571Y-79793458D01*
X67698186Y-79813832D01*
X67715513Y-79831159D01*
X67735888Y-79844772D01*
X67758527Y-79854149D01*
X67782554Y-79858928D01*
X67790756Y-79859736D01*
X67795430Y-79861154D01*
X67799732Y-79863453D01*
X67808271Y-79870461D01*
X68012433Y-80074623D01*
X68019441Y-80083162D01*
X68021740Y-80087464D01*
X68023158Y-80092138D01*
X68023966Y-80100340D01*
X68028748Y-80124373D01*
X68038126Y-80147012D01*
X68051740Y-80167386D01*
X68069068Y-80184712D01*
X68089442Y-80198325D01*
X68112081Y-80207702D01*
X68136107Y-80212481D01*
X68144309Y-80213289D01*
X68148983Y-80214707D01*
X68153285Y-80217006D01*
X68161824Y-80224014D01*
X68351587Y-80413777D01*
X68370529Y-80429322D01*
X68392140Y-80440873D01*
X68415589Y-80447986D01*
X68439975Y-80450388D01*
X68464361Y-80447986D01*
X68487810Y-80440873D01*
X68509421Y-80429322D01*
X68528363Y-80413777D01*
X68718126Y-80224014D01*
X68726665Y-80217006D01*
X68730967Y-80214707D01*
X68735641Y-80213289D01*
X68743843Y-80212481D01*
X68767876Y-80207699D01*
X68790515Y-80198321D01*
X68810889Y-80184707D01*
X68828215Y-80167379D01*
X68841828Y-80147005D01*
X68851205Y-80124366D01*
X68855984Y-80100340D01*
X68856792Y-80092138D01*
X68858210Y-80087464D01*
X68860509Y-80083162D01*
X68867517Y-80074623D01*
X69071679Y-79870461D01*
X69080218Y-79863453D01*
X69084520Y-79861154D01*
X69089194Y-79859736D01*
X69097396Y-79858928D01*
X69121430Y-79854147D01*
X69144068Y-79844769D01*
X69164442Y-79831154D01*
X69181769Y-79813827D01*
X69195382Y-79793452D01*
X69204759Y-79770813D01*
X69209538Y-79746786D01*
X69210346Y-79738584D01*
X69211764Y-79733910D01*
X69214063Y-79729608D01*
X69221071Y-79721069D01*
X69425233Y-79516907D01*
X69433772Y-79509899D01*
X69438074Y-79507600D01*
X69442748Y-79506182D01*
X69450950Y-79505374D01*
X69474983Y-79500592D01*
X69497622Y-79491214D01*
X69517996Y-79477600D01*
X69535322Y-79460272D01*
X69548935Y-79439898D01*
X69558312Y-79417259D01*
X69563091Y-79393233D01*
X69563899Y-79385031D01*
X69565317Y-79380357D01*
X69567616Y-79376055D01*
X69574624Y-79367516D01*
X69778786Y-79163354D01*
X69787325Y-79156346D01*
X69791627Y-79154047D01*
X69796301Y-79152629D01*
X69804503Y-79151821D01*
X69828536Y-79147039D01*
X69851175Y-79137661D01*
X69871549Y-79124047D01*
X69888875Y-79106719D01*
X69902488Y-79086345D01*
X69911865Y-79063706D01*
X69916644Y-79039679D01*
X69917452Y-79031477D01*
X69918870Y-79026803D01*
X69921169Y-79022501D01*
X69928177Y-79013962D01*
X70132339Y-78809800D01*
X70140878Y-78802792D01*
X70145180Y-78800493D01*
X70149854Y-78799075D01*
X70158056Y-78798267D01*
X70182090Y-78793486D01*
X70204728Y-78784108D01*
X70225102Y-78770493D01*
X70242429Y-78753166D01*
X70256042Y-78732791D01*
X70265419Y-78710152D01*
X70270198Y-78686126D01*
X70271006Y-78677924D01*
X70272424Y-78673250D01*
X70274723Y-78668948D01*
X70281731Y-78660409D01*
X70485893Y-78456247D01*
X70494432Y-78449239D01*
X70498734Y-78446940D01*
X70503408Y-78445522D01*
X70511610Y-78444714D01*
X70535643Y-78439932D01*
X70558282Y-78430554D01*
X70578656Y-78416940D01*
X70595982Y-78399612D01*
X70609595Y-78379238D01*
X70618972Y-78356599D01*
X70623751Y-78332573D01*
X70624559Y-78324371D01*
X70625977Y-78319697D01*
X70628276Y-78315395D01*
X70635284Y-78306856D01*
X70839446Y-78102694D01*
X70847985Y-78095686D01*
X70852287Y-78093387D01*
X70856961Y-78091969D01*
X70865163Y-78091161D01*
X70889196Y-78086379D01*
X70911835Y-78077001D01*
X70932209Y-78063387D01*
X70949535Y-78046059D01*
X70963148Y-78025685D01*
X70972525Y-78003046D01*
X70977304Y-77979019D01*
X70978112Y-77970817D01*
X70979530Y-77966143D01*
X70981829Y-77961841D01*
X70988837Y-77953302D01*
X71192999Y-77749140D01*
X71201538Y-77742132D01*
X71205840Y-77739833D01*
X71210514Y-77738415D01*
X71218716Y-77737607D01*
X71242750Y-77732826D01*
X71265388Y-77723448D01*
X71285762Y-77709833D01*
X71303089Y-77692506D01*
X71316702Y-77672131D01*
X71326079Y-77649492D01*
X71330858Y-77625466D01*
X71331666Y-77617264D01*
X71333084Y-77612590D01*
X71335383Y-77608288D01*
X71342391Y-77599749D01*
X71546553Y-77395587D01*
X71555092Y-77388579D01*
X71559394Y-77386280D01*
X71564068Y-77384862D01*
X71572270Y-77384054D01*
X71596303Y-77379272D01*
X71618942Y-77369894D01*
X71639316Y-77356280D01*
X71656642Y-77338952D01*
X71670255Y-77318578D01*
X71679632Y-77295939D01*
X71684411Y-77271913D01*
X71685219Y-77263711D01*
X71686637Y-77259037D01*
X71688936Y-77254735D01*
X71695944Y-77246196D01*
X71900106Y-77042034D01*
X71908645Y-77035026D01*
X71912947Y-77032727D01*
X71917621Y-77031309D01*
X71925823Y-77030501D01*
X71949857Y-77025720D01*
X71972495Y-77016342D01*
X71992869Y-77002727D01*
X72010196Y-76985400D01*
X72023809Y-76965025D01*
X72033186Y-76942386D01*
X72037965Y-76918359D01*
X72038773Y-76910157D01*
X72040191Y-76905483D01*
X72042490Y-76901181D01*
X72049498Y-76892642D01*
X72253660Y-76688480D01*
X72262199Y-76681472D01*
X72266501Y-76679173D01*
X72271175Y-76677755D01*
X72279377Y-76676947D01*
X72303410Y-76672165D01*
X72326049Y-76662787D01*
X72346423Y-76649173D01*
X72363749Y-76631845D01*
X72377362Y-76611471D01*
X72386739Y-76588832D01*
X72391518Y-76564806D01*
X72392326Y-76556604D01*
X72393744Y-76551930D01*
X72396043Y-76547628D01*
X72403051Y-76539089D01*
X72592814Y-76349326D01*
X72608359Y-76330384D01*
X72619910Y-76308773D01*
X72627023Y-76285324D01*
X72629425Y-76260938D01*
X72627023Y-76236552D01*
X72619910Y-76213103D01*
X72608359Y-76191492D01*
X72592814Y-76172550D01*
X72403051Y-75982787D01*
X72396043Y-75974248D01*
X72393744Y-75969946D01*
X72392326Y-75965272D01*
X72391518Y-75957070D01*
X72386736Y-75933037D01*
X72377358Y-75910398D01*
X72363744Y-75890024D01*
X72346416Y-75872698D01*
X72326042Y-75859085D01*
X72303403Y-75849708D01*
X72279377Y-75844929D01*
X72271175Y-75844121D01*
X72266501Y-75842703D01*
X72262199Y-75840404D01*
X72253660Y-75833396D01*
X72049498Y-75629234D01*
X72042490Y-75620695D01*
X72040191Y-75616393D01*
X72038773Y-75611719D01*
X72037965Y-75603517D01*
X72033184Y-75579483D01*
X72023806Y-75556845D01*
X72010191Y-75536471D01*
X71992864Y-75519144D01*
X71972489Y-75505531D01*
X71949850Y-75496154D01*
X71925823Y-75491375D01*
X71917621Y-75490567D01*
X71912947Y-75489149D01*
X71908645Y-75486850D01*
X71900106Y-75479842D01*
X71695944Y-75275680D01*
X71688936Y-75267141D01*
X71686637Y-75262839D01*
X71685219Y-75258165D01*
X71684411Y-75249963D01*
X71679629Y-75225930D01*
X71670251Y-75203291D01*
X71656637Y-75182917D01*
X71639309Y-75165591D01*
X71618935Y-75151978D01*
X71596296Y-75142601D01*
X71572270Y-75137822D01*
X71564068Y-75137014D01*
X71559394Y-75135596D01*
X71555092Y-75133297D01*
X71546553Y-75126289D01*
X71342391Y-74922127D01*
X71335383Y-74913588D01*
X71333084Y-74909286D01*
X71331666Y-74904612D01*
X71330858Y-74896410D01*
X71326076Y-74872377D01*
X71316698Y-74849738D01*
X71303084Y-74829364D01*
X71285756Y-74812038D01*
X71265382Y-74798425D01*
X71242743Y-74789048D01*
X71218716Y-74784269D01*
X71210514Y-74783461D01*
X71205840Y-74782043D01*
X71201538Y-74779744D01*
X71192999Y-74772736D01*
X70988837Y-74568574D01*
X70981829Y-74560035D01*
X70979530Y-74555733D01*
X70978112Y-74551059D01*
X70977304Y-74542857D01*
X70972523Y-74518823D01*
X70963145Y-74496185D01*
X70949530Y-74475811D01*
X70932203Y-74458484D01*
X70911828Y-74444871D01*
X70889189Y-74435494D01*
X70865163Y-74430715D01*
X70856961Y-74429907D01*
X70852287Y-74428489D01*
X70847985Y-74426190D01*
X70839446Y-74419182D01*
X70635284Y-74215020D01*
X70628276Y-74206481D01*
X70625977Y-74202179D01*
X70624559Y-74197505D01*
X70623751Y-74189303D01*
X70618969Y-74165270D01*
X70609591Y-74142631D01*
X70595977Y-74122257D01*
X70578649Y-74104931D01*
X70558275Y-74091318D01*
X70535636Y-74081941D01*
X70511610Y-74077162D01*
X70503408Y-74076354D01*
X70498734Y-74074936D01*
X70494432Y-74072637D01*
X70485893Y-74065629D01*
X70281731Y-73861467D01*
X70274723Y-73852928D01*
X70272424Y-73848626D01*
X70271006Y-73843952D01*
X70270198Y-73835750D01*
X70265416Y-73811717D01*
X70256038Y-73789078D01*
X70242424Y-73768704D01*
X70225096Y-73751378D01*
X70204722Y-73737765D01*
X70182083Y-73728388D01*
X70158056Y-73723609D01*
X70149854Y-73722801D01*
X70145180Y-73721383D01*
X70140878Y-73719084D01*
X70132339Y-73712076D01*
X69928177Y-73507914D01*
X69921169Y-73499375D01*
X69918870Y-73495073D01*
X69917452Y-73490399D01*
X69916644Y-73482197D01*
X69911863Y-73458163D01*
X69902485Y-73435525D01*
X69888870Y-73415151D01*
X69871543Y-73397824D01*
X69851168Y-73384211D01*
X69828529Y-73374834D01*
X69804503Y-73370055D01*
X69796301Y-73369247D01*
X69791627Y-73367829D01*
X69787325Y-73365530D01*
X69778786Y-73358522D01*
X69574624Y-73154360D01*
X69567616Y-73145821D01*
X69565317Y-73141519D01*
X69563899Y-73136845D01*
X69563091Y-73128643D01*
X69558309Y-73104610D01*
X69548931Y-73081971D01*
X69535317Y-73061597D01*
X69517989Y-73044271D01*
X69497615Y-73030658D01*
X69474976Y-73021281D01*
X69450950Y-73016502D01*
X69442748Y-73015694D01*
X69438074Y-73014276D01*
X69433772Y-73011977D01*
X69425233Y-73004969D01*
X69221071Y-72800807D01*
X69214063Y-72792268D01*
X69211764Y-72787966D01*
X69210346Y-72783292D01*
X69209538Y-72775090D01*
X69204757Y-72751056D01*
X69195379Y-72728418D01*
X69181764Y-72708044D01*
X69164437Y-72690717D01*
X69144062Y-72677104D01*
X69121423Y-72667727D01*
X69097396Y-72662948D01*
X69089194Y-72662140D01*
X69084520Y-72660722D01*
X69080218Y-72658423D01*
X69071679Y-72651415D01*
X68867517Y-72447253D01*
X68860509Y-72438714D01*
X68858210Y-72434412D01*
X68856792Y-72429738D01*
X68855984Y-72421536D01*
X68851202Y-72397503D01*
X68841824Y-72374864D01*
X68828210Y-72354490D01*
X68810882Y-72337164D01*
X68790508Y-72323551D01*
X68767869Y-72314174D01*
X68743843Y-72309395D01*
X68735641Y-72308587D01*
X68730967Y-72307169D01*
X68726665Y-72304870D01*
X68718126Y-72297862D01*
X68528363Y-72108099D01*
X68509421Y-72092554D01*
X68487810Y-72081003D01*
X68464361Y-72073890D01*
X68439975Y-72071488D01*
X68415589Y-72073890D01*
X68392140Y-72081003D01*
X68370529Y-72092554D01*
X68351587Y-72108099D01*
X68161824Y-72297862D01*
X68153285Y-72304870D01*
X68148983Y-72307169D01*
X68144309Y-72308587D01*
X68136107Y-72309395D01*
X68112074Y-72314177D01*
X68089435Y-72323555D01*
X68069061Y-72337169D01*
X68051735Y-72354497D01*
X68038122Y-72374871D01*
X68028745Y-72397510D01*
X68023966Y-72421536D01*
X68023158Y-72429738D01*
X68021740Y-72434412D01*
X68019441Y-72438714D01*
X68012433Y-72447253D01*
X67808271Y-72651415D01*
X67799732Y-72658423D01*
X67795430Y-72660722D01*
X67790756Y-72662140D01*
X67782554Y-72662948D01*
X67758520Y-72667729D01*
X67735882Y-72677107D01*
X67715508Y-72690722D01*
X67698181Y-72708049D01*
X67684568Y-72728424D01*
X67675191Y-72751063D01*
X67670412Y-72775090D01*
X67669604Y-72783292D01*
X67668186Y-72787966D01*
X67665887Y-72792268D01*
X67658879Y-72800807D01*
X67454717Y-73004969D01*
X67446178Y-73011977D01*
X67441876Y-73014276D01*
X67437202Y-73015694D01*
X67429000Y-73016502D01*
X67404967Y-73021284D01*
X67382328Y-73030662D01*
X67361954Y-73044276D01*
X67344628Y-73061604D01*
X67331015Y-73081978D01*
X67321638Y-73104617D01*
X67316859Y-73128643D01*
X67316051Y-73136845D01*
X67314633Y-73141519D01*
X67312334Y-73145821D01*
X67305326Y-73154360D01*
X67101164Y-73358522D01*
X67092625Y-73365530D01*
X67088323Y-73367829D01*
X67083649Y-73369247D01*
X67075447Y-73370055D01*
X67051414Y-73374837D01*
X67028775Y-73384215D01*
X67008401Y-73397829D01*
X66991075Y-73415157D01*
X66977462Y-73435531D01*
X66968085Y-73458170D01*
X66963306Y-73482197D01*
X66962498Y-73490399D01*
X66961080Y-73495073D01*
X66958781Y-73499375D01*
X66951773Y-73507914D01*
X66747611Y-73712076D01*
X66739072Y-73719084D01*
X66734770Y-73721383D01*
X66730096Y-73722801D01*
X66721894Y-73723609D01*
X66697860Y-73728390D01*
X66675222Y-73737768D01*
X66654848Y-73751383D01*
X66637521Y-73768710D01*
X66623908Y-73789085D01*
X66614531Y-73811724D01*
X66609752Y-73835750D01*
X66608944Y-73843952D01*
X66607526Y-73848626D01*
X66605227Y-73852928D01*
X66598219Y-73861467D01*
X66394057Y-74065629D01*
X66385518Y-74072637D01*
X66381216Y-74074936D01*
X66376542Y-74076354D01*
X66368340Y-74077162D01*
X66344307Y-74081944D01*
X66321668Y-74091322D01*
X66301294Y-74104936D01*
X66283968Y-74122264D01*
X66270355Y-74142638D01*
X66260978Y-74165277D01*
X66256199Y-74189303D01*
X66255391Y-74197505D01*
X66253973Y-74202179D01*
X66251674Y-74206481D01*
X66244666Y-74215020D01*
X66040504Y-74419182D01*
X66031965Y-74426190D01*
X66027663Y-74428489D01*
X66022989Y-74429907D01*
X66014787Y-74430715D01*
X65990754Y-74435497D01*
X65968115Y-74444875D01*
X65947741Y-74458489D01*
X65930415Y-74475817D01*
X65916802Y-74496191D01*
X65907425Y-74518830D01*
X65902646Y-74542857D01*
X65901838Y-74551059D01*
X65900420Y-74555733D01*
X65898121Y-74560035D01*
X65891113Y-74568574D01*
X65686951Y-74772736D01*
X65678412Y-74779744D01*
X65674110Y-74782043D01*
X65669436Y-74783461D01*
X65661234Y-74784269D01*
X65637200Y-74789050D01*
X65614562Y-74798428D01*
X65594188Y-74812043D01*
X65576861Y-74829370D01*
X65563248Y-74849745D01*
X65553871Y-74872384D01*
X65549092Y-74896410D01*
X65548284Y-74904612D01*
X65546866Y-74909286D01*
X65544567Y-74913588D01*
X65537559Y-74922127D01*
X65333397Y-75126289D01*
X65324858Y-75133297D01*
X65320556Y-75135596D01*
X65315882Y-75137014D01*
X65307680Y-75137822D01*
X65283647Y-75142604D01*
X65261008Y-75151982D01*
X65240634Y-75165596D01*
X65223308Y-75182924D01*
X65209695Y-75203298D01*
X65200318Y-75225937D01*
X65195539Y-75249963D01*
X65194731Y-75258165D01*
X65193313Y-75262839D01*
X65191014Y-75267141D01*
X65184006Y-75275680D01*
X64979844Y-75479842D01*
X64971305Y-75486850D01*
X64967003Y-75489149D01*
X64962329Y-75490567D01*
X64954127Y-75491375D01*
X64930093Y-75496156D01*
X64907455Y-75505534D01*
X64887081Y-75519149D01*
X64869754Y-75536476D01*
X64856141Y-75556851D01*
X64846764Y-75579490D01*
X64841985Y-75603517D01*
X64841177Y-75611719D01*
X64839759Y-75616393D01*
X64837460Y-75620695D01*
X64830452Y-75629234D01*
X64626290Y-75833396D01*
X64617751Y-75840404D01*
X64613449Y-75842703D01*
X64608775Y-75844121D01*
X64600573Y-75844929D01*
X64576540Y-75849711D01*
X64553901Y-75859089D01*
X64533527Y-75872703D01*
X64516201Y-75890031D01*
X64502588Y-75910405D01*
X64493211Y-75933044D01*
X64488432Y-75957070D01*
X64487624Y-75965272D01*
X64486206Y-75969946D01*
X64483907Y-75974248D01*
X64476899Y-75982787D01*
X64287136Y-76172550D01*
X64271591Y-76191492D01*
X64260040Y-76213103D01*
X64252927Y-76236552D01*
X64250525Y-76260938D01*
X64250209Y-76260938D01*
X64247807Y-76236552D01*
X64240694Y-76213103D01*
X64229143Y-76191492D01*
X64213598Y-76172550D01*
X63634927Y-75593879D01*
X63627919Y-75585340D01*
X63625620Y-75581038D01*
X63624202Y-75576364D01*
X63623724Y-75571509D01*
X63624202Y-75566654D01*
X63625620Y-75561980D01*
X63627919Y-75557678D01*
X63634927Y-75549139D01*
X63839089Y-75344977D01*
X63847628Y-75337969D01*
X63851930Y-75335670D01*
X63856604Y-75334252D01*
X63864806Y-75333444D01*
X63888839Y-75328662D01*
X63911478Y-75319284D01*
X63931852Y-75305670D01*
X63949178Y-75288342D01*
X63962791Y-75267968D01*
X63972168Y-75245329D01*
X63976947Y-75221303D01*
X63977755Y-75213101D01*
X63979173Y-75208427D01*
X63981472Y-75204125D01*
X63988480Y-75195586D01*
X64192642Y-74991424D01*
X64201181Y-74984416D01*
X64205483Y-74982117D01*
X64210157Y-74980699D01*
X64218359Y-74979891D01*
X64242393Y-74975110D01*
X64265031Y-74965732D01*
X64285405Y-74952117D01*
X64302732Y-74934790D01*
X64316345Y-74914415D01*
X64325722Y-74891776D01*
X64330501Y-74867749D01*
X64331309Y-74859547D01*
X64332727Y-74854873D01*
X64335026Y-74850571D01*
X64342034Y-74842032D01*
X64546196Y-74637870D01*
X64554735Y-74630862D01*
X64559037Y-74628563D01*
X64563711Y-74627145D01*
X64571913Y-74626337D01*
X64595946Y-74621555D01*
X64618585Y-74612177D01*
X64638959Y-74598563D01*
X64656285Y-74581235D01*
X64669898Y-74560861D01*
X64679275Y-74538222D01*
X64684054Y-74514196D01*
X64684862Y-74505994D01*
X64686280Y-74501320D01*
X64688579Y-74497018D01*
X64695587Y-74488479D01*
X64899749Y-74284317D01*
X64908288Y-74277309D01*
X64912590Y-74275010D01*
X64917264Y-74273592D01*
X64925466Y-74272784D01*
X64949500Y-74268003D01*
X64972138Y-74258625D01*
X64992512Y-74245010D01*
X65009839Y-74227683D01*
X65023452Y-74207308D01*
X65032829Y-74184669D01*
X65037608Y-74160643D01*
X65038416Y-74152441D01*
X65039834Y-74147767D01*
X65042133Y-74143465D01*
X65049141Y-74134926D01*
X65253303Y-73930764D01*
X65261842Y-73923756D01*
X65266144Y-73921457D01*
X65270818Y-73920039D01*
X65279020Y-73919231D01*
X65303053Y-73914449D01*
X65325692Y-73905071D01*
X65346066Y-73891457D01*
X65363392Y-73874129D01*
X65377005Y-73853755D01*
X65386382Y-73831116D01*
X65391161Y-73807089D01*
X65391969Y-73798887D01*
X65393387Y-73794213D01*
X65395686Y-73789911D01*
X65402694Y-73781372D01*
X65606856Y-73577210D01*
X65615395Y-73570202D01*
X65619697Y-73567903D01*
X65624371Y-73566485D01*
X65632573Y-73565677D01*
X65656606Y-73560895D01*
X65679245Y-73551517D01*
X65699619Y-73537903D01*
X65716945Y-73520575D01*
X65730558Y-73500201D01*
X65739935Y-73477562D01*
X65744714Y-73453536D01*
X65745522Y-73445334D01*
X65746940Y-73440660D01*
X65749239Y-73436358D01*
X65756247Y-73427819D01*
X65960409Y-73223657D01*
X65968948Y-73216649D01*
X65973250Y-73214350D01*
X65977924Y-73212932D01*
X65986126Y-73212124D01*
X66010160Y-73207343D01*
X66032798Y-73197965D01*
X66053172Y-73184350D01*
X66070499Y-73167023D01*
X66084112Y-73146648D01*
X66093489Y-73124009D01*
X66098268Y-73099983D01*
X66099076Y-73091781D01*
X66100494Y-73087107D01*
X66102793Y-73082805D01*
X66109801Y-73074266D01*
X66313963Y-72870104D01*
X66322502Y-72863096D01*
X66326804Y-72860797D01*
X66331478Y-72859379D01*
X66339680Y-72858571D01*
X66363713Y-72853789D01*
X66386352Y-72844411D01*
X66406726Y-72830797D01*
X66424052Y-72813469D01*
X66437665Y-72793095D01*
X66447042Y-72770456D01*
X66451821Y-72746429D01*
X66452629Y-72738227D01*
X66454047Y-72733553D01*
X66456346Y-72729251D01*
X66463354Y-72720712D01*
X66667516Y-72516550D01*
X66676055Y-72509542D01*
X66680357Y-72507243D01*
X66685031Y-72505825D01*
X66693233Y-72505017D01*
X66717266Y-72500235D01*
X66739905Y-72490857D01*
X66760279Y-72477243D01*
X66777605Y-72459915D01*
X66791218Y-72439541D01*
X66800595Y-72416902D01*
X66805374Y-72392876D01*
X66806182Y-72384674D01*
X66807600Y-72380000D01*
X66809899Y-72375698D01*
X66816907Y-72367159D01*
X67021069Y-72162997D01*
X67029608Y-72155989D01*
X67033910Y-72153690D01*
X67038584Y-72152272D01*
X67046786Y-72151464D01*
X67070820Y-72146683D01*
X67093458Y-72137305D01*
X67113832Y-72123690D01*
X67131159Y-72106363D01*
X67144772Y-72085988D01*
X67154149Y-72063349D01*
X67158928Y-72039322D01*
X67159736Y-72031120D01*
X67161154Y-72026446D01*
X67163453Y-72022144D01*
X67170461Y-72013605D01*
X67374623Y-71809443D01*
X67383162Y-71802435D01*
X67387464Y-71800136D01*
X67392138Y-71798718D01*
X67400340Y-71797910D01*
X67424373Y-71793128D01*
X67447012Y-71783750D01*
X67467386Y-71770136D01*
X67484712Y-71752808D01*
X67498325Y-71732434D01*
X67507702Y-71709795D01*
X67512481Y-71685769D01*
X67513289Y-71677567D01*
X67514707Y-71672893D01*
X67517006Y-71668591D01*
X67524014Y-71660052D01*
X67728176Y-71455890D01*
X67736715Y-71448882D01*
X67741017Y-71446583D01*
X67745691Y-71445165D01*
X67750546Y-71444687D01*
X67755401Y-71445165D01*
X67760075Y-71446583D01*
X67764377Y-71448882D01*
X67772916Y-71455890D01*
X68351587Y-72034561D01*
X68370529Y-72050106D01*
X68392140Y-72061657D01*
X68415589Y-72068770D01*
X68439975Y-72071172D01*
X68464361Y-72068770D01*
X68487810Y-72061657D01*
X68509421Y-72050106D01*
X68528363Y-72034561D01*
X69107034Y-71455890D01*
X69115573Y-71448882D01*
X69119875Y-71446583D01*
X69124549Y-71445165D01*
X69129404Y-71444687D01*
X69134259Y-71445165D01*
X69134259Y-71445165D01*
G37*
G36*
X68468429Y-73353751D02*
G01*
X68495797Y-73362053D01*
X68521010Y-73375530D01*
X68547881Y-73397582D01*
X68621145Y-73470846D01*
X68621151Y-73470851D01*
X71230062Y-76079762D01*
X71230067Y-76079768D01*
X71303331Y-76153032D01*
X71325383Y-76179903D01*
X71338860Y-76205116D01*
X71347162Y-76232484D01*
X71349964Y-76260938D01*
X71347162Y-76289392D01*
X71338860Y-76316760D01*
X71325383Y-76341973D01*
X71303331Y-76368844D01*
X71230067Y-76442108D01*
X71230062Y-76442114D01*
X68621151Y-79051025D01*
X68621145Y-79051030D01*
X68547881Y-79124294D01*
X68521010Y-79146346D01*
X68495797Y-79159823D01*
X68468429Y-79168125D01*
X68439975Y-79170927D01*
X68411521Y-79168125D01*
X68384153Y-79159823D01*
X68358940Y-79146346D01*
X68332069Y-79124294D01*
X68258805Y-79051030D01*
X68258799Y-79051025D01*
X65649888Y-76442114D01*
X65649883Y-76442108D01*
X65576619Y-76368844D01*
X65554567Y-76341973D01*
X65541090Y-76316760D01*
X65532788Y-76289392D01*
X65529986Y-76260938D01*
X65532788Y-76232484D01*
X65541090Y-76205116D01*
X65554567Y-76179903D01*
X65576619Y-76153032D01*
X65649883Y-76079768D01*
X65649888Y-76079762D01*
X68258799Y-73470851D01*
X68258805Y-73470846D01*
X68332069Y-73397582D01*
X68358940Y-73375530D01*
X68384153Y-73362053D01*
X68411521Y-73353751D01*
X68439975Y-73350949D01*
X68468429Y-73353751D01*
X68468429Y-73353751D01*
G37*
G36*
X78846938Y-80276716D02*
G01*
X78867557Y-80282971D01*
X78886553Y-80293124D01*
X78903208Y-80306792D01*
X78916876Y-80323447D01*
X78927029Y-80342443D01*
X78933284Y-80363062D01*
X78936000Y-80390640D01*
X78936000Y-80899360D01*
X78933284Y-80926938D01*
X78927029Y-80947557D01*
X78916876Y-80966553D01*
X78903208Y-80983208D01*
X78886553Y-80996876D01*
X78867557Y-81007029D01*
X78846938Y-81013284D01*
X78819360Y-81016000D01*
X78360640Y-81016000D01*
X78333062Y-81013284D01*
X78312443Y-81007029D01*
X78293447Y-80996876D01*
X78276792Y-80983208D01*
X78263124Y-80966553D01*
X78252971Y-80947557D01*
X78246716Y-80926938D01*
X78244000Y-80899360D01*
X78244000Y-80390640D01*
X78246716Y-80363062D01*
X78252971Y-80342443D01*
X78263124Y-80323447D01*
X78276792Y-80306792D01*
X78293447Y-80293124D01*
X78312443Y-80282971D01*
X78333062Y-80276716D01*
X78360640Y-80274000D01*
X78819360Y-80274000D01*
X78846938Y-80276716D01*
X78846938Y-80276716D01*
G37*
G36*
X77876938Y-80276716D02*
G01*
X77897557Y-80282971D01*
X77916553Y-80293124D01*
X77933208Y-80306792D01*
X77946876Y-80323447D01*
X77957029Y-80342443D01*
X77963284Y-80363062D01*
X77966000Y-80390640D01*
X77966000Y-80899360D01*
X77963284Y-80926938D01*
X77957029Y-80947557D01*
X77946876Y-80966553D01*
X77933208Y-80983208D01*
X77916553Y-80996876D01*
X77897557Y-81007029D01*
X77876938Y-81013284D01*
X77849360Y-81016000D01*
X77390640Y-81016000D01*
X77363062Y-81013284D01*
X77342443Y-81007029D01*
X77323447Y-80996876D01*
X77306792Y-80983208D01*
X77293124Y-80966553D01*
X77282971Y-80947557D01*
X77276716Y-80926938D01*
X77274000Y-80899360D01*
X77274000Y-80390640D01*
X77276716Y-80363062D01*
X77282971Y-80342443D01*
X77293124Y-80323447D01*
X77306792Y-80306792D01*
X77323447Y-80293124D01*
X77342443Y-80282971D01*
X77363062Y-80276716D01*
X77390640Y-80274000D01*
X77849360Y-80274000D01*
X77876938Y-80276716D01*
X77876938Y-80276716D01*
G37*
G36*
X76735938Y-80151716D02*
G01*
X76756557Y-80157971D01*
X76775553Y-80168124D01*
X76792208Y-80181792D01*
X76805876Y-80198447D01*
X76816029Y-80217443D01*
X76822284Y-80238062D01*
X76825000Y-80265640D01*
X76825000Y-80724360D01*
X76822284Y-80751938D01*
X76816029Y-80772557D01*
X76805876Y-80791553D01*
X76792208Y-80808208D01*
X76775553Y-80821876D01*
X76756557Y-80832029D01*
X76735938Y-80838284D01*
X76708360Y-80841000D01*
X76199640Y-80841000D01*
X76172062Y-80838284D01*
X76151443Y-80832029D01*
X76132447Y-80821876D01*
X76115792Y-80808208D01*
X76102124Y-80791553D01*
X76091971Y-80772557D01*
X76085716Y-80751938D01*
X76083000Y-80724360D01*
X76083000Y-80265640D01*
X76085716Y-80238062D01*
X76091971Y-80217443D01*
X76102124Y-80198447D01*
X76115792Y-80181792D01*
X76132447Y-80168124D01*
X76151443Y-80157971D01*
X76172062Y-80151716D01*
X76199640Y-80149000D01*
X76708360Y-80149000D01*
X76735938Y-80151716D01*
X76735938Y-80151716D01*
G37*
G36*
X123627138Y-79286116D02*
G01*
X123647757Y-79292371D01*
X123666753Y-79302524D01*
X123683408Y-79316192D01*
X123697076Y-79332847D01*
X123707229Y-79351843D01*
X123713484Y-79372462D01*
X123716200Y-79400040D01*
X123716200Y-79908760D01*
X123713484Y-79936338D01*
X123707229Y-79956957D01*
X123697076Y-79975953D01*
X123683408Y-79992608D01*
X123666753Y-80006276D01*
X123647757Y-80016429D01*
X123627138Y-80022684D01*
X123599560Y-80025400D01*
X123140840Y-80025400D01*
X123113262Y-80022684D01*
X123092643Y-80016429D01*
X123073647Y-80006276D01*
X123056992Y-79992608D01*
X123043324Y-79975953D01*
X123033171Y-79956957D01*
X123026916Y-79936338D01*
X123024200Y-79908760D01*
X123024200Y-79400040D01*
X123026916Y-79372462D01*
X123033171Y-79351843D01*
X123043324Y-79332847D01*
X123056992Y-79316192D01*
X123073647Y-79302524D01*
X123092643Y-79292371D01*
X123113262Y-79286116D01*
X123140840Y-79283400D01*
X123599560Y-79283400D01*
X123627138Y-79286116D01*
X123627138Y-79286116D01*
G37*
G36*
X122657138Y-79286116D02*
G01*
X122677757Y-79292371D01*
X122696753Y-79302524D01*
X122713408Y-79316192D01*
X122727076Y-79332847D01*
X122737229Y-79351843D01*
X122743484Y-79372462D01*
X122746200Y-79400040D01*
X122746200Y-79908760D01*
X122743484Y-79936338D01*
X122737229Y-79956957D01*
X122727076Y-79975953D01*
X122713408Y-79992608D01*
X122696753Y-80006276D01*
X122677757Y-80016429D01*
X122657138Y-80022684D01*
X122629560Y-80025400D01*
X122170840Y-80025400D01*
X122143262Y-80022684D01*
X122122643Y-80016429D01*
X122103647Y-80006276D01*
X122086992Y-79992608D01*
X122073324Y-79975953D01*
X122063171Y-79956957D01*
X122056916Y-79936338D01*
X122054200Y-79908760D01*
X122054200Y-79400040D01*
X122056916Y-79372462D01*
X122063171Y-79351843D01*
X122073324Y-79332847D01*
X122086992Y-79316192D01*
X122103647Y-79302524D01*
X122122643Y-79292371D01*
X122143262Y-79286116D01*
X122170840Y-79283400D01*
X122629560Y-79283400D01*
X122657138Y-79286116D01*
X122657138Y-79286116D01*
G37*
G36*
X76735938Y-79181716D02*
G01*
X76756557Y-79187971D01*
X76775553Y-79198124D01*
X76792208Y-79211792D01*
X76805876Y-79228447D01*
X76816029Y-79247443D01*
X76822284Y-79268062D01*
X76825000Y-79295640D01*
X76825000Y-79754360D01*
X76822284Y-79781938D01*
X76816029Y-79802557D01*
X76805876Y-79821553D01*
X76792208Y-79838208D01*
X76775553Y-79851876D01*
X76756557Y-79862029D01*
X76735938Y-79868284D01*
X76708360Y-79871000D01*
X76199640Y-79871000D01*
X76172062Y-79868284D01*
X76151443Y-79862029D01*
X76132447Y-79851876D01*
X76115792Y-79838208D01*
X76102124Y-79821553D01*
X76091971Y-79802557D01*
X76085716Y-79781938D01*
X76083000Y-79754360D01*
X76083000Y-79295640D01*
X76085716Y-79268062D01*
X76091971Y-79247443D01*
X76102124Y-79228447D01*
X76115792Y-79211792D01*
X76132447Y-79198124D01*
X76151443Y-79187971D01*
X76172062Y-79181716D01*
X76199640Y-79179000D01*
X76708360Y-79179000D01*
X76735938Y-79181716D01*
X76735938Y-79181716D01*
G37*
G36*
X77876938Y-79006716D02*
G01*
X77897557Y-79012971D01*
X77916553Y-79023124D01*
X77933208Y-79036792D01*
X77946876Y-79053447D01*
X77957029Y-79072443D01*
X77963284Y-79093062D01*
X77966000Y-79120640D01*
X77966000Y-79629360D01*
X77963284Y-79656938D01*
X77957029Y-79677557D01*
X77946876Y-79696553D01*
X77933208Y-79713208D01*
X77916553Y-79726876D01*
X77897557Y-79737029D01*
X77876938Y-79743284D01*
X77849360Y-79746000D01*
X77390640Y-79746000D01*
X77363062Y-79743284D01*
X77342443Y-79737029D01*
X77323447Y-79726876D01*
X77306792Y-79713208D01*
X77293124Y-79696553D01*
X77282971Y-79677557D01*
X77276716Y-79656938D01*
X77274000Y-79629360D01*
X77274000Y-79120640D01*
X77276716Y-79093062D01*
X77282971Y-79072443D01*
X77293124Y-79053447D01*
X77306792Y-79036792D01*
X77323447Y-79023124D01*
X77342443Y-79012971D01*
X77363062Y-79006716D01*
X77390640Y-79004000D01*
X77849360Y-79004000D01*
X77876938Y-79006716D01*
X77876938Y-79006716D01*
G37*
G36*
X78846938Y-79006716D02*
G01*
X78867557Y-79012971D01*
X78886553Y-79023124D01*
X78903208Y-79036792D01*
X78916876Y-79053447D01*
X78927029Y-79072443D01*
X78933284Y-79093062D01*
X78936000Y-79120640D01*
X78936000Y-79629360D01*
X78933284Y-79656938D01*
X78927029Y-79677557D01*
X78916876Y-79696553D01*
X78903208Y-79713208D01*
X78886553Y-79726876D01*
X78867557Y-79737029D01*
X78846938Y-79743284D01*
X78819360Y-79746000D01*
X78360640Y-79746000D01*
X78333062Y-79743284D01*
X78312443Y-79737029D01*
X78293447Y-79726876D01*
X78276792Y-79713208D01*
X78263124Y-79696553D01*
X78252971Y-79677557D01*
X78246716Y-79656938D01*
X78244000Y-79629360D01*
X78244000Y-79120640D01*
X78246716Y-79093062D01*
X78252971Y-79072443D01*
X78263124Y-79053447D01*
X78276792Y-79036792D01*
X78293447Y-79023124D01*
X78312443Y-79012971D01*
X78333062Y-79006716D01*
X78360640Y-79004000D01*
X78819360Y-79004000D01*
X78846938Y-79006716D01*
X78846938Y-79006716D01*
G37*
G36*
X77899938Y-77736716D02*
G01*
X77920557Y-77742971D01*
X77939553Y-77753124D01*
X77956208Y-77766792D01*
X77969876Y-77783447D01*
X77980029Y-77802443D01*
X77986284Y-77823062D01*
X77989000Y-77850640D01*
X77989000Y-78359360D01*
X77986284Y-78386938D01*
X77980029Y-78407557D01*
X77969876Y-78426553D01*
X77956208Y-78443208D01*
X77939553Y-78456876D01*
X77920557Y-78467029D01*
X77899938Y-78473284D01*
X77872360Y-78476000D01*
X77413640Y-78476000D01*
X77386062Y-78473284D01*
X77365443Y-78467029D01*
X77346447Y-78456876D01*
X77329792Y-78443208D01*
X77316124Y-78426553D01*
X77305971Y-78407557D01*
X77299716Y-78386938D01*
X77297000Y-78359360D01*
X77297000Y-77850640D01*
X77299716Y-77823062D01*
X77305971Y-77802443D01*
X77316124Y-77783447D01*
X77329792Y-77766792D01*
X77346447Y-77753124D01*
X77365443Y-77742971D01*
X77386062Y-77736716D01*
X77413640Y-77734000D01*
X77872360Y-77734000D01*
X77899938Y-77736716D01*
X77899938Y-77736716D01*
G37*
G36*
X78869938Y-77736716D02*
G01*
X78890557Y-77742971D01*
X78909553Y-77753124D01*
X78926208Y-77766792D01*
X78939876Y-77783447D01*
X78950029Y-77802443D01*
X78956284Y-77823062D01*
X78959000Y-77850640D01*
X78959000Y-78359360D01*
X78956284Y-78386938D01*
X78950029Y-78407557D01*
X78939876Y-78426553D01*
X78926208Y-78443208D01*
X78909553Y-78456876D01*
X78890557Y-78467029D01*
X78869938Y-78473284D01*
X78842360Y-78476000D01*
X78383640Y-78476000D01*
X78356062Y-78473284D01*
X78335443Y-78467029D01*
X78316447Y-78456876D01*
X78299792Y-78443208D01*
X78286124Y-78426553D01*
X78275971Y-78407557D01*
X78269716Y-78386938D01*
X78267000Y-78359360D01*
X78267000Y-77850640D01*
X78269716Y-77823062D01*
X78275971Y-77802443D01*
X78286124Y-77783447D01*
X78299792Y-77766792D01*
X78316447Y-77753124D01*
X78335443Y-77742971D01*
X78356062Y-77736716D01*
X78383640Y-77734000D01*
X78842360Y-77734000D01*
X78869938Y-77736716D01*
X78869938Y-77736716D01*
G37*
G36*
X76735938Y-77611716D02*
G01*
X76756557Y-77617971D01*
X76775553Y-77628124D01*
X76792208Y-77641792D01*
X76805876Y-77658447D01*
X76816029Y-77677443D01*
X76822284Y-77698062D01*
X76825000Y-77725640D01*
X76825000Y-78184360D01*
X76822284Y-78211938D01*
X76816029Y-78232557D01*
X76805876Y-78251553D01*
X76792208Y-78268208D01*
X76775553Y-78281876D01*
X76756557Y-78292029D01*
X76735938Y-78298284D01*
X76708360Y-78301000D01*
X76199640Y-78301000D01*
X76172062Y-78298284D01*
X76151443Y-78292029D01*
X76132447Y-78281876D01*
X76115792Y-78268208D01*
X76102124Y-78251553D01*
X76091971Y-78232557D01*
X76085716Y-78211938D01*
X76083000Y-78184360D01*
X76083000Y-77725640D01*
X76085716Y-77698062D01*
X76091971Y-77677443D01*
X76102124Y-77658447D01*
X76115792Y-77641792D01*
X76132447Y-77628124D01*
X76151443Y-77617971D01*
X76172062Y-77611716D01*
X76199640Y-77609000D01*
X76708360Y-77609000D01*
X76735938Y-77611716D01*
X76735938Y-77611716D01*
G37*
G36*
X76735938Y-76641716D02*
G01*
X76756557Y-76647971D01*
X76775553Y-76658124D01*
X76792208Y-76671792D01*
X76805876Y-76688447D01*
X76816029Y-76707443D01*
X76822284Y-76728062D01*
X76825000Y-76755640D01*
X76825000Y-77214360D01*
X76822284Y-77241938D01*
X76816029Y-77262557D01*
X76805876Y-77281553D01*
X76792208Y-77298208D01*
X76775553Y-77311876D01*
X76756557Y-77322029D01*
X76735938Y-77328284D01*
X76708360Y-77331000D01*
X76199640Y-77331000D01*
X76172062Y-77328284D01*
X76151443Y-77322029D01*
X76132447Y-77311876D01*
X76115792Y-77298208D01*
X76102124Y-77281553D01*
X76091971Y-77262557D01*
X76085716Y-77241938D01*
X76083000Y-77214360D01*
X76083000Y-76755640D01*
X76085716Y-76728062D01*
X76091971Y-76707443D01*
X76102124Y-76688447D01*
X76115792Y-76671792D01*
X76132447Y-76658124D01*
X76151443Y-76647971D01*
X76172062Y-76641716D01*
X76199640Y-76639000D01*
X76708360Y-76639000D01*
X76735938Y-76641716D01*
X76735938Y-76641716D01*
G37*
G36*
X77899938Y-76466716D02*
G01*
X77920557Y-76472971D01*
X77939553Y-76483124D01*
X77956208Y-76496792D01*
X77969876Y-76513447D01*
X77980029Y-76532443D01*
X77986284Y-76553062D01*
X77989000Y-76580640D01*
X77989000Y-77089360D01*
X77986284Y-77116938D01*
X77980029Y-77137557D01*
X77969876Y-77156553D01*
X77956208Y-77173208D01*
X77939553Y-77186876D01*
X77920557Y-77197029D01*
X77899938Y-77203284D01*
X77872360Y-77206000D01*
X77413640Y-77206000D01*
X77386062Y-77203284D01*
X77365443Y-77197029D01*
X77346447Y-77186876D01*
X77329792Y-77173208D01*
X77316124Y-77156553D01*
X77305971Y-77137557D01*
X77299716Y-77116938D01*
X77297000Y-77089360D01*
X77297000Y-76580640D01*
X77299716Y-76553062D01*
X77305971Y-76532443D01*
X77316124Y-76513447D01*
X77329792Y-76496792D01*
X77346447Y-76483124D01*
X77365443Y-76472971D01*
X77386062Y-76466716D01*
X77413640Y-76464000D01*
X77872360Y-76464000D01*
X77899938Y-76466716D01*
X77899938Y-76466716D01*
G37*
G36*
X78869938Y-76466716D02*
G01*
X78890557Y-76472971D01*
X78909553Y-76483124D01*
X78926208Y-76496792D01*
X78939876Y-76513447D01*
X78950029Y-76532443D01*
X78956284Y-76553062D01*
X78959000Y-76580640D01*
X78959000Y-77089360D01*
X78956284Y-77116938D01*
X78950029Y-77137557D01*
X78939876Y-77156553D01*
X78926208Y-77173208D01*
X78909553Y-77186876D01*
X78890557Y-77197029D01*
X78869938Y-77203284D01*
X78842360Y-77206000D01*
X78383640Y-77206000D01*
X78356062Y-77203284D01*
X78335443Y-77197029D01*
X78316447Y-77186876D01*
X78299792Y-77173208D01*
X78286124Y-77156553D01*
X78275971Y-77137557D01*
X78269716Y-77116938D01*
X78267000Y-77089360D01*
X78267000Y-76580640D01*
X78269716Y-76553062D01*
X78275971Y-76532443D01*
X78286124Y-76513447D01*
X78299792Y-76496792D01*
X78316447Y-76483124D01*
X78335443Y-76472971D01*
X78356062Y-76466716D01*
X78383640Y-76464000D01*
X78842360Y-76464000D01*
X78869938Y-76466716D01*
X78869938Y-76466716D01*
G37*
G36*
X77876938Y-75323716D02*
G01*
X77897557Y-75329971D01*
X77916553Y-75340124D01*
X77933208Y-75353792D01*
X77946876Y-75370447D01*
X77957029Y-75389443D01*
X77963284Y-75410062D01*
X77966000Y-75437640D01*
X77966000Y-75946360D01*
X77963284Y-75973938D01*
X77957029Y-75994557D01*
X77946876Y-76013553D01*
X77933208Y-76030208D01*
X77916553Y-76043876D01*
X77897557Y-76054029D01*
X77876938Y-76060284D01*
X77849360Y-76063000D01*
X77390640Y-76063000D01*
X77363062Y-76060284D01*
X77342443Y-76054029D01*
X77323447Y-76043876D01*
X77306792Y-76030208D01*
X77293124Y-76013553D01*
X77282971Y-75994557D01*
X77276716Y-75973938D01*
X77274000Y-75946360D01*
X77274000Y-75437640D01*
X77276716Y-75410062D01*
X77282971Y-75389443D01*
X77293124Y-75370447D01*
X77306792Y-75353792D01*
X77323447Y-75340124D01*
X77342443Y-75329971D01*
X77363062Y-75323716D01*
X77390640Y-75321000D01*
X77849360Y-75321000D01*
X77876938Y-75323716D01*
X77876938Y-75323716D01*
G37*
G36*
X78846938Y-75323716D02*
G01*
X78867557Y-75329971D01*
X78886553Y-75340124D01*
X78903208Y-75353792D01*
X78916876Y-75370447D01*
X78927029Y-75389443D01*
X78933284Y-75410062D01*
X78936000Y-75437640D01*
X78936000Y-75946360D01*
X78933284Y-75973938D01*
X78927029Y-75994557D01*
X78916876Y-76013553D01*
X78903208Y-76030208D01*
X78886553Y-76043876D01*
X78867557Y-76054029D01*
X78846938Y-76060284D01*
X78819360Y-76063000D01*
X78360640Y-76063000D01*
X78333062Y-76060284D01*
X78312443Y-76054029D01*
X78293447Y-76043876D01*
X78276792Y-76030208D01*
X78263124Y-76013553D01*
X78252971Y-75994557D01*
X78246716Y-75973938D01*
X78244000Y-75946360D01*
X78244000Y-75437640D01*
X78246716Y-75410062D01*
X78252971Y-75389443D01*
X78263124Y-75370447D01*
X78276792Y-75353792D01*
X78293447Y-75340124D01*
X78312443Y-75329971D01*
X78333062Y-75323716D01*
X78360640Y-75321000D01*
X78819360Y-75321000D01*
X78846938Y-75323716D01*
X78846938Y-75323716D01*
G37*
G36*
X76735938Y-75325716D02*
G01*
X76756557Y-75331971D01*
X76775553Y-75342124D01*
X76792208Y-75355792D01*
X76805876Y-75372447D01*
X76816029Y-75391443D01*
X76822284Y-75412062D01*
X76825000Y-75439640D01*
X76825000Y-75898360D01*
X76822284Y-75925938D01*
X76816029Y-75946557D01*
X76805876Y-75965553D01*
X76792208Y-75982208D01*
X76775553Y-75995876D01*
X76756557Y-76006029D01*
X76735938Y-76012284D01*
X76708360Y-76015000D01*
X76199640Y-76015000D01*
X76172062Y-76012284D01*
X76151443Y-76006029D01*
X76132447Y-75995876D01*
X76115792Y-75982208D01*
X76102124Y-75965553D01*
X76091971Y-75946557D01*
X76085716Y-75925938D01*
X76083000Y-75898360D01*
X76083000Y-75439640D01*
X76085716Y-75412062D01*
X76091971Y-75391443D01*
X76102124Y-75372447D01*
X76115792Y-75355792D01*
X76132447Y-75342124D01*
X76151443Y-75331971D01*
X76172062Y-75325716D01*
X76199640Y-75323000D01*
X76708360Y-75323000D01*
X76735938Y-75325716D01*
X76735938Y-75325716D01*
G37*
G36*
X76735938Y-74355716D02*
G01*
X76756557Y-74361971D01*
X76775553Y-74372124D01*
X76792208Y-74385792D01*
X76805876Y-74402447D01*
X76816029Y-74421443D01*
X76822284Y-74442062D01*
X76825000Y-74469640D01*
X76825000Y-74928360D01*
X76822284Y-74955938D01*
X76816029Y-74976557D01*
X76805876Y-74995553D01*
X76792208Y-75012208D01*
X76775553Y-75025876D01*
X76756557Y-75036029D01*
X76735938Y-75042284D01*
X76708360Y-75045000D01*
X76199640Y-75045000D01*
X76172062Y-75042284D01*
X76151443Y-75036029D01*
X76132447Y-75025876D01*
X76115792Y-75012208D01*
X76102124Y-74995553D01*
X76091971Y-74976557D01*
X76085716Y-74955938D01*
X76083000Y-74928360D01*
X76083000Y-74469640D01*
X76085716Y-74442062D01*
X76091971Y-74421443D01*
X76102124Y-74402447D01*
X76115792Y-74385792D01*
X76132447Y-74372124D01*
X76151443Y-74361971D01*
X76172062Y-74355716D01*
X76199640Y-74353000D01*
X76708360Y-74353000D01*
X76735938Y-74355716D01*
X76735938Y-74355716D01*
G37*
G36*
X78846938Y-74180716D02*
G01*
X78867557Y-74186971D01*
X78886553Y-74197124D01*
X78903208Y-74210792D01*
X78916876Y-74227447D01*
X78927029Y-74246443D01*
X78933284Y-74267062D01*
X78936000Y-74294640D01*
X78936000Y-74803360D01*
X78933284Y-74830938D01*
X78927029Y-74851557D01*
X78916876Y-74870553D01*
X78903208Y-74887208D01*
X78886553Y-74900876D01*
X78867557Y-74911029D01*
X78846938Y-74917284D01*
X78819360Y-74920000D01*
X78360640Y-74920000D01*
X78333062Y-74917284D01*
X78312443Y-74911029D01*
X78293447Y-74900876D01*
X78276792Y-74887208D01*
X78263124Y-74870553D01*
X78252971Y-74851557D01*
X78246716Y-74830938D01*
X78244000Y-74803360D01*
X78244000Y-74294640D01*
X78246716Y-74267062D01*
X78252971Y-74246443D01*
X78263124Y-74227447D01*
X78276792Y-74210792D01*
X78293447Y-74197124D01*
X78312443Y-74186971D01*
X78333062Y-74180716D01*
X78360640Y-74178000D01*
X78819360Y-74178000D01*
X78846938Y-74180716D01*
X78846938Y-74180716D01*
G37*
G36*
X77876938Y-74180716D02*
G01*
X77897557Y-74186971D01*
X77916553Y-74197124D01*
X77933208Y-74210792D01*
X77946876Y-74227447D01*
X77957029Y-74246443D01*
X77963284Y-74267062D01*
X77966000Y-74294640D01*
X77966000Y-74803360D01*
X77963284Y-74830938D01*
X77957029Y-74851557D01*
X77946876Y-74870553D01*
X77933208Y-74887208D01*
X77916553Y-74900876D01*
X77897557Y-74911029D01*
X77876938Y-74917284D01*
X77849360Y-74920000D01*
X77390640Y-74920000D01*
X77363062Y-74917284D01*
X77342443Y-74911029D01*
X77323447Y-74900876D01*
X77306792Y-74887208D01*
X77293124Y-74870553D01*
X77282971Y-74851557D01*
X77276716Y-74830938D01*
X77274000Y-74803360D01*
X77274000Y-74294640D01*
X77276716Y-74267062D01*
X77282971Y-74246443D01*
X77293124Y-74227447D01*
X77306792Y-74210792D01*
X77323447Y-74197124D01*
X77342443Y-74186971D01*
X77363062Y-74180716D01*
X77390640Y-74178000D01*
X77849360Y-74178000D01*
X77876938Y-74180716D01*
X77876938Y-74180716D01*
G37*
G36*
X78823938Y-73037716D02*
G01*
X78844557Y-73043971D01*
X78863553Y-73054124D01*
X78880208Y-73067792D01*
X78893876Y-73084447D01*
X78904029Y-73103443D01*
X78910284Y-73124062D01*
X78913000Y-73151640D01*
X78913000Y-73660360D01*
X78910284Y-73687938D01*
X78904029Y-73708557D01*
X78893876Y-73727553D01*
X78880208Y-73744208D01*
X78863553Y-73757876D01*
X78844557Y-73768029D01*
X78823938Y-73774284D01*
X78796360Y-73777000D01*
X78337640Y-73777000D01*
X78310062Y-73774284D01*
X78289443Y-73768029D01*
X78270447Y-73757876D01*
X78253792Y-73744208D01*
X78240124Y-73727553D01*
X78229971Y-73708557D01*
X78223716Y-73687938D01*
X78221000Y-73660360D01*
X78221000Y-73151640D01*
X78223716Y-73124062D01*
X78229971Y-73103443D01*
X78240124Y-73084447D01*
X78253792Y-73067792D01*
X78270447Y-73054124D01*
X78289443Y-73043971D01*
X78310062Y-73037716D01*
X78337640Y-73035000D01*
X78796360Y-73035000D01*
X78823938Y-73037716D01*
X78823938Y-73037716D01*
G37*
G36*
X77853938Y-73037716D02*
G01*
X77874557Y-73043971D01*
X77893553Y-73054124D01*
X77910208Y-73067792D01*
X77923876Y-73084447D01*
X77934029Y-73103443D01*
X77940284Y-73124062D01*
X77943000Y-73151640D01*
X77943000Y-73660360D01*
X77940284Y-73687938D01*
X77934029Y-73708557D01*
X77923876Y-73727553D01*
X77910208Y-73744208D01*
X77893553Y-73757876D01*
X77874557Y-73768029D01*
X77853938Y-73774284D01*
X77826360Y-73777000D01*
X77367640Y-73777000D01*
X77340062Y-73774284D01*
X77319443Y-73768029D01*
X77300447Y-73757876D01*
X77283792Y-73744208D01*
X77270124Y-73727553D01*
X77259971Y-73708557D01*
X77253716Y-73687938D01*
X77251000Y-73660360D01*
X77251000Y-73151640D01*
X77253716Y-73124062D01*
X77259971Y-73103443D01*
X77270124Y-73084447D01*
X77283792Y-73067792D01*
X77300447Y-73054124D01*
X77319443Y-73043971D01*
X77340062Y-73037716D01*
X77367640Y-73035000D01*
X77826360Y-73035000D01*
X77853938Y-73037716D01*
X77853938Y-73037716D01*
G37*
G36*
X76735938Y-72912716D02*
G01*
X76756557Y-72918971D01*
X76775553Y-72929124D01*
X76792208Y-72942792D01*
X76805876Y-72959447D01*
X76816029Y-72978443D01*
X76822284Y-72999062D01*
X76825000Y-73026640D01*
X76825000Y-73485360D01*
X76822284Y-73512938D01*
X76816029Y-73533557D01*
X76805876Y-73552553D01*
X76792208Y-73569208D01*
X76775553Y-73582876D01*
X76756557Y-73593029D01*
X76735938Y-73599284D01*
X76708360Y-73602000D01*
X76199640Y-73602000D01*
X76172062Y-73599284D01*
X76151443Y-73593029D01*
X76132447Y-73582876D01*
X76115792Y-73569208D01*
X76102124Y-73552553D01*
X76091971Y-73533557D01*
X76085716Y-73512938D01*
X76083000Y-73485360D01*
X76083000Y-73026640D01*
X76085716Y-72999062D01*
X76091971Y-72978443D01*
X76102124Y-72959447D01*
X76115792Y-72942792D01*
X76132447Y-72929124D01*
X76151443Y-72918971D01*
X76172062Y-72912716D01*
X76199640Y-72910000D01*
X76708360Y-72910000D01*
X76735938Y-72912716D01*
X76735938Y-72912716D01*
G37*
G36*
X78846938Y-71894716D02*
G01*
X78867557Y-71900971D01*
X78886553Y-71911124D01*
X78903208Y-71924792D01*
X78916876Y-71941447D01*
X78927029Y-71960443D01*
X78933284Y-71981062D01*
X78936000Y-72008640D01*
X78936000Y-72517360D01*
X78933284Y-72544938D01*
X78927029Y-72565557D01*
X78916876Y-72584553D01*
X78903208Y-72601208D01*
X78886553Y-72614876D01*
X78867557Y-72625029D01*
X78846938Y-72631284D01*
X78819360Y-72634000D01*
X78360640Y-72634000D01*
X78333062Y-72631284D01*
X78312443Y-72625029D01*
X78293447Y-72614876D01*
X78276792Y-72601208D01*
X78263124Y-72584553D01*
X78252971Y-72565557D01*
X78246716Y-72544938D01*
X78244000Y-72517360D01*
X78244000Y-72008640D01*
X78246716Y-71981062D01*
X78252971Y-71960443D01*
X78263124Y-71941447D01*
X78276792Y-71924792D01*
X78293447Y-71911124D01*
X78312443Y-71900971D01*
X78333062Y-71894716D01*
X78360640Y-71892000D01*
X78819360Y-71892000D01*
X78846938Y-71894716D01*
X78846938Y-71894716D01*
G37*
G36*
X77876938Y-71894716D02*
G01*
X77897557Y-71900971D01*
X77916553Y-71911124D01*
X77933208Y-71924792D01*
X77946876Y-71941447D01*
X77957029Y-71960443D01*
X77963284Y-71981062D01*
X77966000Y-72008640D01*
X77966000Y-72517360D01*
X77963284Y-72544938D01*
X77957029Y-72565557D01*
X77946876Y-72584553D01*
X77933208Y-72601208D01*
X77916553Y-72614876D01*
X77897557Y-72625029D01*
X77876938Y-72631284D01*
X77849360Y-72634000D01*
X77390640Y-72634000D01*
X77363062Y-72631284D01*
X77342443Y-72625029D01*
X77323447Y-72614876D01*
X77306792Y-72601208D01*
X77293124Y-72584553D01*
X77282971Y-72565557D01*
X77276716Y-72544938D01*
X77274000Y-72517360D01*
X77274000Y-72008640D01*
X77276716Y-71981062D01*
X77282971Y-71960443D01*
X77293124Y-71941447D01*
X77306792Y-71924792D01*
X77323447Y-71911124D01*
X77342443Y-71900971D01*
X77363062Y-71894716D01*
X77390640Y-71892000D01*
X77849360Y-71892000D01*
X77876938Y-71894716D01*
X77876938Y-71894716D01*
G37*
G36*
X76735938Y-71942716D02*
G01*
X76756557Y-71948971D01*
X76775553Y-71959124D01*
X76792208Y-71972792D01*
X76805876Y-71989447D01*
X76816029Y-72008443D01*
X76822284Y-72029062D01*
X76825000Y-72056640D01*
X76825000Y-72515360D01*
X76822284Y-72542938D01*
X76816029Y-72563557D01*
X76805876Y-72582553D01*
X76792208Y-72599208D01*
X76775553Y-72612876D01*
X76756557Y-72623029D01*
X76735938Y-72629284D01*
X76708360Y-72632000D01*
X76199640Y-72632000D01*
X76172062Y-72629284D01*
X76151443Y-72623029D01*
X76132447Y-72612876D01*
X76115792Y-72599208D01*
X76102124Y-72582553D01*
X76091971Y-72563557D01*
X76085716Y-72542938D01*
X76083000Y-72515360D01*
X76083000Y-72056640D01*
X76085716Y-72029062D01*
X76091971Y-72008443D01*
X76102124Y-71989447D01*
X76115792Y-71972792D01*
X76132447Y-71959124D01*
X76151443Y-71948971D01*
X76172062Y-71942716D01*
X76199640Y-71940000D01*
X76708360Y-71940000D01*
X76735938Y-71942716D01*
X76735938Y-71942716D01*
G37*
G36*
X62687738Y-71589916D02*
G01*
X62708357Y-71596171D01*
X62727353Y-71606324D01*
X62744008Y-71619992D01*
X62757676Y-71636647D01*
X62767829Y-71655643D01*
X62774084Y-71676262D01*
X62776800Y-71703840D01*
X62776800Y-72212560D01*
X62774084Y-72240138D01*
X62767829Y-72260757D01*
X62757676Y-72279753D01*
X62744008Y-72296408D01*
X62727353Y-72310076D01*
X62708357Y-72320229D01*
X62687738Y-72326484D01*
X62660160Y-72329200D01*
X62201440Y-72329200D01*
X62173862Y-72326484D01*
X62153243Y-72320229D01*
X62134247Y-72310076D01*
X62117592Y-72296408D01*
X62103924Y-72279753D01*
X62093771Y-72260757D01*
X62087516Y-72240138D01*
X62084800Y-72212560D01*
X62084800Y-71703840D01*
X62087516Y-71676262D01*
X62093771Y-71655643D01*
X62103924Y-71636647D01*
X62117592Y-71619992D01*
X62134247Y-71606324D01*
X62153243Y-71596171D01*
X62173862Y-71589916D01*
X62201440Y-71587200D01*
X62660160Y-71587200D01*
X62687738Y-71589916D01*
X62687738Y-71589916D01*
G37*
G36*
X63657738Y-71589916D02*
G01*
X63678357Y-71596171D01*
X63697353Y-71606324D01*
X63714008Y-71619992D01*
X63727676Y-71636647D01*
X63737829Y-71655643D01*
X63744084Y-71676262D01*
X63746800Y-71703840D01*
X63746800Y-72212560D01*
X63744084Y-72240138D01*
X63737829Y-72260757D01*
X63727676Y-72279753D01*
X63714008Y-72296408D01*
X63697353Y-72310076D01*
X63678357Y-72320229D01*
X63657738Y-72326484D01*
X63630160Y-72329200D01*
X63171440Y-72329200D01*
X63143862Y-72326484D01*
X63123243Y-72320229D01*
X63104247Y-72310076D01*
X63087592Y-72296408D01*
X63073924Y-72279753D01*
X63063771Y-72260757D01*
X63057516Y-72240138D01*
X63054800Y-72212560D01*
X63054800Y-71703840D01*
X63057516Y-71676262D01*
X63063771Y-71655643D01*
X63073924Y-71636647D01*
X63087592Y-71619992D01*
X63104247Y-71606324D01*
X63123243Y-71596171D01*
X63143862Y-71589916D01*
X63171440Y-71587200D01*
X63630160Y-71587200D01*
X63657738Y-71589916D01*
X63657738Y-71589916D01*
G37*
G36*
X74754998Y-71409576D02*
G01*
X74775617Y-71415831D01*
X74794613Y-71425984D01*
X74811268Y-71439652D01*
X74824936Y-71456307D01*
X74835089Y-71475303D01*
X74841344Y-71495922D01*
X74844060Y-71523500D01*
X74844060Y-72032220D01*
X74841344Y-72059798D01*
X74835089Y-72080417D01*
X74824936Y-72099413D01*
X74811268Y-72116068D01*
X74794613Y-72129736D01*
X74775617Y-72139889D01*
X74754998Y-72146144D01*
X74727420Y-72148860D01*
X74268700Y-72148860D01*
X74241122Y-72146144D01*
X74220503Y-72139889D01*
X74201507Y-72129736D01*
X74184852Y-72116068D01*
X74171184Y-72099413D01*
X74161031Y-72080417D01*
X74154776Y-72059798D01*
X74152060Y-72032220D01*
X74152060Y-71523500D01*
X74154776Y-71495922D01*
X74161031Y-71475303D01*
X74171184Y-71456307D01*
X74184852Y-71439652D01*
X74201507Y-71425984D01*
X74220503Y-71415831D01*
X74241122Y-71409576D01*
X74268700Y-71406860D01*
X74727420Y-71406860D01*
X74754998Y-71409576D01*
X74754998Y-71409576D01*
G37*
G36*
X73784998Y-71409576D02*
G01*
X73805617Y-71415831D01*
X73824613Y-71425984D01*
X73841268Y-71439652D01*
X73854936Y-71456307D01*
X73865089Y-71475303D01*
X73871344Y-71495922D01*
X73874060Y-71523500D01*
X73874060Y-72032220D01*
X73871344Y-72059798D01*
X73865089Y-72080417D01*
X73854936Y-72099413D01*
X73841268Y-72116068D01*
X73824613Y-72129736D01*
X73805617Y-72139889D01*
X73784998Y-72146144D01*
X73757420Y-72148860D01*
X73298700Y-72148860D01*
X73271122Y-72146144D01*
X73250503Y-72139889D01*
X73231507Y-72129736D01*
X73214852Y-72116068D01*
X73201184Y-72099413D01*
X73191031Y-72080417D01*
X73184776Y-72059798D01*
X73182060Y-72032220D01*
X73182060Y-71523500D01*
X73184776Y-71495922D01*
X73191031Y-71475303D01*
X73201184Y-71456307D01*
X73214852Y-71439652D01*
X73231507Y-71425984D01*
X73250503Y-71415831D01*
X73271122Y-71409576D01*
X73298700Y-71406860D01*
X73757420Y-71406860D01*
X73784998Y-71409576D01*
X73784998Y-71409576D01*
G37*
G36*
X71857138Y-70548516D02*
G01*
X71877757Y-70554771D01*
X71896753Y-70564924D01*
X71913408Y-70578592D01*
X71927076Y-70595247D01*
X71937229Y-70614243D01*
X71943484Y-70634862D01*
X71946200Y-70662440D01*
X71946200Y-71171160D01*
X71943484Y-71198738D01*
X71937229Y-71219357D01*
X71927076Y-71238353D01*
X71913408Y-71255008D01*
X71896753Y-71268676D01*
X71877757Y-71278829D01*
X71857138Y-71285084D01*
X71829560Y-71287800D01*
X71370840Y-71287800D01*
X71343262Y-71285084D01*
X71322643Y-71278829D01*
X71303647Y-71268676D01*
X71286992Y-71255008D01*
X71273324Y-71238353D01*
X71263171Y-71219357D01*
X71256916Y-71198738D01*
X71254200Y-71171160D01*
X71254200Y-70662440D01*
X71256916Y-70634862D01*
X71263171Y-70614243D01*
X71273324Y-70595247D01*
X71286992Y-70578592D01*
X71303647Y-70564924D01*
X71322643Y-70554771D01*
X71343262Y-70548516D01*
X71370840Y-70545800D01*
X71829560Y-70545800D01*
X71857138Y-70548516D01*
X71857138Y-70548516D01*
G37*
G36*
X72827138Y-70548516D02*
G01*
X72847757Y-70554771D01*
X72866753Y-70564924D01*
X72883408Y-70578592D01*
X72897076Y-70595247D01*
X72907229Y-70614243D01*
X72913484Y-70634862D01*
X72916200Y-70662440D01*
X72916200Y-71171160D01*
X72913484Y-71198738D01*
X72907229Y-71219357D01*
X72897076Y-71238353D01*
X72883408Y-71255008D01*
X72866753Y-71268676D01*
X72847757Y-71278829D01*
X72827138Y-71285084D01*
X72799560Y-71287800D01*
X72340840Y-71287800D01*
X72313262Y-71285084D01*
X72292643Y-71278829D01*
X72273647Y-71268676D01*
X72256992Y-71255008D01*
X72243324Y-71238353D01*
X72233171Y-71219357D01*
X72226916Y-71198738D01*
X72224200Y-71171160D01*
X72224200Y-70662440D01*
X72226916Y-70634862D01*
X72233171Y-70614243D01*
X72243324Y-70595247D01*
X72256992Y-70578592D01*
X72273647Y-70564924D01*
X72292643Y-70554771D01*
X72313262Y-70548516D01*
X72340840Y-70545800D01*
X72799560Y-70545800D01*
X72827138Y-70548516D01*
X72827138Y-70548516D01*
G37*
G36*
X62690138Y-70523116D02*
G01*
X62710757Y-70529371D01*
X62729753Y-70539524D01*
X62746408Y-70553192D01*
X62760076Y-70569847D01*
X62770229Y-70588843D01*
X62776484Y-70609462D01*
X62779200Y-70637040D01*
X62779200Y-71145760D01*
X62776484Y-71173338D01*
X62770229Y-71193957D01*
X62760076Y-71212953D01*
X62746408Y-71229608D01*
X62729753Y-71243276D01*
X62710757Y-71253429D01*
X62690138Y-71259684D01*
X62662560Y-71262400D01*
X62203840Y-71262400D01*
X62176262Y-71259684D01*
X62155643Y-71253429D01*
X62136647Y-71243276D01*
X62119992Y-71229608D01*
X62106324Y-71212953D01*
X62096171Y-71193957D01*
X62089916Y-71173338D01*
X62087200Y-71145760D01*
X62087200Y-70637040D01*
X62089916Y-70609462D01*
X62096171Y-70588843D01*
X62106324Y-70569847D01*
X62119992Y-70553192D01*
X62136647Y-70539524D01*
X62155643Y-70529371D01*
X62176262Y-70523116D01*
X62203840Y-70520400D01*
X62662560Y-70520400D01*
X62690138Y-70523116D01*
X62690138Y-70523116D01*
G37*
G36*
X63660138Y-70523116D02*
G01*
X63680757Y-70529371D01*
X63699753Y-70539524D01*
X63716408Y-70553192D01*
X63730076Y-70569847D01*
X63740229Y-70588843D01*
X63746484Y-70609462D01*
X63749200Y-70637040D01*
X63749200Y-71145760D01*
X63746484Y-71173338D01*
X63740229Y-71193957D01*
X63730076Y-71212953D01*
X63716408Y-71229608D01*
X63699753Y-71243276D01*
X63680757Y-71253429D01*
X63660138Y-71259684D01*
X63632560Y-71262400D01*
X63173840Y-71262400D01*
X63146262Y-71259684D01*
X63125643Y-71253429D01*
X63106647Y-71243276D01*
X63089992Y-71229608D01*
X63076324Y-71212953D01*
X63066171Y-71193957D01*
X63059916Y-71173338D01*
X63057200Y-71145760D01*
X63057200Y-70637040D01*
X63059916Y-70609462D01*
X63066171Y-70588843D01*
X63076324Y-70569847D01*
X63089992Y-70553192D01*
X63106647Y-70539524D01*
X63125643Y-70529371D01*
X63146262Y-70523116D01*
X63173840Y-70520400D01*
X63632560Y-70520400D01*
X63660138Y-70523116D01*
X63660138Y-70523116D01*
G37*
G36*
X77745880Y-66339776D02*
G01*
X78126593Y-66415504D01*
X78536249Y-66585189D01*
X78904929Y-66831534D01*
X79218466Y-67145071D01*
X79464811Y-67513751D01*
X79634496Y-67923407D01*
X79721000Y-68358296D01*
X79721000Y-68801704D01*
X79634496Y-69236593D01*
X79464811Y-69646249D01*
X79218466Y-70014929D01*
X78904929Y-70328466D01*
X78536249Y-70574811D01*
X78126593Y-70744496D01*
X77745880Y-70820224D01*
X77691705Y-70831000D01*
X77248295Y-70831000D01*
X77194120Y-70820224D01*
X76813407Y-70744496D01*
X76403751Y-70574811D01*
X76035071Y-70328466D01*
X75721534Y-70014929D01*
X75475189Y-69646249D01*
X75305504Y-69236593D01*
X75219000Y-68801704D01*
X75219000Y-68358296D01*
X75305504Y-67923407D01*
X75475189Y-67513751D01*
X75721534Y-67145071D01*
X76035071Y-66831534D01*
X76403751Y-66585189D01*
X76813407Y-66415504D01*
X77194120Y-66339776D01*
X77248295Y-66329000D01*
X77691705Y-66329000D01*
X77745880Y-66339776D01*
X77745880Y-66339776D01*
G37*
G36*
X73843138Y-69430916D02*
G01*
X73863757Y-69437171D01*
X73882753Y-69447324D01*
X73899408Y-69460992D01*
X73913076Y-69477647D01*
X73923229Y-69496643D01*
X73929484Y-69517262D01*
X73932200Y-69544840D01*
X73932200Y-70053560D01*
X73929484Y-70081138D01*
X73923229Y-70101757D01*
X73913076Y-70120753D01*
X73899408Y-70137408D01*
X73882753Y-70151076D01*
X73863757Y-70161229D01*
X73843138Y-70167484D01*
X73815560Y-70170200D01*
X73356840Y-70170200D01*
X73329262Y-70167484D01*
X73308643Y-70161229D01*
X73289647Y-70151076D01*
X73272992Y-70137408D01*
X73259324Y-70120753D01*
X73249171Y-70101757D01*
X73242916Y-70081138D01*
X73240200Y-70053560D01*
X73240200Y-69544840D01*
X73242916Y-69517262D01*
X73249171Y-69496643D01*
X73259324Y-69477647D01*
X73272992Y-69460992D01*
X73289647Y-69447324D01*
X73308643Y-69437171D01*
X73329262Y-69430916D01*
X73356840Y-69428200D01*
X73815560Y-69428200D01*
X73843138Y-69430916D01*
X73843138Y-69430916D01*
G37*
G36*
X72873138Y-69430916D02*
G01*
X72893757Y-69437171D01*
X72912753Y-69447324D01*
X72929408Y-69460992D01*
X72943076Y-69477647D01*
X72953229Y-69496643D01*
X72959484Y-69517262D01*
X72962200Y-69544840D01*
X72962200Y-70053560D01*
X72959484Y-70081138D01*
X72953229Y-70101757D01*
X72943076Y-70120753D01*
X72929408Y-70137408D01*
X72912753Y-70151076D01*
X72893757Y-70161229D01*
X72873138Y-70167484D01*
X72845560Y-70170200D01*
X72386840Y-70170200D01*
X72359262Y-70167484D01*
X72338643Y-70161229D01*
X72319647Y-70151076D01*
X72302992Y-70137408D01*
X72289324Y-70120753D01*
X72279171Y-70101757D01*
X72272916Y-70081138D01*
X72270200Y-70053560D01*
X72270200Y-69544840D01*
X72272916Y-69517262D01*
X72279171Y-69496643D01*
X72289324Y-69477647D01*
X72302992Y-69460992D01*
X72319647Y-69447324D01*
X72338643Y-69437171D01*
X72359262Y-69430916D01*
X72386840Y-69428200D01*
X72845560Y-69428200D01*
X72873138Y-69430916D01*
X72873138Y-69430916D01*
G37*
G36*
X68485000Y-69904400D02*
G01*
X67083000Y-69904400D01*
X67083000Y-68702400D01*
X68485000Y-68702400D01*
X68485000Y-69904400D01*
X68485000Y-69904400D01*
G37*
G36*
X70585000Y-69904400D02*
G01*
X69183000Y-69904400D01*
X69183000Y-68702400D01*
X70585000Y-68702400D01*
X70585000Y-69904400D01*
X70585000Y-69904400D01*
G37*
G36*
X71757538Y-69128116D02*
G01*
X71778157Y-69134371D01*
X71797153Y-69144524D01*
X71813808Y-69158192D01*
X71827476Y-69174847D01*
X71837629Y-69193843D01*
X71843884Y-69214462D01*
X71846600Y-69242040D01*
X71846600Y-69700760D01*
X71843884Y-69728338D01*
X71837629Y-69748957D01*
X71827476Y-69767953D01*
X71813808Y-69784608D01*
X71797153Y-69798276D01*
X71778157Y-69808429D01*
X71757538Y-69814684D01*
X71729960Y-69817400D01*
X71221240Y-69817400D01*
X71193662Y-69814684D01*
X71173043Y-69808429D01*
X71154047Y-69798276D01*
X71137392Y-69784608D01*
X71123724Y-69767953D01*
X71113571Y-69748957D01*
X71107316Y-69728338D01*
X71104600Y-69700760D01*
X71104600Y-69242040D01*
X71107316Y-69214462D01*
X71113571Y-69193843D01*
X71123724Y-69174847D01*
X71137392Y-69158192D01*
X71154047Y-69144524D01*
X71173043Y-69134371D01*
X71193662Y-69128116D01*
X71221240Y-69125400D01*
X71729960Y-69125400D01*
X71757538Y-69128116D01*
X71757538Y-69128116D01*
G37*
G36*
X66426338Y-69024516D02*
G01*
X66446957Y-69030771D01*
X66465953Y-69040924D01*
X66482608Y-69054592D01*
X66496276Y-69071247D01*
X66506429Y-69090243D01*
X66512684Y-69110862D01*
X66515400Y-69138440D01*
X66515400Y-69647160D01*
X66512684Y-69674738D01*
X66506429Y-69695357D01*
X66496276Y-69714353D01*
X66482608Y-69731008D01*
X66465953Y-69744676D01*
X66446957Y-69754829D01*
X66426338Y-69761084D01*
X66398760Y-69763800D01*
X65940040Y-69763800D01*
X65912462Y-69761084D01*
X65891843Y-69754829D01*
X65872847Y-69744676D01*
X65856192Y-69731008D01*
X65842524Y-69714353D01*
X65832371Y-69695357D01*
X65826116Y-69674738D01*
X65823400Y-69647160D01*
X65823400Y-69138440D01*
X65826116Y-69110862D01*
X65832371Y-69090243D01*
X65842524Y-69071247D01*
X65856192Y-69054592D01*
X65872847Y-69040924D01*
X65891843Y-69030771D01*
X65912462Y-69024516D01*
X65940040Y-69021800D01*
X66398760Y-69021800D01*
X66426338Y-69024516D01*
X66426338Y-69024516D01*
G37*
G36*
X65456338Y-69024516D02*
G01*
X65476957Y-69030771D01*
X65495953Y-69040924D01*
X65512608Y-69054592D01*
X65526276Y-69071247D01*
X65536429Y-69090243D01*
X65542684Y-69110862D01*
X65545400Y-69138440D01*
X65545400Y-69647160D01*
X65542684Y-69674738D01*
X65536429Y-69695357D01*
X65526276Y-69714353D01*
X65512608Y-69731008D01*
X65495953Y-69744676D01*
X65476957Y-69754829D01*
X65456338Y-69761084D01*
X65428760Y-69763800D01*
X64970040Y-69763800D01*
X64942462Y-69761084D01*
X64921843Y-69754829D01*
X64902847Y-69744676D01*
X64886192Y-69731008D01*
X64872524Y-69714353D01*
X64862371Y-69695357D01*
X64856116Y-69674738D01*
X64853400Y-69647160D01*
X64853400Y-69138440D01*
X64856116Y-69110862D01*
X64862371Y-69090243D01*
X64872524Y-69071247D01*
X64886192Y-69054592D01*
X64902847Y-69040924D01*
X64921843Y-69030771D01*
X64942462Y-69024516D01*
X64970040Y-69021800D01*
X65428760Y-69021800D01*
X65456338Y-69024516D01*
X65456338Y-69024516D01*
G37*
G36*
X62454221Y-68304174D02*
G01*
X62554495Y-68345709D01*
X62599312Y-68375655D01*
X62644742Y-68406010D01*
X62721490Y-68482758D01*
X62721491Y-68482760D01*
X62781791Y-68573005D01*
X62823326Y-68673279D01*
X62844500Y-68779730D01*
X62844500Y-68888270D01*
X62823326Y-68994721D01*
X62781791Y-69094995D01*
X62771189Y-69110862D01*
X62721490Y-69185242D01*
X62644742Y-69261990D01*
X62640762Y-69264649D01*
X62554495Y-69322291D01*
X62454221Y-69363826D01*
X62347770Y-69385000D01*
X62239230Y-69385000D01*
X62132779Y-69363826D01*
X62032505Y-69322291D01*
X61946238Y-69264649D01*
X61942258Y-69261990D01*
X61865510Y-69185242D01*
X61815811Y-69110862D01*
X61805209Y-69094995D01*
X61763674Y-68994721D01*
X61742500Y-68888270D01*
X61742500Y-68779730D01*
X61763674Y-68673279D01*
X61805209Y-68573005D01*
X61865509Y-68482760D01*
X61865510Y-68482758D01*
X61942258Y-68406010D01*
X61987688Y-68375655D01*
X62032505Y-68345709D01*
X62132779Y-68304174D01*
X62239230Y-68283000D01*
X62347770Y-68283000D01*
X62454221Y-68304174D01*
X62454221Y-68304174D01*
G37*
G36*
X71757538Y-68158116D02*
G01*
X71778157Y-68164371D01*
X71797153Y-68174524D01*
X71813808Y-68188192D01*
X71827476Y-68204847D01*
X71837629Y-68223843D01*
X71843884Y-68244462D01*
X71846600Y-68272040D01*
X71846600Y-68730760D01*
X71843884Y-68758338D01*
X71837629Y-68778957D01*
X71827476Y-68797953D01*
X71813808Y-68814608D01*
X71797153Y-68828276D01*
X71778157Y-68838429D01*
X71757538Y-68844684D01*
X71729960Y-68847400D01*
X71221240Y-68847400D01*
X71193662Y-68844684D01*
X71173043Y-68838429D01*
X71154047Y-68828276D01*
X71137392Y-68814608D01*
X71123724Y-68797953D01*
X71113571Y-68778957D01*
X71107316Y-68758338D01*
X71104600Y-68730760D01*
X71104600Y-68272040D01*
X71107316Y-68244462D01*
X71113571Y-68223843D01*
X71123724Y-68204847D01*
X71137392Y-68188192D01*
X71154047Y-68174524D01*
X71173043Y-68164371D01*
X71193662Y-68158116D01*
X71221240Y-68155400D01*
X71729960Y-68155400D01*
X71757538Y-68158116D01*
X71757538Y-68158116D01*
G37*
G36*
X68485000Y-68254400D02*
G01*
X67083000Y-68254400D01*
X67083000Y-67052400D01*
X68485000Y-67052400D01*
X68485000Y-68254400D01*
X68485000Y-68254400D01*
G37*
G36*
X70585000Y-68254400D02*
G01*
X69183000Y-68254400D01*
X69183000Y-67052400D01*
X70585000Y-67052400D01*
X70585000Y-68254400D01*
X70585000Y-68254400D01*
G37*
G36*
X123487438Y-67513216D02*
G01*
X123508057Y-67519471D01*
X123527053Y-67529624D01*
X123543708Y-67543292D01*
X123557376Y-67559947D01*
X123567529Y-67578943D01*
X123573784Y-67599562D01*
X123576500Y-67627140D01*
X123576500Y-68135860D01*
X123573784Y-68163438D01*
X123567529Y-68184057D01*
X123557376Y-68203053D01*
X123543708Y-68219708D01*
X123527053Y-68233376D01*
X123508057Y-68243529D01*
X123487438Y-68249784D01*
X123459860Y-68252500D01*
X123001140Y-68252500D01*
X122973562Y-68249784D01*
X122952943Y-68243529D01*
X122933947Y-68233376D01*
X122917292Y-68219708D01*
X122903624Y-68203053D01*
X122893471Y-68184057D01*
X122887216Y-68163438D01*
X122884500Y-68135860D01*
X122884500Y-67627140D01*
X122887216Y-67599562D01*
X122893471Y-67578943D01*
X122903624Y-67559947D01*
X122917292Y-67543292D01*
X122933947Y-67529624D01*
X122952943Y-67519471D01*
X122973562Y-67513216D01*
X123001140Y-67510500D01*
X123459860Y-67510500D01*
X123487438Y-67513216D01*
X123487438Y-67513216D01*
G37*
G36*
X122517438Y-67513216D02*
G01*
X122538057Y-67519471D01*
X122557053Y-67529624D01*
X122573708Y-67543292D01*
X122587376Y-67559947D01*
X122597529Y-67578943D01*
X122603784Y-67599562D01*
X122606500Y-67627140D01*
X122606500Y-68135860D01*
X122603784Y-68163438D01*
X122597529Y-68184057D01*
X122587376Y-68203053D01*
X122573708Y-68219708D01*
X122557053Y-68233376D01*
X122538057Y-68243529D01*
X122517438Y-68249784D01*
X122489860Y-68252500D01*
X122031140Y-68252500D01*
X122003562Y-68249784D01*
X121982943Y-68243529D01*
X121963947Y-68233376D01*
X121947292Y-68219708D01*
X121933624Y-68203053D01*
X121923471Y-68184057D01*
X121917216Y-68163438D01*
X121914500Y-68135860D01*
X121914500Y-67627140D01*
X121917216Y-67599562D01*
X121923471Y-67578943D01*
X121933624Y-67559947D01*
X121947292Y-67543292D01*
X121963947Y-67529624D01*
X121982943Y-67519471D01*
X122003562Y-67513216D01*
X122031140Y-67510500D01*
X122489860Y-67510500D01*
X122517438Y-67513216D01*
X122517438Y-67513216D01*
G37*
G36*
X74160721Y-66870174D02*
G01*
X74260995Y-66911709D01*
X74260996Y-66911710D01*
X74351242Y-66972010D01*
X74427990Y-67048758D01*
X74427991Y-67048760D01*
X74488291Y-67139005D01*
X74529826Y-67239279D01*
X74551000Y-67345730D01*
X74551000Y-67454270D01*
X74529826Y-67560721D01*
X74488291Y-67660995D01*
X74458345Y-67705812D01*
X74427990Y-67751242D01*
X74351242Y-67827990D01*
X74305812Y-67858345D01*
X74260995Y-67888291D01*
X74160721Y-67929826D01*
X74054270Y-67951000D01*
X73945730Y-67951000D01*
X73839279Y-67929826D01*
X73739005Y-67888291D01*
X73694188Y-67858345D01*
X73648758Y-67827990D01*
X73572010Y-67751242D01*
X73541655Y-67705812D01*
X73511709Y-67660995D01*
X73470174Y-67560721D01*
X73449000Y-67454270D01*
X73449000Y-67345730D01*
X73470174Y-67239279D01*
X73511709Y-67139005D01*
X73572009Y-67048760D01*
X73572010Y-67048758D01*
X73648758Y-66972010D01*
X73739004Y-66911710D01*
X73739005Y-66911709D01*
X73839279Y-66870174D01*
X73945730Y-66849000D01*
X74054270Y-66849000D01*
X74160721Y-66870174D01*
X74160721Y-66870174D01*
G37*
G36*
X66426338Y-67144916D02*
G01*
X66446957Y-67151171D01*
X66465953Y-67161324D01*
X66482608Y-67174992D01*
X66496276Y-67191647D01*
X66506429Y-67210643D01*
X66512684Y-67231262D01*
X66515400Y-67258840D01*
X66515400Y-67767560D01*
X66512684Y-67795138D01*
X66506429Y-67815757D01*
X66496276Y-67834753D01*
X66482608Y-67851408D01*
X66465953Y-67865076D01*
X66446957Y-67875229D01*
X66426338Y-67881484D01*
X66398760Y-67884200D01*
X65940040Y-67884200D01*
X65912462Y-67881484D01*
X65891843Y-67875229D01*
X65872847Y-67865076D01*
X65856192Y-67851408D01*
X65842524Y-67834753D01*
X65832371Y-67815757D01*
X65826116Y-67795138D01*
X65823400Y-67767560D01*
X65823400Y-67258840D01*
X65826116Y-67231262D01*
X65832371Y-67210643D01*
X65842524Y-67191647D01*
X65856192Y-67174992D01*
X65872847Y-67161324D01*
X65891843Y-67151171D01*
X65912462Y-67144916D01*
X65940040Y-67142200D01*
X66398760Y-67142200D01*
X66426338Y-67144916D01*
X66426338Y-67144916D01*
G37*
G36*
X65456338Y-67144916D02*
G01*
X65476957Y-67151171D01*
X65495953Y-67161324D01*
X65512608Y-67174992D01*
X65526276Y-67191647D01*
X65536429Y-67210643D01*
X65542684Y-67231262D01*
X65545400Y-67258840D01*
X65545400Y-67767560D01*
X65542684Y-67795138D01*
X65536429Y-67815757D01*
X65526276Y-67834753D01*
X65512608Y-67851408D01*
X65495953Y-67865076D01*
X65476957Y-67875229D01*
X65456338Y-67881484D01*
X65428760Y-67884200D01*
X64970040Y-67884200D01*
X64942462Y-67881484D01*
X64921843Y-67875229D01*
X64902847Y-67865076D01*
X64886192Y-67851408D01*
X64872524Y-67834753D01*
X64862371Y-67815757D01*
X64856116Y-67795138D01*
X64853400Y-67767560D01*
X64853400Y-67258840D01*
X64856116Y-67231262D01*
X64862371Y-67210643D01*
X64872524Y-67191647D01*
X64886192Y-67174992D01*
X64902847Y-67161324D01*
X64921843Y-67151171D01*
X64942462Y-67144916D01*
X64970040Y-67142200D01*
X65428760Y-67142200D01*
X65456338Y-67144916D01*
X65456338Y-67144916D01*
G37*
G36*
X61438221Y-66208674D02*
G01*
X61538495Y-66250209D01*
X61538496Y-66250210D01*
X61628742Y-66310510D01*
X61705490Y-66387258D01*
X61705491Y-66387260D01*
X61765791Y-66477505D01*
X61807326Y-66577779D01*
X61828500Y-66684230D01*
X61828500Y-66792770D01*
X61807326Y-66899221D01*
X61765791Y-66999495D01*
X61740711Y-67037029D01*
X61705490Y-67089742D01*
X61628742Y-67166490D01*
X61600109Y-67185622D01*
X61538495Y-67226791D01*
X61438221Y-67268326D01*
X61331770Y-67289500D01*
X61223230Y-67289500D01*
X61116779Y-67268326D01*
X61016505Y-67226791D01*
X60954891Y-67185622D01*
X60926258Y-67166490D01*
X60849510Y-67089742D01*
X60814289Y-67037029D01*
X60789209Y-66999495D01*
X60747674Y-66899221D01*
X60726500Y-66792770D01*
X60726500Y-66684230D01*
X60747674Y-66577779D01*
X60789209Y-66477505D01*
X60849509Y-66387260D01*
X60849510Y-66387258D01*
X60926258Y-66310510D01*
X61016504Y-66250210D01*
X61016505Y-66250209D01*
X61116779Y-66208674D01*
X61223230Y-66187500D01*
X61331770Y-66187500D01*
X61438221Y-66208674D01*
X61438221Y-66208674D01*
G37*
G36*
X116035521Y-66119774D02*
G01*
X116135795Y-66161309D01*
X116135796Y-66161310D01*
X116226042Y-66221610D01*
X116302790Y-66298358D01*
X116312554Y-66312971D01*
X116363091Y-66388605D01*
X116404626Y-66488879D01*
X116425800Y-66595330D01*
X116425800Y-66703870D01*
X116404626Y-66810321D01*
X116363091Y-66910595D01*
X116343975Y-66939204D01*
X116302790Y-67000842D01*
X116226042Y-67077590D01*
X116207858Y-67089740D01*
X116135795Y-67137891D01*
X116035521Y-67179426D01*
X115929070Y-67200600D01*
X115820530Y-67200600D01*
X115714079Y-67179426D01*
X115613805Y-67137891D01*
X115541742Y-67089740D01*
X115523558Y-67077590D01*
X115446810Y-67000842D01*
X115405625Y-66939204D01*
X115386509Y-66910595D01*
X115344974Y-66810321D01*
X115323800Y-66703870D01*
X115323800Y-66595330D01*
X115344974Y-66488879D01*
X115386509Y-66388605D01*
X115437046Y-66312971D01*
X115446810Y-66298358D01*
X115523558Y-66221610D01*
X115613804Y-66161310D01*
X115613805Y-66161309D01*
X115714079Y-66119774D01*
X115820530Y-66098600D01*
X115929070Y-66098600D01*
X116035521Y-66119774D01*
X116035521Y-66119774D01*
G37*
G36*
X123510438Y-66306716D02*
G01*
X123531057Y-66312971D01*
X123550053Y-66323124D01*
X123566708Y-66336792D01*
X123580376Y-66353447D01*
X123590529Y-66372443D01*
X123596784Y-66393062D01*
X123599500Y-66420640D01*
X123599500Y-66929360D01*
X123596784Y-66956938D01*
X123590529Y-66977557D01*
X123580376Y-66996553D01*
X123566708Y-67013208D01*
X123550053Y-67026876D01*
X123531057Y-67037029D01*
X123510438Y-67043284D01*
X123482860Y-67046000D01*
X123024140Y-67046000D01*
X122996562Y-67043284D01*
X122975943Y-67037029D01*
X122956947Y-67026876D01*
X122940292Y-67013208D01*
X122926624Y-66996553D01*
X122916471Y-66977557D01*
X122910216Y-66956938D01*
X122907500Y-66929360D01*
X122907500Y-66420640D01*
X122910216Y-66393062D01*
X122916471Y-66372443D01*
X122926624Y-66353447D01*
X122940292Y-66336792D01*
X122956947Y-66323124D01*
X122975943Y-66312971D01*
X122996562Y-66306716D01*
X123024140Y-66304000D01*
X123482860Y-66304000D01*
X123510438Y-66306716D01*
X123510438Y-66306716D01*
G37*
G36*
X122540438Y-66306716D02*
G01*
X122561057Y-66312971D01*
X122580053Y-66323124D01*
X122596708Y-66336792D01*
X122610376Y-66353447D01*
X122620529Y-66372443D01*
X122626784Y-66393062D01*
X122629500Y-66420640D01*
X122629500Y-66929360D01*
X122626784Y-66956938D01*
X122620529Y-66977557D01*
X122610376Y-66996553D01*
X122596708Y-67013208D01*
X122580053Y-67026876D01*
X122561057Y-67037029D01*
X122540438Y-67043284D01*
X122512860Y-67046000D01*
X122054140Y-67046000D01*
X122026562Y-67043284D01*
X122005943Y-67037029D01*
X121986947Y-67026876D01*
X121970292Y-67013208D01*
X121956624Y-66996553D01*
X121946471Y-66977557D01*
X121940216Y-66956938D01*
X121937500Y-66929360D01*
X121937500Y-66420640D01*
X121940216Y-66393062D01*
X121946471Y-66372443D01*
X121956624Y-66353447D01*
X121970292Y-66336792D01*
X121986947Y-66323124D01*
X122005943Y-66312971D01*
X122026562Y-66306716D01*
X122054140Y-66304000D01*
X122512860Y-66304000D01*
X122540438Y-66306716D01*
X122540438Y-66306716D01*
G37*
G36*
X66426338Y-65874916D02*
G01*
X66446957Y-65881171D01*
X66465953Y-65891324D01*
X66482608Y-65904992D01*
X66496276Y-65921647D01*
X66506429Y-65940643D01*
X66512684Y-65961262D01*
X66515400Y-65988840D01*
X66515400Y-66497560D01*
X66512684Y-66525138D01*
X66506429Y-66545757D01*
X66496276Y-66564753D01*
X66482608Y-66581408D01*
X66465953Y-66595076D01*
X66446957Y-66605229D01*
X66426338Y-66611484D01*
X66398760Y-66614200D01*
X65940040Y-66614200D01*
X65912462Y-66611484D01*
X65891843Y-66605229D01*
X65872847Y-66595076D01*
X65856192Y-66581408D01*
X65842524Y-66564753D01*
X65832371Y-66545757D01*
X65826116Y-66525138D01*
X65823400Y-66497560D01*
X65823400Y-65988840D01*
X65826116Y-65961262D01*
X65832371Y-65940643D01*
X65842524Y-65921647D01*
X65856192Y-65904992D01*
X65872847Y-65891324D01*
X65891843Y-65881171D01*
X65912462Y-65874916D01*
X65940040Y-65872200D01*
X66398760Y-65872200D01*
X66426338Y-65874916D01*
X66426338Y-65874916D01*
G37*
G36*
X65456338Y-65874916D02*
G01*
X65476957Y-65881171D01*
X65495953Y-65891324D01*
X65512608Y-65904992D01*
X65526276Y-65921647D01*
X65536429Y-65940643D01*
X65542684Y-65961262D01*
X65545400Y-65988840D01*
X65545400Y-66497560D01*
X65542684Y-66525138D01*
X65536429Y-66545757D01*
X65526276Y-66564753D01*
X65512608Y-66581408D01*
X65495953Y-66595076D01*
X65476957Y-66605229D01*
X65456338Y-66611484D01*
X65428760Y-66614200D01*
X64970040Y-66614200D01*
X64942462Y-66611484D01*
X64921843Y-66605229D01*
X64902847Y-66595076D01*
X64886192Y-66581408D01*
X64872524Y-66564753D01*
X64862371Y-66545757D01*
X64856116Y-66525138D01*
X64853400Y-66497560D01*
X64853400Y-65988840D01*
X64856116Y-65961262D01*
X64862371Y-65940643D01*
X64872524Y-65921647D01*
X64886192Y-65904992D01*
X64902847Y-65891324D01*
X64921843Y-65881171D01*
X64942462Y-65874916D01*
X64970040Y-65872200D01*
X65428760Y-65872200D01*
X65456338Y-65874916D01*
X65456338Y-65874916D01*
G37*
G36*
X71247538Y-65824116D02*
G01*
X71268157Y-65830371D01*
X71287153Y-65840524D01*
X71303808Y-65854192D01*
X71317476Y-65870847D01*
X71327629Y-65889843D01*
X71333884Y-65910462D01*
X71336600Y-65938040D01*
X71336600Y-66446760D01*
X71333884Y-66474338D01*
X71327629Y-66494957D01*
X71317476Y-66513953D01*
X71303808Y-66530608D01*
X71287153Y-66544276D01*
X71268157Y-66554429D01*
X71247538Y-66560684D01*
X71219960Y-66563400D01*
X70761240Y-66563400D01*
X70733662Y-66560684D01*
X70713043Y-66554429D01*
X70694047Y-66544276D01*
X70677392Y-66530608D01*
X70663724Y-66513953D01*
X70653571Y-66494957D01*
X70647316Y-66474338D01*
X70644600Y-66446760D01*
X70644600Y-65938040D01*
X70647316Y-65910462D01*
X70653571Y-65889843D01*
X70663724Y-65870847D01*
X70677392Y-65854192D01*
X70694047Y-65840524D01*
X70713043Y-65830371D01*
X70733662Y-65824116D01*
X70761240Y-65821400D01*
X71219960Y-65821400D01*
X71247538Y-65824116D01*
X71247538Y-65824116D01*
G37*
G36*
X72217538Y-65824116D02*
G01*
X72238157Y-65830371D01*
X72257153Y-65840524D01*
X72273808Y-65854192D01*
X72287476Y-65870847D01*
X72297629Y-65889843D01*
X72303884Y-65910462D01*
X72306600Y-65938040D01*
X72306600Y-66446760D01*
X72303884Y-66474338D01*
X72297629Y-66494957D01*
X72287476Y-66513953D01*
X72273808Y-66530608D01*
X72257153Y-66544276D01*
X72238157Y-66554429D01*
X72217538Y-66560684D01*
X72189960Y-66563400D01*
X71731240Y-66563400D01*
X71703662Y-66560684D01*
X71683043Y-66554429D01*
X71664047Y-66544276D01*
X71647392Y-66530608D01*
X71633724Y-66513953D01*
X71623571Y-66494957D01*
X71617316Y-66474338D01*
X71614600Y-66446760D01*
X71614600Y-65938040D01*
X71617316Y-65910462D01*
X71623571Y-65889843D01*
X71633724Y-65870847D01*
X71647392Y-65854192D01*
X71664047Y-65840524D01*
X71683043Y-65830371D01*
X71703662Y-65824116D01*
X71731240Y-65821400D01*
X72189960Y-65821400D01*
X72217538Y-65824116D01*
X72217538Y-65824116D01*
G37*
G36*
X102151000Y-64805000D02*
G01*
X81999000Y-64805000D01*
X81999000Y-62703000D01*
X102151000Y-62703000D01*
X102151000Y-64805000D01*
X102151000Y-64805000D01*
G37*
G36*
X123350721Y-62652674D02*
G01*
X123450995Y-62694209D01*
X123495812Y-62724155D01*
X123541242Y-62754510D01*
X123617990Y-62831258D01*
X123617991Y-62831260D01*
X123678291Y-62921505D01*
X123719826Y-63021779D01*
X123741000Y-63128230D01*
X123741000Y-63236770D01*
X123719826Y-63343221D01*
X123678291Y-63443495D01*
X123678290Y-63443496D01*
X123617990Y-63533742D01*
X123541242Y-63610490D01*
X123495812Y-63640845D01*
X123450995Y-63670791D01*
X123350721Y-63712326D01*
X123244270Y-63733500D01*
X123135730Y-63733500D01*
X123029279Y-63712326D01*
X122929005Y-63670791D01*
X122884188Y-63640845D01*
X122838758Y-63610490D01*
X122762010Y-63533742D01*
X122701710Y-63443496D01*
X122701709Y-63443495D01*
X122660174Y-63343221D01*
X122639000Y-63236770D01*
X122639000Y-63128230D01*
X122660174Y-63021779D01*
X122701709Y-62921505D01*
X122762009Y-62831260D01*
X122762010Y-62831258D01*
X122838758Y-62754510D01*
X122884188Y-62724155D01*
X122929005Y-62694209D01*
X123029279Y-62652674D01*
X123135730Y-62631500D01*
X123244270Y-62631500D01*
X123350721Y-62652674D01*
X123350721Y-62652674D01*
G37*
G36*
X120275880Y-57759776D02*
G01*
X120656593Y-57835504D01*
X121066249Y-58005189D01*
X121434929Y-58251534D01*
X121748466Y-58565071D01*
X121994811Y-58933751D01*
X122164496Y-59343407D01*
X122251000Y-59778296D01*
X122251000Y-60221704D01*
X122164496Y-60656593D01*
X121994811Y-61066249D01*
X121748466Y-61434929D01*
X121434929Y-61748466D01*
X121066249Y-61994811D01*
X120656593Y-62164496D01*
X120275880Y-62240224D01*
X120221705Y-62251000D01*
X119778295Y-62251000D01*
X119724120Y-62240224D01*
X119343407Y-62164496D01*
X118933751Y-61994811D01*
X118565071Y-61748466D01*
X118251534Y-61434929D01*
X118005189Y-61066249D01*
X117835504Y-60656593D01*
X117749000Y-60221704D01*
X117749000Y-59778296D01*
X117835504Y-59343407D01*
X118005189Y-58933751D01*
X118251534Y-58565071D01*
X118565071Y-58251534D01*
X118933751Y-58005189D01*
X119343407Y-57835504D01*
X119724120Y-57759776D01*
X119778295Y-57749000D01*
X120221705Y-57749000D01*
X120275880Y-57759776D01*
X120275880Y-57759776D01*
G37*
G36*
X61275880Y-57759776D02*
G01*
X61656593Y-57835504D01*
X62066249Y-58005189D01*
X62434929Y-58251534D01*
X62748466Y-58565071D01*
X62994811Y-58933751D01*
X63164496Y-59343407D01*
X63251000Y-59778296D01*
X63251000Y-60221704D01*
X63164496Y-60656593D01*
X62994811Y-61066249D01*
X62748466Y-61434929D01*
X62434929Y-61748466D01*
X62066249Y-61994811D01*
X61656593Y-62164496D01*
X61275880Y-62240224D01*
X61221705Y-62251000D01*
X60778295Y-62251000D01*
X60724120Y-62240224D01*
X60343407Y-62164496D01*
X59933751Y-61994811D01*
X59565071Y-61748466D01*
X59251534Y-61434929D01*
X59005189Y-61066249D01*
X58835504Y-60656593D01*
X58749000Y-60221704D01*
X58749000Y-59778296D01*
X58835504Y-59343407D01*
X59005189Y-58933751D01*
X59251534Y-58565071D01*
X59565071Y-58251534D01*
X59933751Y-58005189D01*
X60343407Y-57835504D01*
X60724120Y-57759776D01*
X60778295Y-57749000D01*
X61221705Y-57749000D01*
X61275880Y-57759776D01*
X61275880Y-57759776D01*
G37*
M02*
