G04 #@! TF.GenerationSoftware,KiCad,Pcbnew,(5.1.2)-2*
G04 #@! TF.CreationDate,2019-08-10T23:44:23-05:00*
G04 #@! TF.ProjectId,front_end,66726f6e-745f-4656-9e64-2e6b69636164,rev?*
G04 #@! TF.SameCoordinates,Original*
G04 #@! TF.FileFunction,Copper,L2,Inr*
G04 #@! TF.FilePolarity,Positive*
%FSLAX46Y46*%
G04 Gerber Fmt 4.6, Leading zero omitted, Abs format (unit mm)*
G04 Created by KiCad (PCBNEW (5.1.2)-2) date 2019-08-10 23:44:23*
%MOMM*%
%LPD*%
G04 APERTURE LIST*
%ADD10C,0.431800*%
%ADD11C,1.890000*%
G04 APERTURE END LIST*
D10*
X190576200Y-127762000D03*
X190576200Y-127127000D03*
X190576200Y-125857000D03*
X190576200Y-126492000D03*
X190576200Y-125222000D03*
X190576200Y-124587000D03*
X190576200Y-123952000D03*
X203123800Y-127762000D03*
X203123800Y-127127000D03*
X203123800Y-126492000D03*
X203123800Y-125857000D03*
X203123800Y-125222000D03*
X203123800Y-124587000D03*
X203123800Y-123952000D03*
X200101200Y-123952000D03*
X200101200Y-124587000D03*
X200101200Y-125222000D03*
X200101200Y-125857000D03*
X199974200Y-126517400D03*
X199593200Y-127127000D03*
X197764400Y-127541020D03*
X198399400Y-127541020D03*
X199034400Y-127541020D03*
X195300600Y-127541020D03*
X195935600Y-127541020D03*
X194106800Y-127127000D03*
X193598800Y-124587000D03*
X193598800Y-125222000D03*
X193598800Y-125857000D03*
X194665600Y-127541020D03*
X193725800Y-126517400D03*
X193598800Y-123952000D03*
X202285600Y-123342400D03*
X200380600Y-123342400D03*
X201650600Y-123342400D03*
X201015600Y-123342400D03*
X202920600Y-123342400D03*
X192760600Y-123342400D03*
X190855600Y-123342400D03*
X192125600Y-123342400D03*
X191490600Y-123342400D03*
X193395600Y-123342400D03*
X286943800Y-103378000D03*
X286943800Y-104013000D03*
X286943800Y-105283000D03*
X286943800Y-104648000D03*
X286943800Y-105918000D03*
X286943800Y-106553000D03*
X286943800Y-107188000D03*
X274396200Y-103378000D03*
X274396200Y-104013000D03*
X274396200Y-104648000D03*
X274396200Y-105283000D03*
X274396200Y-105918000D03*
X274396200Y-106553000D03*
X274396200Y-107188000D03*
X277418800Y-107188000D03*
X277418800Y-106553000D03*
X277418800Y-105918000D03*
X277418800Y-105283000D03*
X277545800Y-104622600D03*
X277926800Y-104013000D03*
X279755600Y-103598980D03*
X279120600Y-103598980D03*
X278485600Y-103598980D03*
X282219400Y-103598980D03*
X281584400Y-103598980D03*
X283413200Y-104013000D03*
X283921200Y-106553000D03*
X283921200Y-105918000D03*
X283921200Y-105283000D03*
X282854400Y-103598980D03*
X283794200Y-104622600D03*
X283921200Y-107188000D03*
X275234400Y-107797600D03*
X277139400Y-107797600D03*
X275869400Y-107797600D03*
X276504400Y-107797600D03*
X274599400Y-107797600D03*
X284759400Y-107797600D03*
X286664400Y-107797600D03*
X285394400Y-107797600D03*
X286029400Y-107797600D03*
X284124400Y-107797600D03*
X302183800Y-103378000D03*
X302183800Y-104013000D03*
X302183800Y-105283000D03*
X302183800Y-104648000D03*
X302183800Y-105918000D03*
X302183800Y-106553000D03*
X302183800Y-107188000D03*
X289636200Y-103378000D03*
X289636200Y-104013000D03*
X289636200Y-104648000D03*
X289636200Y-105283000D03*
X289636200Y-105918000D03*
X289636200Y-106553000D03*
X289636200Y-107188000D03*
X292658800Y-107188000D03*
X292658800Y-106553000D03*
X292658800Y-105918000D03*
X292658800Y-105283000D03*
X292785800Y-104622600D03*
X293166800Y-104013000D03*
X294995600Y-103598980D03*
X294360600Y-103598980D03*
X293725600Y-103598980D03*
X297459400Y-103598980D03*
X296824400Y-103598980D03*
X298653200Y-104013000D03*
X299161200Y-106553000D03*
X299161200Y-105918000D03*
X299161200Y-105283000D03*
X298094400Y-103598980D03*
X299034200Y-104622600D03*
X299161200Y-107188000D03*
X290474400Y-107797600D03*
X292379400Y-107797600D03*
X291109400Y-107797600D03*
X291744400Y-107797600D03*
X289839400Y-107797600D03*
X299999400Y-107797600D03*
X301904400Y-107797600D03*
X300634400Y-107797600D03*
X301269400Y-107797600D03*
X299364400Y-107797600D03*
X317423800Y-103378000D03*
X317423800Y-104013000D03*
X317423800Y-105283000D03*
X317423800Y-104648000D03*
X317423800Y-105918000D03*
X317423800Y-106553000D03*
X317423800Y-107188000D03*
X304876200Y-103378000D03*
X304876200Y-104013000D03*
X304876200Y-104648000D03*
X304876200Y-105283000D03*
X304876200Y-105918000D03*
X304876200Y-106553000D03*
X304876200Y-107188000D03*
X307898800Y-107188000D03*
X307898800Y-106553000D03*
X307898800Y-105918000D03*
X307898800Y-105283000D03*
X308025800Y-104622600D03*
X308406800Y-104013000D03*
X310235600Y-103598980D03*
X309600600Y-103598980D03*
X308965600Y-103598980D03*
X312699400Y-103598980D03*
X312064400Y-103598980D03*
X313893200Y-104013000D03*
X314401200Y-106553000D03*
X314401200Y-105918000D03*
X314401200Y-105283000D03*
X313334400Y-103598980D03*
X314274200Y-104622600D03*
X314401200Y-107188000D03*
X305714400Y-107797600D03*
X307619400Y-107797600D03*
X306349400Y-107797600D03*
X306984400Y-107797600D03*
X305079400Y-107797600D03*
X315239400Y-107797600D03*
X317144400Y-107797600D03*
X315874400Y-107797600D03*
X316509400Y-107797600D03*
X314604400Y-107797600D03*
X335203800Y-103378000D03*
X335203800Y-104013000D03*
X335203800Y-105283000D03*
X335203800Y-104648000D03*
X335203800Y-105918000D03*
X335203800Y-106553000D03*
X335203800Y-107188000D03*
X322656200Y-103378000D03*
X322656200Y-104013000D03*
X322656200Y-104648000D03*
X322656200Y-105283000D03*
X322656200Y-105918000D03*
X322656200Y-106553000D03*
X322656200Y-107188000D03*
X325678800Y-107188000D03*
X325678800Y-106553000D03*
X325678800Y-105918000D03*
X325678800Y-105283000D03*
X325805800Y-104622600D03*
X326186800Y-104013000D03*
X328015600Y-103598980D03*
X327380600Y-103598980D03*
X326745600Y-103598980D03*
X330479400Y-103598980D03*
X329844400Y-103598980D03*
X331673200Y-104013000D03*
X332181200Y-106553000D03*
X332181200Y-105918000D03*
X332181200Y-105283000D03*
X331114400Y-103598980D03*
X332054200Y-104622600D03*
X332181200Y-107188000D03*
X323494400Y-107797600D03*
X325399400Y-107797600D03*
X324129400Y-107797600D03*
X324764400Y-107797600D03*
X322859400Y-107797600D03*
X333019400Y-107797600D03*
X334924400Y-107797600D03*
X333654400Y-107797600D03*
X334289400Y-107797600D03*
X332384400Y-107797600D03*
X350443800Y-103378000D03*
X350443800Y-104013000D03*
X350443800Y-105283000D03*
X350443800Y-104648000D03*
X350443800Y-105918000D03*
X350443800Y-106553000D03*
X350443800Y-107188000D03*
X337896200Y-103378000D03*
X337896200Y-104013000D03*
X337896200Y-104648000D03*
X337896200Y-105283000D03*
X337896200Y-105918000D03*
X337896200Y-106553000D03*
X337896200Y-107188000D03*
X340918800Y-107188000D03*
X340918800Y-106553000D03*
X340918800Y-105918000D03*
X340918800Y-105283000D03*
X341045800Y-104622600D03*
X341426800Y-104013000D03*
X343255600Y-103598980D03*
X342620600Y-103598980D03*
X341985600Y-103598980D03*
X345719400Y-103598980D03*
X345084400Y-103598980D03*
X346913200Y-104013000D03*
X347421200Y-106553000D03*
X347421200Y-105918000D03*
X347421200Y-105283000D03*
X346354400Y-103598980D03*
X347294200Y-104622600D03*
X347421200Y-107188000D03*
X338734400Y-107797600D03*
X340639400Y-107797600D03*
X339369400Y-107797600D03*
X340004400Y-107797600D03*
X338099400Y-107797600D03*
X348259400Y-107797600D03*
X350164400Y-107797600D03*
X348894400Y-107797600D03*
X349529400Y-107797600D03*
X347624400Y-107797600D03*
X289636200Y-150622000D03*
X289636200Y-149987000D03*
X289636200Y-148717000D03*
X289636200Y-149352000D03*
X289636200Y-148082000D03*
X289636200Y-147447000D03*
X289636200Y-146812000D03*
X302183800Y-150622000D03*
X302183800Y-149987000D03*
X302183800Y-149352000D03*
X302183800Y-148717000D03*
X302183800Y-148082000D03*
X302183800Y-147447000D03*
X302183800Y-146812000D03*
X299161200Y-146812000D03*
X299161200Y-147447000D03*
X299161200Y-148082000D03*
X299161200Y-148717000D03*
X299034200Y-149377400D03*
X298653200Y-149987000D03*
X296824400Y-150401020D03*
X297459400Y-150401020D03*
X298094400Y-150401020D03*
X294360600Y-150401020D03*
X294995600Y-150401020D03*
X293166800Y-149987000D03*
X292658800Y-147447000D03*
X292658800Y-148082000D03*
X292658800Y-148717000D03*
X293725600Y-150401020D03*
X292785800Y-149377400D03*
X292658800Y-146812000D03*
X301345600Y-146202400D03*
X299440600Y-146202400D03*
X300710600Y-146202400D03*
X300075600Y-146202400D03*
X301980600Y-146202400D03*
X291820600Y-146202400D03*
X289915600Y-146202400D03*
X291185600Y-146202400D03*
X290550600Y-146202400D03*
X292455600Y-146202400D03*
D11*
X331470000Y-118110000D03*
X326390000Y-118110000D03*
X326390000Y-123190000D03*
X331470000Y-123190000D03*
X346710000Y-118110000D03*
X341630000Y-118110000D03*
X341630000Y-123190000D03*
X346710000Y-123190000D03*
D10*
X274396200Y-150622000D03*
X274396200Y-149987000D03*
X274396200Y-148717000D03*
X274396200Y-149352000D03*
X274396200Y-148082000D03*
X274396200Y-147447000D03*
X274396200Y-146812000D03*
X286943800Y-150622000D03*
X286943800Y-149987000D03*
X286943800Y-149352000D03*
X286943800Y-148717000D03*
X286943800Y-148082000D03*
X286943800Y-147447000D03*
X286943800Y-146812000D03*
X283921200Y-146812000D03*
X283921200Y-147447000D03*
X283921200Y-148082000D03*
X283921200Y-148717000D03*
X283794200Y-149377400D03*
X283413200Y-149987000D03*
X281584400Y-150401020D03*
X282219400Y-150401020D03*
X282854400Y-150401020D03*
X279120600Y-150401020D03*
X279755600Y-150401020D03*
X277926800Y-149987000D03*
X277418800Y-147447000D03*
X277418800Y-148082000D03*
X277418800Y-148717000D03*
X278485600Y-150401020D03*
X277545800Y-149377400D03*
X277418800Y-146812000D03*
X286105600Y-146202400D03*
X284200600Y-146202400D03*
X285470600Y-146202400D03*
X284835600Y-146202400D03*
X286740600Y-146202400D03*
X276580600Y-146202400D03*
X274675600Y-146202400D03*
X275945600Y-146202400D03*
X275310600Y-146202400D03*
X277215600Y-146202400D03*
X252653800Y-103378000D03*
X252653800Y-104013000D03*
X252653800Y-105283000D03*
X252653800Y-104648000D03*
X252653800Y-105918000D03*
X252653800Y-106553000D03*
X252653800Y-107188000D03*
X240106200Y-103378000D03*
X240106200Y-104013000D03*
X240106200Y-104648000D03*
X240106200Y-105283000D03*
X240106200Y-105918000D03*
X240106200Y-106553000D03*
X240106200Y-107188000D03*
X243128800Y-107188000D03*
X243128800Y-106553000D03*
X243128800Y-105918000D03*
X243128800Y-105283000D03*
X243255800Y-104622600D03*
X243636800Y-104013000D03*
X245465600Y-103598980D03*
X244830600Y-103598980D03*
X244195600Y-103598980D03*
X247929400Y-103598980D03*
X247294400Y-103598980D03*
X249123200Y-104013000D03*
X249631200Y-106553000D03*
X249631200Y-105918000D03*
X249631200Y-105283000D03*
X248564400Y-103598980D03*
X249504200Y-104622600D03*
X249631200Y-107188000D03*
X240944400Y-107797600D03*
X242849400Y-107797600D03*
X241579400Y-107797600D03*
X242214400Y-107797600D03*
X240309400Y-107797600D03*
X250469400Y-107797600D03*
X252374400Y-107797600D03*
X251104400Y-107797600D03*
X251739400Y-107797600D03*
X249834400Y-107797600D03*
X267893800Y-103378000D03*
X267893800Y-104013000D03*
X267893800Y-105283000D03*
X267893800Y-104648000D03*
X267893800Y-105918000D03*
X267893800Y-106553000D03*
X267893800Y-107188000D03*
X255346200Y-103378000D03*
X255346200Y-104013000D03*
X255346200Y-104648000D03*
X255346200Y-105283000D03*
X255346200Y-105918000D03*
X255346200Y-106553000D03*
X255346200Y-107188000D03*
X258368800Y-107188000D03*
X258368800Y-106553000D03*
X258368800Y-105918000D03*
X258368800Y-105283000D03*
X258495800Y-104622600D03*
X258876800Y-104013000D03*
X260705600Y-103598980D03*
X260070600Y-103598980D03*
X259435600Y-103598980D03*
X263169400Y-103598980D03*
X262534400Y-103598980D03*
X264363200Y-104013000D03*
X264871200Y-106553000D03*
X264871200Y-105918000D03*
X264871200Y-105283000D03*
X263804400Y-103598980D03*
X264744200Y-104622600D03*
X264871200Y-107188000D03*
X256184400Y-107797600D03*
X258089400Y-107797600D03*
X256819400Y-107797600D03*
X257454400Y-107797600D03*
X255549400Y-107797600D03*
X265709400Y-107797600D03*
X267614400Y-107797600D03*
X266344400Y-107797600D03*
X266979400Y-107797600D03*
X265074400Y-107797600D03*
X72313800Y-103378000D03*
X72313800Y-104013000D03*
X72313800Y-105283000D03*
X72313800Y-104648000D03*
X72313800Y-105918000D03*
X72313800Y-106553000D03*
X72313800Y-107188000D03*
X59766200Y-103378000D03*
X59766200Y-104013000D03*
X59766200Y-104648000D03*
X59766200Y-105283000D03*
X59766200Y-105918000D03*
X59766200Y-106553000D03*
X59766200Y-107188000D03*
X62788800Y-107188000D03*
X62788800Y-106553000D03*
X62788800Y-105918000D03*
X62788800Y-105283000D03*
X62915800Y-104622600D03*
X63296800Y-104013000D03*
X65125600Y-103598980D03*
X64490600Y-103598980D03*
X63855600Y-103598980D03*
X67589400Y-103598980D03*
X66954400Y-103598980D03*
X68783200Y-104013000D03*
X69291200Y-106553000D03*
X69291200Y-105918000D03*
X69291200Y-105283000D03*
X68224400Y-103598980D03*
X69164200Y-104622600D03*
X69291200Y-107188000D03*
X60604400Y-107797600D03*
X62509400Y-107797600D03*
X61239400Y-107797600D03*
X61874400Y-107797600D03*
X59969400Y-107797600D03*
X70129400Y-107797600D03*
X72034400Y-107797600D03*
X70764400Y-107797600D03*
X71399400Y-107797600D03*
X69494400Y-107797600D03*
X87553800Y-103378000D03*
X87553800Y-104013000D03*
X87553800Y-105283000D03*
X87553800Y-104648000D03*
X87553800Y-105918000D03*
X87553800Y-106553000D03*
X87553800Y-107188000D03*
X75006200Y-103378000D03*
X75006200Y-104013000D03*
X75006200Y-104648000D03*
X75006200Y-105283000D03*
X75006200Y-105918000D03*
X75006200Y-106553000D03*
X75006200Y-107188000D03*
X78028800Y-107188000D03*
X78028800Y-106553000D03*
X78028800Y-105918000D03*
X78028800Y-105283000D03*
X78155800Y-104622600D03*
X78536800Y-104013000D03*
X80365600Y-103598980D03*
X79730600Y-103598980D03*
X79095600Y-103598980D03*
X82829400Y-103598980D03*
X82194400Y-103598980D03*
X84023200Y-104013000D03*
X84531200Y-106553000D03*
X84531200Y-105918000D03*
X84531200Y-105283000D03*
X83464400Y-103598980D03*
X84404200Y-104622600D03*
X84531200Y-107188000D03*
X75844400Y-107797600D03*
X77749400Y-107797600D03*
X76479400Y-107797600D03*
X77114400Y-107797600D03*
X75209400Y-107797600D03*
X85369400Y-107797600D03*
X87274400Y-107797600D03*
X86004400Y-107797600D03*
X86639400Y-107797600D03*
X84734400Y-107797600D03*
X105333800Y-103378000D03*
X105333800Y-104013000D03*
X105333800Y-105283000D03*
X105333800Y-104648000D03*
X105333800Y-105918000D03*
X105333800Y-106553000D03*
X105333800Y-107188000D03*
X92786200Y-103378000D03*
X92786200Y-104013000D03*
X92786200Y-104648000D03*
X92786200Y-105283000D03*
X92786200Y-105918000D03*
X92786200Y-106553000D03*
X92786200Y-107188000D03*
X95808800Y-107188000D03*
X95808800Y-106553000D03*
X95808800Y-105918000D03*
X95808800Y-105283000D03*
X95935800Y-104622600D03*
X96316800Y-104013000D03*
X98145600Y-103598980D03*
X97510600Y-103598980D03*
X96875600Y-103598980D03*
X100609400Y-103598980D03*
X99974400Y-103598980D03*
X101803200Y-104013000D03*
X102311200Y-106553000D03*
X102311200Y-105918000D03*
X102311200Y-105283000D03*
X101244400Y-103598980D03*
X102184200Y-104622600D03*
X102311200Y-107188000D03*
X93624400Y-107797600D03*
X95529400Y-107797600D03*
X94259400Y-107797600D03*
X94894400Y-107797600D03*
X92989400Y-107797600D03*
X103149400Y-107797600D03*
X105054400Y-107797600D03*
X103784400Y-107797600D03*
X104419400Y-107797600D03*
X102514400Y-107797600D03*
X120573800Y-103378000D03*
X120573800Y-104013000D03*
X120573800Y-105283000D03*
X120573800Y-104648000D03*
X120573800Y-105918000D03*
X120573800Y-106553000D03*
X120573800Y-107188000D03*
X108026200Y-103378000D03*
X108026200Y-104013000D03*
X108026200Y-104648000D03*
X108026200Y-105283000D03*
X108026200Y-105918000D03*
X108026200Y-106553000D03*
X108026200Y-107188000D03*
X111048800Y-107188000D03*
X111048800Y-106553000D03*
X111048800Y-105918000D03*
X111048800Y-105283000D03*
X111175800Y-104622600D03*
X111556800Y-104013000D03*
X113385600Y-103598980D03*
X112750600Y-103598980D03*
X112115600Y-103598980D03*
X115849400Y-103598980D03*
X115214400Y-103598980D03*
X117043200Y-104013000D03*
X117551200Y-106553000D03*
X117551200Y-105918000D03*
X117551200Y-105283000D03*
X116484400Y-103598980D03*
X117424200Y-104622600D03*
X117551200Y-107188000D03*
X108864400Y-107797600D03*
X110769400Y-107797600D03*
X109499400Y-107797600D03*
X110134400Y-107797600D03*
X108229400Y-107797600D03*
X118389400Y-107797600D03*
X120294400Y-107797600D03*
X119024400Y-107797600D03*
X119659400Y-107797600D03*
X117754400Y-107797600D03*
X138353800Y-103378000D03*
X138353800Y-104013000D03*
X138353800Y-105283000D03*
X138353800Y-104648000D03*
X138353800Y-105918000D03*
X138353800Y-106553000D03*
X138353800Y-107188000D03*
X125806200Y-103378000D03*
X125806200Y-104013000D03*
X125806200Y-104648000D03*
X125806200Y-105283000D03*
X125806200Y-105918000D03*
X125806200Y-106553000D03*
X125806200Y-107188000D03*
X128828800Y-107188000D03*
X128828800Y-106553000D03*
X128828800Y-105918000D03*
X128828800Y-105283000D03*
X128955800Y-104622600D03*
X129336800Y-104013000D03*
X131165600Y-103598980D03*
X130530600Y-103598980D03*
X129895600Y-103598980D03*
X133629400Y-103598980D03*
X132994400Y-103598980D03*
X134823200Y-104013000D03*
X135331200Y-106553000D03*
X135331200Y-105918000D03*
X135331200Y-105283000D03*
X134264400Y-103598980D03*
X135204200Y-104622600D03*
X135331200Y-107188000D03*
X126644400Y-107797600D03*
X128549400Y-107797600D03*
X127279400Y-107797600D03*
X127914400Y-107797600D03*
X126009400Y-107797600D03*
X136169400Y-107797600D03*
X138074400Y-107797600D03*
X136804400Y-107797600D03*
X137439400Y-107797600D03*
X135534400Y-107797600D03*
X153593800Y-103378000D03*
X153593800Y-104013000D03*
X153593800Y-105283000D03*
X153593800Y-104648000D03*
X153593800Y-105918000D03*
X153593800Y-106553000D03*
X153593800Y-107188000D03*
X141046200Y-103378000D03*
X141046200Y-104013000D03*
X141046200Y-104648000D03*
X141046200Y-105283000D03*
X141046200Y-105918000D03*
X141046200Y-106553000D03*
X141046200Y-107188000D03*
X144068800Y-107188000D03*
X144068800Y-106553000D03*
X144068800Y-105918000D03*
X144068800Y-105283000D03*
X144195800Y-104622600D03*
X144576800Y-104013000D03*
X146405600Y-103598980D03*
X145770600Y-103598980D03*
X145135600Y-103598980D03*
X148869400Y-103598980D03*
X148234400Y-103598980D03*
X150063200Y-104013000D03*
X150571200Y-106553000D03*
X150571200Y-105918000D03*
X150571200Y-105283000D03*
X149504400Y-103598980D03*
X150444200Y-104622600D03*
X150571200Y-107188000D03*
X141884400Y-107797600D03*
X143789400Y-107797600D03*
X142519400Y-107797600D03*
X143154400Y-107797600D03*
X141249400Y-107797600D03*
X151409400Y-107797600D03*
X153314400Y-107797600D03*
X152044400Y-107797600D03*
X152679400Y-107797600D03*
X150774400Y-107797600D03*
X67386200Y-127762000D03*
X67386200Y-127127000D03*
X67386200Y-125857000D03*
X67386200Y-126492000D03*
X67386200Y-125222000D03*
X67386200Y-124587000D03*
X67386200Y-123952000D03*
X79933800Y-127762000D03*
X79933800Y-127127000D03*
X79933800Y-126492000D03*
X79933800Y-125857000D03*
X79933800Y-125222000D03*
X79933800Y-124587000D03*
X79933800Y-123952000D03*
X76911200Y-123952000D03*
X76911200Y-124587000D03*
X76911200Y-125222000D03*
X76911200Y-125857000D03*
X76784200Y-126517400D03*
X76403200Y-127127000D03*
X74574400Y-127541020D03*
X75209400Y-127541020D03*
X75844400Y-127541020D03*
X72110600Y-127541020D03*
X72745600Y-127541020D03*
X70916800Y-127127000D03*
X70408800Y-124587000D03*
X70408800Y-125222000D03*
X70408800Y-125857000D03*
X71475600Y-127541020D03*
X70535800Y-126517400D03*
X70408800Y-123952000D03*
X79095600Y-123342400D03*
X77190600Y-123342400D03*
X78460600Y-123342400D03*
X77825600Y-123342400D03*
X79730600Y-123342400D03*
X69570600Y-123342400D03*
X67665600Y-123342400D03*
X68935600Y-123342400D03*
X68300600Y-123342400D03*
X70205600Y-123342400D03*
X100406200Y-127762000D03*
X100406200Y-127127000D03*
X100406200Y-125857000D03*
X100406200Y-126492000D03*
X100406200Y-125222000D03*
X100406200Y-124587000D03*
X100406200Y-123952000D03*
X112953800Y-127762000D03*
X112953800Y-127127000D03*
X112953800Y-126492000D03*
X112953800Y-125857000D03*
X112953800Y-125222000D03*
X112953800Y-124587000D03*
X112953800Y-123952000D03*
X109931200Y-123952000D03*
X109931200Y-124587000D03*
X109931200Y-125222000D03*
X109931200Y-125857000D03*
X109804200Y-126517400D03*
X109423200Y-127127000D03*
X107594400Y-127541020D03*
X108229400Y-127541020D03*
X108864400Y-127541020D03*
X105130600Y-127541020D03*
X105765600Y-127541020D03*
X103936800Y-127127000D03*
X103428800Y-124587000D03*
X103428800Y-125222000D03*
X103428800Y-125857000D03*
X104495600Y-127541020D03*
X103555800Y-126517400D03*
X103428800Y-123952000D03*
X112115600Y-123342400D03*
X110210600Y-123342400D03*
X111480600Y-123342400D03*
X110845600Y-123342400D03*
X112750600Y-123342400D03*
X102590600Y-123342400D03*
X100685600Y-123342400D03*
X101955600Y-123342400D03*
X101320600Y-123342400D03*
X103225600Y-123342400D03*
X133426200Y-127762000D03*
X133426200Y-127127000D03*
X133426200Y-125857000D03*
X133426200Y-126492000D03*
X133426200Y-125222000D03*
X133426200Y-124587000D03*
X133426200Y-123952000D03*
X145973800Y-127762000D03*
X145973800Y-127127000D03*
X145973800Y-126492000D03*
X145973800Y-125857000D03*
X145973800Y-125222000D03*
X145973800Y-124587000D03*
X145973800Y-123952000D03*
X142951200Y-123952000D03*
X142951200Y-124587000D03*
X142951200Y-125222000D03*
X142951200Y-125857000D03*
X142824200Y-126517400D03*
X142443200Y-127127000D03*
X140614400Y-127541020D03*
X141249400Y-127541020D03*
X141884400Y-127541020D03*
X138150600Y-127541020D03*
X138785600Y-127541020D03*
X136956800Y-127127000D03*
X136448800Y-124587000D03*
X136448800Y-125222000D03*
X136448800Y-125857000D03*
X137515600Y-127541020D03*
X136575800Y-126517400D03*
X136448800Y-123952000D03*
X145135600Y-123342400D03*
X143230600Y-123342400D03*
X144500600Y-123342400D03*
X143865600Y-123342400D03*
X145770600Y-123342400D03*
X135610600Y-123342400D03*
X133705600Y-123342400D03*
X134975600Y-123342400D03*
X134340600Y-123342400D03*
X136245600Y-123342400D03*
X247726200Y-150622000D03*
X247726200Y-149987000D03*
X247726200Y-148717000D03*
X247726200Y-149352000D03*
X247726200Y-148082000D03*
X247726200Y-147447000D03*
X247726200Y-146812000D03*
X260273800Y-150622000D03*
X260273800Y-149987000D03*
X260273800Y-149352000D03*
X260273800Y-148717000D03*
X260273800Y-148082000D03*
X260273800Y-147447000D03*
X260273800Y-146812000D03*
X257251200Y-146812000D03*
X257251200Y-147447000D03*
X257251200Y-148082000D03*
X257251200Y-148717000D03*
X257124200Y-149377400D03*
X256743200Y-149987000D03*
X254914400Y-150401020D03*
X255549400Y-150401020D03*
X256184400Y-150401020D03*
X252450600Y-150401020D03*
X253085600Y-150401020D03*
X251256800Y-149987000D03*
X250748800Y-147447000D03*
X250748800Y-148082000D03*
X250748800Y-148717000D03*
X251815600Y-150401020D03*
X250875800Y-149377400D03*
X250748800Y-146812000D03*
X259435600Y-146202400D03*
X257530600Y-146202400D03*
X258800600Y-146202400D03*
X258165600Y-146202400D03*
X260070600Y-146202400D03*
X249910600Y-146202400D03*
X248005600Y-146202400D03*
X249275600Y-146202400D03*
X248640600Y-146202400D03*
X250545600Y-146202400D03*
X172643800Y-103378000D03*
X172643800Y-104013000D03*
X172643800Y-105283000D03*
X172643800Y-104648000D03*
X172643800Y-105918000D03*
X172643800Y-106553000D03*
X172643800Y-107188000D03*
X160096200Y-103378000D03*
X160096200Y-104013000D03*
X160096200Y-104648000D03*
X160096200Y-105283000D03*
X160096200Y-105918000D03*
X160096200Y-106553000D03*
X160096200Y-107188000D03*
X163118800Y-107188000D03*
X163118800Y-106553000D03*
X163118800Y-105918000D03*
X163118800Y-105283000D03*
X163245800Y-104622600D03*
X163626800Y-104013000D03*
X165455600Y-103598980D03*
X164820600Y-103598980D03*
X164185600Y-103598980D03*
X167919400Y-103598980D03*
X167284400Y-103598980D03*
X169113200Y-104013000D03*
X169621200Y-106553000D03*
X169621200Y-105918000D03*
X169621200Y-105283000D03*
X168554400Y-103598980D03*
X169494200Y-104622600D03*
X169621200Y-107188000D03*
X160934400Y-107797600D03*
X162839400Y-107797600D03*
X161569400Y-107797600D03*
X162204400Y-107797600D03*
X160299400Y-107797600D03*
X170459400Y-107797600D03*
X172364400Y-107797600D03*
X171094400Y-107797600D03*
X171729400Y-107797600D03*
X169824400Y-107797600D03*
X187883800Y-103378000D03*
X187883800Y-104013000D03*
X187883800Y-105283000D03*
X187883800Y-104648000D03*
X187883800Y-105918000D03*
X187883800Y-106553000D03*
X187883800Y-107188000D03*
X175336200Y-103378000D03*
X175336200Y-104013000D03*
X175336200Y-104648000D03*
X175336200Y-105283000D03*
X175336200Y-105918000D03*
X175336200Y-106553000D03*
X175336200Y-107188000D03*
X178358800Y-107188000D03*
X178358800Y-106553000D03*
X178358800Y-105918000D03*
X178358800Y-105283000D03*
X178485800Y-104622600D03*
X178866800Y-104013000D03*
X180695600Y-103598980D03*
X180060600Y-103598980D03*
X179425600Y-103598980D03*
X183159400Y-103598980D03*
X182524400Y-103598980D03*
X184353200Y-104013000D03*
X184861200Y-106553000D03*
X184861200Y-105918000D03*
X184861200Y-105283000D03*
X183794400Y-103598980D03*
X184734200Y-104622600D03*
X184861200Y-107188000D03*
X176174400Y-107797600D03*
X178079400Y-107797600D03*
X176809400Y-107797600D03*
X177444400Y-107797600D03*
X175539400Y-107797600D03*
X185699400Y-107797600D03*
X187604400Y-107797600D03*
X186334400Y-107797600D03*
X186969400Y-107797600D03*
X185064400Y-107797600D03*
X203123800Y-103378000D03*
X203123800Y-104013000D03*
X203123800Y-105283000D03*
X203123800Y-104648000D03*
X203123800Y-105918000D03*
X203123800Y-106553000D03*
X203123800Y-107188000D03*
X190576200Y-103378000D03*
X190576200Y-104013000D03*
X190576200Y-104648000D03*
X190576200Y-105283000D03*
X190576200Y-105918000D03*
X190576200Y-106553000D03*
X190576200Y-107188000D03*
X193598800Y-107188000D03*
X193598800Y-106553000D03*
X193598800Y-105918000D03*
X193598800Y-105283000D03*
X193725800Y-104622600D03*
X194106800Y-104013000D03*
X195935600Y-103598980D03*
X195300600Y-103598980D03*
X194665600Y-103598980D03*
X198399400Y-103598980D03*
X197764400Y-103598980D03*
X199593200Y-104013000D03*
X200101200Y-106553000D03*
X200101200Y-105918000D03*
X200101200Y-105283000D03*
X199034400Y-103598980D03*
X199974200Y-104622600D03*
X200101200Y-107188000D03*
X191414400Y-107797600D03*
X193319400Y-107797600D03*
X192049400Y-107797600D03*
X192684400Y-107797600D03*
X190779400Y-107797600D03*
X200939400Y-107797600D03*
X202844400Y-107797600D03*
X201574400Y-107797600D03*
X202209400Y-107797600D03*
X200304400Y-107797600D03*
X218363800Y-103378000D03*
X218363800Y-104013000D03*
X218363800Y-105283000D03*
X218363800Y-104648000D03*
X218363800Y-105918000D03*
X218363800Y-106553000D03*
X218363800Y-107188000D03*
X205816200Y-103378000D03*
X205816200Y-104013000D03*
X205816200Y-104648000D03*
X205816200Y-105283000D03*
X205816200Y-105918000D03*
X205816200Y-106553000D03*
X205816200Y-107188000D03*
X208838800Y-107188000D03*
X208838800Y-106553000D03*
X208838800Y-105918000D03*
X208838800Y-105283000D03*
X208965800Y-104622600D03*
X209346800Y-104013000D03*
X211175600Y-103598980D03*
X210540600Y-103598980D03*
X209905600Y-103598980D03*
X213639400Y-103598980D03*
X213004400Y-103598980D03*
X214833200Y-104013000D03*
X215341200Y-106553000D03*
X215341200Y-105918000D03*
X215341200Y-105283000D03*
X214274400Y-103598980D03*
X215214200Y-104622600D03*
X215341200Y-107188000D03*
X206654400Y-107797600D03*
X208559400Y-107797600D03*
X207289400Y-107797600D03*
X207924400Y-107797600D03*
X206019400Y-107797600D03*
X216179400Y-107797600D03*
X218084400Y-107797600D03*
X216814400Y-107797600D03*
X217449400Y-107797600D03*
X215544400Y-107797600D03*
X221056200Y-127762000D03*
X221056200Y-127127000D03*
X221056200Y-125857000D03*
X221056200Y-126492000D03*
X221056200Y-125222000D03*
X221056200Y-124587000D03*
X221056200Y-123952000D03*
X233603800Y-127762000D03*
X233603800Y-127127000D03*
X233603800Y-126492000D03*
X233603800Y-125857000D03*
X233603800Y-125222000D03*
X233603800Y-124587000D03*
X233603800Y-123952000D03*
X230581200Y-123952000D03*
X230581200Y-124587000D03*
X230581200Y-125222000D03*
X230581200Y-125857000D03*
X230454200Y-126517400D03*
X230073200Y-127127000D03*
X228244400Y-127541020D03*
X228879400Y-127541020D03*
X229514400Y-127541020D03*
X225780600Y-127541020D03*
X226415600Y-127541020D03*
X224586800Y-127127000D03*
X224078800Y-124587000D03*
X224078800Y-125222000D03*
X224078800Y-125857000D03*
X225145600Y-127541020D03*
X224205800Y-126517400D03*
X224078800Y-123952000D03*
X232765600Y-123342400D03*
X230860600Y-123342400D03*
X232130600Y-123342400D03*
X231495600Y-123342400D03*
X233400600Y-123342400D03*
X223240600Y-123342400D03*
X221335600Y-123342400D03*
X222605600Y-123342400D03*
X221970600Y-123342400D03*
X223875600Y-123342400D03*
X160096200Y-127762000D03*
X160096200Y-127127000D03*
X160096200Y-125857000D03*
X160096200Y-126492000D03*
X160096200Y-125222000D03*
X160096200Y-124587000D03*
X160096200Y-123952000D03*
X172643800Y-127762000D03*
X172643800Y-127127000D03*
X172643800Y-126492000D03*
X172643800Y-125857000D03*
X172643800Y-125222000D03*
X172643800Y-124587000D03*
X172643800Y-123952000D03*
X169621200Y-123952000D03*
X169621200Y-124587000D03*
X169621200Y-125222000D03*
X169621200Y-125857000D03*
X169494200Y-126517400D03*
X169113200Y-127127000D03*
X167284400Y-127541020D03*
X167919400Y-127541020D03*
X168554400Y-127541020D03*
X164820600Y-127541020D03*
X165455600Y-127541020D03*
X163626800Y-127127000D03*
X163118800Y-124587000D03*
X163118800Y-125222000D03*
X163118800Y-125857000D03*
X164185600Y-127541020D03*
X163245800Y-126517400D03*
X163118800Y-123952000D03*
X171805600Y-123342400D03*
X169900600Y-123342400D03*
X171170600Y-123342400D03*
X170535600Y-123342400D03*
X172440600Y-123342400D03*
X162280600Y-123342400D03*
X160375600Y-123342400D03*
X161645600Y-123342400D03*
X161010600Y-123342400D03*
X162915600Y-123342400D03*
X175336200Y-127762000D03*
X175336200Y-127127000D03*
X175336200Y-125857000D03*
X175336200Y-126492000D03*
X175336200Y-125222000D03*
X175336200Y-124587000D03*
X175336200Y-123952000D03*
X187883800Y-127762000D03*
X187883800Y-127127000D03*
X187883800Y-126492000D03*
X187883800Y-125857000D03*
X187883800Y-125222000D03*
X187883800Y-124587000D03*
X187883800Y-123952000D03*
X184861200Y-123952000D03*
X184861200Y-124587000D03*
X184861200Y-125222000D03*
X184861200Y-125857000D03*
X184734200Y-126517400D03*
X184353200Y-127127000D03*
X182524400Y-127541020D03*
X183159400Y-127541020D03*
X183794400Y-127541020D03*
X180060600Y-127541020D03*
X180695600Y-127541020D03*
X178866800Y-127127000D03*
X178358800Y-124587000D03*
X178358800Y-125222000D03*
X178358800Y-125857000D03*
X179425600Y-127541020D03*
X178485800Y-126517400D03*
X178358800Y-123952000D03*
X187045600Y-123342400D03*
X185140600Y-123342400D03*
X186410600Y-123342400D03*
X185775600Y-123342400D03*
X187680600Y-123342400D03*
X177520600Y-123342400D03*
X175615600Y-123342400D03*
X176885600Y-123342400D03*
X176250600Y-123342400D03*
X178155600Y-123342400D03*
X205816200Y-127762000D03*
X205816200Y-127127000D03*
X205816200Y-125857000D03*
X205816200Y-126492000D03*
X205816200Y-125222000D03*
X205816200Y-124587000D03*
X205816200Y-123952000D03*
X218363800Y-127762000D03*
X218363800Y-127127000D03*
X218363800Y-126492000D03*
X218363800Y-125857000D03*
X218363800Y-125222000D03*
X218363800Y-124587000D03*
X218363800Y-123952000D03*
X215341200Y-123952000D03*
X215341200Y-124587000D03*
X215341200Y-125222000D03*
X215341200Y-125857000D03*
X215214200Y-126517400D03*
X214833200Y-127127000D03*
X213004400Y-127541020D03*
X213639400Y-127541020D03*
X214274400Y-127541020D03*
X210540600Y-127541020D03*
X211175600Y-127541020D03*
X209346800Y-127127000D03*
X208838800Y-124587000D03*
X208838800Y-125222000D03*
X208838800Y-125857000D03*
X209905600Y-127541020D03*
X208965800Y-126517400D03*
X208838800Y-123952000D03*
X217525600Y-123342400D03*
X215620600Y-123342400D03*
X216890600Y-123342400D03*
X216255600Y-123342400D03*
X218160600Y-123342400D03*
X208000600Y-123342400D03*
X206095600Y-123342400D03*
X207365600Y-123342400D03*
X206730600Y-123342400D03*
X208635600Y-123342400D03*
X233603800Y-103378000D03*
X233603800Y-104013000D03*
X233603800Y-105283000D03*
X233603800Y-104648000D03*
X233603800Y-105918000D03*
X233603800Y-106553000D03*
X233603800Y-107188000D03*
X221056200Y-103378000D03*
X221056200Y-104013000D03*
X221056200Y-104648000D03*
X221056200Y-105283000D03*
X221056200Y-105918000D03*
X221056200Y-106553000D03*
X221056200Y-107188000D03*
X224078800Y-107188000D03*
X224078800Y-106553000D03*
X224078800Y-105918000D03*
X224078800Y-105283000D03*
X224205800Y-104622600D03*
X224586800Y-104013000D03*
X226415600Y-103598980D03*
X225780600Y-103598980D03*
X225145600Y-103598980D03*
X228879400Y-103598980D03*
X228244400Y-103598980D03*
X230073200Y-104013000D03*
X230581200Y-106553000D03*
X230581200Y-105918000D03*
X230581200Y-105283000D03*
X229514400Y-103598980D03*
X230454200Y-104622600D03*
X230581200Y-107188000D03*
X221894400Y-107797600D03*
X223799400Y-107797600D03*
X222529400Y-107797600D03*
X223164400Y-107797600D03*
X221259400Y-107797600D03*
X231419400Y-107797600D03*
X233324400Y-107797600D03*
X232054400Y-107797600D03*
X232689400Y-107797600D03*
X230784400Y-107797600D03*
M02*
