G04 #@! TF.GenerationSoftware,KiCad,Pcbnew,(5.1.2)-2*
G04 #@! TF.CreationDate,2019-09-16T23:42:16-05:00*
G04 #@! TF.ProjectId,front_end,66726f6e-745f-4656-9e64-2e6b69636164,rev?*
G04 #@! TF.SameCoordinates,Original*
G04 #@! TF.FileFunction,Profile,NP*
%FSLAX46Y46*%
G04 Gerber Fmt 4.6, Leading zero omitted, Abs format (unit mm)*
G04 Created by KiCad (PCBNEW (5.1.2)-2) date 2019-09-16 23:42:16*
%MOMM*%
%LPD*%
G04 APERTURE LIST*
%ADD10C,0.025400*%
G04 APERTURE END LIST*
D10*
X165348100Y-104705420D02*
X165348100Y-106364200D01*
X163348100Y-106364200D02*
X163348100Y-80425000D01*
X165348100Y-132119300D02*
X165348100Y-133685000D01*
X163348100Y-132119300D02*
X163348100Y-139435000D01*
X165348100Y-106364200D02*
G75*
G02X163348100Y-106364200I-1000000J0D01*
G01*
X163348100Y-110364200D02*
G75*
G02X165348100Y-110364200I1000000J0D01*
G01*
X165348100Y-128119300D02*
G75*
G02X163348100Y-128119300I-1000000J0D01*
G01*
X163348100Y-132119300D02*
G75*
G02X165348100Y-132119300I1000000J0D01*
G01*
X164348100Y-170705000D02*
G75*
G02X163348100Y-169705000I0J1000000D01*
G01*
X293015720Y-169705000D02*
G75*
G02X292015720Y-170705000I-1000000J0D01*
G01*
X292015720Y-79425000D02*
G75*
G02X293015720Y-80425000I0J-1000000D01*
G01*
X163348100Y-80425000D02*
G75*
G02X164348100Y-79425000I1000000J0D01*
G01*
X178862000Y-103435420D02*
X179497000Y-103435420D01*
X179500000Y-134955000D02*
X178862000Y-134955000D01*
X179500000Y-103435420D02*
G75*
G02X180770000Y-104705420I0J-1270000D01*
G01*
X180770000Y-133685000D02*
G75*
G02X179500000Y-134955000I-1270000J0D01*
G01*
X180770000Y-133685000D02*
X180770000Y-104705420D01*
X166618100Y-134955000D02*
X167254200Y-134955000D01*
X165348100Y-128119300D02*
X165348100Y-110364200D01*
X167254200Y-103435420D02*
X166619200Y-103435420D01*
X165348100Y-104705420D02*
G75*
G02X166618100Y-103435420I1270000J0D01*
G01*
X166618100Y-134955000D02*
G75*
G02X165348100Y-133685000I0J1270000D01*
G01*
X284745720Y-97935000D02*
G75*
G02X284745720Y-99935000I0J-1000000D01*
G01*
X261745720Y-99935000D02*
G75*
G02X261745720Y-97935000I0J1000000D01*
G01*
X193340000Y-97935000D02*
X197340000Y-97935000D01*
X189340000Y-99935000D02*
X188880000Y-99935000D01*
X193340000Y-99935000D02*
G75*
G02X193340000Y-97935000I0J1000000D01*
G01*
X189340000Y-97935000D02*
G75*
G02X189340000Y-99935000I0J-1000000D01*
G01*
X166618100Y-168705000D02*
X166746040Y-168705000D01*
X165348100Y-165435000D02*
X165348100Y-167435000D01*
X165348100Y-138225000D02*
X165348100Y-139435000D01*
X288746040Y-170705000D02*
X292015720Y-170705000D01*
X288746040Y-168705000D02*
X289746040Y-168705000D01*
X247675000Y-168705000D02*
X244746040Y-168705000D01*
X252215000Y-168705000D02*
X256746040Y-168705000D01*
X244746040Y-170705000D02*
X256746040Y-170705000D01*
X226746040Y-170705000D02*
X240746040Y-170705000D01*
X216746040Y-168705000D02*
X216840000Y-168705000D01*
X221375840Y-168705000D02*
X222746040Y-168705000D01*
X216746040Y-170705000D02*
X222746040Y-170705000D01*
X199746040Y-170705000D02*
X212746040Y-170705000D01*
X193980000Y-168705000D02*
X195746040Y-168705000D01*
X187746040Y-168705000D02*
X189440000Y-168705000D01*
X187746040Y-170705000D02*
X195746040Y-170705000D01*
X170746040Y-170705000D02*
X183746040Y-170705000D01*
X164348100Y-170705000D02*
X166746040Y-170705000D01*
X163348100Y-165435000D02*
X163348100Y-169705000D01*
X163348100Y-143435000D02*
X163348100Y-161435000D01*
X165348100Y-139435000D02*
G75*
G02X163348100Y-139435000I-1000000J0D01*
G01*
X163348100Y-143435000D02*
G75*
G02X165348100Y-143435000I1000000J0D01*
G01*
X165348100Y-161435000D02*
G75*
G02X163348100Y-161435000I-1000000J0D01*
G01*
X163348100Y-165435000D02*
G75*
G02X165348100Y-165435000I1000000J0D01*
G01*
X166746040Y-168705000D02*
G75*
G02X166746040Y-170705000I0J-1000000D01*
G01*
X170746040Y-170705000D02*
G75*
G02X170746040Y-168705000I0J1000000D01*
G01*
X183746040Y-168705000D02*
G75*
G02X183746040Y-170705000I0J-1000000D01*
G01*
X187746040Y-170705000D02*
G75*
G02X187746040Y-168705000I0J1000000D01*
G01*
X195746040Y-168705000D02*
G75*
G02X195746040Y-170705000I0J-1000000D01*
G01*
X199746040Y-170705000D02*
G75*
G02X199746040Y-168705000I0J1000000D01*
G01*
X212746040Y-168705000D02*
G75*
G02X212746040Y-170705000I0J-1000000D01*
G01*
X216746040Y-170705000D02*
G75*
G02X216746040Y-168705000I0J1000000D01*
G01*
X222746040Y-168705000D02*
G75*
G02X222746040Y-170705000I0J-1000000D01*
G01*
X226746040Y-170705000D02*
G75*
G02X226746040Y-168705000I0J1000000D01*
G01*
X240746040Y-168705000D02*
G75*
G02X240746040Y-170705000I0J-1000000D01*
G01*
X244746040Y-170705000D02*
G75*
G02X244746040Y-168705000I0J1000000D01*
G01*
X256746040Y-168705000D02*
G75*
G02X256746040Y-170705000I0J-1000000D01*
G01*
X260746040Y-170705000D02*
G75*
G02X260746040Y-168705000I0J1000000D01*
G01*
X284746040Y-168705000D02*
G75*
G02X284746040Y-170705000I0J-1000000D01*
G01*
X288746040Y-170705000D02*
G75*
G02X288746040Y-168705000I0J1000000D01*
G01*
X287848100Y-81425000D02*
X289745720Y-81425000D01*
X287848100Y-79425000D02*
X292015720Y-79425000D01*
X256680000Y-81425000D02*
X259848100Y-81425000D01*
X251848100Y-81425000D02*
X252140000Y-81425000D01*
X251848100Y-79425000D02*
X259848100Y-79425000D01*
X233848100Y-79425000D02*
X247848100Y-79425000D01*
X229280000Y-81425000D02*
X229848100Y-81425000D01*
X222848100Y-81425000D02*
X224740000Y-81425000D01*
X222848100Y-79425000D02*
X229848100Y-79425000D01*
X206848100Y-79425000D02*
X218848100Y-79425000D01*
X201880000Y-81425000D02*
X202848100Y-81425000D01*
X195848100Y-79425000D02*
X202848100Y-79425000D01*
X195848100Y-81425000D02*
X197340000Y-81425000D01*
X179848100Y-79425000D02*
X191848100Y-79425000D01*
X175848100Y-79425000D02*
X164348100Y-79425000D01*
X174480000Y-81425000D02*
X175848100Y-81425000D01*
X287848100Y-81425000D02*
G75*
G02X287848100Y-79425000I0J1000000D01*
G01*
X283848100Y-79425000D02*
G75*
G02X283848100Y-81425000I0J-1000000D01*
G01*
X263848100Y-81425000D02*
G75*
G02X263848100Y-79425000I0J1000000D01*
G01*
X259848100Y-79425000D02*
G75*
G02X259848100Y-81425000I0J-1000000D01*
G01*
X251848100Y-81425000D02*
G75*
G02X251848100Y-79425000I0J1000000D01*
G01*
X247848100Y-79425000D02*
G75*
G02X247848100Y-81425000I0J-1000000D01*
G01*
X233848100Y-81425000D02*
G75*
G02X233848100Y-79425000I0J1000000D01*
G01*
X229848100Y-79425000D02*
G75*
G02X229848100Y-81425000I0J-1000000D01*
G01*
X222848100Y-81425000D02*
G75*
G02X222848100Y-79425000I0J1000000D01*
G01*
X218848100Y-79425000D02*
G75*
G02X218848100Y-81425000I0J-1000000D01*
G01*
X206848100Y-81425000D02*
G75*
G02X206848100Y-79425000I0J1000000D01*
G01*
X202848100Y-79425000D02*
G75*
G02X202848100Y-81425000I0J-1000000D01*
G01*
X195848100Y-81425000D02*
G75*
G02X195848100Y-79425000I0J1000000D01*
G01*
X191848100Y-79425000D02*
G75*
G02X191848100Y-81425000I0J-1000000D01*
G01*
X179848100Y-81425000D02*
G75*
G02X179848100Y-79425000I0J1000000D01*
G01*
X175848100Y-79425000D02*
G75*
G02X175848100Y-81425000I0J-1000000D01*
G01*
X158268100Y-74345000D02*
X298095720Y-74345000D01*
X158268100Y-175785000D02*
X158268100Y-74345000D01*
X298095720Y-175785000D02*
X158268100Y-175785000D01*
X298095720Y-74345000D02*
X298095720Y-175785000D01*
X260746040Y-170705000D02*
X284746040Y-170705000D01*
X293015720Y-80425000D02*
X293015720Y-169705000D01*
X163348100Y-110364200D02*
X163348100Y-128119300D01*
X283848100Y-79425000D02*
X263848100Y-79425000D01*
X173210000Y-96665000D02*
X173210000Y-82695000D01*
X198610000Y-82695000D02*
X198610000Y-83876100D01*
X174480000Y-97935000D02*
G75*
G02X173210000Y-96665000I0J1270000D01*
G01*
X189340000Y-97935000D02*
X174480000Y-97935000D01*
X198610000Y-96665000D02*
G75*
G02X197340000Y-97935000I-1270000J0D01*
G01*
X173210000Y-82695000D02*
G75*
G02X174480000Y-81425000I1270000J0D01*
G01*
X179848100Y-81425000D02*
X191848100Y-81425000D01*
X198610000Y-95483900D02*
X198610000Y-96665000D01*
X197340000Y-81425000D02*
G75*
G02X198610000Y-82695000I0J-1270000D01*
G01*
X165348100Y-158633900D02*
X165348100Y-161435000D01*
X165348100Y-147026100D02*
X165348100Y-143435000D01*
X189440000Y-136955000D02*
G75*
G02X190710000Y-138225000I0J-1270000D01*
G01*
X166618100Y-168705000D02*
G75*
G02X165348100Y-167435000I0J1270000D01*
G01*
X183746040Y-168705000D02*
X170746040Y-168705000D01*
X190710000Y-167435000D02*
G75*
G02X189440000Y-168705000I-1270000J0D01*
G01*
X165348100Y-138225000D02*
G75*
G02X166618100Y-136955000I1270000J0D01*
G01*
X190710000Y-166253900D02*
X190710000Y-167435000D01*
X166618100Y-136955000D02*
X189440000Y-136955000D01*
X190710000Y-151013900D02*
X190710000Y-154646100D01*
X190710000Y-138225000D02*
X190710000Y-139406100D01*
X229280000Y-97935000D02*
X229780000Y-97935000D01*
X224603240Y-99935000D02*
X229780000Y-99935000D01*
X219780000Y-99935000D02*
X220063580Y-99935000D01*
X219780000Y-97935000D02*
X224740000Y-97935000D01*
X202280000Y-99935000D02*
X193340000Y-99935000D01*
X201880000Y-97935000D02*
X202280000Y-97935000D01*
X233780000Y-99935000D02*
G75*
G02X233780000Y-97935000I0J1000000D01*
G01*
X229780000Y-97935000D02*
G75*
G02X229780000Y-99935000I0J-1000000D01*
G01*
X219780000Y-99935000D02*
G75*
G02X219780000Y-97935000I0J1000000D01*
G01*
X215780000Y-97935000D02*
G75*
G02X215780000Y-99935000I0J-1000000D01*
G01*
X206280000Y-99935000D02*
G75*
G02X206280000Y-97935000I0J1000000D01*
G01*
X202280000Y-97935000D02*
G75*
G02X202280000Y-99935000I0J-1000000D01*
G01*
X226380000Y-118445000D02*
X221645240Y-118445000D01*
X224603240Y-116445000D02*
X226380000Y-116445000D01*
X184040000Y-118445000D02*
X190880000Y-118445000D01*
X188880000Y-116445000D02*
X190880000Y-116445000D01*
X217105720Y-118445000D02*
X216380000Y-118445000D01*
X216380000Y-116445000D02*
X220063580Y-116445000D01*
X230380000Y-118445000D02*
G75*
G02X230380000Y-116445000I0J1000000D01*
G01*
X226380000Y-116445000D02*
G75*
G02X226380000Y-118445000I0J-1000000D01*
G01*
X216380000Y-118445000D02*
G75*
G02X216380000Y-116445000I0J1000000D01*
G01*
X212380000Y-116445000D02*
G75*
G02X212380000Y-118445000I0J-1000000D01*
G01*
X194880000Y-118445000D02*
G75*
G02X194880000Y-116445000I0J1000000D01*
G01*
X190880000Y-116445000D02*
G75*
G02X190880000Y-118445000I0J-1000000D01*
G01*
X193980000Y-136955000D02*
X195105720Y-136955000D01*
X184040000Y-134955000D02*
X195105720Y-134955000D01*
X217105720Y-134955000D02*
X215105720Y-134955000D01*
X215105720Y-136955000D02*
X216840000Y-136955000D01*
X195105720Y-134955000D02*
G75*
G02X195105720Y-136955000I0J-1000000D01*
G01*
X199105720Y-136955000D02*
G75*
G02X199105720Y-134955000I0J1000000D01*
G01*
X211105720Y-134955000D02*
G75*
G02X211105720Y-136955000I0J-1000000D01*
G01*
X215105720Y-136955000D02*
G75*
G02X215105720Y-134955000I0J1000000D01*
G01*
X251520000Y-118445000D02*
X255920000Y-118445000D01*
X251520000Y-116445000D02*
X252020000Y-116445000D01*
X247520000Y-116445000D02*
G75*
G02X247520000Y-118445000I0J-1000000D01*
G01*
X251520000Y-118445000D02*
G75*
G02X251520000Y-116445000I0J1000000D01*
G01*
X251640000Y-99935000D02*
X252020000Y-99935000D01*
X251640000Y-97935000D02*
X252140000Y-97935000D01*
X247640000Y-97935000D02*
G75*
G02X247640000Y-99935000I0J-1000000D01*
G01*
X251640000Y-99935000D02*
G75*
G02X251640000Y-97935000I0J1000000D01*
G01*
X221378380Y-136955000D02*
X221746200Y-136955000D01*
X221630000Y-134955000D02*
X221746200Y-134955000D01*
X240246200Y-134955000D02*
X243246200Y-134955000D01*
X243246200Y-136955000D02*
X240246200Y-136955000D01*
X247246200Y-136955000D02*
X247675000Y-136955000D01*
X247246200Y-134955000D02*
X255920000Y-134955000D01*
X221746200Y-134955000D02*
G75*
G02X221746200Y-136955000I0J-1000000D01*
G01*
X225746200Y-136955000D02*
G75*
G02X225746200Y-134955000I0J1000000D01*
G01*
X243246200Y-134955000D02*
G75*
G02X243246200Y-136955000I0J-1000000D01*
G01*
X247246200Y-136955000D02*
G75*
G02X247246200Y-134955000I0J1000000D01*
G01*
X261746200Y-136955000D02*
X252215000Y-136955000D01*
X260460000Y-134955000D02*
X261746200Y-134955000D01*
X287746200Y-136955000D02*
X289746200Y-136955000D01*
X287746200Y-134955000D02*
X289746200Y-134955000D01*
X265746200Y-136955000D02*
G75*
G02X265746200Y-134955000I0J1000000D01*
G01*
X261746200Y-134955000D02*
G75*
G02X261746200Y-136955000I0J-1000000D01*
G01*
X283746200Y-134955000D02*
G75*
G02X283746200Y-136955000I0J-1000000D01*
G01*
X287746200Y-136955000D02*
G75*
G02X287746200Y-134955000I0J1000000D01*
G01*
X289745720Y-97935000D02*
X288746200Y-97935000D01*
X233848100Y-81425000D02*
X247848100Y-81425000D01*
X291016040Y-158633900D02*
X291016040Y-167435000D01*
X288746200Y-99935000D02*
G75*
G02X288746200Y-97935000I0J1000000D01*
G01*
X259190000Y-119715000D02*
G75*
G02X260460000Y-118445000I1270000J0D01*
G01*
X291016200Y-133685000D02*
G75*
G02X289746200Y-134955000I-1270000J0D01*
G01*
X257746200Y-97935000D02*
G75*
G02X257746200Y-99935000I0J-1000000D01*
G01*
X224603240Y-116445000D02*
G75*
G02X223333240Y-115175000I0J1270000D01*
G01*
X228010000Y-96665000D02*
X228010000Y-82695000D01*
X253290000Y-102386100D02*
X253290000Y-101205000D01*
X223333240Y-101205000D02*
G75*
G02X224603240Y-99935000I1270000J0D01*
G01*
X229280000Y-97935000D02*
G75*
G02X228010000Y-96665000I0J1270000D01*
G01*
X265746200Y-134955000D02*
X283746200Y-134955000D01*
X224740000Y-81425000D02*
G75*
G02X226010000Y-82695000I0J-1270000D01*
G01*
X247640000Y-97935000D02*
X233780000Y-97935000D01*
X259190000Y-132503900D02*
X259190000Y-133685000D01*
X289746200Y-118445000D02*
G75*
G02X291016200Y-119715000I0J-1270000D01*
G01*
X260460000Y-134955000D02*
G75*
G02X259190000Y-133685000I0J1270000D01*
G01*
X289746040Y-136955000D02*
G75*
G02X291016040Y-138225000I0J-1270000D01*
G01*
X265746200Y-136955000D02*
X283746200Y-136955000D01*
X288746200Y-99935000D02*
X289745720Y-99935000D01*
X256680000Y-97935000D02*
X257746200Y-97935000D01*
X182770000Y-119715000D02*
X182770000Y-120896100D01*
X253410000Y-96665000D02*
G75*
G02X252140000Y-97935000I-1270000J0D01*
G01*
X252140000Y-81425000D02*
G75*
G02X253410000Y-82695000I0J-1270000D01*
G01*
X253410000Y-83876100D02*
X253410000Y-82695000D01*
X200610000Y-82695000D02*
G75*
G02X201880000Y-81425000I1270000J0D01*
G01*
X253290000Y-115175000D02*
G75*
G02X252020000Y-116445000I-1270000J0D01*
G01*
X247640000Y-99935000D02*
X233780000Y-99935000D01*
X256560000Y-99935000D02*
X257746200Y-99935000D01*
X228010000Y-82695000D02*
G75*
G02X229280000Y-81425000I1270000J0D01*
G01*
X247520000Y-116445000D02*
X230380000Y-116445000D01*
X291016040Y-147026100D02*
X291016040Y-138225000D01*
X206848100Y-81425000D02*
X218848100Y-81425000D01*
X252020000Y-99935000D02*
G75*
G02X253290000Y-101205000I0J-1270000D01*
G01*
X260746040Y-168705000D02*
X284746040Y-168705000D01*
X257190000Y-133685000D02*
G75*
G02X255920000Y-134955000I-1270000J0D01*
G01*
X261745720Y-99935000D02*
X284745720Y-99935000D01*
X250945000Y-167435000D02*
X250945000Y-166253900D01*
X291011290Y-115175000D02*
G75*
G02X289741290Y-116445000I-1270000J0D01*
G01*
X256560000Y-116445000D02*
G75*
G02X255290000Y-115175000I0J1270000D01*
G01*
X252215000Y-168705000D02*
G75*
G02X250945000Y-167435000I0J1270000D01*
G01*
X283691290Y-116445000D02*
X266791290Y-116445000D01*
X256680000Y-97935000D02*
G75*
G02X255410000Y-96665000I0J1270000D01*
G01*
X289745720Y-81425000D02*
G75*
G02X291015720Y-82695000I0J-1270000D01*
G01*
X291015720Y-95476280D02*
X291015720Y-96665000D01*
X255410000Y-82695000D02*
G75*
G02X256680000Y-81425000I1270000J0D01*
G01*
X230380000Y-118445000D02*
X247520000Y-118445000D01*
X250945000Y-138225000D02*
G75*
G02X252215000Y-136955000I1270000J0D01*
G01*
X221630000Y-134955000D02*
G75*
G02X220375240Y-133700240I0J1254760D01*
G01*
X289741290Y-99935000D02*
G75*
G02X291011290Y-101205000I0J-1270000D01*
G01*
X194880000Y-118445000D02*
X212380000Y-118445000D01*
X257190000Y-119715000D02*
X257190000Y-120896100D01*
X220375240Y-119715000D02*
G75*
G02X221645240Y-118445000I1270000J0D01*
G01*
X255920000Y-118445000D02*
G75*
G02X257190000Y-119715000I0J-1270000D01*
G01*
X291015720Y-96665000D02*
G75*
G02X289745720Y-97935000I-1270000J0D01*
G01*
X217105720Y-118445000D02*
G75*
G02X218375720Y-119715000I0J-1270000D01*
G01*
X255290000Y-115175000D02*
X255290000Y-113993900D01*
X255290000Y-101205000D02*
G75*
G02X256560000Y-99935000I1270000J0D01*
G01*
X283848100Y-81425000D02*
X263848100Y-81425000D01*
X284745720Y-97935000D02*
X261745720Y-97935000D01*
X240246200Y-134955000D02*
X225746200Y-134955000D01*
X182770000Y-119715000D02*
G75*
G02X184040000Y-118445000I1270000J0D01*
G01*
X283691290Y-116445000D02*
G75*
G02X283691290Y-118445000I0J-1000000D01*
G01*
X266791290Y-118445000D02*
G75*
G02X266791290Y-116445000I0J1000000D01*
G01*
X287791290Y-118445000D02*
G75*
G02X287791290Y-116445000I0J1000000D01*
G01*
X262691290Y-116445000D02*
G75*
G02X262691290Y-118445000I0J-1000000D01*
G01*
X287791290Y-116445000D02*
X289741290Y-116445000D01*
X260460000Y-118445000D02*
X262691290Y-118445000D01*
X287791290Y-118445000D02*
X289741290Y-118445000D01*
X262691290Y-116445000D02*
X256560000Y-116445000D01*
X187610000Y-102386100D02*
X187610000Y-101205000D01*
X182770000Y-133685000D02*
X182770000Y-132503900D01*
X184040000Y-134955000D02*
G75*
G02X182770000Y-133685000I0J1270000D01*
G01*
X220063580Y-99935000D02*
G75*
G02X221333580Y-101205000I0J-1270000D01*
G01*
X221333580Y-115175000D02*
G75*
G02X220063580Y-116445000I-1270000J0D01*
G01*
X192710000Y-138225000D02*
G75*
G02X193980000Y-136955000I1270000J0D01*
G01*
X193980000Y-168705000D02*
G75*
G02X192710000Y-167435000I0J1270000D01*
G01*
X188880000Y-116445000D02*
G75*
G02X187610000Y-115175000I0J1270000D01*
G01*
X206280000Y-99935000D02*
X215780000Y-99935000D01*
X194880000Y-116445000D02*
X212380000Y-116445000D01*
X192710000Y-166253900D02*
X192710000Y-167435000D01*
X221375840Y-168705000D02*
G75*
G02X220105840Y-167435000I0J1270000D01*
G01*
X220108380Y-138225000D02*
G75*
G02X221378380Y-136955000I1270000J0D01*
G01*
X187610000Y-101205000D02*
G75*
G02X188880000Y-99935000I1270000J0D01*
G01*
X218110000Y-167435000D02*
G75*
G02X216840000Y-168705000I-1270000J0D01*
G01*
X248945000Y-167435000D02*
G75*
G02X247675000Y-168705000I-1270000J0D01*
G01*
X248945000Y-138225000D02*
X248945000Y-139406100D01*
X247675000Y-136955000D02*
G75*
G02X248945000Y-138225000I0J-1270000D01*
G01*
X211105720Y-134955000D02*
X199105720Y-134955000D01*
X216840000Y-136955000D02*
G75*
G02X218110000Y-138225000I0J-1270000D01*
G01*
X220105840Y-158633900D02*
X220105840Y-167435000D01*
X199746040Y-168705000D02*
X212746040Y-168705000D01*
X240746040Y-168705000D02*
X226746040Y-168705000D01*
X223333240Y-113993900D02*
X223333240Y-115175000D01*
X199105720Y-136955000D02*
X211105720Y-136955000D01*
X266791290Y-118445000D02*
X283691290Y-118445000D01*
X223333240Y-102386100D02*
X223333240Y-101205000D01*
X291016200Y-120896100D02*
X291016200Y-119715000D01*
X187610000Y-113993900D02*
X187610000Y-115175000D01*
X220375240Y-132503900D02*
X220375240Y-133700240D01*
X220375240Y-120896100D02*
X220375240Y-119715000D01*
X291011290Y-102385888D02*
X291011290Y-101205000D01*
X291011290Y-113993688D02*
X291011290Y-115175000D01*
X240246200Y-136955000D02*
X225746200Y-136955000D01*
X291015720Y-83868480D02*
X291015720Y-82695000D01*
X218375720Y-120896100D02*
X218375720Y-119715000D01*
X218375720Y-133685000D02*
G75*
G02X217105720Y-134955000I-1270000J0D01*
G01*
X291016200Y-132503900D02*
X291016200Y-133685000D01*
X218375720Y-132503900D02*
X218375720Y-133685000D01*
X221333580Y-102386100D02*
X221333580Y-101205000D01*
X221333580Y-113993900D02*
X221333580Y-115175000D01*
X291016040Y-167435000D02*
G75*
G02X289746040Y-168705000I-1270000J0D01*
G01*
X226010000Y-96665000D02*
G75*
G02X224740000Y-97935000I-1270000J0D01*
G01*
X250945000Y-139406100D02*
X250945000Y-138225000D01*
X255290000Y-102386100D02*
X255290000Y-101205000D01*
X201880000Y-97935000D02*
G75*
G02X200610000Y-96665000I0J1270000D01*
G01*
X192710000Y-139406100D02*
X192710000Y-138225000D01*
X248945000Y-166253900D02*
X248945000Y-167435000D01*
X215780000Y-97935000D02*
X206280000Y-97935000D01*
X255410000Y-96665000D02*
X255410000Y-95483900D01*
X218110000Y-158633900D02*
X218110000Y-167435000D01*
X253410000Y-95483900D02*
X253410000Y-96665000D01*
X200610000Y-96665000D02*
X200610000Y-82695000D01*
X259190000Y-120896100D02*
X259190000Y-119715000D01*
X257190000Y-132503900D02*
X257190000Y-133685000D01*
X226010000Y-95483900D02*
X226010000Y-96665000D01*
X253290000Y-113993900D02*
X253290000Y-115175000D01*
X250945000Y-154646100D02*
X250945000Y-151013900D01*
X220108380Y-147026100D02*
X220108380Y-138225000D01*
X218110000Y-138225000D02*
X218110000Y-147026100D01*
X255410000Y-83876100D02*
X255410000Y-82695000D01*
X192710000Y-154646100D02*
X192710000Y-151013900D01*
X248945000Y-151013900D02*
X248945000Y-154646100D01*
X226010000Y-82695000D02*
X226010000Y-83876100D01*
X169337000Y-134955000D02*
X176779200Y-134955000D01*
X178862000Y-134955000D02*
X178862000Y-132059400D01*
X176779202Y-132061218D02*
G75*
G02X178862000Y-132059400I1041398J1818D01*
G01*
X176779200Y-134955000D02*
X176779200Y-132059400D01*
X169337000Y-134955000D02*
X169337000Y-132059400D01*
X167254202Y-132061218D02*
G75*
G02X169337000Y-132059400I1041398J1818D01*
G01*
X167254200Y-134955000D02*
X167254200Y-132059400D01*
X178862000Y-103435420D02*
X178862000Y-106331020D01*
X178861998Y-106329202D02*
G75*
G02X176779200Y-106331020I-1041398J-1818D01*
G01*
X176779200Y-103435420D02*
X176779200Y-106331020D01*
X169337000Y-103435420D02*
X169337000Y-106331020D01*
X169336998Y-106329202D02*
G75*
G02X167254200Y-106331020I-1041398J-1818D01*
G01*
X167254200Y-103435420D02*
X167254200Y-106331020D01*
X176779200Y-103435420D02*
X169337000Y-103435420D01*
X248945000Y-164171100D02*
X248945000Y-156728900D01*
X248945000Y-154646100D02*
X246049400Y-154646100D01*
X246051218Y-156728898D02*
G75*
G02X246049400Y-154646100I-1818J1041398D01*
G01*
X248945000Y-156728900D02*
X246049400Y-156728900D01*
X248945000Y-164171100D02*
X246049400Y-164171100D01*
X246051218Y-166253898D02*
G75*
G02X246049400Y-164171100I-1818J1041398D01*
G01*
X248945000Y-166253900D02*
X246049400Y-166253900D01*
X218110000Y-156551100D02*
X218110000Y-149108900D01*
X218110000Y-147026100D02*
X215214400Y-147026100D01*
X215216218Y-149108898D02*
G75*
G02X215214400Y-147026100I-1818J1041398D01*
G01*
X218110000Y-149108900D02*
X215214400Y-149108900D01*
X218110000Y-156551100D02*
X215214400Y-156551100D01*
X215216218Y-158633898D02*
G75*
G02X215214400Y-156551100I-1818J1041398D01*
G01*
X218110000Y-158633900D02*
X215214400Y-158633900D01*
X190710000Y-148931100D02*
X190710000Y-141488900D01*
X190710000Y-139406100D02*
X187814400Y-139406100D01*
X187816218Y-141488898D02*
G75*
G02X187814400Y-139406100I-1818J1041398D01*
G01*
X190710000Y-141488900D02*
X187814400Y-141488900D01*
X190710000Y-148931100D02*
X187814400Y-148931100D01*
X187816218Y-151013898D02*
G75*
G02X187814400Y-148931100I-1818J1041398D01*
G01*
X190710000Y-151013900D02*
X187814400Y-151013900D01*
X190710000Y-164171100D02*
X190710000Y-156728900D01*
X190710000Y-154646100D02*
X187814400Y-154646100D01*
X187816218Y-156728898D02*
G75*
G02X187814400Y-154646100I-1818J1041398D01*
G01*
X190710000Y-156728900D02*
X187814400Y-156728900D01*
X190710000Y-164171100D02*
X187814400Y-164171100D01*
X187816218Y-166253898D02*
G75*
G02X187814400Y-164171100I-1818J1041398D01*
G01*
X190710000Y-166253900D02*
X187814400Y-166253900D01*
X198610000Y-93401100D02*
X198610000Y-85958900D01*
X198610000Y-83876100D02*
X195714400Y-83876100D01*
X195716218Y-85958898D02*
G75*
G02X195714400Y-83876100I-1818J1041398D01*
G01*
X198610000Y-85958900D02*
X195714400Y-85958900D01*
X198610000Y-93401100D02*
X195714400Y-93401100D01*
X195716218Y-95483898D02*
G75*
G02X195714400Y-93401100I-1818J1041398D01*
G01*
X198610000Y-95483900D02*
X195714400Y-95483900D01*
X165348100Y-149108900D02*
X165348100Y-156551100D01*
X165348100Y-158633900D02*
X168243700Y-158633900D01*
X168241882Y-156551102D02*
G75*
G02X168243700Y-158633900I1818J-1041398D01*
G01*
X165348100Y-156551100D02*
X168243700Y-156551100D01*
X165348100Y-149108900D02*
X168243700Y-149108900D01*
X168241882Y-147026102D02*
G75*
G02X168243700Y-149108900I1818J-1041398D01*
G01*
X165348100Y-147026100D02*
X168243700Y-147026100D01*
X226010000Y-93401100D02*
X226010000Y-85958900D01*
X226010000Y-83876100D02*
X223114400Y-83876100D01*
X223116218Y-85958898D02*
G75*
G02X223114400Y-83876100I-1818J1041398D01*
G01*
X226010000Y-85958900D02*
X223114400Y-85958900D01*
X226010000Y-93401100D02*
X223114400Y-93401100D01*
X223116218Y-95483898D02*
G75*
G02X223114400Y-93401100I-1818J1041398D01*
G01*
X226010000Y-95483900D02*
X223114400Y-95483900D01*
X291015720Y-93393480D02*
X291015720Y-85951280D01*
X291015720Y-83868480D02*
X288120120Y-83868480D01*
X288121938Y-85951278D02*
G75*
G02X288120120Y-83868480I-1818J1041398D01*
G01*
X291015720Y-85951280D02*
X288120120Y-85951280D01*
X291015720Y-93393480D02*
X288120120Y-93393480D01*
X288121938Y-95476278D02*
G75*
G02X288120120Y-93393480I-1818J1041398D01*
G01*
X291015720Y-95476280D02*
X288120120Y-95476280D01*
X291016200Y-130421100D02*
X291016200Y-122978900D01*
X291016200Y-120896100D02*
X288120600Y-120896100D01*
X288122418Y-122978898D02*
G75*
G02X288120600Y-120896100I-1818J1041398D01*
G01*
X291016200Y-122978900D02*
X288120600Y-122978900D01*
X291016200Y-130421100D02*
X288120600Y-130421100D01*
X288122418Y-132503898D02*
G75*
G02X288120600Y-130421100I-1818J1041398D01*
G01*
X291016200Y-132503900D02*
X288120600Y-132503900D01*
X259190000Y-122978900D02*
X259190000Y-130421100D01*
X259190000Y-132503900D02*
X262085600Y-132503900D01*
X262083782Y-130421102D02*
G75*
G02X262085600Y-132503900I1818J-1041398D01*
G01*
X259190000Y-130421100D02*
X262085600Y-130421100D01*
X259190000Y-122978900D02*
X262085600Y-122978900D01*
X262083782Y-120896102D02*
G75*
G02X262085600Y-122978900I1818J-1041398D01*
G01*
X259190000Y-120896100D02*
X262085600Y-120896100D01*
X253410000Y-93401100D02*
X253410000Y-85958900D01*
X253410000Y-83876100D02*
X250514400Y-83876100D01*
X250516218Y-85958898D02*
G75*
G02X250514400Y-83876100I-1818J1041398D01*
G01*
X253410000Y-85958900D02*
X250514400Y-85958900D01*
X253410000Y-93401100D02*
X250514400Y-93401100D01*
X250516218Y-95483898D02*
G75*
G02X250514400Y-93401100I-1818J1041398D01*
G01*
X253410000Y-95483900D02*
X250514400Y-95483900D01*
X223333240Y-104468900D02*
X223333240Y-111911100D01*
X223333240Y-113993900D02*
X226228840Y-113993900D01*
X226227022Y-111911102D02*
G75*
G02X226228840Y-113993900I1818J-1041398D01*
G01*
X223333240Y-111911100D02*
X226228840Y-111911100D01*
X223333240Y-104468900D02*
X226228840Y-104468900D01*
X226227022Y-102386102D02*
G75*
G02X226228840Y-104468900I1818J-1041398D01*
G01*
X223333240Y-102386100D02*
X226228840Y-102386100D01*
X248945000Y-148931100D02*
X248945000Y-141488900D01*
X248945000Y-139406100D02*
X246049400Y-139406100D01*
X246051218Y-141488898D02*
G75*
G02X246049400Y-139406100I-1818J1041398D01*
G01*
X248945000Y-141488900D02*
X246049400Y-141488900D01*
X248945000Y-148931100D02*
X246049400Y-148931100D01*
X246051218Y-151013898D02*
G75*
G02X246049400Y-148931100I-1818J1041398D01*
G01*
X248945000Y-151013900D02*
X246049400Y-151013900D01*
X253290000Y-111911100D02*
X253290000Y-104468900D01*
X253290000Y-102386100D02*
X250394400Y-102386100D01*
X250396218Y-104468898D02*
G75*
G02X250394400Y-102386100I-1818J1041398D01*
G01*
X253290000Y-104468900D02*
X250394400Y-104468900D01*
X253290000Y-111911100D02*
X250394400Y-111911100D01*
X250396218Y-113993898D02*
G75*
G02X250394400Y-111911100I-1818J1041398D01*
G01*
X253290000Y-113993900D02*
X250394400Y-113993900D01*
X250945000Y-141488900D02*
X250945000Y-148931100D01*
X250945000Y-151013900D02*
X253840600Y-151013900D01*
X253838782Y-148931102D02*
G75*
G02X253840600Y-151013900I1818J-1041398D01*
G01*
X250945000Y-148931100D02*
X253840600Y-148931100D01*
X250945000Y-141488900D02*
X253840600Y-141488900D01*
X253838782Y-139406102D02*
G75*
G02X253840600Y-141488900I1818J-1041398D01*
G01*
X250945000Y-139406100D02*
X253840600Y-139406100D01*
X291016040Y-156551100D02*
X291016040Y-149108900D01*
X291016040Y-147026100D02*
X288120440Y-147026100D01*
X288122258Y-149108898D02*
G75*
G02X288120440Y-147026100I-1818J1041398D01*
G01*
X291016040Y-149108900D02*
X288120440Y-149108900D01*
X291016040Y-156551100D02*
X288120440Y-156551100D01*
X288122258Y-158633898D02*
G75*
G02X288120440Y-156551100I-1818J1041398D01*
G01*
X291016040Y-158633900D02*
X288120440Y-158633900D01*
X182770000Y-122978900D02*
X182770000Y-130421100D01*
X182770000Y-132503900D02*
X185665600Y-132503900D01*
X185663782Y-130421102D02*
G75*
G02X185665600Y-132503900I1818J-1041398D01*
G01*
X182770000Y-130421100D02*
X185665600Y-130421100D01*
X182770000Y-122978900D02*
X185665600Y-122978900D01*
X185663782Y-120896102D02*
G75*
G02X185665600Y-122978900I1818J-1041398D01*
G01*
X182770000Y-120896100D02*
X185665600Y-120896100D01*
X250945000Y-156728900D02*
X250945000Y-164171100D01*
X250945000Y-166253900D02*
X253840600Y-166253900D01*
X253838782Y-164171102D02*
G75*
G02X253840600Y-166253900I1818J-1041398D01*
G01*
X250945000Y-164171100D02*
X253840600Y-164171100D01*
X250945000Y-156728900D02*
X253840600Y-156728900D01*
X253838782Y-154646102D02*
G75*
G02X253840600Y-156728900I1818J-1041398D01*
G01*
X250945000Y-154646100D02*
X253840600Y-154646100D01*
X255410000Y-85958900D02*
X255410000Y-93401100D01*
X255410000Y-95483900D02*
X258305600Y-95483900D01*
X258303782Y-93401102D02*
G75*
G02X258305600Y-95483900I1818J-1041398D01*
G01*
X255410000Y-93401100D02*
X258305600Y-93401100D01*
X255410000Y-85958900D02*
X258305600Y-85958900D01*
X258303782Y-83876102D02*
G75*
G02X258305600Y-85958900I1818J-1041398D01*
G01*
X255410000Y-83876100D02*
X258305600Y-83876100D01*
X257190000Y-130421100D02*
X257190000Y-122978900D01*
X257190000Y-120896100D02*
X254294400Y-120896100D01*
X254296218Y-122978898D02*
G75*
G02X254294400Y-120896100I-1818J1041398D01*
G01*
X257190000Y-122978900D02*
X254294400Y-122978900D01*
X257190000Y-130421100D02*
X254294400Y-130421100D01*
X254296218Y-132503898D02*
G75*
G02X254294400Y-130421100I-1818J1041398D01*
G01*
X257190000Y-132503900D02*
X254294400Y-132503900D01*
X220108380Y-149108900D02*
X220108380Y-156551100D01*
X220108380Y-158633900D02*
X223003980Y-158633900D01*
X223002162Y-156551102D02*
G75*
G02X223003980Y-158633900I1818J-1041398D01*
G01*
X220108380Y-156551100D02*
X223003980Y-156551100D01*
X220108380Y-149108900D02*
X223003980Y-149108900D01*
X223002162Y-147026102D02*
G75*
G02X223003980Y-149108900I1818J-1041398D01*
G01*
X220108380Y-147026100D02*
X223003980Y-147026100D01*
X192710000Y-156728900D02*
X192710000Y-164171100D01*
X192710000Y-166253900D02*
X195605600Y-166253900D01*
X195603782Y-164171102D02*
G75*
G02X195605600Y-166253900I1818J-1041398D01*
G01*
X192710000Y-164171100D02*
X195605600Y-164171100D01*
X192710000Y-156728900D02*
X195605600Y-156728900D01*
X195603782Y-154646102D02*
G75*
G02X195605600Y-156728900I1818J-1041398D01*
G01*
X192710000Y-154646100D02*
X195605600Y-154646100D01*
X221333580Y-111911100D02*
X221333580Y-104468900D01*
X221333580Y-102386100D02*
X218437980Y-102386100D01*
X218439798Y-104468898D02*
G75*
G02X218437980Y-102386100I-1818J1041398D01*
G01*
X221333580Y-104468900D02*
X218437980Y-104468900D01*
X221333580Y-111911100D02*
X218437980Y-111911100D01*
X218439798Y-113993898D02*
G75*
G02X218437980Y-111911100I-1818J1041398D01*
G01*
X221333580Y-113993900D02*
X218437980Y-113993900D01*
X187610000Y-104468900D02*
X187610000Y-111911100D01*
X187610000Y-113993900D02*
X190505600Y-113993900D01*
X190503782Y-111911102D02*
G75*
G02X190505600Y-113993900I1818J-1041398D01*
G01*
X187610000Y-111911100D02*
X190505600Y-111911100D01*
X187610000Y-104468900D02*
X190505600Y-104468900D01*
X190503782Y-102386102D02*
G75*
G02X190505600Y-104468900I1818J-1041398D01*
G01*
X187610000Y-102386100D02*
X190505600Y-102386100D01*
X220375240Y-122978900D02*
X220375240Y-130421100D01*
X220375240Y-132503900D02*
X223270840Y-132503900D01*
X223269022Y-130421102D02*
G75*
G02X223270840Y-132503900I1818J-1041398D01*
G01*
X220375240Y-130421100D02*
X223270840Y-130421100D01*
X220375240Y-122978900D02*
X223270840Y-122978900D01*
X223269022Y-120896102D02*
G75*
G02X223270840Y-122978900I1818J-1041398D01*
G01*
X220375240Y-120896100D02*
X223270840Y-120896100D01*
X291011290Y-111910888D02*
X291011290Y-104468688D01*
X291011290Y-102385888D02*
X288115690Y-102385888D01*
X288117508Y-104468686D02*
G75*
G02X288115690Y-102385888I-1818J1041398D01*
G01*
X291011290Y-104468688D02*
X288115690Y-104468688D01*
X291011290Y-111910888D02*
X288115690Y-111910888D01*
X288117508Y-113993686D02*
G75*
G02X288115690Y-111910888I-1818J1041398D01*
G01*
X291011290Y-113993688D02*
X288115690Y-113993688D01*
X255290000Y-104468900D02*
X255290000Y-111911100D01*
X255290000Y-113993900D02*
X258185600Y-113993900D01*
X258183782Y-111911102D02*
G75*
G02X258185600Y-113993900I1818J-1041398D01*
G01*
X255290000Y-111911100D02*
X258185600Y-111911100D01*
X255290000Y-104468900D02*
X258185600Y-104468900D01*
X258183782Y-102386102D02*
G75*
G02X258185600Y-104468900I1818J-1041398D01*
G01*
X255290000Y-102386100D02*
X258185600Y-102386100D01*
X218375720Y-130421100D02*
X218375720Y-122978900D01*
X218375720Y-120896100D02*
X215480120Y-120896100D01*
X215481938Y-122978898D02*
G75*
G02X215480120Y-120896100I-1818J1041398D01*
G01*
X218375720Y-122978900D02*
X215480120Y-122978900D01*
X218375720Y-130421100D02*
X215480120Y-130421100D01*
X215481938Y-132503898D02*
G75*
G02X215480120Y-130421100I-1818J1041398D01*
G01*
X218375720Y-132503900D02*
X215480120Y-132503900D01*
X192710000Y-141488900D02*
X192710000Y-148931100D01*
X192710000Y-151013900D02*
X195605600Y-151013900D01*
X195603782Y-148931102D02*
G75*
G02X195605600Y-151013900I1818J-1041398D01*
G01*
X192710000Y-148931100D02*
X195605600Y-148931100D01*
X192710000Y-141488900D02*
X195605600Y-141488900D01*
X195603782Y-139406102D02*
G75*
G02X195605600Y-141488900I1818J-1041398D01*
G01*
X192710000Y-139406100D02*
X195605600Y-139406100D01*
M02*
