G04 #@! TF.GenerationSoftware,KiCad,Pcbnew,(5.1.2)-2*
G04 #@! TF.CreationDate,2019-08-10T23:44:24-05:00*
G04 #@! TF.ProjectId,front_end,66726f6e-745f-4656-9e64-2e6b69636164,rev?*
G04 #@! TF.SameCoordinates,Original*
G04 #@! TF.FileFunction,Profile,NP*
%FSLAX46Y46*%
G04 Gerber Fmt 4.6, Leading zero omitted, Abs format (unit mm)*
G04 Created by KiCad (PCBNEW (5.1.2)-2) date 2019-08-10 23:44:24*
%MOMM*%
%LPD*%
G04 APERTURE LIST*
%ADD10C,0.025400*%
G04 APERTURE END LIST*
D10*
X58420000Y-128270000D02*
G75*
G02X57150000Y-127000000I0J1270000D01*
G01*
X57150000Y-104140000D02*
G75*
G02X58420000Y-102870000I1270000J0D01*
G01*
X320040000Y-129540000D02*
G75*
G02X321310000Y-128270000I1270000J0D01*
G01*
X243840000Y-128270000D02*
G75*
G02X245110000Y-129540000I0J-1270000D01*
G01*
X246380000Y-151130000D02*
G75*
G02X245110000Y-149860000I0J1270000D01*
G01*
X320040000Y-149860000D02*
G75*
G02X318770000Y-151130000I-1270000J0D01*
G01*
X351790000Y-102870000D02*
G75*
G02X353060000Y-104140000I0J-1270000D01*
G01*
X353060000Y-127000000D02*
G75*
G02X351790000Y-128270000I-1270000J0D01*
G01*
X274866100Y-151130000D02*
X259803900Y-151130000D01*
X290106100Y-151130000D02*
X286473900Y-151130000D01*
X318770000Y-151130000D02*
X301713900Y-151130000D01*
X320040000Y-129540000D02*
X320040000Y-149860000D01*
X351790000Y-128270000D02*
X321310000Y-128270000D01*
X353060000Y-104140000D02*
X353060000Y-127000000D01*
X349973900Y-102870000D02*
X351790000Y-102870000D01*
X334733900Y-102870000D02*
X338366100Y-102870000D01*
X316953900Y-102870000D02*
X323126100Y-102870000D01*
X301713900Y-102870000D02*
X305346100Y-102870000D01*
X286473900Y-102870000D02*
X290106100Y-102870000D01*
X267423900Y-102870000D02*
X274866100Y-102870000D01*
X246380000Y-151130000D02*
X248196100Y-151130000D01*
X245110000Y-129540000D02*
X245110000Y-149860000D01*
X233133900Y-128270000D02*
X243840000Y-128270000D01*
X252183900Y-102870000D02*
X255816100Y-102870000D01*
X233133900Y-102870000D02*
X240576100Y-102870000D01*
X217893900Y-128270000D02*
X221526100Y-128270000D01*
X202653900Y-128270000D02*
X206286100Y-128270000D01*
X217893900Y-102870000D02*
X221526100Y-102870000D01*
X202653900Y-102870000D02*
X206286100Y-102870000D01*
X187413900Y-102870000D02*
X191046100Y-102870000D01*
X172173900Y-102870000D02*
X175806100Y-102870000D01*
X153123900Y-102870000D02*
X160566100Y-102870000D01*
X137883900Y-102870000D02*
X141516100Y-102870000D01*
X120103900Y-102870000D02*
X126276100Y-102870000D01*
X104863900Y-102870000D02*
X108496100Y-102870000D01*
X87083900Y-102870000D02*
X93256100Y-102870000D01*
X71843900Y-102870000D02*
X75476100Y-102870000D01*
X58420000Y-102870000D02*
X60236100Y-102870000D01*
X57150000Y-127000000D02*
X57150000Y-104140000D01*
X67856100Y-128270000D02*
X58420000Y-128270000D01*
X100876100Y-128270000D02*
X79463900Y-128270000D01*
X133896100Y-128270000D02*
X112483900Y-128270000D01*
X160566100Y-128270000D02*
X145503900Y-128270000D01*
X172173900Y-128270000D02*
X175806100Y-128270000D01*
X187413900Y-128270000D02*
X191046100Y-128270000D01*
X193128900Y-128270000D02*
X200571100Y-128270000D01*
X202653900Y-128270000D02*
X202653900Y-125374400D01*
X200571102Y-125376218D02*
G75*
G02X202653900Y-125374400I1041398J1818D01*
G01*
X200571100Y-128270000D02*
X200571100Y-125374400D01*
X193128900Y-128270000D02*
X193128900Y-125374400D01*
X191046102Y-125376218D02*
G75*
G02X193128900Y-125374400I1041398J1818D01*
G01*
X191046100Y-128270000D02*
X191046100Y-125374400D01*
X284391100Y-102870000D02*
X276948900Y-102870000D01*
X274866100Y-102870000D02*
X274866100Y-105765600D01*
X276948898Y-105763782D02*
G75*
G02X274866100Y-105765600I-1041398J-1818D01*
G01*
X276948900Y-102870000D02*
X276948900Y-105765600D01*
X284391100Y-102870000D02*
X284391100Y-105765600D01*
X286473898Y-105763782D02*
G75*
G02X284391100Y-105765600I-1041398J-1818D01*
G01*
X286473900Y-102870000D02*
X286473900Y-105765600D01*
X299631100Y-102870000D02*
X292188900Y-102870000D01*
X290106100Y-102870000D02*
X290106100Y-105765600D01*
X292188898Y-105763782D02*
G75*
G02X290106100Y-105765600I-1041398J-1818D01*
G01*
X292188900Y-102870000D02*
X292188900Y-105765600D01*
X299631100Y-102870000D02*
X299631100Y-105765600D01*
X301713898Y-105763782D02*
G75*
G02X299631100Y-105765600I-1041398J-1818D01*
G01*
X301713900Y-102870000D02*
X301713900Y-105765600D01*
X314871100Y-102870000D02*
X307428900Y-102870000D01*
X305346100Y-102870000D02*
X305346100Y-105765600D01*
X307428898Y-105763782D02*
G75*
G02X305346100Y-105765600I-1041398J-1818D01*
G01*
X307428900Y-102870000D02*
X307428900Y-105765600D01*
X314871100Y-102870000D02*
X314871100Y-105765600D01*
X316953898Y-105763782D02*
G75*
G02X314871100Y-105765600I-1041398J-1818D01*
G01*
X316953900Y-102870000D02*
X316953900Y-105765600D01*
X332651100Y-102870000D02*
X325208900Y-102870000D01*
X323126100Y-102870000D02*
X323126100Y-105765600D01*
X325208898Y-105763782D02*
G75*
G02X323126100Y-105765600I-1041398J-1818D01*
G01*
X325208900Y-102870000D02*
X325208900Y-105765600D01*
X332651100Y-102870000D02*
X332651100Y-105765600D01*
X334733898Y-105763782D02*
G75*
G02X332651100Y-105765600I-1041398J-1818D01*
G01*
X334733900Y-102870000D02*
X334733900Y-105765600D01*
X347891100Y-102870000D02*
X340448900Y-102870000D01*
X338366100Y-102870000D02*
X338366100Y-105765600D01*
X340448898Y-105763782D02*
G75*
G02X338366100Y-105765600I-1041398J-1818D01*
G01*
X340448900Y-102870000D02*
X340448900Y-105765600D01*
X347891100Y-102870000D02*
X347891100Y-105765600D01*
X349973898Y-105763782D02*
G75*
G02X347891100Y-105765600I-1041398J-1818D01*
G01*
X349973900Y-102870000D02*
X349973900Y-105765600D01*
X292188900Y-151130000D02*
X299631100Y-151130000D01*
X301713900Y-151130000D02*
X301713900Y-148234400D01*
X299631102Y-148236218D02*
G75*
G02X301713900Y-148234400I1041398J1818D01*
G01*
X299631100Y-151130000D02*
X299631100Y-148234400D01*
X292188900Y-151130000D02*
X292188900Y-148234400D01*
X290106102Y-148236218D02*
G75*
G02X292188900Y-148234400I1041398J1818D01*
G01*
X290106100Y-151130000D02*
X290106100Y-148234400D01*
X276948900Y-151130000D02*
X284391100Y-151130000D01*
X286473900Y-151130000D02*
X286473900Y-148234400D01*
X284391102Y-148236218D02*
G75*
G02X286473900Y-148234400I1041398J1818D01*
G01*
X284391100Y-151130000D02*
X284391100Y-148234400D01*
X276948900Y-151130000D02*
X276948900Y-148234400D01*
X274866102Y-148236218D02*
G75*
G02X276948900Y-148234400I1041398J1818D01*
G01*
X274866100Y-151130000D02*
X274866100Y-148234400D01*
X250101100Y-102870000D02*
X242658900Y-102870000D01*
X240576100Y-102870000D02*
X240576100Y-105765600D01*
X242658898Y-105763782D02*
G75*
G02X240576100Y-105765600I-1041398J-1818D01*
G01*
X242658900Y-102870000D02*
X242658900Y-105765600D01*
X250101100Y-102870000D02*
X250101100Y-105765600D01*
X252183898Y-105763782D02*
G75*
G02X250101100Y-105765600I-1041398J-1818D01*
G01*
X252183900Y-102870000D02*
X252183900Y-105765600D01*
X265341100Y-102870000D02*
X257898900Y-102870000D01*
X255816100Y-102870000D02*
X255816100Y-105765600D01*
X257898898Y-105763782D02*
G75*
G02X255816100Y-105765600I-1041398J-1818D01*
G01*
X257898900Y-102870000D02*
X257898900Y-105765600D01*
X265341100Y-102870000D02*
X265341100Y-105765600D01*
X267423898Y-105763782D02*
G75*
G02X265341100Y-105765600I-1041398J-1818D01*
G01*
X267423900Y-102870000D02*
X267423900Y-105765600D01*
X69761100Y-102870000D02*
X62318900Y-102870000D01*
X60236100Y-102870000D02*
X60236100Y-105765600D01*
X62318898Y-105763782D02*
G75*
G02X60236100Y-105765600I-1041398J-1818D01*
G01*
X62318900Y-102870000D02*
X62318900Y-105765600D01*
X69761100Y-102870000D02*
X69761100Y-105765600D01*
X71843898Y-105763782D02*
G75*
G02X69761100Y-105765600I-1041398J-1818D01*
G01*
X71843900Y-102870000D02*
X71843900Y-105765600D01*
X85001100Y-102870000D02*
X77558900Y-102870000D01*
X75476100Y-102870000D02*
X75476100Y-105765600D01*
X77558898Y-105763782D02*
G75*
G02X75476100Y-105765600I-1041398J-1818D01*
G01*
X77558900Y-102870000D02*
X77558900Y-105765600D01*
X85001100Y-102870000D02*
X85001100Y-105765600D01*
X87083898Y-105763782D02*
G75*
G02X85001100Y-105765600I-1041398J-1818D01*
G01*
X87083900Y-102870000D02*
X87083900Y-105765600D01*
X102781100Y-102870000D02*
X95338900Y-102870000D01*
X93256100Y-102870000D02*
X93256100Y-105765600D01*
X95338898Y-105763782D02*
G75*
G02X93256100Y-105765600I-1041398J-1818D01*
G01*
X95338900Y-102870000D02*
X95338900Y-105765600D01*
X102781100Y-102870000D02*
X102781100Y-105765600D01*
X104863898Y-105763782D02*
G75*
G02X102781100Y-105765600I-1041398J-1818D01*
G01*
X104863900Y-102870000D02*
X104863900Y-105765600D01*
X118021100Y-102870000D02*
X110578900Y-102870000D01*
X108496100Y-102870000D02*
X108496100Y-105765600D01*
X110578898Y-105763782D02*
G75*
G02X108496100Y-105765600I-1041398J-1818D01*
G01*
X110578900Y-102870000D02*
X110578900Y-105765600D01*
X118021100Y-102870000D02*
X118021100Y-105765600D01*
X120103898Y-105763782D02*
G75*
G02X118021100Y-105765600I-1041398J-1818D01*
G01*
X120103900Y-102870000D02*
X120103900Y-105765600D01*
X135801100Y-102870000D02*
X128358900Y-102870000D01*
X126276100Y-102870000D02*
X126276100Y-105765600D01*
X128358898Y-105763782D02*
G75*
G02X126276100Y-105765600I-1041398J-1818D01*
G01*
X128358900Y-102870000D02*
X128358900Y-105765600D01*
X135801100Y-102870000D02*
X135801100Y-105765600D01*
X137883898Y-105763782D02*
G75*
G02X135801100Y-105765600I-1041398J-1818D01*
G01*
X137883900Y-102870000D02*
X137883900Y-105765600D01*
X151041100Y-102870000D02*
X143598900Y-102870000D01*
X141516100Y-102870000D02*
X141516100Y-105765600D01*
X143598898Y-105763782D02*
G75*
G02X141516100Y-105765600I-1041398J-1818D01*
G01*
X143598900Y-102870000D02*
X143598900Y-105765600D01*
X151041100Y-102870000D02*
X151041100Y-105765600D01*
X153123898Y-105763782D02*
G75*
G02X151041100Y-105765600I-1041398J-1818D01*
G01*
X153123900Y-102870000D02*
X153123900Y-105765600D01*
X69938900Y-128270000D02*
X77381100Y-128270000D01*
X79463900Y-128270000D02*
X79463900Y-125374400D01*
X77381102Y-125376218D02*
G75*
G02X79463900Y-125374400I1041398J1818D01*
G01*
X77381100Y-128270000D02*
X77381100Y-125374400D01*
X69938900Y-128270000D02*
X69938900Y-125374400D01*
X67856102Y-125376218D02*
G75*
G02X69938900Y-125374400I1041398J1818D01*
G01*
X67856100Y-128270000D02*
X67856100Y-125374400D01*
X102958900Y-128270000D02*
X110401100Y-128270000D01*
X112483900Y-128270000D02*
X112483900Y-125374400D01*
X110401102Y-125376218D02*
G75*
G02X112483900Y-125374400I1041398J1818D01*
G01*
X110401100Y-128270000D02*
X110401100Y-125374400D01*
X102958900Y-128270000D02*
X102958900Y-125374400D01*
X100876102Y-125376218D02*
G75*
G02X102958900Y-125374400I1041398J1818D01*
G01*
X100876100Y-128270000D02*
X100876100Y-125374400D01*
X135978900Y-128270000D02*
X143421100Y-128270000D01*
X145503900Y-128270000D02*
X145503900Y-125374400D01*
X143421102Y-125376218D02*
G75*
G02X145503900Y-125374400I1041398J1818D01*
G01*
X143421100Y-128270000D02*
X143421100Y-125374400D01*
X135978900Y-128270000D02*
X135978900Y-125374400D01*
X133896102Y-125376218D02*
G75*
G02X135978900Y-125374400I1041398J1818D01*
G01*
X133896100Y-128270000D02*
X133896100Y-125374400D01*
X250278900Y-151130000D02*
X257721100Y-151130000D01*
X259803900Y-151130000D02*
X259803900Y-148234400D01*
X257721102Y-148236218D02*
G75*
G02X259803900Y-148234400I1041398J1818D01*
G01*
X257721100Y-151130000D02*
X257721100Y-148234400D01*
X250278900Y-151130000D02*
X250278900Y-148234400D01*
X248196102Y-148236218D02*
G75*
G02X250278900Y-148234400I1041398J1818D01*
G01*
X248196100Y-151130000D02*
X248196100Y-148234400D01*
X170091100Y-102870000D02*
X162648900Y-102870000D01*
X160566100Y-102870000D02*
X160566100Y-105765600D01*
X162648898Y-105763782D02*
G75*
G02X160566100Y-105765600I-1041398J-1818D01*
G01*
X162648900Y-102870000D02*
X162648900Y-105765600D01*
X170091100Y-102870000D02*
X170091100Y-105765600D01*
X172173898Y-105763782D02*
G75*
G02X170091100Y-105765600I-1041398J-1818D01*
G01*
X172173900Y-102870000D02*
X172173900Y-105765600D01*
X185331100Y-102870000D02*
X177888900Y-102870000D01*
X175806100Y-102870000D02*
X175806100Y-105765600D01*
X177888898Y-105763782D02*
G75*
G02X175806100Y-105765600I-1041398J-1818D01*
G01*
X177888900Y-102870000D02*
X177888900Y-105765600D01*
X185331100Y-102870000D02*
X185331100Y-105765600D01*
X187413898Y-105763782D02*
G75*
G02X185331100Y-105765600I-1041398J-1818D01*
G01*
X187413900Y-102870000D02*
X187413900Y-105765600D01*
X200571100Y-102870000D02*
X193128900Y-102870000D01*
X191046100Y-102870000D02*
X191046100Y-105765600D01*
X193128898Y-105763782D02*
G75*
G02X191046100Y-105765600I-1041398J-1818D01*
G01*
X193128900Y-102870000D02*
X193128900Y-105765600D01*
X200571100Y-102870000D02*
X200571100Y-105765600D01*
X202653898Y-105763782D02*
G75*
G02X200571100Y-105765600I-1041398J-1818D01*
G01*
X202653900Y-102870000D02*
X202653900Y-105765600D01*
X215811100Y-102870000D02*
X208368900Y-102870000D01*
X206286100Y-102870000D02*
X206286100Y-105765600D01*
X208368898Y-105763782D02*
G75*
G02X206286100Y-105765600I-1041398J-1818D01*
G01*
X208368900Y-102870000D02*
X208368900Y-105765600D01*
X215811100Y-102870000D02*
X215811100Y-105765600D01*
X217893898Y-105763782D02*
G75*
G02X215811100Y-105765600I-1041398J-1818D01*
G01*
X217893900Y-102870000D02*
X217893900Y-105765600D01*
X223608900Y-128270000D02*
X231051100Y-128270000D01*
X233133900Y-128270000D02*
X233133900Y-125374400D01*
X231051102Y-125376218D02*
G75*
G02X233133900Y-125374400I1041398J1818D01*
G01*
X231051100Y-128270000D02*
X231051100Y-125374400D01*
X223608900Y-128270000D02*
X223608900Y-125374400D01*
X221526102Y-125376218D02*
G75*
G02X223608900Y-125374400I1041398J1818D01*
G01*
X221526100Y-128270000D02*
X221526100Y-125374400D01*
X162648900Y-128270000D02*
X170091100Y-128270000D01*
X172173900Y-128270000D02*
X172173900Y-125374400D01*
X170091102Y-125376218D02*
G75*
G02X172173900Y-125374400I1041398J1818D01*
G01*
X170091100Y-128270000D02*
X170091100Y-125374400D01*
X162648900Y-128270000D02*
X162648900Y-125374400D01*
X160566102Y-125376218D02*
G75*
G02X162648900Y-125374400I1041398J1818D01*
G01*
X160566100Y-128270000D02*
X160566100Y-125374400D01*
X177888900Y-128270000D02*
X185331100Y-128270000D01*
X187413900Y-128270000D02*
X187413900Y-125374400D01*
X185331102Y-125376218D02*
G75*
G02X187413900Y-125374400I1041398J1818D01*
G01*
X185331100Y-128270000D02*
X185331100Y-125374400D01*
X177888900Y-128270000D02*
X177888900Y-125374400D01*
X175806102Y-125376218D02*
G75*
G02X177888900Y-125374400I1041398J1818D01*
G01*
X175806100Y-128270000D02*
X175806100Y-125374400D01*
X208368900Y-128270000D02*
X215811100Y-128270000D01*
X217893900Y-128270000D02*
X217893900Y-125374400D01*
X215811102Y-125376218D02*
G75*
G02X217893900Y-125374400I1041398J1818D01*
G01*
X215811100Y-128270000D02*
X215811100Y-125374400D01*
X208368900Y-128270000D02*
X208368900Y-125374400D01*
X206286102Y-125376218D02*
G75*
G02X208368900Y-125374400I1041398J1818D01*
G01*
X206286100Y-128270000D02*
X206286100Y-125374400D01*
X231051100Y-102870000D02*
X223608900Y-102870000D01*
X221526100Y-102870000D02*
X221526100Y-105765600D01*
X223608898Y-105763782D02*
G75*
G02X221526100Y-105765600I-1041398J-1818D01*
G01*
X223608900Y-102870000D02*
X223608900Y-105765600D01*
X231051100Y-102870000D02*
X231051100Y-105765600D01*
X233133898Y-105763782D02*
G75*
G02X231051100Y-105765600I-1041398J-1818D01*
G01*
X233133900Y-102870000D02*
X233133900Y-105765600D01*
M02*
