M48
METRIC,TZ
T1C0.305
T2C0.400
T3C1.190
%
G90
G05
T1
X248362Y-102119
X248362Y-102754
X248362Y-103389
X248362Y-104024
X248362Y-104659
X248362Y-111644
X248362Y-112279
X248362Y-112914
X248362Y-113549
X248362Y-114184
X248972Y-101976
X248972Y-104879
X248972Y-111501
X248972Y-114404
X249607Y-101976
X249607Y-104879
X249607Y-111501
X249607Y-114404
X250242Y-101976
X250242Y-104879
X250242Y-111501
X250242Y-114404
X250877Y-101976
X250877Y-104879
X250877Y-111501
X250877Y-114404
X251512Y-101976
X251512Y-114404
X251537Y-105066
X251537Y-111314
X252147Y-101976
X252147Y-105447
X252147Y-110933
X252147Y-114404
X252561Y-106006
X252561Y-110374
X252713Y-106768
X252713Y-109612
X252782Y-101976
X252782Y-114404
X188118Y-101976
X188118Y-114404
X188187Y-106768
X188187Y-109612
X188339Y-106006
X188339Y-110374
X188753Y-101976
X188753Y-105447
X188753Y-110933
X188753Y-114404
X189363Y-105066
X189363Y-111314
X189388Y-101976
X189388Y-114404
X190023Y-101976
X190023Y-104879
X190023Y-111501
X190023Y-114404
X190658Y-101976
X190658Y-104879
X190658Y-111501
X190658Y-114404
X191293Y-101976
X191293Y-104879
X191293Y-111501
X191293Y-114404
X191928Y-101976
X191928Y-104879
X191928Y-111501
X191928Y-114404
X192538Y-102196
X192538Y-102831
X192538Y-103466
X192538Y-104101
X192538Y-104736
X192538Y-111721
X192538Y-112356
X192538Y-112991
X192538Y-113626
X192538Y-114261
X223841Y-101976
X223841Y-114404
X223910Y-106768
X223910Y-109612
X224062Y-106006
X224062Y-110374
X224476Y-101976
X224476Y-105447
X224476Y-110933
X224476Y-114404
X225086Y-105066
X225086Y-111314
X225111Y-101976
X225111Y-114404
X225746Y-101976
X225746Y-104879
X225746Y-111501
X225746Y-114404
X226381Y-101976
X226381Y-104879
X226381Y-111501
X226381Y-114404
X227016Y-101976
X227016Y-104879
X227016Y-111501
X227016Y-114404
X227651Y-101976
X227651Y-104879
X227651Y-111501
X227651Y-114404
X228261Y-102196
X228261Y-102831
X228261Y-103466
X228261Y-104101
X228261Y-104736
X228261Y-111721
X228261Y-112356
X228261Y-112991
X228261Y-113626
X228261Y-114261
X252262Y-120629
X252262Y-121264
X252262Y-121899
X252262Y-122534
X252262Y-123169
X252262Y-130154
X252262Y-130789
X252262Y-131424
X252262Y-132059
X252262Y-132694
X252872Y-120486
X252872Y-123389
X252872Y-130011
X252872Y-132914
X253507Y-120486
X253507Y-123389
X253507Y-130011
X253507Y-132914
X254142Y-120486
X254142Y-123389
X254142Y-130011
X254142Y-132914
X254777Y-120486
X254777Y-123389
X254777Y-130011
X254777Y-132914
X255412Y-120486
X255412Y-132914
X255437Y-123576
X255437Y-129824
X256047Y-120486
X256047Y-123957
X256047Y-129443
X256047Y-132914
X256461Y-124516
X256461Y-128884
X256613Y-125278
X256613Y-128122
X256682Y-120486
X256682Y-132914
X221082Y-83609
X221082Y-84244
X221082Y-84879
X221082Y-85514
X221082Y-86149
X221082Y-93134
X221082Y-93769
X221082Y-94404
X221082Y-95039
X221082Y-95674
X221692Y-83466
X221692Y-86369
X221692Y-92991
X221692Y-95894
X222327Y-83466
X222327Y-86369
X222327Y-92991
X222327Y-95894
X222962Y-83466
X222962Y-86369
X222962Y-92991
X222962Y-95894
X223597Y-83466
X223597Y-86369
X223597Y-92991
X223597Y-95894
X224232Y-83466
X224232Y-95894
X224257Y-86556
X224257Y-92804
X224867Y-83466
X224867Y-86937
X224867Y-92423
X224867Y-95894
X225281Y-87496
X225281Y-91864
X225433Y-88258
X225433Y-91102
X225502Y-83466
X225502Y-95894
X185724Y-154379
X185724Y-155014
X185724Y-155649
X185724Y-156284
X185724Y-156919
X185724Y-163904
X185724Y-164539
X185724Y-165174
X185724Y-165809
X185724Y-166444
X186334Y-154236
X186334Y-157139
X186334Y-163761
X186334Y-166664
X186969Y-154236
X186969Y-157139
X186969Y-163761
X186969Y-166664
X187604Y-154236
X187604Y-157139
X187604Y-163761
X187604Y-166664
X188239Y-154236
X188239Y-157139
X188239Y-163761
X188239Y-166664
X188874Y-154236
X188874Y-166664
X188899Y-157326
X188899Y-163574
X189509Y-154236
X189509Y-157707
X189509Y-163193
X189509Y-166664
X189923Y-158266
X189923Y-162634
X190075Y-159028
X190075Y-161872
X190144Y-154236
X190144Y-166664
X253206Y-138996
X253206Y-151424
X253275Y-143788
X253275Y-146632
X253427Y-143026
X253427Y-147394
X253841Y-138996
X253841Y-142467
X253841Y-147953
X253841Y-151424
X254451Y-142086
X254451Y-148334
X254476Y-138996
X254476Y-151424
X255111Y-138996
X255111Y-141899
X255111Y-148521
X255111Y-151424
X255746Y-138996
X255746Y-141899
X255746Y-148521
X255746Y-151424
X256381Y-138996
X256381Y-141899
X256381Y-148521
X256381Y-151424
X257016Y-138996
X257016Y-141899
X257016Y-148521
X257016Y-151424
X257626Y-139216
X257626Y-139851
X257626Y-140486
X257626Y-141121
X257626Y-141756
X257626Y-148741
X257626Y-149376
X257626Y-150011
X257626Y-150646
X257626Y-151281
X286088Y-146759
X286088Y-147394
X286088Y-148029
X286088Y-148664
X286088Y-149299
X286088Y-156284
X286088Y-156919
X286088Y-157554
X286088Y-158189
X286088Y-158824
X286698Y-146616
X286698Y-149519
X286698Y-156141
X286698Y-159044
X287333Y-146616
X287333Y-149519
X287333Y-156141
X287333Y-159044
X287968Y-146616
X287968Y-149519
X287968Y-156141
X287968Y-159044
X288603Y-146616
X288603Y-149519
X288603Y-156141
X288603Y-159044
X289238Y-146616
X289238Y-159044
X289263Y-149706
X289263Y-155954
X289873Y-146616
X289873Y-150087
X289873Y-155573
X289873Y-159044
X290287Y-150646
X290287Y-155014
X290439Y-151408
X290439Y-154252
X290508Y-146616
X290508Y-159044
X248482Y-83609
X248482Y-84244
X248482Y-84879
X248482Y-85514
X248482Y-86149
X248482Y-93134
X248482Y-93769
X248482Y-94404
X248482Y-95039
X248482Y-95674
X249092Y-83466
X249092Y-86369
X249092Y-92991
X249092Y-95894
X249727Y-83466
X249727Y-86369
X249727Y-92991
X249727Y-95894
X250362Y-83466
X250362Y-86369
X250362Y-92991
X250362Y-95894
X250997Y-83466
X250997Y-86369
X250997Y-92991
X250997Y-95894
X251632Y-83466
X251632Y-95894
X251657Y-86556
X251657Y-92804
X252267Y-83466
X252267Y-86937
X252267Y-92423
X252267Y-95894
X252681Y-87496
X252681Y-91864
X252833Y-88258
X252833Y-91102
X252902Y-83466
X252902Y-95894
X193682Y-83609
X193682Y-84244
X193682Y-84879
X193682Y-85514
X193682Y-86149
X193682Y-93134
X193682Y-93769
X193682Y-94404
X193682Y-95039
X193682Y-95674
X194292Y-83466
X194292Y-86369
X194292Y-92991
X194292Y-95894
X194927Y-83466
X194927Y-86369
X194927Y-92991
X194927Y-95894
X195562Y-83466
X195562Y-86369
X195562Y-92991
X195562Y-95894
X196197Y-83466
X196197Y-86369
X196197Y-92991
X196197Y-95894
X196832Y-83466
X196832Y-95894
X196857Y-86556
X196857Y-92804
X197467Y-83466
X197467Y-86937
X197467Y-92423
X197467Y-95894
X197881Y-87496
X197881Y-91864
X198033Y-88258
X198033Y-91102
X198102Y-83466
X198102Y-95894
X259698Y-120486
X259698Y-132914
X259767Y-125278
X259767Y-128122
X259919Y-124516
X259919Y-128884
X260333Y-120486
X260333Y-123957
X260333Y-129443
X260333Y-132914
X260943Y-123576
X260943Y-129824
X260968Y-120486
X260968Y-132914
X261603Y-120486
X261603Y-123389
X261603Y-130011
X261603Y-132914
X262238Y-120486
X262238Y-123389
X262238Y-130011
X262238Y-132914
X262873Y-120486
X262873Y-123389
X262873Y-130011
X262873Y-132914
X263508Y-120486
X263508Y-123389
X263508Y-130011
X263508Y-132914
X264118Y-120706
X264118Y-121341
X264118Y-121976
X264118Y-122611
X264118Y-123246
X264118Y-130231
X264118Y-130866
X264118Y-131501
X264118Y-132136
X264118Y-132771
X215442Y-120629
X215442Y-121264
X215442Y-121899
X215442Y-122534
X215442Y-123169
X215442Y-130154
X215442Y-130789
X215442Y-131424
X215442Y-132059
X215442Y-132694
X216052Y-120486
X216052Y-123389
X216052Y-130011
X216052Y-132914
X216687Y-120486
X216687Y-123389
X216687Y-130011
X216687Y-132914
X217322Y-120486
X217322Y-123389
X217322Y-130011
X217322Y-132914
X217957Y-120486
X217957Y-123389
X217957Y-130011
X217957Y-132914
X218592Y-120486
X218592Y-132914
X218617Y-123576
X218617Y-129824
X219227Y-120486
X219227Y-123957
X219227Y-129443
X219227Y-132914
X219641Y-124516
X219641Y-128884
X219793Y-125278
X219793Y-128122
X219862Y-120486
X219862Y-132914
X193165Y-154236
X193165Y-166664
X193233Y-159028
X193233Y-161872
X193386Y-158266
X193386Y-162634
X193800Y-154236
X193800Y-157707
X193800Y-163193
X193800Y-166664
X194409Y-157326
X194409Y-163574
X194435Y-154236
X194435Y-166664
X195070Y-154236
X195070Y-157139
X195070Y-163761
X195070Y-166664
X195705Y-154236
X195705Y-157139
X195705Y-163761
X195705Y-166664
X196340Y-154236
X196340Y-157139
X196340Y-163761
X196340Y-166664
X196975Y-154236
X196975Y-157139
X196975Y-163761
X196975Y-166664
X197584Y-154456
X197584Y-155091
X197584Y-155726
X197584Y-156361
X197584Y-156996
X197584Y-163981
X197584Y-164616
X197584Y-165251
X197584Y-165886
X197584Y-166521
X255798Y-101976
X255798Y-114404
X255867Y-106768
X255867Y-109612
X256019Y-106006
X256019Y-110374
X256433Y-101976
X256433Y-105447
X256433Y-110933
X256433Y-114404
X257043Y-105066
X257043Y-111314
X257068Y-101976
X257068Y-114404
X257703Y-101976
X257703Y-104879
X257703Y-111501
X257703Y-114404
X258338Y-101976
X258338Y-104879
X258338Y-111501
X258338Y-114404
X258973Y-101976
X258973Y-104879
X258973Y-111501
X258973Y-114404
X259608Y-101976
X259608Y-104879
X259608Y-111501
X259608Y-114404
X260218Y-102196
X260218Y-102831
X260218Y-103466
X260218Y-104101
X260218Y-104736
X260218Y-111721
X260218Y-112356
X260218Y-112991
X260218Y-113626
X260218Y-114261
X222877Y-120486
X222877Y-132914
X222946Y-125278
X222946Y-128122
X223098Y-124516
X223098Y-128884
X223512Y-120486
X223512Y-123957
X223512Y-129443
X223512Y-132914
X224122Y-123576
X224122Y-129824
X224147Y-120486
X224147Y-132914
X224782Y-120486
X224782Y-123389
X224782Y-130011
X224782Y-132914
X225417Y-120486
X225417Y-123389
X225417Y-130011
X225417Y-132914
X226052Y-120486
X226052Y-123389
X226052Y-130011
X226052Y-132914
X226687Y-120486
X226687Y-123389
X226687Y-130011
X226687Y-132914
X227297Y-120706
X227297Y-121341
X227297Y-121976
X227297Y-122611
X227297Y-123246
X227297Y-130231
X227297Y-130866
X227297Y-131501
X227297Y-132136
X227297Y-132771
X286088Y-83602
X286088Y-84237
X286088Y-84872
X286088Y-85507
X286088Y-86142
X286088Y-93127
X286088Y-93762
X286088Y-94397
X286088Y-95032
X286088Y-95667
X286698Y-83458
X286698Y-86361
X286698Y-92983
X286698Y-95886
X287333Y-83458
X287333Y-86361
X287333Y-92983
X287333Y-95886
X287968Y-83458
X287968Y-86361
X287968Y-92983
X287968Y-95886
X288603Y-83458
X288603Y-86361
X288603Y-92983
X288603Y-95886
X289238Y-83458
X289238Y-95886
X289263Y-86548
X289263Y-92797
X289873Y-83458
X289873Y-86929
X289873Y-92416
X289873Y-95886
X290287Y-87488
X290287Y-91857
X290439Y-88250
X290439Y-91095
X290508Y-83458
X290508Y-95886
X255918Y-83466
X255918Y-95894
X255987Y-88258
X255987Y-91102
X256139Y-87496
X256139Y-91864
X256553Y-83466
X256553Y-86937
X256553Y-92423
X256553Y-95894
X257163Y-86556
X257163Y-92804
X257188Y-83466
X257188Y-95894
X257823Y-83466
X257823Y-86369
X257823Y-92991
X257823Y-95894
X258458Y-83466
X258458Y-86369
X258458Y-92991
X258458Y-95894
X259093Y-83466
X259093Y-86369
X259093Y-92991
X259093Y-95894
X259728Y-83466
X259728Y-86369
X259728Y-92991
X259728Y-95894
X260338Y-83686
X260338Y-84321
X260338Y-84956
X260338Y-85591
X260338Y-86226
X260338Y-93211
X260338Y-93846
X260338Y-94481
X260338Y-95116
X260338Y-95751
X214684Y-146759
X214684Y-147394
X214684Y-148029
X214684Y-148664
X214684Y-149299
X214684Y-156284
X214684Y-156919
X214684Y-157554
X214684Y-158189
X214684Y-158824
X215293Y-146616
X215293Y-149519
X215293Y-156141
X215293Y-159044
X215928Y-146616
X215928Y-149519
X215928Y-156141
X215928Y-159044
X216563Y-146616
X216563Y-149519
X216563Y-156141
X216563Y-159044
X217198Y-146616
X217198Y-149519
X217198Y-156141
X217198Y-159044
X217833Y-146616
X217833Y-159044
X217859Y-149706
X217859Y-155954
X218468Y-146616
X218468Y-150087
X218468Y-155573
X218468Y-159044
X218882Y-150646
X218882Y-155014
X219035Y-151408
X219035Y-154252
X219103Y-146616
X219103Y-159044
X245770Y-154379
X245770Y-155014
X245770Y-155649
X245770Y-156284
X245770Y-156919
X245770Y-163904
X245770Y-164539
X245770Y-165174
X245770Y-165809
X245770Y-166444
X246380Y-154236
X246380Y-157139
X246380Y-163761
X246380Y-166664
X247015Y-154236
X247015Y-157139
X247015Y-163761
X247015Y-166664
X247650Y-154236
X247650Y-157139
X247650Y-163761
X247650Y-166664
X248285Y-154236
X248285Y-157139
X248285Y-163761
X248285Y-166664
X248920Y-154236
X248920Y-166664
X248945Y-157326
X248945Y-163574
X249555Y-154236
X249555Y-157707
X249555Y-163193
X249555Y-166664
X249969Y-158266
X249969Y-162634
X250121Y-159028
X250121Y-161872
X250190Y-154236
X250190Y-166664
X286089Y-120629
X286089Y-121264
X286089Y-121899
X286089Y-122534
X286089Y-123169
X286089Y-130154
X286089Y-130789
X286089Y-131424
X286089Y-132059
X286089Y-132694
X286698Y-120486
X286698Y-123389
X286698Y-130011
X286698Y-132914
X287333Y-120486
X287333Y-123389
X287333Y-130011
X287333Y-132914
X287968Y-120486
X287968Y-123389
X287968Y-130011
X287968Y-132914
X288603Y-120486
X288603Y-123389
X288603Y-130011
X288603Y-132914
X289238Y-120486
X289238Y-132914
X289264Y-123576
X289264Y-129824
X289873Y-120486
X289873Y-123957
X289873Y-129443
X289873Y-132914
X290287Y-124516
X290287Y-128884
X290440Y-125278
X290440Y-128122
X290508Y-120486
X290508Y-132914
X165673Y-146616
X165673Y-159044
X165742Y-151408
X165742Y-154252
X165894Y-150646
X165894Y-155014
X166308Y-146616
X166308Y-150087
X166308Y-155573
X166308Y-159044
X166918Y-149706
X166918Y-155954
X166943Y-146616
X166943Y-159044
X167578Y-146616
X167578Y-149519
X167578Y-156141
X167578Y-159044
X168213Y-146616
X168213Y-149519
X168213Y-156141
X168213Y-159044
X168848Y-146616
X168848Y-149519
X168848Y-156141
X168848Y-159044
X169483Y-146616
X169483Y-149519
X169483Y-156141
X169483Y-159044
X170093Y-146836
X170093Y-147471
X170093Y-148106
X170093Y-148741
X170093Y-149376
X170093Y-156361
X170093Y-156996
X170093Y-157631
X170093Y-158266
X170093Y-158901
X222118Y-146616
X222118Y-159044
X222186Y-151408
X222186Y-154252
X222339Y-150646
X222339Y-155014
X222753Y-146616
X222753Y-150087
X222753Y-155573
X222753Y-159044
X223362Y-149706
X223362Y-155954
X223388Y-146616
X223388Y-159044
X224023Y-146616
X224023Y-149519
X224023Y-156141
X224023Y-159044
X224658Y-146616
X224658Y-149519
X224658Y-156141
X224658Y-159044
X225293Y-146616
X225293Y-149519
X225293Y-156141
X225293Y-159044
X225928Y-146616
X225928Y-149519
X225928Y-156141
X225928Y-159044
X226537Y-146836
X226537Y-147471
X226537Y-148106
X226537Y-148741
X226537Y-149376
X226537Y-156361
X226537Y-156996
X226537Y-157631
X226537Y-158266
X226537Y-158901
X193165Y-138996
X193165Y-151424
X193233Y-143788
X193233Y-146632
X193386Y-143026
X193386Y-147394
X193800Y-138996
X193800Y-142467
X193800Y-147953
X193800Y-151424
X194409Y-142086
X194409Y-148334
X194435Y-138996
X194435Y-151424
X195070Y-138996
X195070Y-141899
X195070Y-148521
X195070Y-151424
X195705Y-138996
X195705Y-141899
X195705Y-148521
X195705Y-151424
X196340Y-138996
X196340Y-141899
X196340Y-148521
X196340Y-151424
X196975Y-138996
X196975Y-141899
X196975Y-148521
X196975Y-151424
X197584Y-139216
X197584Y-139851
X197584Y-140486
X197584Y-141121
X197584Y-141756
X197584Y-148741
X197584Y-149376
X197584Y-150011
X197584Y-150646
X197584Y-151281
X216406Y-102119
X216406Y-102754
X216406Y-103389
X216406Y-104024
X216406Y-104659
X216406Y-111644
X216406Y-112279
X216406Y-112914
X216406Y-113549
X216406Y-114184
X217016Y-101976
X217016Y-104879
X217016Y-111501
X217016Y-114404
X217651Y-101976
X217651Y-104879
X217651Y-111501
X217651Y-114404
X218286Y-101976
X218286Y-104879
X218286Y-111501
X218286Y-114404
X218921Y-101976
X218921Y-104879
X218921Y-111501
X218921Y-114404
X219556Y-101976
X219556Y-114404
X219581Y-105066
X219581Y-111314
X220191Y-101976
X220191Y-105447
X220191Y-110933
X220191Y-114404
X220605Y-106006
X220605Y-110374
X220757Y-106768
X220757Y-109612
X220826Y-101976
X220826Y-114404
X185272Y-120486
X185272Y-132914
X185340Y-125278
X185340Y-128122
X185493Y-124516
X185493Y-128884
X185907Y-120486
X185907Y-123957
X185907Y-129443
X185907Y-132914
X186516Y-123576
X186516Y-129824
X186542Y-120486
X186542Y-132914
X187177Y-120486
X187177Y-123389
X187177Y-130011
X187177Y-132914
X187812Y-120486
X187812Y-123389
X187812Y-130011
X187812Y-132914
X188447Y-120486
X188447Y-123389
X188447Y-130011
X188447Y-132914
X189082Y-120486
X189082Y-123389
X189082Y-130011
X189082Y-132914
X189692Y-120706
X189692Y-121341
X189692Y-121976
X189692Y-122611
X189692Y-123246
X189692Y-130231
X189692Y-130866
X189692Y-131501
X189692Y-132136
X189692Y-132771
X185724Y-139139
X185724Y-139774
X185724Y-140409
X185724Y-141044
X185724Y-141679
X185724Y-148664
X185724Y-149299
X185724Y-149934
X185724Y-150569
X185724Y-151204
X186334Y-138996
X186334Y-141899
X186334Y-148521
X186334Y-151424
X186969Y-138996
X186969Y-141899
X186969Y-148521
X186969Y-151424
X187604Y-138996
X187604Y-141899
X187604Y-148521
X187604Y-151424
X188239Y-138996
X188239Y-141899
X188239Y-148521
X188239Y-151424
X188874Y-138996
X188874Y-151424
X188899Y-142086
X188899Y-148334
X189509Y-138996
X189509Y-142467
X189509Y-147953
X189509Y-151424
X189923Y-143026
X189923Y-147394
X190075Y-143788
X190075Y-146632
X190144Y-138996
X190144Y-151424
X245770Y-139139
X245770Y-139774
X245770Y-140409
X245770Y-141044
X245770Y-141679
X245770Y-148664
X245770Y-149299
X245770Y-149934
X245770Y-150569
X245770Y-151204
X246380Y-138996
X246380Y-141899
X246380Y-148521
X246380Y-151424
X247015Y-138996
X247015Y-141899
X247015Y-148521
X247015Y-151424
X247650Y-138996
X247650Y-141899
X247650Y-148521
X247650Y-151424
X248285Y-138996
X248285Y-141899
X248285Y-148521
X248285Y-151424
X248920Y-138996
X248920Y-151424
X248945Y-142086
X248945Y-148334
X249555Y-138996
X249555Y-142467
X249555Y-147953
X249555Y-151424
X249969Y-143026
X249969Y-147394
X250121Y-143788
X250121Y-146632
X250190Y-138996
X250190Y-151424
X166664Y-103943
X166664Y-104578
X166664Y-105213
X166664Y-105848
X166664Y-106483
X166664Y-107118
X166664Y-107753
X166808Y-108363
X167443Y-108363
X168078Y-108363
X168713Y-108363
X169348Y-108363
X169567Y-105848
X169567Y-106483
X169567Y-107118
X169567Y-107753
X169754Y-105188
X170135Y-104578
X170694Y-104164
X171456Y-104012
X174301Y-104012
X175063Y-104164
X175621Y-104578
X176002Y-105188
X176189Y-105848
X176189Y-106483
X176189Y-107118
X176189Y-107753
X176333Y-108363
X176968Y-108363
X177603Y-108363
X178237Y-108363
X178873Y-108363
X179092Y-103943
X179092Y-104578
X179092Y-105213
X179092Y-105848
X179092Y-106483
X179092Y-107118
X179092Y-107753
X253206Y-154236
X253206Y-166664
X253275Y-159028
X253275Y-161872
X253427Y-158266
X253427Y-162634
X253841Y-154236
X253841Y-157707
X253841Y-163193
X253841Y-166664
X254451Y-157326
X254451Y-163574
X254476Y-154236
X254476Y-166664
X255111Y-154236
X255111Y-157139
X255111Y-163761
X255111Y-166664
X255746Y-154236
X255746Y-157139
X255746Y-163761
X255746Y-166664
X256381Y-154236
X256381Y-157139
X256381Y-163761
X256381Y-166664
X257016Y-154236
X257016Y-157139
X257016Y-163761
X257016Y-166664
X257626Y-154456
X257626Y-155091
X257626Y-155726
X257626Y-156361
X257626Y-156996
X257626Y-163981
X257626Y-164616
X257626Y-165251
X257626Y-165886
X257626Y-166521
X286084Y-102119
X286084Y-102754
X286084Y-103389
X286084Y-104024
X286084Y-104659
X286084Y-111644
X286084Y-112279
X286084Y-112914
X286084Y-113549
X286084Y-114184
X286693Y-101976
X286693Y-104879
X286693Y-111501
X286693Y-114404
X287328Y-101976
X287328Y-104879
X287328Y-111501
X287328Y-114404
X287963Y-101976
X287963Y-104879
X287963Y-111501
X287963Y-114404
X288598Y-101976
X288598Y-104879
X288598Y-111501
X288598Y-114404
X289233Y-101976
X289233Y-114404
X289259Y-105066
X289259Y-111314
X289868Y-101976
X289868Y-105447
X289868Y-110933
X289868Y-114404
X290282Y-106005
X290282Y-110374
X290435Y-106767
X290435Y-109612
X290503Y-101976
X290503Y-114404
X166664Y-130637
X166664Y-131272
X166664Y-131907
X166664Y-132542
X166664Y-133177
X166664Y-133812
X166664Y-134447
X166884Y-130027
X167519Y-130027
X168154Y-130027
X168789Y-130027
X169424Y-130027
X169567Y-130637
X169567Y-131272
X169567Y-131907
X169567Y-132542
X169754Y-133202
X170135Y-133812
X170694Y-134226
X171456Y-134378
X174301Y-134378
X175063Y-134226
X175621Y-133812
X176002Y-133202
X176189Y-130637
X176189Y-131272
X176189Y-131907
X176189Y-132542
X176409Y-130027
X177044Y-130027
X177679Y-130027
X178314Y-130027
X178949Y-130027
X179092Y-130637
X179092Y-131272
X179092Y-131907
X179092Y-132542
X179092Y-133177
X179092Y-133812
X179092Y-134447
T2
X166715Y-151430
X166715Y-154230
X167415Y-151430
X167415Y-154230
X168115Y-151430
X168115Y-154230
X168815Y-151430
X168815Y-154230
X169515Y-151430
X169515Y-154230
X170215Y-151430
X170215Y-154230
X170915Y-151430
X170915Y-154230
X171478Y-104855
X171478Y-105555
X171478Y-106255
X171478Y-106955
X171478Y-107655
X171478Y-108355
X171478Y-109055
X171478Y-109755
X171478Y-110455
X171478Y-111155
X171478Y-111855
X171478Y-112555
X171478Y-113255
X171478Y-113955
X171478Y-114655
X171478Y-115355
X171478Y-116055
X171478Y-116755
X171478Y-117455
X171478Y-118155
X171478Y-118855
X171478Y-119555
X171478Y-120255
X171478Y-120955
X171478Y-121655
X171478Y-122355
X171478Y-123055
X171478Y-123755
X171478Y-124455
X171478Y-125155
X171478Y-125855
X171478Y-126555
X171478Y-127255
X171478Y-127955
X171478Y-128655
X171478Y-129355
X171478Y-130055
X171478Y-130755
X171478Y-131455
X171478Y-132155
X171478Y-132855
X171478Y-133555
X171615Y-151430
X171615Y-154230
X172315Y-151430
X172315Y-154230
X173015Y-151430
X173015Y-154230
X173715Y-151430
X173715Y-154230
X174278Y-104855
X174278Y-105555
X174278Y-106255
X174278Y-106955
X174278Y-107655
X174278Y-108355
X174278Y-109055
X174278Y-109755
X174278Y-110455
X174278Y-111155
X174278Y-111855
X174278Y-112555
X174278Y-113255
X174278Y-113955
X174278Y-114655
X174278Y-115355
X174278Y-116055
X174278Y-116755
X174278Y-117455
X174278Y-118155
X174278Y-118855
X174278Y-119555
X174278Y-120255
X174278Y-120955
X174278Y-121655
X174278Y-122355
X174278Y-123055
X174278Y-123755
X174278Y-124455
X174278Y-125155
X174278Y-125855
X174278Y-126555
X174278Y-127255
X174278Y-127955
X174278Y-128655
X174278Y-129355
X174278Y-130055
X174278Y-130755
X174278Y-131455
X174278Y-132155
X174278Y-132855
X174278Y-133555
X174415Y-151430
X174415Y-154230
X175115Y-151430
X175115Y-154230
X175815Y-151430
X175815Y-154230
X176515Y-151430
X176515Y-154230
X177215Y-151430
X177215Y-154230
X177915Y-151430
X177915Y-154230
X178615Y-151430
X178615Y-154230
X179313Y-151430
X179315Y-154230
X179910Y-151030
X179910Y-154630
X180415Y-150530
X180415Y-155130
X181115Y-150380
X181115Y-155280
X181815Y-150380
X181815Y-155280
X182015Y-145480
X182015Y-146180
X182015Y-146880
X182015Y-147580
X182015Y-148280
X182015Y-148980
X182015Y-149680
X182052Y-155960
X182052Y-156660
X182052Y-157360
X182052Y-158060
X182052Y-158760
X182052Y-159460
X182052Y-160160
X182302Y-144760
X182302Y-160910
X182852Y-144210
X182852Y-161460
X183502Y-143810
X183502Y-161860
X184202Y-143810
X184202Y-161860
X184460Y-88280
X184460Y-91080
X184820Y-146860
X184820Y-147600
X184820Y-148300
X184820Y-149000
X184820Y-149700
X184820Y-150400
X184820Y-151100
X184820Y-151800
X184820Y-152500
X184820Y-153200
X184820Y-153900
X184820Y-154600
X184820Y-155300
X184820Y-156000
X184820Y-156700
X184820Y-157400
X184820Y-158100
X184820Y-158850
X184902Y-143810
X184902Y-161860
X185160Y-88280
X185160Y-91080
X185520Y-146610
X185520Y-159050
X185602Y-143810
X185602Y-161860
X185860Y-88280
X185860Y-91080
X186220Y-146610
X186220Y-159050
X186302Y-143810
X186302Y-161860
X186314Y-125300
X186464Y-128100
X186560Y-88280
X186560Y-91080
X186920Y-146610
X186920Y-159050
X187002Y-143810
X187002Y-161860
X187014Y-125300
X187164Y-128100
X187260Y-88280
X187260Y-91080
X187620Y-146610
X187620Y-159050
X187702Y-143810
X187702Y-161860
X187714Y-125300
X187864Y-128100
X187960Y-88280
X187960Y-91080
X188320Y-146610
X188320Y-159050
X188402Y-143810
X188402Y-161860
X188414Y-125300
X188564Y-128100
X188660Y-88280
X188660Y-91080
X189020Y-146610
X189020Y-159050
X189060Y-106790
X189060Y-109590
X189102Y-143810
X189102Y-161860
X189114Y-125300
X189264Y-128100
X189360Y-88280
X189360Y-91080
X189760Y-106790
X189760Y-109590
X189814Y-125300
X189964Y-128100
X190060Y-88280
X190060Y-91080
X190460Y-106790
X190460Y-109590
X190514Y-125300
X190664Y-128100
X190760Y-88280
X190760Y-91080
X191160Y-106790
X191160Y-109590
X191214Y-125300
X191364Y-128100
X191460Y-88280
X191460Y-91080
X191860Y-106790
X191860Y-109590
X191914Y-125300
X192064Y-128100
X192160Y-88280
X192160Y-91080
X192560Y-106790
X192560Y-109590
X192614Y-125300
X192764Y-128100
X192860Y-88280
X192860Y-91080
X193260Y-106790
X193260Y-109590
X193314Y-125300
X193464Y-128100
X193560Y-88280
X193560Y-91080
X193960Y-106790
X193960Y-109590
X194014Y-125300
X194057Y-146610
X194057Y-159050
X194164Y-128100
X194207Y-143810
X194207Y-161850
X194260Y-88280
X194260Y-91080
X194660Y-106790
X194660Y-109590
X194714Y-125300
X194757Y-146610
X194757Y-159050
X194864Y-128100
X194907Y-143810
X194907Y-161850
X194960Y-88280
X194960Y-91080
X195360Y-106790
X195360Y-109590
X195414Y-125300
X195457Y-146610
X195457Y-159050
X195564Y-128100
X195607Y-143810
X195607Y-161850
X195660Y-88280
X195660Y-91080
X196060Y-106790
X196060Y-109590
X196114Y-125300
X196157Y-146610
X196157Y-159050
X196264Y-128100
X196307Y-143810
X196307Y-161850
X196360Y-88280
X196360Y-91080
X196760Y-106790
X196760Y-109590
X196814Y-125300
X196857Y-146610
X196857Y-159050
X196964Y-128100
X197007Y-143810
X197007Y-161850
X197060Y-88280
X197060Y-91080
X197460Y-106790
X197460Y-109590
X197514Y-125300
X197557Y-146610
X197557Y-159050
X197664Y-128100
X197707Y-143810
X197707Y-161850
X198160Y-106790
X198160Y-109590
X198214Y-125300
X198257Y-146610
X198257Y-159050
X198364Y-128100
X198407Y-143810
X198407Y-161850
X198860Y-106790
X198860Y-109590
X198914Y-125300
X198957Y-146810
X198957Y-147560
X198957Y-148260
X198957Y-148960
X198957Y-149660
X198957Y-150360
X198957Y-151060
X198957Y-151760
X198957Y-152460
X198957Y-153160
X198957Y-153860
X198957Y-154560
X198957Y-155260
X198957Y-155960
X198957Y-156660
X198957Y-157360
X198957Y-158060
X198957Y-158800
X199020Y-124450
X199064Y-128100
X199107Y-143810
X199107Y-161850
X199560Y-106790
X199560Y-109590
X199764Y-124250
X199764Y-128100
X199807Y-143810
X199807Y-161850
X200260Y-106790
X200260Y-109590
X200464Y-124250
X200464Y-128100
X200507Y-143810
X200507Y-161850
X200960Y-106790
X200960Y-109590
X201007Y-161380
X201011Y-144280
X201164Y-124250
X201164Y-128100
X201507Y-160880
X201511Y-144780
X201660Y-106790
X201660Y-109590
X201761Y-145430
X201761Y-146130
X201761Y-146830
X201761Y-147530
X201761Y-148230
X201761Y-148930
X201761Y-149630
X201761Y-150330
X201761Y-155330
X201761Y-156030
X201761Y-156730
X201761Y-157430
X201761Y-158130
X201761Y-158830
X201761Y-159530
X201761Y-160230
X201864Y-124250
X201864Y-128100
X202360Y-106790
X202360Y-109590
X202461Y-150330
X202461Y-155330
X202564Y-124250
X202564Y-128100
X203060Y-106790
X203060Y-109590
X203161Y-150330
X203161Y-155330
X203264Y-124250
X203264Y-128100
X203760Y-106790
X203760Y-109590
X203861Y-150330
X203861Y-155330
X203964Y-124250
X203964Y-128100
X204311Y-150880
X204311Y-154780
X204460Y-106790
X204460Y-109590
X204664Y-124250
X204664Y-128100
X204761Y-151430
X204761Y-154230
X205160Y-106790
X205160Y-109590
X205364Y-124250
X205364Y-128100
X205461Y-151430
X205461Y-154230
X205860Y-106790
X205860Y-109590
X206064Y-128100
X206120Y-124450
X206161Y-151430
X206161Y-154230
X206220Y-125300
X206560Y-106790
X206560Y-109590
X206764Y-128100
X206861Y-151430
X206861Y-154230
X206920Y-125300
X207260Y-106790
X207260Y-109590
X207464Y-128100
X207561Y-151430
X207561Y-154230
X207620Y-125300
X207960Y-106790
X207960Y-109590
X208164Y-128100
X208261Y-151430
X208261Y-154230
X208320Y-125300
X208660Y-106790
X208660Y-109590
X208864Y-128100
X208961Y-151430
X208961Y-154230
X209020Y-125300
X209360Y-106790
X209360Y-109590
X209564Y-128100
X209661Y-151430
X209661Y-154230
X209720Y-125300
X210060Y-106790
X210060Y-109590
X210264Y-128100
X210361Y-151430
X210361Y-154230
X210420Y-125300
X210760Y-106790
X210760Y-109590
X210964Y-128100
X211061Y-151430
X211061Y-154230
X211120Y-125300
X211460Y-106790
X211460Y-109590
X211664Y-128100
X211761Y-151430
X211761Y-154230
X211820Y-125300
X211860Y-88280
X211860Y-91080
X212160Y-106790
X212160Y-109590
X212364Y-128100
X212461Y-151430
X212461Y-154230
X212520Y-125300
X212560Y-88280
X212560Y-91080
X212860Y-106790
X212860Y-109590
X213064Y-128100
X213161Y-151430
X213161Y-154230
X213220Y-125300
X213260Y-88280
X213260Y-91080
X213560Y-106790
X213560Y-109590
X213764Y-128100
X213861Y-151430
X213861Y-154230
X213920Y-125300
X213960Y-88280
X213960Y-91080
X214260Y-106790
X214260Y-109590
X214464Y-128100
X214561Y-151430
X214561Y-154230
X214620Y-125300
X214660Y-88280
X214660Y-91080
X214960Y-106790
X214960Y-109590
X215164Y-128100
X215261Y-151430
X215261Y-154230
X215320Y-125300
X215360Y-88280
X215360Y-91080
X215660Y-106790
X215660Y-109590
X215864Y-128100
X215961Y-151430
X215961Y-154230
X216020Y-125300
X216060Y-88280
X216060Y-91080
X216360Y-106790
X216360Y-109590
X216564Y-128100
X216661Y-151430
X216661Y-154230
X216720Y-125300
X216760Y-88280
X216760Y-91080
X217060Y-106790
X217060Y-109590
X217264Y-128100
X217361Y-151430
X217361Y-154230
X217420Y-125300
X217460Y-88280
X217460Y-91080
X217760Y-106790
X217760Y-109590
X217964Y-128100
X218061Y-151430
X218061Y-154230
X218120Y-125300
X218160Y-88280
X218160Y-91080
X218460Y-106790
X218460Y-109590
X218664Y-128100
X218820Y-125300
X218860Y-88280
X218860Y-91080
X219160Y-106790
X219160Y-109580
X219560Y-88280
X219560Y-91080
X219860Y-106790
X219860Y-109580
X220260Y-88280
X220260Y-91080
X220960Y-88280
X220960Y-91080
X221660Y-88280
X221660Y-91080
X222360Y-88280
X222360Y-91080
X223060Y-88280
X223060Y-91080
X223160Y-151430
X223160Y-154230
X223760Y-88280
X223760Y-91080
X223860Y-151430
X223860Y-154230
X223894Y-128100
X224044Y-125300
X224460Y-88280
X224460Y-91080
X224560Y-151430
X224560Y-154230
X224594Y-128100
X224744Y-125300
X225033Y-106790
X225033Y-109590
X225260Y-151430
X225260Y-154230
X225294Y-128100
X225444Y-125300
X225733Y-106790
X225733Y-109590
X225960Y-151430
X225960Y-154230
X225994Y-128100
X226144Y-125300
X226433Y-106790
X226433Y-109590
X226660Y-151430
X226660Y-154230
X226694Y-128100
X226844Y-125300
X227133Y-106790
X227133Y-109590
X227360Y-151430
X227360Y-154230
X227394Y-128100
X227544Y-125300
X227833Y-106790
X227833Y-109590
X228060Y-151430
X228060Y-154230
X228094Y-128100
X228244Y-125300
X228533Y-106790
X228533Y-109590
X228760Y-151430
X228760Y-154230
X228794Y-128100
X228944Y-125300
X229233Y-106790
X229233Y-109590
X229460Y-151430
X229460Y-154230
X229494Y-128100
X229644Y-125300
X229933Y-106790
X229933Y-109590
X230160Y-151430
X230160Y-154230
X230194Y-128100
X230344Y-125300
X230633Y-106790
X230633Y-109590
X230860Y-151430
X230860Y-154230
X230894Y-128100
X231044Y-125300
X231333Y-106790
X231333Y-109590
X231560Y-151430
X231560Y-154230
X231594Y-128100
X231744Y-125300
X232033Y-106790
X232033Y-109590
X232260Y-151430
X232260Y-154230
X232294Y-128100
X232444Y-125300
X232733Y-106790
X232733Y-109590
X232960Y-151430
X232960Y-154230
X232994Y-128100
X233144Y-125300
X233433Y-106790
X233433Y-109590
X233660Y-151430
X233660Y-154230
X233694Y-128100
X233844Y-125300
X234133Y-106790
X234133Y-109590
X234360Y-151430
X234360Y-154230
X234394Y-128100
X234544Y-125300
X234833Y-106790
X234833Y-109590
X235060Y-151430
X235060Y-154230
X235094Y-128100
X235244Y-125300
X235533Y-106790
X235533Y-109590
X235760Y-151430
X235760Y-154230
X235794Y-128100
X235944Y-125300
X236233Y-106790
X236233Y-109590
X236460Y-151430
X236460Y-154230
X236494Y-128100
X236494Y-128850
X236644Y-125300
X236933Y-106790
X236933Y-109590
X237157Y-151430
X237160Y-154230
X237290Y-128850
X237310Y-89030
X237310Y-89730
X237310Y-90430
X237344Y-125300
X237633Y-106790
X237633Y-109590
X237860Y-151230
X237860Y-154430
X237860Y-88280
X237860Y-91080
X237990Y-128850
X238044Y-125300
X238333Y-106790
X238333Y-109590
X238460Y-150780
X238460Y-154880
X238560Y-88280
X238560Y-91080
X238690Y-128850
X238744Y-125300
X239033Y-106790
X239033Y-109590
X239160Y-150780
X239160Y-154880
X239260Y-88280
X239260Y-91080
X239390Y-128850
X239444Y-125300
X239733Y-106790
X239733Y-109590
X239860Y-150780
X239860Y-154880
X239960Y-88280
X239960Y-91080
X240090Y-128850
X240144Y-125300
X240433Y-106790
X240433Y-109590
X240560Y-150780
X240560Y-154880
X240660Y-88280
X240660Y-91080
X240790Y-128850
X240844Y-125300
X241133Y-106790
X241133Y-109590
X241260Y-150780
X241260Y-154880
X241360Y-88280
X241360Y-91080
X241490Y-128850
X241544Y-125300
X241833Y-106790
X241833Y-109590
X241960Y-145180
X241960Y-145880
X241960Y-146580
X241960Y-147280
X241960Y-147980
X241960Y-148680
X241960Y-149380
X241960Y-150080
X241960Y-150780
X241960Y-154880
X241960Y-155580
X241960Y-156280
X241960Y-156980
X241960Y-157680
X241960Y-158380
X241960Y-159080
X241960Y-159780
X241960Y-160480
X242060Y-88280
X242060Y-91080
X242190Y-128850
X242244Y-125300
X242410Y-144630
X242410Y-161030
X242533Y-106790
X242533Y-109590
X242760Y-88280
X242760Y-91080
X242910Y-144130
X242910Y-161530
X242944Y-125300
X243040Y-128100
X243040Y-128850
X243233Y-106790
X243233Y-109590
X243460Y-88280
X243460Y-91080
X243564Y-143810
X243564Y-161850
X243644Y-125300
X243740Y-128100
X243933Y-106790
X243933Y-109590
X244160Y-88280
X244160Y-91080
X244264Y-143810
X244264Y-161850
X244344Y-125300
X244440Y-128100
X244633Y-106790
X244633Y-109590
X244764Y-146860
X244764Y-147600
X244764Y-148300
X244764Y-149000
X244764Y-149700
X244764Y-150400
X244764Y-151100
X244764Y-151800
X244764Y-152500
X244764Y-153200
X244764Y-153900
X244764Y-154600
X244764Y-155300
X244764Y-156000
X244764Y-156700
X244764Y-157400
X244764Y-158100
X244764Y-158850
X244860Y-88280
X244860Y-91080
X244964Y-143810
X244964Y-161850
X245044Y-125300
X245140Y-128100
X245333Y-106790
X245333Y-109590
X245464Y-146610
X245464Y-159050
X245560Y-88280
X245560Y-91080
X245664Y-143810
X245664Y-161850
X245744Y-125300
X245840Y-128100
X246033Y-106790
X246033Y-109590
X246164Y-146610
X246164Y-159050
X246260Y-88280
X246260Y-91080
X246364Y-143810
X246364Y-161850
X246444Y-125300
X246540Y-128100
X246733Y-106790
X246733Y-109590
X246864Y-146610
X246864Y-159050
X246960Y-88280
X246960Y-91080
X247064Y-143810
X247064Y-161850
X247144Y-125300
X247240Y-128100
X247433Y-106790
X247433Y-109590
X247564Y-146610
X247564Y-159050
X247660Y-88280
X247660Y-91080
X247764Y-143810
X247764Y-161850
X247844Y-125300
X247940Y-128100
X248133Y-106790
X248133Y-109590
X248264Y-146610
X248264Y-159050
X248360Y-88280
X248360Y-91080
X248464Y-143810
X248464Y-161850
X248544Y-125300
X248640Y-128100
X248833Y-106790
X248833Y-109590
X248964Y-146610
X248964Y-159050
X249060Y-88280
X249060Y-91080
X249164Y-143810
X249164Y-161850
X249244Y-125300
X249340Y-128100
X249533Y-106790
X249533Y-109590
X249760Y-88280
X249760Y-91080
X249944Y-125300
X250040Y-128100
X250233Y-106790
X250233Y-109590
X250460Y-88280
X250460Y-91080
X250644Y-125300
X250740Y-128100
X250933Y-106790
X250933Y-109590
X251160Y-88280
X251160Y-91080
X251344Y-125300
X251440Y-128100
X251633Y-106790
X251633Y-109590
X251860Y-88280
X251860Y-91080
X252044Y-125300
X252140Y-128100
X252744Y-125300
X252840Y-128100
X253444Y-125300
X253540Y-128100
X254098Y-146610
X254098Y-159050
X254144Y-125300
X254240Y-128100
X254248Y-143810
X254248Y-161850
X254798Y-146610
X254798Y-159050
X254844Y-125300
X254940Y-128100
X254948Y-143810
X254948Y-161850
X255498Y-146610
X255498Y-159050
X255544Y-125300
X255640Y-128100
X255648Y-143810
X255648Y-161850
X256198Y-146610
X256198Y-159050
X256348Y-143810
X256348Y-161850
X256840Y-106790
X256856Y-109597
X256898Y-146610
X256898Y-159050
X256960Y-88280
X257048Y-143810
X257048Y-161850
X257110Y-91080
X257540Y-106790
X257556Y-109597
X257598Y-146610
X257598Y-159050
X257660Y-88280
X257748Y-143810
X257748Y-161850
X257810Y-91080
X258240Y-106790
X258256Y-109597
X258298Y-146610
X258298Y-159050
X258360Y-88280
X258448Y-143810
X258448Y-161850
X258510Y-91080
X258940Y-106790
X258956Y-109597
X258998Y-146810
X258998Y-147560
X258998Y-148260
X258998Y-148960
X258998Y-149660
X258998Y-150360
X258998Y-151060
X258998Y-151760
X258998Y-152460
X258998Y-153160
X258998Y-153860
X258998Y-154560
X258998Y-155260
X258998Y-155960
X258998Y-156660
X258998Y-157360
X258998Y-158060
X258998Y-158800
X259060Y-88280
X259148Y-143810
X259148Y-161850
X259210Y-91080
X259640Y-106790
X259656Y-109597
X259760Y-88280
X259848Y-143810
X259848Y-161850
X259910Y-91080
X260340Y-106790
X260356Y-109597
X260460Y-88280
X260548Y-143810
X260548Y-161850
X260610Y-91080
X260740Y-125300
X260740Y-128100
X261040Y-106790
X261048Y-161380
X261052Y-144280
X261056Y-109597
X261160Y-88280
X261310Y-91080
X261440Y-125300
X261440Y-128100
X261548Y-160880
X261552Y-144780
X261740Y-106790
X261756Y-109597
X261802Y-145430
X261802Y-146130
X261802Y-146830
X261802Y-147530
X261802Y-148230
X261802Y-148930
X261802Y-149630
X261802Y-150330
X261802Y-155330
X261802Y-156030
X261802Y-156730
X261802Y-157430
X261802Y-158130
X261802Y-158830
X261802Y-159530
X261802Y-160230
X261860Y-88280
X262010Y-91080
X262140Y-125300
X262140Y-128100
X262440Y-106790
X262456Y-109597
X262502Y-150330
X262502Y-155330
X262560Y-88280
X262710Y-91080
X262840Y-125300
X262840Y-128100
X263140Y-106790
X263156Y-109597
X263202Y-150330
X263202Y-155330
X263260Y-88280
X263410Y-91080
X263540Y-125300
X263540Y-128100
X263840Y-106790
X263856Y-109597
X263902Y-150330
X263902Y-155330
X263960Y-88280
X264110Y-91080
X264240Y-125300
X264240Y-128100
X264321Y-150880
X264352Y-154780
X264540Y-106790
X264556Y-109597
X264660Y-88280
X264802Y-151380
X264802Y-154230
X264810Y-91080
X264940Y-125300
X264940Y-128100
X265240Y-106790
X265256Y-109597
X265360Y-88280
X265502Y-151430
X265502Y-154230
X265510Y-91080
X265557Y-150660
X265640Y-125300
X265640Y-128100
X265940Y-106790
X265956Y-109597
X266060Y-88280
X266202Y-154230
X266210Y-91080
X266252Y-150380
X266340Y-125300
X266340Y-128100
X266640Y-106790
X266656Y-109597
X266760Y-88280
X266902Y-154230
X266910Y-91080
X266952Y-150380
X267040Y-125300
X267040Y-128100
X267340Y-106790
X267356Y-109597
X267460Y-88280
X267602Y-154230
X267610Y-91080
X267652Y-150380
X267740Y-125300
X267740Y-128100
X268040Y-106790
X268056Y-109597
X268160Y-88280
X268302Y-154230
X268310Y-91080
X268352Y-150380
X268440Y-125300
X268440Y-128100
X268740Y-106790
X268756Y-109597
X268860Y-88280
X269002Y-154230
X269010Y-91080
X269052Y-150380
X269140Y-125300
X269140Y-128100
X269440Y-106790
X269456Y-109597
X269490Y-105990
X269511Y-110390
X269560Y-88280
X269610Y-87480
X269702Y-154230
X269710Y-91080
X269752Y-150380
X269840Y-125300
X269840Y-128100
X270290Y-105740
X270311Y-110640
X270402Y-154230
X270410Y-87230
X270410Y-91080
X270452Y-150380
X270540Y-125300
X270540Y-128100
X270990Y-105740
X271011Y-110640
X271102Y-154230
X271110Y-87230
X271110Y-91080
X271152Y-150380
X271240Y-125300
X271240Y-128100
X271690Y-105740
X271711Y-110640
X271802Y-154230
X271810Y-87230
X271810Y-91080
X271902Y-151430
X271907Y-150660
X271940Y-125300
X271940Y-128100
X272390Y-105740
X272411Y-110640
X272502Y-154230
X272510Y-87230
X272510Y-91080
X272602Y-151430
X272640Y-125300
X272640Y-128100
X273090Y-105740
X273111Y-110640
X273202Y-154230
X273210Y-87230
X273210Y-91080
X273302Y-151430
X273340Y-125300
X273340Y-128100
X273790Y-105740
X273811Y-110640
X273902Y-154230
X273910Y-87230
X273910Y-91080
X274002Y-151430
X274040Y-125300
X274040Y-128100
X274490Y-105740
X274511Y-110640
X274602Y-154230
X274610Y-87230
X274610Y-91080
X274702Y-151430
X274740Y-125300
X274740Y-128100
X275190Y-105740
X275211Y-110640
X275302Y-154230
X275310Y-87230
X275310Y-91080
X275402Y-151430
X275440Y-125300
X275440Y-128100
X275890Y-105740
X275911Y-110640
X276002Y-154230
X276010Y-87230
X276010Y-91080
X276102Y-151430
X276140Y-125300
X276140Y-128100
X276690Y-105990
X276702Y-154230
X276710Y-91080
X276711Y-110390
X276746Y-106782
X276761Y-109590
X276802Y-151430
X276810Y-87480
X276840Y-125300
X276840Y-128100
X276866Y-88272
X277402Y-154230
X277410Y-91080
X277446Y-106782
X277461Y-109590
X277502Y-151430
X277540Y-125300
X277540Y-128100
X277566Y-88272
X278102Y-154230
X278110Y-91080
X278146Y-106782
X278161Y-109590
X278202Y-151430
X278240Y-125300
X278240Y-128100
X278266Y-88272
X278802Y-154230
X278810Y-91080
X278846Y-106782
X278861Y-109590
X278902Y-151430
X278940Y-125300
X278940Y-128100
X278966Y-88272
X279502Y-154230
X279510Y-91080
X279546Y-106782
X279561Y-109590
X279602Y-151430
X279640Y-125300
X279640Y-128100
X279666Y-88272
X280202Y-154230
X280210Y-91080
X280246Y-106782
X280261Y-109590
X280302Y-151430
X280340Y-125300
X280340Y-128100
X280366Y-88272
X280902Y-154230
X280910Y-91080
X280946Y-106782
X280961Y-109590
X281002Y-151430
X281040Y-125300
X281040Y-128100
X281066Y-88272
X281602Y-154230
X281610Y-91080
X281646Y-106782
X281661Y-109590
X281702Y-151430
X281740Y-125300
X281740Y-128100
X281766Y-88272
X282302Y-154230
X282310Y-91080
X282346Y-106782
X282361Y-109590
X282402Y-151430
X282440Y-125300
X282440Y-128100
X282466Y-88272
X283002Y-154230
X283010Y-91080
X283046Y-106782
X283061Y-109590
X283102Y-151430
X283140Y-125300
X283140Y-128100
X283166Y-88272
X283702Y-154230
X283710Y-91080
X283746Y-106782
X283761Y-109590
X283802Y-151430
X283840Y-125300
X283840Y-128100
X283866Y-88272
X284402Y-154230
X284410Y-91080
X284446Y-106782
X284461Y-109590
X284502Y-151430
X284540Y-125300
X284540Y-128100
X284566Y-88272
X285102Y-154230
X285110Y-91080
X285146Y-106782
X285161Y-109590
X285202Y-151430
X285240Y-125300
X285240Y-128100
X285266Y-88272
X285802Y-154230
X285810Y-91080
X285846Y-106782
X285861Y-109590
X285902Y-151430
X285940Y-125300
X285940Y-128100
X285966Y-88272
X286502Y-154230
X286510Y-91080
X286546Y-106782
X286561Y-109590
X286602Y-151430
X286640Y-125300
X286640Y-128100
X286666Y-88272
X287202Y-154230
X287210Y-91080
X287246Y-106782
X287261Y-109590
X287302Y-151430
X287340Y-125300
X287340Y-128100
X287366Y-88272
X287902Y-154230
X287910Y-91080
X287946Y-106782
X287961Y-109590
X288002Y-151430
X288040Y-125300
X288040Y-128100
X288066Y-88272
X288602Y-154230
X288610Y-91080
X288646Y-106782
X288661Y-109590
X288702Y-151430
X288740Y-125300
X288740Y-128100
X288766Y-88272
X289302Y-154230
X289310Y-91080
X289346Y-106782
X289361Y-109590
X289402Y-151430
X289440Y-125300
X289440Y-128100
X289466Y-88272
T3
X177683Y-87140
X177683Y-92220
X182763Y-87140
X182763Y-92220
X205083Y-87140
X205083Y-92220
X210163Y-87140
X210163Y-92220
T0
M30
