G04 #@! TF.GenerationSoftware,KiCad,Pcbnew,(5.1.2)-2*
G04 #@! TF.CreationDate,2019-08-10T23:44:23-05:00*
G04 #@! TF.ProjectId,front_end,66726f6e-745f-4656-9e64-2e6b69636164,rev?*
G04 #@! TF.SameCoordinates,Original*
G04 #@! TF.FileFunction,Paste,Top*
G04 #@! TF.FilePolarity,Positive*
%FSLAX46Y46*%
G04 Gerber Fmt 4.6, Leading zero omitted, Abs format (unit mm)*
G04 Created by KiCad (PCBNEW (5.1.2)-2) date 2019-08-10 23:44:23*
%MOMM*%
%LPD*%
G04 APERTURE LIST*
%ADD10C,0.533400*%
%ADD11C,0.100000*%
%ADD12R,0.406963X0.590020*%
%ADD13R,0.533420X0.533420*%
%ADD14C,0.533398*%
%ADD15R,0.533398X0.420198*%
%ADD16R,0.533420X0.539770*%
%ADD17R,0.533398X0.533398*%
%ADD18R,0.540000X1.200000*%
G04 APERTURE END LIST*
D10*
X73660000Y-119380000D03*
D11*
G36*
X72750605Y-113916279D02*
G01*
X72750606Y-113916278D01*
X72750608Y-113916277D01*
X72750609Y-113916276D01*
X72750611Y-113916275D01*
X73284015Y-113916275D01*
X73284019Y-113916277D01*
X73284020Y-113916278D01*
X73284021Y-113916280D01*
X73284022Y-113916281D01*
X73284023Y-113916283D01*
X73284023Y-116265578D01*
X73284021Y-116265582D01*
X73284020Y-116265583D01*
X73284018Y-116265584D01*
X73284017Y-116265585D01*
X73284015Y-116265586D01*
X73157566Y-116265586D01*
X73157566Y-117314579D01*
X73161201Y-117355559D01*
X73171728Y-117395162D01*
X73189147Y-117432382D01*
X73212709Y-117466096D01*
X73241784Y-117495171D01*
X73275371Y-117518732D01*
X73312716Y-117536151D01*
X73352320Y-117546678D01*
X73393301Y-117550313D01*
X73926701Y-117550313D01*
X73967680Y-117546678D01*
X74007284Y-117536151D01*
X74044503Y-117518732D01*
X74078216Y-117495171D01*
X74107291Y-117466096D01*
X74130853Y-117432382D01*
X74148272Y-117395162D01*
X74158799Y-117355559D01*
X74162434Y-117314578D01*
X74162434Y-116265586D01*
X74035985Y-116265586D01*
X74035981Y-116265584D01*
X74035980Y-116265583D01*
X74035979Y-116265581D01*
X74035978Y-116265580D01*
X74035977Y-116265578D01*
X74035977Y-113916283D01*
X74035979Y-113916279D01*
X74035980Y-113916278D01*
X74035982Y-113916277D01*
X74035983Y-113916276D01*
X74035985Y-113916275D01*
X74569389Y-113916275D01*
X74569393Y-113916277D01*
X74569394Y-113916278D01*
X74569395Y-113916280D01*
X74569396Y-113916281D01*
X74569397Y-113916283D01*
X74569397Y-115998878D01*
X74569395Y-115998882D01*
X74569394Y-115998883D01*
X74569392Y-115998884D01*
X74569391Y-115998885D01*
X74569389Y-115998886D01*
X74442940Y-115998886D01*
X74442940Y-117314579D01*
X74440935Y-117359572D01*
X74440935Y-117359573D01*
X74435044Y-117404190D01*
X74425394Y-117448181D01*
X74425394Y-117448183D01*
X74411858Y-117491170D01*
X74394563Y-117532780D01*
X74394562Y-117532782D01*
X74373757Y-117572636D01*
X74349569Y-117610736D01*
X74349568Y-117610737D01*
X74322121Y-117646456D01*
X74291791Y-117679668D01*
X74291790Y-117679669D01*
X74258578Y-117709999D01*
X74222859Y-117737446D01*
X74222857Y-117737447D01*
X74184757Y-117761635D01*
X74144903Y-117782440D01*
X74144902Y-117782441D01*
X74103292Y-117799736D01*
X74060305Y-117813272D01*
X74060303Y-117813273D01*
X74016312Y-117822923D01*
X73971695Y-117828814D01*
X73971693Y-117828814D01*
X73926710Y-117830819D01*
X73926710Y-119646702D01*
X73926708Y-119646706D01*
X73926707Y-119646707D01*
X73926705Y-119646708D01*
X73926704Y-119646709D01*
X73926702Y-119646710D01*
X73393298Y-119646710D01*
X73393294Y-119646708D01*
X73393293Y-119646707D01*
X73393292Y-119646705D01*
X73393291Y-119646704D01*
X73393290Y-119646702D01*
X73393290Y-117830819D01*
X73348307Y-117828814D01*
X73303690Y-117822923D01*
X73303688Y-117822923D01*
X73259697Y-117813273D01*
X73216710Y-117799737D01*
X73216708Y-117799736D01*
X73175098Y-117782441D01*
X73135118Y-117761636D01*
X73135117Y-117761635D01*
X73097143Y-117737447D01*
X73061424Y-117710000D01*
X73061422Y-117709999D01*
X73028210Y-117679669D01*
X72997880Y-117646457D01*
X72997879Y-117646456D01*
X72970432Y-117610737D01*
X72946244Y-117572637D01*
X72946243Y-117572636D01*
X72925438Y-117532782D01*
X72908143Y-117491172D01*
X72908142Y-117491170D01*
X72894606Y-117448183D01*
X72884956Y-117404192D01*
X72884956Y-117404190D01*
X72879065Y-117359573D01*
X72877060Y-117314580D01*
X72877060Y-115998886D01*
X72750611Y-115998886D01*
X72750607Y-115998884D01*
X72750606Y-115998883D01*
X72750605Y-115998881D01*
X72750604Y-115998880D01*
X72750603Y-115998878D01*
X72750603Y-113916283D01*
X72750605Y-113916279D01*
X72750605Y-113916279D01*
G37*
D12*
X74239458Y-115970576D03*
X73080541Y-115970576D03*
D13*
X73017316Y-114182982D03*
X74302684Y-114182982D03*
D10*
X139700000Y-119380000D03*
D11*
G36*
X138790605Y-113916279D02*
G01*
X138790606Y-113916278D01*
X138790608Y-113916277D01*
X138790609Y-113916276D01*
X138790611Y-113916275D01*
X139324015Y-113916275D01*
X139324019Y-113916277D01*
X139324020Y-113916278D01*
X139324021Y-113916280D01*
X139324022Y-113916281D01*
X139324023Y-113916283D01*
X139324023Y-116265578D01*
X139324021Y-116265582D01*
X139324020Y-116265583D01*
X139324018Y-116265584D01*
X139324017Y-116265585D01*
X139324015Y-116265586D01*
X139197566Y-116265586D01*
X139197566Y-117314579D01*
X139201201Y-117355559D01*
X139211728Y-117395162D01*
X139229147Y-117432382D01*
X139252709Y-117466096D01*
X139281784Y-117495171D01*
X139315371Y-117518732D01*
X139352716Y-117536151D01*
X139392320Y-117546678D01*
X139433301Y-117550313D01*
X139966701Y-117550313D01*
X140007680Y-117546678D01*
X140047284Y-117536151D01*
X140084503Y-117518732D01*
X140118216Y-117495171D01*
X140147291Y-117466096D01*
X140170853Y-117432382D01*
X140188272Y-117395162D01*
X140198799Y-117355559D01*
X140202434Y-117314578D01*
X140202434Y-116265586D01*
X140075985Y-116265586D01*
X140075981Y-116265584D01*
X140075980Y-116265583D01*
X140075979Y-116265581D01*
X140075978Y-116265580D01*
X140075977Y-116265578D01*
X140075977Y-113916283D01*
X140075979Y-113916279D01*
X140075980Y-113916278D01*
X140075982Y-113916277D01*
X140075983Y-113916276D01*
X140075985Y-113916275D01*
X140609389Y-113916275D01*
X140609393Y-113916277D01*
X140609394Y-113916278D01*
X140609395Y-113916280D01*
X140609396Y-113916281D01*
X140609397Y-113916283D01*
X140609397Y-115998878D01*
X140609395Y-115998882D01*
X140609394Y-115998883D01*
X140609392Y-115998884D01*
X140609391Y-115998885D01*
X140609389Y-115998886D01*
X140482940Y-115998886D01*
X140482940Y-117314579D01*
X140480935Y-117359572D01*
X140480935Y-117359573D01*
X140475044Y-117404190D01*
X140465394Y-117448181D01*
X140465394Y-117448183D01*
X140451858Y-117491170D01*
X140434563Y-117532780D01*
X140434562Y-117532782D01*
X140413757Y-117572636D01*
X140389569Y-117610736D01*
X140389568Y-117610737D01*
X140362121Y-117646456D01*
X140331791Y-117679668D01*
X140331790Y-117679669D01*
X140298578Y-117709999D01*
X140262859Y-117737446D01*
X140262857Y-117737447D01*
X140224757Y-117761635D01*
X140184903Y-117782440D01*
X140184902Y-117782441D01*
X140143292Y-117799736D01*
X140100305Y-117813272D01*
X140100303Y-117813273D01*
X140056312Y-117822923D01*
X140011695Y-117828814D01*
X140011693Y-117828814D01*
X139966710Y-117830819D01*
X139966710Y-119646702D01*
X139966708Y-119646706D01*
X139966707Y-119646707D01*
X139966705Y-119646708D01*
X139966704Y-119646709D01*
X139966702Y-119646710D01*
X139433298Y-119646710D01*
X139433294Y-119646708D01*
X139433293Y-119646707D01*
X139433292Y-119646705D01*
X139433291Y-119646704D01*
X139433290Y-119646702D01*
X139433290Y-117830819D01*
X139388307Y-117828814D01*
X139343690Y-117822923D01*
X139343688Y-117822923D01*
X139299697Y-117813273D01*
X139256710Y-117799737D01*
X139256708Y-117799736D01*
X139215098Y-117782441D01*
X139175118Y-117761636D01*
X139175117Y-117761635D01*
X139137143Y-117737447D01*
X139101424Y-117710000D01*
X139101422Y-117709999D01*
X139068210Y-117679669D01*
X139037880Y-117646457D01*
X139037879Y-117646456D01*
X139010432Y-117610737D01*
X138986244Y-117572637D01*
X138986243Y-117572636D01*
X138965438Y-117532782D01*
X138948143Y-117491172D01*
X138948142Y-117491170D01*
X138934606Y-117448183D01*
X138924956Y-117404192D01*
X138924956Y-117404190D01*
X138919065Y-117359573D01*
X138917060Y-117314580D01*
X138917060Y-115998886D01*
X138790611Y-115998886D01*
X138790607Y-115998884D01*
X138790606Y-115998883D01*
X138790605Y-115998881D01*
X138790604Y-115998880D01*
X138790603Y-115998878D01*
X138790603Y-113916283D01*
X138790605Y-113916279D01*
X138790605Y-113916279D01*
G37*
D12*
X140279458Y-115970576D03*
X139120541Y-115970576D03*
D13*
X139057316Y-114182982D03*
X140342684Y-114182982D03*
D10*
X106680000Y-119380000D03*
D11*
G36*
X105770605Y-113916279D02*
G01*
X105770606Y-113916278D01*
X105770608Y-113916277D01*
X105770609Y-113916276D01*
X105770611Y-113916275D01*
X106304015Y-113916275D01*
X106304019Y-113916277D01*
X106304020Y-113916278D01*
X106304021Y-113916280D01*
X106304022Y-113916281D01*
X106304023Y-113916283D01*
X106304023Y-116265578D01*
X106304021Y-116265582D01*
X106304020Y-116265583D01*
X106304018Y-116265584D01*
X106304017Y-116265585D01*
X106304015Y-116265586D01*
X106177566Y-116265586D01*
X106177566Y-117314579D01*
X106181201Y-117355559D01*
X106191728Y-117395162D01*
X106209147Y-117432382D01*
X106232709Y-117466096D01*
X106261784Y-117495171D01*
X106295371Y-117518732D01*
X106332716Y-117536151D01*
X106372320Y-117546678D01*
X106413301Y-117550313D01*
X106946701Y-117550313D01*
X106987680Y-117546678D01*
X107027284Y-117536151D01*
X107064503Y-117518732D01*
X107098216Y-117495171D01*
X107127291Y-117466096D01*
X107150853Y-117432382D01*
X107168272Y-117395162D01*
X107178799Y-117355559D01*
X107182434Y-117314578D01*
X107182434Y-116265586D01*
X107055985Y-116265586D01*
X107055981Y-116265584D01*
X107055980Y-116265583D01*
X107055979Y-116265581D01*
X107055978Y-116265580D01*
X107055977Y-116265578D01*
X107055977Y-113916283D01*
X107055979Y-113916279D01*
X107055980Y-113916278D01*
X107055982Y-113916277D01*
X107055983Y-113916276D01*
X107055985Y-113916275D01*
X107589389Y-113916275D01*
X107589393Y-113916277D01*
X107589394Y-113916278D01*
X107589395Y-113916280D01*
X107589396Y-113916281D01*
X107589397Y-113916283D01*
X107589397Y-115998878D01*
X107589395Y-115998882D01*
X107589394Y-115998883D01*
X107589392Y-115998884D01*
X107589391Y-115998885D01*
X107589389Y-115998886D01*
X107462940Y-115998886D01*
X107462940Y-117314579D01*
X107460935Y-117359572D01*
X107460935Y-117359573D01*
X107455044Y-117404190D01*
X107445394Y-117448181D01*
X107445394Y-117448183D01*
X107431858Y-117491170D01*
X107414563Y-117532780D01*
X107414562Y-117532782D01*
X107393757Y-117572636D01*
X107369569Y-117610736D01*
X107369568Y-117610737D01*
X107342121Y-117646456D01*
X107311791Y-117679668D01*
X107311790Y-117679669D01*
X107278578Y-117709999D01*
X107242859Y-117737446D01*
X107242857Y-117737447D01*
X107204757Y-117761635D01*
X107164903Y-117782440D01*
X107164902Y-117782441D01*
X107123292Y-117799736D01*
X107080305Y-117813272D01*
X107080303Y-117813273D01*
X107036312Y-117822923D01*
X106991695Y-117828814D01*
X106991693Y-117828814D01*
X106946710Y-117830819D01*
X106946710Y-119646702D01*
X106946708Y-119646706D01*
X106946707Y-119646707D01*
X106946705Y-119646708D01*
X106946704Y-119646709D01*
X106946702Y-119646710D01*
X106413298Y-119646710D01*
X106413294Y-119646708D01*
X106413293Y-119646707D01*
X106413292Y-119646705D01*
X106413291Y-119646704D01*
X106413290Y-119646702D01*
X106413290Y-117830819D01*
X106368307Y-117828814D01*
X106323690Y-117822923D01*
X106323688Y-117822923D01*
X106279697Y-117813273D01*
X106236710Y-117799737D01*
X106236708Y-117799736D01*
X106195098Y-117782441D01*
X106155118Y-117761636D01*
X106155117Y-117761635D01*
X106117143Y-117737447D01*
X106081424Y-117710000D01*
X106081422Y-117709999D01*
X106048210Y-117679669D01*
X106017880Y-117646457D01*
X106017879Y-117646456D01*
X105990432Y-117610737D01*
X105966244Y-117572637D01*
X105966243Y-117572636D01*
X105945438Y-117532782D01*
X105928143Y-117491172D01*
X105928142Y-117491170D01*
X105914606Y-117448183D01*
X105904956Y-117404192D01*
X105904956Y-117404190D01*
X105899065Y-117359573D01*
X105897060Y-117314580D01*
X105897060Y-115998886D01*
X105770611Y-115998886D01*
X105770607Y-115998884D01*
X105770606Y-115998883D01*
X105770605Y-115998881D01*
X105770604Y-115998880D01*
X105770603Y-115998878D01*
X105770603Y-113916283D01*
X105770605Y-113916279D01*
X105770605Y-113916279D01*
G37*
D12*
X107259458Y-115970576D03*
X106100541Y-115970576D03*
D13*
X106037316Y-114182982D03*
X107322684Y-114182982D03*
D10*
X254000000Y-119380000D03*
D11*
G36*
X253090605Y-113916279D02*
G01*
X253090606Y-113916278D01*
X253090608Y-113916277D01*
X253090609Y-113916276D01*
X253090611Y-113916275D01*
X253624015Y-113916275D01*
X253624019Y-113916277D01*
X253624020Y-113916278D01*
X253624021Y-113916280D01*
X253624022Y-113916281D01*
X253624023Y-113916283D01*
X253624023Y-116265578D01*
X253624021Y-116265582D01*
X253624020Y-116265583D01*
X253624018Y-116265584D01*
X253624017Y-116265585D01*
X253624015Y-116265586D01*
X253497566Y-116265586D01*
X253497566Y-117314579D01*
X253501201Y-117355559D01*
X253511728Y-117395162D01*
X253529147Y-117432382D01*
X253552709Y-117466096D01*
X253581784Y-117495171D01*
X253615371Y-117518732D01*
X253652716Y-117536151D01*
X253692320Y-117546678D01*
X253733301Y-117550313D01*
X254266701Y-117550313D01*
X254307680Y-117546678D01*
X254347284Y-117536151D01*
X254384503Y-117518732D01*
X254418216Y-117495171D01*
X254447291Y-117466096D01*
X254470853Y-117432382D01*
X254488272Y-117395162D01*
X254498799Y-117355559D01*
X254502434Y-117314578D01*
X254502434Y-116265586D01*
X254375985Y-116265586D01*
X254375981Y-116265584D01*
X254375980Y-116265583D01*
X254375979Y-116265581D01*
X254375978Y-116265580D01*
X254375977Y-116265578D01*
X254375977Y-113916283D01*
X254375979Y-113916279D01*
X254375980Y-113916278D01*
X254375982Y-113916277D01*
X254375983Y-113916276D01*
X254375985Y-113916275D01*
X254909389Y-113916275D01*
X254909393Y-113916277D01*
X254909394Y-113916278D01*
X254909395Y-113916280D01*
X254909396Y-113916281D01*
X254909397Y-113916283D01*
X254909397Y-115998878D01*
X254909395Y-115998882D01*
X254909394Y-115998883D01*
X254909392Y-115998884D01*
X254909391Y-115998885D01*
X254909389Y-115998886D01*
X254782940Y-115998886D01*
X254782940Y-117314579D01*
X254780935Y-117359572D01*
X254780935Y-117359573D01*
X254775044Y-117404190D01*
X254765394Y-117448181D01*
X254765394Y-117448183D01*
X254751858Y-117491170D01*
X254734563Y-117532780D01*
X254734562Y-117532782D01*
X254713757Y-117572636D01*
X254689569Y-117610736D01*
X254689568Y-117610737D01*
X254662121Y-117646456D01*
X254631791Y-117679668D01*
X254631790Y-117679669D01*
X254598578Y-117709999D01*
X254562859Y-117737446D01*
X254562857Y-117737447D01*
X254524757Y-117761635D01*
X254484903Y-117782440D01*
X254484902Y-117782441D01*
X254443292Y-117799736D01*
X254400305Y-117813272D01*
X254400303Y-117813273D01*
X254356312Y-117822923D01*
X254311695Y-117828814D01*
X254311693Y-117828814D01*
X254266710Y-117830819D01*
X254266710Y-119646702D01*
X254266708Y-119646706D01*
X254266707Y-119646707D01*
X254266705Y-119646708D01*
X254266704Y-119646709D01*
X254266702Y-119646710D01*
X253733298Y-119646710D01*
X253733294Y-119646708D01*
X253733293Y-119646707D01*
X253733292Y-119646705D01*
X253733291Y-119646704D01*
X253733290Y-119646702D01*
X253733290Y-117830819D01*
X253688307Y-117828814D01*
X253643690Y-117822923D01*
X253643688Y-117822923D01*
X253599697Y-117813273D01*
X253556710Y-117799737D01*
X253556708Y-117799736D01*
X253515098Y-117782441D01*
X253475118Y-117761636D01*
X253475117Y-117761635D01*
X253437143Y-117737447D01*
X253401424Y-117710000D01*
X253401422Y-117709999D01*
X253368210Y-117679669D01*
X253337880Y-117646457D01*
X253337879Y-117646456D01*
X253310432Y-117610737D01*
X253286244Y-117572637D01*
X253286243Y-117572636D01*
X253265438Y-117532782D01*
X253248143Y-117491172D01*
X253248142Y-117491170D01*
X253234606Y-117448183D01*
X253224956Y-117404192D01*
X253224956Y-117404190D01*
X253219065Y-117359573D01*
X253217060Y-117314580D01*
X253217060Y-115998886D01*
X253090611Y-115998886D01*
X253090607Y-115998884D01*
X253090606Y-115998883D01*
X253090605Y-115998881D01*
X253090604Y-115998880D01*
X253090603Y-115998878D01*
X253090603Y-113916283D01*
X253090605Y-113916279D01*
X253090605Y-113916279D01*
G37*
D12*
X254579458Y-115970576D03*
X253420541Y-115970576D03*
D13*
X253357316Y-114182982D03*
X254642684Y-114182982D03*
D14*
X227330000Y-119436600D03*
D11*
G36*
X226264994Y-116608394D02*
G01*
X226283155Y-116511874D01*
X226310206Y-116417513D01*
X226345893Y-116325946D01*
X226389962Y-116238189D01*
X226442032Y-116154877D01*
X226501594Y-116076774D01*
X227281373Y-116731077D01*
X227281375Y-116731076D01*
X227281375Y-114654499D01*
X227281373Y-114654498D01*
X226534360Y-115281369D01*
X226477211Y-115206440D01*
X226427173Y-115126430D01*
X226384882Y-115042229D01*
X226350592Y-114954472D01*
X226324684Y-114863794D01*
X226307158Y-114771211D01*
X226298395Y-114677358D01*
X226298395Y-114583124D01*
X226307158Y-114489271D01*
X226324684Y-114396688D01*
X226350592Y-114306010D01*
X226384882Y-114218253D01*
X226427173Y-114134052D01*
X226477211Y-114054042D01*
X226534359Y-113979114D01*
X227281373Y-114605986D01*
X227281375Y-114605985D01*
X227281375Y-113808933D01*
X227063316Y-113278018D01*
X227063316Y-112843861D01*
X227596714Y-112843861D01*
X227596714Y-113278018D01*
X227378655Y-113808933D01*
X227378657Y-113808934D01*
X227851477Y-113412187D01*
X227888433Y-113460700D01*
X227920691Y-113512389D01*
X227948123Y-113566745D01*
X227970221Y-113623514D01*
X227986985Y-113682188D01*
X227998288Y-113742005D01*
X228004003Y-113802711D01*
X228004003Y-113863671D01*
X227998288Y-113924377D01*
X227986985Y-113984194D01*
X227970221Y-114042868D01*
X227948123Y-114099637D01*
X227920691Y-114153993D01*
X227888433Y-114205682D01*
X227851478Y-114254194D01*
X227378657Y-113857446D01*
X227378655Y-113857447D01*
X227378655Y-115642813D01*
X227378657Y-115642814D01*
X228155007Y-114991432D01*
X228214315Y-115069155D01*
X228266131Y-115152086D01*
X228310073Y-115239462D01*
X228345633Y-115330648D01*
X228372557Y-115424628D01*
X228390718Y-115520767D01*
X228399735Y-115618176D01*
X228399735Y-115715966D01*
X228390718Y-115813375D01*
X228372557Y-115909514D01*
X228345633Y-116003494D01*
X228310073Y-116094680D01*
X228266131Y-116182056D01*
X228214315Y-116264987D01*
X228155008Y-116342709D01*
X227378657Y-115691326D01*
X227378655Y-115691327D01*
X227378655Y-117804353D01*
X227378657Y-117804354D01*
X228146371Y-117160211D01*
X228205044Y-117237172D01*
X228256352Y-117319214D01*
X228299659Y-117405701D01*
X228334965Y-117495744D01*
X228361635Y-117588835D01*
X228379542Y-117683831D01*
X228388559Y-117780224D01*
X228388559Y-117876998D01*
X228379542Y-117973391D01*
X228361635Y-118068387D01*
X228334965Y-118161478D01*
X228299659Y-118251521D01*
X228256352Y-118338008D01*
X228205044Y-118420050D01*
X228146372Y-118497010D01*
X227378657Y-117852866D01*
X227378655Y-117852867D01*
X227378655Y-119169857D01*
X227378656Y-119169858D01*
X227596714Y-119169858D01*
X227596714Y-119590099D01*
X227596699Y-119590099D01*
X227596699Y-119703299D01*
X227063301Y-119703299D01*
X227063301Y-119169901D01*
X227063316Y-119169901D01*
X227063316Y-119169858D01*
X227281374Y-119169858D01*
X227281375Y-119169857D01*
X227281375Y-118814003D01*
X227281373Y-118814002D01*
X226591637Y-119392740D01*
X226538679Y-119323399D01*
X226492451Y-119249358D01*
X226453208Y-119171380D01*
X226421458Y-119089973D01*
X226397455Y-119006153D01*
X226381326Y-118920301D01*
X226373198Y-118833433D01*
X226373198Y-118746057D01*
X226381326Y-118659189D01*
X226397455Y-118573337D01*
X226421458Y-118489517D01*
X226453208Y-118408110D01*
X226492451Y-118330132D01*
X226538679Y-118256091D01*
X226591636Y-118186751D01*
X227281373Y-118765490D01*
X227281375Y-118765489D01*
X227281375Y-116779590D01*
X227281373Y-116779589D01*
X226501594Y-117433892D01*
X226442032Y-117355788D01*
X226389962Y-117272476D01*
X226345893Y-117184719D01*
X226310206Y-117093152D01*
X226283155Y-116998791D01*
X226264994Y-116902271D01*
X226255850Y-116804481D01*
X226255850Y-116706183D01*
X226264994Y-116608394D01*
X226264994Y-116608394D01*
G37*
D15*
X227330000Y-113054000D03*
D10*
X254000000Y-134635100D03*
D11*
G36*
X253733292Y-134365194D02*
G01*
X253733293Y-134365193D01*
X253733295Y-134365192D01*
X253733296Y-134365191D01*
X253733298Y-134365190D01*
X253899990Y-134365190D01*
X253899990Y-129794810D01*
X253733298Y-129794810D01*
X253733294Y-129794808D01*
X253733293Y-129794807D01*
X253733292Y-129794805D01*
X253733291Y-129794804D01*
X253733290Y-129794802D01*
X253733290Y-129255048D01*
X253733292Y-129255044D01*
X253733293Y-129255043D01*
X253733295Y-129255042D01*
X253733296Y-129255041D01*
X253733298Y-129255040D01*
X254266702Y-129255040D01*
X254266706Y-129255042D01*
X254266707Y-129255043D01*
X254266708Y-129255045D01*
X254266709Y-129255046D01*
X254266710Y-129255048D01*
X254266710Y-129794802D01*
X254266708Y-129794806D01*
X254266707Y-129794807D01*
X254266705Y-129794808D01*
X254266704Y-129794809D01*
X254266702Y-129794810D01*
X254100010Y-129794810D01*
X254100010Y-129976490D01*
X254872102Y-129976490D01*
X254872106Y-129976492D01*
X254872107Y-129976493D01*
X254872108Y-129976495D01*
X254872109Y-129976496D01*
X254872110Y-129976498D01*
X254872110Y-130176502D01*
X254872108Y-130176506D01*
X254872107Y-130176507D01*
X254872105Y-130176508D01*
X254872104Y-130176509D01*
X254872102Y-130176510D01*
X254100010Y-130176510D01*
X254100010Y-131218490D01*
X255070402Y-131218490D01*
X255070406Y-131218492D01*
X255070407Y-131218493D01*
X255070408Y-131218495D01*
X255070409Y-131218496D01*
X255070410Y-131218498D01*
X255070410Y-131418502D01*
X255070408Y-131418506D01*
X255070407Y-131418507D01*
X255070405Y-131418508D01*
X255070404Y-131418509D01*
X255070402Y-131418510D01*
X254100010Y-131418510D01*
X254100010Y-132741490D01*
X255070402Y-132741490D01*
X255070406Y-132741492D01*
X255070407Y-132741493D01*
X255070408Y-132741495D01*
X255070409Y-132741496D01*
X255070410Y-132741498D01*
X255070410Y-132941502D01*
X255070408Y-132941506D01*
X255070407Y-132941507D01*
X255070405Y-132941508D01*
X255070404Y-132941509D01*
X255070402Y-132941510D01*
X254100010Y-132941510D01*
X254100010Y-133983490D01*
X254872102Y-133983490D01*
X254872106Y-133983492D01*
X254872107Y-133983493D01*
X254872108Y-133983495D01*
X254872109Y-133983496D01*
X254872110Y-133983498D01*
X254872110Y-134183502D01*
X254872108Y-134183506D01*
X254872107Y-134183507D01*
X254872105Y-134183508D01*
X254872104Y-134183509D01*
X254872102Y-134183510D01*
X254100010Y-134183510D01*
X254100010Y-134365190D01*
X254266702Y-134365190D01*
X254266706Y-134365192D01*
X254266707Y-134365193D01*
X254266708Y-134365195D01*
X254266709Y-134365196D01*
X254266710Y-134365198D01*
X254266710Y-134904977D01*
X254266708Y-134904981D01*
X254266707Y-134904982D01*
X254266705Y-134904983D01*
X254266704Y-134904984D01*
X254266702Y-134904985D01*
X253733298Y-134904985D01*
X253733294Y-134904983D01*
X253733293Y-134904982D01*
X253733292Y-134904980D01*
X253733291Y-134904979D01*
X253733290Y-134904977D01*
X253733290Y-134365198D01*
X253733292Y-134365194D01*
X253733292Y-134365194D01*
G37*
D16*
X254000000Y-129524900D03*
D10*
X181610000Y-118125100D03*
D11*
G36*
X181343292Y-117855194D02*
G01*
X181343293Y-117855193D01*
X181343295Y-117855192D01*
X181343296Y-117855191D01*
X181343298Y-117855190D01*
X181509990Y-117855190D01*
X181509990Y-113284810D01*
X181343298Y-113284810D01*
X181343294Y-113284808D01*
X181343293Y-113284807D01*
X181343292Y-113284805D01*
X181343291Y-113284804D01*
X181343290Y-113284802D01*
X181343290Y-112745048D01*
X181343292Y-112745044D01*
X181343293Y-112745043D01*
X181343295Y-112745042D01*
X181343296Y-112745041D01*
X181343298Y-112745040D01*
X181876702Y-112745040D01*
X181876706Y-112745042D01*
X181876707Y-112745043D01*
X181876708Y-112745045D01*
X181876709Y-112745046D01*
X181876710Y-112745048D01*
X181876710Y-113284802D01*
X181876708Y-113284806D01*
X181876707Y-113284807D01*
X181876705Y-113284808D01*
X181876704Y-113284809D01*
X181876702Y-113284810D01*
X181710010Y-113284810D01*
X181710010Y-113466490D01*
X182482102Y-113466490D01*
X182482106Y-113466492D01*
X182482107Y-113466493D01*
X182482108Y-113466495D01*
X182482109Y-113466496D01*
X182482110Y-113466498D01*
X182482110Y-113666502D01*
X182482108Y-113666506D01*
X182482107Y-113666507D01*
X182482105Y-113666508D01*
X182482104Y-113666509D01*
X182482102Y-113666510D01*
X181710010Y-113666510D01*
X181710010Y-114708490D01*
X182680402Y-114708490D01*
X182680406Y-114708492D01*
X182680407Y-114708493D01*
X182680408Y-114708495D01*
X182680409Y-114708496D01*
X182680410Y-114708498D01*
X182680410Y-114908502D01*
X182680408Y-114908506D01*
X182680407Y-114908507D01*
X182680405Y-114908508D01*
X182680404Y-114908509D01*
X182680402Y-114908510D01*
X181710010Y-114908510D01*
X181710010Y-116231490D01*
X182680402Y-116231490D01*
X182680406Y-116231492D01*
X182680407Y-116231493D01*
X182680408Y-116231495D01*
X182680409Y-116231496D01*
X182680410Y-116231498D01*
X182680410Y-116431502D01*
X182680408Y-116431506D01*
X182680407Y-116431507D01*
X182680405Y-116431508D01*
X182680404Y-116431509D01*
X182680402Y-116431510D01*
X181710010Y-116431510D01*
X181710010Y-117473490D01*
X182482102Y-117473490D01*
X182482106Y-117473492D01*
X182482107Y-117473493D01*
X182482108Y-117473495D01*
X182482109Y-117473496D01*
X182482110Y-117473498D01*
X182482110Y-117673502D01*
X182482108Y-117673506D01*
X182482107Y-117673507D01*
X182482105Y-117673508D01*
X182482104Y-117673509D01*
X182482102Y-117673510D01*
X181710010Y-117673510D01*
X181710010Y-117855190D01*
X181876702Y-117855190D01*
X181876706Y-117855192D01*
X181876707Y-117855193D01*
X181876708Y-117855195D01*
X181876709Y-117855196D01*
X181876710Y-117855198D01*
X181876710Y-118394977D01*
X181876708Y-118394981D01*
X181876707Y-118394982D01*
X181876705Y-118394983D01*
X181876704Y-118394984D01*
X181876702Y-118394985D01*
X181343298Y-118394985D01*
X181343294Y-118394983D01*
X181343293Y-118394982D01*
X181343292Y-118394980D01*
X181343291Y-118394979D01*
X181343290Y-118394977D01*
X181343290Y-117855198D01*
X181343292Y-117855194D01*
X181343292Y-117855194D01*
G37*
D16*
X181610000Y-113014900D03*
D10*
X196850000Y-118125100D03*
D11*
G36*
X196583292Y-117855194D02*
G01*
X196583293Y-117855193D01*
X196583295Y-117855192D01*
X196583296Y-117855191D01*
X196583298Y-117855190D01*
X196749990Y-117855190D01*
X196749990Y-113284810D01*
X196583298Y-113284810D01*
X196583294Y-113284808D01*
X196583293Y-113284807D01*
X196583292Y-113284805D01*
X196583291Y-113284804D01*
X196583290Y-113284802D01*
X196583290Y-112745048D01*
X196583292Y-112745044D01*
X196583293Y-112745043D01*
X196583295Y-112745042D01*
X196583296Y-112745041D01*
X196583298Y-112745040D01*
X197116702Y-112745040D01*
X197116706Y-112745042D01*
X197116707Y-112745043D01*
X197116708Y-112745045D01*
X197116709Y-112745046D01*
X197116710Y-112745048D01*
X197116710Y-113284802D01*
X197116708Y-113284806D01*
X197116707Y-113284807D01*
X197116705Y-113284808D01*
X197116704Y-113284809D01*
X197116702Y-113284810D01*
X196950010Y-113284810D01*
X196950010Y-113466490D01*
X197849102Y-113466490D01*
X197849106Y-113466492D01*
X197849107Y-113466493D01*
X197849108Y-113466495D01*
X197849109Y-113466496D01*
X197849110Y-113466498D01*
X197849110Y-113666502D01*
X197849108Y-113666506D01*
X197849107Y-113666507D01*
X197849105Y-113666508D01*
X197849104Y-113666509D01*
X197849102Y-113666510D01*
X196950010Y-113666510D01*
X196950010Y-114708490D01*
X198047402Y-114708490D01*
X198047406Y-114708492D01*
X198047407Y-114708493D01*
X198047408Y-114708495D01*
X198047409Y-114708496D01*
X198047410Y-114708498D01*
X198047410Y-114908502D01*
X198047408Y-114908506D01*
X198047407Y-114908507D01*
X198047405Y-114908508D01*
X198047404Y-114908509D01*
X198047402Y-114908510D01*
X196950010Y-114908510D01*
X196950010Y-116231490D01*
X198047402Y-116231490D01*
X198047406Y-116231492D01*
X198047407Y-116231493D01*
X198047408Y-116231495D01*
X198047409Y-116231496D01*
X198047410Y-116231498D01*
X198047410Y-116431502D01*
X198047408Y-116431506D01*
X198047407Y-116431507D01*
X198047405Y-116431508D01*
X198047404Y-116431509D01*
X198047402Y-116431510D01*
X196950010Y-116431510D01*
X196950010Y-117473490D01*
X197849102Y-117473490D01*
X197849106Y-117473492D01*
X197849107Y-117473493D01*
X197849108Y-117473495D01*
X197849109Y-117473496D01*
X197849110Y-117473498D01*
X197849110Y-117673502D01*
X197849108Y-117673506D01*
X197849107Y-117673507D01*
X197849105Y-117673508D01*
X197849104Y-117673509D01*
X197849102Y-117673510D01*
X196950010Y-117673510D01*
X196950010Y-117855190D01*
X197116702Y-117855190D01*
X197116706Y-117855192D01*
X197116707Y-117855193D01*
X197116708Y-117855195D01*
X197116709Y-117855196D01*
X197116710Y-117855198D01*
X197116710Y-118394977D01*
X197116708Y-118394981D01*
X197116707Y-118394982D01*
X197116705Y-118394983D01*
X197116704Y-118394984D01*
X197116702Y-118394985D01*
X196583298Y-118394985D01*
X196583294Y-118394983D01*
X196583293Y-118394982D01*
X196583292Y-118394980D01*
X196583291Y-118394979D01*
X196583290Y-118394977D01*
X196583290Y-117855198D01*
X196583292Y-117855194D01*
X196583292Y-117855194D01*
G37*
D16*
X196850000Y-113014900D03*
D14*
X212090000Y-118110000D03*
D11*
G36*
X210870052Y-113195138D02*
G01*
X210870052Y-113068138D01*
X210870062Y-113068040D01*
X210870090Y-113067947D01*
X210870136Y-113067860D01*
X210870198Y-113067784D01*
X210870274Y-113067722D01*
X210870361Y-113067676D01*
X210870454Y-113067648D01*
X210870552Y-113067638D01*
X211835504Y-113067638D01*
X211835504Y-112623595D01*
X211835514Y-112623497D01*
X211835542Y-112623404D01*
X211835588Y-112623317D01*
X211835650Y-112623241D01*
X211835726Y-112623179D01*
X211835813Y-112623133D01*
X211835906Y-112623105D01*
X211836004Y-112623095D01*
X212344003Y-112623095D01*
X212344003Y-112623096D01*
X212344101Y-112623106D01*
X212344194Y-112623134D01*
X212344281Y-112623180D01*
X212344357Y-112623242D01*
X212344419Y-112623318D01*
X212344465Y-112623405D01*
X212344493Y-112623498D01*
X212344503Y-112623596D01*
X212344503Y-113131595D01*
X212344502Y-113131595D01*
X212344492Y-113131693D01*
X212344464Y-113131786D01*
X212344418Y-113131873D01*
X212344356Y-113131949D01*
X212344280Y-113132011D01*
X212344193Y-113132057D01*
X212344100Y-113132085D01*
X212344002Y-113132095D01*
X212204751Y-113132095D01*
X212204751Y-114121537D01*
X212204752Y-114121538D01*
X213131370Y-114121538D01*
X213131468Y-114121548D01*
X213131561Y-114121576D01*
X213131648Y-114121622D01*
X213131724Y-114121684D01*
X213131786Y-114121760D01*
X213131832Y-114121847D01*
X213131860Y-114121940D01*
X213131870Y-114122037D01*
X213131869Y-114122037D01*
X213131869Y-114477637D01*
X213131859Y-114477735D01*
X213131831Y-114477828D01*
X213131785Y-114477915D01*
X213131723Y-114477991D01*
X213131647Y-114478053D01*
X213131560Y-114478099D01*
X213131467Y-114478127D01*
X213131370Y-114478137D01*
X213131370Y-114478136D01*
X212154150Y-114478136D01*
X212154149Y-114478137D01*
X212154149Y-115239323D01*
X212154150Y-115239324D01*
X213106145Y-115239324D01*
X213106243Y-115239334D01*
X213106336Y-115239362D01*
X213106423Y-115239408D01*
X213106499Y-115239470D01*
X213106561Y-115239546D01*
X213106607Y-115239633D01*
X213106635Y-115239726D01*
X213106645Y-115239823D01*
X213106644Y-115239823D01*
X213106644Y-115747823D01*
X213106634Y-115747921D01*
X213106606Y-115748014D01*
X213106560Y-115748101D01*
X213106498Y-115748177D01*
X213106422Y-115748239D01*
X213106335Y-115748285D01*
X213106242Y-115748313D01*
X213106145Y-115748323D01*
X213106145Y-115748322D01*
X212154150Y-115748322D01*
X212154149Y-115748323D01*
X212154149Y-116509325D01*
X212154150Y-116509326D01*
X213131560Y-116509326D01*
X213131658Y-116509336D01*
X213131751Y-116509364D01*
X213131838Y-116509410D01*
X213131914Y-116509472D01*
X213131976Y-116509548D01*
X213132022Y-116509635D01*
X213132050Y-116509728D01*
X213132060Y-116509825D01*
X213132059Y-116509825D01*
X213132059Y-116865425D01*
X213132049Y-116865523D01*
X213132021Y-116865616D01*
X213131975Y-116865703D01*
X213131913Y-116865779D01*
X213131837Y-116865841D01*
X213131750Y-116865887D01*
X213131657Y-116865915D01*
X213131560Y-116865925D01*
X213131560Y-116865924D01*
X212204963Y-116865924D01*
X212204962Y-116865925D01*
X212204962Y-117843301D01*
X212356699Y-117843301D01*
X212356699Y-118376699D01*
X211823301Y-118376699D01*
X211823301Y-117919849D01*
X210870754Y-117919849D01*
X210870656Y-117919839D01*
X210870563Y-117919811D01*
X210870476Y-117919765D01*
X210870400Y-117919703D01*
X210870338Y-117919627D01*
X210870292Y-117919540D01*
X210870264Y-117919447D01*
X210870254Y-117919350D01*
X210870255Y-117919350D01*
X210870255Y-117792350D01*
X210870265Y-117792252D01*
X210870293Y-117792159D01*
X210870339Y-117792072D01*
X210870401Y-117791996D01*
X210870477Y-117791934D01*
X210870564Y-117791888D01*
X210870657Y-117791860D01*
X210870754Y-117791850D01*
X210870754Y-117791851D01*
X211975363Y-117791851D01*
X211975364Y-117791850D01*
X211975364Y-116866151D01*
X211975363Y-116866150D01*
X211048552Y-116866150D01*
X211048454Y-116866140D01*
X211048361Y-116866112D01*
X211048274Y-116866066D01*
X211048198Y-116866004D01*
X211048136Y-116865928D01*
X211048090Y-116865841D01*
X211048062Y-116865748D01*
X211048052Y-116865651D01*
X211048053Y-116865651D01*
X211048053Y-116510051D01*
X211048063Y-116509953D01*
X211048091Y-116509860D01*
X211048137Y-116509773D01*
X211048199Y-116509697D01*
X211048275Y-116509635D01*
X211048362Y-116509589D01*
X211048455Y-116509561D01*
X211048552Y-116509551D01*
X211048552Y-116509552D01*
X212026150Y-116509552D01*
X212026151Y-116509551D01*
X212026151Y-115748345D01*
X212026150Y-115748344D01*
X211073764Y-115748344D01*
X211073666Y-115748334D01*
X211073573Y-115748306D01*
X211073486Y-115748260D01*
X211073410Y-115748198D01*
X211073348Y-115748122D01*
X211073302Y-115748035D01*
X211073274Y-115747942D01*
X211073264Y-115747845D01*
X211073265Y-115747845D01*
X211073265Y-115239845D01*
X211073275Y-115239747D01*
X211073303Y-115239654D01*
X211073349Y-115239567D01*
X211073411Y-115239491D01*
X211073487Y-115239429D01*
X211073574Y-115239383D01*
X211073667Y-115239355D01*
X211073764Y-115239345D01*
X211073764Y-115239346D01*
X212026150Y-115239346D01*
X212026151Y-115239345D01*
X212026151Y-114478155D01*
X212026150Y-114478154D01*
X211048562Y-114478154D01*
X211048464Y-114478144D01*
X211048371Y-114478116D01*
X211048284Y-114478070D01*
X211048208Y-114478008D01*
X211048146Y-114477932D01*
X211048100Y-114477845D01*
X211048072Y-114477752D01*
X211048062Y-114477655D01*
X211048063Y-114477655D01*
X211048063Y-114122055D01*
X211048073Y-114121957D01*
X211048101Y-114121864D01*
X211048147Y-114121777D01*
X211048209Y-114121701D01*
X211048285Y-114121639D01*
X211048372Y-114121593D01*
X211048465Y-114121565D01*
X211048562Y-114121555D01*
X211048562Y-114121556D01*
X211975152Y-114121556D01*
X211975153Y-114121555D01*
X211975153Y-113195638D01*
X211975152Y-113195637D01*
X210870551Y-113195637D01*
X210870453Y-113195627D01*
X210870360Y-113195599D01*
X210870273Y-113195553D01*
X210870197Y-113195491D01*
X210870135Y-113195415D01*
X210870089Y-113195328D01*
X210870061Y-113195235D01*
X210870051Y-113195138D01*
X210870052Y-113195138D01*
X210870052Y-113195138D01*
G37*
D17*
X212090000Y-112878416D03*
D18*
X328930000Y-117840000D03*
X344170000Y-117840000D03*
M02*
