M48
METRIC,TZ
T1C0.400
%
G90
G05
T1
X163165Y-162535
X163165Y-163135
X163165Y-163735
X163165Y-164335
X165165Y-162535
X165165Y-163135
X165165Y-163735
X165165Y-164335
X248948Y-79425
X248948Y-81425
X249548Y-79425
X249548Y-81425
X250148Y-79425
X250148Y-81425
X250748Y-79425
X250748Y-81425
X285846Y-97935
X285846Y-99935
X286446Y-97935
X286446Y-99935
X287046Y-97935
X287046Y-99935
X287646Y-97935
X287646Y-99935
X284846Y-134955
X284846Y-136955
X285446Y-134955
X285446Y-136955
X286046Y-134955
X286046Y-136955
X286646Y-134955
X286646Y-136955
X203948Y-79425
X203948Y-81425
X204548Y-79425
X204548Y-81425
X205148Y-79425
X205148Y-81425
X205748Y-79425
X205748Y-81425
X260948Y-79425
X260948Y-81425
X261548Y-79425
X261548Y-81425
X262148Y-79425
X262148Y-81425
X262748Y-79425
X262748Y-81425
X196663Y-168705
X196663Y-170705
X197263Y-168705
X197263Y-170705
X197863Y-168705
X197863Y-170705
X198463Y-168705
X198463Y-170705
X191980Y-116445
X191980Y-118445
X192580Y-116445
X192580Y-118445
X193180Y-116445
X193180Y-118445
X193780Y-116445
X193780Y-118445
X243347Y-168705
X243347Y-170705
X243947Y-168705
X243947Y-170705
X244547Y-168705
X244547Y-170705
X245147Y-168705
X245147Y-170705
X244346Y-134955
X244346Y-136955
X244946Y-134955
X244946Y-136955
X245546Y-134955
X245546Y-136955
X246146Y-134955
X246146Y-136955
X163168Y-107464
X163168Y-108064
X163168Y-108664
X163168Y-109264
X165168Y-107464
X165168Y-108064
X165168Y-108664
X165168Y-109264
X216846Y-97935
X216846Y-99935
X217446Y-97935
X217446Y-99935
X218046Y-97935
X218046Y-99935
X218646Y-97935
X218646Y-99935
X225846Y-134955
X225846Y-136955
X226446Y-134955
X226446Y-136955
X227046Y-134955
X227046Y-136955
X227646Y-134955
X227646Y-136955
X163168Y-129219
X163168Y-129819
X163168Y-130419
X163168Y-131019
X165168Y-129219
X165168Y-129819
X165168Y-130419
X165168Y-131019
X256715Y-168705
X256715Y-170705
X257315Y-168705
X257315Y-170705
X257915Y-168705
X257915Y-170705
X258515Y-168705
X258515Y-170705
X262846Y-134955
X262846Y-136955
X263446Y-134955
X263446Y-136955
X264046Y-134955
X264046Y-136955
X264646Y-134955
X264646Y-136955
X230948Y-79425
X230948Y-81425
X231548Y-79425
X231548Y-81425
X232148Y-79425
X232148Y-81425
X232748Y-79425
X232748Y-81425
X248846Y-97935
X248846Y-99935
X249446Y-97935
X249446Y-99935
X250046Y-97935
X250046Y-99935
X250646Y-97935
X250646Y-99935
X213480Y-116445
X213480Y-118445
X214080Y-116445
X214080Y-118445
X214680Y-116445
X214680Y-118445
X215280Y-116445
X215280Y-118445
X167663Y-168705
X167663Y-170705
X168263Y-168705
X168263Y-170705
X168863Y-168705
X168863Y-170705
X169463Y-168705
X169463Y-170705
X192948Y-79425
X192948Y-81425
X193548Y-79425
X193548Y-81425
X194148Y-79425
X194148Y-81425
X194748Y-79425
X194748Y-81425
X263891Y-116445
X263891Y-118445
X264491Y-116445
X264491Y-118445
X265091Y-116445
X265091Y-118445
X265691Y-116445
X265691Y-118445
X196206Y-134955
X196206Y-136955
X196806Y-134955
X196806Y-136955
X197406Y-134955
X197406Y-136955
X198006Y-134955
X198006Y-136955
X203380Y-97935
X203380Y-99935
X203980Y-97935
X203980Y-99935
X204580Y-97935
X204580Y-99935
X205180Y-97935
X205180Y-99935
X230846Y-97935
X230846Y-99935
X231446Y-97935
X231446Y-99935
X232046Y-97935
X232046Y-99935
X232646Y-97935
X232646Y-99935
X215347Y-168705
X215347Y-170705
X215947Y-168705
X215947Y-170705
X216547Y-168705
X216547Y-170705
X217147Y-168705
X217147Y-170705
X225347Y-168705
X225347Y-170705
X225947Y-168705
X225947Y-170705
X226547Y-168705
X226547Y-170705
X227147Y-168705
X227147Y-170705
X284891Y-116445
X284891Y-118445
X285491Y-116445
X285491Y-118445
X286091Y-116445
X286091Y-118445
X286691Y-116445
X286691Y-118445
X219948Y-79425
X219948Y-81425
X220548Y-79425
X220548Y-81425
X221148Y-79425
X221148Y-81425
X221748Y-79425
X221748Y-81425
X284948Y-79425
X284948Y-81425
X285548Y-79425
X285548Y-81425
X286148Y-79425
X286148Y-81425
X286748Y-79425
X286748Y-81425
X248620Y-116445
X248620Y-118445
X249220Y-116445
X249220Y-118445
X249820Y-116445
X249820Y-118445
X250420Y-116445
X250420Y-118445
X163165Y-140535
X163165Y-141135
X163165Y-141735
X163165Y-142335
X165165Y-140535
X165165Y-141135
X165165Y-141735
X165165Y-142335
X176948Y-79425
X176948Y-81425
X177548Y-79425
X177548Y-81425
X178148Y-79425
X178148Y-81425
X178748Y-79425
X178748Y-81425
X227480Y-116445
X227480Y-118445
X228080Y-116445
X228080Y-118445
X228680Y-116445
X228680Y-118445
X229280Y-116445
X229280Y-118445
X212206Y-134955
X212206Y-136955
X212806Y-134955
X212806Y-136955
X213406Y-134955
X213406Y-136955
X214006Y-134955
X214006Y-136955
X190440Y-97935
X190440Y-99935
X191040Y-97935
X191040Y-99935
X191640Y-97935
X191640Y-99935
X192240Y-97935
X192240Y-99935
X258846Y-97935
X258846Y-99935
X259446Y-97935
X259446Y-99935
X260046Y-97935
X260046Y-99935
X260646Y-97935
X260646Y-99935
X184663Y-168705
X184663Y-170705
X185263Y-168705
X185263Y-170705
X185863Y-168705
X185863Y-170705
X186463Y-168705
X186463Y-170705
X285846Y-168705
X285846Y-170705
X286446Y-168705
X286446Y-170705
X287046Y-168705
X287046Y-170705
X287646Y-168705
X287646Y-170705
T0
M30
