M48
INCH,TZ
T1C0.0157
%
G90
G05
T1
X112184Y-31270
X112184Y-32057
X112421Y-31270
X112421Y-32057
X112657Y-31270
X112657Y-32057
X112893Y-31270
X112893Y-32057
X97882Y-45844
X97882Y-46632
X98118Y-45844
X98118Y-46632
X98354Y-45844
X98354Y-46632
X98591Y-45844
X98591Y-46632
X101908Y-38557
X101908Y-39344
X102144Y-38557
X102144Y-39344
X102380Y-38557
X102380Y-39344
X102616Y-38557
X102616Y-39344
X97929Y-38557
X97929Y-39344
X98165Y-38557
X98165Y-39344
X98402Y-38557
X98402Y-39344
X98638Y-38557
X98638Y-39344
X80295Y-31270
X80295Y-32057
X80531Y-31270
X80531Y-32057
X80767Y-31270
X80767Y-32057
X81003Y-31270
X81003Y-32057
X66081Y-66419
X66081Y-67207
X66317Y-66419
X66317Y-67207
X66554Y-66419
X66554Y-67207
X66790Y-66419
X66790Y-67207
X85386Y-38557
X85386Y-39344
X85622Y-38557
X85622Y-39344
X85858Y-38557
X85858Y-39344
X86094Y-38557
X86094Y-39344
X103483Y-53132
X103483Y-53919
X103719Y-53132
X103719Y-53919
X103955Y-53132
X103955Y-53919
X104191Y-53132
X104191Y-53919
X88128Y-66419
X88128Y-67207
X88365Y-66419
X88365Y-67207
X88601Y-66419
X88601Y-67207
X88837Y-66419
X88837Y-67207
X84047Y-45844
X84047Y-46632
X84283Y-45844
X84283Y-46632
X84520Y-45844
X84520Y-46632
X84756Y-45844
X84756Y-46632
X112142Y-45844
X112142Y-46632
X112378Y-45844
X112378Y-46632
X112615Y-45844
X112615Y-46632
X112851Y-45844
X112851Y-46632
X69665Y-31270
X69665Y-32057
X69901Y-31270
X69901Y-32057
X70137Y-31270
X70137Y-32057
X70373Y-31270
X70373Y-32057
X72774Y-66419
X72774Y-67207
X73010Y-66419
X73010Y-67207
X73246Y-66419
X73246Y-67207
X73483Y-66419
X73483Y-67207
X74976Y-38557
X74976Y-39344
X75213Y-38557
X75213Y-39344
X75449Y-38557
X75449Y-39344
X75685Y-38557
X75685Y-39344
X77498Y-66419
X77498Y-67207
X77735Y-66419
X77735Y-67207
X77971Y-66419
X77971Y-67207
X78207Y-66419
X78207Y-67207
X75583Y-45844
X75583Y-46632
X75819Y-45844
X75819Y-46632
X76055Y-45844
X76055Y-46632
X76291Y-45844
X76291Y-46632
X103875Y-45844
X103875Y-46632
X104111Y-45844
X104111Y-46632
X104347Y-45844
X104347Y-46632
X104583Y-45844
X104583Y-46632
X77246Y-53132
X77246Y-53919
X77483Y-53132
X77483Y-53919
X77719Y-53132
X77719Y-53919
X77955Y-53132
X77955Y-53919
X90924Y-31270
X90924Y-32057
X91161Y-31270
X91161Y-32057
X91397Y-31270
X91397Y-32057
X91633Y-31270
X91633Y-32057
X112144Y-53132
X112144Y-53919
X112380Y-53132
X112380Y-53919
X112617Y-53132
X112617Y-53919
X112853Y-53132
X112853Y-53919
X87735Y-53132
X87735Y-53919
X87971Y-53132
X87971Y-53919
X88207Y-53132
X88207Y-53919
X88443Y-53132
X88443Y-53919
X86594Y-31270
X86594Y-32057
X86830Y-31270
X86830Y-32057
X87066Y-31270
X87066Y-32057
X87302Y-31270
X87302Y-32057
X102735Y-31270
X102735Y-32057
X102972Y-31270
X102972Y-32057
X103208Y-31270
X103208Y-32057
X103444Y-31270
X103444Y-32057
X95215Y-66419
X95215Y-67207
X95451Y-66419
X95451Y-67207
X95687Y-66419
X95687Y-67207
X95924Y-66419
X95924Y-67207
X64310Y-42309
X64310Y-42545
X64310Y-42781
X64310Y-43017
X65098Y-42309
X65098Y-42545
X65098Y-42781
X65098Y-43017
X80071Y-38557
X80071Y-39344
X80307Y-38557
X80307Y-39344
X80543Y-38557
X80543Y-39344
X80780Y-38557
X80780Y-39344
X83546Y-53132
X83546Y-53919
X83782Y-53132
X83782Y-53919
X84018Y-53132
X84018Y-53919
X84254Y-53132
X84254Y-53919
X90898Y-38557
X90898Y-39344
X91134Y-38557
X91134Y-39344
X91370Y-38557
X91370Y-39344
X91606Y-38557
X91606Y-39344
X112538Y-38557
X112538Y-39344
X112774Y-38557
X112774Y-39344
X113010Y-38557
X113010Y-39344
X113246Y-38557
X113246Y-39344
X75964Y-31270
X75964Y-32057
X76200Y-31270
X76200Y-32057
X76436Y-31270
X76436Y-32057
X76672Y-31270
X76672Y-32057
X64310Y-63990
X64310Y-64226
X64310Y-64463
X64310Y-64699
X65098Y-63990
X65098Y-64226
X65098Y-64463
X65098Y-64699
X98011Y-31270
X98011Y-32057
X98247Y-31270
X98247Y-32057
X98484Y-31270
X98484Y-32057
X98720Y-31270
X98720Y-32057
X96199Y-53132
X96199Y-53919
X96436Y-53132
X96436Y-53919
X96672Y-53132
X96672Y-53919
X96908Y-53132
X96908Y-53919
X84191Y-66419
X84191Y-67207
X84428Y-66419
X84428Y-67207
X84664Y-66419
X84664Y-67207
X84900Y-66419
X84900Y-67207
X89559Y-45844
X89559Y-46632
X89795Y-45844
X89795Y-46632
X90031Y-45844
X90031Y-46632
X90268Y-45844
X90268Y-46632
X101514Y-66419
X101514Y-67207
X101750Y-66419
X101750Y-67207
X101987Y-66419
X101987Y-67207
X102223Y-66419
X102223Y-67207
X64310Y-55329
X64310Y-55565
X64310Y-55801
X64310Y-56037
X65098Y-55329
X65098Y-55565
X65098Y-55801
X65098Y-56037
X112538Y-66419
X112538Y-67207
X112774Y-66419
X112774Y-67207
X113010Y-66419
X113010Y-67207
X113246Y-66419
X113246Y-67207
X64310Y-50874
X64310Y-51110
X64310Y-51346
X64310Y-51582
X65098Y-50874
X65098Y-51110
X65098Y-51346
X65098Y-51582
T0
M30
