M48
INCH,TZ
T1C0.0120
T2C0.0469
%
G90
G05
T1
X65598Y-59669
X65598Y-60669
X65833Y-59669
X65833Y-60669
X66083Y-59669
X66083Y-60669
X66333Y-59669
X66333Y-60669
X66583Y-59669
X66583Y-60669
X66833Y-59669
X66833Y-60669
X67083Y-59669
X67083Y-60669
X67333Y-59669
X67333Y-60669
X67583Y-59669
X67583Y-60669
X67633Y-41382
X67633Y-41632
X67633Y-41882
X67633Y-42132
X67633Y-42382
X67633Y-42632
X67633Y-42882
X67633Y-43132
X67633Y-43382
X67633Y-43632
X67633Y-43882
X67633Y-44132
X67633Y-44382
X67633Y-44632
X67633Y-44882
X67633Y-45132
X67633Y-45382
X67633Y-45632
X67633Y-45882
X67633Y-46132
X67633Y-46382
X67633Y-46632
X67633Y-46882
X67633Y-47132
X67633Y-47382
X67633Y-47632
X67633Y-47882
X67633Y-48132
X67633Y-48382
X67633Y-48632
X67633Y-48882
X67633Y-49132
X67633Y-49382
X67633Y-49632
X67633Y-49882
X67633Y-50132
X67633Y-50382
X67633Y-50632
X67633Y-50882
X67633Y-51132
X67633Y-51382
X67633Y-51632
X67633Y-51882
X67633Y-52132
X67633Y-52382
X67633Y-52632
X67833Y-59669
X67833Y-60669
X68083Y-59669
X68083Y-60669
X68333Y-59669
X68333Y-60669
X68583Y-59669
X68583Y-60669
X68633Y-41382
X68633Y-41632
X68633Y-41882
X68633Y-42132
X68633Y-42382
X68633Y-42632
X68633Y-42882
X68633Y-43132
X68633Y-43382
X68633Y-43632
X68633Y-43882
X68633Y-44132
X68633Y-44382
X68633Y-44632
X68633Y-44882
X68633Y-45132
X68633Y-45382
X68633Y-45632
X68633Y-45882
X68633Y-46132
X68633Y-46382
X68633Y-46632
X68633Y-46882
X68633Y-47132
X68633Y-47382
X68633Y-47632
X68633Y-47882
X68633Y-48132
X68633Y-48382
X68633Y-48632
X68633Y-48882
X68633Y-49132
X68633Y-49382
X68633Y-49632
X68633Y-49882
X68633Y-50132
X68633Y-50382
X68633Y-50632
X68633Y-50882
X68633Y-51132
X68633Y-51382
X68633Y-51632
X68633Y-51882
X68633Y-52132
X68633Y-52382
X68633Y-52632
X68833Y-59669
X68833Y-60669
X69083Y-59669
X69083Y-60669
X69333Y-59669
X69333Y-60669
X69557Y-59669
X69557Y-60669
X69807Y-59669
X69807Y-60669
X70057Y-59669
X70057Y-60669
X70298Y-59669
X70298Y-60669
X70548Y-59669
X70548Y-60669
X70748Y-59569
X70748Y-60769
X70898Y-59419
X70898Y-60919
X71068Y-59269
X71068Y-61069
X71288Y-61079
X71298Y-59259
X71498Y-61079
X71508Y-59259
X71683Y-57169
X71683Y-57419
X71683Y-57669
X71683Y-57919
X71683Y-58169
X71683Y-58419
X71683Y-58669
X71683Y-58919
X71683Y-59149
X71683Y-61179
X71683Y-61419
X71683Y-61669
X71683Y-61919
X71683Y-62169
X71683Y-62419
X71683Y-62669
X71683Y-62919
X71683Y-63169
X71807Y-63369
X71808Y-56994
X71957Y-63519
X71983Y-56819
X72157Y-63669
X72183Y-56669
X72433Y-56669
X72433Y-63669
X72443Y-34807
X72443Y-35807
X72507Y-49382
X72507Y-50382
X72683Y-56669
X72683Y-57669
X72683Y-57919
X72683Y-58169
X72683Y-58419
X72683Y-58669
X72683Y-58919
X72683Y-59169
X72683Y-59419
X72683Y-59669
X72683Y-59919
X72683Y-60169
X72683Y-60419
X72683Y-60669
X72683Y-60919
X72683Y-61169
X72683Y-61419
X72683Y-61669
X72683Y-61919
X72683Y-62169
X72683Y-62419
X72683Y-62669
X72683Y-63669
X72693Y-34807
X72693Y-35807
X72757Y-49382
X72757Y-50382
X72933Y-56669
X72933Y-57669
X72933Y-62669
X72933Y-63669
X72943Y-34807
X72943Y-35807
X73007Y-49382
X73007Y-50382
X73183Y-56669
X73183Y-57669
X73183Y-62669
X73183Y-63669
X73193Y-34807
X73193Y-35807
X73257Y-49382
X73257Y-50382
X73433Y-56669
X73433Y-57669
X73433Y-62669
X73433Y-63669
X73443Y-34807
X73443Y-35807
X73507Y-49382
X73507Y-50382
X73683Y-56669
X73683Y-57669
X73683Y-62669
X73683Y-63669
X73693Y-34807
X73693Y-35807
X73757Y-49382
X73757Y-50382
X73933Y-56669
X73933Y-57669
X73933Y-62669
X73933Y-63669
X73943Y-34807
X73943Y-35807
X74007Y-49382
X74007Y-50382
X74183Y-56669
X74183Y-57669
X74183Y-62669
X74183Y-63669
X74193Y-34807
X74193Y-35807
X74257Y-49382
X74257Y-50382
X74362Y-42094
X74362Y-43094
X74433Y-56669
X74433Y-57669
X74433Y-62669
X74433Y-63669
X74443Y-34807
X74443Y-35807
X74507Y-49382
X74507Y-50382
X74612Y-42094
X74612Y-43094
X74693Y-34807
X74693Y-35807
X74757Y-49382
X74757Y-50382
X74862Y-42094
X74862Y-43094
X74943Y-34807
X74943Y-35807
X75007Y-49382
X75007Y-50382
X75112Y-42094
X75112Y-43094
X75193Y-34807
X75193Y-35807
X75257Y-49382
X75257Y-50382
X75362Y-42094
X75362Y-43094
X75443Y-34807
X75443Y-35807
X75507Y-49382
X75507Y-50382
X75612Y-42094
X75612Y-43094
X75693Y-34807
X75693Y-35807
X75757Y-49382
X75757Y-50382
X75862Y-42094
X75862Y-43094
X75943Y-34807
X75943Y-35807
X76007Y-49382
X76007Y-50382
X76112Y-42094
X76112Y-43094
X76193Y-34807
X76193Y-35807
X76257Y-49382
X76257Y-50382
X76362Y-42094
X76362Y-43094
X76443Y-34807
X76443Y-35807
X76507Y-49382
X76507Y-50382
X76520Y-56669
X76520Y-57669
X76520Y-62669
X76520Y-63669
X76612Y-42094
X76612Y-43094
X76693Y-34807
X76693Y-35807
X76757Y-49382
X76757Y-50382
X76770Y-56669
X76770Y-57669
X76770Y-62669
X76770Y-63669
X76862Y-42094
X76862Y-43094
X76943Y-34807
X76943Y-35807
X77007Y-49382
X77007Y-50382
X77020Y-56669
X77020Y-57669
X77020Y-62669
X77020Y-63669
X77112Y-42094
X77112Y-43094
X77193Y-34807
X77193Y-35807
X77257Y-49382
X77257Y-50382
X77270Y-56669
X77270Y-57669
X77270Y-62669
X77270Y-63669
X77362Y-42094
X77362Y-43094
X77443Y-34807
X77443Y-35807
X77507Y-49382
X77507Y-50382
X77520Y-56669
X77520Y-57669
X77520Y-62669
X77520Y-63669
X77612Y-42094
X77612Y-43094
X77693Y-34807
X77693Y-35807
X77757Y-48982
X77757Y-49182
X77757Y-49382
X77757Y-50382
X77757Y-50582
X77757Y-50782
X77770Y-56669
X77770Y-57669
X77770Y-62669
X77770Y-63669
X77862Y-42094
X77862Y-43094
X77982Y-50782
X78007Y-48982
X78020Y-56669
X78020Y-57669
X78020Y-62669
X78020Y-63669
X78112Y-42094
X78112Y-43094
X78232Y-50782
X78257Y-48982
X78270Y-56669
X78270Y-57669
X78270Y-57919
X78270Y-58169
X78270Y-58419
X78270Y-58669
X78270Y-58919
X78270Y-59169
X78270Y-59419
X78270Y-59669
X78270Y-59919
X78270Y-60169
X78270Y-60419
X78270Y-60669
X78270Y-60919
X78270Y-61169
X78270Y-61419
X78270Y-61669
X78270Y-61919
X78270Y-62169
X78270Y-62419
X78270Y-62669
X78270Y-63669
X78362Y-42094
X78362Y-43094
X78482Y-50782
X78507Y-48982
X78520Y-56669
X78520Y-63669
X78612Y-42094
X78612Y-43094
X78732Y-50782
X78757Y-48982
X78770Y-63669
X78796Y-56669
X78862Y-42094
X78862Y-43094
X78970Y-63519
X78982Y-50782
X78996Y-56819
X79007Y-48982
X79112Y-42094
X79112Y-43094
X79145Y-63344
X79146Y-56969
X79232Y-50782
X79257Y-48982
X79270Y-57169
X79270Y-57419
X79270Y-57669
X79270Y-57919
X79270Y-58169
X79270Y-58419
X79270Y-58669
X79270Y-58919
X79270Y-59169
X79270Y-59419
X79270Y-60919
X79270Y-61169
X79270Y-61419
X79270Y-61669
X79270Y-61919
X79270Y-62169
X79270Y-62419
X79270Y-62669
X79270Y-62919
X79270Y-63169
X79362Y-42094
X79362Y-43094
X79482Y-50782
X79507Y-48982
X79520Y-59419
X79520Y-60919
X79612Y-42094
X79612Y-43094
X79732Y-50782
X79757Y-48982
X79770Y-59419
X79770Y-60919
X79862Y-42094
X79862Y-43094
X79957Y-48982
X79982Y-50782
X80020Y-59419
X80020Y-60919
X80112Y-42094
X80112Y-43094
X80207Y-48982
X80207Y-49182
X80207Y-49382
X80207Y-50382
X80207Y-50582
X80207Y-50782
X80270Y-59419
X80270Y-60919
X80362Y-42094
X80362Y-43094
X80457Y-49382
X80457Y-50382
X80520Y-59419
X80520Y-60919
X80612Y-42094
X80612Y-43094
X80707Y-49382
X80707Y-50382
X80770Y-59469
X80770Y-60869
X80862Y-42094
X80862Y-43094
X80945Y-59569
X80945Y-60744
X80957Y-49382
X80957Y-50382
X81112Y-42094
X81112Y-43094
X81146Y-59669
X81146Y-60669
X81207Y-49382
X81207Y-50382
X81362Y-42094
X81362Y-43094
X81396Y-59669
X81396Y-60669
X81457Y-49382
X81457Y-50382
X81612Y-42094
X81612Y-43094
X81620Y-59669
X81620Y-60669
X81707Y-49382
X81707Y-50382
X81862Y-42094
X81862Y-43094
X81870Y-59669
X81870Y-60669
X81957Y-49382
X81957Y-50382
X82112Y-42094
X82112Y-43094
X82120Y-59669
X82120Y-60669
X82207Y-49382
X82207Y-50382
X82362Y-42094
X82362Y-43094
X82370Y-59669
X82370Y-60669
X82457Y-49382
X82457Y-50382
X82612Y-42094
X82612Y-43094
X82620Y-59669
X82620Y-60669
X82707Y-49382
X82707Y-50382
X82862Y-42094
X82862Y-43094
X82870Y-59669
X82870Y-60669
X82957Y-49382
X82957Y-50382
X83112Y-42094
X83112Y-43094
X83120Y-59669
X83120Y-60669
X83207Y-49382
X83207Y-50382
X83230Y-34807
X83230Y-35807
X83362Y-42094
X83362Y-43094
X83370Y-59669
X83370Y-60669
X83457Y-49382
X83457Y-50382
X83480Y-34807
X83480Y-35807
X83612Y-42094
X83612Y-43094
X83620Y-59669
X83620Y-60669
X83707Y-49382
X83707Y-50382
X83730Y-34807
X83730Y-35807
X83862Y-42094
X83862Y-43094
X83870Y-59669
X83870Y-60669
X83957Y-49382
X83957Y-50382
X83980Y-34807
X83980Y-35807
X84112Y-42094
X84112Y-43094
X84120Y-59669
X84120Y-60669
X84207Y-49382
X84207Y-50382
X84230Y-34807
X84230Y-35807
X84362Y-42094
X84362Y-43094
X84370Y-59669
X84370Y-60669
X84457Y-49382
X84457Y-50382
X84480Y-34807
X84480Y-35807
X84612Y-42094
X84612Y-43094
X84620Y-59669
X84620Y-60669
X84707Y-49382
X84707Y-50382
X84730Y-34807
X84730Y-35807
X84862Y-42094
X84862Y-43094
X84870Y-59669
X84870Y-60669
X84957Y-49382
X84957Y-50382
X84980Y-34807
X84980Y-35807
X85112Y-42094
X85112Y-43094
X85120Y-59669
X85120Y-60669
X85207Y-49382
X85207Y-50382
X85230Y-34807
X85230Y-35807
X85362Y-42094
X85362Y-43094
X85457Y-49382
X85457Y-50382
X85480Y-34807
X85480Y-35807
X85612Y-42094
X85612Y-43094
X85730Y-34807
X85730Y-35807
X85862Y-42094
X85862Y-43094
X85980Y-34807
X85980Y-35807
X86112Y-42094
X86112Y-43094
X86230Y-34807
X86230Y-35807
X86362Y-42094
X86362Y-43094
X86480Y-34807
X86480Y-35807
X86612Y-42094
X86612Y-43094
X86730Y-34807
X86730Y-35807
X86980Y-34807
X86980Y-35807
X87230Y-34807
X87230Y-35807
X87260Y-59669
X87260Y-60669
X87480Y-34807
X87480Y-35807
X87510Y-59669
X87510Y-60669
X87512Y-49382
X87512Y-50382
X87730Y-34807
X87730Y-35807
X87760Y-59669
X87760Y-60669
X87762Y-49382
X87762Y-50382
X87980Y-34807
X87980Y-35807
X88010Y-59669
X88010Y-60669
X88012Y-49382
X88012Y-50382
X88230Y-34807
X88230Y-35807
X88260Y-59669
X88260Y-60669
X88262Y-49382
X88262Y-50382
X88426Y-42094
X88426Y-43094
X88480Y-34807
X88480Y-35807
X88510Y-59669
X88510Y-60669
X88512Y-49382
X88512Y-50382
X88676Y-42094
X88676Y-43094
X88760Y-59669
X88760Y-60669
X88762Y-49382
X88762Y-50382
X88926Y-42094
X88926Y-43094
X89010Y-59669
X89010Y-60669
X89012Y-49382
X89012Y-50382
X89176Y-42094
X89176Y-43094
X89260Y-59669
X89260Y-60669
X89262Y-49382
X89262Y-50382
X89426Y-42094
X89426Y-43094
X89510Y-59669
X89510Y-60669
X89512Y-49382
X89512Y-50382
X89676Y-42094
X89676Y-43094
X89760Y-59669
X89760Y-60669
X89762Y-49382
X89762Y-50382
X89926Y-42094
X89926Y-43094
X90010Y-59669
X90010Y-60669
X90012Y-49382
X90012Y-50382
X90176Y-42094
X90176Y-43094
X90260Y-59669
X90260Y-60669
X90262Y-49382
X90262Y-50382
X90426Y-42094
X90426Y-43094
X90510Y-59669
X90510Y-60669
X90512Y-49382
X90512Y-50382
X90676Y-42094
X90676Y-43094
X90760Y-59669
X90760Y-60669
X90762Y-49382
X90762Y-50382
X90926Y-42094
X90926Y-43094
X91010Y-59669
X91010Y-60669
X91012Y-49382
X91012Y-50382
X91176Y-42094
X91176Y-43094
X91260Y-59669
X91260Y-60669
X91262Y-49382
X91262Y-50382
X91426Y-42094
X91426Y-43094
X91510Y-59669
X91510Y-60669
X91512Y-49382
X91512Y-49382
X91512Y-50382
X91676Y-42094
X91676Y-43094
X91760Y-59669
X91760Y-60669
X91762Y-49382
X91762Y-50382
X91926Y-42094
X91926Y-43094
X92010Y-59669
X92010Y-60669
X92012Y-49382
X92012Y-50382
X92176Y-42094
X92176Y-43094
X92260Y-59669
X92260Y-60669
X92262Y-49382
X92262Y-50382
X92426Y-42094
X92426Y-43094
X92484Y-59669
X92484Y-60669
X92512Y-49182
X92512Y-49382
X92512Y-50382
X92512Y-50582
X92662Y-49032
X92662Y-50732
X92676Y-42094
X92676Y-43094
X92734Y-59669
X92734Y-60669
X92887Y-49032
X92887Y-50732
X92926Y-42094
X92926Y-43094
X92984Y-59669
X92984Y-60669
X93137Y-49032
X93137Y-50732
X93160Y-59519
X93160Y-60819
X93176Y-42094
X93176Y-43094
X93360Y-59419
X93360Y-60919
X93387Y-49032
X93387Y-50732
X93426Y-42094
X93426Y-43094
X93468Y-35057
X93468Y-35307
X93468Y-35557
X93518Y-34807
X93518Y-35807
X93610Y-59419
X93610Y-60919
X93637Y-49032
X93637Y-50732
X93676Y-42094
X93676Y-43094
X93768Y-34807
X93768Y-35807
X93860Y-59419
X93860Y-60919
X93887Y-49032
X93887Y-50732
X93926Y-42094
X93926Y-43094
X94018Y-34807
X94018Y-35807
X94110Y-59419
X94110Y-60919
X94137Y-49032
X94137Y-50732
X94176Y-42094
X94176Y-43094
X94268Y-34807
X94268Y-35807
X94360Y-59419
X94360Y-60919
X94387Y-49032
X94387Y-50732
X94426Y-42094
X94426Y-43094
X94518Y-34807
X94518Y-35807
X94610Y-57169
X94610Y-57419
X94610Y-57669
X94610Y-57919
X94610Y-58169
X94610Y-58419
X94610Y-58669
X94610Y-58919
X94610Y-59169
X94610Y-59419
X94610Y-60919
X94610Y-61169
X94610Y-61419
X94610Y-61669
X94610Y-61919
X94610Y-62169
X94610Y-62419
X94610Y-62669
X94610Y-62919
X94610Y-63169
X94637Y-49032
X94637Y-50732
X94676Y-42094
X94676Y-43094
X94734Y-63369
X94735Y-56994
X94768Y-34807
X94768Y-35807
X94884Y-63519
X94887Y-49032
X94887Y-50732
X94910Y-56819
X94926Y-42094
X94926Y-43094
X95018Y-34807
X95018Y-35807
X95084Y-63669
X95110Y-56669
X95137Y-49032
X95137Y-50732
X95176Y-42094
X95176Y-43094
X95268Y-34807
X95268Y-35807
X95360Y-56669
X95360Y-63669
X95362Y-49032
X95362Y-50732
X95426Y-42094
X95426Y-43094
X95512Y-49182
X95512Y-49382
X95512Y-50382
X95512Y-50582
X95518Y-34807
X95518Y-35807
X95610Y-56669
X95610Y-57669
X95610Y-57919
X95610Y-58169
X95610Y-58419
X95610Y-58669
X95610Y-58919
X95610Y-59169
X95610Y-59419
X95610Y-59669
X95610Y-59919
X95610Y-60169
X95610Y-60419
X95610Y-60669
X95610Y-60919
X95610Y-61169
X95610Y-61419
X95610Y-61669
X95610Y-61919
X95610Y-62169
X95610Y-62419
X95610Y-62669
X95610Y-63669
X95676Y-42094
X95676Y-43094
X95762Y-49382
X95762Y-50382
X95768Y-34807
X95768Y-35807
X95860Y-56669
X95860Y-57669
X95860Y-62669
X95860Y-63669
X95926Y-42094
X95926Y-43094
X96012Y-49382
X96012Y-50382
X96018Y-34807
X96018Y-35807
X96110Y-56669
X96110Y-57669
X96110Y-62669
X96110Y-63669
X96176Y-42094
X96176Y-43094
X96262Y-49382
X96262Y-50382
X96268Y-34807
X96268Y-35807
X96360Y-56669
X96360Y-57669
X96360Y-62669
X96360Y-63669
X96426Y-42094
X96426Y-43094
X96512Y-49382
X96512Y-50382
X96518Y-34807
X96518Y-35807
X96610Y-56669
X96610Y-57669
X96610Y-62669
X96610Y-63669
X96676Y-42094
X96676Y-43094
X96762Y-49382
X96762Y-50382
X96768Y-34807
X96768Y-35807
X96860Y-56669
X96860Y-57669
X96860Y-62669
X96860Y-63669
X96926Y-42094
X96926Y-43094
X97012Y-49382
X97012Y-50382
X97018Y-34807
X97018Y-35807
X97110Y-56669
X97110Y-57669
X97110Y-62669
X97110Y-63669
X97176Y-42094
X97176Y-43094
X97262Y-49382
X97262Y-50382
X97268Y-34807
X97268Y-35807
X97360Y-56669
X97360Y-57669
X97360Y-62669
X97360Y-63669
X97426Y-42094
X97426Y-43094
X97512Y-49382
X97512Y-50382
X97518Y-34807
X97518Y-35807
X97676Y-42094
X97676Y-43094
X97762Y-49382
X97762Y-50382
X97768Y-34807
X97768Y-35807
X97926Y-42094
X97926Y-43094
X98012Y-49382
X98012Y-50382
X98018Y-34807
X98018Y-35807
X98176Y-42094
X98176Y-43094
X98262Y-49382
X98262Y-50382
X98268Y-34807
X98268Y-35807
X98426Y-42094
X98426Y-43094
X98512Y-49382
X98512Y-50382
X98518Y-34807
X98518Y-35807
X98676Y-42094
X98676Y-43094
X98762Y-49382
X98762Y-50382
X98768Y-34807
X98768Y-35807
X98926Y-42094
X98926Y-43094
X99012Y-49382
X99012Y-50382
X99018Y-34807
X99018Y-35807
X99176Y-42094
X99176Y-43094
X99262Y-49382
X99262Y-50382
X99268Y-34807
X99268Y-35807
X99447Y-56669
X99447Y-57669
X99447Y-62669
X99447Y-63669
X99512Y-49382
X99512Y-50382
X99697Y-56669
X99697Y-57669
X99697Y-62669
X99697Y-63669
X99762Y-49382
X99762Y-50382
X99947Y-56669
X99947Y-57669
X99947Y-62669
X99947Y-63669
X100012Y-49382
X100012Y-50382
X100197Y-56669
X100197Y-57669
X100197Y-62669
X100197Y-63669
X100262Y-49382
X100262Y-50382
X100447Y-56669
X100447Y-57669
X100447Y-62669
X100447Y-63669
X100512Y-49382
X100512Y-50382
X100697Y-56669
X100697Y-57669
X100697Y-62669
X100697Y-63669
X100756Y-49382
X100756Y-50382
X100947Y-56669
X100947Y-57669
X100947Y-62669
X100947Y-63669
X101105Y-34807
X101105Y-35807
X101158Y-42094
X101158Y-43094
X101197Y-56669
X101197Y-57669
X101197Y-57919
X101197Y-58169
X101197Y-58419
X101197Y-58669
X101197Y-58919
X101197Y-59169
X101197Y-59419
X101197Y-59669
X101197Y-59919
X101197Y-60169
X101197Y-60419
X101197Y-60669
X101197Y-60919
X101197Y-61169
X101197Y-61419
X101197Y-61669
X101197Y-61919
X101197Y-62169
X101197Y-62419
X101197Y-62669
X101197Y-63669
X101355Y-34807
X101355Y-35807
X101408Y-42094
X101408Y-43094
X101447Y-56669
X101447Y-63669
X101605Y-34807
X101605Y-35807
X101658Y-42094
X101658Y-43094
X101697Y-63669
X101723Y-56669
X101855Y-34807
X101855Y-35807
X101897Y-63519
X101908Y-42094
X101908Y-43094
X101923Y-56819
X102072Y-63344
X102073Y-56969
X102105Y-34807
X102105Y-35807
X102158Y-42094
X102158Y-43094
X102197Y-57169
X102197Y-57419
X102197Y-57669
X102197Y-57919
X102197Y-58169
X102197Y-58419
X102197Y-58669
X102197Y-58919
X102197Y-59169
X102197Y-59419
X102197Y-60919
X102197Y-61169
X102197Y-61419
X102197Y-61669
X102197Y-61919
X102197Y-62169
X102197Y-62419
X102197Y-62669
X102197Y-62919
X102197Y-63169
X102355Y-34807
X102355Y-35807
X102408Y-42094
X102408Y-43094
X102447Y-59419
X102447Y-60919
X102543Y-49382
X102543Y-50382
X102605Y-34807
X102605Y-35807
X102658Y-42094
X102658Y-43094
X102697Y-59419
X102697Y-60919
X102793Y-49382
X102793Y-50382
X102855Y-34807
X102855Y-35807
X102908Y-42094
X102908Y-43094
X102947Y-59419
X102947Y-60919
X103043Y-49382
X103043Y-50382
X103105Y-34807
X103105Y-35807
X103158Y-42094
X103158Y-43094
X103197Y-59419
X103197Y-60919
X103293Y-49382
X103293Y-50382
X103355Y-34807
X103355Y-35807
X103408Y-42094
X103408Y-43094
X103447Y-59419
X103447Y-60919
X103543Y-49382
X103543Y-50382
X103605Y-34807
X103605Y-35807
X103647Y-59519
X103647Y-60819
X103658Y-42094
X103658Y-43094
X103793Y-49382
X103793Y-50382
X103823Y-59669
X103823Y-60669
X103855Y-34807
X103855Y-35807
X103908Y-42094
X103908Y-43094
X104043Y-49382
X104043Y-50382
X104073Y-59669
X104073Y-60669
X104105Y-34807
X104105Y-35807
X104158Y-42094
X104158Y-43094
X104293Y-49382
X104293Y-50382
X104323Y-59669
X104323Y-60669
X104355Y-34807
X104355Y-35807
X104408Y-42094
X104408Y-43094
X104543Y-49382
X104543Y-50382
X104573Y-59269
X104573Y-59469
X104573Y-59669
X104573Y-60669
X104573Y-60869
X104573Y-61069
X104605Y-34807
X104605Y-35807
X104658Y-42094
X104658Y-43094
X104793Y-49382
X104793Y-50382
X104798Y-61069
X104823Y-59269
X104855Y-34807
X104855Y-35807
X104908Y-42094
X104908Y-43094
X105043Y-49382
X105043Y-50382
X105048Y-61069
X105073Y-59269
X105105Y-34807
X105105Y-35807
X105158Y-42094
X105158Y-43094
X105293Y-49382
X105293Y-50382
X105298Y-61069
X105323Y-59269
X105355Y-34807
X105355Y-35807
X105408Y-42094
X105408Y-43094
X105543Y-49382
X105543Y-50382
X105548Y-61069
X105573Y-59269
X105605Y-34807
X105605Y-35807
X105658Y-42094
X105658Y-43094
X105793Y-49382
X105793Y-50382
X105798Y-61069
X105823Y-59269
X105855Y-34807
X105855Y-35807
X105908Y-42094
X105908Y-43094
X106043Y-49382
X106043Y-50382
X106048Y-61069
X106073Y-59269
X106105Y-34807
X106105Y-35807
X106158Y-41694
X106158Y-41894
X106158Y-42094
X106158Y-43094
X106158Y-43294
X106158Y-43494
X106293Y-49382
X106293Y-50382
X106298Y-61069
X106323Y-59269
X106355Y-34407
X106355Y-34607
X106355Y-34807
X106355Y-35807
X106355Y-36007
X106355Y-36207
X106383Y-41694
X106383Y-43494
X106543Y-49382
X106543Y-50382
X106548Y-61069
X106573Y-59269
X106580Y-36207
X106605Y-34407
X106633Y-41694
X106633Y-43494
X106773Y-59269
X106793Y-49382
X106793Y-50382
X106798Y-61069
X106830Y-36207
X106855Y-34407
X106883Y-41694
X106883Y-43494
X107023Y-59269
X107023Y-59469
X107023Y-59669
X107023Y-60669
X107023Y-60869
X107023Y-61069
X107043Y-49382
X107043Y-50382
X107080Y-36207
X107105Y-34407
X107133Y-41694
X107133Y-43494
X107273Y-59669
X107273Y-60669
X107293Y-49382
X107293Y-50382
X107330Y-36207
X107355Y-34407
X107383Y-41694
X107383Y-43494
X107523Y-59669
X107523Y-60669
X107543Y-49382
X107543Y-50382
X107580Y-36207
X107605Y-34407
X107633Y-41694
X107633Y-43494
X107773Y-59669
X107773Y-60669
X107793Y-49382
X107793Y-50382
X107830Y-36207
X107855Y-34407
X107883Y-41694
X107883Y-43494
X108023Y-59669
X108023Y-60669
X108043Y-49382
X108043Y-50382
X108080Y-36207
X108105Y-34407
X108133Y-41694
X108133Y-43494
X108273Y-59669
X108273Y-60669
X108293Y-49382
X108293Y-50382
X108330Y-36207
X108355Y-34407
X108383Y-41694
X108383Y-43494
X108523Y-59669
X108523Y-60669
X108543Y-49382
X108543Y-50382
X108555Y-34407
X108580Y-36207
X108633Y-41694
X108633Y-43494
X108773Y-59669
X108773Y-60669
X108793Y-49382
X108793Y-50382
X108805Y-34407
X108805Y-34607
X108805Y-34807
X108805Y-35807
X108805Y-36007
X108805Y-36207
X108858Y-41694
X108858Y-41894
X108858Y-42094
X108858Y-43094
X108858Y-43294
X108858Y-43494
X109023Y-59669
X109023Y-60669
X109043Y-49382
X109043Y-50382
X109055Y-34807
X109055Y-35807
X109108Y-42094
X109108Y-43094
X109273Y-59669
X109273Y-60669
X109293Y-49382
X109293Y-50382
X109305Y-34807
X109305Y-35807
X109358Y-42094
X109358Y-43094
X109523Y-59669
X109523Y-60669
X109543Y-49382
X109543Y-50382
X109555Y-34807
X109555Y-35807
X109608Y-42094
X109608Y-43094
X109773Y-59669
X109773Y-60669
X109793Y-49382
X109793Y-50382
X109805Y-34807
X109805Y-35807
X109858Y-42094
X109858Y-43094
X110023Y-59669
X110023Y-60669
X110043Y-49382
X110043Y-50382
X110055Y-34807
X110055Y-35807
X110108Y-42094
X110108Y-43094
X110273Y-59669
X110273Y-60669
X110293Y-49382
X110293Y-50382
X110305Y-34807
X110305Y-35807
X110358Y-42094
X110358Y-43094
X110523Y-59669
X110523Y-60669
X110543Y-49382
X110543Y-50382
X110555Y-34807
X110555Y-35807
X110608Y-42094
X110608Y-43094
X110773Y-59669
X110773Y-60669
X110793Y-49382
X110793Y-50382
X110805Y-34807
X110805Y-35807
X110858Y-42094
X110858Y-43094
X111023Y-59669
X111023Y-60669
X111043Y-49382
X111043Y-50382
X111055Y-34807
X111055Y-35807
X111108Y-42094
X111108Y-43094
X111273Y-59669
X111273Y-59669
X111273Y-60669
X111293Y-49382
X111293Y-50382
X111305Y-34807
X111305Y-35807
X111358Y-42094
X111358Y-43094
X111523Y-59669
X111523Y-60669
X111543Y-49382
X111543Y-50382
X111555Y-34807
X111555Y-35807
X111608Y-42094
X111608Y-43094
X111773Y-59669
X111773Y-60669
X111793Y-49382
X111793Y-50382
X111805Y-34807
X111805Y-35807
X111858Y-42094
X111858Y-43094
X112023Y-59669
X112023Y-60669
X112043Y-49382
X112043Y-50382
X112055Y-34807
X112055Y-35807
X112108Y-42094
X112108Y-43094
X112273Y-59669
X112273Y-60669
X112293Y-49382
X112293Y-50382
X112305Y-34807
X112305Y-35807
X112358Y-42094
X112358Y-43094
X112523Y-59669
X112523Y-60669
X112543Y-49382
X112543Y-50382
X112555Y-34807
X112555Y-35807
X112608Y-42094
X112608Y-43094
X112773Y-59669
X112773Y-60669
X112793Y-49382
X112793Y-50382
X112805Y-34807
X112805Y-35807
X112858Y-42094
X112858Y-43094
X113023Y-59669
X113023Y-60669
X113043Y-49382
X113043Y-50382
X113055Y-34807
X113055Y-35807
X113108Y-42094
X113108Y-43094
X113273Y-59669
X113273Y-60669
X113293Y-49382
X113293Y-50382
X113305Y-34807
X113305Y-35807
X113358Y-42094
X113358Y-43094
X113523Y-59669
X113523Y-60669
X113543Y-49382
X113543Y-50382
X113555Y-34807
X113555Y-35807
X113608Y-42094
X113608Y-43094
X113773Y-59669
X113773Y-60669
X113793Y-49382
X113793Y-50382
X113805Y-34807
X113805Y-35807
X113858Y-42094
X113858Y-43094
X114023Y-59669
X114023Y-60669
X114043Y-49382
X114043Y-50382
X114055Y-34807
X114055Y-35807
X73143Y-54779
X73143Y-55029
X73143Y-55279
X73143Y-55529
X73143Y-55779
X73143Y-58529
X73143Y-58779
X73143Y-59029
X73143Y-59279
X73143Y-59529
X73383Y-54699
X73383Y-55889
X73383Y-58449
X73383Y-59639
X73633Y-54699
X73633Y-55889
X73633Y-58449
X73633Y-59639
X73883Y-54699
X73883Y-55889
X73883Y-58449
X73883Y-59639
X74133Y-54699
X74133Y-55889
X74133Y-58449
X74133Y-59639
X74383Y-54699
X74383Y-59639
X74393Y-55939
X74393Y-58399
X74633Y-54699
X74633Y-56089
X74633Y-58249
X74633Y-59639
X74796Y-56309
X74796Y-56559
X74796Y-56809
X74796Y-57529
X74796Y-57779
X74796Y-58029
X74883Y-54699
X74883Y-59639
X65298Y-57699
X65298Y-62639
X65385Y-59309
X65385Y-59559
X65385Y-59809
X65385Y-60529
X65385Y-60779
X65385Y-61029
X65548Y-57699
X65548Y-59089
X65548Y-61249
X65548Y-62639
X65788Y-58939
X65788Y-61399
X65798Y-57699
X65798Y-62639
X66048Y-57699
X66048Y-58889
X66048Y-61449
X66048Y-62639
X66298Y-57699
X66298Y-58889
X66298Y-61449
X66298Y-62639
X66548Y-57699
X66548Y-58889
X66548Y-61449
X66548Y-62639
X66798Y-57699
X66798Y-58889
X66798Y-61449
X66798Y-62639
X67038Y-57809
X67038Y-58059
X67038Y-58309
X67038Y-58559
X67038Y-58809
X67038Y-61559
X67038Y-61809
X67038Y-62059
X67038Y-62309
X67038Y-62559
X112633Y-47492
X112633Y-47742
X112633Y-47992
X112633Y-48242
X112633Y-48492
X112633Y-51242
X112633Y-51492
X112633Y-51742
X112633Y-51992
X112633Y-52242
X112873Y-47412
X112873Y-48602
X112873Y-51162
X112873Y-52352
X113123Y-47412
X113123Y-48602
X113123Y-51162
X113123Y-52352
X113373Y-47412
X113373Y-48602
X113373Y-51162
X113373Y-52352
X113623Y-47412
X113623Y-48602
X113623Y-51162
X113623Y-52352
X113873Y-47412
X113873Y-52352
X113883Y-48652
X113883Y-51112
X114123Y-47412
X114123Y-48802
X114123Y-50962
X114123Y-52352
X114286Y-49022
X114286Y-49272
X114286Y-49522
X114286Y-50242
X114286Y-50492
X114286Y-50742
X114373Y-47412
X114373Y-52352
X65663Y-51432
X65663Y-51682
X65663Y-51932
X65663Y-52182
X65663Y-52432
X65663Y-52682
X65663Y-52932
X65773Y-51192
X66023Y-51192
X66273Y-51192
X66523Y-51192
X66773Y-51192
X66853Y-51432
X66853Y-51682
X66853Y-51932
X66853Y-52182
X66903Y-52442
X67053Y-52682
X67273Y-52845
X67523Y-52845
X67773Y-52845
X68493Y-52845
X68743Y-52845
X68993Y-52845
X69213Y-52682
X69363Y-52442
X69413Y-51432
X69413Y-51682
X69413Y-51932
X69413Y-52182
X69523Y-51192
X69773Y-51192
X70023Y-51192
X70273Y-51192
X70523Y-51192
X70603Y-51432
X70603Y-51682
X70603Y-51932
X70603Y-52182
X70603Y-52432
X70603Y-52682
X70603Y-52932
X98997Y-60699
X98997Y-65639
X99084Y-62309
X99084Y-62559
X99084Y-62809
X99084Y-63529
X99084Y-63779
X99084Y-64029
X99247Y-60699
X99247Y-62089
X99247Y-64249
X99247Y-65639
X99487Y-61939
X99487Y-64399
X99497Y-60699
X99497Y-65639
X99747Y-60699
X99747Y-61889
X99747Y-64449
X99747Y-65639
X99997Y-60699
X99997Y-61889
X99997Y-64449
X99997Y-65639
X100247Y-60699
X100247Y-61889
X100247Y-64449
X100247Y-65639
X100497Y-60699
X100497Y-61889
X100497Y-64449
X100497Y-65639
X100737Y-60809
X100737Y-61059
X100737Y-61309
X100737Y-61559
X100737Y-61809
X100737Y-64559
X100737Y-64809
X100737Y-65059
X100737Y-65309
X100737Y-65559
X100708Y-40124
X100708Y-45064
X100795Y-41734
X100795Y-41984
X100795Y-42234
X100795Y-42954
X100795Y-43204
X100795Y-43454
X100958Y-40124
X100958Y-41514
X100958Y-43674
X100958Y-45064
X101198Y-41364
X101198Y-43824
X101208Y-40124
X101208Y-45064
X101458Y-40124
X101458Y-41314
X101458Y-43874
X101458Y-45064
X101708Y-40124
X101708Y-41314
X101708Y-43874
X101708Y-45064
X101958Y-40124
X101958Y-41314
X101958Y-43874
X101958Y-45064
X102208Y-40124
X102208Y-41314
X102208Y-43874
X102208Y-45064
X102448Y-40234
X102448Y-40484
X102448Y-40734
X102448Y-40984
X102448Y-41234
X102448Y-43984
X102448Y-44234
X102448Y-44484
X102448Y-44734
X102448Y-44984
X102243Y-47412
X102243Y-52352
X102330Y-49022
X102330Y-49272
X102330Y-49522
X102330Y-50242
X102330Y-50492
X102330Y-50742
X102493Y-47412
X102493Y-48802
X102493Y-50962
X102493Y-52352
X102733Y-48652
X102733Y-51112
X102743Y-47412
X102743Y-52352
X102993Y-47412
X102993Y-48602
X102993Y-51162
X102993Y-52352
X103243Y-47412
X103243Y-48602
X103243Y-51162
X103243Y-52352
X103493Y-47412
X103493Y-48602
X103493Y-51162
X103493Y-52352
X103743Y-47412
X103743Y-48602
X103743Y-51162
X103743Y-52352
X103983Y-47522
X103983Y-47772
X103983Y-48022
X103983Y-48272
X103983Y-48522
X103983Y-51272
X103983Y-51522
X103983Y-51772
X103983Y-52022
X103983Y-52272
X100755Y-32837
X100755Y-37777
X100842Y-34447
X100842Y-34697
X100842Y-34947
X100842Y-35667
X100842Y-35917
X100842Y-36167
X101005Y-32837
X101005Y-34227
X101005Y-36387
X101005Y-37777
X101245Y-34077
X101245Y-36537
X101255Y-32837
X101255Y-37777
X101505Y-32837
X101505Y-34027
X101505Y-36587
X101505Y-37777
X101755Y-32837
X101755Y-34027
X101755Y-36587
X101755Y-37777
X102005Y-32837
X102005Y-34027
X102005Y-36587
X102005Y-37777
X102255Y-32837
X102255Y-34027
X102255Y-36587
X102255Y-37777
X102495Y-32947
X102495Y-33197
X102495Y-33447
X102495Y-33697
X102495Y-33947
X102495Y-36697
X102495Y-36947
X102495Y-37197
X102495Y-37447
X102495Y-37697
X97828Y-32917
X97828Y-33167
X97828Y-33417
X97828Y-33667
X97828Y-33917
X97828Y-36667
X97828Y-36917
X97828Y-37167
X97828Y-37417
X97828Y-37667
X98068Y-32837
X98068Y-34027
X98068Y-36587
X98068Y-37777
X98318Y-32837
X98318Y-34027
X98318Y-36587
X98318Y-37777
X98568Y-32837
X98568Y-34027
X98568Y-36587
X98568Y-37777
X98818Y-32837
X98818Y-34027
X98818Y-36587
X98818Y-37777
X99068Y-32837
X99068Y-37777
X99078Y-34077
X99078Y-36537
X99318Y-32837
X99318Y-34227
X99318Y-36387
X99318Y-37777
X99481Y-34447
X99481Y-34697
X99481Y-34947
X99481Y-35667
X99481Y-35917
X99481Y-36167
X99568Y-32837
X99568Y-37777
X85199Y-40204
X85199Y-40454
X85199Y-40704
X85199Y-40954
X85199Y-41204
X85199Y-43954
X85199Y-44204
X85199Y-44454
X85199Y-44704
X85199Y-44954
X85439Y-40124
X85439Y-41314
X85439Y-43874
X85439Y-45064
X85689Y-40124
X85689Y-41314
X85689Y-43874
X85689Y-45064
X85939Y-40124
X85939Y-41314
X85939Y-43874
X85939Y-45064
X86189Y-40124
X86189Y-41314
X86189Y-43874
X86189Y-45064
X86439Y-40124
X86439Y-45064
X86449Y-41364
X86449Y-43824
X86689Y-40124
X86689Y-41514
X86689Y-43674
X86689Y-45064
X86852Y-41734
X86852Y-41984
X86852Y-42234
X86852Y-42954
X86852Y-43204
X86852Y-43454
X86939Y-40124
X86939Y-45064
X99316Y-47492
X99316Y-47742
X99316Y-47992
X99316Y-48242
X99316Y-48492
X99316Y-51242
X99316Y-51492
X99316Y-51742
X99316Y-51992
X99316Y-52242
X99556Y-47412
X99556Y-48602
X99556Y-51162
X99556Y-52352
X99806Y-47412
X99806Y-48602
X99806Y-51162
X99806Y-52352
X100056Y-47412
X100056Y-48602
X100056Y-51162
X100056Y-52352
X100306Y-47412
X100306Y-48602
X100306Y-51162
X100306Y-52352
X100556Y-47412
X100556Y-52352
X100566Y-48652
X100566Y-51112
X100806Y-47412
X100806Y-48802
X100806Y-50962
X100806Y-52352
X100969Y-49022
X100969Y-49272
X100969Y-49522
X100969Y-50242
X100969Y-50492
X100969Y-50742
X101056Y-47412
X101056Y-52352
X65663Y-40923
X65663Y-41173
X65663Y-41423
X65663Y-41673
X65663Y-41923
X65663Y-42173
X65663Y-42423
X65743Y-42663
X65993Y-42663
X66243Y-42663
X66493Y-42663
X66743Y-42663
X66853Y-41673
X66853Y-41923
X66853Y-42173
X66853Y-42423
X66903Y-41413
X67053Y-41173
X67273Y-41010
X67523Y-41010
X67773Y-41010
X68493Y-41010
X68743Y-41010
X68993Y-41010
X69213Y-41173
X69363Y-41413
X69413Y-41673
X69413Y-41923
X69413Y-42173
X69413Y-42423
X69493Y-42663
X69743Y-42663
X69993Y-42663
X70243Y-42663
X70493Y-42663
X70603Y-40923
X70603Y-41173
X70603Y-41423
X70603Y-41673
X70603Y-41923
X70603Y-42173
X70603Y-42423
X76253Y-32917
X76253Y-33167
X76253Y-33417
X76253Y-33667
X76253Y-33917
X76253Y-36667
X76253Y-36917
X76253Y-37167
X76253Y-37417
X76253Y-37667
X76493Y-32837
X76493Y-34027
X76493Y-36587
X76493Y-37777
X76743Y-32837
X76743Y-34027
X76743Y-36587
X76743Y-37777
X76993Y-32837
X76993Y-34027
X76993Y-36587
X76993Y-37777
X77243Y-32837
X77243Y-34027
X77243Y-36587
X77243Y-37777
X77493Y-32837
X77493Y-37777
X77503Y-34077
X77503Y-36537
X77743Y-32837
X77743Y-34227
X77743Y-36387
X77743Y-37777
X77906Y-34447
X77906Y-34697
X77906Y-34947
X77906Y-35667
X77906Y-35917
X77906Y-36167
X77993Y-32837
X77993Y-37777
X86857Y-57699
X86857Y-62639
X86944Y-59309
X86944Y-59559
X86944Y-59809
X86944Y-60529
X86944Y-60779
X86944Y-61029
X87107Y-57699
X87107Y-59089
X87107Y-61249
X87107Y-62639
X87347Y-58939
X87347Y-61399
X87357Y-57699
X87357Y-62639
X87607Y-57699
X87607Y-58889
X87607Y-61449
X87607Y-62639
X87857Y-57699
X87857Y-58889
X87857Y-61449
X87857Y-62639
X88107Y-57699
X88107Y-58889
X88107Y-61449
X88107Y-62639
X88357Y-57699
X88357Y-58889
X88357Y-61449
X88357Y-62639
X88597Y-57809
X88597Y-58059
X88597Y-58309
X88597Y-58559
X88597Y-58809
X88597Y-61559
X88597Y-61809
X88597Y-62059
X88597Y-62309
X88597Y-62559
X76070Y-54699
X76070Y-59639
X76157Y-56309
X76157Y-56559
X76157Y-56809
X76157Y-57529
X76157Y-57779
X76157Y-58029
X76320Y-54699
X76320Y-56089
X76320Y-58249
X76320Y-59639
X76560Y-55939
X76560Y-58399
X76570Y-54699
X76570Y-59639
X76820Y-54699
X76820Y-55889
X76820Y-58449
X76820Y-59639
X77070Y-54699
X77070Y-55889
X77070Y-58449
X77070Y-59639
X77320Y-54699
X77320Y-55889
X77320Y-58449
X77320Y-59639
X77570Y-54699
X77570Y-55889
X77570Y-58449
X77570Y-59639
X77810Y-54809
X77810Y-55059
X77810Y-55309
X77810Y-55559
X77810Y-55809
X77810Y-58559
X77810Y-58809
X77810Y-59059
X77810Y-59309
X77810Y-59559
X97780Y-40204
X97780Y-40454
X97780Y-40704
X97780Y-40954
X97780Y-41204
X97780Y-43954
X97780Y-44204
X97780Y-44454
X97780Y-44704
X97780Y-44954
X98020Y-40124
X98020Y-41314
X98020Y-43874
X98020Y-45064
X98270Y-40124
X98270Y-41314
X98270Y-43874
X98270Y-45064
X98520Y-40124
X98520Y-41314
X98520Y-43874
X98520Y-45064
X98770Y-40124
X98770Y-41314
X98770Y-43874
X98770Y-45064
X99020Y-40124
X99020Y-45064
X99030Y-41364
X99030Y-43824
X99270Y-40124
X99270Y-41514
X99270Y-43674
X99270Y-45064
X99433Y-41734
X99433Y-41984
X99433Y-42234
X99433Y-42954
X99433Y-43204
X99433Y-43454
X99520Y-40124
X99520Y-45064
X83930Y-57779
X83930Y-58029
X83930Y-58279
X83930Y-58529
X83930Y-58779
X83930Y-61529
X83930Y-61779
X83930Y-62029
X83930Y-62279
X83930Y-62529
X84170Y-57699
X84170Y-58889
X84170Y-61449
X84170Y-62639
X84420Y-57699
X84420Y-58889
X84420Y-61449
X84420Y-62639
X84670Y-57699
X84670Y-58889
X84670Y-61449
X84670Y-62639
X84920Y-57699
X84920Y-58889
X84920Y-61449
X84920Y-62639
X85170Y-57699
X85170Y-62639
X85180Y-58939
X85180Y-61399
X85420Y-57699
X85420Y-59089
X85420Y-61249
X85420Y-62639
X85583Y-59309
X85583Y-59559
X85583Y-59809
X85583Y-60529
X85583Y-60779
X85583Y-61029
X85670Y-57699
X85670Y-62639
X72157Y-47412
X72157Y-52352
X72244Y-49022
X72244Y-49272
X72244Y-49522
X72244Y-50242
X72244Y-50492
X72244Y-50742
X72407Y-47412
X72407Y-48802
X72407Y-50962
X72407Y-52352
X72647Y-48652
X72647Y-51112
X72657Y-47412
X72657Y-52352
X72907Y-47412
X72907Y-48602
X72907Y-51162
X72907Y-52352
X73157Y-47412
X73157Y-48602
X73157Y-51162
X73157Y-52352
X73407Y-47412
X73407Y-48602
X73407Y-51162
X73407Y-52352
X73657Y-47412
X73657Y-48602
X73657Y-51162
X73657Y-52352
X73897Y-47522
X73897Y-47772
X73897Y-48022
X73897Y-48272
X73897Y-48522
X73897Y-51272
X73897Y-51522
X73897Y-51772
X73897Y-52022
X73897Y-52272
X96070Y-60779
X96070Y-61029
X96070Y-61279
X96070Y-61529
X96070Y-61779
X96070Y-64529
X96070Y-64779
X96070Y-65029
X96070Y-65279
X96070Y-65529
X96310Y-60699
X96310Y-61889
X96310Y-64449
X96310Y-65639
X96560Y-60699
X96560Y-61889
X96560Y-64449
X96560Y-65639
X96810Y-60699
X96810Y-61889
X96810Y-64449
X96810Y-65639
X97060Y-60699
X97060Y-61889
X97060Y-64449
X97060Y-65639
X97310Y-60699
X97310Y-65639
X97320Y-61939
X97320Y-64399
X97560Y-60699
X97560Y-62089
X97560Y-64249
X97560Y-65639
X97723Y-62309
X97723Y-62559
X97723Y-62809
X97723Y-63529
X97723Y-63779
X97723Y-64029
X97810Y-60699
X97810Y-65639
X112631Y-40204
X112631Y-40454
X112631Y-40704
X112631Y-40954
X112631Y-41204
X112631Y-43954
X112631Y-44204
X112631Y-44454
X112631Y-44704
X112631Y-44954
X112871Y-40124
X112871Y-41314
X112871Y-43874
X112871Y-45064
X113121Y-40124
X113121Y-41314
X113121Y-43874
X113121Y-45064
X113371Y-40124
X113371Y-41314
X113371Y-43874
X113371Y-45064
X113621Y-40124
X113621Y-41314
X113621Y-43874
X113621Y-45064
X113871Y-40124
X113871Y-45064
X113881Y-41364
X113881Y-43824
X114121Y-40124
X114121Y-41514
X114121Y-43674
X114121Y-45064
X114284Y-41734
X114284Y-41984
X114284Y-42234
X114284Y-42954
X114284Y-43204
X114284Y-43454
X114371Y-40124
X114371Y-45064
X96070Y-54779
X96070Y-55029
X96070Y-55279
X96070Y-55529
X96070Y-55779
X96070Y-58529
X96070Y-58779
X96070Y-59029
X96070Y-59279
X96070Y-59529
X96310Y-54699
X96310Y-55889
X96310Y-58449
X96310Y-59639
X96560Y-54699
X96560Y-55889
X96560Y-58449
X96560Y-59639
X96810Y-54699
X96810Y-55889
X96810Y-58449
X96810Y-59639
X97060Y-54699
X97060Y-55889
X97060Y-58449
X97060Y-59639
X97310Y-54699
X97310Y-59639
X97320Y-55939
X97320Y-58399
X97560Y-54699
X97560Y-56089
X97560Y-58249
X97560Y-59639
X97723Y-56309
X97723Y-56559
X97723Y-56809
X97723Y-57529
X97723Y-57779
X97723Y-58029
X97810Y-54699
X97810Y-59639
X74062Y-40124
X74062Y-45064
X74149Y-41734
X74149Y-41984
X74149Y-42234
X74149Y-42954
X74149Y-43204
X74149Y-43454
X74312Y-40124
X74312Y-41514
X74312Y-43674
X74312Y-45064
X74552Y-41364
X74552Y-43824
X74562Y-40124
X74562Y-45064
X74812Y-40124
X74812Y-41314
X74812Y-43874
X74812Y-45064
X75062Y-40124
X75062Y-41314
X75062Y-43874
X75062Y-45064
X75312Y-40124
X75312Y-41314
X75312Y-43874
X75312Y-45064
X75562Y-40124
X75562Y-41314
X75562Y-43874
X75562Y-45064
X75802Y-40234
X75802Y-40484
X75802Y-40734
X75802Y-40984
X75802Y-41234
X75802Y-43984
X75802Y-44234
X75802Y-44484
X75802Y-44734
X75802Y-44984
X86962Y-47412
X86962Y-52352
X87049Y-49022
X87049Y-49272
X87049Y-49522
X87049Y-50242
X87049Y-50492
X87049Y-50742
X87212Y-47412
X87212Y-48802
X87212Y-50962
X87212Y-52352
X87452Y-48652
X87452Y-51112
X87462Y-47412
X87462Y-52352
X87712Y-47412
X87712Y-48602
X87712Y-51162
X87712Y-52352
X87962Y-47412
X87962Y-48602
X87962Y-51162
X87962Y-52352
X88212Y-47412
X88212Y-48602
X88212Y-51162
X88212Y-52352
X88462Y-47412
X88462Y-48602
X88462Y-51162
X88462Y-52352
X88702Y-47522
X88702Y-47772
X88702Y-48022
X88702Y-48272
X88702Y-48522
X88702Y-51272
X88702Y-51522
X88702Y-51772
X88702Y-52022
X88702Y-52272
X112633Y-32914
X112633Y-33164
X112633Y-33414
X112633Y-33664
X112633Y-33914
X112633Y-36664
X112633Y-36914
X112633Y-37164
X112633Y-37414
X112633Y-37664
X112873Y-32834
X112873Y-34024
X112873Y-36584
X112873Y-37774
X113123Y-32834
X113123Y-34024
X113123Y-36584
X113123Y-37774
X113373Y-32834
X113373Y-34024
X113373Y-36584
X113373Y-37774
X113623Y-32834
X113623Y-34024
X113623Y-36584
X113623Y-37774
X113873Y-32834
X113873Y-37774
X113883Y-34074
X113883Y-36534
X114123Y-32834
X114123Y-34224
X114123Y-36384
X114123Y-37774
X114286Y-34444
X114286Y-34694
X114286Y-34944
X114286Y-35664
X114286Y-35914
X114286Y-36164
X114373Y-32834
X114373Y-37774
X84035Y-47492
X84035Y-47742
X84035Y-47992
X84035Y-48242
X84035Y-48492
X84035Y-51242
X84035Y-51492
X84035Y-51742
X84035Y-51992
X84035Y-52242
X84275Y-47412
X84275Y-48602
X84275Y-51162
X84275Y-52352
X84525Y-47412
X84525Y-48602
X84525Y-51162
X84525Y-52352
X84775Y-47412
X84775Y-48602
X84775Y-51162
X84775Y-52352
X85025Y-47412
X85025Y-48602
X85025Y-51162
X85025Y-52352
X85275Y-47412
X85275Y-52352
X85285Y-48652
X85285Y-51112
X85525Y-47412
X85525Y-48802
X85525Y-50962
X85525Y-52352
X85688Y-49022
X85688Y-49272
X85688Y-49522
X85688Y-50242
X85688Y-50492
X85688Y-50742
X85775Y-47412
X85775Y-52352
X87040Y-32917
X87040Y-33167
X87040Y-33417
X87040Y-33667
X87040Y-33917
X87040Y-36667
X87040Y-36917
X87040Y-37167
X87040Y-37417
X87040Y-37667
X87280Y-32837
X87280Y-34027
X87280Y-36587
X87280Y-37777
X87530Y-32837
X87530Y-34027
X87530Y-36587
X87530Y-37777
X87780Y-32837
X87780Y-34027
X87780Y-36587
X87780Y-37777
X88030Y-32837
X88030Y-34027
X88030Y-36587
X88030Y-37777
X88280Y-32837
X88280Y-37777
X88290Y-34077
X88290Y-36537
X88530Y-32837
X88530Y-34227
X88530Y-36387
X88530Y-37777
X88693Y-34447
X88693Y-34697
X88693Y-34947
X88693Y-35667
X88693Y-35917
X88693Y-36167
X88780Y-32837
X88780Y-37777
X112633Y-57779
X112633Y-58029
X112633Y-58279
X112633Y-58529
X112633Y-58779
X112633Y-61529
X112633Y-61779
X112633Y-62029
X112633Y-62279
X112633Y-62529
X112873Y-57699
X112873Y-58889
X112873Y-61449
X112873Y-62639
X113123Y-57699
X113123Y-58889
X113123Y-61449
X113123Y-62639
X113373Y-57699
X113373Y-58889
X113373Y-61449
X113373Y-62639
X113623Y-57699
X113623Y-58889
X113623Y-61449
X113623Y-62639
X113873Y-57699
X113873Y-62639
X113883Y-58939
X113883Y-61399
X114123Y-57699
X114123Y-59089
X114123Y-61249
X114123Y-62639
X114286Y-59309
X114286Y-59559
X114286Y-59809
X114286Y-60529
X114286Y-60779
X114286Y-61029
X114373Y-57699
X114373Y-62639
X76070Y-60699
X76070Y-65639
X76157Y-62309
X76157Y-62559
X76157Y-62809
X76157Y-63529
X76157Y-63779
X76157Y-64029
X76320Y-60699
X76320Y-62089
X76320Y-64249
X76320Y-65639
X76560Y-61939
X76560Y-64399
X76570Y-60699
X76570Y-65639
X76820Y-60699
X76820Y-61889
X76820Y-64449
X76820Y-65639
X77070Y-60699
X77070Y-61889
X77070Y-64449
X77070Y-65639
X77320Y-60699
X77320Y-61889
X77320Y-64449
X77320Y-65639
X77570Y-60699
X77570Y-61889
X77570Y-64449
X77570Y-65639
X77810Y-60809
X77810Y-61059
X77810Y-61309
X77810Y-61559
X77810Y-61809
X77810Y-64559
X77810Y-64809
X77810Y-65059
X77810Y-65309
X77810Y-65559
X88126Y-40124
X88126Y-45064
X88213Y-41734
X88213Y-41984
X88213Y-42234
X88213Y-42954
X88213Y-43204
X88213Y-43454
X88376Y-40124
X88376Y-41514
X88376Y-43674
X88376Y-45064
X88616Y-41364
X88616Y-43824
X88626Y-40124
X88626Y-45064
X88876Y-40124
X88876Y-41314
X88876Y-43874
X88876Y-45064
X89126Y-40124
X89126Y-41314
X89126Y-43874
X89126Y-45064
X89376Y-40124
X89376Y-41314
X89376Y-43874
X89376Y-45064
X89626Y-40124
X89626Y-41314
X89626Y-43874
X89626Y-45064
X89866Y-40234
X89866Y-40484
X89866Y-40734
X89866Y-40984
X89866Y-41234
X89866Y-43984
X89866Y-44234
X89866Y-44484
X89866Y-44734
X89866Y-44984
X98997Y-54699
X98997Y-59639
X99084Y-56309
X99084Y-56559
X99084Y-56809
X99084Y-57529
X99084Y-57779
X99084Y-58029
X99247Y-54699
X99247Y-56089
X99247Y-58249
X99247Y-59639
X99487Y-55939
X99487Y-58399
X99497Y-54699
X99497Y-59639
X99747Y-54699
X99747Y-55889
X99747Y-58449
X99747Y-59639
X99997Y-54699
X99997Y-55889
X99997Y-58449
X99997Y-59639
X100247Y-54699
X100247Y-55889
X100247Y-58449
X100247Y-59639
X100497Y-54699
X100497Y-55889
X100497Y-58449
X100497Y-59639
X100737Y-54809
X100737Y-55059
X100737Y-55309
X100737Y-55559
X100737Y-55809
X100737Y-58559
X100737Y-58809
X100737Y-59059
X100737Y-59309
X100737Y-59559
X73143Y-60779
X73143Y-61029
X73143Y-61279
X73143Y-61529
X73143Y-61779
X73143Y-64529
X73143Y-64779
X73143Y-65029
X73143Y-65279
X73143Y-65529
X73383Y-60699
X73383Y-61889
X73383Y-64449
X73383Y-65639
X73633Y-60699
X73633Y-61889
X73633Y-64449
X73633Y-65639
X73883Y-60699
X73883Y-61889
X73883Y-64449
X73883Y-65639
X74133Y-60699
X74133Y-61889
X74133Y-64449
X74133Y-65639
X74383Y-60699
X74383Y-65639
X74393Y-61939
X74393Y-64399
X74633Y-60699
X74633Y-62089
X74633Y-64249
X74633Y-65639
X74796Y-62309
X74796Y-62559
X74796Y-62809
X74796Y-63529
X74796Y-63779
X74796Y-64029
X74883Y-60699
X74883Y-65639
T2
X80741Y-34307
X80741Y-36307
X82741Y-34307
X82741Y-36307
X69954Y-34307
X69954Y-36307
X71954Y-34307
X71954Y-36307
T0
M30
