G04 #@! TF.GenerationSoftware,KiCad,Pcbnew,(5.1.2)-2*
G04 #@! TF.CreationDate,2019-08-10T23:44:23-05:00*
G04 #@! TF.ProjectId,front_end,66726f6e-745f-4656-9e64-2e6b69636164,rev?*
G04 #@! TF.SameCoordinates,Original*
G04 #@! TF.FileFunction,Legend,Top*
G04 #@! TF.FilePolarity,Positive*
%FSLAX46Y46*%
G04 Gerber Fmt 4.6, Leading zero omitted, Abs format (unit mm)*
G04 Created by KiCad (PCBNEW (5.1.2)-2) date 2019-08-10 23:44:23*
%MOMM*%
%LPD*%
G04 APERTURE LIST*
%ADD10C,0.050000*%
%ADD11C,0.150000*%
G04 APERTURE END LIST*
D10*
X77136666Y-119993095D02*
X77053333Y-119874047D01*
X76993809Y-119993095D02*
X76993809Y-119743095D01*
X77089047Y-119743095D01*
X77112857Y-119755000D01*
X77124761Y-119766904D01*
X77136666Y-119790714D01*
X77136666Y-119826428D01*
X77124761Y-119850238D01*
X77112857Y-119862142D01*
X77089047Y-119874047D01*
X76993809Y-119874047D01*
X77243809Y-119862142D02*
X77327142Y-119862142D01*
X77362857Y-119993095D02*
X77243809Y-119993095D01*
X77243809Y-119743095D01*
X77362857Y-119743095D01*
X77553333Y-119862142D02*
X77470000Y-119862142D01*
X77470000Y-119993095D02*
X77470000Y-119743095D01*
X77589047Y-119743095D01*
X77720000Y-119743095D02*
X77720000Y-119802619D01*
X77660476Y-119778809D02*
X77720000Y-119802619D01*
X77779523Y-119778809D01*
X77684285Y-119850238D02*
X77720000Y-119802619D01*
X77755714Y-119850238D01*
X77910476Y-119743095D02*
X77910476Y-119802619D01*
X77850952Y-119778809D02*
X77910476Y-119802619D01*
X77970000Y-119778809D01*
X77874761Y-119850238D02*
X77910476Y-119802619D01*
X77946190Y-119850238D01*
D11*
X328596666Y-119602380D02*
X328596666Y-120316666D01*
X328549047Y-120459523D01*
X328453809Y-120554761D01*
X328310952Y-120602380D01*
X328215714Y-120602380D01*
X328977619Y-119602380D02*
X329644285Y-119602380D01*
X329215714Y-120602380D01*
X343836666Y-119602380D02*
X343836666Y-120316666D01*
X343789047Y-120459523D01*
X343693809Y-120554761D01*
X343550952Y-120602380D01*
X343455714Y-120602380D01*
X344455714Y-120030952D02*
X344360476Y-119983333D01*
X344312857Y-119935714D01*
X344265238Y-119840476D01*
X344265238Y-119792857D01*
X344312857Y-119697619D01*
X344360476Y-119650000D01*
X344455714Y-119602380D01*
X344646190Y-119602380D01*
X344741428Y-119650000D01*
X344789047Y-119697619D01*
X344836666Y-119792857D01*
X344836666Y-119840476D01*
X344789047Y-119935714D01*
X344741428Y-119983333D01*
X344646190Y-120030952D01*
X344455714Y-120030952D01*
X344360476Y-120078571D01*
X344312857Y-120126190D01*
X344265238Y-120221428D01*
X344265238Y-120411904D01*
X344312857Y-120507142D01*
X344360476Y-120554761D01*
X344455714Y-120602380D01*
X344646190Y-120602380D01*
X344741428Y-120554761D01*
X344789047Y-120507142D01*
X344836666Y-120411904D01*
X344836666Y-120221428D01*
X344789047Y-120126190D01*
X344741428Y-120078571D01*
X344646190Y-120030952D01*
M02*
